<?xml version="1.0" encoding="utf-8" standalone="no"?>
<!DOCTYPE svg PUBLIC "-//W3C//DTD SVG 1.1//EN"
  "http://www.w3.org/Graphics/SVG/1.1/DTD/svg11.dtd">
<svg xmlns:xlink="http://www.w3.org/1999/xlink" width="460.8pt" height="345.6pt" viewBox="0 0 460.8 345.6" xmlns="http://www.w3.org/2000/svg" version="1.1">
 <metadata>
  <rdf:RDF xmlns:dc="http://purl.org/dc/elements/1.1/" xmlns:cc="http://creativecommons.org/ns#" xmlns:rdf="http://www.w3.org/1999/02/22-rdf-syntax-ns#">
   <cc:Work>
    <dc:type rdf:resource="http://purl.org/dc/dcmitype/StillImage"/>
    <dc:date>2025-03-09T21:56:34.541004</dc:date>
    <dc:format>image/svg+xml</dc:format>
    <dc:creator>
     <cc:Agent>
      <dc:title>Matplotlib v3.9.1, https://matplotlib.org/</dc:title>
     </cc:Agent>
    </dc:creator>
   </cc:Work>
  </rdf:RDF>
 </metadata>
 <defs>
  <style type="text/css">*{stroke-linejoin: round; stroke-linecap: butt}</style>
 </defs>
 <g id="figure_1">
  <g id="patch_1">
   <path d="M 0 345.6 
L 460.8 345.6 
L 460.8 0 
L 0 0 
z
" style="fill: #ffffff"/>
  </g>
  <g id="axes_1">
   <g id="patch_2">
    <path d="M 57.6 307.584 
L 414.72 307.584 
L 414.72 41.472 
L 57.6 41.472 
z
" style="fill: #ffffff"/>
   </g>
   <g id="matplotlib.axis_1">
    <g id="xtick_1">
     <g id="line2d_1">
      <defs>
       <path id="ma25b152b83" d="M 0 0 
L 0 3.5 
" style="stroke: #000000; stroke-width: 0.8"/>
      </defs>
      <g>
       <use xlink:href="#ma25b152b83" x="73.832727" y="307.584" style="stroke: #000000; stroke-width: 0.8"/>
      </g>
     </g>
     <g id="text_1">
      <!-- 1 -->
      <g transform="translate(70.651477 322.182437) scale(0.1 -0.1)">
       <defs>
        <path id="DejaVuSans-31" d="M 794 531 
L 1825 531 
L 1825 4091 
L 703 3866 
L 703 4441 
L 1819 4666 
L 2450 4666 
L 2450 531 
L 3481 531 
L 3481 0 
L 794 0 
L 794 531 
z
" transform="scale(0.015625)"/>
       </defs>
       <use xlink:href="#DejaVuSans-31"/>
      </g>
     </g>
    </g>
    <g id="xtick_2">
     <g id="line2d_2">
      <g>
       <use xlink:href="#ma25b152b83" x="109.664165" y="307.584" style="stroke: #000000; stroke-width: 0.8"/>
      </g>
     </g>
     <g id="text_2">
      <!-- 34 -->
      <g transform="translate(103.301665 322.182437) scale(0.1 -0.1)">
       <defs>
        <path id="DejaVuSans-33" d="M 2597 2516 
Q 3050 2419 3304 2112 
Q 3559 1806 3559 1356 
Q 3559 666 3084 287 
Q 2609 -91 1734 -91 
Q 1441 -91 1130 -33 
Q 819 25 488 141 
L 488 750 
Q 750 597 1062 519 
Q 1375 441 1716 441 
Q 2309 441 2620 675 
Q 2931 909 2931 1356 
Q 2931 1769 2642 2001 
Q 2353 2234 1838 2234 
L 1294 2234 
L 1294 2753 
L 1863 2753 
Q 2328 2753 2575 2939 
Q 2822 3125 2822 3475 
Q 2822 3834 2567 4026 
Q 2313 4219 1838 4219 
Q 1578 4219 1281 4162 
Q 984 4106 628 3988 
L 628 4550 
Q 988 4650 1302 4700 
Q 1616 4750 1894 4750 
Q 2613 4750 3031 4423 
Q 3450 4097 3450 3541 
Q 3450 3153 3228 2886 
Q 3006 2619 2597 2516 
z
" transform="scale(0.015625)"/>
        <path id="DejaVuSans-34" d="M 2419 4116 
L 825 1625 
L 2419 1625 
L 2419 4116 
z
M 2253 4666 
L 3047 4666 
L 3047 1625 
L 3713 1625 
L 3713 1100 
L 3047 1100 
L 3047 0 
L 2419 0 
L 2419 1100 
L 313 1100 
L 313 1709 
L 2253 4666 
z
" transform="scale(0.015625)"/>
       </defs>
       <use xlink:href="#DejaVuSans-33"/>
       <use xlink:href="#DejaVuSans-34" x="63.623047"/>
      </g>
     </g>
    </g>
    <g id="xtick_3">
     <g id="line2d_3">
      <g>
       <use xlink:href="#ma25b152b83" x="145.495604" y="307.584" style="stroke: #000000; stroke-width: 0.8"/>
      </g>
     </g>
     <g id="text_3">
      <!-- 67 -->
      <g transform="translate(139.133104 322.182437) scale(0.1 -0.1)">
       <defs>
        <path id="DejaVuSans-36" d="M 2113 2584 
Q 1688 2584 1439 2293 
Q 1191 2003 1191 1497 
Q 1191 994 1439 701 
Q 1688 409 2113 409 
Q 2538 409 2786 701 
Q 3034 994 3034 1497 
Q 3034 2003 2786 2293 
Q 2538 2584 2113 2584 
z
M 3366 4563 
L 3366 3988 
Q 3128 4100 2886 4159 
Q 2644 4219 2406 4219 
Q 1781 4219 1451 3797 
Q 1122 3375 1075 2522 
Q 1259 2794 1537 2939 
Q 1816 3084 2150 3084 
Q 2853 3084 3261 2657 
Q 3669 2231 3669 1497 
Q 3669 778 3244 343 
Q 2819 -91 2113 -91 
Q 1303 -91 875 529 
Q 447 1150 447 2328 
Q 447 3434 972 4092 
Q 1497 4750 2381 4750 
Q 2619 4750 2861 4703 
Q 3103 4656 3366 4563 
z
" transform="scale(0.015625)"/>
        <path id="DejaVuSans-37" d="M 525 4666 
L 3525 4666 
L 3525 4397 
L 1831 0 
L 1172 0 
L 2766 4134 
L 525 4134 
L 525 4666 
z
" transform="scale(0.015625)"/>
       </defs>
       <use xlink:href="#DejaVuSans-36"/>
       <use xlink:href="#DejaVuSans-37" x="63.623047"/>
      </g>
     </g>
    </g>
    <g id="xtick_4">
     <g id="line2d_4">
      <g>
       <use xlink:href="#ma25b152b83" x="181.327042" y="307.584" style="stroke: #000000; stroke-width: 0.8"/>
      </g>
     </g>
     <g id="text_4">
      <!-- 100 -->
      <g transform="translate(171.783292 322.182437) scale(0.1 -0.1)">
       <defs>
        <path id="DejaVuSans-30" d="M 2034 4250 
Q 1547 4250 1301 3770 
Q 1056 3291 1056 2328 
Q 1056 1369 1301 889 
Q 1547 409 2034 409 
Q 2525 409 2770 889 
Q 3016 1369 3016 2328 
Q 3016 3291 2770 3770 
Q 2525 4250 2034 4250 
z
M 2034 4750 
Q 2819 4750 3233 4129 
Q 3647 3509 3647 2328 
Q 3647 1150 3233 529 
Q 2819 -91 2034 -91 
Q 1250 -91 836 529 
Q 422 1150 422 2328 
Q 422 3509 836 4129 
Q 1250 4750 2034 4750 
z
" transform="scale(0.015625)"/>
       </defs>
       <use xlink:href="#DejaVuSans-31"/>
       <use xlink:href="#DejaVuSans-30" x="63.623047"/>
       <use xlink:href="#DejaVuSans-30" x="127.246094"/>
      </g>
     </g>
    </g>
    <g id="xtick_5">
     <g id="line2d_5">
      <g>
       <use xlink:href="#ma25b152b83" x="217.15848" y="307.584" style="stroke: #000000; stroke-width: 0.8"/>
      </g>
     </g>
     <g id="text_5">
      <!-- 133 -->
      <g transform="translate(207.61473 322.182437) scale(0.1 -0.1)">
       <use xlink:href="#DejaVuSans-31"/>
       <use xlink:href="#DejaVuSans-33" x="63.623047"/>
       <use xlink:href="#DejaVuSans-33" x="127.246094"/>
      </g>
     </g>
    </g>
    <g id="xtick_6">
     <g id="line2d_6">
      <g>
       <use xlink:href="#ma25b152b83" x="254.075719" y="307.584" style="stroke: #000000; stroke-width: 0.8"/>
      </g>
     </g>
     <g id="text_6">
      <!-- 167 -->
      <g transform="translate(244.531969 322.182437) scale(0.1 -0.1)">
       <use xlink:href="#DejaVuSans-31"/>
       <use xlink:href="#DejaVuSans-36" x="63.623047"/>
       <use xlink:href="#DejaVuSans-37" x="127.246094"/>
      </g>
     </g>
    </g>
    <g id="xtick_7">
     <g id="line2d_7">
      <g>
       <use xlink:href="#ma25b152b83" x="289.907157" y="307.584" style="stroke: #000000; stroke-width: 0.8"/>
      </g>
     </g>
     <g id="text_7">
      <!-- 200 -->
      <g transform="translate(280.363407 322.182437) scale(0.1 -0.1)">
       <defs>
        <path id="DejaVuSans-32" d="M 1228 531 
L 3431 531 
L 3431 0 
L 469 0 
L 469 531 
Q 828 903 1448 1529 
Q 2069 2156 2228 2338 
Q 2531 2678 2651 2914 
Q 2772 3150 2772 3378 
Q 2772 3750 2511 3984 
Q 2250 4219 1831 4219 
Q 1534 4219 1204 4116 
Q 875 4013 500 3803 
L 500 4441 
Q 881 4594 1212 4672 
Q 1544 4750 1819 4750 
Q 2544 4750 2975 4387 
Q 3406 4025 3406 3419 
Q 3406 3131 3298 2873 
Q 3191 2616 2906 2266 
Q 2828 2175 2409 1742 
Q 1991 1309 1228 531 
z
" transform="scale(0.015625)"/>
       </defs>
       <use xlink:href="#DejaVuSans-32"/>
       <use xlink:href="#DejaVuSans-30" x="63.623047"/>
       <use xlink:href="#DejaVuSans-30" x="127.246094"/>
      </g>
     </g>
    </g>
    <g id="xtick_8">
     <g id="line2d_8">
      <g>
       <use xlink:href="#ma25b152b83" x="325.738595" y="307.584" style="stroke: #000000; stroke-width: 0.8"/>
      </g>
     </g>
     <g id="text_8">
      <!-- 233 -->
      <g transform="translate(316.194845 322.182437) scale(0.1 -0.1)">
       <use xlink:href="#DejaVuSans-32"/>
       <use xlink:href="#DejaVuSans-33" x="63.623047"/>
       <use xlink:href="#DejaVuSans-33" x="127.246094"/>
      </g>
     </g>
    </g>
    <g id="xtick_9">
     <g id="line2d_9">
      <g>
       <use xlink:href="#ma25b152b83" x="361.570033" y="307.584" style="stroke: #000000; stroke-width: 0.8"/>
      </g>
     </g>
     <g id="text_9">
      <!-- 266 -->
      <g transform="translate(352.026283 322.182437) scale(0.1 -0.1)">
       <use xlink:href="#DejaVuSans-32"/>
       <use xlink:href="#DejaVuSans-36" x="63.623047"/>
       <use xlink:href="#DejaVuSans-36" x="127.246094"/>
      </g>
     </g>
    </g>
    <g id="xtick_10">
     <g id="line2d_10">
      <g>
       <use xlink:href="#ma25b152b83" x="398.487273" y="307.584" style="stroke: #000000; stroke-width: 0.8"/>
      </g>
     </g>
     <g id="text_10">
      <!-- 300 -->
      <g transform="translate(388.943523 322.182437) scale(0.1 -0.1)">
       <use xlink:href="#DejaVuSans-33"/>
       <use xlink:href="#DejaVuSans-30" x="63.623047"/>
       <use xlink:href="#DejaVuSans-30" x="127.246094"/>
      </g>
     </g>
    </g>
    <g id="text_11">
     <!-- Epochs -->
     <g transform="translate(218.244375 335.860562) scale(0.1 -0.1)">
      <defs>
       <path id="DejaVuSans-45" d="M 628 4666 
L 3578 4666 
L 3578 4134 
L 1259 4134 
L 1259 2753 
L 3481 2753 
L 3481 2222 
L 1259 2222 
L 1259 531 
L 3634 531 
L 3634 0 
L 628 0 
L 628 4666 
z
" transform="scale(0.015625)"/>
       <path id="DejaVuSans-70" d="M 1159 525 
L 1159 -1331 
L 581 -1331 
L 581 3500 
L 1159 3500 
L 1159 2969 
Q 1341 3281 1617 3432 
Q 1894 3584 2278 3584 
Q 2916 3584 3314 3078 
Q 3713 2572 3713 1747 
Q 3713 922 3314 415 
Q 2916 -91 2278 -91 
Q 1894 -91 1617 61 
Q 1341 213 1159 525 
z
M 3116 1747 
Q 3116 2381 2855 2742 
Q 2594 3103 2138 3103 
Q 1681 3103 1420 2742 
Q 1159 2381 1159 1747 
Q 1159 1113 1420 752 
Q 1681 391 2138 391 
Q 2594 391 2855 752 
Q 3116 1113 3116 1747 
z
" transform="scale(0.015625)"/>
       <path id="DejaVuSans-6f" d="M 1959 3097 
Q 1497 3097 1228 2736 
Q 959 2375 959 1747 
Q 959 1119 1226 758 
Q 1494 397 1959 397 
Q 2419 397 2687 759 
Q 2956 1122 2956 1747 
Q 2956 2369 2687 2733 
Q 2419 3097 1959 3097 
z
M 1959 3584 
Q 2709 3584 3137 3096 
Q 3566 2609 3566 1747 
Q 3566 888 3137 398 
Q 2709 -91 1959 -91 
Q 1206 -91 779 398 
Q 353 888 353 1747 
Q 353 2609 779 3096 
Q 1206 3584 1959 3584 
z
" transform="scale(0.015625)"/>
       <path id="DejaVuSans-63" d="M 3122 3366 
L 3122 2828 
Q 2878 2963 2633 3030 
Q 2388 3097 2138 3097 
Q 1578 3097 1268 2742 
Q 959 2388 959 1747 
Q 959 1106 1268 751 
Q 1578 397 2138 397 
Q 2388 397 2633 464 
Q 2878 531 3122 666 
L 3122 134 
Q 2881 22 2623 -34 
Q 2366 -91 2075 -91 
Q 1284 -91 818 406 
Q 353 903 353 1747 
Q 353 2603 823 3093 
Q 1294 3584 2113 3584 
Q 2378 3584 2631 3529 
Q 2884 3475 3122 3366 
z
" transform="scale(0.015625)"/>
       <path id="DejaVuSans-68" d="M 3513 2113 
L 3513 0 
L 2938 0 
L 2938 2094 
Q 2938 2591 2744 2837 
Q 2550 3084 2163 3084 
Q 1697 3084 1428 2787 
Q 1159 2491 1159 1978 
L 1159 0 
L 581 0 
L 581 4863 
L 1159 4863 
L 1159 2956 
Q 1366 3272 1645 3428 
Q 1925 3584 2291 3584 
Q 2894 3584 3203 3211 
Q 3513 2838 3513 2113 
z
" transform="scale(0.015625)"/>
       <path id="DejaVuSans-73" d="M 2834 3397 
L 2834 2853 
Q 2591 2978 2328 3040 
Q 2066 3103 1784 3103 
Q 1356 3103 1142 2972 
Q 928 2841 928 2578 
Q 928 2378 1081 2264 
Q 1234 2150 1697 2047 
L 1894 2003 
Q 2506 1872 2764 1633 
Q 3022 1394 3022 966 
Q 3022 478 2636 193 
Q 2250 -91 1575 -91 
Q 1294 -91 989 -36 
Q 684 19 347 128 
L 347 722 
Q 666 556 975 473 
Q 1284 391 1588 391 
Q 1994 391 2212 530 
Q 2431 669 2431 922 
Q 2431 1156 2273 1281 
Q 2116 1406 1581 1522 
L 1381 1569 
Q 847 1681 609 1914 
Q 372 2147 372 2553 
Q 372 3047 722 3315 
Q 1072 3584 1716 3584 
Q 2034 3584 2315 3537 
Q 2597 3491 2834 3397 
z
" transform="scale(0.015625)"/>
      </defs>
      <use xlink:href="#DejaVuSans-45"/>
      <use xlink:href="#DejaVuSans-70" x="63.183594"/>
      <use xlink:href="#DejaVuSans-6f" x="126.660156"/>
      <use xlink:href="#DejaVuSans-63" x="187.841797"/>
      <use xlink:href="#DejaVuSans-68" x="242.822266"/>
      <use xlink:href="#DejaVuSans-73" x="306.201172"/>
     </g>
    </g>
   </g>
   <g id="matplotlib.axis_2">
    <g id="ytick_1">
     <g id="line2d_11">
      <defs>
       <path id="m1b61e41d08" d="M 0 0 
L -3.5 0 
" style="stroke: #000000; stroke-width: 0.8"/>
      </defs>
      <g>
       <use xlink:href="#m1b61e41d08" x="57.6" y="271.696977" style="stroke: #000000; stroke-width: 0.8"/>
      </g>
     </g>
     <g id="text_12">
      <!-- 20 -->
      <g transform="translate(37.875 275.496196) scale(0.1 -0.1)">
       <use xlink:href="#DejaVuSans-32"/>
       <use xlink:href="#DejaVuSans-30" x="63.623047"/>
      </g>
     </g>
    </g>
    <g id="ytick_2">
     <g id="line2d_12">
      <g>
       <use xlink:href="#m1b61e41d08" x="57.6" y="216.852807" style="stroke: #000000; stroke-width: 0.8"/>
      </g>
     </g>
     <g id="text_13">
      <!-- 40 -->
      <g transform="translate(37.875 220.652025) scale(0.1 -0.1)">
       <use xlink:href="#DejaVuSans-34"/>
       <use xlink:href="#DejaVuSans-30" x="63.623047"/>
      </g>
     </g>
    </g>
    <g id="ytick_3">
     <g id="line2d_13">
      <g>
       <use xlink:href="#m1b61e41d08" x="57.6" y="162.008636" style="stroke: #000000; stroke-width: 0.8"/>
      </g>
     </g>
     <g id="text_14">
      <!-- 60 -->
      <g transform="translate(37.875 165.807855) scale(0.1 -0.1)">
       <use xlink:href="#DejaVuSans-36"/>
       <use xlink:href="#DejaVuSans-30" x="63.623047"/>
      </g>
     </g>
    </g>
    <g id="ytick_4">
     <g id="line2d_14">
      <g>
       <use xlink:href="#m1b61e41d08" x="57.6" y="107.164466" style="stroke: #000000; stroke-width: 0.8"/>
      </g>
     </g>
     <g id="text_15">
      <!-- 80 -->
      <g transform="translate(37.875 110.963684) scale(0.1 -0.1)">
       <defs>
        <path id="DejaVuSans-38" d="M 2034 2216 
Q 1584 2216 1326 1975 
Q 1069 1734 1069 1313 
Q 1069 891 1326 650 
Q 1584 409 2034 409 
Q 2484 409 2743 651 
Q 3003 894 3003 1313 
Q 3003 1734 2745 1975 
Q 2488 2216 2034 2216 
z
M 1403 2484 
Q 997 2584 770 2862 
Q 544 3141 544 3541 
Q 544 4100 942 4425 
Q 1341 4750 2034 4750 
Q 2731 4750 3128 4425 
Q 3525 4100 3525 3541 
Q 3525 3141 3298 2862 
Q 3072 2584 2669 2484 
Q 3125 2378 3379 2068 
Q 3634 1759 3634 1313 
Q 3634 634 3220 271 
Q 2806 -91 2034 -91 
Q 1263 -91 848 271 
Q 434 634 434 1313 
Q 434 1759 690 2068 
Q 947 2378 1403 2484 
z
M 1172 3481 
Q 1172 3119 1398 2916 
Q 1625 2713 2034 2713 
Q 2441 2713 2670 2916 
Q 2900 3119 2900 3481 
Q 2900 3844 2670 4047 
Q 2441 4250 2034 4250 
Q 1625 4250 1398 4047 
Q 1172 3844 1172 3481 
z
" transform="scale(0.015625)"/>
       </defs>
       <use xlink:href="#DejaVuSans-38"/>
       <use xlink:href="#DejaVuSans-30" x="63.623047"/>
      </g>
     </g>
    </g>
    <g id="ytick_5">
     <g id="line2d_15">
      <g>
       <use xlink:href="#m1b61e41d08" x="57.6" y="52.320295" style="stroke: #000000; stroke-width: 0.8"/>
      </g>
     </g>
     <g id="text_16">
      <!-- 100 -->
      <g transform="translate(31.5125 56.119514) scale(0.1 -0.1)">
       <use xlink:href="#DejaVuSans-31"/>
       <use xlink:href="#DejaVuSans-30" x="63.623047"/>
       <use xlink:href="#DejaVuSans-30" x="127.246094"/>
      </g>
     </g>
    </g>
    <g id="text_17">
     <!-- Accuracy -->
     <g transform="translate(25.432812 197.356125) rotate(-90) scale(0.1 -0.1)">
      <defs>
       <path id="DejaVuSans-41" d="M 2188 4044 
L 1331 1722 
L 3047 1722 
L 2188 4044 
z
M 1831 4666 
L 2547 4666 
L 4325 0 
L 3669 0 
L 3244 1197 
L 1141 1197 
L 716 0 
L 50 0 
L 1831 4666 
z
" transform="scale(0.015625)"/>
       <path id="DejaVuSans-75" d="M 544 1381 
L 544 3500 
L 1119 3500 
L 1119 1403 
Q 1119 906 1312 657 
Q 1506 409 1894 409 
Q 2359 409 2629 706 
Q 2900 1003 2900 1516 
L 2900 3500 
L 3475 3500 
L 3475 0 
L 2900 0 
L 2900 538 
Q 2691 219 2414 64 
Q 2138 -91 1772 -91 
Q 1169 -91 856 284 
Q 544 659 544 1381 
z
M 1991 3584 
L 1991 3584 
z
" transform="scale(0.015625)"/>
       <path id="DejaVuSans-72" d="M 2631 2963 
Q 2534 3019 2420 3045 
Q 2306 3072 2169 3072 
Q 1681 3072 1420 2755 
Q 1159 2438 1159 1844 
L 1159 0 
L 581 0 
L 581 3500 
L 1159 3500 
L 1159 2956 
Q 1341 3275 1631 3429 
Q 1922 3584 2338 3584 
Q 2397 3584 2469 3576 
Q 2541 3569 2628 3553 
L 2631 2963 
z
" transform="scale(0.015625)"/>
       <path id="DejaVuSans-61" d="M 2194 1759 
Q 1497 1759 1228 1600 
Q 959 1441 959 1056 
Q 959 750 1161 570 
Q 1363 391 1709 391 
Q 2188 391 2477 730 
Q 2766 1069 2766 1631 
L 2766 1759 
L 2194 1759 
z
M 3341 1997 
L 3341 0 
L 2766 0 
L 2766 531 
Q 2569 213 2275 61 
Q 1981 -91 1556 -91 
Q 1019 -91 701 211 
Q 384 513 384 1019 
Q 384 1609 779 1909 
Q 1175 2209 1959 2209 
L 2766 2209 
L 2766 2266 
Q 2766 2663 2505 2880 
Q 2244 3097 1772 3097 
Q 1472 3097 1187 3025 
Q 903 2953 641 2809 
L 641 3341 
Q 956 3463 1253 3523 
Q 1550 3584 1831 3584 
Q 2591 3584 2966 3190 
Q 3341 2797 3341 1997 
z
" transform="scale(0.015625)"/>
       <path id="DejaVuSans-79" d="M 2059 -325 
Q 1816 -950 1584 -1140 
Q 1353 -1331 966 -1331 
L 506 -1331 
L 506 -850 
L 844 -850 
Q 1081 -850 1212 -737 
Q 1344 -625 1503 -206 
L 1606 56 
L 191 3500 
L 800 3500 
L 1894 763 
L 2988 3500 
L 3597 3500 
L 2059 -325 
z
" transform="scale(0.015625)"/>
      </defs>
      <use xlink:href="#DejaVuSans-41"/>
      <use xlink:href="#DejaVuSans-63" x="66.658203"/>
      <use xlink:href="#DejaVuSans-63" x="121.638672"/>
      <use xlink:href="#DejaVuSans-75" x="176.619141"/>
      <use xlink:href="#DejaVuSans-72" x="239.998047"/>
      <use xlink:href="#DejaVuSans-61" x="281.111328"/>
      <use xlink:href="#DejaVuSans-63" x="342.390625"/>
      <use xlink:href="#DejaVuSans-79" x="397.371094"/>
     </g>
    </g>
   </g>
   <g id="line2d_16">
    <path d="M 73.832727 286.333515 
L 74.918528 233.655689 
L 76.00433 193.064148 
L 77.090131 165.61464 
L 78.175932 146.234082 
L 79.261733 131.165646 
L 81.433335 115.480213 
L 82.519137 110.496249 
L 83.604938 103.86696 
L 84.690739 100.021012 
L 85.77654 97.532458 
L 86.862341 92.89127 
L 87.948142 90.683792 
L 89.033943 87.475408 
L 90.119745 85.843794 
L 91.205546 83.602039 
L 92.291347 82.018413 
L 93.377148 81.038074 
L 94.462949 80.510199 
L 95.54875 101.302995 
L 96.634552 99.431438 
L 97.720353 98.958407 
L 98.806154 96.689229 
L 99.891955 95.297558 
L 102.063557 91.609288 
L 103.149358 90.484982 
L 104.23516 89.086456 
L 105.320961 87.482264 
L 106.406762 86.207137 
L 107.492563 84.356146 
L 108.578364 83.910537 
L 109.664165 83.252407 
L 110.749967 81.696204 
L 111.835768 80.709009 
L 112.921569 79.056828 
L 114.00737 78.076489 
L 115.093171 77.781701 
L 116.178972 76.342042 
L 117.264773 75.560512 
L 118.350575 74.950371 
L 119.436376 73.154224 
L 120.522177 72.825159 
L 121.607978 72.077908 
L 123.77958 69.822441 
L 124.865382 69.452243 
L 127.036984 67.77264 
L 128.122785 66.39468 
L 129.208586 65.983349 
L 130.294387 65.846239 
L 131.380189 64.461423 
L 132.46599 64.447712 
L 134.637592 63.412529 
L 135.723393 63.535928 
L 136.809194 62.84352 
L 137.894995 63.316551 
L 138.980797 78.508387 
L 140.066598 81.209462 
L 141.152399 81.531671 
L 142.2382 80.729575 
L 143.324001 80.434788 
L 144.409802 80.338811 
L 145.495604 80.667876 
L 146.581405 78.563231 
L 147.667206 79.043117 
L 148.753007 78.268443 
L 149.838808 77.918812 
L 150.924609 77.720002 
L 152.01041 77.061872 
L 153.096212 76.842495 
L 154.182013 76.77394 
L 156.353615 75.491957 
L 157.439416 74.99836 
L 158.525217 74.257963 
L 160.69682 73.997454 
L 161.782621 73.531278 
L 162.868422 73.236491 
L 163.954223 72.715471 
L 165.040024 71.52261 
L 168.297428 71.118135 
L 169.383229 70.754792 
L 170.46903 69.890996 
L 171.554831 69.34941 
L 172.640632 69.34941 
L 173.726434 69.01349 
L 174.812235 68.046861 
L 175.898036 67.63553 
L 176.983837 67.704085 
L 178.069638 67.51213 
L 179.155439 66.956833 
L 180.24124 66.031338 
L 181.327042 66.182159 
L 182.412843 65.421196 
L 184.584445 64.461423 
L 185.670246 64.152925 
L 186.756047 63.261707 
L 187.841849 63.090319 
L 188.92765 63.446806 
L 190.013451 62.274512 
L 191.099252 62.267657 
L 192.185053 61.72607 
L 193.270854 61.32845 
L 195.442457 60.128734 
L 196.528258 59.957346 
L 197.614059 59.443182 
L 200.871462 58.599953 
L 201.957264 58.682219 
L 203.043065 57.832134 
L 204.128866 57.489358 
L 205.214667 57.818423 
L 207.386269 56.988905 
L 209.557872 56.652985 
L 210.643673 56.419897 
L 211.729474 56.00171 
L 212.815275 56.077121 
L 214.986877 55.8646 
L 217.15848 55.48069 
L 218.244281 55.8029 
L 219.330082 55.350436 
L 220.415883 55.761767 
L 222.587486 55.309302 
L 223.673287 55.590379 
L 224.759088 55.610945 
L 225.844889 70.124084 
L 226.93069 73.407879 
L 228.016491 73.35989 
L 229.102292 72.880004 
L 230.188094 73.332468 
L 231.273895 73.380457 
L 232.359696 73.284479 
L 233.445497 72.681193 
L 234.531298 72.681193 
L 235.617099 73.195358 
L 236.702901 72.523516 
L 237.788702 72.173885 
L 238.874503 72.694904 
L 242.131906 71.166123 
L 243.217708 70.898758 
L 244.303509 71.118135 
L 245.38931 70.494282 
L 246.475111 70.576548 
L 247.560912 70.439438 
L 248.646713 69.801874 
L 249.732514 69.822441 
L 250.818316 69.424821 
L 251.904117 69.335699 
L 252.989918 69.568787 
L 255.16152 69.095756 
L 256.247321 69.301421 
L 257.333123 68.55417 
L 259.504725 68.101705 
L 260.590526 68.800968 
L 261.676327 68.43077 
L 262.762128 69.034056 
L 263.847929 67.381875 
L 264.933731 67.765785 
L 266.019532 66.860856 
L 267.105333 67.57383 
L 268.191134 67.594397 
L 269.276935 66.867711 
L 270.362736 66.627768 
L 271.448538 66.922556 
L 272.534339 66.538646 
L 273.62014 66.881422 
L 274.705941 65.777683 
L 275.791742 66.264425 
L 276.877543 65.818817 
L 279.049146 65.873661 
L 280.134947 65.510318 
L 281.220748 64.934454 
L 282.306549 64.495701 
L 283.39235 64.94131 
L 284.478151 65.07842 
L 285.563953 64.653378 
L 287.735555 64.242047 
L 288.821356 63.727883 
L 289.907157 63.810149 
L 290.992958 64.269469 
L 292.07876 63.206863 
L 294.250362 63.391962 
L 295.336163 62.857231 
L 296.421964 62.651566 
L 297.507765 62.322501 
L 298.593566 62.898365 
L 300.765169 62.041424 
L 301.85097 62.103124 
L 302.936771 62.432189 
L 304.022572 61.671226 
L 305.108373 61.102218 
L 307.279976 61.047374 
L 308.365777 61.239328 
L 309.451578 61.294173 
L 310.537379 60.704598 
L 311.62318 60.60862 
L 312.708981 60.101312 
L 314.880584 60.169867 
L 315.966385 59.717403 
L 318.137987 59.772247 
L 319.223788 59.066128 
L 320.30959 59.127828 
L 321.395391 58.620519 
L 322.481192 58.449131 
L 323.566993 58.469698 
L 325.738595 57.770435 
L 326.824396 57.934967 
L 327.910198 57.866412 
L 328.995999 57.475647 
L 330.0818 57.215137 
L 331.167601 57.187715 
L 332.253402 57.297404 
L 333.339203 56.913494 
L 334.425005 56.872361 
L 335.510806 56.351342 
L 336.596607 56.748962 
L 337.682408 56.454174 
L 338.768209 56.317064 
L 339.85401 56.00171 
L 340.939811 56.022277 
L 342.025613 55.748056 
L 343.111414 55.789189 
L 344.197215 55.638367 
L 345.283016 55.658934 
L 346.368817 55.412135 
L 347.454618 55.000804 
L 348.54042 55.089926 
L 349.626221 54.82256 
L 350.712022 54.939104 
L 351.797823 54.877405 
L 352.883624 54.534629 
L 355.055227 54.616895 
L 356.141028 54.322107 
L 357.226829 54.239841 
L 358.31263 54.390663 
L 359.398431 54.102731 
L 361.570033 54.143864 
L 362.655835 53.862787 
L 363.741636 53.739388 
L 364.827437 53.842221 
L 366.999039 53.568 
L 368.08484 53.96562 
L 370.256443 54.143864 
L 371.342244 54.123297 
L 373.513846 54.801994 
L 374.599647 54.829416 
L 375.685448 55.062504 
L 377.857051 54.966526 
L 378.942852 54.925393 
L 380.028653 55.316158 
L 381.114454 55.316158 
L 383.286057 54.918538 
L 384.371858 54.966526 
L 385.457659 54.829416 
L 387.629261 55.172192 
L 388.715062 55.501257 
L 389.800863 55.425846 
L 390.886665 55.179048 
L 391.972466 55.165336 
L 393.058267 55.329869 
L 394.144068 55.288736 
L 395.229869 55.048793 
L 396.31567 55.247603 
L 397.401472 55.000804 
L 398.487273 55.240747 
L 398.487273 55.240747 
" clip-path="url(#p74eb092ce7)" style="fill: none; stroke: #1f77b4; stroke-width: 1.5; stroke-linecap: square"/>
   </g>
   <g id="line2d_17">
    <path d="M 73.832727 284.22887 
L 74.918528 253.900044 
L 76.00433 241.09393 
L 78.175932 208.324538 
L 79.261733 209.695642 
L 80.347534 205.993661 
L 81.433335 183.726928 
L 82.519137 182.849421 
L 83.604938 179.147439 
L 84.690739 174.238886 
L 85.77654 171.5241 
L 86.862341 164.312091 
L 87.948142 158.690564 
L 89.033943 152.383484 
L 90.119745 147.694308 
L 91.205546 148.297593 
L 92.291347 146.323203 
L 93.377148 145.36343 
L 94.462949 145.418275 
L 95.54875 169.933619 
L 96.634552 168.452826 
L 97.720353 170.070729 
L 98.806154 167.822118 
L 99.891955 158.745408 
L 100.977756 158.63572 
L 102.063557 160.418155 
L 103.149358 160.034246 
L 104.23516 157.374304 
L 105.320961 154.16592 
L 106.406762 148.928301 
L 107.492563 146.816801 
L 108.578364 142.100202 
L 109.664165 146.186093 
L 110.749967 142.484111 
L 111.835768 138.206266 
L 112.921569 142.676066 
L 114.00737 138.590175 
L 115.093171 133.434823 
L 116.178972 136.14961 
L 117.264773 137.191649 
L 118.350575 132.228252 
L 119.436376 130.582926 
L 120.522177 130.390972 
L 121.607978 129.074712 
L 122.693779 128.00525 
L 123.77958 125.976016 
L 124.865382 121.56106 
L 125.951183 123.014431 
L 127.036984 124.796866 
L 128.122785 121.780437 
L 129.208586 120.820664 
L 130.294387 119.394716 
L 131.380189 118.517209 
L 132.46599 118.1333 
L 133.551791 116.871884 
L 134.637592 116.95415 
L 135.723393 115.857267 
L 137.894995 116.15891 
L 138.980797 142.237313 
L 140.066598 143.416462 
L 141.152399 145.802184 
L 142.2382 143.498729 
L 143.324001 143.91006 
L 144.409802 139.083773 
L 145.495604 137.356181 
L 146.581405 139.30315 
L 147.667206 135.326947 
L 148.753007 139.879013 
L 149.838808 135.957655 
L 150.924609 135.957655 
L 152.01041 139.166039 
L 154.182013 133.51709 
L 155.267814 132.502472 
L 156.353615 135.299525 
L 157.439416 131.707232 
L 158.525217 133.873577 
L 159.611019 131.323323 
L 160.69682 132.200829 
L 161.782621 133.352557 
L 162.868422 131.268479 
L 163.954223 128.52627 
L 165.040024 130.199017 
L 166.125825 131.02168 
L 167.211627 128.635958 
L 168.297428 128.581114 
L 169.383229 124.851711 
L 170.46903 126.634146 
L 171.554831 126.03086 
L 172.640632 125.976016 
L 173.726434 125.180776 
L 174.812235 122.904743 
L 175.898036 125.23562 
L 176.983837 122.328879 
L 178.069638 123.233808 
L 179.155439 119.723781 
L 180.24124 120.299644 
L 182.412843 118.92854 
L 183.498644 120.189956 
L 184.584445 116.515397 
L 185.670246 117.584858 
L 186.756047 115.199137 
L 187.841849 116.076643 
L 188.92765 115.199137 
L 190.013451 115.775 
L 191.099252 112.758571 
L 192.185053 114.787805 
L 193.270854 112.950526 
L 194.356656 113.855454 
L 195.442457 111.990753 
L 196.528258 113.00537 
L 198.69986 112.073019 
L 199.785661 112.319818 
L 200.871462 110.866447 
L 201.957264 110.482538 
L 203.043065 109.550187 
L 204.128866 110.180895 
L 205.214667 108.645258 
L 206.300468 108.508148 
L 207.386269 106.753134 
L 209.557872 107.822596 
L 210.643673 106.424069 
L 211.729474 106.04016 
L 212.815275 106.067582 
L 213.901076 106.506336 
L 214.986877 105.409452 
L 216.072679 104.833588 
L 218.244281 105.957894 
L 219.330082 105.107809 
L 220.415883 105.135231 
L 221.501684 104.477101 
L 222.587486 105.51914 
L 223.673287 105.738517 
L 224.759088 104.696478 
L 225.844889 131.460433 
L 226.93069 133.188025 
L 228.016491 133.900999 
L 229.102292 136.752896 
L 230.188094 131.515277 
L 231.273895 131.02168 
L 232.359696 134.586551 
L 233.445497 130.665193 
L 234.531298 129.403777 
L 235.617099 128.38916 
L 236.702901 137.054539 
L 237.788702 130.50066 
L 238.874503 129.074712 
L 239.960304 131.844342 
L 241.046105 129.211822 
L 242.131906 129.266666 
L 243.217708 127.456809 
L 244.303509 129.04729 
L 245.38931 126.058282 
L 247.560912 131.268479 
L 248.646713 124.988821 
L 249.732514 128.992445 
L 250.818316 128.060095 
L 251.904117 126.387347 
L 252.989918 128.800491 
L 254.075719 126.359925 
L 255.16152 128.66338 
L 256.247321 127.484231 
L 257.333123 129.348933 
L 258.418924 126.880945 
L 259.504725 125.564685 
L 260.590526 127.785874 
L 261.676327 125.564685 
L 262.762128 125.071087 
L 263.847929 124.358113 
L 264.933731 122.822476 
L 266.019532 126.003438 
L 267.105333 126.332503 
L 268.191134 128.060095 
L 269.276935 124.275847 
L 270.362736 123.672561 
L 271.448538 120.217378 
L 272.534339 122.054658 
L 273.62014 122.274035 
L 274.705941 129.294088 
L 275.791742 123.124119 
L 276.877543 123.809671 
L 277.963344 122.054658 
L 279.049146 120.519021 
L 280.134947 126.113127 
L 281.220748 121.999814 
L 282.306549 123.453184 
L 283.39235 119.559248 
L 284.478151 123.370918 
L 285.563953 123.699983 
L 286.649754 124.906555 
L 287.735555 124.632334 
L 288.821356 119.998002 
L 289.907157 118.818852 
L 290.992958 119.367294 
L 292.07876 122.657944 
L 293.164561 120.2448 
L 294.250362 121.999814 
L 295.336163 117.392903 
L 296.421964 119.778625 
L 297.507765 118.462365 
L 298.593566 118.764008 
L 299.679368 119.668936 
L 300.765169 118.188144 
L 301.85097 120.080268 
L 302.936771 118.407521 
L 304.022572 115.720156 
L 305.108373 115.089448 
L 306.194175 117.310637 
L 307.279976 121.862703 
L 308.365777 116.734773 
L 309.451578 118.846274 
L 310.537379 115.528202 
L 311.62318 116.926728 
L 312.708981 114.541007 
L 313.794783 114.211942 
L 314.880584 114.924916 
L 315.966385 116.021799 
L 317.052186 115.802422 
L 318.137987 112.539194 
L 319.223788 115.11687 
L 320.30959 113.361857 
L 321.395391 116.378286 
L 322.481192 112.840837 
L 323.566993 112.539194 
L 324.652794 113.910299 
L 325.738595 113.279591 
L 326.824396 111.414889 
L 327.910198 111.414889 
L 328.995999 109.879252 
L 330.0818 109.632453 
L 331.167601 109.906674 
L 332.253402 111.497155 
L 333.339203 109.98894 
L 334.425005 109.056589 
L 335.510806 109.796986 
L 337.682408 107.274154 
L 338.768209 111.085824 
L 339.85401 107.795174 
L 340.939811 105.793361 
L 342.025613 107.795174 
L 343.111414 105.985316 
L 344.197215 104.641634 
L 345.283016 107.109621 
L 346.368817 105.299764 
L 347.454618 105.436874 
L 348.54042 104.504523 
L 349.626221 107.630641 
L 350.712022 104.614212 
L 351.797823 104.970699 
L 352.883624 105.683673 
L 353.969425 103.709283 
L 355.055227 103.215685 
L 356.141028 103.764127 
L 357.226829 102.74951 
L 359.398431 102.804354 
L 360.484232 102.447867 
L 361.570033 101.43325 
L 362.655835 102.173646 
L 363.741636 101.954269 
L 364.827437 101.597782 
L 365.913238 102.420445 
L 366.999039 102.667244 
L 368.08484 102.447867 
L 369.170642 102.831776 
L 370.256443 104.312569 
L 371.342244 104.559368 
L 372.428045 104.339991 
L 373.513846 105.546563 
L 374.599647 106.177271 
L 375.685448 107.35642 
L 376.77125 103.654439 
L 377.857051 107.35642 
L 378.942852 106.369225 
L 380.028653 107.904862 
L 381.114454 105.628829 
L 382.200255 105.711095 
L 383.286057 106.643446 
L 384.371858 105.327186 
L 385.457659 104.915855 
L 386.54346 104.915855 
L 388.715062 107.904862 
L 389.800863 108.124239 
L 390.886665 105.957894 
L 391.972466 107.795174 
L 393.058267 106.643446 
L 394.144068 106.232115 
L 395.229869 108.343615 
L 396.31567 107.466109 
L 397.401472 107.740329 
L 398.487273 107.137044 
L 398.487273 107.137044 
" clip-path="url(#p74eb092ce7)" style="fill: none; stroke: #ff7f0e; stroke-width: 1.5; stroke-linecap: square"/>
   </g>
   <g id="line2d_18">
    <path d="M 73.832727 295.488 
L 74.918528 282.684723 
L 76.00433 276.424923 
L 77.090131 274.401362 
L 78.175932 254.22249 
L 79.261733 260.330996 
L 80.347534 251.007487 
L 81.433335 257.134904 
L 82.519137 248.038337 
L 83.604938 246.638865 
L 84.690739 236.974944 
L 85.77654 244.57748 
L 86.862341 235.651119 
L 87.948142 231.169026 
L 89.033943 232.871087 
L 90.119745 225.703521 
L 91.205546 225.173991 
L 92.291347 227.084081 
L 93.377148 224.663373 
L 94.462949 226.289786 
L 95.54875 236.785826 
L 96.634552 237.844886 
L 97.720353 246.336276 
L 98.806154 248.019425 
L 99.891955 239.244358 
L 100.977756 245.485246 
L 102.063557 250.496868 
L 103.149358 239.452387 
L 104.23516 239.509123 
L 105.320961 231.84985 
L 106.406762 233.154763 
L 107.492563 234.970295 
L 108.578364 227.405581 
L 109.664165 228.124229 
L 110.749967 225.438756 
L 111.835768 223.453019 
L 112.921569 231.187938 
L 114.00737 221.599664 
L 115.093171 225.816992 
L 116.178972 225.552227 
L 117.264773 223.661048 
L 118.350575 222.204841 
L 120.522177 220.483869 
L 121.607978 216.682601 
L 122.693779 219.632839 
L 123.77958 217.42016 
L 124.865382 212.313979 
L 125.951183 218.781808 
L 127.036984 217.193219 
L 128.122785 210.744301 
L 129.208586 208.266857 
L 130.294387 209.04224 
L 131.380189 211.065801 
L 132.46599 211.444037 
L 133.551791 209.874359 
L 134.637592 209.590682 
L 135.723393 208.588357 
L 136.809194 208.247945 
L 137.894995 209.212446 
L 138.980797 227.273199 
L 140.066598 231.377056 
L 141.152399 235.008118 
L 142.2382 229.561525 
L 143.324001 237.012767 
L 144.409802 228.124229 
L 145.495604 223.755607 
L 146.581405 225.911551 
L 147.667206 227.424493 
L 148.753007 222.488518 
L 149.838808 225.098344 
L 150.924609 224.20949 
L 152.01041 221.9779 
L 153.096212 221.334899 
L 154.182013 221.372723 
L 155.267814 224.814667 
L 156.353615 223.698872 
L 157.439416 223.377372 
L 158.525217 220.313663 
L 159.611019 221.089046 
L 160.69682 227.802729 
L 161.782621 220.427134 
L 162.868422 224.190578 
L 163.954223 217.382337 
L 165.040024 217.571454 
L 166.125825 225.457668 
L 167.211627 222.09137 
L 168.297428 223.339548 
L 169.383229 218.044249 
L 170.46903 216.115247 
L 171.554831 222.677636 
L 172.640632 220.483869 
L 173.726434 215.963953 
L 174.812235 216.323277 
L 175.898036 220.805369 
L 176.983837 215.453335 
L 178.069638 210.95233 
L 179.155439 212.881332 
L 180.24124 211.444037 
L 181.327042 217.609278 
L 182.412843 210.801036 
L 183.498644 215.547894 
L 184.584445 212.143773 
L 185.670246 215.585717 
L 186.756047 210.706477 
L 187.841849 214.98054 
L 188.92765 209.836535 
L 190.013451 203.293058 
L 191.099252 208.626181 
L 192.185053 203.10394 
L 193.270854 207.642768 
L 194.356656 208.815299 
L 195.442457 205.713766 
L 196.528258 205.032942 
L 197.614059 211.198183 
L 198.69986 213.051538 
L 199.785661 208.645093 
L 200.871462 201.72338 
L 201.957264 202.442028 
L 203.043065 204.711442 
L 204.128866 205.902884 
L 205.214667 202.858087 
L 206.300468 204.938383 
L 207.386269 200.702144 
L 208.472071 203.406529 
L 209.557872 203.879324 
L 210.643673 201.704468 
L 211.729474 199.983496 
L 212.815275 201.817939 
L 213.901076 201.590998 
L 214.986877 202.101616 
L 216.072679 200.55085 
L 217.15848 199.340496 
L 218.244281 200.475203 
L 219.330082 199.567437 
L 220.415883 199.453966 
L 221.501684 198.489465 
L 222.587486 198.829877 
L 223.673287 200.096967 
L 224.759088 200.096967 
L 225.844889 219.992163 
L 226.93069 226.270874 
L 228.016491 227.102993 
L 229.102292 221.958988 
L 230.188094 223.35846 
L 231.273895 216.56913 
L 232.359696 220.654075 
L 233.445497 213.524333 
L 234.531298 217.798396 
L 235.617099 217.136483 
L 236.702901 216.966277 
L 237.788702 222.015723 
L 238.874503 225.47658 
L 239.960304 225.911551 
L 241.046105 221.599664 
L 242.131906 215.926129 
L 243.217708 215.396599 
L 244.303509 215.566805 
L 245.38931 219.084397 
L 246.475111 219.803045 
L 247.560912 214.356451 
L 248.646713 210.271506 
L 249.732514 224.73902 
L 250.818316 219.33025 
L 251.904117 216.89063 
L 252.989918 217.476895 
L 254.075719 211.141448 
L 255.16152 217.09866 
L 256.247321 218.554867 
L 257.333123 217.268866 
L 258.418924 220.483869 
L 259.504725 216.739336 
L 260.590526 217.703837 
L 261.676327 215.131834 
L 262.762128 218.15772 
L 263.847929 224.568814 
L 264.933731 218.15772 
L 266.019532 218.592691 
L 267.105333 220.862105 
L 268.191134 215.585717 
L 270.362736 216.947366 
L 271.448538 211.954655 
L 272.534339 209.552858 
L 273.62014 213.165009 
L 274.705941 218.592691 
L 275.791742 215.207481 
L 276.877543 208.210122 
L 277.963344 209.552858 
L 279.049146 205.146413 
L 280.134947 220.937752 
L 281.220748 214.072774 
L 282.306549 216.833895 
L 283.39235 210.687565 
L 284.478151 215.491158 
L 285.563953 211.822272 
L 286.649754 218.365749 
L 287.735555 211.746625 
L 288.821356 215.661364 
L 289.907157 209.458299 
L 290.992958 218.460308 
L 292.07876 217.552543 
L 293.164561 208.039916 
L 294.250362 211.065801 
L 295.336163 214.640128 
L 296.421964 214.488834 
L 297.507765 214.034951 
L 298.593566 209.136799 
L 299.679368 213.127185 
L 300.765169 209.212446 
L 301.85097 213.354127 
L 302.936771 209.288093 
L 304.022572 207.13215 
L 305.108373 200.361732 
L 306.194175 205.278795 
L 307.279976 225.741345 
L 308.365777 211.217095 
L 309.451578 216.777159 
L 310.537379 204.768177 
L 311.62318 212.692214 
L 312.708981 210.214771 
L 313.794783 210.233683 
L 314.880584 204.295383 
L 315.966385 212.465273 
L 317.052186 213.845833 
L 318.137987 209.798712 
L 319.223788 209.023328 
L 320.30959 204.541236 
L 321.395391 207.737327 
L 322.481192 205.127501 
L 323.566993 205.883972 
L 324.652794 207.45365 
L 325.738595 203.368705 
L 326.824396 201.023644 
L 327.910198 208.077739 
L 328.995999 201.212762 
L 330.0818 202.423116 
L 331.167601 197.487141 
L 332.253402 202.78244 
L 333.339203 206.07309 
L 334.425005 206.148737 
L 335.510806 205.865061 
L 337.682408 200.815615 
L 338.768209 201.893586 
L 339.85401 199.529613 
L 340.939811 200.153702 
L 342.025613 202.725705 
L 343.111414 201.855763 
L 344.197215 202.366381 
L 345.283016 203.709117 
L 346.368817 195.577051 
L 347.454618 197.524964 
L 348.54042 198.96226 
L 349.626221 203.671294 
L 350.712022 200.172614 
L 351.797823 197.524964 
L 352.883624 206.583708 
L 353.969425 202.423116 
L 355.055227 196.182228 
L 356.141028 203.538911 
L 357.226829 197.411494 
L 358.31263 202.366381 
L 359.398431 198.489465 
L 360.484232 200.286085 
L 361.570033 199.567437 
L 362.655835 202.044881 
L 363.741636 196.238963 
L 364.827437 199.586349 
L 365.913238 197.562788 
L 366.999039 198.75423 
L 368.08484 198.451642 
L 369.170642 201.061468 
L 370.256443 200.702144 
L 372.428045 198.205789 
L 373.513846 201.553174 
L 374.599647 201.061468 
L 375.685448 206.48915 
L 376.77125 199.586349 
L 377.857051 198.792054 
L 378.942852 205.184237 
L 380.028653 199.529613 
L 381.114454 200.229349 
L 382.200255 203.179588 
L 383.286057 199.945673 
L 384.371858 198.792054 
L 385.457659 199.945673 
L 386.54346 200.172614 
L 387.629261 204.881648 
L 388.715062 204.106265 
L 389.800863 205.675943 
L 390.886665 200.267173 
L 391.972466 203.255235 
L 393.058267 199.208113 
L 394.144068 201.004732 
L 395.229869 201.855763 
L 396.31567 198.678583 
L 397.401472 202.839175 
L 398.487273 204.579059 
L 398.487273 204.579059 
" clip-path="url(#p74eb092ce7)" style="fill: none; stroke: #2ca02c; stroke-width: 1.5; stroke-linecap: square"/>
   </g>
   <g id="line2d_19">
    <path d="M 368.08484 101.872003 
L 369.170642 102.09138 
L 370.256443 103.709283 
L 371.342244 103.051153 
L 372.428045 106.095004 
L 373.513846 103.462484 
L 374.599647 104.943277 
L 375.685448 104.833588 
L 376.77125 103.572172 
L 377.857051 103.462484 
L 378.942852 103.051153 
L 380.028653 102.804354 
L 381.114454 103.352796 
L 382.200255 103.54475 
L 383.286057 103.462484 
L 384.371858 106.753134 
L 385.457659 104.806166 
L 386.54346 106.341803 
L 387.629261 105.354608 
L 388.715062 108.398459 
L 389.800863 107.987128 
L 390.886665 105.272342 
L 391.972466 108.261349 
L 393.058267 105.135231 
L 394.144068 107.383842 
L 395.229869 112.48435 
L 396.31567 111.414889 
L 397.401472 110.866447 
L 398.487273 115.665312 
L 398.487273 115.665312 
" clip-path="url(#p74eb092ce7)" style="fill: none; stroke: #d62728; stroke-width: 1.5; stroke-linecap: square"/>
   </g>
   <g id="line2d_20">
    <path d="M 368.08484 198.602936 
L 369.170642 198.716407 
L 370.256443 199.113554 
L 371.342244 199.132466 
L 372.428045 199.000084 
L 373.513846 194.177579 
L 374.599647 198.43273 
L 375.685448 197.808641 
L 376.77125 196.711758 
L 378.942852 198.035583 
L 380.028653 193.666961 
L 381.114454 202.309646 
L 382.200255 197.789729 
L 383.286057 196.163316 
L 384.371858 202.78244 
L 385.457659 200.040232 
L 386.54346 198.96226 
L 387.629261 199.17029 
L 388.715062 207.66168 
L 389.800863 203.954971 
L 390.886665 201.345145 
L 391.972466 206.829562 
L 393.058267 198.584024 
L 394.144068 201.269497 
L 395.229869 207.434739 
L 396.31567 203.066117 
L 397.401472 206.640444 
L 398.487273 212.994803 
L 398.487273 212.994803 
" clip-path="url(#p74eb092ce7)" style="fill: none; stroke: #9467bd; stroke-width: 1.5; stroke-linecap: square"/>
   </g>
   <g id="patch_3">
    <path d="M 57.6 307.584 
L 57.6 41.472 
" style="fill: none; stroke: #000000; stroke-width: 0.8; stroke-linejoin: miter; stroke-linecap: square"/>
   </g>
   <g id="patch_4">
    <path d="M 414.72 307.584 
L 414.72 41.472 
" style="fill: none; stroke: #000000; stroke-width: 0.8; stroke-linejoin: miter; stroke-linecap: square"/>
   </g>
   <g id="patch_5">
    <path d="M 57.6 307.584 
L 414.72 307.584 
" style="fill: none; stroke: #000000; stroke-width: 0.8; stroke-linejoin: miter; stroke-linecap: square"/>
   </g>
   <g id="patch_6">
    <path d="M 57.6 41.472 
L 414.72 41.472 
" style="fill: none; stroke: #000000; stroke-width: 0.8; stroke-linejoin: miter; stroke-linecap: square"/>
   </g>
   <g id="text_18">
    <!-- Learning Curves -->
    <g transform="translate(187.37625 35.472) scale(0.12 -0.12)">
     <defs>
      <path id="DejaVuSans-4c" d="M 628 4666 
L 1259 4666 
L 1259 531 
L 3531 531 
L 3531 0 
L 628 0 
L 628 4666 
z
" transform="scale(0.015625)"/>
      <path id="DejaVuSans-65" d="M 3597 1894 
L 3597 1613 
L 953 1613 
Q 991 1019 1311 708 
Q 1631 397 2203 397 
Q 2534 397 2845 478 
Q 3156 559 3463 722 
L 3463 178 
Q 3153 47 2828 -22 
Q 2503 -91 2169 -91 
Q 1331 -91 842 396 
Q 353 884 353 1716 
Q 353 2575 817 3079 
Q 1281 3584 2069 3584 
Q 2775 3584 3186 3129 
Q 3597 2675 3597 1894 
z
M 3022 2063 
Q 3016 2534 2758 2815 
Q 2500 3097 2075 3097 
Q 1594 3097 1305 2825 
Q 1016 2553 972 2059 
L 3022 2063 
z
" transform="scale(0.015625)"/>
      <path id="DejaVuSans-6e" d="M 3513 2113 
L 3513 0 
L 2938 0 
L 2938 2094 
Q 2938 2591 2744 2837 
Q 2550 3084 2163 3084 
Q 1697 3084 1428 2787 
Q 1159 2491 1159 1978 
L 1159 0 
L 581 0 
L 581 3500 
L 1159 3500 
L 1159 2956 
Q 1366 3272 1645 3428 
Q 1925 3584 2291 3584 
Q 2894 3584 3203 3211 
Q 3513 2838 3513 2113 
z
" transform="scale(0.015625)"/>
      <path id="DejaVuSans-69" d="M 603 3500 
L 1178 3500 
L 1178 0 
L 603 0 
L 603 3500 
z
M 603 4863 
L 1178 4863 
L 1178 4134 
L 603 4134 
L 603 4863 
z
" transform="scale(0.015625)"/>
      <path id="DejaVuSans-67" d="M 2906 1791 
Q 2906 2416 2648 2759 
Q 2391 3103 1925 3103 
Q 1463 3103 1205 2759 
Q 947 2416 947 1791 
Q 947 1169 1205 825 
Q 1463 481 1925 481 
Q 2391 481 2648 825 
Q 2906 1169 2906 1791 
z
M 3481 434 
Q 3481 -459 3084 -895 
Q 2688 -1331 1869 -1331 
Q 1566 -1331 1297 -1286 
Q 1028 -1241 775 -1147 
L 775 -588 
Q 1028 -725 1275 -790 
Q 1522 -856 1778 -856 
Q 2344 -856 2625 -561 
Q 2906 -266 2906 331 
L 2906 616 
Q 2728 306 2450 153 
Q 2172 0 1784 0 
Q 1141 0 747 490 
Q 353 981 353 1791 
Q 353 2603 747 3093 
Q 1141 3584 1784 3584 
Q 2172 3584 2450 3431 
Q 2728 3278 2906 2969 
L 2906 3500 
L 3481 3500 
L 3481 434 
z
" transform="scale(0.015625)"/>
      <path id="DejaVuSans-20" transform="scale(0.015625)"/>
      <path id="DejaVuSans-43" d="M 4122 4306 
L 4122 3641 
Q 3803 3938 3442 4084 
Q 3081 4231 2675 4231 
Q 1875 4231 1450 3742 
Q 1025 3253 1025 2328 
Q 1025 1406 1450 917 
Q 1875 428 2675 428 
Q 3081 428 3442 575 
Q 3803 722 4122 1019 
L 4122 359 
Q 3791 134 3420 21 
Q 3050 -91 2638 -91 
Q 1578 -91 968 557 
Q 359 1206 359 2328 
Q 359 3453 968 4101 
Q 1578 4750 2638 4750 
Q 3056 4750 3426 4639 
Q 3797 4528 4122 4306 
z
" transform="scale(0.015625)"/>
      <path id="DejaVuSans-76" d="M 191 3500 
L 800 3500 
L 1894 563 
L 2988 3500 
L 3597 3500 
L 2284 0 
L 1503 0 
L 191 3500 
z
" transform="scale(0.015625)"/>
     </defs>
     <use xlink:href="#DejaVuSans-4c"/>
     <use xlink:href="#DejaVuSans-65" x="53.962891"/>
     <use xlink:href="#DejaVuSans-61" x="115.486328"/>
     <use xlink:href="#DejaVuSans-72" x="176.765625"/>
     <use xlink:href="#DejaVuSans-6e" x="216.128906"/>
     <use xlink:href="#DejaVuSans-69" x="279.507812"/>
     <use xlink:href="#DejaVuSans-6e" x="307.291016"/>
     <use xlink:href="#DejaVuSans-67" x="370.669922"/>
     <use xlink:href="#DejaVuSans-20" x="434.146484"/>
     <use xlink:href="#DejaVuSans-43" x="465.933594"/>
     <use xlink:href="#DejaVuSans-75" x="535.757812"/>
     <use xlink:href="#DejaVuSans-72" x="599.136719"/>
     <use xlink:href="#DejaVuSans-76" x="640.25"/>
     <use xlink:href="#DejaVuSans-65" x="699.429688"/>
     <use xlink:href="#DejaVuSans-73" x="760.953125"/>
    </g>
   </g>
   <g id="legend_1">
    <g id="patch_7">
     <path d="M 214.18875 302.584 
L 407.72 302.584 
Q 409.72 302.584 409.72 300.584 
L 409.72 228.193375 
Q 409.72 226.193375 407.72 226.193375 
L 214.18875 226.193375 
Q 212.18875 226.193375 212.18875 228.193375 
L 212.18875 300.584 
Q 212.18875 302.584 214.18875 302.584 
z
" style="fill: #ffffff; opacity: 0.8; stroke: #cccccc; stroke-linejoin: miter"/>
    </g>
    <g id="line2d_21">
     <path d="M 216.18875 234.291812 
L 226.18875 234.291812 
L 236.18875 234.291812 
" style="fill: none; stroke: #1f77b4; stroke-width: 1.5; stroke-linecap: square"/>
    </g>
    <g id="text_19">
     <!-- Train Accuracy -->
     <g transform="translate(244.18875 237.791812) scale(0.1 -0.1)">
      <defs>
       <path id="DejaVuSans-54" d="M -19 4666 
L 3928 4666 
L 3928 4134 
L 2272 4134 
L 2272 0 
L 1638 0 
L 1638 4134 
L -19 4134 
L -19 4666 
z
" transform="scale(0.015625)"/>
      </defs>
      <use xlink:href="#DejaVuSans-54"/>
      <use xlink:href="#DejaVuSans-72" x="46.333984"/>
      <use xlink:href="#DejaVuSans-61" x="87.447266"/>
      <use xlink:href="#DejaVuSans-69" x="148.726562"/>
      <use xlink:href="#DejaVuSans-6e" x="176.509766"/>
      <use xlink:href="#DejaVuSans-20" x="239.888672"/>
      <use xlink:href="#DejaVuSans-41" x="271.675781"/>
      <use xlink:href="#DejaVuSans-63" x="338.333984"/>
      <use xlink:href="#DejaVuSans-63" x="393.314453"/>
      <use xlink:href="#DejaVuSans-75" x="448.294922"/>
      <use xlink:href="#DejaVuSans-72" x="511.673828"/>
      <use xlink:href="#DejaVuSans-61" x="552.787109"/>
      <use xlink:href="#DejaVuSans-63" x="614.066406"/>
      <use xlink:href="#DejaVuSans-79" x="669.046875"/>
     </g>
    </g>
    <g id="line2d_22">
     <path d="M 216.18875 248.969937 
L 226.18875 248.969937 
L 236.18875 248.969937 
" style="fill: none; stroke: #ff7f0e; stroke-width: 1.5; stroke-linecap: square"/>
    </g>
    <g id="text_20">
     <!-- Validation Accuracy -->
     <g transform="translate(244.18875 252.469937) scale(0.1 -0.1)">
      <defs>
       <path id="DejaVuSans-56" d="M 1831 0 
L 50 4666 
L 709 4666 
L 2188 738 
L 3669 4666 
L 4325 4666 
L 2547 0 
L 1831 0 
z
" transform="scale(0.015625)"/>
       <path id="DejaVuSans-6c" d="M 603 4863 
L 1178 4863 
L 1178 0 
L 603 0 
L 603 4863 
z
" transform="scale(0.015625)"/>
       <path id="DejaVuSans-64" d="M 2906 2969 
L 2906 4863 
L 3481 4863 
L 3481 0 
L 2906 0 
L 2906 525 
Q 2725 213 2448 61 
Q 2172 -91 1784 -91 
Q 1150 -91 751 415 
Q 353 922 353 1747 
Q 353 2572 751 3078 
Q 1150 3584 1784 3584 
Q 2172 3584 2448 3432 
Q 2725 3281 2906 2969 
z
M 947 1747 
Q 947 1113 1208 752 
Q 1469 391 1925 391 
Q 2381 391 2643 752 
Q 2906 1113 2906 1747 
Q 2906 2381 2643 2742 
Q 2381 3103 1925 3103 
Q 1469 3103 1208 2742 
Q 947 2381 947 1747 
z
" transform="scale(0.015625)"/>
       <path id="DejaVuSans-74" d="M 1172 4494 
L 1172 3500 
L 2356 3500 
L 2356 3053 
L 1172 3053 
L 1172 1153 
Q 1172 725 1289 603 
Q 1406 481 1766 481 
L 2356 481 
L 2356 0 
L 1766 0 
Q 1100 0 847 248 
Q 594 497 594 1153 
L 594 3053 
L 172 3053 
L 172 3500 
L 594 3500 
L 594 4494 
L 1172 4494 
z
" transform="scale(0.015625)"/>
      </defs>
      <use xlink:href="#DejaVuSans-56"/>
      <use xlink:href="#DejaVuSans-61" x="60.658203"/>
      <use xlink:href="#DejaVuSans-6c" x="121.9375"/>
      <use xlink:href="#DejaVuSans-69" x="149.720703"/>
      <use xlink:href="#DejaVuSans-64" x="177.503906"/>
      <use xlink:href="#DejaVuSans-61" x="240.980469"/>
      <use xlink:href="#DejaVuSans-74" x="302.259766"/>
      <use xlink:href="#DejaVuSans-69" x="341.46875"/>
      <use xlink:href="#DejaVuSans-6f" x="369.251953"/>
      <use xlink:href="#DejaVuSans-6e" x="430.433594"/>
      <use xlink:href="#DejaVuSans-20" x="493.8125"/>
      <use xlink:href="#DejaVuSans-41" x="525.599609"/>
      <use xlink:href="#DejaVuSans-63" x="592.257812"/>
      <use xlink:href="#DejaVuSans-63" x="647.238281"/>
      <use xlink:href="#DejaVuSans-75" x="702.21875"/>
      <use xlink:href="#DejaVuSans-72" x="765.597656"/>
      <use xlink:href="#DejaVuSans-61" x="806.710938"/>
      <use xlink:href="#DejaVuSans-63" x="867.990234"/>
      <use xlink:href="#DejaVuSans-79" x="922.970703"/>
     </g>
    </g>
    <g id="line2d_23">
     <path d="M 216.18875 263.648062 
L 226.18875 263.648062 
L 236.18875 263.648062 
" style="fill: none; stroke: #2ca02c; stroke-width: 1.5; stroke-linecap: square"/>
    </g>
    <g id="text_21">
     <!-- Robust Validation Accuracy -->
     <g transform="translate(244.18875 267.148062) scale(0.1 -0.1)">
      <defs>
       <path id="DejaVuSans-52" d="M 2841 2188 
Q 3044 2119 3236 1894 
Q 3428 1669 3622 1275 
L 4263 0 
L 3584 0 
L 2988 1197 
Q 2756 1666 2539 1819 
Q 2322 1972 1947 1972 
L 1259 1972 
L 1259 0 
L 628 0 
L 628 4666 
L 2053 4666 
Q 2853 4666 3247 4331 
Q 3641 3997 3641 3322 
Q 3641 2881 3436 2590 
Q 3231 2300 2841 2188 
z
M 1259 4147 
L 1259 2491 
L 2053 2491 
Q 2509 2491 2742 2702 
Q 2975 2913 2975 3322 
Q 2975 3731 2742 3939 
Q 2509 4147 2053 4147 
L 1259 4147 
z
" transform="scale(0.015625)"/>
       <path id="DejaVuSans-62" d="M 3116 1747 
Q 3116 2381 2855 2742 
Q 2594 3103 2138 3103 
Q 1681 3103 1420 2742 
Q 1159 2381 1159 1747 
Q 1159 1113 1420 752 
Q 1681 391 2138 391 
Q 2594 391 2855 752 
Q 3116 1113 3116 1747 
z
M 1159 2969 
Q 1341 3281 1617 3432 
Q 1894 3584 2278 3584 
Q 2916 3584 3314 3078 
Q 3713 2572 3713 1747 
Q 3713 922 3314 415 
Q 2916 -91 2278 -91 
Q 1894 -91 1617 61 
Q 1341 213 1159 525 
L 1159 0 
L 581 0 
L 581 4863 
L 1159 4863 
L 1159 2969 
z
" transform="scale(0.015625)"/>
      </defs>
      <use xlink:href="#DejaVuSans-52"/>
      <use xlink:href="#DejaVuSans-6f" x="64.982422"/>
      <use xlink:href="#DejaVuSans-62" x="126.164062"/>
      <use xlink:href="#DejaVuSans-75" x="189.640625"/>
      <use xlink:href="#DejaVuSans-73" x="253.019531"/>
      <use xlink:href="#DejaVuSans-74" x="305.119141"/>
      <use xlink:href="#DejaVuSans-20" x="344.328125"/>
      <use xlink:href="#DejaVuSans-56" x="376.115234"/>
      <use xlink:href="#DejaVuSans-61" x="436.773438"/>
      <use xlink:href="#DejaVuSans-6c" x="498.052734"/>
      <use xlink:href="#DejaVuSans-69" x="525.835938"/>
      <use xlink:href="#DejaVuSans-64" x="553.619141"/>
      <use xlink:href="#DejaVuSans-61" x="617.095703"/>
      <use xlink:href="#DejaVuSans-74" x="678.375"/>
      <use xlink:href="#DejaVuSans-69" x="717.583984"/>
      <use xlink:href="#DejaVuSans-6f" x="745.367188"/>
      <use xlink:href="#DejaVuSans-6e" x="806.548828"/>
      <use xlink:href="#DejaVuSans-20" x="869.927734"/>
      <use xlink:href="#DejaVuSans-41" x="901.714844"/>
      <use xlink:href="#DejaVuSans-63" x="968.373047"/>
      <use xlink:href="#DejaVuSans-63" x="1023.353516"/>
      <use xlink:href="#DejaVuSans-75" x="1078.333984"/>
      <use xlink:href="#DejaVuSans-72" x="1141.712891"/>
      <use xlink:href="#DejaVuSans-61" x="1182.826172"/>
      <use xlink:href="#DejaVuSans-63" x="1244.105469"/>
      <use xlink:href="#DejaVuSans-79" x="1299.085938"/>
     </g>
    </g>
    <g id="line2d_24">
     <path d="M 216.18875 278.326188 
L 226.18875 278.326188 
L 236.18875 278.326188 
" style="fill: none; stroke: #d62728; stroke-width: 1.5; stroke-linecap: square"/>
    </g>
    <g id="text_22">
     <!-- SWA Validation Accuracy -->
     <g transform="translate(244.18875 281.826188) scale(0.1 -0.1)">
      <defs>
       <path id="DejaVuSans-53" d="M 3425 4513 
L 3425 3897 
Q 3066 4069 2747 4153 
Q 2428 4238 2131 4238 
Q 1616 4238 1336 4038 
Q 1056 3838 1056 3469 
Q 1056 3159 1242 3001 
Q 1428 2844 1947 2747 
L 2328 2669 
Q 3034 2534 3370 2195 
Q 3706 1856 3706 1288 
Q 3706 609 3251 259 
Q 2797 -91 1919 -91 
Q 1588 -91 1214 -16 
Q 841 59 441 206 
L 441 856 
Q 825 641 1194 531 
Q 1563 422 1919 422 
Q 2459 422 2753 634 
Q 3047 847 3047 1241 
Q 3047 1584 2836 1778 
Q 2625 1972 2144 2069 
L 1759 2144 
Q 1053 2284 737 2584 
Q 422 2884 422 3419 
Q 422 4038 858 4394 
Q 1294 4750 2059 4750 
Q 2388 4750 2728 4690 
Q 3069 4631 3425 4513 
z
" transform="scale(0.015625)"/>
       <path id="DejaVuSans-57" d="M 213 4666 
L 850 4666 
L 1831 722 
L 2809 4666 
L 3519 4666 
L 4500 722 
L 5478 4666 
L 6119 4666 
L 4947 0 
L 4153 0 
L 3169 4050 
L 2175 0 
L 1381 0 
L 213 4666 
z
" transform="scale(0.015625)"/>
      </defs>
      <use xlink:href="#DejaVuSans-53"/>
      <use xlink:href="#DejaVuSans-57" x="63.476562"/>
      <use xlink:href="#DejaVuSans-41" x="156.853516"/>
      <use xlink:href="#DejaVuSans-20" x="225.261719"/>
      <use xlink:href="#DejaVuSans-56" x="257.048828"/>
      <use xlink:href="#DejaVuSans-61" x="317.707031"/>
      <use xlink:href="#DejaVuSans-6c" x="378.986328"/>
      <use xlink:href="#DejaVuSans-69" x="406.769531"/>
      <use xlink:href="#DejaVuSans-64" x="434.552734"/>
      <use xlink:href="#DejaVuSans-61" x="498.029297"/>
      <use xlink:href="#DejaVuSans-74" x="559.308594"/>
      <use xlink:href="#DejaVuSans-69" x="598.517578"/>
      <use xlink:href="#DejaVuSans-6f" x="626.300781"/>
      <use xlink:href="#DejaVuSans-6e" x="687.482422"/>
      <use xlink:href="#DejaVuSans-20" x="750.861328"/>
      <use xlink:href="#DejaVuSans-41" x="782.648438"/>
      <use xlink:href="#DejaVuSans-63" x="849.306641"/>
      <use xlink:href="#DejaVuSans-63" x="904.287109"/>
      <use xlink:href="#DejaVuSans-75" x="959.267578"/>
      <use xlink:href="#DejaVuSans-72" x="1022.646484"/>
      <use xlink:href="#DejaVuSans-61" x="1063.759766"/>
      <use xlink:href="#DejaVuSans-63" x="1125.039062"/>
      <use xlink:href="#DejaVuSans-79" x="1180.019531"/>
     </g>
    </g>
    <g id="line2d_25">
     <path d="M 216.18875 293.004312 
L 226.18875 293.004312 
L 236.18875 293.004312 
" style="fill: none; stroke: #9467bd; stroke-width: 1.5; stroke-linecap: square"/>
    </g>
    <g id="text_23">
     <!-- SWA Robust Validation Accuracy -->
     <g transform="translate(244.18875 296.504312) scale(0.1 -0.1)">
      <use xlink:href="#DejaVuSans-53"/>
      <use xlink:href="#DejaVuSans-57" x="63.476562"/>
      <use xlink:href="#DejaVuSans-41" x="156.853516"/>
      <use xlink:href="#DejaVuSans-20" x="225.261719"/>
      <use xlink:href="#DejaVuSans-52" x="257.048828"/>
      <use xlink:href="#DejaVuSans-6f" x="322.03125"/>
      <use xlink:href="#DejaVuSans-62" x="383.212891"/>
      <use xlink:href="#DejaVuSans-75" x="446.689453"/>
      <use xlink:href="#DejaVuSans-73" x="510.068359"/>
      <use xlink:href="#DejaVuSans-74" x="562.167969"/>
      <use xlink:href="#DejaVuSans-20" x="601.376953"/>
      <use xlink:href="#DejaVuSans-56" x="633.164062"/>
      <use xlink:href="#DejaVuSans-61" x="693.822266"/>
      <use xlink:href="#DejaVuSans-6c" x="755.101562"/>
      <use xlink:href="#DejaVuSans-69" x="782.884766"/>
      <use xlink:href="#DejaVuSans-64" x="810.667969"/>
      <use xlink:href="#DejaVuSans-61" x="874.144531"/>
      <use xlink:href="#DejaVuSans-74" x="935.423828"/>
      <use xlink:href="#DejaVuSans-69" x="974.632812"/>
      <use xlink:href="#DejaVuSans-6f" x="1002.416016"/>
      <use xlink:href="#DejaVuSans-6e" x="1063.597656"/>
      <use xlink:href="#DejaVuSans-20" x="1126.976562"/>
      <use xlink:href="#DejaVuSans-41" x="1158.763672"/>
      <use xlink:href="#DejaVuSans-63" x="1225.421875"/>
      <use xlink:href="#DejaVuSans-63" x="1280.402344"/>
      <use xlink:href="#DejaVuSans-75" x="1335.382812"/>
      <use xlink:href="#DejaVuSans-72" x="1398.761719"/>
      <use xlink:href="#DejaVuSans-61" x="1439.875"/>
      <use xlink:href="#DejaVuSans-63" x="1501.154297"/>
      <use xlink:href="#DejaVuSans-79" x="1556.134766"/>
     </g>
    </g>
   </g>
  </g>
 </g>
 <defs>
  <clipPath id="p74eb092ce7">
   <rect x="57.6" y="41.472" width="357.12" height="266.112"/>
  </clipPath>
 </defs>
</svg>
