<?xml version="1.0" encoding="utf-8" standalone="no"?>
<!DOCTYPE svg PUBLIC "-//W3C//DTD SVG 1.1//EN"
  "http://www.w3.org/Graphics/SVG/1.1/DTD/svg11.dtd">
<svg xmlns:xlink="http://www.w3.org/1999/xlink" width="460.8pt" height="345.6pt" viewBox="0 0 460.8 345.6" xmlns="http://www.w3.org/2000/svg" version="1.1">
 <metadata>
  <rdf:RDF xmlns:dc="http://purl.org/dc/elements/1.1/" xmlns:cc="http://creativecommons.org/ns#" xmlns:rdf="http://www.w3.org/1999/02/22-rdf-syntax-ns#">
   <cc:Work>
    <dc:type rdf:resource="http://purl.org/dc/dcmitype/StillImage"/>
    <dc:date>2025-02-23T09:33:43.657105</dc:date>
    <dc:format>image/svg+xml</dc:format>
    <dc:creator>
     <cc:Agent>
      <dc:title>Matplotlib v3.9.1, https://matplotlib.org/</dc:title>
     </cc:Agent>
    </dc:creator>
   </cc:Work>
  </rdf:RDF>
 </metadata>
 <defs>
  <style type="text/css">*{stroke-linejoin: round; stroke-linecap: butt}</style>
 </defs>
 <g id="figure_1">
  <g id="patch_1">
   <path d="M 0 345.6 
L 460.8 345.6 
L 460.8 0 
L 0 0 
z
" style="fill: #ffffff"/>
  </g>
  <g id="axes_1">
   <g id="patch_2">
    <path d="M 57.6 307.584 
L 414.72 307.584 
L 414.72 41.472 
L 57.6 41.472 
z
" style="fill: #ffffff"/>
   </g>
   <g id="matplotlib.axis_1">
    <g id="xtick_1">
     <g id="line2d_1">
      <defs>
       <path id="m4109fc3fc1" d="M 0 0 
L 0 3.5 
" style="stroke: #000000; stroke-width: 0.8"/>
      </defs>
      <g>
       <use xlink:href="#m4109fc3fc1" x="73.832727" y="307.584" style="stroke: #000000; stroke-width: 0.8"/>
      </g>
     </g>
     <g id="text_1">
      <!-- 1 -->
      <g transform="translate(70.651477 322.182437) scale(0.1 -0.1)">
       <defs>
        <path id="DejaVuSans-31" d="M 794 531 
L 1825 531 
L 1825 4091 
L 703 3866 
L 703 4441 
L 1819 4666 
L 2450 4666 
L 2450 531 
L 3481 531 
L 3481 0 
L 794 0 
L 794 531 
z
" transform="scale(0.015625)"/>
       </defs>
       <use xlink:href="#DejaVuSans-31"/>
      </g>
     </g>
    </g>
    <g id="xtick_2">
     <g id="line2d_2">
      <g>
       <use xlink:href="#m4109fc3fc1" x="109.664165" y="307.584" style="stroke: #000000; stroke-width: 0.8"/>
      </g>
     </g>
     <g id="text_2">
      <!-- 34 -->
      <g transform="translate(103.301665 322.182437) scale(0.1 -0.1)">
       <defs>
        <path id="DejaVuSans-33" d="M 2597 2516 
Q 3050 2419 3304 2112 
Q 3559 1806 3559 1356 
Q 3559 666 3084 287 
Q 2609 -91 1734 -91 
Q 1441 -91 1130 -33 
Q 819 25 488 141 
L 488 750 
Q 750 597 1062 519 
Q 1375 441 1716 441 
Q 2309 441 2620 675 
Q 2931 909 2931 1356 
Q 2931 1769 2642 2001 
Q 2353 2234 1838 2234 
L 1294 2234 
L 1294 2753 
L 1863 2753 
Q 2328 2753 2575 2939 
Q 2822 3125 2822 3475 
Q 2822 3834 2567 4026 
Q 2313 4219 1838 4219 
Q 1578 4219 1281 4162 
Q 984 4106 628 3988 
L 628 4550 
Q 988 4650 1302 4700 
Q 1616 4750 1894 4750 
Q 2613 4750 3031 4423 
Q 3450 4097 3450 3541 
Q 3450 3153 3228 2886 
Q 3006 2619 2597 2516 
z
" transform="scale(0.015625)"/>
        <path id="DejaVuSans-34" d="M 2419 4116 
L 825 1625 
L 2419 1625 
L 2419 4116 
z
M 2253 4666 
L 3047 4666 
L 3047 1625 
L 3713 1625 
L 3713 1100 
L 3047 1100 
L 3047 0 
L 2419 0 
L 2419 1100 
L 313 1100 
L 313 1709 
L 2253 4666 
z
" transform="scale(0.015625)"/>
       </defs>
       <use xlink:href="#DejaVuSans-33"/>
       <use xlink:href="#DejaVuSans-34" x="63.623047"/>
      </g>
     </g>
    </g>
    <g id="xtick_3">
     <g id="line2d_3">
      <g>
       <use xlink:href="#m4109fc3fc1" x="145.495604" y="307.584" style="stroke: #000000; stroke-width: 0.8"/>
      </g>
     </g>
     <g id="text_3">
      <!-- 67 -->
      <g transform="translate(139.133104 322.182437) scale(0.1 -0.1)">
       <defs>
        <path id="DejaVuSans-36" d="M 2113 2584 
Q 1688 2584 1439 2293 
Q 1191 2003 1191 1497 
Q 1191 994 1439 701 
Q 1688 409 2113 409 
Q 2538 409 2786 701 
Q 3034 994 3034 1497 
Q 3034 2003 2786 2293 
Q 2538 2584 2113 2584 
z
M 3366 4563 
L 3366 3988 
Q 3128 4100 2886 4159 
Q 2644 4219 2406 4219 
Q 1781 4219 1451 3797 
Q 1122 3375 1075 2522 
Q 1259 2794 1537 2939 
Q 1816 3084 2150 3084 
Q 2853 3084 3261 2657 
Q 3669 2231 3669 1497 
Q 3669 778 3244 343 
Q 2819 -91 2113 -91 
Q 1303 -91 875 529 
Q 447 1150 447 2328 
Q 447 3434 972 4092 
Q 1497 4750 2381 4750 
Q 2619 4750 2861 4703 
Q 3103 4656 3366 4563 
z
" transform="scale(0.015625)"/>
        <path id="DejaVuSans-37" d="M 525 4666 
L 3525 4666 
L 3525 4397 
L 1831 0 
L 1172 0 
L 2766 4134 
L 525 4134 
L 525 4666 
z
" transform="scale(0.015625)"/>
       </defs>
       <use xlink:href="#DejaVuSans-36"/>
       <use xlink:href="#DejaVuSans-37" x="63.623047"/>
      </g>
     </g>
    </g>
    <g id="xtick_4">
     <g id="line2d_4">
      <g>
       <use xlink:href="#m4109fc3fc1" x="181.327042" y="307.584" style="stroke: #000000; stroke-width: 0.8"/>
      </g>
     </g>
     <g id="text_4">
      <!-- 100 -->
      <g transform="translate(171.783292 322.182437) scale(0.1 -0.1)">
       <defs>
        <path id="DejaVuSans-30" d="M 2034 4250 
Q 1547 4250 1301 3770 
Q 1056 3291 1056 2328 
Q 1056 1369 1301 889 
Q 1547 409 2034 409 
Q 2525 409 2770 889 
Q 3016 1369 3016 2328 
Q 3016 3291 2770 3770 
Q 2525 4250 2034 4250 
z
M 2034 4750 
Q 2819 4750 3233 4129 
Q 3647 3509 3647 2328 
Q 3647 1150 3233 529 
Q 2819 -91 2034 -91 
Q 1250 -91 836 529 
Q 422 1150 422 2328 
Q 422 3509 836 4129 
Q 1250 4750 2034 4750 
z
" transform="scale(0.015625)"/>
       </defs>
       <use xlink:href="#DejaVuSans-31"/>
       <use xlink:href="#DejaVuSans-30" x="63.623047"/>
       <use xlink:href="#DejaVuSans-30" x="127.246094"/>
      </g>
     </g>
    </g>
    <g id="xtick_5">
     <g id="line2d_5">
      <g>
       <use xlink:href="#m4109fc3fc1" x="217.15848" y="307.584" style="stroke: #000000; stroke-width: 0.8"/>
      </g>
     </g>
     <g id="text_5">
      <!-- 133 -->
      <g transform="translate(207.61473 322.182437) scale(0.1 -0.1)">
       <use xlink:href="#DejaVuSans-31"/>
       <use xlink:href="#DejaVuSans-33" x="63.623047"/>
       <use xlink:href="#DejaVuSans-33" x="127.246094"/>
      </g>
     </g>
    </g>
    <g id="xtick_6">
     <g id="line2d_6">
      <g>
       <use xlink:href="#m4109fc3fc1" x="254.075719" y="307.584" style="stroke: #000000; stroke-width: 0.8"/>
      </g>
     </g>
     <g id="text_6">
      <!-- 167 -->
      <g transform="translate(244.531969 322.182437) scale(0.1 -0.1)">
       <use xlink:href="#DejaVuSans-31"/>
       <use xlink:href="#DejaVuSans-36" x="63.623047"/>
       <use xlink:href="#DejaVuSans-37" x="127.246094"/>
      </g>
     </g>
    </g>
    <g id="xtick_7">
     <g id="line2d_7">
      <g>
       <use xlink:href="#m4109fc3fc1" x="289.907157" y="307.584" style="stroke: #000000; stroke-width: 0.8"/>
      </g>
     </g>
     <g id="text_7">
      <!-- 200 -->
      <g transform="translate(280.363407 322.182437) scale(0.1 -0.1)">
       <defs>
        <path id="DejaVuSans-32" d="M 1228 531 
L 3431 531 
L 3431 0 
L 469 0 
L 469 531 
Q 828 903 1448 1529 
Q 2069 2156 2228 2338 
Q 2531 2678 2651 2914 
Q 2772 3150 2772 3378 
Q 2772 3750 2511 3984 
Q 2250 4219 1831 4219 
Q 1534 4219 1204 4116 
Q 875 4013 500 3803 
L 500 4441 
Q 881 4594 1212 4672 
Q 1544 4750 1819 4750 
Q 2544 4750 2975 4387 
Q 3406 4025 3406 3419 
Q 3406 3131 3298 2873 
Q 3191 2616 2906 2266 
Q 2828 2175 2409 1742 
Q 1991 1309 1228 531 
z
" transform="scale(0.015625)"/>
       </defs>
       <use xlink:href="#DejaVuSans-32"/>
       <use xlink:href="#DejaVuSans-30" x="63.623047"/>
       <use xlink:href="#DejaVuSans-30" x="127.246094"/>
      </g>
     </g>
    </g>
    <g id="xtick_8">
     <g id="line2d_8">
      <g>
       <use xlink:href="#m4109fc3fc1" x="325.738595" y="307.584" style="stroke: #000000; stroke-width: 0.8"/>
      </g>
     </g>
     <g id="text_8">
      <!-- 233 -->
      <g transform="translate(316.194845 322.182437) scale(0.1 -0.1)">
       <use xlink:href="#DejaVuSans-32"/>
       <use xlink:href="#DejaVuSans-33" x="63.623047"/>
       <use xlink:href="#DejaVuSans-33" x="127.246094"/>
      </g>
     </g>
    </g>
    <g id="xtick_9">
     <g id="line2d_9">
      <g>
       <use xlink:href="#m4109fc3fc1" x="361.570033" y="307.584" style="stroke: #000000; stroke-width: 0.8"/>
      </g>
     </g>
     <g id="text_9">
      <!-- 266 -->
      <g transform="translate(352.026283 322.182437) scale(0.1 -0.1)">
       <use xlink:href="#DejaVuSans-32"/>
       <use xlink:href="#DejaVuSans-36" x="63.623047"/>
       <use xlink:href="#DejaVuSans-36" x="127.246094"/>
      </g>
     </g>
    </g>
    <g id="xtick_10">
     <g id="line2d_10">
      <g>
       <use xlink:href="#m4109fc3fc1" x="398.487273" y="307.584" style="stroke: #000000; stroke-width: 0.8"/>
      </g>
     </g>
     <g id="text_10">
      <!-- 300 -->
      <g transform="translate(388.943523 322.182437) scale(0.1 -0.1)">
       <use xlink:href="#DejaVuSans-33"/>
       <use xlink:href="#DejaVuSans-30" x="63.623047"/>
       <use xlink:href="#DejaVuSans-30" x="127.246094"/>
      </g>
     </g>
    </g>
    <g id="text_11">
     <!-- Epochs -->
     <g transform="translate(218.244375 335.860562) scale(0.1 -0.1)">
      <defs>
       <path id="DejaVuSans-45" d="M 628 4666 
L 3578 4666 
L 3578 4134 
L 1259 4134 
L 1259 2753 
L 3481 2753 
L 3481 2222 
L 1259 2222 
L 1259 531 
L 3634 531 
L 3634 0 
L 628 0 
L 628 4666 
z
" transform="scale(0.015625)"/>
       <path id="DejaVuSans-70" d="M 1159 525 
L 1159 -1331 
L 581 -1331 
L 581 3500 
L 1159 3500 
L 1159 2969 
Q 1341 3281 1617 3432 
Q 1894 3584 2278 3584 
Q 2916 3584 3314 3078 
Q 3713 2572 3713 1747 
Q 3713 922 3314 415 
Q 2916 -91 2278 -91 
Q 1894 -91 1617 61 
Q 1341 213 1159 525 
z
M 3116 1747 
Q 3116 2381 2855 2742 
Q 2594 3103 2138 3103 
Q 1681 3103 1420 2742 
Q 1159 2381 1159 1747 
Q 1159 1113 1420 752 
Q 1681 391 2138 391 
Q 2594 391 2855 752 
Q 3116 1113 3116 1747 
z
" transform="scale(0.015625)"/>
       <path id="DejaVuSans-6f" d="M 1959 3097 
Q 1497 3097 1228 2736 
Q 959 2375 959 1747 
Q 959 1119 1226 758 
Q 1494 397 1959 397 
Q 2419 397 2687 759 
Q 2956 1122 2956 1747 
Q 2956 2369 2687 2733 
Q 2419 3097 1959 3097 
z
M 1959 3584 
Q 2709 3584 3137 3096 
Q 3566 2609 3566 1747 
Q 3566 888 3137 398 
Q 2709 -91 1959 -91 
Q 1206 -91 779 398 
Q 353 888 353 1747 
Q 353 2609 779 3096 
Q 1206 3584 1959 3584 
z
" transform="scale(0.015625)"/>
       <path id="DejaVuSans-63" d="M 3122 3366 
L 3122 2828 
Q 2878 2963 2633 3030 
Q 2388 3097 2138 3097 
Q 1578 3097 1268 2742 
Q 959 2388 959 1747 
Q 959 1106 1268 751 
Q 1578 397 2138 397 
Q 2388 397 2633 464 
Q 2878 531 3122 666 
L 3122 134 
Q 2881 22 2623 -34 
Q 2366 -91 2075 -91 
Q 1284 -91 818 406 
Q 353 903 353 1747 
Q 353 2603 823 3093 
Q 1294 3584 2113 3584 
Q 2378 3584 2631 3529 
Q 2884 3475 3122 3366 
z
" transform="scale(0.015625)"/>
       <path id="DejaVuSans-68" d="M 3513 2113 
L 3513 0 
L 2938 0 
L 2938 2094 
Q 2938 2591 2744 2837 
Q 2550 3084 2163 3084 
Q 1697 3084 1428 2787 
Q 1159 2491 1159 1978 
L 1159 0 
L 581 0 
L 581 4863 
L 1159 4863 
L 1159 2956 
Q 1366 3272 1645 3428 
Q 1925 3584 2291 3584 
Q 2894 3584 3203 3211 
Q 3513 2838 3513 2113 
z
" transform="scale(0.015625)"/>
       <path id="DejaVuSans-73" d="M 2834 3397 
L 2834 2853 
Q 2591 2978 2328 3040 
Q 2066 3103 1784 3103 
Q 1356 3103 1142 2972 
Q 928 2841 928 2578 
Q 928 2378 1081 2264 
Q 1234 2150 1697 2047 
L 1894 2003 
Q 2506 1872 2764 1633 
Q 3022 1394 3022 966 
Q 3022 478 2636 193 
Q 2250 -91 1575 -91 
Q 1294 -91 989 -36 
Q 684 19 347 128 
L 347 722 
Q 666 556 975 473 
Q 1284 391 1588 391 
Q 1994 391 2212 530 
Q 2431 669 2431 922 
Q 2431 1156 2273 1281 
Q 2116 1406 1581 1522 
L 1381 1569 
Q 847 1681 609 1914 
Q 372 2147 372 2553 
Q 372 3047 722 3315 
Q 1072 3584 1716 3584 
Q 2034 3584 2315 3537 
Q 2597 3491 2834 3397 
z
" transform="scale(0.015625)"/>
      </defs>
      <use xlink:href="#DejaVuSans-45"/>
      <use xlink:href="#DejaVuSans-70" x="63.183594"/>
      <use xlink:href="#DejaVuSans-6f" x="126.660156"/>
      <use xlink:href="#DejaVuSans-63" x="187.841797"/>
      <use xlink:href="#DejaVuSans-68" x="242.822266"/>
      <use xlink:href="#DejaVuSans-73" x="306.201172"/>
     </g>
    </g>
   </g>
   <g id="matplotlib.axis_2">
    <g id="ytick_1">
     <g id="line2d_11">
      <defs>
       <path id="me933a743b5" d="M 0 0 
L -3.5 0 
" style="stroke: #000000; stroke-width: 0.8"/>
      </defs>
      <g>
       <use xlink:href="#me933a743b5" x="57.6" y="261.150296" style="stroke: #000000; stroke-width: 0.8"/>
      </g>
     </g>
     <g id="text_12">
      <!-- 20 -->
      <g transform="translate(37.875 264.949515) scale(0.1 -0.1)">
       <use xlink:href="#DejaVuSans-32"/>
       <use xlink:href="#DejaVuSans-30" x="63.623047"/>
      </g>
     </g>
    </g>
    <g id="ytick_2">
     <g id="line2d_12">
      <g>
       <use xlink:href="#me933a743b5" x="57.6" y="203.30376" style="stroke: #000000; stroke-width: 0.8"/>
      </g>
     </g>
     <g id="text_13">
      <!-- 40 -->
      <g transform="translate(37.875 207.102978) scale(0.1 -0.1)">
       <use xlink:href="#DejaVuSans-34"/>
       <use xlink:href="#DejaVuSans-30" x="63.623047"/>
      </g>
     </g>
    </g>
    <g id="ytick_3">
     <g id="line2d_13">
      <g>
       <use xlink:href="#me933a743b5" x="57.6" y="145.457223" style="stroke: #000000; stroke-width: 0.8"/>
      </g>
     </g>
     <g id="text_14">
      <!-- 60 -->
      <g transform="translate(37.875 149.256442) scale(0.1 -0.1)">
       <use xlink:href="#DejaVuSans-36"/>
       <use xlink:href="#DejaVuSans-30" x="63.623047"/>
      </g>
     </g>
    </g>
    <g id="ytick_4">
     <g id="line2d_14">
      <g>
       <use xlink:href="#me933a743b5" x="57.6" y="87.610687" style="stroke: #000000; stroke-width: 0.8"/>
      </g>
     </g>
     <g id="text_15">
      <!-- 80 -->
      <g transform="translate(37.875 91.409905) scale(0.1 -0.1)">
       <defs>
        <path id="DejaVuSans-38" d="M 2034 2216 
Q 1584 2216 1326 1975 
Q 1069 1734 1069 1313 
Q 1069 891 1326 650 
Q 1584 409 2034 409 
Q 2484 409 2743 651 
Q 3003 894 3003 1313 
Q 3003 1734 2745 1975 
Q 2488 2216 2034 2216 
z
M 1403 2484 
Q 997 2584 770 2862 
Q 544 3141 544 3541 
Q 544 4100 942 4425 
Q 1341 4750 2034 4750 
Q 2731 4750 3128 4425 
Q 3525 4100 3525 3541 
Q 3525 3141 3298 2862 
Q 3072 2584 2669 2484 
Q 3125 2378 3379 2068 
Q 3634 1759 3634 1313 
Q 3634 634 3220 271 
Q 2806 -91 2034 -91 
Q 1263 -91 848 271 
Q 434 634 434 1313 
Q 434 1759 690 2068 
Q 947 2378 1403 2484 
z
M 1172 3481 
Q 1172 3119 1398 2916 
Q 1625 2713 2034 2713 
Q 2441 2713 2670 2916 
Q 2900 3119 2900 3481 
Q 2900 3844 2670 4047 
Q 2441 4250 2034 4250 
Q 1625 4250 1398 4047 
Q 1172 3844 1172 3481 
z
" transform="scale(0.015625)"/>
       </defs>
       <use xlink:href="#DejaVuSans-38"/>
       <use xlink:href="#DejaVuSans-30" x="63.623047"/>
      </g>
     </g>
    </g>
    <g id="text_16">
     <!-- Accuracy -->
     <g transform="translate(31.795312 197.356125) rotate(-90) scale(0.1 -0.1)">
      <defs>
       <path id="DejaVuSans-41" d="M 2188 4044 
L 1331 1722 
L 3047 1722 
L 2188 4044 
z
M 1831 4666 
L 2547 4666 
L 4325 0 
L 3669 0 
L 3244 1197 
L 1141 1197 
L 716 0 
L 50 0 
L 1831 4666 
z
" transform="scale(0.015625)"/>
       <path id="DejaVuSans-75" d="M 544 1381 
L 544 3500 
L 1119 3500 
L 1119 1403 
Q 1119 906 1312 657 
Q 1506 409 1894 409 
Q 2359 409 2629 706 
Q 2900 1003 2900 1516 
L 2900 3500 
L 3475 3500 
L 3475 0 
L 2900 0 
L 2900 538 
Q 2691 219 2414 64 
Q 2138 -91 1772 -91 
Q 1169 -91 856 284 
Q 544 659 544 1381 
z
M 1991 3584 
L 1991 3584 
z
" transform="scale(0.015625)"/>
       <path id="DejaVuSans-72" d="M 2631 2963 
Q 2534 3019 2420 3045 
Q 2306 3072 2169 3072 
Q 1681 3072 1420 2755 
Q 1159 2438 1159 1844 
L 1159 0 
L 581 0 
L 581 3500 
L 1159 3500 
L 1159 2956 
Q 1341 3275 1631 3429 
Q 1922 3584 2338 3584 
Q 2397 3584 2469 3576 
Q 2541 3569 2628 3553 
L 2631 2963 
z
" transform="scale(0.015625)"/>
       <path id="DejaVuSans-61" d="M 2194 1759 
Q 1497 1759 1228 1600 
Q 959 1441 959 1056 
Q 959 750 1161 570 
Q 1363 391 1709 391 
Q 2188 391 2477 730 
Q 2766 1069 2766 1631 
L 2766 1759 
L 2194 1759 
z
M 3341 1997 
L 3341 0 
L 2766 0 
L 2766 531 
Q 2569 213 2275 61 
Q 1981 -91 1556 -91 
Q 1019 -91 701 211 
Q 384 513 384 1019 
Q 384 1609 779 1909 
Q 1175 2209 1959 2209 
L 2766 2209 
L 2766 2266 
Q 2766 2663 2505 2880 
Q 2244 3097 1772 3097 
Q 1472 3097 1187 3025 
Q 903 2953 641 2809 
L 641 3341 
Q 956 3463 1253 3523 
Q 1550 3584 1831 3584 
Q 2591 3584 2966 3190 
Q 3341 2797 3341 1997 
z
" transform="scale(0.015625)"/>
       <path id="DejaVuSans-79" d="M 2059 -325 
Q 1816 -950 1584 -1140 
Q 1353 -1331 966 -1331 
L 506 -1331 
L 506 -850 
L 844 -850 
Q 1081 -850 1212 -737 
Q 1344 -625 1503 -206 
L 1606 56 
L 191 3500 
L 800 3500 
L 1894 763 
L 2988 3500 
L 3597 3500 
L 2059 -325 
z
" transform="scale(0.015625)"/>
      </defs>
      <use xlink:href="#DejaVuSans-41"/>
      <use xlink:href="#DejaVuSans-63" x="66.658203"/>
      <use xlink:href="#DejaVuSans-63" x="121.638672"/>
      <use xlink:href="#DejaVuSans-75" x="176.619141"/>
      <use xlink:href="#DejaVuSans-72" x="239.998047"/>
      <use xlink:href="#DejaVuSans-61" x="281.111328"/>
      <use xlink:href="#DejaVuSans-63" x="342.390625"/>
      <use xlink:href="#DejaVuSans-79" x="397.371094"/>
     </g>
    </g>
   </g>
   <g id="line2d_15">
    <path d="M 73.832727 295.488 
L 76.00433 216.307661 
L 77.090131 188.639663 
L 78.175932 168.468575 
L 79.261733 154.313528 
L 80.347534 144.288723 
L 81.433335 135.999314 
L 82.519137 129.445302 
L 83.604938 123.938312 
L 84.690739 116.510816 
L 85.77654 113.809383 
L 86.862341 108.458578 
L 87.948142 105.207603 
L 89.033943 101.314531 
L 90.119745 98.647806 
L 91.205546 95.587724 
L 92.291347 95.07289 
L 93.377148 92.857368 
L 94.462949 92.302041 
L 95.54875 118.29249 
L 96.634552 118.026396 
L 98.806154 113.034239 
L 99.891955 111.466598 
L 100.977756 108.342885 
L 102.063557 107.128108 
L 103.149358 105.467912 
L 104.23516 101.945058 
L 105.320961 100.163385 
L 106.406762 98.127187 
L 107.492563 96.438068 
L 108.578364 95.500954 
L 110.749967 92.741674 
L 112.921569 89.195682 
L 114.00737 88.542016 
L 115.093171 85.649689 
L 116.178972 86.008338 
L 117.264773 83.480444 
L 119.436376 81.542585 
L 120.522177 80.20633 
L 121.607978 79.269216 
L 122.693779 76.880154 
L 123.77958 76.151288 
L 124.865382 76.209134 
L 125.951183 74.716694 
L 127.036984 72.35077 
L 128.122785 71.506211 
L 129.208586 72.425971 
L 130.294387 70.528604 
L 131.380189 70.02534 
L 132.46599 69.134503 
L 133.551791 69.013025 
L 135.723393 68.110619 
L 136.809194 67.109874 
L 137.894995 67.584216 
L 138.980797 90.034457 
L 140.066598 91.995454 
L 141.152399 91.885546 
L 142.2382 91.602098 
L 143.324001 91.000494 
L 144.409802 90.942647 
L 145.495604 91.364927 
L 146.581405 89.369221 
L 147.667206 89.30559 
L 148.753007 87.564409 
L 149.838808 85.447226 
L 150.924609 86.014122 
L 152.01041 86.378555 
L 153.096212 85.609197 
L 154.182013 85.360456 
L 155.267814 84.527466 
L 156.353615 84.515897 
L 157.439416 83.295335 
L 158.525217 82.954041 
L 159.611019 81.901234 
L 161.782621 81.941726 
L 162.868422 79.911313 
L 163.954223 79.425402 
L 165.040024 79.627865 
L 166.125825 79.679927 
L 167.211627 78.534565 
L 168.297428 78.227978 
L 169.383229 78.256902 
L 170.46903 76.463659 
L 171.554831 75.752147 
L 172.640632 76.041379 
L 173.726434 74.710909 
L 174.812235 74.653063 
L 175.898036 75.138973 
L 176.983837 74.421676 
L 178.069638 73.386223 
L 179.155439 73.577117 
L 180.24124 73.010221 
L 181.327042 71.378949 
L 182.412843 72.200369 
L 183.498644 70.887253 
L 186.756047 69.527859 
L 187.841849 68.50976 
L 188.92765 67.867664 
L 190.013451 67.462738 
L 191.099252 67.740401 
L 192.185053 66.438854 
L 193.270854 66.022359 
L 194.356656 65.779404 
L 195.442457 66.08599 
L 196.528258 64.923275 
L 197.614059 64.876998 
L 198.69986 63.020124 
L 199.785661 63.980377 
L 200.871462 63.934099 
L 201.957264 61.643376 
L 203.043065 62.354889 
L 204.128866 61.440914 
L 205.214667 61.66073 
L 206.300468 60.746755 
L 208.472071 60.087305 
L 209.557872 60.075735 
L 210.643673 59.578255 
L 211.729474 59.90798 
L 212.815275 58.687418 
L 213.901076 58.623787 
L 214.986877 58.114738 
L 216.072679 58.438678 
L 219.330082 58.317201 
L 220.415883 58.033753 
L 221.501684 57.420579 
L 222.587486 57.426364 
L 223.673287 57.154485 
L 224.759088 57.0735 
L 225.844889 77.973454 
L 226.93069 81.282276 
L 228.016491 81.351691 
L 229.102292 82.005357 
L 230.188094 80.767441 
L 231.273895 80.802149 
L 232.359696 81.195506 
L 233.445497 81.149229 
L 234.531298 80.466639 
L 235.617099 80.773226 
L 236.702901 80.038575 
L 237.788702 80.067498 
L 238.874503 79.338632 
L 239.960304 79.969159 
L 241.046105 79.1998 
L 242.131906 78.598196 
L 244.303509 78.210625 
L 245.38931 77.637944 
L 246.475111 77.985023 
L 247.560912 78.476719 
L 248.646713 77.973454 
L 249.732514 77.730498 
L 250.818316 77.157818 
L 251.904117 77.551174 
L 252.989918 76.573568 
L 254.075719 76.810738 
L 255.16152 75.584392 
L 257.333123 76.585137 
L 258.418924 74.838171 
L 259.504725 75.908332 
L 260.590526 75.821563 
L 261.676327 74.936511 
L 262.762128 75.347221 
L 263.847929 75.03485 
L 264.933731 74.560508 
L 266.019532 73.646533 
L 267.105333 74.433246 
L 268.191134 73.727518 
L 269.276935 73.19533 
L 270.362736 73.299454 
L 271.448538 72.958159 
L 272.534339 73.166407 
L 273.62014 72.761481 
L 274.705941 73.351515 
L 275.791742 73.397793 
L 276.877543 72.339201 
L 277.963344 72.541664 
L 279.049146 72.211939 
L 280.134947 72.223508 
L 281.220748 70.783129 
L 282.306549 71.650827 
L 283.39235 70.9451 
L 284.478151 70.9451 
L 285.563953 70.164171 
L 286.649754 71.251686 
L 287.735555 70.545958 
L 288.821356 70.754206 
L 289.907157 69.169211 
L 290.992958 70.459189 
L 292.07876 69.227057 
L 293.164561 69.643552 
L 294.250362 68.966748 
L 295.336163 68.451914 
L 296.421964 68.746931 
L 297.507765 68.43456 
L 298.593566 68.735362 
L 299.679368 67.647847 
L 300.765169 68.070127 
L 302.936771 67.075166 
L 304.022572 67.080951 
L 305.108373 66.560332 
L 306.194175 67.312337 
L 308.365777 66.687594 
L 309.451578 66.415716 
L 310.537379 65.871958 
L 311.62318 66.190114 
L 312.708981 65.495956 
L 313.794783 66.045498 
L 318.137987 64.483641 
L 319.223788 63.569666 
L 320.30959 63.899391 
L 321.395391 63.378773 
L 322.481192 63.777914 
L 323.566993 62.950708 
L 324.652794 63.442404 
L 325.738595 63.187879 
L 326.824396 62.181349 
L 327.910198 62.869723 
L 328.995999 62.401166 
L 330.0818 61.573961 
L 331.167601 61.134327 
L 333.339203 61.383067 
L 334.425005 60.596354 
L 336.596607 60.382322 
L 337.682408 60.75254 
L 338.768209 59.693948 
L 339.85401 60.579 
L 340.939811 59.786503 
L 343.111414 58.768404 
L 344.197215 58.994005 
L 347.454618 57.727166 
L 348.54042 57.813936 
L 349.626221 57.264394 
L 350.712022 58.265139 
L 351.797823 56.894176 
L 352.883624 57.310671 
L 353.969425 56.9983 
L 355.055227 56.813191 
L 357.226829 55.974416 
L 358.31263 56.072755 
L 359.398431 56.321495 
L 360.484232 56.026478 
L 361.570033 55.303396 
L 362.655835 54.921609 
L 363.741636 54.719146 
L 364.827437 55.384381 
L 365.913238 53.886156 
L 366.999039 53.568 
L 368.08484 55.095149 
L 369.170642 55.222411 
L 370.256443 56.367772 
L 372.428045 57.212332 
L 374.599647 57.83129 
L 375.685448 57.565196 
L 377.857051 57.553626 
L 381.114454 58.085814 
L 382.200255 57.663535 
L 383.286057 56.905745 
L 384.371858 57.842859 
L 385.457659 57.90649 
L 386.54346 57.200762 
L 387.629261 57.617258 
L 388.715062 57.715597 
L 389.800863 56.529743 
L 390.886665 57.923844 
L 393.058267 57.328025 
L 394.144068 57.912275 
L 395.229869 57.842859 
L 396.31567 58.15523 
L 397.401472 57.33381 
L 398.487273 57.518918 
L 398.487273 57.518918 
" clip-path="url(#pb5e882c451)" style="fill: none; stroke: #1f77b4; stroke-width: 1.5; stroke-linecap: square"/>
   </g>
   <g id="line2d_16">
    <path d="M 73.832727 280.875965 
L 74.918528 242.812944 
L 76.00433 234.598736 
L 77.090131 228.35131 
L 78.175932 196.275405 
L 79.261733 200.700665 
L 80.347534 186.036568 
L 81.433335 176.752199 
L 82.519137 174.698647 
L 83.604938 172.182323 
L 84.690739 164.228424 
L 85.77654 159.485008 
L 86.862341 157.662842 
L 87.948142 152.225268 
L 89.033943 149.68002 
L 90.119745 146.527384 
L 92.291347 144.676295 
L 94.462949 143.635057 
L 95.54875 171.285702 
L 96.634552 162.001333 
L 97.720353 162.897954 
L 98.806154 156.419142 
L 99.891955 156.997607 
L 100.977756 158.819773 
L 102.063557 161.422867 
L 103.149358 153.237582 
L 104.23516 151.675726 
L 105.320961 145.862149 
L 106.406762 147.626468 
L 107.492563 147.886778 
L 108.578364 144.358139 
L 109.664165 140.135342 
L 110.749967 141.379042 
L 111.835768 141.755045 
L 112.921569 144.068906 
L 114.00737 135.767928 
L 115.093171 135.710082 
L 116.178972 138.602409 
L 117.264773 132.557445 
L 118.350575 129.954351 
L 119.436376 130.127891 
L 120.522177 133.367297 
L 121.607978 130.098968 
L 122.693779 128.450341 
L 123.77958 128.247879 
L 125.951183 125.442322 
L 127.036984 125.210935 
L 128.122785 123.330923 
L 129.208586 123.04169 
L 130.294387 121.682297 
L 131.380189 122.492148 
L 132.46599 120.901368 
L 133.551791 121.190601 
L 134.637592 118.992433 
L 135.723393 119.426282 
L 136.809194 119.628745 
L 137.894995 119.975824 
L 138.980797 142.102124 
L 140.066598 142.709513 
L 141.152399 138.023943 
L 142.2382 141.292272 
L 143.324001 142.969822 
L 144.409802 140.482421 
L 145.495604 136.780243 
L 146.581405 136.40424 
L 147.667206 133.830069 
L 148.753007 132.904525 
L 149.838808 136.462087 
L 150.924609 135.334079 
L 152.01041 135.420849 
L 153.096212 135.941468 
L 154.182013 136.31747 
L 155.267814 133.30945 
L 156.353615 133.251604 
L 157.439416 131.487285 
L 158.525217 131.458361 
L 159.611019 129.665119 
L 160.69682 128.942037 
L 161.782621 130.619587 
L 162.868422 127.033101 
L 163.954223 129.751888 
L 165.040024 127.148794 
L 166.125825 126.078633 
L 167.211627 125.847247 
L 168.297428 127.264487 
L 169.383229 125.413398 
L 170.46903 128.392495 
L 171.554831 125.442322 
L 172.640632 126.772792 
L 173.726434 126.454636 
L 174.812235 123.620156 
L 175.898036 122.058299 
L 176.983837 125.182012 
L 178.069638 123.157383 
L 179.155439 122.492148 
L 180.24124 121.595527 
L 181.327042 120.20721 
L 182.412843 119.917977 
L 183.498644 116.794264 
L 184.584445 121.132755 
L 185.670246 118.61643 
L 186.756047 116.562878 
L 187.841849 117.922272 
L 188.92765 116.562878 
L 190.013451 117.835502 
L 191.099252 117.054574 
L 192.185053 115.926566 
L 194.356656 114.740712 
L 195.442457 115.78195 
L 196.528258 114.711789 
L 197.614059 111.848385 
L 198.69986 114.682866 
L 199.785661 111.067457 
L 200.871462 112.571467 
L 201.957264 110.315452 
L 204.128866 110.228682 
L 205.214667 109.76591 
L 206.300468 109.708064 
L 207.386269 108.117284 
L 209.557872 108.319747 
L 210.643673 107.509895 
L 211.729474 107.914821 
L 212.815275 106.786814 
L 213.901076 106.989276 
L 214.986877 106.84466 
L 216.072679 106.555427 
L 217.15848 106.642197 
L 219.330082 105.948039 
L 220.415883 105.687729 
L 221.501684 106.208348 
L 222.587486 106.034809 
L 223.673287 105.224957 
L 224.759088 105.948039 
L 225.844889 128.537111 
L 226.93069 130.937742 
L 228.016491 129.462656 
L 229.102292 132.904525 
L 230.188094 126.078633 
L 231.273895 129.318039 
L 232.359696 128.913114 
L 233.445497 132.354983 
L 234.531298 130.301431 
L 235.617099 134.090379 
L 236.702901 130.214661 
L 237.788702 129.578349 
L 238.874503 128.652804 
L 239.960304 127.958646 
L 241.046105 131.718671 
L 242.131906 130.301431 
L 243.217708 127.438027 
L 244.303509 128.999884 
L 245.38931 125.934017 
L 246.475111 129.173423 
L 247.560912 131.574054 
L 248.646713 126.252173 
L 249.732514 126.541406 
L 250.818316 128.913114 
L 252.989918 126.801715 
L 256.247321 124.516777 
L 257.333123 124.314314 
L 258.418924 129.086653 
L 259.504725 122.810304 
L 260.590526 125.268782 
L 261.676327 125.615861 
L 262.762128 124.892779 
L 263.847929 122.521071 
L 264.933731 123.591232 
L 266.019532 125.095242 
L 267.105333 124.256468 
L 268.191134 122.897074 
L 269.276935 121.277371 
L 270.362736 125.731554 
L 271.448538 122.202915 
L 272.534339 121.277371 
L 273.62014 125.586938 
L 274.705941 121.421987 
L 275.791742 123.186307 
L 276.877543 126.194326 
L 277.963344 121.595527 
L 279.049146 125.702631 
L 280.134947 123.330923 
L 281.220748 123.388769 
L 282.306549 123.764772 
L 283.39235 120.525366 
L 284.478151 122.347532 
L 285.563953 123.099537 
L 287.735555 118.327198 
L 289.907157 120.265057 
L 290.992958 119.426282 
L 292.07876 119.165972 
L 293.164561 120.756752 
L 294.250362 119.310589 
L 295.336163 118.500737 
L 296.421964 119.079203 
L 297.507765 118.095811 
L 298.593566 121.595527 
L 299.679368 119.021356 
L 300.765169 116.794264 
L 301.85097 117.806579 
L 302.936771 115.839796 
L 304.022572 116.909957 
L 305.108373 119.946901 
L 306.194175 120.004747 
L 307.279976 119.079203 
L 308.365777 116.100106 
L 309.451578 114.885329 
L 310.537379 114.538249 
L 311.62318 117.02565 
L 312.708981 115.724103 
L 313.794783 114.798559 
L 314.880584 113.149933 
L 315.966385 115.86872 
L 317.052186 113.844091 
L 318.137987 114.856405 
L 319.223788 111.240997 
L 320.30959 111.848385 
L 321.395391 112.68716 
L 322.481192 111.472383 
L 323.566993 112.94747 
L 325.738595 111.327767 
L 326.824396 114.625019 
L 327.910198 112.571467 
L 328.995999 112.8607 
L 330.0818 110.431145 
L 331.167601 109.563447 
L 332.253402 111.703769 
L 333.339203 108.956059 
L 334.425005 109.505601 
L 335.510806 109.100675 
L 336.596607 108.2619 
L 337.682408 110.546838 
L 338.768209 108.753596 
L 339.85401 109.100675 
L 340.939811 106.960353 
L 342.025613 109.129598 
L 343.111414 107.828051 
L 344.197215 106.902507 
L 345.283016 105.398497 
L 346.368817 105.658806 
L 347.454618 107.047123 
L 348.54042 105.51419 
L 350.712022 106.700044 
L 351.797823 104.530799 
L 352.883624 105.16711 
L 353.969425 103.83664 
L 355.055227 104.646492 
L 356.141028 103.200328 
L 357.226829 102.940019 
L 358.31263 105.138187 
L 360.484232 101.609549 
L 361.570033 102.130167 
L 362.655835 102.072321 
L 363.741636 100.944313 
L 364.827437 101.204623 
L 365.913238 102.303707 
L 366.999039 102.361553 
L 368.08484 103.402791 
L 369.170642 102.101244 
L 370.256443 103.402791 
L 371.342244 105.196034 
L 372.428045 105.282804 
L 373.513846 105.629883 
L 374.599647 106.84466 
L 375.685448 107.076046 
L 376.77125 108.030514 
L 377.857051 105.832346 
L 378.942852 105.34065 
L 380.028653 106.439734 
L 381.114454 106.642197 
L 382.200255 104.212643 
L 383.286057 105.832346 
L 384.371858 106.381888 
L 385.457659 106.150502 
L 386.54346 106.295118 
L 387.629261 106.092655 
L 388.715062 104.733261 
L 389.800863 106.902507 
L 390.886665 106.092655 
L 391.972466 105.919115 
L 393.058267 106.468658 
L 395.229869 105.832346 
L 396.31567 107.567742 
L 397.401472 107.799128 
L 398.487273 106.439734 
L 398.487273 106.439734 
" clip-path="url(#pb5e882c451)" style="fill: none; stroke: #ff7f0e; stroke-width: 1.5; stroke-linecap: square"/>
   </g>
   <g id="line2d_17">
    <path d="M 73.832727 270.465583 
L 74.918528 263.025322 
L 76.00433 240.066231 
L 77.090131 236.695174 
L 78.175932 213.057882 
L 79.261733 216.01005 
L 80.347534 202.6854 
L 81.433335 201.548416 
L 82.519137 204.500584 
L 83.604938 214.334496 
L 84.690739 196.12281 
L 85.77654 199.693338 
L 86.862341 192.612124 
L 87.948142 192.392706 
L 89.033943 195.584239 
L 90.119745 189.300908 
L 91.205546 187.346094 
L 92.291347 188.921914 
L 93.377148 188.782284 
L 94.462949 188.084136 
L 95.54875 209.58709 
L 96.634552 206.03651 
L 97.720353 199.513814 
L 98.806154 196.721223 
L 99.891955 206.894234 
L 100.977756 192.791648 
L 102.063557 194.806303 
L 103.149358 204.480637 
L 104.23516 192.851489 
L 105.320961 196.461911 
L 106.406762 202.266511 
L 107.492563 185.770275 
L 108.578364 186.9671 
L 109.664165 187.166571 
L 110.749967 183.735673 
L 111.835768 189.061543 
L 112.921569 190.836834 
L 114.00737 181.182446 
L 115.093171 186.528264 
L 116.178972 193.449901 
L 117.264773 182.818107 
L 119.436376 171.727529 
L 120.522177 177.611919 
L 121.607978 180.145198 
L 122.693779 176.833982 
L 123.77958 177.751548 
L 124.865382 173.522767 
L 125.951183 178.569378 
L 128.122785 169.393721 
L 129.208586 177.67176 
L 130.294387 173.36319 
L 131.380189 174.380491 
L 132.46599 177.173083 
L 133.551791 173.143772 
L 134.637592 171.747477 
L 135.723393 172.365836 
L 137.894995 173.263455 
L 138.980797 190.876728 
L 140.066598 194.20789 
L 141.152399 189.520326 
L 142.2382 188.143978 
L 143.324001 192.0935 
L 144.409802 180.703716 
L 145.495604 183.456413 
L 146.581405 183.95509 
L 147.667206 181.002922 
L 148.753007 184.274244 
L 149.838808 195.484504 
L 150.924609 181.182446 
L 152.01041 187.625353 
L 153.096212 190.856781 
L 154.182013 186.129322 
L 155.267814 180.584034 
L 156.353615 177.492236 
L 157.439416 180.364616 
L 158.525217 185.550857 
L 159.611019 181.920488 
L 160.69682 177.871231 
L 161.782621 184.633291 
L 162.868422 182.439112 
L 163.954223 181.641229 
L 165.040024 179.806098 
L 166.125825 175.457634 
L 167.211627 169.992133 
L 168.297428 178.908479 
L 169.383229 178.868585 
L 170.46903 174.919063 
L 171.554831 166.301923 
L 172.640632 173.323296 
L 173.726434 172.086577 
L 174.812235 176.275464 
L 175.898036 177.771495 
L 176.983837 168.835203 
L 178.069638 169.653033 
L 179.155439 165.942876 
L 180.24124 170.77007 
L 181.327042 166.581182 
L 182.412843 167.199542 
L 183.498644 165.045257 
L 184.584445 171.169011 
L 186.756047 164.666263 
L 187.841849 171.169011 
L 188.92765 167.478801 
L 190.013451 166.760706 
L 191.099252 162.033248 
L 193.270854 165.823193 
L 194.356656 160.776582 
L 195.442457 161.215418 
L 196.528258 160.138275 
L 197.614059 164.187533 
L 198.69986 164.805892 
L 199.785661 162.751343 
L 200.871462 164.586474 
L 201.957264 163.289914 
L 203.043065 159.42018 
L 204.128866 161.015947 
L 205.214667 165.583828 
L 206.300468 165.404305 
L 207.386269 162.212772 
L 208.472071 160.078434 
L 209.557872 163.629014 
L 210.643673 160.357693 
L 211.729474 159.878963 
L 212.815275 159.759281 
L 213.901076 160.018593 
L 214.986877 159.061133 
L 216.072679 158.60235 
L 217.15848 157.824414 
L 219.330082 159.639598 
L 220.415883 157.684784 
L 221.501684 159.400233 
L 222.587486 158.921503 
L 223.673287 159.819122 
L 224.759088 159.579757 
L 225.844889 178.96832 
L 226.93069 174.300703 
L 228.016491 184.054826 
L 229.102292 181.082711 
L 230.188094 176.454988 
L 231.273895 175.657105 
L 232.359696 184.334085 
L 233.445497 188.343448 
L 234.531298 181.302129 
L 235.617099 178.689061 
L 236.702901 180.524192 
L 237.788702 184.134614 
L 238.874503 177.013506 
L 241.046105 174.899115 
L 242.131906 182.000276 
L 243.217708 178.888532 
L 244.303509 185.570804 
L 245.38931 177.133189 
L 246.475111 175.75684 
L 247.560912 178.250225 
L 248.646713 176.215623 
L 249.732514 170.889752 
L 250.818316 177.67176 
L 251.904117 178.848638 
L 252.989918 177.871231 
L 255.16152 169.533351 
L 256.247321 168.416314 
L 257.333123 172.186312 
L 258.418924 172.924354 
L 259.504725 172.445624 
L 260.590526 175.836628 
L 261.676327 180.54414 
L 262.762128 175.876522 
L 263.847929 170.391075 
L 264.933731 171.228852 
L 266.019532 169.952239 
L 267.105333 174.280756 
L 268.191134 179.367262 
L 269.276935 174.061338 
L 270.362736 172.724884 
L 271.448538 173.562661 
L 272.534339 173.203614 
L 273.62014 171.548006 
L 274.705941 173.123825 
L 275.791742 168.017372 
L 276.877543 180.045462 
L 277.963344 168.296631 
L 279.049146 182.219694 
L 280.134947 171.069276 
L 281.220748 177.073347 
L 282.306549 166.860442 
L 283.39235 165.942876 
L 284.478151 173.881814 
L 285.563953 172.365836 
L 286.649754 163.808538 
L 287.735555 164.845786 
L 288.821356 171.228852 
L 289.907157 166.820547 
L 290.992958 174.32065 
L 292.07876 168.216843 
L 293.164561 174.699645 
L 294.250362 164.586474 
L 295.336163 156.647536 
L 296.421964 169.174303 
L 297.507765 166.621077 
L 298.593566 168.535996 
L 299.679368 172.206259 
L 300.765169 171.10917 
L 301.85097 161.753989 
L 302.936771 168.336526 
L 304.022572 164.805892 
L 305.108373 167.438907 
L 306.194175 162.871025 
L 307.279976 168.496102 
L 308.365777 160.098381 
L 309.451578 170.470863 
L 310.537379 171.468217 
L 311.62318 167.638378 
L 312.708981 157.924149 
L 313.794783 162.811184 
L 314.880584 161.853724 
L 315.966385 165.663617 
L 317.052186 163.549226 
L 318.137987 164.706157 
L 319.223788 162.172877 
L 320.30959 165.942876 
L 321.395391 164.347109 
L 322.481192 165.224781 
L 323.566993 162.890972 
L 324.652794 158.741979 
L 325.738595 157.16616 
L 326.824396 160.098381 
L 327.910198 161.095735 
L 328.995999 164.406951 
L 330.0818 161.853724 
L 331.167601 166.760706 
L 332.253402 158.183461 
L 333.339203 163.509332 
L 334.425005 162.591766 
L 335.510806 159.220709 
L 336.596607 163.569173 
L 337.682408 160.138275 
L 338.768209 156.009229 
L 339.85401 163.070496 
L 340.939811 163.788591 
L 342.025613 161.275259 
L 343.111414 158.402879 
L 344.197215 153.874892 
L 345.283016 155.949388 
L 346.368817 162.910919 
L 347.454618 159.001291 
L 348.54042 158.761926 
L 349.626221 157.345684 
L 350.712022 160.277905 
L 351.797823 157.545155 
L 352.883624 160.776582 
L 353.969425 156.408171 
L 355.055227 158.263249 
L 356.141028 157.964043 
L 357.226829 158.502614 
L 358.31263 161.295206 
L 359.398431 155.72997 
L 360.484232 151.740554 
L 361.570033 155.071716 
L 363.741636 156.82706 
L 364.827437 158.582403 
L 365.913238 156.82706 
L 366.999039 156.707377 
L 368.08484 159.101027 
L 369.170642 154.573039 
L 370.256443 160.277905 
L 371.342244 154.952034 
L 372.428045 157.206054 
L 373.513846 155.929441 
L 374.599647 158.60235 
L 375.685448 160.158222 
L 376.77125 153.874892 
L 377.857051 153.515844 
L 378.942852 158.921503 
L 380.028653 158.303144 
L 381.114454 162.033248 
L 382.200255 160.238011 
L 383.286057 158.801821 
L 384.371858 158.422826 
L 385.457659 159.89891 
L 386.54346 157.824414 
L 387.629261 161.614359 
L 388.715062 150.723253 
L 389.800863 159.460074 
L 390.886665 153.017167 
L 391.972466 155.590341 
L 393.058267 153.296426 
L 394.144068 157.226001 
L 395.229869 148.848227 
L 396.31567 154.453357 
L 397.401472 158.263249 
L 398.487273 158.203408 
L 398.487273 158.203408 
" clip-path="url(#pb5e882c451)" style="fill: none; stroke: #2ca02c; stroke-width: 1.5; stroke-linecap: square"/>
   </g>
   <g id="line2d_18">
    <path d="M 368.08484 103.92341 
L 369.170642 102.390477 
L 370.256443 103.026789 
L 371.342244 103.489561 
L 372.428045 104.646492 
L 373.513846 103.316021 
L 374.599647 105.485266 
L 375.685448 104.270489 
L 376.77125 105.948039 
L 377.857051 105.051417 
L 378.942852 103.663101 
L 380.028653 105.42742 
L 381.114454 104.762185 
L 382.200255 104.820031 
L 383.286057 106.786814 
L 384.371858 106.208348 
L 385.457659 105.051417 
L 386.54346 104.559722 
L 387.629261 102.968942 
L 388.715062 103.229252 
L 389.800863 107.162816 
L 390.886665 106.873583 
L 391.972466 106.75789 
L 393.058267 105.485266 
L 394.144068 107.0182 
L 396.31567 107.538818 
L 397.401472 108.782519 
L 398.487273 110.604685 
L 398.487273 110.604685 
" clip-path="url(#pb5e882c451)" style="fill: none; stroke: #d62728; stroke-width: 1.5; stroke-linecap: square"/>
   </g>
   <g id="line2d_19">
    <path d="M 368.08484 160.098381 
L 369.170642 157.445419 
L 370.256443 157.086372 
L 371.342244 155.331028 
L 372.428045 160.617005 
L 373.513846 158.781874 
L 374.599647 156.468012 
L 375.685448 156.767218 
L 376.77125 160.656899 
L 377.857051 153.236585 
L 378.942852 150.60357 
L 380.028653 152.338966 
L 381.114454 156.009229 
L 382.200255 153.95468 
L 383.286057 160.776582 
L 384.371858 160.158222 
L 385.457659 154.592986 
L 386.54346 157.325737 
L 387.629261 153.675421 
L 388.715062 154.852299 
L 389.800863 156.82706 
L 390.886665 155.311081 
L 391.972466 158.741979 
L 393.058267 157.006583 
L 394.144068 153.296426 
L 395.229869 158.761926 
L 396.31567 167.478801 
L 397.401472 163.210126 
L 398.487273 164.107744 
L 398.487273 164.107744 
" clip-path="url(#pb5e882c451)" style="fill: none; stroke: #9467bd; stroke-width: 1.5; stroke-linecap: square"/>
   </g>
   <g id="patch_3">
    <path d="M 57.6 307.584 
L 57.6 41.472 
" style="fill: none; stroke: #000000; stroke-width: 0.8; stroke-linejoin: miter; stroke-linecap: square"/>
   </g>
   <g id="patch_4">
    <path d="M 414.72 307.584 
L 414.72 41.472 
" style="fill: none; stroke: #000000; stroke-width: 0.8; stroke-linejoin: miter; stroke-linecap: square"/>
   </g>
   <g id="patch_5">
    <path d="M 57.6 307.584 
L 414.72 307.584 
" style="fill: none; stroke: #000000; stroke-width: 0.8; stroke-linejoin: miter; stroke-linecap: square"/>
   </g>
   <g id="patch_6">
    <path d="M 57.6 41.472 
L 414.72 41.472 
" style="fill: none; stroke: #000000; stroke-width: 0.8; stroke-linejoin: miter; stroke-linecap: square"/>
   </g>
   <g id="text_17">
    <!-- Learning Curves -->
    <g transform="translate(187.37625 35.472) scale(0.12 -0.12)">
     <defs>
      <path id="DejaVuSans-4c" d="M 628 4666 
L 1259 4666 
L 1259 531 
L 3531 531 
L 3531 0 
L 628 0 
L 628 4666 
z
" transform="scale(0.015625)"/>
      <path id="DejaVuSans-65" d="M 3597 1894 
L 3597 1613 
L 953 1613 
Q 991 1019 1311 708 
Q 1631 397 2203 397 
Q 2534 397 2845 478 
Q 3156 559 3463 722 
L 3463 178 
Q 3153 47 2828 -22 
Q 2503 -91 2169 -91 
Q 1331 -91 842 396 
Q 353 884 353 1716 
Q 353 2575 817 3079 
Q 1281 3584 2069 3584 
Q 2775 3584 3186 3129 
Q 3597 2675 3597 1894 
z
M 3022 2063 
Q 3016 2534 2758 2815 
Q 2500 3097 2075 3097 
Q 1594 3097 1305 2825 
Q 1016 2553 972 2059 
L 3022 2063 
z
" transform="scale(0.015625)"/>
      <path id="DejaVuSans-6e" d="M 3513 2113 
L 3513 0 
L 2938 0 
L 2938 2094 
Q 2938 2591 2744 2837 
Q 2550 3084 2163 3084 
Q 1697 3084 1428 2787 
Q 1159 2491 1159 1978 
L 1159 0 
L 581 0 
L 581 3500 
L 1159 3500 
L 1159 2956 
Q 1366 3272 1645 3428 
Q 1925 3584 2291 3584 
Q 2894 3584 3203 3211 
Q 3513 2838 3513 2113 
z
" transform="scale(0.015625)"/>
      <path id="DejaVuSans-69" d="M 603 3500 
L 1178 3500 
L 1178 0 
L 603 0 
L 603 3500 
z
M 603 4863 
L 1178 4863 
L 1178 4134 
L 603 4134 
L 603 4863 
z
" transform="scale(0.015625)"/>
      <path id="DejaVuSans-67" d="M 2906 1791 
Q 2906 2416 2648 2759 
Q 2391 3103 1925 3103 
Q 1463 3103 1205 2759 
Q 947 2416 947 1791 
Q 947 1169 1205 825 
Q 1463 481 1925 481 
Q 2391 481 2648 825 
Q 2906 1169 2906 1791 
z
M 3481 434 
Q 3481 -459 3084 -895 
Q 2688 -1331 1869 -1331 
Q 1566 -1331 1297 -1286 
Q 1028 -1241 775 -1147 
L 775 -588 
Q 1028 -725 1275 -790 
Q 1522 -856 1778 -856 
Q 2344 -856 2625 -561 
Q 2906 -266 2906 331 
L 2906 616 
Q 2728 306 2450 153 
Q 2172 0 1784 0 
Q 1141 0 747 490 
Q 353 981 353 1791 
Q 353 2603 747 3093 
Q 1141 3584 1784 3584 
Q 2172 3584 2450 3431 
Q 2728 3278 2906 2969 
L 2906 3500 
L 3481 3500 
L 3481 434 
z
" transform="scale(0.015625)"/>
      <path id="DejaVuSans-20" transform="scale(0.015625)"/>
      <path id="DejaVuSans-43" d="M 4122 4306 
L 4122 3641 
Q 3803 3938 3442 4084 
Q 3081 4231 2675 4231 
Q 1875 4231 1450 3742 
Q 1025 3253 1025 2328 
Q 1025 1406 1450 917 
Q 1875 428 2675 428 
Q 3081 428 3442 575 
Q 3803 722 4122 1019 
L 4122 359 
Q 3791 134 3420 21 
Q 3050 -91 2638 -91 
Q 1578 -91 968 557 
Q 359 1206 359 2328 
Q 359 3453 968 4101 
Q 1578 4750 2638 4750 
Q 3056 4750 3426 4639 
Q 3797 4528 4122 4306 
z
" transform="scale(0.015625)"/>
      <path id="DejaVuSans-76" d="M 191 3500 
L 800 3500 
L 1894 563 
L 2988 3500 
L 3597 3500 
L 2284 0 
L 1503 0 
L 191 3500 
z
" transform="scale(0.015625)"/>
     </defs>
     <use xlink:href="#DejaVuSans-4c"/>
     <use xlink:href="#DejaVuSans-65" x="53.962891"/>
     <use xlink:href="#DejaVuSans-61" x="115.486328"/>
     <use xlink:href="#DejaVuSans-72" x="176.765625"/>
     <use xlink:href="#DejaVuSans-6e" x="216.128906"/>
     <use xlink:href="#DejaVuSans-69" x="279.507812"/>
     <use xlink:href="#DejaVuSans-6e" x="307.291016"/>
     <use xlink:href="#DejaVuSans-67" x="370.669922"/>
     <use xlink:href="#DejaVuSans-20" x="434.146484"/>
     <use xlink:href="#DejaVuSans-43" x="465.933594"/>
     <use xlink:href="#DejaVuSans-75" x="535.757812"/>
     <use xlink:href="#DejaVuSans-72" x="599.136719"/>
     <use xlink:href="#DejaVuSans-76" x="640.25"/>
     <use xlink:href="#DejaVuSans-65" x="699.429688"/>
     <use xlink:href="#DejaVuSans-73" x="760.953125"/>
    </g>
   </g>
   <g id="legend_1">
    <g id="patch_7">
     <path d="M 214.18875 302.584 
L 407.72 302.584 
Q 409.72 302.584 409.72 300.584 
L 409.72 228.193375 
Q 409.72 226.193375 407.72 226.193375 
L 214.18875 226.193375 
Q 212.18875 226.193375 212.18875 228.193375 
L 212.18875 300.584 
Q 212.18875 302.584 214.18875 302.584 
z
" style="fill: #ffffff; opacity: 0.8; stroke: #cccccc; stroke-linejoin: miter"/>
    </g>
    <g id="line2d_20">
     <path d="M 216.18875 234.291812 
L 226.18875 234.291812 
L 236.18875 234.291812 
" style="fill: none; stroke: #1f77b4; stroke-width: 1.5; stroke-linecap: square"/>
    </g>
    <g id="text_18">
     <!-- Train Accuracy -->
     <g transform="translate(244.18875 237.791812) scale(0.1 -0.1)">
      <defs>
       <path id="DejaVuSans-54" d="M -19 4666 
L 3928 4666 
L 3928 4134 
L 2272 4134 
L 2272 0 
L 1638 0 
L 1638 4134 
L -19 4134 
L -19 4666 
z
" transform="scale(0.015625)"/>
      </defs>
      <use xlink:href="#DejaVuSans-54"/>
      <use xlink:href="#DejaVuSans-72" x="46.333984"/>
      <use xlink:href="#DejaVuSans-61" x="87.447266"/>
      <use xlink:href="#DejaVuSans-69" x="148.726562"/>
      <use xlink:href="#DejaVuSans-6e" x="176.509766"/>
      <use xlink:href="#DejaVuSans-20" x="239.888672"/>
      <use xlink:href="#DejaVuSans-41" x="271.675781"/>
      <use xlink:href="#DejaVuSans-63" x="338.333984"/>
      <use xlink:href="#DejaVuSans-63" x="393.314453"/>
      <use xlink:href="#DejaVuSans-75" x="448.294922"/>
      <use xlink:href="#DejaVuSans-72" x="511.673828"/>
      <use xlink:href="#DejaVuSans-61" x="552.787109"/>
      <use xlink:href="#DejaVuSans-63" x="614.066406"/>
      <use xlink:href="#DejaVuSans-79" x="669.046875"/>
     </g>
    </g>
    <g id="line2d_21">
     <path d="M 216.18875 248.969937 
L 226.18875 248.969937 
L 236.18875 248.969937 
" style="fill: none; stroke: #ff7f0e; stroke-width: 1.5; stroke-linecap: square"/>
    </g>
    <g id="text_19">
     <!-- Validation Accuracy -->
     <g transform="translate(244.18875 252.469937) scale(0.1 -0.1)">
      <defs>
       <path id="DejaVuSans-56" d="M 1831 0 
L 50 4666 
L 709 4666 
L 2188 738 
L 3669 4666 
L 4325 4666 
L 2547 0 
L 1831 0 
z
" transform="scale(0.015625)"/>
       <path id="DejaVuSans-6c" d="M 603 4863 
L 1178 4863 
L 1178 0 
L 603 0 
L 603 4863 
z
" transform="scale(0.015625)"/>
       <path id="DejaVuSans-64" d="M 2906 2969 
L 2906 4863 
L 3481 4863 
L 3481 0 
L 2906 0 
L 2906 525 
Q 2725 213 2448 61 
Q 2172 -91 1784 -91 
Q 1150 -91 751 415 
Q 353 922 353 1747 
Q 353 2572 751 3078 
Q 1150 3584 1784 3584 
Q 2172 3584 2448 3432 
Q 2725 3281 2906 2969 
z
M 947 1747 
Q 947 1113 1208 752 
Q 1469 391 1925 391 
Q 2381 391 2643 752 
Q 2906 1113 2906 1747 
Q 2906 2381 2643 2742 
Q 2381 3103 1925 3103 
Q 1469 3103 1208 2742 
Q 947 2381 947 1747 
z
" transform="scale(0.015625)"/>
       <path id="DejaVuSans-74" d="M 1172 4494 
L 1172 3500 
L 2356 3500 
L 2356 3053 
L 1172 3053 
L 1172 1153 
Q 1172 725 1289 603 
Q 1406 481 1766 481 
L 2356 481 
L 2356 0 
L 1766 0 
Q 1100 0 847 248 
Q 594 497 594 1153 
L 594 3053 
L 172 3053 
L 172 3500 
L 594 3500 
L 594 4494 
L 1172 4494 
z
" transform="scale(0.015625)"/>
      </defs>
      <use xlink:href="#DejaVuSans-56"/>
      <use xlink:href="#DejaVuSans-61" x="60.658203"/>
      <use xlink:href="#DejaVuSans-6c" x="121.9375"/>
      <use xlink:href="#DejaVuSans-69" x="149.720703"/>
      <use xlink:href="#DejaVuSans-64" x="177.503906"/>
      <use xlink:href="#DejaVuSans-61" x="240.980469"/>
      <use xlink:href="#DejaVuSans-74" x="302.259766"/>
      <use xlink:href="#DejaVuSans-69" x="341.46875"/>
      <use xlink:href="#DejaVuSans-6f" x="369.251953"/>
      <use xlink:href="#DejaVuSans-6e" x="430.433594"/>
      <use xlink:href="#DejaVuSans-20" x="493.8125"/>
      <use xlink:href="#DejaVuSans-41" x="525.599609"/>
      <use xlink:href="#DejaVuSans-63" x="592.257812"/>
      <use xlink:href="#DejaVuSans-63" x="647.238281"/>
      <use xlink:href="#DejaVuSans-75" x="702.21875"/>
      <use xlink:href="#DejaVuSans-72" x="765.597656"/>
      <use xlink:href="#DejaVuSans-61" x="806.710938"/>
      <use xlink:href="#DejaVuSans-63" x="867.990234"/>
      <use xlink:href="#DejaVuSans-79" x="922.970703"/>
     </g>
    </g>
    <g id="line2d_22">
     <path d="M 216.18875 263.648062 
L 226.18875 263.648062 
L 236.18875 263.648062 
" style="fill: none; stroke: #2ca02c; stroke-width: 1.5; stroke-linecap: square"/>
    </g>
    <g id="text_20">
     <!-- Robust Validation Accuracy -->
     <g transform="translate(244.18875 267.148062) scale(0.1 -0.1)">
      <defs>
       <path id="DejaVuSans-52" d="M 2841 2188 
Q 3044 2119 3236 1894 
Q 3428 1669 3622 1275 
L 4263 0 
L 3584 0 
L 2988 1197 
Q 2756 1666 2539 1819 
Q 2322 1972 1947 1972 
L 1259 1972 
L 1259 0 
L 628 0 
L 628 4666 
L 2053 4666 
Q 2853 4666 3247 4331 
Q 3641 3997 3641 3322 
Q 3641 2881 3436 2590 
Q 3231 2300 2841 2188 
z
M 1259 4147 
L 1259 2491 
L 2053 2491 
Q 2509 2491 2742 2702 
Q 2975 2913 2975 3322 
Q 2975 3731 2742 3939 
Q 2509 4147 2053 4147 
L 1259 4147 
z
" transform="scale(0.015625)"/>
       <path id="DejaVuSans-62" d="M 3116 1747 
Q 3116 2381 2855 2742 
Q 2594 3103 2138 3103 
Q 1681 3103 1420 2742 
Q 1159 2381 1159 1747 
Q 1159 1113 1420 752 
Q 1681 391 2138 391 
Q 2594 391 2855 752 
Q 3116 1113 3116 1747 
z
M 1159 2969 
Q 1341 3281 1617 3432 
Q 1894 3584 2278 3584 
Q 2916 3584 3314 3078 
Q 3713 2572 3713 1747 
Q 3713 922 3314 415 
Q 2916 -91 2278 -91 
Q 1894 -91 1617 61 
Q 1341 213 1159 525 
L 1159 0 
L 581 0 
L 581 4863 
L 1159 4863 
L 1159 2969 
z
" transform="scale(0.015625)"/>
      </defs>
      <use xlink:href="#DejaVuSans-52"/>
      <use xlink:href="#DejaVuSans-6f" x="64.982422"/>
      <use xlink:href="#DejaVuSans-62" x="126.164062"/>
      <use xlink:href="#DejaVuSans-75" x="189.640625"/>
      <use xlink:href="#DejaVuSans-73" x="253.019531"/>
      <use xlink:href="#DejaVuSans-74" x="305.119141"/>
      <use xlink:href="#DejaVuSans-20" x="344.328125"/>
      <use xlink:href="#DejaVuSans-56" x="376.115234"/>
      <use xlink:href="#DejaVuSans-61" x="436.773438"/>
      <use xlink:href="#DejaVuSans-6c" x="498.052734"/>
      <use xlink:href="#DejaVuSans-69" x="525.835938"/>
      <use xlink:href="#DejaVuSans-64" x="553.619141"/>
      <use xlink:href="#DejaVuSans-61" x="617.095703"/>
      <use xlink:href="#DejaVuSans-74" x="678.375"/>
      <use xlink:href="#DejaVuSans-69" x="717.583984"/>
      <use xlink:href="#DejaVuSans-6f" x="745.367188"/>
      <use xlink:href="#DejaVuSans-6e" x="806.548828"/>
      <use xlink:href="#DejaVuSans-20" x="869.927734"/>
      <use xlink:href="#DejaVuSans-41" x="901.714844"/>
      <use xlink:href="#DejaVuSans-63" x="968.373047"/>
      <use xlink:href="#DejaVuSans-63" x="1023.353516"/>
      <use xlink:href="#DejaVuSans-75" x="1078.333984"/>
      <use xlink:href="#DejaVuSans-72" x="1141.712891"/>
      <use xlink:href="#DejaVuSans-61" x="1182.826172"/>
      <use xlink:href="#DejaVuSans-63" x="1244.105469"/>
      <use xlink:href="#DejaVuSans-79" x="1299.085938"/>
     </g>
    </g>
    <g id="line2d_23">
     <path d="M 216.18875 278.326188 
L 226.18875 278.326188 
L 236.18875 278.326188 
" style="fill: none; stroke: #d62728; stroke-width: 1.5; stroke-linecap: square"/>
    </g>
    <g id="text_21">
     <!-- SWA Validation Accuracy -->
     <g transform="translate(244.18875 281.826188) scale(0.1 -0.1)">
      <defs>
       <path id="DejaVuSans-53" d="M 3425 4513 
L 3425 3897 
Q 3066 4069 2747 4153 
Q 2428 4238 2131 4238 
Q 1616 4238 1336 4038 
Q 1056 3838 1056 3469 
Q 1056 3159 1242 3001 
Q 1428 2844 1947 2747 
L 2328 2669 
Q 3034 2534 3370 2195 
Q 3706 1856 3706 1288 
Q 3706 609 3251 259 
Q 2797 -91 1919 -91 
Q 1588 -91 1214 -16 
Q 841 59 441 206 
L 441 856 
Q 825 641 1194 531 
Q 1563 422 1919 422 
Q 2459 422 2753 634 
Q 3047 847 3047 1241 
Q 3047 1584 2836 1778 
Q 2625 1972 2144 2069 
L 1759 2144 
Q 1053 2284 737 2584 
Q 422 2884 422 3419 
Q 422 4038 858 4394 
Q 1294 4750 2059 4750 
Q 2388 4750 2728 4690 
Q 3069 4631 3425 4513 
z
" transform="scale(0.015625)"/>
       <path id="DejaVuSans-57" d="M 213 4666 
L 850 4666 
L 1831 722 
L 2809 4666 
L 3519 4666 
L 4500 722 
L 5478 4666 
L 6119 4666 
L 4947 0 
L 4153 0 
L 3169 4050 
L 2175 0 
L 1381 0 
L 213 4666 
z
" transform="scale(0.015625)"/>
      </defs>
      <use xlink:href="#DejaVuSans-53"/>
      <use xlink:href="#DejaVuSans-57" x="63.476562"/>
      <use xlink:href="#DejaVuSans-41" x="156.853516"/>
      <use xlink:href="#DejaVuSans-20" x="225.261719"/>
      <use xlink:href="#DejaVuSans-56" x="257.048828"/>
      <use xlink:href="#DejaVuSans-61" x="317.707031"/>
      <use xlink:href="#DejaVuSans-6c" x="378.986328"/>
      <use xlink:href="#DejaVuSans-69" x="406.769531"/>
      <use xlink:href="#DejaVuSans-64" x="434.552734"/>
      <use xlink:href="#DejaVuSans-61" x="498.029297"/>
      <use xlink:href="#DejaVuSans-74" x="559.308594"/>
      <use xlink:href="#DejaVuSans-69" x="598.517578"/>
      <use xlink:href="#DejaVuSans-6f" x="626.300781"/>
      <use xlink:href="#DejaVuSans-6e" x="687.482422"/>
      <use xlink:href="#DejaVuSans-20" x="750.861328"/>
      <use xlink:href="#DejaVuSans-41" x="782.648438"/>
      <use xlink:href="#DejaVuSans-63" x="849.306641"/>
      <use xlink:href="#DejaVuSans-63" x="904.287109"/>
      <use xlink:href="#DejaVuSans-75" x="959.267578"/>
      <use xlink:href="#DejaVuSans-72" x="1022.646484"/>
      <use xlink:href="#DejaVuSans-61" x="1063.759766"/>
      <use xlink:href="#DejaVuSans-63" x="1125.039062"/>
      <use xlink:href="#DejaVuSans-79" x="1180.019531"/>
     </g>
    </g>
    <g id="line2d_24">
     <path d="M 216.18875 293.004312 
L 226.18875 293.004312 
L 236.18875 293.004312 
" style="fill: none; stroke: #9467bd; stroke-width: 1.5; stroke-linecap: square"/>
    </g>
    <g id="text_22">
     <!-- SWA Robust Validation Accuracy -->
     <g transform="translate(244.18875 296.504312) scale(0.1 -0.1)">
      <use xlink:href="#DejaVuSans-53"/>
      <use xlink:href="#DejaVuSans-57" x="63.476562"/>
      <use xlink:href="#DejaVuSans-41" x="156.853516"/>
      <use xlink:href="#DejaVuSans-20" x="225.261719"/>
      <use xlink:href="#DejaVuSans-52" x="257.048828"/>
      <use xlink:href="#DejaVuSans-6f" x="322.03125"/>
      <use xlink:href="#DejaVuSans-62" x="383.212891"/>
      <use xlink:href="#DejaVuSans-75" x="446.689453"/>
      <use xlink:href="#DejaVuSans-73" x="510.068359"/>
      <use xlink:href="#DejaVuSans-74" x="562.167969"/>
      <use xlink:href="#DejaVuSans-20" x="601.376953"/>
      <use xlink:href="#DejaVuSans-56" x="633.164062"/>
      <use xlink:href="#DejaVuSans-61" x="693.822266"/>
      <use xlink:href="#DejaVuSans-6c" x="755.101562"/>
      <use xlink:href="#DejaVuSans-69" x="782.884766"/>
      <use xlink:href="#DejaVuSans-64" x="810.667969"/>
      <use xlink:href="#DejaVuSans-61" x="874.144531"/>
      <use xlink:href="#DejaVuSans-74" x="935.423828"/>
      <use xlink:href="#DejaVuSans-69" x="974.632812"/>
      <use xlink:href="#DejaVuSans-6f" x="1002.416016"/>
      <use xlink:href="#DejaVuSans-6e" x="1063.597656"/>
      <use xlink:href="#DejaVuSans-20" x="1126.976562"/>
      <use xlink:href="#DejaVuSans-41" x="1158.763672"/>
      <use xlink:href="#DejaVuSans-63" x="1225.421875"/>
      <use xlink:href="#DejaVuSans-63" x="1280.402344"/>
      <use xlink:href="#DejaVuSans-75" x="1335.382812"/>
      <use xlink:href="#DejaVuSans-72" x="1398.761719"/>
      <use xlink:href="#DejaVuSans-61" x="1439.875"/>
      <use xlink:href="#DejaVuSans-63" x="1501.154297"/>
      <use xlink:href="#DejaVuSans-79" x="1556.134766"/>
     </g>
    </g>
   </g>
  </g>
 </g>
 <defs>
  <clipPath id="pb5e882c451">
   <rect x="57.6" y="41.472" width="357.12" height="266.112"/>
  </clipPath>
 </defs>
</svg>
