<?xml version="1.0" encoding="utf-8" standalone="no"?>
<!DOCTYPE svg PUBLIC "-//W3C//DTD SVG 1.1//EN"
  "http://www.w3.org/Graphics/SVG/1.1/DTD/svg11.dtd">
<svg xmlns:xlink="http://www.w3.org/1999/xlink" width="460.8pt" height="345.6pt" viewBox="0 0 460.8 345.6" xmlns="http://www.w3.org/2000/svg" version="1.1">
 <metadata>
  <rdf:RDF xmlns:dc="http://purl.org/dc/elements/1.1/" xmlns:cc="http://creativecommons.org/ns#" xmlns:rdf="http://www.w3.org/1999/02/22-rdf-syntax-ns#">
   <cc:Work>
    <dc:type rdf:resource="http://purl.org/dc/dcmitype/StillImage"/>
    <dc:date>2025-02-25T22:50:18.112477</dc:date>
    <dc:format>image/svg+xml</dc:format>
    <dc:creator>
     <cc:Agent>
      <dc:title>Matplotlib v3.9.1, https://matplotlib.org/</dc:title>
     </cc:Agent>
    </dc:creator>
   </cc:Work>
  </rdf:RDF>
 </metadata>
 <defs>
  <style type="text/css">*{stroke-linejoin: round; stroke-linecap: butt}</style>
 </defs>
 <g id="figure_1">
  <g id="patch_1">
   <path d="M 0 345.6 
L 460.8 345.6 
L 460.8 0 
L 0 0 
z
" style="fill: #ffffff"/>
  </g>
  <g id="axes_1">
   <g id="patch_2">
    <path d="M 57.6 307.584 
L 414.72 307.584 
L 414.72 41.472 
L 57.6 41.472 
z
" style="fill: #ffffff"/>
   </g>
   <g id="matplotlib.axis_1">
    <g id="xtick_1">
     <g id="line2d_1">
      <defs>
       <path id="mc63ac6892a" d="M 0 0 
L 0 3.5 
" style="stroke: #000000; stroke-width: 0.8"/>
      </defs>
      <g>
       <use xlink:href="#mc63ac6892a" x="73.832727" y="307.584" style="stroke: #000000; stroke-width: 0.8"/>
      </g>
     </g>
     <g id="text_1">
      <!-- 1 -->
      <g transform="translate(70.651477 322.182437) scale(0.1 -0.1)">
       <defs>
        <path id="DejaVuSans-31" d="M 794 531 
L 1825 531 
L 1825 4091 
L 703 3866 
L 703 4441 
L 1819 4666 
L 2450 4666 
L 2450 531 
L 3481 531 
L 3481 0 
L 794 0 
L 794 531 
z
" transform="scale(0.015625)"/>
       </defs>
       <use xlink:href="#DejaVuSans-31"/>
      </g>
     </g>
    </g>
    <g id="xtick_2">
     <g id="line2d_2">
      <g>
       <use xlink:href="#mc63ac6892a" x="109.664165" y="307.584" style="stroke: #000000; stroke-width: 0.8"/>
      </g>
     </g>
     <g id="text_2">
      <!-- 34 -->
      <g transform="translate(103.301665 322.182437) scale(0.1 -0.1)">
       <defs>
        <path id="DejaVuSans-33" d="M 2597 2516 
Q 3050 2419 3304 2112 
Q 3559 1806 3559 1356 
Q 3559 666 3084 287 
Q 2609 -91 1734 -91 
Q 1441 -91 1130 -33 
Q 819 25 488 141 
L 488 750 
Q 750 597 1062 519 
Q 1375 441 1716 441 
Q 2309 441 2620 675 
Q 2931 909 2931 1356 
Q 2931 1769 2642 2001 
Q 2353 2234 1838 2234 
L 1294 2234 
L 1294 2753 
L 1863 2753 
Q 2328 2753 2575 2939 
Q 2822 3125 2822 3475 
Q 2822 3834 2567 4026 
Q 2313 4219 1838 4219 
Q 1578 4219 1281 4162 
Q 984 4106 628 3988 
L 628 4550 
Q 988 4650 1302 4700 
Q 1616 4750 1894 4750 
Q 2613 4750 3031 4423 
Q 3450 4097 3450 3541 
Q 3450 3153 3228 2886 
Q 3006 2619 2597 2516 
z
" transform="scale(0.015625)"/>
        <path id="DejaVuSans-34" d="M 2419 4116 
L 825 1625 
L 2419 1625 
L 2419 4116 
z
M 2253 4666 
L 3047 4666 
L 3047 1625 
L 3713 1625 
L 3713 1100 
L 3047 1100 
L 3047 0 
L 2419 0 
L 2419 1100 
L 313 1100 
L 313 1709 
L 2253 4666 
z
" transform="scale(0.015625)"/>
       </defs>
       <use xlink:href="#DejaVuSans-33"/>
       <use xlink:href="#DejaVuSans-34" x="63.623047"/>
      </g>
     </g>
    </g>
    <g id="xtick_3">
     <g id="line2d_3">
      <g>
       <use xlink:href="#mc63ac6892a" x="145.495604" y="307.584" style="stroke: #000000; stroke-width: 0.8"/>
      </g>
     </g>
     <g id="text_3">
      <!-- 67 -->
      <g transform="translate(139.133104 322.182437) scale(0.1 -0.1)">
       <defs>
        <path id="DejaVuSans-36" d="M 2113 2584 
Q 1688 2584 1439 2293 
Q 1191 2003 1191 1497 
Q 1191 994 1439 701 
Q 1688 409 2113 409 
Q 2538 409 2786 701 
Q 3034 994 3034 1497 
Q 3034 2003 2786 2293 
Q 2538 2584 2113 2584 
z
M 3366 4563 
L 3366 3988 
Q 3128 4100 2886 4159 
Q 2644 4219 2406 4219 
Q 1781 4219 1451 3797 
Q 1122 3375 1075 2522 
Q 1259 2794 1537 2939 
Q 1816 3084 2150 3084 
Q 2853 3084 3261 2657 
Q 3669 2231 3669 1497 
Q 3669 778 3244 343 
Q 2819 -91 2113 -91 
Q 1303 -91 875 529 
Q 447 1150 447 2328 
Q 447 3434 972 4092 
Q 1497 4750 2381 4750 
Q 2619 4750 2861 4703 
Q 3103 4656 3366 4563 
z
" transform="scale(0.015625)"/>
        <path id="DejaVuSans-37" d="M 525 4666 
L 3525 4666 
L 3525 4397 
L 1831 0 
L 1172 0 
L 2766 4134 
L 525 4134 
L 525 4666 
z
" transform="scale(0.015625)"/>
       </defs>
       <use xlink:href="#DejaVuSans-36"/>
       <use xlink:href="#DejaVuSans-37" x="63.623047"/>
      </g>
     </g>
    </g>
    <g id="xtick_4">
     <g id="line2d_4">
      <g>
       <use xlink:href="#mc63ac6892a" x="181.327042" y="307.584" style="stroke: #000000; stroke-width: 0.8"/>
      </g>
     </g>
     <g id="text_4">
      <!-- 100 -->
      <g transform="translate(171.783292 322.182437) scale(0.1 -0.1)">
       <defs>
        <path id="DejaVuSans-30" d="M 2034 4250 
Q 1547 4250 1301 3770 
Q 1056 3291 1056 2328 
Q 1056 1369 1301 889 
Q 1547 409 2034 409 
Q 2525 409 2770 889 
Q 3016 1369 3016 2328 
Q 3016 3291 2770 3770 
Q 2525 4250 2034 4250 
z
M 2034 4750 
Q 2819 4750 3233 4129 
Q 3647 3509 3647 2328 
Q 3647 1150 3233 529 
Q 2819 -91 2034 -91 
Q 1250 -91 836 529 
Q 422 1150 422 2328 
Q 422 3509 836 4129 
Q 1250 4750 2034 4750 
z
" transform="scale(0.015625)"/>
       </defs>
       <use xlink:href="#DejaVuSans-31"/>
       <use xlink:href="#DejaVuSans-30" x="63.623047"/>
       <use xlink:href="#DejaVuSans-30" x="127.246094"/>
      </g>
     </g>
    </g>
    <g id="xtick_5">
     <g id="line2d_5">
      <g>
       <use xlink:href="#mc63ac6892a" x="217.15848" y="307.584" style="stroke: #000000; stroke-width: 0.8"/>
      </g>
     </g>
     <g id="text_5">
      <!-- 133 -->
      <g transform="translate(207.61473 322.182437) scale(0.1 -0.1)">
       <use xlink:href="#DejaVuSans-31"/>
       <use xlink:href="#DejaVuSans-33" x="63.623047"/>
       <use xlink:href="#DejaVuSans-33" x="127.246094"/>
      </g>
     </g>
    </g>
    <g id="xtick_6">
     <g id="line2d_6">
      <g>
       <use xlink:href="#mc63ac6892a" x="254.075719" y="307.584" style="stroke: #000000; stroke-width: 0.8"/>
      </g>
     </g>
     <g id="text_6">
      <!-- 167 -->
      <g transform="translate(244.531969 322.182437) scale(0.1 -0.1)">
       <use xlink:href="#DejaVuSans-31"/>
       <use xlink:href="#DejaVuSans-36" x="63.623047"/>
       <use xlink:href="#DejaVuSans-37" x="127.246094"/>
      </g>
     </g>
    </g>
    <g id="xtick_7">
     <g id="line2d_7">
      <g>
       <use xlink:href="#mc63ac6892a" x="289.907157" y="307.584" style="stroke: #000000; stroke-width: 0.8"/>
      </g>
     </g>
     <g id="text_7">
      <!-- 200 -->
      <g transform="translate(280.363407 322.182437) scale(0.1 -0.1)">
       <defs>
        <path id="DejaVuSans-32" d="M 1228 531 
L 3431 531 
L 3431 0 
L 469 0 
L 469 531 
Q 828 903 1448 1529 
Q 2069 2156 2228 2338 
Q 2531 2678 2651 2914 
Q 2772 3150 2772 3378 
Q 2772 3750 2511 3984 
Q 2250 4219 1831 4219 
Q 1534 4219 1204 4116 
Q 875 4013 500 3803 
L 500 4441 
Q 881 4594 1212 4672 
Q 1544 4750 1819 4750 
Q 2544 4750 2975 4387 
Q 3406 4025 3406 3419 
Q 3406 3131 3298 2873 
Q 3191 2616 2906 2266 
Q 2828 2175 2409 1742 
Q 1991 1309 1228 531 
z
" transform="scale(0.015625)"/>
       </defs>
       <use xlink:href="#DejaVuSans-32"/>
       <use xlink:href="#DejaVuSans-30" x="63.623047"/>
       <use xlink:href="#DejaVuSans-30" x="127.246094"/>
      </g>
     </g>
    </g>
    <g id="xtick_8">
     <g id="line2d_8">
      <g>
       <use xlink:href="#mc63ac6892a" x="325.738595" y="307.584" style="stroke: #000000; stroke-width: 0.8"/>
      </g>
     </g>
     <g id="text_8">
      <!-- 233 -->
      <g transform="translate(316.194845 322.182437) scale(0.1 -0.1)">
       <use xlink:href="#DejaVuSans-32"/>
       <use xlink:href="#DejaVuSans-33" x="63.623047"/>
       <use xlink:href="#DejaVuSans-33" x="127.246094"/>
      </g>
     </g>
    </g>
    <g id="xtick_9">
     <g id="line2d_9">
      <g>
       <use xlink:href="#mc63ac6892a" x="361.570033" y="307.584" style="stroke: #000000; stroke-width: 0.8"/>
      </g>
     </g>
     <g id="text_9">
      <!-- 266 -->
      <g transform="translate(352.026283 322.182437) scale(0.1 -0.1)">
       <use xlink:href="#DejaVuSans-32"/>
       <use xlink:href="#DejaVuSans-36" x="63.623047"/>
       <use xlink:href="#DejaVuSans-36" x="127.246094"/>
      </g>
     </g>
    </g>
    <g id="xtick_10">
     <g id="line2d_10">
      <g>
       <use xlink:href="#mc63ac6892a" x="398.487273" y="307.584" style="stroke: #000000; stroke-width: 0.8"/>
      </g>
     </g>
     <g id="text_10">
      <!-- 300 -->
      <g transform="translate(388.943523 322.182437) scale(0.1 -0.1)">
       <use xlink:href="#DejaVuSans-33"/>
       <use xlink:href="#DejaVuSans-30" x="63.623047"/>
       <use xlink:href="#DejaVuSans-30" x="127.246094"/>
      </g>
     </g>
    </g>
    <g id="text_11">
     <!-- Epochs -->
     <g transform="translate(218.244375 335.860562) scale(0.1 -0.1)">
      <defs>
       <path id="DejaVuSans-45" d="M 628 4666 
L 3578 4666 
L 3578 4134 
L 1259 4134 
L 1259 2753 
L 3481 2753 
L 3481 2222 
L 1259 2222 
L 1259 531 
L 3634 531 
L 3634 0 
L 628 0 
L 628 4666 
z
" transform="scale(0.015625)"/>
       <path id="DejaVuSans-70" d="M 1159 525 
L 1159 -1331 
L 581 -1331 
L 581 3500 
L 1159 3500 
L 1159 2969 
Q 1341 3281 1617 3432 
Q 1894 3584 2278 3584 
Q 2916 3584 3314 3078 
Q 3713 2572 3713 1747 
Q 3713 922 3314 415 
Q 2916 -91 2278 -91 
Q 1894 -91 1617 61 
Q 1341 213 1159 525 
z
M 3116 1747 
Q 3116 2381 2855 2742 
Q 2594 3103 2138 3103 
Q 1681 3103 1420 2742 
Q 1159 2381 1159 1747 
Q 1159 1113 1420 752 
Q 1681 391 2138 391 
Q 2594 391 2855 752 
Q 3116 1113 3116 1747 
z
" transform="scale(0.015625)"/>
       <path id="DejaVuSans-6f" d="M 1959 3097 
Q 1497 3097 1228 2736 
Q 959 2375 959 1747 
Q 959 1119 1226 758 
Q 1494 397 1959 397 
Q 2419 397 2687 759 
Q 2956 1122 2956 1747 
Q 2956 2369 2687 2733 
Q 2419 3097 1959 3097 
z
M 1959 3584 
Q 2709 3584 3137 3096 
Q 3566 2609 3566 1747 
Q 3566 888 3137 398 
Q 2709 -91 1959 -91 
Q 1206 -91 779 398 
Q 353 888 353 1747 
Q 353 2609 779 3096 
Q 1206 3584 1959 3584 
z
" transform="scale(0.015625)"/>
       <path id="DejaVuSans-63" d="M 3122 3366 
L 3122 2828 
Q 2878 2963 2633 3030 
Q 2388 3097 2138 3097 
Q 1578 3097 1268 2742 
Q 959 2388 959 1747 
Q 959 1106 1268 751 
Q 1578 397 2138 397 
Q 2388 397 2633 464 
Q 2878 531 3122 666 
L 3122 134 
Q 2881 22 2623 -34 
Q 2366 -91 2075 -91 
Q 1284 -91 818 406 
Q 353 903 353 1747 
Q 353 2603 823 3093 
Q 1294 3584 2113 3584 
Q 2378 3584 2631 3529 
Q 2884 3475 3122 3366 
z
" transform="scale(0.015625)"/>
       <path id="DejaVuSans-68" d="M 3513 2113 
L 3513 0 
L 2938 0 
L 2938 2094 
Q 2938 2591 2744 2837 
Q 2550 3084 2163 3084 
Q 1697 3084 1428 2787 
Q 1159 2491 1159 1978 
L 1159 0 
L 581 0 
L 581 4863 
L 1159 4863 
L 1159 2956 
Q 1366 3272 1645 3428 
Q 1925 3584 2291 3584 
Q 2894 3584 3203 3211 
Q 3513 2838 3513 2113 
z
" transform="scale(0.015625)"/>
       <path id="DejaVuSans-73" d="M 2834 3397 
L 2834 2853 
Q 2591 2978 2328 3040 
Q 2066 3103 1784 3103 
Q 1356 3103 1142 2972 
Q 928 2841 928 2578 
Q 928 2378 1081 2264 
Q 1234 2150 1697 2047 
L 1894 2003 
Q 2506 1872 2764 1633 
Q 3022 1394 3022 966 
Q 3022 478 2636 193 
Q 2250 -91 1575 -91 
Q 1294 -91 989 -36 
Q 684 19 347 128 
L 347 722 
Q 666 556 975 473 
Q 1284 391 1588 391 
Q 1994 391 2212 530 
Q 2431 669 2431 922 
Q 2431 1156 2273 1281 
Q 2116 1406 1581 1522 
L 1381 1569 
Q 847 1681 609 1914 
Q 372 2147 372 2553 
Q 372 3047 722 3315 
Q 1072 3584 1716 3584 
Q 2034 3584 2315 3537 
Q 2597 3491 2834 3397 
z
" transform="scale(0.015625)"/>
      </defs>
      <use xlink:href="#DejaVuSans-45"/>
      <use xlink:href="#DejaVuSans-70" x="63.183594"/>
      <use xlink:href="#DejaVuSans-6f" x="126.660156"/>
      <use xlink:href="#DejaVuSans-63" x="187.841797"/>
      <use xlink:href="#DejaVuSans-68" x="242.822266"/>
      <use xlink:href="#DejaVuSans-73" x="306.201172"/>
     </g>
    </g>
   </g>
   <g id="matplotlib.axis_2">
    <g id="ytick_1">
     <g id="line2d_11">
      <defs>
       <path id="mdcc0253ce4" d="M 0 0 
L -3.5 0 
" style="stroke: #000000; stroke-width: 0.8"/>
      </defs>
      <g>
       <use xlink:href="#mdcc0253ce4" x="57.6" y="290.852888" style="stroke: #000000; stroke-width: 0.8"/>
      </g>
     </g>
     <g id="text_12">
      <!-- 10 -->
      <g transform="translate(37.875 294.652106) scale(0.1 -0.1)">
       <use xlink:href="#DejaVuSans-31"/>
       <use xlink:href="#DejaVuSans-30" x="63.623047"/>
      </g>
     </g>
    </g>
    <g id="ytick_2">
     <g id="line2d_12">
      <g>
       <use xlink:href="#mdcc0253ce4" x="57.6" y="260.303283" style="stroke: #000000; stroke-width: 0.8"/>
      </g>
     </g>
     <g id="text_13">
      <!-- 20 -->
      <g transform="translate(37.875 264.102502) scale(0.1 -0.1)">
       <use xlink:href="#DejaVuSans-32"/>
       <use xlink:href="#DejaVuSans-30" x="63.623047"/>
      </g>
     </g>
    </g>
    <g id="ytick_3">
     <g id="line2d_13">
      <g>
       <use xlink:href="#mdcc0253ce4" x="57.6" y="229.753679" style="stroke: #000000; stroke-width: 0.8"/>
      </g>
     </g>
     <g id="text_14">
      <!-- 30 -->
      <g transform="translate(37.875 233.552897) scale(0.1 -0.1)">
       <use xlink:href="#DejaVuSans-33"/>
       <use xlink:href="#DejaVuSans-30" x="63.623047"/>
      </g>
     </g>
    </g>
    <g id="ytick_4">
     <g id="line2d_14">
      <g>
       <use xlink:href="#mdcc0253ce4" x="57.6" y="199.204074" style="stroke: #000000; stroke-width: 0.8"/>
      </g>
     </g>
     <g id="text_15">
      <!-- 40 -->
      <g transform="translate(37.875 203.003293) scale(0.1 -0.1)">
       <use xlink:href="#DejaVuSans-34"/>
       <use xlink:href="#DejaVuSans-30" x="63.623047"/>
      </g>
     </g>
    </g>
    <g id="ytick_5">
     <g id="line2d_15">
      <g>
       <use xlink:href="#mdcc0253ce4" x="57.6" y="168.65447" style="stroke: #000000; stroke-width: 0.8"/>
      </g>
     </g>
     <g id="text_16">
      <!-- 50 -->
      <g transform="translate(37.875 172.453689) scale(0.1 -0.1)">
       <defs>
        <path id="DejaVuSans-35" d="M 691 4666 
L 3169 4666 
L 3169 4134 
L 1269 4134 
L 1269 2991 
Q 1406 3038 1543 3061 
Q 1681 3084 1819 3084 
Q 2600 3084 3056 2656 
Q 3513 2228 3513 1497 
Q 3513 744 3044 326 
Q 2575 -91 1722 -91 
Q 1428 -91 1123 -41 
Q 819 9 494 109 
L 494 744 
Q 775 591 1075 516 
Q 1375 441 1709 441 
Q 2250 441 2565 725 
Q 2881 1009 2881 1497 
Q 2881 1984 2565 2268 
Q 2250 2553 1709 2553 
Q 1456 2553 1204 2497 
Q 953 2441 691 2322 
L 691 4666 
z
" transform="scale(0.015625)"/>
       </defs>
       <use xlink:href="#DejaVuSans-35"/>
       <use xlink:href="#DejaVuSans-30" x="63.623047"/>
      </g>
     </g>
    </g>
    <g id="ytick_6">
     <g id="line2d_16">
      <g>
       <use xlink:href="#mdcc0253ce4" x="57.6" y="138.104865" style="stroke: #000000; stroke-width: 0.8"/>
      </g>
     </g>
     <g id="text_17">
      <!-- 60 -->
      <g transform="translate(37.875 141.904084) scale(0.1 -0.1)">
       <use xlink:href="#DejaVuSans-36"/>
       <use xlink:href="#DejaVuSans-30" x="63.623047"/>
      </g>
     </g>
    </g>
    <g id="ytick_7">
     <g id="line2d_17">
      <g>
       <use xlink:href="#mdcc0253ce4" x="57.6" y="107.555261" style="stroke: #000000; stroke-width: 0.8"/>
      </g>
     </g>
     <g id="text_18">
      <!-- 70 -->
      <g transform="translate(37.875 111.35448) scale(0.1 -0.1)">
       <use xlink:href="#DejaVuSans-37"/>
       <use xlink:href="#DejaVuSans-30" x="63.623047"/>
      </g>
     </g>
    </g>
    <g id="ytick_8">
     <g id="line2d_18">
      <g>
       <use xlink:href="#mdcc0253ce4" x="57.6" y="77.005657" style="stroke: #000000; stroke-width: 0.8"/>
      </g>
     </g>
     <g id="text_19">
      <!-- 80 -->
      <g transform="translate(37.875 80.804875) scale(0.1 -0.1)">
       <defs>
        <path id="DejaVuSans-38" d="M 2034 2216 
Q 1584 2216 1326 1975 
Q 1069 1734 1069 1313 
Q 1069 891 1326 650 
Q 1584 409 2034 409 
Q 2484 409 2743 651 
Q 3003 894 3003 1313 
Q 3003 1734 2745 1975 
Q 2488 2216 2034 2216 
z
M 1403 2484 
Q 997 2584 770 2862 
Q 544 3141 544 3541 
Q 544 4100 942 4425 
Q 1341 4750 2034 4750 
Q 2731 4750 3128 4425 
Q 3525 4100 3525 3541 
Q 3525 3141 3298 2862 
Q 3072 2584 2669 2484 
Q 3125 2378 3379 2068 
Q 3634 1759 3634 1313 
Q 3634 634 3220 271 
Q 2806 -91 2034 -91 
Q 1263 -91 848 271 
Q 434 634 434 1313 
Q 434 1759 690 2068 
Q 947 2378 1403 2484 
z
M 1172 3481 
Q 1172 3119 1398 2916 
Q 1625 2713 2034 2713 
Q 2441 2713 2670 2916 
Q 2900 3119 2900 3481 
Q 2900 3844 2670 4047 
Q 2441 4250 2034 4250 
Q 1625 4250 1398 4047 
Q 1172 3844 1172 3481 
z
" transform="scale(0.015625)"/>
       </defs>
       <use xlink:href="#DejaVuSans-38"/>
       <use xlink:href="#DejaVuSans-30" x="63.623047"/>
      </g>
     </g>
    </g>
    <g id="ytick_9">
     <g id="line2d_19">
      <g>
       <use xlink:href="#mdcc0253ce4" x="57.6" y="46.456052" style="stroke: #000000; stroke-width: 0.8"/>
      </g>
     </g>
     <g id="text_20">
      <!-- 90 -->
      <g transform="translate(37.875 50.255271) scale(0.1 -0.1)">
       <defs>
        <path id="DejaVuSans-39" d="M 703 97 
L 703 672 
Q 941 559 1184 500 
Q 1428 441 1663 441 
Q 2288 441 2617 861 
Q 2947 1281 2994 2138 
Q 2813 1869 2534 1725 
Q 2256 1581 1919 1581 
Q 1219 1581 811 2004 
Q 403 2428 403 3163 
Q 403 3881 828 4315 
Q 1253 4750 1959 4750 
Q 2769 4750 3195 4129 
Q 3622 3509 3622 2328 
Q 3622 1225 3098 567 
Q 2575 -91 1691 -91 
Q 1453 -91 1209 -44 
Q 966 3 703 97 
z
M 1959 2075 
Q 2384 2075 2632 2365 
Q 2881 2656 2881 3163 
Q 2881 3666 2632 3958 
Q 2384 4250 1959 4250 
Q 1534 4250 1286 3958 
Q 1038 3666 1038 3163 
Q 1038 2656 1286 2365 
Q 1534 2075 1959 2075 
z
" transform="scale(0.015625)"/>
       </defs>
       <use xlink:href="#DejaVuSans-39"/>
       <use xlink:href="#DejaVuSans-30" x="63.623047"/>
      </g>
     </g>
    </g>
    <g id="text_21">
     <!-- Accuracy -->
     <g transform="translate(31.795312 197.356125) rotate(-90) scale(0.1 -0.1)">
      <defs>
       <path id="DejaVuSans-41" d="M 2188 4044 
L 1331 1722 
L 3047 1722 
L 2188 4044 
z
M 1831 4666 
L 2547 4666 
L 4325 0 
L 3669 0 
L 3244 1197 
L 1141 1197 
L 716 0 
L 50 0 
L 1831 4666 
z
" transform="scale(0.015625)"/>
       <path id="DejaVuSans-75" d="M 544 1381 
L 544 3500 
L 1119 3500 
L 1119 1403 
Q 1119 906 1312 657 
Q 1506 409 1894 409 
Q 2359 409 2629 706 
Q 2900 1003 2900 1516 
L 2900 3500 
L 3475 3500 
L 3475 0 
L 2900 0 
L 2900 538 
Q 2691 219 2414 64 
Q 2138 -91 1772 -91 
Q 1169 -91 856 284 
Q 544 659 544 1381 
z
M 1991 3584 
L 1991 3584 
z
" transform="scale(0.015625)"/>
       <path id="DejaVuSans-72" d="M 2631 2963 
Q 2534 3019 2420 3045 
Q 2306 3072 2169 3072 
Q 1681 3072 1420 2755 
Q 1159 2438 1159 1844 
L 1159 0 
L 581 0 
L 581 3500 
L 1159 3500 
L 1159 2956 
Q 1341 3275 1631 3429 
Q 1922 3584 2338 3584 
Q 2397 3584 2469 3576 
Q 2541 3569 2628 3553 
L 2631 2963 
z
" transform="scale(0.015625)"/>
       <path id="DejaVuSans-61" d="M 2194 1759 
Q 1497 1759 1228 1600 
Q 959 1441 959 1056 
Q 959 750 1161 570 
Q 1363 391 1709 391 
Q 2188 391 2477 730 
Q 2766 1069 2766 1631 
L 2766 1759 
L 2194 1759 
z
M 3341 1997 
L 3341 0 
L 2766 0 
L 2766 531 
Q 2569 213 2275 61 
Q 1981 -91 1556 -91 
Q 1019 -91 701 211 
Q 384 513 384 1019 
Q 384 1609 779 1909 
Q 1175 2209 1959 2209 
L 2766 2209 
L 2766 2266 
Q 2766 2663 2505 2880 
Q 2244 3097 1772 3097 
Q 1472 3097 1187 3025 
Q 903 2953 641 2809 
L 641 3341 
Q 956 3463 1253 3523 
Q 1550 3584 1831 3584 
Q 2591 3584 2966 3190 
Q 3341 2797 3341 1997 
z
" transform="scale(0.015625)"/>
       <path id="DejaVuSans-79" d="M 2059 -325 
Q 1816 -950 1584 -1140 
Q 1353 -1331 966 -1331 
L 506 -1331 
L 506 -850 
L 844 -850 
Q 1081 -850 1212 -737 
Q 1344 -625 1503 -206 
L 1606 56 
L 191 3500 
L 800 3500 
L 1894 763 
L 2988 3500 
L 3597 3500 
L 2059 -325 
z
" transform="scale(0.015625)"/>
      </defs>
      <use xlink:href="#DejaVuSans-41"/>
      <use xlink:href="#DejaVuSans-63" x="66.658203"/>
      <use xlink:href="#DejaVuSans-63" x="121.638672"/>
      <use xlink:href="#DejaVuSans-75" x="176.619141"/>
      <use xlink:href="#DejaVuSans-72" x="239.998047"/>
      <use xlink:href="#DejaVuSans-61" x="281.111328"/>
      <use xlink:href="#DejaVuSans-63" x="342.390625"/>
      <use xlink:href="#DejaVuSans-79" x="397.371094"/>
     </g>
    </g>
   </g>
   <g id="line2d_20">
    <path d="M 73.832727 295.178712 
L 76.00433 217.918762 
L 77.090131 190.815153 
L 78.175932 169.827575 
L 79.261733 155.768647 
L 82.519137 132.31266 
L 83.604938 127.107008 
L 84.690739 120.233347 
L 86.862341 111.306752 
L 87.948142 108.563398 
L 89.033943 104.640829 
L 90.119745 102.306839 
L 91.205546 98.915833 
L 92.291347 98.500358 
L 93.377148 95.665355 
L 94.462949 94.926054 
L 95.54875 121.883025 
L 96.634552 120.77713 
L 97.720353 119.885081 
L 99.891955 114.239514 
L 100.977756 111.435061 
L 102.063557 110.170307 
L 103.149358 107.66524 
L 105.320961 103.553263 
L 106.406762 100.803798 
L 107.492563 99.484055 
L 108.578364 99.636803 
L 109.664165 96.972878 
L 110.749967 96.01362 
L 111.835768 93.649081 
L 112.921569 92.634834 
L 114.00737 92.19492 
L 115.093171 88.260131 
L 116.178972 87.478061 
L 117.264773 85.913921 
L 118.350575 85.382358 
L 119.436376 83.72046 
L 120.522177 83.378304 
L 121.607978 81.013765 
L 122.693779 80.023957 
L 123.77958 78.618676 
L 124.865382 77.995464 
L 125.951183 76.529083 
L 127.036984 76.180817 
L 128.122785 73.846827 
L 129.208586 73.474122 
L 130.294387 72.508755 
L 131.380189 72.026071 
L 132.46599 70.400832 
L 133.551791 70.156435 
L 134.637592 70.162545 
L 135.723393 70.840746 
L 136.809194 68.922231 
L 137.894995 68.793923 
L 138.980797 92.439317 
L 140.066598 95.775333 
L 141.152399 94.015676 
L 142.2382 93.655191 
L 143.324001 93.75906 
L 144.409802 94.889395 
L 145.495604 93.484113 
L 146.581405 92.781472 
L 147.667206 90.887397 
L 148.753007 90.722429 
L 149.838808 88.895563 
L 150.924609 87.777447 
L 152.01041 88.254021 
L 155.267814 87.484171 
L 156.353615 85.871152 
L 157.439416 86.121658 
L 158.525217 85.602315 
L 159.611019 83.6838 
L 160.69682 82.999489 
L 161.782621 84.013736 
L 162.868422 81.997462 
L 163.954223 81.942473 
L 165.040024 82.186869 
L 166.125825 81.472009 
L 167.211627 81.600317 
L 168.297428 79.584043 
L 169.383229 78.710324 
L 170.46903 79.339646 
L 171.554831 77.720517 
L 172.640632 78.2643 
L 173.726434 75.97919 
L 174.812235 76.138048 
L 178.069638 75.123801 
L 179.155439 74.146214 
L 180.24124 73.480232 
L 181.327042 73.339704 
L 182.412843 72.374336 
L 183.498644 71.757234 
L 184.584445 71.745015 
L 187.841849 69.258277 
L 188.92765 69.453794 
L 190.013451 68.457877 
L 191.099252 68.176821 
L 192.185053 67.351982 
L 193.270854 67.223673 
L 194.356656 67.266443 
L 195.442457 65.708413 
L 196.528258 66.325515 
L 197.614059 65.482346 
L 198.69986 64.37034 
L 199.785661 63.899876 
L 200.871462 64.35201 
L 201.957264 63.6066 
L 203.043065 62.427385 
L 204.128866 61.840833 
L 205.214667 62.08523 
L 206.300468 61.492567 
L 207.386269 60.698278 
L 208.472071 60.906015 
L 209.557872 60.197264 
L 210.643673 60.270583 
L 211.729474 59.916208 
L 212.815275 58.712553 
L 213.901076 59.213567 
L 214.986877 58.883631 
L 216.072679 59.360205 
L 217.15848 57.716636 
L 218.244281 58.284859 
L 219.330082 58.156551 
L 220.415883 57.39892 
L 221.501684 58.22376 
L 222.587486 57.001776 
L 223.673287 57.582218 
L 224.759088 57.39281 
L 225.844889 79.193008 
L 226.93069 82.015792 
L 228.016491 82.92617 
L 229.102292 82.999489 
L 230.188094 83.207226 
L 231.273895 82.748982 
L 233.445497 83.121687 
L 234.531298 81.667526 
L 235.617099 81.417019 
L 236.702901 80.696049 
L 237.788702 81.777505 
L 238.874503 81.080974 
L 239.960304 81.410909 
L 241.046105 81.148183 
L 242.131906 80.127826 
L 243.217708 80.366113 
L 244.303509 80.103386 
L 245.38931 78.795863 
L 246.475111 79.315207 
L 247.560912 78.502587 
L 248.646713 79.08303 
L 250.818316 78.27652 
L 251.904117 78.105442 
L 252.989918 78.630895 
L 254.075719 78.582016 
L 255.16152 78.667555 
L 256.247321 77.152295 
L 257.333123 77.732737 
L 258.418924 77.298933 
L 259.504725 77.54333 
L 260.590526 76.608512 
L 261.676327 75.93031 
L 262.762128 76.437434 
L 263.847929 76.040289 
L 264.933731 76.156378 
L 266.019532 75.123801 
L 267.105333 75.630924 
L 268.191134 75.343758 
L 269.276935 75.331538 
L 270.362736 74.708326 
L 271.448538 73.486342 
L 272.534339 75.453737 
L 273.62014 73.761289 
L 274.705941 74.329511 
L 275.791742 73.553551 
L 276.877543 73.706299 
L 277.963344 73.602431 
L 279.049146 74.39672 
L 281.220748 72.453765 
L 282.306549 71.641146 
L 283.39235 71.952752 
L 284.478151 71.861103 
L 285.563953 71.066813 
L 286.649754 71.121803 
L 287.735555 71.604486 
L 288.821356 71.628926 
L 289.907157 71.280661 
L 290.992958 70.706328 
L 292.07876 70.59635 
L 293.164561 70.009797 
L 294.250362 69.594322 
L 295.336163 70.144215 
L 296.421964 68.836692 
L 297.507765 69.129969 
L 299.679368 69.105529 
L 300.765169 68.170711 
L 304.022572 68.305129 
L 305.108373 67.180904 
L 306.194175 67.43141 
L 307.279976 66.294965 
L 308.365777 67.608598 
L 309.451578 67.260333 
L 310.537379 66.026129 
L 311.62318 66.954837 
L 312.708981 66.551582 
L 313.794783 65.879491 
L 315.966385 65.219619 
L 317.052186 64.895793 
L 318.137987 64.975222 
L 319.223788 64.431439 
L 320.30959 64.785815 
L 321.395391 63.527171 
L 322.481192 64.871354 
L 323.566993 64.064844 
L 324.652794 62.317407 
L 325.738595 63.698249 
L 326.824396 62.219648 
L 327.910198 62.82453 
L 328.995999 62.09134 
L 331.167601 61.523117 
L 332.253402 60.936565 
L 333.339203 61.144302 
L 334.425005 61.058763 
L 335.510806 60.044516 
L 337.682408 61.040433 
L 338.768209 59.806229 
L 339.85401 59.897878 
L 342.025613 58.669784 
L 344.197215 58.914181 
L 345.283016 58.327628 
L 346.368817 58.162661 
L 347.454618 57.606658 
L 348.54042 57.802175 
L 349.626221 57.197293 
L 350.712022 57.576108 
L 352.883624 55.999749 
L 353.969425 56.946786 
L 356.141028 55.162689 
L 357.226829 55.492625 
L 358.31263 55.046601 
L 359.398431 56.176936 
L 360.484232 55.364317 
L 361.570033 54.240091 
L 362.655835 55.284888 
L 363.741636 53.769627 
L 364.827437 54.264531 
L 366.999039 53.568 
L 368.08484 53.922375 
L 370.256443 55.223789 
L 371.342244 55.425416 
L 372.428045 56.604631 
L 373.513846 56.134167 
L 375.685448 57.136194 
L 376.77125 57.374481 
L 377.857051 56.702389 
L 378.942852 56.6474 
L 381.114454 56.977336 
L 382.200255 56.097507 
L 383.286057 56.775708 
L 384.371858 56.213596 
L 385.457659 56.977336 
L 386.54346 56.427443 
L 388.715062 57.722746 
L 389.800863 57.013995 
L 390.886665 57.533339 
L 391.972466 56.482432 
L 394.144068 57.032325 
L 395.229869 56.769599 
L 396.31567 56.714609 
L 397.401472 56.812368 
L 398.487273 57.221733 
L 398.487273 57.221733 
" clip-path="url(#p14ec13e93c)" style="fill: none; stroke: #1f77b4; stroke-width: 1.5; stroke-linecap: square"/>
   </g>
   <g id="line2d_21">
    <path d="M 73.832727 284.040326 
L 74.918528 245.150679 
L 76.00433 222.146827 
L 77.090131 204.550255 
L 78.175932 190.436338 
L 79.261733 184.906859 
L 80.347534 178.552542 
L 81.433335 164.866319 
L 82.519137 163.949831 
L 83.604938 157.351116 
L 84.690739 153.043622 
L 85.77654 149.988662 
L 86.862341 145.925564 
L 87.948142 142.717856 
L 90.119745 137.677171 
L 91.205546 134.316714 
L 92.291347 133.522425 
L 93.377148 133.155829 
L 94.462949 132.453189 
L 95.54875 162.239053 
L 96.634552 153.99066 
L 97.720353 153.135271 
L 98.806154 148.55283 
L 99.891955 148.827777 
L 100.977756 146.414358 
L 102.063557 143.023352 
L 103.149358 140.487735 
L 104.23516 140.762681 
L 105.320961 139.449048 
L 106.406762 143.451046 
L 107.492563 134.500012 
L 108.578364 136.24134 
L 109.664165 132.605937 
L 110.749967 134.408363 
L 111.835768 131.292304 
L 112.921569 129.825923 
L 115.093171 125.885024 
L 116.178972 123.86875 
L 117.264773 123.013361 
L 118.350575 124.174246 
L 119.436376 119.652904 
L 120.522177 119.561256 
L 121.607978 121.974674 
L 122.693779 116.200799 
L 123.77958 116.811791 
L 124.865382 115.742555 
L 125.951183 114.276174 
L 127.036984 114.61222 
L 128.122785 112.962541 
L 129.208586 112.2599 
L 130.294387 112.504297 
L 131.380189 111.52671 
L 132.46599 111.343412 
L 133.551791 110.885168 
L 134.637592 110.854618 
L 136.809194 109.540985 
L 137.894995 110.121428 
L 138.980797 131.750548 
L 140.066598 132.269891 
L 141.152399 133.003081 
L 142.2382 128.634488 
L 143.324001 130.711861 
L 144.409802 127.931847 
L 145.495604 129.520427 
L 146.581405 131.5367 
L 147.667206 126.496016 
L 148.753007 130.650762 
L 149.838808 126.312718 
L 150.924609 131.842196 
L 152.01041 128.328992 
L 153.096212 126.19052 
L 154.182013 124.937986 
L 156.353615 126.12942 
L 157.439416 124.052047 
L 158.525217 127.015359 
L 159.611019 122.921712 
L 160.69682 121.913575 
L 161.782621 121.791377 
L 162.868422 125.151833 
L 163.954223 123.257758 
L 165.040024 119.652904 
L 166.125825 119.714004 
L 167.211627 117.758829 
L 168.297428 120.78324 
L 169.383229 118.186523 
L 170.46903 117.881027 
L 171.554831 118.705867 
L 172.640632 115.803654 
L 173.726434 116.93399 
L 174.812235 119.866752 
L 175.898036 114.215075 
L 176.983837 115.070464 
L 178.069638 113.268037 
L 179.155439 116.445196 
L 180.24124 113.329136 
L 181.327042 113.268037 
L 182.412843 114.490021 
L 183.498644 112.2599 
L 184.584445 109.388237 
L 185.670246 112.626495 
L 186.756047 110.243626 
L 187.841849 106.669322 
L 188.92765 109.632634 
L 190.013451 107.64691 
L 191.099252 108.746696 
L 192.185053 106.608223 
L 193.270854 108.166253 
L 194.356656 107.188666 
L 195.442457 103.950408 
L 196.528258 105.111293 
L 197.614059 104.286453 
L 198.69986 102.484027 
L 199.785661 103.308866 
L 200.871462 102.789523 
L 201.957264 102.850622 
L 203.043065 101.170394 
L 204.128866 100.773249 
L 205.214667 101.659187 
L 206.300468 100.223356 
L 207.386269 100.620501 
L 208.472071 100.559402 
L 209.557872 98.512578 
L 210.643673 98.879173 
L 211.729474 98.604227 
L 212.815275 98.634776 
L 213.901076 99.551265 
L 214.986877 98.604227 
L 216.072679 98.145983 
L 217.15848 98.818074 
L 219.330082 98.023784 
L 220.415883 98.054334 
L 221.501684 97.290594 
L 222.587486 97.962685 
L 223.673287 97.809937 
L 224.759088 97.321143 
L 225.844889 118.033775 
L 226.93069 124.143696 
L 228.016491 122.524567 
L 229.102292 127.68745 
L 230.188094 121.821926 
L 231.273895 125.823924 
L 232.359696 121.455331 
L 233.445497 123.899299 
L 234.531298 117.728279 
L 235.617099 120.905438 
L 236.702901 122.096873 
L 237.788702 122.830063 
L 238.874503 125.243482 
L 239.960304 119.286309 
L 242.131906 119.439057 
L 243.217708 118.033775 
L 244.303509 121.302583 
L 245.38931 123.654903 
L 246.475111 116.842341 
L 247.560912 121.302583 
L 248.646713 117.881027 
L 249.732514 116.842341 
L 250.818316 119.561256 
L 251.904117 119.927851 
L 252.989918 115.31486 
L 254.075719 114.673319 
L 255.16152 119.622355 
L 256.247321 117.789378 
L 257.333123 119.286309 
L 258.418924 119.714004 
L 259.504725 120.72214 
L 260.590526 116.170249 
L 261.676327 118.43092 
L 262.762128 114.734418 
L 263.847929 123.563254 
L 264.933731 113.81793 
L 266.019532 116.170249 
L 267.105333 113.084739 
L 268.191134 120.233347 
L 269.276935 119.164111 
L 270.362736 114.734418 
L 271.448538 116.87289 
L 272.534339 115.895303 
L 273.62014 112.718144 
L 274.705941 112.748694 
L 275.791742 114.367823 
L 276.877543 114.245624 
L 277.963344 116.781242 
L 279.049146 116.506295 
L 280.134947 112.840343 
L 281.220748 112.931991 
L 282.306549 112.198801 
L 283.39235 116.292448 
L 284.478151 113.78738 
L 286.649754 110.243626 
L 287.735555 113.359686 
L 288.821356 113.176388 
L 289.907157 112.351549 
L 290.992958 109.449336 
L 292.07876 112.168251 
L 293.164561 112.779243 
L 294.250362 108.960543 
L 295.336163 110.029779 
L 296.421964 110.549122 
L 297.507765 109.571535 
L 298.593566 107.830207 
L 299.679368 108.807795 
L 300.765169 108.471749 
L 301.85097 110.182527 
L 302.936771 105.722285 
L 304.022572 109.754832 
L 305.108373 108.716146 
L 306.194175 109.20494 
L 307.279976 108.166253 
L 308.365777 107.860757 
L 309.451578 109.449336 
L 310.537379 113.848479 
L 311.62318 106.669322 
L 312.708981 105.905582 
L 313.794783 105.29459 
L 314.880584 106.241628 
L 315.966385 108.471749 
L 318.137987 102.086882 
L 319.223788 105.111293 
L 320.30959 103.492164 
L 321.395391 103.614362 
L 322.481192 105.997231 
L 323.566993 103.553263 
L 324.652794 105.752834 
L 325.738595 102.606225 
L 326.824396 102.697874 
L 327.910198 100.284455 
L 328.995999 100.71215 
L 330.0818 103.73656 
L 331.167601 101.41479 
L 332.253402 104.439201 
L 333.339203 103.00337 
L 334.425005 100.467753 
L 335.510806 102.606225 
L 336.596607 102.025783 
L 337.682408 99.337417 
L 338.768209 99.88731 
L 339.85401 100.71215 
L 340.939811 98.482028 
L 342.025613 98.634776 
L 343.111414 99.91786 
L 344.197215 99.062471 
L 345.283016 97.351693 
L 346.368817 97.351693 
L 347.454618 98.512578 
L 348.54042 97.993235 
L 349.626221 98.695876 
L 350.712022 96.923999 
L 351.797823 96.03806 
L 352.883624 96.465755 
L 353.969425 95.24377 
L 355.055227 94.632778 
L 356.141028 97.168395 
L 357.226829 94.571679 
L 358.31263 94.571679 
L 359.398431 94.021786 
L 360.484232 93.71629 
L 361.570033 93.71629 
L 362.655835 94.449481 
L 363.741636 94.052336 
L 364.827437 93.930137 
L 365.913238 95.182671 
L 366.999039 95.152122 
L 369.170642 93.196947 
L 370.256443 95.854762 
L 371.342244 94.877175 
L 372.428045 96.435205 
L 373.513846 97.62664 
L 374.599647 97.871036 
L 375.685448 97.871036 
L 376.77125 98.298731 
L 377.857051 98.879173 
L 378.942852 97.351693 
L 380.028653 98.084884 
L 381.114454 96.679602 
L 382.200255 101.109294 
L 383.286057 97.290594 
L 384.371858 97.779388 
L 385.457659 96.985098 
L 386.54346 96.435205 
L 387.629261 98.451479 
L 388.715062 96.985098 
L 389.800863 97.687739 
L 391.972466 96.435205 
L 393.058267 97.62664 
L 394.144068 97.168395 
L 395.229869 97.046197 
L 396.31567 97.962685 
L 397.401472 95.824213 
L 398.487273 97.687739 
L 398.487273 97.687739 
" clip-path="url(#p14ec13e93c)" style="fill: none; stroke: #ff7f0e; stroke-width: 1.5; stroke-linecap: square"/>
   </g>
   <g id="line2d_22">
    <path d="M 73.832727 295.488 
L 74.918528 256.848018 
L 76.00433 243.469398 
L 77.090131 236.727416 
L 78.175932 223.032766 
L 79.261733 212.077046 
L 80.347534 212.709106 
L 81.433335 195.72774 
L 82.519137 198.508807 
L 83.604938 202.638271 
L 84.690739 194.337206 
L 85.77654 195.72774 
L 86.862341 187.637362 
L 87.948142 186.562859 
L 89.033943 186.752477 
L 90.119745 179.947289 
L 91.205546 176.38668 
L 92.291347 174.848666 
L 93.377148 174.869734 
L 94.462949 176.38668 
L 95.54875 201.416287 
L 96.634552 196.570488 
L 97.720353 185.193394 
L 98.806154 203.565294 
L 99.891955 197.076136 
L 100.977756 184.814157 
L 102.063557 185.425149 
L 103.149358 181.611716 
L 104.23516 187.700568 
L 105.320961 188.669728 
L 106.406762 184.729882 
L 107.492563 178.030038 
L 108.578364 184.498127 
L 109.664165 186.078279 
L 110.749967 183.655379 
L 111.835768 187.532019 
L 112.921569 181.590647 
L 114.00737 178.535687 
L 115.093171 177.692939 
L 116.178972 175.038284 
L 117.264773 179.462709 
L 118.350575 179.441641 
L 119.436376 169.054775 
L 120.522177 173.732025 
L 121.607978 177.229428 
L 122.693779 169.834317 
L 123.77958 165.388822 
L 124.865382 168.338439 
L 125.951183 168.780882 
L 127.036984 169.665767 
L 128.122785 166.905768 
L 129.208586 168.275233 
L 130.294387 167.242867 
L 131.380189 169.897523 
L 132.46599 167.285005 
L 133.551791 167.137524 
L 134.637592 165.030655 
L 135.723393 165.74699 
L 136.809194 165.093861 
L 137.894995 164.862105 
L 138.980797 184.687745 
L 140.066598 185.930798 
L 141.152399 184.687745 
L 142.2382 177.629733 
L 143.324001 176.681642 
L 144.409802 172.046529 
L 145.495604 180.326526 
L 146.581405 184.434921 
L 147.667206 181.106067 
L 148.753007 181.443166 
L 149.838808 178.598893 
L 150.924609 186.85782 
L 152.01041 185.530493 
L 153.096212 177.229428 
L 154.182013 173.626681 
L 155.267814 182.896906 
L 156.353615 183.613242 
L 157.439416 167.622104 
L 158.525217 181.401029 
L 159.611019 174.237673 
L 160.69682 169.560424 
L 161.782621 174.005918 
L 162.868422 182.917975 
L 163.954223 177.145153 
L 165.040024 174.595841 
L 166.125825 161.154015 
L 167.211627 165.030655 
L 168.297428 173.289582 
L 169.383229 171.583018 
L 170.46903 174.195536 
L 171.554831 168.296302 
L 172.640632 166.421188 
L 173.726434 169.918591 
L 174.812235 178.114313 
L 175.898036 163.49264 
L 176.983837 167.832791 
L 178.069638 169.750042 
L 179.155439 174.258742 
L 180.24124 166.505463 
L 181.327042 163.871877 
L 182.412843 172.236148 
L 183.498644 165.051723 
L 184.584445 164.525006 
L 185.670246 165.599509 
L 186.756047 164.609281 
L 187.841849 162.418137 
L 188.92765 161.701801 
L 190.013451 167.20073 
L 191.099252 161.807145 
L 192.185053 160.163787 
L 193.270854 165.873402 
L 194.356656 165.093861 
L 195.442457 162.102106 
L 196.528258 163.387297 
L 197.614059 157.488063 
L 198.69986 158.857528 
L 199.785661 164.819968 
L 200.871462 157.319513 
L 201.957264 155.570812 
L 203.043065 158.162261 
L 204.128866 161.933557 
L 205.214667 160.816916 
L 206.300468 151.08318 
L 207.386269 156.940277 
L 208.472071 157.129895 
L 209.557872 151.420279 
L 210.643673 151.841653 
L 211.729474 154.053866 
L 212.815275 154.117072 
L 213.901076 151.946997 
L 214.986877 154.79127 
L 216.072679 153.948522 
L 217.15848 154.47524 
L 218.244281 152.22089 
L 219.330082 152.810813 
L 220.415883 152.85295 
L 221.501684 152.031271 
L 222.587486 154.496308 
L 223.673287 152.874019 
L 224.759088 152.22089 
L 225.844889 173.373857 
L 226.93069 180.431869 
L 228.016491 178.535687 
L 229.102292 180.115839 
L 230.188094 175.9021 
L 231.273895 173.247445 
L 232.359696 163.408365 
L 233.445497 182.8337 
L 234.531298 172.025461 
L 235.617099 181.822403 
L 236.702901 172.004392 
L 237.788702 175.143627 
L 238.874503 185.425149 
L 239.960304 172.215079 
L 241.046105 166.821494 
L 242.131906 168.296302 
L 243.217708 170.824545 
L 244.303509 174.890803 
L 245.38931 180.26332 
L 246.475111 177.461183 
L 247.560912 174.237673 
L 248.646713 173.247445 
L 249.732514 168.401646 
L 250.818316 170.087141 
L 251.904117 177.397977 
L 252.989918 167.980272 
L 254.075719 171.941186 
L 255.16152 174.44836 
L 256.247321 175.122559 
L 257.333123 178.219656 
L 258.418924 171.477675 
L 259.504725 172.994621 
L 260.590526 173.205307 
L 261.676327 175.122559 
L 262.762128 169.181187 
L 263.847929 175.944238 
L 264.933731 166.484394 
L 266.019532 170.002866 
L 267.105333 169.054775 
L 268.191134 174.111261 
L 269.276935 174.61691 
L 270.362736 167.263936 
L 271.448538 161.090809 
L 272.534339 170.192484 
L 273.62014 163.408365 
L 274.705941 164.356457 
L 275.791742 163.703327 
L 276.877543 159.194627 
L 277.963344 167.306074 
L 279.049146 173.33172 
L 280.134947 157.972643 
L 281.220748 160.058443 
L 282.306549 159.005009 
L 283.39235 172.84714 
L 284.478151 173.057827 
L 285.563953 164.29325 
L 286.649754 160.795847 
L 287.735555 167.221799 
L 288.821356 163.281953 
L 289.907157 167.68531 
L 290.992958 163.745464 
L 292.07876 163.303022 
L 293.164561 165.093861 
L 294.250362 155.254781 
L 295.336163 164.377525 
L 296.421964 170.866683 
L 298.593566 160.016306 
L 299.679368 159.932031 
L 300.765169 156.034323 
L 301.85097 167.116455 
L 302.936771 157.403788 
L 304.022572 165.26241 
L 305.108373 161.364702 
L 306.194175 165.051723 
L 307.279976 168.00134 
L 308.365777 163.914014 
L 309.451578 161.343633 
L 310.537379 168.401646 
L 311.62318 163.956151 
L 312.708981 155.001957 
L 314.880584 159.131421 
L 315.966385 162.713098 
L 317.052186 153.358599 
L 318.137987 155.27585 
L 319.223788 162.502412 
L 320.30959 165.831265 
L 321.395391 163.935083 
L 322.481192 157.930505 
L 323.566993 159.363176 
L 324.652794 159.910962 
L 325.738595 152.747607 
L 326.824396 156.961345 
L 327.910198 150.029745 
L 328.995999 162.123175 
L 330.0818 168.212027 
L 331.167601 159.78455 
L 332.253402 162.481343 
L 333.339203 165.536303 
L 334.425005 156.097529 
L 336.596607 161.196153 
L 337.682408 157.509131 
L 339.85401 154.201347 
L 340.939811 154.896614 
L 342.025613 149.039517 
L 343.111414 152.284096 
L 344.197215 155.992186 
L 345.283016 150.661806 
L 346.368817 148.955242 
L 347.454618 152.600126 
L 348.54042 150.640738 
L 350.712022 156.034323 
L 351.797823 151.799516 
L 352.883624 149.545166 
L 353.969425 151.968065 
L 355.055227 156.645315 
L 356.141028 158.520429 
L 357.226829 151.483485 
L 358.31263 153.000431 
L 359.398431 151.673104 
L 360.484232 151.336004 
L 361.570033 149.418753 
L 362.655835 152.768676 
L 363.741636 151.673104 
L 364.827437 152.684401 
L 365.913238 150.535394 
L 366.999039 151.08318 
L 368.08484 149.460891 
L 369.170642 150.303638 
L 370.256443 153.105775 
L 371.342244 149.545166 
L 372.428045 161.006534 
L 373.513846 158.899665 
L 374.599647 162.059969 
L 375.685448 156.582109 
L 376.77125 155.886842 
L 377.857051 159.342108 
L 378.942852 152.768676 
L 380.028653 149.460891 
L 381.114454 151.778447 
L 382.200255 156.160735 
L 383.286057 150.998905 
L 384.371858 157.867299 
L 385.457659 155.402262 
L 386.54346 152.621195 
L 387.629261 155.086232 
L 388.715062 152.157683 
L 389.800863 149.587303 
L 390.886665 154.749133 
L 391.972466 149.861196 
L 393.058267 152.557989 
L 394.144068 158.857528 
L 395.229869 149.439822 
L 396.31567 150.071883 
L 397.401472 149.186998 
L 398.487273 155.023026 
L 398.487273 155.023026 
" clip-path="url(#p14ec13e93c)" style="fill: none; stroke: #2ca02c; stroke-width: 1.5; stroke-linecap: square"/>
   </g>
   <g id="line2d_23">
    <path d="M 368.08484 94.296733 
L 369.170642 94.571679 
L 370.256443 95.946411 
M 372.428045 94.816076 
L 373.513846 97.382243 
L 374.599647 94.143985 
L 375.685448 95.396518 
L 376.77125 94.51058 
L 377.857051 95.976961 
L 378.942852 93.594092 
L 380.028653 94.174534 
L 381.114454 93.471893 
L 382.200255 94.449481 
L 383.286057 95.702014 
L 384.371858 95.946411 
L 385.457659 94.266183 
L 386.54346 95.457618 
L 387.629261 95.27432 
L 388.715062 95.488167 
L 389.800863 94.235633 
L 390.886665 93.410794 
L 391.972466 92.15826 
L 393.058267 92.341558 
L 394.144068 95.060473 
L 395.229869 93.899588 
L 396.31567 95.488167 
L 397.401472 92.830352 
L 398.487273 94.877175 
L 398.487273 94.877175 
" clip-path="url(#p14ec13e93c)" style="fill: none; stroke: #d62728; stroke-width: 1.5; stroke-linecap: square"/>
   </g>
   <g id="line2d_24">
    <path d="M 368.08484 146.721961 
L 369.170642 149.734784 
L 370.256443 150.977837 
L 371.342244 153.33753 
L 372.428045 153.105775 
L 373.513846 157.256307 
L 374.599647 154.559514 
L 375.685448 158.646841 
L 376.77125 154.538446 
L 377.857051 152.073409 
L 378.942852 147.901808 
L 380.028653 156.118598 
L 381.114454 146.743029 
L 382.200255 146.511274 
L 383.286057 154.011728 
L 384.371858 159.152489 
L 385.457659 148.849899 
L 386.54346 151.188524 
L 387.629261 147.143335 
L 388.715062 148.576006 
L 389.800863 150.851424 
L 390.886665 151.357073 
L 391.972466 148.323181 
L 393.058267 143.077077 
L 394.144068 148.34425 
L 395.229869 146.047763 
L 396.31567 154.222415 
L 397.401472 144.594023 
L 398.487273 145.499977 
L 398.487273 145.499977 
" clip-path="url(#p14ec13e93c)" style="fill: none; stroke: #9467bd; stroke-width: 1.5; stroke-linecap: square"/>
   </g>
   <g id="patch_3">
    <path d="M 57.6 307.584 
L 57.6 41.472 
" style="fill: none; stroke: #000000; stroke-width: 0.8; stroke-linejoin: miter; stroke-linecap: square"/>
   </g>
   <g id="patch_4">
    <path d="M 414.72 307.584 
L 414.72 41.472 
" style="fill: none; stroke: #000000; stroke-width: 0.8; stroke-linejoin: miter; stroke-linecap: square"/>
   </g>
   <g id="patch_5">
    <path d="M 57.6 307.584 
L 414.72 307.584 
" style="fill: none; stroke: #000000; stroke-width: 0.8; stroke-linejoin: miter; stroke-linecap: square"/>
   </g>
   <g id="patch_6">
    <path d="M 57.6 41.472 
L 414.72 41.472 
" style="fill: none; stroke: #000000; stroke-width: 0.8; stroke-linejoin: miter; stroke-linecap: square"/>
   </g>
   <g id="text_22">
    <!-- Learning Curves -->
    <g transform="translate(187.37625 35.472) scale(0.12 -0.12)">
     <defs>
      <path id="DejaVuSans-4c" d="M 628 4666 
L 1259 4666 
L 1259 531 
L 3531 531 
L 3531 0 
L 628 0 
L 628 4666 
z
" transform="scale(0.015625)"/>
      <path id="DejaVuSans-65" d="M 3597 1894 
L 3597 1613 
L 953 1613 
Q 991 1019 1311 708 
Q 1631 397 2203 397 
Q 2534 397 2845 478 
Q 3156 559 3463 722 
L 3463 178 
Q 3153 47 2828 -22 
Q 2503 -91 2169 -91 
Q 1331 -91 842 396 
Q 353 884 353 1716 
Q 353 2575 817 3079 
Q 1281 3584 2069 3584 
Q 2775 3584 3186 3129 
Q 3597 2675 3597 1894 
z
M 3022 2063 
Q 3016 2534 2758 2815 
Q 2500 3097 2075 3097 
Q 1594 3097 1305 2825 
Q 1016 2553 972 2059 
L 3022 2063 
z
" transform="scale(0.015625)"/>
      <path id="DejaVuSans-6e" d="M 3513 2113 
L 3513 0 
L 2938 0 
L 2938 2094 
Q 2938 2591 2744 2837 
Q 2550 3084 2163 3084 
Q 1697 3084 1428 2787 
Q 1159 2491 1159 1978 
L 1159 0 
L 581 0 
L 581 3500 
L 1159 3500 
L 1159 2956 
Q 1366 3272 1645 3428 
Q 1925 3584 2291 3584 
Q 2894 3584 3203 3211 
Q 3513 2838 3513 2113 
z
" transform="scale(0.015625)"/>
      <path id="DejaVuSans-69" d="M 603 3500 
L 1178 3500 
L 1178 0 
L 603 0 
L 603 3500 
z
M 603 4863 
L 1178 4863 
L 1178 4134 
L 603 4134 
L 603 4863 
z
" transform="scale(0.015625)"/>
      <path id="DejaVuSans-67" d="M 2906 1791 
Q 2906 2416 2648 2759 
Q 2391 3103 1925 3103 
Q 1463 3103 1205 2759 
Q 947 2416 947 1791 
Q 947 1169 1205 825 
Q 1463 481 1925 481 
Q 2391 481 2648 825 
Q 2906 1169 2906 1791 
z
M 3481 434 
Q 3481 -459 3084 -895 
Q 2688 -1331 1869 -1331 
Q 1566 -1331 1297 -1286 
Q 1028 -1241 775 -1147 
L 775 -588 
Q 1028 -725 1275 -790 
Q 1522 -856 1778 -856 
Q 2344 -856 2625 -561 
Q 2906 -266 2906 331 
L 2906 616 
Q 2728 306 2450 153 
Q 2172 0 1784 0 
Q 1141 0 747 490 
Q 353 981 353 1791 
Q 353 2603 747 3093 
Q 1141 3584 1784 3584 
Q 2172 3584 2450 3431 
Q 2728 3278 2906 2969 
L 2906 3500 
L 3481 3500 
L 3481 434 
z
" transform="scale(0.015625)"/>
      <path id="DejaVuSans-20" transform="scale(0.015625)"/>
      <path id="DejaVuSans-43" d="M 4122 4306 
L 4122 3641 
Q 3803 3938 3442 4084 
Q 3081 4231 2675 4231 
Q 1875 4231 1450 3742 
Q 1025 3253 1025 2328 
Q 1025 1406 1450 917 
Q 1875 428 2675 428 
Q 3081 428 3442 575 
Q 3803 722 4122 1019 
L 4122 359 
Q 3791 134 3420 21 
Q 3050 -91 2638 -91 
Q 1578 -91 968 557 
Q 359 1206 359 2328 
Q 359 3453 968 4101 
Q 1578 4750 2638 4750 
Q 3056 4750 3426 4639 
Q 3797 4528 4122 4306 
z
" transform="scale(0.015625)"/>
      <path id="DejaVuSans-76" d="M 191 3500 
L 800 3500 
L 1894 563 
L 2988 3500 
L 3597 3500 
L 2284 0 
L 1503 0 
L 191 3500 
z
" transform="scale(0.015625)"/>
     </defs>
     <use xlink:href="#DejaVuSans-4c"/>
     <use xlink:href="#DejaVuSans-65" x="53.962891"/>
     <use xlink:href="#DejaVuSans-61" x="115.486328"/>
     <use xlink:href="#DejaVuSans-72" x="176.765625"/>
     <use xlink:href="#DejaVuSans-6e" x="216.128906"/>
     <use xlink:href="#DejaVuSans-69" x="279.507812"/>
     <use xlink:href="#DejaVuSans-6e" x="307.291016"/>
     <use xlink:href="#DejaVuSans-67" x="370.669922"/>
     <use xlink:href="#DejaVuSans-20" x="434.146484"/>
     <use xlink:href="#DejaVuSans-43" x="465.933594"/>
     <use xlink:href="#DejaVuSans-75" x="535.757812"/>
     <use xlink:href="#DejaVuSans-72" x="599.136719"/>
     <use xlink:href="#DejaVuSans-76" x="640.25"/>
     <use xlink:href="#DejaVuSans-65" x="699.429688"/>
     <use xlink:href="#DejaVuSans-73" x="760.953125"/>
    </g>
   </g>
   <g id="legend_1">
    <g id="patch_7">
     <path d="M 214.18875 302.584 
L 407.72 302.584 
Q 409.72 302.584 409.72 300.584 
L 409.72 228.193375 
Q 409.72 226.193375 407.72 226.193375 
L 214.18875 226.193375 
Q 212.18875 226.193375 212.18875 228.193375 
L 212.18875 300.584 
Q 212.18875 302.584 214.18875 302.584 
z
" style="fill: #ffffff; opacity: 0.8; stroke: #cccccc; stroke-linejoin: miter"/>
    </g>
    <g id="line2d_25">
     <path d="M 216.18875 234.291812 
L 226.18875 234.291812 
L 236.18875 234.291812 
" style="fill: none; stroke: #1f77b4; stroke-width: 1.5; stroke-linecap: square"/>
    </g>
    <g id="text_23">
     <!-- Train Accuracy -->
     <g transform="translate(244.18875 237.791812) scale(0.1 -0.1)">
      <defs>
       <path id="DejaVuSans-54" d="M -19 4666 
L 3928 4666 
L 3928 4134 
L 2272 4134 
L 2272 0 
L 1638 0 
L 1638 4134 
L -19 4134 
L -19 4666 
z
" transform="scale(0.015625)"/>
      </defs>
      <use xlink:href="#DejaVuSans-54"/>
      <use xlink:href="#DejaVuSans-72" x="46.333984"/>
      <use xlink:href="#DejaVuSans-61" x="87.447266"/>
      <use xlink:href="#DejaVuSans-69" x="148.726562"/>
      <use xlink:href="#DejaVuSans-6e" x="176.509766"/>
      <use xlink:href="#DejaVuSans-20" x="239.888672"/>
      <use xlink:href="#DejaVuSans-41" x="271.675781"/>
      <use xlink:href="#DejaVuSans-63" x="338.333984"/>
      <use xlink:href="#DejaVuSans-63" x="393.314453"/>
      <use xlink:href="#DejaVuSans-75" x="448.294922"/>
      <use xlink:href="#DejaVuSans-72" x="511.673828"/>
      <use xlink:href="#DejaVuSans-61" x="552.787109"/>
      <use xlink:href="#DejaVuSans-63" x="614.066406"/>
      <use xlink:href="#DejaVuSans-79" x="669.046875"/>
     </g>
    </g>
    <g id="line2d_26">
     <path d="M 216.18875 248.969937 
L 226.18875 248.969937 
L 236.18875 248.969937 
" style="fill: none; stroke: #ff7f0e; stroke-width: 1.5; stroke-linecap: square"/>
    </g>
    <g id="text_24">
     <!-- Validation Accuracy -->
     <g transform="translate(244.18875 252.469937) scale(0.1 -0.1)">
      <defs>
       <path id="DejaVuSans-56" d="M 1831 0 
L 50 4666 
L 709 4666 
L 2188 738 
L 3669 4666 
L 4325 4666 
L 2547 0 
L 1831 0 
z
" transform="scale(0.015625)"/>
       <path id="DejaVuSans-6c" d="M 603 4863 
L 1178 4863 
L 1178 0 
L 603 0 
L 603 4863 
z
" transform="scale(0.015625)"/>
       <path id="DejaVuSans-64" d="M 2906 2969 
L 2906 4863 
L 3481 4863 
L 3481 0 
L 2906 0 
L 2906 525 
Q 2725 213 2448 61 
Q 2172 -91 1784 -91 
Q 1150 -91 751 415 
Q 353 922 353 1747 
Q 353 2572 751 3078 
Q 1150 3584 1784 3584 
Q 2172 3584 2448 3432 
Q 2725 3281 2906 2969 
z
M 947 1747 
Q 947 1113 1208 752 
Q 1469 391 1925 391 
Q 2381 391 2643 752 
Q 2906 1113 2906 1747 
Q 2906 2381 2643 2742 
Q 2381 3103 1925 3103 
Q 1469 3103 1208 2742 
Q 947 2381 947 1747 
z
" transform="scale(0.015625)"/>
       <path id="DejaVuSans-74" d="M 1172 4494 
L 1172 3500 
L 2356 3500 
L 2356 3053 
L 1172 3053 
L 1172 1153 
Q 1172 725 1289 603 
Q 1406 481 1766 481 
L 2356 481 
L 2356 0 
L 1766 0 
Q 1100 0 847 248 
Q 594 497 594 1153 
L 594 3053 
L 172 3053 
L 172 3500 
L 594 3500 
L 594 4494 
L 1172 4494 
z
" transform="scale(0.015625)"/>
      </defs>
      <use xlink:href="#DejaVuSans-56"/>
      <use xlink:href="#DejaVuSans-61" x="60.658203"/>
      <use xlink:href="#DejaVuSans-6c" x="121.9375"/>
      <use xlink:href="#DejaVuSans-69" x="149.720703"/>
      <use xlink:href="#DejaVuSans-64" x="177.503906"/>
      <use xlink:href="#DejaVuSans-61" x="240.980469"/>
      <use xlink:href="#DejaVuSans-74" x="302.259766"/>
      <use xlink:href="#DejaVuSans-69" x="341.46875"/>
      <use xlink:href="#DejaVuSans-6f" x="369.251953"/>
      <use xlink:href="#DejaVuSans-6e" x="430.433594"/>
      <use xlink:href="#DejaVuSans-20" x="493.8125"/>
      <use xlink:href="#DejaVuSans-41" x="525.599609"/>
      <use xlink:href="#DejaVuSans-63" x="592.257812"/>
      <use xlink:href="#DejaVuSans-63" x="647.238281"/>
      <use xlink:href="#DejaVuSans-75" x="702.21875"/>
      <use xlink:href="#DejaVuSans-72" x="765.597656"/>
      <use xlink:href="#DejaVuSans-61" x="806.710938"/>
      <use xlink:href="#DejaVuSans-63" x="867.990234"/>
      <use xlink:href="#DejaVuSans-79" x="922.970703"/>
     </g>
    </g>
    <g id="line2d_27">
     <path d="M 216.18875 263.648062 
L 226.18875 263.648062 
L 236.18875 263.648062 
" style="fill: none; stroke: #2ca02c; stroke-width: 1.5; stroke-linecap: square"/>
    </g>
    <g id="text_25">
     <!-- Robust Validation Accuracy -->
     <g transform="translate(244.18875 267.148062) scale(0.1 -0.1)">
      <defs>
       <path id="DejaVuSans-52" d="M 2841 2188 
Q 3044 2119 3236 1894 
Q 3428 1669 3622 1275 
L 4263 0 
L 3584 0 
L 2988 1197 
Q 2756 1666 2539 1819 
Q 2322 1972 1947 1972 
L 1259 1972 
L 1259 0 
L 628 0 
L 628 4666 
L 2053 4666 
Q 2853 4666 3247 4331 
Q 3641 3997 3641 3322 
Q 3641 2881 3436 2590 
Q 3231 2300 2841 2188 
z
M 1259 4147 
L 1259 2491 
L 2053 2491 
Q 2509 2491 2742 2702 
Q 2975 2913 2975 3322 
Q 2975 3731 2742 3939 
Q 2509 4147 2053 4147 
L 1259 4147 
z
" transform="scale(0.015625)"/>
       <path id="DejaVuSans-62" d="M 3116 1747 
Q 3116 2381 2855 2742 
Q 2594 3103 2138 3103 
Q 1681 3103 1420 2742 
Q 1159 2381 1159 1747 
Q 1159 1113 1420 752 
Q 1681 391 2138 391 
Q 2594 391 2855 752 
Q 3116 1113 3116 1747 
z
M 1159 2969 
Q 1341 3281 1617 3432 
Q 1894 3584 2278 3584 
Q 2916 3584 3314 3078 
Q 3713 2572 3713 1747 
Q 3713 922 3314 415 
Q 2916 -91 2278 -91 
Q 1894 -91 1617 61 
Q 1341 213 1159 525 
L 1159 0 
L 581 0 
L 581 4863 
L 1159 4863 
L 1159 2969 
z
" transform="scale(0.015625)"/>
      </defs>
      <use xlink:href="#DejaVuSans-52"/>
      <use xlink:href="#DejaVuSans-6f" x="64.982422"/>
      <use xlink:href="#DejaVuSans-62" x="126.164062"/>
      <use xlink:href="#DejaVuSans-75" x="189.640625"/>
      <use xlink:href="#DejaVuSans-73" x="253.019531"/>
      <use xlink:href="#DejaVuSans-74" x="305.119141"/>
      <use xlink:href="#DejaVuSans-20" x="344.328125"/>
      <use xlink:href="#DejaVuSans-56" x="376.115234"/>
      <use xlink:href="#DejaVuSans-61" x="436.773438"/>
      <use xlink:href="#DejaVuSans-6c" x="498.052734"/>
      <use xlink:href="#DejaVuSans-69" x="525.835938"/>
      <use xlink:href="#DejaVuSans-64" x="553.619141"/>
      <use xlink:href="#DejaVuSans-61" x="617.095703"/>
      <use xlink:href="#DejaVuSans-74" x="678.375"/>
      <use xlink:href="#DejaVuSans-69" x="717.583984"/>
      <use xlink:href="#DejaVuSans-6f" x="745.367188"/>
      <use xlink:href="#DejaVuSans-6e" x="806.548828"/>
      <use xlink:href="#DejaVuSans-20" x="869.927734"/>
      <use xlink:href="#DejaVuSans-41" x="901.714844"/>
      <use xlink:href="#DejaVuSans-63" x="968.373047"/>
      <use xlink:href="#DejaVuSans-63" x="1023.353516"/>
      <use xlink:href="#DejaVuSans-75" x="1078.333984"/>
      <use xlink:href="#DejaVuSans-72" x="1141.712891"/>
      <use xlink:href="#DejaVuSans-61" x="1182.826172"/>
      <use xlink:href="#DejaVuSans-63" x="1244.105469"/>
      <use xlink:href="#DejaVuSans-79" x="1299.085938"/>
     </g>
    </g>
    <g id="line2d_28">
     <path d="M 216.18875 278.326188 
L 226.18875 278.326188 
L 236.18875 278.326188 
" style="fill: none; stroke: #d62728; stroke-width: 1.5; stroke-linecap: square"/>
    </g>
    <g id="text_26">
     <!-- SWA Validation Accuracy -->
     <g transform="translate(244.18875 281.826188) scale(0.1 -0.1)">
      <defs>
       <path id="DejaVuSans-53" d="M 3425 4513 
L 3425 3897 
Q 3066 4069 2747 4153 
Q 2428 4238 2131 4238 
Q 1616 4238 1336 4038 
Q 1056 3838 1056 3469 
Q 1056 3159 1242 3001 
Q 1428 2844 1947 2747 
L 2328 2669 
Q 3034 2534 3370 2195 
Q 3706 1856 3706 1288 
Q 3706 609 3251 259 
Q 2797 -91 1919 -91 
Q 1588 -91 1214 -16 
Q 841 59 441 206 
L 441 856 
Q 825 641 1194 531 
Q 1563 422 1919 422 
Q 2459 422 2753 634 
Q 3047 847 3047 1241 
Q 3047 1584 2836 1778 
Q 2625 1972 2144 2069 
L 1759 2144 
Q 1053 2284 737 2584 
Q 422 2884 422 3419 
Q 422 4038 858 4394 
Q 1294 4750 2059 4750 
Q 2388 4750 2728 4690 
Q 3069 4631 3425 4513 
z
" transform="scale(0.015625)"/>
       <path id="DejaVuSans-57" d="M 213 4666 
L 850 4666 
L 1831 722 
L 2809 4666 
L 3519 4666 
L 4500 722 
L 5478 4666 
L 6119 4666 
L 4947 0 
L 4153 0 
L 3169 4050 
L 2175 0 
L 1381 0 
L 213 4666 
z
" transform="scale(0.015625)"/>
      </defs>
      <use xlink:href="#DejaVuSans-53"/>
      <use xlink:href="#DejaVuSans-57" x="63.476562"/>
      <use xlink:href="#DejaVuSans-41" x="156.853516"/>
      <use xlink:href="#DejaVuSans-20" x="225.261719"/>
      <use xlink:href="#DejaVuSans-56" x="257.048828"/>
      <use xlink:href="#DejaVuSans-61" x="317.707031"/>
      <use xlink:href="#DejaVuSans-6c" x="378.986328"/>
      <use xlink:href="#DejaVuSans-69" x="406.769531"/>
      <use xlink:href="#DejaVuSans-64" x="434.552734"/>
      <use xlink:href="#DejaVuSans-61" x="498.029297"/>
      <use xlink:href="#DejaVuSans-74" x="559.308594"/>
      <use xlink:href="#DejaVuSans-69" x="598.517578"/>
      <use xlink:href="#DejaVuSans-6f" x="626.300781"/>
      <use xlink:href="#DejaVuSans-6e" x="687.482422"/>
      <use xlink:href="#DejaVuSans-20" x="750.861328"/>
      <use xlink:href="#DejaVuSans-41" x="782.648438"/>
      <use xlink:href="#DejaVuSans-63" x="849.306641"/>
      <use xlink:href="#DejaVuSans-63" x="904.287109"/>
      <use xlink:href="#DejaVuSans-75" x="959.267578"/>
      <use xlink:href="#DejaVuSans-72" x="1022.646484"/>
      <use xlink:href="#DejaVuSans-61" x="1063.759766"/>
      <use xlink:href="#DejaVuSans-63" x="1125.039062"/>
      <use xlink:href="#DejaVuSans-79" x="1180.019531"/>
     </g>
    </g>
    <g id="line2d_29">
     <path d="M 216.18875 293.004312 
L 226.18875 293.004312 
L 236.18875 293.004312 
" style="fill: none; stroke: #9467bd; stroke-width: 1.5; stroke-linecap: square"/>
    </g>
    <g id="text_27">
     <!-- SWA Robust Validation Accuracy -->
     <g transform="translate(244.18875 296.504312) scale(0.1 -0.1)">
      <use xlink:href="#DejaVuSans-53"/>
      <use xlink:href="#DejaVuSans-57" x="63.476562"/>
      <use xlink:href="#DejaVuSans-41" x="156.853516"/>
      <use xlink:href="#DejaVuSans-20" x="225.261719"/>
      <use xlink:href="#DejaVuSans-52" x="257.048828"/>
      <use xlink:href="#DejaVuSans-6f" x="322.03125"/>
      <use xlink:href="#DejaVuSans-62" x="383.212891"/>
      <use xlink:href="#DejaVuSans-75" x="446.689453"/>
      <use xlink:href="#DejaVuSans-73" x="510.068359"/>
      <use xlink:href="#DejaVuSans-74" x="562.167969"/>
      <use xlink:href="#DejaVuSans-20" x="601.376953"/>
      <use xlink:href="#DejaVuSans-56" x="633.164062"/>
      <use xlink:href="#DejaVuSans-61" x="693.822266"/>
      <use xlink:href="#DejaVuSans-6c" x="755.101562"/>
      <use xlink:href="#DejaVuSans-69" x="782.884766"/>
      <use xlink:href="#DejaVuSans-64" x="810.667969"/>
      <use xlink:href="#DejaVuSans-61" x="874.144531"/>
      <use xlink:href="#DejaVuSans-74" x="935.423828"/>
      <use xlink:href="#DejaVuSans-69" x="974.632812"/>
      <use xlink:href="#DejaVuSans-6f" x="1002.416016"/>
      <use xlink:href="#DejaVuSans-6e" x="1063.597656"/>
      <use xlink:href="#DejaVuSans-20" x="1126.976562"/>
      <use xlink:href="#DejaVuSans-41" x="1158.763672"/>
      <use xlink:href="#DejaVuSans-63" x="1225.421875"/>
      <use xlink:href="#DejaVuSans-63" x="1280.402344"/>
      <use xlink:href="#DejaVuSans-75" x="1335.382812"/>
      <use xlink:href="#DejaVuSans-72" x="1398.761719"/>
      <use xlink:href="#DejaVuSans-61" x="1439.875"/>
      <use xlink:href="#DejaVuSans-63" x="1501.154297"/>
      <use xlink:href="#DejaVuSans-79" x="1556.134766"/>
     </g>
    </g>
   </g>
  </g>
 </g>
 <defs>
  <clipPath id="p14ec13e93c">
   <rect x="57.6" y="41.472" width="357.12" height="266.112"/>
  </clipPath>
 </defs>
</svg>
