<?xml version="1.0" encoding="utf-8" standalone="no"?>
<!DOCTYPE svg PUBLIC "-//W3C//DTD SVG 1.1//EN"
  "http://www.w3.org/Graphics/SVG/1.1/DTD/svg11.dtd">
<svg xmlns:xlink="http://www.w3.org/1999/xlink" width="460.8pt" height="345.6pt" viewBox="0 0 460.8 345.6" xmlns="http://www.w3.org/2000/svg" version="1.1">
 <metadata>
  <rdf:RDF xmlns:dc="http://purl.org/dc/elements/1.1/" xmlns:cc="http://creativecommons.org/ns#" xmlns:rdf="http://www.w3.org/1999/02/22-rdf-syntax-ns#">
   <cc:Work>
    <dc:type rdf:resource="http://purl.org/dc/dcmitype/StillImage"/>
    <dc:date>2025-03-08T13:37:25.080204</dc:date>
    <dc:format>image/svg+xml</dc:format>
    <dc:creator>
     <cc:Agent>
      <dc:title>Matplotlib v3.9.1, https://matplotlib.org/</dc:title>
     </cc:Agent>
    </dc:creator>
   </cc:Work>
  </rdf:RDF>
 </metadata>
 <defs>
  <style type="text/css">*{stroke-linejoin: round; stroke-linecap: butt}</style>
 </defs>
 <g id="figure_1">
  <g id="patch_1">
   <path d="M 0 345.6 
L 460.8 345.6 
L 460.8 0 
L 0 0 
z
" style="fill: #ffffff"/>
  </g>
  <g id="axes_1">
   <g id="patch_2">
    <path d="M 57.6 307.584 
L 414.72 307.584 
L 414.72 41.472 
L 57.6 41.472 
z
" style="fill: #ffffff"/>
   </g>
   <g id="matplotlib.axis_1">
    <g id="xtick_1">
     <g id="line2d_1">
      <defs>
       <path id="mc639c861bc" d="M 0 0 
L 0 3.5 
" style="stroke: #000000; stroke-width: 0.8"/>
      </defs>
      <g>
       <use xlink:href="#mc639c861bc" x="73.832727" y="307.584" style="stroke: #000000; stroke-width: 0.8"/>
      </g>
     </g>
     <g id="text_1">
      <!-- 1 -->
      <g transform="translate(70.651477 322.182437) scale(0.1 -0.1)">
       <defs>
        <path id="DejaVuSans-31" d="M 794 531 
L 1825 531 
L 1825 4091 
L 703 3866 
L 703 4441 
L 1819 4666 
L 2450 4666 
L 2450 531 
L 3481 531 
L 3481 0 
L 794 0 
L 794 531 
z
" transform="scale(0.015625)"/>
       </defs>
       <use xlink:href="#DejaVuSans-31"/>
      </g>
     </g>
    </g>
    <g id="xtick_2">
     <g id="line2d_2">
      <g>
       <use xlink:href="#mc639c861bc" x="109.664165" y="307.584" style="stroke: #000000; stroke-width: 0.8"/>
      </g>
     </g>
     <g id="text_2">
      <!-- 34 -->
      <g transform="translate(103.301665 322.182437) scale(0.1 -0.1)">
       <defs>
        <path id="DejaVuSans-33" d="M 2597 2516 
Q 3050 2419 3304 2112 
Q 3559 1806 3559 1356 
Q 3559 666 3084 287 
Q 2609 -91 1734 -91 
Q 1441 -91 1130 -33 
Q 819 25 488 141 
L 488 750 
Q 750 597 1062 519 
Q 1375 441 1716 441 
Q 2309 441 2620 675 
Q 2931 909 2931 1356 
Q 2931 1769 2642 2001 
Q 2353 2234 1838 2234 
L 1294 2234 
L 1294 2753 
L 1863 2753 
Q 2328 2753 2575 2939 
Q 2822 3125 2822 3475 
Q 2822 3834 2567 4026 
Q 2313 4219 1838 4219 
Q 1578 4219 1281 4162 
Q 984 4106 628 3988 
L 628 4550 
Q 988 4650 1302 4700 
Q 1616 4750 1894 4750 
Q 2613 4750 3031 4423 
Q 3450 4097 3450 3541 
Q 3450 3153 3228 2886 
Q 3006 2619 2597 2516 
z
" transform="scale(0.015625)"/>
        <path id="DejaVuSans-34" d="M 2419 4116 
L 825 1625 
L 2419 1625 
L 2419 4116 
z
M 2253 4666 
L 3047 4666 
L 3047 1625 
L 3713 1625 
L 3713 1100 
L 3047 1100 
L 3047 0 
L 2419 0 
L 2419 1100 
L 313 1100 
L 313 1709 
L 2253 4666 
z
" transform="scale(0.015625)"/>
       </defs>
       <use xlink:href="#DejaVuSans-33"/>
       <use xlink:href="#DejaVuSans-34" x="63.623047"/>
      </g>
     </g>
    </g>
    <g id="xtick_3">
     <g id="line2d_3">
      <g>
       <use xlink:href="#mc639c861bc" x="145.495604" y="307.584" style="stroke: #000000; stroke-width: 0.8"/>
      </g>
     </g>
     <g id="text_3">
      <!-- 67 -->
      <g transform="translate(139.133104 322.182437) scale(0.1 -0.1)">
       <defs>
        <path id="DejaVuSans-36" d="M 2113 2584 
Q 1688 2584 1439 2293 
Q 1191 2003 1191 1497 
Q 1191 994 1439 701 
Q 1688 409 2113 409 
Q 2538 409 2786 701 
Q 3034 994 3034 1497 
Q 3034 2003 2786 2293 
Q 2538 2584 2113 2584 
z
M 3366 4563 
L 3366 3988 
Q 3128 4100 2886 4159 
Q 2644 4219 2406 4219 
Q 1781 4219 1451 3797 
Q 1122 3375 1075 2522 
Q 1259 2794 1537 2939 
Q 1816 3084 2150 3084 
Q 2853 3084 3261 2657 
Q 3669 2231 3669 1497 
Q 3669 778 3244 343 
Q 2819 -91 2113 -91 
Q 1303 -91 875 529 
Q 447 1150 447 2328 
Q 447 3434 972 4092 
Q 1497 4750 2381 4750 
Q 2619 4750 2861 4703 
Q 3103 4656 3366 4563 
z
" transform="scale(0.015625)"/>
        <path id="DejaVuSans-37" d="M 525 4666 
L 3525 4666 
L 3525 4397 
L 1831 0 
L 1172 0 
L 2766 4134 
L 525 4134 
L 525 4666 
z
" transform="scale(0.015625)"/>
       </defs>
       <use xlink:href="#DejaVuSans-36"/>
       <use xlink:href="#DejaVuSans-37" x="63.623047"/>
      </g>
     </g>
    </g>
    <g id="xtick_4">
     <g id="line2d_4">
      <g>
       <use xlink:href="#mc639c861bc" x="181.327042" y="307.584" style="stroke: #000000; stroke-width: 0.8"/>
      </g>
     </g>
     <g id="text_4">
      <!-- 100 -->
      <g transform="translate(171.783292 322.182437) scale(0.1 -0.1)">
       <defs>
        <path id="DejaVuSans-30" d="M 2034 4250 
Q 1547 4250 1301 3770 
Q 1056 3291 1056 2328 
Q 1056 1369 1301 889 
Q 1547 409 2034 409 
Q 2525 409 2770 889 
Q 3016 1369 3016 2328 
Q 3016 3291 2770 3770 
Q 2525 4250 2034 4250 
z
M 2034 4750 
Q 2819 4750 3233 4129 
Q 3647 3509 3647 2328 
Q 3647 1150 3233 529 
Q 2819 -91 2034 -91 
Q 1250 -91 836 529 
Q 422 1150 422 2328 
Q 422 3509 836 4129 
Q 1250 4750 2034 4750 
z
" transform="scale(0.015625)"/>
       </defs>
       <use xlink:href="#DejaVuSans-31"/>
       <use xlink:href="#DejaVuSans-30" x="63.623047"/>
       <use xlink:href="#DejaVuSans-30" x="127.246094"/>
      </g>
     </g>
    </g>
    <g id="xtick_5">
     <g id="line2d_5">
      <g>
       <use xlink:href="#mc639c861bc" x="217.15848" y="307.584" style="stroke: #000000; stroke-width: 0.8"/>
      </g>
     </g>
     <g id="text_5">
      <!-- 133 -->
      <g transform="translate(207.61473 322.182437) scale(0.1 -0.1)">
       <use xlink:href="#DejaVuSans-31"/>
       <use xlink:href="#DejaVuSans-33" x="63.623047"/>
       <use xlink:href="#DejaVuSans-33" x="127.246094"/>
      </g>
     </g>
    </g>
    <g id="xtick_6">
     <g id="line2d_6">
      <g>
       <use xlink:href="#mc639c861bc" x="254.075719" y="307.584" style="stroke: #000000; stroke-width: 0.8"/>
      </g>
     </g>
     <g id="text_6">
      <!-- 167 -->
      <g transform="translate(244.531969 322.182437) scale(0.1 -0.1)">
       <use xlink:href="#DejaVuSans-31"/>
       <use xlink:href="#DejaVuSans-36" x="63.623047"/>
       <use xlink:href="#DejaVuSans-37" x="127.246094"/>
      </g>
     </g>
    </g>
    <g id="xtick_7">
     <g id="line2d_7">
      <g>
       <use xlink:href="#mc639c861bc" x="289.907157" y="307.584" style="stroke: #000000; stroke-width: 0.8"/>
      </g>
     </g>
     <g id="text_7">
      <!-- 200 -->
      <g transform="translate(280.363407 322.182437) scale(0.1 -0.1)">
       <defs>
        <path id="DejaVuSans-32" d="M 1228 531 
L 3431 531 
L 3431 0 
L 469 0 
L 469 531 
Q 828 903 1448 1529 
Q 2069 2156 2228 2338 
Q 2531 2678 2651 2914 
Q 2772 3150 2772 3378 
Q 2772 3750 2511 3984 
Q 2250 4219 1831 4219 
Q 1534 4219 1204 4116 
Q 875 4013 500 3803 
L 500 4441 
Q 881 4594 1212 4672 
Q 1544 4750 1819 4750 
Q 2544 4750 2975 4387 
Q 3406 4025 3406 3419 
Q 3406 3131 3298 2873 
Q 3191 2616 2906 2266 
Q 2828 2175 2409 1742 
Q 1991 1309 1228 531 
z
" transform="scale(0.015625)"/>
       </defs>
       <use xlink:href="#DejaVuSans-32"/>
       <use xlink:href="#DejaVuSans-30" x="63.623047"/>
       <use xlink:href="#DejaVuSans-30" x="127.246094"/>
      </g>
     </g>
    </g>
    <g id="xtick_8">
     <g id="line2d_8">
      <g>
       <use xlink:href="#mc639c861bc" x="325.738595" y="307.584" style="stroke: #000000; stroke-width: 0.8"/>
      </g>
     </g>
     <g id="text_8">
      <!-- 233 -->
      <g transform="translate(316.194845 322.182437) scale(0.1 -0.1)">
       <use xlink:href="#DejaVuSans-32"/>
       <use xlink:href="#DejaVuSans-33" x="63.623047"/>
       <use xlink:href="#DejaVuSans-33" x="127.246094"/>
      </g>
     </g>
    </g>
    <g id="xtick_9">
     <g id="line2d_9">
      <g>
       <use xlink:href="#mc639c861bc" x="361.570033" y="307.584" style="stroke: #000000; stroke-width: 0.8"/>
      </g>
     </g>
     <g id="text_9">
      <!-- 266 -->
      <g transform="translate(352.026283 322.182437) scale(0.1 -0.1)">
       <use xlink:href="#DejaVuSans-32"/>
       <use xlink:href="#DejaVuSans-36" x="63.623047"/>
       <use xlink:href="#DejaVuSans-36" x="127.246094"/>
      </g>
     </g>
    </g>
    <g id="xtick_10">
     <g id="line2d_10">
      <g>
       <use xlink:href="#mc639c861bc" x="398.487273" y="307.584" style="stroke: #000000; stroke-width: 0.8"/>
      </g>
     </g>
     <g id="text_10">
      <!-- 300 -->
      <g transform="translate(388.943523 322.182437) scale(0.1 -0.1)">
       <use xlink:href="#DejaVuSans-33"/>
       <use xlink:href="#DejaVuSans-30" x="63.623047"/>
       <use xlink:href="#DejaVuSans-30" x="127.246094"/>
      </g>
     </g>
    </g>
    <g id="text_11">
     <!-- Epochs -->
     <g transform="translate(218.244375 335.860562) scale(0.1 -0.1)">
      <defs>
       <path id="DejaVuSans-45" d="M 628 4666 
L 3578 4666 
L 3578 4134 
L 1259 4134 
L 1259 2753 
L 3481 2753 
L 3481 2222 
L 1259 2222 
L 1259 531 
L 3634 531 
L 3634 0 
L 628 0 
L 628 4666 
z
" transform="scale(0.015625)"/>
       <path id="DejaVuSans-70" d="M 1159 525 
L 1159 -1331 
L 581 -1331 
L 581 3500 
L 1159 3500 
L 1159 2969 
Q 1341 3281 1617 3432 
Q 1894 3584 2278 3584 
Q 2916 3584 3314 3078 
Q 3713 2572 3713 1747 
Q 3713 922 3314 415 
Q 2916 -91 2278 -91 
Q 1894 -91 1617 61 
Q 1341 213 1159 525 
z
M 3116 1747 
Q 3116 2381 2855 2742 
Q 2594 3103 2138 3103 
Q 1681 3103 1420 2742 
Q 1159 2381 1159 1747 
Q 1159 1113 1420 752 
Q 1681 391 2138 391 
Q 2594 391 2855 752 
Q 3116 1113 3116 1747 
z
" transform="scale(0.015625)"/>
       <path id="DejaVuSans-6f" d="M 1959 3097 
Q 1497 3097 1228 2736 
Q 959 2375 959 1747 
Q 959 1119 1226 758 
Q 1494 397 1959 397 
Q 2419 397 2687 759 
Q 2956 1122 2956 1747 
Q 2956 2369 2687 2733 
Q 2419 3097 1959 3097 
z
M 1959 3584 
Q 2709 3584 3137 3096 
Q 3566 2609 3566 1747 
Q 3566 888 3137 398 
Q 2709 -91 1959 -91 
Q 1206 -91 779 398 
Q 353 888 353 1747 
Q 353 2609 779 3096 
Q 1206 3584 1959 3584 
z
" transform="scale(0.015625)"/>
       <path id="DejaVuSans-63" d="M 3122 3366 
L 3122 2828 
Q 2878 2963 2633 3030 
Q 2388 3097 2138 3097 
Q 1578 3097 1268 2742 
Q 959 2388 959 1747 
Q 959 1106 1268 751 
Q 1578 397 2138 397 
Q 2388 397 2633 464 
Q 2878 531 3122 666 
L 3122 134 
Q 2881 22 2623 -34 
Q 2366 -91 2075 -91 
Q 1284 -91 818 406 
Q 353 903 353 1747 
Q 353 2603 823 3093 
Q 1294 3584 2113 3584 
Q 2378 3584 2631 3529 
Q 2884 3475 3122 3366 
z
" transform="scale(0.015625)"/>
       <path id="DejaVuSans-68" d="M 3513 2113 
L 3513 0 
L 2938 0 
L 2938 2094 
Q 2938 2591 2744 2837 
Q 2550 3084 2163 3084 
Q 1697 3084 1428 2787 
Q 1159 2491 1159 1978 
L 1159 0 
L 581 0 
L 581 4863 
L 1159 4863 
L 1159 2956 
Q 1366 3272 1645 3428 
Q 1925 3584 2291 3584 
Q 2894 3584 3203 3211 
Q 3513 2838 3513 2113 
z
" transform="scale(0.015625)"/>
       <path id="DejaVuSans-73" d="M 2834 3397 
L 2834 2853 
Q 2591 2978 2328 3040 
Q 2066 3103 1784 3103 
Q 1356 3103 1142 2972 
Q 928 2841 928 2578 
Q 928 2378 1081 2264 
Q 1234 2150 1697 2047 
L 1894 2003 
Q 2506 1872 2764 1633 
Q 3022 1394 3022 966 
Q 3022 478 2636 193 
Q 2250 -91 1575 -91 
Q 1294 -91 989 -36 
Q 684 19 347 128 
L 347 722 
Q 666 556 975 473 
Q 1284 391 1588 391 
Q 1994 391 2212 530 
Q 2431 669 2431 922 
Q 2431 1156 2273 1281 
Q 2116 1406 1581 1522 
L 1381 1569 
Q 847 1681 609 1914 
Q 372 2147 372 2553 
Q 372 3047 722 3315 
Q 1072 3584 1716 3584 
Q 2034 3584 2315 3537 
Q 2597 3491 2834 3397 
z
" transform="scale(0.015625)"/>
      </defs>
      <use xlink:href="#DejaVuSans-45"/>
      <use xlink:href="#DejaVuSans-70" x="63.183594"/>
      <use xlink:href="#DejaVuSans-6f" x="126.660156"/>
      <use xlink:href="#DejaVuSans-63" x="187.841797"/>
      <use xlink:href="#DejaVuSans-68" x="242.822266"/>
      <use xlink:href="#DejaVuSans-73" x="306.201172"/>
     </g>
    </g>
   </g>
   <g id="matplotlib.axis_2">
    <g id="ytick_1">
     <g id="line2d_11">
      <defs>
       <path id="mac8debdfb4" d="M 0 0 
L -3.5 0 
" style="stroke: #000000; stroke-width: 0.8"/>
      </defs>
      <g>
       <use xlink:href="#mac8debdfb4" x="57.6" y="291.041301" style="stroke: #000000; stroke-width: 0.8"/>
      </g>
     </g>
     <g id="text_12">
      <!-- 10 -->
      <g transform="translate(37.875 294.84052) scale(0.1 -0.1)">
       <use xlink:href="#DejaVuSans-31"/>
       <use xlink:href="#DejaVuSans-30" x="63.623047"/>
      </g>
     </g>
    </g>
    <g id="ytick_2">
     <g id="line2d_12">
      <g>
       <use xlink:href="#mac8debdfb4" x="57.6" y="260.458777" style="stroke: #000000; stroke-width: 0.8"/>
      </g>
     </g>
     <g id="text_13">
      <!-- 20 -->
      <g transform="translate(37.875 264.257995) scale(0.1 -0.1)">
       <use xlink:href="#DejaVuSans-32"/>
       <use xlink:href="#DejaVuSans-30" x="63.623047"/>
      </g>
     </g>
    </g>
    <g id="ytick_3">
     <g id="line2d_13">
      <g>
       <use xlink:href="#mac8debdfb4" x="57.6" y="229.876252" style="stroke: #000000; stroke-width: 0.8"/>
      </g>
     </g>
     <g id="text_14">
      <!-- 30 -->
      <g transform="translate(37.875 233.675471) scale(0.1 -0.1)">
       <use xlink:href="#DejaVuSans-33"/>
       <use xlink:href="#DejaVuSans-30" x="63.623047"/>
      </g>
     </g>
    </g>
    <g id="ytick_4">
     <g id="line2d_14">
      <g>
       <use xlink:href="#mac8debdfb4" x="57.6" y="199.293728" style="stroke: #000000; stroke-width: 0.8"/>
      </g>
     </g>
     <g id="text_15">
      <!-- 40 -->
      <g transform="translate(37.875 203.092947) scale(0.1 -0.1)">
       <use xlink:href="#DejaVuSans-34"/>
       <use xlink:href="#DejaVuSans-30" x="63.623047"/>
      </g>
     </g>
    </g>
    <g id="ytick_5">
     <g id="line2d_15">
      <g>
       <use xlink:href="#mac8debdfb4" x="57.6" y="168.711204" style="stroke: #000000; stroke-width: 0.8"/>
      </g>
     </g>
     <g id="text_16">
      <!-- 50 -->
      <g transform="translate(37.875 172.510423) scale(0.1 -0.1)">
       <defs>
        <path id="DejaVuSans-35" d="M 691 4666 
L 3169 4666 
L 3169 4134 
L 1269 4134 
L 1269 2991 
Q 1406 3038 1543 3061 
Q 1681 3084 1819 3084 
Q 2600 3084 3056 2656 
Q 3513 2228 3513 1497 
Q 3513 744 3044 326 
Q 2575 -91 1722 -91 
Q 1428 -91 1123 -41 
Q 819 9 494 109 
L 494 744 
Q 775 591 1075 516 
Q 1375 441 1709 441 
Q 2250 441 2565 725 
Q 2881 1009 2881 1497 
Q 2881 1984 2565 2268 
Q 2250 2553 1709 2553 
Q 1456 2553 1204 2497 
Q 953 2441 691 2322 
L 691 4666 
z
" transform="scale(0.015625)"/>
       </defs>
       <use xlink:href="#DejaVuSans-35"/>
       <use xlink:href="#DejaVuSans-30" x="63.623047"/>
      </g>
     </g>
    </g>
    <g id="ytick_6">
     <g id="line2d_16">
      <g>
       <use xlink:href="#mac8debdfb4" x="57.6" y="138.12868" style="stroke: #000000; stroke-width: 0.8"/>
      </g>
     </g>
     <g id="text_17">
      <!-- 60 -->
      <g transform="translate(37.875 141.927898) scale(0.1 -0.1)">
       <use xlink:href="#DejaVuSans-36"/>
       <use xlink:href="#DejaVuSans-30" x="63.623047"/>
      </g>
     </g>
    </g>
    <g id="ytick_7">
     <g id="line2d_17">
      <g>
       <use xlink:href="#mac8debdfb4" x="57.6" y="107.546155" style="stroke: #000000; stroke-width: 0.8"/>
      </g>
     </g>
     <g id="text_18">
      <!-- 70 -->
      <g transform="translate(37.875 111.345374) scale(0.1 -0.1)">
       <use xlink:href="#DejaVuSans-37"/>
       <use xlink:href="#DejaVuSans-30" x="63.623047"/>
      </g>
     </g>
    </g>
    <g id="ytick_8">
     <g id="line2d_18">
      <g>
       <use xlink:href="#mac8debdfb4" x="57.6" y="76.963631" style="stroke: #000000; stroke-width: 0.8"/>
      </g>
     </g>
     <g id="text_19">
      <!-- 80 -->
      <g transform="translate(37.875 80.76285) scale(0.1 -0.1)">
       <defs>
        <path id="DejaVuSans-38" d="M 2034 2216 
Q 1584 2216 1326 1975 
Q 1069 1734 1069 1313 
Q 1069 891 1326 650 
Q 1584 409 2034 409 
Q 2484 409 2743 651 
Q 3003 894 3003 1313 
Q 3003 1734 2745 1975 
Q 2488 2216 2034 2216 
z
M 1403 2484 
Q 997 2584 770 2862 
Q 544 3141 544 3541 
Q 544 4100 942 4425 
Q 1341 4750 2034 4750 
Q 2731 4750 3128 4425 
Q 3525 4100 3525 3541 
Q 3525 3141 3298 2862 
Q 3072 2584 2669 2484 
Q 3125 2378 3379 2068 
Q 3634 1759 3634 1313 
Q 3634 634 3220 271 
Q 2806 -91 2034 -91 
Q 1263 -91 848 271 
Q 434 634 434 1313 
Q 434 1759 690 2068 
Q 947 2378 1403 2484 
z
M 1172 3481 
Q 1172 3119 1398 2916 
Q 1625 2713 2034 2713 
Q 2441 2713 2670 2916 
Q 2900 3119 2900 3481 
Q 2900 3844 2670 4047 
Q 2441 4250 2034 4250 
Q 1625 4250 1398 4047 
Q 1172 3844 1172 3481 
z
" transform="scale(0.015625)"/>
       </defs>
       <use xlink:href="#DejaVuSans-38"/>
       <use xlink:href="#DejaVuSans-30" x="63.623047"/>
      </g>
     </g>
    </g>
    <g id="ytick_9">
     <g id="line2d_19">
      <g>
       <use xlink:href="#mac8debdfb4" x="57.6" y="46.381107" style="stroke: #000000; stroke-width: 0.8"/>
      </g>
     </g>
     <g id="text_20">
      <!-- 90 -->
      <g transform="translate(37.875 50.180326) scale(0.1 -0.1)">
       <defs>
        <path id="DejaVuSans-39" d="M 703 97 
L 703 672 
Q 941 559 1184 500 
Q 1428 441 1663 441 
Q 2288 441 2617 861 
Q 2947 1281 2994 2138 
Q 2813 1869 2534 1725 
Q 2256 1581 1919 1581 
Q 1219 1581 811 2004 
Q 403 2428 403 3163 
Q 403 3881 828 4315 
Q 1253 4750 1959 4750 
Q 2769 4750 3195 4129 
Q 3622 3509 3622 2328 
Q 3622 1225 3098 567 
Q 2575 -91 1691 -91 
Q 1453 -91 1209 -44 
Q 966 3 703 97 
z
M 1959 2075 
Q 2384 2075 2632 2365 
Q 2881 2656 2881 3163 
Q 2881 3666 2632 3958 
Q 2384 4250 1959 4250 
Q 1534 4250 1286 3958 
Q 1038 3666 1038 3163 
Q 1038 2656 1286 2365 
Q 1534 2075 1959 2075 
z
" transform="scale(0.015625)"/>
       </defs>
       <use xlink:href="#DejaVuSans-39"/>
       <use xlink:href="#DejaVuSans-30" x="63.623047"/>
      </g>
     </g>
    </g>
    <g id="text_21">
     <!-- Accuracy -->
     <g transform="translate(31.795312 197.356125) rotate(-90) scale(0.1 -0.1)">
      <defs>
       <path id="DejaVuSans-41" d="M 2188 4044 
L 1331 1722 
L 3047 1722 
L 2188 4044 
z
M 1831 4666 
L 2547 4666 
L 4325 0 
L 3669 0 
L 3244 1197 
L 1141 1197 
L 716 0 
L 50 0 
L 1831 4666 
z
" transform="scale(0.015625)"/>
       <path id="DejaVuSans-75" d="M 544 1381 
L 544 3500 
L 1119 3500 
L 1119 1403 
Q 1119 906 1312 657 
Q 1506 409 1894 409 
Q 2359 409 2629 706 
Q 2900 1003 2900 1516 
L 2900 3500 
L 3475 3500 
L 3475 0 
L 2900 0 
L 2900 538 
Q 2691 219 2414 64 
Q 2138 -91 1772 -91 
Q 1169 -91 856 284 
Q 544 659 544 1381 
z
M 1991 3584 
L 1991 3584 
z
" transform="scale(0.015625)"/>
       <path id="DejaVuSans-72" d="M 2631 2963 
Q 2534 3019 2420 3045 
Q 2306 3072 2169 3072 
Q 1681 3072 1420 2755 
Q 1159 2438 1159 1844 
L 1159 0 
L 581 0 
L 581 3500 
L 1159 3500 
L 1159 2956 
Q 1341 3275 1631 3429 
Q 1922 3584 2338 3584 
Q 2397 3584 2469 3576 
Q 2541 3569 2628 3553 
L 2631 2963 
z
" transform="scale(0.015625)"/>
       <path id="DejaVuSans-61" d="M 2194 1759 
Q 1497 1759 1228 1600 
Q 959 1441 959 1056 
Q 959 750 1161 570 
Q 1363 391 1709 391 
Q 2188 391 2477 730 
Q 2766 1069 2766 1631 
L 2766 1759 
L 2194 1759 
z
M 3341 1997 
L 3341 0 
L 2766 0 
L 2766 531 
Q 2569 213 2275 61 
Q 1981 -91 1556 -91 
Q 1019 -91 701 211 
Q 384 513 384 1019 
Q 384 1609 779 1909 
Q 1175 2209 1959 2209 
L 2766 2209 
L 2766 2266 
Q 2766 2663 2505 2880 
Q 2244 3097 1772 3097 
Q 1472 3097 1187 3025 
Q 903 2953 641 2809 
L 641 3341 
Q 956 3463 1253 3523 
Q 1550 3584 1831 3584 
Q 2591 3584 2966 3190 
Q 3341 2797 3341 1997 
z
" transform="scale(0.015625)"/>
       <path id="DejaVuSans-79" d="M 2059 -325 
Q 1816 -950 1584 -1140 
Q 1353 -1331 966 -1331 
L 506 -1331 
L 506 -850 
L 844 -850 
Q 1081 -850 1212 -737 
Q 1344 -625 1503 -206 
L 1606 56 
L 191 3500 
L 800 3500 
L 1894 763 
L 2988 3500 
L 3597 3500 
L 2059 -325 
z
" transform="scale(0.015625)"/>
      </defs>
      <use xlink:href="#DejaVuSans-41"/>
      <use xlink:href="#DejaVuSans-63" x="66.658203"/>
      <use xlink:href="#DejaVuSans-63" x="121.638672"/>
      <use xlink:href="#DejaVuSans-75" x="176.619141"/>
      <use xlink:href="#DejaVuSans-72" x="239.998047"/>
      <use xlink:href="#DejaVuSans-61" x="281.111328"/>
      <use xlink:href="#DejaVuSans-63" x="342.390625"/>
      <use xlink:href="#DejaVuSans-79" x="397.371094"/>
     </g>
    </g>
   </g>
   <g id="line2d_20">
    <path d="M 73.832727 295.488 
L 76.00433 219.790136 
L 77.090131 191.409553 
L 78.175932 171.616544 
L 79.261733 158.992078 
L 80.347534 147.82334 
L 81.433335 139.052272 
L 82.519137 132.403631 
L 83.604938 126.488971 
L 84.690739 122.103437 
L 86.862341 112.188583 
L 90.119745 101.301204 
L 91.205546 99.606932 
L 92.291347 96.854505 
L 93.377148 96.42635 
L 94.462949 95.502757 
L 95.54875 120.806738 
L 96.634552 121.479553 
L 97.720353 118.818874 
L 98.806154 117.381495 
L 100.977756 110.690039 
L 102.063557 109.246544 
L 103.149358 108.151689 
L 104.23516 105.264699 
L 105.320961 103.545961 
L 106.406762 102.616252 
L 107.492563 99.301107 
L 108.578364 98.897417 
L 110.749967 95.233631 
L 111.835768 92.946058 
L 112.921569 92.38334 
L 115.093171 89.649262 
L 116.178972 88.487126 
L 117.264773 85.563437 
L 118.350575 85.967126 
L 119.436376 84.003728 
L 120.522177 82.30334 
L 121.607978 81.703922 
L 122.693779 80.474505 
L 123.77958 78.339845 
L 125.951183 76.504893 
L 127.036984 75.446738 
L 128.122785 72.945087 
L 130.294387 72.890039 
L 131.380189 72.620913 
L 132.46599 71.379262 
L 133.551791 70.688097 
L 134.637592 70.804311 
L 135.723393 70.045864 
L 136.809194 70.039748 
L 137.894995 69.574893 
L 138.980797 92.26101 
L 140.066598 93.23965 
L 141.152399 93.930816 
L 142.2382 93.649456 
L 143.324001 92.805379 
L 144.409802 94.37732 
L 145.495604 92.542369 
L 146.581405 92.236544 
L 147.667206 91.337417 
L 148.753007 90.793049 
L 149.838808 90.530039 
L 150.924609 89.820524 
L 152.01041 88.19965 
L 153.096212 87.471786 
L 154.182013 87.117029 
L 155.267814 85.826447 
L 156.353615 87.722563 
L 157.439416 86.242369 
L 158.525217 85.043534 
L 159.611019 85.20868 
L 160.69682 83.465476 
L 161.782621 83.942563 
L 162.868422 82.199359 
L 163.954223 82.174893 
L 165.040024 81.495961 
L 166.125825 81.318583 
L 167.211627 81.373631 
L 168.297428 80.755864 
L 169.383229 79.208388 
L 170.46903 79.104408 
L 171.554831 78.884214 
L 173.726434 77.948388 
L 174.812235 77.514117 
L 175.898036 76.254117 
L 176.983837 75.483437 
L 178.069638 74.565961 
L 179.155439 75.030816 
L 180.24124 75.257126 
L 181.327042 72.896155 
L 182.412843 72.73101 
L 183.498644 71.501592 
L 184.584445 71.97868 
L 185.670246 71.544408 
L 186.756047 70.767612 
L 187.841849 70.43732 
L 188.92765 69.293534 
L 190.013451 69.171204 
L 191.099252 67.531981 
L 192.185053 67.825573 
L 193.270854 67.421883 
L 194.356656 67.525864 
L 195.442457 65.917223 
L 196.528258 65.966155 
L 197.614059 65.764311 
L 198.69986 65.336155 
L 199.785661 64.278 
L 200.871462 63.641883 
L 201.957264 63.78868 
L 203.043065 62.626544 
L 204.128866 62.161689 
L 205.214667 62.534796 
L 206.300468 61.861981 
L 207.386269 60.338971 
L 208.472071 60.216641 
L 209.557872 59.84965 
L 210.643673 59.782369 
L 211.729474 59.996447 
L 212.815275 59.415379 
L 213.901076 59.323631 
L 214.986877 58.277709 
L 216.072679 58.608 
L 217.15848 58.699748 
L 218.244281 57.916835 
L 219.330082 57.286835 
L 220.415883 58.014699 
L 221.501684 58.430621 
L 222.587486 57.73334 
L 223.673287 57.323534 
L 224.759088 57.47033 
L 225.844889 79.067709 
L 226.93069 81.966932 
L 228.016491 83.269748 
L 229.102292 82.523534 
L 230.188094 83.233049 
L 231.273895 81.911883 
L 232.359696 82.511301 
L 233.445497 82.651981 
L 234.531298 81.905767 
L 235.617099 82.242175 
L 236.702901 82.18101 
L 237.788702 82.352272 
L 238.874503 80.602951 
L 239.960304 81.422563 
L 241.046105 81.832369 
L 242.131906 80.003534 
L 243.217708 81.465379 
L 244.303509 79.820039 
L 245.38931 78.553922 
L 246.475111 79.777223 
L 247.560912 79.630427 
L 248.646713 78.364311 
L 249.732514 78.144117 
L 250.818316 78.162466 
L 251.904117 78.969845 
L 252.989918 78.425476 
L 254.075719 78.541689 
L 255.16152 77.715961 
L 256.247321 77.642563 
L 257.333123 77.257223 
L 258.418924 76.602757 
L 259.504725 76.425379 
L 260.590526 76.871883 
L 261.676327 76.150136 
L 262.762128 76.602757 
L 263.847929 76.627223 
L 264.933731 75.024699 
L 266.019532 75.440621 
L 268.191134 74.529262 
L 269.276935 75.079748 
L 270.362736 74.156155 
L 271.448538 74.174505 
L 272.534339 75.25101 
L 273.62014 73.758583 
L 274.705941 73.654602 
L 275.791742 73.128583 
L 276.877543 73.721883 
L 277.963344 72.73101 
L 279.049146 73.501689 
L 280.134947 74.131689 
L 281.220748 72.382369 
L 282.306549 72.425184 
L 283.39235 72.333437 
L 284.478151 71.97868 
L 285.563953 70.975573 
L 287.735555 70.608583 
L 288.821356 71.630039 
L 289.907157 70.816544 
L 290.992958 70.180427 
L 292.07876 70.186544 
L 293.164561 70.021398 
L 294.250362 69.091689 
L 295.336163 70.217126 
L 296.421964 69.948 
L 298.593566 68.871495 
L 299.679368 68.969359 
L 300.765169 68.021301 
L 304.022572 68.816447 
L 305.108373 67.801107 
L 306.194175 67.397417 
L 307.279976 67.238388 
L 308.365777 65.892757 
L 309.451578 66.498291 
L 310.537379 66.498291 
L 311.62318 66.755184 
L 312.708981 65.440136 
L 313.794783 66.975379 
L 315.966385 64.424796 
L 317.052186 65.690913 
L 318.137987 64.999748 
L 319.223788 64.002757 
L 320.30959 63.984408 
L 321.395391 64.216835 
L 322.481192 64.027223 
L 323.566993 62.914019 
L 324.652794 63.660233 
L 325.738595 62.699942 
L 326.824396 62.357417 
L 327.910198 62.956835 
L 328.995999 62.008777 
L 330.0818 61.727417 
L 331.167601 61.953728 
L 334.425005 61.017903 
L 335.510806 60.314505 
L 336.596607 60.222757 
L 337.682408 59.819068 
L 338.768209 59.929165 
L 339.85401 60.210524 
L 340.939811 59.635573 
L 342.025613 59.476544 
L 343.111414 58.418388 
L 344.197215 59.048388 
L 345.283016 57.782272 
L 346.368817 58.675282 
L 347.454618 57.825087 
L 348.54042 58.259359 
L 349.626221 57.072757 
L 350.712022 56.779165 
L 351.797823 57.10334 
L 352.883624 56.10635 
L 353.969425 55.800524 
L 355.055227 56.69965 
L 356.141028 55.959553 
L 357.226829 56.503922 
L 358.31263 55.751592 
L 359.398431 54.717903 
L 360.484232 55.21334 
L 361.570033 54.858583 
L 362.655835 54.644505 
L 363.741636 53.653631 
L 365.913238 53.775961 
L 366.999039 53.568 
L 368.08484 53.861592 
L 369.170642 54.870816 
L 370.256443 54.858583 
L 371.342244 55.812757 
L 372.428045 57.152272 
L 373.513846 56.607903 
L 374.599647 56.754699 
L 375.685448 57.305184 
L 376.77125 57.403049 
L 377.857051 57.745573 
L 378.942852 57.409165 
L 380.028653 57.348 
L 381.114454 56.693534 
L 382.200255 56.85868 
L 383.286057 56.724117 
L 384.371858 56.773049 
L 385.457659 56.387709 
L 386.54346 56.510039 
L 388.715062 57.305184 
L 389.800863 56.974893 
L 390.886665 57.519262 
L 391.972466 57.617126 
L 393.058267 56.491689 
L 394.144068 56.950427 
L 395.229869 56.601786 
L 396.31567 57.20732 
L 397.401472 57.072757 
L 398.487273 56.320427 
L 398.487273 56.320427 
" clip-path="url(#p93d380ee3d)" style="fill: none; stroke: #1f77b4; stroke-width: 1.5; stroke-linecap: square"/>
   </g>
   <g id="line2d_21">
    <path d="M 73.832727 280.337417 
L 74.918528 254.648097 
L 76.00433 217.85732 
L 77.090131 215.594214 
L 78.175932 190.057806 
L 79.261733 183.115573 
L 80.347534 179.262175 
L 81.433335 165.744699 
L 82.519137 166.203437 
L 83.604938 163.236932 
L 84.690739 154.49033 
L 85.77654 150.147612 
L 86.862341 148.526738 
L 89.033943 140.575282 
L 90.119745 138.189845 
L 91.205546 137.150039 
L 92.291347 134.122369 
L 93.377148 134.428194 
L 94.462949 134.550524 
L 95.54875 155.897126 
L 96.634552 161.15732 
L 97.720353 157.303922 
L 98.806154 152.685961 
L 99.891955 148.740816 
L 100.977756 147.395184 
L 102.063557 148.618485 
L 103.149358 144.000524 
L 104.23516 139.933049 
L 105.320961 143.235961 
L 106.406762 141.859748 
L 107.492563 135.865573 
L 108.578364 135.34567 
L 109.664165 139.321398 
L 110.749967 132.103922 
L 111.835768 131.094699 
L 112.921569 129.320913 
L 114.00737 128.831592 
L 115.093171 126.599068 
L 116.178972 126.26266 
L 117.264773 122.531592 
L 118.350575 122.134019 
L 119.436376 124.060718 
L 120.522177 122.286932 
L 121.607978 121.644699 
L 122.693779 118.372369 
L 123.77958 119.47334 
L 124.865382 115.436447 
L 125.951183 115.008291 
L 128.122785 111.583049 
L 129.208586 111.491301 
L 130.294387 111.124311 
L 131.380189 110.420913 
L 132.46599 110.420913 
L 133.551791 110.084505 
L 134.637592 108.952951 
L 136.809194 109.472854 
L 137.894995 109.167029 
L 138.980797 131.125282 
L 140.066598 131.798097 
L 141.152399 131.95101 
L 142.2382 130.788874 
L 143.324001 135.284505 
L 144.409802 129.229165 
L 146.581405 128.67868 
L 147.667206 129.106835 
L 148.753007 127.944699 
L 149.838808 129.596155 
L 150.924609 126.415573 
L 152.01041 127.424796 
L 153.096212 126.109748 
L 154.182013 126.843728 
L 155.267814 125.498097 
L 156.353615 122.348097 
L 157.439416 120.390816 
L 158.525217 124.091301 
L 159.611019 121.889359 
L 160.69682 123.816058 
L 161.782621 121.430621 
L 162.868422 120.971883 
L 163.954223 119.534505 
L 165.040024 119.442757 
L 166.125825 121.002466 
L 167.211627 118.280621 
L 168.297428 121.308291 
L 169.383229 116.93499 
L 170.46903 116.506835 
L 171.554831 115.528194 
L 172.640632 118.341786 
L 173.726434 115.497612 
L 174.812235 116.629165 
L 175.898036 114.151981 
L 176.983837 113.815573 
L 178.069638 113.081592 
L 179.155439 113.479165 
L 180.24124 112.439359 
L 181.327042 111.583049 
L 182.412843 112.102951 
L 183.498644 109.105864 
L 184.584445 110.298583 
L 185.670246 109.105864 
L 186.756047 109.258777 
L 187.841849 110.02334 
L 188.92765 108.249553 
L 190.013451 105.344214 
L 191.099252 106.384019 
L 192.185053 106.017029 
L 193.270854 107.393243 
L 194.356656 106.812175 
L 195.442457 103.050524 
L 196.528258 103.72334 
L 197.614059 103.203437 
L 198.69986 103.081107 
L 199.785661 102.224796 
L 200.871462 103.325767 
L 203.043065 101.215573 
L 204.128866 101.093243 
L 205.214667 101.735476 
L 206.300468 99.992272 
L 208.472071 99.869942 
L 209.557872 98.983049 
L 210.643673 97.362175 
L 211.729474 97.515087 
L 212.815275 98.860718 
L 213.901076 97.086932 
L 214.986877 97.270427 
L 216.072679 96.842272 
L 217.15848 97.79033 
L 218.244281 97.453922 
L 219.330082 96.995184 
L 220.415883 96.658777 
L 221.501684 96.995184 
L 222.587486 97.117515 
L 223.673287 96.322369 
L 224.759088 96.628194 
L 225.844889 121.247126 
L 226.93069 121.308291 
L 228.016491 120.451981 
L 229.102292 122.195184 
L 230.188094 122.37868 
L 231.273895 121.400039 
L 232.359696 117.546641 
L 233.445497 121.828194 
L 234.531298 119.412175 
L 235.617099 121.002466 
L 236.702901 118.372369 
L 237.788702 118.311204 
L 238.874503 121.705864 
L 239.960304 121.736447 
L 241.046105 124.244214 
L 242.131906 119.870913 
L 243.217708 120.20732 
L 244.303509 119.10635 
L 245.38931 122.286932 
L 246.475111 117.026738 
L 247.560912 119.718 
L 248.646713 120.054408 
L 249.732514 114.641301 
L 250.818316 114.366058 
L 251.904117 116.904408 
L 252.989918 123.020913 
L 254.075719 118.708777 
L 255.16152 118.188874 
L 256.247321 115.161204 
L 257.333123 118.922854 
L 258.418924 115.681107 
L 259.504725 115.161204 
L 260.590526 118.555864 
L 261.676327 115.436447 
L 262.762128 110.818485 
L 264.933731 117.638388 
L 266.019532 114.885961 
L 267.105333 114.671883 
L 268.191134 114.885961 
L 269.276935 114.518971 
L 270.362736 114.335476 
L 271.448538 112.867515 
L 272.534339 111.827709 
L 273.62014 115.222369 
L 274.705941 113.876738 
L 275.791742 113.05101 
L 276.877543 110.115087 
L 277.963344 113.265087 
L 279.049146 110.543243 
L 280.134947 113.632078 
L 281.220748 111.766544 
L 282.306549 112.041786 
L 283.39235 108.983534 
L 284.478151 109.870427 
L 285.563953 114.763631 
L 286.649754 113.112175 
L 287.735555 109.625767 
L 288.821356 108.249553 
L 289.907157 111.644214 
L 290.992958 107.943728 
L 292.07876 109.65635 
L 293.164561 107.36266 
L 294.250362 109.075282 
L 295.336163 110.543243 
L 296.421964 110.726738 
L 297.507765 105.497126 
L 298.593566 110.971398 
L 299.679368 110.115087 
L 300.765169 106.812175 
L 301.85097 107.699068 
L 302.936771 109.503437 
L 304.022572 106.292272 
L 305.108373 105.466544 
L 306.194175 105.252466 
L 307.279976 104.824311 
L 308.365777 106.903922 
L 309.451578 107.24033 
L 310.537379 107.943728 
L 311.62318 103.35635 
L 312.708981 105.313631 
L 313.794783 105.252466 
L 314.880584 105.497126 
L 315.966385 105.191301 
L 317.052186 103.448097 
L 318.137987 103.295184 
L 319.223788 104.916058 
L 320.30959 102.377709 
L 321.395391 103.60101 
L 322.481192 104.09033 
L 323.566993 102.133049 
L 324.652794 104.45732 
L 325.738595 102.530621 
L 326.824396 101.827223 
L 327.910198 100.756835 
L 328.995999 101.093243 
L 330.0818 100.236932 
L 331.167601 99.961689 
L 332.253402 99.166544 
L 333.339203 102.958777 
L 334.425005 98.860718 
L 335.510806 101.337903 
L 336.596607 100.389845 
L 337.682408 98.830136 
L 338.768209 97.54567 
L 339.85401 98.310233 
L 340.939811 97.882078 
L 342.025613 97.05635 
L 343.111414 98.646641 
L 344.197215 96.261204 
L 345.283016 97.362175 
L 346.368817 96.964602 
L 347.454618 97.209262 
L 349.626221 95.924796 
L 350.712022 95.527223 
L 351.797823 95.985961 
L 352.883624 94.518 
L 353.969425 96.200039 
L 355.055227 94.02868 
L 356.141028 93.111204 
L 357.226829 95.099068 
L 358.31263 93.050039 
L 359.398431 93.019456 
L 361.570033 93.447612 
L 362.655835 92.224311 
L 364.827437 93.019456 
L 365.913238 91.704408 
L 366.999039 91.153922 
L 368.08484 92.652466 
L 369.170642 93.355864 
L 370.256443 93.325282 
L 371.342244 94.854408 
L 372.428045 96.597612 
L 373.513846 94.456835 
L 375.685448 95.680136 
L 376.77125 95.680136 
L 377.857051 96.505864 
L 378.942852 95.863631 
L 380.028653 96.597612 
L 381.114454 95.160233 
L 382.200255 98.27965 
L 383.286057 96.291786 
L 384.371858 95.404893 
L 385.457659 95.955379 
L 387.629261 98.432563 
L 388.715062 96.536447 
L 389.800863 96.200039 
L 390.886665 96.781107 
L 391.972466 98.065573 
L 393.058267 97.698583 
L 394.144068 95.741301 
L 395.229869 96.811689 
L 396.31567 95.680136 
L 397.401472 95.557806 
L 398.487273 96.811689 
L 398.487273 96.811689 
" clip-path="url(#p93d380ee3d)" style="fill: none; stroke: #ff7f0e; stroke-width: 1.5; stroke-linecap: square"/>
   </g>
   <g id="line2d_22">
    <path d="M 73.832727 292.095871 
L 74.918528 273.429985 
L 76.00433 251.726939 
L 77.090131 243.269289 
L 78.175932 221.882613 
L 79.261733 227.239828 
L 80.347534 211.885292 
L 81.433335 199.082814 
L 82.519137 205.81097 
L 83.604938 202.710534 
L 84.690739 197.690782 
L 85.77654 195.265272 
L 86.862341 193.514686 
L 87.948142 189.359681 
L 89.033943 182.272972 
L 90.119745 181.703504 
L 91.205546 177.970327 
L 92.291347 179.784187 
L 93.377148 180.142741 
L 94.462949 179.889644 
L 95.54875 201.59269 
L 96.634552 195.012175 
L 97.720353 198.492255 
L 98.806154 195.307454 
L 99.891955 202.183249 
L 100.977756 187.419272 
L 102.063557 197.226771 
L 103.149358 191.194632 
L 104.23516 184.36102 
L 106.406762 190.582982 
L 107.492563 176.029918 
L 108.578364 189.633869 
L 109.664165 193.535777 
L 110.749967 179.868552 
L 111.835768 187.967648 
L 112.921569 185.310133 
L 114.00737 178.01251 
L 115.093171 177.10558 
L 116.178972 176.936848 
L 117.264773 168.964301 
L 118.350575 165.758408 
L 119.436376 176.536112 
L 122.693779 167.804274 
L 123.77958 167.424629 
L 124.865382 164.324194 
L 125.951183 160.844113 
L 127.036984 163.396172 
L 128.122785 163.016527 
L 129.208586 159.578629 
L 130.294387 160.928479 
L 131.380189 159.409898 
L 132.46599 159.705178 
L 133.551791 158.502968 
L 134.637592 157.596038 
L 135.723393 156.900022 
L 136.809194 157.638221 
L 137.894995 156.583651 
L 138.980797 181.555864 
L 140.066598 190.477525 
L 141.152399 185.289041 
L 142.2382 184.129014 
L 143.324001 183.45409 
L 144.409802 173.752048 
L 145.495604 175.565908 
L 146.581405 186.976353 
L 147.667206 183.053353 
L 148.753007 178.265606 
L 149.838808 176.979031 
L 150.924609 175.186262 
L 152.01041 180.311472 
L 153.096212 173.203671 
L 154.182013 183.369724 
L 155.267814 173.79423 
L 156.353615 175.186262 
L 157.439416 175.122988 
L 158.525217 172.8873 
L 159.611019 171.07344 
L 160.69682 173.920779 
L 161.782621 164.87257 
L 162.868422 172.043644 
L 163.954223 168.626838 
L 165.040024 163.564903 
L 166.125825 170.799252 
L 167.211627 174.047327 
L 168.297428 174.490246 
L 169.383229 168.605747 
L 170.46903 172.760752 
L 171.554831 168.183919 
L 172.640632 166.580973 
L 173.726434 170.039962 
L 174.812235 171.157806 
L 175.898036 166.812978 
L 176.983837 166.180236 
L 178.069638 160.527742 
L 179.155439 164.640564 
L 180.24124 162.868887 
L 181.327042 162.510333 
L 182.412843 157.02657 
L 183.498644 163.311806 
L 184.584445 162.109597 
L 185.670246 164.978027 
L 186.756047 166.412242 
L 187.841849 169.217397 
L 188.92765 161.329215 
L 190.013451 167.002801 
L 191.099252 157.954592 
L 192.185053 155.676721 
L 193.270854 158.355328 
L 194.356656 154.727608 
L 195.442457 155.043979 
L 196.528258 158.207689 
L 197.614059 152.660651 
L 198.69986 153.588673 
L 199.785661 150.192958 
L 200.871462 153.441033 
L 201.957264 153.377759 
L 203.043065 156.140732 
L 204.128866 149.665673 
L 205.214667 148.990749 
L 206.300468 149.264937 
L 207.386269 152.576286 
L 208.472071 152.449738 
L 209.557872 148.526738 
L 210.643673 150.762426 
L 211.729474 148.484555 
L 212.815275 149.897679 
L 213.901076 147.661991 
L 214.986877 150.931157 
L 216.072679 149.897679 
L 217.15848 148.336915 
L 219.330082 148.611103 
L 220.415883 147.851813 
L 221.501684 147.80963 
L 222.587486 149.032931 
L 223.673287 149.075114 
L 224.759088 148.990749 
L 226.93069 180.606751 
L 228.016491 160.823022 
L 229.102292 165.842774 
L 230.188094 169.681408 
L 231.273895 180.016192 
L 232.359696 167.192623 
L 233.445497 170.567247 
L 234.531298 164.87257 
L 235.617099 172.42329 
L 236.702901 166.644247 
L 237.788702 165.92714 
L 238.874503 170.546155 
L 239.960304 165.652951 
L 241.046105 179.657638 
L 242.131906 181.049671 
L 243.217708 174.363698 
L 244.303509 173.119306 
L 245.38931 179.003805 
L 246.475111 172.381107 
L 247.560912 176.894666 
L 248.646713 165.125667 
L 249.732514 162.257237 
L 250.818316 159.072436 
L 251.904117 169.871231 
L 252.989918 179.341267 
L 254.075719 159.536447 
L 255.16152 168.394833 
L 256.247321 167.867548 
L 257.333123 173.562225 
L 259.504725 163.543812 
L 260.590526 161.70886 
L 261.676327 166.053688 
L 262.762128 152.745017 
L 263.847929 164.134371 
L 264.933731 168.774478 
L 266.019532 168.795569 
L 267.105333 165.863865 
L 268.191134 161.476855 
L 269.276935 163.564903 
L 270.362736 159.852818 
L 271.448538 169.512677 
L 272.534339 166.602064 
L 273.62014 167.677725 
L 274.705941 162.974344 
L 275.791742 172.338924 
L 276.877543 170.377424 
L 277.963344 157.785861 
L 279.049146 157.638221 
L 280.134947 168.732295 
L 281.220748 166.454425 
L 282.306549 165.252215 
L 283.39235 162.552516 
L 284.478151 164.956935 
L 285.563953 169.997779 
L 286.649754 164.071097 
L 287.735555 159.578629 
L 288.821356 162.721247 
L 289.907157 161.455764 
L 290.992958 159.030253 
L 292.07876 159.452081 
L 293.164561 161.983049 
L 294.250362 162.953253 
L 295.336163 152.513012 
L 296.421964 158.439694 
L 298.593566 156.731291 
L 299.679368 161.497946 
L 300.765169 155.613447 
L 301.85097 150.783517 
L 302.936771 163.332898 
L 304.022572 156.7102 
L 305.108373 168.605747 
L 306.194175 157.132027 
L 307.279976 160.19028 
L 308.365777 158.692791 
L 309.451578 162.362694 
L 310.537379 166.475516 
L 311.62318 152.808291 
L 312.708981 150.045318 
L 313.794783 151.922453 
L 314.880584 156.541468 
L 315.966385 159.325533 
L 318.137987 152.702834 
L 319.223788 152.998114 
L 320.30959 150.804609 
L 321.395391 149.91877 
L 322.481192 157.933501 
L 323.566993 151.142071 
L 324.652794 154.073775 
L 325.738595 153.082479 
L 326.824396 152.977022 
L 327.910198 149.075114 
L 328.995999 151.922453 
L 330.0818 149.77113 
L 331.167601 147.092523 
L 332.253402 147.999453 
L 333.339203 151.163162 
L 334.425005 149.01184 
L 335.510806 147.556534 
L 336.596607 144.034271 
L 337.682408 152.576286 
L 338.768209 144.62483 
L 339.85401 144.941201 
L 340.939811 144.456098 
L 342.025613 145.616125 
L 343.111414 145.363028 
L 344.197215 151.458442 
L 345.283016 144.561555 
L 346.368817 148.062727 
L 347.454618 145.38412 
L 348.54042 147.978362 
L 349.626221 145.721582 
L 350.712022 145.004475 
L 351.797823 147.324528 
L 352.883624 147.008157 
L 353.969425 144.055362 
L 355.055227 137.517029 
L 356.141028 139.668352 
L 357.226829 143.696808 
L 358.31263 137.306115 
L 359.398431 145.637217 
L 360.484232 140.195636 
L 361.570033 140.912744 
L 362.655835 141.060384 
L 363.741636 139.710534 
L 364.827437 140.343276 
L 365.913238 135.534438 
L 366.999039 139.984722 
L 368.08484 140.744013 
L 369.170642 143.085158 
L 370.256443 143.907722 
L 371.342244 147.915087 
L 372.428045 144.435007 
L 373.513846 139.141067 
L 374.599647 147.556534 
L 375.685448 147.155797 
L 376.77125 147.80963 
L 377.857051 143.760082 
L 378.942852 146.923792 
L 380.028653 143.359346 
L 381.114454 142.81097 
L 382.200255 148.379098 
L 383.286057 146.122319 
L 384.371858 146.923792 
L 385.457659 146.122319 
L 386.54346 147.05034 
L 387.629261 143.633534 
L 388.715062 146.860518 
L 389.800863 144.456098 
L 390.886665 148.695469 
L 391.972466 148.800926 
L 393.058267 146.544147 
L 394.144068 146.860518 
L 395.229869 150.467146 
L 396.31567 142.895335 
L 397.401472 151.416259 
L 398.487273 151.901361 
L 398.487273 151.901361 
" clip-path="url(#p93d380ee3d)" style="fill: none; stroke: #2ca02c; stroke-width: 1.5; stroke-linecap: square"/>
   </g>
   <g id="line2d_23">
    <path d="M 368.08484 91.887903 
L 369.170642 92.683049 
L 370.256443 90.634019 
L 371.342244 91.765573 
L 372.428045 92.468971 
L 373.513846 95.496641 
L 375.685448 94.365087 
L 376.77125 95.160233 
L 377.857051 93.294699 
L 378.942852 92.897126 
L 380.028653 91.949068 
L 381.114454 93.202951 
L 382.200255 94.732078 
L 383.286057 95.190816 
L 384.371858 94.27334 
L 385.457659 94.089845 
L 386.54346 95.343728 
L 387.629261 95.955379 
L 388.715062 95.12965 
L 389.800863 93.569942 
L 390.886665 95.588388 
L 391.972466 94.02868 
L 393.058267 99.778194 
L 394.144068 99.533534 
L 395.229869 100.022854 
L 396.31567 97.42334 
L 397.401472 97.851495 
L 398.487273 98.524311 
L 398.487273 98.524311 
" clip-path="url(#p93d380ee3d)" style="fill: none; stroke: #d62728; stroke-width: 1.5; stroke-linecap: square"/>
   </g>
   <g id="line2d_24">
    <path d="M 368.08484 139.752717 
L 369.170642 141.693126 
L 370.256443 138.065405 
L 371.342244 136.863196 
L 372.428045 137.137384 
L 373.513846 140.195636 
L 374.599647 141.545486 
L 375.685448 145.405211 
L 376.77125 143.760082 
L 377.857051 138.149771 
L 378.942852 138.191954 
L 380.028653 133.804943 
L 381.114454 141.735308 
L 382.200255 143.7179 
L 383.286057 140.807287 
L 384.371858 139.773809 
L 385.457659 131.822352 
L 386.54346 135.892992 
L 387.629261 141.144749 
L 388.715062 135.492255 
L 389.800863 138.803604 
L 390.886665 137.031927 
L 391.972466 137.812309 
L 393.058267 140.722921 
L 394.144068 141.144749 
L 395.229869 142.726604 
L 396.31567 141.798583 
L 397.401472 143.675717 
L 398.487273 139.351981 
L 398.487273 139.351981 
" clip-path="url(#p93d380ee3d)" style="fill: none; stroke: #9467bd; stroke-width: 1.5; stroke-linecap: square"/>
   </g>
   <g id="patch_3">
    <path d="M 57.6 307.584 
L 57.6 41.472 
" style="fill: none; stroke: #000000; stroke-width: 0.8; stroke-linejoin: miter; stroke-linecap: square"/>
   </g>
   <g id="patch_4">
    <path d="M 414.72 307.584 
L 414.72 41.472 
" style="fill: none; stroke: #000000; stroke-width: 0.8; stroke-linejoin: miter; stroke-linecap: square"/>
   </g>
   <g id="patch_5">
    <path d="M 57.6 307.584 
L 414.72 307.584 
" style="fill: none; stroke: #000000; stroke-width: 0.8; stroke-linejoin: miter; stroke-linecap: square"/>
   </g>
   <g id="patch_6">
    <path d="M 57.6 41.472 
L 414.72 41.472 
" style="fill: none; stroke: #000000; stroke-width: 0.8; stroke-linejoin: miter; stroke-linecap: square"/>
   </g>
   <g id="text_22">
    <!-- Learning Curves -->
    <g transform="translate(187.37625 35.472) scale(0.12 -0.12)">
     <defs>
      <path id="DejaVuSans-4c" d="M 628 4666 
L 1259 4666 
L 1259 531 
L 3531 531 
L 3531 0 
L 628 0 
L 628 4666 
z
" transform="scale(0.015625)"/>
      <path id="DejaVuSans-65" d="M 3597 1894 
L 3597 1613 
L 953 1613 
Q 991 1019 1311 708 
Q 1631 397 2203 397 
Q 2534 397 2845 478 
Q 3156 559 3463 722 
L 3463 178 
Q 3153 47 2828 -22 
Q 2503 -91 2169 -91 
Q 1331 -91 842 396 
Q 353 884 353 1716 
Q 353 2575 817 3079 
Q 1281 3584 2069 3584 
Q 2775 3584 3186 3129 
Q 3597 2675 3597 1894 
z
M 3022 2063 
Q 3016 2534 2758 2815 
Q 2500 3097 2075 3097 
Q 1594 3097 1305 2825 
Q 1016 2553 972 2059 
L 3022 2063 
z
" transform="scale(0.015625)"/>
      <path id="DejaVuSans-6e" d="M 3513 2113 
L 3513 0 
L 2938 0 
L 2938 2094 
Q 2938 2591 2744 2837 
Q 2550 3084 2163 3084 
Q 1697 3084 1428 2787 
Q 1159 2491 1159 1978 
L 1159 0 
L 581 0 
L 581 3500 
L 1159 3500 
L 1159 2956 
Q 1366 3272 1645 3428 
Q 1925 3584 2291 3584 
Q 2894 3584 3203 3211 
Q 3513 2838 3513 2113 
z
" transform="scale(0.015625)"/>
      <path id="DejaVuSans-69" d="M 603 3500 
L 1178 3500 
L 1178 0 
L 603 0 
L 603 3500 
z
M 603 4863 
L 1178 4863 
L 1178 4134 
L 603 4134 
L 603 4863 
z
" transform="scale(0.015625)"/>
      <path id="DejaVuSans-67" d="M 2906 1791 
Q 2906 2416 2648 2759 
Q 2391 3103 1925 3103 
Q 1463 3103 1205 2759 
Q 947 2416 947 1791 
Q 947 1169 1205 825 
Q 1463 481 1925 481 
Q 2391 481 2648 825 
Q 2906 1169 2906 1791 
z
M 3481 434 
Q 3481 -459 3084 -895 
Q 2688 -1331 1869 -1331 
Q 1566 -1331 1297 -1286 
Q 1028 -1241 775 -1147 
L 775 -588 
Q 1028 -725 1275 -790 
Q 1522 -856 1778 -856 
Q 2344 -856 2625 -561 
Q 2906 -266 2906 331 
L 2906 616 
Q 2728 306 2450 153 
Q 2172 0 1784 0 
Q 1141 0 747 490 
Q 353 981 353 1791 
Q 353 2603 747 3093 
Q 1141 3584 1784 3584 
Q 2172 3584 2450 3431 
Q 2728 3278 2906 2969 
L 2906 3500 
L 3481 3500 
L 3481 434 
z
" transform="scale(0.015625)"/>
      <path id="DejaVuSans-20" transform="scale(0.015625)"/>
      <path id="DejaVuSans-43" d="M 4122 4306 
L 4122 3641 
Q 3803 3938 3442 4084 
Q 3081 4231 2675 4231 
Q 1875 4231 1450 3742 
Q 1025 3253 1025 2328 
Q 1025 1406 1450 917 
Q 1875 428 2675 428 
Q 3081 428 3442 575 
Q 3803 722 4122 1019 
L 4122 359 
Q 3791 134 3420 21 
Q 3050 -91 2638 -91 
Q 1578 -91 968 557 
Q 359 1206 359 2328 
Q 359 3453 968 4101 
Q 1578 4750 2638 4750 
Q 3056 4750 3426 4639 
Q 3797 4528 4122 4306 
z
" transform="scale(0.015625)"/>
      <path id="DejaVuSans-76" d="M 191 3500 
L 800 3500 
L 1894 563 
L 2988 3500 
L 3597 3500 
L 2284 0 
L 1503 0 
L 191 3500 
z
" transform="scale(0.015625)"/>
     </defs>
     <use xlink:href="#DejaVuSans-4c"/>
     <use xlink:href="#DejaVuSans-65" x="53.962891"/>
     <use xlink:href="#DejaVuSans-61" x="115.486328"/>
     <use xlink:href="#DejaVuSans-72" x="176.765625"/>
     <use xlink:href="#DejaVuSans-6e" x="216.128906"/>
     <use xlink:href="#DejaVuSans-69" x="279.507812"/>
     <use xlink:href="#DejaVuSans-6e" x="307.291016"/>
     <use xlink:href="#DejaVuSans-67" x="370.669922"/>
     <use xlink:href="#DejaVuSans-20" x="434.146484"/>
     <use xlink:href="#DejaVuSans-43" x="465.933594"/>
     <use xlink:href="#DejaVuSans-75" x="535.757812"/>
     <use xlink:href="#DejaVuSans-72" x="599.136719"/>
     <use xlink:href="#DejaVuSans-76" x="640.25"/>
     <use xlink:href="#DejaVuSans-65" x="699.429688"/>
     <use xlink:href="#DejaVuSans-73" x="760.953125"/>
    </g>
   </g>
   <g id="legend_1">
    <g id="patch_7">
     <path d="M 214.18875 302.584 
L 407.72 302.584 
Q 409.72 302.584 409.72 300.584 
L 409.72 228.193375 
Q 409.72 226.193375 407.72 226.193375 
L 214.18875 226.193375 
Q 212.18875 226.193375 212.18875 228.193375 
L 212.18875 300.584 
Q 212.18875 302.584 214.18875 302.584 
z
" style="fill: #ffffff; opacity: 0.8; stroke: #cccccc; stroke-linejoin: miter"/>
    </g>
    <g id="line2d_25">
     <path d="M 216.18875 234.291812 
L 226.18875 234.291812 
L 236.18875 234.291812 
" style="fill: none; stroke: #1f77b4; stroke-width: 1.5; stroke-linecap: square"/>
    </g>
    <g id="text_23">
     <!-- Train Accuracy -->
     <g transform="translate(244.18875 237.791812) scale(0.1 -0.1)">
      <defs>
       <path id="DejaVuSans-54" d="M -19 4666 
L 3928 4666 
L 3928 4134 
L 2272 4134 
L 2272 0 
L 1638 0 
L 1638 4134 
L -19 4134 
L -19 4666 
z
" transform="scale(0.015625)"/>
      </defs>
      <use xlink:href="#DejaVuSans-54"/>
      <use xlink:href="#DejaVuSans-72" x="46.333984"/>
      <use xlink:href="#DejaVuSans-61" x="87.447266"/>
      <use xlink:href="#DejaVuSans-69" x="148.726562"/>
      <use xlink:href="#DejaVuSans-6e" x="176.509766"/>
      <use xlink:href="#DejaVuSans-20" x="239.888672"/>
      <use xlink:href="#DejaVuSans-41" x="271.675781"/>
      <use xlink:href="#DejaVuSans-63" x="338.333984"/>
      <use xlink:href="#DejaVuSans-63" x="393.314453"/>
      <use xlink:href="#DejaVuSans-75" x="448.294922"/>
      <use xlink:href="#DejaVuSans-72" x="511.673828"/>
      <use xlink:href="#DejaVuSans-61" x="552.787109"/>
      <use xlink:href="#DejaVuSans-63" x="614.066406"/>
      <use xlink:href="#DejaVuSans-79" x="669.046875"/>
     </g>
    </g>
    <g id="line2d_26">
     <path d="M 216.18875 248.969937 
L 226.18875 248.969937 
L 236.18875 248.969937 
" style="fill: none; stroke: #ff7f0e; stroke-width: 1.5; stroke-linecap: square"/>
    </g>
    <g id="text_24">
     <!-- Validation Accuracy -->
     <g transform="translate(244.18875 252.469937) scale(0.1 -0.1)">
      <defs>
       <path id="DejaVuSans-56" d="M 1831 0 
L 50 4666 
L 709 4666 
L 2188 738 
L 3669 4666 
L 4325 4666 
L 2547 0 
L 1831 0 
z
" transform="scale(0.015625)"/>
       <path id="DejaVuSans-6c" d="M 603 4863 
L 1178 4863 
L 1178 0 
L 603 0 
L 603 4863 
z
" transform="scale(0.015625)"/>
       <path id="DejaVuSans-64" d="M 2906 2969 
L 2906 4863 
L 3481 4863 
L 3481 0 
L 2906 0 
L 2906 525 
Q 2725 213 2448 61 
Q 2172 -91 1784 -91 
Q 1150 -91 751 415 
Q 353 922 353 1747 
Q 353 2572 751 3078 
Q 1150 3584 1784 3584 
Q 2172 3584 2448 3432 
Q 2725 3281 2906 2969 
z
M 947 1747 
Q 947 1113 1208 752 
Q 1469 391 1925 391 
Q 2381 391 2643 752 
Q 2906 1113 2906 1747 
Q 2906 2381 2643 2742 
Q 2381 3103 1925 3103 
Q 1469 3103 1208 2742 
Q 947 2381 947 1747 
z
" transform="scale(0.015625)"/>
       <path id="DejaVuSans-74" d="M 1172 4494 
L 1172 3500 
L 2356 3500 
L 2356 3053 
L 1172 3053 
L 1172 1153 
Q 1172 725 1289 603 
Q 1406 481 1766 481 
L 2356 481 
L 2356 0 
L 1766 0 
Q 1100 0 847 248 
Q 594 497 594 1153 
L 594 3053 
L 172 3053 
L 172 3500 
L 594 3500 
L 594 4494 
L 1172 4494 
z
" transform="scale(0.015625)"/>
      </defs>
      <use xlink:href="#DejaVuSans-56"/>
      <use xlink:href="#DejaVuSans-61" x="60.658203"/>
      <use xlink:href="#DejaVuSans-6c" x="121.9375"/>
      <use xlink:href="#DejaVuSans-69" x="149.720703"/>
      <use xlink:href="#DejaVuSans-64" x="177.503906"/>
      <use xlink:href="#DejaVuSans-61" x="240.980469"/>
      <use xlink:href="#DejaVuSans-74" x="302.259766"/>
      <use xlink:href="#DejaVuSans-69" x="341.46875"/>
      <use xlink:href="#DejaVuSans-6f" x="369.251953"/>
      <use xlink:href="#DejaVuSans-6e" x="430.433594"/>
      <use xlink:href="#DejaVuSans-20" x="493.8125"/>
      <use xlink:href="#DejaVuSans-41" x="525.599609"/>
      <use xlink:href="#DejaVuSans-63" x="592.257812"/>
      <use xlink:href="#DejaVuSans-63" x="647.238281"/>
      <use xlink:href="#DejaVuSans-75" x="702.21875"/>
      <use xlink:href="#DejaVuSans-72" x="765.597656"/>
      <use xlink:href="#DejaVuSans-61" x="806.710938"/>
      <use xlink:href="#DejaVuSans-63" x="867.990234"/>
      <use xlink:href="#DejaVuSans-79" x="922.970703"/>
     </g>
    </g>
    <g id="line2d_27">
     <path d="M 216.18875 263.648062 
L 226.18875 263.648062 
L 236.18875 263.648062 
" style="fill: none; stroke: #2ca02c; stroke-width: 1.5; stroke-linecap: square"/>
    </g>
    <g id="text_25">
     <!-- Robust Validation Accuracy -->
     <g transform="translate(244.18875 267.148062) scale(0.1 -0.1)">
      <defs>
       <path id="DejaVuSans-52" d="M 2841 2188 
Q 3044 2119 3236 1894 
Q 3428 1669 3622 1275 
L 4263 0 
L 3584 0 
L 2988 1197 
Q 2756 1666 2539 1819 
Q 2322 1972 1947 1972 
L 1259 1972 
L 1259 0 
L 628 0 
L 628 4666 
L 2053 4666 
Q 2853 4666 3247 4331 
Q 3641 3997 3641 3322 
Q 3641 2881 3436 2590 
Q 3231 2300 2841 2188 
z
M 1259 4147 
L 1259 2491 
L 2053 2491 
Q 2509 2491 2742 2702 
Q 2975 2913 2975 3322 
Q 2975 3731 2742 3939 
Q 2509 4147 2053 4147 
L 1259 4147 
z
" transform="scale(0.015625)"/>
       <path id="DejaVuSans-62" d="M 3116 1747 
Q 3116 2381 2855 2742 
Q 2594 3103 2138 3103 
Q 1681 3103 1420 2742 
Q 1159 2381 1159 1747 
Q 1159 1113 1420 752 
Q 1681 391 2138 391 
Q 2594 391 2855 752 
Q 3116 1113 3116 1747 
z
M 1159 2969 
Q 1341 3281 1617 3432 
Q 1894 3584 2278 3584 
Q 2916 3584 3314 3078 
Q 3713 2572 3713 1747 
Q 3713 922 3314 415 
Q 2916 -91 2278 -91 
Q 1894 -91 1617 61 
Q 1341 213 1159 525 
L 1159 0 
L 581 0 
L 581 4863 
L 1159 4863 
L 1159 2969 
z
" transform="scale(0.015625)"/>
      </defs>
      <use xlink:href="#DejaVuSans-52"/>
      <use xlink:href="#DejaVuSans-6f" x="64.982422"/>
      <use xlink:href="#DejaVuSans-62" x="126.164062"/>
      <use xlink:href="#DejaVuSans-75" x="189.640625"/>
      <use xlink:href="#DejaVuSans-73" x="253.019531"/>
      <use xlink:href="#DejaVuSans-74" x="305.119141"/>
      <use xlink:href="#DejaVuSans-20" x="344.328125"/>
      <use xlink:href="#DejaVuSans-56" x="376.115234"/>
      <use xlink:href="#DejaVuSans-61" x="436.773438"/>
      <use xlink:href="#DejaVuSans-6c" x="498.052734"/>
      <use xlink:href="#DejaVuSans-69" x="525.835938"/>
      <use xlink:href="#DejaVuSans-64" x="553.619141"/>
      <use xlink:href="#DejaVuSans-61" x="617.095703"/>
      <use xlink:href="#DejaVuSans-74" x="678.375"/>
      <use xlink:href="#DejaVuSans-69" x="717.583984"/>
      <use xlink:href="#DejaVuSans-6f" x="745.367188"/>
      <use xlink:href="#DejaVuSans-6e" x="806.548828"/>
      <use xlink:href="#DejaVuSans-20" x="869.927734"/>
      <use xlink:href="#DejaVuSans-41" x="901.714844"/>
      <use xlink:href="#DejaVuSans-63" x="968.373047"/>
      <use xlink:href="#DejaVuSans-63" x="1023.353516"/>
      <use xlink:href="#DejaVuSans-75" x="1078.333984"/>
      <use xlink:href="#DejaVuSans-72" x="1141.712891"/>
      <use xlink:href="#DejaVuSans-61" x="1182.826172"/>
      <use xlink:href="#DejaVuSans-63" x="1244.105469"/>
      <use xlink:href="#DejaVuSans-79" x="1299.085938"/>
     </g>
    </g>
    <g id="line2d_28">
     <path d="M 216.18875 278.326188 
L 226.18875 278.326188 
L 236.18875 278.326188 
" style="fill: none; stroke: #d62728; stroke-width: 1.5; stroke-linecap: square"/>
    </g>
    <g id="text_26">
     <!-- SWA Validation Accuracy -->
     <g transform="translate(244.18875 281.826188) scale(0.1 -0.1)">
      <defs>
       <path id="DejaVuSans-53" d="M 3425 4513 
L 3425 3897 
Q 3066 4069 2747 4153 
Q 2428 4238 2131 4238 
Q 1616 4238 1336 4038 
Q 1056 3838 1056 3469 
Q 1056 3159 1242 3001 
Q 1428 2844 1947 2747 
L 2328 2669 
Q 3034 2534 3370 2195 
Q 3706 1856 3706 1288 
Q 3706 609 3251 259 
Q 2797 -91 1919 -91 
Q 1588 -91 1214 -16 
Q 841 59 441 206 
L 441 856 
Q 825 641 1194 531 
Q 1563 422 1919 422 
Q 2459 422 2753 634 
Q 3047 847 3047 1241 
Q 3047 1584 2836 1778 
Q 2625 1972 2144 2069 
L 1759 2144 
Q 1053 2284 737 2584 
Q 422 2884 422 3419 
Q 422 4038 858 4394 
Q 1294 4750 2059 4750 
Q 2388 4750 2728 4690 
Q 3069 4631 3425 4513 
z
" transform="scale(0.015625)"/>
       <path id="DejaVuSans-57" d="M 213 4666 
L 850 4666 
L 1831 722 
L 2809 4666 
L 3519 4666 
L 4500 722 
L 5478 4666 
L 6119 4666 
L 4947 0 
L 4153 0 
L 3169 4050 
L 2175 0 
L 1381 0 
L 213 4666 
z
" transform="scale(0.015625)"/>
      </defs>
      <use xlink:href="#DejaVuSans-53"/>
      <use xlink:href="#DejaVuSans-57" x="63.476562"/>
      <use xlink:href="#DejaVuSans-41" x="156.853516"/>
      <use xlink:href="#DejaVuSans-20" x="225.261719"/>
      <use xlink:href="#DejaVuSans-56" x="257.048828"/>
      <use xlink:href="#DejaVuSans-61" x="317.707031"/>
      <use xlink:href="#DejaVuSans-6c" x="378.986328"/>
      <use xlink:href="#DejaVuSans-69" x="406.769531"/>
      <use xlink:href="#DejaVuSans-64" x="434.552734"/>
      <use xlink:href="#DejaVuSans-61" x="498.029297"/>
      <use xlink:href="#DejaVuSans-74" x="559.308594"/>
      <use xlink:href="#DejaVuSans-69" x="598.517578"/>
      <use xlink:href="#DejaVuSans-6f" x="626.300781"/>
      <use xlink:href="#DejaVuSans-6e" x="687.482422"/>
      <use xlink:href="#DejaVuSans-20" x="750.861328"/>
      <use xlink:href="#DejaVuSans-41" x="782.648438"/>
      <use xlink:href="#DejaVuSans-63" x="849.306641"/>
      <use xlink:href="#DejaVuSans-63" x="904.287109"/>
      <use xlink:href="#DejaVuSans-75" x="959.267578"/>
      <use xlink:href="#DejaVuSans-72" x="1022.646484"/>
      <use xlink:href="#DejaVuSans-61" x="1063.759766"/>
      <use xlink:href="#DejaVuSans-63" x="1125.039062"/>
      <use xlink:href="#DejaVuSans-79" x="1180.019531"/>
     </g>
    </g>
    <g id="line2d_29">
     <path d="M 216.18875 293.004312 
L 226.18875 293.004312 
L 236.18875 293.004312 
" style="fill: none; stroke: #9467bd; stroke-width: 1.5; stroke-linecap: square"/>
    </g>
    <g id="text_27">
     <!-- SWA Robust Validation Accuracy -->
     <g transform="translate(244.18875 296.504312) scale(0.1 -0.1)">
      <use xlink:href="#DejaVuSans-53"/>
      <use xlink:href="#DejaVuSans-57" x="63.476562"/>
      <use xlink:href="#DejaVuSans-41" x="156.853516"/>
      <use xlink:href="#DejaVuSans-20" x="225.261719"/>
      <use xlink:href="#DejaVuSans-52" x="257.048828"/>
      <use xlink:href="#DejaVuSans-6f" x="322.03125"/>
      <use xlink:href="#DejaVuSans-62" x="383.212891"/>
      <use xlink:href="#DejaVuSans-75" x="446.689453"/>
      <use xlink:href="#DejaVuSans-73" x="510.068359"/>
      <use xlink:href="#DejaVuSans-74" x="562.167969"/>
      <use xlink:href="#DejaVuSans-20" x="601.376953"/>
      <use xlink:href="#DejaVuSans-56" x="633.164062"/>
      <use xlink:href="#DejaVuSans-61" x="693.822266"/>
      <use xlink:href="#DejaVuSans-6c" x="755.101562"/>
      <use xlink:href="#DejaVuSans-69" x="782.884766"/>
      <use xlink:href="#DejaVuSans-64" x="810.667969"/>
      <use xlink:href="#DejaVuSans-61" x="874.144531"/>
      <use xlink:href="#DejaVuSans-74" x="935.423828"/>
      <use xlink:href="#DejaVuSans-69" x="974.632812"/>
      <use xlink:href="#DejaVuSans-6f" x="1002.416016"/>
      <use xlink:href="#DejaVuSans-6e" x="1063.597656"/>
      <use xlink:href="#DejaVuSans-20" x="1126.976562"/>
      <use xlink:href="#DejaVuSans-41" x="1158.763672"/>
      <use xlink:href="#DejaVuSans-63" x="1225.421875"/>
      <use xlink:href="#DejaVuSans-63" x="1280.402344"/>
      <use xlink:href="#DejaVuSans-75" x="1335.382812"/>
      <use xlink:href="#DejaVuSans-72" x="1398.761719"/>
      <use xlink:href="#DejaVuSans-61" x="1439.875"/>
      <use xlink:href="#DejaVuSans-63" x="1501.154297"/>
      <use xlink:href="#DejaVuSans-79" x="1556.134766"/>
     </g>
    </g>
   </g>
  </g>
 </g>
 <defs>
  <clipPath id="p93d380ee3d">
   <rect x="57.6" y="41.472" width="357.12" height="266.112"/>
  </clipPath>
 </defs>
</svg>
