<?xml version="1.0" encoding="utf-8" standalone="no"?>
<!DOCTYPE svg PUBLIC "-//W3C//DTD SVG 1.1//EN"
  "http://www.w3.org/Graphics/SVG/1.1/DTD/svg11.dtd">
<svg xmlns:xlink="http://www.w3.org/1999/xlink" width="460.8pt" height="345.6pt" viewBox="0 0 460.8 345.6" xmlns="http://www.w3.org/2000/svg" version="1.1">
 <metadata>
  <rdf:RDF xmlns:dc="http://purl.org/dc/elements/1.1/" xmlns:cc="http://creativecommons.org/ns#" xmlns:rdf="http://www.w3.org/1999/02/22-rdf-syntax-ns#">
   <cc:Work>
    <dc:type rdf:resource="http://purl.org/dc/dcmitype/StillImage"/>
    <dc:date>2025-02-10T23:43:20.858287</dc:date>
    <dc:format>image/svg+xml</dc:format>
    <dc:creator>
     <cc:Agent>
      <dc:title>Matplotlib v3.9.1, https://matplotlib.org/</dc:title>
     </cc:Agent>
    </dc:creator>
   </cc:Work>
  </rdf:RDF>
 </metadata>
 <defs>
  <style type="text/css">*{stroke-linejoin: round; stroke-linecap: butt}</style>
 </defs>
 <g id="figure_1">
  <g id="patch_1">
   <path d="M 0 345.6 
L 460.8 345.6 
L 460.8 0 
L 0 0 
z
" style="fill: #ffffff"/>
  </g>
  <g id="axes_1">
   <g id="patch_2">
    <path d="M 57.6 307.584 
L 414.72 307.584 
L 414.72 41.472 
L 57.6 41.472 
z
" style="fill: #ffffff"/>
   </g>
   <g id="matplotlib.axis_1">
    <g id="xtick_1">
     <g id="line2d_1">
      <defs>
       <path id="mf0f0615ab0" d="M 0 0 
L 0 3.5 
" style="stroke: #000000; stroke-width: 0.8"/>
      </defs>
      <g>
       <use xlink:href="#mf0f0615ab0" x="73.832727" y="307.584" style="stroke: #000000; stroke-width: 0.8"/>
      </g>
     </g>
     <g id="text_1">
      <!-- 1 -->
      <g transform="translate(70.651477 322.182437) scale(0.1 -0.1)">
       <defs>
        <path id="DejaVuSans-31" d="M 794 531 
L 1825 531 
L 1825 4091 
L 703 3866 
L 703 4441 
L 1819 4666 
L 2450 4666 
L 2450 531 
L 3481 531 
L 3481 0 
L 794 0 
L 794 531 
z
" transform="scale(0.015625)"/>
       </defs>
       <use xlink:href="#DejaVuSans-31"/>
      </g>
     </g>
    </g>
    <g id="xtick_2">
     <g id="line2d_2">
      <g>
       <use xlink:href="#mf0f0615ab0" x="109.664165" y="307.584" style="stroke: #000000; stroke-width: 0.8"/>
      </g>
     </g>
     <g id="text_2">
      <!-- 34 -->
      <g transform="translate(103.301665 322.182437) scale(0.1 -0.1)">
       <defs>
        <path id="DejaVuSans-33" d="M 2597 2516 
Q 3050 2419 3304 2112 
Q 3559 1806 3559 1356 
Q 3559 666 3084 287 
Q 2609 -91 1734 -91 
Q 1441 -91 1130 -33 
Q 819 25 488 141 
L 488 750 
Q 750 597 1062 519 
Q 1375 441 1716 441 
Q 2309 441 2620 675 
Q 2931 909 2931 1356 
Q 2931 1769 2642 2001 
Q 2353 2234 1838 2234 
L 1294 2234 
L 1294 2753 
L 1863 2753 
Q 2328 2753 2575 2939 
Q 2822 3125 2822 3475 
Q 2822 3834 2567 4026 
Q 2313 4219 1838 4219 
Q 1578 4219 1281 4162 
Q 984 4106 628 3988 
L 628 4550 
Q 988 4650 1302 4700 
Q 1616 4750 1894 4750 
Q 2613 4750 3031 4423 
Q 3450 4097 3450 3541 
Q 3450 3153 3228 2886 
Q 3006 2619 2597 2516 
z
" transform="scale(0.015625)"/>
        <path id="DejaVuSans-34" d="M 2419 4116 
L 825 1625 
L 2419 1625 
L 2419 4116 
z
M 2253 4666 
L 3047 4666 
L 3047 1625 
L 3713 1625 
L 3713 1100 
L 3047 1100 
L 3047 0 
L 2419 0 
L 2419 1100 
L 313 1100 
L 313 1709 
L 2253 4666 
z
" transform="scale(0.015625)"/>
       </defs>
       <use xlink:href="#DejaVuSans-33"/>
       <use xlink:href="#DejaVuSans-34" x="63.623047"/>
      </g>
     </g>
    </g>
    <g id="xtick_3">
     <g id="line2d_3">
      <g>
       <use xlink:href="#mf0f0615ab0" x="145.495604" y="307.584" style="stroke: #000000; stroke-width: 0.8"/>
      </g>
     </g>
     <g id="text_3">
      <!-- 67 -->
      <g transform="translate(139.133104 322.182437) scale(0.1 -0.1)">
       <defs>
        <path id="DejaVuSans-36" d="M 2113 2584 
Q 1688 2584 1439 2293 
Q 1191 2003 1191 1497 
Q 1191 994 1439 701 
Q 1688 409 2113 409 
Q 2538 409 2786 701 
Q 3034 994 3034 1497 
Q 3034 2003 2786 2293 
Q 2538 2584 2113 2584 
z
M 3366 4563 
L 3366 3988 
Q 3128 4100 2886 4159 
Q 2644 4219 2406 4219 
Q 1781 4219 1451 3797 
Q 1122 3375 1075 2522 
Q 1259 2794 1537 2939 
Q 1816 3084 2150 3084 
Q 2853 3084 3261 2657 
Q 3669 2231 3669 1497 
Q 3669 778 3244 343 
Q 2819 -91 2113 -91 
Q 1303 -91 875 529 
Q 447 1150 447 2328 
Q 447 3434 972 4092 
Q 1497 4750 2381 4750 
Q 2619 4750 2861 4703 
Q 3103 4656 3366 4563 
z
" transform="scale(0.015625)"/>
        <path id="DejaVuSans-37" d="M 525 4666 
L 3525 4666 
L 3525 4397 
L 1831 0 
L 1172 0 
L 2766 4134 
L 525 4134 
L 525 4666 
z
" transform="scale(0.015625)"/>
       </defs>
       <use xlink:href="#DejaVuSans-36"/>
       <use xlink:href="#DejaVuSans-37" x="63.623047"/>
      </g>
     </g>
    </g>
    <g id="xtick_4">
     <g id="line2d_4">
      <g>
       <use xlink:href="#mf0f0615ab0" x="181.327042" y="307.584" style="stroke: #000000; stroke-width: 0.8"/>
      </g>
     </g>
     <g id="text_4">
      <!-- 100 -->
      <g transform="translate(171.783292 322.182437) scale(0.1 -0.1)">
       <defs>
        <path id="DejaVuSans-30" d="M 2034 4250 
Q 1547 4250 1301 3770 
Q 1056 3291 1056 2328 
Q 1056 1369 1301 889 
Q 1547 409 2034 409 
Q 2525 409 2770 889 
Q 3016 1369 3016 2328 
Q 3016 3291 2770 3770 
Q 2525 4250 2034 4250 
z
M 2034 4750 
Q 2819 4750 3233 4129 
Q 3647 3509 3647 2328 
Q 3647 1150 3233 529 
Q 2819 -91 2034 -91 
Q 1250 -91 836 529 
Q 422 1150 422 2328 
Q 422 3509 836 4129 
Q 1250 4750 2034 4750 
z
" transform="scale(0.015625)"/>
       </defs>
       <use xlink:href="#DejaVuSans-31"/>
       <use xlink:href="#DejaVuSans-30" x="63.623047"/>
       <use xlink:href="#DejaVuSans-30" x="127.246094"/>
      </g>
     </g>
    </g>
    <g id="xtick_5">
     <g id="line2d_5">
      <g>
       <use xlink:href="#mf0f0615ab0" x="217.15848" y="307.584" style="stroke: #000000; stroke-width: 0.8"/>
      </g>
     </g>
     <g id="text_5">
      <!-- 133 -->
      <g transform="translate(207.61473 322.182437) scale(0.1 -0.1)">
       <use xlink:href="#DejaVuSans-31"/>
       <use xlink:href="#DejaVuSans-33" x="63.623047"/>
       <use xlink:href="#DejaVuSans-33" x="127.246094"/>
      </g>
     </g>
    </g>
    <g id="xtick_6">
     <g id="line2d_6">
      <g>
       <use xlink:href="#mf0f0615ab0" x="254.075719" y="307.584" style="stroke: #000000; stroke-width: 0.8"/>
      </g>
     </g>
     <g id="text_6">
      <!-- 167 -->
      <g transform="translate(244.531969 322.182437) scale(0.1 -0.1)">
       <use xlink:href="#DejaVuSans-31"/>
       <use xlink:href="#DejaVuSans-36" x="63.623047"/>
       <use xlink:href="#DejaVuSans-37" x="127.246094"/>
      </g>
     </g>
    </g>
    <g id="xtick_7">
     <g id="line2d_7">
      <g>
       <use xlink:href="#mf0f0615ab0" x="289.907157" y="307.584" style="stroke: #000000; stroke-width: 0.8"/>
      </g>
     </g>
     <g id="text_7">
      <!-- 200 -->
      <g transform="translate(280.363407 322.182437) scale(0.1 -0.1)">
       <defs>
        <path id="DejaVuSans-32" d="M 1228 531 
L 3431 531 
L 3431 0 
L 469 0 
L 469 531 
Q 828 903 1448 1529 
Q 2069 2156 2228 2338 
Q 2531 2678 2651 2914 
Q 2772 3150 2772 3378 
Q 2772 3750 2511 3984 
Q 2250 4219 1831 4219 
Q 1534 4219 1204 4116 
Q 875 4013 500 3803 
L 500 4441 
Q 881 4594 1212 4672 
Q 1544 4750 1819 4750 
Q 2544 4750 2975 4387 
Q 3406 4025 3406 3419 
Q 3406 3131 3298 2873 
Q 3191 2616 2906 2266 
Q 2828 2175 2409 1742 
Q 1991 1309 1228 531 
z
" transform="scale(0.015625)"/>
       </defs>
       <use xlink:href="#DejaVuSans-32"/>
       <use xlink:href="#DejaVuSans-30" x="63.623047"/>
       <use xlink:href="#DejaVuSans-30" x="127.246094"/>
      </g>
     </g>
    </g>
    <g id="xtick_8">
     <g id="line2d_8">
      <g>
       <use xlink:href="#mf0f0615ab0" x="325.738595" y="307.584" style="stroke: #000000; stroke-width: 0.8"/>
      </g>
     </g>
     <g id="text_8">
      <!-- 233 -->
      <g transform="translate(316.194845 322.182437) scale(0.1 -0.1)">
       <use xlink:href="#DejaVuSans-32"/>
       <use xlink:href="#DejaVuSans-33" x="63.623047"/>
       <use xlink:href="#DejaVuSans-33" x="127.246094"/>
      </g>
     </g>
    </g>
    <g id="xtick_9">
     <g id="line2d_9">
      <g>
       <use xlink:href="#mf0f0615ab0" x="361.570033" y="307.584" style="stroke: #000000; stroke-width: 0.8"/>
      </g>
     </g>
     <g id="text_9">
      <!-- 266 -->
      <g transform="translate(352.026283 322.182437) scale(0.1 -0.1)">
       <use xlink:href="#DejaVuSans-32"/>
       <use xlink:href="#DejaVuSans-36" x="63.623047"/>
       <use xlink:href="#DejaVuSans-36" x="127.246094"/>
      </g>
     </g>
    </g>
    <g id="xtick_10">
     <g id="line2d_10">
      <g>
       <use xlink:href="#mf0f0615ab0" x="398.487273" y="307.584" style="stroke: #000000; stroke-width: 0.8"/>
      </g>
     </g>
     <g id="text_10">
      <!-- 300 -->
      <g transform="translate(388.943523 322.182437) scale(0.1 -0.1)">
       <use xlink:href="#DejaVuSans-33"/>
       <use xlink:href="#DejaVuSans-30" x="63.623047"/>
       <use xlink:href="#DejaVuSans-30" x="127.246094"/>
      </g>
     </g>
    </g>
    <g id="text_11">
     <!-- Epochs -->
     <g transform="translate(218.244375 335.860562) scale(0.1 -0.1)">
      <defs>
       <path id="DejaVuSans-45" d="M 628 4666 
L 3578 4666 
L 3578 4134 
L 1259 4134 
L 1259 2753 
L 3481 2753 
L 3481 2222 
L 1259 2222 
L 1259 531 
L 3634 531 
L 3634 0 
L 628 0 
L 628 4666 
z
" transform="scale(0.015625)"/>
       <path id="DejaVuSans-70" d="M 1159 525 
L 1159 -1331 
L 581 -1331 
L 581 3500 
L 1159 3500 
L 1159 2969 
Q 1341 3281 1617 3432 
Q 1894 3584 2278 3584 
Q 2916 3584 3314 3078 
Q 3713 2572 3713 1747 
Q 3713 922 3314 415 
Q 2916 -91 2278 -91 
Q 1894 -91 1617 61 
Q 1341 213 1159 525 
z
M 3116 1747 
Q 3116 2381 2855 2742 
Q 2594 3103 2138 3103 
Q 1681 3103 1420 2742 
Q 1159 2381 1159 1747 
Q 1159 1113 1420 752 
Q 1681 391 2138 391 
Q 2594 391 2855 752 
Q 3116 1113 3116 1747 
z
" transform="scale(0.015625)"/>
       <path id="DejaVuSans-6f" d="M 1959 3097 
Q 1497 3097 1228 2736 
Q 959 2375 959 1747 
Q 959 1119 1226 758 
Q 1494 397 1959 397 
Q 2419 397 2687 759 
Q 2956 1122 2956 1747 
Q 2956 2369 2687 2733 
Q 2419 3097 1959 3097 
z
M 1959 3584 
Q 2709 3584 3137 3096 
Q 3566 2609 3566 1747 
Q 3566 888 3137 398 
Q 2709 -91 1959 -91 
Q 1206 -91 779 398 
Q 353 888 353 1747 
Q 353 2609 779 3096 
Q 1206 3584 1959 3584 
z
" transform="scale(0.015625)"/>
       <path id="DejaVuSans-63" d="M 3122 3366 
L 3122 2828 
Q 2878 2963 2633 3030 
Q 2388 3097 2138 3097 
Q 1578 3097 1268 2742 
Q 959 2388 959 1747 
Q 959 1106 1268 751 
Q 1578 397 2138 397 
Q 2388 397 2633 464 
Q 2878 531 3122 666 
L 3122 134 
Q 2881 22 2623 -34 
Q 2366 -91 2075 -91 
Q 1284 -91 818 406 
Q 353 903 353 1747 
Q 353 2603 823 3093 
Q 1294 3584 2113 3584 
Q 2378 3584 2631 3529 
Q 2884 3475 3122 3366 
z
" transform="scale(0.015625)"/>
       <path id="DejaVuSans-68" d="M 3513 2113 
L 3513 0 
L 2938 0 
L 2938 2094 
Q 2938 2591 2744 2837 
Q 2550 3084 2163 3084 
Q 1697 3084 1428 2787 
Q 1159 2491 1159 1978 
L 1159 0 
L 581 0 
L 581 4863 
L 1159 4863 
L 1159 2956 
Q 1366 3272 1645 3428 
Q 1925 3584 2291 3584 
Q 2894 3584 3203 3211 
Q 3513 2838 3513 2113 
z
" transform="scale(0.015625)"/>
       <path id="DejaVuSans-73" d="M 2834 3397 
L 2834 2853 
Q 2591 2978 2328 3040 
Q 2066 3103 1784 3103 
Q 1356 3103 1142 2972 
Q 928 2841 928 2578 
Q 928 2378 1081 2264 
Q 1234 2150 1697 2047 
L 1894 2003 
Q 2506 1872 2764 1633 
Q 3022 1394 3022 966 
Q 3022 478 2636 193 
Q 2250 -91 1575 -91 
Q 1294 -91 989 -36 
Q 684 19 347 128 
L 347 722 
Q 666 556 975 473 
Q 1284 391 1588 391 
Q 1994 391 2212 530 
Q 2431 669 2431 922 
Q 2431 1156 2273 1281 
Q 2116 1406 1581 1522 
L 1381 1569 
Q 847 1681 609 1914 
Q 372 2147 372 2553 
Q 372 3047 722 3315 
Q 1072 3584 1716 3584 
Q 2034 3584 2315 3537 
Q 2597 3491 2834 3397 
z
" transform="scale(0.015625)"/>
      </defs>
      <use xlink:href="#DejaVuSans-45"/>
      <use xlink:href="#DejaVuSans-70" x="63.183594"/>
      <use xlink:href="#DejaVuSans-6f" x="126.660156"/>
      <use xlink:href="#DejaVuSans-63" x="187.841797"/>
      <use xlink:href="#DejaVuSans-68" x="242.822266"/>
      <use xlink:href="#DejaVuSans-73" x="306.201172"/>
     </g>
    </g>
   </g>
   <g id="matplotlib.axis_2">
    <g id="ytick_1">
     <g id="line2d_11">
      <defs>
       <path id="me03c86161c" d="M 0 0 
L -3.5 0 
" style="stroke: #000000; stroke-width: 0.8"/>
      </defs>
      <g>
       <use xlink:href="#me03c86161c" x="57.6" y="271.563814" style="stroke: #000000; stroke-width: 0.8"/>
      </g>
     </g>
     <g id="text_12">
      <!-- 20 -->
      <g transform="translate(37.875 275.363032) scale(0.1 -0.1)">
       <use xlink:href="#DejaVuSans-32"/>
       <use xlink:href="#DejaVuSans-30" x="63.623047"/>
      </g>
     </g>
    </g>
    <g id="ytick_2">
     <g id="line2d_12">
      <g>
       <use xlink:href="#me03c86161c" x="57.6" y="214.694846" style="stroke: #000000; stroke-width: 0.8"/>
      </g>
     </g>
     <g id="text_13">
      <!-- 40 -->
      <g transform="translate(37.875 218.494065) scale(0.1 -0.1)">
       <use xlink:href="#DejaVuSans-34"/>
       <use xlink:href="#DejaVuSans-30" x="63.623047"/>
      </g>
     </g>
    </g>
    <g id="ytick_3">
     <g id="line2d_13">
      <g>
       <use xlink:href="#me03c86161c" x="57.6" y="157.825878" style="stroke: #000000; stroke-width: 0.8"/>
      </g>
     </g>
     <g id="text_14">
      <!-- 60 -->
      <g transform="translate(37.875 161.625097) scale(0.1 -0.1)">
       <use xlink:href="#DejaVuSans-36"/>
       <use xlink:href="#DejaVuSans-30" x="63.623047"/>
      </g>
     </g>
    </g>
    <g id="ytick_4">
     <g id="line2d_14">
      <g>
       <use xlink:href="#me03c86161c" x="57.6" y="100.956911" style="stroke: #000000; stroke-width: 0.8"/>
      </g>
     </g>
     <g id="text_15">
      <!-- 80 -->
      <g transform="translate(37.875 104.756129) scale(0.1 -0.1)">
       <defs>
        <path id="DejaVuSans-38" d="M 2034 2216 
Q 1584 2216 1326 1975 
Q 1069 1734 1069 1313 
Q 1069 891 1326 650 
Q 1584 409 2034 409 
Q 2484 409 2743 651 
Q 3003 894 3003 1313 
Q 3003 1734 2745 1975 
Q 2488 2216 2034 2216 
z
M 1403 2484 
Q 997 2584 770 2862 
Q 544 3141 544 3541 
Q 544 4100 942 4425 
Q 1341 4750 2034 4750 
Q 2731 4750 3128 4425 
Q 3525 4100 3525 3541 
Q 3525 3141 3298 2862 
Q 3072 2584 2669 2484 
Q 3125 2378 3379 2068 
Q 3634 1759 3634 1313 
Q 3634 634 3220 271 
Q 2806 -91 2034 -91 
Q 1263 -91 848 271 
Q 434 634 434 1313 
Q 434 1759 690 2068 
Q 947 2378 1403 2484 
z
M 1172 3481 
Q 1172 3119 1398 2916 
Q 1625 2713 2034 2713 
Q 2441 2713 2670 2916 
Q 2900 3119 2900 3481 
Q 2900 3844 2670 4047 
Q 2441 4250 2034 4250 
Q 1625 4250 1398 4047 
Q 1172 3844 1172 3481 
z
" transform="scale(0.015625)"/>
       </defs>
       <use xlink:href="#DejaVuSans-38"/>
       <use xlink:href="#DejaVuSans-30" x="63.623047"/>
      </g>
     </g>
    </g>
    <g id="ytick_5">
     <g id="line2d_15">
      <g>
       <use xlink:href="#me03c86161c" x="57.6" y="44.087943" style="stroke: #000000; stroke-width: 0.8"/>
      </g>
     </g>
     <g id="text_16">
      <!-- 100 -->
      <g transform="translate(31.5125 47.887162) scale(0.1 -0.1)">
       <use xlink:href="#DejaVuSans-31"/>
       <use xlink:href="#DejaVuSans-30" x="63.623047"/>
       <use xlink:href="#DejaVuSans-30" x="127.246094"/>
      </g>
     </g>
    </g>
    <g id="text_17">
     <!-- Accuracy -->
     <g transform="translate(25.432812 197.356125) rotate(-90) scale(0.1 -0.1)">
      <defs>
       <path id="DejaVuSans-41" d="M 2188 4044 
L 1331 1722 
L 3047 1722 
L 2188 4044 
z
M 1831 4666 
L 2547 4666 
L 4325 0 
L 3669 0 
L 3244 1197 
L 1141 1197 
L 716 0 
L 50 0 
L 1831 4666 
z
" transform="scale(0.015625)"/>
       <path id="DejaVuSans-75" d="M 544 1381 
L 544 3500 
L 1119 3500 
L 1119 1403 
Q 1119 906 1312 657 
Q 1506 409 1894 409 
Q 2359 409 2629 706 
Q 2900 1003 2900 1516 
L 2900 3500 
L 3475 3500 
L 3475 0 
L 2900 0 
L 2900 538 
Q 2691 219 2414 64 
Q 2138 -91 1772 -91 
Q 1169 -91 856 284 
Q 544 659 544 1381 
z
M 1991 3584 
L 1991 3584 
z
" transform="scale(0.015625)"/>
       <path id="DejaVuSans-72" d="M 2631 2963 
Q 2534 3019 2420 3045 
Q 2306 3072 2169 3072 
Q 1681 3072 1420 2755 
Q 1159 2438 1159 1844 
L 1159 0 
L 581 0 
L 581 3500 
L 1159 3500 
L 1159 2956 
Q 1341 3275 1631 3429 
Q 1922 3584 2338 3584 
Q 2397 3584 2469 3576 
Q 2541 3569 2628 3553 
L 2631 2963 
z
" transform="scale(0.015625)"/>
       <path id="DejaVuSans-61" d="M 2194 1759 
Q 1497 1759 1228 1600 
Q 959 1441 959 1056 
Q 959 750 1161 570 
Q 1363 391 1709 391 
Q 2188 391 2477 730 
Q 2766 1069 2766 1631 
L 2766 1759 
L 2194 1759 
z
M 3341 1997 
L 3341 0 
L 2766 0 
L 2766 531 
Q 2569 213 2275 61 
Q 1981 -91 1556 -91 
Q 1019 -91 701 211 
Q 384 513 384 1019 
Q 384 1609 779 1909 
Q 1175 2209 1959 2209 
L 2766 2209 
L 2766 2266 
Q 2766 2663 2505 2880 
Q 2244 3097 1772 3097 
Q 1472 3097 1187 3025 
Q 903 2953 641 2809 
L 641 3341 
Q 956 3463 1253 3523 
Q 1550 3584 1831 3584 
Q 2591 3584 2966 3190 
Q 3341 2797 3341 1997 
z
" transform="scale(0.015625)"/>
       <path id="DejaVuSans-79" d="M 2059 -325 
Q 1816 -950 1584 -1140 
Q 1353 -1331 966 -1331 
L 506 -1331 
L 506 -850 
L 844 -850 
Q 1081 -850 1212 -737 
Q 1344 -625 1503 -206 
L 1606 56 
L 191 3500 
L 800 3500 
L 1894 763 
L 2988 3500 
L 3597 3500 
L 2059 -325 
z
" transform="scale(0.015625)"/>
      </defs>
      <use xlink:href="#DejaVuSans-41"/>
      <use xlink:href="#DejaVuSans-63" x="66.658203"/>
      <use xlink:href="#DejaVuSans-63" x="121.638672"/>
      <use xlink:href="#DejaVuSans-75" x="176.619141"/>
      <use xlink:href="#DejaVuSans-72" x="239.998047"/>
      <use xlink:href="#DejaVuSans-61" x="281.111328"/>
      <use xlink:href="#DejaVuSans-63" x="342.390625"/>
      <use xlink:href="#DejaVuSans-79" x="397.371094"/>
     </g>
    </g>
   </g>
   <g id="line2d_16">
    <path d="M 73.832727 286.690959 
L 74.918528 221.79778 
L 76.00433 173.720755 
L 77.090131 145.752597 
L 78.175932 128.799957 
L 79.261733 117.397729 
L 80.347534 109.885339 
L 81.433335 105.182275 
L 82.519137 98.232887 
L 84.690739 89.736663 
L 85.77654 87.820179 
L 86.862341 83.822291 
L 87.948142 81.757947 
L 89.033943 78.738205 
L 90.119745 76.992328 
L 91.205546 74.996227 
L 92.291347 73.529008 
L 93.377148 73.091117 
L 94.462949 72.039041 
L 95.54875 91.772572 
L 96.634552 92.654041 
L 97.720353 91.203883 
L 98.806154 89.315833 
L 99.891955 87.183247 
L 102.063557 84.811811 
L 103.149358 82.946509 
L 104.23516 81.945615 
L 105.320961 80.17699 
L 106.406762 79.414946 
L 107.492563 77.623573 
L 108.578364 77.674755 
L 109.664165 76.520315 
L 111.835768 74.643639 
L 114.00737 73.574503 
L 115.093171 71.095016 
L 116.178972 70.822045 
L 117.264773 69.576614 
L 118.350575 69.320704 
L 119.436376 68.297063 
L 120.522177 67.626009 
L 123.77958 64.970228 
L 124.865382 63.827162 
L 127.036984 63.167482 
L 128.122785 62.615853 
L 129.208586 61.728697 
L 130.294387 61.359049 
L 131.380189 61.211189 
L 132.46599 59.994193 
L 133.551791 59.857708 
L 134.637592 60.096557 
L 135.723393 59.260584 
L 136.809194 59.198028 
L 137.894995 58.84544 
L 138.980797 75.053096 
L 140.066598 76.571497 
L 141.152399 75.690028 
L 142.2382 76.127919 
L 143.324001 75.763958 
L 144.409802 76.634053 
L 145.495604 75.337441 
L 146.581405 74.791499 
L 147.667206 74.82562 
L 148.753007 73.443704 
L 149.838808 72.869328 
L 152.01041 73.216228 
L 153.096212 72.334759 
L 154.182013 72.584983 
L 155.267814 71.800191 
L 157.439416 71.299744 
L 158.525217 70.691246 
L 159.611019 70.520639 
L 160.69682 69.798403 
L 162.868422 69.656231 
L 163.954223 68.643963 
L 165.040024 69.002238 
L 166.125825 68.860065 
L 167.211627 69.087541 
L 168.297428 67.517958 
L 170.46903 66.892399 
L 171.554831 66.164476 
L 172.640632 67.114188 
L 173.726434 65.999556 
L 174.812235 65.874445 
L 175.898036 65.368311 
L 176.983837 65.550291 
L 178.069638 64.884925 
L 179.155439 65.271634 
L 180.24124 64.094446 
L 181.327042 63.417705 
L 182.412843 63.724798 
L 183.498644 63.156108 
L 184.584445 62.888824 
L 185.670246 63.127673 
L 186.756047 62.297387 
L 187.841849 61.904991 
L 188.92765 61.279432 
L 190.013451 60.938218 
L 191.099252 61.086078 
L 193.270854 60.318346 
L 194.356656 60.324033 
L 195.442457 60.187548 
L 196.528258 59.453938 
L 197.614059 59.334513 
L 198.69986 59.016047 
L 199.785661 58.925057 
L 200.871462 58.635025 
L 201.957264 57.469211 
L 203.043065 57.423716 
L 204.128866 57.60001 
L 205.214667 56.991512 
L 206.300468 56.860713 
L 207.386269 57.207614 
L 209.557872 56.081608 
L 210.643673 56.13279 
L 212.815275 55.791577 
L 213.901076 55.854132 
L 214.986877 55.171705 
L 216.072679 55.183079 
L 217.15848 54.898734 
L 218.244281 55.336625 
L 219.330082 55.592535 
L 220.415883 54.807743 
L 222.587486 54.671258 
L 223.673287 54.96129 
L 224.759088 54.477903 
L 225.844889 68.786136 
L 226.93069 70.554761 
L 228.016491 71.186006 
L 229.102292 71.595463 
L 230.188094 70.657125 
L 231.273895 70.901661 
L 232.359696 70.520639 
L 233.445497 70.691246 
L 235.617099 69.912141 
L 236.702901 69.923515 
L 237.788702 69.21834 
L 238.874503 69.576614 
L 239.960304 69.542493 
L 241.046105 69.889394 
L 242.131906 69.360512 
L 244.303509 68.752014 
L 245.38931 68.109395 
L 246.475111 68.769075 
L 247.560912 68.262941 
L 248.646713 68.740641 
L 249.732514 68.075274 
L 250.818316 67.864858 
L 251.904117 68.052526 
L 252.989918 67.802303 
L 254.075719 68.171951 
L 256.247321 67.205178 
L 257.333123 67.512271 
L 258.418924 66.755914 
L 260.590526 67.290482 
L 261.676327 66.892399 
L 262.762128 66.221345 
L 263.847929 66.209972 
L 264.933731 66.545498 
L 266.019532 66.096234 
L 267.105333 66.409013 
L 268.191134 66.204285 
L 269.276935 65.686777 
L 270.362736 65.652656 
L 271.448538 65.857384 
L 272.534339 65.641282 
L 273.62014 65.595787 
L 274.705941 66.022304 
L 275.791742 65.356937 
L 276.877543 64.862177 
L 277.963344 65.072592 
L 279.049146 64.93042 
L 280.134947 64.066011 
L 281.220748 63.770293 
L 282.306549 64.697257 
L 283.39235 64.236618 
L 284.478151 63.377897 
L 286.649754 64.293487 
L 287.735555 63.969334 
L 289.907157 63.62812 
L 290.992958 63.912465 
L 292.07876 63.269846 
L 293.164561 63.1163 
L 294.250362 62.689782 
L 295.336163 62.445246 
L 296.421964 62.729591 
L 298.593566 62.71253 
L 299.679368 62.081284 
L 301.85097 61.927738 
L 302.936771 62.132467 
L 304.022572 62.064224 
L 305.108373 61.39317 
L 306.194175 61.262371 
L 307.279976 61.381796 
L 311.62318 61.216876 
L 312.708981 60.9894 
L 313.794783 60.534449 
L 314.880584 59.709849 
L 315.966385 60.437771 
L 317.052186 60.676621 
L 318.137987 60.40365 
L 319.223788 60.289912 
L 321.395391 59.601797 
L 322.481192 59.886142 
L 323.566993 59.351574 
L 324.652794 58.998986 
L 325.738595 59.544928 
L 326.824396 58.953491 
L 327.910198 58.839753 
L 330.0818 58.18576 
L 331.167601 58.197134 
L 332.253402 58.532661 
L 333.339203 58.043588 
L 336.596607 57.656879 
L 337.682408 57.582949 
L 338.768209 57.622757 
L 339.85401 57.19624 
L 340.939811 56.547934 
L 342.025613 57.03132 
L 343.111414 56.411448 
L 344.197215 56.582055 
L 345.283016 56.269276 
L 346.368817 56.593429 
L 347.454618 56.104356 
L 349.626221 55.490171 
L 350.712022 55.928062 
L 352.883624 55.433302 
L 353.969425 55.63803 
L 355.055227 55.575475 
L 356.141028 55.365059 
L 357.226829 54.79637 
L 359.398431 55.046593 
L 360.484232 54.733814 
L 361.570033 54.688319 
L 362.655835 54.102568 
L 365.913238 54.131003 
L 366.999039 53.568 
L 368.08484 54.312983 
L 370.256443 54.802057 
L 371.342244 55.228574 
L 372.428045 55.47311 
L 373.513846 55.979244 
L 374.599647 56.019053 
L 375.685448 55.461737 
L 376.77125 55.683526 
L 377.857051 55.62097 
L 380.028653 56.121417 
L 381.114454 55.984931 
L 382.200255 55.529979 
L 383.286057 55.814324 
L 384.371858 55.689212 
L 385.457659 56.320458 
L 386.54346 55.490171 
L 387.629261 55.706273 
L 388.715062 56.121417 
L 389.800863 55.928062 
L 390.886665 55.899628 
L 391.972466 56.047487 
L 393.058267 55.96787 
L 394.144068 56.263589 
L 395.229869 55.45605 
L 396.31567 56.053174 
L 398.487273 55.831385 
L 398.487273 55.831385 
" clip-path="url(#p9b3d18753d)" style="fill: none; stroke: #1f77b4; stroke-width: 1.5; stroke-linecap: square"/>
   </g>
   <g id="line2d_17">
    <path d="M 73.832727 279.582338 
L 74.918528 245.830606 
L 77.090131 218.021681 
L 78.175932 196.809556 
L 79.261733 191.520742 
L 80.347534 192.885597 
L 81.433335 183.445348 
L 82.519137 176.393596 
L 83.604938 172.782417 
L 84.690739 166.441527 
L 85.77654 170.280182 
L 86.862341 163.54121 
L 89.033943 154.129395 
L 90.119745 152.906713 
L 91.205546 152.25272 
L 92.291347 151.883071 
L 93.377148 150.347609 
L 94.462949 150.091699 
L 95.54875 175.057176 
L 96.634552 164.593286 
L 97.720353 169.398713 
L 98.806154 166.441527 
L 99.891955 164.280506 
L 100.977756 161.181147 
L 103.149358 162.546003 
L 104.23516 163.342168 
L 105.320961 156.034506 
L 106.406762 156.404154 
L 107.492563 152.992016 
L 108.578364 157.71214 
L 109.664165 149.124926 
L 110.749967 153.219492 
L 111.835768 150.091699 
L 112.921569 148.840581 
L 114.00737 148.38563 
L 115.093171 145.428443 
L 116.178972 143.94985 
L 117.264773 142.130043 
L 118.350575 143.466464 
L 119.436376 138.888512 
L 120.522177 139.940588 
L 121.607978 139.969023 
L 122.693779 139.627809 
L 123.77958 136.699057 
L 124.865382 135.789153 
L 125.951183 133.79874 
L 127.036984 135.078291 
L 128.122785 133.713436 
L 129.208586 131.83676 
L 130.294387 132.149539 
L 132.46599 131.01216 
L 134.637592 130.215995 
L 135.723393 129.903215 
L 136.809194 129.220788 
L 137.894995 129.732608 
L 138.980797 151.655595 
L 140.066598 149.778919 
L 141.152399 152.423326 
L 142.2382 151.826202 
L 143.324001 150.717257 
L 144.409802 149.949526 
L 145.495604 148.129719 
L 146.581405 149.494575 
L 147.667206 150.376044 
L 148.753007 152.338023 
L 149.838808 146.963906 
L 150.924609 148.726844 
L 152.01041 146.622692 
L 153.096212 146.651126 
L 154.182013 145.286271 
L 155.267814 143.551767 
L 156.353615 146.395216 
L 157.439416 147.219816 
L 158.525217 143.921416 
L 159.611019 148.158154 
L 160.69682 142.641864 
L 161.782621 141.049533 
L 162.868422 144.148892 
L 165.040024 140.594581 
L 166.125825 140.509278 
L 167.211627 141.419181 
L 168.297428 140.679885 
L 170.46903 140.168064 
L 171.554831 138.803209 
L 172.640632 139.059119 
L 173.726434 137.978609 
L 174.812235 139.969023 
L 175.898036 134.964553 
L 176.983837 137.60896 
L 178.069638 138.262953 
L 179.155439 137.068705 
L 181.327042 132.121105 
L 182.412843 134.509602 
L 183.498644 131.523981 
L 184.584445 132.775098 
L 185.670246 132.064236 
L 186.756047 132.689795 
L 187.841849 130.869988 
L 188.92765 130.130691 
L 190.013451 130.727815 
L 191.099252 129.761043 
L 192.185053 128.225581 
L 193.270854 128.652098 
L 194.356656 127.628457 
L 195.442457 127.002898 
L 196.528258 127.600022 
L 197.614059 127.685326 
L 198.69986 124.67127 
L 199.785661 125.268394 
L 200.871462 123.903539 
L 201.957264 123.903539 
L 203.043065 123.221112 
L 204.128866 122.19747 
L 205.214667 121.62878 
L 206.300468 122.026863 
L 207.386269 122.254339 
L 208.472071 121.088525 
L 209.557872 120.406098 
L 211.729474 120.491401 
L 212.815275 120.377663 
L 214.986877 118.64316 
L 216.072679 119.695236 
L 218.244281 119.069677 
L 219.330082 118.301946 
L 220.415883 118.89907 
L 221.501684 119.012808 
L 222.587486 118.614725 
L 223.673287 117.989167 
L 224.759088 118.444118 
L 225.844889 144.689147 
L 226.93069 147.902244 
L 228.016491 147.504161 
L 229.102292 144.831319 
L 230.188094 143.722374 
L 231.273895 142.954643 
L 233.445497 144.575409 
L 234.531298 143.210554 
L 235.617099 143.978285 
L 236.702901 145.286271 
L 237.788702 145.712788 
L 238.874503 143.068381 
L 239.960304 143.94985 
L 241.046105 142.698733 
L 242.131906 144.433236 
L 243.217708 144.632278 
L 244.303509 140.253367 
L 245.38931 141.987871 
L 246.475111 140.708319 
L 247.560912 140.765188 
L 248.646713 139.542505 
L 249.732514 147.361988 
L 250.818316 139.940588 
L 251.904117 140.281802 
L 252.989918 139.82685 
L 254.075719 138.319822 
L 255.16152 143.608636 
L 256.247321 140.822057 
L 257.333123 137.694264 
L 259.504725 140.423974 
L 260.590526 140.594581 
L 261.676327 137.466788 
L 262.762128 141.362312 
L 263.847929 139.969023 
L 264.933731 139.25816 
L 266.019532 137.92174 
L 267.105333 135.817588 
L 268.191134 140.338671 
L 270.362736 135.789153 
L 271.448538 136.016629 
L 272.534339 135.931326 
L 273.62014 135.334202 
L 274.705941 138.74634 
L 275.791742 135.618546 
L 276.877543 138.945381 
L 277.963344 131.922064 
L 279.049146 134.737077 
L 280.134947 136.158802 
L 281.220748 135.533243 
L 282.306549 133.372222 
L 283.39235 136.329409 
L 284.478151 133.912477 
L 285.563953 134.253691 
L 286.649754 132.917271 
L 287.735555 133.343788 
L 288.821356 133.372222 
L 289.907157 133.79874 
L 290.992958 133.087877 
L 292.07876 137.694264 
L 293.164561 134.282126 
L 294.250362 133.116312 
L 295.336163 133.144746 
L 296.421964 132.746664 
L 297.507765 131.865195 
L 298.593566 134.594905 
L 299.679368 132.234843 
L 300.765169 133.059443 
L 301.85097 130.045388 
L 302.936771 130.159126 
L 304.022572 131.666153 
L 305.108373 131.978933 
L 306.194175 131.495546 
L 307.279976 130.301298 
L 308.365777 129.732608 
L 309.451578 131.26807 
L 310.537379 127.287243 
L 311.62318 130.955291 
L 312.708981 129.590436 
L 313.794783 127.258808 
L 314.880584 130.016953 
L 315.966385 133.116312 
L 317.052186 127.941236 
L 318.137987 127.600022 
L 319.223788 128.424622 
L 320.30959 126.917594 
L 321.395391 128.083408 
L 322.481192 126.604815 
L 323.566993 127.116636 
L 324.652794 125.552739 
L 325.738595 125.467436 
L 326.824396 126.718553 
L 327.910198 125.552739 
L 328.995999 124.102581 
L 330.0818 125.638043 
L 331.167601 124.045712 
L 332.253402 126.860725 
L 333.339203 125.268394 
L 334.425005 122.339643 
L 335.510806 123.903539 
L 336.596607 124.386925 
L 337.682408 123.988843 
L 338.768209 121.486608 
L 339.85401 123.647629 
L 340.939811 121.259132 
L 342.025613 122.112167 
L 343.111414 121.003222 
L 344.197215 122.055298 
L 345.283016 123.505456 
L 346.368817 121.770953 
L 347.454618 121.11696 
L 348.54042 118.472553 
L 349.626221 120.29236 
L 350.712022 120.576705 
L 351.797823 118.64316 
L 352.883624 119.808973 
L 353.969425 117.989167 
L 355.055227 119.012808 
L 356.141028 118.842201 
L 357.226829 117.903863 
L 358.31263 117.221435 
L 359.398431 117.306739 
L 360.484232 115.828146 
L 361.570033 115.885015 
L 362.655835 117.050829 
L 363.741636 115.34476 
L 364.827437 116.368401 
L 365.913238 115.231022 
L 366.999039 116.16936 
L 368.08484 115.771277 
L 369.170642 115.998753 
L 370.256443 118.415684 
L 371.342244 119.638367 
L 372.428045 120.519836 
L 373.513846 123.277981 
L 374.599647 118.614725 
L 375.685448 120.519836 
L 376.77125 120.178622 
L 377.857051 119.268718 
L 378.942852 120.093318 
L 380.028653 120.29236 
L 381.114454 119.297153 
L 382.200255 119.15498 
L 384.371858 120.462967 
L 385.457659 118.444118 
L 386.54346 121.287567 
L 387.629261 118.870636 
L 388.715062 118.89907 
L 389.800863 120.832615 
L 390.886665 120.320794 
L 391.972466 118.785332 
L 393.058267 121.515043 
L 394.144068 120.80418 
L 395.229869 120.491401 
L 396.31567 120.917918 
L 397.401472 120.462967 
L 398.487273 119.041242 
L 398.487273 119.041242 
" clip-path="url(#p9b3d18753d)" style="fill: none; stroke: #ff7f0e; stroke-width: 1.5; stroke-linecap: square"/>
   </g>
   <g id="line2d_18">
    <path d="M 73.832727 295.488 
L 74.918528 267.347666 
L 76.00433 257.405402 
L 77.090131 260.17041 
L 78.175932 229.814147 
L 79.261733 225.44112 
L 80.347534 216.675455 
L 81.433335 216.420525 
L 82.519137 212.322037 
L 83.604938 213.792787 
L 84.690739 211.027778 
L 85.77654 213.086827 
L 86.862341 201.418884 
L 87.948142 203.223003 
L 89.033943 198.908805 
L 90.119745 200.379554 
L 91.205546 202.811193 
L 92.291347 197.712596 
L 93.377148 198.830365 
L 94.462949 198.948025 
L 95.54875 218.656064 
L 96.634552 207.65486 
L 97.720353 213.302537 
L 98.806154 210.047279 
L 99.891955 215.930275 
L 102.063557 205.419321 
L 103.149358 210.361038 
L 104.23516 213.086827 
L 105.320961 210.223769 
L 106.406762 209.145219 
L 107.492563 205.125171 
L 108.578364 213.380977 
L 109.664165 209.870789 
L 110.749967 200.242284 
L 111.835768 209.478589 
L 112.921569 202.556263 
L 114.00737 205.556591 
L 115.093171 198.967635 
L 116.178972 198.555825 
L 117.264773 200.634484 
L 118.350575 197.438056 
L 119.436376 191.104029 
L 120.522177 196.320286 
L 121.607978 189.53523 
L 122.693779 190.12353 
L 123.77958 190.30002 
L 124.865382 187.652671 
L 125.951183 190.82949 
L 127.036984 190.61378 
L 128.122785 186.672172 
L 129.208586 187.731111 
L 130.294387 187.946821 
L 131.380189 188.417461 
L 132.46599 190.10392 
L 133.551791 188.299801 
L 134.637592 187.280082 
L 135.723393 187.927211 
L 136.809194 185.593623 
L 137.894995 186.652562 
L 138.980797 200.693314 
L 140.066598 201.752253 
L 141.152399 203.301442 
L 142.2382 196.555606 
L 143.324001 205.203611 
L 144.409802 207.18422 
L 145.495604 208.792239 
L 146.581405 205.988011 
L 147.667206 198.045965 
L 148.753007 213.420197 
L 149.838808 203.262222 
L 150.924609 205.360491 
L 152.01041 197.026246 
L 153.096212 198.202845 
L 154.182013 196.594826 
L 155.267814 199.301005 
L 156.353615 207.38032 
L 157.439416 204.379992 
L 158.525217 207.00773 
L 159.611019 203.007293 
L 160.69682 192.633609 
L 161.782621 195.516277 
L 162.868422 197.496886 
L 163.954223 202.948463 
L 165.040024 192.515949 
L 166.125825 192.319849 
L 167.211627 198.144015 
L 168.297428 198.693095 
L 169.383229 189.57445 
L 170.46903 203.124953 
L 171.554831 196.379116 
L 172.640632 187.397742 
L 173.726434 187.240862 
L 174.812235 196.869366 
L 175.898036 188.809661 
L 176.983837 191.182469 
L 178.069638 194.457338 
L 179.155439 193.967088 
L 180.24124 192.751268 
L 181.327042 193.025808 
L 182.412843 188.397851 
L 183.498644 182.142265 
L 184.584445 185.574013 
L 185.670246 190.79027 
L 186.756047 190.57456 
L 187.841849 187.966431 
L 188.92765 187.123202 
L 190.013451 189.044981 
L 191.099252 185.064153 
L 192.185053 179.671406 
L 193.270854 186.123092 
L 194.356656 182.769784 
L 195.442457 185.456353 
L 196.528258 187.633061 
L 197.614059 182.671734 
L 198.69986 183.691454 
L 199.785661 185.495573 
L 200.871462 183.926774 
L 201.957264 185.103373 
L 203.043065 183.220814 
L 204.128866 184.632733 
L 205.214667 179.887116 
L 206.300468 179.592966 
L 207.386269 182.259924 
L 208.472071 179.671406 
L 209.557872 181.534355 
L 210.643673 180.612685 
L 211.729474 178.475197 
L 212.815275 179.102716 
L 213.901076 176.965227 
L 214.986877 177.043667 
L 216.072679 179.906726 
L 217.15848 177.592747 
L 218.244281 177.965337 
L 219.330082 177.416257 
L 220.415883 179.004666 
L 222.587486 177.024057 
L 223.673287 178.239877 
L 224.759088 177.141717 
L 225.844889 207.145 
L 226.93069 203.948572 
L 228.016491 190.79027 
L 229.102292 205.733081 
L 230.188094 204.615312 
L 231.273895 191.849209 
L 232.359696 193.888648 
L 233.445497 196.379116 
L 234.531298 194.418118 
L 235.617099 199.379445 
L 236.702901 193.123858 
L 237.788702 203.281832 
L 238.874503 199.222565 
L 239.960304 204.399602 
L 241.046105 197.183126 
L 242.131906 196.535996 
L 243.217708 198.379335 
L 244.303509 196.202627 
L 245.38931 202.399383 
L 246.475111 199.477495 
L 247.560912 197.261566 
L 248.646713 193.300348 
L 249.732514 202.418993 
L 250.818316 200.967854 
L 251.904117 191.515839 
L 252.989918 201.889523 
L 254.075719 200.732534 
L 255.16152 197.241956 
L 256.247321 195.202517 
L 257.333123 198.987245 
L 258.418924 194.496557 
L 259.504725 193.221908 
L 260.590526 191.123639 
L 261.676327 200.693314 
L 262.762128 204.772192 
L 263.847929 198.771535 
L 264.933731 194.104358 
L 266.019532 190.71183 
L 267.105333 191.339349 
L 268.191134 186.887882 
L 269.276935 190.61378 
L 270.362736 188.437071 
L 271.448538 195.614327 
L 272.534339 189.71172 
L 273.62014 192.104139 
L 274.705941 185.554403 
L 275.791742 192.829708 
L 276.877543 198.438165 
L 277.963344 187.495791 
L 279.049146 188.162531 
L 280.134947 195.712377 
L 281.220748 184.103263 
L 282.306549 190.59417 
L 283.39235 189.82938 
L 284.478151 194.359288 
L 285.563953 188.358631 
L 286.649754 183.613014 
L 287.735555 188.633171 
L 288.821356 189.8686 
L 289.907157 194.437728 
L 290.992958 187.809551 
L 292.07876 194.457338 
L 293.164561 187.770331 
L 294.250362 190.22158 
L 295.336163 191.378569 
L 296.421964 182.318754 
L 297.507765 186.142702 
L 298.593566 186.338802 
L 299.679368 189.35874 
L 300.765169 183.122764 
L 301.85097 182.279534 
L 302.936771 184.770003 
L 304.022572 183.789504 
L 305.108373 182.456024 
L 306.194175 183.848334 
L 307.279976 185.044543 
L 308.365777 190.18236 
L 309.451578 188.319411 
L 310.537379 177.984947 
L 311.62318 185.456353 
L 312.708981 185.887772 
L 313.794783 183.005104 
L 314.880584 183.495354 
L 315.966385 192.359069 
L 318.137987 183.358084 
L 319.223788 183.495354 
L 320.30959 192.202189 
L 322.481192 186.260362 
L 323.566993 182.632514 
L 324.652794 185.103373 
L 325.738595 184.985713 
L 326.824396 186.574122 
L 327.910198 183.750284 
L 328.995999 181.710845 
L 330.0818 186.966322 
L 331.167601 182.750174 
L 332.253402 182.750174 
L 333.339203 181.455915 
L 334.425005 183.318864 
L 335.510806 182.397194 
L 336.596607 180.769565 
L 337.682408 182.907054 
L 338.768209 173.847239 
L 339.85401 183.671844 
L 340.939811 183.299254 
L 342.025613 178.651687 
L 343.111414 179.769456 
L 344.197215 180.102826 
L 345.283016 180.220486 
L 346.368817 183.240424 
L 347.454618 177.102497 
L 348.54042 180.534245 
L 349.626221 177.043667 
L 350.712022 180.298926 
L 351.797823 179.004666 
L 352.883624 175.729798 
L 353.969425 175.612138 
L 355.055227 175.200328 
L 356.141028 175.612138 
L 357.226829 175.337598 
L 358.31263 179.494916 
L 359.398431 179.906726 
L 360.484232 178.063387 
L 361.570033 179.553746 
L 362.655835 176.200438 
L 363.741636 178.337927 
L 364.827437 177.063277 
L 365.913238 175.514088 
L 366.999039 175.416038 
L 368.08484 175.043449 
L 369.170642 172.55298 
L 370.256443 173.631529 
L 371.342244 179.691016 
L 372.428045 180.495025 
L 373.513846 182.887444 
L 375.685448 176.082778 
L 376.77125 180.495025 
L 377.857051 181.044105 
L 378.942852 177.396647 
L 380.028653 172.3961 
L 381.114454 180.808785 
L 382.200255 180.436195 
L 383.286057 177.455477 
L 384.371858 181.632405 
L 385.457659 181.514745 
L 386.54346 183.416914 
L 387.629261 176.612248 
L 388.715062 178.985056 
L 389.800863 177.063277 
L 390.886665 181.181375 
L 391.972466 177.377037 
L 393.058267 182.632514 
L 394.144068 181.906945 
L 395.229869 176.651468 
L 396.31567 176.494588 
L 397.401472 171.160671 
L 398.487273 179.377256 
L 398.487273 179.377256 
" clip-path="url(#p9b3d18753d)" style="fill: none; stroke: #2ca02c; stroke-width: 1.5; stroke-linecap: square"/>
   </g>
   <g id="line2d_19">
    <path d="M 368.08484 115.060415 
L 369.170642 113.780863 
L 370.256443 114.008339 
L 371.342244 116.851787 
L 372.428045 117.989167 
L 373.513846 118.358815 
L 374.599647 120.320794 
L 375.685448 118.89907 
L 377.857051 117.420477 
L 378.942852 116.510573 
L 380.028653 116.027187 
L 381.114454 118.671594 
L 382.200255 119.439325 
L 383.286057 118.415684 
L 385.457659 120.633574 
L 386.54346 119.695236 
L 387.629261 118.102904 
L 388.715062 120.263925 
L 389.800863 116.595877 
L 390.886665 117.136132 
L 391.972466 116.567442 
L 395.229869 122.481815 
L 396.31567 123.164243 
L 397.401472 123.562325 
L 398.487273 119.183415 
L 398.487273 119.183415 
" clip-path="url(#p9b3d18753d)" style="fill: none; stroke: #d62728; stroke-width: 1.5; stroke-linecap: square"/>
   </g>
   <g id="line2d_20">
    <path d="M 368.08484 173.984509 
L 369.170642 173.06284 
L 370.256443 171.82741 
L 371.342244 175.886678 
L 372.428045 177.416257 
L 374.599647 175.925898 
L 375.685448 173.02362 
L 376.77125 170.768471 
L 377.857051 176.533808 
L 380.028653 176.906397 
L 381.114454 173.670749 
L 382.200255 174.004119 
L 383.286057 176.455368 
L 384.371858 178.455587 
L 385.457659 175.161108 
L 386.54346 174.337489 
L 387.629261 177.357427 
L 389.800863 175.729798 
L 390.886665 177.239767 
L 391.972466 174.023729 
L 393.058267 176.886788 
L 394.144068 175.592528 
L 395.229869 172.47454 
L 397.401472 176.592638 
L 398.487273 170.474321 
L 398.487273 170.474321 
" clip-path="url(#p9b3d18753d)" style="fill: none; stroke: #9467bd; stroke-width: 1.5; stroke-linecap: square"/>
   </g>
   <g id="patch_3">
    <path d="M 57.6 307.584 
L 57.6 41.472 
" style="fill: none; stroke: #000000; stroke-width: 0.8; stroke-linejoin: miter; stroke-linecap: square"/>
   </g>
   <g id="patch_4">
    <path d="M 414.72 307.584 
L 414.72 41.472 
" style="fill: none; stroke: #000000; stroke-width: 0.8; stroke-linejoin: miter; stroke-linecap: square"/>
   </g>
   <g id="patch_5">
    <path d="M 57.6 307.584 
L 414.72 307.584 
" style="fill: none; stroke: #000000; stroke-width: 0.8; stroke-linejoin: miter; stroke-linecap: square"/>
   </g>
   <g id="patch_6">
    <path d="M 57.6 41.472 
L 414.72 41.472 
" style="fill: none; stroke: #000000; stroke-width: 0.8; stroke-linejoin: miter; stroke-linecap: square"/>
   </g>
   <g id="text_18">
    <!-- Learning Curves -->
    <g transform="translate(187.37625 35.472) scale(0.12 -0.12)">
     <defs>
      <path id="DejaVuSans-4c" d="M 628 4666 
L 1259 4666 
L 1259 531 
L 3531 531 
L 3531 0 
L 628 0 
L 628 4666 
z
" transform="scale(0.015625)"/>
      <path id="DejaVuSans-65" d="M 3597 1894 
L 3597 1613 
L 953 1613 
Q 991 1019 1311 708 
Q 1631 397 2203 397 
Q 2534 397 2845 478 
Q 3156 559 3463 722 
L 3463 178 
Q 3153 47 2828 -22 
Q 2503 -91 2169 -91 
Q 1331 -91 842 396 
Q 353 884 353 1716 
Q 353 2575 817 3079 
Q 1281 3584 2069 3584 
Q 2775 3584 3186 3129 
Q 3597 2675 3597 1894 
z
M 3022 2063 
Q 3016 2534 2758 2815 
Q 2500 3097 2075 3097 
Q 1594 3097 1305 2825 
Q 1016 2553 972 2059 
L 3022 2063 
z
" transform="scale(0.015625)"/>
      <path id="DejaVuSans-6e" d="M 3513 2113 
L 3513 0 
L 2938 0 
L 2938 2094 
Q 2938 2591 2744 2837 
Q 2550 3084 2163 3084 
Q 1697 3084 1428 2787 
Q 1159 2491 1159 1978 
L 1159 0 
L 581 0 
L 581 3500 
L 1159 3500 
L 1159 2956 
Q 1366 3272 1645 3428 
Q 1925 3584 2291 3584 
Q 2894 3584 3203 3211 
Q 3513 2838 3513 2113 
z
" transform="scale(0.015625)"/>
      <path id="DejaVuSans-69" d="M 603 3500 
L 1178 3500 
L 1178 0 
L 603 0 
L 603 3500 
z
M 603 4863 
L 1178 4863 
L 1178 4134 
L 603 4134 
L 603 4863 
z
" transform="scale(0.015625)"/>
      <path id="DejaVuSans-67" d="M 2906 1791 
Q 2906 2416 2648 2759 
Q 2391 3103 1925 3103 
Q 1463 3103 1205 2759 
Q 947 2416 947 1791 
Q 947 1169 1205 825 
Q 1463 481 1925 481 
Q 2391 481 2648 825 
Q 2906 1169 2906 1791 
z
M 3481 434 
Q 3481 -459 3084 -895 
Q 2688 -1331 1869 -1331 
Q 1566 -1331 1297 -1286 
Q 1028 -1241 775 -1147 
L 775 -588 
Q 1028 -725 1275 -790 
Q 1522 -856 1778 -856 
Q 2344 -856 2625 -561 
Q 2906 -266 2906 331 
L 2906 616 
Q 2728 306 2450 153 
Q 2172 0 1784 0 
Q 1141 0 747 490 
Q 353 981 353 1791 
Q 353 2603 747 3093 
Q 1141 3584 1784 3584 
Q 2172 3584 2450 3431 
Q 2728 3278 2906 2969 
L 2906 3500 
L 3481 3500 
L 3481 434 
z
" transform="scale(0.015625)"/>
      <path id="DejaVuSans-20" transform="scale(0.015625)"/>
      <path id="DejaVuSans-43" d="M 4122 4306 
L 4122 3641 
Q 3803 3938 3442 4084 
Q 3081 4231 2675 4231 
Q 1875 4231 1450 3742 
Q 1025 3253 1025 2328 
Q 1025 1406 1450 917 
Q 1875 428 2675 428 
Q 3081 428 3442 575 
Q 3803 722 4122 1019 
L 4122 359 
Q 3791 134 3420 21 
Q 3050 -91 2638 -91 
Q 1578 -91 968 557 
Q 359 1206 359 2328 
Q 359 3453 968 4101 
Q 1578 4750 2638 4750 
Q 3056 4750 3426 4639 
Q 3797 4528 4122 4306 
z
" transform="scale(0.015625)"/>
      <path id="DejaVuSans-76" d="M 191 3500 
L 800 3500 
L 1894 563 
L 2988 3500 
L 3597 3500 
L 2284 0 
L 1503 0 
L 191 3500 
z
" transform="scale(0.015625)"/>
     </defs>
     <use xlink:href="#DejaVuSans-4c"/>
     <use xlink:href="#DejaVuSans-65" x="53.962891"/>
     <use xlink:href="#DejaVuSans-61" x="115.486328"/>
     <use xlink:href="#DejaVuSans-72" x="176.765625"/>
     <use xlink:href="#DejaVuSans-6e" x="216.128906"/>
     <use xlink:href="#DejaVuSans-69" x="279.507812"/>
     <use xlink:href="#DejaVuSans-6e" x="307.291016"/>
     <use xlink:href="#DejaVuSans-67" x="370.669922"/>
     <use xlink:href="#DejaVuSans-20" x="434.146484"/>
     <use xlink:href="#DejaVuSans-43" x="465.933594"/>
     <use xlink:href="#DejaVuSans-75" x="535.757812"/>
     <use xlink:href="#DejaVuSans-72" x="599.136719"/>
     <use xlink:href="#DejaVuSans-76" x="640.25"/>
     <use xlink:href="#DejaVuSans-65" x="699.429688"/>
     <use xlink:href="#DejaVuSans-73" x="760.953125"/>
    </g>
   </g>
   <g id="legend_1">
    <g id="patch_7">
     <path d="M 214.18875 302.584 
L 407.72 302.584 
Q 409.72 302.584 409.72 300.584 
L 409.72 228.193375 
Q 409.72 226.193375 407.72 226.193375 
L 214.18875 226.193375 
Q 212.18875 226.193375 212.18875 228.193375 
L 212.18875 300.584 
Q 212.18875 302.584 214.18875 302.584 
z
" style="fill: #ffffff; opacity: 0.8; stroke: #cccccc; stroke-linejoin: miter"/>
    </g>
    <g id="line2d_21">
     <path d="M 216.18875 234.291812 
L 226.18875 234.291812 
L 236.18875 234.291812 
" style="fill: none; stroke: #1f77b4; stroke-width: 1.5; stroke-linecap: square"/>
    </g>
    <g id="text_19">
     <!-- Train Accuracy -->
     <g transform="translate(244.18875 237.791812) scale(0.1 -0.1)">
      <defs>
       <path id="DejaVuSans-54" d="M -19 4666 
L 3928 4666 
L 3928 4134 
L 2272 4134 
L 2272 0 
L 1638 0 
L 1638 4134 
L -19 4134 
L -19 4666 
z
" transform="scale(0.015625)"/>
      </defs>
      <use xlink:href="#DejaVuSans-54"/>
      <use xlink:href="#DejaVuSans-72" x="46.333984"/>
      <use xlink:href="#DejaVuSans-61" x="87.447266"/>
      <use xlink:href="#DejaVuSans-69" x="148.726562"/>
      <use xlink:href="#DejaVuSans-6e" x="176.509766"/>
      <use xlink:href="#DejaVuSans-20" x="239.888672"/>
      <use xlink:href="#DejaVuSans-41" x="271.675781"/>
      <use xlink:href="#DejaVuSans-63" x="338.333984"/>
      <use xlink:href="#DejaVuSans-63" x="393.314453"/>
      <use xlink:href="#DejaVuSans-75" x="448.294922"/>
      <use xlink:href="#DejaVuSans-72" x="511.673828"/>
      <use xlink:href="#DejaVuSans-61" x="552.787109"/>
      <use xlink:href="#DejaVuSans-63" x="614.066406"/>
      <use xlink:href="#DejaVuSans-79" x="669.046875"/>
     </g>
    </g>
    <g id="line2d_22">
     <path d="M 216.18875 248.969937 
L 226.18875 248.969937 
L 236.18875 248.969937 
" style="fill: none; stroke: #ff7f0e; stroke-width: 1.5; stroke-linecap: square"/>
    </g>
    <g id="text_20">
     <!-- Validation Accuracy -->
     <g transform="translate(244.18875 252.469937) scale(0.1 -0.1)">
      <defs>
       <path id="DejaVuSans-56" d="M 1831 0 
L 50 4666 
L 709 4666 
L 2188 738 
L 3669 4666 
L 4325 4666 
L 2547 0 
L 1831 0 
z
" transform="scale(0.015625)"/>
       <path id="DejaVuSans-6c" d="M 603 4863 
L 1178 4863 
L 1178 0 
L 603 0 
L 603 4863 
z
" transform="scale(0.015625)"/>
       <path id="DejaVuSans-64" d="M 2906 2969 
L 2906 4863 
L 3481 4863 
L 3481 0 
L 2906 0 
L 2906 525 
Q 2725 213 2448 61 
Q 2172 -91 1784 -91 
Q 1150 -91 751 415 
Q 353 922 353 1747 
Q 353 2572 751 3078 
Q 1150 3584 1784 3584 
Q 2172 3584 2448 3432 
Q 2725 3281 2906 2969 
z
M 947 1747 
Q 947 1113 1208 752 
Q 1469 391 1925 391 
Q 2381 391 2643 752 
Q 2906 1113 2906 1747 
Q 2906 2381 2643 2742 
Q 2381 3103 1925 3103 
Q 1469 3103 1208 2742 
Q 947 2381 947 1747 
z
" transform="scale(0.015625)"/>
       <path id="DejaVuSans-74" d="M 1172 4494 
L 1172 3500 
L 2356 3500 
L 2356 3053 
L 1172 3053 
L 1172 1153 
Q 1172 725 1289 603 
Q 1406 481 1766 481 
L 2356 481 
L 2356 0 
L 1766 0 
Q 1100 0 847 248 
Q 594 497 594 1153 
L 594 3053 
L 172 3053 
L 172 3500 
L 594 3500 
L 594 4494 
L 1172 4494 
z
" transform="scale(0.015625)"/>
      </defs>
      <use xlink:href="#DejaVuSans-56"/>
      <use xlink:href="#DejaVuSans-61" x="60.658203"/>
      <use xlink:href="#DejaVuSans-6c" x="121.9375"/>
      <use xlink:href="#DejaVuSans-69" x="149.720703"/>
      <use xlink:href="#DejaVuSans-64" x="177.503906"/>
      <use xlink:href="#DejaVuSans-61" x="240.980469"/>
      <use xlink:href="#DejaVuSans-74" x="302.259766"/>
      <use xlink:href="#DejaVuSans-69" x="341.46875"/>
      <use xlink:href="#DejaVuSans-6f" x="369.251953"/>
      <use xlink:href="#DejaVuSans-6e" x="430.433594"/>
      <use xlink:href="#DejaVuSans-20" x="493.8125"/>
      <use xlink:href="#DejaVuSans-41" x="525.599609"/>
      <use xlink:href="#DejaVuSans-63" x="592.257812"/>
      <use xlink:href="#DejaVuSans-63" x="647.238281"/>
      <use xlink:href="#DejaVuSans-75" x="702.21875"/>
      <use xlink:href="#DejaVuSans-72" x="765.597656"/>
      <use xlink:href="#DejaVuSans-61" x="806.710938"/>
      <use xlink:href="#DejaVuSans-63" x="867.990234"/>
      <use xlink:href="#DejaVuSans-79" x="922.970703"/>
     </g>
    </g>
    <g id="line2d_23">
     <path d="M 216.18875 263.648062 
L 226.18875 263.648062 
L 236.18875 263.648062 
" style="fill: none; stroke: #2ca02c; stroke-width: 1.5; stroke-linecap: square"/>
    </g>
    <g id="text_21">
     <!-- Robust Validation Accuracy -->
     <g transform="translate(244.18875 267.148062) scale(0.1 -0.1)">
      <defs>
       <path id="DejaVuSans-52" d="M 2841 2188 
Q 3044 2119 3236 1894 
Q 3428 1669 3622 1275 
L 4263 0 
L 3584 0 
L 2988 1197 
Q 2756 1666 2539 1819 
Q 2322 1972 1947 1972 
L 1259 1972 
L 1259 0 
L 628 0 
L 628 4666 
L 2053 4666 
Q 2853 4666 3247 4331 
Q 3641 3997 3641 3322 
Q 3641 2881 3436 2590 
Q 3231 2300 2841 2188 
z
M 1259 4147 
L 1259 2491 
L 2053 2491 
Q 2509 2491 2742 2702 
Q 2975 2913 2975 3322 
Q 2975 3731 2742 3939 
Q 2509 4147 2053 4147 
L 1259 4147 
z
" transform="scale(0.015625)"/>
       <path id="DejaVuSans-62" d="M 3116 1747 
Q 3116 2381 2855 2742 
Q 2594 3103 2138 3103 
Q 1681 3103 1420 2742 
Q 1159 2381 1159 1747 
Q 1159 1113 1420 752 
Q 1681 391 2138 391 
Q 2594 391 2855 752 
Q 3116 1113 3116 1747 
z
M 1159 2969 
Q 1341 3281 1617 3432 
Q 1894 3584 2278 3584 
Q 2916 3584 3314 3078 
Q 3713 2572 3713 1747 
Q 3713 922 3314 415 
Q 2916 -91 2278 -91 
Q 1894 -91 1617 61 
Q 1341 213 1159 525 
L 1159 0 
L 581 0 
L 581 4863 
L 1159 4863 
L 1159 2969 
z
" transform="scale(0.015625)"/>
      </defs>
      <use xlink:href="#DejaVuSans-52"/>
      <use xlink:href="#DejaVuSans-6f" x="64.982422"/>
      <use xlink:href="#DejaVuSans-62" x="126.164062"/>
      <use xlink:href="#DejaVuSans-75" x="189.640625"/>
      <use xlink:href="#DejaVuSans-73" x="253.019531"/>
      <use xlink:href="#DejaVuSans-74" x="305.119141"/>
      <use xlink:href="#DejaVuSans-20" x="344.328125"/>
      <use xlink:href="#DejaVuSans-56" x="376.115234"/>
      <use xlink:href="#DejaVuSans-61" x="436.773438"/>
      <use xlink:href="#DejaVuSans-6c" x="498.052734"/>
      <use xlink:href="#DejaVuSans-69" x="525.835938"/>
      <use xlink:href="#DejaVuSans-64" x="553.619141"/>
      <use xlink:href="#DejaVuSans-61" x="617.095703"/>
      <use xlink:href="#DejaVuSans-74" x="678.375"/>
      <use xlink:href="#DejaVuSans-69" x="717.583984"/>
      <use xlink:href="#DejaVuSans-6f" x="745.367188"/>
      <use xlink:href="#DejaVuSans-6e" x="806.548828"/>
      <use xlink:href="#DejaVuSans-20" x="869.927734"/>
      <use xlink:href="#DejaVuSans-41" x="901.714844"/>
      <use xlink:href="#DejaVuSans-63" x="968.373047"/>
      <use xlink:href="#DejaVuSans-63" x="1023.353516"/>
      <use xlink:href="#DejaVuSans-75" x="1078.333984"/>
      <use xlink:href="#DejaVuSans-72" x="1141.712891"/>
      <use xlink:href="#DejaVuSans-61" x="1182.826172"/>
      <use xlink:href="#DejaVuSans-63" x="1244.105469"/>
      <use xlink:href="#DejaVuSans-79" x="1299.085938"/>
     </g>
    </g>
    <g id="line2d_24">
     <path d="M 216.18875 278.326188 
L 226.18875 278.326188 
L 236.18875 278.326188 
" style="fill: none; stroke: #d62728; stroke-width: 1.5; stroke-linecap: square"/>
    </g>
    <g id="text_22">
     <!-- SWA Validation Accuracy -->
     <g transform="translate(244.18875 281.826188) scale(0.1 -0.1)">
      <defs>
       <path id="DejaVuSans-53" d="M 3425 4513 
L 3425 3897 
Q 3066 4069 2747 4153 
Q 2428 4238 2131 4238 
Q 1616 4238 1336 4038 
Q 1056 3838 1056 3469 
Q 1056 3159 1242 3001 
Q 1428 2844 1947 2747 
L 2328 2669 
Q 3034 2534 3370 2195 
Q 3706 1856 3706 1288 
Q 3706 609 3251 259 
Q 2797 -91 1919 -91 
Q 1588 -91 1214 -16 
Q 841 59 441 206 
L 441 856 
Q 825 641 1194 531 
Q 1563 422 1919 422 
Q 2459 422 2753 634 
Q 3047 847 3047 1241 
Q 3047 1584 2836 1778 
Q 2625 1972 2144 2069 
L 1759 2144 
Q 1053 2284 737 2584 
Q 422 2884 422 3419 
Q 422 4038 858 4394 
Q 1294 4750 2059 4750 
Q 2388 4750 2728 4690 
Q 3069 4631 3425 4513 
z
" transform="scale(0.015625)"/>
       <path id="DejaVuSans-57" d="M 213 4666 
L 850 4666 
L 1831 722 
L 2809 4666 
L 3519 4666 
L 4500 722 
L 5478 4666 
L 6119 4666 
L 4947 0 
L 4153 0 
L 3169 4050 
L 2175 0 
L 1381 0 
L 213 4666 
z
" transform="scale(0.015625)"/>
      </defs>
      <use xlink:href="#DejaVuSans-53"/>
      <use xlink:href="#DejaVuSans-57" x="63.476562"/>
      <use xlink:href="#DejaVuSans-41" x="156.853516"/>
      <use xlink:href="#DejaVuSans-20" x="225.261719"/>
      <use xlink:href="#DejaVuSans-56" x="257.048828"/>
      <use xlink:href="#DejaVuSans-61" x="317.707031"/>
      <use xlink:href="#DejaVuSans-6c" x="378.986328"/>
      <use xlink:href="#DejaVuSans-69" x="406.769531"/>
      <use xlink:href="#DejaVuSans-64" x="434.552734"/>
      <use xlink:href="#DejaVuSans-61" x="498.029297"/>
      <use xlink:href="#DejaVuSans-74" x="559.308594"/>
      <use xlink:href="#DejaVuSans-69" x="598.517578"/>
      <use xlink:href="#DejaVuSans-6f" x="626.300781"/>
      <use xlink:href="#DejaVuSans-6e" x="687.482422"/>
      <use xlink:href="#DejaVuSans-20" x="750.861328"/>
      <use xlink:href="#DejaVuSans-41" x="782.648438"/>
      <use xlink:href="#DejaVuSans-63" x="849.306641"/>
      <use xlink:href="#DejaVuSans-63" x="904.287109"/>
      <use xlink:href="#DejaVuSans-75" x="959.267578"/>
      <use xlink:href="#DejaVuSans-72" x="1022.646484"/>
      <use xlink:href="#DejaVuSans-61" x="1063.759766"/>
      <use xlink:href="#DejaVuSans-63" x="1125.039062"/>
      <use xlink:href="#DejaVuSans-79" x="1180.019531"/>
     </g>
    </g>
    <g id="line2d_25">
     <path d="M 216.18875 293.004312 
L 226.18875 293.004312 
L 236.18875 293.004312 
" style="fill: none; stroke: #9467bd; stroke-width: 1.5; stroke-linecap: square"/>
    </g>
    <g id="text_23">
     <!-- SWA Robust Validation Accuracy -->
     <g transform="translate(244.18875 296.504312) scale(0.1 -0.1)">
      <use xlink:href="#DejaVuSans-53"/>
      <use xlink:href="#DejaVuSans-57" x="63.476562"/>
      <use xlink:href="#DejaVuSans-41" x="156.853516"/>
      <use xlink:href="#DejaVuSans-20" x="225.261719"/>
      <use xlink:href="#DejaVuSans-52" x="257.048828"/>
      <use xlink:href="#DejaVuSans-6f" x="322.03125"/>
      <use xlink:href="#DejaVuSans-62" x="383.212891"/>
      <use xlink:href="#DejaVuSans-75" x="446.689453"/>
      <use xlink:href="#DejaVuSans-73" x="510.068359"/>
      <use xlink:href="#DejaVuSans-74" x="562.167969"/>
      <use xlink:href="#DejaVuSans-20" x="601.376953"/>
      <use xlink:href="#DejaVuSans-56" x="633.164062"/>
      <use xlink:href="#DejaVuSans-61" x="693.822266"/>
      <use xlink:href="#DejaVuSans-6c" x="755.101562"/>
      <use xlink:href="#DejaVuSans-69" x="782.884766"/>
      <use xlink:href="#DejaVuSans-64" x="810.667969"/>
      <use xlink:href="#DejaVuSans-61" x="874.144531"/>
      <use xlink:href="#DejaVuSans-74" x="935.423828"/>
      <use xlink:href="#DejaVuSans-69" x="974.632812"/>
      <use xlink:href="#DejaVuSans-6f" x="1002.416016"/>
      <use xlink:href="#DejaVuSans-6e" x="1063.597656"/>
      <use xlink:href="#DejaVuSans-20" x="1126.976562"/>
      <use xlink:href="#DejaVuSans-41" x="1158.763672"/>
      <use xlink:href="#DejaVuSans-63" x="1225.421875"/>
      <use xlink:href="#DejaVuSans-63" x="1280.402344"/>
      <use xlink:href="#DejaVuSans-75" x="1335.382812"/>
      <use xlink:href="#DejaVuSans-72" x="1398.761719"/>
      <use xlink:href="#DejaVuSans-61" x="1439.875"/>
      <use xlink:href="#DejaVuSans-63" x="1501.154297"/>
      <use xlink:href="#DejaVuSans-79" x="1556.134766"/>
     </g>
    </g>
   </g>
  </g>
 </g>
 <defs>
  <clipPath id="p9b3d18753d">
   <rect x="57.6" y="41.472" width="357.12" height="266.112"/>
  </clipPath>
 </defs>
</svg>
