<?xml version="1.0" encoding="utf-8" standalone="no"?>
<!DOCTYPE svg PUBLIC "-//W3C//DTD SVG 1.1//EN"
  "http://www.w3.org/Graphics/SVG/1.1/DTD/svg11.dtd">
<svg xmlns:xlink="http://www.w3.org/1999/xlink" width="460.8pt" height="345.6pt" viewBox="0 0 460.8 345.6" xmlns="http://www.w3.org/2000/svg" version="1.1">
 <metadata>
  <rdf:RDF xmlns:dc="http://purl.org/dc/elements/1.1/" xmlns:cc="http://creativecommons.org/ns#" xmlns:rdf="http://www.w3.org/1999/02/22-rdf-syntax-ns#">
   <cc:Work>
    <dc:type rdf:resource="http://purl.org/dc/dcmitype/StillImage"/>
    <dc:date>2025-03-08T08:31:52.995724</dc:date>
    <dc:format>image/svg+xml</dc:format>
    <dc:creator>
     <cc:Agent>
      <dc:title>Matplotlib v3.9.1, https://matplotlib.org/</dc:title>
     </cc:Agent>
    </dc:creator>
   </cc:Work>
  </rdf:RDF>
 </metadata>
 <defs>
  <style type="text/css">*{stroke-linejoin: round; stroke-linecap: butt}</style>
 </defs>
 <g id="figure_1">
  <g id="patch_1">
   <path d="M 0 345.6 
L 460.8 345.6 
L 460.8 0 
L 0 0 
z
" style="fill: #ffffff"/>
  </g>
  <g id="axes_1">
   <g id="patch_2">
    <path d="M 57.6 307.584 
L 414.72 307.584 
L 414.72 41.472 
L 57.6 41.472 
z
" style="fill: #ffffff"/>
   </g>
   <g id="matplotlib.axis_1">
    <g id="xtick_1">
     <g id="line2d_1">
      <defs>
       <path id="m23bb3ba924" d="M 0 0 
L 0 3.5 
" style="stroke: #000000; stroke-width: 0.8"/>
      </defs>
      <g>
       <use xlink:href="#m23bb3ba924" x="73.832727" y="307.584" style="stroke: #000000; stroke-width: 0.8"/>
      </g>
     </g>
     <g id="text_1">
      <!-- 1 -->
      <g transform="translate(70.651477 322.182437) scale(0.1 -0.1)">
       <defs>
        <path id="DejaVuSans-31" d="M 794 531 
L 1825 531 
L 1825 4091 
L 703 3866 
L 703 4441 
L 1819 4666 
L 2450 4666 
L 2450 531 
L 3481 531 
L 3481 0 
L 794 0 
L 794 531 
z
" transform="scale(0.015625)"/>
       </defs>
       <use xlink:href="#DejaVuSans-31"/>
      </g>
     </g>
    </g>
    <g id="xtick_2">
     <g id="line2d_2">
      <g>
       <use xlink:href="#m23bb3ba924" x="109.664165" y="307.584" style="stroke: #000000; stroke-width: 0.8"/>
      </g>
     </g>
     <g id="text_2">
      <!-- 34 -->
      <g transform="translate(103.301665 322.182437) scale(0.1 -0.1)">
       <defs>
        <path id="DejaVuSans-33" d="M 2597 2516 
Q 3050 2419 3304 2112 
Q 3559 1806 3559 1356 
Q 3559 666 3084 287 
Q 2609 -91 1734 -91 
Q 1441 -91 1130 -33 
Q 819 25 488 141 
L 488 750 
Q 750 597 1062 519 
Q 1375 441 1716 441 
Q 2309 441 2620 675 
Q 2931 909 2931 1356 
Q 2931 1769 2642 2001 
Q 2353 2234 1838 2234 
L 1294 2234 
L 1294 2753 
L 1863 2753 
Q 2328 2753 2575 2939 
Q 2822 3125 2822 3475 
Q 2822 3834 2567 4026 
Q 2313 4219 1838 4219 
Q 1578 4219 1281 4162 
Q 984 4106 628 3988 
L 628 4550 
Q 988 4650 1302 4700 
Q 1616 4750 1894 4750 
Q 2613 4750 3031 4423 
Q 3450 4097 3450 3541 
Q 3450 3153 3228 2886 
Q 3006 2619 2597 2516 
z
" transform="scale(0.015625)"/>
        <path id="DejaVuSans-34" d="M 2419 4116 
L 825 1625 
L 2419 1625 
L 2419 4116 
z
M 2253 4666 
L 3047 4666 
L 3047 1625 
L 3713 1625 
L 3713 1100 
L 3047 1100 
L 3047 0 
L 2419 0 
L 2419 1100 
L 313 1100 
L 313 1709 
L 2253 4666 
z
" transform="scale(0.015625)"/>
       </defs>
       <use xlink:href="#DejaVuSans-33"/>
       <use xlink:href="#DejaVuSans-34" x="63.623047"/>
      </g>
     </g>
    </g>
    <g id="xtick_3">
     <g id="line2d_3">
      <g>
       <use xlink:href="#m23bb3ba924" x="145.495604" y="307.584" style="stroke: #000000; stroke-width: 0.8"/>
      </g>
     </g>
     <g id="text_3">
      <!-- 67 -->
      <g transform="translate(139.133104 322.182437) scale(0.1 -0.1)">
       <defs>
        <path id="DejaVuSans-36" d="M 2113 2584 
Q 1688 2584 1439 2293 
Q 1191 2003 1191 1497 
Q 1191 994 1439 701 
Q 1688 409 2113 409 
Q 2538 409 2786 701 
Q 3034 994 3034 1497 
Q 3034 2003 2786 2293 
Q 2538 2584 2113 2584 
z
M 3366 4563 
L 3366 3988 
Q 3128 4100 2886 4159 
Q 2644 4219 2406 4219 
Q 1781 4219 1451 3797 
Q 1122 3375 1075 2522 
Q 1259 2794 1537 2939 
Q 1816 3084 2150 3084 
Q 2853 3084 3261 2657 
Q 3669 2231 3669 1497 
Q 3669 778 3244 343 
Q 2819 -91 2113 -91 
Q 1303 -91 875 529 
Q 447 1150 447 2328 
Q 447 3434 972 4092 
Q 1497 4750 2381 4750 
Q 2619 4750 2861 4703 
Q 3103 4656 3366 4563 
z
" transform="scale(0.015625)"/>
        <path id="DejaVuSans-37" d="M 525 4666 
L 3525 4666 
L 3525 4397 
L 1831 0 
L 1172 0 
L 2766 4134 
L 525 4134 
L 525 4666 
z
" transform="scale(0.015625)"/>
       </defs>
       <use xlink:href="#DejaVuSans-36"/>
       <use xlink:href="#DejaVuSans-37" x="63.623047"/>
      </g>
     </g>
    </g>
    <g id="xtick_4">
     <g id="line2d_4">
      <g>
       <use xlink:href="#m23bb3ba924" x="181.327042" y="307.584" style="stroke: #000000; stroke-width: 0.8"/>
      </g>
     </g>
     <g id="text_4">
      <!-- 100 -->
      <g transform="translate(171.783292 322.182437) scale(0.1 -0.1)">
       <defs>
        <path id="DejaVuSans-30" d="M 2034 4250 
Q 1547 4250 1301 3770 
Q 1056 3291 1056 2328 
Q 1056 1369 1301 889 
Q 1547 409 2034 409 
Q 2525 409 2770 889 
Q 3016 1369 3016 2328 
Q 3016 3291 2770 3770 
Q 2525 4250 2034 4250 
z
M 2034 4750 
Q 2819 4750 3233 4129 
Q 3647 3509 3647 2328 
Q 3647 1150 3233 529 
Q 2819 -91 2034 -91 
Q 1250 -91 836 529 
Q 422 1150 422 2328 
Q 422 3509 836 4129 
Q 1250 4750 2034 4750 
z
" transform="scale(0.015625)"/>
       </defs>
       <use xlink:href="#DejaVuSans-31"/>
       <use xlink:href="#DejaVuSans-30" x="63.623047"/>
       <use xlink:href="#DejaVuSans-30" x="127.246094"/>
      </g>
     </g>
    </g>
    <g id="xtick_5">
     <g id="line2d_5">
      <g>
       <use xlink:href="#m23bb3ba924" x="217.15848" y="307.584" style="stroke: #000000; stroke-width: 0.8"/>
      </g>
     </g>
     <g id="text_5">
      <!-- 133 -->
      <g transform="translate(207.61473 322.182437) scale(0.1 -0.1)">
       <use xlink:href="#DejaVuSans-31"/>
       <use xlink:href="#DejaVuSans-33" x="63.623047"/>
       <use xlink:href="#DejaVuSans-33" x="127.246094"/>
      </g>
     </g>
    </g>
    <g id="xtick_6">
     <g id="line2d_6">
      <g>
       <use xlink:href="#m23bb3ba924" x="254.075719" y="307.584" style="stroke: #000000; stroke-width: 0.8"/>
      </g>
     </g>
     <g id="text_6">
      <!-- 167 -->
      <g transform="translate(244.531969 322.182437) scale(0.1 -0.1)">
       <use xlink:href="#DejaVuSans-31"/>
       <use xlink:href="#DejaVuSans-36" x="63.623047"/>
       <use xlink:href="#DejaVuSans-37" x="127.246094"/>
      </g>
     </g>
    </g>
    <g id="xtick_7">
     <g id="line2d_7">
      <g>
       <use xlink:href="#m23bb3ba924" x="289.907157" y="307.584" style="stroke: #000000; stroke-width: 0.8"/>
      </g>
     </g>
     <g id="text_7">
      <!-- 200 -->
      <g transform="translate(280.363407 322.182437) scale(0.1 -0.1)">
       <defs>
        <path id="DejaVuSans-32" d="M 1228 531 
L 3431 531 
L 3431 0 
L 469 0 
L 469 531 
Q 828 903 1448 1529 
Q 2069 2156 2228 2338 
Q 2531 2678 2651 2914 
Q 2772 3150 2772 3378 
Q 2772 3750 2511 3984 
Q 2250 4219 1831 4219 
Q 1534 4219 1204 4116 
Q 875 4013 500 3803 
L 500 4441 
Q 881 4594 1212 4672 
Q 1544 4750 1819 4750 
Q 2544 4750 2975 4387 
Q 3406 4025 3406 3419 
Q 3406 3131 3298 2873 
Q 3191 2616 2906 2266 
Q 2828 2175 2409 1742 
Q 1991 1309 1228 531 
z
" transform="scale(0.015625)"/>
       </defs>
       <use xlink:href="#DejaVuSans-32"/>
       <use xlink:href="#DejaVuSans-30" x="63.623047"/>
       <use xlink:href="#DejaVuSans-30" x="127.246094"/>
      </g>
     </g>
    </g>
    <g id="xtick_8">
     <g id="line2d_8">
      <g>
       <use xlink:href="#m23bb3ba924" x="325.738595" y="307.584" style="stroke: #000000; stroke-width: 0.8"/>
      </g>
     </g>
     <g id="text_8">
      <!-- 233 -->
      <g transform="translate(316.194845 322.182437) scale(0.1 -0.1)">
       <use xlink:href="#DejaVuSans-32"/>
       <use xlink:href="#DejaVuSans-33" x="63.623047"/>
       <use xlink:href="#DejaVuSans-33" x="127.246094"/>
      </g>
     </g>
    </g>
    <g id="xtick_9">
     <g id="line2d_9">
      <g>
       <use xlink:href="#m23bb3ba924" x="361.570033" y="307.584" style="stroke: #000000; stroke-width: 0.8"/>
      </g>
     </g>
     <g id="text_9">
      <!-- 266 -->
      <g transform="translate(352.026283 322.182437) scale(0.1 -0.1)">
       <use xlink:href="#DejaVuSans-32"/>
       <use xlink:href="#DejaVuSans-36" x="63.623047"/>
       <use xlink:href="#DejaVuSans-36" x="127.246094"/>
      </g>
     </g>
    </g>
    <g id="xtick_10">
     <g id="line2d_10">
      <g>
       <use xlink:href="#m23bb3ba924" x="398.487273" y="307.584" style="stroke: #000000; stroke-width: 0.8"/>
      </g>
     </g>
     <g id="text_10">
      <!-- 300 -->
      <g transform="translate(388.943523 322.182437) scale(0.1 -0.1)">
       <use xlink:href="#DejaVuSans-33"/>
       <use xlink:href="#DejaVuSans-30" x="63.623047"/>
       <use xlink:href="#DejaVuSans-30" x="127.246094"/>
      </g>
     </g>
    </g>
    <g id="text_11">
     <!-- Epochs -->
     <g transform="translate(218.244375 335.860562) scale(0.1 -0.1)">
      <defs>
       <path id="DejaVuSans-45" d="M 628 4666 
L 3578 4666 
L 3578 4134 
L 1259 4134 
L 1259 2753 
L 3481 2753 
L 3481 2222 
L 1259 2222 
L 1259 531 
L 3634 531 
L 3634 0 
L 628 0 
L 628 4666 
z
" transform="scale(0.015625)"/>
       <path id="DejaVuSans-70" d="M 1159 525 
L 1159 -1331 
L 581 -1331 
L 581 3500 
L 1159 3500 
L 1159 2969 
Q 1341 3281 1617 3432 
Q 1894 3584 2278 3584 
Q 2916 3584 3314 3078 
Q 3713 2572 3713 1747 
Q 3713 922 3314 415 
Q 2916 -91 2278 -91 
Q 1894 -91 1617 61 
Q 1341 213 1159 525 
z
M 3116 1747 
Q 3116 2381 2855 2742 
Q 2594 3103 2138 3103 
Q 1681 3103 1420 2742 
Q 1159 2381 1159 1747 
Q 1159 1113 1420 752 
Q 1681 391 2138 391 
Q 2594 391 2855 752 
Q 3116 1113 3116 1747 
z
" transform="scale(0.015625)"/>
       <path id="DejaVuSans-6f" d="M 1959 3097 
Q 1497 3097 1228 2736 
Q 959 2375 959 1747 
Q 959 1119 1226 758 
Q 1494 397 1959 397 
Q 2419 397 2687 759 
Q 2956 1122 2956 1747 
Q 2956 2369 2687 2733 
Q 2419 3097 1959 3097 
z
M 1959 3584 
Q 2709 3584 3137 3096 
Q 3566 2609 3566 1747 
Q 3566 888 3137 398 
Q 2709 -91 1959 -91 
Q 1206 -91 779 398 
Q 353 888 353 1747 
Q 353 2609 779 3096 
Q 1206 3584 1959 3584 
z
" transform="scale(0.015625)"/>
       <path id="DejaVuSans-63" d="M 3122 3366 
L 3122 2828 
Q 2878 2963 2633 3030 
Q 2388 3097 2138 3097 
Q 1578 3097 1268 2742 
Q 959 2388 959 1747 
Q 959 1106 1268 751 
Q 1578 397 2138 397 
Q 2388 397 2633 464 
Q 2878 531 3122 666 
L 3122 134 
Q 2881 22 2623 -34 
Q 2366 -91 2075 -91 
Q 1284 -91 818 406 
Q 353 903 353 1747 
Q 353 2603 823 3093 
Q 1294 3584 2113 3584 
Q 2378 3584 2631 3529 
Q 2884 3475 3122 3366 
z
" transform="scale(0.015625)"/>
       <path id="DejaVuSans-68" d="M 3513 2113 
L 3513 0 
L 2938 0 
L 2938 2094 
Q 2938 2591 2744 2837 
Q 2550 3084 2163 3084 
Q 1697 3084 1428 2787 
Q 1159 2491 1159 1978 
L 1159 0 
L 581 0 
L 581 4863 
L 1159 4863 
L 1159 2956 
Q 1366 3272 1645 3428 
Q 1925 3584 2291 3584 
Q 2894 3584 3203 3211 
Q 3513 2838 3513 2113 
z
" transform="scale(0.015625)"/>
       <path id="DejaVuSans-73" d="M 2834 3397 
L 2834 2853 
Q 2591 2978 2328 3040 
Q 2066 3103 1784 3103 
Q 1356 3103 1142 2972 
Q 928 2841 928 2578 
Q 928 2378 1081 2264 
Q 1234 2150 1697 2047 
L 1894 2003 
Q 2506 1872 2764 1633 
Q 3022 1394 3022 966 
Q 3022 478 2636 193 
Q 2250 -91 1575 -91 
Q 1294 -91 989 -36 
Q 684 19 347 128 
L 347 722 
Q 666 556 975 473 
Q 1284 391 1588 391 
Q 1994 391 2212 530 
Q 2431 669 2431 922 
Q 2431 1156 2273 1281 
Q 2116 1406 1581 1522 
L 1381 1569 
Q 847 1681 609 1914 
Q 372 2147 372 2553 
Q 372 3047 722 3315 
Q 1072 3584 1716 3584 
Q 2034 3584 2315 3537 
Q 2597 3491 2834 3397 
z
" transform="scale(0.015625)"/>
      </defs>
      <use xlink:href="#DejaVuSans-45"/>
      <use xlink:href="#DejaVuSans-70" x="63.183594"/>
      <use xlink:href="#DejaVuSans-6f" x="126.660156"/>
      <use xlink:href="#DejaVuSans-63" x="187.841797"/>
      <use xlink:href="#DejaVuSans-68" x="242.822266"/>
      <use xlink:href="#DejaVuSans-73" x="306.201172"/>
     </g>
    </g>
   </g>
   <g id="matplotlib.axis_2">
    <g id="ytick_1">
     <g id="line2d_11">
      <defs>
       <path id="m7820a79790" d="M 0 0 
L -3.5 0 
" style="stroke: #000000; stroke-width: 0.8"/>
      </defs>
      <g>
       <use xlink:href="#m7820a79790" x="57.6" y="292.245288" style="stroke: #000000; stroke-width: 0.8"/>
      </g>
     </g>
     <g id="text_12">
      <!-- 10 -->
      <g transform="translate(37.875 296.044507) scale(0.1 -0.1)">
       <use xlink:href="#DejaVuSans-31"/>
       <use xlink:href="#DejaVuSans-30" x="63.623047"/>
      </g>
     </g>
    </g>
    <g id="ytick_2">
     <g id="line2d_12">
      <g>
       <use xlink:href="#m7820a79790" x="57.6" y="262.1047" style="stroke: #000000; stroke-width: 0.8"/>
      </g>
     </g>
     <g id="text_13">
      <!-- 20 -->
      <g transform="translate(37.875 265.903919) scale(0.1 -0.1)">
       <use xlink:href="#DejaVuSans-32"/>
       <use xlink:href="#DejaVuSans-30" x="63.623047"/>
      </g>
     </g>
    </g>
    <g id="ytick_3">
     <g id="line2d_13">
      <g>
       <use xlink:href="#m7820a79790" x="57.6" y="231.964112" style="stroke: #000000; stroke-width: 0.8"/>
      </g>
     </g>
     <g id="text_14">
      <!-- 30 -->
      <g transform="translate(37.875 235.763331) scale(0.1 -0.1)">
       <use xlink:href="#DejaVuSans-33"/>
       <use xlink:href="#DejaVuSans-30" x="63.623047"/>
      </g>
     </g>
    </g>
    <g id="ytick_4">
     <g id="line2d_14">
      <g>
       <use xlink:href="#m7820a79790" x="57.6" y="201.823524" style="stroke: #000000; stroke-width: 0.8"/>
      </g>
     </g>
     <g id="text_15">
      <!-- 40 -->
      <g transform="translate(37.875 205.622743) scale(0.1 -0.1)">
       <use xlink:href="#DejaVuSans-34"/>
       <use xlink:href="#DejaVuSans-30" x="63.623047"/>
      </g>
     </g>
    </g>
    <g id="ytick_5">
     <g id="line2d_15">
      <g>
       <use xlink:href="#m7820a79790" x="57.6" y="171.682936" style="stroke: #000000; stroke-width: 0.8"/>
      </g>
     </g>
     <g id="text_16">
      <!-- 50 -->
      <g transform="translate(37.875 175.482155) scale(0.1 -0.1)">
       <defs>
        <path id="DejaVuSans-35" d="M 691 4666 
L 3169 4666 
L 3169 4134 
L 1269 4134 
L 1269 2991 
Q 1406 3038 1543 3061 
Q 1681 3084 1819 3084 
Q 2600 3084 3056 2656 
Q 3513 2228 3513 1497 
Q 3513 744 3044 326 
Q 2575 -91 1722 -91 
Q 1428 -91 1123 -41 
Q 819 9 494 109 
L 494 744 
Q 775 591 1075 516 
Q 1375 441 1709 441 
Q 2250 441 2565 725 
Q 2881 1009 2881 1497 
Q 2881 1984 2565 2268 
Q 2250 2553 1709 2553 
Q 1456 2553 1204 2497 
Q 953 2441 691 2322 
L 691 4666 
z
" transform="scale(0.015625)"/>
       </defs>
       <use xlink:href="#DejaVuSans-35"/>
       <use xlink:href="#DejaVuSans-30" x="63.623047"/>
      </g>
     </g>
    </g>
    <g id="ytick_6">
     <g id="line2d_16">
      <g>
       <use xlink:href="#m7820a79790" x="57.6" y="141.542348" style="stroke: #000000; stroke-width: 0.8"/>
      </g>
     </g>
     <g id="text_17">
      <!-- 60 -->
      <g transform="translate(37.875 145.341567) scale(0.1 -0.1)">
       <use xlink:href="#DejaVuSans-36"/>
       <use xlink:href="#DejaVuSans-30" x="63.623047"/>
      </g>
     </g>
    </g>
    <g id="ytick_7">
     <g id="line2d_17">
      <g>
       <use xlink:href="#m7820a79790" x="57.6" y="111.40176" style="stroke: #000000; stroke-width: 0.8"/>
      </g>
     </g>
     <g id="text_18">
      <!-- 70 -->
      <g transform="translate(37.875 115.200979) scale(0.1 -0.1)">
       <use xlink:href="#DejaVuSans-37"/>
       <use xlink:href="#DejaVuSans-30" x="63.623047"/>
      </g>
     </g>
    </g>
    <g id="ytick_8">
     <g id="line2d_18">
      <g>
       <use xlink:href="#m7820a79790" x="57.6" y="81.261172" style="stroke: #000000; stroke-width: 0.8"/>
      </g>
     </g>
     <g id="text_19">
      <!-- 80 -->
      <g transform="translate(37.875 85.060391) scale(0.1 -0.1)">
       <defs>
        <path id="DejaVuSans-38" d="M 2034 2216 
Q 1584 2216 1326 1975 
Q 1069 1734 1069 1313 
Q 1069 891 1326 650 
Q 1584 409 2034 409 
Q 2484 409 2743 651 
Q 3003 894 3003 1313 
Q 3003 1734 2745 1975 
Q 2488 2216 2034 2216 
z
M 1403 2484 
Q 997 2584 770 2862 
Q 544 3141 544 3541 
Q 544 4100 942 4425 
Q 1341 4750 2034 4750 
Q 2731 4750 3128 4425 
Q 3525 4100 3525 3541 
Q 3525 3141 3298 2862 
Q 3072 2584 2669 2484 
Q 3125 2378 3379 2068 
Q 3634 1759 3634 1313 
Q 3634 634 3220 271 
Q 2806 -91 2034 -91 
Q 1263 -91 848 271 
Q 434 634 434 1313 
Q 434 1759 690 2068 
Q 947 2378 1403 2484 
z
M 1172 3481 
Q 1172 3119 1398 2916 
Q 1625 2713 2034 2713 
Q 2441 2713 2670 2916 
Q 2900 3119 2900 3481 
Q 2900 3844 2670 4047 
Q 2441 4250 2034 4250 
Q 1625 4250 1398 4047 
Q 1172 3844 1172 3481 
z
" transform="scale(0.015625)"/>
       </defs>
       <use xlink:href="#DejaVuSans-38"/>
       <use xlink:href="#DejaVuSans-30" x="63.623047"/>
      </g>
     </g>
    </g>
    <g id="ytick_9">
     <g id="line2d_19">
      <g>
       <use xlink:href="#m7820a79790" x="57.6" y="51.120584" style="stroke: #000000; stroke-width: 0.8"/>
      </g>
     </g>
     <g id="text_20">
      <!-- 90 -->
      <g transform="translate(37.875 54.919803) scale(0.1 -0.1)">
       <defs>
        <path id="DejaVuSans-39" d="M 703 97 
L 703 672 
Q 941 559 1184 500 
Q 1428 441 1663 441 
Q 2288 441 2617 861 
Q 2947 1281 2994 2138 
Q 2813 1869 2534 1725 
Q 2256 1581 1919 1581 
Q 1219 1581 811 2004 
Q 403 2428 403 3163 
Q 403 3881 828 4315 
Q 1253 4750 1959 4750 
Q 2769 4750 3195 4129 
Q 3622 3509 3622 2328 
Q 3622 1225 3098 567 
Q 2575 -91 1691 -91 
Q 1453 -91 1209 -44 
Q 966 3 703 97 
z
M 1959 2075 
Q 2384 2075 2632 2365 
Q 2881 2656 2881 3163 
Q 2881 3666 2632 3958 
Q 2384 4250 1959 4250 
Q 1534 4250 1286 3958 
Q 1038 3666 1038 3163 
Q 1038 2656 1286 2365 
Q 1534 2075 1959 2075 
z
" transform="scale(0.015625)"/>
       </defs>
       <use xlink:href="#DejaVuSans-39"/>
       <use xlink:href="#DejaVuSans-30" x="63.623047"/>
      </g>
     </g>
    </g>
    <g id="text_21">
     <!-- Accuracy -->
     <g transform="translate(31.795312 197.356125) rotate(-90) scale(0.1 -0.1)">
      <defs>
       <path id="DejaVuSans-41" d="M 2188 4044 
L 1331 1722 
L 3047 1722 
L 2188 4044 
z
M 1831 4666 
L 2547 4666 
L 4325 0 
L 3669 0 
L 3244 1197 
L 1141 1197 
L 716 0 
L 50 0 
L 1831 4666 
z
" transform="scale(0.015625)"/>
       <path id="DejaVuSans-75" d="M 544 1381 
L 544 3500 
L 1119 3500 
L 1119 1403 
Q 1119 906 1312 657 
Q 1506 409 1894 409 
Q 2359 409 2629 706 
Q 2900 1003 2900 1516 
L 2900 3500 
L 3475 3500 
L 3475 0 
L 2900 0 
L 2900 538 
Q 2691 219 2414 64 
Q 2138 -91 1772 -91 
Q 1169 -91 856 284 
Q 544 659 544 1381 
z
M 1991 3584 
L 1991 3584 
z
" transform="scale(0.015625)"/>
       <path id="DejaVuSans-72" d="M 2631 2963 
Q 2534 3019 2420 3045 
Q 2306 3072 2169 3072 
Q 1681 3072 1420 2755 
Q 1159 2438 1159 1844 
L 1159 0 
L 581 0 
L 581 3500 
L 1159 3500 
L 1159 2956 
Q 1341 3275 1631 3429 
Q 1922 3584 2338 3584 
Q 2397 3584 2469 3576 
Q 2541 3569 2628 3553 
L 2631 2963 
z
" transform="scale(0.015625)"/>
       <path id="DejaVuSans-61" d="M 2194 1759 
Q 1497 1759 1228 1600 
Q 959 1441 959 1056 
Q 959 750 1161 570 
Q 1363 391 1709 391 
Q 2188 391 2477 730 
Q 2766 1069 2766 1631 
L 2766 1759 
L 2194 1759 
z
M 3341 1997 
L 3341 0 
L 2766 0 
L 2766 531 
Q 2569 213 2275 61 
Q 1981 -91 1556 -91 
Q 1019 -91 701 211 
Q 384 513 384 1019 
Q 384 1609 779 1909 
Q 1175 2209 1959 2209 
L 2766 2209 
L 2766 2266 
Q 2766 2663 2505 2880 
Q 2244 3097 1772 3097 
Q 1472 3097 1187 3025 
Q 903 2953 641 2809 
L 641 3341 
Q 956 3463 1253 3523 
Q 1550 3584 1831 3584 
Q 2591 3584 2966 3190 
Q 3341 2797 3341 1997 
z
" transform="scale(0.015625)"/>
       <path id="DejaVuSans-79" d="M 2059 -325 
Q 1816 -950 1584 -1140 
Q 1353 -1331 966 -1331 
L 506 -1331 
L 506 -850 
L 844 -850 
Q 1081 -850 1212 -737 
Q 1344 -625 1503 -206 
L 1606 56 
L 191 3500 
L 800 3500 
L 1894 763 
L 2988 3500 
L 3597 3500 
L 2059 -325 
z
" transform="scale(0.015625)"/>
      </defs>
      <use xlink:href="#DejaVuSans-41"/>
      <use xlink:href="#DejaVuSans-63" x="66.658203"/>
      <use xlink:href="#DejaVuSans-63" x="121.638672"/>
      <use xlink:href="#DejaVuSans-75" x="176.619141"/>
      <use xlink:href="#DejaVuSans-72" x="239.998047"/>
      <use xlink:href="#DejaVuSans-61" x="281.111328"/>
      <use xlink:href="#DejaVuSans-63" x="342.390625"/>
      <use xlink:href="#DejaVuSans-79" x="397.371094"/>
     </g>
    </g>
   </g>
   <g id="line2d_20">
    <path d="M 73.832727 294.70476 
L 76.00433 215.513379 
L 77.090131 184.697642 
L 78.175932 165.480003 
L 79.261733 153.037969 
L 80.347534 141.982401 
L 82.519137 126.833741 
L 85.77654 111.78756 
L 86.862341 109.111076 
L 87.948142 105.488177 
L 89.033943 100.858583 
L 90.119745 99.20085 
L 91.205546 95.282574 
L 92.291347 93.63087 
L 93.377148 92.823102 
L 94.462949 91.647619 
L 95.54875 118.117083 
L 96.634552 117.194781 
L 97.720353 114.090301 
L 98.806154 113.216224 
L 99.891955 110.88937 
L 100.977756 107.772834 
L 103.149358 103.643573 
L 105.320961 101.069567 
L 106.406762 97.717933 
L 107.492563 97.53709 
L 108.578364 95.228321 
L 109.664165 93.365632 
L 110.749967 92.756793 
L 111.835768 91.7079 
L 112.921569 89.308709 
L 114.00737 87.439993 
L 115.093171 86.48755 
L 116.178972 84.679115 
L 117.264773 84.787621 
L 118.350575 81.55655 
L 119.436376 81.357622 
L 120.522177 80.561911 
L 121.607978 79.259837 
L 122.693779 77.174109 
L 123.77958 76.30606 
L 124.865382 74.919593 
L 125.951183 73.804391 
L 127.036984 73.400507 
L 128.122785 71.176132 
L 129.208586 71.869365 
L 130.294387 70.024761 
L 131.380189 70.006677 
L 133.551791 68.571985 
L 134.637592 69.126572 
L 135.723393 68.23441 
L 136.809194 67.697908 
L 137.894995 67.926976 
L 138.980797 88.320098 
L 140.066598 92.015334 
L 142.2382 90.544473 
L 143.324001 90.152646 
L 144.409802 89.543806 
L 145.495604 89.483525 
L 146.581405 88.428604 
L 147.667206 88.193508 
L 148.753007 86.921575 
L 149.838808 86.26451 
L 152.01041 85.715951 
L 154.182013 84.130556 
L 155.267814 84.24509 
L 156.353615 82.472824 
L 157.439416 82.653667 
L 158.525217 82.105109 
L 159.611019 82.828483 
L 160.69682 82.605443 
L 161.782621 80.278589 
L 162.868422 81.098413 
L 163.954223 79.500962 
L 165.040024 79.326147 
L 166.125825 78.397816 
L 167.211627 78.500294 
L 168.297428 77.475514 
L 169.383229 77.246446 
L 172.640632 76.034794 
L 173.726434 76.191525 
L 174.812235 74.539821 
L 175.898036 73.852616 
L 176.983837 74.365006 
L 178.069638 73.13527 
L 179.155439 73.177467 
L 180.24124 71.62824 
L 181.327042 71.616184 
L 183.498644 71.326834 
L 184.584445 70.567292 
L 185.670246 69.584708 
L 187.841849 69.102459 
L 188.92765 67.963145 
L 190.013451 67.300052 
L 191.099252 67.480895 
L 192.185053 66.383778 
L 193.270854 65.618207 
L 194.356656 65.135958 
L 195.442457 65.12993 
L 196.528258 64.255853 
L 197.614059 64.020756 
L 198.69986 62.98392 
L 200.871462 62.133955 
L 201.957264 62.218349 
L 203.043065 62.037505 
L 204.128866 61.1574 
L 205.214667 60.711319 
L 206.300468 60.397857 
L 207.386269 61.47689 
L 208.472071 59.770933 
L 209.557872 59.222374 
L 210.643673 59.897523 
L 211.729474 59.451443 
L 212.815275 59.168121 
L 214.986877 58.046891 
L 216.072679 57.866048 
L 217.15848 57.450108 
L 218.244281 58.227735 
L 219.330082 58.185538 
L 220.415883 57.305433 
L 221.501684 57.341602 
L 222.587486 57.649036 
L 223.673287 57.528473 
L 224.759088 57.600811 
L 225.844889 77.632245 
L 226.93069 81.158694 
L 228.016491 80.790979 
L 229.102292 81.357622 
L 231.273895 80.393123 
L 232.359696 80.459433 
L 233.445497 79.850593 
L 234.531298 80.459433 
L 236.702901 79.296006 
L 237.788702 79.934986 
L 238.874503 78.735391 
L 239.960304 78.922263 
L 241.046105 79.663721 
L 242.131906 78.644969 
L 243.217708 78.19286 
L 245.38931 77.584021 
L 246.475111 77.65033 
L 247.560912 76.703915 
L 248.646713 77.921595 
L 249.732514 77.602105 
L 250.818316 76.920928 
L 251.904117 76.046851 
L 252.989918 76.324144 
L 254.075719 76.360313 
L 255.16152 75.938344 
L 256.247321 75.974513 
L 257.333123 74.979874 
L 258.418924 76.119188 
L 260.590526 75.606798 
L 261.676327 74.147994 
L 262.762128 74.853283 
L 263.847929 74.871368 
L 264.933731 73.768222 
L 267.105333 74.105797 
L 268.191134 75.305392 
L 269.276935 72.912229 
L 270.362736 72.610824 
L 271.448538 72.490261 
L 272.534339 72.743442 
L 273.62014 72.882089 
L 274.705941 71.881421 
L 275.791742 71.254497 
L 276.877543 71.742775 
L 277.963344 71.4052 
L 279.049146 72.200912 
L 280.134947 71.465481 
L 281.220748 70.500982 
L 282.306549 71.791 
L 283.39235 71.061597 
L 284.478151 71.001316 
L 285.563953 70.356308 
L 286.649754 69.415921 
L 287.735555 70.916922 
L 289.907157 70.169436 
L 290.992958 70.199576 
L 292.07876 70.398504 
L 293.164561 68.807081 
L 294.250362 69.421949 
L 295.336163 68.397169 
L 296.421964 67.776273 
L 297.507765 69.168768 
L 298.593566 67.872723 
L 299.679368 67.806414 
L 300.765169 68.282635 
L 301.85097 66.57065 
L 302.936771 67.541177 
L 304.022572 66.233075 
L 305.108373 67.070983 
L 306.194175 66.498312 
L 307.279976 66.082372 
L 308.365777 65.949754 
L 309.451578 65.455448 
L 310.537379 65.16007 
L 311.62318 65.708629 
L 312.708981 65.485589 
L 313.794783 65.563954 
L 314.880584 65.328857 
L 315.966385 64.322162 
L 317.052186 64.171459 
L 318.137987 64.346274 
L 319.223788 64.707961 
L 320.30959 63.381775 
L 321.395391 63.442057 
L 322.481192 63.032145 
L 323.566993 62.953779 
L 324.652794 61.995308 
L 325.738595 62.797048 
L 326.824396 62.031477 
L 327.910198 61.603481 
L 328.995999 61.639649 
L 330.0818 61.097119 
L 331.167601 61.302075 
L 333.339203 60.753516 
L 334.425005 60.874079 
L 335.510806 59.933692 
L 336.596607 60.470195 
L 337.682408 59.789017 
L 338.768209 60.192901 
L 339.85401 58.993306 
L 340.939811 59.752849 
L 343.111414 58.474888 
L 344.197215 58.330213 
L 345.283016 57.558614 
L 346.368817 58.137313 
L 347.454618 57.016083 
L 348.54042 56.25654 
L 349.626221 57.630951 
L 350.712022 56.232428 
L 351.797823 56.4193 
L 352.883624 56.443412 
L 353.969425 55.876769 
L 355.055227 55.635644 
L 356.141028 56.557946 
L 357.226829 55.943078 
L 358.31263 54.990636 
L 359.398431 54.647033 
L 361.570033 54.683202 
L 362.655835 54.665117 
L 363.741636 54.484274 
L 364.827437 54.49633 
L 365.913238 53.568 
L 366.999039 54.200952 
L 368.08484 53.911603 
L 369.170642 54.906242 
L 370.256443 55.509054 
L 372.428045 57.196927 
L 373.513846 56.570003 
L 374.599647 57.673148 
L 375.685448 56.744818 
L 377.857051 57.130618 
L 378.942852 57.148702 
L 380.028653 56.805099 
L 381.114454 57.040196 
L 382.200255 56.178175 
L 383.286057 57.094449 
L 384.371858 57.100477 
L 385.457659 56.443412 
L 386.54346 56.407243 
L 387.629261 56.949774 
L 388.715062 58.203622 
L 389.800863 56.479581 
L 390.886665 57.196927 
L 391.972466 57.456136 
L 393.058267 56.479581 
L 394.144068 56.570003 
L 395.229869 56.793043 
L 396.31567 57.329545 
L 397.401472 57.040196 
L 398.487273 57.28132 
L 398.487273 57.28132 
" clip-path="url(#p97e0915a6a)" style="fill: none; stroke: #1f77b4; stroke-width: 1.5; stroke-linecap: square"/>
   </g>
   <g id="line2d_21">
    <path d="M 73.832727 282.961987 
L 74.918528 256.377989 
L 76.00433 224.097419 
L 78.175932 192.238817 
L 79.261733 186.843652 
L 80.347534 179.609911 
L 81.433335 176.98768 
L 82.519137 170.989703 
L 83.604938 160.108951 
L 84.690739 152.664225 
L 85.77654 151.338039 
L 86.862341 147.26906 
L 87.948142 145.611328 
L 89.033943 143.501487 
L 90.119745 139.131101 
L 91.205546 139.010539 
L 92.291347 137.262385 
L 93.377148 137.202104 
L 94.462949 136.086902 
L 95.54875 158.270375 
L 96.634552 157.336016 
L 97.720353 162.580479 
L 98.806154 151.127055 
L 99.891955 153.628724 
L 100.977756 145.490765 
L 102.063557 147.660888 
L 103.149358 146.937514 
L 104.23516 144.345423 
L 105.320961 138.55843 
L 106.406762 145.2195 
L 108.578364 135.092262 
L 109.664165 136.840417 
L 110.749967 135.99648 
L 111.835768 132.078204 
L 112.921569 131.415111 
L 114.00737 129.184707 
L 115.093171 125.778821 
L 116.178972 127.557115 
L 117.264773 125.869243 
L 118.350575 125.71854 
L 119.436376 123.69912 
L 120.522177 122.825043 
L 121.607978 120.715202 
L 122.693779 117.00791 
L 123.77958 118.123111 
L 124.865382 115.048771 
L 125.951183 116.284536 
L 127.036984 115.440599 
L 128.122785 113.210196 
L 129.208586 113.149914 
L 131.380189 111.37162 
L 132.46599 111.763447 
L 133.551791 111.703166 
L 134.637592 111.220917 
L 135.723393 111.40176 
L 136.809194 110.829089 
L 137.894995 111.130495 
L 138.980797 136.780135 
L 140.066598 133.675655 
L 141.152399 131.927501 
L 142.2382 135.062122 
L 143.324001 131.475392 
L 144.409802 132.108344 
L 145.495604 127.828381 
L 146.581405 129.666957 
L 147.667206 130.179347 
L 148.753007 129.606675 
L 149.838808 128.009224 
L 150.924609 126.683038 
L 152.01041 130.088925 
L 153.096212 125.808961 
L 154.182013 126.110367 
L 155.267814 129.666957 
L 156.353615 124.603338 
L 157.439416 126.080227 
L 158.525217 126.803601 
L 159.611019 125.025306 
L 160.69682 124.663619 
L 161.782621 123.910104 
L 162.868422 121.076889 
L 163.954223 124.392354 
L 165.040024 120.504218 
L 166.125825 123.126449 
L 167.211627 124.573197 
L 168.297428 122.13181 
L 169.383229 120.142531 
L 170.46903 119.178032 
L 171.554831 119.178032 
L 172.640632 118.213533 
L 173.726434 116.616082 
L 174.812235 118.756064 
L 175.898036 115.350177 
L 176.983837 119.05747 
L 178.069638 115.651583 
L 179.155439 114.325397 
L 180.24124 116.676363 
L 181.327042 114.265116 
L 182.412843 116.52566 
L 184.584445 111.974431 
L 185.670246 111.341479 
L 186.756047 112.667665 
L 187.841849 111.88401 
L 188.92765 109.86459 
L 190.013451 108.116436 
L 191.099252 110.768808 
L 192.185053 109.86459 
L 193.270854 108.026014 
L 194.356656 107.845171 
L 195.442457 106.940953 
L 196.528258 107.573906 
L 197.614059 106.609407 
L 198.69986 106.910813 
L 199.785661 105.433924 
L 200.871462 105.705189 
L 201.957264 106.398423 
L 203.043065 104.499566 
L 204.128866 104.258441 
L 205.214667 102.329443 
L 206.300468 103.504926 
L 208.472071 102.600709 
L 209.557872 101.545788 
L 210.643673 102.902114 
L 211.729474 102.269162 
L 212.815275 101.817053 
L 213.901076 101.997897 
L 214.986877 101.033398 
L 216.072679 100.490867 
L 217.15848 100.852554 
L 218.244281 100.731992 
L 219.330082 100.942976 
L 220.415883 100.370305 
L 221.501684 100.310024 
L 222.587486 101.485507 
L 223.673287 100.551149 
L 224.759088 100.430586 
L 225.844889 124.512916 
L 226.93069 124.000526 
L 228.016491 122.192091 
L 229.102292 124.121088 
L 230.188094 126.351492 
L 231.273895 125.839102 
L 232.359696 122.614059 
L 234.531298 123.15659 
L 235.617099 127.225569 
L 236.702901 128.340771 
L 237.788702 124.151229 
L 238.874503 120.865905 
L 239.960304 127.557115 
L 241.046105 125.025306 
L 242.131906 122.13181 
L 243.217708 125.597977 
L 244.303509 122.493497 
L 245.38931 123.307293 
L 246.475111 120.172671 
L 247.560912 121.800263 
L 248.646713 121.468717 
L 249.732514 119.449297 
L 250.818316 121.709841 
L 251.904117 117.218894 
L 252.989918 123.488136 
L 254.075719 119.901406 
L 255.16152 118.846486 
L 256.247321 120.474077 
L 257.333123 123.307293 
L 258.418924 119.08761 
L 259.504725 123.036027 
L 260.590526 122.041388 
L 261.676327 119.871266 
L 262.762128 119.961687 
L 263.847929 117.640862 
L 264.933731 117.188753 
L 266.019532 118.334096 
L 267.105333 117.490159 
L 268.191134 118.936907 
L 269.276935 120.021968 
L 270.362736 116.194114 
L 271.448538 115.47074 
L 272.534339 121.528998 
L 273.62014 117.942268 
L 274.705941 124.603338 
L 275.791742 117.188753 
L 276.877543 112.878649 
L 277.963344 114.898069 
L 280.134947 118.153252 
L 281.220748 117.309316 
L 282.306549 114.144554 
L 283.39235 116.977769 
L 284.478151 115.922849 
L 285.563953 117.158613 
L 286.649754 115.952989 
L 287.735555 115.229615 
L 288.821356 114.747366 
L 289.907157 114.536381 
L 290.992958 113.752726 
L 292.07876 111.492182 
L 293.164561 112.3964 
L 294.250362 112.818368 
L 295.336163 113.119774 
L 296.421964 112.818368 
L 297.507765 111.220917 
L 298.593566 112.245697 
L 300.765169 108.206858 
L 301.85097 112.607384 
L 302.936771 111.341479 
L 304.022572 110.316699 
L 306.194175 110.587964 
L 307.279976 109.080935 
L 308.365777 108.267139 
L 309.451578 108.960373 
L 310.537379 107.121797 
L 311.62318 108.80967 
L 312.708981 109.713887 
L 313.794783 108.026014 
L 314.880584 110.708527 
L 315.966385 110.105715 
L 317.052186 108.719248 
L 318.137987 105.916173 
L 319.223788 105.102377 
L 320.30959 107.453343 
L 321.395391 106.398423 
L 322.481192 108.658967 
L 323.566993 106.338142 
L 324.652794 105.343502 
L 325.738595 108.900091 
L 326.824396 107.001234 
L 327.910198 103.052817 
L 328.995999 104.137879 
L 330.0818 103.354223 
L 331.167601 103.233661 
L 332.253402 104.861253 
L 333.339203 103.565207 
L 334.425005 103.324083 
L 335.510806 102.17874 
L 336.596607 102.781552 
L 337.682408 101.545788 
L 338.768209 100.068899 
L 339.85401 104.047457 
L 340.939811 102.540427 
L 342.025613 100.701852 
L 343.111414 100.189462 
L 344.197215 100.460727 
L 345.283016 101.515647 
L 346.368817 101.334804 
L 347.454618 100.701852 
L 348.54042 100.340164 
L 349.626221 102.208881 
L 350.712022 98.742713 
L 351.797823 99.948337 
L 352.883624 101.395085 
L 353.969425 98.411167 
L 355.055227 100.249743 
L 356.141028 98.019339 
L 357.226829 96.060201 
L 358.31263 98.772854 
L 359.398431 96.783575 
L 360.484232 96.813716 
L 361.570033 96.51231 
L 362.655835 97.838496 
L 363.741636 96.964419 
L 364.827437 96.482169 
L 366.999039 96.54245 
L 368.08484 96.210904 
L 369.170642 97.326106 
L 370.256443 97.838496 
L 371.342244 97.56723 
L 372.428045 101.003257 
L 373.513846 98.893416 
L 374.599647 102.419865 
L 376.77125 96.632872 
L 377.857051 102.028037 
L 378.942852 99.466087 
L 380.028653 98.59201 
L 382.200255 102.721271 
L 383.286057 100.942976 
L 385.457659 98.682432 
L 386.54346 98.56187 
L 387.629261 100.068899 
L 388.715062 99.978477 
L 389.800863 99.61679 
L 390.886665 99.827775 
L 391.972466 98.230323 
L 393.058267 98.983838 
L 394.144068 99.526369 
L 395.229869 101.696491 
L 396.31567 100.310024 
L 397.401472 99.194822 
L 398.487273 99.827775 
L 398.487273 99.827775 
" clip-path="url(#p97e0915a6a)" style="fill: none; stroke: #ff7f0e; stroke-width: 1.5; stroke-linecap: square"/>
   </g>
   <g id="line2d_22">
    <path d="M 73.832727 295.488 
L 74.918528 272.830592 
L 76.00433 242.357419 
L 77.090131 239.468079 
L 78.175932 225.873635 
L 79.261733 216.249433 
L 80.347534 218.141015 
L 81.433335 213.734253 
L 82.519137 210.512328 
L 83.604938 209.348278 
L 84.690739 189.060544 
L 85.77654 193.19708 
L 86.862341 196.044846 
L 87.948142 193.072361 
L 89.033943 189.600996 
L 91.205546 189.33077 
L 92.291347 188.062787 
L 93.377148 188.021214 
L 94.462949 186.981883 
L 95.54875 207.040964 
L 96.634552 204.837583 
L 97.720353 204.546571 
L 98.806154 200.119022 
L 99.891955 188.478519 
L 102.063557 198.830252 
L 103.149358 199.245984 
L 104.23516 195.338101 
L 105.320961 187.314469 
L 106.406762 187.189749 
L 107.492563 196.273499 
L 108.578364 181.036912 
L 109.664165 189.933582 
L 110.749967 184.778502 
L 111.835768 172.930133 
L 112.921569 177.440828 
L 114.00737 182.88692 
L 115.093171 186.295925 
L 117.264773 179.020611 
L 118.350575 178.168359 
L 119.436376 182.117816 
L 120.522177 176.56779 
L 121.607978 176.235204 
L 122.693779 168.606518 
L 123.77958 174.967221 
L 124.865382 167.005949 
L 125.951183 171.433497 
L 127.036984 170.082367 
L 128.122785 167.255388 
L 129.208586 170.227873 
L 130.294387 171.433497 
L 131.380189 167.442467 
L 132.46599 166.902015 
L 133.551791 166.548643 
L 134.637592 169.188543 
L 135.723393 168.253145 
L 136.809194 169.043037 
L 137.894995 167.567187 
L 138.980797 196.419005 
L 140.066598 186.732444 
L 141.152399 187.189749 
L 142.2382 179.041397 
L 143.324001 193.550453 
L 144.409802 183.01164 
L 145.495604 180.4341 
L 146.581405 183.427372 
L 147.667206 175.133514 
L 148.753007 182.866134 
L 149.838808 174.073397 
L 150.924609 187.834134 
L 152.01041 179.353196 
L 153.096212 172.992493 
L 154.182013 176.526217 
L 155.267814 173.345865 
L 157.439416 180.600393 
L 158.525217 180.247021 
L 159.611019 174.11497 
L 160.69682 176.983523 
L 161.782621 174.967221 
L 162.868422 176.068912 
L 163.954223 176.193631 
L 165.040024 174.800928 
L 166.125825 180.662753 
L 167.211627 165.654819 
L 168.297428 177.087456 
L 169.383229 175.757112 
L 170.46903 171.807656 
L 171.554831 169.437982 
L 172.640632 165.03122 
L 173.726434 165.509312 
L 174.812235 168.481798 
L 175.898036 163.139639 
L 176.983837 174.904861 
L 178.069638 173.720024 
L 179.155439 168.627304 
L 180.24124 157.257027 
L 181.327042 165.717179 
L 182.412843 164.719421 
L 183.498644 169.167756 
L 184.584445 170.103154 
L 185.670246 159.127822 
L 186.756047 170.539673 
L 187.841849 166.38235 
L 188.92765 160.998618 
L 191.099252 164.282902 
L 192.185053 159.335689 
L 193.270854 159.210969 
L 194.356656 157.049161 
L 195.442457 159.086249 
L 196.528258 162.869413 
L 197.614059 164.636275 
L 198.69986 155.801964 
L 199.785661 153.993529 
L 200.871462 154.679487 
L 201.957264 160.12558 
L 203.043065 156.862082 
L 204.128866 157.67276 
L 205.214667 149.711487 
L 206.300468 154.762634 
L 207.386269 154.596341 
L 208.472071 160.271086 
L 209.557872 158.067705 
L 210.643673 156.591856 
L 211.729474 156.363203 
L 212.815275 154.201395 
L 213.901076 156.404776 
L 214.986877 157.444107 
L 216.072679 154.928927 
L 217.15848 157.735119 
L 218.244281 156.758149 
L 219.330082 158.296358 
L 220.415883 154.159822 
L 221.501684 155.573312 
L 222.587486 157.568827 
L 223.673287 155.718818 
L 224.759088 155.03286 
L 225.844889 171.890802 
L 226.93069 179.519489 
L 228.016491 180.475673 
L 229.102292 176.443071 
L 230.188094 170.809899 
L 231.273895 176.463857 
L 232.359696 178.937464 
L 233.445497 174.904861 
L 234.531298 176.941949 
L 235.617099 176.193631 
L 236.702901 171.973949 
L 237.788702 179.020611 
L 238.874503 172.930133 
L 239.960304 182.658268 
L 241.046105 179.623422 
L 242.131906 173.657665 
L 243.217708 182.575121 
L 244.303509 168.440225 
L 245.38931 170.726752 
L 246.475111 177.98128 
L 247.560912 177.523974 
L 248.646713 173.449798 
L 249.732514 174.717782 
L 250.818316 174.800928 
L 251.904117 166.049764 
L 252.989918 167.359321 
L 254.075719 176.235204 
L 255.16152 160.104793 
L 256.247321 169.936861 
L 257.333123 176.235204 
L 258.418924 166.216057 
L 259.504725 174.634635 
L 260.590526 163.035706 
L 261.676327 173.574518 
L 262.762128 168.169999 
L 263.847929 171.433497 
L 264.933731 161.934015 
L 266.019532 171.620577 
L 267.105333 174.031824 
L 268.191134 174.988008 
L 269.276935 172.057095 
L 270.362736 162.723906 
L 271.448538 162.599187 
L 272.534339 172.867773 
L 273.62014 163.035706 
L 274.705941 175.050368 
L 275.791742 174.426769 
L 277.963344 156.446349 
L 280.134947 172.576761 
L 281.220748 165.446953 
L 282.306549 173.304292 
L 283.39235 170.040794 
L 284.478151 164.927287 
L 285.563953 176.921163 
L 286.649754 165.841898 
L 287.735555 175.694753 
L 288.821356 167.941346 
L 289.907157 169.126183 
L 290.992958 170.539673 
L 292.07876 167.587974 
L 293.164561 166.881229 
L 294.250362 169.687422 
L 295.336163 166.56943 
L 296.421964 158.504224 
L 297.507765 167.400894 
L 298.593566 161.060977 
L 299.679368 164.823354 
L 300.765169 159.252542 
L 301.85097 161.788509 
L 302.936771 173.387439 
L 304.022572 161.892442 
L 305.108373 153.390717 
L 306.194175 158.046919 
L 307.279976 157.735119 
L 308.365777 160.271086 
L 309.451578 154.326115 
L 310.537379 154.928927 
L 311.62318 157.963772 
L 312.708981 164.864927 
L 313.794783 159.772207 
L 314.880584 159.501981 
L 315.966385 155.531738 
L 317.052186 162.723906 
L 318.137987 157.839052 
L 319.223788 155.739605 
L 320.30959 163.347505 
L 321.395391 163.700877 
L 322.481192 165.052007 
L 323.566993 157.880626 
L 324.652794 161.393563 
L 325.738595 157.007588 
L 326.824396 156.300843 
L 327.910198 161.393563 
L 328.995999 155.926684 
L 330.0818 152.081161 
L 331.167601 157.631186 
L 332.253402 165.758752 
L 333.339203 154.035102 
L 334.425005 152.122734 
L 335.510806 151.894081 
L 336.596607 152.226667 
L 337.682408 157.069948 
L 338.768209 154.388475 
L 339.85401 153.889596 
L 340.939811 157.090734 
L 342.025613 155.261513 
L 343.111414 151.748575 
L 344.197215 155.344659 
L 345.283016 155.635672 
L 346.368817 154.450835 
L 347.454618 154.741847 
L 348.54042 149.108675 
L 349.626221 151.208123 
L 350.712022 151.644642 
L 351.797823 151.021044 
L 352.883624 154.076676 
L 353.969425 152.704759 
L 355.055227 157.54804 
L 356.141028 150.854751 
L 357.226829 151.457562 
L 358.31263 153.390717 
L 359.398431 152.101947 
L 360.484232 150.085646 
L 361.570033 149.898567 
L 362.655835 154.139035 
L 363.741636 151.686215 
L 364.827437 148.339571 
L 365.913238 151.582282 
L 366.999039 150.459805 
L 368.08484 149.649127 
L 369.170642 149.649127 
L 370.256443 148.963169 
L 371.342244 147.508106 
L 372.428045 154.84578 
L 373.513846 151.665429 
L 374.599647 155.178366 
L 375.685448 154.159822 
L 376.77125 153.55701 
L 377.857051 158.275571 
L 378.942852 150.064859 
L 380.028653 152.559253 
L 381.114454 154.409261 
L 383.286057 156.238483 
L 384.371858 151.914868 
L 385.457659 149.150248 
L 386.54346 156.508709 
L 387.629261 150.251939 
L 388.715062 153.286784 
L 389.800863 151.436776 
L 390.886665 156.404776 
L 391.972466 153.224425 
L 393.058267 156.841295 
L 394.144068 151.727788 
L 395.229869 151.873295 
L 396.31567 156.404776 
L 397.401472 150.501378 
L 398.487273 147.487319 
L 398.487273 147.487319 
" clip-path="url(#p97e0915a6a)" style="fill: none; stroke: #2ca02c; stroke-width: 1.5; stroke-linecap: square"/>
   </g>
   <g id="line2d_23">
    <path d="M 368.08484 96.994559 
L 369.170642 95.457389 
L 371.342244 98.200183 
L 372.428045 97.476809 
L 373.513846 99.345525 
L 374.599647 97.928917 
L 375.685448 97.657652 
L 376.77125 99.797634 
L 377.857051 97.084981 
L 378.942852 96.873997 
L 380.028653 98.712573 
L 381.114454 98.531729 
L 382.200255 98.983838 
L 384.371858 96.452029 
L 385.457659 97.446668 
L 386.54346 96.421888 
L 387.629261 99.61679 
L 388.715062 98.139902 
L 389.800863 96.964419 
L 390.886665 97.175403 
L 391.972466 95.728655 
L 393.058267 100.279883 
L 394.144068 97.748074 
L 395.229869 101.455366 
L 396.31567 99.707212 
L 397.401472 101.967756 
L 398.487273 99.044119 
L 398.487273 99.044119 
" clip-path="url(#p97e0915a6a)" style="fill: none; stroke: #d62728; stroke-width: 1.5; stroke-linecap: square"/>
   </g>
   <g id="line2d_24">
    <path d="M 368.08484 151.707002 
L 369.170642 153.702517 
L 370.256443 152.891839 
L 371.342244 150.833964 
L 372.428045 147.695186 
L 373.513846 152.621613 
L 374.599647 152.309814 
L 375.685448 150.646885 
L 376.77125 145.263152 
L 377.857051 152.039588 
L 378.942852 148.110918 
L 380.028653 149.94014 
L 381.114454 150.917111 
L 382.200255 150.023286 
L 383.286057 141.916507 
L 384.371858 145.180006 
L 385.457659 150.917111 
L 386.54346 146.531135 
L 387.629261 148.048558 
L 388.715062 155.407019 
L 389.800863 146.468775 
L 390.886665 141.126616 
L 391.972466 150.376659 
L 393.058267 152.185094 
L 394.144068 149.75306 
L 395.229869 151.582282 
L 396.31567 142.851905 
L 397.401472 157.54804 
L 398.487273 154.741847 
L 398.487273 154.741847 
" clip-path="url(#p97e0915a6a)" style="fill: none; stroke: #9467bd; stroke-width: 1.5; stroke-linecap: square"/>
   </g>
   <g id="patch_3">
    <path d="M 57.6 307.584 
L 57.6 41.472 
" style="fill: none; stroke: #000000; stroke-width: 0.8; stroke-linejoin: miter; stroke-linecap: square"/>
   </g>
   <g id="patch_4">
    <path d="M 414.72 307.584 
L 414.72 41.472 
" style="fill: none; stroke: #000000; stroke-width: 0.8; stroke-linejoin: miter; stroke-linecap: square"/>
   </g>
   <g id="patch_5">
    <path d="M 57.6 307.584 
L 414.72 307.584 
" style="fill: none; stroke: #000000; stroke-width: 0.8; stroke-linejoin: miter; stroke-linecap: square"/>
   </g>
   <g id="patch_6">
    <path d="M 57.6 41.472 
L 414.72 41.472 
" style="fill: none; stroke: #000000; stroke-width: 0.8; stroke-linejoin: miter; stroke-linecap: square"/>
   </g>
   <g id="text_22">
    <!-- Learning Curves -->
    <g transform="translate(187.37625 35.472) scale(0.12 -0.12)">
     <defs>
      <path id="DejaVuSans-4c" d="M 628 4666 
L 1259 4666 
L 1259 531 
L 3531 531 
L 3531 0 
L 628 0 
L 628 4666 
z
" transform="scale(0.015625)"/>
      <path id="DejaVuSans-65" d="M 3597 1894 
L 3597 1613 
L 953 1613 
Q 991 1019 1311 708 
Q 1631 397 2203 397 
Q 2534 397 2845 478 
Q 3156 559 3463 722 
L 3463 178 
Q 3153 47 2828 -22 
Q 2503 -91 2169 -91 
Q 1331 -91 842 396 
Q 353 884 353 1716 
Q 353 2575 817 3079 
Q 1281 3584 2069 3584 
Q 2775 3584 3186 3129 
Q 3597 2675 3597 1894 
z
M 3022 2063 
Q 3016 2534 2758 2815 
Q 2500 3097 2075 3097 
Q 1594 3097 1305 2825 
Q 1016 2553 972 2059 
L 3022 2063 
z
" transform="scale(0.015625)"/>
      <path id="DejaVuSans-6e" d="M 3513 2113 
L 3513 0 
L 2938 0 
L 2938 2094 
Q 2938 2591 2744 2837 
Q 2550 3084 2163 3084 
Q 1697 3084 1428 2787 
Q 1159 2491 1159 1978 
L 1159 0 
L 581 0 
L 581 3500 
L 1159 3500 
L 1159 2956 
Q 1366 3272 1645 3428 
Q 1925 3584 2291 3584 
Q 2894 3584 3203 3211 
Q 3513 2838 3513 2113 
z
" transform="scale(0.015625)"/>
      <path id="DejaVuSans-69" d="M 603 3500 
L 1178 3500 
L 1178 0 
L 603 0 
L 603 3500 
z
M 603 4863 
L 1178 4863 
L 1178 4134 
L 603 4134 
L 603 4863 
z
" transform="scale(0.015625)"/>
      <path id="DejaVuSans-67" d="M 2906 1791 
Q 2906 2416 2648 2759 
Q 2391 3103 1925 3103 
Q 1463 3103 1205 2759 
Q 947 2416 947 1791 
Q 947 1169 1205 825 
Q 1463 481 1925 481 
Q 2391 481 2648 825 
Q 2906 1169 2906 1791 
z
M 3481 434 
Q 3481 -459 3084 -895 
Q 2688 -1331 1869 -1331 
Q 1566 -1331 1297 -1286 
Q 1028 -1241 775 -1147 
L 775 -588 
Q 1028 -725 1275 -790 
Q 1522 -856 1778 -856 
Q 2344 -856 2625 -561 
Q 2906 -266 2906 331 
L 2906 616 
Q 2728 306 2450 153 
Q 2172 0 1784 0 
Q 1141 0 747 490 
Q 353 981 353 1791 
Q 353 2603 747 3093 
Q 1141 3584 1784 3584 
Q 2172 3584 2450 3431 
Q 2728 3278 2906 2969 
L 2906 3500 
L 3481 3500 
L 3481 434 
z
" transform="scale(0.015625)"/>
      <path id="DejaVuSans-20" transform="scale(0.015625)"/>
      <path id="DejaVuSans-43" d="M 4122 4306 
L 4122 3641 
Q 3803 3938 3442 4084 
Q 3081 4231 2675 4231 
Q 1875 4231 1450 3742 
Q 1025 3253 1025 2328 
Q 1025 1406 1450 917 
Q 1875 428 2675 428 
Q 3081 428 3442 575 
Q 3803 722 4122 1019 
L 4122 359 
Q 3791 134 3420 21 
Q 3050 -91 2638 -91 
Q 1578 -91 968 557 
Q 359 1206 359 2328 
Q 359 3453 968 4101 
Q 1578 4750 2638 4750 
Q 3056 4750 3426 4639 
Q 3797 4528 4122 4306 
z
" transform="scale(0.015625)"/>
      <path id="DejaVuSans-76" d="M 191 3500 
L 800 3500 
L 1894 563 
L 2988 3500 
L 3597 3500 
L 2284 0 
L 1503 0 
L 191 3500 
z
" transform="scale(0.015625)"/>
     </defs>
     <use xlink:href="#DejaVuSans-4c"/>
     <use xlink:href="#DejaVuSans-65" x="53.962891"/>
     <use xlink:href="#DejaVuSans-61" x="115.486328"/>
     <use xlink:href="#DejaVuSans-72" x="176.765625"/>
     <use xlink:href="#DejaVuSans-6e" x="216.128906"/>
     <use xlink:href="#DejaVuSans-69" x="279.507812"/>
     <use xlink:href="#DejaVuSans-6e" x="307.291016"/>
     <use xlink:href="#DejaVuSans-67" x="370.669922"/>
     <use xlink:href="#DejaVuSans-20" x="434.146484"/>
     <use xlink:href="#DejaVuSans-43" x="465.933594"/>
     <use xlink:href="#DejaVuSans-75" x="535.757812"/>
     <use xlink:href="#DejaVuSans-72" x="599.136719"/>
     <use xlink:href="#DejaVuSans-76" x="640.25"/>
     <use xlink:href="#DejaVuSans-65" x="699.429688"/>
     <use xlink:href="#DejaVuSans-73" x="760.953125"/>
    </g>
   </g>
   <g id="legend_1">
    <g id="patch_7">
     <path d="M 214.18875 302.584 
L 407.72 302.584 
Q 409.72 302.584 409.72 300.584 
L 409.72 228.193375 
Q 409.72 226.193375 407.72 226.193375 
L 214.18875 226.193375 
Q 212.18875 226.193375 212.18875 228.193375 
L 212.18875 300.584 
Q 212.18875 302.584 214.18875 302.584 
z
" style="fill: #ffffff; opacity: 0.8; stroke: #cccccc; stroke-linejoin: miter"/>
    </g>
    <g id="line2d_25">
     <path d="M 216.18875 234.291812 
L 226.18875 234.291812 
L 236.18875 234.291812 
" style="fill: none; stroke: #1f77b4; stroke-width: 1.5; stroke-linecap: square"/>
    </g>
    <g id="text_23">
     <!-- Train Accuracy -->
     <g transform="translate(244.18875 237.791812) scale(0.1 -0.1)">
      <defs>
       <path id="DejaVuSans-54" d="M -19 4666 
L 3928 4666 
L 3928 4134 
L 2272 4134 
L 2272 0 
L 1638 0 
L 1638 4134 
L -19 4134 
L -19 4666 
z
" transform="scale(0.015625)"/>
      </defs>
      <use xlink:href="#DejaVuSans-54"/>
      <use xlink:href="#DejaVuSans-72" x="46.333984"/>
      <use xlink:href="#DejaVuSans-61" x="87.447266"/>
      <use xlink:href="#DejaVuSans-69" x="148.726562"/>
      <use xlink:href="#DejaVuSans-6e" x="176.509766"/>
      <use xlink:href="#DejaVuSans-20" x="239.888672"/>
      <use xlink:href="#DejaVuSans-41" x="271.675781"/>
      <use xlink:href="#DejaVuSans-63" x="338.333984"/>
      <use xlink:href="#DejaVuSans-63" x="393.314453"/>
      <use xlink:href="#DejaVuSans-75" x="448.294922"/>
      <use xlink:href="#DejaVuSans-72" x="511.673828"/>
      <use xlink:href="#DejaVuSans-61" x="552.787109"/>
      <use xlink:href="#DejaVuSans-63" x="614.066406"/>
      <use xlink:href="#DejaVuSans-79" x="669.046875"/>
     </g>
    </g>
    <g id="line2d_26">
     <path d="M 216.18875 248.969937 
L 226.18875 248.969937 
L 236.18875 248.969937 
" style="fill: none; stroke: #ff7f0e; stroke-width: 1.5; stroke-linecap: square"/>
    </g>
    <g id="text_24">
     <!-- Validation Accuracy -->
     <g transform="translate(244.18875 252.469937) scale(0.1 -0.1)">
      <defs>
       <path id="DejaVuSans-56" d="M 1831 0 
L 50 4666 
L 709 4666 
L 2188 738 
L 3669 4666 
L 4325 4666 
L 2547 0 
L 1831 0 
z
" transform="scale(0.015625)"/>
       <path id="DejaVuSans-6c" d="M 603 4863 
L 1178 4863 
L 1178 0 
L 603 0 
L 603 4863 
z
" transform="scale(0.015625)"/>
       <path id="DejaVuSans-64" d="M 2906 2969 
L 2906 4863 
L 3481 4863 
L 3481 0 
L 2906 0 
L 2906 525 
Q 2725 213 2448 61 
Q 2172 -91 1784 -91 
Q 1150 -91 751 415 
Q 353 922 353 1747 
Q 353 2572 751 3078 
Q 1150 3584 1784 3584 
Q 2172 3584 2448 3432 
Q 2725 3281 2906 2969 
z
M 947 1747 
Q 947 1113 1208 752 
Q 1469 391 1925 391 
Q 2381 391 2643 752 
Q 2906 1113 2906 1747 
Q 2906 2381 2643 2742 
Q 2381 3103 1925 3103 
Q 1469 3103 1208 2742 
Q 947 2381 947 1747 
z
" transform="scale(0.015625)"/>
       <path id="DejaVuSans-74" d="M 1172 4494 
L 1172 3500 
L 2356 3500 
L 2356 3053 
L 1172 3053 
L 1172 1153 
Q 1172 725 1289 603 
Q 1406 481 1766 481 
L 2356 481 
L 2356 0 
L 1766 0 
Q 1100 0 847 248 
Q 594 497 594 1153 
L 594 3053 
L 172 3053 
L 172 3500 
L 594 3500 
L 594 4494 
L 1172 4494 
z
" transform="scale(0.015625)"/>
      </defs>
      <use xlink:href="#DejaVuSans-56"/>
      <use xlink:href="#DejaVuSans-61" x="60.658203"/>
      <use xlink:href="#DejaVuSans-6c" x="121.9375"/>
      <use xlink:href="#DejaVuSans-69" x="149.720703"/>
      <use xlink:href="#DejaVuSans-64" x="177.503906"/>
      <use xlink:href="#DejaVuSans-61" x="240.980469"/>
      <use xlink:href="#DejaVuSans-74" x="302.259766"/>
      <use xlink:href="#DejaVuSans-69" x="341.46875"/>
      <use xlink:href="#DejaVuSans-6f" x="369.251953"/>
      <use xlink:href="#DejaVuSans-6e" x="430.433594"/>
      <use xlink:href="#DejaVuSans-20" x="493.8125"/>
      <use xlink:href="#DejaVuSans-41" x="525.599609"/>
      <use xlink:href="#DejaVuSans-63" x="592.257812"/>
      <use xlink:href="#DejaVuSans-63" x="647.238281"/>
      <use xlink:href="#DejaVuSans-75" x="702.21875"/>
      <use xlink:href="#DejaVuSans-72" x="765.597656"/>
      <use xlink:href="#DejaVuSans-61" x="806.710938"/>
      <use xlink:href="#DejaVuSans-63" x="867.990234"/>
      <use xlink:href="#DejaVuSans-79" x="922.970703"/>
     </g>
    </g>
    <g id="line2d_27">
     <path d="M 216.18875 263.648062 
L 226.18875 263.648062 
L 236.18875 263.648062 
" style="fill: none; stroke: #2ca02c; stroke-width: 1.5; stroke-linecap: square"/>
    </g>
    <g id="text_25">
     <!-- Robust Validation Accuracy -->
     <g transform="translate(244.18875 267.148062) scale(0.1 -0.1)">
      <defs>
       <path id="DejaVuSans-52" d="M 2841 2188 
Q 3044 2119 3236 1894 
Q 3428 1669 3622 1275 
L 4263 0 
L 3584 0 
L 2988 1197 
Q 2756 1666 2539 1819 
Q 2322 1972 1947 1972 
L 1259 1972 
L 1259 0 
L 628 0 
L 628 4666 
L 2053 4666 
Q 2853 4666 3247 4331 
Q 3641 3997 3641 3322 
Q 3641 2881 3436 2590 
Q 3231 2300 2841 2188 
z
M 1259 4147 
L 1259 2491 
L 2053 2491 
Q 2509 2491 2742 2702 
Q 2975 2913 2975 3322 
Q 2975 3731 2742 3939 
Q 2509 4147 2053 4147 
L 1259 4147 
z
" transform="scale(0.015625)"/>
       <path id="DejaVuSans-62" d="M 3116 1747 
Q 3116 2381 2855 2742 
Q 2594 3103 2138 3103 
Q 1681 3103 1420 2742 
Q 1159 2381 1159 1747 
Q 1159 1113 1420 752 
Q 1681 391 2138 391 
Q 2594 391 2855 752 
Q 3116 1113 3116 1747 
z
M 1159 2969 
Q 1341 3281 1617 3432 
Q 1894 3584 2278 3584 
Q 2916 3584 3314 3078 
Q 3713 2572 3713 1747 
Q 3713 922 3314 415 
Q 2916 -91 2278 -91 
Q 1894 -91 1617 61 
Q 1341 213 1159 525 
L 1159 0 
L 581 0 
L 581 4863 
L 1159 4863 
L 1159 2969 
z
" transform="scale(0.015625)"/>
      </defs>
      <use xlink:href="#DejaVuSans-52"/>
      <use xlink:href="#DejaVuSans-6f" x="64.982422"/>
      <use xlink:href="#DejaVuSans-62" x="126.164062"/>
      <use xlink:href="#DejaVuSans-75" x="189.640625"/>
      <use xlink:href="#DejaVuSans-73" x="253.019531"/>
      <use xlink:href="#DejaVuSans-74" x="305.119141"/>
      <use xlink:href="#DejaVuSans-20" x="344.328125"/>
      <use xlink:href="#DejaVuSans-56" x="376.115234"/>
      <use xlink:href="#DejaVuSans-61" x="436.773438"/>
      <use xlink:href="#DejaVuSans-6c" x="498.052734"/>
      <use xlink:href="#DejaVuSans-69" x="525.835938"/>
      <use xlink:href="#DejaVuSans-64" x="553.619141"/>
      <use xlink:href="#DejaVuSans-61" x="617.095703"/>
      <use xlink:href="#DejaVuSans-74" x="678.375"/>
      <use xlink:href="#DejaVuSans-69" x="717.583984"/>
      <use xlink:href="#DejaVuSans-6f" x="745.367188"/>
      <use xlink:href="#DejaVuSans-6e" x="806.548828"/>
      <use xlink:href="#DejaVuSans-20" x="869.927734"/>
      <use xlink:href="#DejaVuSans-41" x="901.714844"/>
      <use xlink:href="#DejaVuSans-63" x="968.373047"/>
      <use xlink:href="#DejaVuSans-63" x="1023.353516"/>
      <use xlink:href="#DejaVuSans-75" x="1078.333984"/>
      <use xlink:href="#DejaVuSans-72" x="1141.712891"/>
      <use xlink:href="#DejaVuSans-61" x="1182.826172"/>
      <use xlink:href="#DejaVuSans-63" x="1244.105469"/>
      <use xlink:href="#DejaVuSans-79" x="1299.085938"/>
     </g>
    </g>
    <g id="line2d_28">
     <path d="M 216.18875 278.326188 
L 226.18875 278.326188 
L 236.18875 278.326188 
" style="fill: none; stroke: #d62728; stroke-width: 1.5; stroke-linecap: square"/>
    </g>
    <g id="text_26">
     <!-- SWA Validation Accuracy -->
     <g transform="translate(244.18875 281.826188) scale(0.1 -0.1)">
      <defs>
       <path id="DejaVuSans-53" d="M 3425 4513 
L 3425 3897 
Q 3066 4069 2747 4153 
Q 2428 4238 2131 4238 
Q 1616 4238 1336 4038 
Q 1056 3838 1056 3469 
Q 1056 3159 1242 3001 
Q 1428 2844 1947 2747 
L 2328 2669 
Q 3034 2534 3370 2195 
Q 3706 1856 3706 1288 
Q 3706 609 3251 259 
Q 2797 -91 1919 -91 
Q 1588 -91 1214 -16 
Q 841 59 441 206 
L 441 856 
Q 825 641 1194 531 
Q 1563 422 1919 422 
Q 2459 422 2753 634 
Q 3047 847 3047 1241 
Q 3047 1584 2836 1778 
Q 2625 1972 2144 2069 
L 1759 2144 
Q 1053 2284 737 2584 
Q 422 2884 422 3419 
Q 422 4038 858 4394 
Q 1294 4750 2059 4750 
Q 2388 4750 2728 4690 
Q 3069 4631 3425 4513 
z
" transform="scale(0.015625)"/>
       <path id="DejaVuSans-57" d="M 213 4666 
L 850 4666 
L 1831 722 
L 2809 4666 
L 3519 4666 
L 4500 722 
L 5478 4666 
L 6119 4666 
L 4947 0 
L 4153 0 
L 3169 4050 
L 2175 0 
L 1381 0 
L 213 4666 
z
" transform="scale(0.015625)"/>
      </defs>
      <use xlink:href="#DejaVuSans-53"/>
      <use xlink:href="#DejaVuSans-57" x="63.476562"/>
      <use xlink:href="#DejaVuSans-41" x="156.853516"/>
      <use xlink:href="#DejaVuSans-20" x="225.261719"/>
      <use xlink:href="#DejaVuSans-56" x="257.048828"/>
      <use xlink:href="#DejaVuSans-61" x="317.707031"/>
      <use xlink:href="#DejaVuSans-6c" x="378.986328"/>
      <use xlink:href="#DejaVuSans-69" x="406.769531"/>
      <use xlink:href="#DejaVuSans-64" x="434.552734"/>
      <use xlink:href="#DejaVuSans-61" x="498.029297"/>
      <use xlink:href="#DejaVuSans-74" x="559.308594"/>
      <use xlink:href="#DejaVuSans-69" x="598.517578"/>
      <use xlink:href="#DejaVuSans-6f" x="626.300781"/>
      <use xlink:href="#DejaVuSans-6e" x="687.482422"/>
      <use xlink:href="#DejaVuSans-20" x="750.861328"/>
      <use xlink:href="#DejaVuSans-41" x="782.648438"/>
      <use xlink:href="#DejaVuSans-63" x="849.306641"/>
      <use xlink:href="#DejaVuSans-63" x="904.287109"/>
      <use xlink:href="#DejaVuSans-75" x="959.267578"/>
      <use xlink:href="#DejaVuSans-72" x="1022.646484"/>
      <use xlink:href="#DejaVuSans-61" x="1063.759766"/>
      <use xlink:href="#DejaVuSans-63" x="1125.039062"/>
      <use xlink:href="#DejaVuSans-79" x="1180.019531"/>
     </g>
    </g>
    <g id="line2d_29">
     <path d="M 216.18875 293.004312 
L 226.18875 293.004312 
L 236.18875 293.004312 
" style="fill: none; stroke: #9467bd; stroke-width: 1.5; stroke-linecap: square"/>
    </g>
    <g id="text_27">
     <!-- SWA Robust Validation Accuracy -->
     <g transform="translate(244.18875 296.504312) scale(0.1 -0.1)">
      <use xlink:href="#DejaVuSans-53"/>
      <use xlink:href="#DejaVuSans-57" x="63.476562"/>
      <use xlink:href="#DejaVuSans-41" x="156.853516"/>
      <use xlink:href="#DejaVuSans-20" x="225.261719"/>
      <use xlink:href="#DejaVuSans-52" x="257.048828"/>
      <use xlink:href="#DejaVuSans-6f" x="322.03125"/>
      <use xlink:href="#DejaVuSans-62" x="383.212891"/>
      <use xlink:href="#DejaVuSans-75" x="446.689453"/>
      <use xlink:href="#DejaVuSans-73" x="510.068359"/>
      <use xlink:href="#DejaVuSans-74" x="562.167969"/>
      <use xlink:href="#DejaVuSans-20" x="601.376953"/>
      <use xlink:href="#DejaVuSans-56" x="633.164062"/>
      <use xlink:href="#DejaVuSans-61" x="693.822266"/>
      <use xlink:href="#DejaVuSans-6c" x="755.101562"/>
      <use xlink:href="#DejaVuSans-69" x="782.884766"/>
      <use xlink:href="#DejaVuSans-64" x="810.667969"/>
      <use xlink:href="#DejaVuSans-61" x="874.144531"/>
      <use xlink:href="#DejaVuSans-74" x="935.423828"/>
      <use xlink:href="#DejaVuSans-69" x="974.632812"/>
      <use xlink:href="#DejaVuSans-6f" x="1002.416016"/>
      <use xlink:href="#DejaVuSans-6e" x="1063.597656"/>
      <use xlink:href="#DejaVuSans-20" x="1126.976562"/>
      <use xlink:href="#DejaVuSans-41" x="1158.763672"/>
      <use xlink:href="#DejaVuSans-63" x="1225.421875"/>
      <use xlink:href="#DejaVuSans-63" x="1280.402344"/>
      <use xlink:href="#DejaVuSans-75" x="1335.382812"/>
      <use xlink:href="#DejaVuSans-72" x="1398.761719"/>
      <use xlink:href="#DejaVuSans-61" x="1439.875"/>
      <use xlink:href="#DejaVuSans-63" x="1501.154297"/>
      <use xlink:href="#DejaVuSans-79" x="1556.134766"/>
     </g>
    </g>
   </g>
  </g>
 </g>
 <defs>
  <clipPath id="p97e0915a6a">
   <rect x="57.6" y="41.472" width="357.12" height="266.112"/>
  </clipPath>
 </defs>
</svg>
