<?xml version="1.0" encoding="utf-8" standalone="no"?>
<!DOCTYPE svg PUBLIC "-//W3C//DTD SVG 1.1//EN"
  "http://www.w3.org/Graphics/SVG/1.1/DTD/svg11.dtd">
<svg xmlns:xlink="http://www.w3.org/1999/xlink" width="460.8pt" height="345.6pt" viewBox="0 0 460.8 345.6" xmlns="http://www.w3.org/2000/svg" version="1.1">
 <metadata>
  <rdf:RDF xmlns:dc="http://purl.org/dc/elements/1.1/" xmlns:cc="http://creativecommons.org/ns#" xmlns:rdf="http://www.w3.org/1999/02/22-rdf-syntax-ns#">
   <cc:Work>
    <dc:type rdf:resource="http://purl.org/dc/dcmitype/StillImage"/>
    <dc:date>2025-01-06T02:31:27.735434</dc:date>
    <dc:format>image/svg+xml</dc:format>
    <dc:creator>
     <cc:Agent>
      <dc:title>Matplotlib v3.9.1, https://matplotlib.org/</dc:title>
     </cc:Agent>
    </dc:creator>
   </cc:Work>
  </rdf:RDF>
 </metadata>
 <defs>
  <style type="text/css">*{stroke-linejoin: round; stroke-linecap: butt}</style>
 </defs>
 <g id="figure_1">
  <g id="patch_1">
   <path d="M 0 345.6 
L 460.8 345.6 
L 460.8 0 
L 0 0 
z
" style="fill: #ffffff"/>
  </g>
  <g id="axes_1">
   <g id="patch_2">
    <path d="M 57.6 307.584 
L 414.72 307.584 
L 414.72 41.472 
L 57.6 41.472 
z
" style="fill: #ffffff"/>
   </g>
   <g id="matplotlib.axis_1">
    <g id="xtick_1">
     <g id="line2d_1">
      <defs>
       <path id="mfc2adfb243" d="M 0 0 
L 0 3.5 
" style="stroke: #000000; stroke-width: 0.8"/>
      </defs>
      <g>
       <use xlink:href="#mfc2adfb243" x="73.832727" y="307.584" style="stroke: #000000; stroke-width: 0.8"/>
      </g>
     </g>
     <g id="text_1">
      <!-- 1 -->
      <g transform="translate(70.651477 322.182437) scale(0.1 -0.1)">
       <defs>
        <path id="DejaVuSans-31" d="M 794 531 
L 1825 531 
L 1825 4091 
L 703 3866 
L 703 4441 
L 1819 4666 
L 2450 4666 
L 2450 531 
L 3481 531 
L 3481 0 
L 794 0 
L 794 531 
z
" transform="scale(0.015625)"/>
       </defs>
       <use xlink:href="#DejaVuSans-31"/>
      </g>
     </g>
    </g>
    <g id="xtick_2">
     <g id="line2d_2">
      <g>
       <use xlink:href="#mfc2adfb243" x="109.262733" y="307.584" style="stroke: #000000; stroke-width: 0.8"/>
      </g>
     </g>
     <g id="text_2">
      <!-- 50 -->
      <g transform="translate(102.900233 322.182437) scale(0.1 -0.1)">
       <defs>
        <path id="DejaVuSans-35" d="M 691 4666 
L 3169 4666 
L 3169 4134 
L 1269 4134 
L 1269 2991 
Q 1406 3038 1543 3061 
Q 1681 3084 1819 3084 
Q 2600 3084 3056 2656 
Q 3513 2228 3513 1497 
Q 3513 744 3044 326 
Q 2575 -91 1722 -91 
Q 1428 -91 1123 -41 
Q 819 9 494 109 
L 494 744 
Q 775 591 1075 516 
Q 1375 441 1709 441 
Q 2250 441 2565 725 
Q 2881 1009 2881 1497 
Q 2881 1984 2565 2268 
Q 2250 2553 1709 2553 
Q 1456 2553 1204 2497 
Q 953 2441 691 2322 
L 691 4666 
z
" transform="scale(0.015625)"/>
        <path id="DejaVuSans-30" d="M 2034 4250 
Q 1547 4250 1301 3770 
Q 1056 3291 1056 2328 
Q 1056 1369 1301 889 
Q 1547 409 2034 409 
Q 2525 409 2770 889 
Q 3016 1369 3016 2328 
Q 3016 3291 2770 3770 
Q 2525 4250 2034 4250 
z
M 2034 4750 
Q 2819 4750 3233 4129 
Q 3647 3509 3647 2328 
Q 3647 1150 3233 529 
Q 2819 -91 2034 -91 
Q 1250 -91 836 529 
Q 422 1150 422 2328 
Q 422 3509 836 4129 
Q 1250 4750 2034 4750 
z
" transform="scale(0.015625)"/>
       </defs>
       <use xlink:href="#DejaVuSans-35"/>
       <use xlink:href="#DejaVuSans-30" x="63.623047"/>
      </g>
     </g>
    </g>
    <g id="xtick_3">
     <g id="line2d_3">
      <g>
       <use xlink:href="#mfc2adfb243" x="145.415801" y="307.584" style="stroke: #000000; stroke-width: 0.8"/>
      </g>
     </g>
     <g id="text_3">
      <!-- 100 -->
      <g transform="translate(135.872051 322.182437) scale(0.1 -0.1)">
       <use xlink:href="#DejaVuSans-31"/>
       <use xlink:href="#DejaVuSans-30" x="63.623047"/>
       <use xlink:href="#DejaVuSans-30" x="127.246094"/>
      </g>
     </g>
    </g>
    <g id="xtick_4">
     <g id="line2d_4">
      <g>
       <use xlink:href="#mfc2adfb243" x="181.568868" y="307.584" style="stroke: #000000; stroke-width: 0.8"/>
      </g>
     </g>
     <g id="text_4">
      <!-- 150 -->
      <g transform="translate(172.025118 322.182437) scale(0.1 -0.1)">
       <use xlink:href="#DejaVuSans-31"/>
       <use xlink:href="#DejaVuSans-35" x="63.623047"/>
       <use xlink:href="#DejaVuSans-30" x="127.246094"/>
      </g>
     </g>
    </g>
    <g id="xtick_5">
     <g id="line2d_5">
      <g>
       <use xlink:href="#mfc2adfb243" x="217.721936" y="307.584" style="stroke: #000000; stroke-width: 0.8"/>
      </g>
     </g>
     <g id="text_5">
      <!-- 200 -->
      <g transform="translate(208.178186 322.182437) scale(0.1 -0.1)">
       <defs>
        <path id="DejaVuSans-32" d="M 1228 531 
L 3431 531 
L 3431 0 
L 469 0 
L 469 531 
Q 828 903 1448 1529 
Q 2069 2156 2228 2338 
Q 2531 2678 2651 2914 
Q 2772 3150 2772 3378 
Q 2772 3750 2511 3984 
Q 2250 4219 1831 4219 
Q 1534 4219 1204 4116 
Q 875 4013 500 3803 
L 500 4441 
Q 881 4594 1212 4672 
Q 1544 4750 1819 4750 
Q 2544 4750 2975 4387 
Q 3406 4025 3406 3419 
Q 3406 3131 3298 2873 
Q 3191 2616 2906 2266 
Q 2828 2175 2409 1742 
Q 1991 1309 1228 531 
z
" transform="scale(0.015625)"/>
       </defs>
       <use xlink:href="#DejaVuSans-32"/>
       <use xlink:href="#DejaVuSans-30" x="63.623047"/>
       <use xlink:href="#DejaVuSans-30" x="127.246094"/>
      </g>
     </g>
    </g>
    <g id="xtick_6">
     <g id="line2d_6">
      <g>
       <use xlink:href="#mfc2adfb243" x="253.875003" y="307.584" style="stroke: #000000; stroke-width: 0.8"/>
      </g>
     </g>
     <g id="text_6">
      <!-- 250 -->
      <g transform="translate(244.331253 322.182437) scale(0.1 -0.1)">
       <use xlink:href="#DejaVuSans-32"/>
       <use xlink:href="#DejaVuSans-35" x="63.623047"/>
       <use xlink:href="#DejaVuSans-30" x="127.246094"/>
      </g>
     </g>
    </g>
    <g id="xtick_7">
     <g id="line2d_7">
      <g>
       <use xlink:href="#mfc2adfb243" x="290.02807" y="307.584" style="stroke: #000000; stroke-width: 0.8"/>
      </g>
     </g>
     <g id="text_7">
      <!-- 300 -->
      <g transform="translate(280.48432 322.182437) scale(0.1 -0.1)">
       <defs>
        <path id="DejaVuSans-33" d="M 2597 2516 
Q 3050 2419 3304 2112 
Q 3559 1806 3559 1356 
Q 3559 666 3084 287 
Q 2609 -91 1734 -91 
Q 1441 -91 1130 -33 
Q 819 25 488 141 
L 488 750 
Q 750 597 1062 519 
Q 1375 441 1716 441 
Q 2309 441 2620 675 
Q 2931 909 2931 1356 
Q 2931 1769 2642 2001 
Q 2353 2234 1838 2234 
L 1294 2234 
L 1294 2753 
L 1863 2753 
Q 2328 2753 2575 2939 
Q 2822 3125 2822 3475 
Q 2822 3834 2567 4026 
Q 2313 4219 1838 4219 
Q 1578 4219 1281 4162 
Q 984 4106 628 3988 
L 628 4550 
Q 988 4650 1302 4700 
Q 1616 4750 1894 4750 
Q 2613 4750 3031 4423 
Q 3450 4097 3450 3541 
Q 3450 3153 3228 2886 
Q 3006 2619 2597 2516 
z
" transform="scale(0.015625)"/>
       </defs>
       <use xlink:href="#DejaVuSans-33"/>
       <use xlink:href="#DejaVuSans-30" x="63.623047"/>
       <use xlink:href="#DejaVuSans-30" x="127.246094"/>
      </g>
     </g>
    </g>
    <g id="xtick_8">
     <g id="line2d_8">
      <g>
       <use xlink:href="#mfc2adfb243" x="326.181138" y="307.584" style="stroke: #000000; stroke-width: 0.8"/>
      </g>
     </g>
     <g id="text_8">
      <!-- 350 -->
      <g transform="translate(316.637388 322.182437) scale(0.1 -0.1)">
       <use xlink:href="#DejaVuSans-33"/>
       <use xlink:href="#DejaVuSans-35" x="63.623047"/>
       <use xlink:href="#DejaVuSans-30" x="127.246094"/>
      </g>
     </g>
    </g>
    <g id="xtick_9">
     <g id="line2d_9">
      <g>
       <use xlink:href="#mfc2adfb243" x="362.334205" y="307.584" style="stroke: #000000; stroke-width: 0.8"/>
      </g>
     </g>
     <g id="text_9">
      <!-- 400 -->
      <g transform="translate(352.790455 322.182437) scale(0.1 -0.1)">
       <defs>
        <path id="DejaVuSans-34" d="M 2419 4116 
L 825 1625 
L 2419 1625 
L 2419 4116 
z
M 2253 4666 
L 3047 4666 
L 3047 1625 
L 3713 1625 
L 3713 1100 
L 3047 1100 
L 3047 0 
L 2419 0 
L 2419 1100 
L 313 1100 
L 313 1709 
L 2253 4666 
z
" transform="scale(0.015625)"/>
       </defs>
       <use xlink:href="#DejaVuSans-34"/>
       <use xlink:href="#DejaVuSans-30" x="63.623047"/>
       <use xlink:href="#DejaVuSans-30" x="127.246094"/>
      </g>
     </g>
    </g>
    <g id="xtick_10">
     <g id="line2d_10">
      <g>
       <use xlink:href="#mfc2adfb243" x="398.487273" y="307.584" style="stroke: #000000; stroke-width: 0.8"/>
      </g>
     </g>
     <g id="text_10">
      <!-- 450 -->
      <g transform="translate(388.943523 322.182437) scale(0.1 -0.1)">
       <use xlink:href="#DejaVuSans-34"/>
       <use xlink:href="#DejaVuSans-35" x="63.623047"/>
       <use xlink:href="#DejaVuSans-30" x="127.246094"/>
      </g>
     </g>
    </g>
    <g id="text_11">
     <!-- Epochs -->
     <g transform="translate(218.244375 335.860562) scale(0.1 -0.1)">
      <defs>
       <path id="DejaVuSans-45" d="M 628 4666 
L 3578 4666 
L 3578 4134 
L 1259 4134 
L 1259 2753 
L 3481 2753 
L 3481 2222 
L 1259 2222 
L 1259 531 
L 3634 531 
L 3634 0 
L 628 0 
L 628 4666 
z
" transform="scale(0.015625)"/>
       <path id="DejaVuSans-70" d="M 1159 525 
L 1159 -1331 
L 581 -1331 
L 581 3500 
L 1159 3500 
L 1159 2969 
Q 1341 3281 1617 3432 
Q 1894 3584 2278 3584 
Q 2916 3584 3314 3078 
Q 3713 2572 3713 1747 
Q 3713 922 3314 415 
Q 2916 -91 2278 -91 
Q 1894 -91 1617 61 
Q 1341 213 1159 525 
z
M 3116 1747 
Q 3116 2381 2855 2742 
Q 2594 3103 2138 3103 
Q 1681 3103 1420 2742 
Q 1159 2381 1159 1747 
Q 1159 1113 1420 752 
Q 1681 391 2138 391 
Q 2594 391 2855 752 
Q 3116 1113 3116 1747 
z
" transform="scale(0.015625)"/>
       <path id="DejaVuSans-6f" d="M 1959 3097 
Q 1497 3097 1228 2736 
Q 959 2375 959 1747 
Q 959 1119 1226 758 
Q 1494 397 1959 397 
Q 2419 397 2687 759 
Q 2956 1122 2956 1747 
Q 2956 2369 2687 2733 
Q 2419 3097 1959 3097 
z
M 1959 3584 
Q 2709 3584 3137 3096 
Q 3566 2609 3566 1747 
Q 3566 888 3137 398 
Q 2709 -91 1959 -91 
Q 1206 -91 779 398 
Q 353 888 353 1747 
Q 353 2609 779 3096 
Q 1206 3584 1959 3584 
z
" transform="scale(0.015625)"/>
       <path id="DejaVuSans-63" d="M 3122 3366 
L 3122 2828 
Q 2878 2963 2633 3030 
Q 2388 3097 2138 3097 
Q 1578 3097 1268 2742 
Q 959 2388 959 1747 
Q 959 1106 1268 751 
Q 1578 397 2138 397 
Q 2388 397 2633 464 
Q 2878 531 3122 666 
L 3122 134 
Q 2881 22 2623 -34 
Q 2366 -91 2075 -91 
Q 1284 -91 818 406 
Q 353 903 353 1747 
Q 353 2603 823 3093 
Q 1294 3584 2113 3584 
Q 2378 3584 2631 3529 
Q 2884 3475 3122 3366 
z
" transform="scale(0.015625)"/>
       <path id="DejaVuSans-68" d="M 3513 2113 
L 3513 0 
L 2938 0 
L 2938 2094 
Q 2938 2591 2744 2837 
Q 2550 3084 2163 3084 
Q 1697 3084 1428 2787 
Q 1159 2491 1159 1978 
L 1159 0 
L 581 0 
L 581 4863 
L 1159 4863 
L 1159 2956 
Q 1366 3272 1645 3428 
Q 1925 3584 2291 3584 
Q 2894 3584 3203 3211 
Q 3513 2838 3513 2113 
z
" transform="scale(0.015625)"/>
       <path id="DejaVuSans-73" d="M 2834 3397 
L 2834 2853 
Q 2591 2978 2328 3040 
Q 2066 3103 1784 3103 
Q 1356 3103 1142 2972 
Q 928 2841 928 2578 
Q 928 2378 1081 2264 
Q 1234 2150 1697 2047 
L 1894 2003 
Q 2506 1872 2764 1633 
Q 3022 1394 3022 966 
Q 3022 478 2636 193 
Q 2250 -91 1575 -91 
Q 1294 -91 989 -36 
Q 684 19 347 128 
L 347 722 
Q 666 556 975 473 
Q 1284 391 1588 391 
Q 1994 391 2212 530 
Q 2431 669 2431 922 
Q 2431 1156 2273 1281 
Q 2116 1406 1581 1522 
L 1381 1569 
Q 847 1681 609 1914 
Q 372 2147 372 2553 
Q 372 3047 722 3315 
Q 1072 3584 1716 3584 
Q 2034 3584 2315 3537 
Q 2597 3491 2834 3397 
z
" transform="scale(0.015625)"/>
      </defs>
      <use xlink:href="#DejaVuSans-45"/>
      <use xlink:href="#DejaVuSans-70" x="63.183594"/>
      <use xlink:href="#DejaVuSans-6f" x="126.660156"/>
      <use xlink:href="#DejaVuSans-63" x="187.841797"/>
      <use xlink:href="#DejaVuSans-68" x="242.822266"/>
      <use xlink:href="#DejaVuSans-73" x="306.201172"/>
     </g>
    </g>
   </g>
   <g id="matplotlib.axis_2">
    <g id="ytick_1">
     <g id="line2d_11">
      <defs>
       <path id="m51ad4a48ea" d="M 0 0 
L -3.5 0 
" style="stroke: #000000; stroke-width: 0.8"/>
      </defs>
      <g>
       <use xlink:href="#m51ad4a48ea" x="57.6" y="286.345563" style="stroke: #000000; stroke-width: 0.8"/>
      </g>
     </g>
     <g id="text_12">
      <!-- 10 -->
      <g transform="translate(37.875 290.144782) scale(0.1 -0.1)">
       <use xlink:href="#DejaVuSans-31"/>
       <use xlink:href="#DejaVuSans-30" x="63.623047"/>
      </g>
     </g>
    </g>
    <g id="ytick_2">
     <g id="line2d_12">
      <g>
       <use xlink:href="#m51ad4a48ea" x="57.6" y="254.401339" style="stroke: #000000; stroke-width: 0.8"/>
      </g>
     </g>
     <g id="text_13">
      <!-- 20 -->
      <g transform="translate(37.875 258.200557) scale(0.1 -0.1)">
       <use xlink:href="#DejaVuSans-32"/>
       <use xlink:href="#DejaVuSans-30" x="63.623047"/>
      </g>
     </g>
    </g>
    <g id="ytick_3">
     <g id="line2d_13">
      <g>
       <use xlink:href="#m51ad4a48ea" x="57.6" y="222.457114" style="stroke: #000000; stroke-width: 0.8"/>
      </g>
     </g>
     <g id="text_14">
      <!-- 30 -->
      <g transform="translate(37.875 226.256333) scale(0.1 -0.1)">
       <use xlink:href="#DejaVuSans-33"/>
       <use xlink:href="#DejaVuSans-30" x="63.623047"/>
      </g>
     </g>
    </g>
    <g id="ytick_4">
     <g id="line2d_14">
      <g>
       <use xlink:href="#m51ad4a48ea" x="57.6" y="190.51289" style="stroke: #000000; stroke-width: 0.8"/>
      </g>
     </g>
     <g id="text_15">
      <!-- 40 -->
      <g transform="translate(37.875 194.312109) scale(0.1 -0.1)">
       <use xlink:href="#DejaVuSans-34"/>
       <use xlink:href="#DejaVuSans-30" x="63.623047"/>
      </g>
     </g>
    </g>
    <g id="ytick_5">
     <g id="line2d_15">
      <g>
       <use xlink:href="#m51ad4a48ea" x="57.6" y="158.568666" style="stroke: #000000; stroke-width: 0.8"/>
      </g>
     </g>
     <g id="text_16">
      <!-- 50 -->
      <g transform="translate(37.875 162.367884) scale(0.1 -0.1)">
       <use xlink:href="#DejaVuSans-35"/>
       <use xlink:href="#DejaVuSans-30" x="63.623047"/>
      </g>
     </g>
    </g>
    <g id="ytick_6">
     <g id="line2d_16">
      <g>
       <use xlink:href="#m51ad4a48ea" x="57.6" y="126.624441" style="stroke: #000000; stroke-width: 0.8"/>
      </g>
     </g>
     <g id="text_17">
      <!-- 60 -->
      <g transform="translate(37.875 130.42366) scale(0.1 -0.1)">
       <defs>
        <path id="DejaVuSans-36" d="M 2113 2584 
Q 1688 2584 1439 2293 
Q 1191 2003 1191 1497 
Q 1191 994 1439 701 
Q 1688 409 2113 409 
Q 2538 409 2786 701 
Q 3034 994 3034 1497 
Q 3034 2003 2786 2293 
Q 2538 2584 2113 2584 
z
M 3366 4563 
L 3366 3988 
Q 3128 4100 2886 4159 
Q 2644 4219 2406 4219 
Q 1781 4219 1451 3797 
Q 1122 3375 1075 2522 
Q 1259 2794 1537 2939 
Q 1816 3084 2150 3084 
Q 2853 3084 3261 2657 
Q 3669 2231 3669 1497 
Q 3669 778 3244 343 
Q 2819 -91 2113 -91 
Q 1303 -91 875 529 
Q 447 1150 447 2328 
Q 447 3434 972 4092 
Q 1497 4750 2381 4750 
Q 2619 4750 2861 4703 
Q 3103 4656 3366 4563 
z
" transform="scale(0.015625)"/>
       </defs>
       <use xlink:href="#DejaVuSans-36"/>
       <use xlink:href="#DejaVuSans-30" x="63.623047"/>
      </g>
     </g>
    </g>
    <g id="ytick_7">
     <g id="line2d_17">
      <g>
       <use xlink:href="#m51ad4a48ea" x="57.6" y="94.680217" style="stroke: #000000; stroke-width: 0.8"/>
      </g>
     </g>
     <g id="text_18">
      <!-- 70 -->
      <g transform="translate(37.875 98.479436) scale(0.1 -0.1)">
       <defs>
        <path id="DejaVuSans-37" d="M 525 4666 
L 3525 4666 
L 3525 4397 
L 1831 0 
L 1172 0 
L 2766 4134 
L 525 4134 
L 525 4666 
z
" transform="scale(0.015625)"/>
       </defs>
       <use xlink:href="#DejaVuSans-37"/>
       <use xlink:href="#DejaVuSans-30" x="63.623047"/>
      </g>
     </g>
    </g>
    <g id="ytick_8">
     <g id="line2d_18">
      <g>
       <use xlink:href="#m51ad4a48ea" x="57.6" y="62.735992" style="stroke: #000000; stroke-width: 0.8"/>
      </g>
     </g>
     <g id="text_19">
      <!-- 80 -->
      <g transform="translate(37.875 66.535211) scale(0.1 -0.1)">
       <defs>
        <path id="DejaVuSans-38" d="M 2034 2216 
Q 1584 2216 1326 1975 
Q 1069 1734 1069 1313 
Q 1069 891 1326 650 
Q 1584 409 2034 409 
Q 2484 409 2743 651 
Q 3003 894 3003 1313 
Q 3003 1734 2745 1975 
Q 2488 2216 2034 2216 
z
M 1403 2484 
Q 997 2584 770 2862 
Q 544 3141 544 3541 
Q 544 4100 942 4425 
Q 1341 4750 2034 4750 
Q 2731 4750 3128 4425 
Q 3525 4100 3525 3541 
Q 3525 3141 3298 2862 
Q 3072 2584 2669 2484 
Q 3125 2378 3379 2068 
Q 3634 1759 3634 1313 
Q 3634 634 3220 271 
Q 2806 -91 2034 -91 
Q 1263 -91 848 271 
Q 434 634 434 1313 
Q 434 1759 690 2068 
Q 947 2378 1403 2484 
z
M 1172 3481 
Q 1172 3119 1398 2916 
Q 1625 2713 2034 2713 
Q 2441 2713 2670 2916 
Q 2900 3119 2900 3481 
Q 2900 3844 2670 4047 
Q 2441 4250 2034 4250 
Q 1625 4250 1398 4047 
Q 1172 3844 1172 3481 
z
" transform="scale(0.015625)"/>
       </defs>
       <use xlink:href="#DejaVuSans-38"/>
       <use xlink:href="#DejaVuSans-30" x="63.623047"/>
      </g>
     </g>
    </g>
    <g id="text_20">
     <!-- Accuracy -->
     <g transform="translate(31.795312 197.356125) rotate(-90) scale(0.1 -0.1)">
      <defs>
       <path id="DejaVuSans-41" d="M 2188 4044 
L 1331 1722 
L 3047 1722 
L 2188 4044 
z
M 1831 4666 
L 2547 4666 
L 4325 0 
L 3669 0 
L 3244 1197 
L 1141 1197 
L 716 0 
L 50 0 
L 1831 4666 
z
" transform="scale(0.015625)"/>
       <path id="DejaVuSans-75" d="M 544 1381 
L 544 3500 
L 1119 3500 
L 1119 1403 
Q 1119 906 1312 657 
Q 1506 409 1894 409 
Q 2359 409 2629 706 
Q 2900 1003 2900 1516 
L 2900 3500 
L 3475 3500 
L 3475 0 
L 2900 0 
L 2900 538 
Q 2691 219 2414 64 
Q 2138 -91 1772 -91 
Q 1169 -91 856 284 
Q 544 659 544 1381 
z
M 1991 3584 
L 1991 3584 
z
" transform="scale(0.015625)"/>
       <path id="DejaVuSans-72" d="M 2631 2963 
Q 2534 3019 2420 3045 
Q 2306 3072 2169 3072 
Q 1681 3072 1420 2755 
Q 1159 2438 1159 1844 
L 1159 0 
L 581 0 
L 581 3500 
L 1159 3500 
L 1159 2956 
Q 1341 3275 1631 3429 
Q 1922 3584 2338 3584 
Q 2397 3584 2469 3576 
Q 2541 3569 2628 3553 
L 2631 2963 
z
" transform="scale(0.015625)"/>
       <path id="DejaVuSans-61" d="M 2194 1759 
Q 1497 1759 1228 1600 
Q 959 1441 959 1056 
Q 959 750 1161 570 
Q 1363 391 1709 391 
Q 2188 391 2477 730 
Q 2766 1069 2766 1631 
L 2766 1759 
L 2194 1759 
z
M 3341 1997 
L 3341 0 
L 2766 0 
L 2766 531 
Q 2569 213 2275 61 
Q 1981 -91 1556 -91 
Q 1019 -91 701 211 
Q 384 513 384 1019 
Q 384 1609 779 1909 
Q 1175 2209 1959 2209 
L 2766 2209 
L 2766 2266 
Q 2766 2663 2505 2880 
Q 2244 3097 1772 3097 
Q 1472 3097 1187 3025 
Q 903 2953 641 2809 
L 641 3341 
Q 956 3463 1253 3523 
Q 1550 3584 1831 3584 
Q 2591 3584 2966 3190 
Q 3341 2797 3341 1997 
z
" transform="scale(0.015625)"/>
       <path id="DejaVuSans-79" d="M 2059 -325 
Q 1816 -950 1584 -1140 
Q 1353 -1331 966 -1331 
L 506 -1331 
L 506 -850 
L 844 -850 
Q 1081 -850 1212 -737 
Q 1344 -625 1503 -206 
L 1606 56 
L 191 3500 
L 800 3500 
L 1894 763 
L 2988 3500 
L 3597 3500 
L 2059 -325 
z
" transform="scale(0.015625)"/>
      </defs>
      <use xlink:href="#DejaVuSans-41"/>
      <use xlink:href="#DejaVuSans-63" x="66.658203"/>
      <use xlink:href="#DejaVuSans-63" x="121.638672"/>
      <use xlink:href="#DejaVuSans-75" x="176.619141"/>
      <use xlink:href="#DejaVuSans-72" x="239.998047"/>
      <use xlink:href="#DejaVuSans-61" x="281.111328"/>
      <use xlink:href="#DejaVuSans-63" x="342.390625"/>
      <use xlink:href="#DejaVuSans-79" x="397.371094"/>
     </g>
    </g>
   </g>
   <g id="line2d_19">
    <path d="M 73.832727 295.488 
L 76.001911 238.035248 
L 76.724973 228.170871 
L 77.448034 215.819104 
L 78.171095 209.824238 
L 78.894157 199.604216 
L 79.617218 193.675368 
L 80.340279 191.34344 
L 81.063341 177.95668 
L 81.786402 181.449249 
L 82.509463 180.629347 
L 83.232525 177.104834 
L 83.955586 168.318043 
L 84.678647 162.998265 
L 86.847832 152.607873 
L 87.570893 152.316116 
L 88.293954 158.477092 
L 89.017016 144.990241 
L 89.740077 145.056259 
L 90.463138 134.033372 
L 91.1862 141.103693 
L 91.909261 143.290808 
L 92.632322 138.895283 
L 93.355384 137.753809 
L 94.078445 139.363798 
L 94.801506 137.370478 
L 95.524568 163.392243 
L 96.247629 166.744257 
L 97.693752 153.557682 
L 98.416813 161.835495 
L 99.139874 163.822426 
L 99.862936 159.784676 
L 100.585997 160.994297 
L 101.309059 148.242163 
L 102.03212 152.107414 
L 102.755181 142.096094 
L 103.478243 143.139605 
L 104.201304 143.927563 
L 104.924365 134.193093 
L 105.647427 136.224745 
L 106.370488 134.655219 
L 107.093549 135.515584 
L 107.816611 135.622064 
L 108.539672 144.05321 
L 109.262733 140.40518 
L 109.985795 134.278277 
L 110.708856 124.537418 
L 111.431917 128.404799 
L 112.154979 127.938414 
L 112.87804 126.583978 
L 113.601101 133.219859 
L 114.324163 116.340531 
L 115.047224 122.612247 
L 115.770285 138.905931 
L 116.493347 122.565395 
L 117.216408 127.653045 
L 117.93947 120.908555 
L 118.662531 116.419326 
L 119.385592 118.957827 
L 120.108654 117.343579 
L 120.831715 118.099592 
L 122.277838 105.528475 
L 123.000899 107.198093 
L 123.72396 102.061462 
L 124.447022 99.63796 
L 125.170083 96.435019 
L 125.893144 113.290922 
L 126.616206 107.677257 
L 127.339267 113.816937 
L 128.062328 106.369673 
L 128.78539 100.8561 
L 129.508451 114.455821 
L 130.231512 104.95135 
L 130.954574 100.704897 
L 131.677635 95.740765 
L 132.400696 99.205649 
L 133.123758 97.518994 
L 133.846819 94.752624 
L 134.569881 100.114994 
L 135.292942 87.137121 
L 136.016003 94.77392 
L 136.739065 97.75964 
L 137.462126 97.380569 
L 138.185187 97.331587 
L 138.908249 124.758898 
L 139.63131 126.422128 
L 140.354371 134.572164 
L 143.246617 125.972779 
L 143.969678 131.328761 
L 144.692739 117.522467 
L 145.415801 124.575752 
L 146.138862 119.735137 
L 146.861923 131.230798 
L 147.584985 129.356737 
L 148.308046 115.965718 
L 149.031108 123.662147 
L 149.754169 120.891518 
L 150.47723 118.798106 
L 151.200292 128.615631 
L 151.923353 127.112123 
L 152.646414 113.870177 
L 153.369476 107.044761 
L 154.092537 121.027813 
L 154.815598 110.550107 
L 155.53866 108.443918 
L 156.261721 115.463129 
L 156.984782 117.622559 
L 157.707844 116.670621 
L 158.430905 112.679722 
L 159.153966 109.453356 
L 159.877028 120.586983 
L 160.600089 107.543091 
L 161.32315 113.003424 
L 162.769273 102.365997 
L 163.492334 102.216924 
L 164.215396 110.586311 
L 164.938457 107.977533 
L 165.661519 111.834265 
L 166.38458 107.632535 
L 167.107641 102.216924 
L 167.830703 109.327708 
L 168.553764 108.778268 
L 169.276825 113.661475 
L 169.999887 101.676002 
L 170.722948 102.698217 
L 171.446009 108.239475 
L 172.169071 106.201434 
L 172.892132 100.342863 
L 173.615193 103.654414 
L 174.338255 110.718347 
L 175.061316 105.213292 
L 175.784377 117.026267 
L 176.507439 95.49373 
L 177.2305 105.794677 
L 177.953561 104.746907 
L 178.676623 101.62915 
L 179.399684 107.811423 
L 180.122745 103.219973 
L 180.845807 103.754506 
L 181.568868 96.924831 
L 182.29193 95.506507 
L 183.014991 94.724939 
L 183.738052 97.582882 
L 184.461114 92.256715 
L 185.184175 95.687525 
L 185.907236 108.842156 
L 186.630298 99.258889 
L 187.353359 98.53269 
L 188.07642 87.618414 
L 188.799482 91.115241 
L 189.522543 95.938819 
L 190.245604 96.134744 
L 190.968666 87.978318 
L 191.691727 98.083341 
L 192.414788 90.849039 
L 193.13785 92.069309 
L 193.860911 97.6489 
L 194.583972 92.020328 
L 195.307034 98.522042 
L 196.030095 90.0696 
L 196.753157 90.606263 
L 197.476218 85.933888 
L 198.199279 88.585259 
L 198.922341 82.000489 
L 199.645402 85.833796 
L 200.368463 91.302647 
L 201.091525 91.679589 
L 201.814586 94.305405 
L 202.537647 85.277967 
L 203.260709 84.756211 
L 203.98377 86.417311 
L 204.706831 100.325826 
L 205.429893 84.673156 
L 206.152954 88.127392 
L 206.876015 77.971258 
L 207.599077 90.103674 
L 208.322138 91.036446 
L 209.045199 90.495523 
L 209.768261 72.945367 
L 210.491322 87.279805 
L 211.937445 77.347281 
L 212.660506 85.390836 
L 213.383568 81.932342 
L 214.106629 93.687816 
L 214.82969 79.696246 
L 215.552752 72.726016 
L 216.275813 79.689857 
L 216.998874 85.352503 
L 217.721936 79.747357 
L 218.444997 78.369496 
L 219.168058 88.617203 
L 219.89112 87.320267 
L 220.614181 77.323855 
L 221.337242 79.227731 
L 222.060304 76.318677 
L 222.783365 92.684768 
L 223.506426 78.499402 
L 224.229488 79.585506 
L 224.952549 77.274874 
L 225.67561 112.153707 
L 226.398672 115.035077 
L 227.121733 107.200223 
L 227.844794 106.780689 
L 228.567856 104.987553 
L 229.290917 107.093742 
L 230.013979 112.375187 
L 230.73704 108.950767 
L 231.460101 118.627737 
L 232.183163 101.73989 
L 232.906224 115.978496 
L 233.629285 100.96684 
L 234.352347 103.164603 
L 235.075408 108.795305 
L 235.798469 104.693666 
L 236.521531 105.287829 
L 237.244592 108.901785 
L 237.967653 101.927296 
L 238.690715 112.441206 
L 239.413776 110.077333 
L 240.136837 108.233086 
L 240.859899 105.221811 
L 241.58296 103.160344 
L 242.306021 113.471939 
L 243.029083 97.246403 
L 243.752144 99.714627 
L 244.475206 107.99031 
L 245.198267 95.419193 
L 245.921328 104.0633 
L 246.64439 114.553784 
L 247.367451 105.939491 
L 248.090512 103.522378 
L 248.813574 93.968925 
L 249.536635 100.008513 
L 250.259696 101.773964 
L 250.982758 102.023129 
L 251.705819 106.126897 
L 252.42888 108.746324 
L 253.151942 103.45423 
L 253.875003 91.607182 
L 254.598064 104.131448 
L 255.321126 101.607854 
L 256.044187 107.149112 
L 256.767248 93.734668 
L 257.49031 102.930345 
L 258.213371 99.827496 
L 258.936432 97.493438 
L 259.659494 95.870672 
L 260.382555 99.488887 
L 261.105617 94.254294 
L 261.828678 103.034696 
L 262.551739 103.009141 
L 263.274801 101.382115 
L 263.997862 104.979035 
L 264.720923 96.503167 
L 265.443985 98.852132 
L 266.167046 103.588396 
L 266.890107 92.755045 
L 267.613169 102.306368 
L 268.33623 102.07211 
L 269.059291 103.256176 
L 269.782353 102.233961 
L 270.505414 94.192535 
L 271.228475 95.385119 
L 271.951537 100.583509 
L 272.674598 90.203766 
L 273.397659 104.557371 
L 274.120721 93.658002 
L 274.843782 91.483665 
L 275.566843 92.850878 
L 276.289905 95.696043 
L 277.012966 106.567727 
L 277.736028 101.79526 
L 278.459089 100.749619 
L 279.905212 94.10735 
L 280.628273 98.021583 
L 281.351334 91.306907 
L 282.074396 95.082714 
L 282.797457 100.8561 
L 283.520518 93.949759 
L 284.24358 95.27225 
L 284.966641 92.410047 
L 285.689702 102.112573 
L 286.412764 95.887708 
L 287.135825 96.658629 
L 287.858886 100.839063 
L 288.581948 100.851841 
L 290.02807 98.794633 
L 290.751132 96.858813 
L 291.474193 91.106723 
L 292.197255 95.338268 
L 292.920316 107.843367 
L 293.643377 95.706691 
L 295.0895 91.083297 
L 295.812561 95.072066 
L 296.535623 96.273169 
L 297.258684 95.219009 
L 297.981745 85.599539 
L 298.704807 103.028307 
L 299.427868 97.188903 
L 300.150929 95.440489 
L 300.873991 96.575574 
L 301.597052 87.744061 
L 302.320113 100.219345 
L 303.043175 99.525091 
L 303.766236 98.283525 
L 304.489297 92.686897 
L 305.212359 102.521459 
L 305.93542 91.56246 
L 306.658481 90.753207 
L 307.381543 95.148732 
L 308.104604 83.912884 
L 308.827666 86.232034 
L 309.550727 92.418566 
L 310.273788 90.725522 
L 310.99685 90.702096 
L 311.719911 87.556655 
L 312.442972 90.039786 
L 313.166034 89.522289 
L 313.889095 94.533273 
L 314.612156 83.521034 
L 315.335218 97.75751 
L 316.058279 88.583129 
L 316.78134 88.647018 
L 317.504402 79.643006 
L 318.227463 87.186102 
L 318.950524 93.402448 
L 319.673586 94.365034 
L 320.396647 84.947876 
L 321.119708 83.704181 
L 321.84277 83.917143 
L 322.565831 80.956978 
L 323.288892 90.817095 
L 324.011954 99.101297 
L 324.735015 84.950006 
L 325.458077 92.167271 
L 326.181138 95.634284 
L 326.904199 82.788447 
L 327.627261 82.747984 
L 328.350322 86.283145 
L 329.073383 86.31296 
L 329.796445 82.635115 
L 330.519506 87.309619 
L 331.242567 87.767487 
L 331.965629 90.097285 
L 332.68869 84.477232 
L 333.411751 87.105176 
L 334.134813 76.018401 
L 334.857874 77.432465 
L 335.580935 83.222888 
L 336.303997 81.363734 
L 337.027058 78.833752 
L 337.750119 83.235666 
L 338.473181 81.693825 
L 339.196242 91.95431 
L 339.919304 82.760762 
L 340.642365 78.882733 
L 341.365426 81.83012 
L 342.088488 79.014769 
L 342.811549 82.654281 
L 343.53461 80.588555 
L 344.257672 77.176911 
L 344.980733 85.054357 
L 345.703794 84.59436 
L 346.426856 82.924742 
L 347.872978 72.502407 
L 348.59604 79.438563 
L 349.319101 80.61411 
L 350.042162 80.831331 
L 350.765224 84.662508 
L 351.488285 84.038531 
L 352.211346 76.163215 
L 352.934408 81.008089 
L 353.657469 83.919272 
L 354.38053 80.511888 
L 355.103592 79.715412 
L 355.826653 85.305652 
L 356.549715 77.430336 
L 357.995837 76.902191 
L 358.718899 67.088925 
L 359.44196 73.430919 
L 360.165021 83.774459 
L 360.888083 73.869619 
L 361.611144 81.517067 
L 362.334205 78.439773 
L 363.057267 76.41025 
L 363.780328 78.450421 
L 364.503389 77.383484 
L 365.226451 80.064669 
L 365.949512 75.764977 
L 366.672573 80.307445 
L 367.395635 73.403234 
L 368.118696 77.524039 
L 368.841757 77.918017 
L 369.564819 82.313543 
L 370.28788 72.602498 
L 371.010941 73.503326 
L 371.734003 81.772621 
L 372.457064 68.5541 
L 373.180126 87.503414 
L 373.903187 74.821557 
L 374.626248 72.393796 
L 375.34931 83.565756 
L 376.072371 91.958569 
L 376.795432 69.991591 
L 377.518494 79.866615 
L 378.964616 85.948795 
L 379.687678 73.494807 
L 380.410739 71.974262 
L 381.1338 79.636617 
L 381.856862 78.761345 
L 382.579923 90.616911 
L 383.302984 81.186976 
L 384.026046 77.949962 
L 384.749107 80.39263 
L 385.472168 76.41025 
L 386.19523 74.781095 
L 386.918291 68.758543 
L 387.641353 76.250529 
L 388.364414 85.030931 
L 389.087475 83.508257 
L 389.810537 80.030595 
L 390.533598 86.721846 
L 391.256659 82.430672 
L 391.979721 83.921402 
L 392.702782 76.493305 
L 393.425843 80.786609 
L 394.148905 83.173907 
L 394.871966 72.834627 
L 395.595027 77.732741 
L 396.318089 78.322644 
L 397.04115 81.020866 
L 397.764211 90.51469 
L 398.487273 79.998651 
L 398.487273 79.998651 
" clip-path="url(#pde4433f4dc)" style="fill: none; stroke: #1f77b4; stroke-width: 1.5; stroke-linecap: square"/>
   </g>
   <g id="line2d_20">
    <path d="M 73.832727 269.894287 
L 74.555789 249.705538 
L 75.27885 209.775257 
L 76.001911 199.872548 
L 76.724973 187.030969 
L 77.448034 165.883893 
L 78.171095 167.864435 
L 78.894157 157.067287 
L 79.617218 139.977127 
L 80.340279 143.33127 
L 81.063341 126.304999 
L 81.786402 131.384131 
L 82.509463 125.186951 
L 83.232525 121.705031 
L 83.955586 117.360616 
L 84.678647 115.284241 
L 86.12477 104.646815 
L 86.847832 101.73989 
L 87.570893 99.727404 
L 88.293954 101.707946 
L 89.017016 96.117707 
L 89.740077 99.152408 
L 90.463138 93.434392 
L 91.1862 91.326073 
L 92.632322 89.217754 
L 94.078445 87.939985 
L 94.801506 87.939985 
L 95.524568 113.623142 
L 96.247629 123.717517 
L 96.97069 109.37456 
L 97.693752 111.227325 
L 98.416813 107.298185 
L 99.139874 104.391261 
L 99.862936 104.00793 
L 100.585997 108.032903 
L 101.309059 99.344074 
L 102.03212 99.407962 
L 102.755181 97.363532 
L 103.478243 94.584384 
L 104.201304 92.2844 
L 104.924365 88.834424 
L 105.647427 93.178838 
L 106.370488 92.795508 
L 107.093549 89.089977 
L 107.816611 91.038575 
L 108.539672 88.035818 
L 109.262733 92.188567 
L 109.985795 88.067762 
L 110.708856 85.001117 
L 111.431917 86.023332 
L 112.154979 83.180296 
L 112.87804 82.285858 
L 113.601101 81.16781 
L 114.324163 80.433093 
L 115.047224 80.56087 
L 115.770285 82.062248 
L 116.493347 82.956686 
L 117.216408 80.33726 
L 117.93947 75.865069 
L 118.662531 75.609515 
L 119.385592 75.545626 
L 120.108654 75.705347 
L 121.554776 74.203969 
L 122.277838 74.36369 
L 123.000899 73.724806 
L 123.72396 71.584543 
L 126.616206 70.274829 
L 127.339267 71.776208 
L 128.062328 69.156781 
L 128.78539 68.99706 
L 129.508451 70.05122 
L 130.231512 69.124837 
L 130.954574 69.124837 
L 131.677635 66.920686 
L 132.400696 66.760965 
L 133.123758 67.623459 
L 133.846819 66.665132 
L 135.292942 67.367905 
L 136.016003 67.080407 
L 136.739065 66.537355 
L 137.462126 66.185969 
L 138.185187 66.760965 
L 138.908249 84.745563 
L 139.63131 84.905284 
L 140.354371 89.313587 
L 141.077433 87.492766 
L 141.800494 82.221969 
L 142.523555 83.43585 
L 143.246617 83.787236 
L 143.969678 83.020575 
L 144.692739 81.678917 
L 145.415801 79.283101 
L 146.138862 81.231698 
L 146.861923 82.285858 
L 147.584985 79.442822 
L 148.308046 78.165053 
L 149.031108 81.16781 
L 149.754169 77.047005 
L 150.47723 78.803937 
L 151.200292 77.558113 
L 151.923353 80.241427 
L 152.646414 77.590057 
L 153.369476 77.430336 
L 154.092537 75.322017 
L 154.815598 75.258128 
L 155.53866 74.747021 
L 156.261721 78.548383 
L 156.984782 75.928957 
L 157.707844 75.673403 
L 158.430905 75.19424 
L 159.153966 75.928957 
L 159.877028 76.472009 
L 160.600089 71.073435 
L 161.32315 72.351204 
L 162.046212 73.277586 
L 162.769273 73.597029 
L 163.492334 72.031762 
L 164.215396 73.916471 
L 164.938457 70.306774 
L 165.661519 71.616487 
L 166.38458 70.88177 
L 167.830703 70.690104 
L 168.553764 70.274829 
L 169.276825 70.019276 
L 169.999887 69.44428 
L 170.722948 70.690104 
L 171.446009 69.82761 
L 172.169071 70.338718 
L 172.892132 70.402606 
L 173.615193 70.338718 
L 175.061316 69.508168 
L 175.784377 70.43455 
L 176.507439 69.604001 
L 177.2305 68.230399 
L 177.953561 67.815124 
L 178.676623 67.591514 
L 179.399684 67.910957 
L 180.122745 67.17624 
L 180.845807 67.687347 
L 181.568868 70.817881 
L 182.29193 67.687347 
L 183.014991 65.994303 
L 183.738052 66.824853 
L 184.461114 65.770694 
L 185.184175 66.697076 
L 185.907236 65.099865 
L 186.630298 66.377634 
L 187.353359 66.537355 
L 188.07642 67.751236 
L 188.799482 65.131809 
L 189.522543 63.630431 
L 190.245604 64.940144 
L 190.968666 66.665132 
L 191.691727 62.895714 
L 192.414788 65.483196 
L 193.13785 63.342933 
L 193.860911 64.429036 
L 194.583972 64.013761 
L 195.307034 63.790152 
L 196.030095 62.224885 
L 196.753157 64.141538 
L 197.476218 61.011004 
L 198.199279 62.129052 
L 198.922341 62.224885 
L 199.645402 61.074893 
L 200.368463 62.224885 
L 201.091525 60.723506 
L 201.814586 61.80961 
L 202.537647 60.531841 
L 203.260709 60.244343 
L 203.98377 60.819339 
L 204.706831 60.052678 
L 205.429893 60.691562 
L 206.152954 60.436008 
L 206.876015 59.573514 
L 207.599077 59.829068 
L 208.322138 59.797124 
L 209.045199 58.327689 
L 209.768261 58.359634 
L 210.491322 58.870741 
L 211.214383 59.126295 
L 211.937445 58.870741 
L 212.660506 58.10408 
L 213.383568 58.359634 
L 214.106629 58.008247 
L 214.82969 58.423522 
L 215.552752 58.040191 
L 216.275813 58.10408 
L 216.998874 57.88047 
L 217.721936 58.551299 
L 218.444997 58.295745 
L 219.168058 58.455466 
L 219.89112 58.263801 
L 220.614181 58.870741 
L 221.337242 57.720749 
L 222.060304 58.167968 
L 222.783365 57.912415 
L 223.506426 57.529084 
L 224.229488 58.295745 
L 224.952549 57.784638 
L 225.67561 74.427579 
L 226.398672 77.813666 
L 227.121733 73.597029 
L 227.844794 76.951172 
L 228.567856 77.302559 
L 229.290917 75.833124 
L 230.013979 73.213698 
L 230.73704 75.066463 
L 231.460101 75.673403 
L 232.183163 73.980359 
L 232.906224 73.501196 
L 233.629285 75.737292 
L 234.352347 71.967873 
L 235.075408 69.092893 
L 235.798469 71.840096 
L 236.521531 72.638702 
L 237.244592 72.734535 
L 237.967653 74.842853 
L 239.413776 70.083164 
L 240.136837 71.616487 
L 240.859899 72.542869 
L 241.58296 70.466495 
L 242.306021 69.859554 
L 243.029083 71.360933 
L 243.752144 73.884527 
L 244.475206 69.731778 
L 245.198267 73.022033 
L 245.921328 71.584543 
L 246.64439 69.476224 
L 247.367451 71.009547 
L 248.090512 71.073435 
L 248.813574 67.367905 
L 249.536635 69.124837 
L 250.982758 71.808152 
L 251.705819 69.891499 
L 252.42888 68.773451 
L 253.151942 69.635945 
L 253.875003 69.156781 
L 254.598064 67.974845 
L 255.321126 69.412335 
L 256.044187 67.719291 
L 256.767248 67.719291 
L 258.213371 69.955387 
L 258.936432 69.060949 
L 260.382555 66.12208 
L 261.105617 70.147052 
L 261.828678 66.026248 
L 262.551739 68.454009 
L 263.274801 68.837339 
L 263.997862 66.313746 
L 264.720923 66.665132 
L 265.443985 67.527626 
L 266.167046 69.348447 
L 266.890107 68.070678 
L 267.613169 66.249857 
L 268.33623 66.984574 
L 269.059291 65.770694 
L 269.782353 66.026248 
L 270.505414 65.962359 
L 271.228475 65.770694 
L 271.951537 68.485953 
L 272.674598 65.195698 
L 273.397659 66.760965 
L 274.120721 63.822096 
L 274.843782 64.556813 
L 276.289905 67.687347 
L 277.012966 67.399849 
L 277.736028 66.185969 
L 278.459089 67.431793 
L 279.18215 64.429036 
L 279.905212 66.377634 
L 280.628273 66.409578 
L 281.351334 68.581785 
L 282.074396 63.85404 
L 282.797457 64.045706 
L 284.24358 65.451251 
L 284.966641 65.674861 
L 285.689702 63.119323 
L 286.412764 65.930415 
L 287.135825 66.409578 
L 287.858886 65.610973 
L 288.581948 63.726263 
L 289.305009 64.205427 
L 290.02807 65.802638 
L 290.751132 63.726263 
L 291.474193 62.608215 
L 292.197255 66.601244 
L 292.920316 65.962359 
L 293.643377 64.173482 
L 294.366439 65.035977 
L 295.812561 65.834582 
L 296.535623 65.259586 
L 297.258684 65.163753 
L 298.704807 64.333204 
L 299.427868 65.195698 
L 300.150929 64.492925 
L 300.873991 63.087379 
L 301.597052 62.927658 
L 302.320113 62.927658 
L 303.043175 64.301259 
L 303.766236 62.767937 
L 304.489297 64.556813 
L 305.212359 63.949873 
L 305.93542 64.588757 
L 306.658481 64.205427 
L 307.381543 62.001275 
L 308.104604 63.215156 
L 308.827666 62.704048 
L 309.550727 61.554056 
L 310.273788 62.320717 
L 310.99685 62.41655 
L 311.719911 61.745721 
L 312.442972 62.097108 
L 313.166034 62.224885 
L 313.889095 61.617945 
L 314.612156 63.534598 
L 315.335218 63.310988 
L 316.058279 62.192941 
L 316.78134 62.767937 
L 317.504402 61.522112 
L 318.227463 59.158239 
L 318.950524 61.298502 
L 319.673586 61.905443 
L 320.396647 62.991546 
L 321.119708 61.905443 
L 321.84277 60.563785 
L 322.565831 62.831825 
L 323.288892 63.374877 
L 324.011954 61.234614 
L 324.735015 59.861012 
L 325.458077 60.404064 
L 326.181138 61.426279 
L 326.904199 61.011004 
L 327.627261 60.787395 
L 328.350322 59.669347 
L 329.073383 61.042949 
L 329.796445 59.062407 
L 330.519506 60.595729 
L 331.242567 61.80961 
L 331.965629 60.563785 
L 332.68869 58.136024 
L 333.411751 59.349905 
L 334.134813 60.340176 
L 334.857874 59.605458 
L 335.580935 59.477682 
L 336.303997 60.180454 
L 337.027058 58.583243 
L 337.750119 58.359634 
L 338.473181 60.084622 
L 339.919304 58.455466 
L 340.642365 56.922144 
L 341.365426 58.008247 
L 342.088488 58.423522 
L 342.811549 57.848526 
L 343.53461 57.976303 
L 344.257672 57.27353 
L 344.980733 58.327689 
L 345.703794 58.327689 
L 346.426856 57.656861 
L 347.149917 59.445737 
L 347.872978 57.592972 
L 348.59604 58.327689 
L 349.319101 57.561028 
L 350.042162 57.433251 
L 350.765224 57.177697 
L 351.488285 58.391578 
L 352.211346 56.474924 
L 352.934408 57.465195 
L 354.38053 57.017976 
L 355.103592 58.008247 
L 355.826653 56.730478 
L 357.272776 59.030462 
L 357.995837 56.762422 
L 358.718899 56.858255 
L 359.44196 58.647132 
L 360.165021 58.615187 
L 360.888083 56.187426 
L 361.611144 58.327689 
L 362.334205 58.040191 
L 363.057267 56.66659 
L 363.780328 58.615187 
L 364.503389 55.804096 
L 365.226451 57.912415 
L 365.949512 57.720749 
L 366.672573 57.113809 
L 367.395635 58.167968 
L 368.118696 58.679076 
L 368.841757 60.084622 
L 369.564819 58.327689 
L 370.28788 57.720749 
L 371.010941 56.954088 
L 371.734003 58.295745 
L 372.457064 58.583243 
L 373.180126 58.487411 
L 373.903187 57.209642 
L 374.626248 56.506869 
L 375.34931 58.615187 
L 376.072371 57.624916 
L 376.795432 58.487411 
L 377.518494 57.04992 
L 378.241555 57.912415 
L 378.964616 57.27353 
L 379.687678 57.04992 
L 380.410739 58.040191 
L 381.1338 58.167968 
L 381.856862 57.081865 
L 382.579923 58.199913 
L 383.302984 55.261044 
L 384.026046 58.263801 
L 384.749107 56.986032 
L 385.472168 56.123538 
L 386.19523 57.081865 
L 386.918291 57.848526 
L 387.641353 57.081865 
L 388.364414 57.27353 
L 389.087475 59.094351 
L 389.810537 59.413793 
L 390.533598 57.752693 
L 391.256659 57.624916 
L 391.979721 58.647132 
L 392.702782 57.369363 
L 393.425843 58.998518 
L 394.148905 58.838797 
L 394.871966 57.624916 
L 395.595027 57.88047 
L 396.318089 57.912415 
L 397.04115 59.54157 
L 397.764211 58.902685 
L 398.487273 58.774909 
L 398.487273 58.774909 
" clip-path="url(#pde4433f4dc)" style="fill: none; stroke: #ff7f0e; stroke-width: 1.5; stroke-linecap: square"/>
   </g>
   <g id="line2d_21">
    <path d="M 73.832727 288.526582 
L 74.555789 258.829469 
L 75.27885 234.133279 
L 76.001911 232.106473 
L 76.724973 220.782796 
L 77.448034 205.008959 
L 78.171095 204.127739 
L 78.894157 192.804062 
L 79.617218 195.337569 
L 80.340279 181.568507 
L 81.063341 178.352054 
L 81.786402 179.05703 
L 82.509463 155.638609 
L 83.232525 163.17304 
L 83.955586 162.247759 
L 84.678647 161.542783 
L 85.401709 150.924082 
L 86.12477 153.105102 
L 86.847832 147.509355 
L 87.570893 151.607028 
L 88.293954 153.171193 
L 89.017016 146.40783 
L 89.740077 148.060117 
L 90.463138 145.835037 
L 91.1862 141.825486 
L 91.909261 141.362845 
L 92.632322 139.82071 
L 93.355384 138.763246 
L 94.078445 139.512283 
L 94.801506 139.225887 
L 95.524568 166.675889 
L 96.247629 173.879863 
L 96.97069 162.952735 
L 97.693752 167.909597 
L 98.416813 158.414452 
L 99.139874 160.661563 
L 99.862936 158.74491 
L 100.585997 145.790976 
L 101.309059 162.115576 
L 102.03212 154.382871 
L 102.755181 152.245912 
L 103.478243 146.804379 
L 104.201304 149.426008 
L 104.924365 143.565895 
L 105.647427 143.213407 
L 107.093549 136.868623 
L 107.816611 144.270871 
L 108.539672 143.76417 
L 109.262733 144.358993 
L 109.985795 134.996031 
L 110.708856 139.247917 
L 111.431917 141.759394 
L 112.154979 136.956745 
L 112.87804 134.95197 
L 113.601101 133.409835 
L 114.324163 130.766175 
L 115.047224 130.810236 
L 115.770285 133.123439 
L 116.493347 134.026689 
L 117.216408 138.03624 
L 117.93947 128.475003 
L 118.662531 124.839971 
L 119.385592 126.470228 
L 120.108654 120.808389 
L 120.831715 129.20201 
L 121.554776 127.197234 
L 122.277838 126.492258 
L 123.72396 123.187683 
L 124.447022 127.792058 
L 125.170083 128.166576 
L 127.339267 116.842899 
L 128.062328 120.015291 
L 128.78539 120.213566 
L 129.508451 119.640773 
L 130.231512 117.988485 
L 130.954574 116.953052 
L 131.677635 116.292137 
L 132.400696 113.868782 
L 133.123758 116.093862 
L 133.846819 117.459753 
L 134.569881 117.019143 
L 135.292942 115.080459 
L 136.016003 115.10249 
L 136.739065 114.816093 
L 137.462126 114.926246 
L 138.185187 114.705941 
L 138.908249 140.129137 
L 139.63131 138.763246 
L 140.354371 144.292902 
L 141.077433 146.033311 
L 141.800494 130.788206 
L 142.523555 132.947195 
L 143.246617 137.882026 
L 143.969678 134.09278 
L 144.692739 138.851368 
L 145.415801 131.625365 
L 146.138862 136.075525 
L 146.861923 133.586079 
L 147.584985 133.894506 
L 148.308046 133.387805 
L 149.031108 142.00173 
L 149.754169 122.350524 
L 150.47723 135.150244 
L 151.200292 139.688527 
L 151.923353 135.150244 
L 152.646414 127.836119 
L 153.369476 132.198158 
L 154.092537 131.40506 
L 154.815598 130.391657 
L 155.53866 137.882026 
L 156.261721 130.876328 
L 156.984782 131.008511 
L 158.430905 130.876328 
L 159.153966 130.656023 
L 160.600089 128.144546 
L 161.32315 127.329417 
L 162.046212 127.814088 
L 162.769273 129.730742 
L 163.492334 127.88018 
L 164.215396 130.039169 
L 164.938457 123.584232 
L 165.661519 123.011439 
L 166.38458 119.618742 
L 167.107641 119.376407 
L 167.830703 128.475003 
L 168.553764 127.285356 
L 169.276825 124.046873 
L 169.999887 128.232668 
L 170.722948 117.76818 
L 171.446009 119.861078 
L 172.169071 118.561278 
L 172.892132 125.082306 
L 173.615193 126.602411 
L 174.338255 123.848598 
L 175.061316 124.3553 
L 175.784377 127.703936 
L 177.2305 115.675283 
L 177.953561 125.368703 
L 178.676623 121.623518 
L 179.399684 122.196311 
L 180.122745 119.06798 
L 181.568868 126.910838 
L 182.29193 118.495187 
L 183.014991 121.072755 
L 183.738052 125.985557 
L 184.461114 122.857226 
L 185.184175 127.395509 
L 185.907236 116.776808 
L 186.630298 119.552651 
L 187.353359 118.957827 
L 188.07642 117.019143 
L 188.799482 117.569906 
L 189.522543 121.887884 
L 190.968666 115.10249 
L 191.691727 119.905139 
L 192.414788 117.790211 
L 193.13785 116.226045 
L 193.860911 110.564207 
L 194.583972 117.063204 
L 195.307034 117.790211 
L 196.030095 119.420468 
L 196.753157 116.710716 
L 197.476218 116.644625 
L 198.199279 109.771109 
L 198.922341 116.42432 
L 199.645402 118.6494 
L 200.368463 115.344825 
L 201.091525 115.719344 
L 201.814586 113.604416 
L 202.537647 111.908067 
L 203.260709 113.80269 
L 203.98377 110.894664 
L 204.706831 114.485636 
L 205.429893 112.348677 
L 206.152954 112.414769 
L 206.876015 110.762481 
L 207.599077 110.476085 
L 208.322138 111.511518 
L 209.045199 109.682987 
L 209.768261 109.81517 
L 210.491322 112.326647 
L 211.214383 113.273958 
L 211.937445 109.418621 
L 212.660506 111.379335 
L 213.383568 111.819945 
L 214.106629 109.749078 
L 214.82969 111.930098 
L 215.552752 110.828573 
L 216.275813 111.731823 
L 216.998874 109.947353 
L 217.721936 110.476085 
L 219.168058 110.365932 
L 219.89112 110.608268 
L 221.337242 109.881261 
L 222.060304 110.69639 
L 222.783365 109.793139 
L 223.506426 109.462682 
L 224.229488 109.682987 
L 224.952549 110.894664 
L 225.67561 128.276729 
L 226.398672 125.324642 
L 227.121733 131.206785 
L 227.844794 126.954899 
L 228.567856 134.09278 
L 230.013979 126.624441 
L 230.73704 137.463447 
L 231.460101 130.325565 
L 232.183163 139.402131 
L 233.629285 130.10526 
L 234.352347 125.25855 
L 235.075408 125.963526 
L 235.798469 124.597635 
L 236.521531 126.712563 
L 237.244592 122.262402 
L 237.967653 133.938567 
L 238.690715 128.893583 
L 239.413776 124.707788 
L 240.136837 126.161801 
L 241.58296 118.583309 
L 242.306021 116.358228 
L 243.029083 120.367779 
L 243.752144 126.183831 
L 244.475206 128.364851 
L 245.198267 123.452049 
L 245.921328 129.774803 
L 246.64439 120.962603 
L 247.367451 120.676206 
L 248.090512 126.13977 
L 248.813574 126.866777 
L 249.536635 108.0307 
L 250.259696 126.690533 
L 250.982758 129.951047 
L 251.705819 125.743221 
L 252.42888 123.606263 
L 253.151942 119.817017 
L 253.875003 123.716415 
L 254.598064 122.769104 
L 255.321126 124.3553 
L 256.044187 123.452049 
L 256.767248 129.488406 
L 257.49031 119.927169 
L 258.213371 118.120668 
L 258.936432 120.367779 
L 259.659494 121.777731 
L 260.382555 118.957827 
L 261.105617 126.646472 
L 261.828678 122.703012 
L 263.274801 123.231744 
L 263.997862 119.640773 
L 265.443985 124.994184 
L 266.167046 124.179056 
L 266.890107 120.632145 
L 267.613169 119.883108 
L 268.33623 117.393662 
L 269.059291 116.314167 
L 269.782353 120.588084 
L 270.505414 119.112041 
L 271.228475 115.829496 
L 271.951537 116.336198 
L 272.674598 126.161801 
L 273.397659 122.59286 
L 274.120721 124.994184 
L 274.843782 123.93672 
L 275.566843 120.896511 
L 276.289905 126.954899 
L 277.012966 115.829496 
L 277.736028 119.706864 
L 278.459089 117.151326 
L 279.18215 122.482707 
L 279.905212 113.714568 
L 280.628273 123.430019 
L 281.351334 120.257627 
L 282.074396 112.172433 
L 282.797457 122.328494 
L 283.520518 121.204938 
L 284.24358 121.931945 
L 284.966641 122.130219 
L 285.689702 119.50859 
L 286.412764 120.896511 
L 287.135825 121.601487 
L 287.858886 121.777731 
L 288.581948 118.781583 
L 289.305009 124.179056 
L 290.02807 122.703012 
L 290.751132 116.248076 
L 291.474193 119.772956 
L 292.197255 128.541095 
L 292.920316 113.516294 
L 293.643377 117.790211 
L 294.366439 116.732747 
L 295.0895 118.054577 
L 295.812561 114.441575 
L 296.535623 121.425243 
L 297.258684 109.8372 
L 297.981745 117.063204 
L 298.704807 123.099561 
L 299.427868 122.394585 
L 300.150929 117.415692 
L 300.873991 116.997113 
L 301.597052 120.588084 
L 302.320113 115.851527 
L 303.766236 115.014368 
L 304.489297 115.98371 
L 305.212359 116.468381 
L 305.93542 114.750002 
L 306.658481 123.540171 
L 307.381543 120.85245 
L 308.104604 115.587161 
L 308.827666 115.675283 
L 309.550727 121.425243 
L 310.273788 124.333269 
L 310.99685 116.226045 
L 311.719911 112.326647 
L 312.442972 114.045026 
L 313.166034 119.97123 
L 313.889095 113.736599 
L 314.612156 122.086158 
L 315.335218 117.283509 
L 316.058279 119.420468 
L 316.78134 115.719344 
L 317.504402 110.564207 
L 318.227463 113.582385 
L 318.950524 112.591013 
L 319.673586 116.00574 
L 320.396647 120.720267 
L 321.119708 116.953052 
L 321.84277 109.154255 
L 322.565831 114.331422 
L 323.288892 118.583309 
L 324.011954 115.939649 
L 324.735015 111.137 
L 325.458077 116.754777 
L 326.181138 113.868782 
L 326.904199 115.477008 
L 327.627261 118.759553 
L 328.350322 113.36208 
L 329.073383 109.066133 
L 329.796445 116.137923 
L 330.519506 109.572834 
L 331.242567 119.09001 
L 331.965629 112.89944 
L 332.68869 110.189688 
L 334.134813 113.604416 
L 334.857874 110.630298 
L 335.580935 109.330499 
L 336.303997 115.873557 
L 337.027058 111.797915 
L 337.750119 112.326647 
L 338.473181 113.714568 
L 339.196242 111.908067 
L 339.919304 107.634151 
L 340.642365 106.664809 
L 341.365426 109.022072 
L 342.088488 115.477008 
L 342.811549 115.344825 
L 343.53461 110.542176 
L 344.257672 104.770186 
L 344.980733 110.211719 
L 345.703794 106.532626 
L 346.426856 115.873557 
L 347.149917 114.639849 
L 347.872978 112.987562 
L 348.59604 110.564207 
L 349.319101 112.04025 
L 350.042162 110.784512 
L 350.765224 106.400443 
L 351.488285 111.15903 
L 352.211346 111.401366 
L 352.934408 108.008669 
L 353.657469 113.251928 
L 354.38053 107.325724 
L 355.103592 105.82765 
L 355.826653 117.195387 
L 356.549715 115.014368 
L 357.272776 113.582385 
L 357.995837 114.375483 
L 358.718899 110.542176 
L 359.44196 108.449279 
L 360.165021 112.89944 
L 360.888083 109.8372 
L 361.611144 110.409993 
L 362.334205 113.009592 
L 363.057267 108.295065 
L 363.780328 107.14948 
L 364.503389 111.026847 
L 365.226451 109.616895 
L 365.949512 108.845828 
L 366.672573 111.048878 
L 367.395635 114.089087 
L 368.118696 107.810395 
L 368.841757 112.679135 
L 369.564819 107.061358 
L 370.28788 110.432024 
L 371.010941 105.805619 
L 371.734003 108.647553 
L 372.457064 110.145627 
L 373.180126 113.009592 
L 373.903187 108.118821 
L 375.34931 110.762481 
L 376.072371 109.110194 
L 376.795432 108.889889 
L 377.518494 107.656181 
L 378.241555 108.295065 
L 378.964616 112.106342 
L 379.687678 109.242377 
L 380.410739 113.119745 
L 381.1338 109.8372 
L 381.856862 103.910996 
L 382.579923 109.925322 
L 383.302984 104.615972 
L 384.026046 109.506743 
L 384.749107 112.436799 
L 385.472168 111.864006 
L 386.19523 112.767257 
L 386.918291 116.534472 
L 387.641353 107.14948 
L 388.364414 110.25578 
L 389.087475 111.841976 
L 389.810537 112.392738 
L 390.533598 108.669584 
L 391.256659 108.757706 
L 391.979721 106.620748 
L 392.702782 106.907144 
L 393.425843 111.114969 
L 394.148905 106.466534 
L 394.871966 108.779736 
L 395.595027 104.990491 
L 396.318089 106.334351 
L 397.04115 112.370708 
L 397.764211 104.770186 
L 398.487273 107.413846 
L 398.487273 107.413846 
" clip-path="url(#pde4433f4dc)" style="fill: none; stroke: #2ca02c; stroke-width: 1.5; stroke-linecap: square"/>
   </g>
   <g id="line2d_22">
    <path d="M 350.765224 55.2291 
L 351.488285 55.00549 
L 352.211346 55.165211 
L 352.934408 54.526327 
L 353.657469 54.717992 
L 354.38053 53.919386 
L 355.103592 54.302717 
L 355.826653 54.047163 
L 356.549715 54.781881 
L 357.272776 54.877713 
L 357.995837 54.686048 
L 358.718899 56.05965 
L 359.44196 57.017976 
L 360.165021 54.366606 
L 360.888083 53.951331 
L 361.611144 54.813825 
L 362.334205 53.568 
L 363.057267 54.494383 
L 363.780328 56.634646 
L 364.503389 55.452709 
L 365.226451 54.877713 
L 365.949512 55.61243 
L 366.672573 55.963817 
L 367.395635 54.142996 
L 368.118696 55.995761 
L 368.841757 55.292988 
L 369.564819 55.899928 
L 370.28788 55.420765 
L 371.010941 54.302717 
L 371.734003 54.270773 
L 372.457064 56.347148 
L 373.180126 56.027705 
L 373.903187 56.698534 
L 374.626248 54.749936 
L 375.34931 54.813825 
L 376.072371 55.452709 
L 377.518494 56.05965 
L 378.241555 56.826311 
L 378.964616 56.219371 
L 379.687678 56.602701 
L 380.410739 56.411036 
L 381.1338 54.813825 
L 381.856862 56.379092 
L 382.579923 56.762422 
L 383.302984 55.804096 
L 384.026046 57.177697 
L 384.749107 57.688805 
L 385.472168 57.113809 
L 386.918291 56.794367 
L 387.641353 57.88047 
L 388.364414 56.44298 
L 389.087475 58.679076 
L 389.810537 57.752693 
L 390.533598 57.401307 
L 391.256659 58.199913 
L 391.979721 58.072136 
L 392.702782 59.31796 
L 393.425843 58.199913 
L 394.148905 59.605458 
L 394.871966 60.723506 
L 395.595027 59.509626 
L 396.318089 59.509626 
L 397.04115 57.561028 
L 397.764211 59.701291 
L 398.487273 59.31796 
L 398.487273 59.31796 
" clip-path="url(#pde4433f4dc)" style="fill: none; stroke: #d62728; stroke-width: 1.5; stroke-linecap: square"/>
   </g>
   <g id="line2d_23">
    <path d="M 350.765224 105.717497 
L 351.488285 108.096791 
L 352.211346 106.951205 
M 353.657469 103.18399 
L 354.38053 106.092016 
L 355.103592 102.985715 
L 355.826653 107.656181 
L 356.549715 106.334351 
L 357.272776 108.779736 
L 357.995837 107.237602 
L 358.718899 108.361157 
L 359.44196 107.656181 
L 360.165021 103.888966 
L 360.888083 107.986639 
L 361.611144 109.286438 
L 362.334205 107.237602 
L 363.057267 106.003894 
L 363.780328 105.893741 
L 364.503389 107.876486 
L 365.226451 105.805619 
L 365.949512 107.523998 
L 367.395635 103.999118 
L 368.118696 106.334351 
L 368.841757 104.241454 
L 369.564819 104.50582 
L 370.28788 106.26826 
L 371.010941 103.426325 
L 371.734003 103.977088 
L 372.457064 102.74338 
L 373.180126 101.928251 
L 373.903187 105.607345 
L 374.626248 105.937802 
L 375.34931 103.668661 
L 376.072371 104.08724 
L 376.795432 106.973236 
L 377.518494 103.338203 
L 378.241555 103.316173 
L 378.964616 102.214648 
L 379.687678 104.748155 
L 380.410739 102.809471 
L 381.1338 103.690691 
L 381.856862 105.475162 
L 382.579923 104.814247 
L 383.302984 103.778813 
L 384.026046 104.836277 
L 384.749107 104.043179 
L 385.472168 105.519223 
L 386.19523 103.64663 
L 386.918291 105.629375 
L 387.641353 104.792216 
L 388.364414 101.619824 
L 389.087475 104.329576 
L 389.810537 102.633227 
L 390.533598 103.382264 
L 391.256659 102.589166 
L 391.979721 101.597794 
L 392.702782 104.043179 
L 393.425843 103.888966 
L 394.148905 103.448356 
L 394.871966 105.893741 
L 395.595027 102.941654 
L 396.318089 103.448356 
L 397.04115 99.901445 
L 397.764211 100.452208 
L 398.487273 102.104495 
L 398.487273 102.104495 
" clip-path="url(#pde4433f4dc)" style="fill: none; stroke: #9467bd; stroke-width: 1.5; stroke-linecap: square"/>
   </g>
   <g id="patch_3">
    <path d="M 57.6 307.584 
L 57.6 41.472 
" style="fill: none; stroke: #000000; stroke-width: 0.8; stroke-linejoin: miter; stroke-linecap: square"/>
   </g>
   <g id="patch_4">
    <path d="M 414.72 307.584 
L 414.72 41.472 
" style="fill: none; stroke: #000000; stroke-width: 0.8; stroke-linejoin: miter; stroke-linecap: square"/>
   </g>
   <g id="patch_5">
    <path d="M 57.6 307.584 
L 414.72 307.584 
" style="fill: none; stroke: #000000; stroke-width: 0.8; stroke-linejoin: miter; stroke-linecap: square"/>
   </g>
   <g id="patch_6">
    <path d="M 57.6 41.472 
L 414.72 41.472 
" style="fill: none; stroke: #000000; stroke-width: 0.8; stroke-linejoin: miter; stroke-linecap: square"/>
   </g>
   <g id="text_21">
    <!-- Learning Curves -->
    <g transform="translate(187.37625 35.472) scale(0.12 -0.12)">
     <defs>
      <path id="DejaVuSans-4c" d="M 628 4666 
L 1259 4666 
L 1259 531 
L 3531 531 
L 3531 0 
L 628 0 
L 628 4666 
z
" transform="scale(0.015625)"/>
      <path id="DejaVuSans-65" d="M 3597 1894 
L 3597 1613 
L 953 1613 
Q 991 1019 1311 708 
Q 1631 397 2203 397 
Q 2534 397 2845 478 
Q 3156 559 3463 722 
L 3463 178 
Q 3153 47 2828 -22 
Q 2503 -91 2169 -91 
Q 1331 -91 842 396 
Q 353 884 353 1716 
Q 353 2575 817 3079 
Q 1281 3584 2069 3584 
Q 2775 3584 3186 3129 
Q 3597 2675 3597 1894 
z
M 3022 2063 
Q 3016 2534 2758 2815 
Q 2500 3097 2075 3097 
Q 1594 3097 1305 2825 
Q 1016 2553 972 2059 
L 3022 2063 
z
" transform="scale(0.015625)"/>
      <path id="DejaVuSans-6e" d="M 3513 2113 
L 3513 0 
L 2938 0 
L 2938 2094 
Q 2938 2591 2744 2837 
Q 2550 3084 2163 3084 
Q 1697 3084 1428 2787 
Q 1159 2491 1159 1978 
L 1159 0 
L 581 0 
L 581 3500 
L 1159 3500 
L 1159 2956 
Q 1366 3272 1645 3428 
Q 1925 3584 2291 3584 
Q 2894 3584 3203 3211 
Q 3513 2838 3513 2113 
z
" transform="scale(0.015625)"/>
      <path id="DejaVuSans-69" d="M 603 3500 
L 1178 3500 
L 1178 0 
L 603 0 
L 603 3500 
z
M 603 4863 
L 1178 4863 
L 1178 4134 
L 603 4134 
L 603 4863 
z
" transform="scale(0.015625)"/>
      <path id="DejaVuSans-67" d="M 2906 1791 
Q 2906 2416 2648 2759 
Q 2391 3103 1925 3103 
Q 1463 3103 1205 2759 
Q 947 2416 947 1791 
Q 947 1169 1205 825 
Q 1463 481 1925 481 
Q 2391 481 2648 825 
Q 2906 1169 2906 1791 
z
M 3481 434 
Q 3481 -459 3084 -895 
Q 2688 -1331 1869 -1331 
Q 1566 -1331 1297 -1286 
Q 1028 -1241 775 -1147 
L 775 -588 
Q 1028 -725 1275 -790 
Q 1522 -856 1778 -856 
Q 2344 -856 2625 -561 
Q 2906 -266 2906 331 
L 2906 616 
Q 2728 306 2450 153 
Q 2172 0 1784 0 
Q 1141 0 747 490 
Q 353 981 353 1791 
Q 353 2603 747 3093 
Q 1141 3584 1784 3584 
Q 2172 3584 2450 3431 
Q 2728 3278 2906 2969 
L 2906 3500 
L 3481 3500 
L 3481 434 
z
" transform="scale(0.015625)"/>
      <path id="DejaVuSans-20" transform="scale(0.015625)"/>
      <path id="DejaVuSans-43" d="M 4122 4306 
L 4122 3641 
Q 3803 3938 3442 4084 
Q 3081 4231 2675 4231 
Q 1875 4231 1450 3742 
Q 1025 3253 1025 2328 
Q 1025 1406 1450 917 
Q 1875 428 2675 428 
Q 3081 428 3442 575 
Q 3803 722 4122 1019 
L 4122 359 
Q 3791 134 3420 21 
Q 3050 -91 2638 -91 
Q 1578 -91 968 557 
Q 359 1206 359 2328 
Q 359 3453 968 4101 
Q 1578 4750 2638 4750 
Q 3056 4750 3426 4639 
Q 3797 4528 4122 4306 
z
" transform="scale(0.015625)"/>
      <path id="DejaVuSans-76" d="M 191 3500 
L 800 3500 
L 1894 563 
L 2988 3500 
L 3597 3500 
L 2284 0 
L 1503 0 
L 191 3500 
z
" transform="scale(0.015625)"/>
     </defs>
     <use xlink:href="#DejaVuSans-4c"/>
     <use xlink:href="#DejaVuSans-65" x="53.962891"/>
     <use xlink:href="#DejaVuSans-61" x="115.486328"/>
     <use xlink:href="#DejaVuSans-72" x="176.765625"/>
     <use xlink:href="#DejaVuSans-6e" x="216.128906"/>
     <use xlink:href="#DejaVuSans-69" x="279.507812"/>
     <use xlink:href="#DejaVuSans-6e" x="307.291016"/>
     <use xlink:href="#DejaVuSans-67" x="370.669922"/>
     <use xlink:href="#DejaVuSans-20" x="434.146484"/>
     <use xlink:href="#DejaVuSans-43" x="465.933594"/>
     <use xlink:href="#DejaVuSans-75" x="535.757812"/>
     <use xlink:href="#DejaVuSans-72" x="599.136719"/>
     <use xlink:href="#DejaVuSans-76" x="640.25"/>
     <use xlink:href="#DejaVuSans-65" x="699.429688"/>
     <use xlink:href="#DejaVuSans-73" x="760.953125"/>
    </g>
   </g>
   <g id="legend_1">
    <g id="patch_7">
     <path d="M 214.18875 302.584 
L 407.72 302.584 
Q 409.72 302.584 409.72 300.584 
L 409.72 228.193375 
Q 409.72 226.193375 407.72 226.193375 
L 214.18875 226.193375 
Q 212.18875 226.193375 212.18875 228.193375 
L 212.18875 300.584 
Q 212.18875 302.584 214.18875 302.584 
z
" style="fill: #ffffff; opacity: 0.8; stroke: #cccccc; stroke-linejoin: miter"/>
    </g>
    <g id="line2d_24">
     <path d="M 216.18875 234.291812 
L 226.18875 234.291812 
L 236.18875 234.291812 
" style="fill: none; stroke: #1f77b4; stroke-width: 1.5; stroke-linecap: square"/>
    </g>
    <g id="text_22">
     <!-- Train Accuracy -->
     <g transform="translate(244.18875 237.791812) scale(0.1 -0.1)">
      <defs>
       <path id="DejaVuSans-54" d="M -19 4666 
L 3928 4666 
L 3928 4134 
L 2272 4134 
L 2272 0 
L 1638 0 
L 1638 4134 
L -19 4134 
L -19 4666 
z
" transform="scale(0.015625)"/>
      </defs>
      <use xlink:href="#DejaVuSans-54"/>
      <use xlink:href="#DejaVuSans-72" x="46.333984"/>
      <use xlink:href="#DejaVuSans-61" x="87.447266"/>
      <use xlink:href="#DejaVuSans-69" x="148.726562"/>
      <use xlink:href="#DejaVuSans-6e" x="176.509766"/>
      <use xlink:href="#DejaVuSans-20" x="239.888672"/>
      <use xlink:href="#DejaVuSans-41" x="271.675781"/>
      <use xlink:href="#DejaVuSans-63" x="338.333984"/>
      <use xlink:href="#DejaVuSans-63" x="393.314453"/>
      <use xlink:href="#DejaVuSans-75" x="448.294922"/>
      <use xlink:href="#DejaVuSans-72" x="511.673828"/>
      <use xlink:href="#DejaVuSans-61" x="552.787109"/>
      <use xlink:href="#DejaVuSans-63" x="614.066406"/>
      <use xlink:href="#DejaVuSans-79" x="669.046875"/>
     </g>
    </g>
    <g id="line2d_25">
     <path d="M 216.18875 248.969937 
L 226.18875 248.969937 
L 236.18875 248.969937 
" style="fill: none; stroke: #ff7f0e; stroke-width: 1.5; stroke-linecap: square"/>
    </g>
    <g id="text_23">
     <!-- Validation Accuracy -->
     <g transform="translate(244.18875 252.469937) scale(0.1 -0.1)">
      <defs>
       <path id="DejaVuSans-56" d="M 1831 0 
L 50 4666 
L 709 4666 
L 2188 738 
L 3669 4666 
L 4325 4666 
L 2547 0 
L 1831 0 
z
" transform="scale(0.015625)"/>
       <path id="DejaVuSans-6c" d="M 603 4863 
L 1178 4863 
L 1178 0 
L 603 0 
L 603 4863 
z
" transform="scale(0.015625)"/>
       <path id="DejaVuSans-64" d="M 2906 2969 
L 2906 4863 
L 3481 4863 
L 3481 0 
L 2906 0 
L 2906 525 
Q 2725 213 2448 61 
Q 2172 -91 1784 -91 
Q 1150 -91 751 415 
Q 353 922 353 1747 
Q 353 2572 751 3078 
Q 1150 3584 1784 3584 
Q 2172 3584 2448 3432 
Q 2725 3281 2906 2969 
z
M 947 1747 
Q 947 1113 1208 752 
Q 1469 391 1925 391 
Q 2381 391 2643 752 
Q 2906 1113 2906 1747 
Q 2906 2381 2643 2742 
Q 2381 3103 1925 3103 
Q 1469 3103 1208 2742 
Q 947 2381 947 1747 
z
" transform="scale(0.015625)"/>
       <path id="DejaVuSans-74" d="M 1172 4494 
L 1172 3500 
L 2356 3500 
L 2356 3053 
L 1172 3053 
L 1172 1153 
Q 1172 725 1289 603 
Q 1406 481 1766 481 
L 2356 481 
L 2356 0 
L 1766 0 
Q 1100 0 847 248 
Q 594 497 594 1153 
L 594 3053 
L 172 3053 
L 172 3500 
L 594 3500 
L 594 4494 
L 1172 4494 
z
" transform="scale(0.015625)"/>
      </defs>
      <use xlink:href="#DejaVuSans-56"/>
      <use xlink:href="#DejaVuSans-61" x="60.658203"/>
      <use xlink:href="#DejaVuSans-6c" x="121.9375"/>
      <use xlink:href="#DejaVuSans-69" x="149.720703"/>
      <use xlink:href="#DejaVuSans-64" x="177.503906"/>
      <use xlink:href="#DejaVuSans-61" x="240.980469"/>
      <use xlink:href="#DejaVuSans-74" x="302.259766"/>
      <use xlink:href="#DejaVuSans-69" x="341.46875"/>
      <use xlink:href="#DejaVuSans-6f" x="369.251953"/>
      <use xlink:href="#DejaVuSans-6e" x="430.433594"/>
      <use xlink:href="#DejaVuSans-20" x="493.8125"/>
      <use xlink:href="#DejaVuSans-41" x="525.599609"/>
      <use xlink:href="#DejaVuSans-63" x="592.257812"/>
      <use xlink:href="#DejaVuSans-63" x="647.238281"/>
      <use xlink:href="#DejaVuSans-75" x="702.21875"/>
      <use xlink:href="#DejaVuSans-72" x="765.597656"/>
      <use xlink:href="#DejaVuSans-61" x="806.710938"/>
      <use xlink:href="#DejaVuSans-63" x="867.990234"/>
      <use xlink:href="#DejaVuSans-79" x="922.970703"/>
     </g>
    </g>
    <g id="line2d_26">
     <path d="M 216.18875 263.648062 
L 226.18875 263.648062 
L 236.18875 263.648062 
" style="fill: none; stroke: #2ca02c; stroke-width: 1.5; stroke-linecap: square"/>
    </g>
    <g id="text_24">
     <!-- Robust Validation Accuracy -->
     <g transform="translate(244.18875 267.148062) scale(0.1 -0.1)">
      <defs>
       <path id="DejaVuSans-52" d="M 2841 2188 
Q 3044 2119 3236 1894 
Q 3428 1669 3622 1275 
L 4263 0 
L 3584 0 
L 2988 1197 
Q 2756 1666 2539 1819 
Q 2322 1972 1947 1972 
L 1259 1972 
L 1259 0 
L 628 0 
L 628 4666 
L 2053 4666 
Q 2853 4666 3247 4331 
Q 3641 3997 3641 3322 
Q 3641 2881 3436 2590 
Q 3231 2300 2841 2188 
z
M 1259 4147 
L 1259 2491 
L 2053 2491 
Q 2509 2491 2742 2702 
Q 2975 2913 2975 3322 
Q 2975 3731 2742 3939 
Q 2509 4147 2053 4147 
L 1259 4147 
z
" transform="scale(0.015625)"/>
       <path id="DejaVuSans-62" d="M 3116 1747 
Q 3116 2381 2855 2742 
Q 2594 3103 2138 3103 
Q 1681 3103 1420 2742 
Q 1159 2381 1159 1747 
Q 1159 1113 1420 752 
Q 1681 391 2138 391 
Q 2594 391 2855 752 
Q 3116 1113 3116 1747 
z
M 1159 2969 
Q 1341 3281 1617 3432 
Q 1894 3584 2278 3584 
Q 2916 3584 3314 3078 
Q 3713 2572 3713 1747 
Q 3713 922 3314 415 
Q 2916 -91 2278 -91 
Q 1894 -91 1617 61 
Q 1341 213 1159 525 
L 1159 0 
L 581 0 
L 581 4863 
L 1159 4863 
L 1159 2969 
z
" transform="scale(0.015625)"/>
      </defs>
      <use xlink:href="#DejaVuSans-52"/>
      <use xlink:href="#DejaVuSans-6f" x="64.982422"/>
      <use xlink:href="#DejaVuSans-62" x="126.164062"/>
      <use xlink:href="#DejaVuSans-75" x="189.640625"/>
      <use xlink:href="#DejaVuSans-73" x="253.019531"/>
      <use xlink:href="#DejaVuSans-74" x="305.119141"/>
      <use xlink:href="#DejaVuSans-20" x="344.328125"/>
      <use xlink:href="#DejaVuSans-56" x="376.115234"/>
      <use xlink:href="#DejaVuSans-61" x="436.773438"/>
      <use xlink:href="#DejaVuSans-6c" x="498.052734"/>
      <use xlink:href="#DejaVuSans-69" x="525.835938"/>
      <use xlink:href="#DejaVuSans-64" x="553.619141"/>
      <use xlink:href="#DejaVuSans-61" x="617.095703"/>
      <use xlink:href="#DejaVuSans-74" x="678.375"/>
      <use xlink:href="#DejaVuSans-69" x="717.583984"/>
      <use xlink:href="#DejaVuSans-6f" x="745.367188"/>
      <use xlink:href="#DejaVuSans-6e" x="806.548828"/>
      <use xlink:href="#DejaVuSans-20" x="869.927734"/>
      <use xlink:href="#DejaVuSans-41" x="901.714844"/>
      <use xlink:href="#DejaVuSans-63" x="968.373047"/>
      <use xlink:href="#DejaVuSans-63" x="1023.353516"/>
      <use xlink:href="#DejaVuSans-75" x="1078.333984"/>
      <use xlink:href="#DejaVuSans-72" x="1141.712891"/>
      <use xlink:href="#DejaVuSans-61" x="1182.826172"/>
      <use xlink:href="#DejaVuSans-63" x="1244.105469"/>
      <use xlink:href="#DejaVuSans-79" x="1299.085938"/>
     </g>
    </g>
    <g id="line2d_27">
     <path d="M 216.18875 278.326188 
L 226.18875 278.326188 
L 236.18875 278.326188 
" style="fill: none; stroke: #d62728; stroke-width: 1.5; stroke-linecap: square"/>
    </g>
    <g id="text_25">
     <!-- SWA Validation Accuracy -->
     <g transform="translate(244.18875 281.826188) scale(0.1 -0.1)">
      <defs>
       <path id="DejaVuSans-53" d="M 3425 4513 
L 3425 3897 
Q 3066 4069 2747 4153 
Q 2428 4238 2131 4238 
Q 1616 4238 1336 4038 
Q 1056 3838 1056 3469 
Q 1056 3159 1242 3001 
Q 1428 2844 1947 2747 
L 2328 2669 
Q 3034 2534 3370 2195 
Q 3706 1856 3706 1288 
Q 3706 609 3251 259 
Q 2797 -91 1919 -91 
Q 1588 -91 1214 -16 
Q 841 59 441 206 
L 441 856 
Q 825 641 1194 531 
Q 1563 422 1919 422 
Q 2459 422 2753 634 
Q 3047 847 3047 1241 
Q 3047 1584 2836 1778 
Q 2625 1972 2144 2069 
L 1759 2144 
Q 1053 2284 737 2584 
Q 422 2884 422 3419 
Q 422 4038 858 4394 
Q 1294 4750 2059 4750 
Q 2388 4750 2728 4690 
Q 3069 4631 3425 4513 
z
" transform="scale(0.015625)"/>
       <path id="DejaVuSans-57" d="M 213 4666 
L 850 4666 
L 1831 722 
L 2809 4666 
L 3519 4666 
L 4500 722 
L 5478 4666 
L 6119 4666 
L 4947 0 
L 4153 0 
L 3169 4050 
L 2175 0 
L 1381 0 
L 213 4666 
z
" transform="scale(0.015625)"/>
      </defs>
      <use xlink:href="#DejaVuSans-53"/>
      <use xlink:href="#DejaVuSans-57" x="63.476562"/>
      <use xlink:href="#DejaVuSans-41" x="156.853516"/>
      <use xlink:href="#DejaVuSans-20" x="225.261719"/>
      <use xlink:href="#DejaVuSans-56" x="257.048828"/>
      <use xlink:href="#DejaVuSans-61" x="317.707031"/>
      <use xlink:href="#DejaVuSans-6c" x="378.986328"/>
      <use xlink:href="#DejaVuSans-69" x="406.769531"/>
      <use xlink:href="#DejaVuSans-64" x="434.552734"/>
      <use xlink:href="#DejaVuSans-61" x="498.029297"/>
      <use xlink:href="#DejaVuSans-74" x="559.308594"/>
      <use xlink:href="#DejaVuSans-69" x="598.517578"/>
      <use xlink:href="#DejaVuSans-6f" x="626.300781"/>
      <use xlink:href="#DejaVuSans-6e" x="687.482422"/>
      <use xlink:href="#DejaVuSans-20" x="750.861328"/>
      <use xlink:href="#DejaVuSans-41" x="782.648438"/>
      <use xlink:href="#DejaVuSans-63" x="849.306641"/>
      <use xlink:href="#DejaVuSans-63" x="904.287109"/>
      <use xlink:href="#DejaVuSans-75" x="959.267578"/>
      <use xlink:href="#DejaVuSans-72" x="1022.646484"/>
      <use xlink:href="#DejaVuSans-61" x="1063.759766"/>
      <use xlink:href="#DejaVuSans-63" x="1125.039062"/>
      <use xlink:href="#DejaVuSans-79" x="1180.019531"/>
     </g>
    </g>
    <g id="line2d_28">
     <path d="M 216.18875 293.004312 
L 226.18875 293.004312 
L 236.18875 293.004312 
" style="fill: none; stroke: #9467bd; stroke-width: 1.5; stroke-linecap: square"/>
    </g>
    <g id="text_26">
     <!-- SWA Robust Validation Accuracy -->
     <g transform="translate(244.18875 296.504312) scale(0.1 -0.1)">
      <use xlink:href="#DejaVuSans-53"/>
      <use xlink:href="#DejaVuSans-57" x="63.476562"/>
      <use xlink:href="#DejaVuSans-41" x="156.853516"/>
      <use xlink:href="#DejaVuSans-20" x="225.261719"/>
      <use xlink:href="#DejaVuSans-52" x="257.048828"/>
      <use xlink:href="#DejaVuSans-6f" x="322.03125"/>
      <use xlink:href="#DejaVuSans-62" x="383.212891"/>
      <use xlink:href="#DejaVuSans-75" x="446.689453"/>
      <use xlink:href="#DejaVuSans-73" x="510.068359"/>
      <use xlink:href="#DejaVuSans-74" x="562.167969"/>
      <use xlink:href="#DejaVuSans-20" x="601.376953"/>
      <use xlink:href="#DejaVuSans-56" x="633.164062"/>
      <use xlink:href="#DejaVuSans-61" x="693.822266"/>
      <use xlink:href="#DejaVuSans-6c" x="755.101562"/>
      <use xlink:href="#DejaVuSans-69" x="782.884766"/>
      <use xlink:href="#DejaVuSans-64" x="810.667969"/>
      <use xlink:href="#DejaVuSans-61" x="874.144531"/>
      <use xlink:href="#DejaVuSans-74" x="935.423828"/>
      <use xlink:href="#DejaVuSans-69" x="974.632812"/>
      <use xlink:href="#DejaVuSans-6f" x="1002.416016"/>
      <use xlink:href="#DejaVuSans-6e" x="1063.597656"/>
      <use xlink:href="#DejaVuSans-20" x="1126.976562"/>
      <use xlink:href="#DejaVuSans-41" x="1158.763672"/>
      <use xlink:href="#DejaVuSans-63" x="1225.421875"/>
      <use xlink:href="#DejaVuSans-63" x="1280.402344"/>
      <use xlink:href="#DejaVuSans-75" x="1335.382812"/>
      <use xlink:href="#DejaVuSans-72" x="1398.761719"/>
      <use xlink:href="#DejaVuSans-61" x="1439.875"/>
      <use xlink:href="#DejaVuSans-63" x="1501.154297"/>
      <use xlink:href="#DejaVuSans-79" x="1556.134766"/>
     </g>
    </g>
   </g>
  </g>
 </g>
 <defs>
  <clipPath id="pde4433f4dc">
   <rect x="57.6" y="41.472" width="357.12" height="266.112"/>
  </clipPath>
 </defs>
</svg>
