<?xml version="1.0" encoding="utf-8" standalone="no"?>
<!DOCTYPE svg PUBLIC "-//W3C//DTD SVG 1.1//EN"
  "http://www.w3.org/Graphics/SVG/1.1/DTD/svg11.dtd">
<svg xmlns:xlink="http://www.w3.org/1999/xlink" width="460.8pt" height="345.6pt" viewBox="0 0 460.8 345.6" xmlns="http://www.w3.org/2000/svg" version="1.1">
 <metadata>
  <rdf:RDF xmlns:dc="http://purl.org/dc/elements/1.1/" xmlns:cc="http://creativecommons.org/ns#" xmlns:rdf="http://www.w3.org/1999/02/22-rdf-syntax-ns#">
   <cc:Work>
    <dc:type rdf:resource="http://purl.org/dc/dcmitype/StillImage"/>
    <dc:date>2025-05-05T18:08:30.425615</dc:date>
    <dc:format>image/svg+xml</dc:format>
    <dc:creator>
     <cc:Agent>
      <dc:title>Matplotlib v3.9.1, https://matplotlib.org/</dc:title>
     </cc:Agent>
    </dc:creator>
   </cc:Work>
  </rdf:RDF>
 </metadata>
 <defs>
  <style type="text/css">*{stroke-linejoin: round; stroke-linecap: butt}</style>
 </defs>
 <g id="figure_1">
  <g id="patch_1">
   <path d="M 0 345.6 
L 460.8 345.6 
L 460.8 0 
L 0 0 
z
" style="fill: #ffffff"/>
  </g>
  <g id="axes_1">
   <g id="patch_2">
    <path d="M 57.6 307.584 
L 414.72 307.584 
L 414.72 41.472 
L 57.6 41.472 
z
" style="fill: #ffffff"/>
   </g>
   <g id="matplotlib.axis_1">
    <g id="xtick_1">
     <g id="line2d_1">
      <defs>
       <path id="mf9566ce8cc" d="M 0 0 
L 0 3.5 
" style="stroke: #000000; stroke-width: 0.8"/>
      </defs>
      <g>
       <use xlink:href="#mf9566ce8cc" x="73.832727" y="307.584" style="stroke: #000000; stroke-width: 0.8"/>
      </g>
     </g>
     <g id="text_1">
      <!-- 1 -->
      <g transform="translate(70.651477 322.182437) scale(0.1 -0.1)">
       <defs>
        <path id="DejaVuSans-31" d="M 794 531 
L 1825 531 
L 1825 4091 
L 703 3866 
L 703 4441 
L 1819 4666 
L 2450 4666 
L 2450 531 
L 3481 531 
L 3481 0 
L 794 0 
L 794 531 
z
" transform="scale(0.015625)"/>
       </defs>
       <use xlink:href="#DejaVuSans-31"/>
      </g>
     </g>
    </g>
    <g id="xtick_2">
     <g id="line2d_2">
      <g>
       <use xlink:href="#mf9566ce8cc" x="109.664165" y="307.584" style="stroke: #000000; stroke-width: 0.8"/>
      </g>
     </g>
     <g id="text_2">
      <!-- 34 -->
      <g transform="translate(103.301665 322.182437) scale(0.1 -0.1)">
       <defs>
        <path id="DejaVuSans-33" d="M 2597 2516 
Q 3050 2419 3304 2112 
Q 3559 1806 3559 1356 
Q 3559 666 3084 287 
Q 2609 -91 1734 -91 
Q 1441 -91 1130 -33 
Q 819 25 488 141 
L 488 750 
Q 750 597 1062 519 
Q 1375 441 1716 441 
Q 2309 441 2620 675 
Q 2931 909 2931 1356 
Q 2931 1769 2642 2001 
Q 2353 2234 1838 2234 
L 1294 2234 
L 1294 2753 
L 1863 2753 
Q 2328 2753 2575 2939 
Q 2822 3125 2822 3475 
Q 2822 3834 2567 4026 
Q 2313 4219 1838 4219 
Q 1578 4219 1281 4162 
Q 984 4106 628 3988 
L 628 4550 
Q 988 4650 1302 4700 
Q 1616 4750 1894 4750 
Q 2613 4750 3031 4423 
Q 3450 4097 3450 3541 
Q 3450 3153 3228 2886 
Q 3006 2619 2597 2516 
z
" transform="scale(0.015625)"/>
        <path id="DejaVuSans-34" d="M 2419 4116 
L 825 1625 
L 2419 1625 
L 2419 4116 
z
M 2253 4666 
L 3047 4666 
L 3047 1625 
L 3713 1625 
L 3713 1100 
L 3047 1100 
L 3047 0 
L 2419 0 
L 2419 1100 
L 313 1100 
L 313 1709 
L 2253 4666 
z
" transform="scale(0.015625)"/>
       </defs>
       <use xlink:href="#DejaVuSans-33"/>
       <use xlink:href="#DejaVuSans-34" x="63.623047"/>
      </g>
     </g>
    </g>
    <g id="xtick_3">
     <g id="line2d_3">
      <g>
       <use xlink:href="#mf9566ce8cc" x="145.495604" y="307.584" style="stroke: #000000; stroke-width: 0.8"/>
      </g>
     </g>
     <g id="text_3">
      <!-- 67 -->
      <g transform="translate(139.133104 322.182437) scale(0.1 -0.1)">
       <defs>
        <path id="DejaVuSans-36" d="M 2113 2584 
Q 1688 2584 1439 2293 
Q 1191 2003 1191 1497 
Q 1191 994 1439 701 
Q 1688 409 2113 409 
Q 2538 409 2786 701 
Q 3034 994 3034 1497 
Q 3034 2003 2786 2293 
Q 2538 2584 2113 2584 
z
M 3366 4563 
L 3366 3988 
Q 3128 4100 2886 4159 
Q 2644 4219 2406 4219 
Q 1781 4219 1451 3797 
Q 1122 3375 1075 2522 
Q 1259 2794 1537 2939 
Q 1816 3084 2150 3084 
Q 2853 3084 3261 2657 
Q 3669 2231 3669 1497 
Q 3669 778 3244 343 
Q 2819 -91 2113 -91 
Q 1303 -91 875 529 
Q 447 1150 447 2328 
Q 447 3434 972 4092 
Q 1497 4750 2381 4750 
Q 2619 4750 2861 4703 
Q 3103 4656 3366 4563 
z
" transform="scale(0.015625)"/>
        <path id="DejaVuSans-37" d="M 525 4666 
L 3525 4666 
L 3525 4397 
L 1831 0 
L 1172 0 
L 2766 4134 
L 525 4134 
L 525 4666 
z
" transform="scale(0.015625)"/>
       </defs>
       <use xlink:href="#DejaVuSans-36"/>
       <use xlink:href="#DejaVuSans-37" x="63.623047"/>
      </g>
     </g>
    </g>
    <g id="xtick_4">
     <g id="line2d_4">
      <g>
       <use xlink:href="#mf9566ce8cc" x="181.327042" y="307.584" style="stroke: #000000; stroke-width: 0.8"/>
      </g>
     </g>
     <g id="text_4">
      <!-- 100 -->
      <g transform="translate(171.783292 322.182437) scale(0.1 -0.1)">
       <defs>
        <path id="DejaVuSans-30" d="M 2034 4250 
Q 1547 4250 1301 3770 
Q 1056 3291 1056 2328 
Q 1056 1369 1301 889 
Q 1547 409 2034 409 
Q 2525 409 2770 889 
Q 3016 1369 3016 2328 
Q 3016 3291 2770 3770 
Q 2525 4250 2034 4250 
z
M 2034 4750 
Q 2819 4750 3233 4129 
Q 3647 3509 3647 2328 
Q 3647 1150 3233 529 
Q 2819 -91 2034 -91 
Q 1250 -91 836 529 
Q 422 1150 422 2328 
Q 422 3509 836 4129 
Q 1250 4750 2034 4750 
z
" transform="scale(0.015625)"/>
       </defs>
       <use xlink:href="#DejaVuSans-31"/>
       <use xlink:href="#DejaVuSans-30" x="63.623047"/>
       <use xlink:href="#DejaVuSans-30" x="127.246094"/>
      </g>
     </g>
    </g>
    <g id="xtick_5">
     <g id="line2d_5">
      <g>
       <use xlink:href="#mf9566ce8cc" x="217.15848" y="307.584" style="stroke: #000000; stroke-width: 0.8"/>
      </g>
     </g>
     <g id="text_5">
      <!-- 133 -->
      <g transform="translate(207.61473 322.182437) scale(0.1 -0.1)">
       <use xlink:href="#DejaVuSans-31"/>
       <use xlink:href="#DejaVuSans-33" x="63.623047"/>
       <use xlink:href="#DejaVuSans-33" x="127.246094"/>
      </g>
     </g>
    </g>
    <g id="xtick_6">
     <g id="line2d_6">
      <g>
       <use xlink:href="#mf9566ce8cc" x="254.075719" y="307.584" style="stroke: #000000; stroke-width: 0.8"/>
      </g>
     </g>
     <g id="text_6">
      <!-- 167 -->
      <g transform="translate(244.531969 322.182437) scale(0.1 -0.1)">
       <use xlink:href="#DejaVuSans-31"/>
       <use xlink:href="#DejaVuSans-36" x="63.623047"/>
       <use xlink:href="#DejaVuSans-37" x="127.246094"/>
      </g>
     </g>
    </g>
    <g id="xtick_7">
     <g id="line2d_7">
      <g>
       <use xlink:href="#mf9566ce8cc" x="289.907157" y="307.584" style="stroke: #000000; stroke-width: 0.8"/>
      </g>
     </g>
     <g id="text_7">
      <!-- 200 -->
      <g transform="translate(280.363407 322.182437) scale(0.1 -0.1)">
       <defs>
        <path id="DejaVuSans-32" d="M 1228 531 
L 3431 531 
L 3431 0 
L 469 0 
L 469 531 
Q 828 903 1448 1529 
Q 2069 2156 2228 2338 
Q 2531 2678 2651 2914 
Q 2772 3150 2772 3378 
Q 2772 3750 2511 3984 
Q 2250 4219 1831 4219 
Q 1534 4219 1204 4116 
Q 875 4013 500 3803 
L 500 4441 
Q 881 4594 1212 4672 
Q 1544 4750 1819 4750 
Q 2544 4750 2975 4387 
Q 3406 4025 3406 3419 
Q 3406 3131 3298 2873 
Q 3191 2616 2906 2266 
Q 2828 2175 2409 1742 
Q 1991 1309 1228 531 
z
" transform="scale(0.015625)"/>
       </defs>
       <use xlink:href="#DejaVuSans-32"/>
       <use xlink:href="#DejaVuSans-30" x="63.623047"/>
       <use xlink:href="#DejaVuSans-30" x="127.246094"/>
      </g>
     </g>
    </g>
    <g id="xtick_8">
     <g id="line2d_8">
      <g>
       <use xlink:href="#mf9566ce8cc" x="325.738595" y="307.584" style="stroke: #000000; stroke-width: 0.8"/>
      </g>
     </g>
     <g id="text_8">
      <!-- 233 -->
      <g transform="translate(316.194845 322.182437) scale(0.1 -0.1)">
       <use xlink:href="#DejaVuSans-32"/>
       <use xlink:href="#DejaVuSans-33" x="63.623047"/>
       <use xlink:href="#DejaVuSans-33" x="127.246094"/>
      </g>
     </g>
    </g>
    <g id="xtick_9">
     <g id="line2d_9">
      <g>
       <use xlink:href="#mf9566ce8cc" x="361.570033" y="307.584" style="stroke: #000000; stroke-width: 0.8"/>
      </g>
     </g>
     <g id="text_9">
      <!-- 266 -->
      <g transform="translate(352.026283 322.182437) scale(0.1 -0.1)">
       <use xlink:href="#DejaVuSans-32"/>
       <use xlink:href="#DejaVuSans-36" x="63.623047"/>
       <use xlink:href="#DejaVuSans-36" x="127.246094"/>
      </g>
     </g>
    </g>
    <g id="xtick_10">
     <g id="line2d_10">
      <g>
       <use xlink:href="#mf9566ce8cc" x="398.487273" y="307.584" style="stroke: #000000; stroke-width: 0.8"/>
      </g>
     </g>
     <g id="text_10">
      <!-- 300 -->
      <g transform="translate(388.943523 322.182437) scale(0.1 -0.1)">
       <use xlink:href="#DejaVuSans-33"/>
       <use xlink:href="#DejaVuSans-30" x="63.623047"/>
       <use xlink:href="#DejaVuSans-30" x="127.246094"/>
      </g>
     </g>
    </g>
    <g id="text_11">
     <!-- Epochs -->
     <g transform="translate(218.244375 335.860562) scale(0.1 -0.1)">
      <defs>
       <path id="DejaVuSans-45" d="M 628 4666 
L 3578 4666 
L 3578 4134 
L 1259 4134 
L 1259 2753 
L 3481 2753 
L 3481 2222 
L 1259 2222 
L 1259 531 
L 3634 531 
L 3634 0 
L 628 0 
L 628 4666 
z
" transform="scale(0.015625)"/>
       <path id="DejaVuSans-70" d="M 1159 525 
L 1159 -1331 
L 581 -1331 
L 581 3500 
L 1159 3500 
L 1159 2969 
Q 1341 3281 1617 3432 
Q 1894 3584 2278 3584 
Q 2916 3584 3314 3078 
Q 3713 2572 3713 1747 
Q 3713 922 3314 415 
Q 2916 -91 2278 -91 
Q 1894 -91 1617 61 
Q 1341 213 1159 525 
z
M 3116 1747 
Q 3116 2381 2855 2742 
Q 2594 3103 2138 3103 
Q 1681 3103 1420 2742 
Q 1159 2381 1159 1747 
Q 1159 1113 1420 752 
Q 1681 391 2138 391 
Q 2594 391 2855 752 
Q 3116 1113 3116 1747 
z
" transform="scale(0.015625)"/>
       <path id="DejaVuSans-6f" d="M 1959 3097 
Q 1497 3097 1228 2736 
Q 959 2375 959 1747 
Q 959 1119 1226 758 
Q 1494 397 1959 397 
Q 2419 397 2687 759 
Q 2956 1122 2956 1747 
Q 2956 2369 2687 2733 
Q 2419 3097 1959 3097 
z
M 1959 3584 
Q 2709 3584 3137 3096 
Q 3566 2609 3566 1747 
Q 3566 888 3137 398 
Q 2709 -91 1959 -91 
Q 1206 -91 779 398 
Q 353 888 353 1747 
Q 353 2609 779 3096 
Q 1206 3584 1959 3584 
z
" transform="scale(0.015625)"/>
       <path id="DejaVuSans-63" d="M 3122 3366 
L 3122 2828 
Q 2878 2963 2633 3030 
Q 2388 3097 2138 3097 
Q 1578 3097 1268 2742 
Q 959 2388 959 1747 
Q 959 1106 1268 751 
Q 1578 397 2138 397 
Q 2388 397 2633 464 
Q 2878 531 3122 666 
L 3122 134 
Q 2881 22 2623 -34 
Q 2366 -91 2075 -91 
Q 1284 -91 818 406 
Q 353 903 353 1747 
Q 353 2603 823 3093 
Q 1294 3584 2113 3584 
Q 2378 3584 2631 3529 
Q 2884 3475 3122 3366 
z
" transform="scale(0.015625)"/>
       <path id="DejaVuSans-68" d="M 3513 2113 
L 3513 0 
L 2938 0 
L 2938 2094 
Q 2938 2591 2744 2837 
Q 2550 3084 2163 3084 
Q 1697 3084 1428 2787 
Q 1159 2491 1159 1978 
L 1159 0 
L 581 0 
L 581 4863 
L 1159 4863 
L 1159 2956 
Q 1366 3272 1645 3428 
Q 1925 3584 2291 3584 
Q 2894 3584 3203 3211 
Q 3513 2838 3513 2113 
z
" transform="scale(0.015625)"/>
       <path id="DejaVuSans-73" d="M 2834 3397 
L 2834 2853 
Q 2591 2978 2328 3040 
Q 2066 3103 1784 3103 
Q 1356 3103 1142 2972 
Q 928 2841 928 2578 
Q 928 2378 1081 2264 
Q 1234 2150 1697 2047 
L 1894 2003 
Q 2506 1872 2764 1633 
Q 3022 1394 3022 966 
Q 3022 478 2636 193 
Q 2250 -91 1575 -91 
Q 1294 -91 989 -36 
Q 684 19 347 128 
L 347 722 
Q 666 556 975 473 
Q 1284 391 1588 391 
Q 1994 391 2212 530 
Q 2431 669 2431 922 
Q 2431 1156 2273 1281 
Q 2116 1406 1581 1522 
L 1381 1569 
Q 847 1681 609 1914 
Q 372 2147 372 2553 
Q 372 3047 722 3315 
Q 1072 3584 1716 3584 
Q 2034 3584 2315 3537 
Q 2597 3491 2834 3397 
z
" transform="scale(0.015625)"/>
      </defs>
      <use xlink:href="#DejaVuSans-45"/>
      <use xlink:href="#DejaVuSans-70" x="63.183594"/>
      <use xlink:href="#DejaVuSans-6f" x="126.660156"/>
      <use xlink:href="#DejaVuSans-63" x="187.841797"/>
      <use xlink:href="#DejaVuSans-68" x="242.822266"/>
      <use xlink:href="#DejaVuSans-73" x="306.201172"/>
     </g>
    </g>
   </g>
   <g id="matplotlib.axis_2">
    <g id="ytick_1">
     <g id="line2d_11">
      <defs>
       <path id="mc5554cd43e" d="M 0 0 
L -3.5 0 
" style="stroke: #000000; stroke-width: 0.8"/>
      </defs>
      <g>
       <use xlink:href="#mc5554cd43e" x="57.6" y="302.795756" style="stroke: #000000; stroke-width: 0.8"/>
      </g>
     </g>
     <g id="text_12">
      <!-- 10 -->
      <g transform="translate(37.875 306.594975) scale(0.1 -0.1)">
       <use xlink:href="#DejaVuSans-31"/>
       <use xlink:href="#DejaVuSans-30" x="63.623047"/>
      </g>
     </g>
    </g>
    <g id="ytick_2">
     <g id="line2d_12">
      <g>
       <use xlink:href="#mc5554cd43e" x="57.6" y="268.453184" style="stroke: #000000; stroke-width: 0.8"/>
      </g>
     </g>
     <g id="text_13">
      <!-- 20 -->
      <g transform="translate(37.875 272.252403) scale(0.1 -0.1)">
       <use xlink:href="#DejaVuSans-32"/>
       <use xlink:href="#DejaVuSans-30" x="63.623047"/>
      </g>
     </g>
    </g>
    <g id="ytick_3">
     <g id="line2d_13">
      <g>
       <use xlink:href="#mc5554cd43e" x="57.6" y="234.110612" style="stroke: #000000; stroke-width: 0.8"/>
      </g>
     </g>
     <g id="text_14">
      <!-- 30 -->
      <g transform="translate(37.875 237.909831) scale(0.1 -0.1)">
       <use xlink:href="#DejaVuSans-33"/>
       <use xlink:href="#DejaVuSans-30" x="63.623047"/>
      </g>
     </g>
    </g>
    <g id="ytick_4">
     <g id="line2d_14">
      <g>
       <use xlink:href="#mc5554cd43e" x="57.6" y="199.768041" style="stroke: #000000; stroke-width: 0.8"/>
      </g>
     </g>
     <g id="text_15">
      <!-- 40 -->
      <g transform="translate(37.875 203.56726) scale(0.1 -0.1)">
       <use xlink:href="#DejaVuSans-34"/>
       <use xlink:href="#DejaVuSans-30" x="63.623047"/>
      </g>
     </g>
    </g>
    <g id="ytick_5">
     <g id="line2d_15">
      <g>
       <use xlink:href="#mc5554cd43e" x="57.6" y="165.425469" style="stroke: #000000; stroke-width: 0.8"/>
      </g>
     </g>
     <g id="text_16">
      <!-- 50 -->
      <g transform="translate(37.875 169.224688) scale(0.1 -0.1)">
       <defs>
        <path id="DejaVuSans-35" d="M 691 4666 
L 3169 4666 
L 3169 4134 
L 1269 4134 
L 1269 2991 
Q 1406 3038 1543 3061 
Q 1681 3084 1819 3084 
Q 2600 3084 3056 2656 
Q 3513 2228 3513 1497 
Q 3513 744 3044 326 
Q 2575 -91 1722 -91 
Q 1428 -91 1123 -41 
Q 819 9 494 109 
L 494 744 
Q 775 591 1075 516 
Q 1375 441 1709 441 
Q 2250 441 2565 725 
Q 2881 1009 2881 1497 
Q 2881 1984 2565 2268 
Q 2250 2553 1709 2553 
Q 1456 2553 1204 2497 
Q 953 2441 691 2322 
L 691 4666 
z
" transform="scale(0.015625)"/>
       </defs>
       <use xlink:href="#DejaVuSans-35"/>
       <use xlink:href="#DejaVuSans-30" x="63.623047"/>
      </g>
     </g>
    </g>
    <g id="ytick_6">
     <g id="line2d_16">
      <g>
       <use xlink:href="#mc5554cd43e" x="57.6" y="131.082897" style="stroke: #000000; stroke-width: 0.8"/>
      </g>
     </g>
     <g id="text_17">
      <!-- 60 -->
      <g transform="translate(37.875 134.882116) scale(0.1 -0.1)">
       <use xlink:href="#DejaVuSans-36"/>
       <use xlink:href="#DejaVuSans-30" x="63.623047"/>
      </g>
     </g>
    </g>
    <g id="ytick_7">
     <g id="line2d_17">
      <g>
       <use xlink:href="#mc5554cd43e" x="57.6" y="96.740326" style="stroke: #000000; stroke-width: 0.8"/>
      </g>
     </g>
     <g id="text_18">
      <!-- 70 -->
      <g transform="translate(37.875 100.539544) scale(0.1 -0.1)">
       <use xlink:href="#DejaVuSans-37"/>
       <use xlink:href="#DejaVuSans-30" x="63.623047"/>
      </g>
     </g>
    </g>
    <g id="ytick_8">
     <g id="line2d_18">
      <g>
       <use xlink:href="#mc5554cd43e" x="57.6" y="62.397754" style="stroke: #000000; stroke-width: 0.8"/>
      </g>
     </g>
     <g id="text_19">
      <!-- 80 -->
      <g transform="translate(37.875 66.196973) scale(0.1 -0.1)">
       <defs>
        <path id="DejaVuSans-38" d="M 2034 2216 
Q 1584 2216 1326 1975 
Q 1069 1734 1069 1313 
Q 1069 891 1326 650 
Q 1584 409 2034 409 
Q 2484 409 2743 651 
Q 3003 894 3003 1313 
Q 3003 1734 2745 1975 
Q 2488 2216 2034 2216 
z
M 1403 2484 
Q 997 2584 770 2862 
Q 544 3141 544 3541 
Q 544 4100 942 4425 
Q 1341 4750 2034 4750 
Q 2731 4750 3128 4425 
Q 3525 4100 3525 3541 
Q 3525 3141 3298 2862 
Q 3072 2584 2669 2484 
Q 3125 2378 3379 2068 
Q 3634 1759 3634 1313 
Q 3634 634 3220 271 
Q 2806 -91 2034 -91 
Q 1263 -91 848 271 
Q 434 634 434 1313 
Q 434 1759 690 2068 
Q 947 2378 1403 2484 
z
M 1172 3481 
Q 1172 3119 1398 2916 
Q 1625 2713 2034 2713 
Q 2441 2713 2670 2916 
Q 2900 3119 2900 3481 
Q 2900 3844 2670 4047 
Q 2441 4250 2034 4250 
Q 1625 4250 1398 4047 
Q 1172 3844 1172 3481 
z
" transform="scale(0.015625)"/>
       </defs>
       <use xlink:href="#DejaVuSans-38"/>
       <use xlink:href="#DejaVuSans-30" x="63.623047"/>
      </g>
     </g>
    </g>
    <g id="text_20">
     <!-- Accuracy -->
     <g transform="translate(31.795312 197.356125) rotate(-90) scale(0.1 -0.1)">
      <defs>
       <path id="DejaVuSans-41" d="M 2188 4044 
L 1331 1722 
L 3047 1722 
L 2188 4044 
z
M 1831 4666 
L 2547 4666 
L 4325 0 
L 3669 0 
L 3244 1197 
L 1141 1197 
L 716 0 
L 50 0 
L 1831 4666 
z
" transform="scale(0.015625)"/>
       <path id="DejaVuSans-75" d="M 544 1381 
L 544 3500 
L 1119 3500 
L 1119 1403 
Q 1119 906 1312 657 
Q 1506 409 1894 409 
Q 2359 409 2629 706 
Q 2900 1003 2900 1516 
L 2900 3500 
L 3475 3500 
L 3475 0 
L 2900 0 
L 2900 538 
Q 2691 219 2414 64 
Q 2138 -91 1772 -91 
Q 1169 -91 856 284 
Q 544 659 544 1381 
z
M 1991 3584 
L 1991 3584 
z
" transform="scale(0.015625)"/>
       <path id="DejaVuSans-72" d="M 2631 2963 
Q 2534 3019 2420 3045 
Q 2306 3072 2169 3072 
Q 1681 3072 1420 2755 
Q 1159 2438 1159 1844 
L 1159 0 
L 581 0 
L 581 3500 
L 1159 3500 
L 1159 2956 
Q 1341 3275 1631 3429 
Q 1922 3584 2338 3584 
Q 2397 3584 2469 3576 
Q 2541 3569 2628 3553 
L 2631 2963 
z
" transform="scale(0.015625)"/>
       <path id="DejaVuSans-61" d="M 2194 1759 
Q 1497 1759 1228 1600 
Q 959 1441 959 1056 
Q 959 750 1161 570 
Q 1363 391 1709 391 
Q 2188 391 2477 730 
Q 2766 1069 2766 1631 
L 2766 1759 
L 2194 1759 
z
M 3341 1997 
L 3341 0 
L 2766 0 
L 2766 531 
Q 2569 213 2275 61 
Q 1981 -91 1556 -91 
Q 1019 -91 701 211 
Q 384 513 384 1019 
Q 384 1609 779 1909 
Q 1175 2209 1959 2209 
L 2766 2209 
L 2766 2266 
Q 2766 2663 2505 2880 
Q 2244 3097 1772 3097 
Q 1472 3097 1187 3025 
Q 903 2953 641 2809 
L 641 3341 
Q 956 3463 1253 3523 
Q 1550 3584 1831 3584 
Q 2591 3584 2966 3190 
Q 3341 2797 3341 1997 
z
" transform="scale(0.015625)"/>
       <path id="DejaVuSans-79" d="M 2059 -325 
Q 1816 -950 1584 -1140 
Q 1353 -1331 966 -1331 
L 506 -1331 
L 506 -850 
L 844 -850 
Q 1081 -850 1212 -737 
Q 1344 -625 1503 -206 
L 1606 56 
L 191 3500 
L 800 3500 
L 1894 763 
L 2988 3500 
L 3597 3500 
L 2059 -325 
z
" transform="scale(0.015625)"/>
      </defs>
      <use xlink:href="#DejaVuSans-41"/>
      <use xlink:href="#DejaVuSans-63" x="66.658203"/>
      <use xlink:href="#DejaVuSans-63" x="121.638672"/>
      <use xlink:href="#DejaVuSans-75" x="176.619141"/>
      <use xlink:href="#DejaVuSans-72" x="239.998047"/>
      <use xlink:href="#DejaVuSans-61" x="281.111328"/>
      <use xlink:href="#DejaVuSans-63" x="342.390625"/>
      <use xlink:href="#DejaVuSans-79" x="397.371094"/>
     </g>
    </g>
   </g>
   <g id="line2d_19">
    <path d="M 73.832727 295.488 
L 74.918528 246.14734 
L 76.00433 215.690631 
L 77.090131 194.051033 
L 78.175932 181.079157 
L 80.347534 161.032024 
L 81.433335 155.137808 
L 82.519137 147.979786 
L 83.604938 142.904984 
L 84.690739 136.588698 
L 86.862341 127.429878 
L 87.948142 123.11439 
L 89.033943 119.890997 
L 90.119745 115.770575 
L 92.291347 110.872294 
L 94.462949 107.444562 
L 95.54875 137.866586 
L 96.634552 137.299933 
L 98.806154 131.752234 
L 99.891955 128.928244 
L 102.063557 124.876508 
L 103.149358 121.285992 
L 104.23516 119.420503 
L 105.320961 116.655926 
L 106.406762 114.779448 
L 107.492563 113.327101 
L 108.578364 110.892899 
L 109.664165 108.733782 
L 110.749967 106.32259 
L 111.835768 104.705055 
L 112.921569 102.550745 
L 115.093171 99.862065 
L 116.178972 96.888686 
L 117.264773 94.268347 
L 118.350575 93.671817 
L 119.436376 91.136648 
L 120.522177 89.723451 
L 122.693779 86.270649 
L 123.77958 85.545678 
L 125.951183 82.278669 
L 127.036984 80.654265 
L 128.122785 79.578312 
L 129.208586 78.844068 
L 130.294387 78.265739 
L 132.46599 75.5932 
L 133.551791 74.895703 
L 136.809194 73.73458 
L 137.894995 73.310106 
L 138.980797 102.651713 
L 140.066598 105.72606 
L 141.152399 105.083853 
L 142.2382 102.95221 
L 143.324001 102.502666 
L 144.409802 102.869788 
L 145.495604 101.444915 
L 146.581405 101.312009 
L 147.667206 100.371366 
L 148.753007 99.724352 
L 149.838808 97.677878 
L 150.924609 97.326897 
L 152.01041 96.764709 
L 153.096212 95.982385 
L 154.182013 94.908493 
L 155.267814 94.617268 
L 156.353615 93.795794 
L 157.439416 92.196803 
L 158.525217 91.696432 
L 159.611019 90.964592 
L 160.69682 89.836095 
L 161.782621 90.028757 
L 162.868422 86.917663 
L 163.954223 87.90879 
L 165.040024 87.332865 
L 166.125825 87.167677 
L 167.211627 86.435837 
L 168.297428 85.26819 
L 170.46903 84.125612 
L 171.554831 84.06826 
L 172.640632 82.785565 
L 174.812235 81.748763 
L 175.898036 80.351364 
L 176.983837 80.83319 
L 178.069638 79.922425 
L 179.155439 79.807721 
L 180.24124 77.43774 
L 181.327042 78.171984 
L 182.412843 76.244679 
L 183.498644 75.856951 
L 184.584445 74.890895 
L 185.670246 75.492233 
L 186.756047 74.071824 
L 187.841849 73.587938 
L 188.92765 72.704647 
L 190.013451 71.619421 
L 191.099252 71.463506 
L 192.185053 70.708656 
L 193.270854 70.217558 
L 194.356656 69.506323 
L 195.442457 68.98775 
L 196.528258 68.659779 
L 197.614059 68.053976 
L 198.69986 66.698131 
L 199.785661 66.489328 
L 201.957264 65.753023 
L 203.043065 64.757089 
L 204.128866 65.167826 
L 205.214667 63.160502 
L 206.300468 64.034521 
L 207.386269 63.047859 
L 209.557872 61.62539 
L 210.643673 61.586582 
L 211.729474 61.235601 
L 212.815275 60.730766 
L 213.901076 60.59992 
L 214.986877 60.340634 
L 216.072679 60.246535 
L 218.244281 59.227935 
L 219.330082 59.487221 
L 220.415883 59.076484 
L 221.501684 59.287691 
L 222.587486 59.072019 
L 223.673287 60.076883 
L 224.759088 58.748512 
L 225.844889 86.094128 
L 226.93069 89.68224 
L 228.016491 89.776339 
L 229.102292 89.537658 
L 230.188094 88.615217 
L 231.273895 89.179809 
L 232.359696 88.140602 
L 233.445497 87.716128 
L 234.531298 88.011818 
L 235.617099 87.268644 
L 236.702901 86.270649 
L 237.788702 86.35994 
L 238.874503 86.126067 
L 239.960304 86.0251 
L 241.046105 85.465316 
L 242.131906 85.242776 
L 244.303509 84.329607 
L 245.38931 84.974217 
L 246.475111 84.244781 
L 247.560912 83.33848 
L 248.646713 84.075129 
L 249.732514 83.166424 
L 250.818316 83.285936 
L 251.904117 82.920875 
L 252.989918 82.374828 
L 254.075719 82.152288 
L 255.16152 82.62965 
L 256.247321 81.181767 
L 257.333123 81.842518 
L 258.418924 80.982237 
L 259.504725 80.817049 
L 260.590526 80.773434 
L 261.676327 79.76651 
L 262.762128 80.050866 
L 263.847929 79.2342 
L 264.933731 79.348904 
L 266.019532 80.032321 
L 267.105333 78.940571 
L 268.191134 79.01372 
L 269.276935 78.743101 
L 271.448538 77.43774 
L 272.534339 77.495092 
L 274.705941 76.765312 
L 276.877543 76.765312 
L 277.963344 76.48336 
L 280.134947 75.111374 
L 281.220748 75.629603 
L 282.306549 75.423205 
L 283.39235 74.831482 
L 284.478151 74.381594 
L 285.563953 74.172792 
L 286.649754 74.877158 
L 287.735555 73.402144 
L 289.907157 73.909041 
L 290.992958 72.569337 
L 292.07876 73.101303 
L 293.164561 72.507177 
L 295.336163 71.821356 
L 296.421964 71.974867 
L 297.507765 70.777341 
L 298.593566 70.681182 
L 299.679368 71.236158 
L 300.765169 70.47444 
L 301.85097 69.435234 
L 302.936771 70.00429 
L 304.022572 70.22683 
L 305.108373 69.510787 
L 306.194175 69.159806 
L 307.279976 68.96268 
L 308.365777 68.265182 
L 309.451578 68.990154 
L 310.537379 67.560816 
L 311.62318 67.94614 
L 313.794783 67.505868 
L 314.880584 66.276061 
L 315.966385 66.551145 
L 317.052186 66.668253 
L 318.137987 66.475591 
L 319.223788 65.787366 
L 320.30959 66.039784 
L 321.395391 65.018779 
L 322.481192 64.468268 
L 323.566993 64.830582 
L 324.652794 64.876601 
L 325.738595 63.990906 
L 326.824396 64.364896 
L 327.910198 63.297873 
L 330.0818 62.967497 
L 331.167601 62.306746 
L 332.253402 61.992512 
L 333.339203 62.343493 
L 334.425005 61.510685 
L 335.510806 62.19685 
L 337.682408 61.013061 
L 338.768209 60.570042 
L 339.85401 60.641131 
L 340.939811 59.787719 
L 342.025613 59.368052 
L 343.111414 59.686751 
L 344.197215 59.278418 
L 345.283016 61.882459 
L 347.454618 60.517365 
L 348.54042 60.248934 
L 349.626221 59.636362 
L 350.712022 59.714368 
L 351.797823 58.890722 
L 352.883624 58.619998 
L 353.969425 58.652118 
L 355.055227 57.752761 
L 356.141028 56.5345 
L 357.226829 56.660685 
L 358.31263 57.303083 
L 359.398431 55.635143 
L 360.484232 55.967814 
L 361.570033 55.12352 
L 363.741636 54.527008 
L 364.827437 54.811498 
L 365.913238 53.769896 
L 366.999039 53.568 
L 368.08484 54.765613 
L 369.170642 54.942272 
L 370.256443 55.573198 
L 371.342244 57.257197 
L 372.428045 58.193262 
L 374.599647 57.74129 
L 375.685448 57.619693 
L 376.77125 58.337802 
L 377.857051 57.461388 
L 378.942852 57.924832 
L 380.028653 58.252913 
L 381.114454 57.511862 
L 382.200255 57.530216 
L 383.286057 58.037251 
L 384.371858 57.826178 
L 385.457659 58.076254 
L 386.54346 57.273257 
L 387.629261 57.814706 
L 388.715062 57.284729 
L 389.800863 58.064783 
L 390.886665 58.012014 
L 391.972466 57.681638 
L 393.058267 57.791764 
L 394.144068 57.085126 
L 395.229869 58.085431 
L 396.31567 56.81899 
L 397.401472 56.89929 
L 398.487273 57.537099 
L 398.487273 57.537099 
" clip-path="url(#pc4d39f8bca)" style="fill: none; stroke: #1f77b4; stroke-width: 1.5; stroke-linecap: square"/>
   </g>
   <g id="line2d_20">
    <path d="M 73.832727 255.815118 
L 74.918528 224.838118 
L 76.00433 185.103763 
L 77.090131 175.419157 
L 79.261733 146.262314 
L 80.347534 136.165598 
L 81.433335 131.288953 
L 82.519137 127.78601 
L 83.604938 122.325542 
L 84.690739 114.048982 
L 85.77654 111.404604 
L 87.948142 102.235137 
L 89.033943 99.522074 
L 91.205546 95.091882 
L 92.291347 94.576744 
L 93.377148 92.893958 
L 94.462949 93.271726 
L 95.54875 128.129436 
L 96.634552 119.715506 
L 97.720353 119.337738 
L 98.806154 109.962216 
L 99.891955 112.228826 
L 100.977756 108.794568 
L 102.063557 103.814895 
L 103.149358 105.532024 
L 104.23516 105.085571 
L 105.320961 100.724064 
L 106.406762 98.423112 
L 107.492563 103.128044 
L 108.578364 94.164633 
L 109.664165 94.370688 
L 110.749967 93.683837 
L 111.835768 89.940496 
L 112.921569 88.601136 
L 114.00737 88.635479 
L 115.093171 85.44162 
L 116.178972 85.785045 
L 117.264773 84.445685 
L 118.350575 83.518436 
L 119.436376 81.423539 
L 120.522177 80.564974 
L 121.607978 79.466012 
L 122.693779 80.187206 
L 123.77958 78.092309 
L 124.865382 76.615579 
L 125.951183 75.619644 
L 127.036984 76.890319 
L 128.122785 73.284349 
L 129.208586 74.89845 
L 130.294387 73.112636 
L 131.380189 73.112636 
L 132.46599 73.456062 
L 133.551791 72.49447 
L 134.637592 72.3571 
L 135.723393 72.597498 
L 136.809194 72.082359 
L 137.894995 72.116702 
L 138.980797 97.73626 
L 140.066598 95.778734 
L 141.152399 93.374754 
L 142.2382 93.100013 
L 143.324001 93.615152 
L 144.409802 87.708229 
L 145.495604 93.718179 
L 146.581405 87.502174 
L 147.667206 92.275791 
L 148.753007 90.24958 
L 149.838808 90.970774 
L 150.924609 87.914285 
L 152.01041 87.090063 
L 153.096212 85.819388 
L 154.182013 85.098194 
L 155.267814 85.44162 
L 156.353615 84.789111 
L 157.439416 85.647675 
L 158.525217 84.995166 
L 159.611019 84.548713 
L 160.69682 81.595252 
L 161.782621 82.488158 
L 162.868422 80.942743 
L 163.954223 82.076048 
L 165.040024 83.003297 
L 166.125825 80.839715 
L 167.211627 83.278038 
L 168.297428 76.787292 
L 169.383229 77.199402 
L 170.46903 81.869992 
L 171.554831 80.084178 
L 172.640632 78.916531 
L 173.726434 81.04577 
L 174.812235 77.474143 
L 175.898036 78.573105 
L 176.983837 77.371115 
L 178.069638 75.379246 
L 179.155439 78.023624 
L 180.24124 74.486339 
L 181.327042 75.585302 
L 182.412843 73.627775 
L 183.498644 75.722672 
L 184.584445 72.563155 
L 185.670246 75.379246 
L 186.756047 73.490405 
L 187.841849 72.700525 
L 188.92765 73.112636 
L 190.013451 70.502601 
L 191.099252 72.906581 
L 192.185053 69.231926 
L 193.270854 70.468258 
L 194.356656 70.330888 
L 195.442457 68.476389 
L 196.528258 67.789538 
L 197.614059 68.476389 
L 198.69986 67.652167 
L 199.785661 66.518863 
L 200.871462 66.038067 
L 201.957264 65.28253 
L 203.043065 65.557271 
L 205.214667 65.110817 
L 207.386269 64.836077 
L 208.472071 64.320938 
L 209.557872 63.290661 
L 210.643673 63.01592 
L 211.729474 62.87855 
L 212.815275 63.290661 
L 213.901076 62.638152 
L 214.986877 62.123013 
L 216.072679 62.672495 
L 217.15848 62.260384 
L 218.244281 62.226041 
L 219.330082 61.573532 
L 221.501684 61.848273 
L 224.759088 61.81393 
L 225.844889 92.447504 
L 226.93069 86.78098 
L 228.016491 95.847419 
L 229.102292 83.724491 
L 230.188094 87.433489 
L 231.273895 87.776914 
L 232.359696 89.837469 
L 233.445497 89.700098 
L 235.617099 84.548713 
L 236.702901 87.021378 
L 237.788702 82.144733 
L 238.874503 81.217483 
L 239.960304 84.170944 
L 241.046105 84.067917 
L 242.131906 83.243695 
L 243.217708 84.720426 
L 244.303509 85.029509 
L 245.38931 81.286168 
L 246.475111 83.793176 
L 247.560912 83.415408 
L 248.646713 81.04577 
L 249.732514 80.358919 
L 251.904117 84.170944 
L 252.989918 79.088244 
L 254.075719 81.183141 
L 255.16152 78.64179 
L 256.247321 77.886254 
L 257.333123 82.488158 
L 258.418924 83.827519 
L 259.504725 82.282103 
L 260.590526 82.419473 
L 261.676327 78.36705 
L 262.762128 81.217483 
L 263.847929 82.144733 
L 264.933731 79.466012 
L 266.019532 81.595252 
L 267.105333 75.344904 
L 268.191134 78.195337 
L 269.276935 78.916531 
L 270.362736 83.106325 
L 271.448538 79.740753 
L 272.534339 77.268088 
L 273.62014 83.381065 
L 274.705941 76.890319 
L 275.791742 79.225614 
L 276.877543 80.118521 
L 277.963344 78.50442 
L 279.049146 79.191272 
L 280.134947 76.409523 
L 281.220748 79.294299 
L 282.306549 75.619644 
L 283.39235 77.371115 
L 284.478151 77.645856 
L 285.563953 75.619644 
L 286.649754 74.348969 
L 287.735555 77.405458 
L 288.821356 74.383312 
L 289.907157 78.023624 
L 290.992958 74.383312 
L 292.07876 73.112636 
L 293.164561 74.142914 
L 295.336163 75.447931 
L 296.421964 75.619644 
L 297.507765 73.971201 
L 298.593566 75.070163 
L 299.679368 74.314626 
L 300.765169 73.799488 
L 301.85097 75.03582 
L 302.936771 70.914712 
L 304.022572 71.807619 
L 305.108373 73.69646 
L 306.194175 73.250007 
L 307.279976 73.215664 
L 308.365777 73.421719 
L 309.451578 75.03582 
L 310.537379 71.086425 
L 311.62318 71.567221 
L 312.708981 70.742999 
L 313.794783 71.189452 
L 314.880584 70.846027 
L 315.966385 69.850092 
L 317.052186 68.510732 
L 318.137987 69.060213 
L 319.223788 70.09049 
L 320.30959 67.995593 
L 321.395391 67.068344 
L 322.481192 67.82388 
L 323.566993 68.304676 
L 324.652794 71.464193 
L 325.738595 69.163241 
L 326.824396 66.553205 
L 327.910198 71.017739 
L 328.995999 65.935039 
L 331.167601 69.369296 
L 332.253402 66.690575 
L 333.339203 65.935039 
L 334.425005 65.454243 
L 335.510806 67.54914 
L 336.596607 64.492651 
L 337.682408 65.763326 
L 338.768209 65.316873 
L 339.85401 65.660298 
L 340.939811 63.118948 
L 342.025613 63.428031 
L 343.111414 65.076475 
L 344.197215 65.213845 
L 345.283016 62.226041 
L 347.454618 62.74118 
L 348.54042 62.603809 
L 349.626221 60.131144 
L 350.712022 62.74118 
L 351.797823 61.573532 
L 352.883624 60.783653 
L 353.969425 60.47457 
L 355.055227 60.3372 
L 356.141028 60.371542 
L 357.226829 59.478635 
L 358.31263 59.306923 
L 359.398431 59.650348 
L 360.484232 60.371542 
L 362.655835 57.349396 
L 363.741636 60.062459 
L 364.827437 58.585729 
L 365.913238 59.032182 
L 366.999039 58.723099 
L 368.08484 58.173618 
L 369.170642 61.264449 
L 370.256443 60.955366 
L 371.342244 62.123013 
L 372.428045 61.436162 
L 373.513846 62.088671 
L 374.599647 60.749311 
L 375.685448 61.916958 
L 376.77125 61.230107 
L 377.857051 62.87855 
L 378.942852 63.084605 
L 380.028653 64.320938 
L 381.114454 62.123013 
L 382.200255 63.221976 
L 383.286057 61.710903 
L 384.371858 61.333134 
L 385.457659 62.260384 
L 386.54346 62.947235 
L 387.629261 63.428031 
L 388.715062 61.401819 
L 389.800863 64.664364 
L 390.886665 62.74118 
L 391.972466 64.526993 
L 395.229869 63.599744 
L 396.31567 64.389623 
L 397.401472 64.870419 
L 398.487273 63.737114 
L 398.487273 63.737114 
" clip-path="url(#pc4d39f8bca)" style="fill: none; stroke: #ff7f0e; stroke-width: 1.5; stroke-linecap: square"/>
   </g>
   <g id="line2d_21">
    <path d="M 73.832727 265.800564 
L 74.918528 242.115866 
L 76.00433 213.623551 
L 77.090131 203.770667 
L 78.175932 197.091724 
L 79.261733 184.657309 
L 80.347534 178.783699 
L 81.433335 168.030697 
L 82.519137 170.565178 
L 83.604938 165.61504 
L 84.690739 157.870103 
L 85.77654 153.985958 
L 86.862341 152.564863 
L 87.948142 147.259279 
L 89.033943 142.522408 
L 90.119745 139.064454 
L 91.205546 137.975108 
L 93.377148 136.482923 
L 94.462949 136.293352 
L 95.54875 171.370168 
L 96.634552 161.470235 
L 97.720353 161.730552 
L 98.806154 155.146394 
L 99.891955 153.109536 
L 100.977756 158.225205 
L 102.063557 151.285945 
L 103.149358 150.030381 
L 104.23516 150.456916 
L 105.320961 143.588401 
L 106.406762 144.79623 
L 107.492563 149.627886 
L 108.578364 141.243491 
L 109.664165 141.196098 
L 110.749967 138.543478 
L 111.835768 135.512059 
L 112.921569 136.956507 
L 114.00737 133.143452 
L 115.093171 130.064297 
L 116.178972 127.885604 
L 117.264773 130.467135 
L 118.350575 131.13029 
L 119.436376 126.488205 
L 120.522177 125.966884 
L 121.607978 123.953723 
L 122.693779 125.943188 
L 123.77958 121.869472 
L 124.865382 121.940561 
L 127.036984 119.122066 
L 128.122785 117.77206 
L 129.208586 117.77206 
L 130.294387 116.96707 
L 131.380189 117.061512 
L 132.46599 116.848588 
L 133.551791 116.753803 
L 135.723393 115.261618 
L 136.809194 115.072047 
L 137.894995 115.427493 
L 138.980797 147.401457 
L 141.152399 136.743583 
L 142.2382 139.325115 
L 143.324001 144.393735 
L 144.409802 132.953881 
L 146.581405 136.862065 
L 147.667206 139.254025 
L 148.753007 138.259465 
L 149.838808 135.085524 
L 150.924609 134.04357 
L 152.01041 134.872257 
L 153.096212 129.638105 
L 154.182013 129.614409 
L 155.267814 132.219636 
L 156.353615 128.785379 
L 157.439416 131.367254 
L 158.525217 131.627571 
L 159.611019 130.087993 
L 160.69682 127.080271 
L 161.782621 127.482766 
L 162.868422 125.090805 
L 163.954223 130.135386 
L 165.040024 127.696033 
L 166.125825 127.624944 
L 167.211627 128.951254 
L 168.297428 122.272311 
L 169.383229 121.395888 
L 170.46903 124.830145 
L 171.554831 128.785379 
L 172.640632 123.432746 
L 173.726434 126.251241 
L 174.812235 123.764495 
L 175.898036 125.872442 
L 176.983837 123.811888 
L 178.069638 126.795914 
L 179.155439 124.048508 
L 180.24124 120.614251 
L 181.327042 117.937935 
L 182.412843 117.819453 
L 183.498644 121.893169 
L 184.584445 117.179994 
L 185.670246 117.061512 
L 186.756047 116.090648 
L 187.841849 117.53544 
L 188.92765 117.108905 
L 190.013451 114.243361 
L 191.099252 115.261618 
L 192.185053 111.827361 
L 193.270854 113.295849 
L 194.356656 112.680087 
L 195.442457 111.661486 
L 196.528258 111.614093 
L 197.614059 108.842991 
L 198.69986 110.809104 
L 199.785661 109.672021 
L 200.871462 109.695717 
L 201.957264 108.014305 
L 203.043065 109.766807 
L 204.128866 108.724853 
L 205.214667 108.250925 
L 206.300468 108.203533 
L 207.386269 107.753645 
L 208.472071 107.516681 
L 209.557872 106.664299 
L 210.643673 104.366781 
L 211.729474 105.787876 
L 212.815275 104.864061 
L 213.901076 105.053632 
L 214.986877 104.366781 
L 216.072679 105.029936 
L 217.15848 102.945685 
L 218.244281 103.537751 
L 219.330082 103.182649 
L 220.415883 103.158952 
L 222.587486 103.419269 
L 223.673287 102.993078 
L 224.759088 103.419269 
L 225.844889 137.856626 
L 226.93069 134.777815 
L 228.016491 145.340903 
L 229.102292 125.990581 
L 230.188094 132.409207 
L 231.273895 132.977577 
L 232.359696 135.985643 
L 233.445497 134.374976 
L 234.531298 134.209102 
L 235.617099 130.86963 
L 236.702901 131.461696 
L 237.788702 125.990581 
L 238.874503 127.672337 
L 239.960304 130.206475 
L 241.046105 131.674963 
L 242.131906 129.022343 
L 243.217708 132.267029 
L 244.303509 134.943346 
L 245.38931 125.232984 
L 246.475111 135.417273 
L 247.560912 131.367254 
L 249.732514 125.635479 
L 250.818316 129.259307 
L 251.904117 129.993551 
L 252.989918 126.32233 
L 254.075719 127.64864 
L 255.16152 123.172429 
L 256.247321 122.106436 
L 257.333123 130.467135 
L 258.418924 128.098528 
L 259.504725 129.614409 
L 260.590526 130.064297 
L 261.676327 124.380258 
L 262.762128 125.232984 
L 263.847929 124.546132 
L 264.933731 129.472231 
L 266.019532 128.690594 
L 267.105333 120.282845 
L 268.191134 125.516997 
L 269.276935 126.938092 
L 270.362736 131.556481 
L 271.448538 120.827519 
L 272.534339 119.951096 
L 273.62014 129.709195 
L 274.705941 123.456442 
L 275.791742 121.25371 
L 276.877543 127.459069 
L 277.963344 123.148733 
L 279.049146 126.369723 
L 280.134947 122.08274 
L 281.220748 124.877538 
L 282.306549 119.951096 
L 283.39235 119.9274 
L 284.478151 121.940561 
L 285.563953 117.20369 
L 286.649754 117.677618 
L 287.735555 121.656548 
L 288.821356 117.819453 
L 289.907157 122.911769 
L 290.992958 117.416958 
L 292.07876 122.248614 
L 293.164561 119.880007 
L 294.250362 119.453816 
L 295.336163 121.609156 
L 296.421964 120.045882 
L 298.593566 122.627413 
L 299.679368 119.453816 
L 300.765169 117.511743 
L 301.85097 118.695875 
L 302.936771 116.659017 
L 304.022572 113.532813 
L 305.108373 118.245987 
L 306.194175 119.595994 
L 307.279976 115.427493 
L 308.365777 116.990766 
L 309.451578 120.164364 
L 310.537379 115.735202 
L 311.62318 116.587928 
L 313.794783 113.438027 
L 314.880584 113.414331 
L 315.966385 116.587928 
L 317.052186 111.969539 
L 318.137987 111.779968 
L 319.223788 113.106278 
L 320.30959 112.751176 
L 321.395391 111.33008 
L 322.481192 116.232826 
L 323.566993 111.140509 
L 324.652794 112.9641 
L 325.738595 109.458754 
L 326.824396 109.008866 
L 327.910198 114.622159 
L 328.995999 106.948312 
L 331.167601 111.022028 
L 332.253402 109.814199 
L 333.339203 106.142978 
L 334.425005 108.393104 
L 335.510806 110.974635 
L 336.596607 106.308853 
L 337.682408 109.388008 
L 338.768209 106.972008 
L 339.85401 107.682556 
L 340.939811 106.190371 
L 342.025613 106.379942 
L 343.111414 104.864061 
L 344.197215 106.82983 
L 345.283016 104.887805 
L 346.368817 103.845685 
L 347.454618 106.1194 
L 348.54042 104.816751 
L 349.626221 102.471982 
L 350.712022 104.60359 
L 351.797823 105.148335 
L 352.883624 104.058846 
L 353.969425 103.277257 
L 355.055227 101.050911 
L 356.141028 105.408864 
L 357.226829 102.850935 
L 358.31263 103.443048 
L 359.398431 100.05616 
L 360.484232 101.950923 
L 361.570033 99.558785 
L 362.655835 102.495667 
L 363.741636 103.774632 
L 364.827437 103.561471 
L 365.913238 98.777195 
L 366.999039 100.103529 
L 368.08484 102.637774 
L 369.170642 103.371995 
L 370.256443 102.09303 
L 371.342244 103.443048 
L 372.428045 105.006227 
L 373.513846 103.750947 
L 374.599647 103.514102 
L 375.685448 109.127336 
L 376.77125 106.308877 
L 377.857051 105.266757 
L 378.942852 103.443048 
L 380.028653 106.356246 
L 381.114454 106.095716 
L 383.286057 105.787817 
L 384.371858 103.466733 
L 385.457659 105.977293 
L 386.54346 106.522037 
L 387.629261 106.237823 
L 388.715062 104.437799 
L 389.800863 108.701014 
L 390.886665 105.527287 
L 391.972466 109.008913 
L 393.058267 106.1194 
L 394.144068 106.522037 
L 395.229869 105.527287 
L 396.31567 106.332561 
L 397.401472 109.577342 
L 398.487273 107.066782 
L 398.487273 107.066782 
" clip-path="url(#pc4d39f8bca)" style="fill: none; stroke: #2ca02c; stroke-width: 1.5; stroke-linecap: square"/>
   </g>
   <g id="line2d_22">
    <path d="M 368.08484 57.246368 
L 369.170642 58.997839 
L 371.342244 59.512978 
L 372.428045 61.024051 
L 373.513846 59.993774 
L 374.599647 60.234172 
L 375.685448 58.242303 
L 376.77125 59.822061 
L 377.857051 60.371542 
L 378.942852 60.714968 
L 380.028653 60.61194 
L 381.114454 59.341265 
L 382.200255 59.650348 
L 383.286057 57.967562 
L 384.371858 60.234172 
L 385.457659 60.47457 
L 386.54346 58.139275 
L 387.629261 59.616006 
L 388.715062 59.547321 
L 389.800863 60.749311 
L 390.886665 59.375608 
L 391.972466 60.577598 
L 393.058267 59.684691 
L 394.144068 62.500782 
L 395.229869 60.886681 
L 396.31567 60.577598 
L 397.401472 61.161421 
L 398.487273 60.405885 
L 398.487273 60.405885 
" clip-path="url(#pc4d39f8bca)" style="fill: none; stroke: #d62728; stroke-width: 1.5; stroke-linecap: square"/>
   </g>
   <g id="line2d_23">
    <path d="M 368.08484 100.553535 
L 369.170642 100.57722 
L 370.256443 101.714077 
L 371.342244 103.395679 
L 372.428045 104.224638 
L 373.513846 103.277257 
L 374.599647 102.566721 
L 375.685448 100.57722 
L 376.77125 100.008791 
L 377.857051 104.745698 
L 378.942852 103.679894 
L 380.028653 100.695643 
L 381.114454 102.685143 
L 382.200255 101.406179 
L 383.286057 101.09828 
L 384.371858 103.632525 
L 385.457659 101.856185 
L 386.54346 101.027226 
L 387.629261 100.695643 
L 388.715062 103.443048 
L 389.800863 101.074595 
L 390.886665 102.708828 
L 391.972466 101.690393 
L 393.058267 104.106215 
L 394.144068 103.750947 
L 395.229869 103.135149 
L 396.31567 103.916739 
L 397.401472 101.950923 
L 398.487273 104.058846 
L 398.487273 104.058846 
" clip-path="url(#pc4d39f8bca)" style="fill: none; stroke: #9467bd; stroke-width: 1.5; stroke-linecap: square"/>
   </g>
   <g id="patch_3">
    <path d="M 57.6 307.584 
L 57.6 41.472 
" style="fill: none; stroke: #000000; stroke-width: 0.8; stroke-linejoin: miter; stroke-linecap: square"/>
   </g>
   <g id="patch_4">
    <path d="M 414.72 307.584 
L 414.72 41.472 
" style="fill: none; stroke: #000000; stroke-width: 0.8; stroke-linejoin: miter; stroke-linecap: square"/>
   </g>
   <g id="patch_5">
    <path d="M 57.6 307.584 
L 414.72 307.584 
" style="fill: none; stroke: #000000; stroke-width: 0.8; stroke-linejoin: miter; stroke-linecap: square"/>
   </g>
   <g id="patch_6">
    <path d="M 57.6 41.472 
L 414.72 41.472 
" style="fill: none; stroke: #000000; stroke-width: 0.8; stroke-linejoin: miter; stroke-linecap: square"/>
   </g>
   <g id="text_21">
    <!-- Learning Curves -->
    <g transform="translate(187.37625 35.472) scale(0.12 -0.12)">
     <defs>
      <path id="DejaVuSans-4c" d="M 628 4666 
L 1259 4666 
L 1259 531 
L 3531 531 
L 3531 0 
L 628 0 
L 628 4666 
z
" transform="scale(0.015625)"/>
      <path id="DejaVuSans-65" d="M 3597 1894 
L 3597 1613 
L 953 1613 
Q 991 1019 1311 708 
Q 1631 397 2203 397 
Q 2534 397 2845 478 
Q 3156 559 3463 722 
L 3463 178 
Q 3153 47 2828 -22 
Q 2503 -91 2169 -91 
Q 1331 -91 842 396 
Q 353 884 353 1716 
Q 353 2575 817 3079 
Q 1281 3584 2069 3584 
Q 2775 3584 3186 3129 
Q 3597 2675 3597 1894 
z
M 3022 2063 
Q 3016 2534 2758 2815 
Q 2500 3097 2075 3097 
Q 1594 3097 1305 2825 
Q 1016 2553 972 2059 
L 3022 2063 
z
" transform="scale(0.015625)"/>
      <path id="DejaVuSans-6e" d="M 3513 2113 
L 3513 0 
L 2938 0 
L 2938 2094 
Q 2938 2591 2744 2837 
Q 2550 3084 2163 3084 
Q 1697 3084 1428 2787 
Q 1159 2491 1159 1978 
L 1159 0 
L 581 0 
L 581 3500 
L 1159 3500 
L 1159 2956 
Q 1366 3272 1645 3428 
Q 1925 3584 2291 3584 
Q 2894 3584 3203 3211 
Q 3513 2838 3513 2113 
z
" transform="scale(0.015625)"/>
      <path id="DejaVuSans-69" d="M 603 3500 
L 1178 3500 
L 1178 0 
L 603 0 
L 603 3500 
z
M 603 4863 
L 1178 4863 
L 1178 4134 
L 603 4134 
L 603 4863 
z
" transform="scale(0.015625)"/>
      <path id="DejaVuSans-67" d="M 2906 1791 
Q 2906 2416 2648 2759 
Q 2391 3103 1925 3103 
Q 1463 3103 1205 2759 
Q 947 2416 947 1791 
Q 947 1169 1205 825 
Q 1463 481 1925 481 
Q 2391 481 2648 825 
Q 2906 1169 2906 1791 
z
M 3481 434 
Q 3481 -459 3084 -895 
Q 2688 -1331 1869 -1331 
Q 1566 -1331 1297 -1286 
Q 1028 -1241 775 -1147 
L 775 -588 
Q 1028 -725 1275 -790 
Q 1522 -856 1778 -856 
Q 2344 -856 2625 -561 
Q 2906 -266 2906 331 
L 2906 616 
Q 2728 306 2450 153 
Q 2172 0 1784 0 
Q 1141 0 747 490 
Q 353 981 353 1791 
Q 353 2603 747 3093 
Q 1141 3584 1784 3584 
Q 2172 3584 2450 3431 
Q 2728 3278 2906 2969 
L 2906 3500 
L 3481 3500 
L 3481 434 
z
" transform="scale(0.015625)"/>
      <path id="DejaVuSans-20" transform="scale(0.015625)"/>
      <path id="DejaVuSans-43" d="M 4122 4306 
L 4122 3641 
Q 3803 3938 3442 4084 
Q 3081 4231 2675 4231 
Q 1875 4231 1450 3742 
Q 1025 3253 1025 2328 
Q 1025 1406 1450 917 
Q 1875 428 2675 428 
Q 3081 428 3442 575 
Q 3803 722 4122 1019 
L 4122 359 
Q 3791 134 3420 21 
Q 3050 -91 2638 -91 
Q 1578 -91 968 557 
Q 359 1206 359 2328 
Q 359 3453 968 4101 
Q 1578 4750 2638 4750 
Q 3056 4750 3426 4639 
Q 3797 4528 4122 4306 
z
" transform="scale(0.015625)"/>
      <path id="DejaVuSans-76" d="M 191 3500 
L 800 3500 
L 1894 563 
L 2988 3500 
L 3597 3500 
L 2284 0 
L 1503 0 
L 191 3500 
z
" transform="scale(0.015625)"/>
     </defs>
     <use xlink:href="#DejaVuSans-4c"/>
     <use xlink:href="#DejaVuSans-65" x="53.962891"/>
     <use xlink:href="#DejaVuSans-61" x="115.486328"/>
     <use xlink:href="#DejaVuSans-72" x="176.765625"/>
     <use xlink:href="#DejaVuSans-6e" x="216.128906"/>
     <use xlink:href="#DejaVuSans-69" x="279.507812"/>
     <use xlink:href="#DejaVuSans-6e" x="307.291016"/>
     <use xlink:href="#DejaVuSans-67" x="370.669922"/>
     <use xlink:href="#DejaVuSans-20" x="434.146484"/>
     <use xlink:href="#DejaVuSans-43" x="465.933594"/>
     <use xlink:href="#DejaVuSans-75" x="535.757812"/>
     <use xlink:href="#DejaVuSans-72" x="599.136719"/>
     <use xlink:href="#DejaVuSans-76" x="640.25"/>
     <use xlink:href="#DejaVuSans-65" x="699.429688"/>
     <use xlink:href="#DejaVuSans-73" x="760.953125"/>
    </g>
   </g>
   <g id="legend_1">
    <g id="patch_7">
     <path d="M 214.18875 302.584 
L 407.72 302.584 
Q 409.72 302.584 409.72 300.584 
L 409.72 228.193375 
Q 409.72 226.193375 407.72 226.193375 
L 214.18875 226.193375 
Q 212.18875 226.193375 212.18875 228.193375 
L 212.18875 300.584 
Q 212.18875 302.584 214.18875 302.584 
z
" style="fill: #ffffff; opacity: 0.8; stroke: #cccccc; stroke-linejoin: miter"/>
    </g>
    <g id="line2d_24">
     <path d="M 216.18875 234.291812 
L 226.18875 234.291812 
L 236.18875 234.291812 
" style="fill: none; stroke: #1f77b4; stroke-width: 1.5; stroke-linecap: square"/>
    </g>
    <g id="text_22">
     <!-- Train Accuracy -->
     <g transform="translate(244.18875 237.791812) scale(0.1 -0.1)">
      <defs>
       <path id="DejaVuSans-54" d="M -19 4666 
L 3928 4666 
L 3928 4134 
L 2272 4134 
L 2272 0 
L 1638 0 
L 1638 4134 
L -19 4134 
L -19 4666 
z
" transform="scale(0.015625)"/>
      </defs>
      <use xlink:href="#DejaVuSans-54"/>
      <use xlink:href="#DejaVuSans-72" x="46.333984"/>
      <use xlink:href="#DejaVuSans-61" x="87.447266"/>
      <use xlink:href="#DejaVuSans-69" x="148.726562"/>
      <use xlink:href="#DejaVuSans-6e" x="176.509766"/>
      <use xlink:href="#DejaVuSans-20" x="239.888672"/>
      <use xlink:href="#DejaVuSans-41" x="271.675781"/>
      <use xlink:href="#DejaVuSans-63" x="338.333984"/>
      <use xlink:href="#DejaVuSans-63" x="393.314453"/>
      <use xlink:href="#DejaVuSans-75" x="448.294922"/>
      <use xlink:href="#DejaVuSans-72" x="511.673828"/>
      <use xlink:href="#DejaVuSans-61" x="552.787109"/>
      <use xlink:href="#DejaVuSans-63" x="614.066406"/>
      <use xlink:href="#DejaVuSans-79" x="669.046875"/>
     </g>
    </g>
    <g id="line2d_25">
     <path d="M 216.18875 248.969937 
L 226.18875 248.969937 
L 236.18875 248.969937 
" style="fill: none; stroke: #ff7f0e; stroke-width: 1.5; stroke-linecap: square"/>
    </g>
    <g id="text_23">
     <!-- Validation Accuracy -->
     <g transform="translate(244.18875 252.469937) scale(0.1 -0.1)">
      <defs>
       <path id="DejaVuSans-56" d="M 1831 0 
L 50 4666 
L 709 4666 
L 2188 738 
L 3669 4666 
L 4325 4666 
L 2547 0 
L 1831 0 
z
" transform="scale(0.015625)"/>
       <path id="DejaVuSans-6c" d="M 603 4863 
L 1178 4863 
L 1178 0 
L 603 0 
L 603 4863 
z
" transform="scale(0.015625)"/>
       <path id="DejaVuSans-64" d="M 2906 2969 
L 2906 4863 
L 3481 4863 
L 3481 0 
L 2906 0 
L 2906 525 
Q 2725 213 2448 61 
Q 2172 -91 1784 -91 
Q 1150 -91 751 415 
Q 353 922 353 1747 
Q 353 2572 751 3078 
Q 1150 3584 1784 3584 
Q 2172 3584 2448 3432 
Q 2725 3281 2906 2969 
z
M 947 1747 
Q 947 1113 1208 752 
Q 1469 391 1925 391 
Q 2381 391 2643 752 
Q 2906 1113 2906 1747 
Q 2906 2381 2643 2742 
Q 2381 3103 1925 3103 
Q 1469 3103 1208 2742 
Q 947 2381 947 1747 
z
" transform="scale(0.015625)"/>
       <path id="DejaVuSans-74" d="M 1172 4494 
L 1172 3500 
L 2356 3500 
L 2356 3053 
L 1172 3053 
L 1172 1153 
Q 1172 725 1289 603 
Q 1406 481 1766 481 
L 2356 481 
L 2356 0 
L 1766 0 
Q 1100 0 847 248 
Q 594 497 594 1153 
L 594 3053 
L 172 3053 
L 172 3500 
L 594 3500 
L 594 4494 
L 1172 4494 
z
" transform="scale(0.015625)"/>
      </defs>
      <use xlink:href="#DejaVuSans-56"/>
      <use xlink:href="#DejaVuSans-61" x="60.658203"/>
      <use xlink:href="#DejaVuSans-6c" x="121.9375"/>
      <use xlink:href="#DejaVuSans-69" x="149.720703"/>
      <use xlink:href="#DejaVuSans-64" x="177.503906"/>
      <use xlink:href="#DejaVuSans-61" x="240.980469"/>
      <use xlink:href="#DejaVuSans-74" x="302.259766"/>
      <use xlink:href="#DejaVuSans-69" x="341.46875"/>
      <use xlink:href="#DejaVuSans-6f" x="369.251953"/>
      <use xlink:href="#DejaVuSans-6e" x="430.433594"/>
      <use xlink:href="#DejaVuSans-20" x="493.8125"/>
      <use xlink:href="#DejaVuSans-41" x="525.599609"/>
      <use xlink:href="#DejaVuSans-63" x="592.257812"/>
      <use xlink:href="#DejaVuSans-63" x="647.238281"/>
      <use xlink:href="#DejaVuSans-75" x="702.21875"/>
      <use xlink:href="#DejaVuSans-72" x="765.597656"/>
      <use xlink:href="#DejaVuSans-61" x="806.710938"/>
      <use xlink:href="#DejaVuSans-63" x="867.990234"/>
      <use xlink:href="#DejaVuSans-79" x="922.970703"/>
     </g>
    </g>
    <g id="line2d_26">
     <path d="M 216.18875 263.648062 
L 226.18875 263.648062 
L 236.18875 263.648062 
" style="fill: none; stroke: #2ca02c; stroke-width: 1.5; stroke-linecap: square"/>
    </g>
    <g id="text_24">
     <!-- Robust Validation Accuracy -->
     <g transform="translate(244.18875 267.148062) scale(0.1 -0.1)">
      <defs>
       <path id="DejaVuSans-52" d="M 2841 2188 
Q 3044 2119 3236 1894 
Q 3428 1669 3622 1275 
L 4263 0 
L 3584 0 
L 2988 1197 
Q 2756 1666 2539 1819 
Q 2322 1972 1947 1972 
L 1259 1972 
L 1259 0 
L 628 0 
L 628 4666 
L 2053 4666 
Q 2853 4666 3247 4331 
Q 3641 3997 3641 3322 
Q 3641 2881 3436 2590 
Q 3231 2300 2841 2188 
z
M 1259 4147 
L 1259 2491 
L 2053 2491 
Q 2509 2491 2742 2702 
Q 2975 2913 2975 3322 
Q 2975 3731 2742 3939 
Q 2509 4147 2053 4147 
L 1259 4147 
z
" transform="scale(0.015625)"/>
       <path id="DejaVuSans-62" d="M 3116 1747 
Q 3116 2381 2855 2742 
Q 2594 3103 2138 3103 
Q 1681 3103 1420 2742 
Q 1159 2381 1159 1747 
Q 1159 1113 1420 752 
Q 1681 391 2138 391 
Q 2594 391 2855 752 
Q 3116 1113 3116 1747 
z
M 1159 2969 
Q 1341 3281 1617 3432 
Q 1894 3584 2278 3584 
Q 2916 3584 3314 3078 
Q 3713 2572 3713 1747 
Q 3713 922 3314 415 
Q 2916 -91 2278 -91 
Q 1894 -91 1617 61 
Q 1341 213 1159 525 
L 1159 0 
L 581 0 
L 581 4863 
L 1159 4863 
L 1159 2969 
z
" transform="scale(0.015625)"/>
      </defs>
      <use xlink:href="#DejaVuSans-52"/>
      <use xlink:href="#DejaVuSans-6f" x="64.982422"/>
      <use xlink:href="#DejaVuSans-62" x="126.164062"/>
      <use xlink:href="#DejaVuSans-75" x="189.640625"/>
      <use xlink:href="#DejaVuSans-73" x="253.019531"/>
      <use xlink:href="#DejaVuSans-74" x="305.119141"/>
      <use xlink:href="#DejaVuSans-20" x="344.328125"/>
      <use xlink:href="#DejaVuSans-56" x="376.115234"/>
      <use xlink:href="#DejaVuSans-61" x="436.773438"/>
      <use xlink:href="#DejaVuSans-6c" x="498.052734"/>
      <use xlink:href="#DejaVuSans-69" x="525.835938"/>
      <use xlink:href="#DejaVuSans-64" x="553.619141"/>
      <use xlink:href="#DejaVuSans-61" x="617.095703"/>
      <use xlink:href="#DejaVuSans-74" x="678.375"/>
      <use xlink:href="#DejaVuSans-69" x="717.583984"/>
      <use xlink:href="#DejaVuSans-6f" x="745.367188"/>
      <use xlink:href="#DejaVuSans-6e" x="806.548828"/>
      <use xlink:href="#DejaVuSans-20" x="869.927734"/>
      <use xlink:href="#DejaVuSans-41" x="901.714844"/>
      <use xlink:href="#DejaVuSans-63" x="968.373047"/>
      <use xlink:href="#DejaVuSans-63" x="1023.353516"/>
      <use xlink:href="#DejaVuSans-75" x="1078.333984"/>
      <use xlink:href="#DejaVuSans-72" x="1141.712891"/>
      <use xlink:href="#DejaVuSans-61" x="1182.826172"/>
      <use xlink:href="#DejaVuSans-63" x="1244.105469"/>
      <use xlink:href="#DejaVuSans-79" x="1299.085938"/>
     </g>
    </g>
    <g id="line2d_27">
     <path d="M 216.18875 278.326188 
L 226.18875 278.326188 
L 236.18875 278.326188 
" style="fill: none; stroke: #d62728; stroke-width: 1.5; stroke-linecap: square"/>
    </g>
    <g id="text_25">
     <!-- SWA Validation Accuracy -->
     <g transform="translate(244.18875 281.826188) scale(0.1 -0.1)">
      <defs>
       <path id="DejaVuSans-53" d="M 3425 4513 
L 3425 3897 
Q 3066 4069 2747 4153 
Q 2428 4238 2131 4238 
Q 1616 4238 1336 4038 
Q 1056 3838 1056 3469 
Q 1056 3159 1242 3001 
Q 1428 2844 1947 2747 
L 2328 2669 
Q 3034 2534 3370 2195 
Q 3706 1856 3706 1288 
Q 3706 609 3251 259 
Q 2797 -91 1919 -91 
Q 1588 -91 1214 -16 
Q 841 59 441 206 
L 441 856 
Q 825 641 1194 531 
Q 1563 422 1919 422 
Q 2459 422 2753 634 
Q 3047 847 3047 1241 
Q 3047 1584 2836 1778 
Q 2625 1972 2144 2069 
L 1759 2144 
Q 1053 2284 737 2584 
Q 422 2884 422 3419 
Q 422 4038 858 4394 
Q 1294 4750 2059 4750 
Q 2388 4750 2728 4690 
Q 3069 4631 3425 4513 
z
" transform="scale(0.015625)"/>
       <path id="DejaVuSans-57" d="M 213 4666 
L 850 4666 
L 1831 722 
L 2809 4666 
L 3519 4666 
L 4500 722 
L 5478 4666 
L 6119 4666 
L 4947 0 
L 4153 0 
L 3169 4050 
L 2175 0 
L 1381 0 
L 213 4666 
z
" transform="scale(0.015625)"/>
      </defs>
      <use xlink:href="#DejaVuSans-53"/>
      <use xlink:href="#DejaVuSans-57" x="63.476562"/>
      <use xlink:href="#DejaVuSans-41" x="156.853516"/>
      <use xlink:href="#DejaVuSans-20" x="225.261719"/>
      <use xlink:href="#DejaVuSans-56" x="257.048828"/>
      <use xlink:href="#DejaVuSans-61" x="317.707031"/>
      <use xlink:href="#DejaVuSans-6c" x="378.986328"/>
      <use xlink:href="#DejaVuSans-69" x="406.769531"/>
      <use xlink:href="#DejaVuSans-64" x="434.552734"/>
      <use xlink:href="#DejaVuSans-61" x="498.029297"/>
      <use xlink:href="#DejaVuSans-74" x="559.308594"/>
      <use xlink:href="#DejaVuSans-69" x="598.517578"/>
      <use xlink:href="#DejaVuSans-6f" x="626.300781"/>
      <use xlink:href="#DejaVuSans-6e" x="687.482422"/>
      <use xlink:href="#DejaVuSans-20" x="750.861328"/>
      <use xlink:href="#DejaVuSans-41" x="782.648438"/>
      <use xlink:href="#DejaVuSans-63" x="849.306641"/>
      <use xlink:href="#DejaVuSans-63" x="904.287109"/>
      <use xlink:href="#DejaVuSans-75" x="959.267578"/>
      <use xlink:href="#DejaVuSans-72" x="1022.646484"/>
      <use xlink:href="#DejaVuSans-61" x="1063.759766"/>
      <use xlink:href="#DejaVuSans-63" x="1125.039062"/>
      <use xlink:href="#DejaVuSans-79" x="1180.019531"/>
     </g>
    </g>
    <g id="line2d_28">
     <path d="M 216.18875 293.004312 
L 226.18875 293.004312 
L 236.18875 293.004312 
" style="fill: none; stroke: #9467bd; stroke-width: 1.5; stroke-linecap: square"/>
    </g>
    <g id="text_26">
     <!-- SWA Robust Validation Accuracy -->
     <g transform="translate(244.18875 296.504312) scale(0.1 -0.1)">
      <use xlink:href="#DejaVuSans-53"/>
      <use xlink:href="#DejaVuSans-57" x="63.476562"/>
      <use xlink:href="#DejaVuSans-41" x="156.853516"/>
      <use xlink:href="#DejaVuSans-20" x="225.261719"/>
      <use xlink:href="#DejaVuSans-52" x="257.048828"/>
      <use xlink:href="#DejaVuSans-6f" x="322.03125"/>
      <use xlink:href="#DejaVuSans-62" x="383.212891"/>
      <use xlink:href="#DejaVuSans-75" x="446.689453"/>
      <use xlink:href="#DejaVuSans-73" x="510.068359"/>
      <use xlink:href="#DejaVuSans-74" x="562.167969"/>
      <use xlink:href="#DejaVuSans-20" x="601.376953"/>
      <use xlink:href="#DejaVuSans-56" x="633.164062"/>
      <use xlink:href="#DejaVuSans-61" x="693.822266"/>
      <use xlink:href="#DejaVuSans-6c" x="755.101562"/>
      <use xlink:href="#DejaVuSans-69" x="782.884766"/>
      <use xlink:href="#DejaVuSans-64" x="810.667969"/>
      <use xlink:href="#DejaVuSans-61" x="874.144531"/>
      <use xlink:href="#DejaVuSans-74" x="935.423828"/>
      <use xlink:href="#DejaVuSans-69" x="974.632812"/>
      <use xlink:href="#DejaVuSans-6f" x="1002.416016"/>
      <use xlink:href="#DejaVuSans-6e" x="1063.597656"/>
      <use xlink:href="#DejaVuSans-20" x="1126.976562"/>
      <use xlink:href="#DejaVuSans-41" x="1158.763672"/>
      <use xlink:href="#DejaVuSans-63" x="1225.421875"/>
      <use xlink:href="#DejaVuSans-63" x="1280.402344"/>
      <use xlink:href="#DejaVuSans-75" x="1335.382812"/>
      <use xlink:href="#DejaVuSans-72" x="1398.761719"/>
      <use xlink:href="#DejaVuSans-61" x="1439.875"/>
      <use xlink:href="#DejaVuSans-63" x="1501.154297"/>
      <use xlink:href="#DejaVuSans-79" x="1556.134766"/>
     </g>
    </g>
   </g>
  </g>
 </g>
 <defs>
  <clipPath id="pc4d39f8bca">
   <rect x="57.6" y="41.472" width="357.12" height="266.112"/>
  </clipPath>
 </defs>
</svg>
