<?xml version="1.0" encoding="utf-8" standalone="no"?>
<!DOCTYPE svg PUBLIC "-//W3C//DTD SVG 1.1//EN"
  "http://www.w3.org/Graphics/SVG/1.1/DTD/svg11.dtd">
<svg xmlns:xlink="http://www.w3.org/1999/xlink" width="460.8pt" height="345.6pt" viewBox="0 0 460.8 345.6" xmlns="http://www.w3.org/2000/svg" version="1.1">
 <metadata>
  <rdf:RDF xmlns:dc="http://purl.org/dc/elements/1.1/" xmlns:cc="http://creativecommons.org/ns#" xmlns:rdf="http://www.w3.org/1999/02/22-rdf-syntax-ns#">
   <cc:Work>
    <dc:type rdf:resource="http://purl.org/dc/dcmitype/StillImage"/>
    <dc:date>2025-01-14T18:54:31.968913</dc:date>
    <dc:format>image/svg+xml</dc:format>
    <dc:creator>
     <cc:Agent>
      <dc:title>Matplotlib v3.9.1, https://matplotlib.org/</dc:title>
     </cc:Agent>
    </dc:creator>
   </cc:Work>
  </rdf:RDF>
 </metadata>
 <defs>
  <style type="text/css">*{stroke-linejoin: round; stroke-linecap: butt}</style>
 </defs>
 <g id="figure_1">
  <g id="patch_1">
   <path d="M 0 345.6 
L 460.8 345.6 
L 460.8 0 
L 0 0 
z
" style="fill: #ffffff"/>
  </g>
  <g id="axes_1">
   <g id="patch_2">
    <path d="M 57.6 307.584 
L 414.72 307.584 
L 414.72 41.472 
L 57.6 41.472 
z
" style="fill: #ffffff"/>
   </g>
   <g id="matplotlib.axis_1">
    <g id="xtick_1">
     <g id="line2d_1">
      <defs>
       <path id="mb812b5a7cb" d="M 0 0 
L 0 3.5 
" style="stroke: #000000; stroke-width: 0.8"/>
      </defs>
      <g>
       <use xlink:href="#mb812b5a7cb" x="73.832727" y="307.584" style="stroke: #000000; stroke-width: 0.8"/>
      </g>
     </g>
     <g id="text_1">
      <!-- 1 -->
      <g transform="translate(70.651477 322.182437) scale(0.1 -0.1)">
       <defs>
        <path id="DejaVuSans-31" d="M 794 531 
L 1825 531 
L 1825 4091 
L 703 3866 
L 703 4441 
L 1819 4666 
L 2450 4666 
L 2450 531 
L 3481 531 
L 3481 0 
L 794 0 
L 794 531 
z
" transform="scale(0.015625)"/>
       </defs>
       <use xlink:href="#DejaVuSans-31"/>
      </g>
     </g>
    </g>
    <g id="xtick_2">
     <g id="line2d_2">
      <g>
       <use xlink:href="#mb812b5a7cb" x="109.664165" y="307.584" style="stroke: #000000; stroke-width: 0.8"/>
      </g>
     </g>
     <g id="text_2">
      <!-- 34 -->
      <g transform="translate(103.301665 322.182437) scale(0.1 -0.1)">
       <defs>
        <path id="DejaVuSans-33" d="M 2597 2516 
Q 3050 2419 3304 2112 
Q 3559 1806 3559 1356 
Q 3559 666 3084 287 
Q 2609 -91 1734 -91 
Q 1441 -91 1130 -33 
Q 819 25 488 141 
L 488 750 
Q 750 597 1062 519 
Q 1375 441 1716 441 
Q 2309 441 2620 675 
Q 2931 909 2931 1356 
Q 2931 1769 2642 2001 
Q 2353 2234 1838 2234 
L 1294 2234 
L 1294 2753 
L 1863 2753 
Q 2328 2753 2575 2939 
Q 2822 3125 2822 3475 
Q 2822 3834 2567 4026 
Q 2313 4219 1838 4219 
Q 1578 4219 1281 4162 
Q 984 4106 628 3988 
L 628 4550 
Q 988 4650 1302 4700 
Q 1616 4750 1894 4750 
Q 2613 4750 3031 4423 
Q 3450 4097 3450 3541 
Q 3450 3153 3228 2886 
Q 3006 2619 2597 2516 
z
" transform="scale(0.015625)"/>
        <path id="DejaVuSans-34" d="M 2419 4116 
L 825 1625 
L 2419 1625 
L 2419 4116 
z
M 2253 4666 
L 3047 4666 
L 3047 1625 
L 3713 1625 
L 3713 1100 
L 3047 1100 
L 3047 0 
L 2419 0 
L 2419 1100 
L 313 1100 
L 313 1709 
L 2253 4666 
z
" transform="scale(0.015625)"/>
       </defs>
       <use xlink:href="#DejaVuSans-33"/>
       <use xlink:href="#DejaVuSans-34" x="63.623047"/>
      </g>
     </g>
    </g>
    <g id="xtick_3">
     <g id="line2d_3">
      <g>
       <use xlink:href="#mb812b5a7cb" x="145.495604" y="307.584" style="stroke: #000000; stroke-width: 0.8"/>
      </g>
     </g>
     <g id="text_3">
      <!-- 67 -->
      <g transform="translate(139.133104 322.182437) scale(0.1 -0.1)">
       <defs>
        <path id="DejaVuSans-36" d="M 2113 2584 
Q 1688 2584 1439 2293 
Q 1191 2003 1191 1497 
Q 1191 994 1439 701 
Q 1688 409 2113 409 
Q 2538 409 2786 701 
Q 3034 994 3034 1497 
Q 3034 2003 2786 2293 
Q 2538 2584 2113 2584 
z
M 3366 4563 
L 3366 3988 
Q 3128 4100 2886 4159 
Q 2644 4219 2406 4219 
Q 1781 4219 1451 3797 
Q 1122 3375 1075 2522 
Q 1259 2794 1537 2939 
Q 1816 3084 2150 3084 
Q 2853 3084 3261 2657 
Q 3669 2231 3669 1497 
Q 3669 778 3244 343 
Q 2819 -91 2113 -91 
Q 1303 -91 875 529 
Q 447 1150 447 2328 
Q 447 3434 972 4092 
Q 1497 4750 2381 4750 
Q 2619 4750 2861 4703 
Q 3103 4656 3366 4563 
z
" transform="scale(0.015625)"/>
        <path id="DejaVuSans-37" d="M 525 4666 
L 3525 4666 
L 3525 4397 
L 1831 0 
L 1172 0 
L 2766 4134 
L 525 4134 
L 525 4666 
z
" transform="scale(0.015625)"/>
       </defs>
       <use xlink:href="#DejaVuSans-36"/>
       <use xlink:href="#DejaVuSans-37" x="63.623047"/>
      </g>
     </g>
    </g>
    <g id="xtick_4">
     <g id="line2d_4">
      <g>
       <use xlink:href="#mb812b5a7cb" x="181.327042" y="307.584" style="stroke: #000000; stroke-width: 0.8"/>
      </g>
     </g>
     <g id="text_4">
      <!-- 100 -->
      <g transform="translate(171.783292 322.182437) scale(0.1 -0.1)">
       <defs>
        <path id="DejaVuSans-30" d="M 2034 4250 
Q 1547 4250 1301 3770 
Q 1056 3291 1056 2328 
Q 1056 1369 1301 889 
Q 1547 409 2034 409 
Q 2525 409 2770 889 
Q 3016 1369 3016 2328 
Q 3016 3291 2770 3770 
Q 2525 4250 2034 4250 
z
M 2034 4750 
Q 2819 4750 3233 4129 
Q 3647 3509 3647 2328 
Q 3647 1150 3233 529 
Q 2819 -91 2034 -91 
Q 1250 -91 836 529 
Q 422 1150 422 2328 
Q 422 3509 836 4129 
Q 1250 4750 2034 4750 
z
" transform="scale(0.015625)"/>
       </defs>
       <use xlink:href="#DejaVuSans-31"/>
       <use xlink:href="#DejaVuSans-30" x="63.623047"/>
       <use xlink:href="#DejaVuSans-30" x="127.246094"/>
      </g>
     </g>
    </g>
    <g id="xtick_5">
     <g id="line2d_5">
      <g>
       <use xlink:href="#mb812b5a7cb" x="217.15848" y="307.584" style="stroke: #000000; stroke-width: 0.8"/>
      </g>
     </g>
     <g id="text_5">
      <!-- 133 -->
      <g transform="translate(207.61473 322.182437) scale(0.1 -0.1)">
       <use xlink:href="#DejaVuSans-31"/>
       <use xlink:href="#DejaVuSans-33" x="63.623047"/>
       <use xlink:href="#DejaVuSans-33" x="127.246094"/>
      </g>
     </g>
    </g>
    <g id="xtick_6">
     <g id="line2d_6">
      <g>
       <use xlink:href="#mb812b5a7cb" x="254.075719" y="307.584" style="stroke: #000000; stroke-width: 0.8"/>
      </g>
     </g>
     <g id="text_6">
      <!-- 167 -->
      <g transform="translate(244.531969 322.182437) scale(0.1 -0.1)">
       <use xlink:href="#DejaVuSans-31"/>
       <use xlink:href="#DejaVuSans-36" x="63.623047"/>
       <use xlink:href="#DejaVuSans-37" x="127.246094"/>
      </g>
     </g>
    </g>
    <g id="xtick_7">
     <g id="line2d_7">
      <g>
       <use xlink:href="#mb812b5a7cb" x="289.907157" y="307.584" style="stroke: #000000; stroke-width: 0.8"/>
      </g>
     </g>
     <g id="text_7">
      <!-- 200 -->
      <g transform="translate(280.363407 322.182437) scale(0.1 -0.1)">
       <defs>
        <path id="DejaVuSans-32" d="M 1228 531 
L 3431 531 
L 3431 0 
L 469 0 
L 469 531 
Q 828 903 1448 1529 
Q 2069 2156 2228 2338 
Q 2531 2678 2651 2914 
Q 2772 3150 2772 3378 
Q 2772 3750 2511 3984 
Q 2250 4219 1831 4219 
Q 1534 4219 1204 4116 
Q 875 4013 500 3803 
L 500 4441 
Q 881 4594 1212 4672 
Q 1544 4750 1819 4750 
Q 2544 4750 2975 4387 
Q 3406 4025 3406 3419 
Q 3406 3131 3298 2873 
Q 3191 2616 2906 2266 
Q 2828 2175 2409 1742 
Q 1991 1309 1228 531 
z
" transform="scale(0.015625)"/>
       </defs>
       <use xlink:href="#DejaVuSans-32"/>
       <use xlink:href="#DejaVuSans-30" x="63.623047"/>
       <use xlink:href="#DejaVuSans-30" x="127.246094"/>
      </g>
     </g>
    </g>
    <g id="xtick_8">
     <g id="line2d_8">
      <g>
       <use xlink:href="#mb812b5a7cb" x="325.738595" y="307.584" style="stroke: #000000; stroke-width: 0.8"/>
      </g>
     </g>
     <g id="text_8">
      <!-- 233 -->
      <g transform="translate(316.194845 322.182437) scale(0.1 -0.1)">
       <use xlink:href="#DejaVuSans-32"/>
       <use xlink:href="#DejaVuSans-33" x="63.623047"/>
       <use xlink:href="#DejaVuSans-33" x="127.246094"/>
      </g>
     </g>
    </g>
    <g id="xtick_9">
     <g id="line2d_9">
      <g>
       <use xlink:href="#mb812b5a7cb" x="361.570033" y="307.584" style="stroke: #000000; stroke-width: 0.8"/>
      </g>
     </g>
     <g id="text_9">
      <!-- 266 -->
      <g transform="translate(352.026283 322.182437) scale(0.1 -0.1)">
       <use xlink:href="#DejaVuSans-32"/>
       <use xlink:href="#DejaVuSans-36" x="63.623047"/>
       <use xlink:href="#DejaVuSans-36" x="127.246094"/>
      </g>
     </g>
    </g>
    <g id="xtick_10">
     <g id="line2d_10">
      <g>
       <use xlink:href="#mb812b5a7cb" x="398.487273" y="307.584" style="stroke: #000000; stroke-width: 0.8"/>
      </g>
     </g>
     <g id="text_10">
      <!-- 300 -->
      <g transform="translate(388.943523 322.182437) scale(0.1 -0.1)">
       <use xlink:href="#DejaVuSans-33"/>
       <use xlink:href="#DejaVuSans-30" x="63.623047"/>
       <use xlink:href="#DejaVuSans-30" x="127.246094"/>
      </g>
     </g>
    </g>
    <g id="text_11">
     <!-- Epochs -->
     <g transform="translate(218.244375 335.860562) scale(0.1 -0.1)">
      <defs>
       <path id="DejaVuSans-45" d="M 628 4666 
L 3578 4666 
L 3578 4134 
L 1259 4134 
L 1259 2753 
L 3481 2753 
L 3481 2222 
L 1259 2222 
L 1259 531 
L 3634 531 
L 3634 0 
L 628 0 
L 628 4666 
z
" transform="scale(0.015625)"/>
       <path id="DejaVuSans-70" d="M 1159 525 
L 1159 -1331 
L 581 -1331 
L 581 3500 
L 1159 3500 
L 1159 2969 
Q 1341 3281 1617 3432 
Q 1894 3584 2278 3584 
Q 2916 3584 3314 3078 
Q 3713 2572 3713 1747 
Q 3713 922 3314 415 
Q 2916 -91 2278 -91 
Q 1894 -91 1617 61 
Q 1341 213 1159 525 
z
M 3116 1747 
Q 3116 2381 2855 2742 
Q 2594 3103 2138 3103 
Q 1681 3103 1420 2742 
Q 1159 2381 1159 1747 
Q 1159 1113 1420 752 
Q 1681 391 2138 391 
Q 2594 391 2855 752 
Q 3116 1113 3116 1747 
z
" transform="scale(0.015625)"/>
       <path id="DejaVuSans-6f" d="M 1959 3097 
Q 1497 3097 1228 2736 
Q 959 2375 959 1747 
Q 959 1119 1226 758 
Q 1494 397 1959 397 
Q 2419 397 2687 759 
Q 2956 1122 2956 1747 
Q 2956 2369 2687 2733 
Q 2419 3097 1959 3097 
z
M 1959 3584 
Q 2709 3584 3137 3096 
Q 3566 2609 3566 1747 
Q 3566 888 3137 398 
Q 2709 -91 1959 -91 
Q 1206 -91 779 398 
Q 353 888 353 1747 
Q 353 2609 779 3096 
Q 1206 3584 1959 3584 
z
" transform="scale(0.015625)"/>
       <path id="DejaVuSans-63" d="M 3122 3366 
L 3122 2828 
Q 2878 2963 2633 3030 
Q 2388 3097 2138 3097 
Q 1578 3097 1268 2742 
Q 959 2388 959 1747 
Q 959 1106 1268 751 
Q 1578 397 2138 397 
Q 2388 397 2633 464 
Q 2878 531 3122 666 
L 3122 134 
Q 2881 22 2623 -34 
Q 2366 -91 2075 -91 
Q 1284 -91 818 406 
Q 353 903 353 1747 
Q 353 2603 823 3093 
Q 1294 3584 2113 3584 
Q 2378 3584 2631 3529 
Q 2884 3475 3122 3366 
z
" transform="scale(0.015625)"/>
       <path id="DejaVuSans-68" d="M 3513 2113 
L 3513 0 
L 2938 0 
L 2938 2094 
Q 2938 2591 2744 2837 
Q 2550 3084 2163 3084 
Q 1697 3084 1428 2787 
Q 1159 2491 1159 1978 
L 1159 0 
L 581 0 
L 581 4863 
L 1159 4863 
L 1159 2956 
Q 1366 3272 1645 3428 
Q 1925 3584 2291 3584 
Q 2894 3584 3203 3211 
Q 3513 2838 3513 2113 
z
" transform="scale(0.015625)"/>
       <path id="DejaVuSans-73" d="M 2834 3397 
L 2834 2853 
Q 2591 2978 2328 3040 
Q 2066 3103 1784 3103 
Q 1356 3103 1142 2972 
Q 928 2841 928 2578 
Q 928 2378 1081 2264 
Q 1234 2150 1697 2047 
L 1894 2003 
Q 2506 1872 2764 1633 
Q 3022 1394 3022 966 
Q 3022 478 2636 193 
Q 2250 -91 1575 -91 
Q 1294 -91 989 -36 
Q 684 19 347 128 
L 347 722 
Q 666 556 975 473 
Q 1284 391 1588 391 
Q 1994 391 2212 530 
Q 2431 669 2431 922 
Q 2431 1156 2273 1281 
Q 2116 1406 1581 1522 
L 1381 1569 
Q 847 1681 609 1914 
Q 372 2147 372 2553 
Q 372 3047 722 3315 
Q 1072 3584 1716 3584 
Q 2034 3584 2315 3537 
Q 2597 3491 2834 3397 
z
" transform="scale(0.015625)"/>
      </defs>
      <use xlink:href="#DejaVuSans-45"/>
      <use xlink:href="#DejaVuSans-70" x="63.183594"/>
      <use xlink:href="#DejaVuSans-6f" x="126.660156"/>
      <use xlink:href="#DejaVuSans-63" x="187.841797"/>
      <use xlink:href="#DejaVuSans-68" x="242.822266"/>
      <use xlink:href="#DejaVuSans-73" x="306.201172"/>
     </g>
    </g>
   </g>
   <g id="matplotlib.axis_2">
    <g id="ytick_1">
     <g id="line2d_11">
      <defs>
       <path id="md44331b63a" d="M 0 0 
L -3.5 0 
" style="stroke: #000000; stroke-width: 0.8"/>
      </defs>
      <g>
       <use xlink:href="#md44331b63a" x="57.6" y="302.10638" style="stroke: #000000; stroke-width: 0.8"/>
      </g>
     </g>
     <g id="text_12">
      <!-- 10 -->
      <g transform="translate(37.875 305.905599) scale(0.1 -0.1)">
       <use xlink:href="#DejaVuSans-31"/>
       <use xlink:href="#DejaVuSans-30" x="63.623047"/>
      </g>
     </g>
    </g>
    <g id="ytick_2">
     <g id="line2d_12">
      <g>
       <use xlink:href="#md44331b63a" x="57.6" y="272.266974" style="stroke: #000000; stroke-width: 0.8"/>
      </g>
     </g>
     <g id="text_13">
      <!-- 20 -->
      <g transform="translate(37.875 276.066193) scale(0.1 -0.1)">
       <use xlink:href="#DejaVuSans-32"/>
       <use xlink:href="#DejaVuSans-30" x="63.623047"/>
      </g>
     </g>
    </g>
    <g id="ytick_3">
     <g id="line2d_13">
      <g>
       <use xlink:href="#md44331b63a" x="57.6" y="242.427568" style="stroke: #000000; stroke-width: 0.8"/>
      </g>
     </g>
     <g id="text_14">
      <!-- 30 -->
      <g transform="translate(37.875 246.226787) scale(0.1 -0.1)">
       <use xlink:href="#DejaVuSans-33"/>
       <use xlink:href="#DejaVuSans-30" x="63.623047"/>
      </g>
     </g>
    </g>
    <g id="ytick_4">
     <g id="line2d_14">
      <g>
       <use xlink:href="#md44331b63a" x="57.6" y="212.588162" style="stroke: #000000; stroke-width: 0.8"/>
      </g>
     </g>
     <g id="text_15">
      <!-- 40 -->
      <g transform="translate(37.875 216.387381) scale(0.1 -0.1)">
       <use xlink:href="#DejaVuSans-34"/>
       <use xlink:href="#DejaVuSans-30" x="63.623047"/>
      </g>
     </g>
    </g>
    <g id="ytick_5">
     <g id="line2d_15">
      <g>
       <use xlink:href="#md44331b63a" x="57.6" y="182.748756" style="stroke: #000000; stroke-width: 0.8"/>
      </g>
     </g>
     <g id="text_16">
      <!-- 50 -->
      <g transform="translate(37.875 186.547975) scale(0.1 -0.1)">
       <defs>
        <path id="DejaVuSans-35" d="M 691 4666 
L 3169 4666 
L 3169 4134 
L 1269 4134 
L 1269 2991 
Q 1406 3038 1543 3061 
Q 1681 3084 1819 3084 
Q 2600 3084 3056 2656 
Q 3513 2228 3513 1497 
Q 3513 744 3044 326 
Q 2575 -91 1722 -91 
Q 1428 -91 1123 -41 
Q 819 9 494 109 
L 494 744 
Q 775 591 1075 516 
Q 1375 441 1709 441 
Q 2250 441 2565 725 
Q 2881 1009 2881 1497 
Q 2881 1984 2565 2268 
Q 2250 2553 1709 2553 
Q 1456 2553 1204 2497 
Q 953 2441 691 2322 
L 691 4666 
z
" transform="scale(0.015625)"/>
       </defs>
       <use xlink:href="#DejaVuSans-35"/>
       <use xlink:href="#DejaVuSans-30" x="63.623047"/>
      </g>
     </g>
    </g>
    <g id="ytick_6">
     <g id="line2d_16">
      <g>
       <use xlink:href="#md44331b63a" x="57.6" y="152.90935" style="stroke: #000000; stroke-width: 0.8"/>
      </g>
     </g>
     <g id="text_17">
      <!-- 60 -->
      <g transform="translate(37.875 156.708569) scale(0.1 -0.1)">
       <use xlink:href="#DejaVuSans-36"/>
       <use xlink:href="#DejaVuSans-30" x="63.623047"/>
      </g>
     </g>
    </g>
    <g id="ytick_7">
     <g id="line2d_17">
      <g>
       <use xlink:href="#md44331b63a" x="57.6" y="123.069944" style="stroke: #000000; stroke-width: 0.8"/>
      </g>
     </g>
     <g id="text_18">
      <!-- 70 -->
      <g transform="translate(37.875 126.869163) scale(0.1 -0.1)">
       <use xlink:href="#DejaVuSans-37"/>
       <use xlink:href="#DejaVuSans-30" x="63.623047"/>
      </g>
     </g>
    </g>
    <g id="ytick_8">
     <g id="line2d_18">
      <g>
       <use xlink:href="#md44331b63a" x="57.6" y="93.230538" style="stroke: #000000; stroke-width: 0.8"/>
      </g>
     </g>
     <g id="text_19">
      <!-- 80 -->
      <g transform="translate(37.875 97.029757) scale(0.1 -0.1)">
       <defs>
        <path id="DejaVuSans-38" d="M 2034 2216 
Q 1584 2216 1326 1975 
Q 1069 1734 1069 1313 
Q 1069 891 1326 650 
Q 1584 409 2034 409 
Q 2484 409 2743 651 
Q 3003 894 3003 1313 
Q 3003 1734 2745 1975 
Q 2488 2216 2034 2216 
z
M 1403 2484 
Q 997 2584 770 2862 
Q 544 3141 544 3541 
Q 544 4100 942 4425 
Q 1341 4750 2034 4750 
Q 2731 4750 3128 4425 
Q 3525 4100 3525 3541 
Q 3525 3141 3298 2862 
Q 3072 2584 2669 2484 
Q 3125 2378 3379 2068 
Q 3634 1759 3634 1313 
Q 3634 634 3220 271 
Q 2806 -91 2034 -91 
Q 1263 -91 848 271 
Q 434 634 434 1313 
Q 434 1759 690 2068 
Q 947 2378 1403 2484 
z
M 1172 3481 
Q 1172 3119 1398 2916 
Q 1625 2713 2034 2713 
Q 2441 2713 2670 2916 
Q 2900 3119 2900 3481 
Q 2900 3844 2670 4047 
Q 2441 4250 2034 4250 
Q 1625 4250 1398 4047 
Q 1172 3844 1172 3481 
z
" transform="scale(0.015625)"/>
       </defs>
       <use xlink:href="#DejaVuSans-38"/>
       <use xlink:href="#DejaVuSans-30" x="63.623047"/>
      </g>
     </g>
    </g>
    <g id="ytick_9">
     <g id="line2d_19">
      <g>
       <use xlink:href="#md44331b63a" x="57.6" y="63.391132" style="stroke: #000000; stroke-width: 0.8"/>
      </g>
     </g>
     <g id="text_20">
      <!-- 90 -->
      <g transform="translate(37.875 67.190351) scale(0.1 -0.1)">
       <defs>
        <path id="DejaVuSans-39" d="M 703 97 
L 703 672 
Q 941 559 1184 500 
Q 1428 441 1663 441 
Q 2288 441 2617 861 
Q 2947 1281 2994 2138 
Q 2813 1869 2534 1725 
Q 2256 1581 1919 1581 
Q 1219 1581 811 2004 
Q 403 2428 403 3163 
Q 403 3881 828 4315 
Q 1253 4750 1959 4750 
Q 2769 4750 3195 4129 
Q 3622 3509 3622 2328 
Q 3622 1225 3098 567 
Q 2575 -91 1691 -91 
Q 1453 -91 1209 -44 
Q 966 3 703 97 
z
M 1959 2075 
Q 2384 2075 2632 2365 
Q 2881 2656 2881 3163 
Q 2881 3666 2632 3958 
Q 2384 4250 1959 4250 
Q 1534 4250 1286 3958 
Q 1038 3666 1038 3163 
Q 1038 2656 1286 2365 
Q 1534 2075 1959 2075 
z
" transform="scale(0.015625)"/>
       </defs>
       <use xlink:href="#DejaVuSans-39"/>
       <use xlink:href="#DejaVuSans-30" x="63.623047"/>
      </g>
     </g>
    </g>
    <g id="text_21">
     <!-- Accuracy -->
     <g transform="translate(31.795312 197.356125) rotate(-90) scale(0.1 -0.1)">
      <defs>
       <path id="DejaVuSans-41" d="M 2188 4044 
L 1331 1722 
L 3047 1722 
L 2188 4044 
z
M 1831 4666 
L 2547 4666 
L 4325 0 
L 3669 0 
L 3244 1197 
L 1141 1197 
L 716 0 
L 50 0 
L 1831 4666 
z
" transform="scale(0.015625)"/>
       <path id="DejaVuSans-75" d="M 544 1381 
L 544 3500 
L 1119 3500 
L 1119 1403 
Q 1119 906 1312 657 
Q 1506 409 1894 409 
Q 2359 409 2629 706 
Q 2900 1003 2900 1516 
L 2900 3500 
L 3475 3500 
L 3475 0 
L 2900 0 
L 2900 538 
Q 2691 219 2414 64 
Q 2138 -91 1772 -91 
Q 1169 -91 856 284 
Q 544 659 544 1381 
z
M 1991 3584 
L 1991 3584 
z
" transform="scale(0.015625)"/>
       <path id="DejaVuSans-72" d="M 2631 2963 
Q 2534 3019 2420 3045 
Q 2306 3072 2169 3072 
Q 1681 3072 1420 2755 
Q 1159 2438 1159 1844 
L 1159 0 
L 581 0 
L 581 3500 
L 1159 3500 
L 1159 2956 
Q 1341 3275 1631 3429 
Q 1922 3584 2338 3584 
Q 2397 3584 2469 3576 
Q 2541 3569 2628 3553 
L 2631 2963 
z
" transform="scale(0.015625)"/>
       <path id="DejaVuSans-61" d="M 2194 1759 
Q 1497 1759 1228 1600 
Q 959 1441 959 1056 
Q 959 750 1161 570 
Q 1363 391 1709 391 
Q 2188 391 2477 730 
Q 2766 1069 2766 1631 
L 2766 1759 
L 2194 1759 
z
M 3341 1997 
L 3341 0 
L 2766 0 
L 2766 531 
Q 2569 213 2275 61 
Q 1981 -91 1556 -91 
Q 1019 -91 701 211 
Q 384 513 384 1019 
Q 384 1609 779 1909 
Q 1175 2209 1959 2209 
L 2766 2209 
L 2766 2266 
Q 2766 2663 2505 2880 
Q 2244 3097 1772 3097 
Q 1472 3097 1187 3025 
Q 903 2953 641 2809 
L 641 3341 
Q 956 3463 1253 3523 
Q 1550 3584 1831 3584 
Q 2591 3584 2966 3190 
Q 3341 2797 3341 1997 
z
" transform="scale(0.015625)"/>
       <path id="DejaVuSans-79" d="M 2059 -325 
Q 1816 -950 1584 -1140 
Q 1353 -1331 966 -1331 
L 506 -1331 
L 506 -850 
L 844 -850 
Q 1081 -850 1212 -737 
Q 1344 -625 1503 -206 
L 1606 56 
L 191 3500 
L 800 3500 
L 1894 763 
L 2988 3500 
L 3597 3500 
L 2059 -325 
z
" transform="scale(0.015625)"/>
      </defs>
      <use xlink:href="#DejaVuSans-41"/>
      <use xlink:href="#DejaVuSans-63" x="66.658203"/>
      <use xlink:href="#DejaVuSans-63" x="121.638672"/>
      <use xlink:href="#DejaVuSans-75" x="176.619141"/>
      <use xlink:href="#DejaVuSans-72" x="239.998047"/>
      <use xlink:href="#DejaVuSans-61" x="281.111328"/>
      <use xlink:href="#DejaVuSans-63" x="342.390625"/>
      <use xlink:href="#DejaVuSans-79" x="397.371094"/>
     </g>
    </g>
   </g>
   <g id="line2d_20">
    <path d="M 73.832727 295.488 
L 74.918528 241.669647 
L 76.00433 199.769154 
L 77.090131 171.958827 
L 78.175932 152.473695 
L 79.261733 139.666622 
L 80.347534 128.805078 
L 81.433335 122.890908 
L 82.519137 116.057684 
L 83.604938 109.976413 
L 84.690739 104.963393 
L 85.77654 101.126045 
L 86.862341 96.674006 
L 89.033943 91.834054 
L 90.119745 87.746056 
L 91.205546 85.293256 
L 92.291347 84.732276 
L 93.377148 83.449181 
L 94.462949 82.715132 
L 95.54875 107.523614 
L 96.634552 107.416192 
L 97.720353 104.682902 
L 98.806154 102.952217 
L 100.977756 98.022747 
L 102.063557 97.330473 
L 103.149358 94.495729 
L 104.23516 93.73184 
L 105.320961 91.947444 
L 106.406762 89.667713 
L 107.492563 88.080257 
L 108.578364 87.02991 
L 109.664165 86.283925 
L 112.921569 81.611074 
L 114.00737 81.336551 
L 115.093171 79.426829 
L 116.178972 77.916955 
L 117.264773 77.749855 
L 118.350575 75.869972 
L 119.436376 74.634621 
L 120.522177 73.817021 
L 121.607978 72.062464 
L 122.693779 72.223597 
L 123.77958 70.731626 
L 124.865382 70.224356 
L 125.951183 69.949834 
L 127.036984 68.607061 
L 128.122785 66.757017 
L 129.208586 66.94799 
L 130.294387 65.575377 
L 131.380189 65.599248 
L 132.46599 65.103914 
L 133.551791 64.226636 
L 134.637592 63.922274 
L 135.723393 64.393736 
L 136.809194 64.029696 
L 137.894995 63.235968 
L 138.980797 82.52416 
L 140.066598 85.054541 
L 141.152399 84.135487 
L 142.2382 84.051937 
L 143.324001 84.272749 
L 144.409802 83.735639 
L 145.495604 83.419342 
L 146.581405 83.610314 
L 147.667206 81.778174 
L 148.753007 80.626373 
L 149.838808 81.062029 
L 150.924609 79.504412 
L 152.01041 79.963939 
L 153.096212 79.325375 
L 154.182013 78.460032 
L 155.267814 78.901656 
L 157.439416 76.86064 
L 158.525217 76.836769 
L 159.611019 76.568214 
L 162.868422 75.010597 
L 163.954223 74.228805 
L 165.040024 74.759946 
L 166.125825 74.115415 
L 167.211627 73.948314 
L 169.383229 72.581669 
L 170.46903 72.342954 
L 171.554831 71.423901 
L 172.640632 71.012117 
L 173.726434 70.12887 
L 174.812235 70.618237 
L 175.898036 70.594365 
L 176.983837 69.191913 
L 178.069638 68.815936 
L 179.155439 68.774161 
L 180.24124 67.329934 
L 181.327042 67.091219 
L 182.412843 67.198641 
L 183.498644 66.643628 
L 185.670246 65.784253 
L 186.756047 65.515698 
L 187.841849 64.841328 
L 188.92765 65.1994 
L 190.013451 64.727938 
L 191.099252 63.683559 
L 192.185053 63.415004 
L 193.270854 62.585468 
L 194.356656 62.430304 
L 195.442457 62.048359 
L 196.528258 62.382561 
L 197.614059 61.582864 
L 198.69986 60.538485 
L 199.785661 61.051723 
L 200.871462 59.697014 
L 201.957264 60.407192 
L 204.128866 58.968932 
L 205.214667 58.909254 
L 206.300468 58.509406 
L 207.386269 57.673902 
L 210.643673 57.650031 
L 211.729474 57.90665 
L 212.815275 56.921949 
L 213.901076 56.599684 
L 214.986877 56.921949 
L 216.072679 56.331129 
L 218.244281 55.967088 
L 219.330082 56.193868 
L 220.415883 55.746277 
L 221.501684 55.495626 
L 222.587486 55.507561 
L 223.673287 55.984992 
L 224.759088 56.086446 
L 225.844889 73.805085 
L 226.93069 75.631257 
L 228.016491 75.416413 
L 229.102292 76.538375 
L 230.188094 76.508535 
L 231.273895 75.553674 
L 232.359696 75.744647 
L 233.445497 75.410445 
L 234.531298 74.89124 
L 235.617099 75.094147 
L 236.702901 75.016565 
L 237.788702 74.568974 
L 238.874503 74.324291 
L 239.960304 74.557038 
L 243.217708 72.963614 
L 244.303509 73.530563 
L 246.475111 72.927807 
L 248.646713 73.315719 
L 249.732514 73.291847 
L 250.818316 72.43844 
L 251.904117 71.972946 
L 252.989918 71.376157 
L 254.075719 72.110207 
L 256.247321 71.549226 
L 257.333123 71.758102 
L 258.418924 70.528718 
L 259.504725 71.364222 
L 260.590526 69.782733 
L 261.676327 70.349682 
L 263.847929 70.194517 
L 264.933731 69.382885 
L 266.019532 69.615633 
L 267.105333 69.353046 
L 268.191134 70.182581 
L 269.276935 69.436596 
L 270.362736 70.075159 
L 271.448538 68.654804 
L 272.534339 69.150138 
L 275.791742 68.935294 
L 276.877543 67.723814 
L 277.963344 68.368345 
L 279.049146 67.986401 
L 280.134947 68.559318 
L 281.220748 67.592521 
L 282.306549 67.365741 
L 283.39235 66.924118 
L 284.478151 67.42542 
L 285.563953 67.329934 
L 286.649754 66.279587 
L 287.735555 66.971861 
L 288.821356 66.476527 
L 289.907157 66.285555 
L 290.992958 65.843932 
L 292.07876 66.279587 
L 293.164561 65.1994 
L 294.250362 65.873771 
L 295.336163 65.390373 
L 296.421964 65.497795 
L 297.507765 64.901006 
L 298.593566 65.074075 
L 299.679368 64.32809 
L 300.765169 64.650355 
L 301.85097 64.614548 
L 302.936771 64.226636 
L 304.022572 63.51049 
L 305.108373 63.952113 
L 306.194175 64.256475 
L 307.279976 63.838724 
L 308.365777 64.113246 
L 309.451578 63.665655 
L 310.537379 62.406432 
L 311.62318 63.42694 
L 312.708981 62.973381 
L 313.794783 62.991284 
L 314.880584 62.591436 
L 315.966385 62.352721 
L 317.052186 62.287074 
L 318.137987 61.553025 
L 319.223788 61.588832 
L 320.30959 61.845451 
L 321.395391 61.224792 
L 322.481192 61.326246 
L 323.566993 61.111402 
L 324.652794 60.425095 
L 325.738595 60.789136 
L 328.995999 59.70895 
L 330.0818 59.732821 
L 331.167601 59.452331 
L 333.339203 59.470235 
L 334.425005 58.38408 
L 335.510806 58.592956 
L 343.111414 57.518737 
L 344.197215 56.730977 
L 345.283016 57.500834 
L 346.368817 56.265482 
L 348.54042 57.244215 
L 349.626221 57.220343 
L 350.712022 57.071146 
L 352.883624 55.841763 
L 353.969425 55.99096 
L 355.055227 55.119649 
L 356.141028 55.197232 
L 358.31263 54.546733 
L 359.398431 55.161424 
L 360.484232 54.74964 
L 361.570033 54.683994 
L 362.655835 54.493022 
L 363.741636 53.99172 
L 364.827437 54.069302 
L 365.913238 53.568 
L 366.999039 53.568 
L 368.08484 53.729133 
L 369.170642 54.15882 
L 370.256443 54.982388 
L 371.342244 55.626919 
L 372.428045 55.59708 
L 373.513846 56.360968 
L 374.599647 55.901442 
L 376.77125 56.575812 
L 377.857051 55.799988 
L 378.942852 56.116285 
L 380.028653 56.068542 
L 381.114454 55.788052 
L 382.200255 56.49823 
L 383.286057 56.599684 
L 384.371858 55.45385 
L 386.54346 56.349033 
L 387.629261 56.38484 
L 388.715062 56.587748 
L 389.800863 56.169996 
L 390.886665 56.66533 
L 391.972466 56.420647 
L 393.058267 56.790656 
L 394.144068 55.889506 
L 395.229869 55.853698 
L 396.31567 55.949185 
L 397.401472 56.563876 
L 398.487273 56.462422 
L 398.487273 56.462422 
" clip-path="url(#pdaabe3c849)" style="fill: none; stroke: #1f77b4; stroke-width: 1.5; stroke-linecap: square"/>
   </g>
   <g id="line2d_21">
    <path d="M 73.832727 287.872984 
L 74.918528 254.124615 
L 77.090131 213.393826 
L 78.175932 203.934735 
L 79.261733 190.835235 
L 80.347534 198.891875 
L 81.433335 184.927033 
L 82.519137 168.903272 
L 83.604938 162.816033 
L 84.690739 163.591858 
L 85.77654 159.593377 
L 86.862341 158.071568 
L 87.948142 151.268183 
L 89.033943 148.970549 
L 90.119745 147.4189 
L 91.205546 143.778492 
L 92.291347 143.838171 
L 93.377148 143.211543 
L 94.462949 141.451018 
L 95.54875 171.827534 
L 96.634552 170.812994 
L 97.720353 166.396762 
L 98.806154 159.861932 
L 99.891955 160.070808 
L 100.977756 158.340122 
L 102.063557 160.160326 
L 103.149358 151.387541 
L 104.23516 150.492358 
L 105.320961 149.806052 
L 106.406762 147.329381 
L 107.492563 146.255163 
L 108.578364 144.315601 
L 109.664165 144.972068 
L 110.749967 141.89861 
L 111.835768 144.584156 
L 112.921569 143.330901 
L 114.00737 136.258962 
L 115.093171 137.989647 
L 116.178972 136.915429 
L 117.264773 137.303341 
L 119.436376 132.409678 
L 120.522177 130.619314 
L 121.607978 130.858029 
L 122.693779 129.246701 
L 123.77958 128.739432 
L 124.865382 126.471637 
L 127.036984 124.472396 
L 128.122785 122.532835 
L 129.208586 122.980426 
L 130.294387 121.846529 
L 131.380189 122.29412 
L 132.46599 121.369098 
L 133.551791 119.966646 
L 134.637592 120.145683 
L 135.723393 121.309419 
L 136.809194 119.727931 
L 137.894995 120.26504 
L 138.980797 143.987368 
L 140.066598 144.315601 
L 141.152399 147.090666 
L 142.2382 143.211543 
L 143.324001 140.675194 
L 144.409802 139.86953 
L 145.495604 139.660654 
L 146.581405 142.316361 
L 147.667206 139.302581 
L 148.753007 140.85423 
L 149.838808 139.899369 
L 150.924609 138.407399 
L 152.01041 140.824391 
L 153.096212 138.586436 
L 154.182013 138.88483 
L 155.267814 142.226843 
L 156.353615 140.496157 
L 158.525217 135.632334 
L 159.611019 132.141124 
L 160.69682 136.199283 
L 161.782621 132.290321 
L 162.868422 132.260481 
L 163.954223 136.437998 
L 165.040024 132.529036 
L 166.125825 131.126584 
L 167.211627 129.962847 
L 168.297428 131.604015 
L 169.383229 131.81289 
L 170.46903 130.32092 
L 171.554831 130.529796 
L 172.640632 131.096745 
L 173.726434 127.903928 
L 174.812235 127.933768 
L 175.898036 125.218382 
L 176.983837 130.291081 
L 179.155439 126.770031 
L 180.24124 127.754731 
L 181.327042 126.561155 
L 182.412843 124.651433 
L 183.498644 124.860309 
L 184.584445 124.472396 
L 185.670246 123.726411 
L 186.756047 123.457857 
L 187.841849 120.444077 
L 188.92765 121.011025 
L 190.013451 122.592514 
L 192.185053 118.086764 
L 193.270854 119.489216 
L 194.356656 118.474676 
L 195.442457 118.414997 
L 196.528258 117.370618 
L 197.614059 116.624633 
L 199.785661 116.177042 
L 200.871462 115.132662 
L 201.957264 115.222181 
L 203.043065 114.535874 
L 204.128866 112.596313 
L 206.300468 113.789889 
L 207.386269 110.537394 
L 209.557872 110.865627 
L 210.643673 111.76081 
L 211.729474 111.313218 
L 212.815275 109.254299 
L 213.901076 110.776109 
L 214.986877 110.776109 
L 216.072679 109.642212 
L 217.15848 110.418036 
L 218.244281 110.358357 
L 219.330082 109.433336 
L 220.415883 109.194621 
L 222.587486 109.343818 
L 223.673287 109.194621 
L 224.759088 109.403496 
L 225.844889 133.424218 
L 226.93069 137.36302 
L 228.016491 140.764712 
L 229.102292 137.601735 
L 230.188094 137.542056 
L 231.273895 135.87105 
L 232.359696 134.468597 
L 233.445497 136.587195 
L 234.531298 136.437998 
L 235.617099 133.155664 
L 236.702901 135.095225 
L 237.788702 136.646874 
L 238.874503 137.094465 
L 239.960304 133.573415 
L 241.046105 131.037066 
L 242.131906 129.604774 
L 243.217708 135.930728 
L 244.303509 135.692013 
L 245.38931 134.82667 
L 246.475111 134.886349 
L 247.560912 135.692013 
L 248.646713 132.648394 
L 249.732514 138.198523 
L 250.818316 133.991167 
L 251.904117 134.647634 
L 252.989918 134.259722 
L 254.075719 132.469357 
L 255.16152 130.231402 
L 256.247321 132.678233 
L 257.333123 129.694293 
L 258.418924 130.499956 
L 259.504725 137.482377 
L 260.590526 130.619314 
L 261.676327 129.097504 
L 262.762128 126.382118 
L 263.847929 133.543576 
L 264.933731 131.663693 
L 266.019532 127.963607 
L 267.105333 126.82971 
L 268.191134 127.605534 
L 269.276935 127.575695 
L 270.362736 130.261241 
L 271.448538 124.80063 
L 272.534339 127.396658 
L 273.62014 128.441037 
L 274.705941 127.933768 
L 275.791742 126.710352 
L 276.877543 130.32092 
L 277.963344 126.710352 
L 279.049146 127.277301 
L 280.134947 126.232921 
L 281.220748 125.606294 
L 282.306549 127.605534 
L 283.39235 128.29184 
L 284.478151 124.114324 
L 285.563953 122.592514 
L 286.649754 130.410438 
L 287.735555 122.622353 
L 288.821356 128.441037 
L 289.907157 124.532075 
L 290.992958 121.816689 
L 292.07876 126.620834 
L 293.164561 123.338499 
L 294.250362 126.978907 
L 295.336163 120.354558 
L 296.421964 121.816689 
L 297.507765 122.741711 
L 299.679368 121.757011 
L 300.765169 123.159463 
L 301.85097 125.81517 
L 302.936771 119.966646 
L 304.022572 121.757011 
L 305.108373 120.235201 
L 306.194175 121.816689 
L 307.279976 121.339259 
L 308.365777 120.29488 
L 309.451578 120.145683 
L 310.537379 121.011025 
L 311.62318 120.26504 
L 312.708981 120.086004 
L 313.794783 116.863348 
L 314.880584 120.473916 
L 315.966385 118.713391 
L 317.052186 117.78837 
L 318.137987 119.310179 
L 319.223788 117.400457 
L 320.30959 116.684312 
L 321.395391 117.102063 
L 322.481192 116.803669 
L 323.566993 117.549654 
L 324.652794 114.804429 
L 325.738595 117.818209 
L 326.824396 115.132662 
L 327.910198 113.968926 
L 328.995999 117.012545 
L 330.0818 113.193101 
L 331.167601 115.938326 
L 332.253402 111.73097 
L 333.339203 114.506035 
L 334.425005 116.117363 
L 335.510806 114.923787 
L 336.596607 113.372137 
L 337.682408 116.833509 
L 338.768209 113.581013 
L 339.85401 112.685831 
L 340.939811 111.134182 
L 342.025613 114.685071 
L 343.111414 111.76081 
L 344.197215 114.326998 
L 345.283016 110.925306 
L 346.368817 110.388197 
L 347.454618 110.895467 
L 348.54042 110.776109 
L 349.626221 110.507554 
L 350.712022 110.447876 
L 351.797823 110.835788 
L 352.883624 107.881687 
L 353.969425 109.254299 
L 355.055227 108.478475 
L 356.141028 108.836548 
L 357.226829 108.030884 
L 358.31263 108.150241 
L 359.398431 107.70265 
L 360.484232 106.509074 
L 361.570033 105.912286 
L 362.655835 106.658271 
L 363.741636 107.046183 
L 364.827437 106.359877 
L 365.913238 106.031644 
L 366.999039 105.852607 
L 368.08484 106.568753 
L 369.170642 106.270359 
L 370.256443 108.478475 
L 371.342244 108.418796 
L 372.428045 108.120402 
L 373.513846 110.925306 
L 374.599647 110.447876 
L 375.685448 109.463175 
L 376.77125 110.925306 
L 377.857051 111.522094 
L 378.942852 109.791409 
L 380.028653 109.254299 
L 381.114454 110.567233 
L 382.200255 109.970445 
L 383.286057 110.239 
L 384.371858 111.432576 
L 385.457659 108.806708 
L 386.54346 111.313218 
L 387.629261 109.105102 
L 388.715062 111.343058 
L 389.800863 111.641452 
L 390.886665 113.163262 
L 391.972466 109.791409 
L 393.058267 109.761569 
L 394.144068 109.164781 
L 395.229869 112.029364 
L 396.31567 112.387437 
L 397.401472 110.418036 
L 398.487273 111.701131 
L 398.487273 111.701131 
" clip-path="url(#pdaabe3c849)" style="fill: none; stroke: #ff7f0e; stroke-width: 1.5; stroke-linecap: square"/>
   </g>
   <g id="line2d_22">
    <path d="M 73.832727 294.286398 
L 74.918528 283.503054 
L 76.00433 264.446992 
L 77.090131 248.683554 
L 78.175932 242.077727 
L 79.261733 233.04359 
L 80.347534 234.710481 
L 81.433335 228.392758 
L 82.519137 228.845494 
L 83.604938 218.329676 
L 84.690739 222.219088 
L 85.77654 215.489787 
L 86.862341 213.637686 
L 87.948142 212.526426 
L 89.033943 212.032532 
L 90.119745 209.151486 
L 91.205546 204.95339 
L 92.291347 202.072344 
L 93.377148 203.245341 
L 94.462949 202.545659 
L 95.54875 228.886652 
L 96.634552 233.002432 
L 97.720353 224.729714 
L 98.806154 211.600375 
L 99.891955 217.650572 
L 100.977756 221.869247 
L 102.063557 219.317463 
L 103.149358 224.112347 
L 104.23516 215.63384 
L 105.320961 210.303904 
L 106.406762 208.781066 
L 107.492563 215.139946 
L 108.578364 211.476902 
L 109.664165 205.32381 
L 110.749967 201.887134 
L 111.835768 207.319964 
L 112.921569 207.01128 
L 114.00737 209.316117 
L 115.093171 207.3817 
L 117.264773 200.83761 
L 118.350575 199.870402 
L 119.436376 202.278133 
L 120.522177 197.174566 
L 121.607978 196.680672 
L 123.77958 196.927619 
L 124.865382 199.705771 
L 125.951183 194.890308 
L 127.036984 193.820205 
L 128.122785 188.757795 
L 129.208586 190.404107 
L 130.294387 190.36295 
L 131.380189 189.910214 
L 132.46599 190.465844 
L 133.551791 185.341698 
L 134.637592 189.869056 
L 135.723393 191.494789 
L 136.809194 188.963584 
L 137.894995 190.774528 
L 138.980797 199.417666 
L 140.066598 210.633167 
L 141.152399 213.473055 
L 142.2382 206.291019 
L 143.324001 205.447284 
L 144.409802 203.224763 
L 145.495604 203.101289 
L 146.581405 199.644034 
L 147.667206 197.483249 
L 148.753007 201.39324 
L 149.838808 197.915406 
L 150.924609 203.883287 
L 152.01041 213.781739 
L 153.096212 198.326984 
L 154.182013 205.858862 
L 155.267814 218.556044 
L 156.353615 204.294865 
L 157.439416 208.019646 
L 158.525217 201.249188 
L 159.611019 195.445938 
L 160.69682 196.516041 
L 161.782621 195.548833 
L 162.868422 194.10831 
L 163.954223 204.871075 
L 165.040024 193.758468 
L 166.125825 190.774528 
L 167.211627 194.725677 
L 168.297428 192.338524 
L 169.383229 193.964257 
L 170.46903 201.825397 
L 171.554831 194.231783 
L 172.640632 198.306405 
L 173.726434 196.72183 
L 174.812235 196.618935 
L 175.898036 189.457478 
L 176.983837 196.948198 
L 178.069638 198.903193 
L 179.155439 197.771354 
L 180.24124 196.392567 
L 181.327042 196.125042 
L 182.412843 191.968104 
L 183.498644 195.384201 
L 184.584445 205.488442 
L 185.670246 195.260728 
L 186.756047 193.326311 
L 188.92765 191.865209 
L 190.013451 191.597684 
L 191.099252 185.279961 
L 192.185053 184.868383 
L 193.270854 186.329485 
L 194.356656 191.926946 
L 195.442457 186.638169 
L 196.528258 189.148794 
L 197.614059 184.580279 
L 198.69986 186.164854 
L 199.785661 183.324966 
L 200.871462 183.98349 
L 201.957264 186.452958 
L 203.043065 181.719811 
L 204.128866 182.625283 
L 205.214667 182.151968 
L 206.300468 180.011763 
L 207.386269 180.505656 
L 208.472071 176.12235 
L 209.557872 177.377663 
L 210.643673 180.23813 
L 211.729474 178.262556 
L 212.815275 180.135236 
L 213.901076 180.834919 
L 214.986877 180.670287 
L 216.072679 178.900502 
L 217.15848 180.320446 
L 218.244281 179.600185 
L 219.330082 179.744237 
L 220.415883 178.241977 
L 221.501684 178.591818 
L 222.587486 178.036188 
L 223.673287 178.75645 
L 224.759088 178.550661 
L 225.844889 205.858862 
L 226.93069 208.739908 
L 228.016491 209.439591 
L 229.102292 208.019646 
L 230.188094 199.253035 
L 231.273895 193.285153 
L 232.359696 185.917907 
L 233.445497 206.229282 
L 234.531298 200.137927 
L 235.617099 197.689038 
L 236.702901 205.694231 
L 237.788702 210.406799 
L 239.960304 196.495462 
L 241.046105 196.824724 
L 242.131906 201.640187 
L 243.217708 204.02734 
L 244.303509 194.602203 
L 245.38931 203.84213 
L 246.475111 189.704425 
L 247.560912 206.393913 
L 248.646713 200.446611 
L 249.732514 201.290346 
L 250.818316 198.697404 
L 251.904117 200.611242 
L 252.989918 193.16168 
L 254.075719 206.044072 
L 255.16152 187.132062 
L 256.247321 193.737889 
L 257.333123 193.511521 
L 258.418924 194.519888 
L 259.504725 212.320637 
L 260.590526 199.561718 
L 261.676327 193.243996 
L 262.762128 192.070998 
L 263.847929 195.487096 
L 264.933731 191.186106 
L 266.019532 190.898001 
L 267.105333 189.498636 
L 268.191134 194.622782 
L 269.276935 196.413146 
L 270.362736 196.72183 
L 271.448538 192.215051 
L 272.534339 194.828571 
L 273.62014 201.413819 
L 274.705941 196.824724 
L 275.791742 191.021474 
L 276.877543 194.149467 
L 277.963344 198.018301 
L 279.049146 195.507675 
L 280.134947 198.862036 
L 281.220748 191.988683 
L 282.306549 190.959738 
L 283.39235 190.36295 
L 284.478151 191.330158 
L 285.563953 188.901848 
L 286.649754 201.084557 
L 287.735555 188.901848 
L 288.821356 198.59451 
L 289.907157 194.087731 
L 290.992958 188.366796 
L 292.07876 189.725004 
L 293.164561 188.696059 
L 294.250362 192.112156 
L 295.336163 185.753276 
L 296.421964 185.650381 
L 298.593566 184.374489 
L 299.679368 195.363622 
L 300.765169 192.97647 
L 301.85097 192.194472 
L 302.936771 177.089559 
L 304.022572 188.30506 
L 305.108373 183.860017 
L 306.194175 194.437572 
L 307.279976 183.880596 
L 308.365777 189.622109 
L 309.451578 184.786068 
L 310.537379 188.922427 
L 311.62318 189.519215 
L 312.708981 196.495462 
L 313.794783 183.036861 
L 314.880584 194.725677 
L 315.966385 175.587299 
L 317.052186 179.332659 
L 318.137987 188.202165 
L 320.30959 178.324293 
L 321.395391 183.777701 
L 322.481192 183.078019 
L 323.566993 187.234957 
L 324.652794 183.139755 
L 325.738595 182.625283 
L 326.824396 180.958392 
L 327.910198 180.217552 
L 328.995999 189.683846 
L 330.0818 180.896655 
L 331.167601 185.835591 
L 332.253402 181.411128 
L 333.339203 179.394396 
L 334.425005 183.654228 
L 335.510806 183.942333 
L 336.596607 177.398242 
L 337.682408 177.706926 
L 338.768209 180.896655 
L 339.85401 176.842612 
L 340.939811 175.772509 
L 342.025613 178.386029 
L 344.197215 182.193126 
L 345.283016 174.414302 
L 346.368817 173.920408 
L 347.454618 179.929447 
L 348.54042 182.275442 
L 349.626221 177.377663 
L 350.712022 178.139083 
L 351.797823 181.616917 
L 352.883624 172.232938 
L 353.969425 176.863191 
L 355.055227 175.443247 
L 356.141028 173.611724 
L 357.226829 172.479885 
L 358.31263 175.793088 
L 359.398431 177.542294 
L 361.570033 173.056094 
L 362.655835 175.546141 
L 363.741636 176.30756 
L 364.827437 177.377663 
L 365.913238 178.900502 
L 366.999039 172.294675 
L 368.08484 175.258037 
L 370.256443 170.277943 
L 372.428045 173.344199 
L 373.513846 178.139083 
L 374.599647 176.863191 
L 375.685448 176.739717 
L 376.77125 178.097925 
L 377.857051 180.402762 
L 378.942852 180.258709 
L 380.028653 178.694713 
L 381.114454 176.636823 
L 382.200255 177.80982 
L 383.286057 184.662594 
L 384.371858 178.777029 
L 385.457659 169.331313 
L 386.54346 176.595665 
L 387.629261 172.274096 
L 388.715062 179.826552 
L 389.800863 176.184087 
L 390.886665 188.572585 
L 391.972466 172.891463 
L 393.058267 176.286982 
L 394.144068 177.171874 
L 395.229869 179.229764 
L 396.31567 177.06898 
L 397.401472 179.168028 
L 398.487273 178.550661 
L 398.487273 178.550661 
" clip-path="url(#pdaabe3c849)" style="fill: none; stroke: #2ca02c; stroke-width: 1.5; stroke-linecap: square"/>
   </g>
   <g id="line2d_23">
    <path d="M 368.08484 107.046183 
L 369.170642 106.568753 
L 371.342244 106.061483 
L 372.428045 108.687351 
L 373.513846 109.313978 
L 374.599647 108.508314 
L 375.685448 109.105102 
L 376.77125 106.747789 
L 377.857051 107.851847 
L 378.942852 108.030884 
L 380.028653 110.447876 
L 381.114454 108.955905 
L 382.200255 108.836548 
L 383.286057 109.403496 
L 384.371858 108.359117 
L 385.457659 110.149482 
L 386.54346 110.955146 
L 387.629261 110.597073 
L 388.715062 112.387437 
L 389.800863 112.954386 
L 390.886665 110.537394 
L 391.972466 111.790649 
L 393.058267 110.418036 
L 394.144068 109.552693 
L 396.31567 113.610853 
L 397.401472 110.955146 
L 398.487273 107.404256 
L 398.487273 107.404256 
" clip-path="url(#pdaabe3c849)" style="fill: none; stroke: #d62728; stroke-width: 1.5; stroke-linecap: square"/>
   </g>
   <g id="line2d_24">
    <path d="M 368.08484 173.282462 
L 369.170642 175.813667 
L 370.256443 171.739044 
L 371.342244 171.492098 
L 372.428045 172.623937 
L 373.513846 178.509503 
L 374.599647 175.01109 
L 375.685448 176.575086 
L 376.77125 172.973779 
L 377.857051 173.014936 
L 378.942852 176.184087 
L 380.028653 176.142929 
L 381.114454 171.368624 
L 382.200255 173.32362 
L 383.286057 179.229764 
L 384.371858 173.87925 
L 386.54346 175.875404 
L 387.629261 179.49729 
L 388.715062 180.23813 
L 389.800863 180.176394 
L 390.886665 173.076673 
L 391.972466 179.065133 
L 394.144068 173.982145 
L 396.31567 182.892809 
L 397.401472 174.187934 
L 398.487273 168.775683 
L 398.487273 168.775683 
" clip-path="url(#pdaabe3c849)" style="fill: none; stroke: #9467bd; stroke-width: 1.5; stroke-linecap: square"/>
   </g>
   <g id="patch_3">
    <path d="M 57.6 307.584 
L 57.6 41.472 
" style="fill: none; stroke: #000000; stroke-width: 0.8; stroke-linejoin: miter; stroke-linecap: square"/>
   </g>
   <g id="patch_4">
    <path d="M 414.72 307.584 
L 414.72 41.472 
" style="fill: none; stroke: #000000; stroke-width: 0.8; stroke-linejoin: miter; stroke-linecap: square"/>
   </g>
   <g id="patch_5">
    <path d="M 57.6 307.584 
L 414.72 307.584 
" style="fill: none; stroke: #000000; stroke-width: 0.8; stroke-linejoin: miter; stroke-linecap: square"/>
   </g>
   <g id="patch_6">
    <path d="M 57.6 41.472 
L 414.72 41.472 
" style="fill: none; stroke: #000000; stroke-width: 0.8; stroke-linejoin: miter; stroke-linecap: square"/>
   </g>
   <g id="text_22">
    <!-- Learning Curves -->
    <g transform="translate(187.37625 35.472) scale(0.12 -0.12)">
     <defs>
      <path id="DejaVuSans-4c" d="M 628 4666 
L 1259 4666 
L 1259 531 
L 3531 531 
L 3531 0 
L 628 0 
L 628 4666 
z
" transform="scale(0.015625)"/>
      <path id="DejaVuSans-65" d="M 3597 1894 
L 3597 1613 
L 953 1613 
Q 991 1019 1311 708 
Q 1631 397 2203 397 
Q 2534 397 2845 478 
Q 3156 559 3463 722 
L 3463 178 
Q 3153 47 2828 -22 
Q 2503 -91 2169 -91 
Q 1331 -91 842 396 
Q 353 884 353 1716 
Q 353 2575 817 3079 
Q 1281 3584 2069 3584 
Q 2775 3584 3186 3129 
Q 3597 2675 3597 1894 
z
M 3022 2063 
Q 3016 2534 2758 2815 
Q 2500 3097 2075 3097 
Q 1594 3097 1305 2825 
Q 1016 2553 972 2059 
L 3022 2063 
z
" transform="scale(0.015625)"/>
      <path id="DejaVuSans-6e" d="M 3513 2113 
L 3513 0 
L 2938 0 
L 2938 2094 
Q 2938 2591 2744 2837 
Q 2550 3084 2163 3084 
Q 1697 3084 1428 2787 
Q 1159 2491 1159 1978 
L 1159 0 
L 581 0 
L 581 3500 
L 1159 3500 
L 1159 2956 
Q 1366 3272 1645 3428 
Q 1925 3584 2291 3584 
Q 2894 3584 3203 3211 
Q 3513 2838 3513 2113 
z
" transform="scale(0.015625)"/>
      <path id="DejaVuSans-69" d="M 603 3500 
L 1178 3500 
L 1178 0 
L 603 0 
L 603 3500 
z
M 603 4863 
L 1178 4863 
L 1178 4134 
L 603 4134 
L 603 4863 
z
" transform="scale(0.015625)"/>
      <path id="DejaVuSans-67" d="M 2906 1791 
Q 2906 2416 2648 2759 
Q 2391 3103 1925 3103 
Q 1463 3103 1205 2759 
Q 947 2416 947 1791 
Q 947 1169 1205 825 
Q 1463 481 1925 481 
Q 2391 481 2648 825 
Q 2906 1169 2906 1791 
z
M 3481 434 
Q 3481 -459 3084 -895 
Q 2688 -1331 1869 -1331 
Q 1566 -1331 1297 -1286 
Q 1028 -1241 775 -1147 
L 775 -588 
Q 1028 -725 1275 -790 
Q 1522 -856 1778 -856 
Q 2344 -856 2625 -561 
Q 2906 -266 2906 331 
L 2906 616 
Q 2728 306 2450 153 
Q 2172 0 1784 0 
Q 1141 0 747 490 
Q 353 981 353 1791 
Q 353 2603 747 3093 
Q 1141 3584 1784 3584 
Q 2172 3584 2450 3431 
Q 2728 3278 2906 2969 
L 2906 3500 
L 3481 3500 
L 3481 434 
z
" transform="scale(0.015625)"/>
      <path id="DejaVuSans-20" transform="scale(0.015625)"/>
      <path id="DejaVuSans-43" d="M 4122 4306 
L 4122 3641 
Q 3803 3938 3442 4084 
Q 3081 4231 2675 4231 
Q 1875 4231 1450 3742 
Q 1025 3253 1025 2328 
Q 1025 1406 1450 917 
Q 1875 428 2675 428 
Q 3081 428 3442 575 
Q 3803 722 4122 1019 
L 4122 359 
Q 3791 134 3420 21 
Q 3050 -91 2638 -91 
Q 1578 -91 968 557 
Q 359 1206 359 2328 
Q 359 3453 968 4101 
Q 1578 4750 2638 4750 
Q 3056 4750 3426 4639 
Q 3797 4528 4122 4306 
z
" transform="scale(0.015625)"/>
      <path id="DejaVuSans-76" d="M 191 3500 
L 800 3500 
L 1894 563 
L 2988 3500 
L 3597 3500 
L 2284 0 
L 1503 0 
L 191 3500 
z
" transform="scale(0.015625)"/>
     </defs>
     <use xlink:href="#DejaVuSans-4c"/>
     <use xlink:href="#DejaVuSans-65" x="53.962891"/>
     <use xlink:href="#DejaVuSans-61" x="115.486328"/>
     <use xlink:href="#DejaVuSans-72" x="176.765625"/>
     <use xlink:href="#DejaVuSans-6e" x="216.128906"/>
     <use xlink:href="#DejaVuSans-69" x="279.507812"/>
     <use xlink:href="#DejaVuSans-6e" x="307.291016"/>
     <use xlink:href="#DejaVuSans-67" x="370.669922"/>
     <use xlink:href="#DejaVuSans-20" x="434.146484"/>
     <use xlink:href="#DejaVuSans-43" x="465.933594"/>
     <use xlink:href="#DejaVuSans-75" x="535.757812"/>
     <use xlink:href="#DejaVuSans-72" x="599.136719"/>
     <use xlink:href="#DejaVuSans-76" x="640.25"/>
     <use xlink:href="#DejaVuSans-65" x="699.429688"/>
     <use xlink:href="#DejaVuSans-73" x="760.953125"/>
    </g>
   </g>
   <g id="legend_1">
    <g id="patch_7">
     <path d="M 214.18875 302.584 
L 407.72 302.584 
Q 409.72 302.584 409.72 300.584 
L 409.72 228.193375 
Q 409.72 226.193375 407.72 226.193375 
L 214.18875 226.193375 
Q 212.18875 226.193375 212.18875 228.193375 
L 212.18875 300.584 
Q 212.18875 302.584 214.18875 302.584 
z
" style="fill: #ffffff; opacity: 0.8; stroke: #cccccc; stroke-linejoin: miter"/>
    </g>
    <g id="line2d_25">
     <path d="M 216.18875 234.291812 
L 226.18875 234.291812 
L 236.18875 234.291812 
" style="fill: none; stroke: #1f77b4; stroke-width: 1.5; stroke-linecap: square"/>
    </g>
    <g id="text_23">
     <!-- Train Accuracy -->
     <g transform="translate(244.18875 237.791812) scale(0.1 -0.1)">
      <defs>
       <path id="DejaVuSans-54" d="M -19 4666 
L 3928 4666 
L 3928 4134 
L 2272 4134 
L 2272 0 
L 1638 0 
L 1638 4134 
L -19 4134 
L -19 4666 
z
" transform="scale(0.015625)"/>
      </defs>
      <use xlink:href="#DejaVuSans-54"/>
      <use xlink:href="#DejaVuSans-72" x="46.333984"/>
      <use xlink:href="#DejaVuSans-61" x="87.447266"/>
      <use xlink:href="#DejaVuSans-69" x="148.726562"/>
      <use xlink:href="#DejaVuSans-6e" x="176.509766"/>
      <use xlink:href="#DejaVuSans-20" x="239.888672"/>
      <use xlink:href="#DejaVuSans-41" x="271.675781"/>
      <use xlink:href="#DejaVuSans-63" x="338.333984"/>
      <use xlink:href="#DejaVuSans-63" x="393.314453"/>
      <use xlink:href="#DejaVuSans-75" x="448.294922"/>
      <use xlink:href="#DejaVuSans-72" x="511.673828"/>
      <use xlink:href="#DejaVuSans-61" x="552.787109"/>
      <use xlink:href="#DejaVuSans-63" x="614.066406"/>
      <use xlink:href="#DejaVuSans-79" x="669.046875"/>
     </g>
    </g>
    <g id="line2d_26">
     <path d="M 216.18875 248.969937 
L 226.18875 248.969937 
L 236.18875 248.969937 
" style="fill: none; stroke: #ff7f0e; stroke-width: 1.5; stroke-linecap: square"/>
    </g>
    <g id="text_24">
     <!-- Validation Accuracy -->
     <g transform="translate(244.18875 252.469937) scale(0.1 -0.1)">
      <defs>
       <path id="DejaVuSans-56" d="M 1831 0 
L 50 4666 
L 709 4666 
L 2188 738 
L 3669 4666 
L 4325 4666 
L 2547 0 
L 1831 0 
z
" transform="scale(0.015625)"/>
       <path id="DejaVuSans-6c" d="M 603 4863 
L 1178 4863 
L 1178 0 
L 603 0 
L 603 4863 
z
" transform="scale(0.015625)"/>
       <path id="DejaVuSans-64" d="M 2906 2969 
L 2906 4863 
L 3481 4863 
L 3481 0 
L 2906 0 
L 2906 525 
Q 2725 213 2448 61 
Q 2172 -91 1784 -91 
Q 1150 -91 751 415 
Q 353 922 353 1747 
Q 353 2572 751 3078 
Q 1150 3584 1784 3584 
Q 2172 3584 2448 3432 
Q 2725 3281 2906 2969 
z
M 947 1747 
Q 947 1113 1208 752 
Q 1469 391 1925 391 
Q 2381 391 2643 752 
Q 2906 1113 2906 1747 
Q 2906 2381 2643 2742 
Q 2381 3103 1925 3103 
Q 1469 3103 1208 2742 
Q 947 2381 947 1747 
z
" transform="scale(0.015625)"/>
       <path id="DejaVuSans-74" d="M 1172 4494 
L 1172 3500 
L 2356 3500 
L 2356 3053 
L 1172 3053 
L 1172 1153 
Q 1172 725 1289 603 
Q 1406 481 1766 481 
L 2356 481 
L 2356 0 
L 1766 0 
Q 1100 0 847 248 
Q 594 497 594 1153 
L 594 3053 
L 172 3053 
L 172 3500 
L 594 3500 
L 594 4494 
L 1172 4494 
z
" transform="scale(0.015625)"/>
      </defs>
      <use xlink:href="#DejaVuSans-56"/>
      <use xlink:href="#DejaVuSans-61" x="60.658203"/>
      <use xlink:href="#DejaVuSans-6c" x="121.9375"/>
      <use xlink:href="#DejaVuSans-69" x="149.720703"/>
      <use xlink:href="#DejaVuSans-64" x="177.503906"/>
      <use xlink:href="#DejaVuSans-61" x="240.980469"/>
      <use xlink:href="#DejaVuSans-74" x="302.259766"/>
      <use xlink:href="#DejaVuSans-69" x="341.46875"/>
      <use xlink:href="#DejaVuSans-6f" x="369.251953"/>
      <use xlink:href="#DejaVuSans-6e" x="430.433594"/>
      <use xlink:href="#DejaVuSans-20" x="493.8125"/>
      <use xlink:href="#DejaVuSans-41" x="525.599609"/>
      <use xlink:href="#DejaVuSans-63" x="592.257812"/>
      <use xlink:href="#DejaVuSans-63" x="647.238281"/>
      <use xlink:href="#DejaVuSans-75" x="702.21875"/>
      <use xlink:href="#DejaVuSans-72" x="765.597656"/>
      <use xlink:href="#DejaVuSans-61" x="806.710938"/>
      <use xlink:href="#DejaVuSans-63" x="867.990234"/>
      <use xlink:href="#DejaVuSans-79" x="922.970703"/>
     </g>
    </g>
    <g id="line2d_27">
     <path d="M 216.18875 263.648062 
L 226.18875 263.648062 
L 236.18875 263.648062 
" style="fill: none; stroke: #2ca02c; stroke-width: 1.5; stroke-linecap: square"/>
    </g>
    <g id="text_25">
     <!-- Robust Validation Accuracy -->
     <g transform="translate(244.18875 267.148062) scale(0.1 -0.1)">
      <defs>
       <path id="DejaVuSans-52" d="M 2841 2188 
Q 3044 2119 3236 1894 
Q 3428 1669 3622 1275 
L 4263 0 
L 3584 0 
L 2988 1197 
Q 2756 1666 2539 1819 
Q 2322 1972 1947 1972 
L 1259 1972 
L 1259 0 
L 628 0 
L 628 4666 
L 2053 4666 
Q 2853 4666 3247 4331 
Q 3641 3997 3641 3322 
Q 3641 2881 3436 2590 
Q 3231 2300 2841 2188 
z
M 1259 4147 
L 1259 2491 
L 2053 2491 
Q 2509 2491 2742 2702 
Q 2975 2913 2975 3322 
Q 2975 3731 2742 3939 
Q 2509 4147 2053 4147 
L 1259 4147 
z
" transform="scale(0.015625)"/>
       <path id="DejaVuSans-62" d="M 3116 1747 
Q 3116 2381 2855 2742 
Q 2594 3103 2138 3103 
Q 1681 3103 1420 2742 
Q 1159 2381 1159 1747 
Q 1159 1113 1420 752 
Q 1681 391 2138 391 
Q 2594 391 2855 752 
Q 3116 1113 3116 1747 
z
M 1159 2969 
Q 1341 3281 1617 3432 
Q 1894 3584 2278 3584 
Q 2916 3584 3314 3078 
Q 3713 2572 3713 1747 
Q 3713 922 3314 415 
Q 2916 -91 2278 -91 
Q 1894 -91 1617 61 
Q 1341 213 1159 525 
L 1159 0 
L 581 0 
L 581 4863 
L 1159 4863 
L 1159 2969 
z
" transform="scale(0.015625)"/>
      </defs>
      <use xlink:href="#DejaVuSans-52"/>
      <use xlink:href="#DejaVuSans-6f" x="64.982422"/>
      <use xlink:href="#DejaVuSans-62" x="126.164062"/>
      <use xlink:href="#DejaVuSans-75" x="189.640625"/>
      <use xlink:href="#DejaVuSans-73" x="253.019531"/>
      <use xlink:href="#DejaVuSans-74" x="305.119141"/>
      <use xlink:href="#DejaVuSans-20" x="344.328125"/>
      <use xlink:href="#DejaVuSans-56" x="376.115234"/>
      <use xlink:href="#DejaVuSans-61" x="436.773438"/>
      <use xlink:href="#DejaVuSans-6c" x="498.052734"/>
      <use xlink:href="#DejaVuSans-69" x="525.835938"/>
      <use xlink:href="#DejaVuSans-64" x="553.619141"/>
      <use xlink:href="#DejaVuSans-61" x="617.095703"/>
      <use xlink:href="#DejaVuSans-74" x="678.375"/>
      <use xlink:href="#DejaVuSans-69" x="717.583984"/>
      <use xlink:href="#DejaVuSans-6f" x="745.367188"/>
      <use xlink:href="#DejaVuSans-6e" x="806.548828"/>
      <use xlink:href="#DejaVuSans-20" x="869.927734"/>
      <use xlink:href="#DejaVuSans-41" x="901.714844"/>
      <use xlink:href="#DejaVuSans-63" x="968.373047"/>
      <use xlink:href="#DejaVuSans-63" x="1023.353516"/>
      <use xlink:href="#DejaVuSans-75" x="1078.333984"/>
      <use xlink:href="#DejaVuSans-72" x="1141.712891"/>
      <use xlink:href="#DejaVuSans-61" x="1182.826172"/>
      <use xlink:href="#DejaVuSans-63" x="1244.105469"/>
      <use xlink:href="#DejaVuSans-79" x="1299.085938"/>
     </g>
    </g>
    <g id="line2d_28">
     <path d="M 216.18875 278.326188 
L 226.18875 278.326188 
L 236.18875 278.326188 
" style="fill: none; stroke: #d62728; stroke-width: 1.5; stroke-linecap: square"/>
    </g>
    <g id="text_26">
     <!-- SWA Validation Accuracy -->
     <g transform="translate(244.18875 281.826188) scale(0.1 -0.1)">
      <defs>
       <path id="DejaVuSans-53" d="M 3425 4513 
L 3425 3897 
Q 3066 4069 2747 4153 
Q 2428 4238 2131 4238 
Q 1616 4238 1336 4038 
Q 1056 3838 1056 3469 
Q 1056 3159 1242 3001 
Q 1428 2844 1947 2747 
L 2328 2669 
Q 3034 2534 3370 2195 
Q 3706 1856 3706 1288 
Q 3706 609 3251 259 
Q 2797 -91 1919 -91 
Q 1588 -91 1214 -16 
Q 841 59 441 206 
L 441 856 
Q 825 641 1194 531 
Q 1563 422 1919 422 
Q 2459 422 2753 634 
Q 3047 847 3047 1241 
Q 3047 1584 2836 1778 
Q 2625 1972 2144 2069 
L 1759 2144 
Q 1053 2284 737 2584 
Q 422 2884 422 3419 
Q 422 4038 858 4394 
Q 1294 4750 2059 4750 
Q 2388 4750 2728 4690 
Q 3069 4631 3425 4513 
z
" transform="scale(0.015625)"/>
       <path id="DejaVuSans-57" d="M 213 4666 
L 850 4666 
L 1831 722 
L 2809 4666 
L 3519 4666 
L 4500 722 
L 5478 4666 
L 6119 4666 
L 4947 0 
L 4153 0 
L 3169 4050 
L 2175 0 
L 1381 0 
L 213 4666 
z
" transform="scale(0.015625)"/>
      </defs>
      <use xlink:href="#DejaVuSans-53"/>
      <use xlink:href="#DejaVuSans-57" x="63.476562"/>
      <use xlink:href="#DejaVuSans-41" x="156.853516"/>
      <use xlink:href="#DejaVuSans-20" x="225.261719"/>
      <use xlink:href="#DejaVuSans-56" x="257.048828"/>
      <use xlink:href="#DejaVuSans-61" x="317.707031"/>
      <use xlink:href="#DejaVuSans-6c" x="378.986328"/>
      <use xlink:href="#DejaVuSans-69" x="406.769531"/>
      <use xlink:href="#DejaVuSans-64" x="434.552734"/>
      <use xlink:href="#DejaVuSans-61" x="498.029297"/>
      <use xlink:href="#DejaVuSans-74" x="559.308594"/>
      <use xlink:href="#DejaVuSans-69" x="598.517578"/>
      <use xlink:href="#DejaVuSans-6f" x="626.300781"/>
      <use xlink:href="#DejaVuSans-6e" x="687.482422"/>
      <use xlink:href="#DejaVuSans-20" x="750.861328"/>
      <use xlink:href="#DejaVuSans-41" x="782.648438"/>
      <use xlink:href="#DejaVuSans-63" x="849.306641"/>
      <use xlink:href="#DejaVuSans-63" x="904.287109"/>
      <use xlink:href="#DejaVuSans-75" x="959.267578"/>
      <use xlink:href="#DejaVuSans-72" x="1022.646484"/>
      <use xlink:href="#DejaVuSans-61" x="1063.759766"/>
      <use xlink:href="#DejaVuSans-63" x="1125.039062"/>
      <use xlink:href="#DejaVuSans-79" x="1180.019531"/>
     </g>
    </g>
    <g id="line2d_29">
     <path d="M 216.18875 293.004312 
L 226.18875 293.004312 
L 236.18875 293.004312 
" style="fill: none; stroke: #9467bd; stroke-width: 1.5; stroke-linecap: square"/>
    </g>
    <g id="text_27">
     <!-- SWA Robust Validation Accuracy -->
     <g transform="translate(244.18875 296.504312) scale(0.1 -0.1)">
      <use xlink:href="#DejaVuSans-53"/>
      <use xlink:href="#DejaVuSans-57" x="63.476562"/>
      <use xlink:href="#DejaVuSans-41" x="156.853516"/>
      <use xlink:href="#DejaVuSans-20" x="225.261719"/>
      <use xlink:href="#DejaVuSans-52" x="257.048828"/>
      <use xlink:href="#DejaVuSans-6f" x="322.03125"/>
      <use xlink:href="#DejaVuSans-62" x="383.212891"/>
      <use xlink:href="#DejaVuSans-75" x="446.689453"/>
      <use xlink:href="#DejaVuSans-73" x="510.068359"/>
      <use xlink:href="#DejaVuSans-74" x="562.167969"/>
      <use xlink:href="#DejaVuSans-20" x="601.376953"/>
      <use xlink:href="#DejaVuSans-56" x="633.164062"/>
      <use xlink:href="#DejaVuSans-61" x="693.822266"/>
      <use xlink:href="#DejaVuSans-6c" x="755.101562"/>
      <use xlink:href="#DejaVuSans-69" x="782.884766"/>
      <use xlink:href="#DejaVuSans-64" x="810.667969"/>
      <use xlink:href="#DejaVuSans-61" x="874.144531"/>
      <use xlink:href="#DejaVuSans-74" x="935.423828"/>
      <use xlink:href="#DejaVuSans-69" x="974.632812"/>
      <use xlink:href="#DejaVuSans-6f" x="1002.416016"/>
      <use xlink:href="#DejaVuSans-6e" x="1063.597656"/>
      <use xlink:href="#DejaVuSans-20" x="1126.976562"/>
      <use xlink:href="#DejaVuSans-41" x="1158.763672"/>
      <use xlink:href="#DejaVuSans-63" x="1225.421875"/>
      <use xlink:href="#DejaVuSans-63" x="1280.402344"/>
      <use xlink:href="#DejaVuSans-75" x="1335.382812"/>
      <use xlink:href="#DejaVuSans-72" x="1398.761719"/>
      <use xlink:href="#DejaVuSans-61" x="1439.875"/>
      <use xlink:href="#DejaVuSans-63" x="1501.154297"/>
      <use xlink:href="#DejaVuSans-79" x="1556.134766"/>
     </g>
    </g>
   </g>
  </g>
 </g>
 <defs>
  <clipPath id="pdaabe3c849">
   <rect x="57.6" y="41.472" width="357.12" height="266.112"/>
  </clipPath>
 </defs>
</svg>
