<?xml version="1.0" encoding="utf-8" standalone="no"?>
<!DOCTYPE svg PUBLIC "-//W3C//DTD SVG 1.1//EN"
  "http://www.w3.org/Graphics/SVG/1.1/DTD/svg11.dtd">
<svg xmlns:xlink="http://www.w3.org/1999/xlink" width="460.8pt" height="345.6pt" viewBox="0 0 460.8 345.6" xmlns="http://www.w3.org/2000/svg" version="1.1">
 <metadata>
  <rdf:RDF xmlns:dc="http://purl.org/dc/elements/1.1/" xmlns:cc="http://creativecommons.org/ns#" xmlns:rdf="http://www.w3.org/1999/02/22-rdf-syntax-ns#">
   <cc:Work>
    <dc:type rdf:resource="http://purl.org/dc/dcmitype/StillImage"/>
    <dc:date>2025-02-27T20:57:25.872874</dc:date>
    <dc:format>image/svg+xml</dc:format>
    <dc:creator>
     <cc:Agent>
      <dc:title>Matplotlib v3.9.1, https://matplotlib.org/</dc:title>
     </cc:Agent>
    </dc:creator>
   </cc:Work>
  </rdf:RDF>
 </metadata>
 <defs>
  <style type="text/css">*{stroke-linejoin: round; stroke-linecap: butt}</style>
 </defs>
 <g id="figure_1">
  <g id="patch_1">
   <path d="M 0 345.6 
L 460.8 345.6 
L 460.8 0 
L 0 0 
z
" style="fill: #ffffff"/>
  </g>
  <g id="axes_1">
   <g id="patch_2">
    <path d="M 57.6 307.584 
L 414.72 307.584 
L 414.72 41.472 
L 57.6 41.472 
z
" style="fill: #ffffff"/>
   </g>
   <g id="matplotlib.axis_1">
    <g id="xtick_1">
     <g id="line2d_1">
      <defs>
       <path id="m16da985c5d" d="M 0 0 
L 0 3.5 
" style="stroke: #000000; stroke-width: 0.8"/>
      </defs>
      <g>
       <use xlink:href="#m16da985c5d" x="73.832727" y="307.584" style="stroke: #000000; stroke-width: 0.8"/>
      </g>
     </g>
     <g id="text_1">
      <!-- 1 -->
      <g transform="translate(70.651477 322.182437) scale(0.1 -0.1)">
       <defs>
        <path id="DejaVuSans-31" d="M 794 531 
L 1825 531 
L 1825 4091 
L 703 3866 
L 703 4441 
L 1819 4666 
L 2450 4666 
L 2450 531 
L 3481 531 
L 3481 0 
L 794 0 
L 794 531 
z
" transform="scale(0.015625)"/>
       </defs>
       <use xlink:href="#DejaVuSans-31"/>
      </g>
     </g>
    </g>
    <g id="xtick_2">
     <g id="line2d_2">
      <g>
       <use xlink:href="#m16da985c5d" x="109.664165" y="307.584" style="stroke: #000000; stroke-width: 0.8"/>
      </g>
     </g>
     <g id="text_2">
      <!-- 34 -->
      <g transform="translate(103.301665 322.182437) scale(0.1 -0.1)">
       <defs>
        <path id="DejaVuSans-33" d="M 2597 2516 
Q 3050 2419 3304 2112 
Q 3559 1806 3559 1356 
Q 3559 666 3084 287 
Q 2609 -91 1734 -91 
Q 1441 -91 1130 -33 
Q 819 25 488 141 
L 488 750 
Q 750 597 1062 519 
Q 1375 441 1716 441 
Q 2309 441 2620 675 
Q 2931 909 2931 1356 
Q 2931 1769 2642 2001 
Q 2353 2234 1838 2234 
L 1294 2234 
L 1294 2753 
L 1863 2753 
Q 2328 2753 2575 2939 
Q 2822 3125 2822 3475 
Q 2822 3834 2567 4026 
Q 2313 4219 1838 4219 
Q 1578 4219 1281 4162 
Q 984 4106 628 3988 
L 628 4550 
Q 988 4650 1302 4700 
Q 1616 4750 1894 4750 
Q 2613 4750 3031 4423 
Q 3450 4097 3450 3541 
Q 3450 3153 3228 2886 
Q 3006 2619 2597 2516 
z
" transform="scale(0.015625)"/>
        <path id="DejaVuSans-34" d="M 2419 4116 
L 825 1625 
L 2419 1625 
L 2419 4116 
z
M 2253 4666 
L 3047 4666 
L 3047 1625 
L 3713 1625 
L 3713 1100 
L 3047 1100 
L 3047 0 
L 2419 0 
L 2419 1100 
L 313 1100 
L 313 1709 
L 2253 4666 
z
" transform="scale(0.015625)"/>
       </defs>
       <use xlink:href="#DejaVuSans-33"/>
       <use xlink:href="#DejaVuSans-34" x="63.623047"/>
      </g>
     </g>
    </g>
    <g id="xtick_3">
     <g id="line2d_3">
      <g>
       <use xlink:href="#m16da985c5d" x="145.495604" y="307.584" style="stroke: #000000; stroke-width: 0.8"/>
      </g>
     </g>
     <g id="text_3">
      <!-- 67 -->
      <g transform="translate(139.133104 322.182437) scale(0.1 -0.1)">
       <defs>
        <path id="DejaVuSans-36" d="M 2113 2584 
Q 1688 2584 1439 2293 
Q 1191 2003 1191 1497 
Q 1191 994 1439 701 
Q 1688 409 2113 409 
Q 2538 409 2786 701 
Q 3034 994 3034 1497 
Q 3034 2003 2786 2293 
Q 2538 2584 2113 2584 
z
M 3366 4563 
L 3366 3988 
Q 3128 4100 2886 4159 
Q 2644 4219 2406 4219 
Q 1781 4219 1451 3797 
Q 1122 3375 1075 2522 
Q 1259 2794 1537 2939 
Q 1816 3084 2150 3084 
Q 2853 3084 3261 2657 
Q 3669 2231 3669 1497 
Q 3669 778 3244 343 
Q 2819 -91 2113 -91 
Q 1303 -91 875 529 
Q 447 1150 447 2328 
Q 447 3434 972 4092 
Q 1497 4750 2381 4750 
Q 2619 4750 2861 4703 
Q 3103 4656 3366 4563 
z
" transform="scale(0.015625)"/>
        <path id="DejaVuSans-37" d="M 525 4666 
L 3525 4666 
L 3525 4397 
L 1831 0 
L 1172 0 
L 2766 4134 
L 525 4134 
L 525 4666 
z
" transform="scale(0.015625)"/>
       </defs>
       <use xlink:href="#DejaVuSans-36"/>
       <use xlink:href="#DejaVuSans-37" x="63.623047"/>
      </g>
     </g>
    </g>
    <g id="xtick_4">
     <g id="line2d_4">
      <g>
       <use xlink:href="#m16da985c5d" x="181.327042" y="307.584" style="stroke: #000000; stroke-width: 0.8"/>
      </g>
     </g>
     <g id="text_4">
      <!-- 100 -->
      <g transform="translate(171.783292 322.182437) scale(0.1 -0.1)">
       <defs>
        <path id="DejaVuSans-30" d="M 2034 4250 
Q 1547 4250 1301 3770 
Q 1056 3291 1056 2328 
Q 1056 1369 1301 889 
Q 1547 409 2034 409 
Q 2525 409 2770 889 
Q 3016 1369 3016 2328 
Q 3016 3291 2770 3770 
Q 2525 4250 2034 4250 
z
M 2034 4750 
Q 2819 4750 3233 4129 
Q 3647 3509 3647 2328 
Q 3647 1150 3233 529 
Q 2819 -91 2034 -91 
Q 1250 -91 836 529 
Q 422 1150 422 2328 
Q 422 3509 836 4129 
Q 1250 4750 2034 4750 
z
" transform="scale(0.015625)"/>
       </defs>
       <use xlink:href="#DejaVuSans-31"/>
       <use xlink:href="#DejaVuSans-30" x="63.623047"/>
       <use xlink:href="#DejaVuSans-30" x="127.246094"/>
      </g>
     </g>
    </g>
    <g id="xtick_5">
     <g id="line2d_5">
      <g>
       <use xlink:href="#m16da985c5d" x="217.15848" y="307.584" style="stroke: #000000; stroke-width: 0.8"/>
      </g>
     </g>
     <g id="text_5">
      <!-- 133 -->
      <g transform="translate(207.61473 322.182437) scale(0.1 -0.1)">
       <use xlink:href="#DejaVuSans-31"/>
       <use xlink:href="#DejaVuSans-33" x="63.623047"/>
       <use xlink:href="#DejaVuSans-33" x="127.246094"/>
      </g>
     </g>
    </g>
    <g id="xtick_6">
     <g id="line2d_6">
      <g>
       <use xlink:href="#m16da985c5d" x="254.075719" y="307.584" style="stroke: #000000; stroke-width: 0.8"/>
      </g>
     </g>
     <g id="text_6">
      <!-- 167 -->
      <g transform="translate(244.531969 322.182437) scale(0.1 -0.1)">
       <use xlink:href="#DejaVuSans-31"/>
       <use xlink:href="#DejaVuSans-36" x="63.623047"/>
       <use xlink:href="#DejaVuSans-37" x="127.246094"/>
      </g>
     </g>
    </g>
    <g id="xtick_7">
     <g id="line2d_7">
      <g>
       <use xlink:href="#m16da985c5d" x="289.907157" y="307.584" style="stroke: #000000; stroke-width: 0.8"/>
      </g>
     </g>
     <g id="text_7">
      <!-- 200 -->
      <g transform="translate(280.363407 322.182437) scale(0.1 -0.1)">
       <defs>
        <path id="DejaVuSans-32" d="M 1228 531 
L 3431 531 
L 3431 0 
L 469 0 
L 469 531 
Q 828 903 1448 1529 
Q 2069 2156 2228 2338 
Q 2531 2678 2651 2914 
Q 2772 3150 2772 3378 
Q 2772 3750 2511 3984 
Q 2250 4219 1831 4219 
Q 1534 4219 1204 4116 
Q 875 4013 500 3803 
L 500 4441 
Q 881 4594 1212 4672 
Q 1544 4750 1819 4750 
Q 2544 4750 2975 4387 
Q 3406 4025 3406 3419 
Q 3406 3131 3298 2873 
Q 3191 2616 2906 2266 
Q 2828 2175 2409 1742 
Q 1991 1309 1228 531 
z
" transform="scale(0.015625)"/>
       </defs>
       <use xlink:href="#DejaVuSans-32"/>
       <use xlink:href="#DejaVuSans-30" x="63.623047"/>
       <use xlink:href="#DejaVuSans-30" x="127.246094"/>
      </g>
     </g>
    </g>
    <g id="xtick_8">
     <g id="line2d_8">
      <g>
       <use xlink:href="#m16da985c5d" x="325.738595" y="307.584" style="stroke: #000000; stroke-width: 0.8"/>
      </g>
     </g>
     <g id="text_8">
      <!-- 233 -->
      <g transform="translate(316.194845 322.182437) scale(0.1 -0.1)">
       <use xlink:href="#DejaVuSans-32"/>
       <use xlink:href="#DejaVuSans-33" x="63.623047"/>
       <use xlink:href="#DejaVuSans-33" x="127.246094"/>
      </g>
     </g>
    </g>
    <g id="xtick_9">
     <g id="line2d_9">
      <g>
       <use xlink:href="#m16da985c5d" x="361.570033" y="307.584" style="stroke: #000000; stroke-width: 0.8"/>
      </g>
     </g>
     <g id="text_9">
      <!-- 266 -->
      <g transform="translate(352.026283 322.182437) scale(0.1 -0.1)">
       <use xlink:href="#DejaVuSans-32"/>
       <use xlink:href="#DejaVuSans-36" x="63.623047"/>
       <use xlink:href="#DejaVuSans-36" x="127.246094"/>
      </g>
     </g>
    </g>
    <g id="xtick_10">
     <g id="line2d_10">
      <g>
       <use xlink:href="#m16da985c5d" x="398.487273" y="307.584" style="stroke: #000000; stroke-width: 0.8"/>
      </g>
     </g>
     <g id="text_10">
      <!-- 300 -->
      <g transform="translate(388.943523 322.182437) scale(0.1 -0.1)">
       <use xlink:href="#DejaVuSans-33"/>
       <use xlink:href="#DejaVuSans-30" x="63.623047"/>
       <use xlink:href="#DejaVuSans-30" x="127.246094"/>
      </g>
     </g>
    </g>
    <g id="text_11">
     <!-- Epochs -->
     <g transform="translate(218.244375 335.860562) scale(0.1 -0.1)">
      <defs>
       <path id="DejaVuSans-45" d="M 628 4666 
L 3578 4666 
L 3578 4134 
L 1259 4134 
L 1259 2753 
L 3481 2753 
L 3481 2222 
L 1259 2222 
L 1259 531 
L 3634 531 
L 3634 0 
L 628 0 
L 628 4666 
z
" transform="scale(0.015625)"/>
       <path id="DejaVuSans-70" d="M 1159 525 
L 1159 -1331 
L 581 -1331 
L 581 3500 
L 1159 3500 
L 1159 2969 
Q 1341 3281 1617 3432 
Q 1894 3584 2278 3584 
Q 2916 3584 3314 3078 
Q 3713 2572 3713 1747 
Q 3713 922 3314 415 
Q 2916 -91 2278 -91 
Q 1894 -91 1617 61 
Q 1341 213 1159 525 
z
M 3116 1747 
Q 3116 2381 2855 2742 
Q 2594 3103 2138 3103 
Q 1681 3103 1420 2742 
Q 1159 2381 1159 1747 
Q 1159 1113 1420 752 
Q 1681 391 2138 391 
Q 2594 391 2855 752 
Q 3116 1113 3116 1747 
z
" transform="scale(0.015625)"/>
       <path id="DejaVuSans-6f" d="M 1959 3097 
Q 1497 3097 1228 2736 
Q 959 2375 959 1747 
Q 959 1119 1226 758 
Q 1494 397 1959 397 
Q 2419 397 2687 759 
Q 2956 1122 2956 1747 
Q 2956 2369 2687 2733 
Q 2419 3097 1959 3097 
z
M 1959 3584 
Q 2709 3584 3137 3096 
Q 3566 2609 3566 1747 
Q 3566 888 3137 398 
Q 2709 -91 1959 -91 
Q 1206 -91 779 398 
Q 353 888 353 1747 
Q 353 2609 779 3096 
Q 1206 3584 1959 3584 
z
" transform="scale(0.015625)"/>
       <path id="DejaVuSans-63" d="M 3122 3366 
L 3122 2828 
Q 2878 2963 2633 3030 
Q 2388 3097 2138 3097 
Q 1578 3097 1268 2742 
Q 959 2388 959 1747 
Q 959 1106 1268 751 
Q 1578 397 2138 397 
Q 2388 397 2633 464 
Q 2878 531 3122 666 
L 3122 134 
Q 2881 22 2623 -34 
Q 2366 -91 2075 -91 
Q 1284 -91 818 406 
Q 353 903 353 1747 
Q 353 2603 823 3093 
Q 1294 3584 2113 3584 
Q 2378 3584 2631 3529 
Q 2884 3475 3122 3366 
z
" transform="scale(0.015625)"/>
       <path id="DejaVuSans-68" d="M 3513 2113 
L 3513 0 
L 2938 0 
L 2938 2094 
Q 2938 2591 2744 2837 
Q 2550 3084 2163 3084 
Q 1697 3084 1428 2787 
Q 1159 2491 1159 1978 
L 1159 0 
L 581 0 
L 581 4863 
L 1159 4863 
L 1159 2956 
Q 1366 3272 1645 3428 
Q 1925 3584 2291 3584 
Q 2894 3584 3203 3211 
Q 3513 2838 3513 2113 
z
" transform="scale(0.015625)"/>
       <path id="DejaVuSans-73" d="M 2834 3397 
L 2834 2853 
Q 2591 2978 2328 3040 
Q 2066 3103 1784 3103 
Q 1356 3103 1142 2972 
Q 928 2841 928 2578 
Q 928 2378 1081 2264 
Q 1234 2150 1697 2047 
L 1894 2003 
Q 2506 1872 2764 1633 
Q 3022 1394 3022 966 
Q 3022 478 2636 193 
Q 2250 -91 1575 -91 
Q 1294 -91 989 -36 
Q 684 19 347 128 
L 347 722 
Q 666 556 975 473 
Q 1284 391 1588 391 
Q 1994 391 2212 530 
Q 2431 669 2431 922 
Q 2431 1156 2273 1281 
Q 2116 1406 1581 1522 
L 1381 1569 
Q 847 1681 609 1914 
Q 372 2147 372 2553 
Q 372 3047 722 3315 
Q 1072 3584 1716 3584 
Q 2034 3584 2315 3537 
Q 2597 3491 2834 3397 
z
" transform="scale(0.015625)"/>
      </defs>
      <use xlink:href="#DejaVuSans-45"/>
      <use xlink:href="#DejaVuSans-70" x="63.183594"/>
      <use xlink:href="#DejaVuSans-6f" x="126.660156"/>
      <use xlink:href="#DejaVuSans-63" x="187.841797"/>
      <use xlink:href="#DejaVuSans-68" x="242.822266"/>
      <use xlink:href="#DejaVuSans-73" x="306.201172"/>
     </g>
    </g>
   </g>
   <g id="matplotlib.axis_2">
    <g id="ytick_1">
     <g id="line2d_11">
      <defs>
       <path id="m5391f497f5" d="M 0 0 
L -3.5 0 
" style="stroke: #000000; stroke-width: 0.8"/>
      </defs>
      <g>
       <use xlink:href="#m5391f497f5" x="57.6" y="261.293218" style="stroke: #000000; stroke-width: 0.8"/>
      </g>
     </g>
     <g id="text_12">
      <!-- 20 -->
      <g transform="translate(37.875 265.092436) scale(0.1 -0.1)">
       <use xlink:href="#DejaVuSans-32"/>
       <use xlink:href="#DejaVuSans-30" x="63.623047"/>
      </g>
     </g>
    </g>
    <g id="ytick_2">
     <g id="line2d_12">
      <g>
       <use xlink:href="#m5391f497f5" x="57.6" y="203.403627" style="stroke: #000000; stroke-width: 0.8"/>
      </g>
     </g>
     <g id="text_13">
      <!-- 40 -->
      <g transform="translate(37.875 207.202846) scale(0.1 -0.1)">
       <use xlink:href="#DejaVuSans-34"/>
       <use xlink:href="#DejaVuSans-30" x="63.623047"/>
      </g>
     </g>
    </g>
    <g id="ytick_3">
     <g id="line2d_13">
      <g>
       <use xlink:href="#m5391f497f5" x="57.6" y="145.514037" style="stroke: #000000; stroke-width: 0.8"/>
      </g>
     </g>
     <g id="text_14">
      <!-- 60 -->
      <g transform="translate(37.875 149.313255) scale(0.1 -0.1)">
       <use xlink:href="#DejaVuSans-36"/>
       <use xlink:href="#DejaVuSans-30" x="63.623047"/>
      </g>
     </g>
    </g>
    <g id="ytick_4">
     <g id="line2d_14">
      <g>
       <use xlink:href="#m5391f497f5" x="57.6" y="87.624446" style="stroke: #000000; stroke-width: 0.8"/>
      </g>
     </g>
     <g id="text_15">
      <!-- 80 -->
      <g transform="translate(37.875 91.423665) scale(0.1 -0.1)">
       <defs>
        <path id="DejaVuSans-38" d="M 2034 2216 
Q 1584 2216 1326 1975 
Q 1069 1734 1069 1313 
Q 1069 891 1326 650 
Q 1584 409 2034 409 
Q 2484 409 2743 651 
Q 3003 894 3003 1313 
Q 3003 1734 2745 1975 
Q 2488 2216 2034 2216 
z
M 1403 2484 
Q 997 2584 770 2862 
Q 544 3141 544 3541 
Q 544 4100 942 4425 
Q 1341 4750 2034 4750 
Q 2731 4750 3128 4425 
Q 3525 4100 3525 3541 
Q 3525 3141 3298 2862 
Q 3072 2584 2669 2484 
Q 3125 2378 3379 2068 
Q 3634 1759 3634 1313 
Q 3634 634 3220 271 
Q 2806 -91 2034 -91 
Q 1263 -91 848 271 
Q 434 634 434 1313 
Q 434 1759 690 2068 
Q 947 2378 1403 2484 
z
M 1172 3481 
Q 1172 3119 1398 2916 
Q 1625 2713 2034 2713 
Q 2441 2713 2670 2916 
Q 2900 3119 2900 3481 
Q 2900 3844 2670 4047 
Q 2441 4250 2034 4250 
Q 1625 4250 1398 4047 
Q 1172 3844 1172 3481 
z
" transform="scale(0.015625)"/>
       </defs>
       <use xlink:href="#DejaVuSans-38"/>
       <use xlink:href="#DejaVuSans-30" x="63.623047"/>
      </g>
     </g>
    </g>
    <g id="text_16">
     <!-- Accuracy -->
     <g transform="translate(31.795312 197.356125) rotate(-90) scale(0.1 -0.1)">
      <defs>
       <path id="DejaVuSans-41" d="M 2188 4044 
L 1331 1722 
L 3047 1722 
L 2188 4044 
z
M 1831 4666 
L 2547 4666 
L 4325 0 
L 3669 0 
L 3244 1197 
L 1141 1197 
L 716 0 
L 50 0 
L 1831 4666 
z
" transform="scale(0.015625)"/>
       <path id="DejaVuSans-75" d="M 544 1381 
L 544 3500 
L 1119 3500 
L 1119 1403 
Q 1119 906 1312 657 
Q 1506 409 1894 409 
Q 2359 409 2629 706 
Q 2900 1003 2900 1516 
L 2900 3500 
L 3475 3500 
L 3475 0 
L 2900 0 
L 2900 538 
Q 2691 219 2414 64 
Q 2138 -91 1772 -91 
Q 1169 -91 856 284 
Q 544 659 544 1381 
z
M 1991 3584 
L 1991 3584 
z
" transform="scale(0.015625)"/>
       <path id="DejaVuSans-72" d="M 2631 2963 
Q 2534 3019 2420 3045 
Q 2306 3072 2169 3072 
Q 1681 3072 1420 2755 
Q 1159 2438 1159 1844 
L 1159 0 
L 581 0 
L 581 3500 
L 1159 3500 
L 1159 2956 
Q 1341 3275 1631 3429 
Q 1922 3584 2338 3584 
Q 2397 3584 2469 3576 
Q 2541 3569 2628 3553 
L 2631 2963 
z
" transform="scale(0.015625)"/>
       <path id="DejaVuSans-61" d="M 2194 1759 
Q 1497 1759 1228 1600 
Q 959 1441 959 1056 
Q 959 750 1161 570 
Q 1363 391 1709 391 
Q 2188 391 2477 730 
Q 2766 1069 2766 1631 
L 2766 1759 
L 2194 1759 
z
M 3341 1997 
L 3341 0 
L 2766 0 
L 2766 531 
Q 2569 213 2275 61 
Q 1981 -91 1556 -91 
Q 1019 -91 701 211 
Q 384 513 384 1019 
Q 384 1609 779 1909 
Q 1175 2209 1959 2209 
L 2766 2209 
L 2766 2266 
Q 2766 2663 2505 2880 
Q 2244 3097 1772 3097 
Q 1472 3097 1187 3025 
Q 903 2953 641 2809 
L 641 3341 
Q 956 3463 1253 3523 
Q 1550 3584 1831 3584 
Q 2591 3584 2966 3190 
Q 3341 2797 3341 1997 
z
" transform="scale(0.015625)"/>
       <path id="DejaVuSans-79" d="M 2059 -325 
Q 1816 -950 1584 -1140 
Q 1353 -1331 966 -1331 
L 506 -1331 
L 506 -850 
L 844 -850 
Q 1081 -850 1212 -737 
Q 1344 -625 1503 -206 
L 1606 56 
L 191 3500 
L 800 3500 
L 1894 763 
L 2988 3500 
L 3597 3500 
L 2059 -325 
z
" transform="scale(0.015625)"/>
      </defs>
      <use xlink:href="#DejaVuSans-41"/>
      <use xlink:href="#DejaVuSans-63" x="66.658203"/>
      <use xlink:href="#DejaVuSans-63" x="121.638672"/>
      <use xlink:href="#DejaVuSans-75" x="176.619141"/>
      <use xlink:href="#DejaVuSans-72" x="239.998047"/>
      <use xlink:href="#DejaVuSans-61" x="281.111328"/>
      <use xlink:href="#DejaVuSans-63" x="342.390625"/>
      <use xlink:href="#DejaVuSans-79" x="397.371094"/>
     </g>
    </g>
   </g>
   <g id="line2d_15">
    <path d="M 73.832727 294.81708 
L 74.918528 259.782299 
L 76.00433 219.797959 
L 77.090131 189.214889 
L 78.175932 166.956341 
L 79.261733 153.126518 
L 80.347534 142.457466 
L 81.433335 133.774028 
L 82.519137 126.468361 
L 83.604938 120.476789 
L 84.690739 116.650287 
L 85.77654 110.351899 
L 87.948142 102.496282 
L 89.033943 99.89125 
L 90.119745 95.364284 
L 91.205546 94.05598 
L 92.291347 93.095012 
L 93.377148 90.304734 
L 94.462949 88.93854 
L 95.54875 116.071391 
L 96.634552 114.826765 
L 97.720353 112.696428 
L 98.806154 111.393912 
L 99.891955 108.429965 
L 102.063557 103.434093 
L 103.149358 102.432603 
L 105.320961 98.189296 
L 106.406762 96.157372 
L 107.492563 94.397528 
L 108.578364 93.448139 
L 109.664165 91.769341 
L 110.749967 89.378501 
L 111.835768 88.625936 
L 112.921569 88.27281 
L 114.00737 86.536122 
L 115.093171 85.916703 
L 116.178972 84.133704 
L 117.264773 81.800753 
L 118.350575 82.177036 
L 119.436376 79.415702 
L 121.607978 77.267998 
L 122.693779 76.671736 
L 123.77958 74.738223 
L 124.865382 74.275107 
L 127.036984 72.277916 
L 128.122785 70.483338 
L 129.208586 70.460183 
L 130.294387 69.690251 
L 131.380189 69.499215 
L 133.551791 67.976719 
L 134.637592 67.727794 
L 135.723393 67.119953 
L 136.809194 66.720515 
L 137.894995 66.483168 
L 138.980797 88.371222 
L 140.066598 88.759082 
L 141.152399 89.824251 
L 143.324001 88.979063 
L 144.409802 89.552169 
L 145.495604 87.346576 
L 146.581405 87.514456 
L 147.667206 86.472443 
L 148.753007 86.646112 
L 149.838808 85.858814 
L 150.924609 85.250973 
L 152.01041 84.457886 
L 153.096212 84.481041 
L 154.182013 83.300094 
L 155.267814 82.593841 
L 156.353615 82.715409 
L 157.439416 81.661818 
L 158.525217 81.574984 
L 159.611019 80.868731 
L 160.69682 80.787685 
L 161.782621 79.027842 
L 162.868422 79.479381 
L 163.954223 79.670416 
L 165.040024 77.563235 
L 166.125825 77.748482 
L 167.211627 77.366411 
L 168.297428 77.580602 
L 169.383229 76.011794 
L 170.46903 76.492278 
L 171.554831 75.155028 
L 172.640632 74.848213 
L 173.726434 73.968292 
L 174.812235 74.026181 
L 175.898036 73.175204 
L 176.983837 73.105737 
L 178.069638 72.081091 
L 179.155439 71.849533 
L 180.24124 72.023201 
L 181.327042 71.664286 
L 182.412843 70.425449 
L 183.498644 69.944965 
L 184.584445 69.099777 
L 185.670246 69.690251 
L 186.756047 68.682972 
L 187.841849 68.572982 
L 188.92765 66.871028 
L 190.013451 67.009963 
L 191.099252 65.753759 
L 192.185053 66.847872 
L 193.270854 65.672713 
L 196.528258 64.156006 
L 198.69986 62.726133 
L 199.785661 62.170393 
L 200.871462 62.511942 
L 201.957264 61.996724 
L 203.043065 61.255738 
L 205.214667 60.995234 
L 207.386269 59.808498 
L 208.472071 59.646407 
L 209.557872 59.18329 
L 210.643673 58.870686 
L 211.729474 59.212235 
L 212.815275 58.372836 
L 213.901076 58.587027 
L 214.986877 58.546505 
L 216.072679 57.429236 
L 217.15848 57.40608 
L 219.330082 56.786661 
L 220.415883 57.064531 
L 221.501684 57.562382 
L 222.587486 56.832973 
L 223.673287 57.116632 
L 224.759088 56.271444 
L 225.844889 77.262209 
L 226.93069 80.249312 
L 228.016491 79.913553 
L 229.102292 79.276767 
L 230.188094 79.890397 
L 232.359696 79.062576 
L 233.445497 80.006176 
L 234.531298 78.362112 
L 235.617099 78.460524 
L 236.702901 78.118975 
L 237.788702 78.784706 
L 238.874503 77.487979 
L 239.960304 77.748482 
L 241.046105 78.275277 
L 244.303509 77.007495 
L 245.38931 76.052317 
L 246.475111 76.943817 
L 247.560912 76.909083 
L 248.646713 76.208619 
L 249.732514 75.681824 
L 250.818316 76.220197 
L 251.904117 75.149239 
L 252.989918 75.988638 
L 254.075719 75.600778 
L 255.16152 75.826548 
L 256.247321 74.541399 
L 257.333123 75.317119 
L 258.418924 74.350363 
L 260.590526 73.927769 
L 261.676327 74.25774 
L 262.762128 73.881457 
L 263.847929 74.315629 
L 266.019532 73.140471 
L 267.105333 73.377818 
L 268.191134 72.295283 
L 269.276935 73.852513 
L 270.362736 71.670075 
L 271.448538 72.966802 
L 272.534339 72.677354 
L 273.62014 72.53263 
L 274.705941 71.878477 
L 275.791742 71.403783 
L 276.877543 71.299582 
L 277.963344 70.350192 
L 279.049146 71.131702 
L 280.134947 71.091179 
L 281.220748 69.834975 
L 282.306549 70.766997 
L 283.39235 69.950754 
L 284.478151 70.413871 
L 285.563953 69.591839 
L 286.649754 69.325547 
L 287.735555 70.107056 
L 288.821356 69.151878 
L 289.907157 70.066533 
L 290.992958 68.439836 
L 292.07876 68.312479 
L 293.164561 67.924618 
L 294.250362 67.3573 
L 295.336163 68.231433 
L 298.593566 67.449924 
L 299.679368 67.646748 
L 300.765169 66.830505 
L 301.85097 67.015752 
L 302.936771 66.645259 
L 304.022572 66.077941 
L 305.108373 66.80156 
L 306.194175 66.077941 
L 308.365777 65.163285 
L 309.451578 64.543866 
L 310.537379 65.742181 
L 311.62318 65.626402 
L 312.708981 64.347042 
L 313.794783 65.157496 
L 314.880584 64.978038 
L 315.966385 64.156006 
L 317.052186 64.277574 
L 318.137987 63.982337 
L 320.30959 62.934536 
L 321.395391 63.478698 
L 322.481192 63.443964 
L 323.566993 62.731922 
L 324.652794 62.24565 
L 325.738595 62.564042 
L 326.824396 61.672543 
L 327.910198 62.529309 
L 328.995999 61.585708 
L 330.0818 61.01839 
L 331.167601 61.099436 
L 332.253402 60.468439 
L 333.339203 60.948923 
L 334.425005 60.260037 
L 336.596607 59.924277 
L 338.768209 59.750608 
L 340.939811 59.084878 
L 342.025613 59.194868 
L 343.111414 58.928576 
L 345.283016 57.846041 
L 346.368817 58.251268 
L 347.454618 57.701317 
L 348.54042 57.365557 
L 349.626221 57.301879 
L 351.797823 56.722983 
L 352.883624 56.705616 
L 353.969425 56.23671 
L 355.055227 56.497213 
L 356.141028 56.427746 
L 357.226829 55.744649 
L 358.31263 55.634658 
L 359.398431 55.802538 
L 360.484232 55.102074 
L 361.570033 54.67948 
L 362.655835 55.142597 
L 363.741636 54.592646 
L 364.827437 53.828503 
L 365.913238 54.106373 
L 366.999039 53.568 
L 368.08484 54.974717 
L 369.170642 55.061551 
L 370.256443 56.120931 
L 371.342244 55.704126 
L 372.428045 56.485635 
L 373.513846 56.40459 
L 374.599647 57.243989 
L 375.685448 57.110843 
L 376.77125 57.51607 
L 377.857051 56.786661 
L 378.942852 57.57396 
L 380.028653 57.359768 
L 381.114454 57.012431 
L 382.200255 56.948752 
L 383.286057 56.560892 
L 384.371858 56.757716 
L 385.457659 56.717194 
L 386.54346 57.562382 
L 387.629261 56.954541 
L 388.715062 57.215044 
L 389.800863 56.676671 
L 391.972466 57.162944 
L 393.058267 56.977697 
L 394.144068 57.267145 
L 395.229869 56.815606 
L 396.31567 56.931385 
L 397.401472 57.68395 
L 398.487273 57.423447 
L 398.487273 57.423447 
" clip-path="url(#pa9daa7faf1)" style="fill: none; stroke: #1f77b4; stroke-width: 1.5; stroke-linecap: square"/>
   </g>
   <g id="line2d_16">
    <path d="M 73.832727 287.546147 
L 74.918528 252.233497 
L 76.00433 227.196249 
L 77.090131 222.362468 
L 78.175932 196.022704 
L 79.261733 186.528812 
L 80.347534 181.202969 
L 81.433335 173.822046 
L 82.519137 169.596106 
L 83.604938 162.851969 
L 84.690739 161.375784 
L 85.77654 154.081696 
L 86.862341 153.879082 
L 87.948142 149.103191 
L 89.033943 149.913646 
L 90.119745 144.616748 
L 91.205546 141.374931 
L 92.291347 140.969704 
L 93.377148 138.856734 
L 94.462949 140.246084 
L 95.54875 164.964939 
L 96.634552 166.006952 
L 98.806154 156.570948 
L 99.891955 154.978985 
L 100.977756 156.33939 
L 102.063557 154.602702 
L 103.149358 150.897769 
L 104.23516 145.05092 
L 106.406762 142.21433 
L 107.492563 143.024784 
L 108.578364 141.895937 
L 109.664165 141.143373 
L 110.749967 135.991199 
L 111.835768 138.943568 
L 112.921569 136.946377 
L 114.00737 135.759641 
L 115.093171 133.907174 
L 116.178972 133.878229 
L 117.264773 129.333896 
L 118.350575 131.881038 
L 119.436376 127.597208 
L 120.522177 126.236803 
L 121.607978 128.08927 
L 122.693779 125.31057 
L 123.77958 121.981918 
L 124.865382 122.3582 
L 125.951183 122.213476 
L 127.036984 120.997795 
L 128.122785 118.161205 
L 129.208586 120.447844 
L 130.294387 117.553364 
L 132.46599 116.829745 
L 133.551791 116.916579 
L 134.637592 116.8008 
L 135.723393 116.07718 
L 137.894995 115.874566 
L 138.980797 146.035043 
L 140.066598 138.885679 
L 141.152399 139.117237 
L 142.2382 139.030403 
L 143.324001 137.9305 
L 144.409802 140.419753 
L 145.495604 138.075224 
L 146.581405 134.457125 
L 147.667206 135.238634 
L 148.753007 132.228376 
L 149.838808 134.109787 
L 150.924609 135.064966 
L 152.01041 134.196622 
L 153.096212 133.791395 
L 154.182013 132.25732 
L 155.267814 129.247062 
L 156.353615 133.501947 
L 157.439416 129.797013 
L 158.525217 135.007076 
L 159.611019 128.002436 
L 160.69682 130.26013 
L 161.782621 128.986559 
L 162.868422 129.42073 
L 163.954223 124.876398 
L 165.040024 128.08927 
L 166.125825 125.889465 
L 167.211627 126.728865 
L 168.297428 127.134092 
L 169.383229 126.294693 
L 171.554831 122.647648 
L 172.640632 123.110765 
L 173.726434 122.560814 
L 174.812235 121.69247 
L 175.898036 123.979109 
L 176.983837 125.079011 
L 178.069638 123.313379 
L 179.155439 119.434776 
L 180.24124 119.811058 
L 181.327042 118.045426 
L 182.412843 118.537487 
L 183.498644 120.824126 
L 184.584445 116.569241 
L 185.670246 118.566432 
L 186.756047 117.611254 
L 187.841849 116.048235 
L 188.92765 116.511352 
L 190.013451 113.211645 
L 191.099252 111.503902 
L 192.185053 114.948333 
L 193.270854 113.790541 
L 194.356656 114.079989 
L 195.442457 111.85124 
L 196.528258 111.706516 
L 197.614059 112.053853 
L 199.785661 110.635558 
L 200.871462 109.564601 
L 201.957264 109.535656 
L 203.043065 108.262085 
L 204.128866 107.596355 
L 205.214667 108.030527 
L 206.300468 107.104293 
L 207.386269 106.90168 
L 208.472071 107.914748 
L 209.557872 106.959569 
L 210.643673 106.988514 
L 211.729474 106.207005 
L 212.815275 105.743888 
L 213.901076 104.933434 
L 214.986877 105.975446 
L 216.072679 104.499262 
L 217.15848 104.78871 
L 218.244281 104.875544 
L 220.415883 104.412427 
L 221.501684 104.933434 
L 222.587486 104.615041 
L 223.673287 104.586096 
L 224.759088 104.151924 
L 225.844889 129.768068 
L 226.93069 133.096719 
L 228.016491 129.768068 
L 229.102292 130.086461 
L 230.188094 131.041639 
L 231.273895 129.797013 
L 232.359696 130.115406 
L 233.445497 132.720437 
L 234.531298 127.973491 
L 235.617099 128.291883 
L 236.702901 126.844644 
L 237.788702 128.349773 
L 238.874503 130.173295 
L 239.960304 129.073393 
L 241.046105 130.462743 
L 242.131906 125.657907 
L 243.217708 125.9763 
L 244.303509 128.436607 
L 245.38931 126.265748 
L 246.475111 127.481429 
L 247.560912 128.465552 
L 248.646713 125.831576 
L 249.732514 126.526251 
L 250.818316 123.834385 
L 251.904117 125.050066 
L 252.989918 123.110765 
L 254.075719 124.558005 
L 255.16152 125.368459 
L 256.247321 125.802631 
L 257.333123 124.47117 
L 258.418924 124.644839 
L 259.504725 124.500115 
L 260.590526 125.947355 
L 261.676327 123.371268 
L 262.762128 124.384336 
L 263.847929 124.52906 
L 264.933731 124.239612 
L 266.019532 122.387145 
L 267.105333 124.52906 
L 268.191134 123.226544 
L 269.276935 123.400213 
L 270.362736 120.30312 
L 271.448538 123.458103 
L 272.534339 127.047257 
L 273.62014 120.563623 
L 274.705941 121.431967 
L 275.791742 123.458103 
L 276.877543 120.332065 
L 277.963344 123.660716 
L 279.049146 120.939905 
L 280.134947 122.531869 
L 281.220748 122.126642 
L 282.306549 121.518801 
L 283.39235 119.376887 
L 284.478151 116.771855 
L 285.563953 120.505734 
L 286.649754 120.563623 
L 287.735555 119.174273 
L 288.821356 115.758787 
L 289.907157 118.045426 
L 290.992958 118.161205 
L 292.07876 116.887634 
L 293.164561 120.96885 
L 294.250362 117.090248 
L 295.336163 116.945524 
L 298.593566 118.595377 
L 299.679368 116.221904 
L 300.765169 118.103316 
L 301.85097 118.826935 
L 302.936771 115.440394 
L 304.022572 115.932456 
L 305.108373 117.958592 
L 306.194175 116.279793 
L 307.279976 114.224713 
L 308.365777 113.153756 
L 309.451578 119.5795 
L 310.537379 115.006222 
L 311.62318 114.398382 
L 312.708981 111.967019 
L 313.794783 116.771855 
L 314.880584 112.748528 
L 315.966385 115.064112 
L 317.052186 113.732651 
L 318.137987 110.925006 
L 320.30959 112.343301 
L 321.395391 111.011841 
L 322.481192 110.982896 
L 323.566993 112.372246 
L 324.652794 110.519779 
L 325.738595 108.030527 
L 326.824396 112.603804 
L 327.910198 107.50952 
L 328.995999 109.825104 
L 330.0818 110.780282 
L 331.167601 110.056662 
L 332.253402 109.477767 
L 333.339203 110.896062 
L 334.425005 107.104293 
L 335.510806 110.085607 
L 336.596607 108.406809 
L 337.682408 105.888612 
L 338.768209 105.483385 
L 339.85401 106.004391 
L 340.939811 107.50952 
L 342.025613 105.772833 
L 343.111414 105.714943 
L 344.197215 106.90168 
L 345.283016 104.875544 
L 346.368817 105.39655 
L 347.454618 106.12017 
L 348.54042 104.643986 
L 349.626221 103.949311 
L 350.712022 104.817655 
L 351.797823 104.557151 
L 352.883624 104.036145 
L 353.969425 105.020268 
L 355.055227 103.601973 
L 356.141028 104.0072 
L 357.226829 103.688807 
L 358.31263 104.441372 
L 359.398431 102.444181 
L 360.484232 102.010009 
L 361.570033 101.025886 
L 362.655835 101.865285 
L 363.741636 102.415236 
L 364.827437 101.575837 
L 365.913238 102.096844 
L 366.999039 101.141666 
L 368.08484 102.038954 
L 369.170642 103.225691 
L 370.256443 103.601973 
L 371.342244 104.643986 
L 372.428045 104.238759 
L 373.513846 105.251826 
L 374.599647 106.062281 
L 375.685448 105.45444 
L 376.77125 106.814845 
L 377.857051 105.107102 
L 378.942852 107.798968 
L 381.114454 104.209814 
L 382.200255 106.062281 
L 383.286057 104.209814 
L 384.371858 105.280771 
L 385.457659 107.306907 
L 386.54346 105.830722 
L 387.629261 105.975446 
L 388.715062 106.959569 
L 389.800863 105.309716 
L 390.886665 105.570219 
L 391.972466 104.209814 
L 393.058267 105.39655 
L 394.144068 104.122979 
L 395.229869 104.817655 
L 396.31567 105.049213 
L 397.401472 105.685998 
L 398.487273 105.714943 
L 398.487273 105.714943 
" clip-path="url(#pa9daa7faf1)" style="fill: none; stroke: #ff7f0e; stroke-width: 1.5; stroke-linecap: square"/>
   </g>
   <g id="line2d_17">
    <path d="M 73.832727 295.488 
L 74.918528 260.874017 
L 76.00433 250.174424 
L 77.090131 245.603142 
L 78.175932 224.643118 
L 79.261733 222.327535 
L 80.347534 223.265745 
L 81.433335 211.987256 
L 82.519137 198.053831 
L 83.604938 204.481571 
L 84.690739 202.305721 
L 87.948142 187.414123 
L 89.033943 188.651763 
L 90.119745 181.924593 
L 91.205546 181.48543 
L 92.291347 181.744936 
L 93.377148 179.089999 
L 94.462949 179.070037 
L 95.54875 214.043335 
L 96.634552 204.561419 
L 97.720353 205.519592 
L 99.891955 200.808577 
L 100.977756 195.378932 
L 102.063557 198.612765 
L 103.149358 193.023425 
L 104.23516 189.170773 
L 105.320961 191.10708 
L 106.406762 188.791496 
L 107.492563 188.412219 
L 108.578364 193.28293 
L 109.664165 192.005366 
L 110.749967 187.034846 
L 111.835768 180.54722 
L 112.921569 185.93694 
L 114.00737 182.463565 
L 115.093171 183.801014 
L 116.178972 192.444529 
L 117.264773 185.058616 
L 118.350575 184.240177 
L 119.436376 177.453121 
L 120.522177 176.754454 
L 121.607978 177.073844 
L 122.693779 168.550101 
L 123.77958 178.17175 
L 124.865382 176.974035 
L 128.122785 169.208845 
L 129.208586 170.226903 
L 130.294387 169.88755 
L 131.380189 169.128997 
L 132.46599 169.947436 
L 133.551791 171.045342 
L 134.637592 167.591929 
L 135.723393 169.528236 
L 136.809194 169.428426 
L 137.894995 168.23071 
L 138.980797 189.729707 
L 140.066598 191.087118 
L 141.152399 189.090925 
L 142.2382 190.787689 
L 143.324001 186.575722 
L 144.409802 189.090925 
L 145.495604 195.279123 
L 146.581405 190.368488 
L 147.667206 183.661281 
L 148.753007 177.65274 
L 149.838808 183.082385 
L 150.924609 180.886573 
L 152.01041 182.543413 
L 153.096212 183.401776 
L 154.182013 180.187905 
L 155.267814 175.616624 
L 156.353615 176.814339 
L 157.439416 177.353311 
L 158.525217 185.677435 
L 159.611019 176.854263 
L 160.69682 186.55576 
L 161.782621 176.075748 
L 162.868422 192.025328 
L 163.954223 180.44741 
L 165.040024 181.265849 
L 166.125825 170.206941 
L 167.211627 178.850456 
L 168.297428 177.932207 
L 169.383229 182.10425 
L 170.46903 180.008248 
L 171.554831 172.123286 
L 172.640632 174.259213 
L 173.726434 176.854263 
L 174.812235 173.141345 
L 175.898036 177.273464 
L 176.983837 174.398946 
L 178.069638 176.135634 
L 179.155439 174.079555 
L 180.24124 171.225 
L 181.327042 175.796281 
L 182.412843 172.762068 
L 183.498644 174.878032 
L 184.584445 180.726877 
L 185.670246 175.596662 
L 186.756047 171.783934 
L 187.841849 173.540583 
L 188.92765 166.25448 
L 190.013451 162.182246 
L 191.099252 167.232614 
L 192.185053 166.434137 
L 193.270854 168.110939 
L 194.356656 170.167017 
L 195.442457 166.454099 
L 196.528258 167.891358 
L 197.614059 163.998782 
L 198.69986 164.218363 
L 199.785661 164.138515 
L 200.871462 168.510177 
L 201.957264 165.136612 
L 203.043065 163.958858 
L 205.214667 164.078629 
L 206.300468 162.361904 
L 207.386269 164.457906 
L 208.472071 161.004493 
L 209.557872 162.74118 
L 210.643673 163.539657 
L 211.729474 161.743084 
L 212.815275 161.563427 
L 213.901076 162.980723 
L 214.986877 160.685102 
L 216.072679 159.128071 
L 217.15848 160.625216 
L 218.244281 160.086244 
L 219.330082 160.066282 
L 220.415883 159.62712 
L 221.501684 162.441751 
L 222.587486 162.062475 
L 223.673287 161.124264 
L 224.759088 160.425597 
L 225.844889 178.810532 
L 226.93069 172.602373 
L 228.016491 179.9284 
L 229.102292 175.896091 
L 230.188094 178.411294 
L 231.273895 177.75255 
L 232.359696 173.321002 
L 233.445497 183.002537 
L 234.531298 179.5092 
L 235.617099 182.443603 
L 236.702901 172.562449 
L 237.788702 173.82005 
L 238.874503 189.070963 
L 239.960304 178.091903 
L 241.046105 189.35043 
L 242.131906 178.051979 
L 243.217708 181.126116 
L 244.303509 175.516814 
L 245.38931 174.598565 
L 246.475111 179.209771 
L 247.560912 173.899898 
L 248.646713 169.707893 
L 249.732514 187.27439 
L 250.818316 171.324809 
L 251.904117 177.572893 
L 252.989918 179.209771 
L 254.075719 177.513007 
L 255.16152 187.054808 
L 256.247321 182.483527 
L 257.333123 179.030113 
L 258.418924 177.513007 
L 259.504725 177.592855 
L 260.590526 173.241154 
L 261.676327 180.307677 
L 262.762128 168.130901 
L 263.847929 176.235443 
L 264.933731 173.999708 
L 266.019532 171.484505 
L 267.105333 171.724048 
L 269.276935 163.779201 
L 270.362736 176.395139 
L 271.448538 175.357119 
L 272.534339 172.402753 
L 273.62014 171.424619 
L 274.705941 169.727855 
L 275.791742 183.561471 
L 276.877543 174.059593 
L 277.963344 172.68222 
L 279.049146 171.943629 
L 280.134947 173.141345 
L 281.220748 168.390406 
L 282.306549 172.402753 
L 283.39235 168.829568 
L 284.478151 168.590025 
L 285.563953 176.19552 
L 286.649754 165.735469 
L 287.735555 174.139441 
L 288.821356 163.859048 
L 289.907157 164.697449 
L 290.992958 171.364733 
L 292.07876 164.996878 
L 293.164561 175.357119 
L 294.250362 171.684124 
L 295.336163 162.701256 
L 296.421964 164.258287 
L 297.507765 168.989264 
L 298.593566 161.743084 
L 299.679368 168.370444 
L 300.765169 166.194594 
L 301.85097 170.985456 
L 302.936771 169.128997 
L 304.022572 166.793452 
L 305.108373 155.475039 
L 307.279976 170.426523 
L 308.365777 168.989264 
L 309.451578 169.98736 
L 310.537379 169.628045 
L 312.708981 157.551079 
L 313.794783 168.090977 
L 314.880584 166.913223 
L 315.966385 167.152766 
L 317.052186 168.609987 
L 318.137987 164.39802 
L 319.223788 160.784911 
L 320.30959 162.501637 
L 321.395391 168.749721 
L 322.481192 171.524429 
L 323.566993 171.963591 
L 324.652794 158.070089 
L 325.738595 163.340038 
L 326.824396 169.867589 
L 327.910198 161.70316 
L 328.995999 165.036802 
L 330.0818 169.628045 
L 331.167601 164.238325 
L 332.253402 160.066282 
L 333.339203 163.859048 
L 334.425005 161.064378 
L 335.510806 163.379962 
L 336.596607 157.151841 
L 338.768209 160.625216 
L 339.85401 162.980723 
L 340.939811 158.209823 
L 342.025613 160.206015 
L 343.111414 157.052031 
L 344.197215 159.207919 
L 345.283016 154.516866 
L 346.368817 159.986434 
L 347.454618 156.572945 
L 348.54042 156.932259 
L 349.626221 156.552983 
L 350.712022 161.303922 
L 351.797823 157.591003 
L 352.883624 158.050127 
L 353.969425 156.014011 
L 355.055227 154.97599 
L 356.141028 157.25165 
L 357.226829 159.966472 
L 358.31263 158.589099 
L 359.398431 155.534924 
L 360.484232 155.954125 
L 361.570033 155.155648 
L 362.655835 157.930356 
L 363.741636 156.63283 
L 364.827437 156.273516 
L 365.913238 152.660407 
L 366.999039 155.215534 
L 368.08484 155.69462 
L 370.256443 158.090051 
L 371.342244 157.630927 
L 372.428045 158.149937 
L 373.513846 154.716485 
L 374.599647 159.347653 
L 375.685448 162.84099 
L 376.77125 165.436041 
L 377.857051 158.988338 
L 378.942852 162.302018 
L 380.028653 161.723122 
L 381.114454 159.94651 
L 382.200255 160.705064 
L 383.286057 161.663236 
L 384.371858 155.235495 
L 385.457659 159.52731 
L 386.54346 161.962665 
L 387.629261 160.884721 
L 388.715062 158.808681 
L 389.800863 153.698427 
L 390.886665 159.587196 
L 391.972466 159.088148 
L 393.058267 157.990242 
L 394.144068 152.101473 
L 395.229869 156.73264 
L 396.31567 159.806777 
L 397.401472 167.032995 
L 398.487273 155.974087 
L 398.487273 155.974087 
" clip-path="url(#pa9daa7faf1)" style="fill: none; stroke: #2ca02c; stroke-width: 1.5; stroke-linecap: square"/>
   </g>
   <g id="line2d_18">
    <path d="M 368.08484 101.89423 
L 369.170642 100.360156 
L 370.256443 103.312525 
L 372.428045 103.746697 
L 373.513846 104.441372 
L 374.599647 104.354538 
L 375.685448 101.546893 
L 376.77125 104.06509 
L 377.857051 102.67574 
L 378.942852 104.817655 
L 380.028653 105.020268 
L 381.114454 104.78871 
L 382.200255 103.486194 
L 383.286057 105.599164 
L 384.371858 102.328402 
L 385.457659 105.917557 
L 386.54346 104.441372 
L 387.629261 103.254636 
L 388.715062 103.949311 
L 389.800863 107.393741 
L 390.886665 104.354538 
L 391.972466 104.701875 
L 393.058267 105.657054 
L 394.144068 104.615041 
L 395.229869 107.770024 
L 396.31567 105.251826 
L 397.401472 107.712134 
L 398.487273 108.580478 
L 398.487273 108.580478 
" clip-path="url(#pa9daa7faf1)" style="fill: none; stroke: #d62728; stroke-width: 1.5; stroke-linecap: square"/>
   </g>
   <g id="line2d_19">
    <path d="M 368.08484 156.692716 
L 369.170642 154.157551 
L 370.256443 157.910394 
L 371.342244 152.780178 
L 372.428045 159.507348 
L 373.513846 157.87047 
L 374.599647 161.18415 
L 375.685448 159.167995 
L 376.77125 163.998782 
L 378.942852 156.73264 
L 380.028653 155.814391 
L 381.114454 158.509252 
L 382.200255 153.957932 
L 383.286057 150.584366 
L 384.371858 154.696523 
L 385.457659 155.135686 
L 386.54346 149.865737 
L 387.629261 155.055838 
L 388.715062 155.435115 
L 389.800863 157.630927 
L 390.886665 153.179417 
L 391.972466 155.714582 
L 393.058267 155.235495 
L 394.144068 152.860026 
L 395.229869 153.41896 
L 396.31567 150.424671 
L 397.401472 154.696523 
L 398.487273 163.000685 
L 398.487273 163.000685 
" clip-path="url(#pa9daa7faf1)" style="fill: none; stroke: #9467bd; stroke-width: 1.5; stroke-linecap: square"/>
   </g>
   <g id="patch_3">
    <path d="M 57.6 307.584 
L 57.6 41.472 
" style="fill: none; stroke: #000000; stroke-width: 0.8; stroke-linejoin: miter; stroke-linecap: square"/>
   </g>
   <g id="patch_4">
    <path d="M 414.72 307.584 
L 414.72 41.472 
" style="fill: none; stroke: #000000; stroke-width: 0.8; stroke-linejoin: miter; stroke-linecap: square"/>
   </g>
   <g id="patch_5">
    <path d="M 57.6 307.584 
L 414.72 307.584 
" style="fill: none; stroke: #000000; stroke-width: 0.8; stroke-linejoin: miter; stroke-linecap: square"/>
   </g>
   <g id="patch_6">
    <path d="M 57.6 41.472 
L 414.72 41.472 
" style="fill: none; stroke: #000000; stroke-width: 0.8; stroke-linejoin: miter; stroke-linecap: square"/>
   </g>
   <g id="text_17">
    <!-- Learning Curves -->
    <g transform="translate(187.37625 35.472) scale(0.12 -0.12)">
     <defs>
      <path id="DejaVuSans-4c" d="M 628 4666 
L 1259 4666 
L 1259 531 
L 3531 531 
L 3531 0 
L 628 0 
L 628 4666 
z
" transform="scale(0.015625)"/>
      <path id="DejaVuSans-65" d="M 3597 1894 
L 3597 1613 
L 953 1613 
Q 991 1019 1311 708 
Q 1631 397 2203 397 
Q 2534 397 2845 478 
Q 3156 559 3463 722 
L 3463 178 
Q 3153 47 2828 -22 
Q 2503 -91 2169 -91 
Q 1331 -91 842 396 
Q 353 884 353 1716 
Q 353 2575 817 3079 
Q 1281 3584 2069 3584 
Q 2775 3584 3186 3129 
Q 3597 2675 3597 1894 
z
M 3022 2063 
Q 3016 2534 2758 2815 
Q 2500 3097 2075 3097 
Q 1594 3097 1305 2825 
Q 1016 2553 972 2059 
L 3022 2063 
z
" transform="scale(0.015625)"/>
      <path id="DejaVuSans-6e" d="M 3513 2113 
L 3513 0 
L 2938 0 
L 2938 2094 
Q 2938 2591 2744 2837 
Q 2550 3084 2163 3084 
Q 1697 3084 1428 2787 
Q 1159 2491 1159 1978 
L 1159 0 
L 581 0 
L 581 3500 
L 1159 3500 
L 1159 2956 
Q 1366 3272 1645 3428 
Q 1925 3584 2291 3584 
Q 2894 3584 3203 3211 
Q 3513 2838 3513 2113 
z
" transform="scale(0.015625)"/>
      <path id="DejaVuSans-69" d="M 603 3500 
L 1178 3500 
L 1178 0 
L 603 0 
L 603 3500 
z
M 603 4863 
L 1178 4863 
L 1178 4134 
L 603 4134 
L 603 4863 
z
" transform="scale(0.015625)"/>
      <path id="DejaVuSans-67" d="M 2906 1791 
Q 2906 2416 2648 2759 
Q 2391 3103 1925 3103 
Q 1463 3103 1205 2759 
Q 947 2416 947 1791 
Q 947 1169 1205 825 
Q 1463 481 1925 481 
Q 2391 481 2648 825 
Q 2906 1169 2906 1791 
z
M 3481 434 
Q 3481 -459 3084 -895 
Q 2688 -1331 1869 -1331 
Q 1566 -1331 1297 -1286 
Q 1028 -1241 775 -1147 
L 775 -588 
Q 1028 -725 1275 -790 
Q 1522 -856 1778 -856 
Q 2344 -856 2625 -561 
Q 2906 -266 2906 331 
L 2906 616 
Q 2728 306 2450 153 
Q 2172 0 1784 0 
Q 1141 0 747 490 
Q 353 981 353 1791 
Q 353 2603 747 3093 
Q 1141 3584 1784 3584 
Q 2172 3584 2450 3431 
Q 2728 3278 2906 2969 
L 2906 3500 
L 3481 3500 
L 3481 434 
z
" transform="scale(0.015625)"/>
      <path id="DejaVuSans-20" transform="scale(0.015625)"/>
      <path id="DejaVuSans-43" d="M 4122 4306 
L 4122 3641 
Q 3803 3938 3442 4084 
Q 3081 4231 2675 4231 
Q 1875 4231 1450 3742 
Q 1025 3253 1025 2328 
Q 1025 1406 1450 917 
Q 1875 428 2675 428 
Q 3081 428 3442 575 
Q 3803 722 4122 1019 
L 4122 359 
Q 3791 134 3420 21 
Q 3050 -91 2638 -91 
Q 1578 -91 968 557 
Q 359 1206 359 2328 
Q 359 3453 968 4101 
Q 1578 4750 2638 4750 
Q 3056 4750 3426 4639 
Q 3797 4528 4122 4306 
z
" transform="scale(0.015625)"/>
      <path id="DejaVuSans-76" d="M 191 3500 
L 800 3500 
L 1894 563 
L 2988 3500 
L 3597 3500 
L 2284 0 
L 1503 0 
L 191 3500 
z
" transform="scale(0.015625)"/>
     </defs>
     <use xlink:href="#DejaVuSans-4c"/>
     <use xlink:href="#DejaVuSans-65" x="53.962891"/>
     <use xlink:href="#DejaVuSans-61" x="115.486328"/>
     <use xlink:href="#DejaVuSans-72" x="176.765625"/>
     <use xlink:href="#DejaVuSans-6e" x="216.128906"/>
     <use xlink:href="#DejaVuSans-69" x="279.507812"/>
     <use xlink:href="#DejaVuSans-6e" x="307.291016"/>
     <use xlink:href="#DejaVuSans-67" x="370.669922"/>
     <use xlink:href="#DejaVuSans-20" x="434.146484"/>
     <use xlink:href="#DejaVuSans-43" x="465.933594"/>
     <use xlink:href="#DejaVuSans-75" x="535.757812"/>
     <use xlink:href="#DejaVuSans-72" x="599.136719"/>
     <use xlink:href="#DejaVuSans-76" x="640.25"/>
     <use xlink:href="#DejaVuSans-65" x="699.429688"/>
     <use xlink:href="#DejaVuSans-73" x="760.953125"/>
    </g>
   </g>
   <g id="legend_1">
    <g id="patch_7">
     <path d="M 214.18875 302.584 
L 407.72 302.584 
Q 409.72 302.584 409.72 300.584 
L 409.72 228.193375 
Q 409.72 226.193375 407.72 226.193375 
L 214.18875 226.193375 
Q 212.18875 226.193375 212.18875 228.193375 
L 212.18875 300.584 
Q 212.18875 302.584 214.18875 302.584 
z
" style="fill: #ffffff; opacity: 0.8; stroke: #cccccc; stroke-linejoin: miter"/>
    </g>
    <g id="line2d_20">
     <path d="M 216.18875 234.291812 
L 226.18875 234.291812 
L 236.18875 234.291812 
" style="fill: none; stroke: #1f77b4; stroke-width: 1.5; stroke-linecap: square"/>
    </g>
    <g id="text_18">
     <!-- Train Accuracy -->
     <g transform="translate(244.18875 237.791812) scale(0.1 -0.1)">
      <defs>
       <path id="DejaVuSans-54" d="M -19 4666 
L 3928 4666 
L 3928 4134 
L 2272 4134 
L 2272 0 
L 1638 0 
L 1638 4134 
L -19 4134 
L -19 4666 
z
" transform="scale(0.015625)"/>
      </defs>
      <use xlink:href="#DejaVuSans-54"/>
      <use xlink:href="#DejaVuSans-72" x="46.333984"/>
      <use xlink:href="#DejaVuSans-61" x="87.447266"/>
      <use xlink:href="#DejaVuSans-69" x="148.726562"/>
      <use xlink:href="#DejaVuSans-6e" x="176.509766"/>
      <use xlink:href="#DejaVuSans-20" x="239.888672"/>
      <use xlink:href="#DejaVuSans-41" x="271.675781"/>
      <use xlink:href="#DejaVuSans-63" x="338.333984"/>
      <use xlink:href="#DejaVuSans-63" x="393.314453"/>
      <use xlink:href="#DejaVuSans-75" x="448.294922"/>
      <use xlink:href="#DejaVuSans-72" x="511.673828"/>
      <use xlink:href="#DejaVuSans-61" x="552.787109"/>
      <use xlink:href="#DejaVuSans-63" x="614.066406"/>
      <use xlink:href="#DejaVuSans-79" x="669.046875"/>
     </g>
    </g>
    <g id="line2d_21">
     <path d="M 216.18875 248.969937 
L 226.18875 248.969937 
L 236.18875 248.969937 
" style="fill: none; stroke: #ff7f0e; stroke-width: 1.5; stroke-linecap: square"/>
    </g>
    <g id="text_19">
     <!-- Validation Accuracy -->
     <g transform="translate(244.18875 252.469937) scale(0.1 -0.1)">
      <defs>
       <path id="DejaVuSans-56" d="M 1831 0 
L 50 4666 
L 709 4666 
L 2188 738 
L 3669 4666 
L 4325 4666 
L 2547 0 
L 1831 0 
z
" transform="scale(0.015625)"/>
       <path id="DejaVuSans-6c" d="M 603 4863 
L 1178 4863 
L 1178 0 
L 603 0 
L 603 4863 
z
" transform="scale(0.015625)"/>
       <path id="DejaVuSans-64" d="M 2906 2969 
L 2906 4863 
L 3481 4863 
L 3481 0 
L 2906 0 
L 2906 525 
Q 2725 213 2448 61 
Q 2172 -91 1784 -91 
Q 1150 -91 751 415 
Q 353 922 353 1747 
Q 353 2572 751 3078 
Q 1150 3584 1784 3584 
Q 2172 3584 2448 3432 
Q 2725 3281 2906 2969 
z
M 947 1747 
Q 947 1113 1208 752 
Q 1469 391 1925 391 
Q 2381 391 2643 752 
Q 2906 1113 2906 1747 
Q 2906 2381 2643 2742 
Q 2381 3103 1925 3103 
Q 1469 3103 1208 2742 
Q 947 2381 947 1747 
z
" transform="scale(0.015625)"/>
       <path id="DejaVuSans-74" d="M 1172 4494 
L 1172 3500 
L 2356 3500 
L 2356 3053 
L 1172 3053 
L 1172 1153 
Q 1172 725 1289 603 
Q 1406 481 1766 481 
L 2356 481 
L 2356 0 
L 1766 0 
Q 1100 0 847 248 
Q 594 497 594 1153 
L 594 3053 
L 172 3053 
L 172 3500 
L 594 3500 
L 594 4494 
L 1172 4494 
z
" transform="scale(0.015625)"/>
      </defs>
      <use xlink:href="#DejaVuSans-56"/>
      <use xlink:href="#DejaVuSans-61" x="60.658203"/>
      <use xlink:href="#DejaVuSans-6c" x="121.9375"/>
      <use xlink:href="#DejaVuSans-69" x="149.720703"/>
      <use xlink:href="#DejaVuSans-64" x="177.503906"/>
      <use xlink:href="#DejaVuSans-61" x="240.980469"/>
      <use xlink:href="#DejaVuSans-74" x="302.259766"/>
      <use xlink:href="#DejaVuSans-69" x="341.46875"/>
      <use xlink:href="#DejaVuSans-6f" x="369.251953"/>
      <use xlink:href="#DejaVuSans-6e" x="430.433594"/>
      <use xlink:href="#DejaVuSans-20" x="493.8125"/>
      <use xlink:href="#DejaVuSans-41" x="525.599609"/>
      <use xlink:href="#DejaVuSans-63" x="592.257812"/>
      <use xlink:href="#DejaVuSans-63" x="647.238281"/>
      <use xlink:href="#DejaVuSans-75" x="702.21875"/>
      <use xlink:href="#DejaVuSans-72" x="765.597656"/>
      <use xlink:href="#DejaVuSans-61" x="806.710938"/>
      <use xlink:href="#DejaVuSans-63" x="867.990234"/>
      <use xlink:href="#DejaVuSans-79" x="922.970703"/>
     </g>
    </g>
    <g id="line2d_22">
     <path d="M 216.18875 263.648062 
L 226.18875 263.648062 
L 236.18875 263.648062 
" style="fill: none; stroke: #2ca02c; stroke-width: 1.5; stroke-linecap: square"/>
    </g>
    <g id="text_20">
     <!-- Robust Validation Accuracy -->
     <g transform="translate(244.18875 267.148062) scale(0.1 -0.1)">
      <defs>
       <path id="DejaVuSans-52" d="M 2841 2188 
Q 3044 2119 3236 1894 
Q 3428 1669 3622 1275 
L 4263 0 
L 3584 0 
L 2988 1197 
Q 2756 1666 2539 1819 
Q 2322 1972 1947 1972 
L 1259 1972 
L 1259 0 
L 628 0 
L 628 4666 
L 2053 4666 
Q 2853 4666 3247 4331 
Q 3641 3997 3641 3322 
Q 3641 2881 3436 2590 
Q 3231 2300 2841 2188 
z
M 1259 4147 
L 1259 2491 
L 2053 2491 
Q 2509 2491 2742 2702 
Q 2975 2913 2975 3322 
Q 2975 3731 2742 3939 
Q 2509 4147 2053 4147 
L 1259 4147 
z
" transform="scale(0.015625)"/>
       <path id="DejaVuSans-62" d="M 3116 1747 
Q 3116 2381 2855 2742 
Q 2594 3103 2138 3103 
Q 1681 3103 1420 2742 
Q 1159 2381 1159 1747 
Q 1159 1113 1420 752 
Q 1681 391 2138 391 
Q 2594 391 2855 752 
Q 3116 1113 3116 1747 
z
M 1159 2969 
Q 1341 3281 1617 3432 
Q 1894 3584 2278 3584 
Q 2916 3584 3314 3078 
Q 3713 2572 3713 1747 
Q 3713 922 3314 415 
Q 2916 -91 2278 -91 
Q 1894 -91 1617 61 
Q 1341 213 1159 525 
L 1159 0 
L 581 0 
L 581 4863 
L 1159 4863 
L 1159 2969 
z
" transform="scale(0.015625)"/>
      </defs>
      <use xlink:href="#DejaVuSans-52"/>
      <use xlink:href="#DejaVuSans-6f" x="64.982422"/>
      <use xlink:href="#DejaVuSans-62" x="126.164062"/>
      <use xlink:href="#DejaVuSans-75" x="189.640625"/>
      <use xlink:href="#DejaVuSans-73" x="253.019531"/>
      <use xlink:href="#DejaVuSans-74" x="305.119141"/>
      <use xlink:href="#DejaVuSans-20" x="344.328125"/>
      <use xlink:href="#DejaVuSans-56" x="376.115234"/>
      <use xlink:href="#DejaVuSans-61" x="436.773438"/>
      <use xlink:href="#DejaVuSans-6c" x="498.052734"/>
      <use xlink:href="#DejaVuSans-69" x="525.835938"/>
      <use xlink:href="#DejaVuSans-64" x="553.619141"/>
      <use xlink:href="#DejaVuSans-61" x="617.095703"/>
      <use xlink:href="#DejaVuSans-74" x="678.375"/>
      <use xlink:href="#DejaVuSans-69" x="717.583984"/>
      <use xlink:href="#DejaVuSans-6f" x="745.367188"/>
      <use xlink:href="#DejaVuSans-6e" x="806.548828"/>
      <use xlink:href="#DejaVuSans-20" x="869.927734"/>
      <use xlink:href="#DejaVuSans-41" x="901.714844"/>
      <use xlink:href="#DejaVuSans-63" x="968.373047"/>
      <use xlink:href="#DejaVuSans-63" x="1023.353516"/>
      <use xlink:href="#DejaVuSans-75" x="1078.333984"/>
      <use xlink:href="#DejaVuSans-72" x="1141.712891"/>
      <use xlink:href="#DejaVuSans-61" x="1182.826172"/>
      <use xlink:href="#DejaVuSans-63" x="1244.105469"/>
      <use xlink:href="#DejaVuSans-79" x="1299.085938"/>
     </g>
    </g>
    <g id="line2d_23">
     <path d="M 216.18875 278.326188 
L 226.18875 278.326188 
L 236.18875 278.326188 
" style="fill: none; stroke: #d62728; stroke-width: 1.5; stroke-linecap: square"/>
    </g>
    <g id="text_21">
     <!-- SWA Validation Accuracy -->
     <g transform="translate(244.18875 281.826188) scale(0.1 -0.1)">
      <defs>
       <path id="DejaVuSans-53" d="M 3425 4513 
L 3425 3897 
Q 3066 4069 2747 4153 
Q 2428 4238 2131 4238 
Q 1616 4238 1336 4038 
Q 1056 3838 1056 3469 
Q 1056 3159 1242 3001 
Q 1428 2844 1947 2747 
L 2328 2669 
Q 3034 2534 3370 2195 
Q 3706 1856 3706 1288 
Q 3706 609 3251 259 
Q 2797 -91 1919 -91 
Q 1588 -91 1214 -16 
Q 841 59 441 206 
L 441 856 
Q 825 641 1194 531 
Q 1563 422 1919 422 
Q 2459 422 2753 634 
Q 3047 847 3047 1241 
Q 3047 1584 2836 1778 
Q 2625 1972 2144 2069 
L 1759 2144 
Q 1053 2284 737 2584 
Q 422 2884 422 3419 
Q 422 4038 858 4394 
Q 1294 4750 2059 4750 
Q 2388 4750 2728 4690 
Q 3069 4631 3425 4513 
z
" transform="scale(0.015625)"/>
       <path id="DejaVuSans-57" d="M 213 4666 
L 850 4666 
L 1831 722 
L 2809 4666 
L 3519 4666 
L 4500 722 
L 5478 4666 
L 6119 4666 
L 4947 0 
L 4153 0 
L 3169 4050 
L 2175 0 
L 1381 0 
L 213 4666 
z
" transform="scale(0.015625)"/>
      </defs>
      <use xlink:href="#DejaVuSans-53"/>
      <use xlink:href="#DejaVuSans-57" x="63.476562"/>
      <use xlink:href="#DejaVuSans-41" x="156.853516"/>
      <use xlink:href="#DejaVuSans-20" x="225.261719"/>
      <use xlink:href="#DejaVuSans-56" x="257.048828"/>
      <use xlink:href="#DejaVuSans-61" x="317.707031"/>
      <use xlink:href="#DejaVuSans-6c" x="378.986328"/>
      <use xlink:href="#DejaVuSans-69" x="406.769531"/>
      <use xlink:href="#DejaVuSans-64" x="434.552734"/>
      <use xlink:href="#DejaVuSans-61" x="498.029297"/>
      <use xlink:href="#DejaVuSans-74" x="559.308594"/>
      <use xlink:href="#DejaVuSans-69" x="598.517578"/>
      <use xlink:href="#DejaVuSans-6f" x="626.300781"/>
      <use xlink:href="#DejaVuSans-6e" x="687.482422"/>
      <use xlink:href="#DejaVuSans-20" x="750.861328"/>
      <use xlink:href="#DejaVuSans-41" x="782.648438"/>
      <use xlink:href="#DejaVuSans-63" x="849.306641"/>
      <use xlink:href="#DejaVuSans-63" x="904.287109"/>
      <use xlink:href="#DejaVuSans-75" x="959.267578"/>
      <use xlink:href="#DejaVuSans-72" x="1022.646484"/>
      <use xlink:href="#DejaVuSans-61" x="1063.759766"/>
      <use xlink:href="#DejaVuSans-63" x="1125.039062"/>
      <use xlink:href="#DejaVuSans-79" x="1180.019531"/>
     </g>
    </g>
    <g id="line2d_24">
     <path d="M 216.18875 293.004312 
L 226.18875 293.004312 
L 236.18875 293.004312 
" style="fill: none; stroke: #9467bd; stroke-width: 1.5; stroke-linecap: square"/>
    </g>
    <g id="text_22">
     <!-- SWA Robust Validation Accuracy -->
     <g transform="translate(244.18875 296.504312) scale(0.1 -0.1)">
      <use xlink:href="#DejaVuSans-53"/>
      <use xlink:href="#DejaVuSans-57" x="63.476562"/>
      <use xlink:href="#DejaVuSans-41" x="156.853516"/>
      <use xlink:href="#DejaVuSans-20" x="225.261719"/>
      <use xlink:href="#DejaVuSans-52" x="257.048828"/>
      <use xlink:href="#DejaVuSans-6f" x="322.03125"/>
      <use xlink:href="#DejaVuSans-62" x="383.212891"/>
      <use xlink:href="#DejaVuSans-75" x="446.689453"/>
      <use xlink:href="#DejaVuSans-73" x="510.068359"/>
      <use xlink:href="#DejaVuSans-74" x="562.167969"/>
      <use xlink:href="#DejaVuSans-20" x="601.376953"/>
      <use xlink:href="#DejaVuSans-56" x="633.164062"/>
      <use xlink:href="#DejaVuSans-61" x="693.822266"/>
      <use xlink:href="#DejaVuSans-6c" x="755.101562"/>
      <use xlink:href="#DejaVuSans-69" x="782.884766"/>
      <use xlink:href="#DejaVuSans-64" x="810.667969"/>
      <use xlink:href="#DejaVuSans-61" x="874.144531"/>
      <use xlink:href="#DejaVuSans-74" x="935.423828"/>
      <use xlink:href="#DejaVuSans-69" x="974.632812"/>
      <use xlink:href="#DejaVuSans-6f" x="1002.416016"/>
      <use xlink:href="#DejaVuSans-6e" x="1063.597656"/>
      <use xlink:href="#DejaVuSans-20" x="1126.976562"/>
      <use xlink:href="#DejaVuSans-41" x="1158.763672"/>
      <use xlink:href="#DejaVuSans-63" x="1225.421875"/>
      <use xlink:href="#DejaVuSans-63" x="1280.402344"/>
      <use xlink:href="#DejaVuSans-75" x="1335.382812"/>
      <use xlink:href="#DejaVuSans-72" x="1398.761719"/>
      <use xlink:href="#DejaVuSans-61" x="1439.875"/>
      <use xlink:href="#DejaVuSans-63" x="1501.154297"/>
      <use xlink:href="#DejaVuSans-79" x="1556.134766"/>
     </g>
    </g>
   </g>
  </g>
 </g>
 <defs>
  <clipPath id="pa9daa7faf1">
   <rect x="57.6" y="41.472" width="357.12" height="266.112"/>
  </clipPath>
 </defs>
</svg>
