<?xml version="1.0" encoding="utf-8" standalone="no"?>
<!DOCTYPE svg PUBLIC "-//W3C//DTD SVG 1.1//EN"
  "http://www.w3.org/Graphics/SVG/1.1/DTD/svg11.dtd">
<svg xmlns:xlink="http://www.w3.org/1999/xlink" width="460.8pt" height="345.6pt" viewBox="0 0 460.8 345.6" xmlns="http://www.w3.org/2000/svg" version="1.1">
 <metadata>
  <rdf:RDF xmlns:dc="http://purl.org/dc/elements/1.1/" xmlns:cc="http://creativecommons.org/ns#" xmlns:rdf="http://www.w3.org/1999/02/22-rdf-syntax-ns#">
   <cc:Work>
    <dc:type rdf:resource="http://purl.org/dc/dcmitype/StillImage"/>
    <dc:date>2025-02-23T03:48:20.828111</dc:date>
    <dc:format>image/svg+xml</dc:format>
    <dc:creator>
     <cc:Agent>
      <dc:title>Matplotlib v3.9.1, https://matplotlib.org/</dc:title>
     </cc:Agent>
    </dc:creator>
   </cc:Work>
  </rdf:RDF>
 </metadata>
 <defs>
  <style type="text/css">*{stroke-linejoin: round; stroke-linecap: butt}</style>
 </defs>
 <g id="figure_1">
  <g id="patch_1">
   <path d="M 0 345.6 
L 460.8 345.6 
L 460.8 0 
L 0 0 
z
" style="fill: #ffffff"/>
  </g>
  <g id="axes_1">
   <g id="patch_2">
    <path d="M 57.6 307.584 
L 414.72 307.584 
L 414.72 41.472 
L 57.6 41.472 
z
" style="fill: #ffffff"/>
   </g>
   <g id="matplotlib.axis_1">
    <g id="xtick_1">
     <g id="line2d_1">
      <defs>
       <path id="mfaf77f2058" d="M 0 0 
L 0 3.5 
" style="stroke: #000000; stroke-width: 0.8"/>
      </defs>
      <g>
       <use xlink:href="#mfaf77f2058" x="73.832727" y="307.584" style="stroke: #000000; stroke-width: 0.8"/>
      </g>
     </g>
     <g id="text_1">
      <!-- 1 -->
      <g transform="translate(70.651477 322.182437) scale(0.1 -0.1)">
       <defs>
        <path id="DejaVuSans-31" d="M 794 531 
L 1825 531 
L 1825 4091 
L 703 3866 
L 703 4441 
L 1819 4666 
L 2450 4666 
L 2450 531 
L 3481 531 
L 3481 0 
L 794 0 
L 794 531 
z
" transform="scale(0.015625)"/>
       </defs>
       <use xlink:href="#DejaVuSans-31"/>
      </g>
     </g>
    </g>
    <g id="xtick_2">
     <g id="line2d_2">
      <g>
       <use xlink:href="#mfaf77f2058" x="109.664165" y="307.584" style="stroke: #000000; stroke-width: 0.8"/>
      </g>
     </g>
     <g id="text_2">
      <!-- 34 -->
      <g transform="translate(103.301665 322.182437) scale(0.1 -0.1)">
       <defs>
        <path id="DejaVuSans-33" d="M 2597 2516 
Q 3050 2419 3304 2112 
Q 3559 1806 3559 1356 
Q 3559 666 3084 287 
Q 2609 -91 1734 -91 
Q 1441 -91 1130 -33 
Q 819 25 488 141 
L 488 750 
Q 750 597 1062 519 
Q 1375 441 1716 441 
Q 2309 441 2620 675 
Q 2931 909 2931 1356 
Q 2931 1769 2642 2001 
Q 2353 2234 1838 2234 
L 1294 2234 
L 1294 2753 
L 1863 2753 
Q 2328 2753 2575 2939 
Q 2822 3125 2822 3475 
Q 2822 3834 2567 4026 
Q 2313 4219 1838 4219 
Q 1578 4219 1281 4162 
Q 984 4106 628 3988 
L 628 4550 
Q 988 4650 1302 4700 
Q 1616 4750 1894 4750 
Q 2613 4750 3031 4423 
Q 3450 4097 3450 3541 
Q 3450 3153 3228 2886 
Q 3006 2619 2597 2516 
z
" transform="scale(0.015625)"/>
        <path id="DejaVuSans-34" d="M 2419 4116 
L 825 1625 
L 2419 1625 
L 2419 4116 
z
M 2253 4666 
L 3047 4666 
L 3047 1625 
L 3713 1625 
L 3713 1100 
L 3047 1100 
L 3047 0 
L 2419 0 
L 2419 1100 
L 313 1100 
L 313 1709 
L 2253 4666 
z
" transform="scale(0.015625)"/>
       </defs>
       <use xlink:href="#DejaVuSans-33"/>
       <use xlink:href="#DejaVuSans-34" x="63.623047"/>
      </g>
     </g>
    </g>
    <g id="xtick_3">
     <g id="line2d_3">
      <g>
       <use xlink:href="#mfaf77f2058" x="145.495604" y="307.584" style="stroke: #000000; stroke-width: 0.8"/>
      </g>
     </g>
     <g id="text_3">
      <!-- 67 -->
      <g transform="translate(139.133104 322.182437) scale(0.1 -0.1)">
       <defs>
        <path id="DejaVuSans-36" d="M 2113 2584 
Q 1688 2584 1439 2293 
Q 1191 2003 1191 1497 
Q 1191 994 1439 701 
Q 1688 409 2113 409 
Q 2538 409 2786 701 
Q 3034 994 3034 1497 
Q 3034 2003 2786 2293 
Q 2538 2584 2113 2584 
z
M 3366 4563 
L 3366 3988 
Q 3128 4100 2886 4159 
Q 2644 4219 2406 4219 
Q 1781 4219 1451 3797 
Q 1122 3375 1075 2522 
Q 1259 2794 1537 2939 
Q 1816 3084 2150 3084 
Q 2853 3084 3261 2657 
Q 3669 2231 3669 1497 
Q 3669 778 3244 343 
Q 2819 -91 2113 -91 
Q 1303 -91 875 529 
Q 447 1150 447 2328 
Q 447 3434 972 4092 
Q 1497 4750 2381 4750 
Q 2619 4750 2861 4703 
Q 3103 4656 3366 4563 
z
" transform="scale(0.015625)"/>
        <path id="DejaVuSans-37" d="M 525 4666 
L 3525 4666 
L 3525 4397 
L 1831 0 
L 1172 0 
L 2766 4134 
L 525 4134 
L 525 4666 
z
" transform="scale(0.015625)"/>
       </defs>
       <use xlink:href="#DejaVuSans-36"/>
       <use xlink:href="#DejaVuSans-37" x="63.623047"/>
      </g>
     </g>
    </g>
    <g id="xtick_4">
     <g id="line2d_4">
      <g>
       <use xlink:href="#mfaf77f2058" x="181.327042" y="307.584" style="stroke: #000000; stroke-width: 0.8"/>
      </g>
     </g>
     <g id="text_4">
      <!-- 100 -->
      <g transform="translate(171.783292 322.182437) scale(0.1 -0.1)">
       <defs>
        <path id="DejaVuSans-30" d="M 2034 4250 
Q 1547 4250 1301 3770 
Q 1056 3291 1056 2328 
Q 1056 1369 1301 889 
Q 1547 409 2034 409 
Q 2525 409 2770 889 
Q 3016 1369 3016 2328 
Q 3016 3291 2770 3770 
Q 2525 4250 2034 4250 
z
M 2034 4750 
Q 2819 4750 3233 4129 
Q 3647 3509 3647 2328 
Q 3647 1150 3233 529 
Q 2819 -91 2034 -91 
Q 1250 -91 836 529 
Q 422 1150 422 2328 
Q 422 3509 836 4129 
Q 1250 4750 2034 4750 
z
" transform="scale(0.015625)"/>
       </defs>
       <use xlink:href="#DejaVuSans-31"/>
       <use xlink:href="#DejaVuSans-30" x="63.623047"/>
       <use xlink:href="#DejaVuSans-30" x="127.246094"/>
      </g>
     </g>
    </g>
    <g id="xtick_5">
     <g id="line2d_5">
      <g>
       <use xlink:href="#mfaf77f2058" x="217.15848" y="307.584" style="stroke: #000000; stroke-width: 0.8"/>
      </g>
     </g>
     <g id="text_5">
      <!-- 133 -->
      <g transform="translate(207.61473 322.182437) scale(0.1 -0.1)">
       <use xlink:href="#DejaVuSans-31"/>
       <use xlink:href="#DejaVuSans-33" x="63.623047"/>
       <use xlink:href="#DejaVuSans-33" x="127.246094"/>
      </g>
     </g>
    </g>
    <g id="xtick_6">
     <g id="line2d_6">
      <g>
       <use xlink:href="#mfaf77f2058" x="254.075719" y="307.584" style="stroke: #000000; stroke-width: 0.8"/>
      </g>
     </g>
     <g id="text_6">
      <!-- 167 -->
      <g transform="translate(244.531969 322.182437) scale(0.1 -0.1)">
       <use xlink:href="#DejaVuSans-31"/>
       <use xlink:href="#DejaVuSans-36" x="63.623047"/>
       <use xlink:href="#DejaVuSans-37" x="127.246094"/>
      </g>
     </g>
    </g>
    <g id="xtick_7">
     <g id="line2d_7">
      <g>
       <use xlink:href="#mfaf77f2058" x="289.907157" y="307.584" style="stroke: #000000; stroke-width: 0.8"/>
      </g>
     </g>
     <g id="text_7">
      <!-- 200 -->
      <g transform="translate(280.363407 322.182437) scale(0.1 -0.1)">
       <defs>
        <path id="DejaVuSans-32" d="M 1228 531 
L 3431 531 
L 3431 0 
L 469 0 
L 469 531 
Q 828 903 1448 1529 
Q 2069 2156 2228 2338 
Q 2531 2678 2651 2914 
Q 2772 3150 2772 3378 
Q 2772 3750 2511 3984 
Q 2250 4219 1831 4219 
Q 1534 4219 1204 4116 
Q 875 4013 500 3803 
L 500 4441 
Q 881 4594 1212 4672 
Q 1544 4750 1819 4750 
Q 2544 4750 2975 4387 
Q 3406 4025 3406 3419 
Q 3406 3131 3298 2873 
Q 3191 2616 2906 2266 
Q 2828 2175 2409 1742 
Q 1991 1309 1228 531 
z
" transform="scale(0.015625)"/>
       </defs>
       <use xlink:href="#DejaVuSans-32"/>
       <use xlink:href="#DejaVuSans-30" x="63.623047"/>
       <use xlink:href="#DejaVuSans-30" x="127.246094"/>
      </g>
     </g>
    </g>
    <g id="xtick_8">
     <g id="line2d_8">
      <g>
       <use xlink:href="#mfaf77f2058" x="325.738595" y="307.584" style="stroke: #000000; stroke-width: 0.8"/>
      </g>
     </g>
     <g id="text_8">
      <!-- 233 -->
      <g transform="translate(316.194845 322.182437) scale(0.1 -0.1)">
       <use xlink:href="#DejaVuSans-32"/>
       <use xlink:href="#DejaVuSans-33" x="63.623047"/>
       <use xlink:href="#DejaVuSans-33" x="127.246094"/>
      </g>
     </g>
    </g>
    <g id="xtick_9">
     <g id="line2d_9">
      <g>
       <use xlink:href="#mfaf77f2058" x="361.570033" y="307.584" style="stroke: #000000; stroke-width: 0.8"/>
      </g>
     </g>
     <g id="text_9">
      <!-- 266 -->
      <g transform="translate(352.026283 322.182437) scale(0.1 -0.1)">
       <use xlink:href="#DejaVuSans-32"/>
       <use xlink:href="#DejaVuSans-36" x="63.623047"/>
       <use xlink:href="#DejaVuSans-36" x="127.246094"/>
      </g>
     </g>
    </g>
    <g id="xtick_10">
     <g id="line2d_10">
      <g>
       <use xlink:href="#mfaf77f2058" x="398.487273" y="307.584" style="stroke: #000000; stroke-width: 0.8"/>
      </g>
     </g>
     <g id="text_10">
      <!-- 300 -->
      <g transform="translate(388.943523 322.182437) scale(0.1 -0.1)">
       <use xlink:href="#DejaVuSans-33"/>
       <use xlink:href="#DejaVuSans-30" x="63.623047"/>
       <use xlink:href="#DejaVuSans-30" x="127.246094"/>
      </g>
     </g>
    </g>
    <g id="text_11">
     <!-- Epochs -->
     <g transform="translate(218.244375 335.860562) scale(0.1 -0.1)">
      <defs>
       <path id="DejaVuSans-45" d="M 628 4666 
L 3578 4666 
L 3578 4134 
L 1259 4134 
L 1259 2753 
L 3481 2753 
L 3481 2222 
L 1259 2222 
L 1259 531 
L 3634 531 
L 3634 0 
L 628 0 
L 628 4666 
z
" transform="scale(0.015625)"/>
       <path id="DejaVuSans-70" d="M 1159 525 
L 1159 -1331 
L 581 -1331 
L 581 3500 
L 1159 3500 
L 1159 2969 
Q 1341 3281 1617 3432 
Q 1894 3584 2278 3584 
Q 2916 3584 3314 3078 
Q 3713 2572 3713 1747 
Q 3713 922 3314 415 
Q 2916 -91 2278 -91 
Q 1894 -91 1617 61 
Q 1341 213 1159 525 
z
M 3116 1747 
Q 3116 2381 2855 2742 
Q 2594 3103 2138 3103 
Q 1681 3103 1420 2742 
Q 1159 2381 1159 1747 
Q 1159 1113 1420 752 
Q 1681 391 2138 391 
Q 2594 391 2855 752 
Q 3116 1113 3116 1747 
z
" transform="scale(0.015625)"/>
       <path id="DejaVuSans-6f" d="M 1959 3097 
Q 1497 3097 1228 2736 
Q 959 2375 959 1747 
Q 959 1119 1226 758 
Q 1494 397 1959 397 
Q 2419 397 2687 759 
Q 2956 1122 2956 1747 
Q 2956 2369 2687 2733 
Q 2419 3097 1959 3097 
z
M 1959 3584 
Q 2709 3584 3137 3096 
Q 3566 2609 3566 1747 
Q 3566 888 3137 398 
Q 2709 -91 1959 -91 
Q 1206 -91 779 398 
Q 353 888 353 1747 
Q 353 2609 779 3096 
Q 1206 3584 1959 3584 
z
" transform="scale(0.015625)"/>
       <path id="DejaVuSans-63" d="M 3122 3366 
L 3122 2828 
Q 2878 2963 2633 3030 
Q 2388 3097 2138 3097 
Q 1578 3097 1268 2742 
Q 959 2388 959 1747 
Q 959 1106 1268 751 
Q 1578 397 2138 397 
Q 2388 397 2633 464 
Q 2878 531 3122 666 
L 3122 134 
Q 2881 22 2623 -34 
Q 2366 -91 2075 -91 
Q 1284 -91 818 406 
Q 353 903 353 1747 
Q 353 2603 823 3093 
Q 1294 3584 2113 3584 
Q 2378 3584 2631 3529 
Q 2884 3475 3122 3366 
z
" transform="scale(0.015625)"/>
       <path id="DejaVuSans-68" d="M 3513 2113 
L 3513 0 
L 2938 0 
L 2938 2094 
Q 2938 2591 2744 2837 
Q 2550 3084 2163 3084 
Q 1697 3084 1428 2787 
Q 1159 2491 1159 1978 
L 1159 0 
L 581 0 
L 581 4863 
L 1159 4863 
L 1159 2956 
Q 1366 3272 1645 3428 
Q 1925 3584 2291 3584 
Q 2894 3584 3203 3211 
Q 3513 2838 3513 2113 
z
" transform="scale(0.015625)"/>
       <path id="DejaVuSans-73" d="M 2834 3397 
L 2834 2853 
Q 2591 2978 2328 3040 
Q 2066 3103 1784 3103 
Q 1356 3103 1142 2972 
Q 928 2841 928 2578 
Q 928 2378 1081 2264 
Q 1234 2150 1697 2047 
L 1894 2003 
Q 2506 1872 2764 1633 
Q 3022 1394 3022 966 
Q 3022 478 2636 193 
Q 2250 -91 1575 -91 
Q 1294 -91 989 -36 
Q 684 19 347 128 
L 347 722 
Q 666 556 975 473 
Q 1284 391 1588 391 
Q 1994 391 2212 530 
Q 2431 669 2431 922 
Q 2431 1156 2273 1281 
Q 2116 1406 1581 1522 
L 1381 1569 
Q 847 1681 609 1914 
Q 372 2147 372 2553 
Q 372 3047 722 3315 
Q 1072 3584 1716 3584 
Q 2034 3584 2315 3537 
Q 2597 3491 2834 3397 
z
" transform="scale(0.015625)"/>
      </defs>
      <use xlink:href="#DejaVuSans-45"/>
      <use xlink:href="#DejaVuSans-70" x="63.183594"/>
      <use xlink:href="#DejaVuSans-6f" x="126.660156"/>
      <use xlink:href="#DejaVuSans-63" x="187.841797"/>
      <use xlink:href="#DejaVuSans-68" x="242.822266"/>
      <use xlink:href="#DejaVuSans-73" x="306.201172"/>
     </g>
    </g>
   </g>
   <g id="matplotlib.axis_2">
    <g id="ytick_1">
     <g id="line2d_11">
      <defs>
       <path id="m2650dbf827" d="M 0 0 
L -3.5 0 
" style="stroke: #000000; stroke-width: 0.8"/>
      </defs>
      <g>
       <use xlink:href="#m2650dbf827" x="57.6" y="261.87862" style="stroke: #000000; stroke-width: 0.8"/>
      </g>
     </g>
     <g id="text_12">
      <!-- 20 -->
      <g transform="translate(37.875 265.677839) scale(0.1 -0.1)">
       <use xlink:href="#DejaVuSans-32"/>
       <use xlink:href="#DejaVuSans-30" x="63.623047"/>
      </g>
     </g>
    </g>
    <g id="ytick_2">
     <g id="line2d_12">
      <g>
       <use xlink:href="#m2650dbf827" x="57.6" y="203.660398" style="stroke: #000000; stroke-width: 0.8"/>
      </g>
     </g>
     <g id="text_13">
      <!-- 40 -->
      <g transform="translate(37.875 207.459617) scale(0.1 -0.1)">
       <use xlink:href="#DejaVuSans-34"/>
       <use xlink:href="#DejaVuSans-30" x="63.623047"/>
      </g>
     </g>
    </g>
    <g id="ytick_3">
     <g id="line2d_13">
      <g>
       <use xlink:href="#m2650dbf827" x="57.6" y="145.442176" style="stroke: #000000; stroke-width: 0.8"/>
      </g>
     </g>
     <g id="text_14">
      <!-- 60 -->
      <g transform="translate(37.875 149.241395) scale(0.1 -0.1)">
       <use xlink:href="#DejaVuSans-36"/>
       <use xlink:href="#DejaVuSans-30" x="63.623047"/>
      </g>
     </g>
    </g>
    <g id="ytick_4">
     <g id="line2d_14">
      <g>
       <use xlink:href="#m2650dbf827" x="57.6" y="87.223954" style="stroke: #000000; stroke-width: 0.8"/>
      </g>
     </g>
     <g id="text_15">
      <!-- 80 -->
      <g transform="translate(37.875 91.023173) scale(0.1 -0.1)">
       <defs>
        <path id="DejaVuSans-38" d="M 2034 2216 
Q 1584 2216 1326 1975 
Q 1069 1734 1069 1313 
Q 1069 891 1326 650 
Q 1584 409 2034 409 
Q 2484 409 2743 651 
Q 3003 894 3003 1313 
Q 3003 1734 2745 1975 
Q 2488 2216 2034 2216 
z
M 1403 2484 
Q 997 2584 770 2862 
Q 544 3141 544 3541 
Q 544 4100 942 4425 
Q 1341 4750 2034 4750 
Q 2731 4750 3128 4425 
Q 3525 4100 3525 3541 
Q 3525 3141 3298 2862 
Q 3072 2584 2669 2484 
Q 3125 2378 3379 2068 
Q 3634 1759 3634 1313 
Q 3634 634 3220 271 
Q 2806 -91 2034 -91 
Q 1263 -91 848 271 
Q 434 634 434 1313 
Q 434 1759 690 2068 
Q 947 2378 1403 2484 
z
M 1172 3481 
Q 1172 3119 1398 2916 
Q 1625 2713 2034 2713 
Q 2441 2713 2670 2916 
Q 2900 3119 2900 3481 
Q 2900 3844 2670 4047 
Q 2441 4250 2034 4250 
Q 1625 4250 1398 4047 
Q 1172 3844 1172 3481 
z
" transform="scale(0.015625)"/>
       </defs>
       <use xlink:href="#DejaVuSans-38"/>
       <use xlink:href="#DejaVuSans-30" x="63.623047"/>
      </g>
     </g>
    </g>
    <g id="text_16">
     <!-- Accuracy -->
     <g transform="translate(31.795312 197.356125) rotate(-90) scale(0.1 -0.1)">
      <defs>
       <path id="DejaVuSans-41" d="M 2188 4044 
L 1331 1722 
L 3047 1722 
L 2188 4044 
z
M 1831 4666 
L 2547 4666 
L 4325 0 
L 3669 0 
L 3244 1197 
L 1141 1197 
L 716 0 
L 50 0 
L 1831 4666 
z
" transform="scale(0.015625)"/>
       <path id="DejaVuSans-75" d="M 544 1381 
L 544 3500 
L 1119 3500 
L 1119 1403 
Q 1119 906 1312 657 
Q 1506 409 1894 409 
Q 2359 409 2629 706 
Q 2900 1003 2900 1516 
L 2900 3500 
L 3475 3500 
L 3475 0 
L 2900 0 
L 2900 538 
Q 2691 219 2414 64 
Q 2138 -91 1772 -91 
Q 1169 -91 856 284 
Q 544 659 544 1381 
z
M 1991 3584 
L 1991 3584 
z
" transform="scale(0.015625)"/>
       <path id="DejaVuSans-72" d="M 2631 2963 
Q 2534 3019 2420 3045 
Q 2306 3072 2169 3072 
Q 1681 3072 1420 2755 
Q 1159 2438 1159 1844 
L 1159 0 
L 581 0 
L 581 3500 
L 1159 3500 
L 1159 2956 
Q 1341 3275 1631 3429 
Q 1922 3584 2338 3584 
Q 2397 3584 2469 3576 
Q 2541 3569 2628 3553 
L 2631 2963 
z
" transform="scale(0.015625)"/>
       <path id="DejaVuSans-61" d="M 2194 1759 
Q 1497 1759 1228 1600 
Q 959 1441 959 1056 
Q 959 750 1161 570 
Q 1363 391 1709 391 
Q 2188 391 2477 730 
Q 2766 1069 2766 1631 
L 2766 1759 
L 2194 1759 
z
M 3341 1997 
L 3341 0 
L 2766 0 
L 2766 531 
Q 2569 213 2275 61 
Q 1981 -91 1556 -91 
Q 1019 -91 701 211 
Q 384 513 384 1019 
Q 384 1609 779 1909 
Q 1175 2209 1959 2209 
L 2766 2209 
L 2766 2266 
Q 2766 2663 2505 2880 
Q 2244 3097 1772 3097 
Q 1472 3097 1187 3025 
Q 903 2953 641 2809 
L 641 3341 
Q 956 3463 1253 3523 
Q 1550 3584 1831 3584 
Q 2591 3584 2966 3190 
Q 3341 2797 3341 1997 
z
" transform="scale(0.015625)"/>
       <path id="DejaVuSans-79" d="M 2059 -325 
Q 1816 -950 1584 -1140 
Q 1353 -1331 966 -1331 
L 506 -1331 
L 506 -850 
L 844 -850 
Q 1081 -850 1212 -737 
Q 1344 -625 1503 -206 
L 1606 56 
L 191 3500 
L 800 3500 
L 1894 763 
L 2988 3500 
L 3597 3500 
L 2059 -325 
z
" transform="scale(0.015625)"/>
      </defs>
      <use xlink:href="#DejaVuSans-41"/>
      <use xlink:href="#DejaVuSans-63" x="66.658203"/>
      <use xlink:href="#DejaVuSans-63" x="121.638672"/>
      <use xlink:href="#DejaVuSans-75" x="176.619141"/>
      <use xlink:href="#DejaVuSans-72" x="239.998047"/>
      <use xlink:href="#DejaVuSans-61" x="281.111328"/>
      <use xlink:href="#DejaVuSans-63" x="342.390625"/>
      <use xlink:href="#DejaVuSans-79" x="397.371094"/>
     </g>
    </g>
   </g>
   <g id="line2d_15">
    <path d="M 73.832727 295.488 
L 76.00433 218.733096 
L 77.090131 189.414399 
L 78.175932 168.001737 
L 79.261733 153.726629 
L 81.433335 136.09233 
L 82.519137 128.430812 
L 83.604938 123.488085 
L 84.690739 116.985109 
L 85.77654 113.41051 
L 86.862341 108.013681 
L 87.948142 105.341465 
L 89.033943 101.068247 
L 90.119745 98.692944 
L 92.291347 94.780679 
L 93.377148 93.010845 
L 94.462949 90.967386 
L 95.54875 118.172761 
L 96.634552 118.056325 
L 97.720353 114.563231 
L 98.806154 112.519772 
L 99.891955 110.062963 
L 102.063557 106.371927 
L 103.149358 105.131879 
L 104.23516 101.766866 
L 105.320961 99.938814 
L 106.406762 97.383034 
L 107.492563 96.684415 
L 108.578364 94.990265 
L 109.664165 92.807082 
L 110.749967 92.277296 
L 111.835768 89.238305 
L 112.921569 88.481468 
L 114.00737 88.190377 
L 115.093171 84.708927 
L 116.178972 83.608603 
L 117.264773 82.799369 
L 119.436376 80.412422 
L 120.522177 80.738444 
L 121.607978 78.176842 
L 122.693779 76.243997 
L 123.77958 75.312506 
L 124.865382 74.177251 
L 125.951183 73.897803 
L 128.122785 71.644758 
L 129.208586 71.132438 
L 130.294387 70.876277 
L 131.380189 69.234524 
L 132.46599 68.204061 
L 133.551791 67.819821 
L 134.637592 67.161955 
L 135.723393 67.703384 
L 136.809194 66.201354 
L 137.894995 66.480802 
L 138.980797 89.086937 
L 140.066598 91.910521 
L 141.152399 90.228014 
L 142.2382 91.147862 
L 143.324001 90.920811 
L 144.409802 90.530749 
L 145.495604 89.901992 
L 146.581405 88.172911 
L 147.667206 87.94586 
L 148.753007 87.404431 
L 149.838808 86.280819 
L 150.924609 84.708927 
L 152.01041 85.064058 
L 153.096212 84.481876 
L 154.182013 84.377083 
L 155.267814 84.481876 
L 156.353615 83.69593 
L 157.439416 83.055529 
L 158.525217 81.84459 
L 159.611019 80.295986 
L 160.69682 80.476462 
L 161.782621 80.493928 
L 162.868422 80.796662 
L 163.954223 79.370316 
L 165.040024 79.7662 
L 166.125825 79.079225 
L 167.211627 79.306276 
L 168.297428 77.507333 
L 169.383229 77.192955 
L 171.554831 75.335793 
L 172.640632 75.562844 
L 173.726434 74.497451 
L 174.812235 73.827941 
L 176.983837 73.53685 
L 178.069638 72.733439 
L 179.155439 71.755373 
L 180.24124 71.609827 
L 181.327042 70.451284 
L 182.412843 70.940317 
L 183.498644 70.334848 
L 184.584445 69.380069 
L 185.670246 70.078688 
L 186.756047 68.55337 
L 187.841849 68.238992 
L 188.92765 67.540373 
L 190.013451 66.550664 
L 191.099252 66.713675 
L 192.185053 66.032521 
L 193.270854 65.619172 
L 194.356656 64.75172 
L 195.442457 64.961306 
L 196.528258 64.827404 
L 197.614059 63.750367 
L 198.69986 62.999352 
L 199.785661 62.778123 
L 200.871462 63.051748 
L 201.957264 61.520609 
L 203.043065 61.293558 
L 204.128866 60.484325 
L 206.300468 60.140837 
L 207.386269 60.216521 
L 208.472071 59.500437 
L 209.557872 58.988116 
L 210.643673 58.347716 
L 212.815275 58.61552 
L 213.901076 58.638807 
L 214.986877 56.933013 
L 216.072679 57.736425 
L 217.15848 57.061093 
L 218.244281 58.07409 
L 219.330082 57.160064 
L 220.415883 57.375472 
L 222.587486 56.973766 
L 223.673287 57.090202 
L 224.759088 56.409049 
L 225.844889 77.367609 
L 226.93069 79.95832 
L 228.016491 80.074757 
L 229.102292 81.058644 
L 230.188094 80.464819 
L 231.273895 80.453175 
L 232.359696 81.023714 
L 233.445497 80.913099 
L 234.531298 79.7662 
L 235.617099 79.09669 
L 236.702901 78.729916 
L 237.788702 78.869639 
L 238.874503 78.729916 
L 239.960304 78.881283 
L 241.046105 79.347029 
L 242.131906 77.711097 
L 243.217708 78.415537 
L 244.303509 77.897395 
L 245.38931 77.577195 
L 246.475111 76.960082 
L 247.560912 76.558376 
L 248.646713 76.995013 
L 250.818316 76.354612 
L 252.989918 76.255641 
L 254.075719 77.070696 
L 255.16152 75.533735 
L 256.247321 74.835117 
L 257.333123 74.922444 
L 258.418924 74.870047 
L 259.504725 74.183072 
L 260.590526 75.033058 
L 261.676327 74.625531 
L 262.762128 73.973487 
L 263.847929 73.915269 
L 264.933731 74.584778 
L 266.019532 72.710151 
L 267.105333 74.025883 
L 268.191134 73.659108 
L 269.276935 72.634468 
L 270.362736 72.715973 
L 271.448538 72.395773 
L 272.534339 72.797479 
L 273.62014 72.762548 
L 274.705941 71.697154 
L 276.877543 72.075573 
L 277.963344 71.615649 
L 279.049146 71.452638 
L 280.134947 71.860165 
L 281.220748 70.346492 
L 282.306549 71.371132 
L 283.39235 70.381423 
L 284.478151 69.95643 
L 285.563953 69.246167 
L 286.649754 70.061222 
L 287.735555 69.764309 
L 288.821356 69.251989 
L 289.907157 69.548902 
L 290.992958 70.247521 
L 292.07876 68.675629 
L 293.164561 68.308854 
L 294.250362 67.819821 
L 295.336163 67.883861 
L 296.421964 68.698916 
L 297.507765 67.796533 
L 298.593566 67.581126 
L 299.679368 67.883861 
L 300.765169 67.598592 
L 301.85097 66.835933 
L 302.936771 66.85922 
L 304.022572 67.057162 
L 305.108373 66.480802 
L 306.194175 66.271216 
L 307.279976 65.857867 
L 308.365777 66.440049 
L 309.451578 65.846223 
L 310.537379 65.397943 
L 311.62318 65.223288 
L 312.708981 65.188357 
L 313.794783 64.873979 
L 314.880584 64.285975 
L 315.966385 63.482563 
L 317.052186 64.373302 
L 318.137987 64.006527 
L 319.223788 63.85516 
L 320.30959 63.150719 
L 321.395391 62.603468 
L 322.481192 62.847985 
L 323.566993 62.271624 
L 324.652794 63.267156 
L 325.738595 62.050395 
L 326.824396 61.677798 
L 327.910198 61.823344 
L 328.995999 61.276093 
L 330.0818 60.97918 
L 331.167601 61.072329 
L 332.253402 60.810347 
L 333.339203 60.030223 
L 334.425005 60.752129 
L 335.510806 59.680913 
L 336.596607 59.66927 
L 337.682408 60.024401 
L 338.768209 59.267564 
L 339.85401 59.401466 
L 340.939811 58.761065 
L 343.111414 58.627163 
L 344.197215 57.602523 
L 345.283016 57.975119 
L 346.368817 57.794643 
L 347.454618 57.328897 
L 348.54042 57.957654 
L 349.626221 56.624457 
L 350.712022 57.88197 
L 351.797823 56.461446 
L 352.883624 56.024809 
L 353.969425 56.001522 
L 355.055227 56.25186 
L 356.141028 55.401874 
L 357.226829 55.890907 
L 358.31263 55.425161 
L 359.398431 55.698787 
L 360.484232 55.128248 
L 361.570033 55.442627 
L 362.655835 53.928953 
L 363.741636 54.534422 
L 364.827437 54.167648 
L 365.913238 54.784761 
L 366.999039 53.568 
L 368.08484 54.639215 
L 369.170642 54.615928 
L 370.256443 54.918663 
L 371.342244 56.420693 
L 372.428045 56.414871 
L 373.513846 57.107668 
L 374.599647 56.79329 
L 375.685448 56.735071 
L 376.77125 56.374118 
L 377.857051 57.392937 
L 378.942852 57.363828 
L 380.028653 57.538483 
L 381.114454 57.125133 
L 382.200255 56.898082 
L 383.286057 57.055272 
L 384.371858 56.898082 
L 385.457659 57.835396 
L 386.54346 56.758359 
L 387.629261 56.950479 
L 388.715062 57.619988 
L 389.800863 57.130955 
L 390.886665 57.17753 
L 393.058267 56.729249 
L 394.144068 57.229926 
L 395.229869 56.496377 
L 396.31567 57.264857 
L 397.401472 56.711784 
L 398.487273 57.24157 
L 398.487273 57.24157 
" clip-path="url(#pf1782739e6)" style="fill: none; stroke: #1f77b4; stroke-width: 1.5; stroke-linecap: square"/>
   </g>
   <g id="line2d_16">
    <path d="M 73.832727 281.323507 
L 76.00433 229.451071 
L 77.090131 213.673933 
L 78.175932 202.29227 
L 79.261733 193.384882 
L 80.347534 187.271969 
L 81.433335 185.991168 
L 83.604938 166.517173 
L 84.690739 160.142277 
L 85.77654 160.316932 
L 86.862341 155.251947 
L 87.948142 151.380435 
L 89.033943 149.226361 
L 90.119745 148.207542 
L 91.205546 146.257231 
L 92.291347 144.568903 
L 93.377148 144.889103 
L 94.462949 144.685339 
L 95.54875 168.787683 
L 96.634552 166.022318 
L 97.720353 158.133749 
L 98.806154 161.947042 
L 99.891955 156.008784 
L 100.977756 154.931746 
L 102.063557 149.866761 
L 103.149358 152.719454 
L 104.23516 150.478052 
L 105.320961 144.365139 
L 106.406762 143.841175 
L 107.492563 148.411306 
L 108.578364 142.997011 
L 109.664165 142.414829 
L 110.749967 136.360134 
L 111.835768 139.009063 
L 112.921569 135.690624 
L 114.00737 134.409823 
L 115.093171 135.253987 
L 116.178972 134.84646 
L 117.264773 131.411585 
L 118.350575 131.964658 
L 119.436376 126.870563 
L 120.522177 126.230163 
L 121.607978 128.500674 
L 122.693779 129.315729 
L 123.77958 126.113727 
L 124.865382 125.124017 
L 127.036984 121.165178 
L 128.122785 121.834687 
L 129.208586 119.243976 
L 130.294387 120.088141 
L 131.380189 119.273085 
L 132.46599 119.12754 
L 133.551791 118.399812 
L 135.723393 116.50772 
L 136.809194 117.730303 
L 137.894995 117.177229 
L 138.980797 142.152847 
L 140.066598 138.019353 
L 141.152399 138.601535 
L 142.2382 139.882336 
L 143.324001 139.7659 
L 144.409802 138.252226 
L 145.495604 134.52626 
L 146.581405 137.524498 
L 147.667206 135.399533 
L 148.753007 131.266039 
L 149.838808 134.409823 
L 150.924609 133.885859 
L 152.01041 133.973187 
L 153.096212 134.933787 
L 154.182013 131.935549 
L 155.267814 131.149603 
L 156.353615 135.341315 
L 157.439416 130.218111 
L 158.525217 131.004057 
L 159.611019 133.85675 
L 160.69682 128.646219 
L 161.782621 129.228401 
L 162.868422 126.463036 
L 163.954223 127.365418 
L 165.040024 128.064037 
L 166.125825 128.209583 
L 167.211627 126.346599 
L 168.297428 128.355128 
L 169.383229 125.00758 
L 170.46903 129.60682 
L 171.554831 126.899673 
L 172.640632 124.541835 
L 173.726434 123.959652 
L 174.812235 122.73707 
L 175.898036 123.901434 
L 176.983837 122.06756 
L 178.069638 124.832926 
L 179.155439 122.533306 
L 180.24124 122.999052 
L 181.327042 123.231925 
L 182.412843 119.884377 
L 183.498644 120.932305 
L 184.584445 117.788521 
L 185.670246 118.865558 
L 186.756047 117.81763 
L 187.841849 115.110483 
L 188.92765 115.983756 
L 191.099252 114.994046 
L 192.185053 116.158411 
L 193.270854 116.216629 
L 194.356656 116.536829 
L 195.442457 113.5677 
L 196.528258 112.286899 
L 197.614059 112.548881 
L 198.69986 111.792044 
L 199.785661 112.228681 
L 200.871462 109.870843 
L 201.957264 109.405097 
L 203.043065 109.114006 
L 204.128866 110.94788 
L 205.214667 108.881133 
L 206.300468 109.143115 
L 207.386269 108.706478 
L 208.472071 108.939351 
L 210.643673 107.251023 
L 211.729474 106.319531 
L 212.815275 106.843495 
L 213.901076 107.629441 
L 214.986877 106.610622 
L 216.072679 107.280132 
L 217.15848 106.756168 
L 218.244281 106.406858 
L 219.330082 106.377749 
L 220.415883 106.115767 
L 221.501684 105.562694 
L 222.587486 105.737349 
L 223.673287 105.417149 
L 224.759088 105.824676 
L 225.844889 131.033166 
L 226.93069 134.206059 
L 228.016491 130.771184 
L 229.102292 134.933787 
L 230.188094 127.190764 
L 231.273895 130.363657 
L 232.359696 131.993767 
L 233.445497 126.492145 
L 234.531298 131.760894 
L 235.617099 129.897911 
L 236.702901 129.839693 
L 237.788702 132.983477 
L 238.874503 125.851745 
L 239.960304 133.420113 
L 241.046105 128.005819 
L 242.131906 131.120494 
L 243.217708 130.945839 
L 244.303509 130.130784 
L 245.38931 126.725018 
L 246.475111 123.726779 
L 247.560912 128.558892 
L 248.646713 129.257511 
L 249.732514 125.385999 
L 250.818316 126.084617 
L 251.904117 127.831164 
L 252.989918 127.336309 
L 254.075719 127.394527 
L 255.16152 124.68738 
L 256.247321 124.978471 
L 257.333123 124.629162 
L 258.418924 127.97671 
L 259.504725 122.853506 
L 261.676327 127.3072 
L 262.762128 128.442455 
L 264.933731 121.718251 
L 266.019532 121.339832 
L 267.105333 124.512725 
L 268.191134 124.017871 
L 269.276935 124.396289 
L 270.362736 125.909963 
L 271.448538 124.832926 
L 272.534339 119.156649 
L 273.62014 122.649742 
L 274.705941 118.836449 
L 275.791742 121.718251 
L 276.877543 123.348361 
L 277.963344 119.098431 
L 279.049146 124.134307 
L 280.134947 120.088141 
L 281.220748 120.815868 
L 282.306549 121.136069 
L 283.39235 122.707961 
L 284.478151 120.932305 
L 285.563953 121.165178 
L 286.649754 119.389522 
L 287.735555 120.379232 
L 288.821356 119.389522 
L 289.907157 120.379232 
L 290.992958 118.283376 
L 292.07876 115.925538 
L 293.164561 121.106959 
L 294.250362 120.524777 
L 295.336163 115.256028 
L 296.421964 115.954647 
L 297.507765 119.942595 
L 298.593566 117.642975 
L 299.679368 119.535067 
L 300.765169 118.341594 
L 301.85097 118.254267 
L 302.936771 114.819391 
L 304.022572 119.185758 
L 305.108373 117.264557 
L 306.194175 114.266318 
L 307.279976 116.595047 
L 308.365777 112.723535 
L 309.451578 115.721774 
L 310.537379 114.120773 
L 311.62318 114.790282 
L 312.708981 114.004336 
L 313.794783 114.324537 
L 314.880584 114.2081 
L 315.966385 115.110483 
L 317.052186 116.595047 
L 318.137987 114.237209 
L 319.223788 113.305718 
L 320.30959 112.548881 
L 321.395391 113.509481 
L 322.481192 112.694426 
L 323.566993 113.509481 
L 324.652794 112.665317 
L 325.738595 111.966699 
L 326.824396 110.161934 
L 327.910198 111.26808 
L 328.995999 110.074606 
L 330.0818 113.101954 
L 331.167601 111.355407 
L 332.253402 108.910242 
L 333.339203 109.783515 
L 334.425005 109.521533 
L 335.510806 111.326298 
L 336.596607 109.696188 
L 337.682408 108.706478 
L 338.768209 108.64826 
L 339.85401 107.309241 
L 340.939811 107.454786 
L 342.025613 106.610622 
L 344.197215 107.745877 
L 345.283016 107.309241 
L 346.368817 107.833205 
L 347.454618 107.396568 
L 348.54042 105.213385 
L 349.626221 104.04902 
L 350.712022 104.340111 
L 351.797823 105.504476 
L 352.883624 104.71853 
L 353.969425 104.223675 
L 355.055227 105.562694 
L 356.141028 104.281893 
L 358.31263 103.40862 
L 359.398431 103.990802 
L 360.484232 103.845257 
L 361.570033 103.292183 
L 362.655835 102.593565 
L 363.741636 103.466838 
L 364.827437 103.903475 
L 365.913238 102.651783 
L 366.999039 101.924055 
L 368.08484 102.535347 
L 369.170642 104.485657 
L 370.256443 106.057549 
L 371.342244 105.912003 
L 372.428045 105.882894 
L 373.513846 105.70824 
L 374.599647 106.959931 
L 375.685448 105.882894 
L 376.77125 105.126057 
L 377.857051 106.552404 
L 378.942852 105.679131 
L 380.028653 107.949641 
L 381.114454 106.843495 
L 382.200255 105.446258 
L 383.286057 104.864075 
L 384.371858 105.970222 
L 385.457659 106.697949 
L 386.54346 106.989041 
L 387.629261 108.240732 
L 389.800863 106.989041 
L 390.886665 107.163695 
L 391.972466 106.639731 
L 393.058267 105.562694 
L 394.144068 105.853785 
L 395.229869 105.999331 
L 396.31567 106.785277 
L 397.401472 105.009621 
L 398.487273 104.04902 
L 398.487273 104.04902 
" clip-path="url(#pf1782739e6)" style="fill: none; stroke: #ff7f0e; stroke-width: 1.5; stroke-linecap: square"/>
   </g>
   <g id="line2d_17">
    <path d="M 73.832727 282.596277 
L 74.918528 270.069322 
L 76.00433 261.517266 
L 77.090131 232.408155 
L 78.175932 220.523607 
L 79.261733 220.443306 
L 80.347534 218.536158 
L 81.433335 220.222479 
L 82.519137 219.660372 
L 83.604938 201.452121 
L 84.690739 201.933927 
L 85.77654 201.873701 
L 86.862341 197.959028 
L 87.948142 194.90759 
L 89.033943 186.255157 
L 90.119745 187.600199 
L 91.205546 187.881253 
L 92.291347 187.760801 
L 93.377148 187.841102 
L 94.462949 188.583886 
L 95.54875 207.053115 
L 96.634552 200.649111 
L 97.720353 201.010465 
L 98.806154 204.724387 
L 99.891955 198.099554 
L 100.977756 204.302806 
L 102.063557 193.662924 
L 103.149358 198.099554 
L 105.320961 189.567574 
L 106.406762 188.86494 
L 107.492563 188.563811 
L 108.578364 193.442097 
L 109.664165 186.194932 
L 110.749967 187.800952 
L 111.835768 190.972841 
L 112.921569 180.533711 
L 114.00737 181.276496 
L 115.093171 184.388159 
L 116.178972 186.817264 
L 117.264773 183.183644 
L 118.350575 180.533711 
L 119.436376 173.547525 
L 120.522177 176.538737 
L 121.607978 175.053169 
L 122.693779 179.871228 
L 123.77958 174.992943 
L 124.865382 173.326697 
L 125.951183 173.085794 
L 127.036984 171.178645 
L 128.122785 172.72444 
L 129.208586 170.114657 
L 130.294387 170.877517 
L 131.380189 169.251422 
L 132.46599 171.319172 
L 133.551791 169.151045 
L 134.637592 169.432099 
L 135.723393 169.452174 
L 136.809194 168.32796 
L 137.894995 170.435861 
L 138.980797 191.816001 
L 140.066598 183.143494 
L 141.152399 190.51111 
L 142.2382 181.938979 
L 143.324001 192.257657 
L 144.409802 190.571336 
L 145.495604 184.890041 
L 146.581405 189.105843 
L 147.667206 184.970342 
L 148.753007 176.097081 
L 149.838808 179.891304 
L 150.924609 178.867466 
L 152.01041 184.608987 
L 153.096212 189.186144 
L 154.182013 187.720651 
L 155.267814 175.534974 
L 156.353615 182.01928 
L 157.439416 173.808503 
L 158.525217 177.703101 
L 159.611019 182.882516 
L 160.69682 177.020543 
L 161.782621 176.478511 
L 162.868422 171.96158 
L 163.954223 176.940242 
L 165.040024 173.52745 
L 166.125825 173.306622 
L 167.211627 185.090793 
L 168.297428 178.606488 
L 169.383229 175.956555 
L 170.46903 176.739489 
L 171.554831 174.089557 
L 172.640632 181.196195 
L 173.726434 173.969105 
L 174.812235 177.20122 
L 175.898036 172.543762 
L 176.983837 172.363085 
L 178.069638 177.181145 
L 179.155439 170.77714 
L 180.24124 175.735727 
L 181.327042 175.55505 
L 182.412843 168.508637 
L 183.498644 165.858704 
L 184.584445 169.13097 
L 185.670246 170.114657 
L 187.841849 162.144783 
L 188.92765 171.841129 
L 190.013451 164.754566 
L 191.099252 163.790954 
L 192.185053 169.913905 
L 193.270854 163.309148 
L 194.356656 173.346772 
L 195.442457 169.472249 
L 196.528258 169.432099 
L 197.614059 164.292835 
L 198.69986 164.252685 
L 199.785661 169.994206 
L 200.871462 165.577651 
L 201.957264 166.440887 
L 203.043065 162.967869 
L 204.128866 165.577651 
L 205.214667 163.85118 
L 206.300468 159.976657 
L 207.386269 164.011782 
L 208.472071 164.513663 
L 209.557872 161.883805 
L 210.643673 160.378162 
L 213.901076 163.248922 
L 214.986877 162.546288 
L 216.072679 163.128471 
L 217.15848 161.241397 
L 218.244281 161.080795 
L 219.330082 163.08832 
L 220.415883 162.686815 
L 221.501684 159.294098 
L 222.587486 161.783429 
L 223.673287 161.301623 
L 224.759088 162.385686 
L 225.844889 180.754539 
L 226.93069 188.222532 
L 228.016491 179.790927 
L 229.102292 179.309121 
L 230.188094 186.03433 
L 231.273895 168.307885 
L 232.359696 181.296571 
L 233.445497 175.775877 
L 234.531298 183.223795 
L 235.617099 182.641613 
L 236.702901 180.654163 
L 238.874503 174.350535 
L 239.960304 183.6253 
L 241.046105 178.024305 
L 242.131906 182.05943 
L 243.217708 190.390659 
L 244.303509 182.541236 
L 245.38931 177.422048 
L 246.475111 176.859941 
L 247.560912 173.025568 
L 248.646713 174.169858 
L 249.732514 166.460962 
L 250.818316 176.317909 
L 251.904117 184.528686 
L 252.989918 169.693077 
L 254.075719 183.906353 
L 255.16152 169.974131 
L 256.247321 175.655426 
L 258.418924 179.550024 
L 259.504725 179.088294 
L 260.590526 182.139731 
L 261.676327 191.555023 
L 262.762128 172.061956 
L 263.847929 170.335485 
L 264.933731 169.291572 
L 266.019532 172.041881 
L 267.105333 171.419548 
L 268.191134 177.823553 
L 269.276935 172.583913 
L 270.362736 175.153545 
L 271.448538 176.257683 
L 272.534339 171.11842 
L 273.62014 175.13347 
L 274.705941 173.366848 
L 275.791742 169.632851 
L 277.963344 179.529949 
L 279.049146 174.671739 
L 280.134947 176.478511 
L 281.220748 169.050669 
L 282.306549 174.611513 
L 283.39235 183.103343 
L 284.478151 186.174856 
L 285.563953 183.163569 
L 286.649754 167.545025 
L 287.735555 166.099607 
L 288.821356 165.939005 
L 289.907157 175.916404 
L 290.992958 176.518662 
L 292.07876 166.862467 
L 293.164561 166.962843 
L 294.250362 180.493561 
L 295.336163 160.920193 
L 296.421964 166.862467 
L 297.507765 180.473486 
L 298.593566 180.614012 
L 299.679368 175.735727 
L 300.765169 172.403236 
L 301.85097 167.304122 
L 302.936771 166.280285 
L 304.022572 174.711889 
L 305.108373 173.206246 
L 306.194175 164.854942 
L 307.279976 173.14602 
L 308.365777 162.787191 
L 309.451578 162.365611 
L 310.537379 168.930218 
L 311.62318 169.050669 
L 312.708981 160.117183 
L 313.794783 166.380661 
L 314.880584 163.409524 
L 315.966385 168.70939 
L 317.052186 173.005493 
L 318.137987 167.665477 
L 319.223788 170.415786 
L 320.30959 158.711916 
L 321.395391 168.468487 
L 322.481192 164.393211 
L 323.566993 159.03312 
L 324.652794 168.348035 
L 325.738595 161.703128 
L 326.824396 167.263972 
L 327.910198 163.931481 
L 328.995999 161.823579 
L 330.0818 165.718178 
L 331.167601 165.457199 
L 332.253402 163.770879 
L 333.339203 164.614039 
L 334.425005 163.228847 
L 335.510806 163.489825 
L 336.596607 163.148546 
L 337.682408 162.967869 
L 338.768209 160.759591 
L 339.85401 160.077033 
L 340.939811 155.540026 
L 342.025613 159.053195 
L 343.111414 160.819817 
L 344.197215 158.390712 
L 345.283016 166.68179 
L 346.368817 158.752066 
L 347.454618 153.853706 
L 348.54042 157.206272 
L 349.626221 157.246423 
L 350.712022 156.302886 
L 351.797823 159.816055 
L 352.883624 159.213797 
L 353.969425 159.07327 
L 355.055227 160.900118 
L 356.141028 157.888831 
L 357.226829 158.872518 
L 358.31263 158.972894 
L 359.398431 161.984181 
L 360.484232 161.000494 
L 362.655835 153.311674 
L 363.741636 153.552577 
L 364.827437 160.338011 
L 366.999039 155.279048 
L 368.08484 155.540026 
L 369.170642 158.430862 
L 370.256443 159.41455 
L 372.428045 156.965369 
L 373.513846 163.570126 
L 374.599647 164.593964 
L 375.685448 161.86373 
L 376.77125 161.040645 
L 377.857051 158.009282 
L 378.942852 158.210035 
L 380.028653 159.775904 
L 381.114454 157.80853 
L 382.200255 162.024332 
L 383.286057 158.731991 
L 384.371858 160.518688 
L 385.457659 159.173647 
L 386.54346 156.844918 
L 387.629261 160.177409 
L 388.715062 156.302886 
L 389.800863 161.120946 
L 390.886665 153.713179 
L 391.972466 157.989207 
L 393.058267 159.615302 
L 394.144068 158.832367 
L 395.229869 161.201247 
L 396.31567 159.394474 
L 397.401472 166.30036 
L 398.487273 158.189959 
L 398.487273 158.189959 
" clip-path="url(#pf1782739e6)" style="fill: none; stroke: #2ca02c; stroke-width: 1.5; stroke-linecap: square"/>
   </g>
   <g id="line2d_18">
    <path d="M 368.08484 102.506237 
L 369.170642 102.797329 
L 370.256443 102.680892 
L 371.342244 102.797329 
L 372.428045 105.766458 
L 373.513846 103.787038 
L 374.599647 103.466838 
L 375.685448 104.194566 
L 376.77125 103.525056 
L 377.857051 106.989041 
L 378.942852 105.300712 
L 380.028653 106.610622 
L 381.114454 107.33835 
L 382.200255 106.115767 
L 383.286057 105.475367 
L 384.371858 107.163695 
L 385.457659 104.252784 
L 386.54346 105.213385 
L 387.629261 103.757929 
L 388.715062 106.756168 
L 389.800863 108.095187 
L 390.886665 104.805857 
L 391.972466 103.72882 
L 393.058267 105.388039 
L 394.144068 105.824676 
L 395.229869 110.627679 
L 396.31567 108.240732 
L 397.401472 110.365697 
L 398.487273 109.084897 
L 398.487273 109.084897 
" clip-path="url(#pf1782739e6)" style="fill: none; stroke: #d62728; stroke-width: 1.5; stroke-linecap: square"/>
   </g>
   <g id="line2d_19">
    <path d="M 368.08484 154.235135 
L 369.170642 156.563864 
L 370.256443 153.472276 
L 371.342244 155.319199 
L 372.428045 159.41455 
L 373.513846 152.849943 
L 374.599647 153.171147 
L 375.685448 154.435888 
L 376.77125 158.149809 
L 377.857051 159.83613 
L 378.942852 160.137259 
L 381.114454 157.226347 
L 382.200255 157.266498 
L 383.286057 154.496114 
L 384.371858 159.795979 
L 385.457659 155.419575 
L 386.54346 157.4271 
L 387.629261 157.4271 
L 388.715062 157.105896 
L 389.800863 156.644165 
L 390.886665 157.728229 
L 391.972466 149.115947 
L 393.058267 149.156097 
L 394.144068 155.740779 
L 395.229869 157.708153 
L 396.31567 164.854942 
L 397.401472 161.622827 
L 398.487273 162.365611 
L 398.487273 162.365611 
" clip-path="url(#pf1782739e6)" style="fill: none; stroke: #9467bd; stroke-width: 1.5; stroke-linecap: square"/>
   </g>
   <g id="patch_3">
    <path d="M 57.6 307.584 
L 57.6 41.472 
" style="fill: none; stroke: #000000; stroke-width: 0.8; stroke-linejoin: miter; stroke-linecap: square"/>
   </g>
   <g id="patch_4">
    <path d="M 414.72 307.584 
L 414.72 41.472 
" style="fill: none; stroke: #000000; stroke-width: 0.8; stroke-linejoin: miter; stroke-linecap: square"/>
   </g>
   <g id="patch_5">
    <path d="M 57.6 307.584 
L 414.72 307.584 
" style="fill: none; stroke: #000000; stroke-width: 0.8; stroke-linejoin: miter; stroke-linecap: square"/>
   </g>
   <g id="patch_6">
    <path d="M 57.6 41.472 
L 414.72 41.472 
" style="fill: none; stroke: #000000; stroke-width: 0.8; stroke-linejoin: miter; stroke-linecap: square"/>
   </g>
   <g id="text_17">
    <!-- Learning Curves -->
    <g transform="translate(187.37625 35.472) scale(0.12 -0.12)">
     <defs>
      <path id="DejaVuSans-4c" d="M 628 4666 
L 1259 4666 
L 1259 531 
L 3531 531 
L 3531 0 
L 628 0 
L 628 4666 
z
" transform="scale(0.015625)"/>
      <path id="DejaVuSans-65" d="M 3597 1894 
L 3597 1613 
L 953 1613 
Q 991 1019 1311 708 
Q 1631 397 2203 397 
Q 2534 397 2845 478 
Q 3156 559 3463 722 
L 3463 178 
Q 3153 47 2828 -22 
Q 2503 -91 2169 -91 
Q 1331 -91 842 396 
Q 353 884 353 1716 
Q 353 2575 817 3079 
Q 1281 3584 2069 3584 
Q 2775 3584 3186 3129 
Q 3597 2675 3597 1894 
z
M 3022 2063 
Q 3016 2534 2758 2815 
Q 2500 3097 2075 3097 
Q 1594 3097 1305 2825 
Q 1016 2553 972 2059 
L 3022 2063 
z
" transform="scale(0.015625)"/>
      <path id="DejaVuSans-6e" d="M 3513 2113 
L 3513 0 
L 2938 0 
L 2938 2094 
Q 2938 2591 2744 2837 
Q 2550 3084 2163 3084 
Q 1697 3084 1428 2787 
Q 1159 2491 1159 1978 
L 1159 0 
L 581 0 
L 581 3500 
L 1159 3500 
L 1159 2956 
Q 1366 3272 1645 3428 
Q 1925 3584 2291 3584 
Q 2894 3584 3203 3211 
Q 3513 2838 3513 2113 
z
" transform="scale(0.015625)"/>
      <path id="DejaVuSans-69" d="M 603 3500 
L 1178 3500 
L 1178 0 
L 603 0 
L 603 3500 
z
M 603 4863 
L 1178 4863 
L 1178 4134 
L 603 4134 
L 603 4863 
z
" transform="scale(0.015625)"/>
      <path id="DejaVuSans-67" d="M 2906 1791 
Q 2906 2416 2648 2759 
Q 2391 3103 1925 3103 
Q 1463 3103 1205 2759 
Q 947 2416 947 1791 
Q 947 1169 1205 825 
Q 1463 481 1925 481 
Q 2391 481 2648 825 
Q 2906 1169 2906 1791 
z
M 3481 434 
Q 3481 -459 3084 -895 
Q 2688 -1331 1869 -1331 
Q 1566 -1331 1297 -1286 
Q 1028 -1241 775 -1147 
L 775 -588 
Q 1028 -725 1275 -790 
Q 1522 -856 1778 -856 
Q 2344 -856 2625 -561 
Q 2906 -266 2906 331 
L 2906 616 
Q 2728 306 2450 153 
Q 2172 0 1784 0 
Q 1141 0 747 490 
Q 353 981 353 1791 
Q 353 2603 747 3093 
Q 1141 3584 1784 3584 
Q 2172 3584 2450 3431 
Q 2728 3278 2906 2969 
L 2906 3500 
L 3481 3500 
L 3481 434 
z
" transform="scale(0.015625)"/>
      <path id="DejaVuSans-20" transform="scale(0.015625)"/>
      <path id="DejaVuSans-43" d="M 4122 4306 
L 4122 3641 
Q 3803 3938 3442 4084 
Q 3081 4231 2675 4231 
Q 1875 4231 1450 3742 
Q 1025 3253 1025 2328 
Q 1025 1406 1450 917 
Q 1875 428 2675 428 
Q 3081 428 3442 575 
Q 3803 722 4122 1019 
L 4122 359 
Q 3791 134 3420 21 
Q 3050 -91 2638 -91 
Q 1578 -91 968 557 
Q 359 1206 359 2328 
Q 359 3453 968 4101 
Q 1578 4750 2638 4750 
Q 3056 4750 3426 4639 
Q 3797 4528 4122 4306 
z
" transform="scale(0.015625)"/>
      <path id="DejaVuSans-76" d="M 191 3500 
L 800 3500 
L 1894 563 
L 2988 3500 
L 3597 3500 
L 2284 0 
L 1503 0 
L 191 3500 
z
" transform="scale(0.015625)"/>
     </defs>
     <use xlink:href="#DejaVuSans-4c"/>
     <use xlink:href="#DejaVuSans-65" x="53.962891"/>
     <use xlink:href="#DejaVuSans-61" x="115.486328"/>
     <use xlink:href="#DejaVuSans-72" x="176.765625"/>
     <use xlink:href="#DejaVuSans-6e" x="216.128906"/>
     <use xlink:href="#DejaVuSans-69" x="279.507812"/>
     <use xlink:href="#DejaVuSans-6e" x="307.291016"/>
     <use xlink:href="#DejaVuSans-67" x="370.669922"/>
     <use xlink:href="#DejaVuSans-20" x="434.146484"/>
     <use xlink:href="#DejaVuSans-43" x="465.933594"/>
     <use xlink:href="#DejaVuSans-75" x="535.757812"/>
     <use xlink:href="#DejaVuSans-72" x="599.136719"/>
     <use xlink:href="#DejaVuSans-76" x="640.25"/>
     <use xlink:href="#DejaVuSans-65" x="699.429688"/>
     <use xlink:href="#DejaVuSans-73" x="760.953125"/>
    </g>
   </g>
   <g id="legend_1">
    <g id="patch_7">
     <path d="M 214.18875 302.584 
L 407.72 302.584 
Q 409.72 302.584 409.72 300.584 
L 409.72 228.193375 
Q 409.72 226.193375 407.72 226.193375 
L 214.18875 226.193375 
Q 212.18875 226.193375 212.18875 228.193375 
L 212.18875 300.584 
Q 212.18875 302.584 214.18875 302.584 
z
" style="fill: #ffffff; opacity: 0.8; stroke: #cccccc; stroke-linejoin: miter"/>
    </g>
    <g id="line2d_20">
     <path d="M 216.18875 234.291812 
L 226.18875 234.291812 
L 236.18875 234.291812 
" style="fill: none; stroke: #1f77b4; stroke-width: 1.5; stroke-linecap: square"/>
    </g>
    <g id="text_18">
     <!-- Train Accuracy -->
     <g transform="translate(244.18875 237.791812) scale(0.1 -0.1)">
      <defs>
       <path id="DejaVuSans-54" d="M -19 4666 
L 3928 4666 
L 3928 4134 
L 2272 4134 
L 2272 0 
L 1638 0 
L 1638 4134 
L -19 4134 
L -19 4666 
z
" transform="scale(0.015625)"/>
      </defs>
      <use xlink:href="#DejaVuSans-54"/>
      <use xlink:href="#DejaVuSans-72" x="46.333984"/>
      <use xlink:href="#DejaVuSans-61" x="87.447266"/>
      <use xlink:href="#DejaVuSans-69" x="148.726562"/>
      <use xlink:href="#DejaVuSans-6e" x="176.509766"/>
      <use xlink:href="#DejaVuSans-20" x="239.888672"/>
      <use xlink:href="#DejaVuSans-41" x="271.675781"/>
      <use xlink:href="#DejaVuSans-63" x="338.333984"/>
      <use xlink:href="#DejaVuSans-63" x="393.314453"/>
      <use xlink:href="#DejaVuSans-75" x="448.294922"/>
      <use xlink:href="#DejaVuSans-72" x="511.673828"/>
      <use xlink:href="#DejaVuSans-61" x="552.787109"/>
      <use xlink:href="#DejaVuSans-63" x="614.066406"/>
      <use xlink:href="#DejaVuSans-79" x="669.046875"/>
     </g>
    </g>
    <g id="line2d_21">
     <path d="M 216.18875 248.969937 
L 226.18875 248.969937 
L 236.18875 248.969937 
" style="fill: none; stroke: #ff7f0e; stroke-width: 1.5; stroke-linecap: square"/>
    </g>
    <g id="text_19">
     <!-- Validation Accuracy -->
     <g transform="translate(244.18875 252.469937) scale(0.1 -0.1)">
      <defs>
       <path id="DejaVuSans-56" d="M 1831 0 
L 50 4666 
L 709 4666 
L 2188 738 
L 3669 4666 
L 4325 4666 
L 2547 0 
L 1831 0 
z
" transform="scale(0.015625)"/>
       <path id="DejaVuSans-6c" d="M 603 4863 
L 1178 4863 
L 1178 0 
L 603 0 
L 603 4863 
z
" transform="scale(0.015625)"/>
       <path id="DejaVuSans-64" d="M 2906 2969 
L 2906 4863 
L 3481 4863 
L 3481 0 
L 2906 0 
L 2906 525 
Q 2725 213 2448 61 
Q 2172 -91 1784 -91 
Q 1150 -91 751 415 
Q 353 922 353 1747 
Q 353 2572 751 3078 
Q 1150 3584 1784 3584 
Q 2172 3584 2448 3432 
Q 2725 3281 2906 2969 
z
M 947 1747 
Q 947 1113 1208 752 
Q 1469 391 1925 391 
Q 2381 391 2643 752 
Q 2906 1113 2906 1747 
Q 2906 2381 2643 2742 
Q 2381 3103 1925 3103 
Q 1469 3103 1208 2742 
Q 947 2381 947 1747 
z
" transform="scale(0.015625)"/>
       <path id="DejaVuSans-74" d="M 1172 4494 
L 1172 3500 
L 2356 3500 
L 2356 3053 
L 1172 3053 
L 1172 1153 
Q 1172 725 1289 603 
Q 1406 481 1766 481 
L 2356 481 
L 2356 0 
L 1766 0 
Q 1100 0 847 248 
Q 594 497 594 1153 
L 594 3053 
L 172 3053 
L 172 3500 
L 594 3500 
L 594 4494 
L 1172 4494 
z
" transform="scale(0.015625)"/>
      </defs>
      <use xlink:href="#DejaVuSans-56"/>
      <use xlink:href="#DejaVuSans-61" x="60.658203"/>
      <use xlink:href="#DejaVuSans-6c" x="121.9375"/>
      <use xlink:href="#DejaVuSans-69" x="149.720703"/>
      <use xlink:href="#DejaVuSans-64" x="177.503906"/>
      <use xlink:href="#DejaVuSans-61" x="240.980469"/>
      <use xlink:href="#DejaVuSans-74" x="302.259766"/>
      <use xlink:href="#DejaVuSans-69" x="341.46875"/>
      <use xlink:href="#DejaVuSans-6f" x="369.251953"/>
      <use xlink:href="#DejaVuSans-6e" x="430.433594"/>
      <use xlink:href="#DejaVuSans-20" x="493.8125"/>
      <use xlink:href="#DejaVuSans-41" x="525.599609"/>
      <use xlink:href="#DejaVuSans-63" x="592.257812"/>
      <use xlink:href="#DejaVuSans-63" x="647.238281"/>
      <use xlink:href="#DejaVuSans-75" x="702.21875"/>
      <use xlink:href="#DejaVuSans-72" x="765.597656"/>
      <use xlink:href="#DejaVuSans-61" x="806.710938"/>
      <use xlink:href="#DejaVuSans-63" x="867.990234"/>
      <use xlink:href="#DejaVuSans-79" x="922.970703"/>
     </g>
    </g>
    <g id="line2d_22">
     <path d="M 216.18875 263.648062 
L 226.18875 263.648062 
L 236.18875 263.648062 
" style="fill: none; stroke: #2ca02c; stroke-width: 1.5; stroke-linecap: square"/>
    </g>
    <g id="text_20">
     <!-- Robust Validation Accuracy -->
     <g transform="translate(244.18875 267.148062) scale(0.1 -0.1)">
      <defs>
       <path id="DejaVuSans-52" d="M 2841 2188 
Q 3044 2119 3236 1894 
Q 3428 1669 3622 1275 
L 4263 0 
L 3584 0 
L 2988 1197 
Q 2756 1666 2539 1819 
Q 2322 1972 1947 1972 
L 1259 1972 
L 1259 0 
L 628 0 
L 628 4666 
L 2053 4666 
Q 2853 4666 3247 4331 
Q 3641 3997 3641 3322 
Q 3641 2881 3436 2590 
Q 3231 2300 2841 2188 
z
M 1259 4147 
L 1259 2491 
L 2053 2491 
Q 2509 2491 2742 2702 
Q 2975 2913 2975 3322 
Q 2975 3731 2742 3939 
Q 2509 4147 2053 4147 
L 1259 4147 
z
" transform="scale(0.015625)"/>
       <path id="DejaVuSans-62" d="M 3116 1747 
Q 3116 2381 2855 2742 
Q 2594 3103 2138 3103 
Q 1681 3103 1420 2742 
Q 1159 2381 1159 1747 
Q 1159 1113 1420 752 
Q 1681 391 2138 391 
Q 2594 391 2855 752 
Q 3116 1113 3116 1747 
z
M 1159 2969 
Q 1341 3281 1617 3432 
Q 1894 3584 2278 3584 
Q 2916 3584 3314 3078 
Q 3713 2572 3713 1747 
Q 3713 922 3314 415 
Q 2916 -91 2278 -91 
Q 1894 -91 1617 61 
Q 1341 213 1159 525 
L 1159 0 
L 581 0 
L 581 4863 
L 1159 4863 
L 1159 2969 
z
" transform="scale(0.015625)"/>
      </defs>
      <use xlink:href="#DejaVuSans-52"/>
      <use xlink:href="#DejaVuSans-6f" x="64.982422"/>
      <use xlink:href="#DejaVuSans-62" x="126.164062"/>
      <use xlink:href="#DejaVuSans-75" x="189.640625"/>
      <use xlink:href="#DejaVuSans-73" x="253.019531"/>
      <use xlink:href="#DejaVuSans-74" x="305.119141"/>
      <use xlink:href="#DejaVuSans-20" x="344.328125"/>
      <use xlink:href="#DejaVuSans-56" x="376.115234"/>
      <use xlink:href="#DejaVuSans-61" x="436.773438"/>
      <use xlink:href="#DejaVuSans-6c" x="498.052734"/>
      <use xlink:href="#DejaVuSans-69" x="525.835938"/>
      <use xlink:href="#DejaVuSans-64" x="553.619141"/>
      <use xlink:href="#DejaVuSans-61" x="617.095703"/>
      <use xlink:href="#DejaVuSans-74" x="678.375"/>
      <use xlink:href="#DejaVuSans-69" x="717.583984"/>
      <use xlink:href="#DejaVuSans-6f" x="745.367188"/>
      <use xlink:href="#DejaVuSans-6e" x="806.548828"/>
      <use xlink:href="#DejaVuSans-20" x="869.927734"/>
      <use xlink:href="#DejaVuSans-41" x="901.714844"/>
      <use xlink:href="#DejaVuSans-63" x="968.373047"/>
      <use xlink:href="#DejaVuSans-63" x="1023.353516"/>
      <use xlink:href="#DejaVuSans-75" x="1078.333984"/>
      <use xlink:href="#DejaVuSans-72" x="1141.712891"/>
      <use xlink:href="#DejaVuSans-61" x="1182.826172"/>
      <use xlink:href="#DejaVuSans-63" x="1244.105469"/>
      <use xlink:href="#DejaVuSans-79" x="1299.085938"/>
     </g>
    </g>
    <g id="line2d_23">
     <path d="M 216.18875 278.326188 
L 226.18875 278.326188 
L 236.18875 278.326188 
" style="fill: none; stroke: #d62728; stroke-width: 1.5; stroke-linecap: square"/>
    </g>
    <g id="text_21">
     <!-- SWA Validation Accuracy -->
     <g transform="translate(244.18875 281.826188) scale(0.1 -0.1)">
      <defs>
       <path id="DejaVuSans-53" d="M 3425 4513 
L 3425 3897 
Q 3066 4069 2747 4153 
Q 2428 4238 2131 4238 
Q 1616 4238 1336 4038 
Q 1056 3838 1056 3469 
Q 1056 3159 1242 3001 
Q 1428 2844 1947 2747 
L 2328 2669 
Q 3034 2534 3370 2195 
Q 3706 1856 3706 1288 
Q 3706 609 3251 259 
Q 2797 -91 1919 -91 
Q 1588 -91 1214 -16 
Q 841 59 441 206 
L 441 856 
Q 825 641 1194 531 
Q 1563 422 1919 422 
Q 2459 422 2753 634 
Q 3047 847 3047 1241 
Q 3047 1584 2836 1778 
Q 2625 1972 2144 2069 
L 1759 2144 
Q 1053 2284 737 2584 
Q 422 2884 422 3419 
Q 422 4038 858 4394 
Q 1294 4750 2059 4750 
Q 2388 4750 2728 4690 
Q 3069 4631 3425 4513 
z
" transform="scale(0.015625)"/>
       <path id="DejaVuSans-57" d="M 213 4666 
L 850 4666 
L 1831 722 
L 2809 4666 
L 3519 4666 
L 4500 722 
L 5478 4666 
L 6119 4666 
L 4947 0 
L 4153 0 
L 3169 4050 
L 2175 0 
L 1381 0 
L 213 4666 
z
" transform="scale(0.015625)"/>
      </defs>
      <use xlink:href="#DejaVuSans-53"/>
      <use xlink:href="#DejaVuSans-57" x="63.476562"/>
      <use xlink:href="#DejaVuSans-41" x="156.853516"/>
      <use xlink:href="#DejaVuSans-20" x="225.261719"/>
      <use xlink:href="#DejaVuSans-56" x="257.048828"/>
      <use xlink:href="#DejaVuSans-61" x="317.707031"/>
      <use xlink:href="#DejaVuSans-6c" x="378.986328"/>
      <use xlink:href="#DejaVuSans-69" x="406.769531"/>
      <use xlink:href="#DejaVuSans-64" x="434.552734"/>
      <use xlink:href="#DejaVuSans-61" x="498.029297"/>
      <use xlink:href="#DejaVuSans-74" x="559.308594"/>
      <use xlink:href="#DejaVuSans-69" x="598.517578"/>
      <use xlink:href="#DejaVuSans-6f" x="626.300781"/>
      <use xlink:href="#DejaVuSans-6e" x="687.482422"/>
      <use xlink:href="#DejaVuSans-20" x="750.861328"/>
      <use xlink:href="#DejaVuSans-41" x="782.648438"/>
      <use xlink:href="#DejaVuSans-63" x="849.306641"/>
      <use xlink:href="#DejaVuSans-63" x="904.287109"/>
      <use xlink:href="#DejaVuSans-75" x="959.267578"/>
      <use xlink:href="#DejaVuSans-72" x="1022.646484"/>
      <use xlink:href="#DejaVuSans-61" x="1063.759766"/>
      <use xlink:href="#DejaVuSans-63" x="1125.039062"/>
      <use xlink:href="#DejaVuSans-79" x="1180.019531"/>
     </g>
    </g>
    <g id="line2d_24">
     <path d="M 216.18875 293.004312 
L 226.18875 293.004312 
L 236.18875 293.004312 
" style="fill: none; stroke: #9467bd; stroke-width: 1.5; stroke-linecap: square"/>
    </g>
    <g id="text_22">
     <!-- SWA Robust Validation Accuracy -->
     <g transform="translate(244.18875 296.504312) scale(0.1 -0.1)">
      <use xlink:href="#DejaVuSans-53"/>
      <use xlink:href="#DejaVuSans-57" x="63.476562"/>
      <use xlink:href="#DejaVuSans-41" x="156.853516"/>
      <use xlink:href="#DejaVuSans-20" x="225.261719"/>
      <use xlink:href="#DejaVuSans-52" x="257.048828"/>
      <use xlink:href="#DejaVuSans-6f" x="322.03125"/>
      <use xlink:href="#DejaVuSans-62" x="383.212891"/>
      <use xlink:href="#DejaVuSans-75" x="446.689453"/>
      <use xlink:href="#DejaVuSans-73" x="510.068359"/>
      <use xlink:href="#DejaVuSans-74" x="562.167969"/>
      <use xlink:href="#DejaVuSans-20" x="601.376953"/>
      <use xlink:href="#DejaVuSans-56" x="633.164062"/>
      <use xlink:href="#DejaVuSans-61" x="693.822266"/>
      <use xlink:href="#DejaVuSans-6c" x="755.101562"/>
      <use xlink:href="#DejaVuSans-69" x="782.884766"/>
      <use xlink:href="#DejaVuSans-64" x="810.667969"/>
      <use xlink:href="#DejaVuSans-61" x="874.144531"/>
      <use xlink:href="#DejaVuSans-74" x="935.423828"/>
      <use xlink:href="#DejaVuSans-69" x="974.632812"/>
      <use xlink:href="#DejaVuSans-6f" x="1002.416016"/>
      <use xlink:href="#DejaVuSans-6e" x="1063.597656"/>
      <use xlink:href="#DejaVuSans-20" x="1126.976562"/>
      <use xlink:href="#DejaVuSans-41" x="1158.763672"/>
      <use xlink:href="#DejaVuSans-63" x="1225.421875"/>
      <use xlink:href="#DejaVuSans-63" x="1280.402344"/>
      <use xlink:href="#DejaVuSans-75" x="1335.382812"/>
      <use xlink:href="#DejaVuSans-72" x="1398.761719"/>
      <use xlink:href="#DejaVuSans-61" x="1439.875"/>
      <use xlink:href="#DejaVuSans-63" x="1501.154297"/>
      <use xlink:href="#DejaVuSans-79" x="1556.134766"/>
     </g>
    </g>
   </g>
  </g>
 </g>
 <defs>
  <clipPath id="pf1782739e6">
   <rect x="57.6" y="41.472" width="357.12" height="266.112"/>
  </clipPath>
 </defs>
</svg>
