<?xml version="1.0" encoding="utf-8" standalone="no"?>
<!DOCTYPE svg PUBLIC "-//W3C//DTD SVG 1.1//EN"
  "http://www.w3.org/Graphics/SVG/1.1/DTD/svg11.dtd">
<svg xmlns:xlink="http://www.w3.org/1999/xlink" width="460.8pt" height="345.6pt" viewBox="0 0 460.8 345.6" xmlns="http://www.w3.org/2000/svg" version="1.1">
 <metadata>
  <rdf:RDF xmlns:dc="http://purl.org/dc/elements/1.1/" xmlns:cc="http://creativecommons.org/ns#" xmlns:rdf="http://www.w3.org/1999/02/22-rdf-syntax-ns#">
   <cc:Work>
    <dc:type rdf:resource="http://purl.org/dc/dcmitype/StillImage"/>
    <dc:date>2025-02-25T18:31:40.797736</dc:date>
    <dc:format>image/svg+xml</dc:format>
    <dc:creator>
     <cc:Agent>
      <dc:title>Matplotlib v3.9.1, https://matplotlib.org/</dc:title>
     </cc:Agent>
    </dc:creator>
   </cc:Work>
  </rdf:RDF>
 </metadata>
 <defs>
  <style type="text/css">*{stroke-linejoin: round; stroke-linecap: butt}</style>
 </defs>
 <g id="figure_1">
  <g id="patch_1">
   <path d="M 0 345.6 
L 460.8 345.6 
L 460.8 0 
L 0 0 
z
" style="fill: #ffffff"/>
  </g>
  <g id="axes_1">
   <g id="patch_2">
    <path d="M 57.6 307.584 
L 414.72 307.584 
L 414.72 41.472 
L 57.6 41.472 
z
" style="fill: #ffffff"/>
   </g>
   <g id="matplotlib.axis_1">
    <g id="xtick_1">
     <g id="line2d_1">
      <defs>
       <path id="m6e068963a1" d="M 0 0 
L 0 3.5 
" style="stroke: #000000; stroke-width: 0.8"/>
      </defs>
      <g>
       <use xlink:href="#m6e068963a1" x="73.832727" y="307.584" style="stroke: #000000; stroke-width: 0.8"/>
      </g>
     </g>
     <g id="text_1">
      <!-- 1 -->
      <g transform="translate(70.651477 322.182437) scale(0.1 -0.1)">
       <defs>
        <path id="DejaVuSans-31" d="M 794 531 
L 1825 531 
L 1825 4091 
L 703 3866 
L 703 4441 
L 1819 4666 
L 2450 4666 
L 2450 531 
L 3481 531 
L 3481 0 
L 794 0 
L 794 531 
z
" transform="scale(0.015625)"/>
       </defs>
       <use xlink:href="#DejaVuSans-31"/>
      </g>
     </g>
    </g>
    <g id="xtick_2">
     <g id="line2d_2">
      <g>
       <use xlink:href="#m6e068963a1" x="109.664165" y="307.584" style="stroke: #000000; stroke-width: 0.8"/>
      </g>
     </g>
     <g id="text_2">
      <!-- 34 -->
      <g transform="translate(103.301665 322.182437) scale(0.1 -0.1)">
       <defs>
        <path id="DejaVuSans-33" d="M 2597 2516 
Q 3050 2419 3304 2112 
Q 3559 1806 3559 1356 
Q 3559 666 3084 287 
Q 2609 -91 1734 -91 
Q 1441 -91 1130 -33 
Q 819 25 488 141 
L 488 750 
Q 750 597 1062 519 
Q 1375 441 1716 441 
Q 2309 441 2620 675 
Q 2931 909 2931 1356 
Q 2931 1769 2642 2001 
Q 2353 2234 1838 2234 
L 1294 2234 
L 1294 2753 
L 1863 2753 
Q 2328 2753 2575 2939 
Q 2822 3125 2822 3475 
Q 2822 3834 2567 4026 
Q 2313 4219 1838 4219 
Q 1578 4219 1281 4162 
Q 984 4106 628 3988 
L 628 4550 
Q 988 4650 1302 4700 
Q 1616 4750 1894 4750 
Q 2613 4750 3031 4423 
Q 3450 4097 3450 3541 
Q 3450 3153 3228 2886 
Q 3006 2619 2597 2516 
z
" transform="scale(0.015625)"/>
        <path id="DejaVuSans-34" d="M 2419 4116 
L 825 1625 
L 2419 1625 
L 2419 4116 
z
M 2253 4666 
L 3047 4666 
L 3047 1625 
L 3713 1625 
L 3713 1100 
L 3047 1100 
L 3047 0 
L 2419 0 
L 2419 1100 
L 313 1100 
L 313 1709 
L 2253 4666 
z
" transform="scale(0.015625)"/>
       </defs>
       <use xlink:href="#DejaVuSans-33"/>
       <use xlink:href="#DejaVuSans-34" x="63.623047"/>
      </g>
     </g>
    </g>
    <g id="xtick_3">
     <g id="line2d_3">
      <g>
       <use xlink:href="#m6e068963a1" x="145.495604" y="307.584" style="stroke: #000000; stroke-width: 0.8"/>
      </g>
     </g>
     <g id="text_3">
      <!-- 67 -->
      <g transform="translate(139.133104 322.182437) scale(0.1 -0.1)">
       <defs>
        <path id="DejaVuSans-36" d="M 2113 2584 
Q 1688 2584 1439 2293 
Q 1191 2003 1191 1497 
Q 1191 994 1439 701 
Q 1688 409 2113 409 
Q 2538 409 2786 701 
Q 3034 994 3034 1497 
Q 3034 2003 2786 2293 
Q 2538 2584 2113 2584 
z
M 3366 4563 
L 3366 3988 
Q 3128 4100 2886 4159 
Q 2644 4219 2406 4219 
Q 1781 4219 1451 3797 
Q 1122 3375 1075 2522 
Q 1259 2794 1537 2939 
Q 1816 3084 2150 3084 
Q 2853 3084 3261 2657 
Q 3669 2231 3669 1497 
Q 3669 778 3244 343 
Q 2819 -91 2113 -91 
Q 1303 -91 875 529 
Q 447 1150 447 2328 
Q 447 3434 972 4092 
Q 1497 4750 2381 4750 
Q 2619 4750 2861 4703 
Q 3103 4656 3366 4563 
z
" transform="scale(0.015625)"/>
        <path id="DejaVuSans-37" d="M 525 4666 
L 3525 4666 
L 3525 4397 
L 1831 0 
L 1172 0 
L 2766 4134 
L 525 4134 
L 525 4666 
z
" transform="scale(0.015625)"/>
       </defs>
       <use xlink:href="#DejaVuSans-36"/>
       <use xlink:href="#DejaVuSans-37" x="63.623047"/>
      </g>
     </g>
    </g>
    <g id="xtick_4">
     <g id="line2d_4">
      <g>
       <use xlink:href="#m6e068963a1" x="181.327042" y="307.584" style="stroke: #000000; stroke-width: 0.8"/>
      </g>
     </g>
     <g id="text_4">
      <!-- 100 -->
      <g transform="translate(171.783292 322.182437) scale(0.1 -0.1)">
       <defs>
        <path id="DejaVuSans-30" d="M 2034 4250 
Q 1547 4250 1301 3770 
Q 1056 3291 1056 2328 
Q 1056 1369 1301 889 
Q 1547 409 2034 409 
Q 2525 409 2770 889 
Q 3016 1369 3016 2328 
Q 3016 3291 2770 3770 
Q 2525 4250 2034 4250 
z
M 2034 4750 
Q 2819 4750 3233 4129 
Q 3647 3509 3647 2328 
Q 3647 1150 3233 529 
Q 2819 -91 2034 -91 
Q 1250 -91 836 529 
Q 422 1150 422 2328 
Q 422 3509 836 4129 
Q 1250 4750 2034 4750 
z
" transform="scale(0.015625)"/>
       </defs>
       <use xlink:href="#DejaVuSans-31"/>
       <use xlink:href="#DejaVuSans-30" x="63.623047"/>
       <use xlink:href="#DejaVuSans-30" x="127.246094"/>
      </g>
     </g>
    </g>
    <g id="xtick_5">
     <g id="line2d_5">
      <g>
       <use xlink:href="#m6e068963a1" x="217.15848" y="307.584" style="stroke: #000000; stroke-width: 0.8"/>
      </g>
     </g>
     <g id="text_5">
      <!-- 133 -->
      <g transform="translate(207.61473 322.182437) scale(0.1 -0.1)">
       <use xlink:href="#DejaVuSans-31"/>
       <use xlink:href="#DejaVuSans-33" x="63.623047"/>
       <use xlink:href="#DejaVuSans-33" x="127.246094"/>
      </g>
     </g>
    </g>
    <g id="xtick_6">
     <g id="line2d_6">
      <g>
       <use xlink:href="#m6e068963a1" x="254.075719" y="307.584" style="stroke: #000000; stroke-width: 0.8"/>
      </g>
     </g>
     <g id="text_6">
      <!-- 167 -->
      <g transform="translate(244.531969 322.182437) scale(0.1 -0.1)">
       <use xlink:href="#DejaVuSans-31"/>
       <use xlink:href="#DejaVuSans-36" x="63.623047"/>
       <use xlink:href="#DejaVuSans-37" x="127.246094"/>
      </g>
     </g>
    </g>
    <g id="xtick_7">
     <g id="line2d_7">
      <g>
       <use xlink:href="#m6e068963a1" x="289.907157" y="307.584" style="stroke: #000000; stroke-width: 0.8"/>
      </g>
     </g>
     <g id="text_7">
      <!-- 200 -->
      <g transform="translate(280.363407 322.182437) scale(0.1 -0.1)">
       <defs>
        <path id="DejaVuSans-32" d="M 1228 531 
L 3431 531 
L 3431 0 
L 469 0 
L 469 531 
Q 828 903 1448 1529 
Q 2069 2156 2228 2338 
Q 2531 2678 2651 2914 
Q 2772 3150 2772 3378 
Q 2772 3750 2511 3984 
Q 2250 4219 1831 4219 
Q 1534 4219 1204 4116 
Q 875 4013 500 3803 
L 500 4441 
Q 881 4594 1212 4672 
Q 1544 4750 1819 4750 
Q 2544 4750 2975 4387 
Q 3406 4025 3406 3419 
Q 3406 3131 3298 2873 
Q 3191 2616 2906 2266 
Q 2828 2175 2409 1742 
Q 1991 1309 1228 531 
z
" transform="scale(0.015625)"/>
       </defs>
       <use xlink:href="#DejaVuSans-32"/>
       <use xlink:href="#DejaVuSans-30" x="63.623047"/>
       <use xlink:href="#DejaVuSans-30" x="127.246094"/>
      </g>
     </g>
    </g>
    <g id="xtick_8">
     <g id="line2d_8">
      <g>
       <use xlink:href="#m6e068963a1" x="325.738595" y="307.584" style="stroke: #000000; stroke-width: 0.8"/>
      </g>
     </g>
     <g id="text_8">
      <!-- 233 -->
      <g transform="translate(316.194845 322.182437) scale(0.1 -0.1)">
       <use xlink:href="#DejaVuSans-32"/>
       <use xlink:href="#DejaVuSans-33" x="63.623047"/>
       <use xlink:href="#DejaVuSans-33" x="127.246094"/>
      </g>
     </g>
    </g>
    <g id="xtick_9">
     <g id="line2d_9">
      <g>
       <use xlink:href="#m6e068963a1" x="361.570033" y="307.584" style="stroke: #000000; stroke-width: 0.8"/>
      </g>
     </g>
     <g id="text_9">
      <!-- 266 -->
      <g transform="translate(352.026283 322.182437) scale(0.1 -0.1)">
       <use xlink:href="#DejaVuSans-32"/>
       <use xlink:href="#DejaVuSans-36" x="63.623047"/>
       <use xlink:href="#DejaVuSans-36" x="127.246094"/>
      </g>
     </g>
    </g>
    <g id="xtick_10">
     <g id="line2d_10">
      <g>
       <use xlink:href="#m6e068963a1" x="398.487273" y="307.584" style="stroke: #000000; stroke-width: 0.8"/>
      </g>
     </g>
     <g id="text_10">
      <!-- 300 -->
      <g transform="translate(388.943523 322.182437) scale(0.1 -0.1)">
       <use xlink:href="#DejaVuSans-33"/>
       <use xlink:href="#DejaVuSans-30" x="63.623047"/>
       <use xlink:href="#DejaVuSans-30" x="127.246094"/>
      </g>
     </g>
    </g>
    <g id="text_11">
     <!-- Epochs -->
     <g transform="translate(218.244375 335.860562) scale(0.1 -0.1)">
      <defs>
       <path id="DejaVuSans-45" d="M 628 4666 
L 3578 4666 
L 3578 4134 
L 1259 4134 
L 1259 2753 
L 3481 2753 
L 3481 2222 
L 1259 2222 
L 1259 531 
L 3634 531 
L 3634 0 
L 628 0 
L 628 4666 
z
" transform="scale(0.015625)"/>
       <path id="DejaVuSans-70" d="M 1159 525 
L 1159 -1331 
L 581 -1331 
L 581 3500 
L 1159 3500 
L 1159 2969 
Q 1341 3281 1617 3432 
Q 1894 3584 2278 3584 
Q 2916 3584 3314 3078 
Q 3713 2572 3713 1747 
Q 3713 922 3314 415 
Q 2916 -91 2278 -91 
Q 1894 -91 1617 61 
Q 1341 213 1159 525 
z
M 3116 1747 
Q 3116 2381 2855 2742 
Q 2594 3103 2138 3103 
Q 1681 3103 1420 2742 
Q 1159 2381 1159 1747 
Q 1159 1113 1420 752 
Q 1681 391 2138 391 
Q 2594 391 2855 752 
Q 3116 1113 3116 1747 
z
" transform="scale(0.015625)"/>
       <path id="DejaVuSans-6f" d="M 1959 3097 
Q 1497 3097 1228 2736 
Q 959 2375 959 1747 
Q 959 1119 1226 758 
Q 1494 397 1959 397 
Q 2419 397 2687 759 
Q 2956 1122 2956 1747 
Q 2956 2369 2687 2733 
Q 2419 3097 1959 3097 
z
M 1959 3584 
Q 2709 3584 3137 3096 
Q 3566 2609 3566 1747 
Q 3566 888 3137 398 
Q 2709 -91 1959 -91 
Q 1206 -91 779 398 
Q 353 888 353 1747 
Q 353 2609 779 3096 
Q 1206 3584 1959 3584 
z
" transform="scale(0.015625)"/>
       <path id="DejaVuSans-63" d="M 3122 3366 
L 3122 2828 
Q 2878 2963 2633 3030 
Q 2388 3097 2138 3097 
Q 1578 3097 1268 2742 
Q 959 2388 959 1747 
Q 959 1106 1268 751 
Q 1578 397 2138 397 
Q 2388 397 2633 464 
Q 2878 531 3122 666 
L 3122 134 
Q 2881 22 2623 -34 
Q 2366 -91 2075 -91 
Q 1284 -91 818 406 
Q 353 903 353 1747 
Q 353 2603 823 3093 
Q 1294 3584 2113 3584 
Q 2378 3584 2631 3529 
Q 2884 3475 3122 3366 
z
" transform="scale(0.015625)"/>
       <path id="DejaVuSans-68" d="M 3513 2113 
L 3513 0 
L 2938 0 
L 2938 2094 
Q 2938 2591 2744 2837 
Q 2550 3084 2163 3084 
Q 1697 3084 1428 2787 
Q 1159 2491 1159 1978 
L 1159 0 
L 581 0 
L 581 4863 
L 1159 4863 
L 1159 2956 
Q 1366 3272 1645 3428 
Q 1925 3584 2291 3584 
Q 2894 3584 3203 3211 
Q 3513 2838 3513 2113 
z
" transform="scale(0.015625)"/>
       <path id="DejaVuSans-73" d="M 2834 3397 
L 2834 2853 
Q 2591 2978 2328 3040 
Q 2066 3103 1784 3103 
Q 1356 3103 1142 2972 
Q 928 2841 928 2578 
Q 928 2378 1081 2264 
Q 1234 2150 1697 2047 
L 1894 2003 
Q 2506 1872 2764 1633 
Q 3022 1394 3022 966 
Q 3022 478 2636 193 
Q 2250 -91 1575 -91 
Q 1294 -91 989 -36 
Q 684 19 347 128 
L 347 722 
Q 666 556 975 473 
Q 1284 391 1588 391 
Q 1994 391 2212 530 
Q 2431 669 2431 922 
Q 2431 1156 2273 1281 
Q 2116 1406 1581 1522 
L 1381 1569 
Q 847 1681 609 1914 
Q 372 2147 372 2553 
Q 372 3047 722 3315 
Q 1072 3584 1716 3584 
Q 2034 3584 2315 3537 
Q 2597 3491 2834 3397 
z
" transform="scale(0.015625)"/>
      </defs>
      <use xlink:href="#DejaVuSans-45"/>
      <use xlink:href="#DejaVuSans-70" x="63.183594"/>
      <use xlink:href="#DejaVuSans-6f" x="126.660156"/>
      <use xlink:href="#DejaVuSans-63" x="187.841797"/>
      <use xlink:href="#DejaVuSans-68" x="242.822266"/>
      <use xlink:href="#DejaVuSans-73" x="306.201172"/>
     </g>
    </g>
   </g>
   <g id="matplotlib.axis_2">
    <g id="ytick_1">
     <g id="line2d_11">
      <defs>
       <path id="mf1d16df283" d="M 0 0 
L -3.5 0 
" style="stroke: #000000; stroke-width: 0.8"/>
      </defs>
      <g>
       <use xlink:href="#mf1d16df283" x="57.6" y="292.160543" style="stroke: #000000; stroke-width: 0.8"/>
      </g>
     </g>
     <g id="text_12">
      <!-- 10 -->
      <g transform="translate(37.875 295.959762) scale(0.1 -0.1)">
       <use xlink:href="#DejaVuSans-31"/>
       <use xlink:href="#DejaVuSans-30" x="63.623047"/>
      </g>
     </g>
    </g>
    <g id="ytick_2">
     <g id="line2d_12">
      <g>
       <use xlink:href="#mf1d16df283" x="57.6" y="261.965835" style="stroke: #000000; stroke-width: 0.8"/>
      </g>
     </g>
     <g id="text_13">
      <!-- 20 -->
      <g transform="translate(37.875 265.765054) scale(0.1 -0.1)">
       <use xlink:href="#DejaVuSans-32"/>
       <use xlink:href="#DejaVuSans-30" x="63.623047"/>
      </g>
     </g>
    </g>
    <g id="ytick_3">
     <g id="line2d_13">
      <g>
       <use xlink:href="#mf1d16df283" x="57.6" y="231.771127" style="stroke: #000000; stroke-width: 0.8"/>
      </g>
     </g>
     <g id="text_14">
      <!-- 30 -->
      <g transform="translate(37.875 235.570346) scale(0.1 -0.1)">
       <use xlink:href="#DejaVuSans-33"/>
       <use xlink:href="#DejaVuSans-30" x="63.623047"/>
      </g>
     </g>
    </g>
    <g id="ytick_4">
     <g id="line2d_14">
      <g>
       <use xlink:href="#mf1d16df283" x="57.6" y="201.576419" style="stroke: #000000; stroke-width: 0.8"/>
      </g>
     </g>
     <g id="text_15">
      <!-- 40 -->
      <g transform="translate(37.875 205.375638) scale(0.1 -0.1)">
       <use xlink:href="#DejaVuSans-34"/>
       <use xlink:href="#DejaVuSans-30" x="63.623047"/>
      </g>
     </g>
    </g>
    <g id="ytick_5">
     <g id="line2d_15">
      <g>
       <use xlink:href="#mf1d16df283" x="57.6" y="171.381711" style="stroke: #000000; stroke-width: 0.8"/>
      </g>
     </g>
     <g id="text_16">
      <!-- 50 -->
      <g transform="translate(37.875 175.18093) scale(0.1 -0.1)">
       <defs>
        <path id="DejaVuSans-35" d="M 691 4666 
L 3169 4666 
L 3169 4134 
L 1269 4134 
L 1269 2991 
Q 1406 3038 1543 3061 
Q 1681 3084 1819 3084 
Q 2600 3084 3056 2656 
Q 3513 2228 3513 1497 
Q 3513 744 3044 326 
Q 2575 -91 1722 -91 
Q 1428 -91 1123 -41 
Q 819 9 494 109 
L 494 744 
Q 775 591 1075 516 
Q 1375 441 1709 441 
Q 2250 441 2565 725 
Q 2881 1009 2881 1497 
Q 2881 1984 2565 2268 
Q 2250 2553 1709 2553 
Q 1456 2553 1204 2497 
Q 953 2441 691 2322 
L 691 4666 
z
" transform="scale(0.015625)"/>
       </defs>
       <use xlink:href="#DejaVuSans-35"/>
       <use xlink:href="#DejaVuSans-30" x="63.623047"/>
      </g>
     </g>
    </g>
    <g id="ytick_6">
     <g id="line2d_16">
      <g>
       <use xlink:href="#mf1d16df283" x="57.6" y="141.187003" style="stroke: #000000; stroke-width: 0.8"/>
      </g>
     </g>
     <g id="text_17">
      <!-- 60 -->
      <g transform="translate(37.875 144.986222) scale(0.1 -0.1)">
       <use xlink:href="#DejaVuSans-36"/>
       <use xlink:href="#DejaVuSans-30" x="63.623047"/>
      </g>
     </g>
    </g>
    <g id="ytick_7">
     <g id="line2d_17">
      <g>
       <use xlink:href="#mf1d16df283" x="57.6" y="110.992296" style="stroke: #000000; stroke-width: 0.8"/>
      </g>
     </g>
     <g id="text_18">
      <!-- 70 -->
      <g transform="translate(37.875 114.791514) scale(0.1 -0.1)">
       <use xlink:href="#DejaVuSans-37"/>
       <use xlink:href="#DejaVuSans-30" x="63.623047"/>
      </g>
     </g>
    </g>
    <g id="ytick_8">
     <g id="line2d_18">
      <g>
       <use xlink:href="#mf1d16df283" x="57.6" y="80.797588" style="stroke: #000000; stroke-width: 0.8"/>
      </g>
     </g>
     <g id="text_19">
      <!-- 80 -->
      <g transform="translate(37.875 84.596806) scale(0.1 -0.1)">
       <defs>
        <path id="DejaVuSans-38" d="M 2034 2216 
Q 1584 2216 1326 1975 
Q 1069 1734 1069 1313 
Q 1069 891 1326 650 
Q 1584 409 2034 409 
Q 2484 409 2743 651 
Q 3003 894 3003 1313 
Q 3003 1734 2745 1975 
Q 2488 2216 2034 2216 
z
M 1403 2484 
Q 997 2584 770 2862 
Q 544 3141 544 3541 
Q 544 4100 942 4425 
Q 1341 4750 2034 4750 
Q 2731 4750 3128 4425 
Q 3525 4100 3525 3541 
Q 3525 3141 3298 2862 
Q 3072 2584 2669 2484 
Q 3125 2378 3379 2068 
Q 3634 1759 3634 1313 
Q 3634 634 3220 271 
Q 2806 -91 2034 -91 
Q 1263 -91 848 271 
Q 434 634 434 1313 
Q 434 1759 690 2068 
Q 947 2378 1403 2484 
z
M 1172 3481 
Q 1172 3119 1398 2916 
Q 1625 2713 2034 2713 
Q 2441 2713 2670 2916 
Q 2900 3119 2900 3481 
Q 2900 3844 2670 4047 
Q 2441 4250 2034 4250 
Q 1625 4250 1398 4047 
Q 1172 3844 1172 3481 
z
" transform="scale(0.015625)"/>
       </defs>
       <use xlink:href="#DejaVuSans-38"/>
       <use xlink:href="#DejaVuSans-30" x="63.623047"/>
      </g>
     </g>
    </g>
    <g id="ytick_9">
     <g id="line2d_19">
      <g>
       <use xlink:href="#mf1d16df283" x="57.6" y="50.60288" style="stroke: #000000; stroke-width: 0.8"/>
      </g>
     </g>
     <g id="text_20">
      <!-- 90 -->
      <g transform="translate(37.875 54.402098) scale(0.1 -0.1)">
       <defs>
        <path id="DejaVuSans-39" d="M 703 97 
L 703 672 
Q 941 559 1184 500 
Q 1428 441 1663 441 
Q 2288 441 2617 861 
Q 2947 1281 2994 2138 
Q 2813 1869 2534 1725 
Q 2256 1581 1919 1581 
Q 1219 1581 811 2004 
Q 403 2428 403 3163 
Q 403 3881 828 4315 
Q 1253 4750 1959 4750 
Q 2769 4750 3195 4129 
Q 3622 3509 3622 2328 
Q 3622 1225 3098 567 
Q 2575 -91 1691 -91 
Q 1453 -91 1209 -44 
Q 966 3 703 97 
z
M 1959 2075 
Q 2384 2075 2632 2365 
Q 2881 2656 2881 3163 
Q 2881 3666 2632 3958 
Q 2384 4250 1959 4250 
Q 1534 4250 1286 3958 
Q 1038 3666 1038 3163 
Q 1038 2656 1286 2365 
Q 1534 2075 1959 2075 
z
" transform="scale(0.015625)"/>
       </defs>
       <use xlink:href="#DejaVuSans-39"/>
       <use xlink:href="#DejaVuSans-30" x="63.623047"/>
      </g>
     </g>
    </g>
    <g id="text_21">
     <!-- Accuracy -->
     <g transform="translate(31.795312 197.356125) rotate(-90) scale(0.1 -0.1)">
      <defs>
       <path id="DejaVuSans-41" d="M 2188 4044 
L 1331 1722 
L 3047 1722 
L 2188 4044 
z
M 1831 4666 
L 2547 4666 
L 4325 0 
L 3669 0 
L 3244 1197 
L 1141 1197 
L 716 0 
L 50 0 
L 1831 4666 
z
" transform="scale(0.015625)"/>
       <path id="DejaVuSans-75" d="M 544 1381 
L 544 3500 
L 1119 3500 
L 1119 1403 
Q 1119 906 1312 657 
Q 1506 409 1894 409 
Q 2359 409 2629 706 
Q 2900 1003 2900 1516 
L 2900 3500 
L 3475 3500 
L 3475 0 
L 2900 0 
L 2900 538 
Q 2691 219 2414 64 
Q 2138 -91 1772 -91 
Q 1169 -91 856 284 
Q 544 659 544 1381 
z
M 1991 3584 
L 1991 3584 
z
" transform="scale(0.015625)"/>
       <path id="DejaVuSans-72" d="M 2631 2963 
Q 2534 3019 2420 3045 
Q 2306 3072 2169 3072 
Q 1681 3072 1420 2755 
Q 1159 2438 1159 1844 
L 1159 0 
L 581 0 
L 581 3500 
L 1159 3500 
L 1159 2956 
Q 1341 3275 1631 3429 
Q 1922 3584 2338 3584 
Q 2397 3584 2469 3576 
Q 2541 3569 2628 3553 
L 2631 2963 
z
" transform="scale(0.015625)"/>
       <path id="DejaVuSans-61" d="M 2194 1759 
Q 1497 1759 1228 1600 
Q 959 1441 959 1056 
Q 959 750 1161 570 
Q 1363 391 1709 391 
Q 2188 391 2477 730 
Q 2766 1069 2766 1631 
L 2766 1759 
L 2194 1759 
z
M 3341 1997 
L 3341 0 
L 2766 0 
L 2766 531 
Q 2569 213 2275 61 
Q 1981 -91 1556 -91 
Q 1019 -91 701 211 
Q 384 513 384 1019 
Q 384 1609 779 1909 
Q 1175 2209 1959 2209 
L 2766 2209 
L 2766 2266 
Q 2766 2663 2505 2880 
Q 2244 3097 1772 3097 
Q 1472 3097 1187 3025 
Q 903 2953 641 2809 
L 641 3341 
Q 956 3463 1253 3523 
Q 1550 3584 1831 3584 
Q 2591 3584 2966 3190 
Q 3341 2797 3341 1997 
z
" transform="scale(0.015625)"/>
       <path id="DejaVuSans-79" d="M 2059 -325 
Q 1816 -950 1584 -1140 
Q 1353 -1331 966 -1331 
L 506 -1331 
L 506 -850 
L 844 -850 
Q 1081 -850 1212 -737 
Q 1344 -625 1503 -206 
L 1606 56 
L 191 3500 
L 800 3500 
L 1894 763 
L 2988 3500 
L 3597 3500 
L 2059 -325 
z
" transform="scale(0.015625)"/>
      </defs>
      <use xlink:href="#DejaVuSans-41"/>
      <use xlink:href="#DejaVuSans-63" x="66.658203"/>
      <use xlink:href="#DejaVuSans-63" x="121.638672"/>
      <use xlink:href="#DejaVuSans-75" x="176.619141"/>
      <use xlink:href="#DejaVuSans-72" x="239.998047"/>
      <use xlink:href="#DejaVuSans-61" x="281.111328"/>
      <use xlink:href="#DejaVuSans-63" x="342.390625"/>
      <use xlink:href="#DejaVuSans-79" x="397.371094"/>
     </g>
    </g>
   </g>
   <g id="line2d_20">
    <path d="M 73.832727 295.488 
L 76.00433 215.562608 
L 77.090131 187.415101 
L 78.175932 164.310111 
L 79.261733 150.988206 
L 80.347534 141.591613 
L 81.433335 135.564749 
L 82.519137 127.327633 
L 84.690739 116.083123 
L 85.77654 112.284629 
L 86.862341 106.988477 
L 87.948142 104.313226 
L 89.033943 100.557004 
L 90.119745 98.225973 
L 91.205546 95.272931 
L 93.377148 92.633913 
L 94.462949 91.003399 
L 95.54875 117.876689 
L 96.634552 116.107279 
L 97.720353 115.322217 
L 98.806154 112.435603 
L 99.891955 110.376324 
L 100.977756 107.54406 
L 102.063557 105.919585 
L 103.149358 103.618748 
L 104.23516 102.163363 
L 105.320961 99.409606 
L 107.492563 95.532605 
L 108.578364 94.318778 
L 109.664165 94.089298 
L 110.749967 92.042097 
L 111.835768 90.339115 
L 112.921569 89.300417 
L 114.00737 88.050356 
L 115.093171 85.356989 
L 116.178972 84.384719 
L 117.264773 83.062191 
L 118.350575 82.409985 
L 119.436376 80.320511 
L 121.607978 78.653763 
L 122.693779 77.747922 
L 124.865382 75.465202 
L 125.951183 74.486894 
L 127.036984 74.094362 
L 128.122785 72.439692 
L 130.294387 69.903337 
L 131.380189 70.368335 
L 132.46599 68.562692 
L 133.551791 69.069963 
L 134.637592 67.988993 
L 135.723393 68.472108 
L 136.809194 66.714776 
L 137.894995 67.43341 
L 138.980797 89.421196 
L 140.066598 91.722033 
L 141.152399 90.930932 
L 142.2382 91.220801 
L 143.324001 90.260609 
L 144.409802 91.311385 
L 146.581405 88.775029 
L 147.667206 88.038279 
L 148.753007 87.706137 
L 149.838808 86.178285 
L 150.924609 85.23621 
L 152.01041 86.093739 
L 153.096212 85.284521 
L 154.182013 84.632316 
L 155.267814 85.049002 
L 156.353615 83.666085 
L 157.439416 83.170892 
L 158.525217 82.120116 
L 159.611019 81.335053 
L 160.69682 81.159924 
L 161.782621 80.217849 
L 162.868422 80.133304 
L 163.954223 79.52941 
L 165.040024 79.710578 
L 166.125825 78.738309 
L 167.211627 78.418245 
L 168.297428 78.327661 
L 169.383229 76.823964 
L 170.46903 76.491822 
L 171.554831 74.891503 
L 172.640632 76.032863 
L 173.726434 75.012282 
L 175.898036 73.798454 
L 176.983837 73.42404 
L 180.24124 71.624435 
L 181.327042 71.394956 
L 182.412843 70.428725 
L 183.498644 69.661779 
L 184.584445 69.625546 
L 185.670246 69.939571 
L 186.756047 68.598926 
L 188.92765 67.747435 
L 191.099252 67.191852 
L 194.356656 65.482832 
L 195.442457 64.951405 
L 196.528258 64.746081 
L 197.614059 64.12407 
L 198.69986 63.127645 
L 199.785661 63.290696 
L 200.871462 62.692841 
L 201.957264 60.995898 
L 203.043065 61.835311 
L 204.128866 60.742263 
L 205.214667 60.923431 
L 206.300468 60.567133 
L 207.386269 59.576747 
L 208.472071 59.884733 
L 209.557872 59.051359 
L 210.643673 58.791684 
L 211.729474 59.04532 
L 212.815275 58.465582 
L 213.901076 58.193829 
L 214.986877 58.091167 
L 216.072679 58.169673 
L 217.15848 56.798834 
L 218.244281 57.511429 
L 219.330082 56.93169 
L 220.415883 56.104355 
L 221.501684 57.445 
L 222.587486 56.835067 
L 223.673287 57.324222 
L 224.759088 56.508965 
L 225.844889 77.657338 
L 226.93069 80.713042 
L 228.016491 80.163499 
L 229.102292 80.912328 
L 230.188094 80.405056 
L 231.273895 80.477524 
L 232.359696 80.9546 
L 233.445497 80.405056 
L 234.531298 79.613955 
L 235.617099 80.314472 
L 236.702901 78.973827 
L 237.788702 78.985905 
L 238.874503 78.176687 
L 239.960304 79.058372 
L 241.046105 78.38805 
L 242.131906 78.04383 
L 243.217708 77.536559 
L 244.303509 78.345777 
L 245.38931 77.506364 
L 246.475111 77.373508 
L 247.560912 76.775653 
L 248.646713 76.993054 
L 249.732514 77.723766 
L 250.818316 75.948318 
L 251.904117 76.352927 
L 252.989918 76.038902 
L 254.075719 75.960395 
L 256.247321 75.030398 
L 257.333123 74.982087 
L 258.418924 74.215141 
L 259.504725 75.108905 
L 260.590526 74.73449 
L 261.676327 74.710334 
L 262.762128 74.28157 
L 263.847929 74.124557 
L 264.933731 74.553322 
L 266.019532 74.378193 
L 267.105333 73.490468 
L 268.191134 73.617286 
L 269.276935 73.170404 
L 270.362736 72.306836 
L 271.448538 72.669172 
L 273.62014 72.856379 
L 275.791742 72.252485 
L 276.877543 71.890149 
L 277.963344 71.165476 
L 279.049146 71.751253 
L 282.306549 70.984308 
L 284.478151 70.024116 
L 285.563953 69.951649 
L 286.649754 70.199245 
L 287.735555 69.160547 
L 288.821356 69.987882 
L 289.907157 70.078466 
L 290.992958 68.91899 
L 292.07876 68.737821 
L 293.164561 69.082041 
L 294.250362 68.780094 
L 295.336163 68.333212 
L 296.421964 67.282436 
L 297.507765 68.007109 
L 298.593566 67.801785 
L 299.679368 67.934642 
L 300.765169 67.342826 
L 301.85097 67.409254 
L 302.936771 66.569841 
L 304.022572 67.095229 
L 305.108373 66.418868 
L 306.194175 66.497374 
L 307.279976 65.935752 
L 308.365777 66.189388 
L 310.537379 64.824587 
L 311.62318 65.633805 
L 312.708981 65.349975 
L 313.794783 64.909132 
L 315.966385 63.719461 
L 317.052186 64.800431 
L 318.137987 63.514137 
L 319.223788 63.767772 
L 320.30959 63.785889 
L 321.395391 62.849853 
L 322.481192 62.98271 
L 323.566993 63.55037 
L 324.652794 62.831736 
L 326.824396 61.853428 
L 327.910198 62.119141 
L 331.167601 60.826808 
L 332.253402 60.669795 
L 333.339203 60.307459 
L 334.425005 59.468046 
L 335.510806 59.003047 
L 336.596607 59.570708 
L 337.682408 60.30142 
L 338.768209 59.359345 
L 339.85401 58.906424 
L 340.939811 58.725256 
L 342.025613 58.36292 
L 344.197215 56.998119 
L 345.283016 57.608052 
L 346.368817 57.269871 
L 347.454618 56.684094 
L 348.54042 57.571818 
L 349.626221 57.04643 
L 350.712022 56.659938 
L 351.797823 56.847145 
L 352.883624 56.357991 
L 353.969425 56.490848 
L 355.055227 55.415916 
L 356.141028 55.379682 
L 357.226829 54.2504 
L 358.31263 55.174358 
L 359.398431 55.627279 
L 360.484232 54.316829 
L 362.655835 54.347023 
L 363.741636 53.936375 
L 364.827437 54.256439 
L 365.913238 54.171894 
L 366.999039 53.568 
L 368.08484 54.165855 
L 369.170642 54.08131 
L 370.256443 55.252865 
L 371.342244 55.385721 
L 372.428045 56.128511 
L 373.513846 56.36403 
L 374.599647 56.865262 
L 375.685448 56.521042 
L 376.77125 56.037927 
L 377.857051 56.816951 
L 378.942852 56.225134 
L 380.028653 56.551237 
L 381.114454 57.124937 
L 382.200255 56.557276 
L 383.286057 56.641821 
L 384.371858 56.074161 
L 385.457659 56.696172 
L 386.54346 56.031888 
L 387.629261 57.130976 
L 388.715062 57.837532 
L 389.800863 56.013771 
L 390.886665 56.569354 
L 391.972466 56.949807 
L 393.058267 57.155131 
L 394.144068 57.227599 
L 395.229869 56.786756 
L 396.31567 57.052469 
L 397.401472 56.303641 
L 398.487273 56.943768 
L 398.487273 56.943768 
" clip-path="url(#pe450571448)" style="fill: none; stroke: #1f77b4; stroke-width: 1.5; stroke-linecap: square"/>
   </g>
   <g id="line2d_21">
    <path d="M 73.832727 281.169669 
L 74.918528 255.715531 
L 76.00433 223.19583 
L 77.090131 214.228002 
L 78.175932 188.230358 
L 79.261733 193.967353 
L 80.347534 178.80961 
L 81.433335 171.442101 
L 82.519137 162.625246 
L 83.604938 163.833034 
L 84.690739 155.559684 
L 85.77654 156.072995 
L 86.862341 146.078546 
L 87.948142 146.440883 
L 89.033943 140.432136 
L 90.119745 137.140913 
L 91.205546 137.654223 
L 92.291347 135.933124 
L 93.377148 135.208451 
L 94.462949 135.872735 
L 95.54875 158.277208 
L 96.634552 164.678486 
L 97.720353 155.106764 
L 98.806154 150.909699 
L 99.891955 153.47625 
L 100.977756 146.259714 
L 102.063557 145.836989 
L 103.149358 146.833414 
L 104.23516 146.380493 
L 105.320961 140.915251 
L 106.406762 140.915251 
L 107.492563 137.020134 
L 108.578364 137.412665 
L 109.664165 132.883459 
L 110.749967 131.132166 
L 111.835768 134.81592 
L 114.00737 128.927952 
L 115.093171 129.924377 
L 116.178972 126.210428 
L 117.264773 127.720164 
L 118.350575 123.46271 
L 120.522177 123.613683 
L 122.693779 120.38285 
L 123.77958 119.446814 
L 124.865382 118.26922 
L 125.951183 116.004617 
L 127.036984 115.551696 
L 128.122785 114.827023 
L 129.208586 115.279944 
L 130.294387 114.223129 
L 131.380189 112.381252 
L 132.46599 113.196509 
L 133.551791 112.864367 
L 134.637592 111.958526 
L 135.723393 112.351057 
L 136.809194 111.59619 
L 137.894995 111.898137 
L 138.980797 133.457158 
L 141.152399 134.695141 
L 142.2382 137.201302 
L 143.324001 133.638327 
L 144.409802 134.513973 
L 145.495604 130.679245 
L 146.581405 131.554892 
L 147.667206 130.588661 
L 148.753007 127.05588 
L 149.838808 127.478606 
L 150.924609 129.199704 
L 152.01041 125.395171 
L 153.096212 126.270818 
L 154.182013 127.297438 
L 155.267814 127.448411 
L 156.353615 123.825046 
L 157.439416 124.338356 
L 158.525217 121.681222 
L 159.611019 124.368551 
L 160.69682 125.274392 
L 161.782621 121.711417 
L 162.868422 126.451986 
L 163.954223 122.858816 
L 166.125825 119.658177 
L 167.211627 120.775381 
L 168.297428 120.624407 
L 169.383229 120.89616 
L 170.46903 119.29584 
L 171.554831 121.318886 
L 172.640632 116.427343 
L 173.726434 114.887413 
L 174.812235 117.2426 
L 175.898036 116.789679 
L 176.983837 116.155591 
L 178.069638 116.034812 
L 179.155439 117.574742 
L 180.24124 116.517927 
L 181.327042 113.740014 
L 182.412843 112.834173 
L 183.498644 112.592615 
L 184.584445 110.629959 
L 185.670246 113.196509 
L 186.756047 112.411447 
L 187.841849 109.814702 
L 188.92765 112.351057 
L 190.013451 109.844897 
L 191.099252 109.301392 
L 192.185053 108.365356 
L 193.270854 109.603339 
L 195.442457 105.527053 
L 196.528258 105.225106 
L 197.614059 106.644258 
L 198.69986 105.164717 
L 199.785661 105.678027 
L 200.871462 102.416999 
L 201.957264 103.624787 
L 203.043065 105.557248 
L 204.128866 102.74914 
L 205.214667 101.329989 
L 206.300468 102.80953 
L 207.386269 102.447193 
L 209.557872 100.24298 
L 210.643673 100.786484 
L 211.729474 100.18259 
L 212.815275 100.212785 
L 213.901076 100.75629 
L 214.986877 99.035191 
L 216.072679 99.125775 
L 217.15848 99.608891 
L 218.244281 97.887792 
L 219.330082 99.125775 
L 220.415883 98.340713 
L 221.501684 99.004997 
L 222.587486 99.004997 
L 223.673287 99.15597 
L 224.759088 98.431297 
L 225.844889 124.942251 
L 226.93069 126.150039 
L 228.016491 122.768232 
L 230.188094 128.0825 
L 231.273895 125.999065 
L 232.359696 123.583489 
L 233.445497 123.432515 
L 234.531298 121.469859 
L 235.617099 121.802001 
L 236.702901 124.398746 
L 237.788702 122.9494 
L 238.874503 125.123419 
L 239.960304 123.341931 
L 242.131906 120.262071 
L 243.217708 126.663349 
L 244.303509 120.714992 
L 245.38931 126.753933 
L 246.475111 119.839345 
L 247.560912 118.601362 
L 248.646713 121.34908 
L 249.732514 119.86954 
L 250.818316 124.277967 
L 251.904117 123.492905 
L 252.989918 115.521502 
L 254.075719 121.771806 
L 255.16152 121.047133 
L 256.247321 116.940653 
L 257.333123 124.519525 
L 258.418924 117.574742 
L 259.504725 122.587063 
L 260.590526 119.748761 
L 261.676327 120.564018 
L 262.762128 115.612086 
L 263.847929 118.722141 
L 264.933731 118.118247 
L 266.019532 118.691946 
L 267.105333 115.159165 
L 268.191134 116.427343 
L 269.276935 115.370528 
L 270.362736 116.789679 
L 271.448538 118.510778 
L 273.62014 114.615661 
L 274.705941 116.427343 
L 275.791742 114.283519 
L 276.877543 115.642281 
L 277.963344 114.223129 
L 279.049146 116.970848 
L 280.134947 118.208831 
L 281.220748 113.800403 
L 282.306549 115.551696 
L 283.39235 114.736439 
L 284.478151 112.592615 
L 285.563953 113.166315 
L 286.649754 112.894562 
L 287.735555 113.528651 
L 288.821356 112.924757 
L 289.907157 114.585466 
L 290.992958 113.528651 
L 292.07876 113.13612 
L 293.164561 115.672475 
L 294.250362 110.931906 
L 295.336163 109.573144 
L 296.421964 112.351057 
L 297.507765 112.200084 
L 298.593566 110.901711 
L 299.679368 111.5358 
L 300.765169 109.965675 
L 301.85097 111.656579 
L 302.936771 110.086454 
L 304.022572 107.217957 
L 305.108373 110.267623 
L 306.194175 109.120224 
L 307.279976 108.848471 
L 308.365777 107.912435 
L 309.451578 109.210808 
L 310.537379 108.033214 
L 311.62318 107.368931 
L 312.708981 108.184188 
L 313.794783 107.278346 
L 314.880584 108.365356 
L 315.966385 106.312116 
L 317.052186 106.130948 
L 318.137987 108.244577 
L 320.30959 105.587443 
L 321.395391 106.946205 
L 322.481192 103.956929 
L 323.566993 109.210808 
L 324.652794 104.379655 
L 325.738595 106.191337 
L 326.824396 103.443619 
L 327.910198 103.987123 
L 328.995999 102.839724 
L 331.167601 105.043938 
L 332.253402 104.440044 
L 333.339203 104.500433 
L 334.425005 103.504008 
L 335.510806 106.221532 
L 336.596607 103.171866 
L 337.682408 100.907263 
L 338.768209 100.424148 
L 339.85401 101.994273 
L 340.939811 100.877068 
L 342.025613 99.397528 
L 343.111414 101.299794 
L 344.197215 100.18259 
L 345.283016 98.823828 
L 346.368817 102.447193 
L 347.454618 98.974802 
L 348.54042 98.491686 
L 349.626221 99.880643 
L 350.712022 98.461492 
L 351.797823 98.099155 
L 352.883624 99.699475 
L 353.969425 97.072535 
L 355.055227 96.861172 
L 356.141028 96.136499 
L 357.226829 96.287473 
L 358.31263 97.283898 
L 359.398431 96.559225 
L 360.484232 95.623189 
L 361.570033 95.894942 
L 362.655835 95.230658 
L 363.741636 95.411826 
L 364.827437 94.204038 
L 365.913238 93.932286 
L 366.999039 95.411826 
L 368.08484 95.260853 
L 369.170642 95.351437 
L 370.256443 96.680004 
L 371.342244 96.166694 
L 372.428045 98.552076 
L 373.513846 98.703049 
L 374.599647 97.706624 
L 375.685448 97.585845 
L 376.77125 99.397528 
L 377.857051 98.310518 
L 378.942852 98.491686 
L 380.028653 99.035191 
L 381.114454 98.038766 
L 382.200255 99.850448 
L 383.286057 97.525456 
L 384.371858 98.159545 
L 385.457659 99.578696 
L 386.54346 101.420573 
L 387.629261 100.635511 
L 388.715062 100.846874 
L 389.800863 98.672855 
L 390.886665 97.857598 
L 391.972466 99.246554 
L 393.058267 98.854023 
L 394.144068 97.827403 
L 395.229869 98.733244 
L 396.31567 98.159545 
L 397.401472 99.306944 
L 398.487273 100.24298 
L 398.487273 100.24298 
" clip-path="url(#pe450571448)" style="fill: none; stroke: #ff7f0e; stroke-width: 1.5; stroke-linecap: square"/>
   </g>
   <g id="line2d_22">
    <path d="M 73.832727 292.556198 
L 74.918528 258.196703 
L 76.00433 256.031013 
L 77.090131 251.824578 
L 78.175932 227.439749 
L 79.261733 234.74895 
L 80.347534 227.731284 
L 81.433335 211.509437 
L 83.604938 199.9938 
L 84.690739 195.537478 
L 85.77654 201.347356 
L 86.862341 188.623931 
L 87.948142 195.412534 
L 89.033943 193.517556 
L 90.119745 188.748874 
L 91.205546 185.937643 
L 92.291347 187.624382 
L 93.377148 185.666932 
L 94.462949 188.374044 
L 95.54875 211.571909 
L 96.634552 219.130998 
L 97.720353 211.863444 
L 99.891955 193.017781 
L 100.977756 192.372239 
L 102.063557 193.621676 
L 103.149358 196.724442 
L 104.23516 212.446514 
L 105.320961 193.517556 
L 106.406762 196.120548 
L 107.492563 184.750679 
L 108.578364 192.767894 
L 109.664165 188.14498 
L 110.749967 193.205197 
L 111.835768 186.687305 
L 112.921569 186.479065 
L 114.00737 184.479967 
L 115.093171 184.23008 
L 116.178972 182.106039 
L 117.264773 181.627088 
L 118.350575 183.168059 
L 119.436376 182.564165 
L 120.522177 183.001468 
L 121.607978 173.943056 
L 122.693779 174.609422 
L 123.77958 170.694522 
L 124.865382 178.045371 
L 125.951183 174.776013 
L 127.036984 167.633403 
L 128.122785 166.737974 
L 129.208586 173.75564 
L 130.294387 172.506204 
L 131.380189 175.81721 
L 132.46599 174.130471 
L 133.551791 169.195198 
L 134.637592 170.715345 
L 135.723393 172.610324 
L 136.809194 170.548754 
L 137.894995 170.694522 
L 138.980797 185.104686 
L 140.066598 197.34916 
L 141.152399 187.520262 
L 142.2382 188.519811 
L 143.324001 178.46185 
L 144.409802 190.539733 
L 145.495604 183.563714 
L 146.581405 197.890583 
L 147.667206 189.727599 
L 148.753007 183.438771 
L 149.838808 190.727148 
L 150.924609 182.772405 
L 152.01041 187.374495 
L 153.096212 177.982899 
L 154.182013 181.044018 
L 155.267814 180.773307 
L 156.353615 180.627539 
L 157.439416 174.317886 
L 158.525217 181.710384 
L 159.611019 171.31924 
L 160.69682 178.211963 
L 161.782621 177.420653 
L 162.868422 182.460046 
L 163.954223 177.129118 
L 165.040024 178.961624 
L 166.125825 174.692717 
L 168.297428 182.8557 
L 170.46903 166.800445 
L 171.554831 179.232335 
L 172.640632 174.588598 
L 173.726434 163.739327 
L 174.812235 174.484478 
L 175.898036 172.818563 
L 176.983837 167.77917 
L 178.069638 174.567774 
L 179.155439 169.715797 
L 180.24124 167.904114 
L 181.327042 170.819465 
L 182.412843 164.364045 
L 183.498644 167.88329 
L 184.584445 163.676855 
L 185.670246 163.885094 
L 186.756047 168.549656 
L 187.841849 170.382162 
L 188.92765 170.52793 
L 190.013451 160.15761 
L 191.099252 163.86427 
L 192.185053 161.719405 
L 193.270854 164.134982 
L 194.356656 166.092432 
L 195.442457 165.405242 
L 196.528258 160.449145 
L 197.614059 162.552362 
L 198.69986 161.531989 
L 199.785661 167.112804 
L 200.871462 159.26218 
L 201.957264 159.94937 
L 203.043065 159.387124 
L 204.128866 160.199258 
L 205.214667 157.30473 
L 206.300468 160.990567 
L 207.386269 159.824427 
L 208.472071 157.658737 
L 209.557872 156.430125 
L 210.643673 156.846604 
L 211.729474 158.158512 
L 212.815275 155.888703 
L 213.901076 156.72166 
L 214.986877 153.514774 
L 216.072679 154.555971 
L 217.15848 156.346829 
L 218.244281 152.994175 
L 219.330082 154.951626 
L 220.415883 155.430576 
L 221.501684 154.28526 
L 222.587486 154.514323 
L 223.673287 154.535147 
L 224.759088 154.243612 
L 225.844889 183.64701 
L 226.93069 181.398025 
L 228.016491 181.522969 
L 229.102292 176.150393 
L 230.188094 183.522066 
L 231.273895 188.082509 
L 232.359696 184.729855 
L 233.445497 186.020939 
L 235.617099 172.964331 
L 236.702901 186.916368 
L 237.788702 182.543341 
L 238.874503 185.375397 
L 239.960304 172.881035 
L 241.046105 178.211963 
L 242.131906 172.464556 
L 243.217708 187.312023 
L 244.303509 180.044469 
L 245.38931 178.295258 
L 246.475111 173.047626 
L 247.560912 173.797288 
L 248.646713 171.444183 
L 249.732514 168.591304 
L 250.818316 172.693619 
L 251.904117 178.753385 
L 252.989918 173.464105 
L 254.075719 181.273081 
L 255.16152 179.482223 
L 256.247321 167.050333 
L 257.333123 175.71309 
L 258.418924 163.031313 
L 259.504725 173.27669 
L 260.590526 172.173021 
L 261.676327 168.278945 
L 262.762128 171.048528 
L 263.847929 163.468616 
L 264.933731 172.339613 
L 266.019532 164.384869 
L 267.105333 173.922232 
L 268.191134 166.321495 
L 269.276935 167.966586 
L 270.362736 172.422908 
L 271.448538 180.065293 
L 272.534339 167.341868 
L 273.62014 160.011842 
L 274.705941 173.693168 
L 275.791742 158.762406 
L 276.877543 167.279396 
L 277.963344 168.841191 
L 279.049146 167.466811 
L 280.134947 179.315631 
L 281.220748 165.113707 
L 282.306549 165.030411 
L 283.39235 170.090627 
L 284.478151 163.364496 
L 285.563953 168.154001 
L 286.649754 162.614834 
L 287.735555 168.029058 
L 288.821356 165.259474 
L 289.907157 170.361339 
L 290.992958 170.007332 
L 292.07876 167.279396 
L 293.164561 159.532892 
L 294.250362 164.447341 
L 295.336163 164.905467 
L 296.421964 176.275337 
L 297.507765 165.82172 
L 298.593566 164.030862 
L 299.679368 153.868781 
L 300.765169 168.820367 
L 301.85097 166.02996 
L 302.936771 168.757895 
L 304.022572 152.827584 
L 305.108373 158.241807 
L 306.194175 164.239101 
L 307.279976 156.326005 
L 308.365777 159.26218 
L 309.451578 165.905016 
L 310.537379 158.325103 
L 311.62318 156.284357 
L 312.708981 163.406144 
L 313.794783 158.491695 
L 314.880584 171.777366 
L 315.966385 156.305181 
L 317.052186 162.323299 
L 318.137987 159.637011 
L 319.223788 154.160316 
L 320.30959 153.577246 
L 321.395391 160.074314 
L 322.481192 159.845251 
L 323.566993 163.426968 
L 324.652794 160.511617 
L 325.738595 163.989214 
L 326.824396 154.951626 
L 327.910198 165.155354 
L 330.0818 161.094687 
L 331.167601 157.117315 
L 332.253402 154.680914 
L 333.339203 161.636109 
L 334.425005 156.534245 
L 335.510806 159.178885 
L 336.596607 156.263534 
L 337.682408 155.180689 
L 338.768209 149.745641 
L 339.85401 151.515676 
L 340.939811 149.225043 
L 343.111414 156.867428 
L 344.197215 156.221886 
L 345.283016 147.434184 
L 346.368817 153.868781 
L 347.454618 147.892311 
L 348.54042 152.931704 
L 349.626221 153.910429 
L 350.712022 152.306986 
L 351.797823 153.723013 
L 352.883624 148.746092 
L 353.969425 152.931704 
L 355.055227 152.619345 
L 356.141028 150.182944 
L 357.226829 156.24271 
L 358.31263 149.849761 
L 359.398431 153.702189 
L 360.484232 148.329614 
L 361.570033 152.077922 
L 363.741636 147.059354 
L 364.827437 149.849761 
L 365.913238 150.182944 
L 366.999039 149.912233 
L 368.08484 147.809015 
L 369.170642 146.809466 
L 370.256443 150.349536 
L 371.342244 148.038079 
L 372.428045 153.535598 
L 373.513846 151.848859 
L 374.599647 148.038079 
L 375.685448 153.160767 
L 376.77125 148.725269 
L 377.857051 146.913586 
L 378.942852 153.847957 
L 380.028653 154.222788 
L 381.114454 150.578599 
L 382.200255 155.409752 
L 383.286057 148.329614 
L 384.371858 152.348633 
L 385.457659 157.492146 
L 386.54346 161.032215 
L 387.629261 154.222788 
L 388.715062 151.932155 
L 389.800863 147.6216 
L 390.886665 160.220081 
L 391.972466 153.327358 
L 393.058267 158.158512 
L 394.144068 153.660541 
L 395.229869 150.703542 
L 396.31567 150.641071 
L 397.401472 151.390732 
L 398.487273 149.266691 
L 398.487273 149.266691 
" clip-path="url(#pe450571448)" style="fill: none; stroke: #2ca02c; stroke-width: 1.5; stroke-linecap: square"/>
   </g>
   <g id="line2d_23">
    <path d="M 369.170642 94.53618 
L 370.256443 93.328391 
L 371.342244 97.797208 
L 372.428045 93.268002 
L 373.513846 93.871896 
L 375.685448 97.012146 
L 376.77125 99.246554 
L 377.857051 97.404677 
L 378.942852 94.566374 
L 380.028653 96.559225 
L 381.114454 95.50241 
L 382.200255 97.223509 
L 383.286057 97.072535 
L 384.371858 99.488112 
L 385.457659 98.974802 
L 386.54346 100.726095 
L 387.629261 99.427722 
L 388.715062 96.498836 
L 389.800863 97.797208 
L 390.886665 97.797208 
L 391.972466 97.314093 
L 393.058267 97.04234 
L 395.229869 98.612465 
L 396.31567 99.035191 
L 397.401472 101.571547 
L 398.487273 102.718946 
L 398.487273 102.718946 
" clip-path="url(#pe450571448)" style="fill: none; stroke: #d62728; stroke-width: 1.5; stroke-linecap: square"/>
   </g>
   <g id="line2d_24">
    <path d="M 368.08484 150.037177 
L 369.170642 150.766014 
L 370.256443 149.433282 
L 372.428045 142.311496 
L 373.513846 144.498009 
L 374.599647 141.895017 
L 375.685448 146.226396 
L 376.77125 149.079275 
L 377.857051 150.391183 
L 378.942852 146.434635 
L 380.028653 145.76827 
L 381.114454 141.332771 
L 382.200255 143.394341 
L 383.286057 152.660993 
L 384.371858 151.390732 
L 385.457659 146.497107 
L 386.54346 152.11957 
L 387.629261 142.832094 
L 388.715062 140.333222 
L 389.800863 149.766465 
L 390.886665 145.393439 
L 391.972466 146.601227 
L 393.058267 152.827584 
L 394.144068 146.268044 
L 395.229869 144.560481 
L 396.31567 154.410203 
L 397.401472 151.661444 
L 398.487273 153.806309 
L 398.487273 153.806309 
" clip-path="url(#pe450571448)" style="fill: none; stroke: #9467bd; stroke-width: 1.5; stroke-linecap: square"/>
   </g>
   <g id="patch_3">
    <path d="M 57.6 307.584 
L 57.6 41.472 
" style="fill: none; stroke: #000000; stroke-width: 0.8; stroke-linejoin: miter; stroke-linecap: square"/>
   </g>
   <g id="patch_4">
    <path d="M 414.72 307.584 
L 414.72 41.472 
" style="fill: none; stroke: #000000; stroke-width: 0.8; stroke-linejoin: miter; stroke-linecap: square"/>
   </g>
   <g id="patch_5">
    <path d="M 57.6 307.584 
L 414.72 307.584 
" style="fill: none; stroke: #000000; stroke-width: 0.8; stroke-linejoin: miter; stroke-linecap: square"/>
   </g>
   <g id="patch_6">
    <path d="M 57.6 41.472 
L 414.72 41.472 
" style="fill: none; stroke: #000000; stroke-width: 0.8; stroke-linejoin: miter; stroke-linecap: square"/>
   </g>
   <g id="text_22">
    <!-- Learning Curves -->
    <g transform="translate(187.37625 35.472) scale(0.12 -0.12)">
     <defs>
      <path id="DejaVuSans-4c" d="M 628 4666 
L 1259 4666 
L 1259 531 
L 3531 531 
L 3531 0 
L 628 0 
L 628 4666 
z
" transform="scale(0.015625)"/>
      <path id="DejaVuSans-65" d="M 3597 1894 
L 3597 1613 
L 953 1613 
Q 991 1019 1311 708 
Q 1631 397 2203 397 
Q 2534 397 2845 478 
Q 3156 559 3463 722 
L 3463 178 
Q 3153 47 2828 -22 
Q 2503 -91 2169 -91 
Q 1331 -91 842 396 
Q 353 884 353 1716 
Q 353 2575 817 3079 
Q 1281 3584 2069 3584 
Q 2775 3584 3186 3129 
Q 3597 2675 3597 1894 
z
M 3022 2063 
Q 3016 2534 2758 2815 
Q 2500 3097 2075 3097 
Q 1594 3097 1305 2825 
Q 1016 2553 972 2059 
L 3022 2063 
z
" transform="scale(0.015625)"/>
      <path id="DejaVuSans-6e" d="M 3513 2113 
L 3513 0 
L 2938 0 
L 2938 2094 
Q 2938 2591 2744 2837 
Q 2550 3084 2163 3084 
Q 1697 3084 1428 2787 
Q 1159 2491 1159 1978 
L 1159 0 
L 581 0 
L 581 3500 
L 1159 3500 
L 1159 2956 
Q 1366 3272 1645 3428 
Q 1925 3584 2291 3584 
Q 2894 3584 3203 3211 
Q 3513 2838 3513 2113 
z
" transform="scale(0.015625)"/>
      <path id="DejaVuSans-69" d="M 603 3500 
L 1178 3500 
L 1178 0 
L 603 0 
L 603 3500 
z
M 603 4863 
L 1178 4863 
L 1178 4134 
L 603 4134 
L 603 4863 
z
" transform="scale(0.015625)"/>
      <path id="DejaVuSans-67" d="M 2906 1791 
Q 2906 2416 2648 2759 
Q 2391 3103 1925 3103 
Q 1463 3103 1205 2759 
Q 947 2416 947 1791 
Q 947 1169 1205 825 
Q 1463 481 1925 481 
Q 2391 481 2648 825 
Q 2906 1169 2906 1791 
z
M 3481 434 
Q 3481 -459 3084 -895 
Q 2688 -1331 1869 -1331 
Q 1566 -1331 1297 -1286 
Q 1028 -1241 775 -1147 
L 775 -588 
Q 1028 -725 1275 -790 
Q 1522 -856 1778 -856 
Q 2344 -856 2625 -561 
Q 2906 -266 2906 331 
L 2906 616 
Q 2728 306 2450 153 
Q 2172 0 1784 0 
Q 1141 0 747 490 
Q 353 981 353 1791 
Q 353 2603 747 3093 
Q 1141 3584 1784 3584 
Q 2172 3584 2450 3431 
Q 2728 3278 2906 2969 
L 2906 3500 
L 3481 3500 
L 3481 434 
z
" transform="scale(0.015625)"/>
      <path id="DejaVuSans-20" transform="scale(0.015625)"/>
      <path id="DejaVuSans-43" d="M 4122 4306 
L 4122 3641 
Q 3803 3938 3442 4084 
Q 3081 4231 2675 4231 
Q 1875 4231 1450 3742 
Q 1025 3253 1025 2328 
Q 1025 1406 1450 917 
Q 1875 428 2675 428 
Q 3081 428 3442 575 
Q 3803 722 4122 1019 
L 4122 359 
Q 3791 134 3420 21 
Q 3050 -91 2638 -91 
Q 1578 -91 968 557 
Q 359 1206 359 2328 
Q 359 3453 968 4101 
Q 1578 4750 2638 4750 
Q 3056 4750 3426 4639 
Q 3797 4528 4122 4306 
z
" transform="scale(0.015625)"/>
      <path id="DejaVuSans-76" d="M 191 3500 
L 800 3500 
L 1894 563 
L 2988 3500 
L 3597 3500 
L 2284 0 
L 1503 0 
L 191 3500 
z
" transform="scale(0.015625)"/>
     </defs>
     <use xlink:href="#DejaVuSans-4c"/>
     <use xlink:href="#DejaVuSans-65" x="53.962891"/>
     <use xlink:href="#DejaVuSans-61" x="115.486328"/>
     <use xlink:href="#DejaVuSans-72" x="176.765625"/>
     <use xlink:href="#DejaVuSans-6e" x="216.128906"/>
     <use xlink:href="#DejaVuSans-69" x="279.507812"/>
     <use xlink:href="#DejaVuSans-6e" x="307.291016"/>
     <use xlink:href="#DejaVuSans-67" x="370.669922"/>
     <use xlink:href="#DejaVuSans-20" x="434.146484"/>
     <use xlink:href="#DejaVuSans-43" x="465.933594"/>
     <use xlink:href="#DejaVuSans-75" x="535.757812"/>
     <use xlink:href="#DejaVuSans-72" x="599.136719"/>
     <use xlink:href="#DejaVuSans-76" x="640.25"/>
     <use xlink:href="#DejaVuSans-65" x="699.429688"/>
     <use xlink:href="#DejaVuSans-73" x="760.953125"/>
    </g>
   </g>
   <g id="legend_1">
    <g id="patch_7">
     <path d="M 214.18875 302.584 
L 407.72 302.584 
Q 409.72 302.584 409.72 300.584 
L 409.72 228.193375 
Q 409.72 226.193375 407.72 226.193375 
L 214.18875 226.193375 
Q 212.18875 226.193375 212.18875 228.193375 
L 212.18875 300.584 
Q 212.18875 302.584 214.18875 302.584 
z
" style="fill: #ffffff; opacity: 0.8; stroke: #cccccc; stroke-linejoin: miter"/>
    </g>
    <g id="line2d_25">
     <path d="M 216.18875 234.291812 
L 226.18875 234.291812 
L 236.18875 234.291812 
" style="fill: none; stroke: #1f77b4; stroke-width: 1.5; stroke-linecap: square"/>
    </g>
    <g id="text_23">
     <!-- Train Accuracy -->
     <g transform="translate(244.18875 237.791812) scale(0.1 -0.1)">
      <defs>
       <path id="DejaVuSans-54" d="M -19 4666 
L 3928 4666 
L 3928 4134 
L 2272 4134 
L 2272 0 
L 1638 0 
L 1638 4134 
L -19 4134 
L -19 4666 
z
" transform="scale(0.015625)"/>
      </defs>
      <use xlink:href="#DejaVuSans-54"/>
      <use xlink:href="#DejaVuSans-72" x="46.333984"/>
      <use xlink:href="#DejaVuSans-61" x="87.447266"/>
      <use xlink:href="#DejaVuSans-69" x="148.726562"/>
      <use xlink:href="#DejaVuSans-6e" x="176.509766"/>
      <use xlink:href="#DejaVuSans-20" x="239.888672"/>
      <use xlink:href="#DejaVuSans-41" x="271.675781"/>
      <use xlink:href="#DejaVuSans-63" x="338.333984"/>
      <use xlink:href="#DejaVuSans-63" x="393.314453"/>
      <use xlink:href="#DejaVuSans-75" x="448.294922"/>
      <use xlink:href="#DejaVuSans-72" x="511.673828"/>
      <use xlink:href="#DejaVuSans-61" x="552.787109"/>
      <use xlink:href="#DejaVuSans-63" x="614.066406"/>
      <use xlink:href="#DejaVuSans-79" x="669.046875"/>
     </g>
    </g>
    <g id="line2d_26">
     <path d="M 216.18875 248.969937 
L 226.18875 248.969937 
L 236.18875 248.969937 
" style="fill: none; stroke: #ff7f0e; stroke-width: 1.5; stroke-linecap: square"/>
    </g>
    <g id="text_24">
     <!-- Validation Accuracy -->
     <g transform="translate(244.18875 252.469937) scale(0.1 -0.1)">
      <defs>
       <path id="DejaVuSans-56" d="M 1831 0 
L 50 4666 
L 709 4666 
L 2188 738 
L 3669 4666 
L 4325 4666 
L 2547 0 
L 1831 0 
z
" transform="scale(0.015625)"/>
       <path id="DejaVuSans-6c" d="M 603 4863 
L 1178 4863 
L 1178 0 
L 603 0 
L 603 4863 
z
" transform="scale(0.015625)"/>
       <path id="DejaVuSans-64" d="M 2906 2969 
L 2906 4863 
L 3481 4863 
L 3481 0 
L 2906 0 
L 2906 525 
Q 2725 213 2448 61 
Q 2172 -91 1784 -91 
Q 1150 -91 751 415 
Q 353 922 353 1747 
Q 353 2572 751 3078 
Q 1150 3584 1784 3584 
Q 2172 3584 2448 3432 
Q 2725 3281 2906 2969 
z
M 947 1747 
Q 947 1113 1208 752 
Q 1469 391 1925 391 
Q 2381 391 2643 752 
Q 2906 1113 2906 1747 
Q 2906 2381 2643 2742 
Q 2381 3103 1925 3103 
Q 1469 3103 1208 2742 
Q 947 2381 947 1747 
z
" transform="scale(0.015625)"/>
       <path id="DejaVuSans-74" d="M 1172 4494 
L 1172 3500 
L 2356 3500 
L 2356 3053 
L 1172 3053 
L 1172 1153 
Q 1172 725 1289 603 
Q 1406 481 1766 481 
L 2356 481 
L 2356 0 
L 1766 0 
Q 1100 0 847 248 
Q 594 497 594 1153 
L 594 3053 
L 172 3053 
L 172 3500 
L 594 3500 
L 594 4494 
L 1172 4494 
z
" transform="scale(0.015625)"/>
      </defs>
      <use xlink:href="#DejaVuSans-56"/>
      <use xlink:href="#DejaVuSans-61" x="60.658203"/>
      <use xlink:href="#DejaVuSans-6c" x="121.9375"/>
      <use xlink:href="#DejaVuSans-69" x="149.720703"/>
      <use xlink:href="#DejaVuSans-64" x="177.503906"/>
      <use xlink:href="#DejaVuSans-61" x="240.980469"/>
      <use xlink:href="#DejaVuSans-74" x="302.259766"/>
      <use xlink:href="#DejaVuSans-69" x="341.46875"/>
      <use xlink:href="#DejaVuSans-6f" x="369.251953"/>
      <use xlink:href="#DejaVuSans-6e" x="430.433594"/>
      <use xlink:href="#DejaVuSans-20" x="493.8125"/>
      <use xlink:href="#DejaVuSans-41" x="525.599609"/>
      <use xlink:href="#DejaVuSans-63" x="592.257812"/>
      <use xlink:href="#DejaVuSans-63" x="647.238281"/>
      <use xlink:href="#DejaVuSans-75" x="702.21875"/>
      <use xlink:href="#DejaVuSans-72" x="765.597656"/>
      <use xlink:href="#DejaVuSans-61" x="806.710938"/>
      <use xlink:href="#DejaVuSans-63" x="867.990234"/>
      <use xlink:href="#DejaVuSans-79" x="922.970703"/>
     </g>
    </g>
    <g id="line2d_27">
     <path d="M 216.18875 263.648062 
L 226.18875 263.648062 
L 236.18875 263.648062 
" style="fill: none; stroke: #2ca02c; stroke-width: 1.5; stroke-linecap: square"/>
    </g>
    <g id="text_25">
     <!-- Robust Validation Accuracy -->
     <g transform="translate(244.18875 267.148062) scale(0.1 -0.1)">
      <defs>
       <path id="DejaVuSans-52" d="M 2841 2188 
Q 3044 2119 3236 1894 
Q 3428 1669 3622 1275 
L 4263 0 
L 3584 0 
L 2988 1197 
Q 2756 1666 2539 1819 
Q 2322 1972 1947 1972 
L 1259 1972 
L 1259 0 
L 628 0 
L 628 4666 
L 2053 4666 
Q 2853 4666 3247 4331 
Q 3641 3997 3641 3322 
Q 3641 2881 3436 2590 
Q 3231 2300 2841 2188 
z
M 1259 4147 
L 1259 2491 
L 2053 2491 
Q 2509 2491 2742 2702 
Q 2975 2913 2975 3322 
Q 2975 3731 2742 3939 
Q 2509 4147 2053 4147 
L 1259 4147 
z
" transform="scale(0.015625)"/>
       <path id="DejaVuSans-62" d="M 3116 1747 
Q 3116 2381 2855 2742 
Q 2594 3103 2138 3103 
Q 1681 3103 1420 2742 
Q 1159 2381 1159 1747 
Q 1159 1113 1420 752 
Q 1681 391 2138 391 
Q 2594 391 2855 752 
Q 3116 1113 3116 1747 
z
M 1159 2969 
Q 1341 3281 1617 3432 
Q 1894 3584 2278 3584 
Q 2916 3584 3314 3078 
Q 3713 2572 3713 1747 
Q 3713 922 3314 415 
Q 2916 -91 2278 -91 
Q 1894 -91 1617 61 
Q 1341 213 1159 525 
L 1159 0 
L 581 0 
L 581 4863 
L 1159 4863 
L 1159 2969 
z
" transform="scale(0.015625)"/>
      </defs>
      <use xlink:href="#DejaVuSans-52"/>
      <use xlink:href="#DejaVuSans-6f" x="64.982422"/>
      <use xlink:href="#DejaVuSans-62" x="126.164062"/>
      <use xlink:href="#DejaVuSans-75" x="189.640625"/>
      <use xlink:href="#DejaVuSans-73" x="253.019531"/>
      <use xlink:href="#DejaVuSans-74" x="305.119141"/>
      <use xlink:href="#DejaVuSans-20" x="344.328125"/>
      <use xlink:href="#DejaVuSans-56" x="376.115234"/>
      <use xlink:href="#DejaVuSans-61" x="436.773438"/>
      <use xlink:href="#DejaVuSans-6c" x="498.052734"/>
      <use xlink:href="#DejaVuSans-69" x="525.835938"/>
      <use xlink:href="#DejaVuSans-64" x="553.619141"/>
      <use xlink:href="#DejaVuSans-61" x="617.095703"/>
      <use xlink:href="#DejaVuSans-74" x="678.375"/>
      <use xlink:href="#DejaVuSans-69" x="717.583984"/>
      <use xlink:href="#DejaVuSans-6f" x="745.367188"/>
      <use xlink:href="#DejaVuSans-6e" x="806.548828"/>
      <use xlink:href="#DejaVuSans-20" x="869.927734"/>
      <use xlink:href="#DejaVuSans-41" x="901.714844"/>
      <use xlink:href="#DejaVuSans-63" x="968.373047"/>
      <use xlink:href="#DejaVuSans-63" x="1023.353516"/>
      <use xlink:href="#DejaVuSans-75" x="1078.333984"/>
      <use xlink:href="#DejaVuSans-72" x="1141.712891"/>
      <use xlink:href="#DejaVuSans-61" x="1182.826172"/>
      <use xlink:href="#DejaVuSans-63" x="1244.105469"/>
      <use xlink:href="#DejaVuSans-79" x="1299.085938"/>
     </g>
    </g>
    <g id="line2d_28">
     <path d="M 216.18875 278.326188 
L 226.18875 278.326188 
L 236.18875 278.326188 
" style="fill: none; stroke: #d62728; stroke-width: 1.5; stroke-linecap: square"/>
    </g>
    <g id="text_26">
     <!-- SWA Validation Accuracy -->
     <g transform="translate(244.18875 281.826188) scale(0.1 -0.1)">
      <defs>
       <path id="DejaVuSans-53" d="M 3425 4513 
L 3425 3897 
Q 3066 4069 2747 4153 
Q 2428 4238 2131 4238 
Q 1616 4238 1336 4038 
Q 1056 3838 1056 3469 
Q 1056 3159 1242 3001 
Q 1428 2844 1947 2747 
L 2328 2669 
Q 3034 2534 3370 2195 
Q 3706 1856 3706 1288 
Q 3706 609 3251 259 
Q 2797 -91 1919 -91 
Q 1588 -91 1214 -16 
Q 841 59 441 206 
L 441 856 
Q 825 641 1194 531 
Q 1563 422 1919 422 
Q 2459 422 2753 634 
Q 3047 847 3047 1241 
Q 3047 1584 2836 1778 
Q 2625 1972 2144 2069 
L 1759 2144 
Q 1053 2284 737 2584 
Q 422 2884 422 3419 
Q 422 4038 858 4394 
Q 1294 4750 2059 4750 
Q 2388 4750 2728 4690 
Q 3069 4631 3425 4513 
z
" transform="scale(0.015625)"/>
       <path id="DejaVuSans-57" d="M 213 4666 
L 850 4666 
L 1831 722 
L 2809 4666 
L 3519 4666 
L 4500 722 
L 5478 4666 
L 6119 4666 
L 4947 0 
L 4153 0 
L 3169 4050 
L 2175 0 
L 1381 0 
L 213 4666 
z
" transform="scale(0.015625)"/>
      </defs>
      <use xlink:href="#DejaVuSans-53"/>
      <use xlink:href="#DejaVuSans-57" x="63.476562"/>
      <use xlink:href="#DejaVuSans-41" x="156.853516"/>
      <use xlink:href="#DejaVuSans-20" x="225.261719"/>
      <use xlink:href="#DejaVuSans-56" x="257.048828"/>
      <use xlink:href="#DejaVuSans-61" x="317.707031"/>
      <use xlink:href="#DejaVuSans-6c" x="378.986328"/>
      <use xlink:href="#DejaVuSans-69" x="406.769531"/>
      <use xlink:href="#DejaVuSans-64" x="434.552734"/>
      <use xlink:href="#DejaVuSans-61" x="498.029297"/>
      <use xlink:href="#DejaVuSans-74" x="559.308594"/>
      <use xlink:href="#DejaVuSans-69" x="598.517578"/>
      <use xlink:href="#DejaVuSans-6f" x="626.300781"/>
      <use xlink:href="#DejaVuSans-6e" x="687.482422"/>
      <use xlink:href="#DejaVuSans-20" x="750.861328"/>
      <use xlink:href="#DejaVuSans-41" x="782.648438"/>
      <use xlink:href="#DejaVuSans-63" x="849.306641"/>
      <use xlink:href="#DejaVuSans-63" x="904.287109"/>
      <use xlink:href="#DejaVuSans-75" x="959.267578"/>
      <use xlink:href="#DejaVuSans-72" x="1022.646484"/>
      <use xlink:href="#DejaVuSans-61" x="1063.759766"/>
      <use xlink:href="#DejaVuSans-63" x="1125.039062"/>
      <use xlink:href="#DejaVuSans-79" x="1180.019531"/>
     </g>
    </g>
    <g id="line2d_29">
     <path d="M 216.18875 293.004312 
L 226.18875 293.004312 
L 236.18875 293.004312 
" style="fill: none; stroke: #9467bd; stroke-width: 1.5; stroke-linecap: square"/>
    </g>
    <g id="text_27">
     <!-- SWA Robust Validation Accuracy -->
     <g transform="translate(244.18875 296.504312) scale(0.1 -0.1)">
      <use xlink:href="#DejaVuSans-53"/>
      <use xlink:href="#DejaVuSans-57" x="63.476562"/>
      <use xlink:href="#DejaVuSans-41" x="156.853516"/>
      <use xlink:href="#DejaVuSans-20" x="225.261719"/>
      <use xlink:href="#DejaVuSans-52" x="257.048828"/>
      <use xlink:href="#DejaVuSans-6f" x="322.03125"/>
      <use xlink:href="#DejaVuSans-62" x="383.212891"/>
      <use xlink:href="#DejaVuSans-75" x="446.689453"/>
      <use xlink:href="#DejaVuSans-73" x="510.068359"/>
      <use xlink:href="#DejaVuSans-74" x="562.167969"/>
      <use xlink:href="#DejaVuSans-20" x="601.376953"/>
      <use xlink:href="#DejaVuSans-56" x="633.164062"/>
      <use xlink:href="#DejaVuSans-61" x="693.822266"/>
      <use xlink:href="#DejaVuSans-6c" x="755.101562"/>
      <use xlink:href="#DejaVuSans-69" x="782.884766"/>
      <use xlink:href="#DejaVuSans-64" x="810.667969"/>
      <use xlink:href="#DejaVuSans-61" x="874.144531"/>
      <use xlink:href="#DejaVuSans-74" x="935.423828"/>
      <use xlink:href="#DejaVuSans-69" x="974.632812"/>
      <use xlink:href="#DejaVuSans-6f" x="1002.416016"/>
      <use xlink:href="#DejaVuSans-6e" x="1063.597656"/>
      <use xlink:href="#DejaVuSans-20" x="1126.976562"/>
      <use xlink:href="#DejaVuSans-41" x="1158.763672"/>
      <use xlink:href="#DejaVuSans-63" x="1225.421875"/>
      <use xlink:href="#DejaVuSans-63" x="1280.402344"/>
      <use xlink:href="#DejaVuSans-75" x="1335.382812"/>
      <use xlink:href="#DejaVuSans-72" x="1398.761719"/>
      <use xlink:href="#DejaVuSans-61" x="1439.875"/>
      <use xlink:href="#DejaVuSans-63" x="1501.154297"/>
      <use xlink:href="#DejaVuSans-79" x="1556.134766"/>
     </g>
    </g>
   </g>
  </g>
 </g>
 <defs>
  <clipPath id="pe450571448">
   <rect x="57.6" y="41.472" width="357.12" height="266.112"/>
  </clipPath>
 </defs>
</svg>
