<?xml version="1.0" encoding="utf-8" standalone="no"?>
<!DOCTYPE svg PUBLIC "-//W3C//DTD SVG 1.1//EN"
  "http://www.w3.org/Graphics/SVG/1.1/DTD/svg11.dtd">
<svg xmlns:xlink="http://www.w3.org/1999/xlink" width="460.8pt" height="345.6pt" viewBox="0 0 460.8 345.6" xmlns="http://www.w3.org/2000/svg" version="1.1">
 <metadata>
  <rdf:RDF xmlns:dc="http://purl.org/dc/elements/1.1/" xmlns:cc="http://creativecommons.org/ns#" xmlns:rdf="http://www.w3.org/1999/02/22-rdf-syntax-ns#">
   <cc:Work>
    <dc:type rdf:resource="http://purl.org/dc/dcmitype/StillImage"/>
    <dc:date>2025-05-05T16:48:49.093605</dc:date>
    <dc:format>image/svg+xml</dc:format>
    <dc:creator>
     <cc:Agent>
      <dc:title>Matplotlib v3.9.1, https://matplotlib.org/</dc:title>
     </cc:Agent>
    </dc:creator>
   </cc:Work>
  </rdf:RDF>
 </metadata>
 <defs>
  <style type="text/css">*{stroke-linejoin: round; stroke-linecap: butt}</style>
 </defs>
 <g id="figure_1">
  <g id="patch_1">
   <path d="M 0 345.6 
L 460.8 345.6 
L 460.8 0 
L 0 0 
z
" style="fill: #ffffff"/>
  </g>
  <g id="axes_1">
   <g id="patch_2">
    <path d="M 57.6 307.584 
L 414.72 307.584 
L 414.72 41.472 
L 57.6 41.472 
z
" style="fill: #ffffff"/>
   </g>
   <g id="matplotlib.axis_1">
    <g id="xtick_1">
     <g id="line2d_1">
      <defs>
       <path id="m9326f8b506" d="M 0 0 
L 0 3.5 
" style="stroke: #000000; stroke-width: 0.8"/>
      </defs>
      <g>
       <use xlink:href="#m9326f8b506" x="73.832727" y="307.584" style="stroke: #000000; stroke-width: 0.8"/>
      </g>
     </g>
     <g id="text_1">
      <!-- 1 -->
      <g transform="translate(70.651477 322.182437) scale(0.1 -0.1)">
       <defs>
        <path id="DejaVuSans-31" d="M 794 531 
L 1825 531 
L 1825 4091 
L 703 3866 
L 703 4441 
L 1819 4666 
L 2450 4666 
L 2450 531 
L 3481 531 
L 3481 0 
L 794 0 
L 794 531 
z
" transform="scale(0.015625)"/>
       </defs>
       <use xlink:href="#DejaVuSans-31"/>
      </g>
     </g>
    </g>
    <g id="xtick_2">
     <g id="line2d_2">
      <g>
       <use xlink:href="#m9326f8b506" x="109.664165" y="307.584" style="stroke: #000000; stroke-width: 0.8"/>
      </g>
     </g>
     <g id="text_2">
      <!-- 34 -->
      <g transform="translate(103.301665 322.182437) scale(0.1 -0.1)">
       <defs>
        <path id="DejaVuSans-33" d="M 2597 2516 
Q 3050 2419 3304 2112 
Q 3559 1806 3559 1356 
Q 3559 666 3084 287 
Q 2609 -91 1734 -91 
Q 1441 -91 1130 -33 
Q 819 25 488 141 
L 488 750 
Q 750 597 1062 519 
Q 1375 441 1716 441 
Q 2309 441 2620 675 
Q 2931 909 2931 1356 
Q 2931 1769 2642 2001 
Q 2353 2234 1838 2234 
L 1294 2234 
L 1294 2753 
L 1863 2753 
Q 2328 2753 2575 2939 
Q 2822 3125 2822 3475 
Q 2822 3834 2567 4026 
Q 2313 4219 1838 4219 
Q 1578 4219 1281 4162 
Q 984 4106 628 3988 
L 628 4550 
Q 988 4650 1302 4700 
Q 1616 4750 1894 4750 
Q 2613 4750 3031 4423 
Q 3450 4097 3450 3541 
Q 3450 3153 3228 2886 
Q 3006 2619 2597 2516 
z
" transform="scale(0.015625)"/>
        <path id="DejaVuSans-34" d="M 2419 4116 
L 825 1625 
L 2419 1625 
L 2419 4116 
z
M 2253 4666 
L 3047 4666 
L 3047 1625 
L 3713 1625 
L 3713 1100 
L 3047 1100 
L 3047 0 
L 2419 0 
L 2419 1100 
L 313 1100 
L 313 1709 
L 2253 4666 
z
" transform="scale(0.015625)"/>
       </defs>
       <use xlink:href="#DejaVuSans-33"/>
       <use xlink:href="#DejaVuSans-34" x="63.623047"/>
      </g>
     </g>
    </g>
    <g id="xtick_3">
     <g id="line2d_3">
      <g>
       <use xlink:href="#m9326f8b506" x="145.495604" y="307.584" style="stroke: #000000; stroke-width: 0.8"/>
      </g>
     </g>
     <g id="text_3">
      <!-- 67 -->
      <g transform="translate(139.133104 322.182437) scale(0.1 -0.1)">
       <defs>
        <path id="DejaVuSans-36" d="M 2113 2584 
Q 1688 2584 1439 2293 
Q 1191 2003 1191 1497 
Q 1191 994 1439 701 
Q 1688 409 2113 409 
Q 2538 409 2786 701 
Q 3034 994 3034 1497 
Q 3034 2003 2786 2293 
Q 2538 2584 2113 2584 
z
M 3366 4563 
L 3366 3988 
Q 3128 4100 2886 4159 
Q 2644 4219 2406 4219 
Q 1781 4219 1451 3797 
Q 1122 3375 1075 2522 
Q 1259 2794 1537 2939 
Q 1816 3084 2150 3084 
Q 2853 3084 3261 2657 
Q 3669 2231 3669 1497 
Q 3669 778 3244 343 
Q 2819 -91 2113 -91 
Q 1303 -91 875 529 
Q 447 1150 447 2328 
Q 447 3434 972 4092 
Q 1497 4750 2381 4750 
Q 2619 4750 2861 4703 
Q 3103 4656 3366 4563 
z
" transform="scale(0.015625)"/>
        <path id="DejaVuSans-37" d="M 525 4666 
L 3525 4666 
L 3525 4397 
L 1831 0 
L 1172 0 
L 2766 4134 
L 525 4134 
L 525 4666 
z
" transform="scale(0.015625)"/>
       </defs>
       <use xlink:href="#DejaVuSans-36"/>
       <use xlink:href="#DejaVuSans-37" x="63.623047"/>
      </g>
     </g>
    </g>
    <g id="xtick_4">
     <g id="line2d_4">
      <g>
       <use xlink:href="#m9326f8b506" x="181.327042" y="307.584" style="stroke: #000000; stroke-width: 0.8"/>
      </g>
     </g>
     <g id="text_4">
      <!-- 100 -->
      <g transform="translate(171.783292 322.182437) scale(0.1 -0.1)">
       <defs>
        <path id="DejaVuSans-30" d="M 2034 4250 
Q 1547 4250 1301 3770 
Q 1056 3291 1056 2328 
Q 1056 1369 1301 889 
Q 1547 409 2034 409 
Q 2525 409 2770 889 
Q 3016 1369 3016 2328 
Q 3016 3291 2770 3770 
Q 2525 4250 2034 4250 
z
M 2034 4750 
Q 2819 4750 3233 4129 
Q 3647 3509 3647 2328 
Q 3647 1150 3233 529 
Q 2819 -91 2034 -91 
Q 1250 -91 836 529 
Q 422 1150 422 2328 
Q 422 3509 836 4129 
Q 1250 4750 2034 4750 
z
" transform="scale(0.015625)"/>
       </defs>
       <use xlink:href="#DejaVuSans-31"/>
       <use xlink:href="#DejaVuSans-30" x="63.623047"/>
       <use xlink:href="#DejaVuSans-30" x="127.246094"/>
      </g>
     </g>
    </g>
    <g id="xtick_5">
     <g id="line2d_5">
      <g>
       <use xlink:href="#m9326f8b506" x="217.15848" y="307.584" style="stroke: #000000; stroke-width: 0.8"/>
      </g>
     </g>
     <g id="text_5">
      <!-- 133 -->
      <g transform="translate(207.61473 322.182437) scale(0.1 -0.1)">
       <use xlink:href="#DejaVuSans-31"/>
       <use xlink:href="#DejaVuSans-33" x="63.623047"/>
       <use xlink:href="#DejaVuSans-33" x="127.246094"/>
      </g>
     </g>
    </g>
    <g id="xtick_6">
     <g id="line2d_6">
      <g>
       <use xlink:href="#m9326f8b506" x="254.075719" y="307.584" style="stroke: #000000; stroke-width: 0.8"/>
      </g>
     </g>
     <g id="text_6">
      <!-- 167 -->
      <g transform="translate(244.531969 322.182437) scale(0.1 -0.1)">
       <use xlink:href="#DejaVuSans-31"/>
       <use xlink:href="#DejaVuSans-36" x="63.623047"/>
       <use xlink:href="#DejaVuSans-37" x="127.246094"/>
      </g>
     </g>
    </g>
    <g id="xtick_7">
     <g id="line2d_7">
      <g>
       <use xlink:href="#m9326f8b506" x="289.907157" y="307.584" style="stroke: #000000; stroke-width: 0.8"/>
      </g>
     </g>
     <g id="text_7">
      <!-- 200 -->
      <g transform="translate(280.363407 322.182437) scale(0.1 -0.1)">
       <defs>
        <path id="DejaVuSans-32" d="M 1228 531 
L 3431 531 
L 3431 0 
L 469 0 
L 469 531 
Q 828 903 1448 1529 
Q 2069 2156 2228 2338 
Q 2531 2678 2651 2914 
Q 2772 3150 2772 3378 
Q 2772 3750 2511 3984 
Q 2250 4219 1831 4219 
Q 1534 4219 1204 4116 
Q 875 4013 500 3803 
L 500 4441 
Q 881 4594 1212 4672 
Q 1544 4750 1819 4750 
Q 2544 4750 2975 4387 
Q 3406 4025 3406 3419 
Q 3406 3131 3298 2873 
Q 3191 2616 2906 2266 
Q 2828 2175 2409 1742 
Q 1991 1309 1228 531 
z
" transform="scale(0.015625)"/>
       </defs>
       <use xlink:href="#DejaVuSans-32"/>
       <use xlink:href="#DejaVuSans-30" x="63.623047"/>
       <use xlink:href="#DejaVuSans-30" x="127.246094"/>
      </g>
     </g>
    </g>
    <g id="xtick_8">
     <g id="line2d_8">
      <g>
       <use xlink:href="#m9326f8b506" x="325.738595" y="307.584" style="stroke: #000000; stroke-width: 0.8"/>
      </g>
     </g>
     <g id="text_8">
      <!-- 233 -->
      <g transform="translate(316.194845 322.182437) scale(0.1 -0.1)">
       <use xlink:href="#DejaVuSans-32"/>
       <use xlink:href="#DejaVuSans-33" x="63.623047"/>
       <use xlink:href="#DejaVuSans-33" x="127.246094"/>
      </g>
     </g>
    </g>
    <g id="xtick_9">
     <g id="line2d_9">
      <g>
       <use xlink:href="#m9326f8b506" x="361.570033" y="307.584" style="stroke: #000000; stroke-width: 0.8"/>
      </g>
     </g>
     <g id="text_9">
      <!-- 266 -->
      <g transform="translate(352.026283 322.182437) scale(0.1 -0.1)">
       <use xlink:href="#DejaVuSans-32"/>
       <use xlink:href="#DejaVuSans-36" x="63.623047"/>
       <use xlink:href="#DejaVuSans-36" x="127.246094"/>
      </g>
     </g>
    </g>
    <g id="xtick_10">
     <g id="line2d_10">
      <g>
       <use xlink:href="#m9326f8b506" x="398.487273" y="307.584" style="stroke: #000000; stroke-width: 0.8"/>
      </g>
     </g>
     <g id="text_10">
      <!-- 300 -->
      <g transform="translate(388.943523 322.182437) scale(0.1 -0.1)">
       <use xlink:href="#DejaVuSans-33"/>
       <use xlink:href="#DejaVuSans-30" x="63.623047"/>
       <use xlink:href="#DejaVuSans-30" x="127.246094"/>
      </g>
     </g>
    </g>
    <g id="text_11">
     <!-- Epochs -->
     <g transform="translate(218.244375 335.860562) scale(0.1 -0.1)">
      <defs>
       <path id="DejaVuSans-45" d="M 628 4666 
L 3578 4666 
L 3578 4134 
L 1259 4134 
L 1259 2753 
L 3481 2753 
L 3481 2222 
L 1259 2222 
L 1259 531 
L 3634 531 
L 3634 0 
L 628 0 
L 628 4666 
z
" transform="scale(0.015625)"/>
       <path id="DejaVuSans-70" d="M 1159 525 
L 1159 -1331 
L 581 -1331 
L 581 3500 
L 1159 3500 
L 1159 2969 
Q 1341 3281 1617 3432 
Q 1894 3584 2278 3584 
Q 2916 3584 3314 3078 
Q 3713 2572 3713 1747 
Q 3713 922 3314 415 
Q 2916 -91 2278 -91 
Q 1894 -91 1617 61 
Q 1341 213 1159 525 
z
M 3116 1747 
Q 3116 2381 2855 2742 
Q 2594 3103 2138 3103 
Q 1681 3103 1420 2742 
Q 1159 2381 1159 1747 
Q 1159 1113 1420 752 
Q 1681 391 2138 391 
Q 2594 391 2855 752 
Q 3116 1113 3116 1747 
z
" transform="scale(0.015625)"/>
       <path id="DejaVuSans-6f" d="M 1959 3097 
Q 1497 3097 1228 2736 
Q 959 2375 959 1747 
Q 959 1119 1226 758 
Q 1494 397 1959 397 
Q 2419 397 2687 759 
Q 2956 1122 2956 1747 
Q 2956 2369 2687 2733 
Q 2419 3097 1959 3097 
z
M 1959 3584 
Q 2709 3584 3137 3096 
Q 3566 2609 3566 1747 
Q 3566 888 3137 398 
Q 2709 -91 1959 -91 
Q 1206 -91 779 398 
Q 353 888 353 1747 
Q 353 2609 779 3096 
Q 1206 3584 1959 3584 
z
" transform="scale(0.015625)"/>
       <path id="DejaVuSans-63" d="M 3122 3366 
L 3122 2828 
Q 2878 2963 2633 3030 
Q 2388 3097 2138 3097 
Q 1578 3097 1268 2742 
Q 959 2388 959 1747 
Q 959 1106 1268 751 
Q 1578 397 2138 397 
Q 2388 397 2633 464 
Q 2878 531 3122 666 
L 3122 134 
Q 2881 22 2623 -34 
Q 2366 -91 2075 -91 
Q 1284 -91 818 406 
Q 353 903 353 1747 
Q 353 2603 823 3093 
Q 1294 3584 2113 3584 
Q 2378 3584 2631 3529 
Q 2884 3475 3122 3366 
z
" transform="scale(0.015625)"/>
       <path id="DejaVuSans-68" d="M 3513 2113 
L 3513 0 
L 2938 0 
L 2938 2094 
Q 2938 2591 2744 2837 
Q 2550 3084 2163 3084 
Q 1697 3084 1428 2787 
Q 1159 2491 1159 1978 
L 1159 0 
L 581 0 
L 581 4863 
L 1159 4863 
L 1159 2956 
Q 1366 3272 1645 3428 
Q 1925 3584 2291 3584 
Q 2894 3584 3203 3211 
Q 3513 2838 3513 2113 
z
" transform="scale(0.015625)"/>
       <path id="DejaVuSans-73" d="M 2834 3397 
L 2834 2853 
Q 2591 2978 2328 3040 
Q 2066 3103 1784 3103 
Q 1356 3103 1142 2972 
Q 928 2841 928 2578 
Q 928 2378 1081 2264 
Q 1234 2150 1697 2047 
L 1894 2003 
Q 2506 1872 2764 1633 
Q 3022 1394 3022 966 
Q 3022 478 2636 193 
Q 2250 -91 1575 -91 
Q 1294 -91 989 -36 
Q 684 19 347 128 
L 347 722 
Q 666 556 975 473 
Q 1284 391 1588 391 
Q 1994 391 2212 530 
Q 2431 669 2431 922 
Q 2431 1156 2273 1281 
Q 2116 1406 1581 1522 
L 1381 1569 
Q 847 1681 609 1914 
Q 372 2147 372 2553 
Q 372 3047 722 3315 
Q 1072 3584 1716 3584 
Q 2034 3584 2315 3537 
Q 2597 3491 2834 3397 
z
" transform="scale(0.015625)"/>
      </defs>
      <use xlink:href="#DejaVuSans-45"/>
      <use xlink:href="#DejaVuSans-70" x="63.183594"/>
      <use xlink:href="#DejaVuSans-6f" x="126.660156"/>
      <use xlink:href="#DejaVuSans-63" x="187.841797"/>
      <use xlink:href="#DejaVuSans-68" x="242.822266"/>
      <use xlink:href="#DejaVuSans-73" x="306.201172"/>
     </g>
    </g>
   </g>
   <g id="matplotlib.axis_2">
    <g id="ytick_1">
     <g id="line2d_11">
      <defs>
       <path id="m01c0285c59" d="M 0 0 
L -3.5 0 
" style="stroke: #000000; stroke-width: 0.8"/>
      </defs>
      <g>
       <use xlink:href="#m01c0285c59" x="57.6" y="265.963621" style="stroke: #000000; stroke-width: 0.8"/>
      </g>
     </g>
     <g id="text_12">
      <!-- 20 -->
      <g transform="translate(37.875 269.76284) scale(0.1 -0.1)">
       <use xlink:href="#DejaVuSans-32"/>
       <use xlink:href="#DejaVuSans-30" x="63.623047"/>
      </g>
     </g>
    </g>
    <g id="ytick_2">
     <g id="line2d_12">
      <g>
       <use xlink:href="#m01c0285c59" x="57.6" y="207.750218" style="stroke: #000000; stroke-width: 0.8"/>
      </g>
     </g>
     <g id="text_13">
      <!-- 40 -->
      <g transform="translate(37.875 211.549436) scale(0.1 -0.1)">
       <use xlink:href="#DejaVuSans-34"/>
       <use xlink:href="#DejaVuSans-30" x="63.623047"/>
      </g>
     </g>
    </g>
    <g id="ytick_3">
     <g id="line2d_13">
      <g>
       <use xlink:href="#m01c0285c59" x="57.6" y="149.536814" style="stroke: #000000; stroke-width: 0.8"/>
      </g>
     </g>
     <g id="text_14">
      <!-- 60 -->
      <g transform="translate(37.875 153.336033) scale(0.1 -0.1)">
       <use xlink:href="#DejaVuSans-36"/>
       <use xlink:href="#DejaVuSans-30" x="63.623047"/>
      </g>
     </g>
    </g>
    <g id="ytick_4">
     <g id="line2d_14">
      <g>
       <use xlink:href="#m01c0285c59" x="57.6" y="91.32341" style="stroke: #000000; stroke-width: 0.8"/>
      </g>
     </g>
     <g id="text_15">
      <!-- 80 -->
      <g transform="translate(37.875 95.122629) scale(0.1 -0.1)">
       <defs>
        <path id="DejaVuSans-38" d="M 2034 2216 
Q 1584 2216 1326 1975 
Q 1069 1734 1069 1313 
Q 1069 891 1326 650 
Q 1584 409 2034 409 
Q 2484 409 2743 651 
Q 3003 894 3003 1313 
Q 3003 1734 2745 1975 
Q 2488 2216 2034 2216 
z
M 1403 2484 
Q 997 2584 770 2862 
Q 544 3141 544 3541 
Q 544 4100 942 4425 
Q 1341 4750 2034 4750 
Q 2731 4750 3128 4425 
Q 3525 4100 3525 3541 
Q 3525 3141 3298 2862 
Q 3072 2584 2669 2484 
Q 3125 2378 3379 2068 
Q 3634 1759 3634 1313 
Q 3634 634 3220 271 
Q 2806 -91 2034 -91 
Q 1263 -91 848 271 
Q 434 634 434 1313 
Q 434 1759 690 2068 
Q 947 2378 1403 2484 
z
M 1172 3481 
Q 1172 3119 1398 2916 
Q 1625 2713 2034 2713 
Q 2441 2713 2670 2916 
Q 2900 3119 2900 3481 
Q 2900 3844 2670 4047 
Q 2441 4250 2034 4250 
Q 1625 4250 1398 4047 
Q 1172 3844 1172 3481 
z
" transform="scale(0.015625)"/>
       </defs>
       <use xlink:href="#DejaVuSans-38"/>
       <use xlink:href="#DejaVuSans-30" x="63.623047"/>
      </g>
     </g>
    </g>
    <g id="text_16">
     <!-- Accuracy -->
     <g transform="translate(31.795312 197.356125) rotate(-90) scale(0.1 -0.1)">
      <defs>
       <path id="DejaVuSans-41" d="M 2188 4044 
L 1331 1722 
L 3047 1722 
L 2188 4044 
z
M 1831 4666 
L 2547 4666 
L 4325 0 
L 3669 0 
L 3244 1197 
L 1141 1197 
L 716 0 
L 50 0 
L 1831 4666 
z
" transform="scale(0.015625)"/>
       <path id="DejaVuSans-75" d="M 544 1381 
L 544 3500 
L 1119 3500 
L 1119 1403 
Q 1119 906 1312 657 
Q 1506 409 1894 409 
Q 2359 409 2629 706 
Q 2900 1003 2900 1516 
L 2900 3500 
L 3475 3500 
L 3475 0 
L 2900 0 
L 2900 538 
Q 2691 219 2414 64 
Q 2138 -91 1772 -91 
Q 1169 -91 856 284 
Q 544 659 544 1381 
z
M 1991 3584 
L 1991 3584 
z
" transform="scale(0.015625)"/>
       <path id="DejaVuSans-72" d="M 2631 2963 
Q 2534 3019 2420 3045 
Q 2306 3072 2169 3072 
Q 1681 3072 1420 2755 
Q 1159 2438 1159 1844 
L 1159 0 
L 581 0 
L 581 3500 
L 1159 3500 
L 1159 2956 
Q 1341 3275 1631 3429 
Q 1922 3584 2338 3584 
Q 2397 3584 2469 3576 
Q 2541 3569 2628 3553 
L 2631 2963 
z
" transform="scale(0.015625)"/>
       <path id="DejaVuSans-61" d="M 2194 1759 
Q 1497 1759 1228 1600 
Q 959 1441 959 1056 
Q 959 750 1161 570 
Q 1363 391 1709 391 
Q 2188 391 2477 730 
Q 2766 1069 2766 1631 
L 2766 1759 
L 2194 1759 
z
M 3341 1997 
L 3341 0 
L 2766 0 
L 2766 531 
Q 2569 213 2275 61 
Q 1981 -91 1556 -91 
Q 1019 -91 701 211 
Q 384 513 384 1019 
Q 384 1609 779 1909 
Q 1175 2209 1959 2209 
L 2766 2209 
L 2766 2266 
Q 2766 2663 2505 2880 
Q 2244 3097 1772 3097 
Q 1472 3097 1187 3025 
Q 903 2953 641 2809 
L 641 3341 
Q 956 3463 1253 3523 
Q 1550 3584 1831 3584 
Q 2591 3584 2966 3190 
Q 3341 2797 3341 1997 
z
" transform="scale(0.015625)"/>
       <path id="DejaVuSans-79" d="M 2059 -325 
Q 1816 -950 1584 -1140 
Q 1353 -1331 966 -1331 
L 506 -1331 
L 506 -850 
L 844 -850 
Q 1081 -850 1212 -737 
Q 1344 -625 1503 -206 
L 1606 56 
L 191 3500 
L 800 3500 
L 1894 763 
L 2988 3500 
L 3597 3500 
L 2059 -325 
z
" transform="scale(0.015625)"/>
      </defs>
      <use xlink:href="#DejaVuSans-41"/>
      <use xlink:href="#DejaVuSans-63" x="66.658203"/>
      <use xlink:href="#DejaVuSans-63" x="121.638672"/>
      <use xlink:href="#DejaVuSans-75" x="176.619141"/>
      <use xlink:href="#DejaVuSans-72" x="239.998047"/>
      <use xlink:href="#DejaVuSans-61" x="281.111328"/>
      <use xlink:href="#DejaVuSans-63" x="342.390625"/>
      <use xlink:href="#DejaVuSans-79" x="397.371094"/>
     </g>
    </g>
   </g>
   <g id="line2d_15">
    <path d="M 73.832727 295.488 
L 74.918528 258.614611 
L 76.00433 228.58972 
L 77.090131 204.625809 
L 78.175932 188.49042 
L 79.261733 176.502631 
L 80.347534 165.751538 
L 82.519137 151.7162 
L 83.604938 146.506908 
L 85.77654 134.746624 
L 87.948142 126.900602 
L 91.205546 116.511184 
L 92.291347 114.142794 
L 93.377148 112.509421 
L 94.462949 111.354393 
L 95.54875 140.749269 
L 96.634552 140.510096 
L 97.720353 136.665837 
L 98.806154 134.997463 
L 99.891955 132.197396 
L 100.977756 128.703145 
L 102.063557 126.708097 
L 103.149358 124.252204 
L 104.23516 122.636332 
L 105.320961 119.340419 
L 106.406762 117.922885 
L 108.578364 113.763618 
L 109.664165 112.165246 
L 110.749967 109.371012 
L 111.835768 108.956836 
L 112.921569 106.53011 
L 114.00737 104.459227 
L 115.093171 102.691685 
L 116.178972 100.393296 
L 117.264773 98.514917 
L 119.436376 94.396484 
L 120.522177 93.171455 
L 121.607978 90.593059 
L 122.693779 88.971354 
L 123.77958 88.096333 
L 124.865382 87.022973 
L 125.951183 84.987091 
L 128.122785 81.77868 
L 129.208586 80.565318 
L 130.294387 80.09864 
L 131.380189 77.905254 
L 132.46599 77.351073 
L 133.551791 75.764369 
L 134.637592 75.286024 
L 135.723393 75.326858 
L 136.809194 74.988517 
L 137.894995 74.930182 
L 138.980797 104.587564 
L 140.066598 108.59516 
L 141.152399 106.903453 
L 142.2382 106.150935 
L 144.409802 105.305081 
L 145.495604 105.684257 
L 146.581405 104.138386 
L 148.753007 102.009168 
L 149.838808 101.781663 
L 150.924609 101.174981 
L 152.01041 99.87995 
L 154.182013 98.030739 
L 155.267814 97.54656 
L 156.353615 96.782375 
L 157.439416 94.903997 
L 158.525217 94.273982 
L 159.611019 93.212289 
L 160.69682 92.395603 
L 161.782621 92.360602 
L 162.868422 90.307219 
L 163.954223 90.832232 
L 165.040024 89.210526 
L 166.125825 88.493009 
L 167.211627 88.971354 
L 168.297428 87.396316 
L 169.383229 87.046307 
L 170.46903 85.214596 
L 171.554831 85.424601 
L 172.640632 84.065402 
L 173.726434 83.242882 
L 174.812235 83.009543 
L 175.898036 81.650344 
L 176.983837 81.125331 
L 178.069638 79.690297 
L 179.155439 79.853634 
L 180.24124 78.126926 
L 181.327042 77.689415 
L 182.412843 76.703558 
L 183.498644 75.881038 
L 184.584445 75.221855 
L 185.670246 74.714343 
L 186.756047 73.366811 
L 187.841849 72.993468 
L 188.92765 71.523433 
L 190.013451 71.465098 
L 191.099252 70.181734 
L 192.185053 69.33588 
L 193.270854 69.096708 
L 194.356656 68.583362 
L 196.528258 66.529979 
L 197.614059 66.477478 
L 198.69986 65.124112 
L 199.785661 65.666625 
L 201.957264 63.782413 
L 204.128866 62.656552 
L 205.214667 61.414023 
L 206.300468 62.14904 
L 207.386269 60.498167 
L 208.472071 60.649837 
L 209.557872 60.276495 
L 210.643673 59.430641 
L 211.729474 59.897319 
L 212.815275 59.582312 
L 213.901076 58.724791 
L 214.986877 58.427284 
L 216.072679 58.631455 
L 217.15848 57.943105 
L 218.244281 58.077275 
L 219.330082 58.380616 
L 221.501684 57.838103 
L 222.587486 57.785602 
L 223.673287 58.164778 
L 224.759088 56.910581 
L 225.844889 85.768776 
L 226.93069 91.036403 
L 228.016491 90.966402 
L 229.102292 91.071404 
L 230.188094 89.700538 
L 231.273895 91.123906 
L 232.359696 89.420531 
L 233.445497 89.945544 
L 234.531298 88.784683 
L 235.617099 89.286361 
L 236.702901 88.959687 
L 237.788702 88.072999 
L 238.874503 87.01714 
L 239.960304 87.45465 
L 241.046105 86.46296 
L 242.131906 87.075475 
L 243.217708 86.182953 
L 244.303509 85.77461 
L 245.38931 85.494603 
L 246.475111 85.004591 
L 247.560912 84.806253 
L 248.646713 85.477103 
L 249.732514 84.712918 
L 250.818316 84.164571 
L 251.904117 84.211239 
L 252.989918 83.429553 
L 254.075719 82.478697 
L 255.16152 83.452887 
L 256.247321 80.944493 
L 257.333123 82.490364 
L 258.418924 80.862825 
L 259.504725 80.845324 
L 260.590526 80.594485 
L 261.676327 80.641153 
L 262.762128 80.425314 
L 263.847929 80.576985 
L 264.933731 79.795299 
L 266.019532 79.550293 
L 267.105333 78.826942 
L 268.191134 78.57027 
L 269.276935 78.768608 
L 270.362736 77.666081 
L 271.448538 77.205237 
L 272.534339 77.671915 
L 273.62014 77.934421 
L 274.705941 76.557721 
L 275.791742 76.831894 
L 276.877543 76.231046 
L 277.963344 75.484362 
L 279.049146 75.770202 
L 280.134947 75.28019 
L 281.220748 75.14602 
L 282.306549 74.247665 
L 284.478151 74.346834 
L 285.563953 73.028469 
L 286.649754 74.160163 
L 287.735555 72.923467 
L 288.821356 72.783463 
L 289.907157 73.250141 
L 290.992958 72.007611 
L 292.07876 72.200116 
L 293.164561 71.453431 
L 294.250362 71.634269 
L 295.336163 70.905085 
L 296.421964 70.765081 
L 297.507765 70.934252 
L 298.593566 69.353381 
L 299.679368 70.706747 
L 300.765169 69.995063 
L 301.85097 68.717532 
L 302.936771 68.548361 
L 304.022572 68.968371 
L 305.108373 68.682531 
L 307.279976 67.498336 
L 308.365777 67.154161 
L 309.451578 67.142494 
L 310.537379 66.69915 
L 311.62318 66.576647 
L 312.708981 66.133303 
L 313.794783 66.529979 
L 314.880584 65.159113 
L 315.966385 65.310783 
L 317.052186 65.019109 
L 318.137987 64.149922 
L 319.223788 64.459096 
L 320.30959 64.587432 
L 321.395391 64.039086 
L 322.481192 62.959893 
L 323.566993 63.379903 
L 324.652794 63.619076 
L 325.738595 62.796556 
L 326.824396 63.059062 
L 327.910198 61.857367 
L 328.995999 62.242376 
L 330.0818 61.274019 
L 332.253402 60.947345 
L 334.425005 60.08399 
L 335.510806 60.043156 
L 336.596607 60.206493 
L 337.682408 59.354806 
L 338.768209 59.103967 
L 339.85401 59.37814 
L 340.939811 59.074799 
L 342.025613 58.363116 
L 343.111414 58.240613 
L 344.197215 57.6981 
L 345.283016 57.400592 
L 347.454618 57.645598 
L 348.54042 57.453094 
L 349.626221 56.502237 
L 350.712022 56.898914 
L 351.797823 55.738052 
L 352.883624 56.035559 
L 353.969425 56.210564 
L 355.055227 56.018059 
L 356.141028 55.63305 
L 357.226829 55.574715 
L 359.398431 54.291351 
L 361.570033 54.857198 
L 362.655835 54.454688 
L 363.741636 53.678836 
L 364.827437 54.180515 
L 365.913238 53.568 
L 366.999039 53.993844 
L 368.08484 53.818839 
L 369.170642 54.233016 
L 370.256443 55.265541 
L 371.342244 55.819721 
L 372.428045 55.907223 
L 373.513846 56.980582 
L 374.599647 56.974749 
L 375.685448 56.60724 
L 378.942852 56.023893 
L 380.028653 57.062251 
L 381.114454 56.572239 
L 382.200255 56.280565 
L 383.286057 57.149753 
L 384.371858 55.959724 
L 385.457659 57.173087 
L 386.54346 56.181396 
L 388.715062 56.87558 
L 389.800863 56.723909 
L 390.886665 56.87558 
L 391.972466 56.858079 
L 393.058267 56.671408 
L 394.144068 56.257232 
L 395.229869 56.974749 
L 396.31567 56.303899 
L 397.401472 56.537238 
L 398.487273 56.20473 
L 398.487273 56.20473 
" clip-path="url(#pafb738c04c)" style="fill: none; stroke: #1f77b4; stroke-width: 1.5; stroke-linecap: square"/>
   </g>
   <g id="line2d_16">
    <path d="M 73.832727 286.367419 
L 74.918528 254.320941 
L 76.00433 232.345381 
L 77.090131 199.221954 
L 78.175932 195.46719 
L 79.261733 187.084459 
L 80.347534 173.375203 
L 81.433335 169.824185 
L 82.519137 172.734855 
L 83.604938 165.749247 
L 84.690739 162.605723 
L 86.862341 148.081479 
L 87.948142 142.376565 
L 89.033943 143.249766 
L 90.119745 140.455523 
L 91.205546 136.526118 
L 92.291347 134.605076 
L 93.377148 133.120634 
L 94.462949 133.353488 
L 95.54875 178.730836 
L 96.634552 160.510041 
L 97.720353 154.77602 
L 98.806154 145.403662 
L 99.891955 150.817509 
L 100.977756 145.811156 
L 102.063557 141.678005 
L 103.149358 145.723836 
L 104.23516 145.083489 
L 105.320961 139.611429 
L 106.406762 137.865027 
L 108.578364 133.411701 
L 109.664165 131.898153 
L 110.749967 129.860684 
L 111.835768 130.588351 
L 112.921569 129.918897 
L 114.00737 123.660956 
L 115.093171 122.234728 
L 116.178972 120.139045 
L 117.264773 121.41974 
L 118.350575 120.837606 
L 119.436376 116.762668 
L 120.522177 116.617134 
L 121.607978 113.38629 
L 122.693779 113.822891 
L 123.77958 111.698102 
L 124.865382 109.864379 
L 125.951183 109.398672 
L 127.036984 108.409044 
L 128.122785 109.573312 
L 129.208586 109.485992 
L 130.294387 107.448523 
L 131.380189 108.525471 
L 132.46599 106.749962 
L 133.551791 106.488002 
L 135.723393 105.556588 
L 136.809194 106.255148 
L 137.894995 105.673014 
L 138.980797 132.5385 
L 140.066598 129.97711 
L 141.152399 130.530138 
L 142.2382 124.941651 
L 143.324001 127.735894 
L 144.409802 122.816862 
L 145.495604 125.814852 
L 146.581405 124.301304 
L 147.667206 127.357507 
L 148.753007 123.282569 
L 149.838808 122.292941 
L 150.924609 121.914554 
L 152.01041 127.968748 
L 153.096212 122.089194 
L 154.182013 119.178524 
L 155.267814 119.498698 
L 156.353615 118.77103 
L 157.439416 123.428103 
L 159.611019 117.897829 
L 160.69682 118.567283 
L 161.782621 119.498698 
L 162.868422 117.519442 
L 163.954223 115.220013 
L 165.040024 116.937308 
L 169.383229 112.454876 
L 170.46903 112.571303 
L 171.554831 114.434132 
L 172.640632 110.999541 
L 173.726434 115.86036 
L 174.812235 111.494355 
L 175.898036 109.718846 
L 176.983837 109.602419 
L 178.069638 112.018275 
L 179.155439 108.234404 
L 180.24124 107.594057 
L 181.327042 106.284255 
L 182.412843 107.361203 
L 183.498644 106.808176 
L 184.584445 106.546215 
L 186.756047 105.527481 
L 187.841849 105.876761 
L 188.92765 104.304999 
L 190.013451 104.683387 
L 191.099252 102.09289 
L 192.185053 103.926612 
L 193.270854 103.228051 
L 194.356656 101.772716 
L 195.442457 101.714503 
L 196.528258 101.976463 
L 197.614059 102.413064 
L 198.69986 101.074155 
L 199.785661 101.452543 
L 200.871462 99.647927 
L 201.957264 100.084528 
L 203.043065 100.055421 
L 204.128866 100.171848 
L 205.214667 98.745619 
L 206.300468 98.716513 
L 207.386269 98.396339 
L 208.472071 98.279912 
L 209.557872 98.279912 
L 210.643673 98.803833 
L 211.729474 98.891153 
L 212.815275 97.377604 
L 213.901076 97.581351 
L 214.986877 97.552245 
L 216.072679 97.202964 
L 217.15848 96.679044 
L 218.244281 97.377604 
L 220.415883 97.173857 
L 221.501684 96.649937 
L 222.587486 97.057431 
L 223.673287 96.970111 
L 224.759088 97.406711 
L 225.844889 119.032991 
L 226.93069 120.459219 
L 228.016491 121.215993 
L 229.102292 117.723189 
L 230.188094 119.236737 
L 231.273895 117.985149 
L 232.359696 118.188896 
L 233.445497 116.995521 
L 234.531298 119.032991 
L 235.617099 115.394653 
L 236.702901 118.85835 
L 237.788702 112.716836 
L 238.874503 119.003884 
L 239.960304 120.255472 
L 241.046105 114.608772 
L 242.131906 115.016266 
L 243.217708 116.966415 
L 244.303509 119.527804 
L 245.38931 117.490335 
L 246.475111 117.694082 
L 247.560912 116.937308 
L 248.646713 112.804156 
L 249.732514 114.754305 
L 250.818316 115.394653 
L 251.904117 116.675348 
L 252.989918 114.230385 
L 254.075719 114.608772 
L 255.16152 114.725199 
L 256.247321 113.21165 
L 257.333123 113.240757 
L 258.418924 112.833263 
L 259.504725 110.621154 
L 260.590526 115.77304 
L 261.676327 111.348821 
L 262.762128 112.86237 
L 263.847929 112.891476 
L 264.933731 112.309342 
L 266.019532 116.355174 
L 267.105333 115.94768 
L 268.191134 116.966415 
L 269.276935 112.86237 
L 270.362736 113.357184 
L 271.448538 111.639888 
L 272.534339 110.708474 
L 273.62014 112.309342 
L 274.705941 109.922593 
L 275.791742 109.020285 
L 276.877543 114.608772 
L 277.963344 109.165819 
L 279.049146 109.253139 
L 280.134947 111.145074 
L 281.220748 110.271873 
L 282.306549 111.261501 
L 283.39235 109.864379 
L 284.478151 109.049392 
L 285.563953 109.544206 
L 286.649754 110.65026 
L 287.735555 108.496364 
L 288.821356 110.271873 
L 289.907157 107.244776 
L 290.992958 106.429789 
L 292.07876 110.941327 
L 293.164561 107.65227 
L 294.250362 106.866389 
L 295.336163 107.070136 
L 296.421964 105.585694 
L 297.507765 108.554578 
L 298.593566 105.00356 
L 299.679368 105.847655 
L 300.765169 106.982816 
L 301.85097 105.09088 
L 302.936771 105.818548 
L 304.022572 106.196935 
L 305.108373 105.411054 
L 306.194175 105.119987 
L 307.279976 106.953709 
L 308.365777 107.070136 
L 309.451578 106.167828 
L 310.537379 108.700111 
L 311.62318 106.226042 
L 312.708981 104.47964 
L 313.794783 103.344478 
L 314.880584 105.00356 
L 315.966385 105.09088 
L 317.052186 103.664652 
L 318.137987 105.265521 
L 319.223788 104.188573 
L 320.30959 102.587704 
L 321.395391 102.121997 
L 322.481192 100.986835 
L 323.566993 103.577332 
L 324.652794 102.26753 
L 325.738595 103.693759 
L 327.910198 100.870409 
L 328.995999 102.09289 
L 330.0818 103.519118 
L 331.167601 101.015942 
L 332.253402 103.635545 
L 333.339203 99.61882 
L 334.425005 99.938994 
L 335.510806 99.968101 
L 336.596607 99.211327 
L 337.682408 98.774726 
L 338.768209 97.348498 
L 339.85401 98.570979 
L 340.939811 97.261178 
L 342.025613 99.0949 
L 343.111414 99.35686 
L 344.197215 97.785098 
L 345.283016 99.880781 
L 346.368817 96.737257 
L 347.454618 98.978473 
L 348.54042 97.173857 
L 349.626221 97.319391 
L 350.712022 97.290284 
L 352.883624 95.864056 
L 353.969425 97.086537 
L 355.055227 95.107282 
L 356.141028 95.398349 
L 357.226829 95.893163 
L 358.31263 95.485669 
L 359.398431 94.292294 
L 360.484232 94.263187 
L 361.570033 94.758001 
L 362.655835 94.437827 
L 363.741636 93.79748 
L 364.827437 93.506413 
L 366.999039 94.612468 
L 368.08484 94.874428 
L 369.170642 94.350507 
L 370.256443 94.641574 
L 371.342244 96.18423 
L 372.428045 98.192592 
L 373.513846 98.512766 
L 374.599647 95.602096 
L 375.685448 98.862046 
L 376.77125 97.464924 
L 378.942852 98.338126 
L 380.028653 97.173857 
L 381.114454 97.697778 
L 382.200255 96.911897 
L 383.286057 96.417083 
L 384.371858 97.261178 
L 385.457659 98.367232 
L 386.54346 97.697778 
L 387.629261 96.300656 
L 389.800863 99.968101 
L 390.886665 97.464924 
L 391.972466 98.250805 
L 393.058267 96.737257 
L 394.144068 98.629193 
L 395.229869 97.930632 
L 396.31567 98.658299 
L 397.401472 97.202964 
L 398.487273 98.454552 
L 398.487273 98.454552 
" clip-path="url(#pafb738c04c)" style="fill: none; stroke: #ff7f0e; stroke-width: 1.5; stroke-linecap: square"/>
   </g>
   <g id="line2d_17">
    <path d="M 73.832727 290.57384 
L 74.918528 269.135248 
L 76.00433 251.06902 
L 77.090131 230.915138 
L 78.175932 229.590281 
L 79.261733 226.519022 
L 80.347534 217.405613 
L 81.433335 211.34339 
L 82.519137 214.113545 
L 83.604938 213.491264 
L 84.690739 205.863301 
L 85.77654 199.660562 
L 86.862341 198.375852 
L 87.948142 192.413997 
L 89.033943 192.454144 
L 90.119745 192.072746 
L 91.205546 190.848257 
L 92.291347 188.138323 
L 93.377148 186.351773 
L 94.462949 186.592657 
L 95.54875 221.179448 
L 96.634552 205.401608 
L 97.720353 200.82483 
L 98.806154 196.830186 
L 99.891955 196.047316 
L 100.977756 197.974381 
L 102.063557 194.260767 
L 103.149358 193.738854 
L 104.23516 198.134969 
L 105.320961 188.399279 
L 106.406762 190.386565 
L 107.492563 190.767963 
L 108.578364 188.298911 
L 109.664165 189.764283 
L 110.749967 182.738528 
L 111.835768 185.709419 
L 114.00737 178.763957 
L 115.093171 173.946296 
L 117.264773 180.149035 
L 118.350575 179.085135 
L 119.436376 172.340409 
L 120.522177 177.077776 
L 121.607978 172.260115 
L 122.693779 171.176141 
L 123.77958 170.714449 
L 124.865382 167.482601 
L 125.951183 168.466207 
L 127.036984 166.880394 
L 128.122785 167.161424 
L 129.208586 167.121277 
L 130.294387 166.238039 
L 131.380189 166.498995 
L 132.46599 165.957009 
L 133.551791 164.250754 
L 134.637592 164.371195 
L 135.723393 164.632152 
L 136.809194 165.254433 
L 137.894995 164.029944 
L 138.980797 193.71878 
L 140.066598 186.974055 
L 141.152399 184.103532 
L 142.2382 182.798749 
L 143.324001 190.507006 
L 144.409802 183.521398 
L 145.495604 183.641839 
L 146.581405 181.212935 
L 147.667206 185.147358 
L 148.753007 181.393597 
L 149.838808 183.160073 
L 150.924609 178.984767 
L 152.01041 186.05067 
L 153.096212 177.860646 
L 154.182013 176.174465 
L 155.267814 177.900793 
L 156.353615 173.705413 
L 157.439416 178.72381 
L 158.525217 179.105208 
L 159.611019 175.772993 
L 160.69682 174.086812 
L 161.782621 178.201897 
L 162.868422 175.612404 
L 163.954223 178.001161 
L 165.040024 170.694375 
L 166.125825 174.046664 
L 167.211627 173.725487 
L 168.297428 168.466207 
L 169.383229 170.955332 
L 170.46903 170.814817 
L 171.554831 172.802102 
L 172.640632 169.369518 
L 173.726434 169.77099 
L 174.812235 169.148709 
L 175.898036 167.221645 
L 176.983837 168.365839 
L 178.069638 169.831211 
L 179.155439 168.787384 
L 180.24124 169.429739 
L 181.327042 168.104882 
L 182.412843 165.415022 
L 183.498644 164.873035 
L 184.584445 165.655905 
L 185.670246 167.542822 
L 186.756047 164.190533 
L 187.841849 162.725161 
L 188.92765 162.925897 
L 190.013451 165.093844 
L 191.099252 162.163101 
L 192.185053 162.38391 
L 193.270854 157.224998 
L 194.356656 159.995153 
L 195.442457 160.296257 
L 196.528258 155.197566 
L 197.614059 159.633829 
L 198.69986 159.051695 
L 199.785661 157.666617 
L 200.871462 158.931253 
L 201.957264 157.746911 
L 203.043065 158.40934 
L 204.128866 158.40934 
L 205.214667 157.887426 
L 206.300468 158.509708 
L 207.386269 155.759626 
L 209.557872 156.321687 
L 210.643673 156.120951 
L 211.729474 155.177492 
L 212.815275 154.695726 
L 213.901076 155.217639 
L 214.986877 153.390943 
L 216.072679 154.876388 
L 217.15848 153.792415 
L 218.244281 154.374549 
L 219.330082 153.330722 
L 220.415883 153.370869 
L 221.501684 153.772341 
L 222.587486 153.451164 
L 223.673287 153.631826 
L 224.759088 154.153739 
L 225.844889 181.654554 
L 226.93069 184.98677 
L 228.016491 181.012199 
L 229.102292 174.187179 
L 230.188094 184.505003 
L 231.273895 174.407989 
L 232.359696 176.716452 
L 233.445497 177.09785 
L 234.531298 179.807784 
L 235.617099 174.147032 
L 236.702901 176.375201 
L 237.788702 173.40431 
L 238.874503 176.897114 
L 239.960304 179.948299 
L 241.046105 179.00484 
L 242.131906 173.605045 
L 243.217708 176.535789 
L 244.303509 177.419027 
L 245.38931 175.81314 
L 246.475111 175.893434 
L 247.560912 176.274833 
L 248.646713 174.207253 
L 249.732514 174.588651 
L 250.818316 175.953655 
L 251.904117 173.283868 
L 252.989918 171.959011 
L 254.075719 176.013876 
L 255.16152 172.802102 
L 256.247321 174.267474 
L 257.333123 172.561219 
L 258.418924 173.926223 
L 259.504725 170.634154 
L 260.590526 176.154391 
L 261.676327 173.384236 
L 262.762128 172.761955 
L 263.847929 170.83489 
L 264.933731 175.512036 
L 266.019532 171.918864 
L 267.105333 175.993802 
L 268.191134 176.375201 
L 269.276935 174.608725 
L 270.362736 172.260115 
L 271.448538 171.396951 
L 272.534339 169.128635 
L 273.62014 173.263794 
L 274.705941 170.473566 
L 275.791742 166.07745 
L 276.877543 175.331374 
L 277.963344 170.854964 
L 279.049146 169.951653 
L 280.134947 169.469886 
L 281.220748 169.249077 
L 282.306549 168.446133 
L 283.39235 170.373198 
L 284.478151 169.188856 
L 285.563953 169.088488 
L 286.649754 172.320336 
L 287.735555 170.031947 
L 288.821356 168.847605 
L 289.907157 168.104882 
L 290.992958 164.873035 
L 292.07876 169.008194 
L 293.164561 170.573934 
L 294.250362 169.831211 
L 295.336163 168.024588 
L 296.421964 165.254433 
L 297.507765 170.734522 
L 298.593566 166.679658 
L 299.679368 166.920541 
L 300.765169 166.86032 
L 301.85097 165.696052 
L 302.936771 169.229003 
L 304.022572 166.759952 
L 305.108373 167.64319 
L 306.194175 167.803779 
L 307.279976 165.234359 
L 309.451578 166.86032 
L 310.537379 166.177818 
L 311.62318 165.856641 
L 312.708981 169.309298 
L 313.794783 168.044662 
L 314.880584 163.267148 
L 315.966385 163.809135 
L 317.052186 158.830885 
L 318.137987 164.150386 
L 319.223788 163.16678 
L 320.30959 157.666617 
L 321.395391 160.958685 
L 322.481192 162.082806 
L 323.566993 163.367516 
L 325.738595 161.460525 
L 326.824396 159.694049 
L 327.910198 159.874712 
L 328.995999 159.493313 
L 330.0818 158.991474 
L 331.167601 159.513387 
L 332.253402 163.026265 
L 333.339203 156.723158 
L 334.425005 159.613755 
L 335.510806 157.807132 
L 336.596607 157.807132 
L 337.682408 156.723158 
L 338.768209 157.084483 
L 339.85401 155.358154 
L 340.939811 154.77602 
L 342.025613 157.706764 
L 343.111414 156.984115 
L 344.197215 156.984115 
L 345.283016 158.12831 
L 346.368817 152.768662 
L 347.454618 154.193886 
L 348.54042 153.290575 
L 349.626221 152.688367 
L 350.712022 154.274181 
L 351.797823 155.438449 
L 352.883624 155.197566 
L 353.969425 153.350796 
L 355.055227 152.909177 
L 356.141028 155.157419 
L 357.226829 155.016903 
L 358.31263 152.166454 
L 359.398431 152.206601 
L 360.484232 151.323363 
L 361.570033 151.905497 
L 362.655835 152.186528 
L 363.741636 150.901818 
L 364.827437 151.062407 
L 365.913238 150.560567 
L 366.999039 150.580641 
L 368.08484 151.463878 
L 369.170642 151.102554 
L 370.256443 150.52042 
L 371.342244 154.454843 
L 372.428045 156.56257 
L 373.513846 155.297934 
L 374.599647 153.531458 
L 375.685448 157.465881 
L 376.77125 155.27786 
L 377.857051 155.619111 
L 378.942852 154.234034 
L 380.028653 154.274181 
L 381.114454 153.370869 
L 382.200255 153.953003 
L 383.286057 155.518743 
L 384.371858 151.323363 
L 385.457659 155.398302 
L 386.54346 152.266822 
L 387.629261 153.812488 
L 388.715062 157.807132 
L 389.800863 157.044336 
L 390.886665 152.768662 
L 391.972466 156.803453 
L 393.058267 154.173813 
L 394.144068 156.763306 
L 395.229869 155.338081 
L 396.31567 156.683011 
L 397.401472 156.903821 
L 398.487273 156.361834 
L 398.487273 156.361834 
" clip-path="url(#pafb738c04c)" style="fill: none; stroke: #2ca02c; stroke-width: 1.5; stroke-linecap: square"/>
   </g>
   <g id="line2d_18">
    <path d="M 368.08484 93.681053 
L 369.170642 93.098919 
L 370.256443 94.583361 
L 371.342244 94.903535 
L 372.428045 97.814205 
L 373.513846 95.427455 
L 374.599647 97.261178 
L 375.685448 98.570979 
L 376.77125 95.747629 
L 377.857051 96.79547 
L 378.942852 99.124006 
L 380.028653 93.186239 
L 381.114454 101.074155 
L 382.200255 96.62083 
L 383.286057 95.776736 
L 385.457659 98.92026 
L 386.54346 101.161476 
L 387.629261 97.377604 
L 388.715062 99.473287 
L 389.800863 100.375595 
L 390.886665 102.35485 
L 391.972466 103.286265 
L 393.058267 105.381947 
L 394.144068 105.09088 
L 395.229869 106.051402 
L 396.31567 107.30299 
L 397.401472 106.284255 
L 398.487273 105.527481 
L 398.487273 105.527481 
" clip-path="url(#pafb738c04c)" style="fill: none; stroke: #d62728; stroke-width: 1.5; stroke-linecap: square"/>
   </g>
   <g id="line2d_19">
    <path d="M 368.08484 150.721156 
L 369.170642 148.492988 
L 370.256443 152.226675 
L 371.342244 153.390943 
L 372.428045 150.098875 
L 373.513846 152.989471 
L 374.599647 153.71212 
L 375.685448 157.084483 
L 376.77125 153.692047 
L 377.857051 156.943968 
L 378.942852 156.06073 
L 380.028653 149.617108 
L 381.114454 160.095521 
L 382.200255 154.133666 
L 383.286057 154.655579 
L 384.371858 154.254107 
L 385.457659 155.739553 
L 386.54346 159.774344 
L 387.629261 156.883747 
L 388.715062 159.392946 
L 389.800863 159.774344 
L 390.886665 160.597361 
L 391.972466 163.066412 
L 393.058267 158.590002 
L 394.144068 160.898465 
L 395.229869 162.38391 
L 396.31567 157.606396 
L 397.401472 160.53714 
L 398.487273 160.376551 
L 398.487273 160.376551 
" clip-path="url(#pafb738c04c)" style="fill: none; stroke: #9467bd; stroke-width: 1.5; stroke-linecap: square"/>
   </g>
   <g id="patch_3">
    <path d="M 57.6 307.584 
L 57.6 41.472 
" style="fill: none; stroke: #000000; stroke-width: 0.8; stroke-linejoin: miter; stroke-linecap: square"/>
   </g>
   <g id="patch_4">
    <path d="M 414.72 307.584 
L 414.72 41.472 
" style="fill: none; stroke: #000000; stroke-width: 0.8; stroke-linejoin: miter; stroke-linecap: square"/>
   </g>
   <g id="patch_5">
    <path d="M 57.6 307.584 
L 414.72 307.584 
" style="fill: none; stroke: #000000; stroke-width: 0.8; stroke-linejoin: miter; stroke-linecap: square"/>
   </g>
   <g id="patch_6">
    <path d="M 57.6 41.472 
L 414.72 41.472 
" style="fill: none; stroke: #000000; stroke-width: 0.8; stroke-linejoin: miter; stroke-linecap: square"/>
   </g>
   <g id="text_17">
    <!-- Learning Curves -->
    <g transform="translate(187.37625 35.472) scale(0.12 -0.12)">
     <defs>
      <path id="DejaVuSans-4c" d="M 628 4666 
L 1259 4666 
L 1259 531 
L 3531 531 
L 3531 0 
L 628 0 
L 628 4666 
z
" transform="scale(0.015625)"/>
      <path id="DejaVuSans-65" d="M 3597 1894 
L 3597 1613 
L 953 1613 
Q 991 1019 1311 708 
Q 1631 397 2203 397 
Q 2534 397 2845 478 
Q 3156 559 3463 722 
L 3463 178 
Q 3153 47 2828 -22 
Q 2503 -91 2169 -91 
Q 1331 -91 842 396 
Q 353 884 353 1716 
Q 353 2575 817 3079 
Q 1281 3584 2069 3584 
Q 2775 3584 3186 3129 
Q 3597 2675 3597 1894 
z
M 3022 2063 
Q 3016 2534 2758 2815 
Q 2500 3097 2075 3097 
Q 1594 3097 1305 2825 
Q 1016 2553 972 2059 
L 3022 2063 
z
" transform="scale(0.015625)"/>
      <path id="DejaVuSans-6e" d="M 3513 2113 
L 3513 0 
L 2938 0 
L 2938 2094 
Q 2938 2591 2744 2837 
Q 2550 3084 2163 3084 
Q 1697 3084 1428 2787 
Q 1159 2491 1159 1978 
L 1159 0 
L 581 0 
L 581 3500 
L 1159 3500 
L 1159 2956 
Q 1366 3272 1645 3428 
Q 1925 3584 2291 3584 
Q 2894 3584 3203 3211 
Q 3513 2838 3513 2113 
z
" transform="scale(0.015625)"/>
      <path id="DejaVuSans-69" d="M 603 3500 
L 1178 3500 
L 1178 0 
L 603 0 
L 603 3500 
z
M 603 4863 
L 1178 4863 
L 1178 4134 
L 603 4134 
L 603 4863 
z
" transform="scale(0.015625)"/>
      <path id="DejaVuSans-67" d="M 2906 1791 
Q 2906 2416 2648 2759 
Q 2391 3103 1925 3103 
Q 1463 3103 1205 2759 
Q 947 2416 947 1791 
Q 947 1169 1205 825 
Q 1463 481 1925 481 
Q 2391 481 2648 825 
Q 2906 1169 2906 1791 
z
M 3481 434 
Q 3481 -459 3084 -895 
Q 2688 -1331 1869 -1331 
Q 1566 -1331 1297 -1286 
Q 1028 -1241 775 -1147 
L 775 -588 
Q 1028 -725 1275 -790 
Q 1522 -856 1778 -856 
Q 2344 -856 2625 -561 
Q 2906 -266 2906 331 
L 2906 616 
Q 2728 306 2450 153 
Q 2172 0 1784 0 
Q 1141 0 747 490 
Q 353 981 353 1791 
Q 353 2603 747 3093 
Q 1141 3584 1784 3584 
Q 2172 3584 2450 3431 
Q 2728 3278 2906 2969 
L 2906 3500 
L 3481 3500 
L 3481 434 
z
" transform="scale(0.015625)"/>
      <path id="DejaVuSans-20" transform="scale(0.015625)"/>
      <path id="DejaVuSans-43" d="M 4122 4306 
L 4122 3641 
Q 3803 3938 3442 4084 
Q 3081 4231 2675 4231 
Q 1875 4231 1450 3742 
Q 1025 3253 1025 2328 
Q 1025 1406 1450 917 
Q 1875 428 2675 428 
Q 3081 428 3442 575 
Q 3803 722 4122 1019 
L 4122 359 
Q 3791 134 3420 21 
Q 3050 -91 2638 -91 
Q 1578 -91 968 557 
Q 359 1206 359 2328 
Q 359 3453 968 4101 
Q 1578 4750 2638 4750 
Q 3056 4750 3426 4639 
Q 3797 4528 4122 4306 
z
" transform="scale(0.015625)"/>
      <path id="DejaVuSans-76" d="M 191 3500 
L 800 3500 
L 1894 563 
L 2988 3500 
L 3597 3500 
L 2284 0 
L 1503 0 
L 191 3500 
z
" transform="scale(0.015625)"/>
     </defs>
     <use xlink:href="#DejaVuSans-4c"/>
     <use xlink:href="#DejaVuSans-65" x="53.962891"/>
     <use xlink:href="#DejaVuSans-61" x="115.486328"/>
     <use xlink:href="#DejaVuSans-72" x="176.765625"/>
     <use xlink:href="#DejaVuSans-6e" x="216.128906"/>
     <use xlink:href="#DejaVuSans-69" x="279.507812"/>
     <use xlink:href="#DejaVuSans-6e" x="307.291016"/>
     <use xlink:href="#DejaVuSans-67" x="370.669922"/>
     <use xlink:href="#DejaVuSans-20" x="434.146484"/>
     <use xlink:href="#DejaVuSans-43" x="465.933594"/>
     <use xlink:href="#DejaVuSans-75" x="535.757812"/>
     <use xlink:href="#DejaVuSans-72" x="599.136719"/>
     <use xlink:href="#DejaVuSans-76" x="640.25"/>
     <use xlink:href="#DejaVuSans-65" x="699.429688"/>
     <use xlink:href="#DejaVuSans-73" x="760.953125"/>
    </g>
   </g>
   <g id="legend_1">
    <g id="patch_7">
     <path d="M 214.18875 302.584 
L 407.72 302.584 
Q 409.72 302.584 409.72 300.584 
L 409.72 228.193375 
Q 409.72 226.193375 407.72 226.193375 
L 214.18875 226.193375 
Q 212.18875 226.193375 212.18875 228.193375 
L 212.18875 300.584 
Q 212.18875 302.584 214.18875 302.584 
z
" style="fill: #ffffff; opacity: 0.8; stroke: #cccccc; stroke-linejoin: miter"/>
    </g>
    <g id="line2d_20">
     <path d="M 216.18875 234.291812 
L 226.18875 234.291812 
L 236.18875 234.291812 
" style="fill: none; stroke: #1f77b4; stroke-width: 1.5; stroke-linecap: square"/>
    </g>
    <g id="text_18">
     <!-- Train Accuracy -->
     <g transform="translate(244.18875 237.791812) scale(0.1 -0.1)">
      <defs>
       <path id="DejaVuSans-54" d="M -19 4666 
L 3928 4666 
L 3928 4134 
L 2272 4134 
L 2272 0 
L 1638 0 
L 1638 4134 
L -19 4134 
L -19 4666 
z
" transform="scale(0.015625)"/>
      </defs>
      <use xlink:href="#DejaVuSans-54"/>
      <use xlink:href="#DejaVuSans-72" x="46.333984"/>
      <use xlink:href="#DejaVuSans-61" x="87.447266"/>
      <use xlink:href="#DejaVuSans-69" x="148.726562"/>
      <use xlink:href="#DejaVuSans-6e" x="176.509766"/>
      <use xlink:href="#DejaVuSans-20" x="239.888672"/>
      <use xlink:href="#DejaVuSans-41" x="271.675781"/>
      <use xlink:href="#DejaVuSans-63" x="338.333984"/>
      <use xlink:href="#DejaVuSans-63" x="393.314453"/>
      <use xlink:href="#DejaVuSans-75" x="448.294922"/>
      <use xlink:href="#DejaVuSans-72" x="511.673828"/>
      <use xlink:href="#DejaVuSans-61" x="552.787109"/>
      <use xlink:href="#DejaVuSans-63" x="614.066406"/>
      <use xlink:href="#DejaVuSans-79" x="669.046875"/>
     </g>
    </g>
    <g id="line2d_21">
     <path d="M 216.18875 248.969937 
L 226.18875 248.969937 
L 236.18875 248.969937 
" style="fill: none; stroke: #ff7f0e; stroke-width: 1.5; stroke-linecap: square"/>
    </g>
    <g id="text_19">
     <!-- Validation Accuracy -->
     <g transform="translate(244.18875 252.469937) scale(0.1 -0.1)">
      <defs>
       <path id="DejaVuSans-56" d="M 1831 0 
L 50 4666 
L 709 4666 
L 2188 738 
L 3669 4666 
L 4325 4666 
L 2547 0 
L 1831 0 
z
" transform="scale(0.015625)"/>
       <path id="DejaVuSans-6c" d="M 603 4863 
L 1178 4863 
L 1178 0 
L 603 0 
L 603 4863 
z
" transform="scale(0.015625)"/>
       <path id="DejaVuSans-64" d="M 2906 2969 
L 2906 4863 
L 3481 4863 
L 3481 0 
L 2906 0 
L 2906 525 
Q 2725 213 2448 61 
Q 2172 -91 1784 -91 
Q 1150 -91 751 415 
Q 353 922 353 1747 
Q 353 2572 751 3078 
Q 1150 3584 1784 3584 
Q 2172 3584 2448 3432 
Q 2725 3281 2906 2969 
z
M 947 1747 
Q 947 1113 1208 752 
Q 1469 391 1925 391 
Q 2381 391 2643 752 
Q 2906 1113 2906 1747 
Q 2906 2381 2643 2742 
Q 2381 3103 1925 3103 
Q 1469 3103 1208 2742 
Q 947 2381 947 1747 
z
" transform="scale(0.015625)"/>
       <path id="DejaVuSans-74" d="M 1172 4494 
L 1172 3500 
L 2356 3500 
L 2356 3053 
L 1172 3053 
L 1172 1153 
Q 1172 725 1289 603 
Q 1406 481 1766 481 
L 2356 481 
L 2356 0 
L 1766 0 
Q 1100 0 847 248 
Q 594 497 594 1153 
L 594 3053 
L 172 3053 
L 172 3500 
L 594 3500 
L 594 4494 
L 1172 4494 
z
" transform="scale(0.015625)"/>
      </defs>
      <use xlink:href="#DejaVuSans-56"/>
      <use xlink:href="#DejaVuSans-61" x="60.658203"/>
      <use xlink:href="#DejaVuSans-6c" x="121.9375"/>
      <use xlink:href="#DejaVuSans-69" x="149.720703"/>
      <use xlink:href="#DejaVuSans-64" x="177.503906"/>
      <use xlink:href="#DejaVuSans-61" x="240.980469"/>
      <use xlink:href="#DejaVuSans-74" x="302.259766"/>
      <use xlink:href="#DejaVuSans-69" x="341.46875"/>
      <use xlink:href="#DejaVuSans-6f" x="369.251953"/>
      <use xlink:href="#DejaVuSans-6e" x="430.433594"/>
      <use xlink:href="#DejaVuSans-20" x="493.8125"/>
      <use xlink:href="#DejaVuSans-41" x="525.599609"/>
      <use xlink:href="#DejaVuSans-63" x="592.257812"/>
      <use xlink:href="#DejaVuSans-63" x="647.238281"/>
      <use xlink:href="#DejaVuSans-75" x="702.21875"/>
      <use xlink:href="#DejaVuSans-72" x="765.597656"/>
      <use xlink:href="#DejaVuSans-61" x="806.710938"/>
      <use xlink:href="#DejaVuSans-63" x="867.990234"/>
      <use xlink:href="#DejaVuSans-79" x="922.970703"/>
     </g>
    </g>
    <g id="line2d_22">
     <path d="M 216.18875 263.648062 
L 226.18875 263.648062 
L 236.18875 263.648062 
" style="fill: none; stroke: #2ca02c; stroke-width: 1.5; stroke-linecap: square"/>
    </g>
    <g id="text_20">
     <!-- Robust Validation Accuracy -->
     <g transform="translate(244.18875 267.148062) scale(0.1 -0.1)">
      <defs>
       <path id="DejaVuSans-52" d="M 2841 2188 
Q 3044 2119 3236 1894 
Q 3428 1669 3622 1275 
L 4263 0 
L 3584 0 
L 2988 1197 
Q 2756 1666 2539 1819 
Q 2322 1972 1947 1972 
L 1259 1972 
L 1259 0 
L 628 0 
L 628 4666 
L 2053 4666 
Q 2853 4666 3247 4331 
Q 3641 3997 3641 3322 
Q 3641 2881 3436 2590 
Q 3231 2300 2841 2188 
z
M 1259 4147 
L 1259 2491 
L 2053 2491 
Q 2509 2491 2742 2702 
Q 2975 2913 2975 3322 
Q 2975 3731 2742 3939 
Q 2509 4147 2053 4147 
L 1259 4147 
z
" transform="scale(0.015625)"/>
       <path id="DejaVuSans-62" d="M 3116 1747 
Q 3116 2381 2855 2742 
Q 2594 3103 2138 3103 
Q 1681 3103 1420 2742 
Q 1159 2381 1159 1747 
Q 1159 1113 1420 752 
Q 1681 391 2138 391 
Q 2594 391 2855 752 
Q 3116 1113 3116 1747 
z
M 1159 2969 
Q 1341 3281 1617 3432 
Q 1894 3584 2278 3584 
Q 2916 3584 3314 3078 
Q 3713 2572 3713 1747 
Q 3713 922 3314 415 
Q 2916 -91 2278 -91 
Q 1894 -91 1617 61 
Q 1341 213 1159 525 
L 1159 0 
L 581 0 
L 581 4863 
L 1159 4863 
L 1159 2969 
z
" transform="scale(0.015625)"/>
      </defs>
      <use xlink:href="#DejaVuSans-52"/>
      <use xlink:href="#DejaVuSans-6f" x="64.982422"/>
      <use xlink:href="#DejaVuSans-62" x="126.164062"/>
      <use xlink:href="#DejaVuSans-75" x="189.640625"/>
      <use xlink:href="#DejaVuSans-73" x="253.019531"/>
      <use xlink:href="#DejaVuSans-74" x="305.119141"/>
      <use xlink:href="#DejaVuSans-20" x="344.328125"/>
      <use xlink:href="#DejaVuSans-56" x="376.115234"/>
      <use xlink:href="#DejaVuSans-61" x="436.773438"/>
      <use xlink:href="#DejaVuSans-6c" x="498.052734"/>
      <use xlink:href="#DejaVuSans-69" x="525.835938"/>
      <use xlink:href="#DejaVuSans-64" x="553.619141"/>
      <use xlink:href="#DejaVuSans-61" x="617.095703"/>
      <use xlink:href="#DejaVuSans-74" x="678.375"/>
      <use xlink:href="#DejaVuSans-69" x="717.583984"/>
      <use xlink:href="#DejaVuSans-6f" x="745.367188"/>
      <use xlink:href="#DejaVuSans-6e" x="806.548828"/>
      <use xlink:href="#DejaVuSans-20" x="869.927734"/>
      <use xlink:href="#DejaVuSans-41" x="901.714844"/>
      <use xlink:href="#DejaVuSans-63" x="968.373047"/>
      <use xlink:href="#DejaVuSans-63" x="1023.353516"/>
      <use xlink:href="#DejaVuSans-75" x="1078.333984"/>
      <use xlink:href="#DejaVuSans-72" x="1141.712891"/>
      <use xlink:href="#DejaVuSans-61" x="1182.826172"/>
      <use xlink:href="#DejaVuSans-63" x="1244.105469"/>
      <use xlink:href="#DejaVuSans-79" x="1299.085938"/>
     </g>
    </g>
    <g id="line2d_23">
     <path d="M 216.18875 278.326188 
L 226.18875 278.326188 
L 236.18875 278.326188 
" style="fill: none; stroke: #d62728; stroke-width: 1.5; stroke-linecap: square"/>
    </g>
    <g id="text_21">
     <!-- SWA Validation Accuracy -->
     <g transform="translate(244.18875 281.826188) scale(0.1 -0.1)">
      <defs>
       <path id="DejaVuSans-53" d="M 3425 4513 
L 3425 3897 
Q 3066 4069 2747 4153 
Q 2428 4238 2131 4238 
Q 1616 4238 1336 4038 
Q 1056 3838 1056 3469 
Q 1056 3159 1242 3001 
Q 1428 2844 1947 2747 
L 2328 2669 
Q 3034 2534 3370 2195 
Q 3706 1856 3706 1288 
Q 3706 609 3251 259 
Q 2797 -91 1919 -91 
Q 1588 -91 1214 -16 
Q 841 59 441 206 
L 441 856 
Q 825 641 1194 531 
Q 1563 422 1919 422 
Q 2459 422 2753 634 
Q 3047 847 3047 1241 
Q 3047 1584 2836 1778 
Q 2625 1972 2144 2069 
L 1759 2144 
Q 1053 2284 737 2584 
Q 422 2884 422 3419 
Q 422 4038 858 4394 
Q 1294 4750 2059 4750 
Q 2388 4750 2728 4690 
Q 3069 4631 3425 4513 
z
" transform="scale(0.015625)"/>
       <path id="DejaVuSans-57" d="M 213 4666 
L 850 4666 
L 1831 722 
L 2809 4666 
L 3519 4666 
L 4500 722 
L 5478 4666 
L 6119 4666 
L 4947 0 
L 4153 0 
L 3169 4050 
L 2175 0 
L 1381 0 
L 213 4666 
z
" transform="scale(0.015625)"/>
      </defs>
      <use xlink:href="#DejaVuSans-53"/>
      <use xlink:href="#DejaVuSans-57" x="63.476562"/>
      <use xlink:href="#DejaVuSans-41" x="156.853516"/>
      <use xlink:href="#DejaVuSans-20" x="225.261719"/>
      <use xlink:href="#DejaVuSans-56" x="257.048828"/>
      <use xlink:href="#DejaVuSans-61" x="317.707031"/>
      <use xlink:href="#DejaVuSans-6c" x="378.986328"/>
      <use xlink:href="#DejaVuSans-69" x="406.769531"/>
      <use xlink:href="#DejaVuSans-64" x="434.552734"/>
      <use xlink:href="#DejaVuSans-61" x="498.029297"/>
      <use xlink:href="#DejaVuSans-74" x="559.308594"/>
      <use xlink:href="#DejaVuSans-69" x="598.517578"/>
      <use xlink:href="#DejaVuSans-6f" x="626.300781"/>
      <use xlink:href="#DejaVuSans-6e" x="687.482422"/>
      <use xlink:href="#DejaVuSans-20" x="750.861328"/>
      <use xlink:href="#DejaVuSans-41" x="782.648438"/>
      <use xlink:href="#DejaVuSans-63" x="849.306641"/>
      <use xlink:href="#DejaVuSans-63" x="904.287109"/>
      <use xlink:href="#DejaVuSans-75" x="959.267578"/>
      <use xlink:href="#DejaVuSans-72" x="1022.646484"/>
      <use xlink:href="#DejaVuSans-61" x="1063.759766"/>
      <use xlink:href="#DejaVuSans-63" x="1125.039062"/>
      <use xlink:href="#DejaVuSans-79" x="1180.019531"/>
     </g>
    </g>
    <g id="line2d_24">
     <path d="M 216.18875 293.004312 
L 226.18875 293.004312 
L 236.18875 293.004312 
" style="fill: none; stroke: #9467bd; stroke-width: 1.5; stroke-linecap: square"/>
    </g>
    <g id="text_22">
     <!-- SWA Robust Validation Accuracy -->
     <g transform="translate(244.18875 296.504312) scale(0.1 -0.1)">
      <use xlink:href="#DejaVuSans-53"/>
      <use xlink:href="#DejaVuSans-57" x="63.476562"/>
      <use xlink:href="#DejaVuSans-41" x="156.853516"/>
      <use xlink:href="#DejaVuSans-20" x="225.261719"/>
      <use xlink:href="#DejaVuSans-52" x="257.048828"/>
      <use xlink:href="#DejaVuSans-6f" x="322.03125"/>
      <use xlink:href="#DejaVuSans-62" x="383.212891"/>
      <use xlink:href="#DejaVuSans-75" x="446.689453"/>
      <use xlink:href="#DejaVuSans-73" x="510.068359"/>
      <use xlink:href="#DejaVuSans-74" x="562.167969"/>
      <use xlink:href="#DejaVuSans-20" x="601.376953"/>
      <use xlink:href="#DejaVuSans-56" x="633.164062"/>
      <use xlink:href="#DejaVuSans-61" x="693.822266"/>
      <use xlink:href="#DejaVuSans-6c" x="755.101562"/>
      <use xlink:href="#DejaVuSans-69" x="782.884766"/>
      <use xlink:href="#DejaVuSans-64" x="810.667969"/>
      <use xlink:href="#DejaVuSans-61" x="874.144531"/>
      <use xlink:href="#DejaVuSans-74" x="935.423828"/>
      <use xlink:href="#DejaVuSans-69" x="974.632812"/>
      <use xlink:href="#DejaVuSans-6f" x="1002.416016"/>
      <use xlink:href="#DejaVuSans-6e" x="1063.597656"/>
      <use xlink:href="#DejaVuSans-20" x="1126.976562"/>
      <use xlink:href="#DejaVuSans-41" x="1158.763672"/>
      <use xlink:href="#DejaVuSans-63" x="1225.421875"/>
      <use xlink:href="#DejaVuSans-63" x="1280.402344"/>
      <use xlink:href="#DejaVuSans-75" x="1335.382812"/>
      <use xlink:href="#DejaVuSans-72" x="1398.761719"/>
      <use xlink:href="#DejaVuSans-61" x="1439.875"/>
      <use xlink:href="#DejaVuSans-63" x="1501.154297"/>
      <use xlink:href="#DejaVuSans-79" x="1556.134766"/>
     </g>
    </g>
   </g>
  </g>
 </g>
 <defs>
  <clipPath id="pafb738c04c">
   <rect x="57.6" y="41.472" width="357.12" height="266.112"/>
  </clipPath>
 </defs>
</svg>
