<?xml version="1.0" encoding="utf-8" standalone="no"?>
<!DOCTYPE svg PUBLIC "-//W3C//DTD SVG 1.1//EN"
  "http://www.w3.org/Graphics/SVG/1.1/DTD/svg11.dtd">
<svg xmlns:xlink="http://www.w3.org/1999/xlink" width="460.8pt" height="345.6pt" viewBox="0 0 460.8 345.6" xmlns="http://www.w3.org/2000/svg" version="1.1">
 <metadata>
  <rdf:RDF xmlns:dc="http://purl.org/dc/elements/1.1/" xmlns:cc="http://creativecommons.org/ns#" xmlns:rdf="http://www.w3.org/1999/02/22-rdf-syntax-ns#">
   <cc:Work>
    <dc:type rdf:resource="http://purl.org/dc/dcmitype/StillImage"/>
    <dc:date>2025-01-15T11:42:09.855552</dc:date>
    <dc:format>image/svg+xml</dc:format>
    <dc:creator>
     <cc:Agent>
      <dc:title>Matplotlib v3.9.1, https://matplotlib.org/</dc:title>
     </cc:Agent>
    </dc:creator>
   </cc:Work>
  </rdf:RDF>
 </metadata>
 <defs>
  <style type="text/css">*{stroke-linejoin: round; stroke-linecap: butt}</style>
 </defs>
 <g id="figure_1">
  <g id="patch_1">
   <path d="M 0 345.6 
L 460.8 345.6 
L 460.8 0 
L 0 0 
z
" style="fill: #ffffff"/>
  </g>
  <g id="axes_1">
   <g id="patch_2">
    <path d="M 57.6 307.584 
L 414.72 307.584 
L 414.72 41.472 
L 57.6 41.472 
z
" style="fill: #ffffff"/>
   </g>
   <g id="matplotlib.axis_1">
    <g id="xtick_1">
     <g id="line2d_1">
      <defs>
       <path id="m1f28a877f8" d="M 0 0 
L 0 3.5 
" style="stroke: #000000; stroke-width: 0.8"/>
      </defs>
      <g>
       <use xlink:href="#m1f28a877f8" x="73.832727" y="307.584" style="stroke: #000000; stroke-width: 0.8"/>
      </g>
     </g>
     <g id="text_1">
      <!-- 1 -->
      <g transform="translate(70.651477 322.182437) scale(0.1 -0.1)">
       <defs>
        <path id="DejaVuSans-31" d="M 794 531 
L 1825 531 
L 1825 4091 
L 703 3866 
L 703 4441 
L 1819 4666 
L 2450 4666 
L 2450 531 
L 3481 531 
L 3481 0 
L 794 0 
L 794 531 
z
" transform="scale(0.015625)"/>
       </defs>
       <use xlink:href="#DejaVuSans-31"/>
      </g>
     </g>
    </g>
    <g id="xtick_2">
     <g id="line2d_2">
      <g>
       <use xlink:href="#m1f28a877f8" x="109.664165" y="307.584" style="stroke: #000000; stroke-width: 0.8"/>
      </g>
     </g>
     <g id="text_2">
      <!-- 34 -->
      <g transform="translate(103.301665 322.182437) scale(0.1 -0.1)">
       <defs>
        <path id="DejaVuSans-33" d="M 2597 2516 
Q 3050 2419 3304 2112 
Q 3559 1806 3559 1356 
Q 3559 666 3084 287 
Q 2609 -91 1734 -91 
Q 1441 -91 1130 -33 
Q 819 25 488 141 
L 488 750 
Q 750 597 1062 519 
Q 1375 441 1716 441 
Q 2309 441 2620 675 
Q 2931 909 2931 1356 
Q 2931 1769 2642 2001 
Q 2353 2234 1838 2234 
L 1294 2234 
L 1294 2753 
L 1863 2753 
Q 2328 2753 2575 2939 
Q 2822 3125 2822 3475 
Q 2822 3834 2567 4026 
Q 2313 4219 1838 4219 
Q 1578 4219 1281 4162 
Q 984 4106 628 3988 
L 628 4550 
Q 988 4650 1302 4700 
Q 1616 4750 1894 4750 
Q 2613 4750 3031 4423 
Q 3450 4097 3450 3541 
Q 3450 3153 3228 2886 
Q 3006 2619 2597 2516 
z
" transform="scale(0.015625)"/>
        <path id="DejaVuSans-34" d="M 2419 4116 
L 825 1625 
L 2419 1625 
L 2419 4116 
z
M 2253 4666 
L 3047 4666 
L 3047 1625 
L 3713 1625 
L 3713 1100 
L 3047 1100 
L 3047 0 
L 2419 0 
L 2419 1100 
L 313 1100 
L 313 1709 
L 2253 4666 
z
" transform="scale(0.015625)"/>
       </defs>
       <use xlink:href="#DejaVuSans-33"/>
       <use xlink:href="#DejaVuSans-34" x="63.623047"/>
      </g>
     </g>
    </g>
    <g id="xtick_3">
     <g id="line2d_3">
      <g>
       <use xlink:href="#m1f28a877f8" x="145.495604" y="307.584" style="stroke: #000000; stroke-width: 0.8"/>
      </g>
     </g>
     <g id="text_3">
      <!-- 67 -->
      <g transform="translate(139.133104 322.182437) scale(0.1 -0.1)">
       <defs>
        <path id="DejaVuSans-36" d="M 2113 2584 
Q 1688 2584 1439 2293 
Q 1191 2003 1191 1497 
Q 1191 994 1439 701 
Q 1688 409 2113 409 
Q 2538 409 2786 701 
Q 3034 994 3034 1497 
Q 3034 2003 2786 2293 
Q 2538 2584 2113 2584 
z
M 3366 4563 
L 3366 3988 
Q 3128 4100 2886 4159 
Q 2644 4219 2406 4219 
Q 1781 4219 1451 3797 
Q 1122 3375 1075 2522 
Q 1259 2794 1537 2939 
Q 1816 3084 2150 3084 
Q 2853 3084 3261 2657 
Q 3669 2231 3669 1497 
Q 3669 778 3244 343 
Q 2819 -91 2113 -91 
Q 1303 -91 875 529 
Q 447 1150 447 2328 
Q 447 3434 972 4092 
Q 1497 4750 2381 4750 
Q 2619 4750 2861 4703 
Q 3103 4656 3366 4563 
z
" transform="scale(0.015625)"/>
        <path id="DejaVuSans-37" d="M 525 4666 
L 3525 4666 
L 3525 4397 
L 1831 0 
L 1172 0 
L 2766 4134 
L 525 4134 
L 525 4666 
z
" transform="scale(0.015625)"/>
       </defs>
       <use xlink:href="#DejaVuSans-36"/>
       <use xlink:href="#DejaVuSans-37" x="63.623047"/>
      </g>
     </g>
    </g>
    <g id="xtick_4">
     <g id="line2d_4">
      <g>
       <use xlink:href="#m1f28a877f8" x="181.327042" y="307.584" style="stroke: #000000; stroke-width: 0.8"/>
      </g>
     </g>
     <g id="text_4">
      <!-- 100 -->
      <g transform="translate(171.783292 322.182437) scale(0.1 -0.1)">
       <defs>
        <path id="DejaVuSans-30" d="M 2034 4250 
Q 1547 4250 1301 3770 
Q 1056 3291 1056 2328 
Q 1056 1369 1301 889 
Q 1547 409 2034 409 
Q 2525 409 2770 889 
Q 3016 1369 3016 2328 
Q 3016 3291 2770 3770 
Q 2525 4250 2034 4250 
z
M 2034 4750 
Q 2819 4750 3233 4129 
Q 3647 3509 3647 2328 
Q 3647 1150 3233 529 
Q 2819 -91 2034 -91 
Q 1250 -91 836 529 
Q 422 1150 422 2328 
Q 422 3509 836 4129 
Q 1250 4750 2034 4750 
z
" transform="scale(0.015625)"/>
       </defs>
       <use xlink:href="#DejaVuSans-31"/>
       <use xlink:href="#DejaVuSans-30" x="63.623047"/>
       <use xlink:href="#DejaVuSans-30" x="127.246094"/>
      </g>
     </g>
    </g>
    <g id="xtick_5">
     <g id="line2d_5">
      <g>
       <use xlink:href="#m1f28a877f8" x="217.15848" y="307.584" style="stroke: #000000; stroke-width: 0.8"/>
      </g>
     </g>
     <g id="text_5">
      <!-- 133 -->
      <g transform="translate(207.61473 322.182437) scale(0.1 -0.1)">
       <use xlink:href="#DejaVuSans-31"/>
       <use xlink:href="#DejaVuSans-33" x="63.623047"/>
       <use xlink:href="#DejaVuSans-33" x="127.246094"/>
      </g>
     </g>
    </g>
    <g id="xtick_6">
     <g id="line2d_6">
      <g>
       <use xlink:href="#m1f28a877f8" x="254.075719" y="307.584" style="stroke: #000000; stroke-width: 0.8"/>
      </g>
     </g>
     <g id="text_6">
      <!-- 167 -->
      <g transform="translate(244.531969 322.182437) scale(0.1 -0.1)">
       <use xlink:href="#DejaVuSans-31"/>
       <use xlink:href="#DejaVuSans-36" x="63.623047"/>
       <use xlink:href="#DejaVuSans-37" x="127.246094"/>
      </g>
     </g>
    </g>
    <g id="xtick_7">
     <g id="line2d_7">
      <g>
       <use xlink:href="#m1f28a877f8" x="289.907157" y="307.584" style="stroke: #000000; stroke-width: 0.8"/>
      </g>
     </g>
     <g id="text_7">
      <!-- 200 -->
      <g transform="translate(280.363407 322.182437) scale(0.1 -0.1)">
       <defs>
        <path id="DejaVuSans-32" d="M 1228 531 
L 3431 531 
L 3431 0 
L 469 0 
L 469 531 
Q 828 903 1448 1529 
Q 2069 2156 2228 2338 
Q 2531 2678 2651 2914 
Q 2772 3150 2772 3378 
Q 2772 3750 2511 3984 
Q 2250 4219 1831 4219 
Q 1534 4219 1204 4116 
Q 875 4013 500 3803 
L 500 4441 
Q 881 4594 1212 4672 
Q 1544 4750 1819 4750 
Q 2544 4750 2975 4387 
Q 3406 4025 3406 3419 
Q 3406 3131 3298 2873 
Q 3191 2616 2906 2266 
Q 2828 2175 2409 1742 
Q 1991 1309 1228 531 
z
" transform="scale(0.015625)"/>
       </defs>
       <use xlink:href="#DejaVuSans-32"/>
       <use xlink:href="#DejaVuSans-30" x="63.623047"/>
       <use xlink:href="#DejaVuSans-30" x="127.246094"/>
      </g>
     </g>
    </g>
    <g id="xtick_8">
     <g id="line2d_8">
      <g>
       <use xlink:href="#m1f28a877f8" x="325.738595" y="307.584" style="stroke: #000000; stroke-width: 0.8"/>
      </g>
     </g>
     <g id="text_8">
      <!-- 233 -->
      <g transform="translate(316.194845 322.182437) scale(0.1 -0.1)">
       <use xlink:href="#DejaVuSans-32"/>
       <use xlink:href="#DejaVuSans-33" x="63.623047"/>
       <use xlink:href="#DejaVuSans-33" x="127.246094"/>
      </g>
     </g>
    </g>
    <g id="xtick_9">
     <g id="line2d_9">
      <g>
       <use xlink:href="#m1f28a877f8" x="361.570033" y="307.584" style="stroke: #000000; stroke-width: 0.8"/>
      </g>
     </g>
     <g id="text_9">
      <!-- 266 -->
      <g transform="translate(352.026283 322.182437) scale(0.1 -0.1)">
       <use xlink:href="#DejaVuSans-32"/>
       <use xlink:href="#DejaVuSans-36" x="63.623047"/>
       <use xlink:href="#DejaVuSans-36" x="127.246094"/>
      </g>
     </g>
    </g>
    <g id="xtick_10">
     <g id="line2d_10">
      <g>
       <use xlink:href="#m1f28a877f8" x="398.487273" y="307.584" style="stroke: #000000; stroke-width: 0.8"/>
      </g>
     </g>
     <g id="text_10">
      <!-- 300 -->
      <g transform="translate(388.943523 322.182437) scale(0.1 -0.1)">
       <use xlink:href="#DejaVuSans-33"/>
       <use xlink:href="#DejaVuSans-30" x="63.623047"/>
       <use xlink:href="#DejaVuSans-30" x="127.246094"/>
      </g>
     </g>
    </g>
    <g id="text_11">
     <!-- Epochs -->
     <g transform="translate(218.244375 335.860562) scale(0.1 -0.1)">
      <defs>
       <path id="DejaVuSans-45" d="M 628 4666 
L 3578 4666 
L 3578 4134 
L 1259 4134 
L 1259 2753 
L 3481 2753 
L 3481 2222 
L 1259 2222 
L 1259 531 
L 3634 531 
L 3634 0 
L 628 0 
L 628 4666 
z
" transform="scale(0.015625)"/>
       <path id="DejaVuSans-70" d="M 1159 525 
L 1159 -1331 
L 581 -1331 
L 581 3500 
L 1159 3500 
L 1159 2969 
Q 1341 3281 1617 3432 
Q 1894 3584 2278 3584 
Q 2916 3584 3314 3078 
Q 3713 2572 3713 1747 
Q 3713 922 3314 415 
Q 2916 -91 2278 -91 
Q 1894 -91 1617 61 
Q 1341 213 1159 525 
z
M 3116 1747 
Q 3116 2381 2855 2742 
Q 2594 3103 2138 3103 
Q 1681 3103 1420 2742 
Q 1159 2381 1159 1747 
Q 1159 1113 1420 752 
Q 1681 391 2138 391 
Q 2594 391 2855 752 
Q 3116 1113 3116 1747 
z
" transform="scale(0.015625)"/>
       <path id="DejaVuSans-6f" d="M 1959 3097 
Q 1497 3097 1228 2736 
Q 959 2375 959 1747 
Q 959 1119 1226 758 
Q 1494 397 1959 397 
Q 2419 397 2687 759 
Q 2956 1122 2956 1747 
Q 2956 2369 2687 2733 
Q 2419 3097 1959 3097 
z
M 1959 3584 
Q 2709 3584 3137 3096 
Q 3566 2609 3566 1747 
Q 3566 888 3137 398 
Q 2709 -91 1959 -91 
Q 1206 -91 779 398 
Q 353 888 353 1747 
Q 353 2609 779 3096 
Q 1206 3584 1959 3584 
z
" transform="scale(0.015625)"/>
       <path id="DejaVuSans-63" d="M 3122 3366 
L 3122 2828 
Q 2878 2963 2633 3030 
Q 2388 3097 2138 3097 
Q 1578 3097 1268 2742 
Q 959 2388 959 1747 
Q 959 1106 1268 751 
Q 1578 397 2138 397 
Q 2388 397 2633 464 
Q 2878 531 3122 666 
L 3122 134 
Q 2881 22 2623 -34 
Q 2366 -91 2075 -91 
Q 1284 -91 818 406 
Q 353 903 353 1747 
Q 353 2603 823 3093 
Q 1294 3584 2113 3584 
Q 2378 3584 2631 3529 
Q 2884 3475 3122 3366 
z
" transform="scale(0.015625)"/>
       <path id="DejaVuSans-68" d="M 3513 2113 
L 3513 0 
L 2938 0 
L 2938 2094 
Q 2938 2591 2744 2837 
Q 2550 3084 2163 3084 
Q 1697 3084 1428 2787 
Q 1159 2491 1159 1978 
L 1159 0 
L 581 0 
L 581 4863 
L 1159 4863 
L 1159 2956 
Q 1366 3272 1645 3428 
Q 1925 3584 2291 3584 
Q 2894 3584 3203 3211 
Q 3513 2838 3513 2113 
z
" transform="scale(0.015625)"/>
       <path id="DejaVuSans-73" d="M 2834 3397 
L 2834 2853 
Q 2591 2978 2328 3040 
Q 2066 3103 1784 3103 
Q 1356 3103 1142 2972 
Q 928 2841 928 2578 
Q 928 2378 1081 2264 
Q 1234 2150 1697 2047 
L 1894 2003 
Q 2506 1872 2764 1633 
Q 3022 1394 3022 966 
Q 3022 478 2636 193 
Q 2250 -91 1575 -91 
Q 1294 -91 989 -36 
Q 684 19 347 128 
L 347 722 
Q 666 556 975 473 
Q 1284 391 1588 391 
Q 1994 391 2212 530 
Q 2431 669 2431 922 
Q 2431 1156 2273 1281 
Q 2116 1406 1581 1522 
L 1381 1569 
Q 847 1681 609 1914 
Q 372 2147 372 2553 
Q 372 3047 722 3315 
Q 1072 3584 1716 3584 
Q 2034 3584 2315 3537 
Q 2597 3491 2834 3397 
z
" transform="scale(0.015625)"/>
      </defs>
      <use xlink:href="#DejaVuSans-45"/>
      <use xlink:href="#DejaVuSans-70" x="63.183594"/>
      <use xlink:href="#DejaVuSans-6f" x="126.660156"/>
      <use xlink:href="#DejaVuSans-63" x="187.841797"/>
      <use xlink:href="#DejaVuSans-68" x="242.822266"/>
      <use xlink:href="#DejaVuSans-73" x="306.201172"/>
     </g>
    </g>
   </g>
   <g id="matplotlib.axis_2">
    <g id="ytick_1">
     <g id="line2d_11">
      <defs>
       <path id="m33b2d9a2ad" d="M 0 0 
L -3.5 0 
" style="stroke: #000000; stroke-width: 0.8"/>
      </defs>
      <g>
       <use xlink:href="#m33b2d9a2ad" x="57.6" y="289.02174" style="stroke: #000000; stroke-width: 0.8"/>
      </g>
     </g>
     <g id="text_12">
      <!-- 10 -->
      <g transform="translate(37.875 292.820959) scale(0.1 -0.1)">
       <use xlink:href="#DejaVuSans-31"/>
       <use xlink:href="#DejaVuSans-30" x="63.623047"/>
      </g>
     </g>
    </g>
    <g id="ytick_2">
     <g id="line2d_12">
      <g>
       <use xlink:href="#m33b2d9a2ad" x="57.6" y="257.001048" style="stroke: #000000; stroke-width: 0.8"/>
      </g>
     </g>
     <g id="text_13">
      <!-- 20 -->
      <g transform="translate(37.875 260.800267) scale(0.1 -0.1)">
       <use xlink:href="#DejaVuSans-32"/>
       <use xlink:href="#DejaVuSans-30" x="63.623047"/>
      </g>
     </g>
    </g>
    <g id="ytick_3">
     <g id="line2d_13">
      <g>
       <use xlink:href="#m33b2d9a2ad" x="57.6" y="224.980356" style="stroke: #000000; stroke-width: 0.8"/>
      </g>
     </g>
     <g id="text_14">
      <!-- 30 -->
      <g transform="translate(37.875 228.779575) scale(0.1 -0.1)">
       <use xlink:href="#DejaVuSans-33"/>
       <use xlink:href="#DejaVuSans-30" x="63.623047"/>
      </g>
     </g>
    </g>
    <g id="ytick_4">
     <g id="line2d_14">
      <g>
       <use xlink:href="#m33b2d9a2ad" x="57.6" y="192.959664" style="stroke: #000000; stroke-width: 0.8"/>
      </g>
     </g>
     <g id="text_15">
      <!-- 40 -->
      <g transform="translate(37.875 196.758883) scale(0.1 -0.1)">
       <use xlink:href="#DejaVuSans-34"/>
       <use xlink:href="#DejaVuSans-30" x="63.623047"/>
      </g>
     </g>
    </g>
    <g id="ytick_5">
     <g id="line2d_15">
      <g>
       <use xlink:href="#m33b2d9a2ad" x="57.6" y="160.938972" style="stroke: #000000; stroke-width: 0.8"/>
      </g>
     </g>
     <g id="text_16">
      <!-- 50 -->
      <g transform="translate(37.875 164.73819) scale(0.1 -0.1)">
       <defs>
        <path id="DejaVuSans-35" d="M 691 4666 
L 3169 4666 
L 3169 4134 
L 1269 4134 
L 1269 2991 
Q 1406 3038 1543 3061 
Q 1681 3084 1819 3084 
Q 2600 3084 3056 2656 
Q 3513 2228 3513 1497 
Q 3513 744 3044 326 
Q 2575 -91 1722 -91 
Q 1428 -91 1123 -41 
Q 819 9 494 109 
L 494 744 
Q 775 591 1075 516 
Q 1375 441 1709 441 
Q 2250 441 2565 725 
Q 2881 1009 2881 1497 
Q 2881 1984 2565 2268 
Q 2250 2553 1709 2553 
Q 1456 2553 1204 2497 
Q 953 2441 691 2322 
L 691 4666 
z
" transform="scale(0.015625)"/>
       </defs>
       <use xlink:href="#DejaVuSans-35"/>
       <use xlink:href="#DejaVuSans-30" x="63.623047"/>
      </g>
     </g>
    </g>
    <g id="ytick_6">
     <g id="line2d_16">
      <g>
       <use xlink:href="#m33b2d9a2ad" x="57.6" y="128.91828" style="stroke: #000000; stroke-width: 0.8"/>
      </g>
     </g>
     <g id="text_17">
      <!-- 60 -->
      <g transform="translate(37.875 132.717498) scale(0.1 -0.1)">
       <use xlink:href="#DejaVuSans-36"/>
       <use xlink:href="#DejaVuSans-30" x="63.623047"/>
      </g>
     </g>
    </g>
    <g id="ytick_7">
     <g id="line2d_17">
      <g>
       <use xlink:href="#m33b2d9a2ad" x="57.6" y="96.897587" style="stroke: #000000; stroke-width: 0.8"/>
      </g>
     </g>
     <g id="text_18">
      <!-- 70 -->
      <g transform="translate(37.875 100.696806) scale(0.1 -0.1)">
       <use xlink:href="#DejaVuSans-37"/>
       <use xlink:href="#DejaVuSans-30" x="63.623047"/>
      </g>
     </g>
    </g>
    <g id="ytick_8">
     <g id="line2d_18">
      <g>
       <use xlink:href="#m33b2d9a2ad" x="57.6" y="64.876895" style="stroke: #000000; stroke-width: 0.8"/>
      </g>
     </g>
     <g id="text_19">
      <!-- 80 -->
      <g transform="translate(37.875 68.676114) scale(0.1 -0.1)">
       <defs>
        <path id="DejaVuSans-38" d="M 2034 2216 
Q 1584 2216 1326 1975 
Q 1069 1734 1069 1313 
Q 1069 891 1326 650 
Q 1584 409 2034 409 
Q 2484 409 2743 651 
Q 3003 894 3003 1313 
Q 3003 1734 2745 1975 
Q 2488 2216 2034 2216 
z
M 1403 2484 
Q 997 2584 770 2862 
Q 544 3141 544 3541 
Q 544 4100 942 4425 
Q 1341 4750 2034 4750 
Q 2731 4750 3128 4425 
Q 3525 4100 3525 3541 
Q 3525 3141 3298 2862 
Q 3072 2584 2669 2484 
Q 3125 2378 3379 2068 
Q 3634 1759 3634 1313 
Q 3634 634 3220 271 
Q 2806 -91 2034 -91 
Q 1263 -91 848 271 
Q 434 634 434 1313 
Q 434 1759 690 2068 
Q 947 2378 1403 2484 
z
M 1172 3481 
Q 1172 3119 1398 2916 
Q 1625 2713 2034 2713 
Q 2441 2713 2670 2916 
Q 2900 3119 2900 3481 
Q 2900 3844 2670 4047 
Q 2441 4250 2034 4250 
Q 1625 4250 1398 4047 
Q 1172 3844 1172 3481 
z
" transform="scale(0.015625)"/>
       </defs>
       <use xlink:href="#DejaVuSans-38"/>
       <use xlink:href="#DejaVuSans-30" x="63.623047"/>
      </g>
     </g>
    </g>
    <g id="text_20">
     <!-- Accuracy -->
     <g transform="translate(31.795312 197.356125) rotate(-90) scale(0.1 -0.1)">
      <defs>
       <path id="DejaVuSans-41" d="M 2188 4044 
L 1331 1722 
L 3047 1722 
L 2188 4044 
z
M 1831 4666 
L 2547 4666 
L 4325 0 
L 3669 0 
L 3244 1197 
L 1141 1197 
L 716 0 
L 50 0 
L 1831 4666 
z
" transform="scale(0.015625)"/>
       <path id="DejaVuSans-75" d="M 544 1381 
L 544 3500 
L 1119 3500 
L 1119 1403 
Q 1119 906 1312 657 
Q 1506 409 1894 409 
Q 2359 409 2629 706 
Q 2900 1003 2900 1516 
L 2900 3500 
L 3475 3500 
L 3475 0 
L 2900 0 
L 2900 538 
Q 2691 219 2414 64 
Q 2138 -91 1772 -91 
Q 1169 -91 856 284 
Q 544 659 544 1381 
z
M 1991 3584 
L 1991 3584 
z
" transform="scale(0.015625)"/>
       <path id="DejaVuSans-72" d="M 2631 2963 
Q 2534 3019 2420 3045 
Q 2306 3072 2169 3072 
Q 1681 3072 1420 2755 
Q 1159 2438 1159 1844 
L 1159 0 
L 581 0 
L 581 3500 
L 1159 3500 
L 1159 2956 
Q 1341 3275 1631 3429 
Q 1922 3584 2338 3584 
Q 2397 3584 2469 3576 
Q 2541 3569 2628 3553 
L 2631 2963 
z
" transform="scale(0.015625)"/>
       <path id="DejaVuSans-61" d="M 2194 1759 
Q 1497 1759 1228 1600 
Q 959 1441 959 1056 
Q 959 750 1161 570 
Q 1363 391 1709 391 
Q 2188 391 2477 730 
Q 2766 1069 2766 1631 
L 2766 1759 
L 2194 1759 
z
M 3341 1997 
L 3341 0 
L 2766 0 
L 2766 531 
Q 2569 213 2275 61 
Q 1981 -91 1556 -91 
Q 1019 -91 701 211 
Q 384 513 384 1019 
Q 384 1609 779 1909 
Q 1175 2209 1959 2209 
L 2766 2209 
L 2766 2266 
Q 2766 2663 2505 2880 
Q 2244 3097 1772 3097 
Q 1472 3097 1187 3025 
Q 903 2953 641 2809 
L 641 3341 
Q 956 3463 1253 3523 
Q 1550 3584 1831 3584 
Q 2591 3584 2966 3190 
Q 3341 2797 3341 1997 
z
" transform="scale(0.015625)"/>
       <path id="DejaVuSans-79" d="M 2059 -325 
Q 1816 -950 1584 -1140 
Q 1353 -1331 966 -1331 
L 506 -1331 
L 506 -850 
L 844 -850 
Q 1081 -850 1212 -737 
Q 1344 -625 1503 -206 
L 1606 56 
L 191 3500 
L 800 3500 
L 1894 763 
L 2988 3500 
L 3597 3500 
L 2059 -325 
z
" transform="scale(0.015625)"/>
      </defs>
      <use xlink:href="#DejaVuSans-41"/>
      <use xlink:href="#DejaVuSans-63" x="66.658203"/>
      <use xlink:href="#DejaVuSans-63" x="121.638672"/>
      <use xlink:href="#DejaVuSans-75" x="176.619141"/>
      <use xlink:href="#DejaVuSans-72" x="239.998047"/>
      <use xlink:href="#DejaVuSans-61" x="281.111328"/>
      <use xlink:href="#DejaVuSans-63" x="342.390625"/>
      <use xlink:href="#DejaVuSans-79" x="397.371094"/>
     </g>
    </g>
   </g>
   <g id="line2d_19">
    <path d="M 73.832727 295.488 
L 76.00433 246.310799 
L 78.175932 213.568781 
L 79.261733 201.548828 
L 80.347534 191.595306 
L 81.433335 183.124224 
L 83.604938 168.588616 
L 87.948142 147.808794 
L 90.119745 139.87678 
L 91.205546 136.905484 
L 92.291347 135.583481 
L 93.377148 133.72241 
L 94.462949 132.637855 
L 95.54875 161.901595 
L 96.634552 161.227759 
L 97.720353 157.08848 
L 100.977756 148.764999 
L 102.063557 145.023604 
L 104.23516 141.185947 
L 106.406762 134.742791 
L 107.492563 133.818672 
L 108.578364 131.104076 
L 109.664165 128.89646 
L 110.749967 125.668464 
L 111.835768 125.565784 
L 112.921569 124.128267 
L 114.00737 119.988988 
L 115.093171 118.038072 
L 116.178972 116.343856 
L 117.264773 115.971642 
L 119.436376 109.637582 
L 120.522177 108.771221 
L 121.607978 106.666286 
L 122.693779 104.824467 
L 123.77958 102.745201 
L 124.865382 102.257472 
L 125.951183 99.773905 
L 127.036984 98.618757 
L 128.122785 95.961918 
L 129.208586 96.225035 
L 130.294387 93.696545 
L 131.380189 93.76072 
L 132.46599 92.48364 
L 133.551791 91.514599 
L 134.637592 91.418337 
L 135.723393 89.461004 
L 136.809194 90.192597 
L 137.894995 89.441751 
L 138.980797 119.841386 
L 140.066598 123.345334 
L 141.152399 124.30154 
L 142.2382 122.478973 
L 143.324001 121.779467 
L 144.409802 120.560145 
L 145.495604 119.790046 
L 146.581405 118.628481 
L 147.667206 118.179257 
L 148.753007 116.99844 
L 149.838808 116.016564 
L 150.924609 114.104153 
L 152.01041 114.668892 
L 153.096212 112.865578 
L 154.182013 112.493364 
L 155.267814 112.281587 
L 156.353615 110.369176 
L 157.439416 109.368048 
L 158.525217 108.841814 
L 159.611019 108.912406 
L 160.69682 106.448091 
L 161.782621 107.205355 
L 162.868422 104.208388 
L 163.954223 103.836174 
L 165.040024 103.28427 
L 166.125825 101.904511 
L 167.211627 102.3409 
L 168.297428 100.736528 
L 169.383229 101.609306 
L 170.46903 98.68935 
L 171.554831 98.169533 
L 174.812235 95.397179 
L 175.898036 95.705218 
L 176.983837 94.113682 
L 178.069638 93.773555 
L 179.155439 92.682582 
L 180.24124 90.834346 
L 181.327042 91.065375 
L 183.498644 88.504798 
L 185.670246 87.535758 
L 186.756047 86.374193 
L 187.841849 84.814743 
L 188.92765 85.05219 
L 190.013451 83.537663 
L 191.099252 82.98576 
L 192.185053 82.632798 
L 193.270854 81.342883 
L 194.356656 79.160937 
L 195.442457 79.879696 
L 196.528258 78.339499 
L 197.614059 77.280614 
L 198.69986 77.094507 
L 199.785661 75.721164 
L 200.871462 76.003534 
L 201.957264 74.35424 
L 203.043065 73.622646 
L 204.128866 73.840841 
L 205.214667 71.857837 
L 206.300468 70.362563 
L 207.386269 70.831039 
L 208.472071 70.62568 
L 209.557872 69.881251 
L 211.729474 67.981675 
L 212.815275 67.872578 
L 213.901076 66.852198 
L 214.986877 66.94846 
L 216.072679 66.775188 
L 217.15848 66.165527 
L 218.244281 66.608333 
L 219.330082 64.843524 
L 220.415883 66.088517 
L 221.501684 64.432805 
L 222.587486 64.195358 
L 223.673287 64.721592 
L 224.759088 65.080971 
L 225.844889 99.876585 
L 226.93069 103.297105 
L 228.016491 104.753875 
L 229.102292 102.681027 
L 230.188094 102.912056 
L 231.273895 104.009446 
L 232.359696 103.38695 
L 233.445497 101.795413 
L 234.531298 102.892804 
L 235.617099 100.306556 
L 236.702901 101.243509 
L 237.788702 100.293721 
L 238.874503 101.436034 
L 239.960304 100.460576 
L 241.046105 100.146119 
L 242.131906 99.998517 
L 243.217708 99.144991 
L 244.303509 99.119321 
L 245.38931 98.881874 
L 246.475111 97.418687 
L 247.560912 96.699929 
L 248.646713 97.264668 
L 249.732514 97.572707 
L 250.818316 95.294499 
L 251.904117 96.622919 
L 254.075719 95.596121 
L 255.16152 95.146897 
L 256.247321 94.922285 
L 257.333123 93.690127 
L 258.418924 93.921157 
L 259.504725 92.425883 
L 260.590526 91.719959 
L 261.676327 92.451553 
L 262.762128 92.015163 
L 263.847929 91.161638 
L 264.933731 92.419465 
L 266.019532 90.648239 
L 267.105333 91.20656 
L 268.191134 91.02687 
L 269.276935 90.044995 
L 271.448538 88.684488 
L 272.534339 89.749791 
L 273.62014 88.511216 
L 274.705941 88.75508 
L 275.791742 88.549721 
L 276.877543 87.70903 
L 277.963344 88.280186 
L 279.049146 87.644855 
L 280.134947 86.066153 
L 281.220748 86.130328 
L 282.306549 86.316435 
L 283.39235 84.558044 
L 284.478151 84.776238 
L 285.563953 85.289637 
L 286.649754 85.071443 
L 287.735555 83.313051 
L 288.821356 83.999722 
L 289.907157 83.223207 
L 290.992958 82.722643 
L 292.07876 83.961217 
L 293.164561 82.542953 
L 295.336163 80.752474 
L 296.421964 82.465943 
L 297.507765 80.008046 
L 298.593566 79.834773 
L 299.679368 80.515027 
L 300.765169 80.32892 
L 301.85097 78.846481 
L 302.936771 77.684915 
L 304.022572 78.769471 
L 305.108373 78.422926 
L 307.279976 76.876312 
L 308.365777 76.49768 
L 309.451578 75.387455 
L 310.537379 74.797046 
L 311.62318 75.496552 
L 312.708981 74.373492 
L 313.794783 75.387455 
L 314.880584 74.007695 
L 315.966385 74.514677 
L 317.052186 72.595848 
L 318.137987 72.396906 
L 319.223788 72.801208 
L 320.30959 72.961645 
L 321.395391 71.80008 
L 322.481192 71.64606 
L 323.566993 70.112281 
L 324.652794 70.561505 
L 325.738595 69.842747 
L 326.824396 68.854454 
L 327.910198 68.257627 
L 328.995999 68.854454 
L 330.0818 67.776316 
L 331.167601 67.487529 
L 332.253402 68.841619 
L 333.339203 67.288587 
L 334.425005 65.292748 
L 335.510806 64.869194 
L 336.596607 65.453186 
L 337.682408 64.118348 
L 338.768209 64.959039 
L 339.85401 63.932241 
L 340.939811 63.11722 
L 342.025613 63.784639 
L 343.111414 63.354667 
L 344.197215 62.161015 
L 345.283016 61.718208 
L 346.368817 61.929985 
L 347.454618 61.795218 
L 348.54042 60.068914 
L 349.626221 61.159887 
L 350.712022 60.049662 
L 351.797823 58.2656 
L 352.883624 58.804669 
L 353.969425 58.644232 
L 355.055227 58.047406 
L 356.141028 57.238802 
L 357.226829 58.079493 
L 358.31263 57.534007 
L 359.398431 56.295432 
L 360.484232 57.534007 
L 361.570033 56.1735 
L 362.655835 55.178789 
L 363.741636 54.678225 
L 364.827437 54.537041 
L 365.913238 54.825827 
L 366.999039 53.568 
L 368.08484 54.479283 
L 369.170642 56.340354 
L 370.256443 56.731821 
L 371.342244 57.777871 
L 372.428045 58.451707 
L 373.513846 59.780127 
L 374.599647 59.125544 
L 375.685448 58.689154 
L 376.77125 58.971524 
L 377.857051 60.107419 
L 378.942852 59.215388 
L 380.028653 58.990776 
L 381.114454 59.536263 
L 382.200255 59.215388 
L 383.286057 58.098746 
L 384.371858 58.811087 
L 386.54346 58.881679 
L 387.629261 59.44 
L 388.715062 58.541552 
L 389.800863 59.208971 
L 390.886665 59.59402 
L 391.972466 58.284853 
L 393.058267 58.57364 
L 394.144068 59.228223 
L 396.31567 58.57364 
L 397.401472 58.528717 
L 398.487273 59.818632 
L 398.487273 59.818632 
" clip-path="url(#p79c311061e)" style="fill: none; stroke: #1f77b4; stroke-width: 1.5; stroke-linecap: square"/>
   </g>
   <g id="line2d_20">
    <path d="M 73.832727 281.400816 
L 74.918528 261.772131 
L 76.00433 237.692571 
L 77.090131 228.950922 
L 78.175932 202.469809 
L 79.261733 185.498843 
L 80.347534 184.634284 
L 81.433335 166.830779 
L 82.519137 168.623938 
L 83.604938 157.576799 
L 84.690739 159.145813 
L 85.77654 145.953288 
L 86.862341 138.780653 
L 89.033943 133.433197 
L 90.119745 126.836935 
L 91.205546 122.225955 
L 92.291347 122.033831 
L 93.377148 118.927824 
L 94.462949 119.536217 
L 95.54875 155.271309 
L 96.634552 144.19215 
L 97.720353 150.916495 
L 98.806154 137.115577 
L 99.891955 142.559094 
L 100.977756 139.164901 
L 102.063557 136.667287 
L 103.149358 126.61279 
L 104.23516 122.418079 
L 105.320961 121.5215 
L 106.406762 118.895803 
L 107.492563 118.607617 
L 108.578364 111.33892 
L 109.664165 111.851251 
L 110.749967 108.553119 
L 111.835768 108.713223 
L 112.921569 103.717995 
L 114.00737 107.944726 
L 115.093171 106.055505 
L 116.178972 100.964215 
L 118.350575 97.057691 
L 119.436376 98.434581 
L 120.522177 94.880284 
L 122.693779 93.75956 
L 123.77958 90.237283 
L 124.865382 87.963814 
L 125.951183 86.522883 
L 127.036984 87.931794 
L 128.122785 83.384855 
L 129.208586 84.793766 
L 131.380189 83.801124 
L 132.46599 82.520297 
L 133.551791 81.783821 
L 134.637592 81.623717 
L 135.723393 80.567034 
L 136.809194 81.175428 
L 137.894995 81.175428 
L 138.980797 106.952085 
L 140.066598 109.641823 
L 141.152399 109.801926 
L 142.2382 114.508968 
L 143.324001 106.087526 
L 144.409802 107.336333 
L 145.495604 103.814057 
L 146.581405 103.429809 
L 147.667206 99.843491 
L 148.753007 105.671257 
L 149.838808 101.252402 
L 150.924609 101.924836 
L 152.01041 104.90276 
L 153.096212 98.562663 
L 154.182013 98.114374 
L 155.267814 99.619346 
L 156.353615 95.072408 
L 157.439416 99.427222 
L 158.525217 93.375311 
L 159.611019 95.61676 
L 160.69682 93.631477 
L 161.782621 89.788994 
L 162.868422 93.343291 
L 163.954223 93.599456 
L 165.040024 91.774277 
L 166.125825 88.924435 
L 167.211627 90.109201 
L 168.297428 90.333346 
L 169.383229 86.715007 
L 170.46903 85.274076 
L 171.554831 88.924435 
L 172.640632 84.857807 
L 173.726434 85.91449 
L 174.812235 88.444125 
L 175.898036 85.402159 
L 176.983837 81.719779 
L 178.069638 83.769104 
L 179.155439 81.047345 
L 180.24124 81.30351 
L 181.327042 82.007966 
L 182.412843 80.310869 
L 183.498644 81.399572 
L 184.584445 81.27149 
L 185.670246 76.820613 
L 186.756047 75.956055 
L 187.841849 78.453669 
L 188.92765 76.21222 
L 191.099252 76.276262 
L 192.185053 75.507765 
L 193.270854 75.443724 
L 194.356656 72.433779 
L 195.442457 73.170255 
L 196.528258 71.857406 
L 197.614059 72.49782 
L 198.69986 70.800723 
L 199.785661 72.882068 
L 200.871462 70.704661 
L 201.957264 68.847461 
L 203.043065 69.423834 
L 204.128866 69.327771 
L 205.214667 69.679999 
L 206.300468 68.847461 
L 207.386269 66.766116 
L 208.472071 67.982902 
L 209.557872 67.054302 
L 210.643673 66.95824 
L 211.729474 67.086323 
L 212.815275 66.830157 
L 213.901076 66.349847 
L 216.072679 66.638033 
L 217.15848 65.709433 
L 218.244281 65.261144 
L 219.330082 66.253785 
L 221.501684 65.325185 
L 222.587486 65.805495 
L 223.673287 65.485288 
L 224.759088 65.613371 
L 225.844889 101.18836 
L 226.93069 87.995835 
L 228.016491 96.609401 
L 229.102292 91.229925 
L 230.188094 99.747429 
L 231.273895 95.840905 
L 233.445497 89.436766 
L 234.531298 95.808884 
L 235.617099 91.710235 
L 236.702901 92.734897 
L 237.788702 94.303911 
L 238.874503 88.21998 
L 239.960304 93.151166 
L 241.046105 87.739669 
L 242.131906 89.468787 
L 243.217708 90.269304 
L 244.303509 90.493449 
L 245.38931 91.293966 
L 246.475111 85.722366 
L 247.560912 92.574794 
L 248.646713 85.498221 
L 249.732514 87.963814 
L 250.818316 84.921849 
L 251.904117 88.348063 
L 252.989918 86.106614 
L 254.075719 84.825786 
L 255.16152 84.441538 
L 256.247321 85.850449 
L 257.333123 83.12869 
L 258.418924 87.355421 
L 259.504725 85.43418 
L 260.590526 82.808483 
L 261.676327 82.424235 
L 262.762128 83.929207 
L 263.847929 86.298738 
L 264.933731 82.712421 
L 266.019532 81.207448 
L 267.105333 84.025269 
L 268.191134 82.616359 
L 269.276935 83.993248 
L 270.362736 83.737083 
L 271.448538 85.4662 
L 272.534339 77.044758 
L 273.62014 81.687759 
L 274.705941 85.306097 
L 275.791742 79.670455 
L 276.877543 79.286207 
L 277.963344 80.246827 
L 279.049146 78.645793 
L 280.134947 80.438952 
L 281.220748 80.8232 
L 282.306549 79.958641 
L 283.39235 78.485689 
L 284.478151 79.126103 
L 285.563953 81.111386 
L 286.649754 80.054703 
L 287.735555 76.820613 
L 288.821356 78.869938 
L 289.907157 79.926621 
L 290.992958 77.268903 
L 292.07876 77.172841 
L 293.164561 77.941338 
L 294.250362 81.047345 
L 295.336163 78.0374 
L 297.507765 75.635848 
L 298.593566 74.899372 
L 299.679368 78.165482 
L 300.765169 75.2516 
L 301.85097 73.87471 
L 302.936771 74.419062 
L 304.022572 73.298337 
L 305.108373 74.515124 
L 306.194175 76.532427 
L 307.279976 74.35502 
L 308.365777 74.387041 
L 309.451578 75.475744 
L 310.537379 72.882068 
L 311.62318 73.682586 
L 312.708981 72.241654 
L 313.794783 74.739268 
L 314.880584 74.675227 
L 315.966385 70.736682 
L 317.052186 74.130875 
L 319.223788 69.808082 
L 320.30959 70.288392 
L 321.395391 69.71202 
L 322.481192 71.281034 
L 323.566993 70.416475 
L 324.652794 67.438551 
L 325.738595 72.273675 
L 326.824396 70.64062 
L 327.910198 69.872123 
L 328.995999 67.726737 
L 330.0818 68.655337 
L 331.167601 66.221764 
L 332.253402 69.615958 
L 333.339203 66.349847 
L 334.425005 67.694716 
L 335.510806 66.509951 
L 336.596607 67.374509 
L 337.682408 66.47793 
L 338.768209 66.285806 
L 339.85401 65.773475 
L 340.939811 66.317826 
L 342.025613 66.413888 
L 343.111414 65.645392 
L 344.197215 66.830157 
L 345.283016 64.972957 
L 346.368817 66.02964 
L 347.454618 64.108399 
L 348.54042 65.069019 
L 349.626221 64.076378 
L 350.712022 64.780833 
L 351.797823 65.133061 
L 352.883624 64.140419 
L 353.969425 63.596068 
L 355.055227 63.24384 
L 356.141028 61.578764 
L 357.226829 62.76353 
L 359.398431 63.403943 
L 360.484232 60.682185 
L 361.570033 60.714205 
L 362.655835 61.578764 
L 363.741636 61.226536 
L 364.827437 60.265916 
L 365.913238 60.329957 
L 366.999039 61.066433 
L 368.08484 62.027054 
L 369.170642 61.546743 
L 371.342244 63.435964 
L 372.428045 64.940937 
L 373.513846 63.820212 
L 374.599647 64.716792 
L 375.685448 63.211819 
L 376.77125 64.588709 
L 377.857051 64.204461 
L 378.942852 64.716792 
L 380.028653 64.556688 
L 381.114454 65.645392 
L 382.200255 64.140419 
L 383.286057 65.197102 
L 384.371858 64.556688 
L 385.457659 64.364564 
L 386.54346 63.72415 
L 387.629261 65.133061 
L 388.715062 65.261144 
L 389.800863 64.300523 
L 390.886665 63.500005 
L 391.972466 63.596068 
L 393.058267 65.837516 
L 394.144068 65.933578 
L 395.229869 64.908916 
L 396.31567 64.140419 
L 397.401472 64.332543 
L 398.487273 65.869537 
L 398.487273 65.869537 
" clip-path="url(#p79c311061e)" style="fill: none; stroke: #ff7f0e; stroke-width: 1.5; stroke-linecap: square"/>
   </g>
   <g id="line2d_21">
    <path d="M 73.832727 273.497225 
L 74.918528 258.723541 
L 78.175932 228.359091 
L 79.261733 214.667485 
L 80.347534 219.437464 
L 81.433335 211.818747 
L 82.519137 216.522477 
L 84.690739 193.997576 
L 85.77654 193.180496 
L 86.862341 186.31261 
L 87.948142 181.299715 
L 89.033943 187.306355 
L 90.119745 178.583477 
L 91.205546 171.737674 
L 92.291347 172.356005 
L 93.377148 167.828941 
L 94.462949 167.917274 
L 95.54875 200.909629 
L 96.634552 186.842607 
L 97.720353 195.985067 
L 98.806154 181.255549 
L 99.891955 186.489276 
L 100.977756 189.757595 
L 102.063557 188.057185 
L 103.149358 175.624324 
L 104.23516 174.056414 
L 105.320961 171.98059 
L 106.406762 177.965147 
L 107.492563 179.731806 
L 108.578364 173.614749 
L 109.664165 162.484798 
L 110.749967 164.604789 
L 111.835768 159.348979 
L 112.921569 160.033559 
L 114.00737 160.961055 
L 115.093171 164.693122 
L 116.178972 159.658144 
L 117.264773 157.692736 
L 118.350575 151.465263 
L 119.436376 156.389825 
L 120.522177 145.856122 
L 121.607978 151.266514 
L 122.693779 155.307747 
L 123.77958 148.638609 
L 124.865382 151.134015 
L 125.951183 148.285277 
L 127.036984 147.490281 
L 128.122785 148.263194 
L 129.208586 150.471518 
L 130.294387 148.064445 
L 131.380189 146.894034 
L 132.46599 141.836973 
L 133.551791 143.86863 
L 134.637592 143.449049 
L 135.723393 143.979046 
L 136.809194 142.786552 
L 137.894995 143.802381 
L 138.980797 161.932717 
L 141.152399 170.191848 
L 142.2382 161.711885 
L 143.324001 164.803538 
L 144.409802 154.004836 
L 145.495604 159.70231 
L 146.581405 171.053094 
L 147.667206 155.572745 
L 148.753007 159.172313 
L 149.838808 164.27354 
L 150.924609 156.08066 
L 152.01041 160.453141 
L 153.096212 160.629806 
L 154.182013 150.316935 
L 155.267814 157.361487 
L 156.353615 149.102357 
L 157.439416 160.718139 
L 158.525217 155.131081 
L 159.611019 154.733582 
L 160.69682 154.910248 
L 161.782621 145.834038 
L 163.954223 155.837744 
L 165.040024 154.225668 
L 166.125825 149.433606 
L 167.211627 154.314001 
L 168.297428 151.774429 
L 169.383229 150.82485 
L 170.46903 137.464492 
L 171.554831 150.802766 
L 172.640632 143.095717 
L 173.726434 145.922371 
L 174.812235 151.111932 
L 175.898036 144.310295 
L 176.983837 152.127761 
L 178.069638 152.26026 
L 179.155439 136.559079 
L 180.24124 140.401562 
L 181.327042 143.824464 
L 182.412843 140.953643 
L 183.498644 142.035722 
L 184.584445 147.424031 
L 185.670246 140.202813 
L 186.756047 136.625329 
L 187.841849 150.228602 
L 188.92765 142.565719 
L 190.013451 141.925306 
L 191.099252 141.549891 
L 192.185053 135.6095 
L 193.270854 140.026147 
L 194.356656 125.892876 
L 195.442457 135.101586 
L 196.528258 135.874499 
L 197.614059 132.495764 
L 199.785661 131.082437 
L 200.871462 133.644092 
L 201.957264 132.407431 
L 203.043065 134.350756 
L 204.128866 130.773271 
L 205.214667 129.558693 
L 206.300468 128.675364 
L 207.386269 128.277866 
L 208.472071 132.473681 
L 209.557872 133.533676 
L 210.643673 132.363264 
L 211.729474 129.845775 
L 212.815275 127.703702 
L 213.901076 130.243274 
L 214.986877 132.120349 
L 216.072679 133.379093 
L 217.15848 133.489509 
L 218.244281 131.192853 
L 219.330082 130.486189 
L 220.415883 132.716596 
L 221.501684 131.479935 
L 222.587486 131.590351 
L 223.673287 129.514527 
L 224.759088 129.934108 
L 225.844889 157.317321 
L 226.93069 150.6261 
L 228.016491 162.683547 
L 229.102292 150.029853 
L 230.188094 157.957735 
L 231.273895 161.203971 
L 232.359696 155.992327 
L 233.445497 157.052322 
L 234.531298 152.304426 
L 235.617099 151.553596 
L 236.702901 150.604017 
L 237.788702 161.027305 
L 238.874503 150.515684 
L 239.960304 162.352299 
L 241.046105 143.824464 
L 242.131906 150.559851 
L 243.217708 153.76192 
L 244.303509 153.82817 
L 245.38931 153.452755 
L 246.475111 148.174861 
L 247.560912 161.822301 
L 248.646713 149.566105 
L 249.732514 153.872336 
L 250.818316 151.156098 
L 251.904117 152.26026 
L 252.989918 140.511978 
L 254.075719 141.019893 
L 255.16152 143.758214 
L 256.247321 139.2974 
L 257.333123 139.584483 
L 258.418924 140.843227 
L 259.504725 158.090234 
L 260.590526 144.531127 
L 261.676327 150.029853 
L 262.762128 138.347821 
L 263.847929 140.79906 
L 264.933731 141.351141 
L 266.019532 142.477386 
L 267.105333 139.054485 
L 268.191134 137.641158 
L 269.276935 138.458237 
L 270.362736 143.802381 
L 271.448538 147.909862 
L 272.534339 141.726556 
L 273.62014 141.660307 
L 274.705941 141.925306 
L 275.791742 136.581162 
L 276.877543 138.54657 
L 277.963344 137.86199 
L 279.049146 131.214936 
L 280.134947 138.325738 
L 281.220748 136.559079 
L 282.306549 141.284892 
L 283.39235 142.035722 
L 284.478151 139.098651 
L 285.563953 133.577842 
L 286.649754 142.146138 
L 287.735555 139.761148 
L 288.821356 138.921985 
L 289.907157 139.783232 
L 290.992958 134.152006 
L 292.07876 134.10784 
L 293.164561 142.676136 
L 294.250362 136.514913 
L 295.336163 126.974955 
L 296.421964 131.03827 
L 297.507765 142.057805 
L 298.593566 132.67243 
L 299.679368 131.899516 
L 300.765169 136.338247 
L 301.85097 130.066608 
L 302.936771 131.192853 
L 304.022572 127.836201 
L 305.108373 134.682004 
L 306.194175 146.386119 
L 307.279976 135.454917 
L 308.365777 141.218642 
L 309.451578 124.391216 
L 310.537379 128.940363 
L 311.62318 131.303269 
L 312.708981 130.662855 
L 313.794783 136.006998 
L 314.880584 129.934108 
L 315.966385 127.946617 
L 317.052186 137.331992 
L 318.137987 134.240339 
L 319.223788 132.981595 
L 320.30959 130.309523 
L 321.395391 129.161195 
L 322.481192 133.29076 
L 323.566993 131.722851 
L 324.652794 127.659535 
L 325.738595 135.454917 
L 327.910198 138.016573 
L 328.995999 134.394922 
L 330.0818 134.394922 
L 331.167601 128.16745 
L 332.253402 130.464106 
L 333.339203 128.277866 
L 334.425005 129.779526 
L 335.510806 126.687873 
L 336.596607 124.015801 
L 337.682408 123.905385 
L 338.768209 126.378707 
L 339.85401 127.438703 
L 340.939811 128.16745 
L 342.025613 133.136178 
L 343.111414 130.375773 
L 344.197215 126.511207 
L 345.283016 127.593285 
L 346.368817 121.608728 
L 347.454618 127.129537 
L 348.54042 124.369133 
L 349.626221 123.176638 
L 350.712022 129.889942 
L 351.797823 119.797903 
L 352.883624 119.157489 
L 353.969425 123.287054 
L 355.055227 126.202042 
L 356.141028 119.047073 
L 357.226829 120.681233 
L 358.31263 124.34705 
L 359.398431 124.854964 
L 360.484232 125.561628 
L 361.570033 121.674978 
L 362.655835 123.927468 
L 363.741636 120.327901 
L 364.827437 118.715825 
L 365.913238 118.737908 
L 366.999039 117.611663 
L 368.08484 123.728719 
L 369.170642 122.138726 
L 370.256443 123.905385 
L 371.342244 120.4604 
L 372.428045 126.59954 
L 373.513846 122.889556 
L 374.599647 123.397471 
L 375.685448 122.227059 
L 376.77125 119.996652 
L 377.857051 120.416234 
L 378.942852 126.621623 
L 380.028653 124.854964 
L 381.114454 125.473295 
L 382.200255 119.908319 
L 383.286057 124.589965 
L 384.371858 127.747868 
L 385.457659 129.53661 
L 387.629261 129.801609 
L 388.715062 124.148301 
L 389.800863 127.571202 
L 390.886665 127.725785 
L 391.972466 129.359944 
L 393.058267 131.899516 
L 394.144068 132.120349 
L 395.229869 123.52997 
L 396.31567 128.763697 
L 397.401472 122.867473 
L 398.487273 131.943683 
L 398.487273 131.943683 
" clip-path="url(#p79c311061e)" style="fill: none; stroke: #2ca02c; stroke-width: 1.5; stroke-linecap: square"/>
   </g>
   <g id="line2d_22">
    <path d="M 368.08484 60.522081 
L 369.170642 62.155136 
L 370.256443 61.290578 
L 371.342244 62.571405 
L 372.428045 62.603426 
L 373.513846 62.76353 
L 374.599647 61.898971 
L 375.685448 63.339902 
L 376.77125 61.38664 
L 377.857051 61.194516 
L 378.942852 65.293164 
L 380.028653 63.115757 
L 381.114454 63.980316 
L 382.200255 64.012337 
L 383.286057 65.389226 
L 384.371858 63.980316 
L 385.457659 65.036999 
L 386.54346 67.214406 
L 387.629261 65.389226 
L 388.715062 66.606013 
L 389.800863 63.756171 
L 390.886665 64.908916 
L 391.972466 64.940937 
L 394.144068 67.214406 
L 395.229869 68.33513 
L 396.31567 67.630675 
L 397.401472 66.573992 
L 398.487273 69.327771 
L 398.487273 69.327771 
" clip-path="url(#p79c311061e)" style="fill: none; stroke: #d62728; stroke-width: 1.5; stroke-linecap: square"/>
   </g>
   <g id="line2d_23">
    <path d="M 368.08484 120.548733 
L 369.170642 125.429128 
L 370.256443 123.220805 
L 371.342244 118.362493 
L 372.428045 118.89249 
L 373.513846 122.447891 
L 374.599647 119.797903 
L 375.685448 122.602474 
L 376.77125 119.621237 
L 377.857051 122.227059 
L 378.942852 128.432448 
L 380.028653 125.937043 
L 381.114454 122.911639 
L 382.200255 125.71621 
L 383.286057 125.826627 
L 384.371858 123.353304 
L 385.457659 126.59954 
L 386.54346 125.826627 
L 387.629261 127.858284 
L 388.715062 126.444957 
L 389.800863 129.845775 
L 390.886665 127.747868 
L 391.972466 124.921214 
L 393.058267 119.223739 
L 394.144068 123.132472 
L 395.229869 121.21123 
L 396.31567 128.16745 
L 397.401472 121.012481 
L 398.487273 126.157875 
L 398.487273 126.157875 
" clip-path="url(#p79c311061e)" style="fill: none; stroke: #9467bd; stroke-width: 1.5; stroke-linecap: square"/>
   </g>
   <g id="patch_3">
    <path d="M 57.6 307.584 
L 57.6 41.472 
" style="fill: none; stroke: #000000; stroke-width: 0.8; stroke-linejoin: miter; stroke-linecap: square"/>
   </g>
   <g id="patch_4">
    <path d="M 414.72 307.584 
L 414.72 41.472 
" style="fill: none; stroke: #000000; stroke-width: 0.8; stroke-linejoin: miter; stroke-linecap: square"/>
   </g>
   <g id="patch_5">
    <path d="M 57.6 307.584 
L 414.72 307.584 
" style="fill: none; stroke: #000000; stroke-width: 0.8; stroke-linejoin: miter; stroke-linecap: square"/>
   </g>
   <g id="patch_6">
    <path d="M 57.6 41.472 
L 414.72 41.472 
" style="fill: none; stroke: #000000; stroke-width: 0.8; stroke-linejoin: miter; stroke-linecap: square"/>
   </g>
   <g id="text_21">
    <!-- Learning Curves -->
    <g transform="translate(187.37625 35.472) scale(0.12 -0.12)">
     <defs>
      <path id="DejaVuSans-4c" d="M 628 4666 
L 1259 4666 
L 1259 531 
L 3531 531 
L 3531 0 
L 628 0 
L 628 4666 
z
" transform="scale(0.015625)"/>
      <path id="DejaVuSans-65" d="M 3597 1894 
L 3597 1613 
L 953 1613 
Q 991 1019 1311 708 
Q 1631 397 2203 397 
Q 2534 397 2845 478 
Q 3156 559 3463 722 
L 3463 178 
Q 3153 47 2828 -22 
Q 2503 -91 2169 -91 
Q 1331 -91 842 396 
Q 353 884 353 1716 
Q 353 2575 817 3079 
Q 1281 3584 2069 3584 
Q 2775 3584 3186 3129 
Q 3597 2675 3597 1894 
z
M 3022 2063 
Q 3016 2534 2758 2815 
Q 2500 3097 2075 3097 
Q 1594 3097 1305 2825 
Q 1016 2553 972 2059 
L 3022 2063 
z
" transform="scale(0.015625)"/>
      <path id="DejaVuSans-6e" d="M 3513 2113 
L 3513 0 
L 2938 0 
L 2938 2094 
Q 2938 2591 2744 2837 
Q 2550 3084 2163 3084 
Q 1697 3084 1428 2787 
Q 1159 2491 1159 1978 
L 1159 0 
L 581 0 
L 581 3500 
L 1159 3500 
L 1159 2956 
Q 1366 3272 1645 3428 
Q 1925 3584 2291 3584 
Q 2894 3584 3203 3211 
Q 3513 2838 3513 2113 
z
" transform="scale(0.015625)"/>
      <path id="DejaVuSans-69" d="M 603 3500 
L 1178 3500 
L 1178 0 
L 603 0 
L 603 3500 
z
M 603 4863 
L 1178 4863 
L 1178 4134 
L 603 4134 
L 603 4863 
z
" transform="scale(0.015625)"/>
      <path id="DejaVuSans-67" d="M 2906 1791 
Q 2906 2416 2648 2759 
Q 2391 3103 1925 3103 
Q 1463 3103 1205 2759 
Q 947 2416 947 1791 
Q 947 1169 1205 825 
Q 1463 481 1925 481 
Q 2391 481 2648 825 
Q 2906 1169 2906 1791 
z
M 3481 434 
Q 3481 -459 3084 -895 
Q 2688 -1331 1869 -1331 
Q 1566 -1331 1297 -1286 
Q 1028 -1241 775 -1147 
L 775 -588 
Q 1028 -725 1275 -790 
Q 1522 -856 1778 -856 
Q 2344 -856 2625 -561 
Q 2906 -266 2906 331 
L 2906 616 
Q 2728 306 2450 153 
Q 2172 0 1784 0 
Q 1141 0 747 490 
Q 353 981 353 1791 
Q 353 2603 747 3093 
Q 1141 3584 1784 3584 
Q 2172 3584 2450 3431 
Q 2728 3278 2906 2969 
L 2906 3500 
L 3481 3500 
L 3481 434 
z
" transform="scale(0.015625)"/>
      <path id="DejaVuSans-20" transform="scale(0.015625)"/>
      <path id="DejaVuSans-43" d="M 4122 4306 
L 4122 3641 
Q 3803 3938 3442 4084 
Q 3081 4231 2675 4231 
Q 1875 4231 1450 3742 
Q 1025 3253 1025 2328 
Q 1025 1406 1450 917 
Q 1875 428 2675 428 
Q 3081 428 3442 575 
Q 3803 722 4122 1019 
L 4122 359 
Q 3791 134 3420 21 
Q 3050 -91 2638 -91 
Q 1578 -91 968 557 
Q 359 1206 359 2328 
Q 359 3453 968 4101 
Q 1578 4750 2638 4750 
Q 3056 4750 3426 4639 
Q 3797 4528 4122 4306 
z
" transform="scale(0.015625)"/>
      <path id="DejaVuSans-76" d="M 191 3500 
L 800 3500 
L 1894 563 
L 2988 3500 
L 3597 3500 
L 2284 0 
L 1503 0 
L 191 3500 
z
" transform="scale(0.015625)"/>
     </defs>
     <use xlink:href="#DejaVuSans-4c"/>
     <use xlink:href="#DejaVuSans-65" x="53.962891"/>
     <use xlink:href="#DejaVuSans-61" x="115.486328"/>
     <use xlink:href="#DejaVuSans-72" x="176.765625"/>
     <use xlink:href="#DejaVuSans-6e" x="216.128906"/>
     <use xlink:href="#DejaVuSans-69" x="279.507812"/>
     <use xlink:href="#DejaVuSans-6e" x="307.291016"/>
     <use xlink:href="#DejaVuSans-67" x="370.669922"/>
     <use xlink:href="#DejaVuSans-20" x="434.146484"/>
     <use xlink:href="#DejaVuSans-43" x="465.933594"/>
     <use xlink:href="#DejaVuSans-75" x="535.757812"/>
     <use xlink:href="#DejaVuSans-72" x="599.136719"/>
     <use xlink:href="#DejaVuSans-76" x="640.25"/>
     <use xlink:href="#DejaVuSans-65" x="699.429688"/>
     <use xlink:href="#DejaVuSans-73" x="760.953125"/>
    </g>
   </g>
   <g id="legend_1">
    <g id="patch_7">
     <path d="M 214.18875 302.584 
L 407.72 302.584 
Q 409.72 302.584 409.72 300.584 
L 409.72 228.193375 
Q 409.72 226.193375 407.72 226.193375 
L 214.18875 226.193375 
Q 212.18875 226.193375 212.18875 228.193375 
L 212.18875 300.584 
Q 212.18875 302.584 214.18875 302.584 
z
" style="fill: #ffffff; opacity: 0.8; stroke: #cccccc; stroke-linejoin: miter"/>
    </g>
    <g id="line2d_24">
     <path d="M 216.18875 234.291812 
L 226.18875 234.291812 
L 236.18875 234.291812 
" style="fill: none; stroke: #1f77b4; stroke-width: 1.5; stroke-linecap: square"/>
    </g>
    <g id="text_22">
     <!-- Train Accuracy -->
     <g transform="translate(244.18875 237.791812) scale(0.1 -0.1)">
      <defs>
       <path id="DejaVuSans-54" d="M -19 4666 
L 3928 4666 
L 3928 4134 
L 2272 4134 
L 2272 0 
L 1638 0 
L 1638 4134 
L -19 4134 
L -19 4666 
z
" transform="scale(0.015625)"/>
      </defs>
      <use xlink:href="#DejaVuSans-54"/>
      <use xlink:href="#DejaVuSans-72" x="46.333984"/>
      <use xlink:href="#DejaVuSans-61" x="87.447266"/>
      <use xlink:href="#DejaVuSans-69" x="148.726562"/>
      <use xlink:href="#DejaVuSans-6e" x="176.509766"/>
      <use xlink:href="#DejaVuSans-20" x="239.888672"/>
      <use xlink:href="#DejaVuSans-41" x="271.675781"/>
      <use xlink:href="#DejaVuSans-63" x="338.333984"/>
      <use xlink:href="#DejaVuSans-63" x="393.314453"/>
      <use xlink:href="#DejaVuSans-75" x="448.294922"/>
      <use xlink:href="#DejaVuSans-72" x="511.673828"/>
      <use xlink:href="#DejaVuSans-61" x="552.787109"/>
      <use xlink:href="#DejaVuSans-63" x="614.066406"/>
      <use xlink:href="#DejaVuSans-79" x="669.046875"/>
     </g>
    </g>
    <g id="line2d_25">
     <path d="M 216.18875 248.969937 
L 226.18875 248.969937 
L 236.18875 248.969937 
" style="fill: none; stroke: #ff7f0e; stroke-width: 1.5; stroke-linecap: square"/>
    </g>
    <g id="text_23">
     <!-- Validation Accuracy -->
     <g transform="translate(244.18875 252.469937) scale(0.1 -0.1)">
      <defs>
       <path id="DejaVuSans-56" d="M 1831 0 
L 50 4666 
L 709 4666 
L 2188 738 
L 3669 4666 
L 4325 4666 
L 2547 0 
L 1831 0 
z
" transform="scale(0.015625)"/>
       <path id="DejaVuSans-6c" d="M 603 4863 
L 1178 4863 
L 1178 0 
L 603 0 
L 603 4863 
z
" transform="scale(0.015625)"/>
       <path id="DejaVuSans-64" d="M 2906 2969 
L 2906 4863 
L 3481 4863 
L 3481 0 
L 2906 0 
L 2906 525 
Q 2725 213 2448 61 
Q 2172 -91 1784 -91 
Q 1150 -91 751 415 
Q 353 922 353 1747 
Q 353 2572 751 3078 
Q 1150 3584 1784 3584 
Q 2172 3584 2448 3432 
Q 2725 3281 2906 2969 
z
M 947 1747 
Q 947 1113 1208 752 
Q 1469 391 1925 391 
Q 2381 391 2643 752 
Q 2906 1113 2906 1747 
Q 2906 2381 2643 2742 
Q 2381 3103 1925 3103 
Q 1469 3103 1208 2742 
Q 947 2381 947 1747 
z
" transform="scale(0.015625)"/>
       <path id="DejaVuSans-74" d="M 1172 4494 
L 1172 3500 
L 2356 3500 
L 2356 3053 
L 1172 3053 
L 1172 1153 
Q 1172 725 1289 603 
Q 1406 481 1766 481 
L 2356 481 
L 2356 0 
L 1766 0 
Q 1100 0 847 248 
Q 594 497 594 1153 
L 594 3053 
L 172 3053 
L 172 3500 
L 594 3500 
L 594 4494 
L 1172 4494 
z
" transform="scale(0.015625)"/>
      </defs>
      <use xlink:href="#DejaVuSans-56"/>
      <use xlink:href="#DejaVuSans-61" x="60.658203"/>
      <use xlink:href="#DejaVuSans-6c" x="121.9375"/>
      <use xlink:href="#DejaVuSans-69" x="149.720703"/>
      <use xlink:href="#DejaVuSans-64" x="177.503906"/>
      <use xlink:href="#DejaVuSans-61" x="240.980469"/>
      <use xlink:href="#DejaVuSans-74" x="302.259766"/>
      <use xlink:href="#DejaVuSans-69" x="341.46875"/>
      <use xlink:href="#DejaVuSans-6f" x="369.251953"/>
      <use xlink:href="#DejaVuSans-6e" x="430.433594"/>
      <use xlink:href="#DejaVuSans-20" x="493.8125"/>
      <use xlink:href="#DejaVuSans-41" x="525.599609"/>
      <use xlink:href="#DejaVuSans-63" x="592.257812"/>
      <use xlink:href="#DejaVuSans-63" x="647.238281"/>
      <use xlink:href="#DejaVuSans-75" x="702.21875"/>
      <use xlink:href="#DejaVuSans-72" x="765.597656"/>
      <use xlink:href="#DejaVuSans-61" x="806.710938"/>
      <use xlink:href="#DejaVuSans-63" x="867.990234"/>
      <use xlink:href="#DejaVuSans-79" x="922.970703"/>
     </g>
    </g>
    <g id="line2d_26">
     <path d="M 216.18875 263.648062 
L 226.18875 263.648062 
L 236.18875 263.648062 
" style="fill: none; stroke: #2ca02c; stroke-width: 1.5; stroke-linecap: square"/>
    </g>
    <g id="text_24">
     <!-- Robust Validation Accuracy -->
     <g transform="translate(244.18875 267.148062) scale(0.1 -0.1)">
      <defs>
       <path id="DejaVuSans-52" d="M 2841 2188 
Q 3044 2119 3236 1894 
Q 3428 1669 3622 1275 
L 4263 0 
L 3584 0 
L 2988 1197 
Q 2756 1666 2539 1819 
Q 2322 1972 1947 1972 
L 1259 1972 
L 1259 0 
L 628 0 
L 628 4666 
L 2053 4666 
Q 2853 4666 3247 4331 
Q 3641 3997 3641 3322 
Q 3641 2881 3436 2590 
Q 3231 2300 2841 2188 
z
M 1259 4147 
L 1259 2491 
L 2053 2491 
Q 2509 2491 2742 2702 
Q 2975 2913 2975 3322 
Q 2975 3731 2742 3939 
Q 2509 4147 2053 4147 
L 1259 4147 
z
" transform="scale(0.015625)"/>
       <path id="DejaVuSans-62" d="M 3116 1747 
Q 3116 2381 2855 2742 
Q 2594 3103 2138 3103 
Q 1681 3103 1420 2742 
Q 1159 2381 1159 1747 
Q 1159 1113 1420 752 
Q 1681 391 2138 391 
Q 2594 391 2855 752 
Q 3116 1113 3116 1747 
z
M 1159 2969 
Q 1341 3281 1617 3432 
Q 1894 3584 2278 3584 
Q 2916 3584 3314 3078 
Q 3713 2572 3713 1747 
Q 3713 922 3314 415 
Q 2916 -91 2278 -91 
Q 1894 -91 1617 61 
Q 1341 213 1159 525 
L 1159 0 
L 581 0 
L 581 4863 
L 1159 4863 
L 1159 2969 
z
" transform="scale(0.015625)"/>
      </defs>
      <use xlink:href="#DejaVuSans-52"/>
      <use xlink:href="#DejaVuSans-6f" x="64.982422"/>
      <use xlink:href="#DejaVuSans-62" x="126.164062"/>
      <use xlink:href="#DejaVuSans-75" x="189.640625"/>
      <use xlink:href="#DejaVuSans-73" x="253.019531"/>
      <use xlink:href="#DejaVuSans-74" x="305.119141"/>
      <use xlink:href="#DejaVuSans-20" x="344.328125"/>
      <use xlink:href="#DejaVuSans-56" x="376.115234"/>
      <use xlink:href="#DejaVuSans-61" x="436.773438"/>
      <use xlink:href="#DejaVuSans-6c" x="498.052734"/>
      <use xlink:href="#DejaVuSans-69" x="525.835938"/>
      <use xlink:href="#DejaVuSans-64" x="553.619141"/>
      <use xlink:href="#DejaVuSans-61" x="617.095703"/>
      <use xlink:href="#DejaVuSans-74" x="678.375"/>
      <use xlink:href="#DejaVuSans-69" x="717.583984"/>
      <use xlink:href="#DejaVuSans-6f" x="745.367188"/>
      <use xlink:href="#DejaVuSans-6e" x="806.548828"/>
      <use xlink:href="#DejaVuSans-20" x="869.927734"/>
      <use xlink:href="#DejaVuSans-41" x="901.714844"/>
      <use xlink:href="#DejaVuSans-63" x="968.373047"/>
      <use xlink:href="#DejaVuSans-63" x="1023.353516"/>
      <use xlink:href="#DejaVuSans-75" x="1078.333984"/>
      <use xlink:href="#DejaVuSans-72" x="1141.712891"/>
      <use xlink:href="#DejaVuSans-61" x="1182.826172"/>
      <use xlink:href="#DejaVuSans-63" x="1244.105469"/>
      <use xlink:href="#DejaVuSans-79" x="1299.085938"/>
     </g>
    </g>
    <g id="line2d_27">
     <path d="M 216.18875 278.326188 
L 226.18875 278.326188 
L 236.18875 278.326188 
" style="fill: none; stroke: #d62728; stroke-width: 1.5; stroke-linecap: square"/>
    </g>
    <g id="text_25">
     <!-- SWA Validation Accuracy -->
     <g transform="translate(244.18875 281.826188) scale(0.1 -0.1)">
      <defs>
       <path id="DejaVuSans-53" d="M 3425 4513 
L 3425 3897 
Q 3066 4069 2747 4153 
Q 2428 4238 2131 4238 
Q 1616 4238 1336 4038 
Q 1056 3838 1056 3469 
Q 1056 3159 1242 3001 
Q 1428 2844 1947 2747 
L 2328 2669 
Q 3034 2534 3370 2195 
Q 3706 1856 3706 1288 
Q 3706 609 3251 259 
Q 2797 -91 1919 -91 
Q 1588 -91 1214 -16 
Q 841 59 441 206 
L 441 856 
Q 825 641 1194 531 
Q 1563 422 1919 422 
Q 2459 422 2753 634 
Q 3047 847 3047 1241 
Q 3047 1584 2836 1778 
Q 2625 1972 2144 2069 
L 1759 2144 
Q 1053 2284 737 2584 
Q 422 2884 422 3419 
Q 422 4038 858 4394 
Q 1294 4750 2059 4750 
Q 2388 4750 2728 4690 
Q 3069 4631 3425 4513 
z
" transform="scale(0.015625)"/>
       <path id="DejaVuSans-57" d="M 213 4666 
L 850 4666 
L 1831 722 
L 2809 4666 
L 3519 4666 
L 4500 722 
L 5478 4666 
L 6119 4666 
L 4947 0 
L 4153 0 
L 3169 4050 
L 2175 0 
L 1381 0 
L 213 4666 
z
" transform="scale(0.015625)"/>
      </defs>
      <use xlink:href="#DejaVuSans-53"/>
      <use xlink:href="#DejaVuSans-57" x="63.476562"/>
      <use xlink:href="#DejaVuSans-41" x="156.853516"/>
      <use xlink:href="#DejaVuSans-20" x="225.261719"/>
      <use xlink:href="#DejaVuSans-56" x="257.048828"/>
      <use xlink:href="#DejaVuSans-61" x="317.707031"/>
      <use xlink:href="#DejaVuSans-6c" x="378.986328"/>
      <use xlink:href="#DejaVuSans-69" x="406.769531"/>
      <use xlink:href="#DejaVuSans-64" x="434.552734"/>
      <use xlink:href="#DejaVuSans-61" x="498.029297"/>
      <use xlink:href="#DejaVuSans-74" x="559.308594"/>
      <use xlink:href="#DejaVuSans-69" x="598.517578"/>
      <use xlink:href="#DejaVuSans-6f" x="626.300781"/>
      <use xlink:href="#DejaVuSans-6e" x="687.482422"/>
      <use xlink:href="#DejaVuSans-20" x="750.861328"/>
      <use xlink:href="#DejaVuSans-41" x="782.648438"/>
      <use xlink:href="#DejaVuSans-63" x="849.306641"/>
      <use xlink:href="#DejaVuSans-63" x="904.287109"/>
      <use xlink:href="#DejaVuSans-75" x="959.267578"/>
      <use xlink:href="#DejaVuSans-72" x="1022.646484"/>
      <use xlink:href="#DejaVuSans-61" x="1063.759766"/>
      <use xlink:href="#DejaVuSans-63" x="1125.039062"/>
      <use xlink:href="#DejaVuSans-79" x="1180.019531"/>
     </g>
    </g>
    <g id="line2d_28">
     <path d="M 216.18875 293.004312 
L 226.18875 293.004312 
L 236.18875 293.004312 
" style="fill: none; stroke: #9467bd; stroke-width: 1.5; stroke-linecap: square"/>
    </g>
    <g id="text_26">
     <!-- SWA Robust Validation Accuracy -->
     <g transform="translate(244.18875 296.504312) scale(0.1 -0.1)">
      <use xlink:href="#DejaVuSans-53"/>
      <use xlink:href="#DejaVuSans-57" x="63.476562"/>
      <use xlink:href="#DejaVuSans-41" x="156.853516"/>
      <use xlink:href="#DejaVuSans-20" x="225.261719"/>
      <use xlink:href="#DejaVuSans-52" x="257.048828"/>
      <use xlink:href="#DejaVuSans-6f" x="322.03125"/>
      <use xlink:href="#DejaVuSans-62" x="383.212891"/>
      <use xlink:href="#DejaVuSans-75" x="446.689453"/>
      <use xlink:href="#DejaVuSans-73" x="510.068359"/>
      <use xlink:href="#DejaVuSans-74" x="562.167969"/>
      <use xlink:href="#DejaVuSans-20" x="601.376953"/>
      <use xlink:href="#DejaVuSans-56" x="633.164062"/>
      <use xlink:href="#DejaVuSans-61" x="693.822266"/>
      <use xlink:href="#DejaVuSans-6c" x="755.101562"/>
      <use xlink:href="#DejaVuSans-69" x="782.884766"/>
      <use xlink:href="#DejaVuSans-64" x="810.667969"/>
      <use xlink:href="#DejaVuSans-61" x="874.144531"/>
      <use xlink:href="#DejaVuSans-74" x="935.423828"/>
      <use xlink:href="#DejaVuSans-69" x="974.632812"/>
      <use xlink:href="#DejaVuSans-6f" x="1002.416016"/>
      <use xlink:href="#DejaVuSans-6e" x="1063.597656"/>
      <use xlink:href="#DejaVuSans-20" x="1126.976562"/>
      <use xlink:href="#DejaVuSans-41" x="1158.763672"/>
      <use xlink:href="#DejaVuSans-63" x="1225.421875"/>
      <use xlink:href="#DejaVuSans-63" x="1280.402344"/>
      <use xlink:href="#DejaVuSans-75" x="1335.382812"/>
      <use xlink:href="#DejaVuSans-72" x="1398.761719"/>
      <use xlink:href="#DejaVuSans-61" x="1439.875"/>
      <use xlink:href="#DejaVuSans-63" x="1501.154297"/>
      <use xlink:href="#DejaVuSans-79" x="1556.134766"/>
     </g>
    </g>
   </g>
  </g>
 </g>
 <defs>
  <clipPath id="p79c311061e">
   <rect x="57.6" y="41.472" width="357.12" height="266.112"/>
  </clipPath>
 </defs>
</svg>
