<?xml version="1.0" encoding="utf-8" standalone="no"?>
<!DOCTYPE svg PUBLIC "-//W3C//DTD SVG 1.1//EN"
  "http://www.w3.org/Graphics/SVG/1.1/DTD/svg11.dtd">
<svg xmlns:xlink="http://www.w3.org/1999/xlink" width="460.8pt" height="345.6pt" viewBox="0 0 460.8 345.6" xmlns="http://www.w3.org/2000/svg" version="1.1">
 <metadata>
  <rdf:RDF xmlns:dc="http://purl.org/dc/elements/1.1/" xmlns:cc="http://creativecommons.org/ns#" xmlns:rdf="http://www.w3.org/1999/02/22-rdf-syntax-ns#">
   <cc:Work>
    <dc:type rdf:resource="http://purl.org/dc/dcmitype/StillImage"/>
    <dc:date>2025-02-26T09:46:00.371851</dc:date>
    <dc:format>image/svg+xml</dc:format>
    <dc:creator>
     <cc:Agent>
      <dc:title>Matplotlib v3.9.1, https://matplotlib.org/</dc:title>
     </cc:Agent>
    </dc:creator>
   </cc:Work>
  </rdf:RDF>
 </metadata>
 <defs>
  <style type="text/css">*{stroke-linejoin: round; stroke-linecap: butt}</style>
 </defs>
 <g id="figure_1">
  <g id="patch_1">
   <path d="M 0 345.6 
L 460.8 345.6 
L 460.8 0 
L 0 0 
z
" style="fill: #ffffff"/>
  </g>
  <g id="axes_1">
   <g id="patch_2">
    <path d="M 57.6 307.584 
L 414.72 307.584 
L 414.72 41.472 
L 57.6 41.472 
z
" style="fill: #ffffff"/>
   </g>
   <g id="matplotlib.axis_1">
    <g id="xtick_1">
     <g id="line2d_1">
      <defs>
       <path id="mefdd9dd242" d="M 0 0 
L 0 3.5 
" style="stroke: #000000; stroke-width: 0.8"/>
      </defs>
      <g>
       <use xlink:href="#mefdd9dd242" x="73.832727" y="307.584" style="stroke: #000000; stroke-width: 0.8"/>
      </g>
     </g>
     <g id="text_1">
      <!-- 1 -->
      <g transform="translate(70.651477 322.182437) scale(0.1 -0.1)">
       <defs>
        <path id="DejaVuSans-31" d="M 794 531 
L 1825 531 
L 1825 4091 
L 703 3866 
L 703 4441 
L 1819 4666 
L 2450 4666 
L 2450 531 
L 3481 531 
L 3481 0 
L 794 0 
L 794 531 
z
" transform="scale(0.015625)"/>
       </defs>
       <use xlink:href="#DejaVuSans-31"/>
      </g>
     </g>
    </g>
    <g id="xtick_2">
     <g id="line2d_2">
      <g>
       <use xlink:href="#mefdd9dd242" x="109.664165" y="307.584" style="stroke: #000000; stroke-width: 0.8"/>
      </g>
     </g>
     <g id="text_2">
      <!-- 34 -->
      <g transform="translate(103.301665 322.182437) scale(0.1 -0.1)">
       <defs>
        <path id="DejaVuSans-33" d="M 2597 2516 
Q 3050 2419 3304 2112 
Q 3559 1806 3559 1356 
Q 3559 666 3084 287 
Q 2609 -91 1734 -91 
Q 1441 -91 1130 -33 
Q 819 25 488 141 
L 488 750 
Q 750 597 1062 519 
Q 1375 441 1716 441 
Q 2309 441 2620 675 
Q 2931 909 2931 1356 
Q 2931 1769 2642 2001 
Q 2353 2234 1838 2234 
L 1294 2234 
L 1294 2753 
L 1863 2753 
Q 2328 2753 2575 2939 
Q 2822 3125 2822 3475 
Q 2822 3834 2567 4026 
Q 2313 4219 1838 4219 
Q 1578 4219 1281 4162 
Q 984 4106 628 3988 
L 628 4550 
Q 988 4650 1302 4700 
Q 1616 4750 1894 4750 
Q 2613 4750 3031 4423 
Q 3450 4097 3450 3541 
Q 3450 3153 3228 2886 
Q 3006 2619 2597 2516 
z
" transform="scale(0.015625)"/>
        <path id="DejaVuSans-34" d="M 2419 4116 
L 825 1625 
L 2419 1625 
L 2419 4116 
z
M 2253 4666 
L 3047 4666 
L 3047 1625 
L 3713 1625 
L 3713 1100 
L 3047 1100 
L 3047 0 
L 2419 0 
L 2419 1100 
L 313 1100 
L 313 1709 
L 2253 4666 
z
" transform="scale(0.015625)"/>
       </defs>
       <use xlink:href="#DejaVuSans-33"/>
       <use xlink:href="#DejaVuSans-34" x="63.623047"/>
      </g>
     </g>
    </g>
    <g id="xtick_3">
     <g id="line2d_3">
      <g>
       <use xlink:href="#mefdd9dd242" x="145.495604" y="307.584" style="stroke: #000000; stroke-width: 0.8"/>
      </g>
     </g>
     <g id="text_3">
      <!-- 67 -->
      <g transform="translate(139.133104 322.182437) scale(0.1 -0.1)">
       <defs>
        <path id="DejaVuSans-36" d="M 2113 2584 
Q 1688 2584 1439 2293 
Q 1191 2003 1191 1497 
Q 1191 994 1439 701 
Q 1688 409 2113 409 
Q 2538 409 2786 701 
Q 3034 994 3034 1497 
Q 3034 2003 2786 2293 
Q 2538 2584 2113 2584 
z
M 3366 4563 
L 3366 3988 
Q 3128 4100 2886 4159 
Q 2644 4219 2406 4219 
Q 1781 4219 1451 3797 
Q 1122 3375 1075 2522 
Q 1259 2794 1537 2939 
Q 1816 3084 2150 3084 
Q 2853 3084 3261 2657 
Q 3669 2231 3669 1497 
Q 3669 778 3244 343 
Q 2819 -91 2113 -91 
Q 1303 -91 875 529 
Q 447 1150 447 2328 
Q 447 3434 972 4092 
Q 1497 4750 2381 4750 
Q 2619 4750 2861 4703 
Q 3103 4656 3366 4563 
z
" transform="scale(0.015625)"/>
        <path id="DejaVuSans-37" d="M 525 4666 
L 3525 4666 
L 3525 4397 
L 1831 0 
L 1172 0 
L 2766 4134 
L 525 4134 
L 525 4666 
z
" transform="scale(0.015625)"/>
       </defs>
       <use xlink:href="#DejaVuSans-36"/>
       <use xlink:href="#DejaVuSans-37" x="63.623047"/>
      </g>
     </g>
    </g>
    <g id="xtick_4">
     <g id="line2d_4">
      <g>
       <use xlink:href="#mefdd9dd242" x="181.327042" y="307.584" style="stroke: #000000; stroke-width: 0.8"/>
      </g>
     </g>
     <g id="text_4">
      <!-- 100 -->
      <g transform="translate(171.783292 322.182437) scale(0.1 -0.1)">
       <defs>
        <path id="DejaVuSans-30" d="M 2034 4250 
Q 1547 4250 1301 3770 
Q 1056 3291 1056 2328 
Q 1056 1369 1301 889 
Q 1547 409 2034 409 
Q 2525 409 2770 889 
Q 3016 1369 3016 2328 
Q 3016 3291 2770 3770 
Q 2525 4250 2034 4250 
z
M 2034 4750 
Q 2819 4750 3233 4129 
Q 3647 3509 3647 2328 
Q 3647 1150 3233 529 
Q 2819 -91 2034 -91 
Q 1250 -91 836 529 
Q 422 1150 422 2328 
Q 422 3509 836 4129 
Q 1250 4750 2034 4750 
z
" transform="scale(0.015625)"/>
       </defs>
       <use xlink:href="#DejaVuSans-31"/>
       <use xlink:href="#DejaVuSans-30" x="63.623047"/>
       <use xlink:href="#DejaVuSans-30" x="127.246094"/>
      </g>
     </g>
    </g>
    <g id="xtick_5">
     <g id="line2d_5">
      <g>
       <use xlink:href="#mefdd9dd242" x="217.15848" y="307.584" style="stroke: #000000; stroke-width: 0.8"/>
      </g>
     </g>
     <g id="text_5">
      <!-- 133 -->
      <g transform="translate(207.61473 322.182437) scale(0.1 -0.1)">
       <use xlink:href="#DejaVuSans-31"/>
       <use xlink:href="#DejaVuSans-33" x="63.623047"/>
       <use xlink:href="#DejaVuSans-33" x="127.246094"/>
      </g>
     </g>
    </g>
    <g id="xtick_6">
     <g id="line2d_6">
      <g>
       <use xlink:href="#mefdd9dd242" x="254.075719" y="307.584" style="stroke: #000000; stroke-width: 0.8"/>
      </g>
     </g>
     <g id="text_6">
      <!-- 167 -->
      <g transform="translate(244.531969 322.182437) scale(0.1 -0.1)">
       <use xlink:href="#DejaVuSans-31"/>
       <use xlink:href="#DejaVuSans-36" x="63.623047"/>
       <use xlink:href="#DejaVuSans-37" x="127.246094"/>
      </g>
     </g>
    </g>
    <g id="xtick_7">
     <g id="line2d_7">
      <g>
       <use xlink:href="#mefdd9dd242" x="289.907157" y="307.584" style="stroke: #000000; stroke-width: 0.8"/>
      </g>
     </g>
     <g id="text_7">
      <!-- 200 -->
      <g transform="translate(280.363407 322.182437) scale(0.1 -0.1)">
       <defs>
        <path id="DejaVuSans-32" d="M 1228 531 
L 3431 531 
L 3431 0 
L 469 0 
L 469 531 
Q 828 903 1448 1529 
Q 2069 2156 2228 2338 
Q 2531 2678 2651 2914 
Q 2772 3150 2772 3378 
Q 2772 3750 2511 3984 
Q 2250 4219 1831 4219 
Q 1534 4219 1204 4116 
Q 875 4013 500 3803 
L 500 4441 
Q 881 4594 1212 4672 
Q 1544 4750 1819 4750 
Q 2544 4750 2975 4387 
Q 3406 4025 3406 3419 
Q 3406 3131 3298 2873 
Q 3191 2616 2906 2266 
Q 2828 2175 2409 1742 
Q 1991 1309 1228 531 
z
" transform="scale(0.015625)"/>
       </defs>
       <use xlink:href="#DejaVuSans-32"/>
       <use xlink:href="#DejaVuSans-30" x="63.623047"/>
       <use xlink:href="#DejaVuSans-30" x="127.246094"/>
      </g>
     </g>
    </g>
    <g id="xtick_8">
     <g id="line2d_8">
      <g>
       <use xlink:href="#mefdd9dd242" x="325.738595" y="307.584" style="stroke: #000000; stroke-width: 0.8"/>
      </g>
     </g>
     <g id="text_8">
      <!-- 233 -->
      <g transform="translate(316.194845 322.182437) scale(0.1 -0.1)">
       <use xlink:href="#DejaVuSans-32"/>
       <use xlink:href="#DejaVuSans-33" x="63.623047"/>
       <use xlink:href="#DejaVuSans-33" x="127.246094"/>
      </g>
     </g>
    </g>
    <g id="xtick_9">
     <g id="line2d_9">
      <g>
       <use xlink:href="#mefdd9dd242" x="361.570033" y="307.584" style="stroke: #000000; stroke-width: 0.8"/>
      </g>
     </g>
     <g id="text_9">
      <!-- 266 -->
      <g transform="translate(352.026283 322.182437) scale(0.1 -0.1)">
       <use xlink:href="#DejaVuSans-32"/>
       <use xlink:href="#DejaVuSans-36" x="63.623047"/>
       <use xlink:href="#DejaVuSans-36" x="127.246094"/>
      </g>
     </g>
    </g>
    <g id="xtick_10">
     <g id="line2d_10">
      <g>
       <use xlink:href="#mefdd9dd242" x="398.487273" y="307.584" style="stroke: #000000; stroke-width: 0.8"/>
      </g>
     </g>
     <g id="text_10">
      <!-- 300 -->
      <g transform="translate(388.943523 322.182437) scale(0.1 -0.1)">
       <use xlink:href="#DejaVuSans-33"/>
       <use xlink:href="#DejaVuSans-30" x="63.623047"/>
       <use xlink:href="#DejaVuSans-30" x="127.246094"/>
      </g>
     </g>
    </g>
    <g id="text_11">
     <!-- Epochs -->
     <g transform="translate(218.244375 335.860562) scale(0.1 -0.1)">
      <defs>
       <path id="DejaVuSans-45" d="M 628 4666 
L 3578 4666 
L 3578 4134 
L 1259 4134 
L 1259 2753 
L 3481 2753 
L 3481 2222 
L 1259 2222 
L 1259 531 
L 3634 531 
L 3634 0 
L 628 0 
L 628 4666 
z
" transform="scale(0.015625)"/>
       <path id="DejaVuSans-70" d="M 1159 525 
L 1159 -1331 
L 581 -1331 
L 581 3500 
L 1159 3500 
L 1159 2969 
Q 1341 3281 1617 3432 
Q 1894 3584 2278 3584 
Q 2916 3584 3314 3078 
Q 3713 2572 3713 1747 
Q 3713 922 3314 415 
Q 2916 -91 2278 -91 
Q 1894 -91 1617 61 
Q 1341 213 1159 525 
z
M 3116 1747 
Q 3116 2381 2855 2742 
Q 2594 3103 2138 3103 
Q 1681 3103 1420 2742 
Q 1159 2381 1159 1747 
Q 1159 1113 1420 752 
Q 1681 391 2138 391 
Q 2594 391 2855 752 
Q 3116 1113 3116 1747 
z
" transform="scale(0.015625)"/>
       <path id="DejaVuSans-6f" d="M 1959 3097 
Q 1497 3097 1228 2736 
Q 959 2375 959 1747 
Q 959 1119 1226 758 
Q 1494 397 1959 397 
Q 2419 397 2687 759 
Q 2956 1122 2956 1747 
Q 2956 2369 2687 2733 
Q 2419 3097 1959 3097 
z
M 1959 3584 
Q 2709 3584 3137 3096 
Q 3566 2609 3566 1747 
Q 3566 888 3137 398 
Q 2709 -91 1959 -91 
Q 1206 -91 779 398 
Q 353 888 353 1747 
Q 353 2609 779 3096 
Q 1206 3584 1959 3584 
z
" transform="scale(0.015625)"/>
       <path id="DejaVuSans-63" d="M 3122 3366 
L 3122 2828 
Q 2878 2963 2633 3030 
Q 2388 3097 2138 3097 
Q 1578 3097 1268 2742 
Q 959 2388 959 1747 
Q 959 1106 1268 751 
Q 1578 397 2138 397 
Q 2388 397 2633 464 
Q 2878 531 3122 666 
L 3122 134 
Q 2881 22 2623 -34 
Q 2366 -91 2075 -91 
Q 1284 -91 818 406 
Q 353 903 353 1747 
Q 353 2603 823 3093 
Q 1294 3584 2113 3584 
Q 2378 3584 2631 3529 
Q 2884 3475 3122 3366 
z
" transform="scale(0.015625)"/>
       <path id="DejaVuSans-68" d="M 3513 2113 
L 3513 0 
L 2938 0 
L 2938 2094 
Q 2938 2591 2744 2837 
Q 2550 3084 2163 3084 
Q 1697 3084 1428 2787 
Q 1159 2491 1159 1978 
L 1159 0 
L 581 0 
L 581 4863 
L 1159 4863 
L 1159 2956 
Q 1366 3272 1645 3428 
Q 1925 3584 2291 3584 
Q 2894 3584 3203 3211 
Q 3513 2838 3513 2113 
z
" transform="scale(0.015625)"/>
       <path id="DejaVuSans-73" d="M 2834 3397 
L 2834 2853 
Q 2591 2978 2328 3040 
Q 2066 3103 1784 3103 
Q 1356 3103 1142 2972 
Q 928 2841 928 2578 
Q 928 2378 1081 2264 
Q 1234 2150 1697 2047 
L 1894 2003 
Q 2506 1872 2764 1633 
Q 3022 1394 3022 966 
Q 3022 478 2636 193 
Q 2250 -91 1575 -91 
Q 1294 -91 989 -36 
Q 684 19 347 128 
L 347 722 
Q 666 556 975 473 
Q 1284 391 1588 391 
Q 1994 391 2212 530 
Q 2431 669 2431 922 
Q 2431 1156 2273 1281 
Q 2116 1406 1581 1522 
L 1381 1569 
Q 847 1681 609 1914 
Q 372 2147 372 2553 
Q 372 3047 722 3315 
Q 1072 3584 1716 3584 
Q 2034 3584 2315 3537 
Q 2597 3491 2834 3397 
z
" transform="scale(0.015625)"/>
      </defs>
      <use xlink:href="#DejaVuSans-45"/>
      <use xlink:href="#DejaVuSans-70" x="63.183594"/>
      <use xlink:href="#DejaVuSans-6f" x="126.660156"/>
      <use xlink:href="#DejaVuSans-63" x="187.841797"/>
      <use xlink:href="#DejaVuSans-68" x="242.822266"/>
      <use xlink:href="#DejaVuSans-73" x="306.201172"/>
     </g>
    </g>
   </g>
   <g id="matplotlib.axis_2">
    <g id="ytick_1">
     <g id="line2d_11">
      <defs>
       <path id="m783458109c" d="M 0 0 
L -3.5 0 
" style="stroke: #000000; stroke-width: 0.8"/>
      </defs>
      <g>
       <use xlink:href="#m783458109c" x="57.6" y="296.888083" style="stroke: #000000; stroke-width: 0.8"/>
      </g>
     </g>
     <g id="text_12">
      <!-- 10 -->
      <g transform="translate(37.875 300.687302) scale(0.1 -0.1)">
       <use xlink:href="#DejaVuSans-31"/>
       <use xlink:href="#DejaVuSans-30" x="63.623047"/>
      </g>
     </g>
    </g>
    <g id="ytick_2">
     <g id="line2d_12">
      <g>
       <use xlink:href="#m783458109c" x="57.6" y="266.843374" style="stroke: #000000; stroke-width: 0.8"/>
      </g>
     </g>
     <g id="text_13">
      <!-- 20 -->
      <g transform="translate(37.875 270.642593) scale(0.1 -0.1)">
       <use xlink:href="#DejaVuSans-32"/>
       <use xlink:href="#DejaVuSans-30" x="63.623047"/>
      </g>
     </g>
    </g>
    <g id="ytick_3">
     <g id="line2d_13">
      <g>
       <use xlink:href="#m783458109c" x="57.6" y="236.798665" style="stroke: #000000; stroke-width: 0.8"/>
      </g>
     </g>
     <g id="text_14">
      <!-- 30 -->
      <g transform="translate(37.875 240.597883) scale(0.1 -0.1)">
       <use xlink:href="#DejaVuSans-33"/>
       <use xlink:href="#DejaVuSans-30" x="63.623047"/>
      </g>
     </g>
    </g>
    <g id="ytick_4">
     <g id="line2d_14">
      <g>
       <use xlink:href="#m783458109c" x="57.6" y="206.753955" style="stroke: #000000; stroke-width: 0.8"/>
      </g>
     </g>
     <g id="text_15">
      <!-- 40 -->
      <g transform="translate(37.875 210.553174) scale(0.1 -0.1)">
       <use xlink:href="#DejaVuSans-34"/>
       <use xlink:href="#DejaVuSans-30" x="63.623047"/>
      </g>
     </g>
    </g>
    <g id="ytick_5">
     <g id="line2d_15">
      <g>
       <use xlink:href="#m783458109c" x="57.6" y="176.709246" style="stroke: #000000; stroke-width: 0.8"/>
      </g>
     </g>
     <g id="text_16">
      <!-- 50 -->
      <g transform="translate(37.875 180.508465) scale(0.1 -0.1)">
       <defs>
        <path id="DejaVuSans-35" d="M 691 4666 
L 3169 4666 
L 3169 4134 
L 1269 4134 
L 1269 2991 
Q 1406 3038 1543 3061 
Q 1681 3084 1819 3084 
Q 2600 3084 3056 2656 
Q 3513 2228 3513 1497 
Q 3513 744 3044 326 
Q 2575 -91 1722 -91 
Q 1428 -91 1123 -41 
Q 819 9 494 109 
L 494 744 
Q 775 591 1075 516 
Q 1375 441 1709 441 
Q 2250 441 2565 725 
Q 2881 1009 2881 1497 
Q 2881 1984 2565 2268 
Q 2250 2553 1709 2553 
Q 1456 2553 1204 2497 
Q 953 2441 691 2322 
L 691 4666 
z
" transform="scale(0.015625)"/>
       </defs>
       <use xlink:href="#DejaVuSans-35"/>
       <use xlink:href="#DejaVuSans-30" x="63.623047"/>
      </g>
     </g>
    </g>
    <g id="ytick_6">
     <g id="line2d_16">
      <g>
       <use xlink:href="#m783458109c" x="57.6" y="146.664537" style="stroke: #000000; stroke-width: 0.8"/>
      </g>
     </g>
     <g id="text_17">
      <!-- 60 -->
      <g transform="translate(37.875 150.463755) scale(0.1 -0.1)">
       <use xlink:href="#DejaVuSans-36"/>
       <use xlink:href="#DejaVuSans-30" x="63.623047"/>
      </g>
     </g>
    </g>
    <g id="ytick_7">
     <g id="line2d_17">
      <g>
       <use xlink:href="#m783458109c" x="57.6" y="116.619827" style="stroke: #000000; stroke-width: 0.8"/>
      </g>
     </g>
     <g id="text_18">
      <!-- 70 -->
      <g transform="translate(37.875 120.419046) scale(0.1 -0.1)">
       <use xlink:href="#DejaVuSans-37"/>
       <use xlink:href="#DejaVuSans-30" x="63.623047"/>
      </g>
     </g>
    </g>
    <g id="ytick_8">
     <g id="line2d_18">
      <g>
       <use xlink:href="#m783458109c" x="57.6" y="86.575118" style="stroke: #000000; stroke-width: 0.8"/>
      </g>
     </g>
     <g id="text_19">
      <!-- 80 -->
      <g transform="translate(37.875 90.374336) scale(0.1 -0.1)">
       <defs>
        <path id="DejaVuSans-38" d="M 2034 2216 
Q 1584 2216 1326 1975 
Q 1069 1734 1069 1313 
Q 1069 891 1326 650 
Q 1584 409 2034 409 
Q 2484 409 2743 651 
Q 3003 894 3003 1313 
Q 3003 1734 2745 1975 
Q 2488 2216 2034 2216 
z
M 1403 2484 
Q 997 2584 770 2862 
Q 544 3141 544 3541 
Q 544 4100 942 4425 
Q 1341 4750 2034 4750 
Q 2731 4750 3128 4425 
Q 3525 4100 3525 3541 
Q 3525 3141 3298 2862 
Q 3072 2584 2669 2484 
Q 3125 2378 3379 2068 
Q 3634 1759 3634 1313 
Q 3634 634 3220 271 
Q 2806 -91 2034 -91 
Q 1263 -91 848 271 
Q 434 634 434 1313 
Q 434 1759 690 2068 
Q 947 2378 1403 2484 
z
M 1172 3481 
Q 1172 3119 1398 2916 
Q 1625 2713 2034 2713 
Q 2441 2713 2670 2916 
Q 2900 3119 2900 3481 
Q 2900 3844 2670 4047 
Q 2441 4250 2034 4250 
Q 1625 4250 1398 4047 
Q 1172 3844 1172 3481 
z
" transform="scale(0.015625)"/>
       </defs>
       <use xlink:href="#DejaVuSans-38"/>
       <use xlink:href="#DejaVuSans-30" x="63.623047"/>
      </g>
     </g>
    </g>
    <g id="ytick_9">
     <g id="line2d_19">
      <g>
       <use xlink:href="#m783458109c" x="57.6" y="56.530408" style="stroke: #000000; stroke-width: 0.8"/>
      </g>
     </g>
     <g id="text_20">
      <!-- 90 -->
      <g transform="translate(37.875 60.329627) scale(0.1 -0.1)">
       <defs>
        <path id="DejaVuSans-39" d="M 703 97 
L 703 672 
Q 941 559 1184 500 
Q 1428 441 1663 441 
Q 2288 441 2617 861 
Q 2947 1281 2994 2138 
Q 2813 1869 2534 1725 
Q 2256 1581 1919 1581 
Q 1219 1581 811 2004 
Q 403 2428 403 3163 
Q 403 3881 828 4315 
Q 1253 4750 1959 4750 
Q 2769 4750 3195 4129 
Q 3622 3509 3622 2328 
Q 3622 1225 3098 567 
Q 2575 -91 1691 -91 
Q 1453 -91 1209 -44 
Q 966 3 703 97 
z
M 1959 2075 
Q 2384 2075 2632 2365 
Q 2881 2656 2881 3163 
Q 2881 3666 2632 3958 
Q 2384 4250 1959 4250 
Q 1534 4250 1286 3958 
Q 1038 3666 1038 3163 
Q 1038 2656 1286 2365 
Q 1534 2075 1959 2075 
z
" transform="scale(0.015625)"/>
       </defs>
       <use xlink:href="#DejaVuSans-39"/>
       <use xlink:href="#DejaVuSans-30" x="63.623047"/>
      </g>
     </g>
    </g>
    <g id="text_21">
     <!-- Accuracy -->
     <g transform="translate(31.795312 197.356125) rotate(-90) scale(0.1 -0.1)">
      <defs>
       <path id="DejaVuSans-41" d="M 2188 4044 
L 1331 1722 
L 3047 1722 
L 2188 4044 
z
M 1831 4666 
L 2547 4666 
L 4325 0 
L 3669 0 
L 3244 1197 
L 1141 1197 
L 716 0 
L 50 0 
L 1831 4666 
z
" transform="scale(0.015625)"/>
       <path id="DejaVuSans-75" d="M 544 1381 
L 544 3500 
L 1119 3500 
L 1119 1403 
Q 1119 906 1312 657 
Q 1506 409 1894 409 
Q 2359 409 2629 706 
Q 2900 1003 2900 1516 
L 2900 3500 
L 3475 3500 
L 3475 0 
L 2900 0 
L 2900 538 
Q 2691 219 2414 64 
Q 2138 -91 1772 -91 
Q 1169 -91 856 284 
Q 544 659 544 1381 
z
M 1991 3584 
L 1991 3584 
z
" transform="scale(0.015625)"/>
       <path id="DejaVuSans-72" d="M 2631 2963 
Q 2534 3019 2420 3045 
Q 2306 3072 2169 3072 
Q 1681 3072 1420 2755 
Q 1159 2438 1159 1844 
L 1159 0 
L 581 0 
L 581 3500 
L 1159 3500 
L 1159 2956 
Q 1341 3275 1631 3429 
Q 1922 3584 2338 3584 
Q 2397 3584 2469 3576 
Q 2541 3569 2628 3553 
L 2631 2963 
z
" transform="scale(0.015625)"/>
       <path id="DejaVuSans-61" d="M 2194 1759 
Q 1497 1759 1228 1600 
Q 959 1441 959 1056 
Q 959 750 1161 570 
Q 1363 391 1709 391 
Q 2188 391 2477 730 
Q 2766 1069 2766 1631 
L 2766 1759 
L 2194 1759 
z
M 3341 1997 
L 3341 0 
L 2766 0 
L 2766 531 
Q 2569 213 2275 61 
Q 1981 -91 1556 -91 
Q 1019 -91 701 211 
Q 384 513 384 1019 
Q 384 1609 779 1909 
Q 1175 2209 1959 2209 
L 2766 2209 
L 2766 2266 
Q 2766 2663 2505 2880 
Q 2244 3097 1772 3097 
Q 1472 3097 1187 3025 
Q 903 2953 641 2809 
L 641 3341 
Q 956 3463 1253 3523 
Q 1550 3584 1831 3584 
Q 2591 3584 2966 3190 
Q 3341 2797 3341 1997 
z
" transform="scale(0.015625)"/>
       <path id="DejaVuSans-79" d="M 2059 -325 
Q 1816 -950 1584 -1140 
Q 1353 -1331 966 -1331 
L 506 -1331 
L 506 -850 
L 844 -850 
Q 1081 -850 1212 -737 
Q 1344 -625 1503 -206 
L 1606 56 
L 191 3500 
L 800 3500 
L 1894 763 
L 2988 3500 
L 3597 3500 
L 2059 -325 
z
" transform="scale(0.015625)"/>
      </defs>
      <use xlink:href="#DejaVuSans-41"/>
      <use xlink:href="#DejaVuSans-63" x="66.658203"/>
      <use xlink:href="#DejaVuSans-63" x="121.638672"/>
      <use xlink:href="#DejaVuSans-75" x="176.619141"/>
      <use xlink:href="#DejaVuSans-72" x="239.998047"/>
      <use xlink:href="#DejaVuSans-61" x="281.111328"/>
      <use xlink:href="#DejaVuSans-63" x="342.390625"/>
      <use xlink:href="#DejaVuSans-79" x="397.371094"/>
     </g>
    </g>
   </g>
   <g id="line2d_20">
    <path d="M 73.832727 295.488 
L 76.00433 213.339756 
L 77.090131 184.028137 
L 78.175932 162.768501 
L 79.261733 148.581389 
L 80.347534 138.258027 
L 82.519137 123.241681 
L 84.690739 111.680477 
L 85.77654 107.85879 
L 86.862341 104.637997 
L 87.948142 99.854879 
L 89.033943 96.423773 
L 90.119745 94.428805 
L 91.205546 90.817431 
L 92.291347 90.757341 
L 93.377148 88.594122 
L 94.462949 88.311702 
L 95.54875 113.771589 
L 96.634552 113.230784 
L 97.720353 110.460662 
L 99.891955 106.230367 
L 100.977756 102.997556 
L 102.063557 102.18034 
L 103.149358 99.019636 
L 104.23516 98.400715 
L 105.320961 97.006641 
L 106.406762 94.90952 
L 107.492563 93.118855 
L 109.664165 90.643171 
L 110.749967 89.074838 
L 112.921569 86.887583 
L 114.00737 85.331267 
L 115.093171 83.198092 
L 116.178972 82.567154 
L 117.264773 81.587696 
L 118.350575 79.616763 
L 120.522177 78.511118 
L 121.607978 76.239738 
L 122.693779 74.23876 
L 123.77958 74.292841 
L 124.865382 73.349437 
L 125.951183 72.730516 
L 127.036984 72.790605 
L 128.122785 70.290885 
L 129.208586 70.20676 
L 130.294387 69.587839 
L 132.46599 68.055559 
L 134.637592 66.793681 
L 135.723393 67.016012 
L 136.809194 66.048572 
L 137.894995 66.240858 
L 138.980797 87.476459 
L 140.066598 89.567571 
L 141.152399 87.506504 
L 142.2382 88.20955 
L 143.324001 87.6387 
L 144.409802 88.26363 
L 145.495604 87.566593 
L 146.581405 87.344262 
L 147.667206 85.385347 
L 148.753007 85.42741 
L 149.838808 84.195577 
L 150.924609 83.402396 
L 152.01041 83.450468 
L 153.096212 83.792978 
L 154.182013 81.539624 
L 155.267814 82.765449 
L 156.353615 81.870116 
L 157.439416 80.445997 
L 158.525217 80.361872 
L 160.69682 78.475064 
L 161.782621 79.370396 
L 162.868422 78.300805 
L 163.954223 77.639821 
L 165.040024 76.762516 
L 166.125825 76.690408 
L 167.211627 76.22772 
L 168.297428 76.22772 
L 169.383229 75.001896 
L 170.46903 75.386468 
L 171.554831 73.872215 
L 172.640632 75.061985 
L 173.726434 73.397508 
L 175.898036 72.213747 
L 176.983837 72.70648 
L 178.069638 71.270343 
L 179.155439 70.94586 
L 180.24124 70.825681 
L 181.327042 70.32093 
L 182.412843 69.095106 
L 184.584445 68.968918 
L 185.670246 68.458158 
L 186.756047 67.508745 
L 187.841849 67.070092 
L 188.92765 67.53879 
L 190.013451 66.661484 
L 191.099252 65.531803 
L 192.185053 65.189294 
L 193.270854 65.531803 
L 194.356656 64.366069 
L 195.442457 63.801228 
L 196.528258 64.155756 
L 197.614059 63.284459 
L 198.69986 61.950474 
L 199.785661 62.731636 
L 201.957264 61.625991 
L 204.128866 60.736668 
L 205.214667 60.682587 
L 207.386269 59.907434 
L 209.557872 58.879905 
L 210.643673 59.258468 
L 211.729474 59.150307 
L 212.815275 58.321073 
L 213.901076 58.074706 
L 214.986877 58.002599 
L 217.15848 57.473812 
L 218.244281 57.810313 
L 219.330082 57.227446 
L 221.501684 57.029151 
L 222.587486 56.866909 
L 223.673287 57.047177 
L 224.759088 56.8609 
L 225.844889 75.987362 
L 226.93069 78.084483 
L 229.102292 79.202146 
L 231.273895 78.330849 
L 232.359696 79.027887 
L 233.445497 78.847618 
L 234.531298 78.547171 
L 235.617099 77.30332 
L 239.960304 76.936775 
L 242.131906 76.696417 
L 243.217708 76.864668 
L 244.303509 77.297311 
L 245.38931 75.512656 
L 246.475111 76.125568 
L 248.646713 75.116066 
L 249.732514 75.314361 
L 250.818316 74.641359 
L 251.904117 74.509162 
L 252.989918 74.256787 
L 254.075719 74.671404 
L 255.16152 73.866206 
L 257.333123 74.262796 
L 258.418924 74.148626 
L 259.504725 73.475624 
L 260.590526 73.830152 
L 261.676327 73.734009 
L 262.762128 72.694462 
L 263.847929 73.265311 
L 264.933731 72.87473 
L 266.019532 72.868721 
L 267.105333 71.973389 
L 268.191134 71.973389 
L 269.276935 72.400024 
L 270.362736 71.997425 
L 271.448538 71.054021 
L 272.534339 71.642897 
L 273.62014 70.855726 
L 274.705941 71.378504 
L 275.791742 70.951869 
L 276.877543 71.06003 
L 279.049146 69.834206 
L 280.134947 70.651422 
L 281.220748 69.659946 
L 282.306549 69.81017 
L 284.478151 69.341472 
L 285.563953 69.46766 
L 286.649754 69.876268 
L 287.735555 69.395553 
L 288.821356 68.632417 
L 289.907157 68.548292 
L 290.992958 68.974927 
L 292.07876 67.893317 
L 293.164561 68.247845 
L 294.250362 67.442647 
L 295.336163 67.214307 
L 297.507765 67.604888 
L 298.593566 67.622915 
L 299.679368 66.673502 
L 300.765169 66.63144 
L 301.85097 66.817717 
L 302.936771 65.83225 
L 304.022572 66.276912 
L 305.108373 65.519785 
L 306.194175 65.309472 
L 307.279976 66.210814 
L 308.365777 65.700054 
L 310.537379 64.330015 
L 311.62318 65.327499 
L 313.794783 64.083648 
L 314.880584 63.825264 
L 315.966385 63.813246 
L 317.052186 64.251899 
L 318.137987 63.362575 
L 319.223788 62.731636 
L 320.30959 63.092173 
L 321.395391 62.515314 
L 322.481192 63.861317 
L 323.566993 62.48527 
L 324.652794 62.268948 
L 325.738595 62.395136 
L 326.824396 61.109222 
L 327.910198 62.298993 
L 328.995999 61.043124 
L 331.167601 60.61048 
L 332.253402 60.580435 
L 333.339203 59.811291 
L 335.510806 60.075684 
L 336.596607 59.685103 
L 337.682408 60.183845 
L 338.768209 60.003577 
L 339.85401 59.114253 
L 342.025613 58.909949 
L 343.111414 58.801788 
L 344.197215 57.563946 
L 345.283016 58.357127 
L 346.368817 58.387171 
L 347.454618 57.395696 
L 348.54042 57.666098 
L 349.626221 57.479821 
L 350.712022 57.581973 
L 351.797823 56.92099 
L 352.883624 56.818838 
L 353.969425 57.119285 
L 355.055227 55.887452 
L 357.226829 55.298575 
L 358.31263 55.280548 
L 359.398431 56.223952 
L 360.484232 55.44279 
L 361.570033 54.433288 
L 362.655835 55.244495 
L 363.741636 54.349162 
L 364.827437 54.559475 
L 365.913238 54.889967 
L 366.999039 53.568 
L 368.08484 54.787815 
L 369.170642 54.529431 
L 370.256443 56.241979 
L 371.342244 56.344131 
L 372.428045 56.969061 
L 373.513846 56.92099 
L 374.599647 56.999106 
L 375.685448 57.449776 
L 376.77125 57.20341 
L 378.942852 57.329598 
L 380.028653 56.770766 
L 381.114454 56.866909 
L 382.200255 57.443768 
L 383.286057 57.323589 
L 384.371858 56.51839 
L 385.457659 57.293544 
L 386.54346 56.908972 
L 387.629261 56.782784 
L 388.715062 58.014617 
L 389.800863 56.69265 
L 390.886665 57.822331 
L 391.972466 56.500364 
L 393.058267 57.557937 
L 394.144068 57.329598 
L 396.31567 56.356149 
L 397.401472 57.233455 
L 398.487273 57.059195 
L 398.487273 57.059195 
" clip-path="url(#p215a15b0bc)" style="fill: none; stroke: #1f77b4; stroke-width: 1.5; stroke-linecap: square"/>
   </g>
   <g id="line2d_21">
    <path d="M 73.832727 283.097562 
L 76.00433 232.382092 
L 77.090131 212.342271 
L 78.175932 206.814045 
L 79.261733 187.615475 
L 80.347534 181.876936 
L 81.433335 178.481884 
L 82.519137 168.687308 
L 84.690739 156.519201 
L 85.77654 154.626385 
L 86.862341 152.312942 
L 87.948142 145.973508 
L 89.033943 146.634492 
L 90.119745 141.64707 
L 92.291347 138.01166 
L 93.377148 137.56099 
L 94.462949 138.702689 
L 95.54875 171.361288 
L 96.634552 156.879738 
L 97.720353 160.78555 
L 98.806154 158.17166 
L 100.977756 153.995446 
L 102.063557 150.780662 
L 103.149358 146.514313 
L 104.23516 146.784715 
L 105.320961 144.110736 
L 106.406762 145.582927 
L 107.492563 141.767249 
L 108.578364 140.62555 
L 109.664165 138.822867 
L 110.749967 138.642599 
L 111.835768 132.723791 
L 112.921569 136.539469 
L 114.00737 133.805401 
L 115.093171 130.500483 
L 116.178972 131.131422 
L 117.264773 130.80093 
L 118.350575 128.397353 
L 119.436376 128.517532 
L 121.607978 124.04087 
L 122.693779 122.989306 
L 123.77958 123.560155 
L 124.865382 119.023404 
L 125.951183 119.293806 
L 127.036984 117.310855 
L 128.122785 117.641347 
L 129.208586 116.770051 
L 130.294387 117.250766 
L 131.380189 116.018933 
L 132.46599 115.658396 
L 133.551791 114.696966 
L 134.637592 114.817145 
L 135.723393 114.486653 
L 136.809194 114.636876 
L 137.894995 114.576787 
L 138.980797 136.809872 
L 140.066598 138.642599 
L 141.152399 136.509425 
L 142.2382 136.599559 
L 143.324001 138.943046 
L 144.409802 138.221973 
L 145.495604 134.706742 
L 146.581405 135.758307 
L 147.667206 132.84397 
L 148.753007 138.852912 
L 149.838808 129.539052 
L 150.924609 133.234551 
L 152.01041 137.5009 
L 153.096212 131.912584 
L 154.182013 127.946683 
L 155.267814 132.122897 
L 156.353615 129.26865 
L 157.439416 132.032763 
L 158.525217 128.24713 
L 159.611019 133.805401 
L 160.69682 132.513478 
L 161.782621 126.865073 
L 162.868422 128.848024 
L 163.954223 129.388829 
L 165.040024 125.813508 
L 166.125825 126.504537 
L 167.211627 126.204089 
L 168.297428 124.431452 
L 169.383229 121.99783 
L 170.46903 124.791988 
L 171.554831 122.478545 
L 172.640632 124.371362 
L 173.726434 123.980781 
L 174.812235 120.074969 
L 175.898036 125.392882 
L 176.983837 119.564209 
L 178.069638 119.474075 
L 179.155439 117.941794 
L 180.24124 121.697383 
L 181.327042 119.714432 
L 182.412843 119.534164 
L 183.498644 117.761526 
L 184.584445 118.212197 
L 185.670246 116.229246 
L 186.756047 116.169156 
L 187.841849 116.349425 
L 188.92765 116.079022 
L 190.013451 113.314909 
L 191.099252 113.795624 
L 192.185053 111.842718 
L 193.270854 113.465133 
L 194.356656 112.774104 
L 195.442457 114.426563 
L 196.528258 111.422092 
L 197.614059 111.392048 
L 198.69986 110.310438 
L 199.785661 111.331958 
L 200.871462 109.10865 
L 201.957264 108.207308 
L 203.043065 108.387577 
L 204.128866 107.366057 
L 205.214667 106.164268 
L 206.300468 105.563374 
L 207.386269 106.224358 
L 209.557872 105.142748 
L 210.643673 104.722122 
L 211.729474 104.631988 
L 212.815275 103.790736 
L 213.901076 103.910915 
L 214.986877 103.850826 
L 216.072679 103.4302 
L 217.15848 103.850826 
L 218.244281 103.550379 
L 219.330082 103.009574 
L 220.415883 102.769216 
L 221.501684 102.078188 
L 222.587486 102.85935 
L 223.673287 102.679082 
L 224.759088 102.318545 
L 225.844889 125.723374 
L 226.93069 129.71932 
L 228.016491 133.024238 
L 229.102292 130.109902 
L 230.188094 129.448918 
L 231.273895 129.26865 
L 232.359696 130.23008 
L 233.445497 130.320215 
L 234.531298 132.423344 
L 235.617099 127.526057 
L 236.702901 127.616191 
L 237.788702 128.787934 
L 238.874503 128.156996 
L 239.960304 126.174045 
L 241.046105 128.727845 
L 242.131906 123.920692 
L 243.217708 126.564626 
L 244.303509 123.229663 
L 245.38931 125.452972 
L 246.475111 125.422927 
L 247.560912 124.371362 
L 248.646713 127.16552 
L 249.732514 125.813508 
L 250.818316 125.543106 
L 251.904117 128.337264 
L 252.989918 122.959261 
L 254.075719 121.787517 
L 255.16152 129.118426 
L 256.247321 126.384358 
L 257.333123 122.929216 
L 258.418924 127.135475 
L 259.504725 124.311273 
L 260.590526 125.873598 
L 261.676327 124.701854 
L 262.762128 122.718903 
L 263.847929 127.135475 
L 264.933731 123.860602 
L 266.019532 123.500066 
L 267.105333 120.435505 
L 268.191134 123.650289 
L 269.276935 124.61172 
L 270.362736 121.577204 
L 271.448538 120.946265 
L 272.534339 123.620244 
L 273.62014 126.804984 
L 274.705941 120.856131 
L 275.791742 120.735952 
L 276.877543 120.165103 
L 277.963344 118.332376 
L 279.049146 125.753419 
L 281.220748 119.564209 
L 282.306549 121.517115 
L 283.39235 123.049395 
L 284.478151 118.87318 
L 285.563953 120.796042 
L 286.649754 117.370945 
L 287.735555 119.564209 
L 288.821356 119.564209 
L 289.907157 116.439559 
L 290.992958 121.396936 
L 292.07876 118.061973 
L 293.164561 118.843136 
L 294.250362 119.413985 
L 295.336163 119.413985 
L 296.421964 120.375416 
L 297.507765 115.928799 
L 298.593566 114.066027 
L 299.679368 115.718486 
L 300.765169 116.439559 
L 301.85097 118.242241 
L 302.936771 116.409514 
L 304.022572 117.130587 
L 305.108373 118.783046 
L 306.194175 114.907279 
L 307.279976 114.967368 
L 308.365777 118.36242 
L 309.451578 113.044507 
L 310.537379 114.366474 
L 312.708981 112.263344 
L 313.794783 111.211779 
L 314.880584 111.66245 
L 315.966385 113.70549 
L 317.052186 114.066027 
L 318.137987 112.143165 
L 319.223788 112.17321 
L 320.30959 110.701019 
L 321.395391 109.469186 
L 322.481192 109.799678 
L 323.566993 113.19473 
L 324.652794 110.881288 
L 325.738595 110.430617 
L 326.824396 111.452137 
L 327.910198 111.211779 
L 328.995999 109.709544 
L 330.0818 107.57637 
L 331.167601 107.275923 
L 332.253402 108.237353 
L 333.339203 109.889812 
L 334.425005 108.718069 
L 335.510806 108.477711 
L 336.596607 106.314492 
L 337.682408 105.863821 
L 338.768209 107.996996 
L 339.85401 106.675028 
L 340.939811 107.125699 
L 342.025613 106.614939 
L 343.111414 103.310021 
L 344.197215 104.241407 
L 345.283016 105.383106 
L 346.368817 102.91944 
L 347.454618 104.601943 
L 348.54042 103.790736 
L 349.626221 103.610468 
L 350.712022 102.048143 
L 351.797823 102.258456 
L 352.883624 101.807785 
L 353.969425 101.717651 
L 355.055227 103.099708 
L 356.141028 100.786265 
L 357.226829 101.056668 
L 358.31263 102.288501 
L 359.398431 100.906444 
L 360.484232 101.056668 
L 361.570033 98.803314 
L 362.655835 99.614522 
L 363.741636 99.28403 
L 364.827437 99.464298 
L 365.913238 100.515863 
L 366.999039 98.743225 
L 368.08484 101.507338 
L 369.170642 101.627517 
L 370.256443 102.40868 
L 371.342244 104.001049 
L 372.428045 103.340066 
L 373.513846 104.211362 
L 374.599647 103.189842 
L 375.685448 104.842301 
L 376.77125 105.683553 
L 377.857051 103.790736 
L 378.942852 104.031094 
L 380.028653 107.696548 
L 381.114454 103.971004 
L 382.200255 102.91944 
L 383.286057 104.271452 
L 384.371858 102.889395 
L 385.457659 104.631988 
L 386.54346 103.550379 
L 387.629261 104.631988 
L 388.715062 104.031094 
L 389.800863 106.044089 
L 390.886665 105.082659 
L 391.972466 104.421675 
L 393.058267 104.361586 
L 394.144068 103.971004 
L 395.229869 103.730647 
L 396.31567 104.932435 
L 397.401472 105.593419 
L 398.487273 104.782212 
L 398.487273 104.782212 
" clip-path="url(#p215a15b0bc)" style="fill: none; stroke: #ff7f0e; stroke-width: 1.5; stroke-linecap: square"/>
   </g>
   <g id="line2d_22">
    <path d="M 73.832727 289.594471 
L 74.918528 262.139823 
L 76.00433 253.064249 
L 77.090131 237.213074 
L 78.175932 245.687755 
L 79.261733 231.369897 
L 80.347534 225.15375 
L 81.433335 211.540388 
L 82.519137 212.244885 
L 83.604938 206.235943 
L 84.690739 205.096316 
L 85.77654 199.273859 
L 86.862341 194.23878 
L 87.948142 198.672964 
L 89.033943 193.140594 
L 90.119745 191.586557 
L 91.205546 188.789291 
L 92.291347 185.246087 
L 93.377148 184.355106 
L 94.462949 186.240671 
L 95.54875 202.236889 
L 96.634552 203.107149 
L 97.720353 213.508835 
L 98.806154 207.39629 
L 100.977756 201.988243 
L 102.063557 202.319771 
L 103.149358 194.943276 
L 104.23516 196.580195 
L 105.320961 186.945168 
L 106.406762 192.933389 
L 107.492563 193.82437 
L 108.578364 199.3153 
L 109.664165 183.298361 
L 110.749967 190.86134 
L 111.835768 177.496624 
L 112.921569 191.938805 
L 114.00737 179.40291 
L 115.093171 183.712771 
L 116.178972 189.224421 
L 117.264773 176.191234 
L 118.350575 181.806486 
L 119.436376 176.957892 
L 120.522177 178.59481 
L 121.607978 174.367831 
L 122.693779 175.403855 
L 123.77958 173.621893 
L 124.865382 171.38408 
L 125.951183 175.403855 
L 127.036984 174.554315 
L 128.122785 172.565148 
L 129.208586 173.269645 
L 130.294387 171.757049 
L 131.380189 172.047136 
L 132.46599 169.166988 
L 133.551791 169.374193 
L 134.637592 168.379609 
L 135.723393 169.622839 
L 136.809194 169.415634 
L 137.894995 169.643559 
L 138.980797 194.881115 
L 140.066598 185.142485 
L 142.2382 190.964942 
L 143.324001 187.960472 
L 144.409802 196.290108 
L 145.495604 188.913614 
L 146.581405 184.873119 
L 147.667206 192.933389 
L 149.838808 186.551478 
L 150.924609 187.773987 
L 152.01041 193.472122 
L 153.096212 195.254084 
L 154.182013 177.247979 
L 155.267814 182.738908 
L 156.353615 180.729021 
L 157.439416 181.081269 
L 158.525217 186.551478 
L 159.611019 181.702884 
L 160.69682 184.748796 
L 161.782621 187.007329 
L 162.868422 186.675801 
L 163.954223 186.696522 
L 165.040024 182.200176 
L 166.125825 185.577615 
L 167.211627 178.097519 
L 168.297428 175.030886 
L 169.383229 178.242562 
L 170.46903 182.448821 
L 171.554831 177.72455 
L 172.640632 177.351581 
L 173.726434 176.087631 
L 174.812235 166.079635 
L 175.898036 177.848873 
L 176.983837 169.643559 
L 178.069638 169.726441 
L 179.155439 175.155209 
L 180.24124 177.227258 
L 181.327042 171.964254 
L 182.412843 170.368776 
L 183.498644 169.975087 
L 184.584445 173.725495 
L 185.670246 173.103881 
L 186.756047 180.563257 
L 187.841849 168.81474 
L 188.92765 167.675113 
L 190.013451 167.177821 
L 191.099252 167.302144 
L 192.185053 170.016528 
L 193.270854 165.354418 
L 194.356656 169.063385 
L 195.442457 170.907509 
L 196.528258 172.502987 
L 197.614059 166.038194 
L 198.69986 169.021944 
L 199.785661 169.767882 
L 200.871462 164.007586 
L 201.957264 166.224678 
L 203.043065 168.130963 
L 204.128866 164.857126 
L 205.214667 162.867959 
L 206.300468 161.583289 
L 207.386269 163.137325 
L 208.472071 162.681475 
L 209.557872 158.040085 
L 210.643673 158.744582 
L 211.729474 161.666171 
L 212.815275 160.277898 
L 213.901076 161.438245 
L 214.986877 161.956258 
L 216.072679 160.049973 
L 217.15848 160.713028 
L 218.244281 163.655338 
L 219.330082 158.723861 
L 220.415883 161.417525 
L 221.501684 159.324755 
L 222.587486 160.671587 
L 223.673287 159.428358 
L 224.759088 159.158992 
L 225.844889 176.211954 
L 226.93069 179.00922 
L 228.016491 181.039828 
L 229.102292 189.928918 
L 230.188094 178.802015 
L 231.273895 190.322607 
L 232.359696 191.835203 
L 233.445497 186.945168 
L 234.531298 181.164151 
L 235.617099 179.382189 
L 236.702901 187.773987 
L 237.788702 185.619056 
L 238.874503 188.706409 
L 239.960304 179.941642 
L 241.046105 174.34711 
L 242.131906 178.802015 
L 243.217708 171.446242 
L 244.303509 180.853344 
L 245.38931 180.169568 
L 246.475111 180.646139 
L 247.560912 185.867702 
L 248.646713 185.971305 
L 249.732514 191.420793 
L 250.818316 182.614585 
L 251.904117 187.773987 
L 252.989918 181.97225 
L 254.075719 170.596702 
L 255.16152 185.183926 
L 256.247321 180.211009 
L 257.333123 188.706409 
L 258.418924 181.474958 
L 259.504725 180.915505 
L 260.590526 181.578561 
L 261.676327 178.429047 
L 262.762128 177.496624 
L 263.847929 184.127181 
L 264.933731 179.382189 
L 266.019532 179.174984 
L 267.105333 170.161571 
L 268.191134 180.169568 
L 269.276935 186.344273 
L 270.362736 183.21548 
L 271.448538 172.254341 
L 272.534339 179.941642 
L 273.62014 178.014637 
L 274.705941 181.95153 
L 275.791742 175.341694 
L 276.877543 176.812848 
L 277.963344 178.035357 
L 279.049146 178.636251 
L 280.134947 178.449767 
L 281.220748 170.596702 
L 282.306549 179.029941 
L 283.39235 177.973196 
L 284.478151 177.765991 
L 285.563953 174.098464 
L 286.649754 162.930121 
L 287.735555 173.539011 
L 288.821356 177.28942 
L 289.907157 171.052552 
L 290.992958 177.082215 
L 292.07876 176.667805 
L 293.164561 173.166042 
L 294.250362 179.506512 
L 295.336163 176.191234 
L 296.421964 187.89831 
L 297.507765 177.330861 
L 298.593566 169.539957 
L 299.679368 170.907509 
L 300.765169 167.364305 
L 301.85097 170.886788 
L 302.936771 178.408326 
L 304.022572 169.042665 
L 305.108373 182.759629 
L 306.194175 174.699358 
L 307.279976 162.577872 
L 308.365777 171.839931 
L 309.451578 170.845347 
L 310.537379 174.906563 
L 312.708981 172.026415 
L 313.794783 168.980503 
L 314.880584 168.151684 
L 315.966385 166.680529 
L 317.052186 166.846293 
L 318.137987 169.892205 
L 319.223788 161.914817 
L 320.30959 166.431883 
L 321.395391 169.477795 
L 322.481192 164.58776 
L 323.566993 167.281423 
L 324.652794 181.392076 
L 325.738595 172.2129 
L 326.824396 177.123656 
L 327.910198 163.75894 
L 328.995999 170.389497 
L 330.0818 171.259757 
L 331.167601 169.353472 
L 332.253402 165.85171 
L 333.339203 163.199487 
L 334.425005 164.463437 
L 335.510806 172.668751 
L 336.596607 167.98592 
L 337.682408 165.644505 
L 338.768209 168.234566 
L 339.85401 162.329226 
L 340.939811 160.858072 
L 342.025613 165.064331 
L 343.111414 158.26801 
L 344.197215 159.842768 
L 345.283016 158.993228 
L 346.368817 160.029252 
L 347.454618 162.204903 
L 348.54042 168.193125 
L 349.626221 161.831935 
L 350.712022 164.525598 
L 351.797823 157.791439 
L 352.883624 164.131909 
L 353.969425 158.640979 
L 355.055227 161.935537 
L 356.141028 155.657229 
L 357.226829 158.827464 
L 358.31263 159.635563 
L 359.398431 158.703141 
L 360.484232 154.621204 
L 361.570033 156.693253 
L 362.655835 159.407637 
L 363.741636 157.770719 
L 364.827437 160.132855 
L 366.999039 158.22657 
L 368.08484 162.287785 
L 369.170642 158.558097 
L 370.256443 162.702195 
L 371.342244 163.34453 
L 372.428045 164.17335 
L 374.599647 160.319339 
L 375.685448 157.770719 
L 376.77125 167.405746 
L 377.857051 160.36078 
L 380.028653 168.648976 
L 381.114454 158.786023 
L 382.200255 161.251761 
L 383.286057 160.982395 
L 384.371858 158.516656 
L 385.457659 158.454495 
L 386.54346 159.677004 
L 387.629261 163.406692 
L 388.715062 160.837351 
L 390.886665 163.220207 
L 391.972466 159.635563 
L 393.058267 162.598593 
L 394.144068 164.401275 
L 396.31567 158.558097 
L 397.401472 160.153575 
L 398.487273 162.992282 
L 398.487273 162.992282 
" clip-path="url(#p215a15b0bc)" style="fill: none; stroke: #2ca02c; stroke-width: 1.5; stroke-linecap: square"/>
   </g>
   <g id="line2d_23">
    <path d="M 368.08484 100.065192 
L 369.170642 100.846355 
L 370.256443 101.32707 
L 371.342244 102.769216 
L 372.428045 102.799261 
L 373.513846 105.172793 
L 374.599647 102.288501 
L 375.685448 103.099708 
L 376.77125 100.756221 
L 377.857051 103.310021 
L 380.028653 104.90239 
L 381.114454 105.052614 
L 382.200255 102.889395 
L 383.286057 101.146802 
L 384.371858 105.533329 
L 385.457659 105.172793 
L 386.54346 102.949484 
L 387.629261 105.923911 
L 388.715062 103.580423 
L 389.800863 101.717651 
L 390.886665 102.048143 
L 391.972466 106.374581 
L 393.058267 102.018098 
L 394.144068 101.597472 
L 395.229869 103.670557 
L 396.31567 101.89792 
L 397.401472 103.129753 
L 398.487273 102.288501 
L 398.487273 102.288501 
" clip-path="url(#p215a15b0bc)" style="fill: none; stroke: #d62728; stroke-width: 1.5; stroke-linecap: square"/>
   </g>
   <g id="line2d_24">
    <path d="M 368.08484 159.386917 
L 369.170642 161.811214 
L 370.256443 161.376084 
L 371.342244 161.189599 
L 372.428045 167.219262 
L 373.513846 170.430938 
L 374.599647 162.308506 
L 375.685448 159.386917 
L 376.77125 162.743636 
L 377.857051 158.081526 
L 378.942852 163.178766 
L 380.028653 160.858072 
L 381.114454 164.007586 
L 382.200255 161.521127 
L 383.286057 155.636508 
L 384.371858 160.257177 
L 385.457659 162.267065 
L 386.54346 166.535486 
L 387.629261 169.291311 
L 388.715062 158.578818 
L 389.800863 157.584234 
L 390.886665 162.764357 
L 391.972466 162.391388 
L 393.058267 160.588705 
L 394.144068 162.163462 
L 395.229869 160.195016 
L 396.31567 157.687837 
L 397.401472 155.512185 
L 398.487273 158.640979 
L 398.487273 158.640979 
" clip-path="url(#p215a15b0bc)" style="fill: none; stroke: #9467bd; stroke-width: 1.5; stroke-linecap: square"/>
   </g>
   <g id="patch_3">
    <path d="M 57.6 307.584 
L 57.6 41.472 
" style="fill: none; stroke: #000000; stroke-width: 0.8; stroke-linejoin: miter; stroke-linecap: square"/>
   </g>
   <g id="patch_4">
    <path d="M 414.72 307.584 
L 414.72 41.472 
" style="fill: none; stroke: #000000; stroke-width: 0.8; stroke-linejoin: miter; stroke-linecap: square"/>
   </g>
   <g id="patch_5">
    <path d="M 57.6 307.584 
L 414.72 307.584 
" style="fill: none; stroke: #000000; stroke-width: 0.8; stroke-linejoin: miter; stroke-linecap: square"/>
   </g>
   <g id="patch_6">
    <path d="M 57.6 41.472 
L 414.72 41.472 
" style="fill: none; stroke: #000000; stroke-width: 0.8; stroke-linejoin: miter; stroke-linecap: square"/>
   </g>
   <g id="text_22">
    <!-- Learning Curves -->
    <g transform="translate(187.37625 35.472) scale(0.12 -0.12)">
     <defs>
      <path id="DejaVuSans-4c" d="M 628 4666 
L 1259 4666 
L 1259 531 
L 3531 531 
L 3531 0 
L 628 0 
L 628 4666 
z
" transform="scale(0.015625)"/>
      <path id="DejaVuSans-65" d="M 3597 1894 
L 3597 1613 
L 953 1613 
Q 991 1019 1311 708 
Q 1631 397 2203 397 
Q 2534 397 2845 478 
Q 3156 559 3463 722 
L 3463 178 
Q 3153 47 2828 -22 
Q 2503 -91 2169 -91 
Q 1331 -91 842 396 
Q 353 884 353 1716 
Q 353 2575 817 3079 
Q 1281 3584 2069 3584 
Q 2775 3584 3186 3129 
Q 3597 2675 3597 1894 
z
M 3022 2063 
Q 3016 2534 2758 2815 
Q 2500 3097 2075 3097 
Q 1594 3097 1305 2825 
Q 1016 2553 972 2059 
L 3022 2063 
z
" transform="scale(0.015625)"/>
      <path id="DejaVuSans-6e" d="M 3513 2113 
L 3513 0 
L 2938 0 
L 2938 2094 
Q 2938 2591 2744 2837 
Q 2550 3084 2163 3084 
Q 1697 3084 1428 2787 
Q 1159 2491 1159 1978 
L 1159 0 
L 581 0 
L 581 3500 
L 1159 3500 
L 1159 2956 
Q 1366 3272 1645 3428 
Q 1925 3584 2291 3584 
Q 2894 3584 3203 3211 
Q 3513 2838 3513 2113 
z
" transform="scale(0.015625)"/>
      <path id="DejaVuSans-69" d="M 603 3500 
L 1178 3500 
L 1178 0 
L 603 0 
L 603 3500 
z
M 603 4863 
L 1178 4863 
L 1178 4134 
L 603 4134 
L 603 4863 
z
" transform="scale(0.015625)"/>
      <path id="DejaVuSans-67" d="M 2906 1791 
Q 2906 2416 2648 2759 
Q 2391 3103 1925 3103 
Q 1463 3103 1205 2759 
Q 947 2416 947 1791 
Q 947 1169 1205 825 
Q 1463 481 1925 481 
Q 2391 481 2648 825 
Q 2906 1169 2906 1791 
z
M 3481 434 
Q 3481 -459 3084 -895 
Q 2688 -1331 1869 -1331 
Q 1566 -1331 1297 -1286 
Q 1028 -1241 775 -1147 
L 775 -588 
Q 1028 -725 1275 -790 
Q 1522 -856 1778 -856 
Q 2344 -856 2625 -561 
Q 2906 -266 2906 331 
L 2906 616 
Q 2728 306 2450 153 
Q 2172 0 1784 0 
Q 1141 0 747 490 
Q 353 981 353 1791 
Q 353 2603 747 3093 
Q 1141 3584 1784 3584 
Q 2172 3584 2450 3431 
Q 2728 3278 2906 2969 
L 2906 3500 
L 3481 3500 
L 3481 434 
z
" transform="scale(0.015625)"/>
      <path id="DejaVuSans-20" transform="scale(0.015625)"/>
      <path id="DejaVuSans-43" d="M 4122 4306 
L 4122 3641 
Q 3803 3938 3442 4084 
Q 3081 4231 2675 4231 
Q 1875 4231 1450 3742 
Q 1025 3253 1025 2328 
Q 1025 1406 1450 917 
Q 1875 428 2675 428 
Q 3081 428 3442 575 
Q 3803 722 4122 1019 
L 4122 359 
Q 3791 134 3420 21 
Q 3050 -91 2638 -91 
Q 1578 -91 968 557 
Q 359 1206 359 2328 
Q 359 3453 968 4101 
Q 1578 4750 2638 4750 
Q 3056 4750 3426 4639 
Q 3797 4528 4122 4306 
z
" transform="scale(0.015625)"/>
      <path id="DejaVuSans-76" d="M 191 3500 
L 800 3500 
L 1894 563 
L 2988 3500 
L 3597 3500 
L 2284 0 
L 1503 0 
L 191 3500 
z
" transform="scale(0.015625)"/>
     </defs>
     <use xlink:href="#DejaVuSans-4c"/>
     <use xlink:href="#DejaVuSans-65" x="53.962891"/>
     <use xlink:href="#DejaVuSans-61" x="115.486328"/>
     <use xlink:href="#DejaVuSans-72" x="176.765625"/>
     <use xlink:href="#DejaVuSans-6e" x="216.128906"/>
     <use xlink:href="#DejaVuSans-69" x="279.507812"/>
     <use xlink:href="#DejaVuSans-6e" x="307.291016"/>
     <use xlink:href="#DejaVuSans-67" x="370.669922"/>
     <use xlink:href="#DejaVuSans-20" x="434.146484"/>
     <use xlink:href="#DejaVuSans-43" x="465.933594"/>
     <use xlink:href="#DejaVuSans-75" x="535.757812"/>
     <use xlink:href="#DejaVuSans-72" x="599.136719"/>
     <use xlink:href="#DejaVuSans-76" x="640.25"/>
     <use xlink:href="#DejaVuSans-65" x="699.429688"/>
     <use xlink:href="#DejaVuSans-73" x="760.953125"/>
    </g>
   </g>
   <g id="legend_1">
    <g id="patch_7">
     <path d="M 214.18875 302.584 
L 407.72 302.584 
Q 409.72 302.584 409.72 300.584 
L 409.72 228.193375 
Q 409.72 226.193375 407.72 226.193375 
L 214.18875 226.193375 
Q 212.18875 226.193375 212.18875 228.193375 
L 212.18875 300.584 
Q 212.18875 302.584 214.18875 302.584 
z
" style="fill: #ffffff; opacity: 0.8; stroke: #cccccc; stroke-linejoin: miter"/>
    </g>
    <g id="line2d_25">
     <path d="M 216.18875 234.291812 
L 226.18875 234.291812 
L 236.18875 234.291812 
" style="fill: none; stroke: #1f77b4; stroke-width: 1.5; stroke-linecap: square"/>
    </g>
    <g id="text_23">
     <!-- Train Accuracy -->
     <g transform="translate(244.18875 237.791812) scale(0.1 -0.1)">
      <defs>
       <path id="DejaVuSans-54" d="M -19 4666 
L 3928 4666 
L 3928 4134 
L 2272 4134 
L 2272 0 
L 1638 0 
L 1638 4134 
L -19 4134 
L -19 4666 
z
" transform="scale(0.015625)"/>
      </defs>
      <use xlink:href="#DejaVuSans-54"/>
      <use xlink:href="#DejaVuSans-72" x="46.333984"/>
      <use xlink:href="#DejaVuSans-61" x="87.447266"/>
      <use xlink:href="#DejaVuSans-69" x="148.726562"/>
      <use xlink:href="#DejaVuSans-6e" x="176.509766"/>
      <use xlink:href="#DejaVuSans-20" x="239.888672"/>
      <use xlink:href="#DejaVuSans-41" x="271.675781"/>
      <use xlink:href="#DejaVuSans-63" x="338.333984"/>
      <use xlink:href="#DejaVuSans-63" x="393.314453"/>
      <use xlink:href="#DejaVuSans-75" x="448.294922"/>
      <use xlink:href="#DejaVuSans-72" x="511.673828"/>
      <use xlink:href="#DejaVuSans-61" x="552.787109"/>
      <use xlink:href="#DejaVuSans-63" x="614.066406"/>
      <use xlink:href="#DejaVuSans-79" x="669.046875"/>
     </g>
    </g>
    <g id="line2d_26">
     <path d="M 216.18875 248.969937 
L 226.18875 248.969937 
L 236.18875 248.969937 
" style="fill: none; stroke: #ff7f0e; stroke-width: 1.5; stroke-linecap: square"/>
    </g>
    <g id="text_24">
     <!-- Validation Accuracy -->
     <g transform="translate(244.18875 252.469937) scale(0.1 -0.1)">
      <defs>
       <path id="DejaVuSans-56" d="M 1831 0 
L 50 4666 
L 709 4666 
L 2188 738 
L 3669 4666 
L 4325 4666 
L 2547 0 
L 1831 0 
z
" transform="scale(0.015625)"/>
       <path id="DejaVuSans-6c" d="M 603 4863 
L 1178 4863 
L 1178 0 
L 603 0 
L 603 4863 
z
" transform="scale(0.015625)"/>
       <path id="DejaVuSans-64" d="M 2906 2969 
L 2906 4863 
L 3481 4863 
L 3481 0 
L 2906 0 
L 2906 525 
Q 2725 213 2448 61 
Q 2172 -91 1784 -91 
Q 1150 -91 751 415 
Q 353 922 353 1747 
Q 353 2572 751 3078 
Q 1150 3584 1784 3584 
Q 2172 3584 2448 3432 
Q 2725 3281 2906 2969 
z
M 947 1747 
Q 947 1113 1208 752 
Q 1469 391 1925 391 
Q 2381 391 2643 752 
Q 2906 1113 2906 1747 
Q 2906 2381 2643 2742 
Q 2381 3103 1925 3103 
Q 1469 3103 1208 2742 
Q 947 2381 947 1747 
z
" transform="scale(0.015625)"/>
       <path id="DejaVuSans-74" d="M 1172 4494 
L 1172 3500 
L 2356 3500 
L 2356 3053 
L 1172 3053 
L 1172 1153 
Q 1172 725 1289 603 
Q 1406 481 1766 481 
L 2356 481 
L 2356 0 
L 1766 0 
Q 1100 0 847 248 
Q 594 497 594 1153 
L 594 3053 
L 172 3053 
L 172 3500 
L 594 3500 
L 594 4494 
L 1172 4494 
z
" transform="scale(0.015625)"/>
      </defs>
      <use xlink:href="#DejaVuSans-56"/>
      <use xlink:href="#DejaVuSans-61" x="60.658203"/>
      <use xlink:href="#DejaVuSans-6c" x="121.9375"/>
      <use xlink:href="#DejaVuSans-69" x="149.720703"/>
      <use xlink:href="#DejaVuSans-64" x="177.503906"/>
      <use xlink:href="#DejaVuSans-61" x="240.980469"/>
      <use xlink:href="#DejaVuSans-74" x="302.259766"/>
      <use xlink:href="#DejaVuSans-69" x="341.46875"/>
      <use xlink:href="#DejaVuSans-6f" x="369.251953"/>
      <use xlink:href="#DejaVuSans-6e" x="430.433594"/>
      <use xlink:href="#DejaVuSans-20" x="493.8125"/>
      <use xlink:href="#DejaVuSans-41" x="525.599609"/>
      <use xlink:href="#DejaVuSans-63" x="592.257812"/>
      <use xlink:href="#DejaVuSans-63" x="647.238281"/>
      <use xlink:href="#DejaVuSans-75" x="702.21875"/>
      <use xlink:href="#DejaVuSans-72" x="765.597656"/>
      <use xlink:href="#DejaVuSans-61" x="806.710938"/>
      <use xlink:href="#DejaVuSans-63" x="867.990234"/>
      <use xlink:href="#DejaVuSans-79" x="922.970703"/>
     </g>
    </g>
    <g id="line2d_27">
     <path d="M 216.18875 263.648062 
L 226.18875 263.648062 
L 236.18875 263.648062 
" style="fill: none; stroke: #2ca02c; stroke-width: 1.5; stroke-linecap: square"/>
    </g>
    <g id="text_25">
     <!-- Robust Validation Accuracy -->
     <g transform="translate(244.18875 267.148062) scale(0.1 -0.1)">
      <defs>
       <path id="DejaVuSans-52" d="M 2841 2188 
Q 3044 2119 3236 1894 
Q 3428 1669 3622 1275 
L 4263 0 
L 3584 0 
L 2988 1197 
Q 2756 1666 2539 1819 
Q 2322 1972 1947 1972 
L 1259 1972 
L 1259 0 
L 628 0 
L 628 4666 
L 2053 4666 
Q 2853 4666 3247 4331 
Q 3641 3997 3641 3322 
Q 3641 2881 3436 2590 
Q 3231 2300 2841 2188 
z
M 1259 4147 
L 1259 2491 
L 2053 2491 
Q 2509 2491 2742 2702 
Q 2975 2913 2975 3322 
Q 2975 3731 2742 3939 
Q 2509 4147 2053 4147 
L 1259 4147 
z
" transform="scale(0.015625)"/>
       <path id="DejaVuSans-62" d="M 3116 1747 
Q 3116 2381 2855 2742 
Q 2594 3103 2138 3103 
Q 1681 3103 1420 2742 
Q 1159 2381 1159 1747 
Q 1159 1113 1420 752 
Q 1681 391 2138 391 
Q 2594 391 2855 752 
Q 3116 1113 3116 1747 
z
M 1159 2969 
Q 1341 3281 1617 3432 
Q 1894 3584 2278 3584 
Q 2916 3584 3314 3078 
Q 3713 2572 3713 1747 
Q 3713 922 3314 415 
Q 2916 -91 2278 -91 
Q 1894 -91 1617 61 
Q 1341 213 1159 525 
L 1159 0 
L 581 0 
L 581 4863 
L 1159 4863 
L 1159 2969 
z
" transform="scale(0.015625)"/>
      </defs>
      <use xlink:href="#DejaVuSans-52"/>
      <use xlink:href="#DejaVuSans-6f" x="64.982422"/>
      <use xlink:href="#DejaVuSans-62" x="126.164062"/>
      <use xlink:href="#DejaVuSans-75" x="189.640625"/>
      <use xlink:href="#DejaVuSans-73" x="253.019531"/>
      <use xlink:href="#DejaVuSans-74" x="305.119141"/>
      <use xlink:href="#DejaVuSans-20" x="344.328125"/>
      <use xlink:href="#DejaVuSans-56" x="376.115234"/>
      <use xlink:href="#DejaVuSans-61" x="436.773438"/>
      <use xlink:href="#DejaVuSans-6c" x="498.052734"/>
      <use xlink:href="#DejaVuSans-69" x="525.835938"/>
      <use xlink:href="#DejaVuSans-64" x="553.619141"/>
      <use xlink:href="#DejaVuSans-61" x="617.095703"/>
      <use xlink:href="#DejaVuSans-74" x="678.375"/>
      <use xlink:href="#DejaVuSans-69" x="717.583984"/>
      <use xlink:href="#DejaVuSans-6f" x="745.367188"/>
      <use xlink:href="#DejaVuSans-6e" x="806.548828"/>
      <use xlink:href="#DejaVuSans-20" x="869.927734"/>
      <use xlink:href="#DejaVuSans-41" x="901.714844"/>
      <use xlink:href="#DejaVuSans-63" x="968.373047"/>
      <use xlink:href="#DejaVuSans-63" x="1023.353516"/>
      <use xlink:href="#DejaVuSans-75" x="1078.333984"/>
      <use xlink:href="#DejaVuSans-72" x="1141.712891"/>
      <use xlink:href="#DejaVuSans-61" x="1182.826172"/>
      <use xlink:href="#DejaVuSans-63" x="1244.105469"/>
      <use xlink:href="#DejaVuSans-79" x="1299.085938"/>
     </g>
    </g>
    <g id="line2d_28">
     <path d="M 216.18875 278.326188 
L 226.18875 278.326188 
L 236.18875 278.326188 
" style="fill: none; stroke: #d62728; stroke-width: 1.5; stroke-linecap: square"/>
    </g>
    <g id="text_26">
     <!-- SWA Validation Accuracy -->
     <g transform="translate(244.18875 281.826188) scale(0.1 -0.1)">
      <defs>
       <path id="DejaVuSans-53" d="M 3425 4513 
L 3425 3897 
Q 3066 4069 2747 4153 
Q 2428 4238 2131 4238 
Q 1616 4238 1336 4038 
Q 1056 3838 1056 3469 
Q 1056 3159 1242 3001 
Q 1428 2844 1947 2747 
L 2328 2669 
Q 3034 2534 3370 2195 
Q 3706 1856 3706 1288 
Q 3706 609 3251 259 
Q 2797 -91 1919 -91 
Q 1588 -91 1214 -16 
Q 841 59 441 206 
L 441 856 
Q 825 641 1194 531 
Q 1563 422 1919 422 
Q 2459 422 2753 634 
Q 3047 847 3047 1241 
Q 3047 1584 2836 1778 
Q 2625 1972 2144 2069 
L 1759 2144 
Q 1053 2284 737 2584 
Q 422 2884 422 3419 
Q 422 4038 858 4394 
Q 1294 4750 2059 4750 
Q 2388 4750 2728 4690 
Q 3069 4631 3425 4513 
z
" transform="scale(0.015625)"/>
       <path id="DejaVuSans-57" d="M 213 4666 
L 850 4666 
L 1831 722 
L 2809 4666 
L 3519 4666 
L 4500 722 
L 5478 4666 
L 6119 4666 
L 4947 0 
L 4153 0 
L 3169 4050 
L 2175 0 
L 1381 0 
L 213 4666 
z
" transform="scale(0.015625)"/>
      </defs>
      <use xlink:href="#DejaVuSans-53"/>
      <use xlink:href="#DejaVuSans-57" x="63.476562"/>
      <use xlink:href="#DejaVuSans-41" x="156.853516"/>
      <use xlink:href="#DejaVuSans-20" x="225.261719"/>
      <use xlink:href="#DejaVuSans-56" x="257.048828"/>
      <use xlink:href="#DejaVuSans-61" x="317.707031"/>
      <use xlink:href="#DejaVuSans-6c" x="378.986328"/>
      <use xlink:href="#DejaVuSans-69" x="406.769531"/>
      <use xlink:href="#DejaVuSans-64" x="434.552734"/>
      <use xlink:href="#DejaVuSans-61" x="498.029297"/>
      <use xlink:href="#DejaVuSans-74" x="559.308594"/>
      <use xlink:href="#DejaVuSans-69" x="598.517578"/>
      <use xlink:href="#DejaVuSans-6f" x="626.300781"/>
      <use xlink:href="#DejaVuSans-6e" x="687.482422"/>
      <use xlink:href="#DejaVuSans-20" x="750.861328"/>
      <use xlink:href="#DejaVuSans-41" x="782.648438"/>
      <use xlink:href="#DejaVuSans-63" x="849.306641"/>
      <use xlink:href="#DejaVuSans-63" x="904.287109"/>
      <use xlink:href="#DejaVuSans-75" x="959.267578"/>
      <use xlink:href="#DejaVuSans-72" x="1022.646484"/>
      <use xlink:href="#DejaVuSans-61" x="1063.759766"/>
      <use xlink:href="#DejaVuSans-63" x="1125.039062"/>
      <use xlink:href="#DejaVuSans-79" x="1180.019531"/>
     </g>
    </g>
    <g id="line2d_29">
     <path d="M 216.18875 293.004312 
L 226.18875 293.004312 
L 236.18875 293.004312 
" style="fill: none; stroke: #9467bd; stroke-width: 1.5; stroke-linecap: square"/>
    </g>
    <g id="text_27">
     <!-- SWA Robust Validation Accuracy -->
     <g transform="translate(244.18875 296.504312) scale(0.1 -0.1)">
      <use xlink:href="#DejaVuSans-53"/>
      <use xlink:href="#DejaVuSans-57" x="63.476562"/>
      <use xlink:href="#DejaVuSans-41" x="156.853516"/>
      <use xlink:href="#DejaVuSans-20" x="225.261719"/>
      <use xlink:href="#DejaVuSans-52" x="257.048828"/>
      <use xlink:href="#DejaVuSans-6f" x="322.03125"/>
      <use xlink:href="#DejaVuSans-62" x="383.212891"/>
      <use xlink:href="#DejaVuSans-75" x="446.689453"/>
      <use xlink:href="#DejaVuSans-73" x="510.068359"/>
      <use xlink:href="#DejaVuSans-74" x="562.167969"/>
      <use xlink:href="#DejaVuSans-20" x="601.376953"/>
      <use xlink:href="#DejaVuSans-56" x="633.164062"/>
      <use xlink:href="#DejaVuSans-61" x="693.822266"/>
      <use xlink:href="#DejaVuSans-6c" x="755.101562"/>
      <use xlink:href="#DejaVuSans-69" x="782.884766"/>
      <use xlink:href="#DejaVuSans-64" x="810.667969"/>
      <use xlink:href="#DejaVuSans-61" x="874.144531"/>
      <use xlink:href="#DejaVuSans-74" x="935.423828"/>
      <use xlink:href="#DejaVuSans-69" x="974.632812"/>
      <use xlink:href="#DejaVuSans-6f" x="1002.416016"/>
      <use xlink:href="#DejaVuSans-6e" x="1063.597656"/>
      <use xlink:href="#DejaVuSans-20" x="1126.976562"/>
      <use xlink:href="#DejaVuSans-41" x="1158.763672"/>
      <use xlink:href="#DejaVuSans-63" x="1225.421875"/>
      <use xlink:href="#DejaVuSans-63" x="1280.402344"/>
      <use xlink:href="#DejaVuSans-75" x="1335.382812"/>
      <use xlink:href="#DejaVuSans-72" x="1398.761719"/>
      <use xlink:href="#DejaVuSans-61" x="1439.875"/>
      <use xlink:href="#DejaVuSans-63" x="1501.154297"/>
      <use xlink:href="#DejaVuSans-79" x="1556.134766"/>
     </g>
    </g>
   </g>
  </g>
 </g>
 <defs>
  <clipPath id="p215a15b0bc">
   <rect x="57.6" y="41.472" width="357.12" height="266.112"/>
  </clipPath>
 </defs>
</svg>
