<?xml version="1.0" encoding="utf-8" standalone="no"?>
<!DOCTYPE svg PUBLIC "-//W3C//DTD SVG 1.1//EN"
  "http://www.w3.org/Graphics/SVG/1.1/DTD/svg11.dtd">
<svg xmlns:xlink="http://www.w3.org/1999/xlink" width="460.8pt" height="345.6pt" viewBox="0 0 460.8 345.6" xmlns="http://www.w3.org/2000/svg" version="1.1">
 <metadata>
  <rdf:RDF xmlns:dc="http://purl.org/dc/elements/1.1/" xmlns:cc="http://creativecommons.org/ns#" xmlns:rdf="http://www.w3.org/1999/02/22-rdf-syntax-ns#">
   <cc:Work>
    <dc:type rdf:resource="http://purl.org/dc/dcmitype/StillImage"/>
    <dc:date>2025-01-09T23:57:14.476074</dc:date>
    <dc:format>image/svg+xml</dc:format>
    <dc:creator>
     <cc:Agent>
      <dc:title>Matplotlib v3.9.1, https://matplotlib.org/</dc:title>
     </cc:Agent>
    </dc:creator>
   </cc:Work>
  </rdf:RDF>
 </metadata>
 <defs>
  <style type="text/css">*{stroke-linejoin: round; stroke-linecap: butt}</style>
 </defs>
 <g id="figure_1">
  <g id="patch_1">
   <path d="M 0 345.6 
L 460.8 345.6 
L 460.8 0 
L 0 0 
z
" style="fill: #ffffff"/>
  </g>
  <g id="axes_1">
   <g id="patch_2">
    <path d="M 57.6 307.584 
L 414.72 307.584 
L 414.72 41.472 
L 57.6 41.472 
z
" style="fill: #ffffff"/>
   </g>
   <g id="matplotlib.axis_1">
    <g id="xtick_1">
     <g id="line2d_1">
      <defs>
       <path id="m9ada812c72" d="M 0 0 
L 0 3.5 
" style="stroke: #000000; stroke-width: 0.8"/>
      </defs>
      <g>
       <use xlink:href="#m9ada812c72" x="73.832727" y="307.584" style="stroke: #000000; stroke-width: 0.8"/>
      </g>
     </g>
     <g id="text_1">
      <!-- 1 -->
      <g transform="translate(70.651477 322.182437) scale(0.1 -0.1)">
       <defs>
        <path id="DejaVuSans-31" d="M 794 531 
L 1825 531 
L 1825 4091 
L 703 3866 
L 703 4441 
L 1819 4666 
L 2450 4666 
L 2450 531 
L 3481 531 
L 3481 0 
L 794 0 
L 794 531 
z
" transform="scale(0.015625)"/>
       </defs>
       <use xlink:href="#DejaVuSans-31"/>
      </g>
     </g>
    </g>
    <g id="xtick_2">
     <g id="line2d_2">
      <g>
       <use xlink:href="#m9ada812c72" x="109.664165" y="307.584" style="stroke: #000000; stroke-width: 0.8"/>
      </g>
     </g>
     <g id="text_2">
      <!-- 34 -->
      <g transform="translate(103.301665 322.182437) scale(0.1 -0.1)">
       <defs>
        <path id="DejaVuSans-33" d="M 2597 2516 
Q 3050 2419 3304 2112 
Q 3559 1806 3559 1356 
Q 3559 666 3084 287 
Q 2609 -91 1734 -91 
Q 1441 -91 1130 -33 
Q 819 25 488 141 
L 488 750 
Q 750 597 1062 519 
Q 1375 441 1716 441 
Q 2309 441 2620 675 
Q 2931 909 2931 1356 
Q 2931 1769 2642 2001 
Q 2353 2234 1838 2234 
L 1294 2234 
L 1294 2753 
L 1863 2753 
Q 2328 2753 2575 2939 
Q 2822 3125 2822 3475 
Q 2822 3834 2567 4026 
Q 2313 4219 1838 4219 
Q 1578 4219 1281 4162 
Q 984 4106 628 3988 
L 628 4550 
Q 988 4650 1302 4700 
Q 1616 4750 1894 4750 
Q 2613 4750 3031 4423 
Q 3450 4097 3450 3541 
Q 3450 3153 3228 2886 
Q 3006 2619 2597 2516 
z
" transform="scale(0.015625)"/>
        <path id="DejaVuSans-34" d="M 2419 4116 
L 825 1625 
L 2419 1625 
L 2419 4116 
z
M 2253 4666 
L 3047 4666 
L 3047 1625 
L 3713 1625 
L 3713 1100 
L 3047 1100 
L 3047 0 
L 2419 0 
L 2419 1100 
L 313 1100 
L 313 1709 
L 2253 4666 
z
" transform="scale(0.015625)"/>
       </defs>
       <use xlink:href="#DejaVuSans-33"/>
       <use xlink:href="#DejaVuSans-34" x="63.623047"/>
      </g>
     </g>
    </g>
    <g id="xtick_3">
     <g id="line2d_3">
      <g>
       <use xlink:href="#m9ada812c72" x="145.495604" y="307.584" style="stroke: #000000; stroke-width: 0.8"/>
      </g>
     </g>
     <g id="text_3">
      <!-- 67 -->
      <g transform="translate(139.133104 322.182437) scale(0.1 -0.1)">
       <defs>
        <path id="DejaVuSans-36" d="M 2113 2584 
Q 1688 2584 1439 2293 
Q 1191 2003 1191 1497 
Q 1191 994 1439 701 
Q 1688 409 2113 409 
Q 2538 409 2786 701 
Q 3034 994 3034 1497 
Q 3034 2003 2786 2293 
Q 2538 2584 2113 2584 
z
M 3366 4563 
L 3366 3988 
Q 3128 4100 2886 4159 
Q 2644 4219 2406 4219 
Q 1781 4219 1451 3797 
Q 1122 3375 1075 2522 
Q 1259 2794 1537 2939 
Q 1816 3084 2150 3084 
Q 2853 3084 3261 2657 
Q 3669 2231 3669 1497 
Q 3669 778 3244 343 
Q 2819 -91 2113 -91 
Q 1303 -91 875 529 
Q 447 1150 447 2328 
Q 447 3434 972 4092 
Q 1497 4750 2381 4750 
Q 2619 4750 2861 4703 
Q 3103 4656 3366 4563 
z
" transform="scale(0.015625)"/>
        <path id="DejaVuSans-37" d="M 525 4666 
L 3525 4666 
L 3525 4397 
L 1831 0 
L 1172 0 
L 2766 4134 
L 525 4134 
L 525 4666 
z
" transform="scale(0.015625)"/>
       </defs>
       <use xlink:href="#DejaVuSans-36"/>
       <use xlink:href="#DejaVuSans-37" x="63.623047"/>
      </g>
     </g>
    </g>
    <g id="xtick_4">
     <g id="line2d_4">
      <g>
       <use xlink:href="#m9ada812c72" x="181.327042" y="307.584" style="stroke: #000000; stroke-width: 0.8"/>
      </g>
     </g>
     <g id="text_4">
      <!-- 100 -->
      <g transform="translate(171.783292 322.182437) scale(0.1 -0.1)">
       <defs>
        <path id="DejaVuSans-30" d="M 2034 4250 
Q 1547 4250 1301 3770 
Q 1056 3291 1056 2328 
Q 1056 1369 1301 889 
Q 1547 409 2034 409 
Q 2525 409 2770 889 
Q 3016 1369 3016 2328 
Q 3016 3291 2770 3770 
Q 2525 4250 2034 4250 
z
M 2034 4750 
Q 2819 4750 3233 4129 
Q 3647 3509 3647 2328 
Q 3647 1150 3233 529 
Q 2819 -91 2034 -91 
Q 1250 -91 836 529 
Q 422 1150 422 2328 
Q 422 3509 836 4129 
Q 1250 4750 2034 4750 
z
" transform="scale(0.015625)"/>
       </defs>
       <use xlink:href="#DejaVuSans-31"/>
       <use xlink:href="#DejaVuSans-30" x="63.623047"/>
       <use xlink:href="#DejaVuSans-30" x="127.246094"/>
      </g>
     </g>
    </g>
    <g id="xtick_5">
     <g id="line2d_5">
      <g>
       <use xlink:href="#m9ada812c72" x="217.15848" y="307.584" style="stroke: #000000; stroke-width: 0.8"/>
      </g>
     </g>
     <g id="text_5">
      <!-- 133 -->
      <g transform="translate(207.61473 322.182437) scale(0.1 -0.1)">
       <use xlink:href="#DejaVuSans-31"/>
       <use xlink:href="#DejaVuSans-33" x="63.623047"/>
       <use xlink:href="#DejaVuSans-33" x="127.246094"/>
      </g>
     </g>
    </g>
    <g id="xtick_6">
     <g id="line2d_6">
      <g>
       <use xlink:href="#m9ada812c72" x="254.075719" y="307.584" style="stroke: #000000; stroke-width: 0.8"/>
      </g>
     </g>
     <g id="text_6">
      <!-- 167 -->
      <g transform="translate(244.531969 322.182437) scale(0.1 -0.1)">
       <use xlink:href="#DejaVuSans-31"/>
       <use xlink:href="#DejaVuSans-36" x="63.623047"/>
       <use xlink:href="#DejaVuSans-37" x="127.246094"/>
      </g>
     </g>
    </g>
    <g id="xtick_7">
     <g id="line2d_7">
      <g>
       <use xlink:href="#m9ada812c72" x="289.907157" y="307.584" style="stroke: #000000; stroke-width: 0.8"/>
      </g>
     </g>
     <g id="text_7">
      <!-- 200 -->
      <g transform="translate(280.363407 322.182437) scale(0.1 -0.1)">
       <defs>
        <path id="DejaVuSans-32" d="M 1228 531 
L 3431 531 
L 3431 0 
L 469 0 
L 469 531 
Q 828 903 1448 1529 
Q 2069 2156 2228 2338 
Q 2531 2678 2651 2914 
Q 2772 3150 2772 3378 
Q 2772 3750 2511 3984 
Q 2250 4219 1831 4219 
Q 1534 4219 1204 4116 
Q 875 4013 500 3803 
L 500 4441 
Q 881 4594 1212 4672 
Q 1544 4750 1819 4750 
Q 2544 4750 2975 4387 
Q 3406 4025 3406 3419 
Q 3406 3131 3298 2873 
Q 3191 2616 2906 2266 
Q 2828 2175 2409 1742 
Q 1991 1309 1228 531 
z
" transform="scale(0.015625)"/>
       </defs>
       <use xlink:href="#DejaVuSans-32"/>
       <use xlink:href="#DejaVuSans-30" x="63.623047"/>
       <use xlink:href="#DejaVuSans-30" x="127.246094"/>
      </g>
     </g>
    </g>
    <g id="xtick_8">
     <g id="line2d_8">
      <g>
       <use xlink:href="#m9ada812c72" x="325.738595" y="307.584" style="stroke: #000000; stroke-width: 0.8"/>
      </g>
     </g>
     <g id="text_8">
      <!-- 233 -->
      <g transform="translate(316.194845 322.182437) scale(0.1 -0.1)">
       <use xlink:href="#DejaVuSans-32"/>
       <use xlink:href="#DejaVuSans-33" x="63.623047"/>
       <use xlink:href="#DejaVuSans-33" x="127.246094"/>
      </g>
     </g>
    </g>
    <g id="xtick_9">
     <g id="line2d_9">
      <g>
       <use xlink:href="#m9ada812c72" x="361.570033" y="307.584" style="stroke: #000000; stroke-width: 0.8"/>
      </g>
     </g>
     <g id="text_9">
      <!-- 266 -->
      <g transform="translate(352.026283 322.182437) scale(0.1 -0.1)">
       <use xlink:href="#DejaVuSans-32"/>
       <use xlink:href="#DejaVuSans-36" x="63.623047"/>
       <use xlink:href="#DejaVuSans-36" x="127.246094"/>
      </g>
     </g>
    </g>
    <g id="xtick_10">
     <g id="line2d_10">
      <g>
       <use xlink:href="#m9ada812c72" x="398.487273" y="307.584" style="stroke: #000000; stroke-width: 0.8"/>
      </g>
     </g>
     <g id="text_10">
      <!-- 300 -->
      <g transform="translate(388.943523 322.182437) scale(0.1 -0.1)">
       <use xlink:href="#DejaVuSans-33"/>
       <use xlink:href="#DejaVuSans-30" x="63.623047"/>
       <use xlink:href="#DejaVuSans-30" x="127.246094"/>
      </g>
     </g>
    </g>
    <g id="text_11">
     <!-- Epochs -->
     <g transform="translate(218.244375 335.860562) scale(0.1 -0.1)">
      <defs>
       <path id="DejaVuSans-45" d="M 628 4666 
L 3578 4666 
L 3578 4134 
L 1259 4134 
L 1259 2753 
L 3481 2753 
L 3481 2222 
L 1259 2222 
L 1259 531 
L 3634 531 
L 3634 0 
L 628 0 
L 628 4666 
z
" transform="scale(0.015625)"/>
       <path id="DejaVuSans-70" d="M 1159 525 
L 1159 -1331 
L 581 -1331 
L 581 3500 
L 1159 3500 
L 1159 2969 
Q 1341 3281 1617 3432 
Q 1894 3584 2278 3584 
Q 2916 3584 3314 3078 
Q 3713 2572 3713 1747 
Q 3713 922 3314 415 
Q 2916 -91 2278 -91 
Q 1894 -91 1617 61 
Q 1341 213 1159 525 
z
M 3116 1747 
Q 3116 2381 2855 2742 
Q 2594 3103 2138 3103 
Q 1681 3103 1420 2742 
Q 1159 2381 1159 1747 
Q 1159 1113 1420 752 
Q 1681 391 2138 391 
Q 2594 391 2855 752 
Q 3116 1113 3116 1747 
z
" transform="scale(0.015625)"/>
       <path id="DejaVuSans-6f" d="M 1959 3097 
Q 1497 3097 1228 2736 
Q 959 2375 959 1747 
Q 959 1119 1226 758 
Q 1494 397 1959 397 
Q 2419 397 2687 759 
Q 2956 1122 2956 1747 
Q 2956 2369 2687 2733 
Q 2419 3097 1959 3097 
z
M 1959 3584 
Q 2709 3584 3137 3096 
Q 3566 2609 3566 1747 
Q 3566 888 3137 398 
Q 2709 -91 1959 -91 
Q 1206 -91 779 398 
Q 353 888 353 1747 
Q 353 2609 779 3096 
Q 1206 3584 1959 3584 
z
" transform="scale(0.015625)"/>
       <path id="DejaVuSans-63" d="M 3122 3366 
L 3122 2828 
Q 2878 2963 2633 3030 
Q 2388 3097 2138 3097 
Q 1578 3097 1268 2742 
Q 959 2388 959 1747 
Q 959 1106 1268 751 
Q 1578 397 2138 397 
Q 2388 397 2633 464 
Q 2878 531 3122 666 
L 3122 134 
Q 2881 22 2623 -34 
Q 2366 -91 2075 -91 
Q 1284 -91 818 406 
Q 353 903 353 1747 
Q 353 2603 823 3093 
Q 1294 3584 2113 3584 
Q 2378 3584 2631 3529 
Q 2884 3475 3122 3366 
z
" transform="scale(0.015625)"/>
       <path id="DejaVuSans-68" d="M 3513 2113 
L 3513 0 
L 2938 0 
L 2938 2094 
Q 2938 2591 2744 2837 
Q 2550 3084 2163 3084 
Q 1697 3084 1428 2787 
Q 1159 2491 1159 1978 
L 1159 0 
L 581 0 
L 581 4863 
L 1159 4863 
L 1159 2956 
Q 1366 3272 1645 3428 
Q 1925 3584 2291 3584 
Q 2894 3584 3203 3211 
Q 3513 2838 3513 2113 
z
" transform="scale(0.015625)"/>
       <path id="DejaVuSans-73" d="M 2834 3397 
L 2834 2853 
Q 2591 2978 2328 3040 
Q 2066 3103 1784 3103 
Q 1356 3103 1142 2972 
Q 928 2841 928 2578 
Q 928 2378 1081 2264 
Q 1234 2150 1697 2047 
L 1894 2003 
Q 2506 1872 2764 1633 
Q 3022 1394 3022 966 
Q 3022 478 2636 193 
Q 2250 -91 1575 -91 
Q 1294 -91 989 -36 
Q 684 19 347 128 
L 347 722 
Q 666 556 975 473 
Q 1284 391 1588 391 
Q 1994 391 2212 530 
Q 2431 669 2431 922 
Q 2431 1156 2273 1281 
Q 2116 1406 1581 1522 
L 1381 1569 
Q 847 1681 609 1914 
Q 372 2147 372 2553 
Q 372 3047 722 3315 
Q 1072 3584 1716 3584 
Q 2034 3584 2315 3537 
Q 2597 3491 2834 3397 
z
" transform="scale(0.015625)"/>
      </defs>
      <use xlink:href="#DejaVuSans-45"/>
      <use xlink:href="#DejaVuSans-70" x="63.183594"/>
      <use xlink:href="#DejaVuSans-6f" x="126.660156"/>
      <use xlink:href="#DejaVuSans-63" x="187.841797"/>
      <use xlink:href="#DejaVuSans-68" x="242.822266"/>
      <use xlink:href="#DejaVuSans-73" x="306.201172"/>
     </g>
    </g>
   </g>
   <g id="matplotlib.axis_2">
    <g id="ytick_1">
     <g id="line2d_11">
      <defs>
       <path id="m7d200aa58d" d="M 0 0 
L -3.5 0 
" style="stroke: #000000; stroke-width: 0.8"/>
      </defs>
      <g>
       <use xlink:href="#m7d200aa58d" x="57.6" y="287.722608" style="stroke: #000000; stroke-width: 0.8"/>
      </g>
     </g>
     <g id="text_12">
      <!-- 10 -->
      <g transform="translate(37.875 291.521827) scale(0.1 -0.1)">
       <use xlink:href="#DejaVuSans-31"/>
       <use xlink:href="#DejaVuSans-30" x="63.623047"/>
      </g>
     </g>
    </g>
    <g id="ytick_2">
     <g id="line2d_12">
      <g>
       <use xlink:href="#m7d200aa58d" x="57.6" y="257.901593" style="stroke: #000000; stroke-width: 0.8"/>
      </g>
     </g>
     <g id="text_13">
      <!-- 20 -->
      <g transform="translate(37.875 261.700812) scale(0.1 -0.1)">
       <use xlink:href="#DejaVuSans-32"/>
       <use xlink:href="#DejaVuSans-30" x="63.623047"/>
      </g>
     </g>
    </g>
    <g id="ytick_3">
     <g id="line2d_13">
      <g>
       <use xlink:href="#m7d200aa58d" x="57.6" y="228.080578" style="stroke: #000000; stroke-width: 0.8"/>
      </g>
     </g>
     <g id="text_14">
      <!-- 30 -->
      <g transform="translate(37.875 231.879797) scale(0.1 -0.1)">
       <use xlink:href="#DejaVuSans-33"/>
       <use xlink:href="#DejaVuSans-30" x="63.623047"/>
      </g>
     </g>
    </g>
    <g id="ytick_4">
     <g id="line2d_14">
      <g>
       <use xlink:href="#m7d200aa58d" x="57.6" y="198.259564" style="stroke: #000000; stroke-width: 0.8"/>
      </g>
     </g>
     <g id="text_15">
      <!-- 40 -->
      <g transform="translate(37.875 202.058782) scale(0.1 -0.1)">
       <use xlink:href="#DejaVuSans-34"/>
       <use xlink:href="#DejaVuSans-30" x="63.623047"/>
      </g>
     </g>
    </g>
    <g id="ytick_5">
     <g id="line2d_15">
      <g>
       <use xlink:href="#m7d200aa58d" x="57.6" y="168.438549" style="stroke: #000000; stroke-width: 0.8"/>
      </g>
     </g>
     <g id="text_16">
      <!-- 50 -->
      <g transform="translate(37.875 172.237768) scale(0.1 -0.1)">
       <defs>
        <path id="DejaVuSans-35" d="M 691 4666 
L 3169 4666 
L 3169 4134 
L 1269 4134 
L 1269 2991 
Q 1406 3038 1543 3061 
Q 1681 3084 1819 3084 
Q 2600 3084 3056 2656 
Q 3513 2228 3513 1497 
Q 3513 744 3044 326 
Q 2575 -91 1722 -91 
Q 1428 -91 1123 -41 
Q 819 9 494 109 
L 494 744 
Q 775 591 1075 516 
Q 1375 441 1709 441 
Q 2250 441 2565 725 
Q 2881 1009 2881 1497 
Q 2881 1984 2565 2268 
Q 2250 2553 1709 2553 
Q 1456 2553 1204 2497 
Q 953 2441 691 2322 
L 691 4666 
z
" transform="scale(0.015625)"/>
       </defs>
       <use xlink:href="#DejaVuSans-35"/>
       <use xlink:href="#DejaVuSans-30" x="63.623047"/>
      </g>
     </g>
    </g>
    <g id="ytick_6">
     <g id="line2d_16">
      <g>
       <use xlink:href="#m7d200aa58d" x="57.6" y="138.617534" style="stroke: #000000; stroke-width: 0.8"/>
      </g>
     </g>
     <g id="text_17">
      <!-- 60 -->
      <g transform="translate(37.875 142.416753) scale(0.1 -0.1)">
       <use xlink:href="#DejaVuSans-36"/>
       <use xlink:href="#DejaVuSans-30" x="63.623047"/>
      </g>
     </g>
    </g>
    <g id="ytick_7">
     <g id="line2d_17">
      <g>
       <use xlink:href="#m7d200aa58d" x="57.6" y="108.796519" style="stroke: #000000; stroke-width: 0.8"/>
      </g>
     </g>
     <g id="text_18">
      <!-- 70 -->
      <g transform="translate(37.875 112.595738) scale(0.1 -0.1)">
       <use xlink:href="#DejaVuSans-37"/>
       <use xlink:href="#DejaVuSans-30" x="63.623047"/>
      </g>
     </g>
    </g>
    <g id="ytick_8">
     <g id="line2d_18">
      <g>
       <use xlink:href="#m7d200aa58d" x="57.6" y="78.975505" style="stroke: #000000; stroke-width: 0.8"/>
      </g>
     </g>
     <g id="text_19">
      <!-- 80 -->
      <g transform="translate(37.875 82.774723) scale(0.1 -0.1)">
       <defs>
        <path id="DejaVuSans-38" d="M 2034 2216 
Q 1584 2216 1326 1975 
Q 1069 1734 1069 1313 
Q 1069 891 1326 650 
Q 1584 409 2034 409 
Q 2484 409 2743 651 
Q 3003 894 3003 1313 
Q 3003 1734 2745 1975 
Q 2488 2216 2034 2216 
z
M 1403 2484 
Q 997 2584 770 2862 
Q 544 3141 544 3541 
Q 544 4100 942 4425 
Q 1341 4750 2034 4750 
Q 2731 4750 3128 4425 
Q 3525 4100 3525 3541 
Q 3525 3141 3298 2862 
Q 3072 2584 2669 2484 
Q 3125 2378 3379 2068 
Q 3634 1759 3634 1313 
Q 3634 634 3220 271 
Q 2806 -91 2034 -91 
Q 1263 -91 848 271 
Q 434 634 434 1313 
Q 434 1759 690 2068 
Q 947 2378 1403 2484 
z
M 1172 3481 
Q 1172 3119 1398 2916 
Q 1625 2713 2034 2713 
Q 2441 2713 2670 2916 
Q 2900 3119 2900 3481 
Q 2900 3844 2670 4047 
Q 2441 4250 2034 4250 
Q 1625 4250 1398 4047 
Q 1172 3844 1172 3481 
z
" transform="scale(0.015625)"/>
       </defs>
       <use xlink:href="#DejaVuSans-38"/>
       <use xlink:href="#DejaVuSans-30" x="63.623047"/>
      </g>
     </g>
    </g>
    <g id="ytick_9">
     <g id="line2d_19">
      <g>
       <use xlink:href="#m7d200aa58d" x="57.6" y="49.15449" style="stroke: #000000; stroke-width: 0.8"/>
      </g>
     </g>
     <g id="text_20">
      <!-- 90 -->
      <g transform="translate(37.875 52.953709) scale(0.1 -0.1)">
       <defs>
        <path id="DejaVuSans-39" d="M 703 97 
L 703 672 
Q 941 559 1184 500 
Q 1428 441 1663 441 
Q 2288 441 2617 861 
Q 2947 1281 2994 2138 
Q 2813 1869 2534 1725 
Q 2256 1581 1919 1581 
Q 1219 1581 811 2004 
Q 403 2428 403 3163 
Q 403 3881 828 4315 
Q 1253 4750 1959 4750 
Q 2769 4750 3195 4129 
Q 3622 3509 3622 2328 
Q 3622 1225 3098 567 
Q 2575 -91 1691 -91 
Q 1453 -91 1209 -44 
Q 966 3 703 97 
z
M 1959 2075 
Q 2384 2075 2632 2365 
Q 2881 2656 2881 3163 
Q 2881 3666 2632 3958 
Q 2384 4250 1959 4250 
Q 1534 4250 1286 3958 
Q 1038 3666 1038 3163 
Q 1038 2656 1286 2365 
Q 1534 2075 1959 2075 
z
" transform="scale(0.015625)"/>
       </defs>
       <use xlink:href="#DejaVuSans-39"/>
       <use xlink:href="#DejaVuSans-30" x="63.623047"/>
      </g>
     </g>
    </g>
    <g id="text_21">
     <!-- Accuracy -->
     <g transform="translate(31.795312 197.356125) rotate(-90) scale(0.1 -0.1)">
      <defs>
       <path id="DejaVuSans-41" d="M 2188 4044 
L 1331 1722 
L 3047 1722 
L 2188 4044 
z
M 1831 4666 
L 2547 4666 
L 4325 0 
L 3669 0 
L 3244 1197 
L 1141 1197 
L 716 0 
L 50 0 
L 1831 4666 
z
" transform="scale(0.015625)"/>
       <path id="DejaVuSans-75" d="M 544 1381 
L 544 3500 
L 1119 3500 
L 1119 1403 
Q 1119 906 1312 657 
Q 1506 409 1894 409 
Q 2359 409 2629 706 
Q 2900 1003 2900 1516 
L 2900 3500 
L 3475 3500 
L 3475 0 
L 2900 0 
L 2900 538 
Q 2691 219 2414 64 
Q 2138 -91 1772 -91 
Q 1169 -91 856 284 
Q 544 659 544 1381 
z
M 1991 3584 
L 1991 3584 
z
" transform="scale(0.015625)"/>
       <path id="DejaVuSans-72" d="M 2631 2963 
Q 2534 3019 2420 3045 
Q 2306 3072 2169 3072 
Q 1681 3072 1420 2755 
Q 1159 2438 1159 1844 
L 1159 0 
L 581 0 
L 581 3500 
L 1159 3500 
L 1159 2956 
Q 1341 3275 1631 3429 
Q 1922 3584 2338 3584 
Q 2397 3584 2469 3576 
Q 2541 3569 2628 3553 
L 2631 2963 
z
" transform="scale(0.015625)"/>
       <path id="DejaVuSans-61" d="M 2194 1759 
Q 1497 1759 1228 1600 
Q 959 1441 959 1056 
Q 959 750 1161 570 
Q 1363 391 1709 391 
Q 2188 391 2477 730 
Q 2766 1069 2766 1631 
L 2766 1759 
L 2194 1759 
z
M 3341 1997 
L 3341 0 
L 2766 0 
L 2766 531 
Q 2569 213 2275 61 
Q 1981 -91 1556 -91 
Q 1019 -91 701 211 
Q 384 513 384 1019 
Q 384 1609 779 1909 
Q 1175 2209 1959 2209 
L 2766 2209 
L 2766 2266 
Q 2766 2663 2505 2880 
Q 2244 3097 1772 3097 
Q 1472 3097 1187 3025 
Q 903 2953 641 2809 
L 641 3341 
Q 956 3463 1253 3523 
Q 1550 3584 1831 3584 
Q 2591 3584 2966 3190 
Q 3341 2797 3341 1997 
z
" transform="scale(0.015625)"/>
       <path id="DejaVuSans-79" d="M 2059 -325 
Q 1816 -950 1584 -1140 
Q 1353 -1331 966 -1331 
L 506 -1331 
L 506 -850 
L 844 -850 
Q 1081 -850 1212 -737 
Q 1344 -625 1503 -206 
L 1606 56 
L 191 3500 
L 800 3500 
L 1894 763 
L 2988 3500 
L 3597 3500 
L 2059 -325 
z
" transform="scale(0.015625)"/>
      </defs>
      <use xlink:href="#DejaVuSans-41"/>
      <use xlink:href="#DejaVuSans-63" x="66.658203"/>
      <use xlink:href="#DejaVuSans-63" x="121.638672"/>
      <use xlink:href="#DejaVuSans-75" x="176.619141"/>
      <use xlink:href="#DejaVuSans-72" x="239.998047"/>
      <use xlink:href="#DejaVuSans-61" x="281.111328"/>
      <use xlink:href="#DejaVuSans-63" x="342.390625"/>
      <use xlink:href="#DejaVuSans-79" x="397.371094"/>
     </g>
    </g>
   </g>
   <g id="line2d_20">
    <path d="M 73.832727 295.488 
L 76.00433 252.253493 
L 78.175932 222.450371 
L 80.347534 200.710851 
L 82.519137 186.247659 
L 84.690739 173.299374 
L 86.862341 163.088659 
L 89.033943 153.718896 
L 90.119745 149.305386 
L 91.205546 146.597638 
L 92.291347 145.363048 
L 93.377148 142.178163 
L 94.462949 139.91773 
L 95.54875 172.237746 
L 96.634552 170.782481 
L 97.720353 167.448491 
L 98.806154 163.565795 
L 99.891955 161.341147 
L 100.977756 157.708948 
L 103.149358 152.406771 
L 104.23516 150.241766 
L 105.320961 147.015132 
L 106.406762 143.192078 
L 107.492563 141.414745 
L 108.578364 139.225883 
L 109.664165 136.506206 
L 112.921569 129.784549 
L 114.00737 127.005231 
L 115.093171 124.98933 
L 116.178972 122.52015 
L 119.436376 116.394914 
L 120.522177 113.406848 
L 121.607978 110.979418 
L 122.693779 109.792541 
L 123.77958 106.69712 
L 125.951183 102.39693 
L 128.122785 99.164332 
L 129.208586 97.381035 
L 132.46599 93.850227 
L 133.551791 92.394961 
L 134.637592 91.76872 
L 135.723393 91.506295 
L 136.809194 89.943674 
L 137.894995 90.176278 
L 138.980797 126.74877 
L 140.066598 129.617552 
L 141.152399 129.247771 
L 142.2382 129.050953 
L 143.324001 127.082766 
L 144.409802 126.593701 
L 146.581405 123.563886 
L 147.667206 123.283568 
L 148.753007 121.726911 
L 149.838808 121.178205 
L 150.924609 120.170254 
L 152.01041 118.231888 
L 153.096212 117.265687 
L 154.182013 116.854157 
L 155.267814 116.054954 
L 156.353615 114.40287 
L 158.525217 111.665301 
L 160.69682 110.293534 
L 161.782621 108.361132 
L 162.868422 107.711034 
L 165.040024 105.713026 
L 166.125825 105.736883 
L 167.211627 103.553985 
L 168.297428 101.87208 
L 169.383229 101.46055 
L 170.46903 100.029141 
L 171.554831 99.456577 
L 172.640632 97.565925 
L 173.726434 97.243858 
L 174.812235 95.7707 
L 175.898036 94.643466 
L 176.983837 94.178258 
L 178.069638 92.603708 
L 179.155439 91.24387 
L 180.24124 90.897946 
L 181.327042 89.985423 
L 183.498644 86.919823 
L 184.584445 86.866145 
L 185.670246 85.691197 
L 186.756047 84.277681 
L 187.841849 83.567941 
L 188.92765 82.106711 
L 190.013451 81.605718 
L 191.099252 80.782658 
L 192.185053 78.975505 
L 193.270854 78.987433 
L 194.356656 76.828391 
L 195.442457 75.880083 
L 196.528258 75.540124 
L 197.614059 74.991417 
L 198.69986 73.512295 
L 201.957264 70.732976 
L 203.043065 69.969558 
L 204.128866 70.196198 
L 205.214667 68.233975 
L 206.300468 68.19819 
L 207.386269 66.909922 
L 208.472071 67.404951 
L 209.557872 66.647497 
L 210.643673 65.281695 
L 211.729474 64.983484 
L 212.815275 64.804558 
L 213.901076 64.750881 
L 214.986877 63.921856 
L 216.072679 63.96957 
L 217.15848 63.003369 
L 218.244281 63.045118 
L 221.501684 62.62166 
L 222.587486 62.013311 
L 223.673287 63.03319 
L 224.759088 62.991441 
L 225.844889 99.027155 
L 226.93069 104.377045 
L 228.016491 104.836289 
L 229.102292 104.520186 
L 230.188094 105.092749 
L 231.273895 103.876052 
L 232.359696 104.472472 
L 233.445497 103.118598 
L 234.531298 103.285596 
L 235.617099 102.557963 
L 236.702901 101.293552 
L 238.874503 100.876058 
L 239.960304 100.088783 
L 241.046105 100.59574 
L 242.131906 99.713038 
L 243.217708 98.377057 
L 244.303509 98.341272 
L 245.38931 98.860157 
L 246.475111 98.53809 
L 247.560912 96.951612 
L 248.646713 96.790579 
L 249.732514 96.051018 
L 250.818316 95.096745 
L 252.989918 95.466526 
L 254.075719 93.581838 
L 255.16152 93.868119 
L 256.247321 93.522196 
L 257.333123 92.991381 
L 258.418924 92.746849 
L 260.590526 91.267727 
L 261.676327 91.363154 
L 262.762128 91.160371 
L 263.847929 90.623593 
L 264.933731 88.858189 
L 266.019532 89.788605 
L 267.105333 89.538108 
L 268.191134 88.094771 
L 269.276935 88.255804 
L 270.362736 86.890002 
L 271.448538 87.563957 
L 272.534339 86.12062 
L 273.62014 87.671312 
L 274.705941 86.550042 
L 275.791742 86.204119 
L 276.877543 85.07092 
L 277.963344 85.422808 
L 279.049146 84.54607 
L 280.134947 83.931757 
L 281.220748 83.579869 
L 282.306549 83.9079 
L 284.478151 82.452635 
L 285.563953 82.178282 
L 286.649754 81.66536 
L 287.735555 80.937727 
L 288.821356 80.711088 
L 289.907157 80.723016 
L 290.992958 80.096775 
L 292.07876 80.084846 
L 293.164561 78.707115 
L 294.250362 78.498368 
L 295.336163 78.432762 
L 297.507765 77.699165 
L 298.593566 76.971532 
L 299.679368 76.995389 
L 301.85097 75.83237 
L 302.936771 74.538138 
L 306.194175 74.78267 
L 307.279976 73.786648 
L 308.365777 73.637543 
L 309.451578 73.870147 
L 310.537379 72.969552 
L 311.62318 73.047087 
L 312.708981 71.538143 
L 314.880584 71.472537 
L 315.966385 70.297589 
L 317.052186 69.850274 
L 318.137987 69.701169 
L 319.223788 69.754847 
L 320.30959 68.854252 
L 321.395391 68.400973 
L 322.481192 68.335367 
L 323.566993 67.774731 
L 324.652794 66.993421 
L 325.738595 67.321452 
L 326.824396 66.796602 
L 327.910198 66.659425 
L 328.995999 65.27573 
L 330.0818 65.114697 
L 331.167601 65.072947 
L 332.253402 65.174339 
L 333.339203 63.731002 
L 334.425005 63.295615 
L 335.510806 64.118675 
L 336.596607 63.301579 
L 337.682408 63.080904 
L 338.768209 62.072953 
L 339.85401 61.864206 
L 340.939811 61.506354 
L 342.025613 61.548104 
L 343.111414 60.432798 
L 344.197215 60.271764 
L 346.368817 59.490454 
L 347.454618 58.625644 
L 348.54042 58.98946 
L 349.626221 59.168387 
L 350.712022 58.1664 
L 351.797823 58.27972 
L 352.883624 56.93181 
L 353.969425 57.295627 
L 355.055227 56.669386 
L 356.141028 57.289663 
L 357.226829 56.156464 
L 358.31263 56.1505 
L 359.398431 55.750898 
L 360.484232 55.220084 
L 361.570033 55.476545 
L 362.655835 54.951695 
L 363.741636 55.1008 
L 364.827437 54.796626 
L 365.913238 53.568 
L 366.999039 53.68132 
L 368.08484 55.124657 
L 369.170642 55.082908 
L 370.256443 55.911932 
L 371.342244 56.585887 
L 373.513846 58.339362 
L 374.599647 57.468589 
L 375.685448 58.601787 
L 376.77125 57.408947 
L 377.857051 58.202186 
L 378.942852 58.088866 
L 380.028653 58.339362 
L 382.200255 58.106758 
L 383.286057 58.458646 
L 384.371858 58.673358 
L 385.457659 58.297613 
L 387.629261 58.69125 
L 388.715062 58.50636 
L 391.972466 58.643537 
L 393.058267 58.560038 
L 394.144068 57.933797 
L 395.229869 58.184293 
L 396.31567 58.255864 
L 397.401472 57.814512 
L 398.487273 58.667394 
L 398.487273 58.667394 
" clip-path="url(#pedcd802755)" style="fill: none; stroke: #1f77b4; stroke-width: 1.5; stroke-linecap: square"/>
   </g>
   <g id="line2d_21">
    <path d="M 73.832727 282.116257 
L 74.918528 255.486091 
L 76.00433 234.492096 
L 78.175932 197.156186 
L 79.261733 187.911671 
L 81.433335 167.186066 
L 82.519137 159.134392 
L 83.604938 155.198018 
L 84.690739 146.579745 
L 85.77654 145.744757 
L 86.862341 137.931651 
L 89.033943 128.150358 
L 90.119745 128.001253 
L 91.205546 124.213984 
L 92.291347 121.589735 
L 93.377148 122.901859 
L 94.462949 122.394902 
L 95.54875 160.357054 
L 96.634552 146.520103 
L 97.720353 144.96941 
L 100.977756 134.800444 
L 102.063557 132.355121 
L 103.149358 137.096662 
L 104.23516 127.34519 
L 105.320961 126.689128 
L 106.406762 121.619556 
L 107.492563 119.502264 
L 108.578364 120.009221 
L 109.664165 115.834279 
L 111.835768 113.210029 
L 112.921569 110.496317 
L 114.00737 114.253765 
L 115.093171 111.897905 
L 116.178972 107.752784 
L 119.436376 102.206075 
L 120.522177 101.341266 
L 121.607978 99.790573 
L 122.693779 97.792565 
L 123.77958 97.196145 
L 124.865382 98.567911 
L 125.951183 95.496347 
L 127.036984 94.691179 
L 128.122785 93.587802 
L 129.208586 93.021203 
L 130.294387 93.349234 
L 131.380189 92.693171 
L 132.46599 91.619615 
L 133.551791 91.530152 
L 134.637592 91.798541 
L 135.723393 91.351226 
L 136.809194 91.231942 
L 137.894995 90.665342 
L 138.980797 119.711011 
L 140.066598 115.953563 
L 142.2382 112.524146 
L 143.324001 111.003274 
L 144.409802 112.494325 
L 145.495604 106.679227 
L 146.581405 108.438667 
L 147.667206 107.782605 
L 148.753007 110.227928 
L 149.838808 111.808442 
L 150.924609 105.098713 
L 152.01041 104.442651 
L 153.096212 107.096721 
L 154.182013 106.440659 
L 155.267814 105.128534 
L 156.353615 104.025157 
L 157.439416 100.386993 
L 158.525217 102.623569 
L 159.611019 100.715024 
L 160.69682 106.082807 
L 161.782621 101.699118 
L 162.868422 101.430729 
L 163.954223 100.953592 
L 165.040024 99.462542 
L 166.125825 99.343258 
L 167.211627 96.659366 
L 168.297428 98.687195 
L 169.383229 101.788581 
L 170.46903 97.196145 
L 171.554831 97.017218 
L 172.640632 98.53809 
L 173.726434 94.273685 
L 175.898036 91.738899 
L 176.983837 93.557981 
L 178.069638 91.76872 
L 179.155439 93.140487 
L 180.24124 91.381047 
L 181.327042 90.337311 
L 182.412843 90.844268 
L 183.498644 91.023195 
L 184.584445 88.458587 
L 185.670246 87.623599 
L 186.756047 89.323397 
L 187.841849 87.65342 
L 188.92765 88.84626 
L 190.013451 89.025187 
L 191.099252 85.804517 
L 192.185053 86.848252 
L 193.270854 87.146463 
L 194.356656 84.701139 
L 195.442457 85.088813 
L 197.614059 84.939708 
L 198.69986 83.120626 
L 199.785661 83.955614 
L 200.871462 83.83633 
L 201.957264 83.299552 
L 203.043065 82.524205 
L 204.128866 81.331365 
L 205.214667 81.331365 
L 206.300468 80.436734 
L 207.386269 81.241902 
L 208.472071 81.77868 
L 209.557872 80.496376 
L 210.643673 80.31745 
L 211.729474 79.780672 
L 212.815275 79.094789 
L 213.901076 79.035147 
L 214.986877 79.273715 
L 216.072679 79.899956 
L 217.15848 79.184252 
L 218.244281 79.154431 
L 219.330082 78.707115 
L 220.415883 78.587831 
L 221.501684 78.736936 
L 222.587486 78.379084 
L 223.673287 78.438726 
L 224.759088 78.915863 
L 225.844889 104.11462 
L 226.93069 110.406854 
L 228.016491 103.160348 
L 229.102292 101.46055 
L 230.188094 96.897934 
L 231.273895 102.623569 
L 232.359696 103.488379 
L 233.445497 101.907865 
L 234.531298 97.34525 
L 235.617099 101.520192 
L 236.702901 101.430729 
L 237.788702 97.524176 
L 238.874503 99.015226 
L 239.960304 101.75876 
L 241.046105 100.89395 
L 242.131906 95.168316 
L 243.217708 97.315429 
L 244.303509 94.691179 
L 245.38931 98.895942 
L 246.475111 97.971491 
L 247.560912 97.285608 
L 248.646713 94.512253 
L 249.732514 95.794557 
L 250.818316 99.343258 
L 251.904117 96.659366 
L 252.989918 104.532114 
L 254.075719 97.703102 
L 255.16152 100.506277 
L 256.247321 101.75876 
L 257.333123 94.601716 
L 258.418924 94.333327 
L 259.504725 92.872097 
L 260.590526 95.734915 
L 261.676327 96.569903 
L 262.762128 93.617623 
L 263.847929 96.033125 
L 264.933731 92.931739 
L 266.019532 94.601716 
L 267.105333 94.12458 
L 268.191134 93.140487 
L 269.276935 96.987397 
L 270.362736 93.587802 
L 271.448538 92.514245 
L 272.534339 91.023195 
L 273.62014 94.273685 
L 274.705941 93.677265 
L 275.791742 92.901918 
L 276.877543 96.897934 
L 277.963344 93.886012 
L 279.049146 94.333327 
L 280.134947 90.426774 
L 281.220748 92.603708 
L 282.306549 93.22995 
L 284.478151 91.112658 
L 285.563953 88.756797 
L 286.649754 90.724984 
L 287.735555 97.464534 
L 288.821356 92.275677 
L 289.907157 96.033125 
L 290.992958 91.440689 
L 292.07876 92.007288 
L 293.164561 93.945654 
L 294.250362 91.679257 
L 295.336163 92.424782 
L 296.421964 89.979459 
L 297.507765 89.383039 
L 298.593566 89.41286 
L 299.679368 88.160377 
L 300.765169 91.917825 
L 301.85097 92.424782 
L 302.936771 89.233934 
L 304.022572 87.65342 
L 305.108373 88.041093 
L 306.194175 89.233934 
L 308.365777 86.430758 
L 309.451578 85.89398 
L 310.537379 88.816439 
L 311.62318 88.041093 
L 312.708981 84.73096 
L 313.794783 87.176284 
L 314.880584 87.772704 
L 315.966385 85.655412 
L 317.052186 90.695163 
L 318.137987 85.565949 
L 319.223788 85.655412 
L 320.30959 86.043085 
L 321.395391 86.19219 
L 322.481192 84.104719 
L 323.566993 84.880065 
L 324.652794 84.671318 
L 325.738595 83.955614 
L 326.824396 86.222011 
L 327.910198 87.116642 
L 328.995999 85.715054 
L 330.0818 84.522213 
L 331.167601 86.728968 
L 333.339203 82.882057 
L 334.425005 83.657404 
L 335.510806 83.895972 
L 336.596607 83.150447 
L 337.682408 80.734944 
L 338.768209 82.852236 
L 339.85401 83.448657 
L 340.939811 81.003334 
L 342.025613 80.406913 
L 343.111414 83.060984 
L 344.197215 82.762773 
L 345.283016 80.645481 
L 346.368817 78.051053 
L 348.54042 81.271723 
L 350.712022 80.108703 
L 351.797823 80.01924 
L 352.883624 78.707115 
L 353.969425 79.363178 
L 355.055227 79.243894 
L 356.141028 80.913871 
L 357.226829 79.005326 
L 358.31263 79.064968 
L 359.398431 79.303536 
L 360.484232 77.931769 
L 362.655835 78.289621 
L 363.741636 78.170337 
L 364.827437 78.170337 
L 365.913238 76.79857 
L 366.999039 77.842306 
L 368.08484 78.319442 
L 369.170642 77.96159 
L 370.256443 78.289621 
L 371.342244 81.599754 
L 372.428045 81.092797 
L 373.513846 79.094789 
L 374.599647 81.659396 
L 375.685448 81.062976 
L 376.77125 81.719038 
L 377.857051 80.406913 
L 378.942852 82.762773 
L 380.028653 79.899956 
L 381.114454 80.913871 
L 382.200255 80.31745 
L 383.286057 80.049061 
L 384.371858 80.824407 
L 385.457659 80.764765 
L 386.54346 79.810493 
L 387.629261 81.241902 
L 388.715062 81.897964 
L 389.800863 81.062976 
L 390.886665 80.734944 
L 391.972466 79.780672 
L 393.058267 81.331365 
L 394.144068 80.526197 
L 395.229869 80.913871 
L 396.31567 80.943692 
L 397.401472 81.361186 
L 398.487273 80.88405 
L 398.487273 80.88405 
" clip-path="url(#pedcd802755)" style="fill: none; stroke: #ff7f0e; stroke-width: 1.5; stroke-linecap: square"/>
   </g>
   <g id="line2d_22">
    <path d="M 73.832727 289.182809 
L 74.918528 262.816919 
L 76.00433 251.957956 
L 77.090131 245.047707 
L 78.175932 215.041597 
L 79.261733 225.859427 
L 80.347534 222.219206 
L 81.433335 214.897633 
L 82.519137 209.941175 
L 83.604938 208.93343 
L 84.690739 202.825264 
L 85.77654 197.580878 
L 86.862341 193.920092 
L 87.948142 191.349315 
L 89.033943 189.169296 
L 90.119745 185.487943 
L 91.205546 181.04564 
L 92.291347 179.35921 
L 93.377148 181.662626 
L 94.462949 179.564872 
L 95.54875 216.954255 
L 96.634552 208.131348 
L 97.720353 206.013027 
L 98.806154 206.198123 
L 99.891955 200.213354 
L 100.977756 192.274794 
L 102.063557 189.909679 
L 103.149358 197.148988 
L 104.23516 197.827673 
L 105.320961 192.501023 
L 106.406762 182.156216 
L 107.492563 184.356801 
L 108.578364 190.958556 
L 109.664165 184.768125 
L 110.749967 187.071541 
L 111.835768 178.865621 
L 112.921569 184.932655 
L 114.00737 182.135649 
L 115.093171 173.086514 
L 116.178972 179.791101 
L 117.264773 176.767867 
L 118.350575 166.916649 
L 119.436376 172.634057 
L 120.522177 170.639134 
L 121.607978 171.153289 
L 122.693779 167.348539 
L 123.77958 165.92947 
L 124.865382 169.693088 
L 125.951183 167.369106 
L 127.036984 166.628722 
L 128.122785 164.551534 
L 129.208586 164.613232 
L 130.294387 164.304739 
L 131.380189 163.605488 
L 132.46599 162.515478 
L 133.551791 161.754528 
L 135.723393 162.782839 
L 136.809194 160.849615 
L 137.894995 162.597743 
L 138.980797 187.688528 
L 140.066598 178.76279 
L 141.152399 182.464709 
L 142.2382 184.171705 
L 143.324001 172.778021 
L 144.409802 187.174373 
L 145.495604 176.870698 
L 146.581405 170.577435 
L 147.667206 173.189345 
L 148.753007 177.734479 
L 149.838808 172.140468 
L 150.924609 174.03256 
L 152.01041 174.526149 
L 153.096212 167.759864 
L 154.182013 173.292176 
L 155.267814 176.130314 
L 156.353615 177.611082 
L 157.439416 160.60282 
L 158.525217 165.867772 
L 160.69682 172.572358 
L 161.782621 177.611082 
L 162.868422 173.806331 
L 163.954223 177.528817 
L 165.040024 174.587848 
L 166.125825 164.757196 
L 167.211627 165.92947 
L 168.297428 172.695756 
L 169.383229 183.122828 
L 170.46903 169.73422 
L 171.554831 167.677599 
L 172.640632 175.945218 
L 173.726434 171.194422 
L 174.812235 172.572358 
L 175.898036 162.926803 
L 176.983837 170.145545 
L 179.155439 157.085997 
L 180.24124 154.227293 
L 181.327042 162.515478 
L 182.412843 162.248117 
L 183.498644 167.327973 
L 184.584445 162.001323 
L 185.670246 159.451112 
L 186.756047 165.703242 
L 187.841849 163.584922 
L 188.92765 174.176523 
L 190.013451 159.409979 
L 191.099252 162.536044 
L 192.185053 163.461524 
L 193.270854 160.294327 
L 194.356656 163.440958 
L 195.442457 154.268425 
L 196.528258 159.800738 
L 197.614059 157.209394 
L 198.69986 157.065431 
L 199.785661 159.039788 
L 200.871462 163.358693 
L 201.957264 159.286582 
L 203.043065 159.492244 
L 204.128866 158.422801 
L 205.214667 160.643953 
L 206.300468 159.060354 
L 207.386269 158.278838 
L 208.472071 157.702983 
L 209.557872 160.150363 
L 210.643673 155.831458 
L 211.729474 156.160517 
L 212.815275 159.101486 
L 213.901076 153.877667 
L 214.986877 158.422801 
L 216.072679 156.448444 
L 217.15848 155.4407 
L 218.244281 156.325047 
L 219.330082 155.152773 
L 220.415883 156.571842 
L 221.501684 156.304481 
L 222.587486 155.584663 
L 223.673287 155.70806 
L 224.759088 156.427878 
L 225.844889 177.384853 
L 226.93069 175.38993 
L 228.016491 179.667703 
L 229.102292 180.983941 
L 230.188094 180.757713 
L 231.273895 175.739556 
L 232.359696 178.947886 
L 233.445497 176.130314 
L 234.531298 163.626054 
L 235.617099 174.999172 
L 236.702901 171.297253 
L 237.788702 161.158108 
L 238.874503 172.140468 
L 239.960304 174.19709 
L 241.046105 168.561946 
L 242.131906 173.086514 
L 243.217708 166.299662 
L 244.303509 169.590257 
L 245.38931 172.222733 
L 246.475111 159.204317 
L 247.560912 163.523223 
L 248.646713 166.135132 
L 249.732514 164.757196 
L 250.818316 170.556869 
L 251.904117 174.299921 
L 252.989918 168.747042 
L 254.075719 162.063021 
L 255.16152 178.00184 
L 256.247321 174.587848 
L 257.333123 164.428136 
L 258.418924 161.877926 
L 259.504725 166.628722 
L 260.590526 172.263865 
L 261.676327 166.916649 
L 262.762128 153.034452 
L 263.847929 163.009067 
L 264.933731 160.870181 
L 267.105333 174.423318 
L 268.191134 161.672263 
L 269.276935 169.631389 
L 270.362736 167.986092 
L 271.448538 160.829048 
L 272.534339 164.037378 
L 273.62014 175.307665 
L 274.705941 160.705651 
L 275.791742 170.515737 
L 276.877543 169.220065 
L 277.963344 170.783098 
L 279.049146 166.628722 
L 280.134947 160.212062 
L 281.220748 161.055277 
L 282.306549 166.155699 
L 283.39235 160.664519 
L 284.478151 163.81115 
L 285.563953 166.464192 
L 286.649754 164.201908 
L 287.735555 175.862953 
L 288.821356 168.294585 
L 289.907157 173.127646 
L 290.992958 162.001323 
L 292.07876 162.433213 
L 293.164561 169.73422 
L 294.250362 163.440958 
L 295.336163 163.913981 
L 296.421964 158.443367 
L 297.507765 161.36377 
L 298.593566 160.232628 
L 299.679368 166.669854 
L 300.765169 162.248117 
L 301.85097 163.358693 
L 302.936771 162.371515 
L 304.022572 165.641543 
L 305.108373 156.139951 
L 306.194175 156.03712 
L 307.279976 150.504808 
L 308.365777 156.427878 
L 309.451578 157.312225 
L 310.537379 160.952446 
L 312.708981 151.697648 
L 313.794783 156.489577 
L 314.880584 162.659442 
L 315.966385 155.913723 
L 317.052186 165.250785 
L 318.137987 158.957523 
L 319.223788 157.805815 
L 320.30959 162.803405 
L 321.395391 165.991169 
L 322.481192 157.209394 
L 323.566993 162.412647 
L 324.652794 155.214471 
L 325.738595 154.659183 
L 326.824396 157.888079 
L 327.910198 157.003732 
L 328.995999 157.764682 
L 330.0818 155.934289 
L 331.167601 157.456189 
L 332.253402 160.76735 
L 333.339203 152.82879 
L 334.425005 155.11164 
L 335.510806 156.942033 
L 336.596607 154.371256 
L 337.682408 152.170671 
L 338.768209 157.250527 
L 339.85401 153.198982 
L 340.939811 146.391564 
L 342.025613 149.908387 
L 343.111414 150.422543 
L 344.197215 157.888079 
L 345.283016 156.242782 
L 346.368817 151.738781 
L 347.454618 149.414798 
L 348.54042 157.147696 
L 349.626221 150.360844 
L 350.712022 150.957264 
L 351.797823 156.263348 
L 352.883624 156.325047 
L 353.969425 149.62046 
L 355.055227 154.453521 
L 356.141028 156.119385 
L 357.226829 155.687494 
L 358.31263 152.746525 
L 359.398431 152.252936 
L 360.484232 150.669337 
L 361.570033 153.096151 
L 362.655835 150.998397 
L 363.741636 156.016554 
L 364.827437 151.348022 
L 365.913238 152.026708 
L 366.999039 151.574251 
L 368.08484 152.911055 
L 369.170642 150.031785 
L 370.256443 153.939366 
L 371.342244 161.384336 
L 372.428045 155.461266 
L 373.513846 152.191237 
L 374.599647 151.430287 
L 375.685448 154.618051 
L 376.77125 155.091074 
L 377.857051 146.41213 
L 378.942852 153.815968 
L 380.028653 152.438032 
L 381.114454 149.332533 
L 382.200255 151.841612 
L 383.286057 151.183493 
L 384.371858 152.458598 
L 385.457659 150.566506 
L 386.54346 152.23237 
L 387.629261 150.052351 
L 388.715062 153.548608 
L 389.800863 155.420133 
L 390.886665 160.705651 
L 391.972466 153.651439 
L 393.058267 155.934289 
L 394.144068 152.252936 
L 395.229869 156.592408 
L 396.31567 152.972754 
L 397.401472 151.862178 
L 398.487273 149.826122 
L 398.487273 149.826122 
" clip-path="url(#pedcd802755)" style="fill: none; stroke: #2ca02c; stroke-width: 1.5; stroke-linecap: square"/>
   </g>
   <g id="line2d_23">
    <path d="M 368.08484 77.245886 
L 371.342244 81.540112 
L 372.428045 78.677294 
L 373.513846 80.01924 
L 374.599647 78.140516 
L 376.77125 82.911879 
L 377.857051 82.404921 
L 378.942852 80.913871 
L 380.028653 82.434742 
L 381.114454 82.017248 
L 382.200255 83.53812 
L 383.286057 83.359194 
L 384.371858 83.83633 
L 385.457659 83.389015 
L 386.54346 82.255816 
L 387.629261 85.655412 
L 388.715062 81.391007 
L 389.800863 84.015256 
L 390.886665 83.627583 
L 391.972466 84.909886 
L 393.058267 87.534136 
L 394.144068 87.593778 
L 395.229869 85.953622 
L 396.31567 86.669326 
L 397.401472 86.162369 
L 398.487273 88.54805 
L 398.487273 88.54805 
" clip-path="url(#pedcd802755)" style="fill: none; stroke: #d62728; stroke-width: 1.5; stroke-linecap: square"/>
   </g>
   <g id="line2d_24">
    <path d="M 368.08484 150.031785 
L 369.170642 150.484241 
L 370.256443 150.484241 
L 371.342244 158.649029 
L 372.428045 150.134616 
L 373.513846 152.602562 
L 374.599647 146.926286 
L 375.685448 153.15785 
L 377.857051 155.049941 
L 378.942852 150.031785 
L 380.028653 153.980498 
L 381.114454 146.350432 
L 382.200255 157.785248 
L 383.286057 154.083329 
L 384.371858 154.206727 
L 385.457659 153.486909 
L 386.54346 150.031785 
L 387.629261 154.206727 
L 388.715062 152.170671 
L 389.800863 159.595075 
L 390.886665 154.042197 
L 391.972466 156.181083 
L 393.058267 166.094 
L 394.144068 161.795661 
L 395.229869 161.322638 
L 396.31567 157.250527 
L 397.401472 156.181083 
L 398.487273 156.818636 
L 398.487273 156.818636 
" clip-path="url(#pedcd802755)" style="fill: none; stroke: #9467bd; stroke-width: 1.5; stroke-linecap: square"/>
   </g>
   <g id="patch_3">
    <path d="M 57.6 307.584 
L 57.6 41.472 
" style="fill: none; stroke: #000000; stroke-width: 0.8; stroke-linejoin: miter; stroke-linecap: square"/>
   </g>
   <g id="patch_4">
    <path d="M 414.72 307.584 
L 414.72 41.472 
" style="fill: none; stroke: #000000; stroke-width: 0.8; stroke-linejoin: miter; stroke-linecap: square"/>
   </g>
   <g id="patch_5">
    <path d="M 57.6 307.584 
L 414.72 307.584 
" style="fill: none; stroke: #000000; stroke-width: 0.8; stroke-linejoin: miter; stroke-linecap: square"/>
   </g>
   <g id="patch_6">
    <path d="M 57.6 41.472 
L 414.72 41.472 
" style="fill: none; stroke: #000000; stroke-width: 0.8; stroke-linejoin: miter; stroke-linecap: square"/>
   </g>
   <g id="text_22">
    <!-- Learning Curves -->
    <g transform="translate(187.37625 35.472) scale(0.12 -0.12)">
     <defs>
      <path id="DejaVuSans-4c" d="M 628 4666 
L 1259 4666 
L 1259 531 
L 3531 531 
L 3531 0 
L 628 0 
L 628 4666 
z
" transform="scale(0.015625)"/>
      <path id="DejaVuSans-65" d="M 3597 1894 
L 3597 1613 
L 953 1613 
Q 991 1019 1311 708 
Q 1631 397 2203 397 
Q 2534 397 2845 478 
Q 3156 559 3463 722 
L 3463 178 
Q 3153 47 2828 -22 
Q 2503 -91 2169 -91 
Q 1331 -91 842 396 
Q 353 884 353 1716 
Q 353 2575 817 3079 
Q 1281 3584 2069 3584 
Q 2775 3584 3186 3129 
Q 3597 2675 3597 1894 
z
M 3022 2063 
Q 3016 2534 2758 2815 
Q 2500 3097 2075 3097 
Q 1594 3097 1305 2825 
Q 1016 2553 972 2059 
L 3022 2063 
z
" transform="scale(0.015625)"/>
      <path id="DejaVuSans-6e" d="M 3513 2113 
L 3513 0 
L 2938 0 
L 2938 2094 
Q 2938 2591 2744 2837 
Q 2550 3084 2163 3084 
Q 1697 3084 1428 2787 
Q 1159 2491 1159 1978 
L 1159 0 
L 581 0 
L 581 3500 
L 1159 3500 
L 1159 2956 
Q 1366 3272 1645 3428 
Q 1925 3584 2291 3584 
Q 2894 3584 3203 3211 
Q 3513 2838 3513 2113 
z
" transform="scale(0.015625)"/>
      <path id="DejaVuSans-69" d="M 603 3500 
L 1178 3500 
L 1178 0 
L 603 0 
L 603 3500 
z
M 603 4863 
L 1178 4863 
L 1178 4134 
L 603 4134 
L 603 4863 
z
" transform="scale(0.015625)"/>
      <path id="DejaVuSans-67" d="M 2906 1791 
Q 2906 2416 2648 2759 
Q 2391 3103 1925 3103 
Q 1463 3103 1205 2759 
Q 947 2416 947 1791 
Q 947 1169 1205 825 
Q 1463 481 1925 481 
Q 2391 481 2648 825 
Q 2906 1169 2906 1791 
z
M 3481 434 
Q 3481 -459 3084 -895 
Q 2688 -1331 1869 -1331 
Q 1566 -1331 1297 -1286 
Q 1028 -1241 775 -1147 
L 775 -588 
Q 1028 -725 1275 -790 
Q 1522 -856 1778 -856 
Q 2344 -856 2625 -561 
Q 2906 -266 2906 331 
L 2906 616 
Q 2728 306 2450 153 
Q 2172 0 1784 0 
Q 1141 0 747 490 
Q 353 981 353 1791 
Q 353 2603 747 3093 
Q 1141 3584 1784 3584 
Q 2172 3584 2450 3431 
Q 2728 3278 2906 2969 
L 2906 3500 
L 3481 3500 
L 3481 434 
z
" transform="scale(0.015625)"/>
      <path id="DejaVuSans-20" transform="scale(0.015625)"/>
      <path id="DejaVuSans-43" d="M 4122 4306 
L 4122 3641 
Q 3803 3938 3442 4084 
Q 3081 4231 2675 4231 
Q 1875 4231 1450 3742 
Q 1025 3253 1025 2328 
Q 1025 1406 1450 917 
Q 1875 428 2675 428 
Q 3081 428 3442 575 
Q 3803 722 4122 1019 
L 4122 359 
Q 3791 134 3420 21 
Q 3050 -91 2638 -91 
Q 1578 -91 968 557 
Q 359 1206 359 2328 
Q 359 3453 968 4101 
Q 1578 4750 2638 4750 
Q 3056 4750 3426 4639 
Q 3797 4528 4122 4306 
z
" transform="scale(0.015625)"/>
      <path id="DejaVuSans-76" d="M 191 3500 
L 800 3500 
L 1894 563 
L 2988 3500 
L 3597 3500 
L 2284 0 
L 1503 0 
L 191 3500 
z
" transform="scale(0.015625)"/>
     </defs>
     <use xlink:href="#DejaVuSans-4c"/>
     <use xlink:href="#DejaVuSans-65" x="53.962891"/>
     <use xlink:href="#DejaVuSans-61" x="115.486328"/>
     <use xlink:href="#DejaVuSans-72" x="176.765625"/>
     <use xlink:href="#DejaVuSans-6e" x="216.128906"/>
     <use xlink:href="#DejaVuSans-69" x="279.507812"/>
     <use xlink:href="#DejaVuSans-6e" x="307.291016"/>
     <use xlink:href="#DejaVuSans-67" x="370.669922"/>
     <use xlink:href="#DejaVuSans-20" x="434.146484"/>
     <use xlink:href="#DejaVuSans-43" x="465.933594"/>
     <use xlink:href="#DejaVuSans-75" x="535.757812"/>
     <use xlink:href="#DejaVuSans-72" x="599.136719"/>
     <use xlink:href="#DejaVuSans-76" x="640.25"/>
     <use xlink:href="#DejaVuSans-65" x="699.429688"/>
     <use xlink:href="#DejaVuSans-73" x="760.953125"/>
    </g>
   </g>
   <g id="legend_1">
    <g id="patch_7">
     <path d="M 214.18875 302.584 
L 407.72 302.584 
Q 409.72 302.584 409.72 300.584 
L 409.72 228.193375 
Q 409.72 226.193375 407.72 226.193375 
L 214.18875 226.193375 
Q 212.18875 226.193375 212.18875 228.193375 
L 212.18875 300.584 
Q 212.18875 302.584 214.18875 302.584 
z
" style="fill: #ffffff; opacity: 0.8; stroke: #cccccc; stroke-linejoin: miter"/>
    </g>
    <g id="line2d_25">
     <path d="M 216.18875 234.291812 
L 226.18875 234.291812 
L 236.18875 234.291812 
" style="fill: none; stroke: #1f77b4; stroke-width: 1.5; stroke-linecap: square"/>
    </g>
    <g id="text_23">
     <!-- Train Accuracy -->
     <g transform="translate(244.18875 237.791812) scale(0.1 -0.1)">
      <defs>
       <path id="DejaVuSans-54" d="M -19 4666 
L 3928 4666 
L 3928 4134 
L 2272 4134 
L 2272 0 
L 1638 0 
L 1638 4134 
L -19 4134 
L -19 4666 
z
" transform="scale(0.015625)"/>
      </defs>
      <use xlink:href="#DejaVuSans-54"/>
      <use xlink:href="#DejaVuSans-72" x="46.333984"/>
      <use xlink:href="#DejaVuSans-61" x="87.447266"/>
      <use xlink:href="#DejaVuSans-69" x="148.726562"/>
      <use xlink:href="#DejaVuSans-6e" x="176.509766"/>
      <use xlink:href="#DejaVuSans-20" x="239.888672"/>
      <use xlink:href="#DejaVuSans-41" x="271.675781"/>
      <use xlink:href="#DejaVuSans-63" x="338.333984"/>
      <use xlink:href="#DejaVuSans-63" x="393.314453"/>
      <use xlink:href="#DejaVuSans-75" x="448.294922"/>
      <use xlink:href="#DejaVuSans-72" x="511.673828"/>
      <use xlink:href="#DejaVuSans-61" x="552.787109"/>
      <use xlink:href="#DejaVuSans-63" x="614.066406"/>
      <use xlink:href="#DejaVuSans-79" x="669.046875"/>
     </g>
    </g>
    <g id="line2d_26">
     <path d="M 216.18875 248.969937 
L 226.18875 248.969937 
L 236.18875 248.969937 
" style="fill: none; stroke: #ff7f0e; stroke-width: 1.5; stroke-linecap: square"/>
    </g>
    <g id="text_24">
     <!-- Validation Accuracy -->
     <g transform="translate(244.18875 252.469937) scale(0.1 -0.1)">
      <defs>
       <path id="DejaVuSans-56" d="M 1831 0 
L 50 4666 
L 709 4666 
L 2188 738 
L 3669 4666 
L 4325 4666 
L 2547 0 
L 1831 0 
z
" transform="scale(0.015625)"/>
       <path id="DejaVuSans-6c" d="M 603 4863 
L 1178 4863 
L 1178 0 
L 603 0 
L 603 4863 
z
" transform="scale(0.015625)"/>
       <path id="DejaVuSans-64" d="M 2906 2969 
L 2906 4863 
L 3481 4863 
L 3481 0 
L 2906 0 
L 2906 525 
Q 2725 213 2448 61 
Q 2172 -91 1784 -91 
Q 1150 -91 751 415 
Q 353 922 353 1747 
Q 353 2572 751 3078 
Q 1150 3584 1784 3584 
Q 2172 3584 2448 3432 
Q 2725 3281 2906 2969 
z
M 947 1747 
Q 947 1113 1208 752 
Q 1469 391 1925 391 
Q 2381 391 2643 752 
Q 2906 1113 2906 1747 
Q 2906 2381 2643 2742 
Q 2381 3103 1925 3103 
Q 1469 3103 1208 2742 
Q 947 2381 947 1747 
z
" transform="scale(0.015625)"/>
       <path id="DejaVuSans-74" d="M 1172 4494 
L 1172 3500 
L 2356 3500 
L 2356 3053 
L 1172 3053 
L 1172 1153 
Q 1172 725 1289 603 
Q 1406 481 1766 481 
L 2356 481 
L 2356 0 
L 1766 0 
Q 1100 0 847 248 
Q 594 497 594 1153 
L 594 3053 
L 172 3053 
L 172 3500 
L 594 3500 
L 594 4494 
L 1172 4494 
z
" transform="scale(0.015625)"/>
      </defs>
      <use xlink:href="#DejaVuSans-56"/>
      <use xlink:href="#DejaVuSans-61" x="60.658203"/>
      <use xlink:href="#DejaVuSans-6c" x="121.9375"/>
      <use xlink:href="#DejaVuSans-69" x="149.720703"/>
      <use xlink:href="#DejaVuSans-64" x="177.503906"/>
      <use xlink:href="#DejaVuSans-61" x="240.980469"/>
      <use xlink:href="#DejaVuSans-74" x="302.259766"/>
      <use xlink:href="#DejaVuSans-69" x="341.46875"/>
      <use xlink:href="#DejaVuSans-6f" x="369.251953"/>
      <use xlink:href="#DejaVuSans-6e" x="430.433594"/>
      <use xlink:href="#DejaVuSans-20" x="493.8125"/>
      <use xlink:href="#DejaVuSans-41" x="525.599609"/>
      <use xlink:href="#DejaVuSans-63" x="592.257812"/>
      <use xlink:href="#DejaVuSans-63" x="647.238281"/>
      <use xlink:href="#DejaVuSans-75" x="702.21875"/>
      <use xlink:href="#DejaVuSans-72" x="765.597656"/>
      <use xlink:href="#DejaVuSans-61" x="806.710938"/>
      <use xlink:href="#DejaVuSans-63" x="867.990234"/>
      <use xlink:href="#DejaVuSans-79" x="922.970703"/>
     </g>
    </g>
    <g id="line2d_27">
     <path d="M 216.18875 263.648062 
L 226.18875 263.648062 
L 236.18875 263.648062 
" style="fill: none; stroke: #2ca02c; stroke-width: 1.5; stroke-linecap: square"/>
    </g>
    <g id="text_25">
     <!-- Robust Validation Accuracy -->
     <g transform="translate(244.18875 267.148062) scale(0.1 -0.1)">
      <defs>
       <path id="DejaVuSans-52" d="M 2841 2188 
Q 3044 2119 3236 1894 
Q 3428 1669 3622 1275 
L 4263 0 
L 3584 0 
L 2988 1197 
Q 2756 1666 2539 1819 
Q 2322 1972 1947 1972 
L 1259 1972 
L 1259 0 
L 628 0 
L 628 4666 
L 2053 4666 
Q 2853 4666 3247 4331 
Q 3641 3997 3641 3322 
Q 3641 2881 3436 2590 
Q 3231 2300 2841 2188 
z
M 1259 4147 
L 1259 2491 
L 2053 2491 
Q 2509 2491 2742 2702 
Q 2975 2913 2975 3322 
Q 2975 3731 2742 3939 
Q 2509 4147 2053 4147 
L 1259 4147 
z
" transform="scale(0.015625)"/>
       <path id="DejaVuSans-62" d="M 3116 1747 
Q 3116 2381 2855 2742 
Q 2594 3103 2138 3103 
Q 1681 3103 1420 2742 
Q 1159 2381 1159 1747 
Q 1159 1113 1420 752 
Q 1681 391 2138 391 
Q 2594 391 2855 752 
Q 3116 1113 3116 1747 
z
M 1159 2969 
Q 1341 3281 1617 3432 
Q 1894 3584 2278 3584 
Q 2916 3584 3314 3078 
Q 3713 2572 3713 1747 
Q 3713 922 3314 415 
Q 2916 -91 2278 -91 
Q 1894 -91 1617 61 
Q 1341 213 1159 525 
L 1159 0 
L 581 0 
L 581 4863 
L 1159 4863 
L 1159 2969 
z
" transform="scale(0.015625)"/>
      </defs>
      <use xlink:href="#DejaVuSans-52"/>
      <use xlink:href="#DejaVuSans-6f" x="64.982422"/>
      <use xlink:href="#DejaVuSans-62" x="126.164062"/>
      <use xlink:href="#DejaVuSans-75" x="189.640625"/>
      <use xlink:href="#DejaVuSans-73" x="253.019531"/>
      <use xlink:href="#DejaVuSans-74" x="305.119141"/>
      <use xlink:href="#DejaVuSans-20" x="344.328125"/>
      <use xlink:href="#DejaVuSans-56" x="376.115234"/>
      <use xlink:href="#DejaVuSans-61" x="436.773438"/>
      <use xlink:href="#DejaVuSans-6c" x="498.052734"/>
      <use xlink:href="#DejaVuSans-69" x="525.835938"/>
      <use xlink:href="#DejaVuSans-64" x="553.619141"/>
      <use xlink:href="#DejaVuSans-61" x="617.095703"/>
      <use xlink:href="#DejaVuSans-74" x="678.375"/>
      <use xlink:href="#DejaVuSans-69" x="717.583984"/>
      <use xlink:href="#DejaVuSans-6f" x="745.367188"/>
      <use xlink:href="#DejaVuSans-6e" x="806.548828"/>
      <use xlink:href="#DejaVuSans-20" x="869.927734"/>
      <use xlink:href="#DejaVuSans-41" x="901.714844"/>
      <use xlink:href="#DejaVuSans-63" x="968.373047"/>
      <use xlink:href="#DejaVuSans-63" x="1023.353516"/>
      <use xlink:href="#DejaVuSans-75" x="1078.333984"/>
      <use xlink:href="#DejaVuSans-72" x="1141.712891"/>
      <use xlink:href="#DejaVuSans-61" x="1182.826172"/>
      <use xlink:href="#DejaVuSans-63" x="1244.105469"/>
      <use xlink:href="#DejaVuSans-79" x="1299.085938"/>
     </g>
    </g>
    <g id="line2d_28">
     <path d="M 216.18875 278.326188 
L 226.18875 278.326188 
L 236.18875 278.326188 
" style="fill: none; stroke: #d62728; stroke-width: 1.5; stroke-linecap: square"/>
    </g>
    <g id="text_26">
     <!-- SWA Validation Accuracy -->
     <g transform="translate(244.18875 281.826188) scale(0.1 -0.1)">
      <defs>
       <path id="DejaVuSans-53" d="M 3425 4513 
L 3425 3897 
Q 3066 4069 2747 4153 
Q 2428 4238 2131 4238 
Q 1616 4238 1336 4038 
Q 1056 3838 1056 3469 
Q 1056 3159 1242 3001 
Q 1428 2844 1947 2747 
L 2328 2669 
Q 3034 2534 3370 2195 
Q 3706 1856 3706 1288 
Q 3706 609 3251 259 
Q 2797 -91 1919 -91 
Q 1588 -91 1214 -16 
Q 841 59 441 206 
L 441 856 
Q 825 641 1194 531 
Q 1563 422 1919 422 
Q 2459 422 2753 634 
Q 3047 847 3047 1241 
Q 3047 1584 2836 1778 
Q 2625 1972 2144 2069 
L 1759 2144 
Q 1053 2284 737 2584 
Q 422 2884 422 3419 
Q 422 4038 858 4394 
Q 1294 4750 2059 4750 
Q 2388 4750 2728 4690 
Q 3069 4631 3425 4513 
z
" transform="scale(0.015625)"/>
       <path id="DejaVuSans-57" d="M 213 4666 
L 850 4666 
L 1831 722 
L 2809 4666 
L 3519 4666 
L 4500 722 
L 5478 4666 
L 6119 4666 
L 4947 0 
L 4153 0 
L 3169 4050 
L 2175 0 
L 1381 0 
L 213 4666 
z
" transform="scale(0.015625)"/>
      </defs>
      <use xlink:href="#DejaVuSans-53"/>
      <use xlink:href="#DejaVuSans-57" x="63.476562"/>
      <use xlink:href="#DejaVuSans-41" x="156.853516"/>
      <use xlink:href="#DejaVuSans-20" x="225.261719"/>
      <use xlink:href="#DejaVuSans-56" x="257.048828"/>
      <use xlink:href="#DejaVuSans-61" x="317.707031"/>
      <use xlink:href="#DejaVuSans-6c" x="378.986328"/>
      <use xlink:href="#DejaVuSans-69" x="406.769531"/>
      <use xlink:href="#DejaVuSans-64" x="434.552734"/>
      <use xlink:href="#DejaVuSans-61" x="498.029297"/>
      <use xlink:href="#DejaVuSans-74" x="559.308594"/>
      <use xlink:href="#DejaVuSans-69" x="598.517578"/>
      <use xlink:href="#DejaVuSans-6f" x="626.300781"/>
      <use xlink:href="#DejaVuSans-6e" x="687.482422"/>
      <use xlink:href="#DejaVuSans-20" x="750.861328"/>
      <use xlink:href="#DejaVuSans-41" x="782.648438"/>
      <use xlink:href="#DejaVuSans-63" x="849.306641"/>
      <use xlink:href="#DejaVuSans-63" x="904.287109"/>
      <use xlink:href="#DejaVuSans-75" x="959.267578"/>
      <use xlink:href="#DejaVuSans-72" x="1022.646484"/>
      <use xlink:href="#DejaVuSans-61" x="1063.759766"/>
      <use xlink:href="#DejaVuSans-63" x="1125.039062"/>
      <use xlink:href="#DejaVuSans-79" x="1180.019531"/>
     </g>
    </g>
    <g id="line2d_29">
     <path d="M 216.18875 293.004312 
L 226.18875 293.004312 
L 236.18875 293.004312 
" style="fill: none; stroke: #9467bd; stroke-width: 1.5; stroke-linecap: square"/>
    </g>
    <g id="text_27">
     <!-- SWA Robust Validation Accuracy -->
     <g transform="translate(244.18875 296.504312) scale(0.1 -0.1)">
      <use xlink:href="#DejaVuSans-53"/>
      <use xlink:href="#DejaVuSans-57" x="63.476562"/>
      <use xlink:href="#DejaVuSans-41" x="156.853516"/>
      <use xlink:href="#DejaVuSans-20" x="225.261719"/>
      <use xlink:href="#DejaVuSans-52" x="257.048828"/>
      <use xlink:href="#DejaVuSans-6f" x="322.03125"/>
      <use xlink:href="#DejaVuSans-62" x="383.212891"/>
      <use xlink:href="#DejaVuSans-75" x="446.689453"/>
      <use xlink:href="#DejaVuSans-73" x="510.068359"/>
      <use xlink:href="#DejaVuSans-74" x="562.167969"/>
      <use xlink:href="#DejaVuSans-20" x="601.376953"/>
      <use xlink:href="#DejaVuSans-56" x="633.164062"/>
      <use xlink:href="#DejaVuSans-61" x="693.822266"/>
      <use xlink:href="#DejaVuSans-6c" x="755.101562"/>
      <use xlink:href="#DejaVuSans-69" x="782.884766"/>
      <use xlink:href="#DejaVuSans-64" x="810.667969"/>
      <use xlink:href="#DejaVuSans-61" x="874.144531"/>
      <use xlink:href="#DejaVuSans-74" x="935.423828"/>
      <use xlink:href="#DejaVuSans-69" x="974.632812"/>
      <use xlink:href="#DejaVuSans-6f" x="1002.416016"/>
      <use xlink:href="#DejaVuSans-6e" x="1063.597656"/>
      <use xlink:href="#DejaVuSans-20" x="1126.976562"/>
      <use xlink:href="#DejaVuSans-41" x="1158.763672"/>
      <use xlink:href="#DejaVuSans-63" x="1225.421875"/>
      <use xlink:href="#DejaVuSans-63" x="1280.402344"/>
      <use xlink:href="#DejaVuSans-75" x="1335.382812"/>
      <use xlink:href="#DejaVuSans-72" x="1398.761719"/>
      <use xlink:href="#DejaVuSans-61" x="1439.875"/>
      <use xlink:href="#DejaVuSans-63" x="1501.154297"/>
      <use xlink:href="#DejaVuSans-79" x="1556.134766"/>
     </g>
    </g>
   </g>
  </g>
 </g>
 <defs>
  <clipPath id="pedcd802755">
   <rect x="57.6" y="41.472" width="357.12" height="266.112"/>
  </clipPath>
 </defs>
</svg>
