<?xml version="1.0" encoding="utf-8" standalone="no"?>
<!DOCTYPE svg PUBLIC "-//W3C//DTD SVG 1.1//EN"
  "http://www.w3.org/Graphics/SVG/1.1/DTD/svg11.dtd">
<svg xmlns:xlink="http://www.w3.org/1999/xlink" width="460.8pt" height="345.6pt" viewBox="0 0 460.8 345.6" xmlns="http://www.w3.org/2000/svg" version="1.1">
 <metadata>
  <rdf:RDF xmlns:dc="http://purl.org/dc/elements/1.1/" xmlns:cc="http://creativecommons.org/ns#" xmlns:rdf="http://www.w3.org/1999/02/22-rdf-syntax-ns#">
   <cc:Work>
    <dc:type rdf:resource="http://purl.org/dc/dcmitype/StillImage"/>
    <dc:date>2025-02-26T03:55:57.167079</dc:date>
    <dc:format>image/svg+xml</dc:format>
    <dc:creator>
     <cc:Agent>
      <dc:title>Matplotlib v3.9.1, https://matplotlib.org/</dc:title>
     </cc:Agent>
    </dc:creator>
   </cc:Work>
  </rdf:RDF>
 </metadata>
 <defs>
  <style type="text/css">*{stroke-linejoin: round; stroke-linecap: butt}</style>
 </defs>
 <g id="figure_1">
  <g id="patch_1">
   <path d="M 0 345.6 
L 460.8 345.6 
L 460.8 0 
L 0 0 
z
" style="fill: #ffffff"/>
  </g>
  <g id="axes_1">
   <g id="patch_2">
    <path d="M 57.6 307.584 
L 414.72 307.584 
L 414.72 41.472 
L 57.6 41.472 
z
" style="fill: #ffffff"/>
   </g>
   <g id="matplotlib.axis_1">
    <g id="xtick_1">
     <g id="line2d_1">
      <defs>
       <path id="me2f96c50a8" d="M 0 0 
L 0 3.5 
" style="stroke: #000000; stroke-width: 0.8"/>
      </defs>
      <g>
       <use xlink:href="#me2f96c50a8" x="73.832727" y="307.584" style="stroke: #000000; stroke-width: 0.8"/>
      </g>
     </g>
     <g id="text_1">
      <!-- 1 -->
      <g transform="translate(70.651477 322.182437) scale(0.1 -0.1)">
       <defs>
        <path id="DejaVuSans-31" d="M 794 531 
L 1825 531 
L 1825 4091 
L 703 3866 
L 703 4441 
L 1819 4666 
L 2450 4666 
L 2450 531 
L 3481 531 
L 3481 0 
L 794 0 
L 794 531 
z
" transform="scale(0.015625)"/>
       </defs>
       <use xlink:href="#DejaVuSans-31"/>
      </g>
     </g>
    </g>
    <g id="xtick_2">
     <g id="line2d_2">
      <g>
       <use xlink:href="#me2f96c50a8" x="109.664165" y="307.584" style="stroke: #000000; stroke-width: 0.8"/>
      </g>
     </g>
     <g id="text_2">
      <!-- 34 -->
      <g transform="translate(103.301665 322.182437) scale(0.1 -0.1)">
       <defs>
        <path id="DejaVuSans-33" d="M 2597 2516 
Q 3050 2419 3304 2112 
Q 3559 1806 3559 1356 
Q 3559 666 3084 287 
Q 2609 -91 1734 -91 
Q 1441 -91 1130 -33 
Q 819 25 488 141 
L 488 750 
Q 750 597 1062 519 
Q 1375 441 1716 441 
Q 2309 441 2620 675 
Q 2931 909 2931 1356 
Q 2931 1769 2642 2001 
Q 2353 2234 1838 2234 
L 1294 2234 
L 1294 2753 
L 1863 2753 
Q 2328 2753 2575 2939 
Q 2822 3125 2822 3475 
Q 2822 3834 2567 4026 
Q 2313 4219 1838 4219 
Q 1578 4219 1281 4162 
Q 984 4106 628 3988 
L 628 4550 
Q 988 4650 1302 4700 
Q 1616 4750 1894 4750 
Q 2613 4750 3031 4423 
Q 3450 4097 3450 3541 
Q 3450 3153 3228 2886 
Q 3006 2619 2597 2516 
z
" transform="scale(0.015625)"/>
        <path id="DejaVuSans-34" d="M 2419 4116 
L 825 1625 
L 2419 1625 
L 2419 4116 
z
M 2253 4666 
L 3047 4666 
L 3047 1625 
L 3713 1625 
L 3713 1100 
L 3047 1100 
L 3047 0 
L 2419 0 
L 2419 1100 
L 313 1100 
L 313 1709 
L 2253 4666 
z
" transform="scale(0.015625)"/>
       </defs>
       <use xlink:href="#DejaVuSans-33"/>
       <use xlink:href="#DejaVuSans-34" x="63.623047"/>
      </g>
     </g>
    </g>
    <g id="xtick_3">
     <g id="line2d_3">
      <g>
       <use xlink:href="#me2f96c50a8" x="145.495604" y="307.584" style="stroke: #000000; stroke-width: 0.8"/>
      </g>
     </g>
     <g id="text_3">
      <!-- 67 -->
      <g transform="translate(139.133104 322.182437) scale(0.1 -0.1)">
       <defs>
        <path id="DejaVuSans-36" d="M 2113 2584 
Q 1688 2584 1439 2293 
Q 1191 2003 1191 1497 
Q 1191 994 1439 701 
Q 1688 409 2113 409 
Q 2538 409 2786 701 
Q 3034 994 3034 1497 
Q 3034 2003 2786 2293 
Q 2538 2584 2113 2584 
z
M 3366 4563 
L 3366 3988 
Q 3128 4100 2886 4159 
Q 2644 4219 2406 4219 
Q 1781 4219 1451 3797 
Q 1122 3375 1075 2522 
Q 1259 2794 1537 2939 
Q 1816 3084 2150 3084 
Q 2853 3084 3261 2657 
Q 3669 2231 3669 1497 
Q 3669 778 3244 343 
Q 2819 -91 2113 -91 
Q 1303 -91 875 529 
Q 447 1150 447 2328 
Q 447 3434 972 4092 
Q 1497 4750 2381 4750 
Q 2619 4750 2861 4703 
Q 3103 4656 3366 4563 
z
" transform="scale(0.015625)"/>
        <path id="DejaVuSans-37" d="M 525 4666 
L 3525 4666 
L 3525 4397 
L 1831 0 
L 1172 0 
L 2766 4134 
L 525 4134 
L 525 4666 
z
" transform="scale(0.015625)"/>
       </defs>
       <use xlink:href="#DejaVuSans-36"/>
       <use xlink:href="#DejaVuSans-37" x="63.623047"/>
      </g>
     </g>
    </g>
    <g id="xtick_4">
     <g id="line2d_4">
      <g>
       <use xlink:href="#me2f96c50a8" x="181.327042" y="307.584" style="stroke: #000000; stroke-width: 0.8"/>
      </g>
     </g>
     <g id="text_4">
      <!-- 100 -->
      <g transform="translate(171.783292 322.182437) scale(0.1 -0.1)">
       <defs>
        <path id="DejaVuSans-30" d="M 2034 4250 
Q 1547 4250 1301 3770 
Q 1056 3291 1056 2328 
Q 1056 1369 1301 889 
Q 1547 409 2034 409 
Q 2525 409 2770 889 
Q 3016 1369 3016 2328 
Q 3016 3291 2770 3770 
Q 2525 4250 2034 4250 
z
M 2034 4750 
Q 2819 4750 3233 4129 
Q 3647 3509 3647 2328 
Q 3647 1150 3233 529 
Q 2819 -91 2034 -91 
Q 1250 -91 836 529 
Q 422 1150 422 2328 
Q 422 3509 836 4129 
Q 1250 4750 2034 4750 
z
" transform="scale(0.015625)"/>
       </defs>
       <use xlink:href="#DejaVuSans-31"/>
       <use xlink:href="#DejaVuSans-30" x="63.623047"/>
       <use xlink:href="#DejaVuSans-30" x="127.246094"/>
      </g>
     </g>
    </g>
    <g id="xtick_5">
     <g id="line2d_5">
      <g>
       <use xlink:href="#me2f96c50a8" x="217.15848" y="307.584" style="stroke: #000000; stroke-width: 0.8"/>
      </g>
     </g>
     <g id="text_5">
      <!-- 133 -->
      <g transform="translate(207.61473 322.182437) scale(0.1 -0.1)">
       <use xlink:href="#DejaVuSans-31"/>
       <use xlink:href="#DejaVuSans-33" x="63.623047"/>
       <use xlink:href="#DejaVuSans-33" x="127.246094"/>
      </g>
     </g>
    </g>
    <g id="xtick_6">
     <g id="line2d_6">
      <g>
       <use xlink:href="#me2f96c50a8" x="254.075719" y="307.584" style="stroke: #000000; stroke-width: 0.8"/>
      </g>
     </g>
     <g id="text_6">
      <!-- 167 -->
      <g transform="translate(244.531969 322.182437) scale(0.1 -0.1)">
       <use xlink:href="#DejaVuSans-31"/>
       <use xlink:href="#DejaVuSans-36" x="63.623047"/>
       <use xlink:href="#DejaVuSans-37" x="127.246094"/>
      </g>
     </g>
    </g>
    <g id="xtick_7">
     <g id="line2d_7">
      <g>
       <use xlink:href="#me2f96c50a8" x="289.907157" y="307.584" style="stroke: #000000; stroke-width: 0.8"/>
      </g>
     </g>
     <g id="text_7">
      <!-- 200 -->
      <g transform="translate(280.363407 322.182437) scale(0.1 -0.1)">
       <defs>
        <path id="DejaVuSans-32" d="M 1228 531 
L 3431 531 
L 3431 0 
L 469 0 
L 469 531 
Q 828 903 1448 1529 
Q 2069 2156 2228 2338 
Q 2531 2678 2651 2914 
Q 2772 3150 2772 3378 
Q 2772 3750 2511 3984 
Q 2250 4219 1831 4219 
Q 1534 4219 1204 4116 
Q 875 4013 500 3803 
L 500 4441 
Q 881 4594 1212 4672 
Q 1544 4750 1819 4750 
Q 2544 4750 2975 4387 
Q 3406 4025 3406 3419 
Q 3406 3131 3298 2873 
Q 3191 2616 2906 2266 
Q 2828 2175 2409 1742 
Q 1991 1309 1228 531 
z
" transform="scale(0.015625)"/>
       </defs>
       <use xlink:href="#DejaVuSans-32"/>
       <use xlink:href="#DejaVuSans-30" x="63.623047"/>
       <use xlink:href="#DejaVuSans-30" x="127.246094"/>
      </g>
     </g>
    </g>
    <g id="xtick_8">
     <g id="line2d_8">
      <g>
       <use xlink:href="#me2f96c50a8" x="325.738595" y="307.584" style="stroke: #000000; stroke-width: 0.8"/>
      </g>
     </g>
     <g id="text_8">
      <!-- 233 -->
      <g transform="translate(316.194845 322.182437) scale(0.1 -0.1)">
       <use xlink:href="#DejaVuSans-32"/>
       <use xlink:href="#DejaVuSans-33" x="63.623047"/>
       <use xlink:href="#DejaVuSans-33" x="127.246094"/>
      </g>
     </g>
    </g>
    <g id="xtick_9">
     <g id="line2d_9">
      <g>
       <use xlink:href="#me2f96c50a8" x="361.570033" y="307.584" style="stroke: #000000; stroke-width: 0.8"/>
      </g>
     </g>
     <g id="text_9">
      <!-- 266 -->
      <g transform="translate(352.026283 322.182437) scale(0.1 -0.1)">
       <use xlink:href="#DejaVuSans-32"/>
       <use xlink:href="#DejaVuSans-36" x="63.623047"/>
       <use xlink:href="#DejaVuSans-36" x="127.246094"/>
      </g>
     </g>
    </g>
    <g id="xtick_10">
     <g id="line2d_10">
      <g>
       <use xlink:href="#me2f96c50a8" x="398.487273" y="307.584" style="stroke: #000000; stroke-width: 0.8"/>
      </g>
     </g>
     <g id="text_10">
      <!-- 300 -->
      <g transform="translate(388.943523 322.182437) scale(0.1 -0.1)">
       <use xlink:href="#DejaVuSans-33"/>
       <use xlink:href="#DejaVuSans-30" x="63.623047"/>
       <use xlink:href="#DejaVuSans-30" x="127.246094"/>
      </g>
     </g>
    </g>
    <g id="text_11">
     <!-- Epochs -->
     <g transform="translate(218.244375 335.860562) scale(0.1 -0.1)">
      <defs>
       <path id="DejaVuSans-45" d="M 628 4666 
L 3578 4666 
L 3578 4134 
L 1259 4134 
L 1259 2753 
L 3481 2753 
L 3481 2222 
L 1259 2222 
L 1259 531 
L 3634 531 
L 3634 0 
L 628 0 
L 628 4666 
z
" transform="scale(0.015625)"/>
       <path id="DejaVuSans-70" d="M 1159 525 
L 1159 -1331 
L 581 -1331 
L 581 3500 
L 1159 3500 
L 1159 2969 
Q 1341 3281 1617 3432 
Q 1894 3584 2278 3584 
Q 2916 3584 3314 3078 
Q 3713 2572 3713 1747 
Q 3713 922 3314 415 
Q 2916 -91 2278 -91 
Q 1894 -91 1617 61 
Q 1341 213 1159 525 
z
M 3116 1747 
Q 3116 2381 2855 2742 
Q 2594 3103 2138 3103 
Q 1681 3103 1420 2742 
Q 1159 2381 1159 1747 
Q 1159 1113 1420 752 
Q 1681 391 2138 391 
Q 2594 391 2855 752 
Q 3116 1113 3116 1747 
z
" transform="scale(0.015625)"/>
       <path id="DejaVuSans-6f" d="M 1959 3097 
Q 1497 3097 1228 2736 
Q 959 2375 959 1747 
Q 959 1119 1226 758 
Q 1494 397 1959 397 
Q 2419 397 2687 759 
Q 2956 1122 2956 1747 
Q 2956 2369 2687 2733 
Q 2419 3097 1959 3097 
z
M 1959 3584 
Q 2709 3584 3137 3096 
Q 3566 2609 3566 1747 
Q 3566 888 3137 398 
Q 2709 -91 1959 -91 
Q 1206 -91 779 398 
Q 353 888 353 1747 
Q 353 2609 779 3096 
Q 1206 3584 1959 3584 
z
" transform="scale(0.015625)"/>
       <path id="DejaVuSans-63" d="M 3122 3366 
L 3122 2828 
Q 2878 2963 2633 3030 
Q 2388 3097 2138 3097 
Q 1578 3097 1268 2742 
Q 959 2388 959 1747 
Q 959 1106 1268 751 
Q 1578 397 2138 397 
Q 2388 397 2633 464 
Q 2878 531 3122 666 
L 3122 134 
Q 2881 22 2623 -34 
Q 2366 -91 2075 -91 
Q 1284 -91 818 406 
Q 353 903 353 1747 
Q 353 2603 823 3093 
Q 1294 3584 2113 3584 
Q 2378 3584 2631 3529 
Q 2884 3475 3122 3366 
z
" transform="scale(0.015625)"/>
       <path id="DejaVuSans-68" d="M 3513 2113 
L 3513 0 
L 2938 0 
L 2938 2094 
Q 2938 2591 2744 2837 
Q 2550 3084 2163 3084 
Q 1697 3084 1428 2787 
Q 1159 2491 1159 1978 
L 1159 0 
L 581 0 
L 581 4863 
L 1159 4863 
L 1159 2956 
Q 1366 3272 1645 3428 
Q 1925 3584 2291 3584 
Q 2894 3584 3203 3211 
Q 3513 2838 3513 2113 
z
" transform="scale(0.015625)"/>
       <path id="DejaVuSans-73" d="M 2834 3397 
L 2834 2853 
Q 2591 2978 2328 3040 
Q 2066 3103 1784 3103 
Q 1356 3103 1142 2972 
Q 928 2841 928 2578 
Q 928 2378 1081 2264 
Q 1234 2150 1697 2047 
L 1894 2003 
Q 2506 1872 2764 1633 
Q 3022 1394 3022 966 
Q 3022 478 2636 193 
Q 2250 -91 1575 -91 
Q 1294 -91 989 -36 
Q 684 19 347 128 
L 347 722 
Q 666 556 975 473 
Q 1284 391 1588 391 
Q 1994 391 2212 530 
Q 2431 669 2431 922 
Q 2431 1156 2273 1281 
Q 2116 1406 1581 1522 
L 1381 1569 
Q 847 1681 609 1914 
Q 372 2147 372 2553 
Q 372 3047 722 3315 
Q 1072 3584 1716 3584 
Q 2034 3584 2315 3537 
Q 2597 3491 2834 3397 
z
" transform="scale(0.015625)"/>
      </defs>
      <use xlink:href="#DejaVuSans-45"/>
      <use xlink:href="#DejaVuSans-70" x="63.183594"/>
      <use xlink:href="#DejaVuSans-6f" x="126.660156"/>
      <use xlink:href="#DejaVuSans-63" x="187.841797"/>
      <use xlink:href="#DejaVuSans-68" x="242.822266"/>
      <use xlink:href="#DejaVuSans-73" x="306.201172"/>
     </g>
    </g>
   </g>
   <g id="matplotlib.axis_2">
    <g id="ytick_1">
     <g id="line2d_11">
      <defs>
       <path id="m070031b31f" d="M 0 0 
L -3.5 0 
" style="stroke: #000000; stroke-width: 0.8"/>
      </defs>
      <g>
       <use xlink:href="#m070031b31f" x="57.6" y="287.515228" style="stroke: #000000; stroke-width: 0.8"/>
      </g>
     </g>
     <g id="text_12">
      <!-- 10 -->
      <g transform="translate(37.875 291.314446) scale(0.1 -0.1)">
       <use xlink:href="#DejaVuSans-31"/>
       <use xlink:href="#DejaVuSans-30" x="63.623047"/>
      </g>
     </g>
    </g>
    <g id="ytick_2">
     <g id="line2d_12">
      <g>
       <use xlink:href="#m070031b31f" x="57.6" y="257.038269" style="stroke: #000000; stroke-width: 0.8"/>
      </g>
     </g>
     <g id="text_13">
      <!-- 20 -->
      <g transform="translate(37.875 260.837488) scale(0.1 -0.1)">
       <use xlink:href="#DejaVuSans-32"/>
       <use xlink:href="#DejaVuSans-30" x="63.623047"/>
      </g>
     </g>
    </g>
    <g id="ytick_3">
     <g id="line2d_13">
      <g>
       <use xlink:href="#m070031b31f" x="57.6" y="226.561311" style="stroke: #000000; stroke-width: 0.8"/>
      </g>
     </g>
     <g id="text_14">
      <!-- 30 -->
      <g transform="translate(37.875 230.36053) scale(0.1 -0.1)">
       <use xlink:href="#DejaVuSans-33"/>
       <use xlink:href="#DejaVuSans-30" x="63.623047"/>
      </g>
     </g>
    </g>
    <g id="ytick_4">
     <g id="line2d_14">
      <g>
       <use xlink:href="#m070031b31f" x="57.6" y="196.084353" style="stroke: #000000; stroke-width: 0.8"/>
      </g>
     </g>
     <g id="text_15">
      <!-- 40 -->
      <g transform="translate(37.875 199.883571) scale(0.1 -0.1)">
       <use xlink:href="#DejaVuSans-34"/>
       <use xlink:href="#DejaVuSans-30" x="63.623047"/>
      </g>
     </g>
    </g>
    <g id="ytick_5">
     <g id="line2d_15">
      <g>
       <use xlink:href="#m070031b31f" x="57.6" y="165.607394" style="stroke: #000000; stroke-width: 0.8"/>
      </g>
     </g>
     <g id="text_16">
      <!-- 50 -->
      <g transform="translate(37.875 169.406613) scale(0.1 -0.1)">
       <defs>
        <path id="DejaVuSans-35" d="M 691 4666 
L 3169 4666 
L 3169 4134 
L 1269 4134 
L 1269 2991 
Q 1406 3038 1543 3061 
Q 1681 3084 1819 3084 
Q 2600 3084 3056 2656 
Q 3513 2228 3513 1497 
Q 3513 744 3044 326 
Q 2575 -91 1722 -91 
Q 1428 -91 1123 -41 
Q 819 9 494 109 
L 494 744 
Q 775 591 1075 516 
Q 1375 441 1709 441 
Q 2250 441 2565 725 
Q 2881 1009 2881 1497 
Q 2881 1984 2565 2268 
Q 2250 2553 1709 2553 
Q 1456 2553 1204 2497 
Q 953 2441 691 2322 
L 691 4666 
z
" transform="scale(0.015625)"/>
       </defs>
       <use xlink:href="#DejaVuSans-35"/>
       <use xlink:href="#DejaVuSans-30" x="63.623047"/>
      </g>
     </g>
    </g>
    <g id="ytick_6">
     <g id="line2d_16">
      <g>
       <use xlink:href="#m070031b31f" x="57.6" y="135.130436" style="stroke: #000000; stroke-width: 0.8"/>
      </g>
     </g>
     <g id="text_17">
      <!-- 60 -->
      <g transform="translate(37.875 138.929655) scale(0.1 -0.1)">
       <use xlink:href="#DejaVuSans-36"/>
       <use xlink:href="#DejaVuSans-30" x="63.623047"/>
      </g>
     </g>
    </g>
    <g id="ytick_7">
     <g id="line2d_17">
      <g>
       <use xlink:href="#m070031b31f" x="57.6" y="104.653478" style="stroke: #000000; stroke-width: 0.8"/>
      </g>
     </g>
     <g id="text_18">
      <!-- 70 -->
      <g transform="translate(37.875 108.452696) scale(0.1 -0.1)">
       <use xlink:href="#DejaVuSans-37"/>
       <use xlink:href="#DejaVuSans-30" x="63.623047"/>
      </g>
     </g>
    </g>
    <g id="ytick_8">
     <g id="line2d_18">
      <g>
       <use xlink:href="#m070031b31f" x="57.6" y="74.176519" style="stroke: #000000; stroke-width: 0.8"/>
      </g>
     </g>
     <g id="text_19">
      <!-- 80 -->
      <g transform="translate(37.875 77.975738) scale(0.1 -0.1)">
       <defs>
        <path id="DejaVuSans-38" d="M 2034 2216 
Q 1584 2216 1326 1975 
Q 1069 1734 1069 1313 
Q 1069 891 1326 650 
Q 1584 409 2034 409 
Q 2484 409 2743 651 
Q 3003 894 3003 1313 
Q 3003 1734 2745 1975 
Q 2488 2216 2034 2216 
z
M 1403 2484 
Q 997 2584 770 2862 
Q 544 3141 544 3541 
Q 544 4100 942 4425 
Q 1341 4750 2034 4750 
Q 2731 4750 3128 4425 
Q 3525 4100 3525 3541 
Q 3525 3141 3298 2862 
Q 3072 2584 2669 2484 
Q 3125 2378 3379 2068 
Q 3634 1759 3634 1313 
Q 3634 634 3220 271 
Q 2806 -91 2034 -91 
Q 1263 -91 848 271 
Q 434 634 434 1313 
Q 434 1759 690 2068 
Q 947 2378 1403 2484 
z
M 1172 3481 
Q 1172 3119 1398 2916 
Q 1625 2713 2034 2713 
Q 2441 2713 2670 2916 
Q 2900 3119 2900 3481 
Q 2900 3844 2670 4047 
Q 2441 4250 2034 4250 
Q 1625 4250 1398 4047 
Q 1172 3844 1172 3481 
z
" transform="scale(0.015625)"/>
       </defs>
       <use xlink:href="#DejaVuSans-38"/>
       <use xlink:href="#DejaVuSans-30" x="63.623047"/>
      </g>
     </g>
    </g>
    <g id="ytick_9">
     <g id="line2d_19">
      <g>
       <use xlink:href="#m070031b31f" x="57.6" y="43.699561" style="stroke: #000000; stroke-width: 0.8"/>
      </g>
     </g>
     <g id="text_20">
      <!-- 90 -->
      <g transform="translate(37.875 47.49878) scale(0.1 -0.1)">
       <defs>
        <path id="DejaVuSans-39" d="M 703 97 
L 703 672 
Q 941 559 1184 500 
Q 1428 441 1663 441 
Q 2288 441 2617 861 
Q 2947 1281 2994 2138 
Q 2813 1869 2534 1725 
Q 2256 1581 1919 1581 
Q 1219 1581 811 2004 
Q 403 2428 403 3163 
Q 403 3881 828 4315 
Q 1253 4750 1959 4750 
Q 2769 4750 3195 4129 
Q 3622 3509 3622 2328 
Q 3622 1225 3098 567 
Q 2575 -91 1691 -91 
Q 1453 -91 1209 -44 
Q 966 3 703 97 
z
M 1959 2075 
Q 2384 2075 2632 2365 
Q 2881 2656 2881 3163 
Q 2881 3666 2632 3958 
Q 2384 4250 1959 4250 
Q 1534 4250 1286 3958 
Q 1038 3666 1038 3163 
Q 1038 2656 1286 2365 
Q 1534 2075 1959 2075 
z
" transform="scale(0.015625)"/>
       </defs>
       <use xlink:href="#DejaVuSans-39"/>
       <use xlink:href="#DejaVuSans-30" x="63.623047"/>
      </g>
     </g>
    </g>
    <g id="text_21">
     <!-- Accuracy -->
     <g transform="translate(31.795312 197.356125) rotate(-90) scale(0.1 -0.1)">
      <defs>
       <path id="DejaVuSans-41" d="M 2188 4044 
L 1331 1722 
L 3047 1722 
L 2188 4044 
z
M 1831 4666 
L 2547 4666 
L 4325 0 
L 3669 0 
L 3244 1197 
L 1141 1197 
L 716 0 
L 50 0 
L 1831 4666 
z
" transform="scale(0.015625)"/>
       <path id="DejaVuSans-75" d="M 544 1381 
L 544 3500 
L 1119 3500 
L 1119 1403 
Q 1119 906 1312 657 
Q 1506 409 1894 409 
Q 2359 409 2629 706 
Q 2900 1003 2900 1516 
L 2900 3500 
L 3475 3500 
L 3475 0 
L 2900 0 
L 2900 538 
Q 2691 219 2414 64 
Q 2138 -91 1772 -91 
Q 1169 -91 856 284 
Q 544 659 544 1381 
z
M 1991 3584 
L 1991 3584 
z
" transform="scale(0.015625)"/>
       <path id="DejaVuSans-72" d="M 2631 2963 
Q 2534 3019 2420 3045 
Q 2306 3072 2169 3072 
Q 1681 3072 1420 2755 
Q 1159 2438 1159 1844 
L 1159 0 
L 581 0 
L 581 3500 
L 1159 3500 
L 1159 2956 
Q 1341 3275 1631 3429 
Q 1922 3584 2338 3584 
Q 2397 3584 2469 3576 
Q 2541 3569 2628 3553 
L 2631 2963 
z
" transform="scale(0.015625)"/>
       <path id="DejaVuSans-61" d="M 2194 1759 
Q 1497 1759 1228 1600 
Q 959 1441 959 1056 
Q 959 750 1161 570 
Q 1363 391 1709 391 
Q 2188 391 2477 730 
Q 2766 1069 2766 1631 
L 2766 1759 
L 2194 1759 
z
M 3341 1997 
L 3341 0 
L 2766 0 
L 2766 531 
Q 2569 213 2275 61 
Q 1981 -91 1556 -91 
Q 1019 -91 701 211 
Q 384 513 384 1019 
Q 384 1609 779 1909 
Q 1175 2209 1959 2209 
L 2766 2209 
L 2766 2266 
Q 2766 2663 2505 2880 
Q 2244 3097 1772 3097 
Q 1472 3097 1187 3025 
Q 903 2953 641 2809 
L 641 3341 
Q 956 3463 1253 3523 
Q 1550 3584 1831 3584 
Q 2591 3584 2966 3190 
Q 3341 2797 3341 1997 
z
" transform="scale(0.015625)"/>
       <path id="DejaVuSans-79" d="M 2059 -325 
Q 1816 -950 1584 -1140 
Q 1353 -1331 966 -1331 
L 506 -1331 
L 506 -850 
L 844 -850 
Q 1081 -850 1212 -737 
Q 1344 -625 1503 -206 
L 1606 56 
L 191 3500 
L 800 3500 
L 1894 763 
L 2988 3500 
L 3597 3500 
L 2059 -325 
z
" transform="scale(0.015625)"/>
      </defs>
      <use xlink:href="#DejaVuSans-41"/>
      <use xlink:href="#DejaVuSans-63" x="66.658203"/>
      <use xlink:href="#DejaVuSans-63" x="121.638672"/>
      <use xlink:href="#DejaVuSans-75" x="176.619141"/>
      <use xlink:href="#DejaVuSans-72" x="239.998047"/>
      <use xlink:href="#DejaVuSans-61" x="281.111328"/>
      <use xlink:href="#DejaVuSans-63" x="342.390625"/>
      <use xlink:href="#DejaVuSans-79" x="397.371094"/>
     </g>
    </g>
   </g>
   <g id="line2d_20">
    <path d="M 73.832727 295.488 
L 77.090131 199.290529 
L 78.175932 179.340312 
L 79.261733 164.053069 
L 81.433335 145.925375 
L 82.519137 138.135464 
L 84.690739 126.310404 
L 85.77654 122.708028 
L 86.862341 116.893024 
L 89.033943 109.487123 
L 90.119745 107.292782 
L 91.205546 103.952508 
L 92.291347 103.477067 
L 93.377148 100.362322 
L 94.462949 99.905167 
L 95.54875 126.499361 
L 96.634552 126.993088 
L 97.720353 123.744244 
L 98.806154 122.098489 
L 100.977756 116.801593 
L 102.063557 114.857163 
L 103.149358 111.839944 
L 104.23516 109.541982 
L 105.320961 106.860009 
L 107.492563 103.586784 
L 108.578364 101.697213 
L 109.664165 100.776808 
L 110.749967 99.16153 
L 111.835768 97.875402 
L 112.921569 95.839541 
L 114.00737 95.290956 
L 115.093171 92.096971 
L 116.178972 89.585669 
L 117.264773 89.286995 
L 118.350575 87.470568 
L 119.436376 86.909792 
L 120.522177 86.787885 
L 121.607978 84.861741 
L 122.693779 82.027384 
L 123.77958 80.393819 
L 124.865382 79.954951 
L 125.951183 79.979332 
L 127.036984 79.516082 
L 128.122785 76.760965 
L 129.208586 76.620771 
L 130.294387 75.066446 
L 131.380189 73.896131 
L 132.46599 73.371928 
L 133.551791 73.359737 
L 134.637592 72.792865 
L 135.723393 73.341451 
L 137.894995 71.616455 
L 138.980797 96.193074 
L 140.066598 98.283793 
L 141.152399 97.790067 
L 142.2382 96.814804 
L 143.324001 97.558442 
L 144.409802 97.601109 
L 146.581405 96.619751 
L 147.667206 94.394933 
L 148.753007 93.767108 
L 149.838808 92.096971 
L 150.924609 91.792201 
L 152.01041 92.224974 
L 153.096212 91.524004 
L 154.182013 91.286284 
L 155.267814 90.597504 
L 156.353615 89.140706 
L 157.439416 88.823745 
L 158.525217 88.378782 
L 159.611019 86.946365 
L 160.69682 86.617214 
L 161.782621 85.282323 
L 162.868422 85.410326 
L 163.954223 84.855645 
L 166.125825 84.873932 
L 167.211627 84.538685 
L 168.297428 83.673139 
L 169.383229 81.527562 
L 170.46903 81.253269 
L 171.554831 80.308483 
L 172.640632 80.582776 
L 173.726434 78.949211 
L 174.812235 78.260432 
L 175.898036 78.796826 
L 176.983837 78.138524 
L 178.069638 77.766705 
L 179.155439 77.126689 
L 180.24124 76.102663 
L 181.327042 74.560529 
L 182.412843 75.139591 
L 183.498644 73.975371 
L 184.584445 74.432526 
L 186.756047 72.012655 
L 188.92765 71.799316 
L 190.013451 70.440044 
L 191.099252 69.397732 
L 192.185053 70.214515 
L 194.356656 68.014078 
L 195.442457 67.623973 
L 196.528258 68.282275 
L 198.69986 65.612494 
L 199.785661 66.41099 
L 200.871462 66.264701 
L 201.957264 64.588468 
L 206.300468 63.235291 
L 207.386269 62.503844 
L 208.472071 62.052785 
L 209.557872 61.321338 
L 210.643673 61.74192 
L 211.729474 61.333529 
L 212.815275 60.72399 
L 213.901076 60.96171 
L 214.986877 60.754467 
L 217.15848 59.01728 
L 218.244281 60.388743 
L 219.330082 59.376908 
L 220.415883 59.492721 
L 221.501684 58.913658 
L 222.587486 59.736536 
L 223.673287 59.86454 
L 224.759088 58.377264 
L 225.844889 82.600351 
L 226.93069 84.648402 
L 228.016491 85.837004 
L 229.102292 86.111296 
L 230.188094 84.84955 
L 231.273895 85.227464 
L 232.359696 86.038151 
L 233.445497 85.617569 
L 234.531298 83.392751 
L 236.702901 84.081531 
L 238.874503 83.240367 
L 239.960304 82.771021 
L 241.046105 82.734449 
L 242.131906 83.417133 
L 243.217708 83.484182 
L 244.303509 83.307416 
L 245.38931 81.911571 
L 246.475111 81.942048 
L 247.560912 81.100884 
L 248.646713 81.509275 
L 249.732514 81.210601 
L 250.818316 81.984716 
L 251.904117 80.936309 
L 252.989918 80.192671 
L 254.075719 80.284102 
L 255.16152 80.028095 
L 256.247321 79.601418 
L 257.333123 80.162194 
L 258.418924 78.760254 
L 259.504725 79.570941 
L 260.590526 79.193027 
L 261.676327 79.363698 
L 262.762128 78.339672 
L 263.847929 78.059284 
L 264.933731 78.973592 
L 266.019532 77.931281 
L 267.105333 77.419268 
L 268.191134 77.041353 
L 270.362736 77.394886 
L 271.448538 76.206285 
L 272.534339 76.206285 
L 273.62014 76.017328 
L 274.705941 76.815824 
L 275.791742 75.145687 
L 276.877543 75.706463 
L 277.963344 74.828726 
L 279.049146 75.407788 
L 280.134947 74.786058 
L 282.306549 73.902227 
L 283.39235 74.03023 
L 284.478151 73.335355 
L 285.563953 73.707174 
L 286.649754 73.896131 
L 287.735555 73.298783 
L 288.821356 72.835533 
L 289.907157 73.256115 
L 292.07876 72.177231 
L 293.164561 72.238185 
L 294.250362 70.793577 
L 295.336163 71.043488 
L 296.421964 71.470165 
L 297.507765 70.574143 
L 298.593566 71.189777 
L 299.679368 70.622906 
L 300.765169 69.818314 
L 301.85097 70.580238 
L 302.936771 69.062486 
L 305.108373 69.617166 
L 306.194175 68.989341 
L 307.279976 68.910101 
L 308.365777 69.501354 
L 309.451578 68.568759 
L 310.537379 66.965671 
L 311.62318 68.568759 
L 312.708981 68.087223 
L 314.880584 66.124507 
L 315.966385 66.801095 
L 317.052186 66.124507 
L 318.137987 66.837668 
L 319.223788 66.148888 
L 320.30959 65.825833 
L 321.395391 65.716116 
L 322.481192 65.825833 
L 323.566993 64.442179 
L 324.652794 64.295889 
L 325.738595 64.777425 
L 326.824396 64.283699 
L 327.910198 64.350748 
L 328.995999 63.046334 
L 330.0818 63.381581 
L 331.167601 62.467272 
L 332.253402 62.004022 
L 333.339203 62.339269 
L 334.425005 61.674871 
L 335.510806 61.376197 
L 336.596607 61.869923 
L 337.682408 62.004022 
L 338.768209 61.461532 
L 339.85401 60.742276 
L 340.939811 60.681322 
L 342.025613 59.63901 
L 343.111414 59.474435 
L 344.197215 60.120546 
L 345.283016 60.041306 
L 346.368817 58.980708 
L 347.454618 58.328501 
L 348.54042 59.358622 
L 349.626221 58.170021 
L 350.712022 58.791751 
L 351.797823 58.365073 
L 352.883624 57.091136 
L 353.969425 58.139544 
L 355.055227 57.249617 
L 356.141028 56.036634 
L 357.226829 57.054564 
L 358.31263 56.121969 
L 359.398431 56.853416 
L 360.484232 55.811104 
L 361.570033 55.67091 
L 362.655835 56.384071 
L 363.741636 54.464023 
L 364.827437 54.793174 
L 365.913238 54.622503 
L 366.999039 53.568 
L 368.08484 54.884605 
L 369.170642 55.707482 
L 370.256443 56.780271 
L 371.342244 56.59741 
L 373.513846 58.139544 
L 374.599647 57.597054 
L 375.685448 58.517458 
L 376.77125 57.432478 
L 377.857051 57.968873 
L 378.942852 57.255712 
L 380.028653 57.987159 
L 381.114454 58.109067 
L 382.200255 57.77382 
L 384.371858 58.109067 
L 385.457659 57.834774 
L 386.54346 57.926205 
L 387.629261 58.243165 
L 388.715062 58.797846 
L 389.800863 57.828679 
L 391.972466 58.742988 
L 393.058267 57.383715 
L 394.144068 58.590603 
L 395.229869 58.048113 
L 396.31567 58.096876 
L 397.401472 58.371169 
L 398.487273 58.218784 
L 398.487273 58.218784 
" clip-path="url(#pb62a23a7a3)" style="fill: none; stroke: #1f77b4; stroke-width: 1.5; stroke-linecap: square"/>
   </g>
   <g id="line2d_21">
    <path d="M 73.832727 279.804557 
L 74.918528 245.731318 
L 76.00433 231.071901 
L 77.090131 212.755249 
L 78.175932 191.451855 
L 79.261733 186.179341 
L 81.433335 169.173198 
L 82.519137 165.15024 
L 83.604938 163.413053 
L 84.690739 154.970936 
L 85.77654 151.831809 
L 86.862341 149.51556 
L 87.948142 141.987752 
L 89.033943 142.262044 
L 90.119745 140.128657 
L 91.205546 135.039005 
L 92.291347 134.398989 
L 93.377148 134.063742 
L 94.462949 134.155173 
L 95.54875 157.591954 
L 96.634552 154.574735 
L 97.720353 152.746118 
L 98.806154 146.437387 
L 99.891955 148.083143 
L 100.977756 146.31548 
L 102.063557 140.128657 
L 103.149358 143.572553 
L 104.23516 140.372473 
L 105.320961 136.197129 
L 106.406762 136.379991 
L 107.492563 130.436984 
L 108.578364 135.252344 
L 110.749967 131.229385 
L 111.835768 127.267381 
L 112.921569 128.852183 
L 114.00737 126.261641 
L 115.093171 125.530194 
L 116.178972 122.878699 
L 118.350575 118.398586 
L 119.436376 119.069079 
L 120.522177 117.575708 
L 121.607978 116.35663 
L 122.693779 114.893736 
L 123.77958 115.381367 
L 124.865382 112.912733 
L 125.951183 111.937471 
L 127.036984 112.486056 
L 128.122785 113.796565 
L 129.208586 109.072637 
L 130.294387 110.200284 
L 131.380189 110.931731 
L 132.46599 108.585005 
L 133.551791 109.164067 
L 134.637592 108.097374 
L 135.723393 107.701173 
L 136.809194 108.371667 
L 137.894995 107.884035 
L 138.980797 130.894139 
L 140.066598 133.027526 
L 141.152399 129.888399 
L 142.2382 130.071261 
L 143.324001 129.827445 
L 144.409802 130.497938 
L 145.495604 126.657842 
L 146.581405 128.608367 
L 147.667206 123.640623 
L 148.753007 124.493977 
L 149.838808 125.194948 
L 150.924609 123.640623 
L 152.01041 125.07304 
L 153.096212 123.457761 
L 154.182013 122.299636 
L 156.353615 126.901657 
L 157.439416 120.196726 
L 158.525217 120.349111 
L 159.611019 121.232943 
L 160.69682 118.794786 
L 161.782621 121.751051 
L 162.868422 119.251941 
L 163.954223 118.45954 
L 165.040024 120.836742 
L 166.125825 113.187026 
L 167.211627 115.442321 
L 168.297428 114.497535 
L 169.383229 115.076597 
L 170.46903 115.259459 
L 171.554831 113.64418 
L 172.640632 112.790825 
L 173.726434 114.192766 
L 174.812235 112.24224 
L 175.898036 115.625183 
L 176.983837 111.266978 
L 178.069638 112.577487 
L 179.155439 110.535531 
L 180.24124 110.505054 
L 181.327042 109.43836 
L 182.412843 109.499314 
L 183.498644 112.455579 
L 184.584445 107.975466 
L 185.670246 106.207802 
L 186.756047 106.116372 
L 188.92765 106.573526 
L 190.013451 106.268756 
L 191.099252 105.384925 
L 192.185053 102.672475 
L 193.270854 102.062936 
L 194.356656 104.287754 
L 195.442457 103.12963 
L 197.614059 101.849597 
L 198.69986 101.666736 
L 199.785661 101.057197 
L 200.871462 100.752427 
L 201.957264 99.746687 
L 203.043065 99.32001 
L 204.128866 99.990503 
L 205.214667 98.161885 
L 206.300468 96.91233 
L 207.386269 97.034238 
L 208.472071 97.339008 
L 209.557872 96.759945 
L 210.643673 95.906591 
L 211.729474 95.906591 
L 212.815275 95.632298 
L 213.901076 96.150406 
L 214.986877 94.382743 
L 216.072679 95.297051 
L 217.15848 94.41322 
L 218.244281 94.41322 
L 219.330082 93.864634 
L 220.415883 94.138927 
L 221.501684 94.80942 
L 222.587486 93.742726 
L 223.673287 94.50465 
L 224.759088 94.596081 
L 225.844889 123.549192 
L 226.93069 119.373848 
L 228.016491 119.678618 
L 229.102292 119.587187 
L 230.188094 119.282418 
L 231.273895 115.228982 
L 232.359696 117.240461 
L 233.445497 116.630922 
L 234.531298 119.983388 
L 235.617099 117.4538 
L 236.702901 119.16051 
L 237.788702 119.069079 
L 238.874503 116.387107 
L 239.960304 116.905215 
L 241.046105 118.520494 
L 242.131906 117.880478 
L 243.217708 118.002385 
L 244.303509 120.166249 
L 245.38931 117.636662 
L 246.475111 116.935692 
L 247.560912 119.099556 
L 248.646713 117.484277 
L 249.732514 114.162289 
L 250.818316 114.64992 
L 251.904117 115.564229 
L 252.989918 116.112814 
L 254.075719 115.533752 
L 255.16152 115.411844 
L 256.247321 114.34515 
L 257.333123 112.059378 
L 258.418924 113.583226 
L 259.504725 113.369888 
L 260.590526 115.137551 
L 261.676327 113.583226 
L 262.762128 114.223243 
L 263.847929 116.75283 
L 264.933731 112.577487 
L 266.019532 112.272717 
L 267.105333 112.668918 
L 268.191134 113.552749 
L 269.276935 111.358408 
L 270.362736 116.44806 
L 271.448538 111.967948 
L 272.534339 109.712653 
L 273.62014 113.705134 
L 274.705941 109.04216 
L 275.791742 109.74313 
L 276.877543 114.375627 
L 277.963344 110.8403 
L 279.049146 111.876517 
L 280.134947 111.480316 
L 281.220748 110.626961 
L 282.306549 109.13359 
L 283.39235 111.967948 
L 284.478151 109.74313 
L 285.563953 109.712653 
L 286.649754 107.792604 
L 288.821356 110.566008 
L 289.907157 107.396404 
L 290.992958 109.316452 
L 292.07876 109.316452 
L 293.164561 107.609743 
L 294.250362 105.23254 
L 295.336163 106.543049 
L 296.421964 105.720171 
L 297.507765 108.097374 
L 298.593566 106.908773 
L 299.679368 107.884035 
L 300.765169 105.781125 
L 301.85097 106.207802 
L 302.936771 108.493574 
L 305.108373 103.647738 
L 306.194175 103.861077 
L 307.279976 105.750648 
L 308.365777 104.653478 
L 309.451578 105.872556 
L 310.537379 103.434399 
L 311.62318 104.440139 
L 312.708981 102.215321 
L 313.794783 102.520091 
L 314.880584 101.514351 
L 315.966385 104.043938 
L 317.052186 102.733429 
L 318.137987 100.782904 
L 319.223788 101.361966 
L 320.30959 100.234319 
L 321.395391 100.874335 
L 322.481192 100.02098 
L 323.566993 102.946768 
L 324.652794 101.148627 
L 326.824396 99.32001 
L 327.910198 100.447657 
L 328.995999 99.685733 
L 330.0818 97.826639 
L 331.167601 97.552346 
L 332.253402 96.942807 
L 333.339203 99.076194 
L 334.425005 96.51613 
L 335.510806 100.081934 
L 336.596607 96.21136 
L 337.682408 97.857116 
L 338.768209 95.845637 
L 339.85401 96.91233 
L 340.939811 95.571344 
L 342.025613 95.51039 
L 343.111414 95.20562 
L 344.197215 93.620819 
L 345.283016 95.662775 
L 346.368817 94.41322 
L 347.454618 94.992282 
L 348.54042 93.468434 
L 349.626221 93.651296 
L 350.712022 93.956065 
L 351.797823 92.797941 
L 352.883624 91.365524 
L 353.969425 92.615079 
L 355.055227 92.310309 
L 356.141028 91.883632 
L 357.226829 92.036017 
L 358.31263 93.773203 
L 360.484232 90.573123 
L 361.570033 92.279832 
L 362.655835 90.359784 
L 363.741636 90.664554 
L 364.827437 92.188402 
L 365.913238 89.872153 
L 366.999039 90.664554 
L 368.08484 90.816938 
L 369.170642 92.127448 
L 370.256443 91.335047 
L 371.342244 92.767464 
L 372.428045 92.340786 
L 373.513846 93.620819 
L 374.599647 94.077973 
L 375.685448 93.986542 
L 376.77125 94.839897 
L 377.857051 95.236097 
L 378.942852 94.321789 
L 380.028653 92.919849 
L 381.114454 94.565604 
L 382.200255 96.790422 
L 383.286057 94.596081 
L 384.371858 94.047496 
L 385.457659 95.601821 
L 386.54346 94.778943 
L 387.629261 94.961805 
L 388.715062 95.266574 
L 389.800863 94.50465 
L 390.886665 94.717989 
L 391.972466 95.601821 
L 393.058267 95.51039 
L 394.144068 95.540867 
L 395.229869 96.180883 
L 396.31567 96.241837 
L 397.401472 94.687512 
L 398.487273 94.992282 
L 398.487273 94.992282 
" clip-path="url(#pb62a23a7a3)" style="fill: none; stroke: #ff7f0e; stroke-width: 1.5; stroke-linecap: square"/>
   </g>
   <g id="line2d_22">
    <path d="M 73.832727 289.133659 
L 74.918528 258.110218 
L 76.00433 248.862037 
L 77.090131 241.568586 
L 78.175932 221.663979 
L 79.261733 210.503107 
L 80.347534 219.036655 
L 81.433335 206.782816 
L 82.519137 204.02938 
L 83.604938 205.395589 
L 84.690739 191.208039 
L 85.77654 190.241184 
L 87.948142 186.331726 
L 89.033943 177.293731 
L 90.119745 182.968751 
L 91.205546 181.455413 
L 92.291347 176.768267 
L 93.377148 175.170854 
L 94.462949 174.645389 
L 95.54875 192.406099 
L 96.634552 182.064952 
L 97.720353 192.322025 
L 98.806154 191.229058 
L 99.891955 188.160343 
L 100.977756 197.345468 
L 102.063557 178.071419 
L 103.149358 187.088395 
L 104.23516 188.118306 
L 105.320961 180.509576 
L 106.406762 176.999471 
L 107.492563 175.339002 
L 108.578364 182.254119 
L 109.664165 175.906504 
L 110.749967 180.110223 
L 111.835768 178.176512 
L 112.921569 166.069803 
L 114.00737 168.192681 
L 115.093171 168.571016 
L 116.178972 175.212891 
L 117.264773 168.697127 
L 118.350575 167.267863 
L 119.436376 162.727847 
L 120.522177 172.795753 
L 121.607978 163.442479 
L 122.693779 159.764226 
L 123.77958 165.628413 
L 124.865382 161.025341 
L 125.951183 161.739973 
L 127.036984 159.301817 
L 128.122785 159.133668 
L 129.208586 157.578292 
L 131.380189 159.869319 
L 132.46599 159.764226 
L 133.551791 157.641348 
L 134.637592 157.052827 
L 135.723393 157.199958 
L 136.809194 156.464307 
L 137.894995 158.881445 
L 138.980797 169.369722 
L 140.066598 182.043933 
L 141.152399 172.942883 
L 142.2382 169.958243 
L 143.324001 178.51281 
L 144.409802 178.975219 
L 145.495604 180.362446 
L 146.581405 169.832131 
L 147.667206 170.44167 
L 148.753007 170.063336 
L 149.838808 170.210466 
L 152.01041 170.946117 
L 153.096212 171.135284 
L 154.182013 162.286457 
L 155.267814 174.7715 
L 156.353615 169.369722 
L 157.439416 172.879827 
L 158.525217 164.913781 
L 159.611019 168.928332 
L 160.69682 160.457839 
L 161.782621 169.033425 
L 162.868422 158.20885 
L 163.954223 163.967944 
L 165.040024 166.343045 
L 166.125825 161.424694 
L 167.211627 162.412568 
L 168.297428 166.86851 
L 169.383229 170.525745 
L 170.46903 163.442479 
L 171.554831 166.931566 
L 172.640632 166.237952 
L 173.726434 171.135284 
L 174.812235 161.19349 
L 175.898036 165.018874 
L 176.983837 163.820814 
L 178.069638 166.616287 
L 179.155439 158.06172 
L 180.24124 156.800604 
L 181.327042 159.512003 
L 182.412843 165.292115 
L 183.498644 162.769884 
L 184.584445 153.752908 
L 185.670246 156.527363 
L 186.756047 148.897614 
L 187.841849 162.118308 
L 188.92765 160.415802 
L 190.013451 157.284032 
L 191.099252 157.851534 
L 192.185053 157.073846 
L 193.270854 151.33577 
L 194.356656 157.220976 
L 195.442457 162.181364 
L 196.528258 158.524129 
L 197.614059 149.170855 
L 198.69986 148.225019 
L 199.785661 153.58476 
L 200.871462 153.101332 
L 201.957264 150.852343 
L 203.043065 150.705213 
L 204.128866 147.594461 
L 205.214667 145.450565 
L 206.300468 144.735932 
L 207.386269 146.669643 
L 208.472071 148.077889 
L 209.557872 148.939651 
L 210.643673 148.981688 
L 211.729474 147.489368 
L 212.815275 149.528171 
L 213.901076 146.837792 
L 214.986877 147.489368 
L 216.072679 148.35113 
L 217.15848 145.324453 
L 218.244281 143.87417 
L 219.330082 146.186215 
L 220.415883 143.57991 
L 221.501684 142.444906 
L 222.587486 144.336579 
L 223.673287 143.159538 
L 224.759088 146.039085 
L 225.844889 172.564548 
L 228.016491 170.946117 
L 229.102292 165.67045 
L 231.273895 166.153878 
L 232.359696 168.844257 
L 233.445497 169.958243 
L 234.531298 164.61952 
L 235.617099 157.998664 
L 236.702901 167.204807 
L 237.788702 174.435203 
L 238.874503 165.460264 
L 239.960304 168.823239 
L 241.046105 164.32526 
L 242.131906 168.045551 
L 243.217708 163.946926 
L 244.303509 169.117499 
L 245.38931 161.992196 
L 246.475111 162.202382 
L 247.560912 168.234718 
L 248.646713 165.081929 
L 250.818316 155.791712 
L 251.904117 170.231485 
L 252.989918 165.691469 
L 254.075719 162.68581 
L 255.16152 150.095673 
L 256.247321 167.646198 
L 257.333123 161.803029 
L 258.418924 164.766651 
L 259.504725 159.049594 
L 260.590526 161.676918 
L 261.676327 153.900039 
L 262.762128 170.525745 
L 263.847929 158.629222 
L 264.933731 169.075462 
L 266.019532 163.400442 
L 267.105333 166.448138 
L 268.191134 163.337386 
L 269.276935 152.659942 
L 270.362736 164.199149 
L 271.448538 170.252503 
L 272.534339 149.654283 
L 273.62014 162.433587 
L 274.705941 157.641348 
L 275.791742 161.403676 
L 276.877543 168.718146 
L 277.963344 163.589609 
L 279.049146 170.315559 
L 280.134947 154.131243 
L 281.220748 158.461073 
L 282.306549 154.803838 
L 283.39235 166.153878 
L 284.478151 158.187831 
L 285.563953 163.88387 
L 286.649754 161.445713 
L 287.735555 156.485325 
L 288.821356 158.50311 
L 289.907157 152.428737 
L 290.992958 155.980879 
L 292.07876 154.635689 
L 293.164561 151.104566 
L 294.250362 151.819198 
L 295.336163 145.786862 
L 296.421964 147.111033 
L 297.507765 156.695511 
L 298.593566 152.197533 
L 299.679368 155.245228 
L 300.765169 152.617904 
L 301.85097 162.181364 
L 302.936771 152.891146 
L 304.022572 152.176514 
L 305.108373 152.954202 
L 306.194175 147.783628 
L 307.279976 148.666409 
L 308.365777 147.047978 
L 309.451578 149.801413 
L 310.537379 150.368915 
L 311.62318 156.085972 
L 312.708981 150.873361 
L 313.794783 154.761801 
L 314.880584 151.04151 
L 315.966385 154.425503 
L 317.052186 155.287266 
L 318.137987 153.122351 
L 319.223788 156.128009 
L 320.30959 150.831324 
L 321.395391 156.443288 
L 322.481192 147.321219 
L 323.566993 152.659942 
L 324.652794 156.527363 
L 325.738595 145.408527 
L 326.824396 152.113458 
L 327.910198 153.668834 
L 328.995999 144.357598 
L 330.0818 145.471583 
L 331.167601 151.545956 
L 332.253402 148.077889 
L 333.339203 146.71168 
L 334.425005 142.823241 
L 335.510806 148.49826 
L 336.596607 145.21936 
L 337.682408 149.317986 
L 338.768209 148.225019 
L 339.85401 147.300201 
L 340.939811 142.907315 
L 342.025613 147.111033 
L 343.111414 143.958245 
L 344.197215 148.035851 
L 345.283016 149.002707 
L 346.368817 145.576676 
L 347.454618 143.327687 
L 348.54042 140.153879 
L 349.626221 140.30101 
L 350.712022 142.045553 
L 351.797823 138.430355 
L 352.883624 138.514429 
L 353.969425 142.129627 
L 355.055227 140.868512 
L 356.141028 144.357598 
L 357.226829 143.790096 
L 358.31263 145.324453 
L 359.398431 145.450565 
L 360.484232 144.483709 
L 361.570033 141.099716 
L 362.655835 140.153879 
L 363.741636 140.511195 
L 364.827437 142.970371 
L 365.913238 142.613055 
L 366.999039 141.03666 
L 368.08484 142.991389 
L 369.170642 145.765843 
L 370.256443 147.174089 
L 371.342244 144.378616 
L 372.428045 148.05687 
L 373.513846 153.290499 
L 374.599647 152.933183 
L 375.685448 146.459457 
L 376.77125 146.41742 
L 377.857051 150.368915 
L 378.942852 150.011599 
L 380.028653 144.841025 
L 381.114454 146.606587 
L 382.200255 154.362448 
L 383.286057 145.828899 
L 384.371858 147.426312 
L 385.457659 148.119926 
L 386.54346 145.282416 
L 387.629261 149.128818 
L 388.715062 140.88953 
L 389.800863 144.904081 
L 390.886665 143.180557 
L 391.972466 145.387509 
L 393.058267 147.111033 
L 394.144068 141.751292 
L 395.229869 144.672877 
L 396.31567 149.40206 
L 397.401472 146.186215 
L 398.487273 141.835367 
L 398.487273 141.835367 
" clip-path="url(#pb62a23a7a3)" style="fill: none; stroke: #2ca02c; stroke-width: 1.5; stroke-linecap: square"/>
   </g>
   <g id="line2d_23">
    <path d="M 368.08484 91.121708 
L 369.170642 88.988321 
L 370.256443 90.938846 
L 371.342244 91.731247 
L 372.428045 93.224618 
L 374.599647 91.853155 
L 375.685448 90.573123 
L 376.77125 92.645556 
L 377.857051 92.554125 
L 378.942852 93.041756 
L 380.028653 91.792201 
L 381.114454 94.10845 
L 382.200255 94.931328 
L 383.286057 93.71225 
L 384.371858 93.072233 
L 385.457659 93.559865 
L 386.54346 91.670293 
L 387.629261 95.11419 
L 388.715062 96.272314 
L 389.800863 92.493171 
L 390.886665 94.321789 
L 391.972466 92.371263 
L 393.058267 91.731247 
L 394.144068 93.773203 
L 395.229869 93.925588 
L 396.31567 93.194141 
L 397.401472 92.736987 
L 398.487273 93.834157 
L 398.487273 93.834157 
" clip-path="url(#pb62a23a7a3)" style="fill: none; stroke: #d62728; stroke-width: 1.5; stroke-linecap: square"/>
   </g>
   <g id="line2d_24">
    <path d="M 368.08484 140.048786 
L 369.170642 139.796563 
L 370.256443 139.754526 
L 371.342244 143.895189 
L 372.428045 145.345472 
L 373.513846 143.054445 
L 374.599647 141.414995 
L 375.685448 140.153879 
L 376.77125 144.231486 
L 377.857051 145.933992 
L 378.942852 143.621947 
L 380.028653 138.640541 
L 382.200255 152.554849 
L 383.286057 141.709255 
L 384.371858 141.730274 
L 385.457659 149.128818 
L 386.54346 140.30101 
L 387.629261 142.907315 
L 388.715062 146.27029 
L 389.800863 139.523322 
L 391.972466 140.658326 
L 393.058267 144.357598 
L 394.144068 145.807881 
L 395.229869 138.388318 
L 396.31567 143.222594 
L 397.401472 144.252505 
L 398.487273 144.462691 
L 398.487273 144.462691 
" clip-path="url(#pb62a23a7a3)" style="fill: none; stroke: #9467bd; stroke-width: 1.5; stroke-linecap: square"/>
   </g>
   <g id="patch_3">
    <path d="M 57.6 307.584 
L 57.6 41.472 
" style="fill: none; stroke: #000000; stroke-width: 0.8; stroke-linejoin: miter; stroke-linecap: square"/>
   </g>
   <g id="patch_4">
    <path d="M 414.72 307.584 
L 414.72 41.472 
" style="fill: none; stroke: #000000; stroke-width: 0.8; stroke-linejoin: miter; stroke-linecap: square"/>
   </g>
   <g id="patch_5">
    <path d="M 57.6 307.584 
L 414.72 307.584 
" style="fill: none; stroke: #000000; stroke-width: 0.8; stroke-linejoin: miter; stroke-linecap: square"/>
   </g>
   <g id="patch_6">
    <path d="M 57.6 41.472 
L 414.72 41.472 
" style="fill: none; stroke: #000000; stroke-width: 0.8; stroke-linejoin: miter; stroke-linecap: square"/>
   </g>
   <g id="text_22">
    <!-- Learning Curves -->
    <g transform="translate(187.37625 35.472) scale(0.12 -0.12)">
     <defs>
      <path id="DejaVuSans-4c" d="M 628 4666 
L 1259 4666 
L 1259 531 
L 3531 531 
L 3531 0 
L 628 0 
L 628 4666 
z
" transform="scale(0.015625)"/>
      <path id="DejaVuSans-65" d="M 3597 1894 
L 3597 1613 
L 953 1613 
Q 991 1019 1311 708 
Q 1631 397 2203 397 
Q 2534 397 2845 478 
Q 3156 559 3463 722 
L 3463 178 
Q 3153 47 2828 -22 
Q 2503 -91 2169 -91 
Q 1331 -91 842 396 
Q 353 884 353 1716 
Q 353 2575 817 3079 
Q 1281 3584 2069 3584 
Q 2775 3584 3186 3129 
Q 3597 2675 3597 1894 
z
M 3022 2063 
Q 3016 2534 2758 2815 
Q 2500 3097 2075 3097 
Q 1594 3097 1305 2825 
Q 1016 2553 972 2059 
L 3022 2063 
z
" transform="scale(0.015625)"/>
      <path id="DejaVuSans-6e" d="M 3513 2113 
L 3513 0 
L 2938 0 
L 2938 2094 
Q 2938 2591 2744 2837 
Q 2550 3084 2163 3084 
Q 1697 3084 1428 2787 
Q 1159 2491 1159 1978 
L 1159 0 
L 581 0 
L 581 3500 
L 1159 3500 
L 1159 2956 
Q 1366 3272 1645 3428 
Q 1925 3584 2291 3584 
Q 2894 3584 3203 3211 
Q 3513 2838 3513 2113 
z
" transform="scale(0.015625)"/>
      <path id="DejaVuSans-69" d="M 603 3500 
L 1178 3500 
L 1178 0 
L 603 0 
L 603 3500 
z
M 603 4863 
L 1178 4863 
L 1178 4134 
L 603 4134 
L 603 4863 
z
" transform="scale(0.015625)"/>
      <path id="DejaVuSans-67" d="M 2906 1791 
Q 2906 2416 2648 2759 
Q 2391 3103 1925 3103 
Q 1463 3103 1205 2759 
Q 947 2416 947 1791 
Q 947 1169 1205 825 
Q 1463 481 1925 481 
Q 2391 481 2648 825 
Q 2906 1169 2906 1791 
z
M 3481 434 
Q 3481 -459 3084 -895 
Q 2688 -1331 1869 -1331 
Q 1566 -1331 1297 -1286 
Q 1028 -1241 775 -1147 
L 775 -588 
Q 1028 -725 1275 -790 
Q 1522 -856 1778 -856 
Q 2344 -856 2625 -561 
Q 2906 -266 2906 331 
L 2906 616 
Q 2728 306 2450 153 
Q 2172 0 1784 0 
Q 1141 0 747 490 
Q 353 981 353 1791 
Q 353 2603 747 3093 
Q 1141 3584 1784 3584 
Q 2172 3584 2450 3431 
Q 2728 3278 2906 2969 
L 2906 3500 
L 3481 3500 
L 3481 434 
z
" transform="scale(0.015625)"/>
      <path id="DejaVuSans-20" transform="scale(0.015625)"/>
      <path id="DejaVuSans-43" d="M 4122 4306 
L 4122 3641 
Q 3803 3938 3442 4084 
Q 3081 4231 2675 4231 
Q 1875 4231 1450 3742 
Q 1025 3253 1025 2328 
Q 1025 1406 1450 917 
Q 1875 428 2675 428 
Q 3081 428 3442 575 
Q 3803 722 4122 1019 
L 4122 359 
Q 3791 134 3420 21 
Q 3050 -91 2638 -91 
Q 1578 -91 968 557 
Q 359 1206 359 2328 
Q 359 3453 968 4101 
Q 1578 4750 2638 4750 
Q 3056 4750 3426 4639 
Q 3797 4528 4122 4306 
z
" transform="scale(0.015625)"/>
      <path id="DejaVuSans-76" d="M 191 3500 
L 800 3500 
L 1894 563 
L 2988 3500 
L 3597 3500 
L 2284 0 
L 1503 0 
L 191 3500 
z
" transform="scale(0.015625)"/>
     </defs>
     <use xlink:href="#DejaVuSans-4c"/>
     <use xlink:href="#DejaVuSans-65" x="53.962891"/>
     <use xlink:href="#DejaVuSans-61" x="115.486328"/>
     <use xlink:href="#DejaVuSans-72" x="176.765625"/>
     <use xlink:href="#DejaVuSans-6e" x="216.128906"/>
     <use xlink:href="#DejaVuSans-69" x="279.507812"/>
     <use xlink:href="#DejaVuSans-6e" x="307.291016"/>
     <use xlink:href="#DejaVuSans-67" x="370.669922"/>
     <use xlink:href="#DejaVuSans-20" x="434.146484"/>
     <use xlink:href="#DejaVuSans-43" x="465.933594"/>
     <use xlink:href="#DejaVuSans-75" x="535.757812"/>
     <use xlink:href="#DejaVuSans-72" x="599.136719"/>
     <use xlink:href="#DejaVuSans-76" x="640.25"/>
     <use xlink:href="#DejaVuSans-65" x="699.429688"/>
     <use xlink:href="#DejaVuSans-73" x="760.953125"/>
    </g>
   </g>
   <g id="legend_1">
    <g id="patch_7">
     <path d="M 214.18875 302.584 
L 407.72 302.584 
Q 409.72 302.584 409.72 300.584 
L 409.72 228.193375 
Q 409.72 226.193375 407.72 226.193375 
L 214.18875 226.193375 
Q 212.18875 226.193375 212.18875 228.193375 
L 212.18875 300.584 
Q 212.18875 302.584 214.18875 302.584 
z
" style="fill: #ffffff; opacity: 0.8; stroke: #cccccc; stroke-linejoin: miter"/>
    </g>
    <g id="line2d_25">
     <path d="M 216.18875 234.291812 
L 226.18875 234.291812 
L 236.18875 234.291812 
" style="fill: none; stroke: #1f77b4; stroke-width: 1.5; stroke-linecap: square"/>
    </g>
    <g id="text_23">
     <!-- Train Accuracy -->
     <g transform="translate(244.18875 237.791812) scale(0.1 -0.1)">
      <defs>
       <path id="DejaVuSans-54" d="M -19 4666 
L 3928 4666 
L 3928 4134 
L 2272 4134 
L 2272 0 
L 1638 0 
L 1638 4134 
L -19 4134 
L -19 4666 
z
" transform="scale(0.015625)"/>
      </defs>
      <use xlink:href="#DejaVuSans-54"/>
      <use xlink:href="#DejaVuSans-72" x="46.333984"/>
      <use xlink:href="#DejaVuSans-61" x="87.447266"/>
      <use xlink:href="#DejaVuSans-69" x="148.726562"/>
      <use xlink:href="#DejaVuSans-6e" x="176.509766"/>
      <use xlink:href="#DejaVuSans-20" x="239.888672"/>
      <use xlink:href="#DejaVuSans-41" x="271.675781"/>
      <use xlink:href="#DejaVuSans-63" x="338.333984"/>
      <use xlink:href="#DejaVuSans-63" x="393.314453"/>
      <use xlink:href="#DejaVuSans-75" x="448.294922"/>
      <use xlink:href="#DejaVuSans-72" x="511.673828"/>
      <use xlink:href="#DejaVuSans-61" x="552.787109"/>
      <use xlink:href="#DejaVuSans-63" x="614.066406"/>
      <use xlink:href="#DejaVuSans-79" x="669.046875"/>
     </g>
    </g>
    <g id="line2d_26">
     <path d="M 216.18875 248.969937 
L 226.18875 248.969937 
L 236.18875 248.969937 
" style="fill: none; stroke: #ff7f0e; stroke-width: 1.5; stroke-linecap: square"/>
    </g>
    <g id="text_24">
     <!-- Validation Accuracy -->
     <g transform="translate(244.18875 252.469937) scale(0.1 -0.1)">
      <defs>
       <path id="DejaVuSans-56" d="M 1831 0 
L 50 4666 
L 709 4666 
L 2188 738 
L 3669 4666 
L 4325 4666 
L 2547 0 
L 1831 0 
z
" transform="scale(0.015625)"/>
       <path id="DejaVuSans-6c" d="M 603 4863 
L 1178 4863 
L 1178 0 
L 603 0 
L 603 4863 
z
" transform="scale(0.015625)"/>
       <path id="DejaVuSans-64" d="M 2906 2969 
L 2906 4863 
L 3481 4863 
L 3481 0 
L 2906 0 
L 2906 525 
Q 2725 213 2448 61 
Q 2172 -91 1784 -91 
Q 1150 -91 751 415 
Q 353 922 353 1747 
Q 353 2572 751 3078 
Q 1150 3584 1784 3584 
Q 2172 3584 2448 3432 
Q 2725 3281 2906 2969 
z
M 947 1747 
Q 947 1113 1208 752 
Q 1469 391 1925 391 
Q 2381 391 2643 752 
Q 2906 1113 2906 1747 
Q 2906 2381 2643 2742 
Q 2381 3103 1925 3103 
Q 1469 3103 1208 2742 
Q 947 2381 947 1747 
z
" transform="scale(0.015625)"/>
       <path id="DejaVuSans-74" d="M 1172 4494 
L 1172 3500 
L 2356 3500 
L 2356 3053 
L 1172 3053 
L 1172 1153 
Q 1172 725 1289 603 
Q 1406 481 1766 481 
L 2356 481 
L 2356 0 
L 1766 0 
Q 1100 0 847 248 
Q 594 497 594 1153 
L 594 3053 
L 172 3053 
L 172 3500 
L 594 3500 
L 594 4494 
L 1172 4494 
z
" transform="scale(0.015625)"/>
      </defs>
      <use xlink:href="#DejaVuSans-56"/>
      <use xlink:href="#DejaVuSans-61" x="60.658203"/>
      <use xlink:href="#DejaVuSans-6c" x="121.9375"/>
      <use xlink:href="#DejaVuSans-69" x="149.720703"/>
      <use xlink:href="#DejaVuSans-64" x="177.503906"/>
      <use xlink:href="#DejaVuSans-61" x="240.980469"/>
      <use xlink:href="#DejaVuSans-74" x="302.259766"/>
      <use xlink:href="#DejaVuSans-69" x="341.46875"/>
      <use xlink:href="#DejaVuSans-6f" x="369.251953"/>
      <use xlink:href="#DejaVuSans-6e" x="430.433594"/>
      <use xlink:href="#DejaVuSans-20" x="493.8125"/>
      <use xlink:href="#DejaVuSans-41" x="525.599609"/>
      <use xlink:href="#DejaVuSans-63" x="592.257812"/>
      <use xlink:href="#DejaVuSans-63" x="647.238281"/>
      <use xlink:href="#DejaVuSans-75" x="702.21875"/>
      <use xlink:href="#DejaVuSans-72" x="765.597656"/>
      <use xlink:href="#DejaVuSans-61" x="806.710938"/>
      <use xlink:href="#DejaVuSans-63" x="867.990234"/>
      <use xlink:href="#DejaVuSans-79" x="922.970703"/>
     </g>
    </g>
    <g id="line2d_27">
     <path d="M 216.18875 263.648062 
L 226.18875 263.648062 
L 236.18875 263.648062 
" style="fill: none; stroke: #2ca02c; stroke-width: 1.5; stroke-linecap: square"/>
    </g>
    <g id="text_25">
     <!-- Robust Validation Accuracy -->
     <g transform="translate(244.18875 267.148062) scale(0.1 -0.1)">
      <defs>
       <path id="DejaVuSans-52" d="M 2841 2188 
Q 3044 2119 3236 1894 
Q 3428 1669 3622 1275 
L 4263 0 
L 3584 0 
L 2988 1197 
Q 2756 1666 2539 1819 
Q 2322 1972 1947 1972 
L 1259 1972 
L 1259 0 
L 628 0 
L 628 4666 
L 2053 4666 
Q 2853 4666 3247 4331 
Q 3641 3997 3641 3322 
Q 3641 2881 3436 2590 
Q 3231 2300 2841 2188 
z
M 1259 4147 
L 1259 2491 
L 2053 2491 
Q 2509 2491 2742 2702 
Q 2975 2913 2975 3322 
Q 2975 3731 2742 3939 
Q 2509 4147 2053 4147 
L 1259 4147 
z
" transform="scale(0.015625)"/>
       <path id="DejaVuSans-62" d="M 3116 1747 
Q 3116 2381 2855 2742 
Q 2594 3103 2138 3103 
Q 1681 3103 1420 2742 
Q 1159 2381 1159 1747 
Q 1159 1113 1420 752 
Q 1681 391 2138 391 
Q 2594 391 2855 752 
Q 3116 1113 3116 1747 
z
M 1159 2969 
Q 1341 3281 1617 3432 
Q 1894 3584 2278 3584 
Q 2916 3584 3314 3078 
Q 3713 2572 3713 1747 
Q 3713 922 3314 415 
Q 2916 -91 2278 -91 
Q 1894 -91 1617 61 
Q 1341 213 1159 525 
L 1159 0 
L 581 0 
L 581 4863 
L 1159 4863 
L 1159 2969 
z
" transform="scale(0.015625)"/>
      </defs>
      <use xlink:href="#DejaVuSans-52"/>
      <use xlink:href="#DejaVuSans-6f" x="64.982422"/>
      <use xlink:href="#DejaVuSans-62" x="126.164062"/>
      <use xlink:href="#DejaVuSans-75" x="189.640625"/>
      <use xlink:href="#DejaVuSans-73" x="253.019531"/>
      <use xlink:href="#DejaVuSans-74" x="305.119141"/>
      <use xlink:href="#DejaVuSans-20" x="344.328125"/>
      <use xlink:href="#DejaVuSans-56" x="376.115234"/>
      <use xlink:href="#DejaVuSans-61" x="436.773438"/>
      <use xlink:href="#DejaVuSans-6c" x="498.052734"/>
      <use xlink:href="#DejaVuSans-69" x="525.835938"/>
      <use xlink:href="#DejaVuSans-64" x="553.619141"/>
      <use xlink:href="#DejaVuSans-61" x="617.095703"/>
      <use xlink:href="#DejaVuSans-74" x="678.375"/>
      <use xlink:href="#DejaVuSans-69" x="717.583984"/>
      <use xlink:href="#DejaVuSans-6f" x="745.367188"/>
      <use xlink:href="#DejaVuSans-6e" x="806.548828"/>
      <use xlink:href="#DejaVuSans-20" x="869.927734"/>
      <use xlink:href="#DejaVuSans-41" x="901.714844"/>
      <use xlink:href="#DejaVuSans-63" x="968.373047"/>
      <use xlink:href="#DejaVuSans-63" x="1023.353516"/>
      <use xlink:href="#DejaVuSans-75" x="1078.333984"/>
      <use xlink:href="#DejaVuSans-72" x="1141.712891"/>
      <use xlink:href="#DejaVuSans-61" x="1182.826172"/>
      <use xlink:href="#DejaVuSans-63" x="1244.105469"/>
      <use xlink:href="#DejaVuSans-79" x="1299.085938"/>
     </g>
    </g>
    <g id="line2d_28">
     <path d="M 216.18875 278.326188 
L 226.18875 278.326188 
L 236.18875 278.326188 
" style="fill: none; stroke: #d62728; stroke-width: 1.5; stroke-linecap: square"/>
    </g>
    <g id="text_26">
     <!-- SWA Validation Accuracy -->
     <g transform="translate(244.18875 281.826188) scale(0.1 -0.1)">
      <defs>
       <path id="DejaVuSans-53" d="M 3425 4513 
L 3425 3897 
Q 3066 4069 2747 4153 
Q 2428 4238 2131 4238 
Q 1616 4238 1336 4038 
Q 1056 3838 1056 3469 
Q 1056 3159 1242 3001 
Q 1428 2844 1947 2747 
L 2328 2669 
Q 3034 2534 3370 2195 
Q 3706 1856 3706 1288 
Q 3706 609 3251 259 
Q 2797 -91 1919 -91 
Q 1588 -91 1214 -16 
Q 841 59 441 206 
L 441 856 
Q 825 641 1194 531 
Q 1563 422 1919 422 
Q 2459 422 2753 634 
Q 3047 847 3047 1241 
Q 3047 1584 2836 1778 
Q 2625 1972 2144 2069 
L 1759 2144 
Q 1053 2284 737 2584 
Q 422 2884 422 3419 
Q 422 4038 858 4394 
Q 1294 4750 2059 4750 
Q 2388 4750 2728 4690 
Q 3069 4631 3425 4513 
z
" transform="scale(0.015625)"/>
       <path id="DejaVuSans-57" d="M 213 4666 
L 850 4666 
L 1831 722 
L 2809 4666 
L 3519 4666 
L 4500 722 
L 5478 4666 
L 6119 4666 
L 4947 0 
L 4153 0 
L 3169 4050 
L 2175 0 
L 1381 0 
L 213 4666 
z
" transform="scale(0.015625)"/>
      </defs>
      <use xlink:href="#DejaVuSans-53"/>
      <use xlink:href="#DejaVuSans-57" x="63.476562"/>
      <use xlink:href="#DejaVuSans-41" x="156.853516"/>
      <use xlink:href="#DejaVuSans-20" x="225.261719"/>
      <use xlink:href="#DejaVuSans-56" x="257.048828"/>
      <use xlink:href="#DejaVuSans-61" x="317.707031"/>
      <use xlink:href="#DejaVuSans-6c" x="378.986328"/>
      <use xlink:href="#DejaVuSans-69" x="406.769531"/>
      <use xlink:href="#DejaVuSans-64" x="434.552734"/>
      <use xlink:href="#DejaVuSans-61" x="498.029297"/>
      <use xlink:href="#DejaVuSans-74" x="559.308594"/>
      <use xlink:href="#DejaVuSans-69" x="598.517578"/>
      <use xlink:href="#DejaVuSans-6f" x="626.300781"/>
      <use xlink:href="#DejaVuSans-6e" x="687.482422"/>
      <use xlink:href="#DejaVuSans-20" x="750.861328"/>
      <use xlink:href="#DejaVuSans-41" x="782.648438"/>
      <use xlink:href="#DejaVuSans-63" x="849.306641"/>
      <use xlink:href="#DejaVuSans-63" x="904.287109"/>
      <use xlink:href="#DejaVuSans-75" x="959.267578"/>
      <use xlink:href="#DejaVuSans-72" x="1022.646484"/>
      <use xlink:href="#DejaVuSans-61" x="1063.759766"/>
      <use xlink:href="#DejaVuSans-63" x="1125.039062"/>
      <use xlink:href="#DejaVuSans-79" x="1180.019531"/>
     </g>
    </g>
    <g id="line2d_29">
     <path d="M 216.18875 293.004312 
L 226.18875 293.004312 
L 236.18875 293.004312 
" style="fill: none; stroke: #9467bd; stroke-width: 1.5; stroke-linecap: square"/>
    </g>
    <g id="text_27">
     <!-- SWA Robust Validation Accuracy -->
     <g transform="translate(244.18875 296.504312) scale(0.1 -0.1)">
      <use xlink:href="#DejaVuSans-53"/>
      <use xlink:href="#DejaVuSans-57" x="63.476562"/>
      <use xlink:href="#DejaVuSans-41" x="156.853516"/>
      <use xlink:href="#DejaVuSans-20" x="225.261719"/>
      <use xlink:href="#DejaVuSans-52" x="257.048828"/>
      <use xlink:href="#DejaVuSans-6f" x="322.03125"/>
      <use xlink:href="#DejaVuSans-62" x="383.212891"/>
      <use xlink:href="#DejaVuSans-75" x="446.689453"/>
      <use xlink:href="#DejaVuSans-73" x="510.068359"/>
      <use xlink:href="#DejaVuSans-74" x="562.167969"/>
      <use xlink:href="#DejaVuSans-20" x="601.376953"/>
      <use xlink:href="#DejaVuSans-56" x="633.164062"/>
      <use xlink:href="#DejaVuSans-61" x="693.822266"/>
      <use xlink:href="#DejaVuSans-6c" x="755.101562"/>
      <use xlink:href="#DejaVuSans-69" x="782.884766"/>
      <use xlink:href="#DejaVuSans-64" x="810.667969"/>
      <use xlink:href="#DejaVuSans-61" x="874.144531"/>
      <use xlink:href="#DejaVuSans-74" x="935.423828"/>
      <use xlink:href="#DejaVuSans-69" x="974.632812"/>
      <use xlink:href="#DejaVuSans-6f" x="1002.416016"/>
      <use xlink:href="#DejaVuSans-6e" x="1063.597656"/>
      <use xlink:href="#DejaVuSans-20" x="1126.976562"/>
      <use xlink:href="#DejaVuSans-41" x="1158.763672"/>
      <use xlink:href="#DejaVuSans-63" x="1225.421875"/>
      <use xlink:href="#DejaVuSans-63" x="1280.402344"/>
      <use xlink:href="#DejaVuSans-75" x="1335.382812"/>
      <use xlink:href="#DejaVuSans-72" x="1398.761719"/>
      <use xlink:href="#DejaVuSans-61" x="1439.875"/>
      <use xlink:href="#DejaVuSans-63" x="1501.154297"/>
      <use xlink:href="#DejaVuSans-79" x="1556.134766"/>
     </g>
    </g>
   </g>
  </g>
 </g>
 <defs>
  <clipPath id="pb62a23a7a3">
   <rect x="57.6" y="41.472" width="357.12" height="266.112"/>
  </clipPath>
 </defs>
</svg>
