<?xml version="1.0" encoding="utf-8" standalone="no"?>
<!DOCTYPE svg PUBLIC "-//W3C//DTD SVG 1.1//EN"
  "http://www.w3.org/Graphics/SVG/1.1/DTD/svg11.dtd">
<svg xmlns:xlink="http://www.w3.org/1999/xlink" width="460.8pt" height="345.6pt" viewBox="0 0 460.8 345.6" xmlns="http://www.w3.org/2000/svg" version="1.1">
 <metadata>
  <rdf:RDF xmlns:dc="http://purl.org/dc/elements/1.1/" xmlns:cc="http://creativecommons.org/ns#" xmlns:rdf="http://www.w3.org/1999/02/22-rdf-syntax-ns#">
   <cc:Work>
    <dc:type rdf:resource="http://purl.org/dc/dcmitype/StillImage"/>
    <dc:date>2025-05-04T12:48:06.406938</dc:date>
    <dc:format>image/svg+xml</dc:format>
    <dc:creator>
     <cc:Agent>
      <dc:title>Matplotlib v3.9.1, https://matplotlib.org/</dc:title>
     </cc:Agent>
    </dc:creator>
   </cc:Work>
  </rdf:RDF>
 </metadata>
 <defs>
  <style type="text/css">*{stroke-linejoin: round; stroke-linecap: butt}</style>
 </defs>
 <g id="figure_1">
  <g id="patch_1">
   <path d="M 0 345.6 
L 460.8 345.6 
L 460.8 0 
L 0 0 
z
" style="fill: #ffffff"/>
  </g>
  <g id="axes_1">
   <g id="patch_2">
    <path d="M 57.6 307.584 
L 414.72 307.584 
L 414.72 41.472 
L 57.6 41.472 
z
" style="fill: #ffffff"/>
   </g>
   <g id="matplotlib.axis_1">
    <g id="xtick_1">
     <g id="line2d_1">
      <defs>
       <path id="m2d17ac05d0" d="M 0 0 
L 0 3.5 
" style="stroke: #000000; stroke-width: 0.8"/>
      </defs>
      <g>
       <use xlink:href="#m2d17ac05d0" x="73.832727" y="307.584" style="stroke: #000000; stroke-width: 0.8"/>
      </g>
     </g>
     <g id="text_1">
      <!-- 1 -->
      <g transform="translate(70.651477 322.182437) scale(0.1 -0.1)">
       <defs>
        <path id="DejaVuSans-31" d="M 794 531 
L 1825 531 
L 1825 4091 
L 703 3866 
L 703 4441 
L 1819 4666 
L 2450 4666 
L 2450 531 
L 3481 531 
L 3481 0 
L 794 0 
L 794 531 
z
" transform="scale(0.015625)"/>
       </defs>
       <use xlink:href="#DejaVuSans-31"/>
      </g>
     </g>
    </g>
    <g id="xtick_2">
     <g id="line2d_2">
      <g>
       <use xlink:href="#m2d17ac05d0" x="109.664165" y="307.584" style="stroke: #000000; stroke-width: 0.8"/>
      </g>
     </g>
     <g id="text_2">
      <!-- 34 -->
      <g transform="translate(103.301665 322.182437) scale(0.1 -0.1)">
       <defs>
        <path id="DejaVuSans-33" d="M 2597 2516 
Q 3050 2419 3304 2112 
Q 3559 1806 3559 1356 
Q 3559 666 3084 287 
Q 2609 -91 1734 -91 
Q 1441 -91 1130 -33 
Q 819 25 488 141 
L 488 750 
Q 750 597 1062 519 
Q 1375 441 1716 441 
Q 2309 441 2620 675 
Q 2931 909 2931 1356 
Q 2931 1769 2642 2001 
Q 2353 2234 1838 2234 
L 1294 2234 
L 1294 2753 
L 1863 2753 
Q 2328 2753 2575 2939 
Q 2822 3125 2822 3475 
Q 2822 3834 2567 4026 
Q 2313 4219 1838 4219 
Q 1578 4219 1281 4162 
Q 984 4106 628 3988 
L 628 4550 
Q 988 4650 1302 4700 
Q 1616 4750 1894 4750 
Q 2613 4750 3031 4423 
Q 3450 4097 3450 3541 
Q 3450 3153 3228 2886 
Q 3006 2619 2597 2516 
z
" transform="scale(0.015625)"/>
        <path id="DejaVuSans-34" d="M 2419 4116 
L 825 1625 
L 2419 1625 
L 2419 4116 
z
M 2253 4666 
L 3047 4666 
L 3047 1625 
L 3713 1625 
L 3713 1100 
L 3047 1100 
L 3047 0 
L 2419 0 
L 2419 1100 
L 313 1100 
L 313 1709 
L 2253 4666 
z
" transform="scale(0.015625)"/>
       </defs>
       <use xlink:href="#DejaVuSans-33"/>
       <use xlink:href="#DejaVuSans-34" x="63.623047"/>
      </g>
     </g>
    </g>
    <g id="xtick_3">
     <g id="line2d_3">
      <g>
       <use xlink:href="#m2d17ac05d0" x="145.495604" y="307.584" style="stroke: #000000; stroke-width: 0.8"/>
      </g>
     </g>
     <g id="text_3">
      <!-- 67 -->
      <g transform="translate(139.133104 322.182437) scale(0.1 -0.1)">
       <defs>
        <path id="DejaVuSans-36" d="M 2113 2584 
Q 1688 2584 1439 2293 
Q 1191 2003 1191 1497 
Q 1191 994 1439 701 
Q 1688 409 2113 409 
Q 2538 409 2786 701 
Q 3034 994 3034 1497 
Q 3034 2003 2786 2293 
Q 2538 2584 2113 2584 
z
M 3366 4563 
L 3366 3988 
Q 3128 4100 2886 4159 
Q 2644 4219 2406 4219 
Q 1781 4219 1451 3797 
Q 1122 3375 1075 2522 
Q 1259 2794 1537 2939 
Q 1816 3084 2150 3084 
Q 2853 3084 3261 2657 
Q 3669 2231 3669 1497 
Q 3669 778 3244 343 
Q 2819 -91 2113 -91 
Q 1303 -91 875 529 
Q 447 1150 447 2328 
Q 447 3434 972 4092 
Q 1497 4750 2381 4750 
Q 2619 4750 2861 4703 
Q 3103 4656 3366 4563 
z
" transform="scale(0.015625)"/>
        <path id="DejaVuSans-37" d="M 525 4666 
L 3525 4666 
L 3525 4397 
L 1831 0 
L 1172 0 
L 2766 4134 
L 525 4134 
L 525 4666 
z
" transform="scale(0.015625)"/>
       </defs>
       <use xlink:href="#DejaVuSans-36"/>
       <use xlink:href="#DejaVuSans-37" x="63.623047"/>
      </g>
     </g>
    </g>
    <g id="xtick_4">
     <g id="line2d_4">
      <g>
       <use xlink:href="#m2d17ac05d0" x="181.327042" y="307.584" style="stroke: #000000; stroke-width: 0.8"/>
      </g>
     </g>
     <g id="text_4">
      <!-- 100 -->
      <g transform="translate(171.783292 322.182437) scale(0.1 -0.1)">
       <defs>
        <path id="DejaVuSans-30" d="M 2034 4250 
Q 1547 4250 1301 3770 
Q 1056 3291 1056 2328 
Q 1056 1369 1301 889 
Q 1547 409 2034 409 
Q 2525 409 2770 889 
Q 3016 1369 3016 2328 
Q 3016 3291 2770 3770 
Q 2525 4250 2034 4250 
z
M 2034 4750 
Q 2819 4750 3233 4129 
Q 3647 3509 3647 2328 
Q 3647 1150 3233 529 
Q 2819 -91 2034 -91 
Q 1250 -91 836 529 
Q 422 1150 422 2328 
Q 422 3509 836 4129 
Q 1250 4750 2034 4750 
z
" transform="scale(0.015625)"/>
       </defs>
       <use xlink:href="#DejaVuSans-31"/>
       <use xlink:href="#DejaVuSans-30" x="63.623047"/>
       <use xlink:href="#DejaVuSans-30" x="127.246094"/>
      </g>
     </g>
    </g>
    <g id="xtick_5">
     <g id="line2d_5">
      <g>
       <use xlink:href="#m2d17ac05d0" x="217.15848" y="307.584" style="stroke: #000000; stroke-width: 0.8"/>
      </g>
     </g>
     <g id="text_5">
      <!-- 133 -->
      <g transform="translate(207.61473 322.182437) scale(0.1 -0.1)">
       <use xlink:href="#DejaVuSans-31"/>
       <use xlink:href="#DejaVuSans-33" x="63.623047"/>
       <use xlink:href="#DejaVuSans-33" x="127.246094"/>
      </g>
     </g>
    </g>
    <g id="xtick_6">
     <g id="line2d_6">
      <g>
       <use xlink:href="#m2d17ac05d0" x="254.075719" y="307.584" style="stroke: #000000; stroke-width: 0.8"/>
      </g>
     </g>
     <g id="text_6">
      <!-- 167 -->
      <g transform="translate(244.531969 322.182437) scale(0.1 -0.1)">
       <use xlink:href="#DejaVuSans-31"/>
       <use xlink:href="#DejaVuSans-36" x="63.623047"/>
       <use xlink:href="#DejaVuSans-37" x="127.246094"/>
      </g>
     </g>
    </g>
    <g id="xtick_7">
     <g id="line2d_7">
      <g>
       <use xlink:href="#m2d17ac05d0" x="289.907157" y="307.584" style="stroke: #000000; stroke-width: 0.8"/>
      </g>
     </g>
     <g id="text_7">
      <!-- 200 -->
      <g transform="translate(280.363407 322.182437) scale(0.1 -0.1)">
       <defs>
        <path id="DejaVuSans-32" d="M 1228 531 
L 3431 531 
L 3431 0 
L 469 0 
L 469 531 
Q 828 903 1448 1529 
Q 2069 2156 2228 2338 
Q 2531 2678 2651 2914 
Q 2772 3150 2772 3378 
Q 2772 3750 2511 3984 
Q 2250 4219 1831 4219 
Q 1534 4219 1204 4116 
Q 875 4013 500 3803 
L 500 4441 
Q 881 4594 1212 4672 
Q 1544 4750 1819 4750 
Q 2544 4750 2975 4387 
Q 3406 4025 3406 3419 
Q 3406 3131 3298 2873 
Q 3191 2616 2906 2266 
Q 2828 2175 2409 1742 
Q 1991 1309 1228 531 
z
" transform="scale(0.015625)"/>
       </defs>
       <use xlink:href="#DejaVuSans-32"/>
       <use xlink:href="#DejaVuSans-30" x="63.623047"/>
       <use xlink:href="#DejaVuSans-30" x="127.246094"/>
      </g>
     </g>
    </g>
    <g id="xtick_8">
     <g id="line2d_8">
      <g>
       <use xlink:href="#m2d17ac05d0" x="325.738595" y="307.584" style="stroke: #000000; stroke-width: 0.8"/>
      </g>
     </g>
     <g id="text_8">
      <!-- 233 -->
      <g transform="translate(316.194845 322.182437) scale(0.1 -0.1)">
       <use xlink:href="#DejaVuSans-32"/>
       <use xlink:href="#DejaVuSans-33" x="63.623047"/>
       <use xlink:href="#DejaVuSans-33" x="127.246094"/>
      </g>
     </g>
    </g>
    <g id="xtick_9">
     <g id="line2d_9">
      <g>
       <use xlink:href="#m2d17ac05d0" x="361.570033" y="307.584" style="stroke: #000000; stroke-width: 0.8"/>
      </g>
     </g>
     <g id="text_9">
      <!-- 266 -->
      <g transform="translate(352.026283 322.182437) scale(0.1 -0.1)">
       <use xlink:href="#DejaVuSans-32"/>
       <use xlink:href="#DejaVuSans-36" x="63.623047"/>
       <use xlink:href="#DejaVuSans-36" x="127.246094"/>
      </g>
     </g>
    </g>
    <g id="xtick_10">
     <g id="line2d_10">
      <g>
       <use xlink:href="#m2d17ac05d0" x="398.487273" y="307.584" style="stroke: #000000; stroke-width: 0.8"/>
      </g>
     </g>
     <g id="text_10">
      <!-- 300 -->
      <g transform="translate(388.943523 322.182437) scale(0.1 -0.1)">
       <use xlink:href="#DejaVuSans-33"/>
       <use xlink:href="#DejaVuSans-30" x="63.623047"/>
       <use xlink:href="#DejaVuSans-30" x="127.246094"/>
      </g>
     </g>
    </g>
    <g id="text_11">
     <!-- Epochs -->
     <g transform="translate(218.244375 335.860562) scale(0.1 -0.1)">
      <defs>
       <path id="DejaVuSans-45" d="M 628 4666 
L 3578 4666 
L 3578 4134 
L 1259 4134 
L 1259 2753 
L 3481 2753 
L 3481 2222 
L 1259 2222 
L 1259 531 
L 3634 531 
L 3634 0 
L 628 0 
L 628 4666 
z
" transform="scale(0.015625)"/>
       <path id="DejaVuSans-70" d="M 1159 525 
L 1159 -1331 
L 581 -1331 
L 581 3500 
L 1159 3500 
L 1159 2969 
Q 1341 3281 1617 3432 
Q 1894 3584 2278 3584 
Q 2916 3584 3314 3078 
Q 3713 2572 3713 1747 
Q 3713 922 3314 415 
Q 2916 -91 2278 -91 
Q 1894 -91 1617 61 
Q 1341 213 1159 525 
z
M 3116 1747 
Q 3116 2381 2855 2742 
Q 2594 3103 2138 3103 
Q 1681 3103 1420 2742 
Q 1159 2381 1159 1747 
Q 1159 1113 1420 752 
Q 1681 391 2138 391 
Q 2594 391 2855 752 
Q 3116 1113 3116 1747 
z
" transform="scale(0.015625)"/>
       <path id="DejaVuSans-6f" d="M 1959 3097 
Q 1497 3097 1228 2736 
Q 959 2375 959 1747 
Q 959 1119 1226 758 
Q 1494 397 1959 397 
Q 2419 397 2687 759 
Q 2956 1122 2956 1747 
Q 2956 2369 2687 2733 
Q 2419 3097 1959 3097 
z
M 1959 3584 
Q 2709 3584 3137 3096 
Q 3566 2609 3566 1747 
Q 3566 888 3137 398 
Q 2709 -91 1959 -91 
Q 1206 -91 779 398 
Q 353 888 353 1747 
Q 353 2609 779 3096 
Q 1206 3584 1959 3584 
z
" transform="scale(0.015625)"/>
       <path id="DejaVuSans-63" d="M 3122 3366 
L 3122 2828 
Q 2878 2963 2633 3030 
Q 2388 3097 2138 3097 
Q 1578 3097 1268 2742 
Q 959 2388 959 1747 
Q 959 1106 1268 751 
Q 1578 397 2138 397 
Q 2388 397 2633 464 
Q 2878 531 3122 666 
L 3122 134 
Q 2881 22 2623 -34 
Q 2366 -91 2075 -91 
Q 1284 -91 818 406 
Q 353 903 353 1747 
Q 353 2603 823 3093 
Q 1294 3584 2113 3584 
Q 2378 3584 2631 3529 
Q 2884 3475 3122 3366 
z
" transform="scale(0.015625)"/>
       <path id="DejaVuSans-68" d="M 3513 2113 
L 3513 0 
L 2938 0 
L 2938 2094 
Q 2938 2591 2744 2837 
Q 2550 3084 2163 3084 
Q 1697 3084 1428 2787 
Q 1159 2491 1159 1978 
L 1159 0 
L 581 0 
L 581 4863 
L 1159 4863 
L 1159 2956 
Q 1366 3272 1645 3428 
Q 1925 3584 2291 3584 
Q 2894 3584 3203 3211 
Q 3513 2838 3513 2113 
z
" transform="scale(0.015625)"/>
       <path id="DejaVuSans-73" d="M 2834 3397 
L 2834 2853 
Q 2591 2978 2328 3040 
Q 2066 3103 1784 3103 
Q 1356 3103 1142 2972 
Q 928 2841 928 2578 
Q 928 2378 1081 2264 
Q 1234 2150 1697 2047 
L 1894 2003 
Q 2506 1872 2764 1633 
Q 3022 1394 3022 966 
Q 3022 478 2636 193 
Q 2250 -91 1575 -91 
Q 1294 -91 989 -36 
Q 684 19 347 128 
L 347 722 
Q 666 556 975 473 
Q 1284 391 1588 391 
Q 1994 391 2212 530 
Q 2431 669 2431 922 
Q 2431 1156 2273 1281 
Q 2116 1406 1581 1522 
L 1381 1569 
Q 847 1681 609 1914 
Q 372 2147 372 2553 
Q 372 3047 722 3315 
Q 1072 3584 1716 3584 
Q 2034 3584 2315 3537 
Q 2597 3491 2834 3397 
z
" transform="scale(0.015625)"/>
      </defs>
      <use xlink:href="#DejaVuSans-45"/>
      <use xlink:href="#DejaVuSans-70" x="63.183594"/>
      <use xlink:href="#DejaVuSans-6f" x="126.660156"/>
      <use xlink:href="#DejaVuSans-63" x="187.841797"/>
      <use xlink:href="#DejaVuSans-68" x="242.822266"/>
      <use xlink:href="#DejaVuSans-73" x="306.201172"/>
     </g>
    </g>
   </g>
   <g id="matplotlib.axis_2">
    <g id="ytick_1">
     <g id="line2d_11">
      <defs>
       <path id="m82c96afc01" d="M 0 0 
L -3.5 0 
" style="stroke: #000000; stroke-width: 0.8"/>
      </defs>
      <g>
       <use xlink:href="#m82c96afc01" x="57.6" y="282.2676" style="stroke: #000000; stroke-width: 0.8"/>
      </g>
     </g>
     <g id="text_12">
      <!-- 10 -->
      <g transform="translate(37.875 286.066819) scale(0.1 -0.1)">
       <use xlink:href="#DejaVuSans-31"/>
       <use xlink:href="#DejaVuSans-30" x="63.623047"/>
      </g>
     </g>
    </g>
    <g id="ytick_2">
     <g id="line2d_12">
      <g>
       <use xlink:href="#m82c96afc01" x="57.6" y="250.11526" style="stroke: #000000; stroke-width: 0.8"/>
      </g>
     </g>
     <g id="text_13">
      <!-- 20 -->
      <g transform="translate(37.875 253.914478) scale(0.1 -0.1)">
       <use xlink:href="#DejaVuSans-32"/>
       <use xlink:href="#DejaVuSans-30" x="63.623047"/>
      </g>
     </g>
    </g>
    <g id="ytick_3">
     <g id="line2d_13">
      <g>
       <use xlink:href="#m82c96afc01" x="57.6" y="217.962919" style="stroke: #000000; stroke-width: 0.8"/>
      </g>
     </g>
     <g id="text_14">
      <!-- 30 -->
      <g transform="translate(37.875 221.762138) scale(0.1 -0.1)">
       <use xlink:href="#DejaVuSans-33"/>
       <use xlink:href="#DejaVuSans-30" x="63.623047"/>
      </g>
     </g>
    </g>
    <g id="ytick_4">
     <g id="line2d_14">
      <g>
       <use xlink:href="#m82c96afc01" x="57.6" y="185.810578" style="stroke: #000000; stroke-width: 0.8"/>
      </g>
     </g>
     <g id="text_15">
      <!-- 40 -->
      <g transform="translate(37.875 189.609797) scale(0.1 -0.1)">
       <use xlink:href="#DejaVuSans-34"/>
       <use xlink:href="#DejaVuSans-30" x="63.623047"/>
      </g>
     </g>
    </g>
    <g id="ytick_5">
     <g id="line2d_15">
      <g>
       <use xlink:href="#m82c96afc01" x="57.6" y="153.658237" style="stroke: #000000; stroke-width: 0.8"/>
      </g>
     </g>
     <g id="text_16">
      <!-- 50 -->
      <g transform="translate(37.875 157.457456) scale(0.1 -0.1)">
       <defs>
        <path id="DejaVuSans-35" d="M 691 4666 
L 3169 4666 
L 3169 4134 
L 1269 4134 
L 1269 2991 
Q 1406 3038 1543 3061 
Q 1681 3084 1819 3084 
Q 2600 3084 3056 2656 
Q 3513 2228 3513 1497 
Q 3513 744 3044 326 
Q 2575 -91 1722 -91 
Q 1428 -91 1123 -41 
Q 819 9 494 109 
L 494 744 
Q 775 591 1075 516 
Q 1375 441 1709 441 
Q 2250 441 2565 725 
Q 2881 1009 2881 1497 
Q 2881 1984 2565 2268 
Q 2250 2553 1709 2553 
Q 1456 2553 1204 2497 
Q 953 2441 691 2322 
L 691 4666 
z
" transform="scale(0.015625)"/>
       </defs>
       <use xlink:href="#DejaVuSans-35"/>
       <use xlink:href="#DejaVuSans-30" x="63.623047"/>
      </g>
     </g>
    </g>
    <g id="ytick_6">
     <g id="line2d_16">
      <g>
       <use xlink:href="#m82c96afc01" x="57.6" y="121.505896" style="stroke: #000000; stroke-width: 0.8"/>
      </g>
     </g>
     <g id="text_17">
      <!-- 60 -->
      <g transform="translate(37.875 125.305115) scale(0.1 -0.1)">
       <use xlink:href="#DejaVuSans-36"/>
       <use xlink:href="#DejaVuSans-30" x="63.623047"/>
      </g>
     </g>
    </g>
    <g id="ytick_7">
     <g id="line2d_17">
      <g>
       <use xlink:href="#m82c96afc01" x="57.6" y="89.353555" style="stroke: #000000; stroke-width: 0.8"/>
      </g>
     </g>
     <g id="text_18">
      <!-- 70 -->
      <g transform="translate(37.875 93.152774) scale(0.1 -0.1)">
       <use xlink:href="#DejaVuSans-37"/>
       <use xlink:href="#DejaVuSans-30" x="63.623047"/>
      </g>
     </g>
    </g>
    <g id="ytick_8">
     <g id="line2d_18">
      <g>
       <use xlink:href="#m82c96afc01" x="57.6" y="57.201215" style="stroke: #000000; stroke-width: 0.8"/>
      </g>
     </g>
     <g id="text_19">
      <!-- 80 -->
      <g transform="translate(37.875 61.000433) scale(0.1 -0.1)">
       <defs>
        <path id="DejaVuSans-38" d="M 2034 2216 
Q 1584 2216 1326 1975 
Q 1069 1734 1069 1313 
Q 1069 891 1326 650 
Q 1584 409 2034 409 
Q 2484 409 2743 651 
Q 3003 894 3003 1313 
Q 3003 1734 2745 1975 
Q 2488 2216 2034 2216 
z
M 1403 2484 
Q 997 2584 770 2862 
Q 544 3141 544 3541 
Q 544 4100 942 4425 
Q 1341 4750 2034 4750 
Q 2731 4750 3128 4425 
Q 3525 4100 3525 3541 
Q 3525 3141 3298 2862 
Q 3072 2584 2669 2484 
Q 3125 2378 3379 2068 
Q 3634 1759 3634 1313 
Q 3634 634 3220 271 
Q 2806 -91 2034 -91 
Q 1263 -91 848 271 
Q 434 634 434 1313 
Q 434 1759 690 2068 
Q 947 2378 1403 2484 
z
M 1172 3481 
Q 1172 3119 1398 2916 
Q 1625 2713 2034 2713 
Q 2441 2713 2670 2916 
Q 2900 3119 2900 3481 
Q 2900 3844 2670 4047 
Q 2441 4250 2034 4250 
Q 1625 4250 1398 4047 
Q 1172 3844 1172 3481 
z
" transform="scale(0.015625)"/>
       </defs>
       <use xlink:href="#DejaVuSans-38"/>
       <use xlink:href="#DejaVuSans-30" x="63.623047"/>
      </g>
     </g>
    </g>
    <g id="text_20">
     <!-- Accuracy -->
     <g transform="translate(31.795312 197.356125) rotate(-90) scale(0.1 -0.1)">
      <defs>
       <path id="DejaVuSans-41" d="M 2188 4044 
L 1331 1722 
L 3047 1722 
L 2188 4044 
z
M 1831 4666 
L 2547 4666 
L 4325 0 
L 3669 0 
L 3244 1197 
L 1141 1197 
L 716 0 
L 50 0 
L 1831 4666 
z
" transform="scale(0.015625)"/>
       <path id="DejaVuSans-75" d="M 544 1381 
L 544 3500 
L 1119 3500 
L 1119 1403 
Q 1119 906 1312 657 
Q 1506 409 1894 409 
Q 2359 409 2629 706 
Q 2900 1003 2900 1516 
L 2900 3500 
L 3475 3500 
L 3475 0 
L 2900 0 
L 2900 538 
Q 2691 219 2414 64 
Q 2138 -91 1772 -91 
Q 1169 -91 856 284 
Q 544 659 544 1381 
z
M 1991 3584 
L 1991 3584 
z
" transform="scale(0.015625)"/>
       <path id="DejaVuSans-72" d="M 2631 2963 
Q 2534 3019 2420 3045 
Q 2306 3072 2169 3072 
Q 1681 3072 1420 2755 
Q 1159 2438 1159 1844 
L 1159 0 
L 581 0 
L 581 3500 
L 1159 3500 
L 1159 2956 
Q 1341 3275 1631 3429 
Q 1922 3584 2338 3584 
Q 2397 3584 2469 3576 
Q 2541 3569 2628 3553 
L 2631 2963 
z
" transform="scale(0.015625)"/>
       <path id="DejaVuSans-61" d="M 2194 1759 
Q 1497 1759 1228 1600 
Q 959 1441 959 1056 
Q 959 750 1161 570 
Q 1363 391 1709 391 
Q 2188 391 2477 730 
Q 2766 1069 2766 1631 
L 2766 1759 
L 2194 1759 
z
M 3341 1997 
L 3341 0 
L 2766 0 
L 2766 531 
Q 2569 213 2275 61 
Q 1981 -91 1556 -91 
Q 1019 -91 701 211 
Q 384 513 384 1019 
Q 384 1609 779 1909 
Q 1175 2209 1959 2209 
L 2766 2209 
L 2766 2266 
Q 2766 2663 2505 2880 
Q 2244 3097 1772 3097 
Q 1472 3097 1187 3025 
Q 903 2953 641 2809 
L 641 3341 
Q 956 3463 1253 3523 
Q 1550 3584 1831 3584 
Q 2591 3584 2966 3190 
Q 3341 2797 3341 1997 
z
" transform="scale(0.015625)"/>
       <path id="DejaVuSans-79" d="M 2059 -325 
Q 1816 -950 1584 -1140 
Q 1353 -1331 966 -1331 
L 506 -1331 
L 506 -850 
L 844 -850 
Q 1081 -850 1212 -737 
Q 1344 -625 1503 -206 
L 1606 56 
L 191 3500 
L 800 3500 
L 1894 763 
L 2988 3500 
L 3597 3500 
L 2059 -325 
z
" transform="scale(0.015625)"/>
      </defs>
      <use xlink:href="#DejaVuSans-41"/>
      <use xlink:href="#DejaVuSans-63" x="66.658203"/>
      <use xlink:href="#DejaVuSans-63" x="121.638672"/>
      <use xlink:href="#DejaVuSans-75" x="176.619141"/>
      <use xlink:href="#DejaVuSans-72" x="239.998047"/>
      <use xlink:href="#DejaVuSans-61" x="281.111328"/>
      <use xlink:href="#DejaVuSans-63" x="342.390625"/>
      <use xlink:href="#DejaVuSans-79" x="397.371094"/>
     </g>
    </g>
   </g>
   <g id="line2d_19">
    <path d="M 73.832727 295.488 
L 77.090131 240.186617 
L 78.175932 226.016437 
L 79.261733 214.262827 
L 80.347534 204.751843 
L 83.604938 183.73836 
L 84.690739 178.203013 
L 85.77654 171.771901 
L 86.862341 167.770221 
L 87.948142 164.206777 
L 89.033943 161.255514 
L 91.205546 153.658237 
L 92.291347 152.073127 
L 93.377148 149.250473 
L 94.462949 148.741501 
L 95.54875 176.218249 
L 96.634552 175.915374 
L 97.720353 174.130276 
L 98.806154 169.864624 
L 99.891955 167.312693 
L 100.977756 163.543153 
L 102.063557 161.977334 
L 103.149358 159.103236 
L 104.23516 157.118472 
L 105.320961 153.265014 
L 106.406762 151.106306 
L 107.492563 150.04978 
L 108.578364 147.169252 
L 109.664165 145.867725 
L 110.749967 142.787531 
L 111.835768 141.582461 
L 112.921569 138.521558 
L 114.00737 138.006156 
L 115.093171 135.048462 
L 117.264773 131.729698 
L 118.350575 129.538837 
L 119.436376 126.54256 
L 120.522177 126.207212 
L 121.607978 123.855268 
L 122.693779 122.19267 
L 123.77958 121.09081 
L 124.865382 118.91924 
L 125.951183 117.830241 
L 127.036984 116.3612 
L 128.122785 114.505367 
L 129.208586 114.357145 
L 130.294387 113.22281 
L 131.380189 111.103006 
L 132.46599 109.414687 
L 133.551791 108.783215 
L 134.637592 108.97002 
L 135.723393 108.686436 
L 136.809194 108.647854 
L 137.894995 106.772729 
L 138.980797 138.076891 
L 140.066598 139.475196 
L 141.152399 139.243378 
L 142.2382 137.148975 
L 143.324001 137.213601 
L 144.409802 137.793308 
L 145.495604 136.498211 
L 146.581405 135.699226 
L 147.667206 134.152698 
L 148.753007 134.210572 
L 149.838808 132.084016 
L 153.096212 130.634267 
L 155.267814 127.045102 
L 156.353615 127.837657 
L 157.439416 125.472852 
L 158.525217 124.512462 
L 159.611019 123.784533 
L 160.69682 122.05763 
L 161.782621 123.372018 
L 162.868422 121.181158 
L 165.040024 118.597074 
L 166.125825 120.079297 
L 167.211627 119.318894 
L 168.297428 118.030228 
L 169.383229 116.954089 
L 170.46903 116.786254 
L 171.554831 116.283713 
L 172.640632 115.420423 
L 173.726434 113.345311 
L 174.812235 112.836339 
L 175.898036 111.611978 
L 176.983837 111.554104 
L 178.069638 109.260034 
L 179.155439 110.349034 
L 180.24124 109.285756 
L 181.327042 108.783215 
L 182.412843 106.824173 
L 183.498644 105.851243 
L 184.584445 104.575117 
L 185.670246 104.381881 
L 186.756047 103.608617 
L 187.841849 102.42316 
L 188.92765 102.873936 
L 190.013451 100.264452 
L 191.099252 100.051604 
L 192.185053 99.117257 
L 193.270854 98.762938 
L 194.356656 97.229271 
L 195.442457 97.003562 
L 196.528258 96.655674 
L 197.614059 95.057702 
L 198.69986 93.085799 
L 199.785661 94.986645 
L 200.871462 93.034355 
L 201.957264 91.926064 
L 204.128866 91.51355 
L 205.214667 89.70273 
L 206.300468 89.876674 
L 207.386269 88.691217 
L 208.472071 88.6073 
L 209.557872 87.15112 
L 210.643673 86.745036 
L 211.729474 85.971772 
L 212.815275 86.31323 
L 213.901076 84.805607 
L 214.986877 84.863481 
L 216.072679 85.668897 
L 217.15848 83.864508 
L 218.244281 83.948425 
L 219.330082 84.283453 
L 220.415883 82.634038 
L 221.501684 82.247245 
L 222.587486 84.103078 
L 223.673287 83.800203 
L 224.759088 83.059092 
L 225.844889 115.123978 
L 226.93069 119.51856 
L 228.016491 121.136144 
L 229.102292 120.111449 
L 230.188094 119.666782 
L 231.273895 119.918214 
L 232.359696 119.318894 
L 233.445497 119.673213 
L 234.531298 118.358709 
L 235.617099 119.576601 
L 236.702901 117.585445 
L 237.788702 116.709078 
L 238.874503 117.102154 
L 239.960304 116.322446 
L 241.046105 116.354665 
L 242.131906 115.349421 
L 243.217708 115.407416 
L 244.303509 114.189525 
L 246.475111 115.723166 
L 247.560912 114.866131 
L 248.646713 112.829868 
L 249.732514 114.640596 
L 250.818316 113.319602 
L 251.904117 112.494786 
L 252.989918 112.256363 
L 254.075719 112.449679 
L 255.16152 111.476655 
L 256.247321 110.999808 
L 257.333123 112.636552 
L 258.418924 109.885018 
L 259.504725 110.336089 
L 260.590526 109.227744 
L 261.676327 109.143973 
L 262.762128 109.363065 
L 263.847929 109.002208 
L 264.933731 109.137529 
L 266.019532 107.900306 
L 268.191134 108.048515 
L 269.276935 107.114154 
L 270.362736 107.333245 
L 271.448538 105.760941 
L 272.534339 106.501986 
L 273.62014 105.406528 
L 275.791742 104.626819 
L 276.877543 105.741609 
L 277.963344 104.71059 
L 279.049146 104.414172 
L 280.134947 103.267163 
L 281.220748 103.776228 
L 283.39235 101.372664 
L 284.478151 102.970744 
L 285.563953 102.19748 
L 286.649754 102.461679 
L 287.735555 100.451191 
L 288.821356 101.250231 
L 289.907157 100.348089 
L 290.992958 100.457635 
L 292.07876 100.277206 
L 293.164561 98.511585 
L 294.250362 99.065758 
L 295.336163 98.659794 
L 296.421964 98.582468 
L 297.507765 97.293694 
L 298.593566 96.642863 
L 299.679368 97.545005 
L 300.765169 96.919949 
L 302.936771 95.244543 
L 304.022572 96.17246 
L 306.194175 95.740721 
L 307.279976 93.865554 
L 308.365777 93.556248 
L 309.451578 93.884886 
L 310.537379 93.040739 
L 311.62318 93.49181 
L 312.708981 92.319025 
L 313.794783 92.06127 
L 314.880584 91.352444 
L 315.966385 92.280362 
L 317.052186 90.025007 
L 318.137987 90.353644 
L 319.223788 90.469634 
L 321.395391 89.14864 
L 322.481192 88.053182 
L 323.566993 89.129309 
L 324.652794 87.589223 
L 325.738595 88.66535 
L 326.824396 88.3496 
L 327.910198 86.732188 
L 328.995999 85.95248 
L 330.0818 85.591623 
L 331.167601 84.289961 
L 332.253402 84.012875 
L 333.339203 84.927904 
L 335.510806 83.316937 
L 336.596607 83.207391 
L 337.682408 82.614555 
L 338.768209 83.091401 
L 339.85401 82.962524 
L 340.939811 81.267786 
L 342.025613 80.288317 
L 343.111414 81.171127 
L 344.197215 80.004787 
L 345.283016 79.64393 
L 346.368817 79.495721 
L 347.454618 78.7289 
L 348.54042 78.619354 
L 349.626221 78.026518 
L 350.712022 78.007187 
L 351.797823 76.705525 
L 352.883624 76.467101 
L 353.969425 76.099801 
L 355.055227 76.563759 
L 356.141028 75.13322 
L 358.31263 75.075225 
L 359.398431 74.024874 
L 360.484232 75.423194 
L 362.655835 72.478345 
L 363.741636 72.149707 
L 364.827437 72.471901 
L 365.913238 71.956391 
L 366.999039 73.013186 
L 368.08484 72.388131 
L 369.170642 73.986211 
L 370.256443 74.463057 
L 371.342244 75.751832 
L 373.513846 76.44777 
L 374.599647 77.478789 
L 375.685448 77.311248 
L 376.77125 76.576647 
L 377.857051 77.652774 
L 378.942852 77.298361 
L 380.028653 76.086913 
L 381.114454 77.24681 
L 382.200255 76.776407 
L 383.286057 77.021274 
L 384.371858 76.04825 
L 385.457659 78.026518 
L 386.54346 76.840846 
L 387.629261 76.254454 
L 388.715062 76.989055 
L 389.800863 76.518652 
L 390.886665 78.284273 
L 391.972466 78.477589 
L 393.058267 77.736544 
L 394.144068 77.491677 
L 395.229869 76.937504 
L 396.31567 75.378087 
L 397.401472 76.093357 
L 398.487273 76.106244 
L 398.487273 76.106244 
" clip-path="url(#p3650e9a3b2)" style="fill: none; stroke: #1f77b4; stroke-width: 1.5; stroke-linecap: square"/>
   </g>
   <g id="line2d_20">
    <path d="M 73.832727 284.45396 
L 74.918528 257.992583 
L 76.00433 238.733331 
L 77.090131 212.432716 
L 79.261733 185.038922 
L 80.347534 174.782325 
L 81.433335 163.464701 
L 82.519137 158.64185 
L 84.690739 141.761871 
L 85.77654 137.582067 
L 86.862341 133.981004 
L 87.948142 128.900935 
L 89.033943 126.971794 
L 90.119745 121.634506 
L 91.205546 120.895002 
L 92.291347 119.22308 
L 93.377148 117.229635 
L 94.462949 117.615463 
L 95.54875 153.626085 
L 96.634552 141.601109 
L 97.720353 139.897035 
L 98.806154 135.717231 
L 99.891955 132.148321 
L 100.977756 129.158153 
L 102.063557 128.772325 
L 103.149358 122.470466 
L 104.23516 124.206693 
L 105.320961 117.133178 
L 106.406762 120.830697 
L 107.492563 116.74735 
L 108.578364 111.635128 
L 109.664165 112.792612 
L 111.835768 106.201382 
L 112.921569 106.812276 
L 114.00737 102.246644 
L 115.093171 101.153464 
L 116.178972 101.282074 
L 117.264773 99.513695 
L 118.350575 95.269586 
L 119.436376 91.957895 
L 120.522177 94.112102 
L 121.607978 90.285973 
L 122.693779 90.961172 
L 123.77958 87.424415 
L 124.865382 87.617329 
L 125.951183 85.141599 
L 127.036984 84.980837 
L 128.122785 83.984114 
L 129.208586 82.183583 
L 130.294387 82.183583 
L 131.380189 79.772158 
L 132.46599 79.611396 
L 133.551791 79.707853 
L 134.637592 79.000502 
L 136.809194 78.325302 
L 137.894995 78.936197 
L 138.980797 105.847706 
L 140.066598 103.661347 
L 141.152399 107.55178 
L 142.2382 106.104925 
L 143.324001 106.104925 
L 144.409802 100.639027 
L 145.495604 102.728929 
L 146.581405 95.398195 
L 147.667206 99.44939 
L 148.753007 96.845051 
L 149.838808 100.317504 
L 150.924609 95.751871 
L 152.01041 101.282074 
L 153.096212 95.076672 
L 154.182013 94.401473 
L 155.267814 95.719719 
L 156.353615 92.826008 
L 157.439416 93.051075 
L 158.525217 90.125212 
L 159.611019 90.414583 
L 160.69682 89.41786 
L 161.782621 88.260376 
L 162.868422 89.707231 
L 163.954223 87.199349 
L 165.040024 88.581899 
L 166.125825 88.517595 
L 167.211627 84.88438 
L 168.297428 84.88438 
L 169.383229 83.212458 
L 170.46903 84.691466 
L 171.554831 85.784646 
L 172.640632 83.630439 
L 173.726434 83.630439 
L 174.812235 83.984114 
L 175.898036 83.694743 
L 176.983837 80.254443 
L 178.069638 78.807588 
L 179.155439 80.704576 
L 180.24124 76.749838 
L 181.327042 78.196693 
L 182.412843 76.428314 
L 183.498644 75.785268 
L 184.584445 73.856127 
L 185.670246 73.631061 
L 186.756047 73.180928 
L 187.841849 72.152053 
L 188.92765 74.338412 
L 190.013451 73.631061 
L 191.099252 70.222913 
L 192.185053 69.579866 
L 193.270854 69.901389 
L 194.356656 66.461089 
L 195.442457 68.165163 
L 196.528258 68.872514 
L 197.614059 67.29705 
L 198.69986 66.300327 
L 199.785661 66.364632 
L 200.871462 65.978804 
L 201.957264 64.210425 
L 204.128866 64.306882 
L 205.214667 63.631683 
L 206.300468 64.27473 
L 207.386269 62.763569 
L 208.472071 61.927609 
L 209.557872 62.409894 
L 211.729474 61.220257 
L 212.815275 61.477476 
L 213.901076 60.57721 
L 214.986877 60.287839 
L 216.072679 60.480753 
L 218.244281 60.448601 
L 219.330082 59.419726 
L 220.415883 60.416449 
L 221.501684 58.64807 
L 222.587486 59.741249 
L 223.673287 59.709097 
L 224.759088 60.545058 
L 225.844889 87.553024 
L 226.93069 84.820075 
L 228.016491 88.99988 
L 229.102292 88.967727 
L 230.188094 90.028755 
L 231.273895 89.900145 
L 232.359696 84.627161 
L 233.445497 85.527427 
L 234.531298 88.45329 
L 236.702901 85.045142 
L 237.788702 87.102892 
L 238.874503 87.520872 
L 239.960304 85.30236 
L 241.046105 84.402095 
L 242.131906 84.755771 
L 243.217708 82.601564 
L 244.303509 83.566134 
L 245.38931 81.797755 
L 246.475111 84.980837 
L 247.560912 84.016267 
L 248.646713 80.3509 
L 249.732514 81.733451 
L 250.818316 82.151431 
L 251.904117 81.958517 
L 252.989918 82.537259 
L 254.075719 83.37322 
L 255.16152 83.212458 
L 256.247321 80.511662 
L 257.333123 81.026099 
L 258.418924 78.678978 
L 259.504725 79.932919 
L 260.590526 82.505107 
L 261.676327 80.190138 
L 262.762128 81.379775 
L 263.847929 78.164541 
L 264.933731 79.965072 
L 266.019532 79.450634 
L 267.105333 78.132388 
L 268.191134 78.132388 
L 269.276935 79.965072 
L 270.362736 77.039209 
L 271.448538 75.302982 
L 272.534339 79.418482 
L 273.62014 79.129111 
L 274.705941 75.624506 
L 275.791742 73.631061 
L 276.877543 74.531326 
L 277.963344 76.074639 
L 279.049146 75.110068 
L 280.134947 75.656658 
L 281.220748 75.881725 
L 282.306549 71.637616 
L 283.39235 77.039209 
L 284.478151 72.280662 
L 285.563953 74.531326 
L 286.649754 73.952584 
L 287.735555 75.302982 
L 288.821356 71.251787 
L 289.907157 70.673045 
L 290.992958 72.216358 
L 292.07876 71.798377 
L 293.164561 70.898112 
L 294.250362 73.34169 
L 295.336163 75.238678 
L 296.421964 71.380397 
L 297.507765 70.31937 
L 298.593566 70.512284 
L 299.679368 71.509006 
L 300.765169 68.325924 
L 301.85097 71.798377 
L 302.936771 67.682878 
L 304.022572 67.264897 
L 305.108373 68.904667 
L 306.194175 67.71503 
L 307.279976 70.801655 
L 308.365777 69.708475 
L 310.537379 66.75046 
L 311.62318 68.518838 
L 313.794783 66.332479 
L 315.966385 65.078538 
L 317.052186 66.62185 
L 318.137987 67.039831 
L 319.223788 66.557546 
L 320.30959 65.882347 
L 321.395391 64.371187 
L 322.481192 63.760292 
L 323.566993 62.956484 
L 324.652794 64.885624 
L 325.738595 64.757015 
L 326.824396 63.631683 
L 327.910198 61.188105 
L 328.995999 64.724862 
L 330.0818 64.853472 
L 331.167601 60.737972 
L 332.253402 62.056218 
L 333.339203 63.695987 
L 334.425005 60.802277 
L 335.510806 60.223535 
L 336.596607 59.837706 
L 337.682408 60.352144 
L 338.768209 61.059495 
L 339.85401 60.609363 
L 340.939811 59.419726 
L 342.025613 58.905289 
L 343.111414 59.19466 
L 344.197215 58.712375 
L 345.283016 58.10148 
L 346.368817 58.069328 
L 347.454618 58.776679 
L 348.54042 58.005023 
L 349.626221 57.072605 
L 350.712022 57.394129 
L 351.797823 55.690054 
L 352.883624 55.239922 
L 353.969425 55.464988 
L 355.055227 55.818664 
L 356.141028 56.654625 
L 357.226829 56.108035 
L 358.31263 56.268797 
L 359.398431 55.529293 
L 360.484232 55.207769 
L 361.570033 55.239922 
L 362.655835 54.146742 
L 363.741636 54.66118 
L 364.827437 54.178894 
L 365.913238 54.082437 
L 366.999039 54.596875 
L 368.08484 54.178894 
L 371.342244 58.165785 
L 373.513846 56.622472 
L 374.599647 56.526015 
L 375.685448 56.751082 
L 376.77125 57.812109 
L 377.857051 58.358699 
L 378.942852 58.64807 
L 380.028653 58.423003 
L 381.114454 56.461711 
L 382.200255 57.587043 
L 383.286057 58.069328 
L 384.371858 57.587043 
L 385.457659 56.911843 
L 386.54346 58.10148 
L 387.629261 57.0083 
L 388.715062 56.654625 
L 389.800863 58.390851 
L 390.886665 56.686777 
L 391.972466 57.940718 
L 393.058267 55.49714 
L 394.144068 58.165785 
L 395.229869 59.451878 
L 397.401472 57.265519 
L 398.487273 57.779957 
L 398.487273 57.779957 
" clip-path="url(#p3650e9a3b2)" style="fill: none; stroke: #ff7f0e; stroke-width: 1.5; stroke-linecap: square"/>
   </g>
   <g id="line2d_21">
    <path d="M 73.832727 287.057335 
L 74.918528 264.971892 
L 76.00433 253.108643 
L 77.090131 229.493391 
L 78.175932 214.991721 
L 79.261733 208.583438 
L 80.347534 203.372508 
L 81.433335 190.001314 
L 82.519137 188.71522 
L 83.604938 179.46885 
L 84.690739 174.102625 
L 85.77654 171.153612 
L 87.948142 162.882744 
L 89.033943 160.465531 
L 90.119745 157.361222 
L 91.205546 155.764858 
L 93.377148 152.105922 
L 94.462949 151.928763 
L 95.54875 187.806274 
L 96.634552 179.801305 
L 97.720353 173.90328 
L 98.806154 171.042686 
L 99.891955 163.836061 
L 102.063557 171.109242 
L 103.149358 157.560888 
L 104.23516 160.864863 
L 105.320961 152.66055 
L 106.406762 157.050952 
L 107.492563 154.988701 
L 108.578364 148.646973 
L 109.664165 150.021807 
L 110.749967 145.87512 
L 112.921569 143.413858 
L 114.00737 139.001271 
L 115.093171 138.86816 
L 116.178972 138.358224 
L 117.264773 139.156567 
L 118.350575 137.958892 
L 119.436376 130.286701 
L 120.522177 131.306894 
L 121.607978 130.042986 
L 122.693779 130.286701 
L 123.77958 127.95855 
L 124.865382 128.335375 
L 125.951183 123.656888 
L 127.036984 123.656888 
L 128.122785 123.168815 
L 129.208586 121.417156 
L 131.380189 119.354905 
L 132.46599 119.909211 
L 133.551791 119.399275 
L 134.637592 117.248605 
L 135.723393 118.179737 
L 136.809194 118.623117 
L 137.894995 118.423773 
L 138.980797 148.137037 
L 141.152399 144.43373 
L 142.2382 145.852935 
L 143.324001 147.582409 
L 144.409802 143.724128 
L 145.495604 144.633397 
L 146.581405 137.604252 
L 147.667206 142.19432 
L 148.753007 138.801605 
L 149.838808 139.023456 
L 150.924609 137.803918 
L 152.01041 144.478101 
L 153.096212 133.701601 
L 154.182013 132.526433 
L 155.267814 137.958892 
L 156.353615 134.788028 
L 157.439416 135.386705 
L 158.525217 134.499943 
L 159.611019 128.712522 
L 160.69682 129.554913 
L 161.782621 131.72809 
L 162.868422 136.340343 
L 163.954223 130.774773 
L 165.040024 128.623781 
L 166.125825 129.554913 
L 167.211627 127.936364 
L 168.297428 127.404243 
L 169.383229 126.47279 
L 170.46903 127.95855 
L 171.554831 123.701258 
L 172.640632 126.11815 
L 173.726434 126.739011 
L 174.812235 126.916492 
L 175.898036 125.718817 
L 176.983837 125.851928 
L 179.155439 121.062515 
L 180.24124 120.352913 
L 181.327042 121.21749 
L 182.412843 116.738347 
L 184.584445 116.206226 
L 185.670246 114.587677 
L 186.756047 114.698603 
L 187.841849 115.208539 
L 188.92765 116.960198 
L 190.013451 115.540994 
L 191.099252 112.636351 
L 192.185053 111.261517 
L 193.270854 111.350258 
L 194.356656 110.840322 
L 195.442457 108.157209 
L 196.528258 109.465488 
L 197.614059 109.487673 
L 198.69986 108.312505 
L 199.785661 108.179394 
L 200.871462 110.019794 
L 201.957264 106.671449 
L 203.043065 108.467479 
L 204.128866 107.048275 
L 205.214667 106.094958 
L 206.300468 107.225756 
L 207.386269 103.899596 
L 208.472071 104.587013 
L 209.557872 105.141319 
L 210.643673 103.278734 
L 213.901076 101.815481 
L 214.986877 100.263166 
L 216.072679 101.970455 
L 217.15848 101.23899 
L 218.244281 101.660185 
L 219.330082 100.884028 
L 220.415883 100.972768 
L 221.501684 100.595943 
L 222.587486 101.638 
L 224.759088 101.172434 
L 225.844889 130.109541 
L 226.93069 128.424115 
L 228.016491 129.798949 
L 229.102292 129.510865 
L 230.188094 132.016496 
L 231.273895 131.395635 
L 232.359696 129.089347 
L 233.445497 127.426428 
L 235.617099 133.302479 
L 236.702901 127.47071 
L 237.788702 129.266806 
L 238.874503 127.315492 
L 239.960304 130.530726 
L 241.046105 127.781146 
L 242.131906 126.583749 
L 243.217708 124.765478 
L 244.303509 129.422024 
L 245.38931 124.321998 
L 246.475111 126.029398 
L 247.560912 127.492884 
L 248.646713 126.42853 
L 249.732514 126.916359 
L 250.818316 125.76331 
L 251.904117 123.767647 
L 252.989918 122.725468 
L 254.075719 127.315492 
L 255.16152 126.42853 
L 256.247321 123.301993 
L 257.333123 126.960707 
L 258.418924 123.701125 
L 259.504725 123.922865 
L 260.590526 126.827663 
L 261.676327 122.836338 
L 262.762128 123.723299 
L 263.847929 118.091096 
L 264.933731 125.563743 
L 266.019532 121.572418 
L 267.105333 122.969382 
L 268.191134 121.52807 
L 269.276935 121.661114 
L 270.362736 117.691963 
L 271.448538 116.96022 
L 272.534339 117.980226 
L 273.62014 127.35984 
L 275.791742 116.272826 
L 276.877543 117.292831 
L 277.963344 120.463717 
L 279.049146 119.266319 
L 280.134947 119.443712 
L 281.220748 116.538914 
L 282.306549 116.982394 
L 283.39235 122.592424 
L 284.478151 117.381527 
L 285.563953 118.933709 
L 286.649754 115.984563 
L 287.735555 121.040242 
L 288.821356 116.139781 
L 289.907157 115.873693 
L 290.992958 113.567594 
L 292.07876 118.068922 
L 293.164561 114.388033 
L 294.250362 116.206303 
L 295.336163 117.093265 
L 296.421964 114.986732 
L 297.507765 115.164124 
L 299.679368 116.605436 
L 300.765169 112.946721 
L 301.85097 115.274994 
L 302.936771 110.840189 
L 304.022572 109.066266 
L 305.108373 109.886705 
L 306.194175 108.733656 
L 307.279976 111.172799 
L 308.365777 112.037586 
L 309.451578 112.747155 
L 310.537379 110.041924 
L 311.62318 112.370197 
L 312.708981 110.219316 
L 313.794783 111.549758 
L 314.880584 106.737993 
L 315.966385 109.731487 
L 317.052186 108.733656 
L 318.137987 109.310181 
L 319.223788 110.729319 
L 320.30959 108.911048 
L 321.395391 107.780173 
L 322.481192 107.780173 
L 323.566993 104.032762 
L 324.652794 107.735825 
L 325.738595 106.494079 
L 326.824396 106.028425 
L 327.910198 104.409721 
L 328.995999 105.008419 
L 330.0818 106.981908 
L 331.167601 102.303188 
L 332.253402 104.165806 
L 333.339203 103.7445 
L 334.425005 105.185811 
L 335.510806 103.167975 
L 336.596607 102.724494 
L 337.682408 102.724494 
L 338.768209 102.436232 
L 339.85401 103.7445 
L 340.939811 101.593619 
L 342.025613 101.992751 
L 343.111414 99.575782 
L 344.197215 101.704489 
L 345.283016 99.243172 
L 346.368817 99.797523 
L 347.454618 98.577951 
L 348.54042 100.728832 
L 349.626221 96.870551 
L 350.712022 98.422733 
L 351.797823 97.934904 
L 352.883624 97.735338 
L 353.969425 96.870551 
L 355.055227 97.491424 
L 356.141028 96.870551 
L 357.226829 97.070117 
L 358.31263 96.892725 
L 359.398431 95.451413 
L 360.484232 96.271852 
L 361.570033 96.160982 
L 362.655835 94.475756 
L 363.741636 95.163151 
L 364.827437 94.520104 
L 365.913238 95.606631 
L 366.999039 94.453582 
L 368.08484 96.737507 
L 369.170642 97.735338 
L 370.256443 97.136639 
L 371.342244 99.974915 
L 372.428045 101.238834 
L 373.513846 98.577951 
L 374.599647 97.602294 
L 375.685448 101.615793 
L 376.77125 97.336206 
L 377.857051 98.888387 
L 378.942852 98.112296 
L 380.028653 97.957078 
L 381.114454 98.045774 
L 382.200255 100.130133 
L 383.286057 98.267515 
L 384.371858 100.107959 
L 385.457659 100.241003 
L 386.54346 99.952741 
L 387.629261 98.888387 
L 388.715062 99.864045 
L 389.800863 101.150138 
L 390.886665 97.824034 
L 391.972466 98.444907 
L 393.058267 96.3162 
L 394.144068 99.487086 
L 395.229869 99.708827 
L 396.31567 101.061442 
L 397.401472 98.400559 
L 398.487273 97.890556 
L 398.487273 97.890556 
" clip-path="url(#p3650e9a3b2)" style="fill: none; stroke: #2ca02c; stroke-width: 1.5; stroke-linecap: square"/>
   </g>
   <g id="line2d_22">
    <path d="M 368.08484 53.568 
L 369.170642 54.339656 
L 370.256443 54.821941 
L 371.342244 56.686777 
L 372.428045 58.069328 
L 373.513846 57.619195 
L 374.599647 57.651347 
L 375.685448 57.972871 
L 376.77125 56.365254 
L 377.857051 56.815386 
L 378.942852 55.979426 
L 380.028653 56.108035 
L 381.114454 59.033898 
L 382.200255 57.297672 
L 383.286057 58.197937 
L 385.457659 62.249132 
L 386.54346 58.680222 
L 387.629261 59.741249 
L 388.715062 59.516183 
L 389.800863 62.506351 
L 390.886665 60.866581 
L 391.972466 61.348866 
L 393.058267 60.57721 
L 394.144068 61.1238 
L 395.229869 62.474198 
L 396.31567 61.091648 
L 397.401472 62.924331 
L 398.487273 64.531948 
L 398.487273 64.531948 
" clip-path="url(#p3650e9a3b2)" style="fill: none; stroke: #d62728; stroke-width: 1.5; stroke-linecap: square"/>
   </g>
   <g id="line2d_23">
    <path d="M 368.08484 94.098797 
L 369.170642 97.158813 
L 370.256443 96.693159 
L 371.342244 98.999258 
L 372.428045 100.152307 
L 373.513846 96.515766 
L 374.599647 98.090122 
L 375.685448 98.666647 
L 377.857051 96.759681 
L 378.942852 96.249678 
L 380.028653 97.513598 
L 381.114454 97.602294 
L 382.200255 96.959247 
L 383.286057 99.62013 
L 384.371858 100.55144 
L 385.457659 100.174481 
L 386.54346 99.28752 
L 387.629261 99.997089 
L 388.715062 99.043606 
L 389.800863 102.25884 
L 390.886665 101.083616 
L 391.972466 102.879713 
L 393.058267 99.464912 
L 394.144068 101.10579 
L 395.229869 102.170144 
L 396.31567 102.214492 
L 397.401472 101.793185 
L 398.487273 104.564939 
L 398.487273 104.564939 
" clip-path="url(#p3650e9a3b2)" style="fill: none; stroke: #9467bd; stroke-width: 1.5; stroke-linecap: square"/>
   </g>
   <g id="patch_3">
    <path d="M 57.6 307.584 
L 57.6 41.472 
" style="fill: none; stroke: #000000; stroke-width: 0.8; stroke-linejoin: miter; stroke-linecap: square"/>
   </g>
   <g id="patch_4">
    <path d="M 414.72 307.584 
L 414.72 41.472 
" style="fill: none; stroke: #000000; stroke-width: 0.8; stroke-linejoin: miter; stroke-linecap: square"/>
   </g>
   <g id="patch_5">
    <path d="M 57.6 307.584 
L 414.72 307.584 
" style="fill: none; stroke: #000000; stroke-width: 0.8; stroke-linejoin: miter; stroke-linecap: square"/>
   </g>
   <g id="patch_6">
    <path d="M 57.6 41.472 
L 414.72 41.472 
" style="fill: none; stroke: #000000; stroke-width: 0.8; stroke-linejoin: miter; stroke-linecap: square"/>
   </g>
   <g id="text_21">
    <!-- Learning Curves -->
    <g transform="translate(187.37625 35.472) scale(0.12 -0.12)">
     <defs>
      <path id="DejaVuSans-4c" d="M 628 4666 
L 1259 4666 
L 1259 531 
L 3531 531 
L 3531 0 
L 628 0 
L 628 4666 
z
" transform="scale(0.015625)"/>
      <path id="DejaVuSans-65" d="M 3597 1894 
L 3597 1613 
L 953 1613 
Q 991 1019 1311 708 
Q 1631 397 2203 397 
Q 2534 397 2845 478 
Q 3156 559 3463 722 
L 3463 178 
Q 3153 47 2828 -22 
Q 2503 -91 2169 -91 
Q 1331 -91 842 396 
Q 353 884 353 1716 
Q 353 2575 817 3079 
Q 1281 3584 2069 3584 
Q 2775 3584 3186 3129 
Q 3597 2675 3597 1894 
z
M 3022 2063 
Q 3016 2534 2758 2815 
Q 2500 3097 2075 3097 
Q 1594 3097 1305 2825 
Q 1016 2553 972 2059 
L 3022 2063 
z
" transform="scale(0.015625)"/>
      <path id="DejaVuSans-6e" d="M 3513 2113 
L 3513 0 
L 2938 0 
L 2938 2094 
Q 2938 2591 2744 2837 
Q 2550 3084 2163 3084 
Q 1697 3084 1428 2787 
Q 1159 2491 1159 1978 
L 1159 0 
L 581 0 
L 581 3500 
L 1159 3500 
L 1159 2956 
Q 1366 3272 1645 3428 
Q 1925 3584 2291 3584 
Q 2894 3584 3203 3211 
Q 3513 2838 3513 2113 
z
" transform="scale(0.015625)"/>
      <path id="DejaVuSans-69" d="M 603 3500 
L 1178 3500 
L 1178 0 
L 603 0 
L 603 3500 
z
M 603 4863 
L 1178 4863 
L 1178 4134 
L 603 4134 
L 603 4863 
z
" transform="scale(0.015625)"/>
      <path id="DejaVuSans-67" d="M 2906 1791 
Q 2906 2416 2648 2759 
Q 2391 3103 1925 3103 
Q 1463 3103 1205 2759 
Q 947 2416 947 1791 
Q 947 1169 1205 825 
Q 1463 481 1925 481 
Q 2391 481 2648 825 
Q 2906 1169 2906 1791 
z
M 3481 434 
Q 3481 -459 3084 -895 
Q 2688 -1331 1869 -1331 
Q 1566 -1331 1297 -1286 
Q 1028 -1241 775 -1147 
L 775 -588 
Q 1028 -725 1275 -790 
Q 1522 -856 1778 -856 
Q 2344 -856 2625 -561 
Q 2906 -266 2906 331 
L 2906 616 
Q 2728 306 2450 153 
Q 2172 0 1784 0 
Q 1141 0 747 490 
Q 353 981 353 1791 
Q 353 2603 747 3093 
Q 1141 3584 1784 3584 
Q 2172 3584 2450 3431 
Q 2728 3278 2906 2969 
L 2906 3500 
L 3481 3500 
L 3481 434 
z
" transform="scale(0.015625)"/>
      <path id="DejaVuSans-20" transform="scale(0.015625)"/>
      <path id="DejaVuSans-43" d="M 4122 4306 
L 4122 3641 
Q 3803 3938 3442 4084 
Q 3081 4231 2675 4231 
Q 1875 4231 1450 3742 
Q 1025 3253 1025 2328 
Q 1025 1406 1450 917 
Q 1875 428 2675 428 
Q 3081 428 3442 575 
Q 3803 722 4122 1019 
L 4122 359 
Q 3791 134 3420 21 
Q 3050 -91 2638 -91 
Q 1578 -91 968 557 
Q 359 1206 359 2328 
Q 359 3453 968 4101 
Q 1578 4750 2638 4750 
Q 3056 4750 3426 4639 
Q 3797 4528 4122 4306 
z
" transform="scale(0.015625)"/>
      <path id="DejaVuSans-76" d="M 191 3500 
L 800 3500 
L 1894 563 
L 2988 3500 
L 3597 3500 
L 2284 0 
L 1503 0 
L 191 3500 
z
" transform="scale(0.015625)"/>
     </defs>
     <use xlink:href="#DejaVuSans-4c"/>
     <use xlink:href="#DejaVuSans-65" x="53.962891"/>
     <use xlink:href="#DejaVuSans-61" x="115.486328"/>
     <use xlink:href="#DejaVuSans-72" x="176.765625"/>
     <use xlink:href="#DejaVuSans-6e" x="216.128906"/>
     <use xlink:href="#DejaVuSans-69" x="279.507812"/>
     <use xlink:href="#DejaVuSans-6e" x="307.291016"/>
     <use xlink:href="#DejaVuSans-67" x="370.669922"/>
     <use xlink:href="#DejaVuSans-20" x="434.146484"/>
     <use xlink:href="#DejaVuSans-43" x="465.933594"/>
     <use xlink:href="#DejaVuSans-75" x="535.757812"/>
     <use xlink:href="#DejaVuSans-72" x="599.136719"/>
     <use xlink:href="#DejaVuSans-76" x="640.25"/>
     <use xlink:href="#DejaVuSans-65" x="699.429688"/>
     <use xlink:href="#DejaVuSans-73" x="760.953125"/>
    </g>
   </g>
   <g id="legend_1">
    <g id="patch_7">
     <path d="M 214.18875 302.584 
L 407.72 302.584 
Q 409.72 302.584 409.72 300.584 
L 409.72 228.193375 
Q 409.72 226.193375 407.72 226.193375 
L 214.18875 226.193375 
Q 212.18875 226.193375 212.18875 228.193375 
L 212.18875 300.584 
Q 212.18875 302.584 214.18875 302.584 
z
" style="fill: #ffffff; opacity: 0.8; stroke: #cccccc; stroke-linejoin: miter"/>
    </g>
    <g id="line2d_24">
     <path d="M 216.18875 234.291812 
L 226.18875 234.291812 
L 236.18875 234.291812 
" style="fill: none; stroke: #1f77b4; stroke-width: 1.5; stroke-linecap: square"/>
    </g>
    <g id="text_22">
     <!-- Train Accuracy -->
     <g transform="translate(244.18875 237.791812) scale(0.1 -0.1)">
      <defs>
       <path id="DejaVuSans-54" d="M -19 4666 
L 3928 4666 
L 3928 4134 
L 2272 4134 
L 2272 0 
L 1638 0 
L 1638 4134 
L -19 4134 
L -19 4666 
z
" transform="scale(0.015625)"/>
      </defs>
      <use xlink:href="#DejaVuSans-54"/>
      <use xlink:href="#DejaVuSans-72" x="46.333984"/>
      <use xlink:href="#DejaVuSans-61" x="87.447266"/>
      <use xlink:href="#DejaVuSans-69" x="148.726562"/>
      <use xlink:href="#DejaVuSans-6e" x="176.509766"/>
      <use xlink:href="#DejaVuSans-20" x="239.888672"/>
      <use xlink:href="#DejaVuSans-41" x="271.675781"/>
      <use xlink:href="#DejaVuSans-63" x="338.333984"/>
      <use xlink:href="#DejaVuSans-63" x="393.314453"/>
      <use xlink:href="#DejaVuSans-75" x="448.294922"/>
      <use xlink:href="#DejaVuSans-72" x="511.673828"/>
      <use xlink:href="#DejaVuSans-61" x="552.787109"/>
      <use xlink:href="#DejaVuSans-63" x="614.066406"/>
      <use xlink:href="#DejaVuSans-79" x="669.046875"/>
     </g>
    </g>
    <g id="line2d_25">
     <path d="M 216.18875 248.969937 
L 226.18875 248.969937 
L 236.18875 248.969937 
" style="fill: none; stroke: #ff7f0e; stroke-width: 1.5; stroke-linecap: square"/>
    </g>
    <g id="text_23">
     <!-- Validation Accuracy -->
     <g transform="translate(244.18875 252.469937) scale(0.1 -0.1)">
      <defs>
       <path id="DejaVuSans-56" d="M 1831 0 
L 50 4666 
L 709 4666 
L 2188 738 
L 3669 4666 
L 4325 4666 
L 2547 0 
L 1831 0 
z
" transform="scale(0.015625)"/>
       <path id="DejaVuSans-6c" d="M 603 4863 
L 1178 4863 
L 1178 0 
L 603 0 
L 603 4863 
z
" transform="scale(0.015625)"/>
       <path id="DejaVuSans-64" d="M 2906 2969 
L 2906 4863 
L 3481 4863 
L 3481 0 
L 2906 0 
L 2906 525 
Q 2725 213 2448 61 
Q 2172 -91 1784 -91 
Q 1150 -91 751 415 
Q 353 922 353 1747 
Q 353 2572 751 3078 
Q 1150 3584 1784 3584 
Q 2172 3584 2448 3432 
Q 2725 3281 2906 2969 
z
M 947 1747 
Q 947 1113 1208 752 
Q 1469 391 1925 391 
Q 2381 391 2643 752 
Q 2906 1113 2906 1747 
Q 2906 2381 2643 2742 
Q 2381 3103 1925 3103 
Q 1469 3103 1208 2742 
Q 947 2381 947 1747 
z
" transform="scale(0.015625)"/>
       <path id="DejaVuSans-74" d="M 1172 4494 
L 1172 3500 
L 2356 3500 
L 2356 3053 
L 1172 3053 
L 1172 1153 
Q 1172 725 1289 603 
Q 1406 481 1766 481 
L 2356 481 
L 2356 0 
L 1766 0 
Q 1100 0 847 248 
Q 594 497 594 1153 
L 594 3053 
L 172 3053 
L 172 3500 
L 594 3500 
L 594 4494 
L 1172 4494 
z
" transform="scale(0.015625)"/>
      </defs>
      <use xlink:href="#DejaVuSans-56"/>
      <use xlink:href="#DejaVuSans-61" x="60.658203"/>
      <use xlink:href="#DejaVuSans-6c" x="121.9375"/>
      <use xlink:href="#DejaVuSans-69" x="149.720703"/>
      <use xlink:href="#DejaVuSans-64" x="177.503906"/>
      <use xlink:href="#DejaVuSans-61" x="240.980469"/>
      <use xlink:href="#DejaVuSans-74" x="302.259766"/>
      <use xlink:href="#DejaVuSans-69" x="341.46875"/>
      <use xlink:href="#DejaVuSans-6f" x="369.251953"/>
      <use xlink:href="#DejaVuSans-6e" x="430.433594"/>
      <use xlink:href="#DejaVuSans-20" x="493.8125"/>
      <use xlink:href="#DejaVuSans-41" x="525.599609"/>
      <use xlink:href="#DejaVuSans-63" x="592.257812"/>
      <use xlink:href="#DejaVuSans-63" x="647.238281"/>
      <use xlink:href="#DejaVuSans-75" x="702.21875"/>
      <use xlink:href="#DejaVuSans-72" x="765.597656"/>
      <use xlink:href="#DejaVuSans-61" x="806.710938"/>
      <use xlink:href="#DejaVuSans-63" x="867.990234"/>
      <use xlink:href="#DejaVuSans-79" x="922.970703"/>
     </g>
    </g>
    <g id="line2d_26">
     <path d="M 216.18875 263.648062 
L 226.18875 263.648062 
L 236.18875 263.648062 
" style="fill: none; stroke: #2ca02c; stroke-width: 1.5; stroke-linecap: square"/>
    </g>
    <g id="text_24">
     <!-- Robust Validation Accuracy -->
     <g transform="translate(244.18875 267.148062) scale(0.1 -0.1)">
      <defs>
       <path id="DejaVuSans-52" d="M 2841 2188 
Q 3044 2119 3236 1894 
Q 3428 1669 3622 1275 
L 4263 0 
L 3584 0 
L 2988 1197 
Q 2756 1666 2539 1819 
Q 2322 1972 1947 1972 
L 1259 1972 
L 1259 0 
L 628 0 
L 628 4666 
L 2053 4666 
Q 2853 4666 3247 4331 
Q 3641 3997 3641 3322 
Q 3641 2881 3436 2590 
Q 3231 2300 2841 2188 
z
M 1259 4147 
L 1259 2491 
L 2053 2491 
Q 2509 2491 2742 2702 
Q 2975 2913 2975 3322 
Q 2975 3731 2742 3939 
Q 2509 4147 2053 4147 
L 1259 4147 
z
" transform="scale(0.015625)"/>
       <path id="DejaVuSans-62" d="M 3116 1747 
Q 3116 2381 2855 2742 
Q 2594 3103 2138 3103 
Q 1681 3103 1420 2742 
Q 1159 2381 1159 1747 
Q 1159 1113 1420 752 
Q 1681 391 2138 391 
Q 2594 391 2855 752 
Q 3116 1113 3116 1747 
z
M 1159 2969 
Q 1341 3281 1617 3432 
Q 1894 3584 2278 3584 
Q 2916 3584 3314 3078 
Q 3713 2572 3713 1747 
Q 3713 922 3314 415 
Q 2916 -91 2278 -91 
Q 1894 -91 1617 61 
Q 1341 213 1159 525 
L 1159 0 
L 581 0 
L 581 4863 
L 1159 4863 
L 1159 2969 
z
" transform="scale(0.015625)"/>
      </defs>
      <use xlink:href="#DejaVuSans-52"/>
      <use xlink:href="#DejaVuSans-6f" x="64.982422"/>
      <use xlink:href="#DejaVuSans-62" x="126.164062"/>
      <use xlink:href="#DejaVuSans-75" x="189.640625"/>
      <use xlink:href="#DejaVuSans-73" x="253.019531"/>
      <use xlink:href="#DejaVuSans-74" x="305.119141"/>
      <use xlink:href="#DejaVuSans-20" x="344.328125"/>
      <use xlink:href="#DejaVuSans-56" x="376.115234"/>
      <use xlink:href="#DejaVuSans-61" x="436.773438"/>
      <use xlink:href="#DejaVuSans-6c" x="498.052734"/>
      <use xlink:href="#DejaVuSans-69" x="525.835938"/>
      <use xlink:href="#DejaVuSans-64" x="553.619141"/>
      <use xlink:href="#DejaVuSans-61" x="617.095703"/>
      <use xlink:href="#DejaVuSans-74" x="678.375"/>
      <use xlink:href="#DejaVuSans-69" x="717.583984"/>
      <use xlink:href="#DejaVuSans-6f" x="745.367188"/>
      <use xlink:href="#DejaVuSans-6e" x="806.548828"/>
      <use xlink:href="#DejaVuSans-20" x="869.927734"/>
      <use xlink:href="#DejaVuSans-41" x="901.714844"/>
      <use xlink:href="#DejaVuSans-63" x="968.373047"/>
      <use xlink:href="#DejaVuSans-63" x="1023.353516"/>
      <use xlink:href="#DejaVuSans-75" x="1078.333984"/>
      <use xlink:href="#DejaVuSans-72" x="1141.712891"/>
      <use xlink:href="#DejaVuSans-61" x="1182.826172"/>
      <use xlink:href="#DejaVuSans-63" x="1244.105469"/>
      <use xlink:href="#DejaVuSans-79" x="1299.085938"/>
     </g>
    </g>
    <g id="line2d_27">
     <path d="M 216.18875 278.326188 
L 226.18875 278.326188 
L 236.18875 278.326188 
" style="fill: none; stroke: #d62728; stroke-width: 1.5; stroke-linecap: square"/>
    </g>
    <g id="text_25">
     <!-- SWA Validation Accuracy -->
     <g transform="translate(244.18875 281.826188) scale(0.1 -0.1)">
      <defs>
       <path id="DejaVuSans-53" d="M 3425 4513 
L 3425 3897 
Q 3066 4069 2747 4153 
Q 2428 4238 2131 4238 
Q 1616 4238 1336 4038 
Q 1056 3838 1056 3469 
Q 1056 3159 1242 3001 
Q 1428 2844 1947 2747 
L 2328 2669 
Q 3034 2534 3370 2195 
Q 3706 1856 3706 1288 
Q 3706 609 3251 259 
Q 2797 -91 1919 -91 
Q 1588 -91 1214 -16 
Q 841 59 441 206 
L 441 856 
Q 825 641 1194 531 
Q 1563 422 1919 422 
Q 2459 422 2753 634 
Q 3047 847 3047 1241 
Q 3047 1584 2836 1778 
Q 2625 1972 2144 2069 
L 1759 2144 
Q 1053 2284 737 2584 
Q 422 2884 422 3419 
Q 422 4038 858 4394 
Q 1294 4750 2059 4750 
Q 2388 4750 2728 4690 
Q 3069 4631 3425 4513 
z
" transform="scale(0.015625)"/>
       <path id="DejaVuSans-57" d="M 213 4666 
L 850 4666 
L 1831 722 
L 2809 4666 
L 3519 4666 
L 4500 722 
L 5478 4666 
L 6119 4666 
L 4947 0 
L 4153 0 
L 3169 4050 
L 2175 0 
L 1381 0 
L 213 4666 
z
" transform="scale(0.015625)"/>
      </defs>
      <use xlink:href="#DejaVuSans-53"/>
      <use xlink:href="#DejaVuSans-57" x="63.476562"/>
      <use xlink:href="#DejaVuSans-41" x="156.853516"/>
      <use xlink:href="#DejaVuSans-20" x="225.261719"/>
      <use xlink:href="#DejaVuSans-56" x="257.048828"/>
      <use xlink:href="#DejaVuSans-61" x="317.707031"/>
      <use xlink:href="#DejaVuSans-6c" x="378.986328"/>
      <use xlink:href="#DejaVuSans-69" x="406.769531"/>
      <use xlink:href="#DejaVuSans-64" x="434.552734"/>
      <use xlink:href="#DejaVuSans-61" x="498.029297"/>
      <use xlink:href="#DejaVuSans-74" x="559.308594"/>
      <use xlink:href="#DejaVuSans-69" x="598.517578"/>
      <use xlink:href="#DejaVuSans-6f" x="626.300781"/>
      <use xlink:href="#DejaVuSans-6e" x="687.482422"/>
      <use xlink:href="#DejaVuSans-20" x="750.861328"/>
      <use xlink:href="#DejaVuSans-41" x="782.648438"/>
      <use xlink:href="#DejaVuSans-63" x="849.306641"/>
      <use xlink:href="#DejaVuSans-63" x="904.287109"/>
      <use xlink:href="#DejaVuSans-75" x="959.267578"/>
      <use xlink:href="#DejaVuSans-72" x="1022.646484"/>
      <use xlink:href="#DejaVuSans-61" x="1063.759766"/>
      <use xlink:href="#DejaVuSans-63" x="1125.039062"/>
      <use xlink:href="#DejaVuSans-79" x="1180.019531"/>
     </g>
    </g>
    <g id="line2d_28">
     <path d="M 216.18875 293.004312 
L 226.18875 293.004312 
L 236.18875 293.004312 
" style="fill: none; stroke: #9467bd; stroke-width: 1.5; stroke-linecap: square"/>
    </g>
    <g id="text_26">
     <!-- SWA Robust Validation Accuracy -->
     <g transform="translate(244.18875 296.504312) scale(0.1 -0.1)">
      <use xlink:href="#DejaVuSans-53"/>
      <use xlink:href="#DejaVuSans-57" x="63.476562"/>
      <use xlink:href="#DejaVuSans-41" x="156.853516"/>
      <use xlink:href="#DejaVuSans-20" x="225.261719"/>
      <use xlink:href="#DejaVuSans-52" x="257.048828"/>
      <use xlink:href="#DejaVuSans-6f" x="322.03125"/>
      <use xlink:href="#DejaVuSans-62" x="383.212891"/>
      <use xlink:href="#DejaVuSans-75" x="446.689453"/>
      <use xlink:href="#DejaVuSans-73" x="510.068359"/>
      <use xlink:href="#DejaVuSans-74" x="562.167969"/>
      <use xlink:href="#DejaVuSans-20" x="601.376953"/>
      <use xlink:href="#DejaVuSans-56" x="633.164062"/>
      <use xlink:href="#DejaVuSans-61" x="693.822266"/>
      <use xlink:href="#DejaVuSans-6c" x="755.101562"/>
      <use xlink:href="#DejaVuSans-69" x="782.884766"/>
      <use xlink:href="#DejaVuSans-64" x="810.667969"/>
      <use xlink:href="#DejaVuSans-61" x="874.144531"/>
      <use xlink:href="#DejaVuSans-74" x="935.423828"/>
      <use xlink:href="#DejaVuSans-69" x="974.632812"/>
      <use xlink:href="#DejaVuSans-6f" x="1002.416016"/>
      <use xlink:href="#DejaVuSans-6e" x="1063.597656"/>
      <use xlink:href="#DejaVuSans-20" x="1126.976562"/>
      <use xlink:href="#DejaVuSans-41" x="1158.763672"/>
      <use xlink:href="#DejaVuSans-63" x="1225.421875"/>
      <use xlink:href="#DejaVuSans-63" x="1280.402344"/>
      <use xlink:href="#DejaVuSans-75" x="1335.382812"/>
      <use xlink:href="#DejaVuSans-72" x="1398.761719"/>
      <use xlink:href="#DejaVuSans-61" x="1439.875"/>
      <use xlink:href="#DejaVuSans-63" x="1501.154297"/>
      <use xlink:href="#DejaVuSans-79" x="1556.134766"/>
     </g>
    </g>
   </g>
  </g>
 </g>
 <defs>
  <clipPath id="p3650e9a3b2">
   <rect x="57.6" y="41.472" width="357.12" height="266.112"/>
  </clipPath>
 </defs>
</svg>
