<?xml version="1.0" encoding="utf-8" standalone="no"?>
<!DOCTYPE svg PUBLIC "-//W3C//DTD SVG 1.1//EN"
  "http://www.w3.org/Graphics/SVG/1.1/DTD/svg11.dtd">
<svg xmlns:xlink="http://www.w3.org/1999/xlink" width="460.8pt" height="345.6pt" viewBox="0 0 460.8 345.6" xmlns="http://www.w3.org/2000/svg" version="1.1">
 <metadata>
  <rdf:RDF xmlns:dc="http://purl.org/dc/elements/1.1/" xmlns:cc="http://creativecommons.org/ns#" xmlns:rdf="http://www.w3.org/1999/02/22-rdf-syntax-ns#">
   <cc:Work>
    <dc:type rdf:resource="http://purl.org/dc/dcmitype/StillImage"/>
    <dc:date>2025-02-28T01:17:02.715760</dc:date>
    <dc:format>image/svg+xml</dc:format>
    <dc:creator>
     <cc:Agent>
      <dc:title>Matplotlib v3.9.1, https://matplotlib.org/</dc:title>
     </cc:Agent>
    </dc:creator>
   </cc:Work>
  </rdf:RDF>
 </metadata>
 <defs>
  <style type="text/css">*{stroke-linejoin: round; stroke-linecap: butt}</style>
 </defs>
 <g id="figure_1">
  <g id="patch_1">
   <path d="M 0 345.6 
L 460.8 345.6 
L 460.8 0 
L 0 0 
z
" style="fill: #ffffff"/>
  </g>
  <g id="axes_1">
   <g id="patch_2">
    <path d="M 57.6 307.584 
L 414.72 307.584 
L 414.72 41.472 
L 57.6 41.472 
z
" style="fill: #ffffff"/>
   </g>
   <g id="matplotlib.axis_1">
    <g id="xtick_1">
     <g id="line2d_1">
      <defs>
       <path id="m325fc0ef49" d="M 0 0 
L 0 3.5 
" style="stroke: #000000; stroke-width: 0.8"/>
      </defs>
      <g>
       <use xlink:href="#m325fc0ef49" x="73.832727" y="307.584" style="stroke: #000000; stroke-width: 0.8"/>
      </g>
     </g>
     <g id="text_1">
      <!-- 1 -->
      <g transform="translate(70.651477 322.182437) scale(0.1 -0.1)">
       <defs>
        <path id="DejaVuSans-31" d="M 794 531 
L 1825 531 
L 1825 4091 
L 703 3866 
L 703 4441 
L 1819 4666 
L 2450 4666 
L 2450 531 
L 3481 531 
L 3481 0 
L 794 0 
L 794 531 
z
" transform="scale(0.015625)"/>
       </defs>
       <use xlink:href="#DejaVuSans-31"/>
      </g>
     </g>
    </g>
    <g id="xtick_2">
     <g id="line2d_2">
      <g>
       <use xlink:href="#m325fc0ef49" x="109.664165" y="307.584" style="stroke: #000000; stroke-width: 0.8"/>
      </g>
     </g>
     <g id="text_2">
      <!-- 34 -->
      <g transform="translate(103.301665 322.182437) scale(0.1 -0.1)">
       <defs>
        <path id="DejaVuSans-33" d="M 2597 2516 
Q 3050 2419 3304 2112 
Q 3559 1806 3559 1356 
Q 3559 666 3084 287 
Q 2609 -91 1734 -91 
Q 1441 -91 1130 -33 
Q 819 25 488 141 
L 488 750 
Q 750 597 1062 519 
Q 1375 441 1716 441 
Q 2309 441 2620 675 
Q 2931 909 2931 1356 
Q 2931 1769 2642 2001 
Q 2353 2234 1838 2234 
L 1294 2234 
L 1294 2753 
L 1863 2753 
Q 2328 2753 2575 2939 
Q 2822 3125 2822 3475 
Q 2822 3834 2567 4026 
Q 2313 4219 1838 4219 
Q 1578 4219 1281 4162 
Q 984 4106 628 3988 
L 628 4550 
Q 988 4650 1302 4700 
Q 1616 4750 1894 4750 
Q 2613 4750 3031 4423 
Q 3450 4097 3450 3541 
Q 3450 3153 3228 2886 
Q 3006 2619 2597 2516 
z
" transform="scale(0.015625)"/>
        <path id="DejaVuSans-34" d="M 2419 4116 
L 825 1625 
L 2419 1625 
L 2419 4116 
z
M 2253 4666 
L 3047 4666 
L 3047 1625 
L 3713 1625 
L 3713 1100 
L 3047 1100 
L 3047 0 
L 2419 0 
L 2419 1100 
L 313 1100 
L 313 1709 
L 2253 4666 
z
" transform="scale(0.015625)"/>
       </defs>
       <use xlink:href="#DejaVuSans-33"/>
       <use xlink:href="#DejaVuSans-34" x="63.623047"/>
      </g>
     </g>
    </g>
    <g id="xtick_3">
     <g id="line2d_3">
      <g>
       <use xlink:href="#m325fc0ef49" x="145.495604" y="307.584" style="stroke: #000000; stroke-width: 0.8"/>
      </g>
     </g>
     <g id="text_3">
      <!-- 67 -->
      <g transform="translate(139.133104 322.182437) scale(0.1 -0.1)">
       <defs>
        <path id="DejaVuSans-36" d="M 2113 2584 
Q 1688 2584 1439 2293 
Q 1191 2003 1191 1497 
Q 1191 994 1439 701 
Q 1688 409 2113 409 
Q 2538 409 2786 701 
Q 3034 994 3034 1497 
Q 3034 2003 2786 2293 
Q 2538 2584 2113 2584 
z
M 3366 4563 
L 3366 3988 
Q 3128 4100 2886 4159 
Q 2644 4219 2406 4219 
Q 1781 4219 1451 3797 
Q 1122 3375 1075 2522 
Q 1259 2794 1537 2939 
Q 1816 3084 2150 3084 
Q 2853 3084 3261 2657 
Q 3669 2231 3669 1497 
Q 3669 778 3244 343 
Q 2819 -91 2113 -91 
Q 1303 -91 875 529 
Q 447 1150 447 2328 
Q 447 3434 972 4092 
Q 1497 4750 2381 4750 
Q 2619 4750 2861 4703 
Q 3103 4656 3366 4563 
z
" transform="scale(0.015625)"/>
        <path id="DejaVuSans-37" d="M 525 4666 
L 3525 4666 
L 3525 4397 
L 1831 0 
L 1172 0 
L 2766 4134 
L 525 4134 
L 525 4666 
z
" transform="scale(0.015625)"/>
       </defs>
       <use xlink:href="#DejaVuSans-36"/>
       <use xlink:href="#DejaVuSans-37" x="63.623047"/>
      </g>
     </g>
    </g>
    <g id="xtick_4">
     <g id="line2d_4">
      <g>
       <use xlink:href="#m325fc0ef49" x="181.327042" y="307.584" style="stroke: #000000; stroke-width: 0.8"/>
      </g>
     </g>
     <g id="text_4">
      <!-- 100 -->
      <g transform="translate(171.783292 322.182437) scale(0.1 -0.1)">
       <defs>
        <path id="DejaVuSans-30" d="M 2034 4250 
Q 1547 4250 1301 3770 
Q 1056 3291 1056 2328 
Q 1056 1369 1301 889 
Q 1547 409 2034 409 
Q 2525 409 2770 889 
Q 3016 1369 3016 2328 
Q 3016 3291 2770 3770 
Q 2525 4250 2034 4250 
z
M 2034 4750 
Q 2819 4750 3233 4129 
Q 3647 3509 3647 2328 
Q 3647 1150 3233 529 
Q 2819 -91 2034 -91 
Q 1250 -91 836 529 
Q 422 1150 422 2328 
Q 422 3509 836 4129 
Q 1250 4750 2034 4750 
z
" transform="scale(0.015625)"/>
       </defs>
       <use xlink:href="#DejaVuSans-31"/>
       <use xlink:href="#DejaVuSans-30" x="63.623047"/>
       <use xlink:href="#DejaVuSans-30" x="127.246094"/>
      </g>
     </g>
    </g>
    <g id="xtick_5">
     <g id="line2d_5">
      <g>
       <use xlink:href="#m325fc0ef49" x="217.15848" y="307.584" style="stroke: #000000; stroke-width: 0.8"/>
      </g>
     </g>
     <g id="text_5">
      <!-- 133 -->
      <g transform="translate(207.61473 322.182437) scale(0.1 -0.1)">
       <use xlink:href="#DejaVuSans-31"/>
       <use xlink:href="#DejaVuSans-33" x="63.623047"/>
       <use xlink:href="#DejaVuSans-33" x="127.246094"/>
      </g>
     </g>
    </g>
    <g id="xtick_6">
     <g id="line2d_6">
      <g>
       <use xlink:href="#m325fc0ef49" x="254.075719" y="307.584" style="stroke: #000000; stroke-width: 0.8"/>
      </g>
     </g>
     <g id="text_6">
      <!-- 167 -->
      <g transform="translate(244.531969 322.182437) scale(0.1 -0.1)">
       <use xlink:href="#DejaVuSans-31"/>
       <use xlink:href="#DejaVuSans-36" x="63.623047"/>
       <use xlink:href="#DejaVuSans-37" x="127.246094"/>
      </g>
     </g>
    </g>
    <g id="xtick_7">
     <g id="line2d_7">
      <g>
       <use xlink:href="#m325fc0ef49" x="289.907157" y="307.584" style="stroke: #000000; stroke-width: 0.8"/>
      </g>
     </g>
     <g id="text_7">
      <!-- 200 -->
      <g transform="translate(280.363407 322.182437) scale(0.1 -0.1)">
       <defs>
        <path id="DejaVuSans-32" d="M 1228 531 
L 3431 531 
L 3431 0 
L 469 0 
L 469 531 
Q 828 903 1448 1529 
Q 2069 2156 2228 2338 
Q 2531 2678 2651 2914 
Q 2772 3150 2772 3378 
Q 2772 3750 2511 3984 
Q 2250 4219 1831 4219 
Q 1534 4219 1204 4116 
Q 875 4013 500 3803 
L 500 4441 
Q 881 4594 1212 4672 
Q 1544 4750 1819 4750 
Q 2544 4750 2975 4387 
Q 3406 4025 3406 3419 
Q 3406 3131 3298 2873 
Q 3191 2616 2906 2266 
Q 2828 2175 2409 1742 
Q 1991 1309 1228 531 
z
" transform="scale(0.015625)"/>
       </defs>
       <use xlink:href="#DejaVuSans-32"/>
       <use xlink:href="#DejaVuSans-30" x="63.623047"/>
       <use xlink:href="#DejaVuSans-30" x="127.246094"/>
      </g>
     </g>
    </g>
    <g id="xtick_8">
     <g id="line2d_8">
      <g>
       <use xlink:href="#m325fc0ef49" x="325.738595" y="307.584" style="stroke: #000000; stroke-width: 0.8"/>
      </g>
     </g>
     <g id="text_8">
      <!-- 233 -->
      <g transform="translate(316.194845 322.182437) scale(0.1 -0.1)">
       <use xlink:href="#DejaVuSans-32"/>
       <use xlink:href="#DejaVuSans-33" x="63.623047"/>
       <use xlink:href="#DejaVuSans-33" x="127.246094"/>
      </g>
     </g>
    </g>
    <g id="xtick_9">
     <g id="line2d_9">
      <g>
       <use xlink:href="#m325fc0ef49" x="361.570033" y="307.584" style="stroke: #000000; stroke-width: 0.8"/>
      </g>
     </g>
     <g id="text_9">
      <!-- 266 -->
      <g transform="translate(352.026283 322.182437) scale(0.1 -0.1)">
       <use xlink:href="#DejaVuSans-32"/>
       <use xlink:href="#DejaVuSans-36" x="63.623047"/>
       <use xlink:href="#DejaVuSans-36" x="127.246094"/>
      </g>
     </g>
    </g>
    <g id="xtick_10">
     <g id="line2d_10">
      <g>
       <use xlink:href="#m325fc0ef49" x="398.487273" y="307.584" style="stroke: #000000; stroke-width: 0.8"/>
      </g>
     </g>
     <g id="text_10">
      <!-- 300 -->
      <g transform="translate(388.943523 322.182437) scale(0.1 -0.1)">
       <use xlink:href="#DejaVuSans-33"/>
       <use xlink:href="#DejaVuSans-30" x="63.623047"/>
       <use xlink:href="#DejaVuSans-30" x="127.246094"/>
      </g>
     </g>
    </g>
    <g id="text_11">
     <!-- Epochs -->
     <g transform="translate(218.244375 335.860562) scale(0.1 -0.1)">
      <defs>
       <path id="DejaVuSans-45" d="M 628 4666 
L 3578 4666 
L 3578 4134 
L 1259 4134 
L 1259 2753 
L 3481 2753 
L 3481 2222 
L 1259 2222 
L 1259 531 
L 3634 531 
L 3634 0 
L 628 0 
L 628 4666 
z
" transform="scale(0.015625)"/>
       <path id="DejaVuSans-70" d="M 1159 525 
L 1159 -1331 
L 581 -1331 
L 581 3500 
L 1159 3500 
L 1159 2969 
Q 1341 3281 1617 3432 
Q 1894 3584 2278 3584 
Q 2916 3584 3314 3078 
Q 3713 2572 3713 1747 
Q 3713 922 3314 415 
Q 2916 -91 2278 -91 
Q 1894 -91 1617 61 
Q 1341 213 1159 525 
z
M 3116 1747 
Q 3116 2381 2855 2742 
Q 2594 3103 2138 3103 
Q 1681 3103 1420 2742 
Q 1159 2381 1159 1747 
Q 1159 1113 1420 752 
Q 1681 391 2138 391 
Q 2594 391 2855 752 
Q 3116 1113 3116 1747 
z
" transform="scale(0.015625)"/>
       <path id="DejaVuSans-6f" d="M 1959 3097 
Q 1497 3097 1228 2736 
Q 959 2375 959 1747 
Q 959 1119 1226 758 
Q 1494 397 1959 397 
Q 2419 397 2687 759 
Q 2956 1122 2956 1747 
Q 2956 2369 2687 2733 
Q 2419 3097 1959 3097 
z
M 1959 3584 
Q 2709 3584 3137 3096 
Q 3566 2609 3566 1747 
Q 3566 888 3137 398 
Q 2709 -91 1959 -91 
Q 1206 -91 779 398 
Q 353 888 353 1747 
Q 353 2609 779 3096 
Q 1206 3584 1959 3584 
z
" transform="scale(0.015625)"/>
       <path id="DejaVuSans-63" d="M 3122 3366 
L 3122 2828 
Q 2878 2963 2633 3030 
Q 2388 3097 2138 3097 
Q 1578 3097 1268 2742 
Q 959 2388 959 1747 
Q 959 1106 1268 751 
Q 1578 397 2138 397 
Q 2388 397 2633 464 
Q 2878 531 3122 666 
L 3122 134 
Q 2881 22 2623 -34 
Q 2366 -91 2075 -91 
Q 1284 -91 818 406 
Q 353 903 353 1747 
Q 353 2603 823 3093 
Q 1294 3584 2113 3584 
Q 2378 3584 2631 3529 
Q 2884 3475 3122 3366 
z
" transform="scale(0.015625)"/>
       <path id="DejaVuSans-68" d="M 3513 2113 
L 3513 0 
L 2938 0 
L 2938 2094 
Q 2938 2591 2744 2837 
Q 2550 3084 2163 3084 
Q 1697 3084 1428 2787 
Q 1159 2491 1159 1978 
L 1159 0 
L 581 0 
L 581 4863 
L 1159 4863 
L 1159 2956 
Q 1366 3272 1645 3428 
Q 1925 3584 2291 3584 
Q 2894 3584 3203 3211 
Q 3513 2838 3513 2113 
z
" transform="scale(0.015625)"/>
       <path id="DejaVuSans-73" d="M 2834 3397 
L 2834 2853 
Q 2591 2978 2328 3040 
Q 2066 3103 1784 3103 
Q 1356 3103 1142 2972 
Q 928 2841 928 2578 
Q 928 2378 1081 2264 
Q 1234 2150 1697 2047 
L 1894 2003 
Q 2506 1872 2764 1633 
Q 3022 1394 3022 966 
Q 3022 478 2636 193 
Q 2250 -91 1575 -91 
Q 1294 -91 989 -36 
Q 684 19 347 128 
L 347 722 
Q 666 556 975 473 
Q 1284 391 1588 391 
Q 1994 391 2212 530 
Q 2431 669 2431 922 
Q 2431 1156 2273 1281 
Q 2116 1406 1581 1522 
L 1381 1569 
Q 847 1681 609 1914 
Q 372 2147 372 2553 
Q 372 3047 722 3315 
Q 1072 3584 1716 3584 
Q 2034 3584 2315 3537 
Q 2597 3491 2834 3397 
z
" transform="scale(0.015625)"/>
      </defs>
      <use xlink:href="#DejaVuSans-45"/>
      <use xlink:href="#DejaVuSans-70" x="63.183594"/>
      <use xlink:href="#DejaVuSans-6f" x="126.660156"/>
      <use xlink:href="#DejaVuSans-63" x="187.841797"/>
      <use xlink:href="#DejaVuSans-68" x="242.822266"/>
      <use xlink:href="#DejaVuSans-73" x="306.201172"/>
     </g>
    </g>
   </g>
   <g id="matplotlib.axis_2">
    <g id="ytick_1">
     <g id="line2d_11">
      <defs>
       <path id="m6addd0d812" d="M 0 0 
L -3.5 0 
" style="stroke: #000000; stroke-width: 0.8"/>
      </defs>
      <g>
       <use xlink:href="#m6addd0d812" x="57.6" y="261.840515" style="stroke: #000000; stroke-width: 0.8"/>
      </g>
     </g>
     <g id="text_12">
      <!-- 20 -->
      <g transform="translate(37.875 265.639733) scale(0.1 -0.1)">
       <use xlink:href="#DejaVuSans-32"/>
       <use xlink:href="#DejaVuSans-30" x="63.623047"/>
      </g>
     </g>
    </g>
    <g id="ytick_2">
     <g id="line2d_12">
      <g>
       <use xlink:href="#m6addd0d812" x="57.6" y="203.619925" style="stroke: #000000; stroke-width: 0.8"/>
      </g>
     </g>
     <g id="text_13">
      <!-- 40 -->
      <g transform="translate(37.875 207.419144) scale(0.1 -0.1)">
       <use xlink:href="#DejaVuSans-34"/>
       <use xlink:href="#DejaVuSans-30" x="63.623047"/>
      </g>
     </g>
    </g>
    <g id="ytick_3">
     <g id="line2d_13">
      <g>
       <use xlink:href="#m6addd0d812" x="57.6" y="145.399336" style="stroke: #000000; stroke-width: 0.8"/>
      </g>
     </g>
     <g id="text_14">
      <!-- 60 -->
      <g transform="translate(37.875 149.198554) scale(0.1 -0.1)">
       <use xlink:href="#DejaVuSans-36"/>
       <use xlink:href="#DejaVuSans-30" x="63.623047"/>
      </g>
     </g>
    </g>
    <g id="ytick_4">
     <g id="line2d_14">
      <g>
       <use xlink:href="#m6addd0d812" x="57.6" y="87.178746" style="stroke: #000000; stroke-width: 0.8"/>
      </g>
     </g>
     <g id="text_15">
      <!-- 80 -->
      <g transform="translate(37.875 90.977965) scale(0.1 -0.1)">
       <defs>
        <path id="DejaVuSans-38" d="M 2034 2216 
Q 1584 2216 1326 1975 
Q 1069 1734 1069 1313 
Q 1069 891 1326 650 
Q 1584 409 2034 409 
Q 2484 409 2743 651 
Q 3003 894 3003 1313 
Q 3003 1734 2745 1975 
Q 2488 2216 2034 2216 
z
M 1403 2484 
Q 997 2584 770 2862 
Q 544 3141 544 3541 
Q 544 4100 942 4425 
Q 1341 4750 2034 4750 
Q 2731 4750 3128 4425 
Q 3525 4100 3525 3541 
Q 3525 3141 3298 2862 
Q 3072 2584 2669 2484 
Q 3125 2378 3379 2068 
Q 3634 1759 3634 1313 
Q 3634 634 3220 271 
Q 2806 -91 2034 -91 
Q 1263 -91 848 271 
Q 434 634 434 1313 
Q 434 1759 690 2068 
Q 947 2378 1403 2484 
z
M 1172 3481 
Q 1172 3119 1398 2916 
Q 1625 2713 2034 2713 
Q 2441 2713 2670 2916 
Q 2900 3119 2900 3481 
Q 2900 3844 2670 4047 
Q 2441 4250 2034 4250 
Q 1625 4250 1398 4047 
Q 1172 3844 1172 3481 
z
" transform="scale(0.015625)"/>
       </defs>
       <use xlink:href="#DejaVuSans-38"/>
       <use xlink:href="#DejaVuSans-30" x="63.623047"/>
      </g>
     </g>
    </g>
    <g id="text_16">
     <!-- Accuracy -->
     <g transform="translate(31.795312 197.356125) rotate(-90) scale(0.1 -0.1)">
      <defs>
       <path id="DejaVuSans-41" d="M 2188 4044 
L 1331 1722 
L 3047 1722 
L 2188 4044 
z
M 1831 4666 
L 2547 4666 
L 4325 0 
L 3669 0 
L 3244 1197 
L 1141 1197 
L 716 0 
L 50 0 
L 1831 4666 
z
" transform="scale(0.015625)"/>
       <path id="DejaVuSans-75" d="M 544 1381 
L 544 3500 
L 1119 3500 
L 1119 1403 
Q 1119 906 1312 657 
Q 1506 409 1894 409 
Q 2359 409 2629 706 
Q 2900 1003 2900 1516 
L 2900 3500 
L 3475 3500 
L 3475 0 
L 2900 0 
L 2900 538 
Q 2691 219 2414 64 
Q 2138 -91 1772 -91 
Q 1169 -91 856 284 
Q 544 659 544 1381 
z
M 1991 3584 
L 1991 3584 
z
" transform="scale(0.015625)"/>
       <path id="DejaVuSans-72" d="M 2631 2963 
Q 2534 3019 2420 3045 
Q 2306 3072 2169 3072 
Q 1681 3072 1420 2755 
Q 1159 2438 1159 1844 
L 1159 0 
L 581 0 
L 581 3500 
L 1159 3500 
L 1159 2956 
Q 1341 3275 1631 3429 
Q 1922 3584 2338 3584 
Q 2397 3584 2469 3576 
Q 2541 3569 2628 3553 
L 2631 2963 
z
" transform="scale(0.015625)"/>
       <path id="DejaVuSans-61" d="M 2194 1759 
Q 1497 1759 1228 1600 
Q 959 1441 959 1056 
Q 959 750 1161 570 
Q 1363 391 1709 391 
Q 2188 391 2477 730 
Q 2766 1069 2766 1631 
L 2766 1759 
L 2194 1759 
z
M 3341 1997 
L 3341 0 
L 2766 0 
L 2766 531 
Q 2569 213 2275 61 
Q 1981 -91 1556 -91 
Q 1019 -91 701 211 
Q 384 513 384 1019 
Q 384 1609 779 1909 
Q 1175 2209 1959 2209 
L 2766 2209 
L 2766 2266 
Q 2766 2663 2505 2880 
Q 2244 3097 1772 3097 
Q 1472 3097 1187 3025 
Q 903 2953 641 2809 
L 641 3341 
Q 956 3463 1253 3523 
Q 1550 3584 1831 3584 
Q 2591 3584 2966 3190 
Q 3341 2797 3341 1997 
z
" transform="scale(0.015625)"/>
       <path id="DejaVuSans-79" d="M 2059 -325 
Q 1816 -950 1584 -1140 
Q 1353 -1331 966 -1331 
L 506 -1331 
L 506 -850 
L 844 -850 
Q 1081 -850 1212 -737 
Q 1344 -625 1503 -206 
L 1606 56 
L 191 3500 
L 800 3500 
L 1894 763 
L 2988 3500 
L 3597 3500 
L 2059 -325 
z
" transform="scale(0.015625)"/>
      </defs>
      <use xlink:href="#DejaVuSans-41"/>
      <use xlink:href="#DejaVuSans-63" x="66.658203"/>
      <use xlink:href="#DejaVuSans-63" x="121.638672"/>
      <use xlink:href="#DejaVuSans-75" x="176.619141"/>
      <use xlink:href="#DejaVuSans-72" x="239.998047"/>
      <use xlink:href="#DejaVuSans-61" x="281.111328"/>
      <use xlink:href="#DejaVuSans-63" x="342.390625"/>
      <use xlink:href="#DejaVuSans-79" x="397.371094"/>
     </g>
    </g>
   </g>
   <g id="line2d_15">
    <path d="M 73.832727 292.627562 
L 76.00433 208.289216 
L 77.090131 179.534067 
L 78.175932 162.353171 
L 80.347534 139.146444 
L 81.433335 131.088715 
L 82.519137 125.778997 
L 84.690739 114.088303 
L 85.77654 109.954641 
L 86.862341 105.337748 
L 89.033943 97.868046 
L 90.119745 96.284446 
L 91.205546 92.802855 
L 92.291347 91.620977 
L 93.377148 89.53668 
L 94.462949 89.938402 
L 95.54875 115.468131 
L 96.634552 115.94554 
L 97.720353 111.247138 
L 98.806154 111.171451 
L 99.891955 108.190557 
L 100.977756 104.668211 
L 102.063557 103.573664 
L 103.149358 101.547588 
L 104.23516 98.962594 
L 105.320961 98.916017 
L 106.406762 95.521757 
L 107.492563 95.382027 
L 108.578364 92.150785 
L 109.664165 91.044593 
L 110.749967 90.32848 
L 111.835768 88.698304 
L 112.921569 86.439345 
L 114.00737 85.053695 
L 115.093171 85.175958 
L 117.264773 82.253284 
L 118.350575 80.332005 
L 119.436376 79.330611 
L 120.522177 77.840164 
L 122.693779 75.552095 
L 123.77958 75.156195 
L 125.951183 72.250987 
L 127.036984 71.849265 
L 128.122785 70.417039 
L 129.208586 69.881409 
L 130.294387 68.315275 
L 131.380189 68.128969 
L 132.46599 68.291987 
L 133.551791 67.302237 
L 134.637592 67.162508 
L 135.723393 66.370708 
L 136.809194 65.968986 
L 137.894995 67.057711 
L 138.980797 87.097237 
L 140.066598 90.573007 
L 141.152399 89.583257 
L 142.2382 89.495926 
L 143.324001 89.688054 
L 144.409802 88.465421 
L 145.495604 88.907898 
L 146.581405 86.835245 
L 147.667206 86.416057 
L 148.753007 86.328726 
L 149.838808 85.37973 
L 150.924609 85.624257 
L 152.01041 84.605396 
L 154.182013 82.992686 
L 156.353615 82.346437 
L 157.439416 81.403264 
L 158.525217 81.700189 
L 159.611019 80.122411 
L 160.69682 80.384403 
L 161.782621 79.61007 
L 162.868422 79.662468 
L 163.954223 78.387437 
L 165.040024 78.928889 
L 166.125825 77.100762 
L 167.211627 77.240492 
L 168.297428 76.338073 
L 169.383229 76.518556 
L 170.46903 76.145945 
L 172.640632 74.26542 
L 173.726434 74.393505 
L 174.812235 73.485264 
L 175.898036 73.246559 
L 176.983837 72.454759 
L 178.069638 72.186944 
L 179.155439 70.772184 
L 180.24124 71.069109 
L 182.412843 69.7999 
L 184.584445 69.520442 
L 185.670246 67.849511 
L 186.756047 68.420072 
L 187.841849 68.373496 
L 191.099252 65.113143 
L 192.185053 65.963163 
L 193.270854 64.746353 
L 194.356656 63.710027 
L 195.442457 64.321343 
L 196.528258 64.00113 
L 197.614059 62.568903 
L 198.69986 63.127821 
L 199.785661 62.801785 
L 200.871462 61.817858 
L 201.957264 62.033274 
L 204.128866 60.170215 
L 205.214667 59.751027 
L 206.300468 60.251724 
L 207.386269 60.286656 
L 208.472071 59.064024 
L 209.557872 58.48764 
L 210.643673 58.522572 
L 211.729474 57.887968 
L 212.815275 58.312978 
L 213.901076 58.301334 
L 214.986877 57.631797 
L 217.15848 56.968082 
L 218.244281 56.863285 
L 219.330082 56.53725 
L 220.415883 56.93315 
L 221.501684 56.14135 
L 222.587486 57.020481 
L 223.673287 56.589649 
L 224.759088 56.880752 
L 225.844889 77.12405 
L 226.93069 79.825486 
L 229.102292 80.279606 
L 230.188094 80.809414 
L 231.273895 80.081656 
L 232.359696 80.00597 
L 233.445497 79.784731 
L 234.531298 78.888134 
L 235.617099 78.317573 
L 236.702901 78.859024 
L 237.788702 78.614498 
L 238.874503 77.648036 
L 241.046105 78.387437 
L 242.131906 77.176449 
L 243.217708 77.793587 
L 244.303509 76.634998 
L 245.38931 77.223025 
L 246.475111 76.407937 
L 247.560912 76.175055 
L 248.646713 75.750045 
L 249.732514 75.814087 
L 250.818316 74.969889 
L 251.904117 75.354145 
L 252.989918 75.348323 
L 254.075719 74.853447 
L 255.16152 74.643853 
L 257.333123 74.865092 
L 258.418924 74.300352 
L 259.504725 74.061647 
L 260.590526 74.568167 
L 261.676327 74.247953 
L 262.762128 73.217449 
L 263.847929 74.032537 
L 264.933731 73.054431 
L 266.019532 73.72979 
L 267.105333 73.543484 
L 268.191134 73.124296 
L 269.276935 72.559556 
L 271.448538 72.734218 
L 272.534339 71.35439 
L 273.62014 72.443115 
L 274.705941 71.313636 
L 275.791742 72.018105 
L 276.877543 71.971528 
L 277.963344 70.783828 
L 279.049146 70.981778 
L 280.134947 70.655743 
L 281.220748 68.926591 
L 282.306549 69.642705 
L 283.39235 69.590306 
L 284.478151 69.747502 
L 285.563953 68.914947 
L 286.649754 69.776612 
L 287.735555 69.14783 
L 288.821356 69.246805 
L 289.907157 68.996456 
L 290.992958 68.094037 
L 292.07876 68.163902 
L 293.164561 68.548158 
L 295.336163 68.245411 
L 297.507765 67.540941 
L 300.765169 66.877227 
L 301.85097 66.132003 
L 302.936771 66.126181 
L 304.022572 65.939875 
L 305.108373 66.196046 
L 306.194175 65.526509 
L 307.279976 65.445 
L 308.365777 65.479933 
L 309.451578 64.728887 
L 310.537379 65.148075 
L 311.62318 64.647378 
L 312.708981 64.921015 
L 313.794783 64.82204 
L 314.880584 63.09871 
L 315.966385 63.139465 
L 317.052186 63.40728 
L 318.137987 63.890511 
L 319.223788 62.999735 
L 322.481192 62.365131 
L 324.652794 62.47575 
L 325.738595 61.573331 
L 326.824396 61.614085 
L 327.910198 61.206541 
L 328.995999 61.165787 
L 330.0818 60.304122 
L 331.167601 60.973659 
L 332.253402 59.9024 
L 333.339203 60.210969 
L 334.425005 61.171609 
L 335.510806 59.145532 
L 336.596607 59.256152 
L 338.768209 59.011625 
L 339.85401 59.390059 
L 340.939811 58.802031 
L 342.025613 58.836963 
L 343.111414 58.45853 
L 344.197215 57.864679 
L 345.283016 57.887968 
L 346.368817 57.748238 
L 347.454618 56.927328 
L 349.626221 56.741022 
L 351.797823 56.36841 
L 352.883624 55.762916 
L 353.969425 56.228681 
L 355.055227 55.925934 
L 356.141028 55.751272 
L 357.226829 55.302974 
L 360.484232 54.831387 
L 361.570033 54.074519 
L 362.655835 55.075913 
L 363.741636 53.568 
L 364.827437 54.720768 
L 365.913238 53.899857 
L 366.999039 54.365622 
L 368.08484 53.969722 
L 369.170642 54.854675 
L 370.256443 54.965294 
L 371.342244 56.001621 
L 372.428045 56.432453 
L 373.513846 56.548894 
L 374.599647 57.014659 
L 375.685448 56.50814 
L 376.77125 56.496496 
L 377.857051 56.362588 
L 380.028653 56.548894 
L 381.114454 57.410559 
L 382.200255 56.211215 
L 384.371858 56.805065 
L 385.457659 55.821137 
L 386.54346 56.362588 
L 387.629261 56.118062 
L 388.715062 57.055413 
L 389.800863 56.059841 
L 390.886665 56.461563 
L 391.972466 56.50814 
L 393.058267 56.741022 
L 394.144068 56.636225 
L 395.229869 56.874929 
L 397.401472 56.548894 
L 398.487273 56.350944 
L 398.487273 56.350944 
" clip-path="url(#pcd795b22f7)" style="fill: none; stroke: #1f77b4; stroke-width: 1.5; stroke-linecap: square"/>
   </g>
   <g id="line2d_16">
    <path d="M 73.832727 279.394022 
L 74.918528 241.288646 
L 76.00433 228.858551 
L 77.090131 211.01394 
L 78.175932 201.232881 
L 79.261733 187.376381 
L 80.347534 179.603932 
L 81.433335 178.031976 
L 82.519137 179.633042 
L 83.604938 168.600241 
L 85.77654 158.353417 
L 86.862341 154.889292 
L 87.948142 152.444027 
L 89.033943 146.418196 
L 90.119745 144.81713 
L 91.205546 141.061902 
L 92.291347 142.051652 
L 93.377148 140.829019 
L 94.462949 141.178343 
L 95.54875 164.64124 
L 96.634552 165.107005 
L 97.720353 157.71299 
L 98.806154 162.57441 
L 99.891955 157.159895 
L 100.977756 155.849931 
L 102.063557 152.968012 
L 103.149358 155.995483 
L 104.23516 150.697409 
L 105.320961 150.842961 
L 106.406762 146.447306 
L 107.492563 143.041402 
L 108.578364 143.390725 
L 109.664165 140.101262 
L 110.749967 141.411225 
L 111.835768 138.441975 
L 112.921569 137.248453 
L 114.00737 135.530946 
L 115.093171 132.649027 
L 116.178972 131.630166 
L 117.264773 132.619916 
L 118.350575 132.532585 
L 119.436376 131.04796 
L 120.522177 127.467394 
L 121.607978 127.874938 
L 122.693779 129.330453 
L 123.77958 122.838857 
L 124.865382 122.052879 
L 125.951183 122.08199 
L 127.036984 123.12996 
L 128.122785 120.539144 
L 129.208586 119.636725 
L 130.294387 121.732666 
L 131.380189 119.811387 
L 132.46599 117.482563 
L 133.551791 118.996298 
L 134.637592 117.482563 
L 135.723393 117.19146 
L 136.809194 117.657225 
L 137.894995 117.657225 
L 138.980797 138.150872 
L 140.066598 138.674858 
L 141.152399 137.539556 
L 142.2382 144.613358 
L 143.324001 144.293144 
L 144.409802 139.519056 
L 145.495604 133.871659 
L 146.581405 138.849519 
L 147.667206 136.316924 
L 148.753007 135.268953 
L 149.838808 137.102902 
L 150.924609 137.685108 
L 152.01041 131.630166 
L 153.096212 129.912659 
L 154.182013 129.126681 
L 155.267814 131.397284 
L 156.353615 129.06846 
L 157.439416 131.455505 
L 158.525217 128.340703 
L 159.611019 129.708887 
L 160.69682 129.767107 
L 161.782621 130.174652 
L 162.868422 129.359563 
L 163.954223 127.205401 
L 165.040024 128.369813 
L 166.125825 126.186541 
L 167.211627 126.885188 
L 169.383229 125.720776 
L 170.46903 125.022129 
L 171.554831 124.585475 
L 172.640632 123.915938 
L 173.726434 124.323482 
L 174.812235 124.11971 
L 176.983837 120.218931 
L 179.155439 118.384982 
L 180.24124 122.14021 
L 181.327042 120.306262 
L 182.412843 121.819997 
L 183.498644 118.530534 
L 184.584445 118.646975 
L 185.670246 117.22057 
L 186.756047 117.890107 
L 187.841849 115.794166 
L 188.92765 116.318151 
L 190.013451 115.444842 
L 191.099252 117.104129 
L 192.185053 112.592034 
L 193.270854 112.533813 
L 194.356656 112.737585 
L 195.442457 111.980717 
L 196.528258 112.795806 
L 197.614059 110.961857 
L 198.69986 110.961857 
L 199.785661 110.554313 
L 200.871462 109.972107 
L 201.957264 109.739225 
L 203.043065 111.806056 
L 204.128866 109.186129 
L 205.214667 106.915526 
L 206.300468 108.429261 
L 207.386269 108.749475 
L 208.472071 106.653533 
L 209.557872 106.36243 
L 210.643673 107.119298 
L 211.729474 106.36243 
L 212.815275 105.925776 
L 213.901076 107.090188 
L 214.986877 106.828195 
L 216.072679 104.877805 
L 217.15848 106.042217 
L 218.244281 104.877805 
L 219.330082 106.071328 
L 220.415883 105.34357 
L 221.501684 105.576453 
L 222.587486 104.994247 
L 223.673287 105.605563 
L 224.759088 105.023357 
L 225.844889 129.01024 
L 226.93069 132.590806 
L 228.016491 129.03935 
L 229.102292 130.407534 
L 230.188094 127.612946 
L 231.273895 128.544475 
L 232.359696 128.922909 
L 233.445497 129.854438 
L 234.531298 125.837218 
L 235.617099 130.611306 
L 236.702901 127.758497 
L 237.788702 125.517004 
L 238.874503 131.484615 
L 239.960304 124.236151 
L 241.046105 126.419424 
L 242.131906 127.816718 
L 243.217708 128.311593 
L 244.303509 124.352593 
L 245.38931 128.311593 
L 246.475111 128.224262 
L 247.560912 121.17957 
L 248.646713 125.895438 
L 249.732514 125.604335 
L 250.818316 126.477644 
L 251.904117 122.576865 
L 252.989918 122.1111 
L 254.075719 125.487894 
L 255.16152 125.400563 
L 256.247321 126.477644 
L 257.333123 122.984409 
L 258.418924 122.285762 
L 259.504725 123.304622 
L 260.590526 126.390313 
L 261.676327 125.284122 
L 262.762128 125.167681 
L 263.847929 123.566615 
L 264.933731 125.458784 
L 266.019532 122.897078 
L 267.105333 123.770387 
L 268.191134 123.508394 
L 269.276935 122.169321 
L 270.362736 123.479284 
L 271.448538 122.1111 
L 272.534339 122.1111 
L 273.62014 119.724056 
L 274.705941 120.073379 
L 275.791742 119.520284 
L 276.877543 122.431313 
L 277.963344 116.638365 
L 279.049146 116.958578 
L 280.134947 120.568254 
L 281.220748 119.11274 
L 282.306549 118.996298 
L 283.39235 120.859357 
L 284.478151 116.259931 
L 285.563953 118.268541 
L 286.649754 118.996298 
L 287.735555 117.860997 
L 288.821356 116.463703 
L 289.907157 118.443203 
L 290.992958 117.860997 
L 292.07876 119.462063 
L 293.164561 118.763416 
L 294.250362 118.705195 
L 295.336163 116.551034 
L 296.421964 119.665835 
L 297.507765 117.045909 
L 298.593566 117.337012 
L 299.679368 116.1726 
L 300.765169 115.444842 
L 301.85097 117.016798 
L 302.936771 114.891747 
L 304.022572 115.532173 
L 305.108373 115.881497 
L 306.194175 118.908968 
L 307.279976 115.910607 
L 308.365777 115.357512 
L 309.451578 111.689614 
L 310.537379 114.833526 
L 311.62318 111.28207 
L 312.708981 112.184489 
L 313.794783 112.504703 
L 314.880584 113.407122 
L 315.966385 112.708475 
L 317.052186 113.436232 
L 318.137987 114.804416 
L 319.223788 111.544063 
L 320.30959 111.194739 
L 321.395391 108.778585 
L 322.481192 112.883137 
L 323.566993 110.583423 
L 324.652794 110.554313 
L 325.738595 109.331681 
L 326.824396 112.592034 
L 327.910198 108.807695 
L 328.995999 109.419011 
L 330.0818 110.961857 
L 331.167601 111.456732 
L 332.253402 108.662144 
L 333.339203 108.574813 
L 334.425005 107.29396 
L 335.510806 109.040578 
L 336.596607 109.448122 
L 337.682408 108.2546 
L 338.768209 105.256239 
L 339.85401 108.050828 
L 340.939811 106.33332 
L 343.111414 106.36243 
L 344.197215 106.100438 
L 345.283016 104.644923 
L 346.368817 104.674033 
L 347.454618 104.004497 
L 348.54042 105.401791 
L 349.626221 105.31446 
L 350.712022 104.033607 
L 351.797823 103.33496 
L 352.883624 105.460011 
L 353.969425 102.3161 
L 355.055227 103.189408 
L 357.226829 103.509622 
L 358.31263 102.112327 
L 359.398431 102.40343 
L 360.484232 103.131188 
L 361.570033 102.112327 
L 362.655835 101.501011 
L 363.741636 101.821225 
L 364.827437 100.36571 
L 365.913238 101.35546 
L 366.999039 100.540372 
L 368.08484 102.461651 
L 369.170642 101.093467 
L 370.256443 102.810975 
L 371.342244 103.567842 
L 372.428045 102.869195 
L 373.513846 103.829835 
L 374.599647 105.489122 
L 375.685448 103.043857 
L 377.857051 105.023357 
L 378.942852 105.139798 
L 380.028653 104.062717 
L 381.114454 103.538732 
L 382.200255 105.692894 
L 383.286057 103.102077 
L 384.371858 106.100438 
L 385.457659 104.819585 
L 386.54346 104.150048 
L 387.629261 103.771614 
L 388.715062 105.227129 
L 389.800863 102.956526 
L 390.886665 105.489122 
L 391.972466 106.187769 
L 393.058267 105.809335 
L 394.144068 104.32471 
L 395.229869 105.489122 
L 396.31567 105.139798 
L 397.401472 105.663783 
L 398.487273 104.586703 
L 398.487273 104.586703 
" clip-path="url(#pcd795b22f7)" style="fill: none; stroke: #ff7f0e; stroke-width: 1.5; stroke-linecap: square"/>
   </g>
   <g id="line2d_17">
    <path d="M 73.832727 295.488 
L 74.918528 253.729784 
L 76.00433 254.793816 
L 77.090131 244.956544 
L 78.175932 233.673795 
L 79.261733 220.985722 
L 80.347534 216.870128 
L 81.433335 224.539185 
L 82.519137 216.749672 
L 83.604938 213.376893 
L 84.690739 206.651411 
L 85.77654 198.681213 
L 86.862341 209.602593 
L 87.948142 198.279692 
L 89.033943 193.461436 
L 90.119745 189.727288 
L 91.205546 188.5428 
L 92.291347 187.77991 
L 93.377148 185.892759 
L 94.462949 186.936715 
L 95.54875 207.093084 
L 96.634552 211.831036 
L 97.720353 207.414301 
L 98.806154 211.429515 
L 99.891955 202.917263 
L 100.977756 207.434378 
L 102.063557 202.455513 
L 103.149358 204.784337 
L 104.23516 190.470102 
L 106.406762 190.148885 
L 107.492563 202.375209 
L 108.578364 201.090341 
L 109.664165 192.537937 
L 110.749967 186.013216 
L 111.835768 182.740817 
L 112.921569 180.0707 
L 114.00737 193.079991 
L 115.093171 183.965457 
L 116.178972 187.88029 
L 117.264773 183.001806 
L 118.350575 184.166218 
L 119.436376 181.817318 
L 120.522177 178.805908 
L 121.607978 183.383251 
L 123.77958 172.582328 
L 124.865382 176.115716 
L 125.951183 170.534569 
L 127.036984 176.838454 
L 128.122785 170.695178 
L 129.208586 172.923621 
L 130.294387 173.365295 
L 131.380189 170.614874 
L 132.46599 169.370158 
L 133.551791 169.992516 
L 134.637592 169.771679 
L 135.723393 168.466735 
L 136.809194 169.771679 
L 137.894995 169.350082 
L 138.980797 189.305691 
L 140.066598 191.795123 
L 141.152399 188.020822 
L 142.2382 194.826609 
L 143.324001 195.509195 
L 145.495604 176.798302 
L 146.581405 194.56562 
L 147.667206 183.523784 
L 148.753007 184.226446 
L 149.838808 184.025685 
L 150.924609 185.210173 
L 153.096212 177.782029 
L 154.182013 175.794499 
L 155.267814 183.865077 
L 156.353615 178.043018 
L 157.439416 178.444539 
L 158.525217 183.885153 
L 159.611019 175.232369 
L 160.69682 178.886213 
L 161.782621 184.467359 
L 162.868422 182.620361 
L 163.954223 181.315417 
L 165.040024 175.854727 
L 166.125825 177.621421 
L 167.211627 174.670239 
L 168.297428 172.301263 
L 169.383229 176.597541 
L 170.46903 174.911152 
L 171.554831 169.149321 
L 172.640632 175.051684 
L 173.726434 179.147201 
L 174.812235 173.385371 
L 175.898036 170.193276 
L 176.983837 173.204686 
L 178.069638 170.273581 
L 179.155439 165.535629 
L 180.24124 171.899742 
L 181.327042 166.49928 
L 182.412843 174.97138 
L 183.498644 168.787952 
L 184.584445 173.867196 
L 185.670246 168.888332 
L 186.756047 170.213352 
L 187.841849 165.816694 
L 188.92765 165.856846 
L 190.013451 163.608327 
L 191.099252 170.715254 
L 192.185053 165.375021 
L 193.270854 167.743996 
L 194.356656 159.61319 
L 195.442457 162.042394 
L 196.528258 168.125442 
L 197.614059 158.38855 
L 198.69986 161.701101 
L 199.785661 159.15144 
L 200.871462 159.05106 
L 201.957264 160.456385 
L 203.043065 165.73639 
L 204.128866 161.159047 
L 205.214667 158.990832 
L 206.300468 159.010908 
L 207.386269 157.906724 
L 208.472071 160.657145 
L 210.643673 157.545355 
L 211.729474 158.348398 
L 212.815275 155.17638 
L 213.901076 156.621856 
L 214.986877 156.360867 
L 216.072679 155.236608 
L 217.15848 157.204062 
L 218.244281 157.183986 
L 219.330082 156.742313 
L 220.415883 158.790071 
L 221.501684 156.963149 
L 222.587486 156.220335 
L 223.673287 157.505203 
L 224.759088 157.987029 
L 225.844889 181.034352 
L 226.93069 176.457009 
L 228.016491 176.978986 
L 229.102292 174.108109 
L 230.188094 175.53351 
L 231.273895 178.263855 
L 232.359696 174.810771 
L 233.445497 179.629027 
L 234.531298 176.175944 
L 236.702901 174.449402 
L 237.788702 176.175944 
L 238.874503 184.146142 
L 239.960304 169.330006 
L 241.046105 169.229625 
L 242.131906 169.470538 
L 243.217708 181.29534 
L 244.303509 175.874803 
L 245.38931 177.98279 
L 246.475111 177.761953 
L 248.646713 170.112972 
L 249.732514 181.998003 
L 250.818316 172.843317 
L 251.904117 166.29852 
L 252.989918 165.455325 
L 254.075719 168.065213 
L 255.16152 169.069017 
L 256.247321 174.128185 
L 257.333123 175.714194 
L 258.418924 177.681649 
L 259.504725 174.911152 
L 260.590526 178.54492 
L 261.676327 172.562252 
L 262.762128 175.714194 
L 263.847929 180.151005 
L 264.933731 173.84712 
L 266.019532 177.842257 
L 267.105333 170.07282 
L 268.191134 174.489554 
L 269.276935 160.436309 
L 270.362736 172.562252 
L 271.448538 175.433129 
L 273.62014 170.775482 
L 274.705941 172.461872 
L 275.791742 172.220959 
L 276.877543 172.381567 
L 277.963344 164.672358 
L 279.049146 166.780345 
L 280.134947 160.315852 
L 282.306549 168.968636 
L 283.39235 172.5221 
L 284.478151 163.327262 
L 285.563953 162.122698 
L 286.649754 162.885589 
L 287.735555 170.875863 
L 289.907157 163.588251 
L 292.07876 172.702785 
L 293.164561 178.805908 
L 294.250362 165.515553 
L 295.336163 173.164534 
L 296.421964 169.450462 
L 297.507765 167.101562 
L 298.593566 164.230685 
L 299.679368 164.672358 
L 300.765169 164.732587 
L 301.85097 169.229625 
L 302.936771 162.524219 
L 304.022572 162.323459 
L 305.108373 175.473282 
L 306.194175 171.136851 
L 307.279976 161.901861 
L 308.365777 164.170457 
L 309.451578 160.37608 
L 310.537379 163.748859 
L 311.62318 153.068393 
L 312.708981 161.881785 
L 313.794783 161.942014 
L 314.880584 164.371217 
L 315.966385 163.066273 
L 317.052186 159.934407 
L 318.137987 159.010908 
L 319.223788 157.304442 
L 320.30959 159.633266 
L 321.395391 162.905665 
L 322.481192 158.749919 
L 323.566993 158.428702 
L 324.652794 161.942014 
L 325.738595 158.248017 
L 326.824396 167.16179 
L 327.910198 160.857906 
L 328.995999 162.644676 
L 330.0818 163.146577 
L 332.253402 161.339732 
L 334.425005 158.167713 
L 335.510806 168.18567 
L 336.596607 158.328322 
L 337.682408 161.098819 
L 338.768209 161.078743 
L 339.85401 164.632206 
L 340.939811 158.870376 
L 342.025613 158.709767 
L 343.111414 159.332125 
L 344.197215 156.019574 
L 346.368817 155.597977 
L 347.454618 155.116151 
L 348.54042 160.074939 
L 350.712022 158.107485 
L 351.797823 158.990832 
L 352.883624 157.444975 
L 353.969425 152.707023 
L 355.055227 154.975619 
L 356.141028 155.93927 
L 357.226829 154.674478 
L 358.31263 156.822617 
L 359.398431 153.650599 
L 360.484232 154.81501 
L 361.570033 153.730903 
L 362.655835 151.622916 
L 363.741636 154.915391 
L 364.827437 155.116151 
L 365.913238 154.895315 
L 366.999039 153.208925 
L 368.08484 155.698357 
L 369.170642 154.212728 
L 370.256443 159.271897 
L 371.342244 156.099879 
L 372.428045 153.831283 
L 373.513846 156.5014 
L 374.599647 158.127561 
L 375.685448 152.104742 
L 376.77125 155.718433 
L 377.857051 154.413489 
L 378.942852 160.054863 
L 380.028653 155.216532 
L 381.114454 153.991892 
L 382.200255 154.855162 
L 383.286057 155.879042 
L 384.371858 156.722237 
L 385.457659 159.171516 
L 386.54346 152.405882 
L 387.629261 151.542612 
L 388.715062 158.48893 
L 389.800863 153.229001 
L 390.886665 155.216532 
L 391.972466 158.810147 
L 393.058267 163.708707 
L 394.144068 162.283307 
L 395.229869 153.349458 
L 396.31567 151.562688 
L 397.401472 159.010908 
L 398.487273 159.191593 
L 398.487273 159.191593 
" clip-path="url(#pcd795b22f7)" style="fill: none; stroke: #2ca02c; stroke-width: 1.5; stroke-linecap: square"/>
   </g>
   <g id="line2d_18">
    <path d="M 368.08484 100.773254 
L 369.170642 100.220158 
L 370.256443 100.42393 
L 371.342244 101.239019 
L 372.428045 100.278379 
L 373.513846 103.276739 
L 374.599647 101.035247 
L 375.685448 102.083217 
L 376.77125 102.141438 
L 377.857051 104.441151 
L 378.942852 104.615813 
L 380.028653 102.869195 
L 381.114454 103.917166 
L 382.200255 101.821225 
L 383.286057 103.684283 
L 384.371858 101.32635 
L 385.457659 103.596952 
L 386.54346 104.35382 
L 387.629261 100.802364 
L 388.715062 103.189408 
L 390.886665 101.675673 
L 391.972466 103.567842 
L 393.058267 103.276739 
L 394.144068 104.208269 
L 395.229869 104.819585 
L 396.31567 106.216879 
L 397.401472 105.722004 
L 398.487273 108.778585 
L 398.487273 108.778585 
" clip-path="url(#pcd795b22f7)" style="fill: none; stroke: #d62728; stroke-width: 1.5; stroke-linecap: square"/>
   </g>
   <g id="line2d_19">
    <path d="M 368.08484 153.911587 
L 369.170642 154.011968 
L 370.256443 154.81501 
L 371.342244 151.221395 
L 372.428045 153.95174 
L 373.513846 157.846496 
L 374.599647 155.858966 
L 375.685448 155.919194 
L 376.77125 152.867632 
L 377.857051 154.955543 
L 378.942852 157.987029 
L 380.028653 157.143834 
L 381.114454 157.685888 
L 382.200255 152.104742 
L 383.286057 151.70322 
L 384.371858 150.398276 
L 385.457659 154.513869 
L 386.54346 152.285426 
L 387.629261 152.064589 
L 388.715062 153.068393 
L 389.800863 148.169833 
L 390.886665 149.936526 
L 391.972466 148.69181 
L 393.058267 152.988088 
L 394.144068 151.020634 
L 395.229869 150.358124 
L 396.31567 152.907784 
L 397.401472 151.261547 
L 398.487273 153.730903 
L 398.487273 153.730903 
" clip-path="url(#pcd795b22f7)" style="fill: none; stroke: #9467bd; stroke-width: 1.5; stroke-linecap: square"/>
   </g>
   <g id="patch_3">
    <path d="M 57.6 307.584 
L 57.6 41.472 
" style="fill: none; stroke: #000000; stroke-width: 0.8; stroke-linejoin: miter; stroke-linecap: square"/>
   </g>
   <g id="patch_4">
    <path d="M 414.72 307.584 
L 414.72 41.472 
" style="fill: none; stroke: #000000; stroke-width: 0.8; stroke-linejoin: miter; stroke-linecap: square"/>
   </g>
   <g id="patch_5">
    <path d="M 57.6 307.584 
L 414.72 307.584 
" style="fill: none; stroke: #000000; stroke-width: 0.8; stroke-linejoin: miter; stroke-linecap: square"/>
   </g>
   <g id="patch_6">
    <path d="M 57.6 41.472 
L 414.72 41.472 
" style="fill: none; stroke: #000000; stroke-width: 0.8; stroke-linejoin: miter; stroke-linecap: square"/>
   </g>
   <g id="text_17">
    <!-- Learning Curves -->
    <g transform="translate(187.37625 35.472) scale(0.12 -0.12)">
     <defs>
      <path id="DejaVuSans-4c" d="M 628 4666 
L 1259 4666 
L 1259 531 
L 3531 531 
L 3531 0 
L 628 0 
L 628 4666 
z
" transform="scale(0.015625)"/>
      <path id="DejaVuSans-65" d="M 3597 1894 
L 3597 1613 
L 953 1613 
Q 991 1019 1311 708 
Q 1631 397 2203 397 
Q 2534 397 2845 478 
Q 3156 559 3463 722 
L 3463 178 
Q 3153 47 2828 -22 
Q 2503 -91 2169 -91 
Q 1331 -91 842 396 
Q 353 884 353 1716 
Q 353 2575 817 3079 
Q 1281 3584 2069 3584 
Q 2775 3584 3186 3129 
Q 3597 2675 3597 1894 
z
M 3022 2063 
Q 3016 2534 2758 2815 
Q 2500 3097 2075 3097 
Q 1594 3097 1305 2825 
Q 1016 2553 972 2059 
L 3022 2063 
z
" transform="scale(0.015625)"/>
      <path id="DejaVuSans-6e" d="M 3513 2113 
L 3513 0 
L 2938 0 
L 2938 2094 
Q 2938 2591 2744 2837 
Q 2550 3084 2163 3084 
Q 1697 3084 1428 2787 
Q 1159 2491 1159 1978 
L 1159 0 
L 581 0 
L 581 3500 
L 1159 3500 
L 1159 2956 
Q 1366 3272 1645 3428 
Q 1925 3584 2291 3584 
Q 2894 3584 3203 3211 
Q 3513 2838 3513 2113 
z
" transform="scale(0.015625)"/>
      <path id="DejaVuSans-69" d="M 603 3500 
L 1178 3500 
L 1178 0 
L 603 0 
L 603 3500 
z
M 603 4863 
L 1178 4863 
L 1178 4134 
L 603 4134 
L 603 4863 
z
" transform="scale(0.015625)"/>
      <path id="DejaVuSans-67" d="M 2906 1791 
Q 2906 2416 2648 2759 
Q 2391 3103 1925 3103 
Q 1463 3103 1205 2759 
Q 947 2416 947 1791 
Q 947 1169 1205 825 
Q 1463 481 1925 481 
Q 2391 481 2648 825 
Q 2906 1169 2906 1791 
z
M 3481 434 
Q 3481 -459 3084 -895 
Q 2688 -1331 1869 -1331 
Q 1566 -1331 1297 -1286 
Q 1028 -1241 775 -1147 
L 775 -588 
Q 1028 -725 1275 -790 
Q 1522 -856 1778 -856 
Q 2344 -856 2625 -561 
Q 2906 -266 2906 331 
L 2906 616 
Q 2728 306 2450 153 
Q 2172 0 1784 0 
Q 1141 0 747 490 
Q 353 981 353 1791 
Q 353 2603 747 3093 
Q 1141 3584 1784 3584 
Q 2172 3584 2450 3431 
Q 2728 3278 2906 2969 
L 2906 3500 
L 3481 3500 
L 3481 434 
z
" transform="scale(0.015625)"/>
      <path id="DejaVuSans-20" transform="scale(0.015625)"/>
      <path id="DejaVuSans-43" d="M 4122 4306 
L 4122 3641 
Q 3803 3938 3442 4084 
Q 3081 4231 2675 4231 
Q 1875 4231 1450 3742 
Q 1025 3253 1025 2328 
Q 1025 1406 1450 917 
Q 1875 428 2675 428 
Q 3081 428 3442 575 
Q 3803 722 4122 1019 
L 4122 359 
Q 3791 134 3420 21 
Q 3050 -91 2638 -91 
Q 1578 -91 968 557 
Q 359 1206 359 2328 
Q 359 3453 968 4101 
Q 1578 4750 2638 4750 
Q 3056 4750 3426 4639 
Q 3797 4528 4122 4306 
z
" transform="scale(0.015625)"/>
      <path id="DejaVuSans-76" d="M 191 3500 
L 800 3500 
L 1894 563 
L 2988 3500 
L 3597 3500 
L 2284 0 
L 1503 0 
L 191 3500 
z
" transform="scale(0.015625)"/>
     </defs>
     <use xlink:href="#DejaVuSans-4c"/>
     <use xlink:href="#DejaVuSans-65" x="53.962891"/>
     <use xlink:href="#DejaVuSans-61" x="115.486328"/>
     <use xlink:href="#DejaVuSans-72" x="176.765625"/>
     <use xlink:href="#DejaVuSans-6e" x="216.128906"/>
     <use xlink:href="#DejaVuSans-69" x="279.507812"/>
     <use xlink:href="#DejaVuSans-6e" x="307.291016"/>
     <use xlink:href="#DejaVuSans-67" x="370.669922"/>
     <use xlink:href="#DejaVuSans-20" x="434.146484"/>
     <use xlink:href="#DejaVuSans-43" x="465.933594"/>
     <use xlink:href="#DejaVuSans-75" x="535.757812"/>
     <use xlink:href="#DejaVuSans-72" x="599.136719"/>
     <use xlink:href="#DejaVuSans-76" x="640.25"/>
     <use xlink:href="#DejaVuSans-65" x="699.429688"/>
     <use xlink:href="#DejaVuSans-73" x="760.953125"/>
    </g>
   </g>
   <g id="legend_1">
    <g id="patch_7">
     <path d="M 214.18875 302.584 
L 407.72 302.584 
Q 409.72 302.584 409.72 300.584 
L 409.72 228.193375 
Q 409.72 226.193375 407.72 226.193375 
L 214.18875 226.193375 
Q 212.18875 226.193375 212.18875 228.193375 
L 212.18875 300.584 
Q 212.18875 302.584 214.18875 302.584 
z
" style="fill: #ffffff; opacity: 0.8; stroke: #cccccc; stroke-linejoin: miter"/>
    </g>
    <g id="line2d_20">
     <path d="M 216.18875 234.291812 
L 226.18875 234.291812 
L 236.18875 234.291812 
" style="fill: none; stroke: #1f77b4; stroke-width: 1.5; stroke-linecap: square"/>
    </g>
    <g id="text_18">
     <!-- Train Accuracy -->
     <g transform="translate(244.18875 237.791812) scale(0.1 -0.1)">
      <defs>
       <path id="DejaVuSans-54" d="M -19 4666 
L 3928 4666 
L 3928 4134 
L 2272 4134 
L 2272 0 
L 1638 0 
L 1638 4134 
L -19 4134 
L -19 4666 
z
" transform="scale(0.015625)"/>
      </defs>
      <use xlink:href="#DejaVuSans-54"/>
      <use xlink:href="#DejaVuSans-72" x="46.333984"/>
      <use xlink:href="#DejaVuSans-61" x="87.447266"/>
      <use xlink:href="#DejaVuSans-69" x="148.726562"/>
      <use xlink:href="#DejaVuSans-6e" x="176.509766"/>
      <use xlink:href="#DejaVuSans-20" x="239.888672"/>
      <use xlink:href="#DejaVuSans-41" x="271.675781"/>
      <use xlink:href="#DejaVuSans-63" x="338.333984"/>
      <use xlink:href="#DejaVuSans-63" x="393.314453"/>
      <use xlink:href="#DejaVuSans-75" x="448.294922"/>
      <use xlink:href="#DejaVuSans-72" x="511.673828"/>
      <use xlink:href="#DejaVuSans-61" x="552.787109"/>
      <use xlink:href="#DejaVuSans-63" x="614.066406"/>
      <use xlink:href="#DejaVuSans-79" x="669.046875"/>
     </g>
    </g>
    <g id="line2d_21">
     <path d="M 216.18875 248.969937 
L 226.18875 248.969937 
L 236.18875 248.969937 
" style="fill: none; stroke: #ff7f0e; stroke-width: 1.5; stroke-linecap: square"/>
    </g>
    <g id="text_19">
     <!-- Validation Accuracy -->
     <g transform="translate(244.18875 252.469937) scale(0.1 -0.1)">
      <defs>
       <path id="DejaVuSans-56" d="M 1831 0 
L 50 4666 
L 709 4666 
L 2188 738 
L 3669 4666 
L 4325 4666 
L 2547 0 
L 1831 0 
z
" transform="scale(0.015625)"/>
       <path id="DejaVuSans-6c" d="M 603 4863 
L 1178 4863 
L 1178 0 
L 603 0 
L 603 4863 
z
" transform="scale(0.015625)"/>
       <path id="DejaVuSans-64" d="M 2906 2969 
L 2906 4863 
L 3481 4863 
L 3481 0 
L 2906 0 
L 2906 525 
Q 2725 213 2448 61 
Q 2172 -91 1784 -91 
Q 1150 -91 751 415 
Q 353 922 353 1747 
Q 353 2572 751 3078 
Q 1150 3584 1784 3584 
Q 2172 3584 2448 3432 
Q 2725 3281 2906 2969 
z
M 947 1747 
Q 947 1113 1208 752 
Q 1469 391 1925 391 
Q 2381 391 2643 752 
Q 2906 1113 2906 1747 
Q 2906 2381 2643 2742 
Q 2381 3103 1925 3103 
Q 1469 3103 1208 2742 
Q 947 2381 947 1747 
z
" transform="scale(0.015625)"/>
       <path id="DejaVuSans-74" d="M 1172 4494 
L 1172 3500 
L 2356 3500 
L 2356 3053 
L 1172 3053 
L 1172 1153 
Q 1172 725 1289 603 
Q 1406 481 1766 481 
L 2356 481 
L 2356 0 
L 1766 0 
Q 1100 0 847 248 
Q 594 497 594 1153 
L 594 3053 
L 172 3053 
L 172 3500 
L 594 3500 
L 594 4494 
L 1172 4494 
z
" transform="scale(0.015625)"/>
      </defs>
      <use xlink:href="#DejaVuSans-56"/>
      <use xlink:href="#DejaVuSans-61" x="60.658203"/>
      <use xlink:href="#DejaVuSans-6c" x="121.9375"/>
      <use xlink:href="#DejaVuSans-69" x="149.720703"/>
      <use xlink:href="#DejaVuSans-64" x="177.503906"/>
      <use xlink:href="#DejaVuSans-61" x="240.980469"/>
      <use xlink:href="#DejaVuSans-74" x="302.259766"/>
      <use xlink:href="#DejaVuSans-69" x="341.46875"/>
      <use xlink:href="#DejaVuSans-6f" x="369.251953"/>
      <use xlink:href="#DejaVuSans-6e" x="430.433594"/>
      <use xlink:href="#DejaVuSans-20" x="493.8125"/>
      <use xlink:href="#DejaVuSans-41" x="525.599609"/>
      <use xlink:href="#DejaVuSans-63" x="592.257812"/>
      <use xlink:href="#DejaVuSans-63" x="647.238281"/>
      <use xlink:href="#DejaVuSans-75" x="702.21875"/>
      <use xlink:href="#DejaVuSans-72" x="765.597656"/>
      <use xlink:href="#DejaVuSans-61" x="806.710938"/>
      <use xlink:href="#DejaVuSans-63" x="867.990234"/>
      <use xlink:href="#DejaVuSans-79" x="922.970703"/>
     </g>
    </g>
    <g id="line2d_22">
     <path d="M 216.18875 263.648062 
L 226.18875 263.648062 
L 236.18875 263.648062 
" style="fill: none; stroke: #2ca02c; stroke-width: 1.5; stroke-linecap: square"/>
    </g>
    <g id="text_20">
     <!-- Robust Validation Accuracy -->
     <g transform="translate(244.18875 267.148062) scale(0.1 -0.1)">
      <defs>
       <path id="DejaVuSans-52" d="M 2841 2188 
Q 3044 2119 3236 1894 
Q 3428 1669 3622 1275 
L 4263 0 
L 3584 0 
L 2988 1197 
Q 2756 1666 2539 1819 
Q 2322 1972 1947 1972 
L 1259 1972 
L 1259 0 
L 628 0 
L 628 4666 
L 2053 4666 
Q 2853 4666 3247 4331 
Q 3641 3997 3641 3322 
Q 3641 2881 3436 2590 
Q 3231 2300 2841 2188 
z
M 1259 4147 
L 1259 2491 
L 2053 2491 
Q 2509 2491 2742 2702 
Q 2975 2913 2975 3322 
Q 2975 3731 2742 3939 
Q 2509 4147 2053 4147 
L 1259 4147 
z
" transform="scale(0.015625)"/>
       <path id="DejaVuSans-62" d="M 3116 1747 
Q 3116 2381 2855 2742 
Q 2594 3103 2138 3103 
Q 1681 3103 1420 2742 
Q 1159 2381 1159 1747 
Q 1159 1113 1420 752 
Q 1681 391 2138 391 
Q 2594 391 2855 752 
Q 3116 1113 3116 1747 
z
M 1159 2969 
Q 1341 3281 1617 3432 
Q 1894 3584 2278 3584 
Q 2916 3584 3314 3078 
Q 3713 2572 3713 1747 
Q 3713 922 3314 415 
Q 2916 -91 2278 -91 
Q 1894 -91 1617 61 
Q 1341 213 1159 525 
L 1159 0 
L 581 0 
L 581 4863 
L 1159 4863 
L 1159 2969 
z
" transform="scale(0.015625)"/>
      </defs>
      <use xlink:href="#DejaVuSans-52"/>
      <use xlink:href="#DejaVuSans-6f" x="64.982422"/>
      <use xlink:href="#DejaVuSans-62" x="126.164062"/>
      <use xlink:href="#DejaVuSans-75" x="189.640625"/>
      <use xlink:href="#DejaVuSans-73" x="253.019531"/>
      <use xlink:href="#DejaVuSans-74" x="305.119141"/>
      <use xlink:href="#DejaVuSans-20" x="344.328125"/>
      <use xlink:href="#DejaVuSans-56" x="376.115234"/>
      <use xlink:href="#DejaVuSans-61" x="436.773438"/>
      <use xlink:href="#DejaVuSans-6c" x="498.052734"/>
      <use xlink:href="#DejaVuSans-69" x="525.835938"/>
      <use xlink:href="#DejaVuSans-64" x="553.619141"/>
      <use xlink:href="#DejaVuSans-61" x="617.095703"/>
      <use xlink:href="#DejaVuSans-74" x="678.375"/>
      <use xlink:href="#DejaVuSans-69" x="717.583984"/>
      <use xlink:href="#DejaVuSans-6f" x="745.367188"/>
      <use xlink:href="#DejaVuSans-6e" x="806.548828"/>
      <use xlink:href="#DejaVuSans-20" x="869.927734"/>
      <use xlink:href="#DejaVuSans-41" x="901.714844"/>
      <use xlink:href="#DejaVuSans-63" x="968.373047"/>
      <use xlink:href="#DejaVuSans-63" x="1023.353516"/>
      <use xlink:href="#DejaVuSans-75" x="1078.333984"/>
      <use xlink:href="#DejaVuSans-72" x="1141.712891"/>
      <use xlink:href="#DejaVuSans-61" x="1182.826172"/>
      <use xlink:href="#DejaVuSans-63" x="1244.105469"/>
      <use xlink:href="#DejaVuSans-79" x="1299.085938"/>
     </g>
    </g>
    <g id="line2d_23">
     <path d="M 216.18875 278.326188 
L 226.18875 278.326188 
L 236.18875 278.326188 
" style="fill: none; stroke: #d62728; stroke-width: 1.5; stroke-linecap: square"/>
    </g>
    <g id="text_21">
     <!-- SWA Validation Accuracy -->
     <g transform="translate(244.18875 281.826188) scale(0.1 -0.1)">
      <defs>
       <path id="DejaVuSans-53" d="M 3425 4513 
L 3425 3897 
Q 3066 4069 2747 4153 
Q 2428 4238 2131 4238 
Q 1616 4238 1336 4038 
Q 1056 3838 1056 3469 
Q 1056 3159 1242 3001 
Q 1428 2844 1947 2747 
L 2328 2669 
Q 3034 2534 3370 2195 
Q 3706 1856 3706 1288 
Q 3706 609 3251 259 
Q 2797 -91 1919 -91 
Q 1588 -91 1214 -16 
Q 841 59 441 206 
L 441 856 
Q 825 641 1194 531 
Q 1563 422 1919 422 
Q 2459 422 2753 634 
Q 3047 847 3047 1241 
Q 3047 1584 2836 1778 
Q 2625 1972 2144 2069 
L 1759 2144 
Q 1053 2284 737 2584 
Q 422 2884 422 3419 
Q 422 4038 858 4394 
Q 1294 4750 2059 4750 
Q 2388 4750 2728 4690 
Q 3069 4631 3425 4513 
z
" transform="scale(0.015625)"/>
       <path id="DejaVuSans-57" d="M 213 4666 
L 850 4666 
L 1831 722 
L 2809 4666 
L 3519 4666 
L 4500 722 
L 5478 4666 
L 6119 4666 
L 4947 0 
L 4153 0 
L 3169 4050 
L 2175 0 
L 1381 0 
L 213 4666 
z
" transform="scale(0.015625)"/>
      </defs>
      <use xlink:href="#DejaVuSans-53"/>
      <use xlink:href="#DejaVuSans-57" x="63.476562"/>
      <use xlink:href="#DejaVuSans-41" x="156.853516"/>
      <use xlink:href="#DejaVuSans-20" x="225.261719"/>
      <use xlink:href="#DejaVuSans-56" x="257.048828"/>
      <use xlink:href="#DejaVuSans-61" x="317.707031"/>
      <use xlink:href="#DejaVuSans-6c" x="378.986328"/>
      <use xlink:href="#DejaVuSans-69" x="406.769531"/>
      <use xlink:href="#DejaVuSans-64" x="434.552734"/>
      <use xlink:href="#DejaVuSans-61" x="498.029297"/>
      <use xlink:href="#DejaVuSans-74" x="559.308594"/>
      <use xlink:href="#DejaVuSans-69" x="598.517578"/>
      <use xlink:href="#DejaVuSans-6f" x="626.300781"/>
      <use xlink:href="#DejaVuSans-6e" x="687.482422"/>
      <use xlink:href="#DejaVuSans-20" x="750.861328"/>
      <use xlink:href="#DejaVuSans-41" x="782.648438"/>
      <use xlink:href="#DejaVuSans-63" x="849.306641"/>
      <use xlink:href="#DejaVuSans-63" x="904.287109"/>
      <use xlink:href="#DejaVuSans-75" x="959.267578"/>
      <use xlink:href="#DejaVuSans-72" x="1022.646484"/>
      <use xlink:href="#DejaVuSans-61" x="1063.759766"/>
      <use xlink:href="#DejaVuSans-63" x="1125.039062"/>
      <use xlink:href="#DejaVuSans-79" x="1180.019531"/>
     </g>
    </g>
    <g id="line2d_24">
     <path d="M 216.18875 293.004312 
L 226.18875 293.004312 
L 236.18875 293.004312 
" style="fill: none; stroke: #9467bd; stroke-width: 1.5; stroke-linecap: square"/>
    </g>
    <g id="text_22">
     <!-- SWA Robust Validation Accuracy -->
     <g transform="translate(244.18875 296.504312) scale(0.1 -0.1)">
      <use xlink:href="#DejaVuSans-53"/>
      <use xlink:href="#DejaVuSans-57" x="63.476562"/>
      <use xlink:href="#DejaVuSans-41" x="156.853516"/>
      <use xlink:href="#DejaVuSans-20" x="225.261719"/>
      <use xlink:href="#DejaVuSans-52" x="257.048828"/>
      <use xlink:href="#DejaVuSans-6f" x="322.03125"/>
      <use xlink:href="#DejaVuSans-62" x="383.212891"/>
      <use xlink:href="#DejaVuSans-75" x="446.689453"/>
      <use xlink:href="#DejaVuSans-73" x="510.068359"/>
      <use xlink:href="#DejaVuSans-74" x="562.167969"/>
      <use xlink:href="#DejaVuSans-20" x="601.376953"/>
      <use xlink:href="#DejaVuSans-56" x="633.164062"/>
      <use xlink:href="#DejaVuSans-61" x="693.822266"/>
      <use xlink:href="#DejaVuSans-6c" x="755.101562"/>
      <use xlink:href="#DejaVuSans-69" x="782.884766"/>
      <use xlink:href="#DejaVuSans-64" x="810.667969"/>
      <use xlink:href="#DejaVuSans-61" x="874.144531"/>
      <use xlink:href="#DejaVuSans-74" x="935.423828"/>
      <use xlink:href="#DejaVuSans-69" x="974.632812"/>
      <use xlink:href="#DejaVuSans-6f" x="1002.416016"/>
      <use xlink:href="#DejaVuSans-6e" x="1063.597656"/>
      <use xlink:href="#DejaVuSans-20" x="1126.976562"/>
      <use xlink:href="#DejaVuSans-41" x="1158.763672"/>
      <use xlink:href="#DejaVuSans-63" x="1225.421875"/>
      <use xlink:href="#DejaVuSans-63" x="1280.402344"/>
      <use xlink:href="#DejaVuSans-75" x="1335.382812"/>
      <use xlink:href="#DejaVuSans-72" x="1398.761719"/>
      <use xlink:href="#DejaVuSans-61" x="1439.875"/>
      <use xlink:href="#DejaVuSans-63" x="1501.154297"/>
      <use xlink:href="#DejaVuSans-79" x="1556.134766"/>
     </g>
    </g>
   </g>
  </g>
 </g>
 <defs>
  <clipPath id="pcd795b22f7">
   <rect x="57.6" y="41.472" width="357.12" height="266.112"/>
  </clipPath>
 </defs>
</svg>
