<?xml version="1.0" encoding="utf-8" standalone="no"?>
<!DOCTYPE svg PUBLIC "-//W3C//DTD SVG 1.1//EN"
  "http://www.w3.org/Graphics/SVG/1.1/DTD/svg11.dtd">
<svg xmlns:xlink="http://www.w3.org/1999/xlink" width="460.8pt" height="345.6pt" viewBox="0 0 460.8 345.6" xmlns="http://www.w3.org/2000/svg" version="1.1">
 <metadata>
  <rdf:RDF xmlns:dc="http://purl.org/dc/elements/1.1/" xmlns:cc="http://creativecommons.org/ns#" xmlns:rdf="http://www.w3.org/1999/02/22-rdf-syntax-ns#">
   <cc:Work>
    <dc:type rdf:resource="http://purl.org/dc/dcmitype/StillImage"/>
    <dc:date>2025-03-11T04:01:07.045869</dc:date>
    <dc:format>image/svg+xml</dc:format>
    <dc:creator>
     <cc:Agent>
      <dc:title>Matplotlib v3.9.1, https://matplotlib.org/</dc:title>
     </cc:Agent>
    </dc:creator>
   </cc:Work>
  </rdf:RDF>
 </metadata>
 <defs>
  <style type="text/css">*{stroke-linejoin: round; stroke-linecap: butt}</style>
 </defs>
 <g id="figure_1">
  <g id="patch_1">
   <path d="M 0 345.6 
L 460.8 345.6 
L 460.8 0 
L 0 0 
z
" style="fill: #ffffff"/>
  </g>
  <g id="axes_1">
   <g id="patch_2">
    <path d="M 57.6 307.584 
L 414.72 307.584 
L 414.72 41.472 
L 57.6 41.472 
z
" style="fill: #ffffff"/>
   </g>
   <g id="matplotlib.axis_1">
    <g id="xtick_1">
     <g id="line2d_1">
      <defs>
       <path id="m0cecf016a0" d="M 0 0 
L 0 3.5 
" style="stroke: #000000; stroke-width: 0.8"/>
      </defs>
      <g>
       <use xlink:href="#m0cecf016a0" x="73.832727" y="307.584" style="stroke: #000000; stroke-width: 0.8"/>
      </g>
     </g>
     <g id="text_1">
      <!-- 1 -->
      <g transform="translate(70.651477 322.182437) scale(0.1 -0.1)">
       <defs>
        <path id="DejaVuSans-31" d="M 794 531 
L 1825 531 
L 1825 4091 
L 703 3866 
L 703 4441 
L 1819 4666 
L 2450 4666 
L 2450 531 
L 3481 531 
L 3481 0 
L 794 0 
L 794 531 
z
" transform="scale(0.015625)"/>
       </defs>
       <use xlink:href="#DejaVuSans-31"/>
      </g>
     </g>
    </g>
    <g id="xtick_2">
     <g id="line2d_2">
      <g>
       <use xlink:href="#m0cecf016a0" x="109.664165" y="307.584" style="stroke: #000000; stroke-width: 0.8"/>
      </g>
     </g>
     <g id="text_2">
      <!-- 34 -->
      <g transform="translate(103.301665 322.182437) scale(0.1 -0.1)">
       <defs>
        <path id="DejaVuSans-33" d="M 2597 2516 
Q 3050 2419 3304 2112 
Q 3559 1806 3559 1356 
Q 3559 666 3084 287 
Q 2609 -91 1734 -91 
Q 1441 -91 1130 -33 
Q 819 25 488 141 
L 488 750 
Q 750 597 1062 519 
Q 1375 441 1716 441 
Q 2309 441 2620 675 
Q 2931 909 2931 1356 
Q 2931 1769 2642 2001 
Q 2353 2234 1838 2234 
L 1294 2234 
L 1294 2753 
L 1863 2753 
Q 2328 2753 2575 2939 
Q 2822 3125 2822 3475 
Q 2822 3834 2567 4026 
Q 2313 4219 1838 4219 
Q 1578 4219 1281 4162 
Q 984 4106 628 3988 
L 628 4550 
Q 988 4650 1302 4700 
Q 1616 4750 1894 4750 
Q 2613 4750 3031 4423 
Q 3450 4097 3450 3541 
Q 3450 3153 3228 2886 
Q 3006 2619 2597 2516 
z
" transform="scale(0.015625)"/>
        <path id="DejaVuSans-34" d="M 2419 4116 
L 825 1625 
L 2419 1625 
L 2419 4116 
z
M 2253 4666 
L 3047 4666 
L 3047 1625 
L 3713 1625 
L 3713 1100 
L 3047 1100 
L 3047 0 
L 2419 0 
L 2419 1100 
L 313 1100 
L 313 1709 
L 2253 4666 
z
" transform="scale(0.015625)"/>
       </defs>
       <use xlink:href="#DejaVuSans-33"/>
       <use xlink:href="#DejaVuSans-34" x="63.623047"/>
      </g>
     </g>
    </g>
    <g id="xtick_3">
     <g id="line2d_3">
      <g>
       <use xlink:href="#m0cecf016a0" x="145.495604" y="307.584" style="stroke: #000000; stroke-width: 0.8"/>
      </g>
     </g>
     <g id="text_3">
      <!-- 67 -->
      <g transform="translate(139.133104 322.182437) scale(0.1 -0.1)">
       <defs>
        <path id="DejaVuSans-36" d="M 2113 2584 
Q 1688 2584 1439 2293 
Q 1191 2003 1191 1497 
Q 1191 994 1439 701 
Q 1688 409 2113 409 
Q 2538 409 2786 701 
Q 3034 994 3034 1497 
Q 3034 2003 2786 2293 
Q 2538 2584 2113 2584 
z
M 3366 4563 
L 3366 3988 
Q 3128 4100 2886 4159 
Q 2644 4219 2406 4219 
Q 1781 4219 1451 3797 
Q 1122 3375 1075 2522 
Q 1259 2794 1537 2939 
Q 1816 3084 2150 3084 
Q 2853 3084 3261 2657 
Q 3669 2231 3669 1497 
Q 3669 778 3244 343 
Q 2819 -91 2113 -91 
Q 1303 -91 875 529 
Q 447 1150 447 2328 
Q 447 3434 972 4092 
Q 1497 4750 2381 4750 
Q 2619 4750 2861 4703 
Q 3103 4656 3366 4563 
z
" transform="scale(0.015625)"/>
        <path id="DejaVuSans-37" d="M 525 4666 
L 3525 4666 
L 3525 4397 
L 1831 0 
L 1172 0 
L 2766 4134 
L 525 4134 
L 525 4666 
z
" transform="scale(0.015625)"/>
       </defs>
       <use xlink:href="#DejaVuSans-36"/>
       <use xlink:href="#DejaVuSans-37" x="63.623047"/>
      </g>
     </g>
    </g>
    <g id="xtick_4">
     <g id="line2d_4">
      <g>
       <use xlink:href="#m0cecf016a0" x="181.327042" y="307.584" style="stroke: #000000; stroke-width: 0.8"/>
      </g>
     </g>
     <g id="text_4">
      <!-- 100 -->
      <g transform="translate(171.783292 322.182437) scale(0.1 -0.1)">
       <defs>
        <path id="DejaVuSans-30" d="M 2034 4250 
Q 1547 4250 1301 3770 
Q 1056 3291 1056 2328 
Q 1056 1369 1301 889 
Q 1547 409 2034 409 
Q 2525 409 2770 889 
Q 3016 1369 3016 2328 
Q 3016 3291 2770 3770 
Q 2525 4250 2034 4250 
z
M 2034 4750 
Q 2819 4750 3233 4129 
Q 3647 3509 3647 2328 
Q 3647 1150 3233 529 
Q 2819 -91 2034 -91 
Q 1250 -91 836 529 
Q 422 1150 422 2328 
Q 422 3509 836 4129 
Q 1250 4750 2034 4750 
z
" transform="scale(0.015625)"/>
       </defs>
       <use xlink:href="#DejaVuSans-31"/>
       <use xlink:href="#DejaVuSans-30" x="63.623047"/>
       <use xlink:href="#DejaVuSans-30" x="127.246094"/>
      </g>
     </g>
    </g>
    <g id="xtick_5">
     <g id="line2d_5">
      <g>
       <use xlink:href="#m0cecf016a0" x="217.15848" y="307.584" style="stroke: #000000; stroke-width: 0.8"/>
      </g>
     </g>
     <g id="text_5">
      <!-- 133 -->
      <g transform="translate(207.61473 322.182437) scale(0.1 -0.1)">
       <use xlink:href="#DejaVuSans-31"/>
       <use xlink:href="#DejaVuSans-33" x="63.623047"/>
       <use xlink:href="#DejaVuSans-33" x="127.246094"/>
      </g>
     </g>
    </g>
    <g id="xtick_6">
     <g id="line2d_6">
      <g>
       <use xlink:href="#m0cecf016a0" x="254.075719" y="307.584" style="stroke: #000000; stroke-width: 0.8"/>
      </g>
     </g>
     <g id="text_6">
      <!-- 167 -->
      <g transform="translate(244.531969 322.182437) scale(0.1 -0.1)">
       <use xlink:href="#DejaVuSans-31"/>
       <use xlink:href="#DejaVuSans-36" x="63.623047"/>
       <use xlink:href="#DejaVuSans-37" x="127.246094"/>
      </g>
     </g>
    </g>
    <g id="xtick_7">
     <g id="line2d_7">
      <g>
       <use xlink:href="#m0cecf016a0" x="289.907157" y="307.584" style="stroke: #000000; stroke-width: 0.8"/>
      </g>
     </g>
     <g id="text_7">
      <!-- 200 -->
      <g transform="translate(280.363407 322.182437) scale(0.1 -0.1)">
       <defs>
        <path id="DejaVuSans-32" d="M 1228 531 
L 3431 531 
L 3431 0 
L 469 0 
L 469 531 
Q 828 903 1448 1529 
Q 2069 2156 2228 2338 
Q 2531 2678 2651 2914 
Q 2772 3150 2772 3378 
Q 2772 3750 2511 3984 
Q 2250 4219 1831 4219 
Q 1534 4219 1204 4116 
Q 875 4013 500 3803 
L 500 4441 
Q 881 4594 1212 4672 
Q 1544 4750 1819 4750 
Q 2544 4750 2975 4387 
Q 3406 4025 3406 3419 
Q 3406 3131 3298 2873 
Q 3191 2616 2906 2266 
Q 2828 2175 2409 1742 
Q 1991 1309 1228 531 
z
" transform="scale(0.015625)"/>
       </defs>
       <use xlink:href="#DejaVuSans-32"/>
       <use xlink:href="#DejaVuSans-30" x="63.623047"/>
       <use xlink:href="#DejaVuSans-30" x="127.246094"/>
      </g>
     </g>
    </g>
    <g id="xtick_8">
     <g id="line2d_8">
      <g>
       <use xlink:href="#m0cecf016a0" x="325.738595" y="307.584" style="stroke: #000000; stroke-width: 0.8"/>
      </g>
     </g>
     <g id="text_8">
      <!-- 233 -->
      <g transform="translate(316.194845 322.182437) scale(0.1 -0.1)">
       <use xlink:href="#DejaVuSans-32"/>
       <use xlink:href="#DejaVuSans-33" x="63.623047"/>
       <use xlink:href="#DejaVuSans-33" x="127.246094"/>
      </g>
     </g>
    </g>
    <g id="xtick_9">
     <g id="line2d_9">
      <g>
       <use xlink:href="#m0cecf016a0" x="361.570033" y="307.584" style="stroke: #000000; stroke-width: 0.8"/>
      </g>
     </g>
     <g id="text_9">
      <!-- 266 -->
      <g transform="translate(352.026283 322.182437) scale(0.1 -0.1)">
       <use xlink:href="#DejaVuSans-32"/>
       <use xlink:href="#DejaVuSans-36" x="63.623047"/>
       <use xlink:href="#DejaVuSans-36" x="127.246094"/>
      </g>
     </g>
    </g>
    <g id="xtick_10">
     <g id="line2d_10">
      <g>
       <use xlink:href="#m0cecf016a0" x="398.487273" y="307.584" style="stroke: #000000; stroke-width: 0.8"/>
      </g>
     </g>
     <g id="text_10">
      <!-- 300 -->
      <g transform="translate(388.943523 322.182437) scale(0.1 -0.1)">
       <use xlink:href="#DejaVuSans-33"/>
       <use xlink:href="#DejaVuSans-30" x="63.623047"/>
       <use xlink:href="#DejaVuSans-30" x="127.246094"/>
      </g>
     </g>
    </g>
    <g id="text_11">
     <!-- Epochs -->
     <g transform="translate(218.244375 335.860562) scale(0.1 -0.1)">
      <defs>
       <path id="DejaVuSans-45" d="M 628 4666 
L 3578 4666 
L 3578 4134 
L 1259 4134 
L 1259 2753 
L 3481 2753 
L 3481 2222 
L 1259 2222 
L 1259 531 
L 3634 531 
L 3634 0 
L 628 0 
L 628 4666 
z
" transform="scale(0.015625)"/>
       <path id="DejaVuSans-70" d="M 1159 525 
L 1159 -1331 
L 581 -1331 
L 581 3500 
L 1159 3500 
L 1159 2969 
Q 1341 3281 1617 3432 
Q 1894 3584 2278 3584 
Q 2916 3584 3314 3078 
Q 3713 2572 3713 1747 
Q 3713 922 3314 415 
Q 2916 -91 2278 -91 
Q 1894 -91 1617 61 
Q 1341 213 1159 525 
z
M 3116 1747 
Q 3116 2381 2855 2742 
Q 2594 3103 2138 3103 
Q 1681 3103 1420 2742 
Q 1159 2381 1159 1747 
Q 1159 1113 1420 752 
Q 1681 391 2138 391 
Q 2594 391 2855 752 
Q 3116 1113 3116 1747 
z
" transform="scale(0.015625)"/>
       <path id="DejaVuSans-6f" d="M 1959 3097 
Q 1497 3097 1228 2736 
Q 959 2375 959 1747 
Q 959 1119 1226 758 
Q 1494 397 1959 397 
Q 2419 397 2687 759 
Q 2956 1122 2956 1747 
Q 2956 2369 2687 2733 
Q 2419 3097 1959 3097 
z
M 1959 3584 
Q 2709 3584 3137 3096 
Q 3566 2609 3566 1747 
Q 3566 888 3137 398 
Q 2709 -91 1959 -91 
Q 1206 -91 779 398 
Q 353 888 353 1747 
Q 353 2609 779 3096 
Q 1206 3584 1959 3584 
z
" transform="scale(0.015625)"/>
       <path id="DejaVuSans-63" d="M 3122 3366 
L 3122 2828 
Q 2878 2963 2633 3030 
Q 2388 3097 2138 3097 
Q 1578 3097 1268 2742 
Q 959 2388 959 1747 
Q 959 1106 1268 751 
Q 1578 397 2138 397 
Q 2388 397 2633 464 
Q 2878 531 3122 666 
L 3122 134 
Q 2881 22 2623 -34 
Q 2366 -91 2075 -91 
Q 1284 -91 818 406 
Q 353 903 353 1747 
Q 353 2603 823 3093 
Q 1294 3584 2113 3584 
Q 2378 3584 2631 3529 
Q 2884 3475 3122 3366 
z
" transform="scale(0.015625)"/>
       <path id="DejaVuSans-68" d="M 3513 2113 
L 3513 0 
L 2938 0 
L 2938 2094 
Q 2938 2591 2744 2837 
Q 2550 3084 2163 3084 
Q 1697 3084 1428 2787 
Q 1159 2491 1159 1978 
L 1159 0 
L 581 0 
L 581 4863 
L 1159 4863 
L 1159 2956 
Q 1366 3272 1645 3428 
Q 1925 3584 2291 3584 
Q 2894 3584 3203 3211 
Q 3513 2838 3513 2113 
z
" transform="scale(0.015625)"/>
       <path id="DejaVuSans-73" d="M 2834 3397 
L 2834 2853 
Q 2591 2978 2328 3040 
Q 2066 3103 1784 3103 
Q 1356 3103 1142 2972 
Q 928 2841 928 2578 
Q 928 2378 1081 2264 
Q 1234 2150 1697 2047 
L 1894 2003 
Q 2506 1872 2764 1633 
Q 3022 1394 3022 966 
Q 3022 478 2636 193 
Q 2250 -91 1575 -91 
Q 1294 -91 989 -36 
Q 684 19 347 128 
L 347 722 
Q 666 556 975 473 
Q 1284 391 1588 391 
Q 1994 391 2212 530 
Q 2431 669 2431 922 
Q 2431 1156 2273 1281 
Q 2116 1406 1581 1522 
L 1381 1569 
Q 847 1681 609 1914 
Q 372 2147 372 2553 
Q 372 3047 722 3315 
Q 1072 3584 1716 3584 
Q 2034 3584 2315 3537 
Q 2597 3491 2834 3397 
z
" transform="scale(0.015625)"/>
      </defs>
      <use xlink:href="#DejaVuSans-45"/>
      <use xlink:href="#DejaVuSans-70" x="63.183594"/>
      <use xlink:href="#DejaVuSans-6f" x="126.660156"/>
      <use xlink:href="#DejaVuSans-63" x="187.841797"/>
      <use xlink:href="#DejaVuSans-68" x="242.822266"/>
      <use xlink:href="#DejaVuSans-73" x="306.201172"/>
     </g>
    </g>
   </g>
   <g id="matplotlib.axis_2">
    <g id="ytick_1">
     <g id="line2d_11">
      <defs>
       <path id="m9fc31cb151" d="M 0 0 
L -3.5 0 
" style="stroke: #000000; stroke-width: 0.8"/>
      </defs>
      <g>
       <use xlink:href="#m9fc31cb151" x="57.6" y="270.074494" style="stroke: #000000; stroke-width: 0.8"/>
      </g>
     </g>
     <g id="text_12">
      <!-- 20 -->
      <g transform="translate(37.875 273.873713) scale(0.1 -0.1)">
       <use xlink:href="#DejaVuSans-32"/>
       <use xlink:href="#DejaVuSans-30" x="63.623047"/>
      </g>
     </g>
    </g>
    <g id="ytick_2">
     <g id="line2d_12">
      <g>
       <use xlink:href="#m9fc31cb151" x="57.6" y="213.881004" style="stroke: #000000; stroke-width: 0.8"/>
      </g>
     </g>
     <g id="text_13">
      <!-- 40 -->
      <g transform="translate(37.875 217.680222) scale(0.1 -0.1)">
       <use xlink:href="#DejaVuSans-34"/>
       <use xlink:href="#DejaVuSans-30" x="63.623047"/>
      </g>
     </g>
    </g>
    <g id="ytick_3">
     <g id="line2d_13">
      <g>
       <use xlink:href="#m9fc31cb151" x="57.6" y="157.687513" style="stroke: #000000; stroke-width: 0.8"/>
      </g>
     </g>
     <g id="text_14">
      <!-- 60 -->
      <g transform="translate(37.875 161.486732) scale(0.1 -0.1)">
       <use xlink:href="#DejaVuSans-36"/>
       <use xlink:href="#DejaVuSans-30" x="63.623047"/>
      </g>
     </g>
    </g>
    <g id="ytick_4">
     <g id="line2d_14">
      <g>
       <use xlink:href="#m9fc31cb151" x="57.6" y="101.494023" style="stroke: #000000; stroke-width: 0.8"/>
      </g>
     </g>
     <g id="text_15">
      <!-- 80 -->
      <g transform="translate(37.875 105.293242) scale(0.1 -0.1)">
       <defs>
        <path id="DejaVuSans-38" d="M 2034 2216 
Q 1584 2216 1326 1975 
Q 1069 1734 1069 1313 
Q 1069 891 1326 650 
Q 1584 409 2034 409 
Q 2484 409 2743 651 
Q 3003 894 3003 1313 
Q 3003 1734 2745 1975 
Q 2488 2216 2034 2216 
z
M 1403 2484 
Q 997 2584 770 2862 
Q 544 3141 544 3541 
Q 544 4100 942 4425 
Q 1341 4750 2034 4750 
Q 2731 4750 3128 4425 
Q 3525 4100 3525 3541 
Q 3525 3141 3298 2862 
Q 3072 2584 2669 2484 
Q 3125 2378 3379 2068 
Q 3634 1759 3634 1313 
Q 3634 634 3220 271 
Q 2806 -91 2034 -91 
Q 1263 -91 848 271 
Q 434 634 434 1313 
Q 434 1759 690 2068 
Q 947 2378 1403 2484 
z
M 1172 3481 
Q 1172 3119 1398 2916 
Q 1625 2713 2034 2713 
Q 2441 2713 2670 2916 
Q 2900 3119 2900 3481 
Q 2900 3844 2670 4047 
Q 2441 4250 2034 4250 
Q 1625 4250 1398 4047 
Q 1172 3844 1172 3481 
z
" transform="scale(0.015625)"/>
       </defs>
       <use xlink:href="#DejaVuSans-38"/>
       <use xlink:href="#DejaVuSans-30" x="63.623047"/>
      </g>
     </g>
    </g>
    <g id="ytick_5">
     <g id="line2d_15">
      <g>
       <use xlink:href="#m9fc31cb151" x="57.6" y="45.300533" style="stroke: #000000; stroke-width: 0.8"/>
      </g>
     </g>
     <g id="text_16">
      <!-- 100 -->
      <g transform="translate(31.5125 49.099751) scale(0.1 -0.1)">
       <use xlink:href="#DejaVuSans-31"/>
       <use xlink:href="#DejaVuSans-30" x="63.623047"/>
       <use xlink:href="#DejaVuSans-30" x="127.246094"/>
      </g>
     </g>
    </g>
    <g id="text_17">
     <!-- Accuracy -->
     <g transform="translate(25.432812 197.356125) rotate(-90) scale(0.1 -0.1)">
      <defs>
       <path id="DejaVuSans-41" d="M 2188 4044 
L 1331 1722 
L 3047 1722 
L 2188 4044 
z
M 1831 4666 
L 2547 4666 
L 4325 0 
L 3669 0 
L 3244 1197 
L 1141 1197 
L 716 0 
L 50 0 
L 1831 4666 
z
" transform="scale(0.015625)"/>
       <path id="DejaVuSans-75" d="M 544 1381 
L 544 3500 
L 1119 3500 
L 1119 1403 
Q 1119 906 1312 657 
Q 1506 409 1894 409 
Q 2359 409 2629 706 
Q 2900 1003 2900 1516 
L 2900 3500 
L 3475 3500 
L 3475 0 
L 2900 0 
L 2900 538 
Q 2691 219 2414 64 
Q 2138 -91 1772 -91 
Q 1169 -91 856 284 
Q 544 659 544 1381 
z
M 1991 3584 
L 1991 3584 
z
" transform="scale(0.015625)"/>
       <path id="DejaVuSans-72" d="M 2631 2963 
Q 2534 3019 2420 3045 
Q 2306 3072 2169 3072 
Q 1681 3072 1420 2755 
Q 1159 2438 1159 1844 
L 1159 0 
L 581 0 
L 581 3500 
L 1159 3500 
L 1159 2956 
Q 1341 3275 1631 3429 
Q 1922 3584 2338 3584 
Q 2397 3584 2469 3576 
Q 2541 3569 2628 3553 
L 2631 2963 
z
" transform="scale(0.015625)"/>
       <path id="DejaVuSans-61" d="M 2194 1759 
Q 1497 1759 1228 1600 
Q 959 1441 959 1056 
Q 959 750 1161 570 
Q 1363 391 1709 391 
Q 2188 391 2477 730 
Q 2766 1069 2766 1631 
L 2766 1759 
L 2194 1759 
z
M 3341 1997 
L 3341 0 
L 2766 0 
L 2766 531 
Q 2569 213 2275 61 
Q 1981 -91 1556 -91 
Q 1019 -91 701 211 
Q 384 513 384 1019 
Q 384 1609 779 1909 
Q 1175 2209 1959 2209 
L 2766 2209 
L 2766 2266 
Q 2766 2663 2505 2880 
Q 2244 3097 1772 3097 
Q 1472 3097 1187 3025 
Q 903 2953 641 2809 
L 641 3341 
Q 956 3463 1253 3523 
Q 1550 3584 1831 3584 
Q 2591 3584 2966 3190 
Q 3341 2797 3341 1997 
z
" transform="scale(0.015625)"/>
       <path id="DejaVuSans-79" d="M 2059 -325 
Q 1816 -950 1584 -1140 
Q 1353 -1331 966 -1331 
L 506 -1331 
L 506 -850 
L 844 -850 
Q 1081 -850 1212 -737 
Q 1344 -625 1503 -206 
L 1606 56 
L 191 3500 
L 800 3500 
L 1894 763 
L 2988 3500 
L 3597 3500 
L 2059 -325 
z
" transform="scale(0.015625)"/>
      </defs>
      <use xlink:href="#DejaVuSans-41"/>
      <use xlink:href="#DejaVuSans-63" x="66.658203"/>
      <use xlink:href="#DejaVuSans-63" x="121.638672"/>
      <use xlink:href="#DejaVuSans-75" x="176.619141"/>
      <use xlink:href="#DejaVuSans-72" x="239.998047"/>
      <use xlink:href="#DejaVuSans-61" x="281.111328"/>
      <use xlink:href="#DejaVuSans-63" x="342.390625"/>
      <use xlink:href="#DejaVuSans-79" x="397.371094"/>
     </g>
    </g>
   </g>
   <g id="line2d_16">
    <path d="M 73.832727 295.488 
L 74.918528 251.902924 
L 76.00433 215.356083 
L 77.090131 185.819379 
L 78.175932 165.133151 
L 79.261733 150.003054 
L 80.347534 140.998047 
L 82.519137 125.874974 
L 83.604938 119.581303 
L 84.690739 114.776759 
L 85.77654 111.306811 
L 86.862341 107.352194 
L 90.119745 97.026641 
L 91.205546 95.73419 
L 92.291347 94.146724 
L 94.462949 92.102686 
L 95.54875 114.832953 
L 96.634552 115.563468 
L 97.720353 113.43514 
L 98.806154 110.709755 
L 99.891955 109.016927 
L 100.977756 105.849019 
L 102.063557 104.32477 
L 104.23516 99.57642 
L 105.320961 99.295453 
L 106.406762 96.598165 
L 107.492563 95.642876 
L 108.578364 94.378522 
L 109.664165 93.809563 
L 112.921569 88.190214 
L 114.00737 87.129562 
L 115.093171 85.626386 
L 116.178972 84.86075 
L 117.264773 84.783484 
L 118.350575 82.943147 
L 119.436376 81.355681 
L 121.607978 78.749708 
L 122.693779 77.962999 
L 123.77958 76.712694 
L 125.951183 74.949623 
L 128.122785 72.434964 
L 130.294387 71.261925 
L 131.380189 70.461168 
L 132.46599 69.990548 
L 133.551791 69.871136 
L 134.637592 69.533975 
L 135.723393 68.410106 
L 136.809194 68.466299 
L 137.894995 68.28367 
L 138.980797 87.958416 
L 140.066598 90.171035 
L 141.152399 90.908574 
L 142.2382 89.314084 
L 143.324001 89.278963 
L 144.409802 89.798753 
L 145.495604 89.285987 
L 146.581405 87.593158 
L 147.667206 87.263022 
L 148.753007 87.150635 
L 149.838808 86.50441 
L 150.924609 86.392023 
L 152.01041 85.036355 
L 153.096212 85.675556 
L 154.182013 84.797532 
L 155.267814 84.460371 
L 156.353615 82.922075 
L 157.439416 82.753494 
L 158.525217 82.374188 
L 159.611019 81.70689 
L 160.69682 81.271391 
L 161.782621 81.039593 
L 162.868422 80.611117 
L 163.954223 79.20628 
L 166.125825 79.452126 
L 167.211627 78.721611 
L 170.46903 76.860202 
L 171.554831 76.192904 
L 172.640632 75.687163 
L 173.726434 74.963671 
L 174.812235 74.774018 
L 176.983837 73.397278 
L 178.069638 73.137383 
L 179.155439 72.484134 
L 180.24124 70.91774 
L 181.327042 71.016079 
L 182.412843 71.746594 
L 183.498644 70.468192 
L 184.584445 70.573555 
L 185.670246 69.990548 
L 186.756047 68.698097 
L 187.841849 68.206404 
L 188.92765 68.009727 
L 191.099252 66.38714 
L 192.185053 66.436309 
L 194.356656 64.736456 
L 196.528258 64.083207 
L 197.614059 64.069159 
L 200.871462 62.081314 
L 201.957264 62.369305 
L 203.043065 61.814395 
L 204.128866 61.631766 
L 205.214667 60.992565 
L 207.386269 60.002155 
L 208.472071 60.065372 
L 211.729474 58.632438 
L 212.815275 58.463858 
L 213.901076 58.801019 
L 216.072679 58.084552 
L 217.15848 57.79656 
L 218.244281 57.845729 
L 219.330082 57.501544 
L 220.415883 57.592859 
L 221.501684 57.424278 
L 222.587486 57.396182 
L 223.673287 57.979189 
L 224.759088 57.550714 
L 225.844889 75.989203 
L 226.93069 79.150086 
L 228.016491 80.266932 
L 229.102292 80.021086 
L 230.188094 79.992989 
L 231.273895 79.339739 
L 232.359696 79.824408 
L 233.445497 79.901674 
L 234.531298 79.150086 
L 235.617099 79.501296 
L 236.702901 78.826974 
L 237.788702 78.890192 
L 238.874503 78.6022 
L 239.960304 78.489813 
L 241.046105 77.569645 
L 242.131906 77.653935 
L 243.217708 77.288677 
L 244.303509 78.187773 
L 245.38931 76.944492 
L 246.475111 76.045396 
L 247.560912 77.148193 
L 248.646713 75.88384 
L 249.732514 76.558162 
L 250.818316 76.18588 
L 251.904117 75.525606 
L 252.989918 75.132252 
L 254.075719 75.925985 
L 255.16152 75.342977 
L 256.247321 74.54222 
L 257.333123 74.766994 
L 258.418924 74.134817 
L 259.504725 73.748487 
L 260.590526 74.15589 
L 261.676327 73.748487 
L 262.762128 74.219108 
L 263.847929 73.488592 
L 264.933731 73.72039 
L 266.019532 72.673787 
L 267.105333 72.708908 
L 268.191134 72.322577 
L 271.448538 72.540327 
L 275.791742 71.458602 
L 277.963344 70.461168 
L 279.049146 71.367288 
L 280.134947 71.00203 
L 281.220748 69.84304 
L 282.306549 69.541 
L 283.39235 69.976499 
L 284.478151 70.039717 
L 285.563953 69.576121 
L 286.649754 68.93692 
L 287.735555 69.477782 
L 288.821356 68.389033 
L 289.907157 68.824533 
L 290.992958 69.014186 
L 292.07876 67.904364 
L 294.250362 68.044848 
L 295.336163 67.370526 
L 296.421964 67.405647 
L 298.593566 67.089559 
L 299.679368 66.197487 
L 300.765169 67.068486 
L 301.85097 66.071052 
L 302.936771 66.738349 
L 304.022572 66.042955 
L 305.108373 65.059569 
L 306.194175 65.410778 
L 307.279976 64.947182 
L 309.451578 64.905037 
L 310.537379 64.476561 
L 311.62318 64.722408 
L 313.794783 63.45103 
L 314.880584 63.58449 
L 317.052186 63.465078 
L 319.223788 62.706466 
L 320.30959 62.727539 
L 321.395391 61.877612 
L 322.481192 62.109411 
L 323.566993 61.097928 
L 324.652794 60.543017 
L 325.738595 60.999589 
L 326.824396 60.29717 
L 327.910198 60.43063 
L 328.995999 60.964468 
L 330.0818 59.419147 
L 331.167601 60.051324 
L 332.253402 59.545583 
L 333.339203 59.735236 
L 335.510806 59.018769 
L 336.596607 58.470882 
L 337.682408 58.583269 
L 338.768209 59.060914 
L 339.85401 58.421713 
L 340.939811 57.487496 
L 342.025613 58.007286 
L 346.368817 57.101166 
L 347.454618 56.412795 
L 348.54042 56.897464 
L 349.626221 56.28636 
L 350.712022 56.244215 
L 351.797823 56.377675 
L 352.883624 56.012417 
L 353.969425 55.928127 
L 356.141028 54.832354 
L 357.226829 54.867474 
L 358.31263 55.443458 
L 360.484232 54.565434 
L 361.570033 54.846402 
L 363.741636 54.094814 
L 364.827437 54.024572 
L 365.913238 54.158032 
L 366.999039 53.568 
L 369.170642 54.059693 
L 370.256443 54.811281 
L 371.342244 55.239756 
L 372.428045 55.281901 
L 373.513846 56.110755 
L 374.599647 55.787643 
L 375.685448 55.752522 
L 376.77125 56.012417 
L 377.857051 56.089683 
L 378.942852 56.377675 
L 380.028653 56.426844 
L 381.114454 56.363626 
L 382.200255 56.188021 
L 383.286057 56.279336 
L 384.371858 56.026465 
L 385.457659 55.90003 
L 386.54346 56.152901 
L 388.715062 55.696328 
L 389.800863 56.026465 
L 390.886665 55.829788 
L 391.972466 55.801691 
L 393.058267 56.082659 
L 394.144068 55.878957 
L 395.229869 56.124804 
L 396.31567 55.90003 
L 397.401472 56.110755 
L 398.487273 55.907054 
L 398.487273 55.907054 
" clip-path="url(#paeacb15912)" style="fill: none; stroke: #1f77b4; stroke-width: 1.5; stroke-linecap: square"/>
   </g>
   <g id="line2d_17">
    <path d="M 73.832727 287.101122 
L 74.918528 254.003156 
L 76.00433 230.57047 
L 77.090131 216.859259 
L 78.175932 208.177364 
L 79.261733 192.892735 
L 80.347534 185.419001 
L 81.433335 181.176392 
L 82.519137 175.58514 
L 83.604938 168.870018 
L 85.77654 160.609575 
L 86.862341 155.524064 
L 87.948142 155.889322 
L 89.033943 149.764231 
L 90.119745 147.151234 
L 92.291347 143.639141 
L 93.377148 143.273883 
L 94.462949 142.543368 
L 95.54875 170.471532 
L 96.634552 165.891763 
L 97.720353 162.632541 
L 98.806154 164.205958 
L 99.891955 155.692644 
L 100.977756 156.114096 
L 102.063557 154.737355 
L 103.149358 151.281455 
L 104.23516 150.972391 
L 105.320961 151.365746 
L 106.406762 145.409236 
L 107.492563 149.904715 
L 108.578364 145.184462 
L 109.664165 142.627658 
L 110.749967 143.30198 
L 111.835768 141.110434 
L 112.921569 140.548499 
L 114.00737 135.238214 
L 115.093171 135.631568 
L 116.178972 133.018571 
L 117.264773 133.046668 
L 118.350575 133.215248 
L 120.522177 127.595899 
L 121.607978 126.977771 
L 122.693779 126.612513 
L 123.77958 123.240904 
L 124.865382 122.650872 
L 125.951183 122.650872 
L 127.036984 122.032744 
L 128.122785 120.150262 
L 129.208586 120.656003 
L 130.294387 120.712197 
L 131.380189 118.801618 
L 132.46599 118.492554 
L 133.551791 118.604941 
L 134.637592 117.930619 
L 135.723393 118.35207 
L 136.809194 117.172007 
L 137.894995 117.930619 
L 138.980797 146.280235 
L 140.066598 142.824335 
L 141.152399 140.829466 
L 142.2382 140.042757 
L 143.324001 141.026143 
L 144.409802 140.80137 
L 145.495604 138.104082 
L 146.581405 138.413146 
L 147.667206 146.252138 
L 148.753007 138.778404 
L 149.838808 135.828246 
L 150.924609 134.395312 
L 152.01041 135.462988 
L 153.096212 135.09773 
L 154.182013 126.078675 
L 155.267814 135.18202 
L 156.353615 133.440022 
L 157.439416 133.102861 
L 158.525217 129.675058 
L 159.611019 130.658445 
L 160.69682 130.236993 
L 161.782621 126.247256 
L 162.868422 130.883218 
L 163.954223 127.286835 
L 166.125825 128.88835 
L 167.211627 127.033964 
L 168.297428 124.730031 
L 169.383229 120.262649 
L 170.46903 122.763259 
L 171.554831 121.246035 
L 172.640632 120.796487 
L 173.726434 121.89226 
L 174.812235 121.105551 
L 175.898036 121.386519 
L 176.983837 121.920357 
L 178.069638 118.914005 
L 179.155439 120.936971 
L 180.24124 118.155393 
L 181.327042 120.178359 
L 182.412843 117.003426 
L 183.498644 117.200104 
L 184.584445 117.087717 
L 185.670246 114.165655 
L 186.756047 112.788915 
L 187.841849 115.345718 
L 188.92765 115.93575 
L 190.013451 112.114593 
L 192.185053 114.249945 
L 193.270854 112.142689 
L 194.356656 111.327884 
L 195.442457 111.665045 
L 196.528258 110.569272 
L 197.614059 109.698273 
L 198.69986 109.866853 
L 199.785661 109.361112 
L 200.871462 108.265339 
L 201.957264 108.714887 
L 203.043065 106.551437 
L 204.128866 105.06231 
L 205.214667 106.663824 
L 206.300468 105.1466 
L 207.386269 105.680438 
L 208.472071 106.860501 
L 209.557872 105.624245 
L 210.643673 105.539954 
L 211.729474 105.596148 
L 212.815275 105.006116 
L 213.901076 104.640859 
L 214.986877 103.685569 
L 216.072679 103.910343 
L 218.244281 104.781342 
L 219.330082 104.387988 
L 220.415883 104.275601 
L 221.501684 103.629376 
L 223.673287 103.348408 
L 224.759088 104.472278 
L 225.844889 132.147572 
L 226.93069 130.658445 
L 228.016491 129.815542 
L 229.102292 125.404353 
L 230.188094 132.59712 
L 231.273895 128.494995 
L 232.359696 128.719769 
L 233.445497 124.617644 
L 234.531298 126.331546 
L 235.617099 127.623996 
L 236.702901 129.646962 
L 237.788702 127.146351 
L 238.874503 128.775963 
L 239.960304 126.668707 
L 241.046105 128.916446 
L 242.131906 123.493775 
L 243.217708 125.291966 
L 244.303509 121.442712 
L 245.38931 122.369905 
L 246.475111 124.842418 
L 247.560912 126.106772 
L 248.646713 123.325194 
L 249.732514 124.364774 
L 250.818316 125.713417 
L 251.904117 125.095289 
L 252.989918 119.981681 
L 254.075719 120.6841 
L 255.16152 123.240904 
L 256.247321 123.072323 
L 257.333123 127.511609 
L 258.418924 121.133648 
L 259.504725 119.785004 
L 260.590526 121.498906 
L 261.676327 120.85268 
L 262.762128 118.35207 
L 263.847929 121.583196 
L 264.933731 121.611293 
L 266.019532 122.032744 
L 267.105333 119.419746 
L 268.191134 117.930619 
L 269.276935 119.953585 
L 270.362736 118.829715 
L 271.448538 118.801618 
L 272.534339 119.785004 
L 273.62014 115.823363 
L 274.705941 122.173227 
L 275.791742 118.014909 
L 276.877543 114.474719 
L 277.963344 118.380167 
L 280.134947 116.553878 
L 281.220748 118.295877 
L 282.306549 118.380167 
L 283.39235 117.509168 
L 284.478151 115.261428 
L 285.563953 117.14391 
L 286.649754 120.094068 
L 287.735555 113.51943 
L 288.821356 113.631817 
L 289.907157 115.092848 
L 290.992958 112.423657 
L 292.07876 113.997075 
L 293.164561 113.51943 
L 294.250362 112.620334 
L 295.336163 112.957495 
L 296.421964 116.048137 
L 297.507765 113.575623 
L 298.593566 112.845108 
L 299.679368 112.929398 
L 300.765169 113.912784 
L 302.936771 112.536044 
L 304.022572 111.1874 
L 305.108373 114.334236 
L 306.194175 112.058399 
L 307.279976 111.355981 
L 308.365777 111.805529 
L 309.451578 112.760818 
L 310.537379 109.164434 
L 311.62318 110.260208 
L 312.708981 109.333015 
L 313.794783 112.31127 
L 314.880584 111.27169 
L 315.966385 109.389208 
L 317.052186 109.557789 
L 318.137987 109.080144 
L 319.223788 107.56292 
L 320.30959 107.057179 
L 321.395391 107.225759 
L 322.481192 105.568051 
L 324.652794 109.361112 
L 325.738595 106.43905 
L 326.824396 106.214276 
L 327.910198 105.399471 
L 328.995999 105.483761 
L 330.0818 106.158083 
L 331.167601 107.7315 
L 332.253402 105.736632 
L 333.339203 106.663824 
L 334.425005 105.202793 
L 335.510806 106.663824 
L 336.596607 106.186179 
L 337.682408 101.156862 
L 338.768209 101.465926 
L 339.85401 104.978019 
L 340.939811 103.348408 
L 342.025613 102.421216 
L 343.111414 102.140248 
L 344.197215 103.404602 
L 345.283016 101.943571 
L 346.368817 103.179828 
L 347.454618 103.713666 
L 348.54042 100.31396 
L 351.797823 102.365022 
L 352.883624 102.224538 
L 353.969425 101.662604 
L 355.055227 101.746894 
L 356.141028 100.875895 
L 357.226829 100.370153 
L 358.31263 99.667735 
L 359.398431 99.133896 
L 360.484232 99.808218 
L 361.570033 99.27438 
L 362.655835 98.937219 
L 363.741636 98.375284 
L 364.827437 98.852929 
L 365.913238 97.925736 
L 366.999039 98.290994 
L 368.08484 97.588575 
L 369.170642 99.780122 
L 370.256443 99.049606 
L 371.342244 100.56683 
L 372.428045 101.213056 
L 373.513846 100.791604 
L 374.599647 102.702183 
L 375.685448 101.774991 
L 376.77125 101.831184 
L 377.857051 100.651121 
L 378.942852 101.353539 
L 380.028653 102.81457 
L 381.114454 100.819701 
L 382.200255 100.763508 
L 383.286057 102.449312 
L 384.371858 100.735411 
L 385.457659 101.269249 
L 386.54346 101.52212 
L 387.629261 101.353539 
L 388.715062 103.236021 
L 389.800863 102.280732 
L 390.886665 103.348408 
L 391.972466 101.746894 
L 393.058267 102.505506 
L 394.144068 101.494023 
L 395.229869 101.662604 
L 396.31567 101.494023 
L 397.401472 102.674086 
L 398.487273 101.52212 
L 398.487273 101.52212 
" clip-path="url(#paeacb15912)" style="fill: none; stroke: #ff7f0e; stroke-width: 1.5; stroke-linecap: square"/>
   </g>
   <g id="line2d_18">
    <path d="M 73.832727 293.617629 
L 74.918528 266.567245 
L 76.00433 250.213002 
L 77.090131 247.093294 
L 78.175932 242.404044 
L 79.261733 235.021382 
L 80.347534 224.945308 
L 81.433335 219.287205 
L 82.519137 221.999994 
L 83.604938 215.934973 
L 85.77654 210.393132 
L 86.862341 206.420833 
L 87.948142 208.726704 
L 89.033943 207.389687 
L 90.119745 205.025685 
L 91.205546 198.631253 
L 92.291347 202.68106 
L 93.377148 200.297681 
L 94.462949 199.193188 
L 95.54875 212.466478 
L 96.634552 210.683788 
L 97.720353 212.485855 
L 98.806154 221.825601 
L 99.891955 214.404184 
L 100.977756 206.207686 
L 102.063557 215.431169 
L 103.149358 215.915596 
L 104.23516 213.629102 
L 105.320961 212.427724 
L 106.406762 207.23467 
L 107.492563 211.032575 
L 109.664165 201.654075 
L 110.749967 205.936407 
L 111.835768 201.266534 
L 112.921569 199.270696 
L 114.00737 196.712924 
L 116.178972 205.490734 
L 117.264773 196.383513 
L 118.350575 200.588337 
L 119.436376 193.845118 
L 120.522177 189.853442 
L 121.607978 194.058266 
L 122.693779 191.035443 
L 123.77958 186.055537 
L 124.865382 185.958652 
L 125.951183 188.380785 
L 127.036984 189.582163 
L 128.122785 187.566949 
L 129.208586 188.61331 
L 130.294387 185.745504 
L 131.380189 186.03616 
L 132.46599 186.985637 
L 134.637592 184.602258 
L 135.723393 186.326816 
L 136.809194 184.408487 
L 137.894995 185.435471 
L 138.980797 208.397294 
L 140.066598 212.214576 
L 141.152399 207.89349 
L 142.2382 208.339163 
L 143.324001 211.846412 
L 144.409802 210.354378 
L 145.495604 196.422268 
L 146.581405 202.35165 
L 147.667206 206.052669 
L 148.753007 204.13434 
L 149.838808 206.730866 
L 150.924609 197.429875 
L 152.01041 196.150989 
L 153.096212 204.289356 
L 154.182013 198.747515 
L 155.267814 199.619483 
L 156.353615 203.766175 
L 157.439416 200.56896 
L 158.525217 203.494897 
L 159.611019 202.390404 
L 160.69682 192.294953 
L 161.782621 191.422985 
L 162.868422 197.255481 
L 163.954223 195.220889 
L 165.040024 197.52676 
L 166.125825 202.196633 
L 167.211627 189.679049 
L 168.297428 199.154434 
L 169.383229 187.838227 
L 170.46903 192.798756 
L 171.554831 191.907411 
L 172.640632 192.915019 
L 173.726434 191.422985 
L 174.812235 189.40777 
L 175.898036 188.361408 
L 176.983837 192.353084 
L 178.069638 187.915736 
L 179.155439 185.571111 
L 180.24124 192.023674 
L 181.327042 189.582163 
L 182.412843 188.128883 
L 183.498644 188.458294 
L 184.584445 178.886023 
L 185.670246 187.334424 
L 186.756047 185.222324 
L 187.841849 191.771772 
L 188.92765 188.303277 
L 190.013451 178.789138 
L 191.099252 182.761436 
L 192.185053 187.431309 
L 193.270854 177.78153 
L 194.356656 182.083239 
L 195.442457 177.393989 
L 196.528258 179.602975 
L 197.614059 182.877699 
L 198.69986 176.638284 
L 199.785661 180.261795 
L 200.871462 180.571828 
L 201.957264 176.812677 
L 203.043065 177.393989 
L 204.128866 175.456283 
L 205.214667 179.351073 
L 206.300468 173.69297 
L 208.472071 175.843824 
L 209.557872 175.204381 
L 210.643673 175.456283 
L 211.729474 178.149695 
L 212.815275 177.25835 
L 213.901076 176.037595 
L 214.986877 172.743493 
L 216.072679 176.715792 
L 217.15848 173.499199 
L 218.244281 175.824447 
L 219.330082 175.650053 
L 220.415883 174.564938 
L 221.501684 174.526183 
L 222.587486 174.35179 
L 223.673287 175.572545 
L 224.759088 175.47566 
L 225.844889 209.559918 
L 228.016491 191.267968 
L 229.102292 200.646468 
L 230.188094 198.146826 
L 231.273895 203.611159 
L 232.359696 191.51987 
L 233.445497 195.705316 
L 234.531298 195.220889 
L 235.617099 194.930234 
L 236.702901 191.229214 
L 237.788702 195.627808 
L 238.874503 197.759285 
L 239.960304 193.728855 
L 241.046105 186.016783 
L 242.131906 188.61331 
L 243.217708 192.31433 
L 244.303509 189.872819 
L 245.38931 197.061711 
L 246.475111 203.184863 
L 247.560912 197.236104 
L 248.646713 196.945448 
L 249.732514 192.798756 
L 250.818316 196.40289 
L 251.904117 196.461022 
L 252.989918 191.752395 
L 254.075719 192.779379 
L 255.16152 192.159313 
L 256.247321 184.912291 
L 257.333123 193.147543 
L 258.418924 194.523315 
L 259.504725 193.147543 
L 260.590526 195.74407 
L 261.676327 189.330262 
L 262.762128 183.92406 
L 263.847929 192.411215 
L 264.933731 186.113669 
L 266.019532 198.088695 
L 267.105333 201.692829 
L 268.191134 180.126155 
L 269.276935 189.872819 
L 270.362736 191.481116 
L 271.448538 186.346193 
L 272.534339 190.318492 
L 273.62014 190.047213 
L 274.705941 189.058983 
L 275.791742 190.415377 
L 276.877543 180.68809 
L 277.963344 187.373178 
L 279.049146 189.465901 
L 280.134947 195.821579 
L 281.220748 191.422985 
L 282.306549 188.962097 
L 283.39235 198.359974 
L 284.478151 192.585609 
L 285.563953 190.06659 
L 286.649754 197.894925 
L 287.735555 188.61331 
L 288.821356 183.362125 
L 289.907157 188.012621 
L 290.992958 184.137208 
L 292.07876 188.516425 
L 293.164561 193.670724 
L 294.250362 181.424419 
L 295.336163 188.516425 
L 296.421964 188.342031 
L 297.507765 184.757274 
L 298.593566 187.896359 
L 299.679368 180.281172 
L 300.765169 186.772489 
L 301.85097 189.892196 
L 302.936771 179.990516 
L 304.022572 185.04793 
L 305.108373 185.803636 
L 306.194175 187.644457 
L 307.279976 184.447241 
L 308.365777 190.318492 
L 309.451578 188.438917 
L 310.537379 182.044485 
L 311.62318 184.466618 
L 312.708981 180.300549 
L 313.794783 184.641012 
L 314.880584 182.315764 
L 317.052186 186.016783 
L 318.137987 182.199501 
L 319.223788 180.261795 
L 320.30959 186.443079 
L 321.395391 181.540681 
L 322.481192 181.792583 
L 323.566993 180.164909 
L 324.652794 179.854876 
L 325.738595 180.184287 
L 326.824396 182.897076 
L 327.910198 176.231365 
L 328.995999 178.71163 
L 330.0818 179.951762 
L 331.167601 184.38911 
L 332.253402 183.207109 
L 333.339203 179.913008 
L 334.425005 179.389827 
L 335.510806 178.440351 
L 336.596607 183.982191 
L 337.682408 178.227203 
L 338.768209 176.192611 
L 339.85401 174.584315 
L 340.939811 175.533791 
L 342.025613 176.308873 
L 343.111414 170.98018 
L 344.197215 177.006448 
L 345.283016 177.78153 
L 346.368817 179.079794 
L 347.454618 172.956641 
L 348.54042 177.665268 
L 349.626221 176.13448 
L 350.712022 174.874971 
L 351.797823 174.409921 
L 352.883624 175.088118 
L 353.969425 175.14625 
L 355.055227 175.66943 
L 356.141028 175.359397 
L 357.226829 171.580869 
L 358.31263 174.836216 
L 359.398431 171.154574 
L 360.484232 171.658378 
L 361.570033 176.483267 
L 362.655835 171.077066 
L 363.741636 170.941426 
L 364.827437 169.546278 
L 365.913238 172.045919 
L 366.999039 174.080511 
L 368.08484 171.852148 
L 369.170642 172.200936 
L 370.256443 172.317198 
L 371.342244 173.22792 
L 372.428045 169.643163 
L 373.513846 174.371167 
L 374.599647 176.618906 
L 375.685448 178.324088 
L 376.77125 177.820285 
L 377.857051 174.409921 
L 378.942852 180.087401 
L 380.028653 172.394706 
L 381.114454 179.389827 
L 382.200255 172.704739 
L 383.286057 172.627231 
L 384.371858 171.193328 
L 385.457659 171.890902 
L 386.54346 176.231365 
L 387.629261 179.021663 
L 388.715062 177.955924 
L 389.800863 183.865929 
L 390.886665 175.979463 
L 391.972466 174.526183 
L 393.058267 180.610582 
L 394.144068 177.645891 
L 395.229869 174.21615 
L 396.31567 171.929657 
L 397.401472 176.599529 
L 398.487273 172.76287 
L 398.487273 172.76287 
" clip-path="url(#paeacb15912)" style="fill: none; stroke: #2ca02c; stroke-width: 1.5; stroke-linecap: square"/>
   </g>
   <g id="line2d_19">
    <path d="M 368.08484 96.717576 
L 369.170642 98.712445 
L 370.256443 101.184959 
L 371.342244 97.672866 
L 372.428045 99.414864 
L 373.513846 98.515768 
L 374.599647 100.763508 
L 375.685448 98.290994 
L 376.77125 97.532382 
L 377.857051 98.993413 
L 378.942852 98.459575 
L 380.028653 98.852929 
L 381.114454 98.06622 
L 382.200255 99.695831 
L 383.286057 98.543865 
L 384.371858 99.35867 
L 385.457659 99.246283 
L 386.54346 102.533603 
L 387.629261 100.960185 
L 388.715062 101.241152 
L 389.800863 99.583444 
L 390.886665 102.168345 
L 391.972466 100.56683 
L 394.144068 101.803087 
L 395.229869 104.078924 
L 396.31567 104.163214 
L 397.401472 105.006116 
L 398.487273 105.427567 
L 398.487273 105.427567 
" clip-path="url(#paeacb15912)" style="fill: none; stroke: #d62728; stroke-width: 1.5; stroke-linecap: square"/>
   </g>
   <g id="line2d_20">
    <path d="M 368.08484 173.712347 
L 369.170642 172.879133 
L 370.256443 171.832771 
L 371.342244 173.518576 
L 372.428045 172.704739 
L 373.513846 170.108212 
L 374.599647 174.661823 
L 375.685448 170.592639 
L 376.77125 167.259784 
L 377.857051 170.863918 
L 378.942852 171.697132 
L 380.028653 170.205098 
L 381.114454 171.464607 
L 382.200255 176.13448 
L 383.286057 171.949034 
L 384.371858 172.782247 
L 385.457659 175.185004 
L 386.54346 179.680483 
L 387.629261 172.859756 
L 388.715062 174.739331 
L 389.800863 175.049364 
L 390.886665 176.211988 
L 391.972466 171.096443 
L 393.058267 169.798179 
L 394.144068 172.123427 
L 395.229869 173.092281 
L 396.31567 177.529629 
L 397.401472 180.009893 
L 398.487273 181.676321 
L 398.487273 181.676321 
" clip-path="url(#paeacb15912)" style="fill: none; stroke: #9467bd; stroke-width: 1.5; stroke-linecap: square"/>
   </g>
   <g id="patch_3">
    <path d="M 57.6 307.584 
L 57.6 41.472 
" style="fill: none; stroke: #000000; stroke-width: 0.8; stroke-linejoin: miter; stroke-linecap: square"/>
   </g>
   <g id="patch_4">
    <path d="M 414.72 307.584 
L 414.72 41.472 
" style="fill: none; stroke: #000000; stroke-width: 0.8; stroke-linejoin: miter; stroke-linecap: square"/>
   </g>
   <g id="patch_5">
    <path d="M 57.6 307.584 
L 414.72 307.584 
" style="fill: none; stroke: #000000; stroke-width: 0.8; stroke-linejoin: miter; stroke-linecap: square"/>
   </g>
   <g id="patch_6">
    <path d="M 57.6 41.472 
L 414.72 41.472 
" style="fill: none; stroke: #000000; stroke-width: 0.8; stroke-linejoin: miter; stroke-linecap: square"/>
   </g>
   <g id="text_18">
    <!-- Learning Curves -->
    <g transform="translate(187.37625 35.472) scale(0.12 -0.12)">
     <defs>
      <path id="DejaVuSans-4c" d="M 628 4666 
L 1259 4666 
L 1259 531 
L 3531 531 
L 3531 0 
L 628 0 
L 628 4666 
z
" transform="scale(0.015625)"/>
      <path id="DejaVuSans-65" d="M 3597 1894 
L 3597 1613 
L 953 1613 
Q 991 1019 1311 708 
Q 1631 397 2203 397 
Q 2534 397 2845 478 
Q 3156 559 3463 722 
L 3463 178 
Q 3153 47 2828 -22 
Q 2503 -91 2169 -91 
Q 1331 -91 842 396 
Q 353 884 353 1716 
Q 353 2575 817 3079 
Q 1281 3584 2069 3584 
Q 2775 3584 3186 3129 
Q 3597 2675 3597 1894 
z
M 3022 2063 
Q 3016 2534 2758 2815 
Q 2500 3097 2075 3097 
Q 1594 3097 1305 2825 
Q 1016 2553 972 2059 
L 3022 2063 
z
" transform="scale(0.015625)"/>
      <path id="DejaVuSans-6e" d="M 3513 2113 
L 3513 0 
L 2938 0 
L 2938 2094 
Q 2938 2591 2744 2837 
Q 2550 3084 2163 3084 
Q 1697 3084 1428 2787 
Q 1159 2491 1159 1978 
L 1159 0 
L 581 0 
L 581 3500 
L 1159 3500 
L 1159 2956 
Q 1366 3272 1645 3428 
Q 1925 3584 2291 3584 
Q 2894 3584 3203 3211 
Q 3513 2838 3513 2113 
z
" transform="scale(0.015625)"/>
      <path id="DejaVuSans-69" d="M 603 3500 
L 1178 3500 
L 1178 0 
L 603 0 
L 603 3500 
z
M 603 4863 
L 1178 4863 
L 1178 4134 
L 603 4134 
L 603 4863 
z
" transform="scale(0.015625)"/>
      <path id="DejaVuSans-67" d="M 2906 1791 
Q 2906 2416 2648 2759 
Q 2391 3103 1925 3103 
Q 1463 3103 1205 2759 
Q 947 2416 947 1791 
Q 947 1169 1205 825 
Q 1463 481 1925 481 
Q 2391 481 2648 825 
Q 2906 1169 2906 1791 
z
M 3481 434 
Q 3481 -459 3084 -895 
Q 2688 -1331 1869 -1331 
Q 1566 -1331 1297 -1286 
Q 1028 -1241 775 -1147 
L 775 -588 
Q 1028 -725 1275 -790 
Q 1522 -856 1778 -856 
Q 2344 -856 2625 -561 
Q 2906 -266 2906 331 
L 2906 616 
Q 2728 306 2450 153 
Q 2172 0 1784 0 
Q 1141 0 747 490 
Q 353 981 353 1791 
Q 353 2603 747 3093 
Q 1141 3584 1784 3584 
Q 2172 3584 2450 3431 
Q 2728 3278 2906 2969 
L 2906 3500 
L 3481 3500 
L 3481 434 
z
" transform="scale(0.015625)"/>
      <path id="DejaVuSans-20" transform="scale(0.015625)"/>
      <path id="DejaVuSans-43" d="M 4122 4306 
L 4122 3641 
Q 3803 3938 3442 4084 
Q 3081 4231 2675 4231 
Q 1875 4231 1450 3742 
Q 1025 3253 1025 2328 
Q 1025 1406 1450 917 
Q 1875 428 2675 428 
Q 3081 428 3442 575 
Q 3803 722 4122 1019 
L 4122 359 
Q 3791 134 3420 21 
Q 3050 -91 2638 -91 
Q 1578 -91 968 557 
Q 359 1206 359 2328 
Q 359 3453 968 4101 
Q 1578 4750 2638 4750 
Q 3056 4750 3426 4639 
Q 3797 4528 4122 4306 
z
" transform="scale(0.015625)"/>
      <path id="DejaVuSans-76" d="M 191 3500 
L 800 3500 
L 1894 563 
L 2988 3500 
L 3597 3500 
L 2284 0 
L 1503 0 
L 191 3500 
z
" transform="scale(0.015625)"/>
     </defs>
     <use xlink:href="#DejaVuSans-4c"/>
     <use xlink:href="#DejaVuSans-65" x="53.962891"/>
     <use xlink:href="#DejaVuSans-61" x="115.486328"/>
     <use xlink:href="#DejaVuSans-72" x="176.765625"/>
     <use xlink:href="#DejaVuSans-6e" x="216.128906"/>
     <use xlink:href="#DejaVuSans-69" x="279.507812"/>
     <use xlink:href="#DejaVuSans-6e" x="307.291016"/>
     <use xlink:href="#DejaVuSans-67" x="370.669922"/>
     <use xlink:href="#DejaVuSans-20" x="434.146484"/>
     <use xlink:href="#DejaVuSans-43" x="465.933594"/>
     <use xlink:href="#DejaVuSans-75" x="535.757812"/>
     <use xlink:href="#DejaVuSans-72" x="599.136719"/>
     <use xlink:href="#DejaVuSans-76" x="640.25"/>
     <use xlink:href="#DejaVuSans-65" x="699.429688"/>
     <use xlink:href="#DejaVuSans-73" x="760.953125"/>
    </g>
   </g>
   <g id="legend_1">
    <g id="patch_7">
     <path d="M 214.18875 302.584 
L 407.72 302.584 
Q 409.72 302.584 409.72 300.584 
L 409.72 228.193375 
Q 409.72 226.193375 407.72 226.193375 
L 214.18875 226.193375 
Q 212.18875 226.193375 212.18875 228.193375 
L 212.18875 300.584 
Q 212.18875 302.584 214.18875 302.584 
z
" style="fill: #ffffff; opacity: 0.8; stroke: #cccccc; stroke-linejoin: miter"/>
    </g>
    <g id="line2d_21">
     <path d="M 216.18875 234.291812 
L 226.18875 234.291812 
L 236.18875 234.291812 
" style="fill: none; stroke: #1f77b4; stroke-width: 1.5; stroke-linecap: square"/>
    </g>
    <g id="text_19">
     <!-- Train Accuracy -->
     <g transform="translate(244.18875 237.791812) scale(0.1 -0.1)">
      <defs>
       <path id="DejaVuSans-54" d="M -19 4666 
L 3928 4666 
L 3928 4134 
L 2272 4134 
L 2272 0 
L 1638 0 
L 1638 4134 
L -19 4134 
L -19 4666 
z
" transform="scale(0.015625)"/>
      </defs>
      <use xlink:href="#DejaVuSans-54"/>
      <use xlink:href="#DejaVuSans-72" x="46.333984"/>
      <use xlink:href="#DejaVuSans-61" x="87.447266"/>
      <use xlink:href="#DejaVuSans-69" x="148.726562"/>
      <use xlink:href="#DejaVuSans-6e" x="176.509766"/>
      <use xlink:href="#DejaVuSans-20" x="239.888672"/>
      <use xlink:href="#DejaVuSans-41" x="271.675781"/>
      <use xlink:href="#DejaVuSans-63" x="338.333984"/>
      <use xlink:href="#DejaVuSans-63" x="393.314453"/>
      <use xlink:href="#DejaVuSans-75" x="448.294922"/>
      <use xlink:href="#DejaVuSans-72" x="511.673828"/>
      <use xlink:href="#DejaVuSans-61" x="552.787109"/>
      <use xlink:href="#DejaVuSans-63" x="614.066406"/>
      <use xlink:href="#DejaVuSans-79" x="669.046875"/>
     </g>
    </g>
    <g id="line2d_22">
     <path d="M 216.18875 248.969937 
L 226.18875 248.969937 
L 236.18875 248.969937 
" style="fill: none; stroke: #ff7f0e; stroke-width: 1.5; stroke-linecap: square"/>
    </g>
    <g id="text_20">
     <!-- Validation Accuracy -->
     <g transform="translate(244.18875 252.469937) scale(0.1 -0.1)">
      <defs>
       <path id="DejaVuSans-56" d="M 1831 0 
L 50 4666 
L 709 4666 
L 2188 738 
L 3669 4666 
L 4325 4666 
L 2547 0 
L 1831 0 
z
" transform="scale(0.015625)"/>
       <path id="DejaVuSans-6c" d="M 603 4863 
L 1178 4863 
L 1178 0 
L 603 0 
L 603 4863 
z
" transform="scale(0.015625)"/>
       <path id="DejaVuSans-64" d="M 2906 2969 
L 2906 4863 
L 3481 4863 
L 3481 0 
L 2906 0 
L 2906 525 
Q 2725 213 2448 61 
Q 2172 -91 1784 -91 
Q 1150 -91 751 415 
Q 353 922 353 1747 
Q 353 2572 751 3078 
Q 1150 3584 1784 3584 
Q 2172 3584 2448 3432 
Q 2725 3281 2906 2969 
z
M 947 1747 
Q 947 1113 1208 752 
Q 1469 391 1925 391 
Q 2381 391 2643 752 
Q 2906 1113 2906 1747 
Q 2906 2381 2643 2742 
Q 2381 3103 1925 3103 
Q 1469 3103 1208 2742 
Q 947 2381 947 1747 
z
" transform="scale(0.015625)"/>
       <path id="DejaVuSans-74" d="M 1172 4494 
L 1172 3500 
L 2356 3500 
L 2356 3053 
L 1172 3053 
L 1172 1153 
Q 1172 725 1289 603 
Q 1406 481 1766 481 
L 2356 481 
L 2356 0 
L 1766 0 
Q 1100 0 847 248 
Q 594 497 594 1153 
L 594 3053 
L 172 3053 
L 172 3500 
L 594 3500 
L 594 4494 
L 1172 4494 
z
" transform="scale(0.015625)"/>
      </defs>
      <use xlink:href="#DejaVuSans-56"/>
      <use xlink:href="#DejaVuSans-61" x="60.658203"/>
      <use xlink:href="#DejaVuSans-6c" x="121.9375"/>
      <use xlink:href="#DejaVuSans-69" x="149.720703"/>
      <use xlink:href="#DejaVuSans-64" x="177.503906"/>
      <use xlink:href="#DejaVuSans-61" x="240.980469"/>
      <use xlink:href="#DejaVuSans-74" x="302.259766"/>
      <use xlink:href="#DejaVuSans-69" x="341.46875"/>
      <use xlink:href="#DejaVuSans-6f" x="369.251953"/>
      <use xlink:href="#DejaVuSans-6e" x="430.433594"/>
      <use xlink:href="#DejaVuSans-20" x="493.8125"/>
      <use xlink:href="#DejaVuSans-41" x="525.599609"/>
      <use xlink:href="#DejaVuSans-63" x="592.257812"/>
      <use xlink:href="#DejaVuSans-63" x="647.238281"/>
      <use xlink:href="#DejaVuSans-75" x="702.21875"/>
      <use xlink:href="#DejaVuSans-72" x="765.597656"/>
      <use xlink:href="#DejaVuSans-61" x="806.710938"/>
      <use xlink:href="#DejaVuSans-63" x="867.990234"/>
      <use xlink:href="#DejaVuSans-79" x="922.970703"/>
     </g>
    </g>
    <g id="line2d_23">
     <path d="M 216.18875 263.648062 
L 226.18875 263.648062 
L 236.18875 263.648062 
" style="fill: none; stroke: #2ca02c; stroke-width: 1.5; stroke-linecap: square"/>
    </g>
    <g id="text_21">
     <!-- Robust Validation Accuracy -->
     <g transform="translate(244.18875 267.148062) scale(0.1 -0.1)">
      <defs>
       <path id="DejaVuSans-52" d="M 2841 2188 
Q 3044 2119 3236 1894 
Q 3428 1669 3622 1275 
L 4263 0 
L 3584 0 
L 2988 1197 
Q 2756 1666 2539 1819 
Q 2322 1972 1947 1972 
L 1259 1972 
L 1259 0 
L 628 0 
L 628 4666 
L 2053 4666 
Q 2853 4666 3247 4331 
Q 3641 3997 3641 3322 
Q 3641 2881 3436 2590 
Q 3231 2300 2841 2188 
z
M 1259 4147 
L 1259 2491 
L 2053 2491 
Q 2509 2491 2742 2702 
Q 2975 2913 2975 3322 
Q 2975 3731 2742 3939 
Q 2509 4147 2053 4147 
L 1259 4147 
z
" transform="scale(0.015625)"/>
       <path id="DejaVuSans-62" d="M 3116 1747 
Q 3116 2381 2855 2742 
Q 2594 3103 2138 3103 
Q 1681 3103 1420 2742 
Q 1159 2381 1159 1747 
Q 1159 1113 1420 752 
Q 1681 391 2138 391 
Q 2594 391 2855 752 
Q 3116 1113 3116 1747 
z
M 1159 2969 
Q 1341 3281 1617 3432 
Q 1894 3584 2278 3584 
Q 2916 3584 3314 3078 
Q 3713 2572 3713 1747 
Q 3713 922 3314 415 
Q 2916 -91 2278 -91 
Q 1894 -91 1617 61 
Q 1341 213 1159 525 
L 1159 0 
L 581 0 
L 581 4863 
L 1159 4863 
L 1159 2969 
z
" transform="scale(0.015625)"/>
      </defs>
      <use xlink:href="#DejaVuSans-52"/>
      <use xlink:href="#DejaVuSans-6f" x="64.982422"/>
      <use xlink:href="#DejaVuSans-62" x="126.164062"/>
      <use xlink:href="#DejaVuSans-75" x="189.640625"/>
      <use xlink:href="#DejaVuSans-73" x="253.019531"/>
      <use xlink:href="#DejaVuSans-74" x="305.119141"/>
      <use xlink:href="#DejaVuSans-20" x="344.328125"/>
      <use xlink:href="#DejaVuSans-56" x="376.115234"/>
      <use xlink:href="#DejaVuSans-61" x="436.773438"/>
      <use xlink:href="#DejaVuSans-6c" x="498.052734"/>
      <use xlink:href="#DejaVuSans-69" x="525.835938"/>
      <use xlink:href="#DejaVuSans-64" x="553.619141"/>
      <use xlink:href="#DejaVuSans-61" x="617.095703"/>
      <use xlink:href="#DejaVuSans-74" x="678.375"/>
      <use xlink:href="#DejaVuSans-69" x="717.583984"/>
      <use xlink:href="#DejaVuSans-6f" x="745.367188"/>
      <use xlink:href="#DejaVuSans-6e" x="806.548828"/>
      <use xlink:href="#DejaVuSans-20" x="869.927734"/>
      <use xlink:href="#DejaVuSans-41" x="901.714844"/>
      <use xlink:href="#DejaVuSans-63" x="968.373047"/>
      <use xlink:href="#DejaVuSans-63" x="1023.353516"/>
      <use xlink:href="#DejaVuSans-75" x="1078.333984"/>
      <use xlink:href="#DejaVuSans-72" x="1141.712891"/>
      <use xlink:href="#DejaVuSans-61" x="1182.826172"/>
      <use xlink:href="#DejaVuSans-63" x="1244.105469"/>
      <use xlink:href="#DejaVuSans-79" x="1299.085938"/>
     </g>
    </g>
    <g id="line2d_24">
     <path d="M 216.18875 278.326188 
L 226.18875 278.326188 
L 236.18875 278.326188 
" style="fill: none; stroke: #d62728; stroke-width: 1.5; stroke-linecap: square"/>
    </g>
    <g id="text_22">
     <!-- SWA Validation Accuracy -->
     <g transform="translate(244.18875 281.826188) scale(0.1 -0.1)">
      <defs>
       <path id="DejaVuSans-53" d="M 3425 4513 
L 3425 3897 
Q 3066 4069 2747 4153 
Q 2428 4238 2131 4238 
Q 1616 4238 1336 4038 
Q 1056 3838 1056 3469 
Q 1056 3159 1242 3001 
Q 1428 2844 1947 2747 
L 2328 2669 
Q 3034 2534 3370 2195 
Q 3706 1856 3706 1288 
Q 3706 609 3251 259 
Q 2797 -91 1919 -91 
Q 1588 -91 1214 -16 
Q 841 59 441 206 
L 441 856 
Q 825 641 1194 531 
Q 1563 422 1919 422 
Q 2459 422 2753 634 
Q 3047 847 3047 1241 
Q 3047 1584 2836 1778 
Q 2625 1972 2144 2069 
L 1759 2144 
Q 1053 2284 737 2584 
Q 422 2884 422 3419 
Q 422 4038 858 4394 
Q 1294 4750 2059 4750 
Q 2388 4750 2728 4690 
Q 3069 4631 3425 4513 
z
" transform="scale(0.015625)"/>
       <path id="DejaVuSans-57" d="M 213 4666 
L 850 4666 
L 1831 722 
L 2809 4666 
L 3519 4666 
L 4500 722 
L 5478 4666 
L 6119 4666 
L 4947 0 
L 4153 0 
L 3169 4050 
L 2175 0 
L 1381 0 
L 213 4666 
z
" transform="scale(0.015625)"/>
      </defs>
      <use xlink:href="#DejaVuSans-53"/>
      <use xlink:href="#DejaVuSans-57" x="63.476562"/>
      <use xlink:href="#DejaVuSans-41" x="156.853516"/>
      <use xlink:href="#DejaVuSans-20" x="225.261719"/>
      <use xlink:href="#DejaVuSans-56" x="257.048828"/>
      <use xlink:href="#DejaVuSans-61" x="317.707031"/>
      <use xlink:href="#DejaVuSans-6c" x="378.986328"/>
      <use xlink:href="#DejaVuSans-69" x="406.769531"/>
      <use xlink:href="#DejaVuSans-64" x="434.552734"/>
      <use xlink:href="#DejaVuSans-61" x="498.029297"/>
      <use xlink:href="#DejaVuSans-74" x="559.308594"/>
      <use xlink:href="#DejaVuSans-69" x="598.517578"/>
      <use xlink:href="#DejaVuSans-6f" x="626.300781"/>
      <use xlink:href="#DejaVuSans-6e" x="687.482422"/>
      <use xlink:href="#DejaVuSans-20" x="750.861328"/>
      <use xlink:href="#DejaVuSans-41" x="782.648438"/>
      <use xlink:href="#DejaVuSans-63" x="849.306641"/>
      <use xlink:href="#DejaVuSans-63" x="904.287109"/>
      <use xlink:href="#DejaVuSans-75" x="959.267578"/>
      <use xlink:href="#DejaVuSans-72" x="1022.646484"/>
      <use xlink:href="#DejaVuSans-61" x="1063.759766"/>
      <use xlink:href="#DejaVuSans-63" x="1125.039062"/>
      <use xlink:href="#DejaVuSans-79" x="1180.019531"/>
     </g>
    </g>
    <g id="line2d_25">
     <path d="M 216.18875 293.004312 
L 226.18875 293.004312 
L 236.18875 293.004312 
" style="fill: none; stroke: #9467bd; stroke-width: 1.5; stroke-linecap: square"/>
    </g>
    <g id="text_23">
     <!-- SWA Robust Validation Accuracy -->
     <g transform="translate(244.18875 296.504312) scale(0.1 -0.1)">
      <use xlink:href="#DejaVuSans-53"/>
      <use xlink:href="#DejaVuSans-57" x="63.476562"/>
      <use xlink:href="#DejaVuSans-41" x="156.853516"/>
      <use xlink:href="#DejaVuSans-20" x="225.261719"/>
      <use xlink:href="#DejaVuSans-52" x="257.048828"/>
      <use xlink:href="#DejaVuSans-6f" x="322.03125"/>
      <use xlink:href="#DejaVuSans-62" x="383.212891"/>
      <use xlink:href="#DejaVuSans-75" x="446.689453"/>
      <use xlink:href="#DejaVuSans-73" x="510.068359"/>
      <use xlink:href="#DejaVuSans-74" x="562.167969"/>
      <use xlink:href="#DejaVuSans-20" x="601.376953"/>
      <use xlink:href="#DejaVuSans-56" x="633.164062"/>
      <use xlink:href="#DejaVuSans-61" x="693.822266"/>
      <use xlink:href="#DejaVuSans-6c" x="755.101562"/>
      <use xlink:href="#DejaVuSans-69" x="782.884766"/>
      <use xlink:href="#DejaVuSans-64" x="810.667969"/>
      <use xlink:href="#DejaVuSans-61" x="874.144531"/>
      <use xlink:href="#DejaVuSans-74" x="935.423828"/>
      <use xlink:href="#DejaVuSans-69" x="974.632812"/>
      <use xlink:href="#DejaVuSans-6f" x="1002.416016"/>
      <use xlink:href="#DejaVuSans-6e" x="1063.597656"/>
      <use xlink:href="#DejaVuSans-20" x="1126.976562"/>
      <use xlink:href="#DejaVuSans-41" x="1158.763672"/>
      <use xlink:href="#DejaVuSans-63" x="1225.421875"/>
      <use xlink:href="#DejaVuSans-63" x="1280.402344"/>
      <use xlink:href="#DejaVuSans-75" x="1335.382812"/>
      <use xlink:href="#DejaVuSans-72" x="1398.761719"/>
      <use xlink:href="#DejaVuSans-61" x="1439.875"/>
      <use xlink:href="#DejaVuSans-63" x="1501.154297"/>
      <use xlink:href="#DejaVuSans-79" x="1556.134766"/>
     </g>
    </g>
   </g>
  </g>
 </g>
 <defs>
  <clipPath id="paeacb15912">
   <rect x="57.6" y="41.472" width="357.12" height="266.112"/>
  </clipPath>
 </defs>
</svg>
