<?xml version="1.0" encoding="utf-8" standalone="no"?>
<!DOCTYPE svg PUBLIC "-//W3C//DTD SVG 1.1//EN"
  "http://www.w3.org/Graphics/SVG/1.1/DTD/svg11.dtd">
<svg xmlns:xlink="http://www.w3.org/1999/xlink" width="460.8pt" height="345.6pt" viewBox="0 0 460.8 345.6" xmlns="http://www.w3.org/2000/svg" version="1.1">
 <metadata>
  <rdf:RDF xmlns:dc="http://purl.org/dc/elements/1.1/" xmlns:cc="http://creativecommons.org/ns#" xmlns:rdf="http://www.w3.org/1999/02/22-rdf-syntax-ns#">
   <cc:Work>
    <dc:type rdf:resource="http://purl.org/dc/dcmitype/StillImage"/>
    <dc:date>2025-05-03T22:04:05.093769</dc:date>
    <dc:format>image/svg+xml</dc:format>
    <dc:creator>
     <cc:Agent>
      <dc:title>Matplotlib v3.9.1, https://matplotlib.org/</dc:title>
     </cc:Agent>
    </dc:creator>
   </cc:Work>
  </rdf:RDF>
 </metadata>
 <defs>
  <style type="text/css">*{stroke-linejoin: round; stroke-linecap: butt}</style>
 </defs>
 <g id="figure_1">
  <g id="patch_1">
   <path d="M 0 345.6 
L 460.8 345.6 
L 460.8 0 
L 0 0 
z
" style="fill: #ffffff"/>
  </g>
  <g id="axes_1">
   <g id="patch_2">
    <path d="M 57.6 307.584 
L 414.72 307.584 
L 414.72 41.472 
L 57.6 41.472 
z
" style="fill: #ffffff"/>
   </g>
   <g id="matplotlib.axis_1">
    <g id="xtick_1">
     <g id="line2d_1">
      <defs>
       <path id="m8b575e51a7" d="M 0 0 
L 0 3.5 
" style="stroke: #000000; stroke-width: 0.8"/>
      </defs>
      <g>
       <use xlink:href="#m8b575e51a7" x="73.832727" y="307.584" style="stroke: #000000; stroke-width: 0.8"/>
      </g>
     </g>
     <g id="text_1">
      <!-- 1 -->
      <g transform="translate(70.651477 322.182437) scale(0.1 -0.1)">
       <defs>
        <path id="DejaVuSans-31" d="M 794 531 
L 1825 531 
L 1825 4091 
L 703 3866 
L 703 4441 
L 1819 4666 
L 2450 4666 
L 2450 531 
L 3481 531 
L 3481 0 
L 794 0 
L 794 531 
z
" transform="scale(0.015625)"/>
       </defs>
       <use xlink:href="#DejaVuSans-31"/>
      </g>
     </g>
    </g>
    <g id="xtick_2">
     <g id="line2d_2">
      <g>
       <use xlink:href="#m8b575e51a7" x="109.262733" y="307.584" style="stroke: #000000; stroke-width: 0.8"/>
      </g>
     </g>
     <g id="text_2">
      <!-- 50 -->
      <g transform="translate(102.900233 322.182437) scale(0.1 -0.1)">
       <defs>
        <path id="DejaVuSans-35" d="M 691 4666 
L 3169 4666 
L 3169 4134 
L 1269 4134 
L 1269 2991 
Q 1406 3038 1543 3061 
Q 1681 3084 1819 3084 
Q 2600 3084 3056 2656 
Q 3513 2228 3513 1497 
Q 3513 744 3044 326 
Q 2575 -91 1722 -91 
Q 1428 -91 1123 -41 
Q 819 9 494 109 
L 494 744 
Q 775 591 1075 516 
Q 1375 441 1709 441 
Q 2250 441 2565 725 
Q 2881 1009 2881 1497 
Q 2881 1984 2565 2268 
Q 2250 2553 1709 2553 
Q 1456 2553 1204 2497 
Q 953 2441 691 2322 
L 691 4666 
z
" transform="scale(0.015625)"/>
        <path id="DejaVuSans-30" d="M 2034 4250 
Q 1547 4250 1301 3770 
Q 1056 3291 1056 2328 
Q 1056 1369 1301 889 
Q 1547 409 2034 409 
Q 2525 409 2770 889 
Q 3016 1369 3016 2328 
Q 3016 3291 2770 3770 
Q 2525 4250 2034 4250 
z
M 2034 4750 
Q 2819 4750 3233 4129 
Q 3647 3509 3647 2328 
Q 3647 1150 3233 529 
Q 2819 -91 2034 -91 
Q 1250 -91 836 529 
Q 422 1150 422 2328 
Q 422 3509 836 4129 
Q 1250 4750 2034 4750 
z
" transform="scale(0.015625)"/>
       </defs>
       <use xlink:href="#DejaVuSans-35"/>
       <use xlink:href="#DejaVuSans-30" x="63.623047"/>
      </g>
     </g>
    </g>
    <g id="xtick_3">
     <g id="line2d_3">
      <g>
       <use xlink:href="#m8b575e51a7" x="145.415801" y="307.584" style="stroke: #000000; stroke-width: 0.8"/>
      </g>
     </g>
     <g id="text_3">
      <!-- 100 -->
      <g transform="translate(135.872051 322.182437) scale(0.1 -0.1)">
       <use xlink:href="#DejaVuSans-31"/>
       <use xlink:href="#DejaVuSans-30" x="63.623047"/>
       <use xlink:href="#DejaVuSans-30" x="127.246094"/>
      </g>
     </g>
    </g>
    <g id="xtick_4">
     <g id="line2d_4">
      <g>
       <use xlink:href="#m8b575e51a7" x="181.568868" y="307.584" style="stroke: #000000; stroke-width: 0.8"/>
      </g>
     </g>
     <g id="text_4">
      <!-- 150 -->
      <g transform="translate(172.025118 322.182437) scale(0.1 -0.1)">
       <use xlink:href="#DejaVuSans-31"/>
       <use xlink:href="#DejaVuSans-35" x="63.623047"/>
       <use xlink:href="#DejaVuSans-30" x="127.246094"/>
      </g>
     </g>
    </g>
    <g id="xtick_5">
     <g id="line2d_5">
      <g>
       <use xlink:href="#m8b575e51a7" x="217.721936" y="307.584" style="stroke: #000000; stroke-width: 0.8"/>
      </g>
     </g>
     <g id="text_5">
      <!-- 200 -->
      <g transform="translate(208.178186 322.182437) scale(0.1 -0.1)">
       <defs>
        <path id="DejaVuSans-32" d="M 1228 531 
L 3431 531 
L 3431 0 
L 469 0 
L 469 531 
Q 828 903 1448 1529 
Q 2069 2156 2228 2338 
Q 2531 2678 2651 2914 
Q 2772 3150 2772 3378 
Q 2772 3750 2511 3984 
Q 2250 4219 1831 4219 
Q 1534 4219 1204 4116 
Q 875 4013 500 3803 
L 500 4441 
Q 881 4594 1212 4672 
Q 1544 4750 1819 4750 
Q 2544 4750 2975 4387 
Q 3406 4025 3406 3419 
Q 3406 3131 3298 2873 
Q 3191 2616 2906 2266 
Q 2828 2175 2409 1742 
Q 1991 1309 1228 531 
z
" transform="scale(0.015625)"/>
       </defs>
       <use xlink:href="#DejaVuSans-32"/>
       <use xlink:href="#DejaVuSans-30" x="63.623047"/>
       <use xlink:href="#DejaVuSans-30" x="127.246094"/>
      </g>
     </g>
    </g>
    <g id="xtick_6">
     <g id="line2d_6">
      <g>
       <use xlink:href="#m8b575e51a7" x="253.875003" y="307.584" style="stroke: #000000; stroke-width: 0.8"/>
      </g>
     </g>
     <g id="text_6">
      <!-- 250 -->
      <g transform="translate(244.331253 322.182437) scale(0.1 -0.1)">
       <use xlink:href="#DejaVuSans-32"/>
       <use xlink:href="#DejaVuSans-35" x="63.623047"/>
       <use xlink:href="#DejaVuSans-30" x="127.246094"/>
      </g>
     </g>
    </g>
    <g id="xtick_7">
     <g id="line2d_7">
      <g>
       <use xlink:href="#m8b575e51a7" x="290.02807" y="307.584" style="stroke: #000000; stroke-width: 0.8"/>
      </g>
     </g>
     <g id="text_7">
      <!-- 300 -->
      <g transform="translate(280.48432 322.182437) scale(0.1 -0.1)">
       <defs>
        <path id="DejaVuSans-33" d="M 2597 2516 
Q 3050 2419 3304 2112 
Q 3559 1806 3559 1356 
Q 3559 666 3084 287 
Q 2609 -91 1734 -91 
Q 1441 -91 1130 -33 
Q 819 25 488 141 
L 488 750 
Q 750 597 1062 519 
Q 1375 441 1716 441 
Q 2309 441 2620 675 
Q 2931 909 2931 1356 
Q 2931 1769 2642 2001 
Q 2353 2234 1838 2234 
L 1294 2234 
L 1294 2753 
L 1863 2753 
Q 2328 2753 2575 2939 
Q 2822 3125 2822 3475 
Q 2822 3834 2567 4026 
Q 2313 4219 1838 4219 
Q 1578 4219 1281 4162 
Q 984 4106 628 3988 
L 628 4550 
Q 988 4650 1302 4700 
Q 1616 4750 1894 4750 
Q 2613 4750 3031 4423 
Q 3450 4097 3450 3541 
Q 3450 3153 3228 2886 
Q 3006 2619 2597 2516 
z
" transform="scale(0.015625)"/>
       </defs>
       <use xlink:href="#DejaVuSans-33"/>
       <use xlink:href="#DejaVuSans-30" x="63.623047"/>
       <use xlink:href="#DejaVuSans-30" x="127.246094"/>
      </g>
     </g>
    </g>
    <g id="xtick_8">
     <g id="line2d_8">
      <g>
       <use xlink:href="#m8b575e51a7" x="326.181138" y="307.584" style="stroke: #000000; stroke-width: 0.8"/>
      </g>
     </g>
     <g id="text_8">
      <!-- 350 -->
      <g transform="translate(316.637388 322.182437) scale(0.1 -0.1)">
       <use xlink:href="#DejaVuSans-33"/>
       <use xlink:href="#DejaVuSans-35" x="63.623047"/>
       <use xlink:href="#DejaVuSans-30" x="127.246094"/>
      </g>
     </g>
    </g>
    <g id="xtick_9">
     <g id="line2d_9">
      <g>
       <use xlink:href="#m8b575e51a7" x="362.334205" y="307.584" style="stroke: #000000; stroke-width: 0.8"/>
      </g>
     </g>
     <g id="text_9">
      <!-- 400 -->
      <g transform="translate(352.790455 322.182437) scale(0.1 -0.1)">
       <defs>
        <path id="DejaVuSans-34" d="M 2419 4116 
L 825 1625 
L 2419 1625 
L 2419 4116 
z
M 2253 4666 
L 3047 4666 
L 3047 1625 
L 3713 1625 
L 3713 1100 
L 3047 1100 
L 3047 0 
L 2419 0 
L 2419 1100 
L 313 1100 
L 313 1709 
L 2253 4666 
z
" transform="scale(0.015625)"/>
       </defs>
       <use xlink:href="#DejaVuSans-34"/>
       <use xlink:href="#DejaVuSans-30" x="63.623047"/>
       <use xlink:href="#DejaVuSans-30" x="127.246094"/>
      </g>
     </g>
    </g>
    <g id="xtick_10">
     <g id="line2d_10">
      <g>
       <use xlink:href="#m8b575e51a7" x="398.487273" y="307.584" style="stroke: #000000; stroke-width: 0.8"/>
      </g>
     </g>
     <g id="text_10">
      <!-- 450 -->
      <g transform="translate(388.943523 322.182437) scale(0.1 -0.1)">
       <use xlink:href="#DejaVuSans-34"/>
       <use xlink:href="#DejaVuSans-35" x="63.623047"/>
       <use xlink:href="#DejaVuSans-30" x="127.246094"/>
      </g>
     </g>
    </g>
    <g id="text_11">
     <!-- Epochs -->
     <g transform="translate(218.244375 335.860562) scale(0.1 -0.1)">
      <defs>
       <path id="DejaVuSans-45" d="M 628 4666 
L 3578 4666 
L 3578 4134 
L 1259 4134 
L 1259 2753 
L 3481 2753 
L 3481 2222 
L 1259 2222 
L 1259 531 
L 3634 531 
L 3634 0 
L 628 0 
L 628 4666 
z
" transform="scale(0.015625)"/>
       <path id="DejaVuSans-70" d="M 1159 525 
L 1159 -1331 
L 581 -1331 
L 581 3500 
L 1159 3500 
L 1159 2969 
Q 1341 3281 1617 3432 
Q 1894 3584 2278 3584 
Q 2916 3584 3314 3078 
Q 3713 2572 3713 1747 
Q 3713 922 3314 415 
Q 2916 -91 2278 -91 
Q 1894 -91 1617 61 
Q 1341 213 1159 525 
z
M 3116 1747 
Q 3116 2381 2855 2742 
Q 2594 3103 2138 3103 
Q 1681 3103 1420 2742 
Q 1159 2381 1159 1747 
Q 1159 1113 1420 752 
Q 1681 391 2138 391 
Q 2594 391 2855 752 
Q 3116 1113 3116 1747 
z
" transform="scale(0.015625)"/>
       <path id="DejaVuSans-6f" d="M 1959 3097 
Q 1497 3097 1228 2736 
Q 959 2375 959 1747 
Q 959 1119 1226 758 
Q 1494 397 1959 397 
Q 2419 397 2687 759 
Q 2956 1122 2956 1747 
Q 2956 2369 2687 2733 
Q 2419 3097 1959 3097 
z
M 1959 3584 
Q 2709 3584 3137 3096 
Q 3566 2609 3566 1747 
Q 3566 888 3137 398 
Q 2709 -91 1959 -91 
Q 1206 -91 779 398 
Q 353 888 353 1747 
Q 353 2609 779 3096 
Q 1206 3584 1959 3584 
z
" transform="scale(0.015625)"/>
       <path id="DejaVuSans-63" d="M 3122 3366 
L 3122 2828 
Q 2878 2963 2633 3030 
Q 2388 3097 2138 3097 
Q 1578 3097 1268 2742 
Q 959 2388 959 1747 
Q 959 1106 1268 751 
Q 1578 397 2138 397 
Q 2388 397 2633 464 
Q 2878 531 3122 666 
L 3122 134 
Q 2881 22 2623 -34 
Q 2366 -91 2075 -91 
Q 1284 -91 818 406 
Q 353 903 353 1747 
Q 353 2603 823 3093 
Q 1294 3584 2113 3584 
Q 2378 3584 2631 3529 
Q 2884 3475 3122 3366 
z
" transform="scale(0.015625)"/>
       <path id="DejaVuSans-68" d="M 3513 2113 
L 3513 0 
L 2938 0 
L 2938 2094 
Q 2938 2591 2744 2837 
Q 2550 3084 2163 3084 
Q 1697 3084 1428 2787 
Q 1159 2491 1159 1978 
L 1159 0 
L 581 0 
L 581 4863 
L 1159 4863 
L 1159 2956 
Q 1366 3272 1645 3428 
Q 1925 3584 2291 3584 
Q 2894 3584 3203 3211 
Q 3513 2838 3513 2113 
z
" transform="scale(0.015625)"/>
       <path id="DejaVuSans-73" d="M 2834 3397 
L 2834 2853 
Q 2591 2978 2328 3040 
Q 2066 3103 1784 3103 
Q 1356 3103 1142 2972 
Q 928 2841 928 2578 
Q 928 2378 1081 2264 
Q 1234 2150 1697 2047 
L 1894 2003 
Q 2506 1872 2764 1633 
Q 3022 1394 3022 966 
Q 3022 478 2636 193 
Q 2250 -91 1575 -91 
Q 1294 -91 989 -36 
Q 684 19 347 128 
L 347 722 
Q 666 556 975 473 
Q 1284 391 1588 391 
Q 1994 391 2212 530 
Q 2431 669 2431 922 
Q 2431 1156 2273 1281 
Q 2116 1406 1581 1522 
L 1381 1569 
Q 847 1681 609 1914 
Q 372 2147 372 2553 
Q 372 3047 722 3315 
Q 1072 3584 1716 3584 
Q 2034 3584 2315 3537 
Q 2597 3491 2834 3397 
z
" transform="scale(0.015625)"/>
      </defs>
      <use xlink:href="#DejaVuSans-45"/>
      <use xlink:href="#DejaVuSans-70" x="63.183594"/>
      <use xlink:href="#DejaVuSans-6f" x="126.660156"/>
      <use xlink:href="#DejaVuSans-63" x="187.841797"/>
      <use xlink:href="#DejaVuSans-68" x="242.822266"/>
      <use xlink:href="#DejaVuSans-73" x="306.201172"/>
     </g>
    </g>
   </g>
   <g id="matplotlib.axis_2">
    <g id="ytick_1">
     <g id="line2d_11">
      <defs>
       <path id="m97345fe381" d="M 0 0 
L -3.5 0 
" style="stroke: #000000; stroke-width: 0.8"/>
      </defs>
      <g>
       <use xlink:href="#m97345fe381" x="57.6" y="282.315714" style="stroke: #000000; stroke-width: 0.8"/>
      </g>
     </g>
     <g id="text_12">
      <!-- 10 -->
      <g transform="translate(37.875 286.114933) scale(0.1 -0.1)">
       <use xlink:href="#DejaVuSans-31"/>
       <use xlink:href="#DejaVuSans-30" x="63.623047"/>
      </g>
     </g>
    </g>
    <g id="ytick_2">
     <g id="line2d_12">
      <g>
       <use xlink:href="#m97345fe381" x="57.6" y="250.55843" style="stroke: #000000; stroke-width: 0.8"/>
      </g>
     </g>
     <g id="text_13">
      <!-- 20 -->
      <g transform="translate(37.875 254.357649) scale(0.1 -0.1)">
       <use xlink:href="#DejaVuSans-32"/>
       <use xlink:href="#DejaVuSans-30" x="63.623047"/>
      </g>
     </g>
    </g>
    <g id="ytick_3">
     <g id="line2d_13">
      <g>
       <use xlink:href="#m97345fe381" x="57.6" y="218.801147" style="stroke: #000000; stroke-width: 0.8"/>
      </g>
     </g>
     <g id="text_14">
      <!-- 30 -->
      <g transform="translate(37.875 222.600365) scale(0.1 -0.1)">
       <use xlink:href="#DejaVuSans-33"/>
       <use xlink:href="#DejaVuSans-30" x="63.623047"/>
      </g>
     </g>
    </g>
    <g id="ytick_4">
     <g id="line2d_14">
      <g>
       <use xlink:href="#m97345fe381" x="57.6" y="187.043863" style="stroke: #000000; stroke-width: 0.8"/>
      </g>
     </g>
     <g id="text_15">
      <!-- 40 -->
      <g transform="translate(37.875 190.843082) scale(0.1 -0.1)">
       <use xlink:href="#DejaVuSans-34"/>
       <use xlink:href="#DejaVuSans-30" x="63.623047"/>
      </g>
     </g>
    </g>
    <g id="ytick_5">
     <g id="line2d_15">
      <g>
       <use xlink:href="#m97345fe381" x="57.6" y="155.286579" style="stroke: #000000; stroke-width: 0.8"/>
      </g>
     </g>
     <g id="text_16">
      <!-- 50 -->
      <g transform="translate(37.875 159.085798) scale(0.1 -0.1)">
       <use xlink:href="#DejaVuSans-35"/>
       <use xlink:href="#DejaVuSans-30" x="63.623047"/>
      </g>
     </g>
    </g>
    <g id="ytick_6">
     <g id="line2d_16">
      <g>
       <use xlink:href="#m97345fe381" x="57.6" y="123.529296" style="stroke: #000000; stroke-width: 0.8"/>
      </g>
     </g>
     <g id="text_17">
      <!-- 60 -->
      <g transform="translate(37.875 127.328515) scale(0.1 -0.1)">
       <defs>
        <path id="DejaVuSans-36" d="M 2113 2584 
Q 1688 2584 1439 2293 
Q 1191 2003 1191 1497 
Q 1191 994 1439 701 
Q 1688 409 2113 409 
Q 2538 409 2786 701 
Q 3034 994 3034 1497 
Q 3034 2003 2786 2293 
Q 2538 2584 2113 2584 
z
M 3366 4563 
L 3366 3988 
Q 3128 4100 2886 4159 
Q 2644 4219 2406 4219 
Q 1781 4219 1451 3797 
Q 1122 3375 1075 2522 
Q 1259 2794 1537 2939 
Q 1816 3084 2150 3084 
Q 2853 3084 3261 2657 
Q 3669 2231 3669 1497 
Q 3669 778 3244 343 
Q 2819 -91 2113 -91 
Q 1303 -91 875 529 
Q 447 1150 447 2328 
Q 447 3434 972 4092 
Q 1497 4750 2381 4750 
Q 2619 4750 2861 4703 
Q 3103 4656 3366 4563 
z
" transform="scale(0.015625)"/>
       </defs>
       <use xlink:href="#DejaVuSans-36"/>
       <use xlink:href="#DejaVuSans-30" x="63.623047"/>
      </g>
     </g>
    </g>
    <g id="ytick_7">
     <g id="line2d_17">
      <g>
       <use xlink:href="#m97345fe381" x="57.6" y="91.772012" style="stroke: #000000; stroke-width: 0.8"/>
      </g>
     </g>
     <g id="text_18">
      <!-- 70 -->
      <g transform="translate(37.875 95.571231) scale(0.1 -0.1)">
       <defs>
        <path id="DejaVuSans-37" d="M 525 4666 
L 3525 4666 
L 3525 4397 
L 1831 0 
L 1172 0 
L 2766 4134 
L 525 4134 
L 525 4666 
z
" transform="scale(0.015625)"/>
       </defs>
       <use xlink:href="#DejaVuSans-37"/>
       <use xlink:href="#DejaVuSans-30" x="63.623047"/>
      </g>
     </g>
    </g>
    <g id="ytick_8">
     <g id="line2d_18">
      <g>
       <use xlink:href="#m97345fe381" x="57.6" y="60.014729" style="stroke: #000000; stroke-width: 0.8"/>
      </g>
     </g>
     <g id="text_19">
      <!-- 80 -->
      <g transform="translate(37.875 63.813947) scale(0.1 -0.1)">
       <defs>
        <path id="DejaVuSans-38" d="M 2034 2216 
Q 1584 2216 1326 1975 
Q 1069 1734 1069 1313 
Q 1069 891 1326 650 
Q 1584 409 2034 409 
Q 2484 409 2743 651 
Q 3003 894 3003 1313 
Q 3003 1734 2745 1975 
Q 2488 2216 2034 2216 
z
M 1403 2484 
Q 997 2584 770 2862 
Q 544 3141 544 3541 
Q 544 4100 942 4425 
Q 1341 4750 2034 4750 
Q 2731 4750 3128 4425 
Q 3525 4100 3525 3541 
Q 3525 3141 3298 2862 
Q 3072 2584 2669 2484 
Q 3125 2378 3379 2068 
Q 3634 1759 3634 1313 
Q 3634 634 3220 271 
Q 2806 -91 2034 -91 
Q 1263 -91 848 271 
Q 434 634 434 1313 
Q 434 1759 690 2068 
Q 947 2378 1403 2484 
z
M 1172 3481 
Q 1172 3119 1398 2916 
Q 1625 2713 2034 2713 
Q 2441 2713 2670 2916 
Q 2900 3119 2900 3481 
Q 2900 3844 2670 4047 
Q 2441 4250 2034 4250 
Q 1625 4250 1398 4047 
Q 1172 3844 1172 3481 
z
" transform="scale(0.015625)"/>
       </defs>
       <use xlink:href="#DejaVuSans-38"/>
       <use xlink:href="#DejaVuSans-30" x="63.623047"/>
      </g>
     </g>
    </g>
    <g id="text_20">
     <!-- Accuracy -->
     <g transform="translate(31.795312 197.356125) rotate(-90) scale(0.1 -0.1)">
      <defs>
       <path id="DejaVuSans-41" d="M 2188 4044 
L 1331 1722 
L 3047 1722 
L 2188 4044 
z
M 1831 4666 
L 2547 4666 
L 4325 0 
L 3669 0 
L 3244 1197 
L 1141 1197 
L 716 0 
L 50 0 
L 1831 4666 
z
" transform="scale(0.015625)"/>
       <path id="DejaVuSans-75" d="M 544 1381 
L 544 3500 
L 1119 3500 
L 1119 1403 
Q 1119 906 1312 657 
Q 1506 409 1894 409 
Q 2359 409 2629 706 
Q 2900 1003 2900 1516 
L 2900 3500 
L 3475 3500 
L 3475 0 
L 2900 0 
L 2900 538 
Q 2691 219 2414 64 
Q 2138 -91 1772 -91 
Q 1169 -91 856 284 
Q 544 659 544 1381 
z
M 1991 3584 
L 1991 3584 
z
" transform="scale(0.015625)"/>
       <path id="DejaVuSans-72" d="M 2631 2963 
Q 2534 3019 2420 3045 
Q 2306 3072 2169 3072 
Q 1681 3072 1420 2755 
Q 1159 2438 1159 1844 
L 1159 0 
L 581 0 
L 581 3500 
L 1159 3500 
L 1159 2956 
Q 1341 3275 1631 3429 
Q 1922 3584 2338 3584 
Q 2397 3584 2469 3576 
Q 2541 3569 2628 3553 
L 2631 2963 
z
" transform="scale(0.015625)"/>
       <path id="DejaVuSans-61" d="M 2194 1759 
Q 1497 1759 1228 1600 
Q 959 1441 959 1056 
Q 959 750 1161 570 
Q 1363 391 1709 391 
Q 2188 391 2477 730 
Q 2766 1069 2766 1631 
L 2766 1759 
L 2194 1759 
z
M 3341 1997 
L 3341 0 
L 2766 0 
L 2766 531 
Q 2569 213 2275 61 
Q 1981 -91 1556 -91 
Q 1019 -91 701 211 
Q 384 513 384 1019 
Q 384 1609 779 1909 
Q 1175 2209 1959 2209 
L 2766 2209 
L 2766 2266 
Q 2766 2663 2505 2880 
Q 2244 3097 1772 3097 
Q 1472 3097 1187 3025 
Q 903 2953 641 2809 
L 641 3341 
Q 956 3463 1253 3523 
Q 1550 3584 1831 3584 
Q 2591 3584 2966 3190 
Q 3341 2797 3341 1997 
z
" transform="scale(0.015625)"/>
       <path id="DejaVuSans-79" d="M 2059 -325 
Q 1816 -950 1584 -1140 
Q 1353 -1331 966 -1331 
L 506 -1331 
L 506 -850 
L 844 -850 
Q 1081 -850 1212 -737 
Q 1344 -625 1503 -206 
L 1606 56 
L 191 3500 
L 800 3500 
L 1894 763 
L 2988 3500 
L 3597 3500 
L 2059 -325 
z
" transform="scale(0.015625)"/>
      </defs>
      <use xlink:href="#DejaVuSans-41"/>
      <use xlink:href="#DejaVuSans-63" x="66.658203"/>
      <use xlink:href="#DejaVuSans-63" x="121.638672"/>
      <use xlink:href="#DejaVuSans-75" x="176.619141"/>
      <use xlink:href="#DejaVuSans-72" x="239.998047"/>
      <use xlink:href="#DejaVuSans-61" x="281.111328"/>
      <use xlink:href="#DejaVuSans-63" x="342.390625"/>
      <use xlink:href="#DejaVuSans-79" x="397.371094"/>
     </g>
    </g>
   </g>
   <g id="line2d_19">
    <path d="M 73.832727 295.488 
L 76.724973 225.139265 
L 78.171095 202.983479 
L 78.894157 197.134422 
L 80.340279 182.890328 
L 81.063341 177.658633 
L 83.232525 165.183737 
L 83.955586 162.306845 
L 86.847832 147.86522 
L 87.570893 145.332259 
L 88.293954 143.327422 
L 89.017016 140.8259 
L 89.740077 139.724875 
L 90.463138 136.014354 
L 91.1862 134.824091 
L 91.909261 132.074546 
L 92.632322 132.61569 
L 93.355384 130.566075 
L 94.078445 131.469887 
L 94.801506 130.235164 
L 95.524568 157.889724 
L 96.247629 160.804725 
L 96.97069 158.354333 
L 97.693752 156.756942 
L 98.416813 153.211559 
L 99.139874 152.307746 
L 99.862936 150.474716 
L 100.585997 149.628384 
L 101.309059 146.554279 
L 102.03212 145.962323 
L 103.478243 142.773575 
L 104.201304 140.450529 
L 104.924365 139.533959 
L 105.647427 139.241183 
L 106.370488 136.167035 
L 107.093549 135.708777 
L 107.816611 135.091401 
L 108.539672 131.444431 
L 109.262733 131.56536 
L 109.985795 129.535022 
L 110.708856 129.204058 
L 111.431917 129.102223 
L 112.154979 125.391606 
L 112.87804 124.850607 
L 113.601101 123.335809 
L 114.324163 122.99848 
L 115.047224 121.661894 
L 116.493347 118.040383 
L 117.216408 118.447723 
L 119.385592 112.184863 
L 120.108654 113.025003 
L 120.831715 112.700403 
L 121.554776 110.810089 
L 122.277838 110.510948 
L 123.000899 107.939611 
L 123.72396 108.334222 
L 124.447022 106.40572 
L 125.170083 105.858356 
L 125.893144 103.955312 
L 126.616206 104.50904 
L 127.339267 101.072105 
L 128.062328 101.040281 
L 128.78539 101.504904 
L 129.508451 98.908109 
L 130.231512 98.780815 
L 130.954574 97.654264 
L 131.677635 96.190384 
L 132.400696 97.469687 
L 133.123758 95.382067 
L 133.846819 94.121858 
L 134.569881 93.765435 
L 135.292942 94.993821 
L 136.016003 94.758327 
L 136.739065 95.165668 
L 137.462126 95.763949 
L 138.185187 94.885621 
L 138.908249 124.583289 
L 139.63131 129.095858 
L 140.354371 128.707612 
L 141.077433 128.141154 
L 141.800494 127.199179 
L 142.523555 127.332838 
L 143.246617 126.45451 
L 143.969678 126.492698 
L 144.692739 125.811676 
L 145.415801 125.61437 
L 146.138862 123.571303 
L 146.861923 124.010467 
L 147.584985 122.050141 
L 148.308046 123.704961 
L 149.031108 121.591883 
L 149.754169 121.470953 
L 150.47723 120.81539 
L 151.200292 120.719919 
L 151.923353 119.472439 
L 152.646414 119.287863 
L 153.369476 119.491533 
L 154.092537 118.174041 
L 154.815598 118.282241 
L 155.53866 116.996573 
L 156.261721 117.327537 
L 156.984782 114.297942 
L 157.707844 116.213715 
L 158.430905 114.978964 
L 159.153966 114.95987 
L 159.877028 113.890601 
L 160.600089 114.667094 
L 161.32315 111.968463 
L 162.046212 113.133203 
L 162.769273 112.159404 
L 163.492334 112.063934 
L 164.215396 110.402748 
L 164.938457 110.383654 
L 165.661519 110.765536 
L 167.107641 108.340587 
L 167.830703 108.232387 
L 168.553764 109.339844 
L 169.276825 107.710482 
L 169.999887 107.532271 
L 170.722948 107.23313 
L 171.446009 105.724697 
L 172.169071 105.069134 
L 172.892132 104.878193 
L 173.615193 105.202792 
L 174.338255 103.929853 
L 175.061316 104.324464 
L 175.784377 102.408691 
L 176.507439 103.535242 
L 177.2305 101.409434 
L 177.953561 101.428528 
L 178.676623 101.027552 
L 179.399684 100.002836 
L 180.122745 100.155589 
L 180.845807 98.335286 
L 181.568868 98.984485 
L 182.29193 98.348015 
L 183.014991 97.151453 
L 183.738052 96.419513 
L 184.461114 95.872149 
L 185.184175 95.897608 
L 185.907236 94.732868 
L 186.630298 94.134587 
L 187.353359 92.963483 
L 188.07642 94.013658 
L 188.799482 93.523576 
L 189.522543 92.740719 
L 190.245604 92.231543 
L 190.968666 92.008779 
L 191.691727 91.085898 
L 192.414788 89.596559 
L 193.13785 89.284689 
L 193.860911 89.189219 
L 194.583972 88.272703 
L 195.307034 88.062668 
L 196.030095 88.279067 
L 196.753157 86.1278 
L 197.476218 86.178718 
L 198.199279 85.064896 
L 198.922341 84.517533 
L 199.645402 85.835024 
L 200.368463 83.881063 
L 201.091525 84.581179 
L 201.814586 83.257323 
L 202.537647 83.359158 
L 203.260709 81.901643 
L 203.98377 82.519018 
L 205.429893 80.711445 
L 206.152954 80.348657 
L 206.876015 79.177553 
L 207.599077 79.343035 
L 208.322138 79.031165 
L 209.045199 78.350143 
L 209.768261 78.579272 
L 210.491322 78.935695 
L 211.214383 77.299968 
L 211.937445 76.860804 
L 212.660506 75.498759 
L 213.383568 75.16143 
L 214.106629 75.778806 
L 214.82969 75.218713 
L 215.552752 75.982476 
L 216.275813 74.111256 
L 216.998874 75.575136 
L 218.444997 74.359479 
L 219.168058 75.6897 
L 219.89112 73.920315 
L 220.614181 74.556784 
L 221.337242 73.773927 
L 222.783365 73.582986 
L 223.506426 72.023636 
L 224.229488 73.964868 
L 224.952549 73.831209 
L 225.67561 108.066905 
L 226.398672 112.910438 
L 227.121733 114.13246 
L 227.844794 114.635271 
L 228.567856 114.33613 
L 229.290917 113.476896 
L 231.460101 112.592203 
L 232.183163 113.254132 
L 232.906224 112.420357 
L 233.629285 110.924653 
L 234.352347 111.949369 
L 235.075408 111.707511 
L 235.798469 110.510948 
L 236.521531 110.790995 
L 237.244592 111.758428 
L 237.967653 111.045582 
L 239.413776 108.283305 
L 240.136837 109.804467 
L 240.859899 108.563351 
L 242.306021 110.16089 
L 243.029083 109.174362 
L 244.475206 107.85687 
L 245.198267 106.564837 
L 245.921328 107.85687 
L 246.64439 107.207671 
L 247.367451 106.895801 
L 248.090512 107.487718 
L 248.813574 106.653943 
L 249.536635 106.202049 
L 250.259696 106.653943 
L 251.705819 106.437543 
L 252.42888 105.088228 
L 253.151942 105.266439 
L 253.875003 106.450272 
L 254.598064 105.419192 
L 255.321126 105.387368 
L 256.044187 105.018216 
L 257.49031 104.706346 
L 258.213371 103.815289 
L 258.936432 104.139888 
L 259.659494 102.478703 
L 260.382555 103.191548 
L 261.105617 103.738912 
L 261.828678 102.790573 
L 262.551739 103.318842 
L 263.274801 102.975149 
L 263.997862 101.969527 
L 264.720923 103.980771 
L 265.443985 102.084092 
L 266.167046 101.854962 
L 266.890107 101.059376 
L 267.613169 101.861327 
L 268.33623 100.779329 
L 269.059291 101.014823 
L 269.782353 101.874057 
L 270.505414 101.823139 
L 271.228475 101.008458 
L 271.951537 100.906623 
L 272.674598 100.136495 
L 273.397659 99.939189 
L 274.120721 100.842976 
L 274.843782 99.442743 
L 275.566843 99.990107 
L 276.289905 99.232708 
L 277.012966 99.519119 
L 277.736028 97.883393 
L 278.459089 98.793544 
L 279.18215 97.546064 
L 279.905212 98.787179 
L 280.628273 97.081441 
L 281.351334 99.557307 
L 282.074396 97.539699 
L 282.797457 97.227829 
L 283.520518 96.623183 
L 284.966641 97.609711 
L 285.689702 97.386946 
L 286.412764 96.661371 
L 287.135825 95.776678 
L 287.858886 96.7823 
L 288.581948 94.020023 
L 289.305009 94.08367 
L 290.02807 93.969105 
L 290.751132 95.089291 
L 291.474193 95.713032 
L 292.197255 94.917445 
L 292.920316 95.725761 
L 293.643377 92.759813 
L 294.366439 93.981834 
L 295.0895 94.026387 
L 295.812561 94.28734 
L 296.535623 92.855283 
L 297.258684 93.676329 
L 297.981745 92.734354 
L 298.704807 92.60706 
L 299.427868 92.19972 
L 300.150929 92.29519 
L 300.873991 91.652356 
L 301.597052 92.460672 
L 303.043175 90.990428 
L 303.766236 90.646734 
L 304.489297 90.1121 
L 305.212359 90.716746 
L 305.93542 91.550521 
L 306.658481 89.310148 
L 307.381543 90.124829 
L 308.104604 89.119207 
L 308.827666 89.774771 
L 309.550727 88.998278 
L 310.273788 88.85189 
L 311.719911 87.59168 
L 312.442972 88.02448 
L 313.166034 86.891564 
L 313.889095 86.4524 
L 314.612156 86.579694 
L 315.335218 86.528776 
L 316.058279 85.045802 
L 316.78134 85.389496 
L 317.504402 85.879577 
L 318.227463 85.472237 
L 318.950524 85.40859 
L 319.673586 85.605895 
L 320.396647 85.631354 
L 321.119708 84.14838 
L 321.84277 85.071261 
L 322.565831 84.587544 
L 324.011954 83.219135 
L 324.735015 82.067125 
L 325.458077 83.486452 
L 326.181138 82.919994 
L 326.904199 81.602502 
L 327.627261 81.876184 
L 328.350322 81.176067 
L 329.073383 82.16896 
L 329.796445 82.003478 
L 330.519506 81.430655 
L 331.242567 80.240457 
L 331.965629 80.380481 
L 332.68869 80.673257 
L 333.411751 79.44487 
L 334.134813 80.310469 
L 334.857874 80.29774 
L 335.580935 79.222106 
L 336.303997 79.228471 
L 337.027058 78.502895 
L 337.750119 79.260294 
L 339.196242 76.860804 
L 339.919304 77.287239 
L 340.642365 77.229956 
L 341.365426 76.389817 
L 342.088488 77.268145 
L 342.811549 76.128864 
L 343.53461 76.039758 
L 344.257672 75.403289 
L 344.980733 75.365101 
L 345.703794 75.517853 
L 346.426856 73.882127 
L 347.149917 74.652255 
L 347.872978 74.811372 
L 348.59604 73.519339 
L 350.042162 73.672092 
L 350.765224 72.093647 
L 351.488285 72.723752 
L 352.934408 72.2464 
L 353.657469 71.756318 
L 355.103592 72.392788 
L 355.826653 70.725238 
L 356.549715 70.521568 
L 357.272776 71.081661 
L 357.995837 70.006027 
L 358.718899 69.242264 
L 359.44196 69.802357 
L 360.165021 69.611416 
L 361.611144 68.866747 
L 362.334205 68.809465 
L 363.057267 68.987676 
L 364.503389 67.880219 
L 365.226451 67.937501 
L 365.949512 66.384516 
L 366.672573 67.612902 
L 367.395635 68.293924 
L 368.118696 68.083889 
L 368.841757 69.95511 
L 370.28788 72.825587 
L 371.010941 71.839059 
L 371.734003 73.462057 
L 372.457064 73.137457 
L 373.180126 73.532068 
L 373.903187 73.169281 
L 375.34931 73.519339 
L 376.072371 73.423869 
L 376.795432 71.979083 
L 377.518494 73.468421 
L 378.241555 73.697551 
L 378.964616 72.908328 
L 379.687678 74.302197 
L 380.410739 73.888491 
L 381.1338 72.691929 
L 381.856862 74.327655 
L 382.579923 72.965611 
L 383.302984 72.793764 
L 384.026046 73.81848 
L 384.749107 74.639525 
L 385.472168 73.334763 
L 386.19523 74.02215 
L 386.918291 73.245657 
L 387.641353 73.379316 
L 388.364414 73.983962 
L 389.087475 73.372951 
L 389.810537 74.435855 
L 390.533598 72.914693 
L 391.256659 72.481894 
L 391.979721 73.417504 
L 392.702782 74.015785 
L 393.425843 73.850303 
L 394.148905 73.18201 
L 394.871966 72.717387 
L 395.595027 74.085797 
L 396.318089 72.959246 
L 397.04115 73.863033 
L 397.764211 73.430233 
L 398.487273 74.677714 
L 398.487273 74.677714 
" clip-path="url(#p9c61cdee36)" style="fill: none; stroke: #1f77b4; stroke-width: 1.5; stroke-linecap: square"/>
   </g>
   <g id="line2d_20">
    <path d="M 73.832727 283.967093 
L 74.555789 259.863314 
L 75.27885 240.713672 
L 76.001911 215.02203 
L 76.724973 204.764427 
L 77.448034 186.503989 
L 78.171095 172.594299 
L 78.894157 164.623221 
L 79.617218 163.797531 
L 80.340279 153.730473 
L 81.063341 146.013453 
L 81.786402 144.743161 
L 82.509463 138.67752 
L 83.232525 134.485559 
L 83.955586 126.768539 
L 84.678647 125.434733 
L 86.12477 118.988004 
L 86.847832 115.558218 
L 87.570893 114.002111 
L 88.293954 114.700771 
L 89.017016 108.539858 
L 89.740077 107.682411 
L 90.463138 105.681702 
L 91.1862 105.205343 
L 91.909261 103.585722 
L 93.355384 103.426935 
L 94.078445 102.537731 
L 94.801506 102.410702 
L 95.524568 137.915345 
L 96.247629 132.040248 
L 96.97069 121.655616 
L 97.693752 121.909674 
L 98.416813 122.481305 
L 99.139874 118.257587 
L 99.862936 120.417082 
L 100.585997 120.353567 
L 101.309059 114.383198 
L 102.03212 115.907548 
L 102.755181 109.841907 
L 103.478243 109.492576 
L 104.201304 107.650654 
L 104.924365 109.111489 
L 105.647427 104.53844 
L 106.370488 105.808732 
L 107.093549 100.791081 
L 107.816611 102.188401 
L 108.539672 100.155935 
L 109.262733 100.822838 
L 109.985795 97.361294 
L 110.708856 93.169333 
L 111.431917 97.234265 
L 112.154979 91.835527 
L 112.87804 91.454439 
L 113.601101 92.692973 
L 114.324163 89.866575 
L 115.047224 91.136867 
L 115.770285 88.501012 
L 116.493347 88.913857 
L 117.216408 87.897624 
L 117.93947 85.611099 
L 118.662531 84.848924 
L 119.385592 84.594866 
L 120.108654 82.498885 
L 120.831715 81.133322 
L 121.554776 79.069099 
L 122.277838 78.624497 
L 123.000899 77.100147 
L 123.72396 76.909603 
L 124.447022 78.306924 
L 125.170083 75.925128 
L 125.893144 74.369021 
L 126.616206 73.638603 
L 128.062328 73.066972 
L 129.508451 72.114254 
L 130.231512 70.939234 
L 130.954574 71.447351 
L 131.677635 71.383836 
L 133.123758 69.573671 
L 133.846819 69.541914 
L 134.569881 70.558147 
L 135.292942 69.795972 
L 136.016003 69.7007 
L 136.739065 69.446642 
L 137.462126 70.018273 
L 138.185187 69.954758 
L 138.908249 97.583595 
L 139.63131 101.61677 
L 140.354371 100.695809 
L 141.077433 100.155935 
L 142.523555 96.789663 
L 143.246617 91.200381 
L 143.969678 95.328828 
L 144.692739 90.469964 
L 145.415801 93.867993 
L 146.138862 93.804478 
L 147.584985 90.247663 
L 148.308046 90.62875 
L 149.031108 91.835527 
L 149.754169 87.611808 
L 150.47723 93.645692 
L 151.200292 89.294944 
L 152.646414 86.119216 
L 153.369476 91.136867 
L 154.092537 86.150973 
L 154.815598 87.103692 
L 155.53866 88.40574 
L 156.261721 86.690847 
L 156.984782 85.293526 
L 157.707844 84.975953 
L 158.430905 81.86374 
L 159.153966 85.515827 
L 159.877028 81.927254 
L 160.600089 83.546876 
L 161.32315 87.580051 
L 162.046212 84.626623 
L 162.769273 81.101565 
L 163.492334 81.577924 
L 164.215396 83.038759 
L 164.938457 82.467128 
L 165.661519 82.816458 
L 166.38458 81.641439 
L 167.830703 77.576506 
L 168.553764 80.847507 
L 169.276825 80.593448 
L 169.999887 76.560273 
L 170.722948 78.243409 
L 171.446009 77.41772 
L 172.169071 79.2914 
L 172.892132 76.147429 
L 173.615193 76.179186 
L 174.338255 74.908895 
L 175.061316 76.052157 
L 175.784377 73.130487 
L 176.507439 74.718351 
L 177.2305 73.765632 
L 177.953561 76.337972 
L 178.676623 72.050739 
L 179.399684 73.924419 
L 180.122745 72.400069 
L 180.845807 72.209525 
L 181.568868 72.304797 
L 182.29193 72.146011 
L 183.014991 72.558856 
L 183.738052 69.732457 
L 184.461114 72.050739 
L 185.184175 70.113545 
L 185.907236 69.668943 
L 186.630298 70.208817 
L 187.353359 70.939234 
L 188.07642 67.12836 
L 188.799482 68.875011 
L 189.522543 68.779739 
L 190.245604 67.604719 
L 191.691727 66.874302 
L 192.414788 65.476981 
L 193.13785 66.207399 
L 193.860911 65.540496 
L 194.583972 65.953341 
L 195.307034 65.508739 
L 196.030095 64.079661 
L 196.753157 64.143175 
L 197.476218 64.365476 
L 198.199279 63.920874 
L 198.922341 64.492506 
L 199.645402 63.095185 
L 200.368463 62.999913 
L 201.091525 62.714098 
L 201.814586 61.98368 
L 202.537647 61.094476 
L 203.260709 62.047195 
L 203.98377 62.047195 
L 204.706831 61.729622 
L 205.429893 60.808661 
L 206.152954 60.745146 
L 206.876015 60.205272 
L 207.599077 61.126234 
L 208.322138 59.570127 
L 209.045199 59.125525 
L 209.768261 59.474855 
L 210.491322 60.11 
L 211.214383 58.744437 
L 211.937445 58.141049 
L 212.660506 58.649165 
L 213.383568 58.966738 
L 214.106629 58.141049 
L 215.552752 58.490379 
L 216.275813 59.220796 
L 216.998874 58.426864 
L 217.721936 57.886991 
L 218.444997 58.36335 
L 219.168058 58.490379 
L 219.89112 57.347117 
L 220.614181 58.585651 
L 221.337242 58.141049 
L 222.060304 58.680923 
L 222.783365 57.66469 
L 223.506426 58.522136 
L 224.229488 58.331593 
L 224.952549 57.66469 
L 225.67561 90.533478 
L 226.398672 86.976662 
L 227.121733 86.881391 
L 227.844794 85.13474 
L 228.567856 89.93009 
L 229.290917 89.771303 
L 230.013979 87.389507 
L 230.73704 88.151682 
L 231.460101 83.896206 
L 232.183163 85.769886 
L 232.906224 88.437497 
L 233.629285 83.26106 
L 234.352347 83.102274 
L 235.075408 81.768468 
L 235.798469 83.642148 
L 236.521531 83.927963 
L 237.244592 81.927254 
L 237.967653 85.674614 
L 238.690715 82.181313 
L 240.136837 80.720477 
L 240.859899 82.435371 
L 241.58296 82.308342 
L 242.306021 80.593448 
L 243.029083 81.101565 
L 243.752144 83.356332 
L 244.475206 84.150264 
L 245.198267 78.719769 
L 245.921328 78.81504 
L 246.64439 80.33939 
L 247.367451 80.498177 
L 248.090512 78.656254 
L 248.813574 79.164371 
L 249.536635 79.354914 
L 250.259696 82.181313 
L 250.982758 77.830565 
L 251.705819 79.736002 
L 252.42888 82.149555 
L 253.151942 78.878555 
L 254.598064 77.322448 
L 255.321126 78.370439 
L 256.767248 77.640021 
L 257.49031 79.450186 
L 258.213371 81.641439 
L 258.936432 76.401487 
L 259.659494 79.672487 
L 260.382555 76.0204 
L 261.105617 82.657672 
L 261.828678 80.752235 
L 262.551739 77.06839 
L 263.274801 80.021817 
L 263.997862 76.846089 
L 264.720923 76.0204 
L 265.443985 79.037341 
L 266.167046 77.290691 
L 266.890107 77.544749 
L 267.613169 77.322448 
L 268.33623 72.939943 
L 269.059291 78.370439 
L 269.782353 73.79739 
L 270.505414 74.654836 
L 271.228475 72.336555 
L 271.951537 75.512283 
L 272.674598 76.941361 
L 273.397659 74.49605 
L 274.843782 72.177768 
L 275.566843 75.321739 
L 276.289905 71.542623 
L 277.012966 74.559564 
L 277.736028 74.178477 
L 278.459089 72.908186 
L 279.18215 74.083205 
L 279.905212 72.717642 
L 280.628273 71.733166 
L 281.351334 71.57438 
L 282.074396 73.479817 
L 282.797457 71.034506 
L 283.520518 74.051448 
L 284.24358 71.320322 
L 284.966641 73.670361 
L 285.689702 74.686594 
L 286.412764 73.257516 
L 287.135825 70.335846 
L 287.858886 70.653419 
L 290.02807 74.114963 
L 290.751132 71.510865 
L 291.474193 71.193292 
L 292.197255 69.383127 
L 292.920316 70.589904 
L 293.643377 71.22505 
L 294.366439 70.208817 
L 295.0895 70.589904 
L 295.812561 71.860195 
L 296.535623 68.049321 
L 297.258684 66.493214 
L 297.981745 70.240574 
L 298.704807 69.573671 
L 299.427868 69.224341 
L 300.150929 70.558147 
L 300.873991 68.081079 
L 301.597052 69.35137 
L 302.320113 67.223632 
L 303.043175 69.129069 
L 303.766236 68.239865 
L 304.489297 67.82702 
L 305.212359 67.890535 
L 305.93542 65.858069 
L 306.658481 68.843253 
L 307.381543 67.350661 
L 308.104604 66.524972 
L 308.827666 66.810787 
L 309.550727 67.382418 
L 310.273788 68.112836 
L 310.99685 64.937108 
L 311.719911 67.064846 
L 312.442972 67.604719 
L 313.166034 67.255389 
L 313.889095 64.016146 
L 314.612156 65.73104 
L 315.335218 65.349952 
L 316.058279 65.858069 
L 316.78134 65.25468 
L 317.504402 64.016146 
L 318.227463 64.524263 
L 318.950524 65.572253 
L 319.673586 63.635059 
L 320.396647 64.301962 
L 321.119708 63.920874 
L 321.84277 62.301253 
L 322.565831 64.174933 
L 323.288892 63.063428 
L 324.011954 62.523554 
L 324.735015 63.190457 
L 325.458077 63.1587 
L 326.181138 62.237738 
L 326.904199 62.523554 
L 327.627261 63.603302 
L 329.073383 61.380292 
L 329.796445 61.348534 
L 330.519506 60.11 
L 331.242567 62.80937 
L 331.965629 62.460039 
L 332.68869 60.364059 
L 333.411751 60.618117 
L 334.134813 60.713389 
L 334.857874 59.855942 
L 335.580935 59.474855 
L 336.303997 59.41134 
L 337.027058 59.887699 
L 337.750119 61.539078 
L 338.473181 60.427573 
L 339.919304 58.680923 
L 340.642365 59.601884 
L 341.365426 57.061301 
L 342.088488 59.982971 
L 342.811549 58.966738 
L 343.53461 58.776195 
L 344.257672 59.443097 
L 344.980733 57.759961 
L 345.703794 56.807243 
L 346.426856 57.442389 
L 347.149917 57.061301 
L 347.872978 58.744437 
L 348.59604 57.156573 
L 349.319101 56.553185 
L 350.042162 58.490379 
L 350.765224 57.378874 
L 351.488285 55.600466 
L 352.211346 57.124816 
L 352.934408 54.933563 
L 353.657469 57.347117 
L 354.38053 56.711971 
L 355.103592 56.553185 
L 355.826653 56.902515 
L 356.549715 56.457913 
L 357.272776 55.568709 
L 357.995837 56.966029 
L 358.718899 55.505194 
L 359.44196 54.806534 
L 360.165021 55.155864 
L 360.888083 53.853816 
L 361.611144 54.171388 
L 362.334205 54.330175 
L 363.057267 54.933563 
L 363.780328 54.743019 
L 364.503389 54.393689 
L 365.226451 54.901806 
L 365.949512 54.901806 
L 366.672573 54.488961 
L 367.395635 54.488961 
L 368.118696 56.426156 
L 368.841757 56.648457 
L 369.564819 56.394398 
L 370.28788 58.01402 
L 371.010941 57.474146 
L 371.734003 59.220796 
L 372.457064 57.251845 
L 374.626248 59.125525 
L 375.34931 57.855233 
L 376.072371 59.665398 
L 376.795432 57.569418 
L 377.518494 58.807952 
L 378.241555 59.76067 
L 378.964616 58.299835 
L 379.687678 59.919457 
L 380.410739 59.125525 
L 381.1338 59.76067 
L 381.856862 58.204563 
L 382.579923 58.299835 
L 383.302984 58.680923 
L 384.026046 60.332301 
L 384.749107 59.728913 
L 385.472168 58.680923 
L 386.19523 58.553894 
L 386.918291 57.918748 
L 387.641353 58.01402 
L 388.364414 58.903224 
L 389.810537 58.998495 
L 390.533598 58.522136 
L 391.256659 58.522136 
L 391.979721 58.236321 
L 392.702782 59.443097 
L 393.425843 57.66469 
L 394.148905 58.458622 
L 396.318089 57.53766 
L 397.04115 58.236321 
L 398.487273 58.744437 
L 398.487273 58.744437 
" clip-path="url(#p9c61cdee36)" style="fill: none; stroke: #ff7f0e; stroke-width: 1.5; stroke-linecap: square"/>
   </g>
   <g id="line2d_21">
    <path d="M 73.832727 286.717909 
L 74.555789 265.451644 
L 75.27885 257.19475 
L 76.001911 229.883486 
L 76.724973 221.560855 
L 77.448034 210.368953 
L 78.171095 204.564992 
L 78.894157 196.045465 
L 79.617218 193.045037 
L 80.340279 185.204164 
L 81.063341 180.035348 
L 81.786402 177.407115 
L 82.509463 177.713891 
L 83.232525 170.727288 
L 83.955586 165.251697 
L 84.678647 161.418911 
L 85.401709 158.812591 
L 86.12477 159.338491 
L 86.847832 155.045542 
L 87.570893 152.877472 
L 88.293954 155.724512 
L 89.017016 147.708656 
L 89.740077 147.423794 
L 90.463138 147.379969 
L 91.1862 146.72291 
L 91.909261 144.948948 
L 92.632322 144.029258 
L 93.355384 144.29189 
L 94.078445 142.386453 
L 94.801506 143.087336 
L 95.524568 178.107999 
L 96.247629 169.215959 
L 96.97069 163.587298 
L 97.693752 162.558045 
L 98.416813 157.739512 
L 99.139874 157.279667 
L 99.862936 161.396998 
L 100.585997 162.010232 
L 101.309059 155.396142 
L 102.03212 158.199357 
L 102.755181 155.023629 
L 103.478243 156.447308 
L 104.201304 146.504103 
L 104.924365 150.555839 
L 105.647427 145.540379 
L 106.370488 145.671788 
L 107.093549 142.474158 
L 107.816611 142.233241 
L 108.539672 142.736977 
L 109.262733 141.357178 
L 109.985795 138.969906 
L 110.708856 133.231693 
L 111.431917 138.8823 
L 112.154979 134.896213 
L 112.87804 134.195363 
L 113.601101 134.107756 
L 114.324163 132.005205 
L 115.047224 134.304871 
L 115.770285 130.800619 
L 116.493347 132.946973 
L 117.216408 131.326256 
L 117.93947 130.625406 
L 118.662531 126.442205 
L 119.385592 125.062406 
L 120.108654 123.375985 
L 120.831715 123.638804 
L 121.554776 120.703993 
L 122.277838 122.215201 
L 123.000899 121.010615 
L 123.72396 119.346095 
L 124.447022 120.441174 
L 125.170083 118.754752 
L 125.893144 118.097705 
L 126.616206 115.097189 
L 127.339267 115.469516 
L 128.062328 115.535221 
L 128.78539 112.469 
L 129.508451 114.308733 
L 130.231512 112.907032 
L 130.954574 113.366965 
L 131.677635 113.564079 
L 132.400696 112.622312 
L 133.123758 112.403296 
L 133.846819 111.395823 
L 134.569881 110.760678 
L 135.292942 111.220611 
L 136.016003 110.913989 
L 136.739065 110.804481 
L 137.462126 111.286315 
L 138.185187 110.65117 
L 138.908249 140.174493 
L 139.63131 145.255658 
L 140.354371 142.977894 
L 141.077433 141.926619 
L 141.800494 142.78078 
L 142.523555 139.889772 
L 143.246617 135.159032 
L 143.969678 138.006237 
L 144.692739 134.042052 
L 145.415801 135.378048 
L 146.138862 138.816595 
L 146.861923 139.99928 
L 147.584985 134.764804 
L 148.308046 131.961402 
L 149.031108 138.269056 
L 149.754169 130.713012 
L 150.47723 139.145119 
L 151.200292 135.750375 
L 151.923353 127.602989 
L 153.369476 131.479568 
L 154.092537 130.012162 
L 154.815598 130.82252 
L 156.261721 128.58856 
L 156.984782 128.741871 
L 157.707844 129.57413 
L 158.430905 127.186859 
L 159.153966 128.58856 
L 159.877028 128.325741 
L 160.600089 124.690079 
L 161.32315 129.596032 
L 162.046212 126.113682 
L 162.769273 123.244575 
L 164.215396 128.610461 
L 164.938457 126.858335 
L 165.661519 125.631847 
L 166.38458 122.521823 
L 167.107641 123.003658 
L 167.830703 121.382941 
L 168.553764 125.325225 
L 169.276825 122.675134 
L 169.999887 118.776654 
L 170.722948 122.302808 
L 171.446009 121.799071 
L 172.169071 121.601957 
L 172.892132 119.915536 
L 173.615193 116.586497 
L 174.338255 116.257973 
L 175.061316 118.426229 
L 175.784377 115.425713 
L 176.507439 119.674619 
L 177.2305 114.812469 
L 177.953561 120.769697 
L 178.676623 113.607882 
L 179.399684 113.739292 
L 180.122745 111.746249 
L 180.845807 113.213654 
L 181.568868 117.593969 
L 182.29193 114.527749 
L 183.014991 113.104146 
L 183.738052 111.198709 
L 184.461114 115.885646 
L 185.184175 108.833339 
L 185.907236 111.439626 
L 186.630298 115.425713 
L 188.07642 112.228083 
L 188.799482 111.877658 
L 189.522543 111.76815 
L 190.245604 110.147434 
L 190.968666 109.074256 
L 191.691727 109.249469 
L 192.414788 107.935374 
L 193.13785 106.993607 
L 193.860911 108.504815 
L 194.583972 107.606851 
L 195.307034 105.526201 
L 196.030095 104.891056 
L 196.753157 105.416693 
L 197.476218 105.635709 
L 198.199279 103.182733 
L 198.922341 106.665083 
L 199.645402 105.000563 
L 200.368463 104.190205 
L 201.091525 104.474926 
L 201.814586 102.021949 
L 203.260709 100.861166 
L 203.98377 100.445036 
L 204.706831 100.729756 
L 205.429893 100.532642 
L 206.152954 101.277296 
L 206.876015 99.875595 
L 207.599077 101.189689 
L 208.322138 98.846221 
L 209.045199 99.656579 
L 209.768261 98.254878 
L 210.491322 99.306154 
L 211.214383 98.254878 
L 211.937445 99.80989 
L 212.660506 99.590874 
L 213.383568 98.955729 
L 214.106629 97.466422 
L 214.82969 97.269307 
L 215.552752 97.225504 
L 216.275813 97.773044 
L 216.998874 97.838748 
L 217.721936 97.269307 
L 218.444997 97.115996 
L 219.168058 97.948256 
L 219.89112 97.619733 
L 220.614181 97.006489 
L 221.337242 96.940784 
L 222.060304 97.225504 
L 223.506426 97.225504 
L 224.229488 96.524654 
L 224.952549 97.115996 
L 225.67561 133.691627 
L 226.398672 127.362071 
L 227.121733 134.173461 
L 227.844794 129.223705 
L 228.567856 135.531359 
L 230.013979 130.932028 
L 230.73704 133.691627 
L 231.460101 126.398402 
L 232.183163 128.698067 
L 232.906224 134.480083 
L 233.629285 125.434733 
L 234.352347 124.295851 
L 235.075408 127.033548 
L 235.798469 126.967843 
L 236.521531 127.734398 
L 237.244592 128.741871 
L 237.967653 130.253079 
L 238.690715 128.676166 
L 239.413776 125.128111 
L 240.136837 126.376501 
L 240.859899 123.748312 
L 241.58296 127.537284 
L 242.306021 122.06189 
L 243.029083 125.522339 
L 244.475206 128.676166 
L 245.198267 123.770213 
L 245.921328 121.207729 
L 246.64439 123.156969 
L 247.367451 122.543725 
L 248.090512 125.741355 
L 248.813574 126.310796 
L 249.536635 124.492965 
L 250.259696 128.347642 
L 250.982758 123.332182 
L 251.705819 125.456634 
L 252.42888 126.836434 
L 253.151942 120.200256 
L 253.875003 122.762741 
L 254.598064 124.295851 
L 255.321126 122.346611 
L 256.044187 121.667662 
L 256.767248 118.535737 
L 257.49031 122.324709 
L 258.213371 127.997217 
L 258.936432 118.99567 
L 259.659494 123.901623 
L 260.382555 122.390414 
L 261.105617 121.163926 
L 261.828678 127.164957 
L 262.551739 119.784127 
L 263.274801 121.317237 
L 263.997862 120.682091 
L 264.720923 119.565111 
L 265.443985 121.273434 
L 266.167046 122.499922 
L 266.890107 120.463075 
L 267.613169 125.084308 
L 268.33623 118.86426 
L 269.059291 125.193816 
L 269.782353 117.900591 
L 270.505414 119.674619 
L 271.228475 118.601441 
L 271.951537 119.718422 
L 272.674598 118.251016 
L 273.397659 116.017056 
L 274.120721 114.243028 
L 274.843782 119.477504 
L 275.566843 118.053902 
L 276.289905 115.206697 
L 277.012966 116.433186 
L 277.736028 112.249985 
L 278.459089 116.958823 
L 279.18215 119.4118 
L 280.628273 112.359493 
L 281.351334 111.264414 
L 282.074396 115.360008 
L 282.797457 115.951351 
L 283.520518 119.017571 
L 284.24358 119.346095 
L 284.966641 116.871217 
L 285.689702 118.272918 
L 287.135825 112.009067 
L 287.858886 110.344548 
L 288.581948 115.754237 
L 289.305009 118.272918 
L 290.02807 117.002626 
L 290.751132 114.024012 
L 291.474193 112.797524 
L 292.197255 113.498375 
L 292.920316 114.593453 
L 293.643377 117.374953 
L 294.366439 111.527233 
L 295.0895 115.075288 
L 295.812561 113.892603 
L 296.535623 114.921977 
L 297.258684 113.980209 
L 297.981745 110.432154 
L 298.704807 114.856272 
L 299.427868 111.439626 
L 300.150929 111.264414 
L 300.873991 111.286315 
L 301.597052 113.629784 
L 302.320113 112.359493 
L 303.043175 112.425197 
L 303.766236 110.913989 
L 304.489297 111.198709 
L 305.212359 110.191237 
L 305.93542 107.891571 
L 306.658481 111.658642 
L 307.381543 110.475957 
L 308.104604 108.723831 
L 308.827666 111.35202 
L 309.550727 110.563563 
L 310.273788 112.206182 
L 310.99685 110.388351 
L 311.719911 111.702445 
L 312.442972 107.365934 
L 313.166034 107.935374 
L 313.889095 105.942331 
L 314.612156 106.183248 
L 315.335218 107.957276 
L 316.058279 107.760162 
L 316.78134 108.2858 
L 317.504402 107.979178 
L 318.227463 106.161347 
L 318.950524 108.461012 
L 319.673586 108.745733 
L 320.396647 107.103115 
L 321.119708 107.803965 
L 321.84277 103.83978 
L 322.565831 107.475441 
L 323.288892 104.496827 
L 324.011954 105.110071 
L 324.735015 106.161347 
L 325.458077 103.752174 
L 326.181138 106.643182 
L 326.904199 104.67204 
L 327.627261 104.584434 
L 328.350322 104.869154 
L 329.073383 103.42365 
L 329.796445 103.073225 
L 330.519506 104.737745 
L 331.242567 105.548103 
L 331.965629 103.445552 
L 332.68869 103.664567 
L 333.411751 99.80989 
L 334.134813 102.678996 
L 334.857874 102.985619 
L 335.580935 100.116512 
L 336.303997 100.313626 
L 337.027058 101.299197 
L 337.750119 101.47441 
L 338.473181 100.532642 
L 339.196242 102.503784 
L 339.919304 101.802934 
L 340.642365 100.839264 
L 341.365426 98.583402 
L 342.088488 101.47441 
L 342.811549 99.766087 
L 343.53461 100.817363 
L 344.257672 99.897496 
L 344.980733 98.495796 
L 345.703794 98.736713 
L 346.426856 97.072193 
L 347.149917 96.524654 
L 347.872978 99.80989 
L 348.59604 98.736713 
L 349.319101 98.14537 
L 350.042162 98.824319 
L 350.765224 98.758615 
L 351.488285 94.903937 
L 352.211346 97.663536 
L 352.934408 94.66302 
L 354.38053 96.918882 
L 355.103592 95.845705 
L 355.826653 96.656063 
L 357.272776 93.502237 
L 357.995837 96.305638 
L 359.44196 93.633646 
L 360.165021 94.947741 
L 360.888083 94.203087 
L 361.611144 94.071678 
L 362.334205 95.714296 
L 363.057267 93.786957 
L 363.780328 94.356398 
L 364.503389 93.83076 
L 365.226451 93.96217 
L 365.949512 92.757583 
L 366.672573 93.064205 
L 367.395635 94.3783 
L 368.118696 96.458949 
L 368.841757 96.590359 
L 369.564819 94.093579 
L 370.28788 98.890024 
L 371.010941 98.14537 
L 371.734003 98.167272 
L 372.457064 99.875595 
L 373.180126 98.999532 
L 373.903187 99.218548 
L 374.626248 95.298166 
L 375.34931 98.890024 
L 376.072371 99.744185 
L 376.795432 98.232977 
L 377.518494 98.758615 
L 378.241555 97.291209 
L 379.687678 98.714811 
L 380.410739 98.605304 
L 381.1338 98.649107 
L 381.856862 97.773044 
L 382.579923 99.744185 
L 383.302984 99.568973 
L 384.026046 99.612776 
L 384.749107 100.488839 
L 385.472168 99.174745 
L 386.19523 97.094095 
L 386.918291 100.445036 
L 387.641353 96.32754 
L 388.364414 98.868122 
L 389.087475 99.459465 
L 389.810537 100.379331 
L 390.533598 96.502752 
L 391.256659 100.204119 
L 391.979721 96.787473 
L 392.702782 99.371859 
L 393.425843 98.955729 
L 394.148905 98.101567 
L 394.871966 99.634678 
L 395.595027 97.02839 
L 396.318089 100.291725 
L 397.04115 98.627205 
L 397.764211 101.211591 
L 398.487273 100.620248 
L 398.487273 100.620248 
" clip-path="url(#p9c61cdee36)" style="fill: none; stroke: #2ca02c; stroke-width: 1.5; stroke-linecap: square"/>
   </g>
   <g id="line2d_22">
    <path d="M 367.395635 53.568 
L 368.118696 55.632223 
L 368.841757 55.187621 
L 369.564819 57.156573 
L 370.28788 56.394398 
L 371.010941 57.66469 
L 371.734003 57.347117 
L 372.457064 58.395107 
L 373.180126 58.839709 
L 373.903187 56.521427 
L 374.626248 56.362641 
L 375.34931 55.822767 
L 376.072371 57.505903 
L 376.795432 58.299835 
L 377.518494 55.79101 
L 378.241555 55.918039 
L 378.964616 57.093058 
L 379.687678 56.172097 
L 380.410739 58.299835 
L 381.1338 57.950505 
L 381.856862 59.506612 
L 382.579923 59.284311 
L 383.302984 60.078243 
L 384.749107 58.141049 
L 385.472168 58.36335 
L 386.19523 59.41134 
L 386.918291 58.998495 
L 387.641353 60.522845 
L 388.364414 59.41134 
L 389.087475 62.714098 
L 389.810537 59.919457 
L 390.533598 63.539787 
L 391.256659 60.364059 
L 391.979721 60.999204 
L 392.702782 62.841127 
L 393.425843 62.745855 
L 394.148905 61.221505 
L 394.871966 60.745146 
L 395.595027 61.062719 
L 396.318089 60.427573 
L 397.764211 62.555311 
L 398.487273 62.110709 
L 398.487273 62.110709 
" clip-path="url(#p9c61cdee36)" style="fill: none; stroke: #d62728; stroke-width: 1.5; stroke-linecap: square"/>
   </g>
   <g id="line2d_23">
    <path d="M 367.395635 92.319552 
L 368.118696 95.670493 
L 369.564819 97.094095 
L 370.28788 94.071678 
L 371.010941 96.940784 
L 371.734003 97.269307 
L 372.457064 97.992059 
L 373.180126 99.087138 
L 373.903187 95.845705 
L 374.626248 95.539083 
L 375.34931 93.589843 
L 376.072371 96.283737 
L 377.518494 95.670493 
L 378.241555 95.714296 
L 378.964616 98.035863 
L 379.687678 93.940268 
L 381.1338 97.247406 
L 381.856862 100.138414 
L 382.579923 97.773044 
L 383.302984 98.933827 
L 384.026046 99.52517 
L 384.749107 95.736197 
L 385.472168 95.823804 
L 386.19523 98.539599 
L 386.918291 96.875079 
L 387.641353 98.605304 
L 389.087475 100.598347 
L 389.810537 101.145886 
L 390.533598 102.394276 
L 391.256659 98.342485 
L 391.979721 100.072709 
L 392.702782 100.313626 
L 393.425843 101.781032 
L 394.148905 101.540115 
L 394.871966 99.437563 
L 395.595027 100.050808 
L 396.318089 97.816847 
L 397.04115 99.875595 
L 397.764211 99.503268 
L 398.487273 99.80989 
L 398.487273 99.80989 
" clip-path="url(#p9c61cdee36)" style="fill: none; stroke: #9467bd; stroke-width: 1.5; stroke-linecap: square"/>
   </g>
   <g id="patch_3">
    <path d="M 57.6 307.584 
L 57.6 41.472 
" style="fill: none; stroke: #000000; stroke-width: 0.8; stroke-linejoin: miter; stroke-linecap: square"/>
   </g>
   <g id="patch_4">
    <path d="M 414.72 307.584 
L 414.72 41.472 
" style="fill: none; stroke: #000000; stroke-width: 0.8; stroke-linejoin: miter; stroke-linecap: square"/>
   </g>
   <g id="patch_5">
    <path d="M 57.6 307.584 
L 414.72 307.584 
" style="fill: none; stroke: #000000; stroke-width: 0.8; stroke-linejoin: miter; stroke-linecap: square"/>
   </g>
   <g id="patch_6">
    <path d="M 57.6 41.472 
L 414.72 41.472 
" style="fill: none; stroke: #000000; stroke-width: 0.8; stroke-linejoin: miter; stroke-linecap: square"/>
   </g>
   <g id="text_21">
    <!-- Learning Curves -->
    <g transform="translate(187.37625 35.472) scale(0.12 -0.12)">
     <defs>
      <path id="DejaVuSans-4c" d="M 628 4666 
L 1259 4666 
L 1259 531 
L 3531 531 
L 3531 0 
L 628 0 
L 628 4666 
z
" transform="scale(0.015625)"/>
      <path id="DejaVuSans-65" d="M 3597 1894 
L 3597 1613 
L 953 1613 
Q 991 1019 1311 708 
Q 1631 397 2203 397 
Q 2534 397 2845 478 
Q 3156 559 3463 722 
L 3463 178 
Q 3153 47 2828 -22 
Q 2503 -91 2169 -91 
Q 1331 -91 842 396 
Q 353 884 353 1716 
Q 353 2575 817 3079 
Q 1281 3584 2069 3584 
Q 2775 3584 3186 3129 
Q 3597 2675 3597 1894 
z
M 3022 2063 
Q 3016 2534 2758 2815 
Q 2500 3097 2075 3097 
Q 1594 3097 1305 2825 
Q 1016 2553 972 2059 
L 3022 2063 
z
" transform="scale(0.015625)"/>
      <path id="DejaVuSans-6e" d="M 3513 2113 
L 3513 0 
L 2938 0 
L 2938 2094 
Q 2938 2591 2744 2837 
Q 2550 3084 2163 3084 
Q 1697 3084 1428 2787 
Q 1159 2491 1159 1978 
L 1159 0 
L 581 0 
L 581 3500 
L 1159 3500 
L 1159 2956 
Q 1366 3272 1645 3428 
Q 1925 3584 2291 3584 
Q 2894 3584 3203 3211 
Q 3513 2838 3513 2113 
z
" transform="scale(0.015625)"/>
      <path id="DejaVuSans-69" d="M 603 3500 
L 1178 3500 
L 1178 0 
L 603 0 
L 603 3500 
z
M 603 4863 
L 1178 4863 
L 1178 4134 
L 603 4134 
L 603 4863 
z
" transform="scale(0.015625)"/>
      <path id="DejaVuSans-67" d="M 2906 1791 
Q 2906 2416 2648 2759 
Q 2391 3103 1925 3103 
Q 1463 3103 1205 2759 
Q 947 2416 947 1791 
Q 947 1169 1205 825 
Q 1463 481 1925 481 
Q 2391 481 2648 825 
Q 2906 1169 2906 1791 
z
M 3481 434 
Q 3481 -459 3084 -895 
Q 2688 -1331 1869 -1331 
Q 1566 -1331 1297 -1286 
Q 1028 -1241 775 -1147 
L 775 -588 
Q 1028 -725 1275 -790 
Q 1522 -856 1778 -856 
Q 2344 -856 2625 -561 
Q 2906 -266 2906 331 
L 2906 616 
Q 2728 306 2450 153 
Q 2172 0 1784 0 
Q 1141 0 747 490 
Q 353 981 353 1791 
Q 353 2603 747 3093 
Q 1141 3584 1784 3584 
Q 2172 3584 2450 3431 
Q 2728 3278 2906 2969 
L 2906 3500 
L 3481 3500 
L 3481 434 
z
" transform="scale(0.015625)"/>
      <path id="DejaVuSans-20" transform="scale(0.015625)"/>
      <path id="DejaVuSans-43" d="M 4122 4306 
L 4122 3641 
Q 3803 3938 3442 4084 
Q 3081 4231 2675 4231 
Q 1875 4231 1450 3742 
Q 1025 3253 1025 2328 
Q 1025 1406 1450 917 
Q 1875 428 2675 428 
Q 3081 428 3442 575 
Q 3803 722 4122 1019 
L 4122 359 
Q 3791 134 3420 21 
Q 3050 -91 2638 -91 
Q 1578 -91 968 557 
Q 359 1206 359 2328 
Q 359 3453 968 4101 
Q 1578 4750 2638 4750 
Q 3056 4750 3426 4639 
Q 3797 4528 4122 4306 
z
" transform="scale(0.015625)"/>
      <path id="DejaVuSans-76" d="M 191 3500 
L 800 3500 
L 1894 563 
L 2988 3500 
L 3597 3500 
L 2284 0 
L 1503 0 
L 191 3500 
z
" transform="scale(0.015625)"/>
     </defs>
     <use xlink:href="#DejaVuSans-4c"/>
     <use xlink:href="#DejaVuSans-65" x="53.962891"/>
     <use xlink:href="#DejaVuSans-61" x="115.486328"/>
     <use xlink:href="#DejaVuSans-72" x="176.765625"/>
     <use xlink:href="#DejaVuSans-6e" x="216.128906"/>
     <use xlink:href="#DejaVuSans-69" x="279.507812"/>
     <use xlink:href="#DejaVuSans-6e" x="307.291016"/>
     <use xlink:href="#DejaVuSans-67" x="370.669922"/>
     <use xlink:href="#DejaVuSans-20" x="434.146484"/>
     <use xlink:href="#DejaVuSans-43" x="465.933594"/>
     <use xlink:href="#DejaVuSans-75" x="535.757812"/>
     <use xlink:href="#DejaVuSans-72" x="599.136719"/>
     <use xlink:href="#DejaVuSans-76" x="640.25"/>
     <use xlink:href="#DejaVuSans-65" x="699.429688"/>
     <use xlink:href="#DejaVuSans-73" x="760.953125"/>
    </g>
   </g>
   <g id="legend_1">
    <g id="patch_7">
     <path d="M 214.18875 302.584 
L 407.72 302.584 
Q 409.72 302.584 409.72 300.584 
L 409.72 228.193375 
Q 409.72 226.193375 407.72 226.193375 
L 214.18875 226.193375 
Q 212.18875 226.193375 212.18875 228.193375 
L 212.18875 300.584 
Q 212.18875 302.584 214.18875 302.584 
z
" style="fill: #ffffff; opacity: 0.8; stroke: #cccccc; stroke-linejoin: miter"/>
    </g>
    <g id="line2d_24">
     <path d="M 216.18875 234.291812 
L 226.18875 234.291812 
L 236.18875 234.291812 
" style="fill: none; stroke: #1f77b4; stroke-width: 1.5; stroke-linecap: square"/>
    </g>
    <g id="text_22">
     <!-- Train Accuracy -->
     <g transform="translate(244.18875 237.791812) scale(0.1 -0.1)">
      <defs>
       <path id="DejaVuSans-54" d="M -19 4666 
L 3928 4666 
L 3928 4134 
L 2272 4134 
L 2272 0 
L 1638 0 
L 1638 4134 
L -19 4134 
L -19 4666 
z
" transform="scale(0.015625)"/>
      </defs>
      <use xlink:href="#DejaVuSans-54"/>
      <use xlink:href="#DejaVuSans-72" x="46.333984"/>
      <use xlink:href="#DejaVuSans-61" x="87.447266"/>
      <use xlink:href="#DejaVuSans-69" x="148.726562"/>
      <use xlink:href="#DejaVuSans-6e" x="176.509766"/>
      <use xlink:href="#DejaVuSans-20" x="239.888672"/>
      <use xlink:href="#DejaVuSans-41" x="271.675781"/>
      <use xlink:href="#DejaVuSans-63" x="338.333984"/>
      <use xlink:href="#DejaVuSans-63" x="393.314453"/>
      <use xlink:href="#DejaVuSans-75" x="448.294922"/>
      <use xlink:href="#DejaVuSans-72" x="511.673828"/>
      <use xlink:href="#DejaVuSans-61" x="552.787109"/>
      <use xlink:href="#DejaVuSans-63" x="614.066406"/>
      <use xlink:href="#DejaVuSans-79" x="669.046875"/>
     </g>
    </g>
    <g id="line2d_25">
     <path d="M 216.18875 248.969937 
L 226.18875 248.969937 
L 236.18875 248.969937 
" style="fill: none; stroke: #ff7f0e; stroke-width: 1.5; stroke-linecap: square"/>
    </g>
    <g id="text_23">
     <!-- Validation Accuracy -->
     <g transform="translate(244.18875 252.469937) scale(0.1 -0.1)">
      <defs>
       <path id="DejaVuSans-56" d="M 1831 0 
L 50 4666 
L 709 4666 
L 2188 738 
L 3669 4666 
L 4325 4666 
L 2547 0 
L 1831 0 
z
" transform="scale(0.015625)"/>
       <path id="DejaVuSans-6c" d="M 603 4863 
L 1178 4863 
L 1178 0 
L 603 0 
L 603 4863 
z
" transform="scale(0.015625)"/>
       <path id="DejaVuSans-64" d="M 2906 2969 
L 2906 4863 
L 3481 4863 
L 3481 0 
L 2906 0 
L 2906 525 
Q 2725 213 2448 61 
Q 2172 -91 1784 -91 
Q 1150 -91 751 415 
Q 353 922 353 1747 
Q 353 2572 751 3078 
Q 1150 3584 1784 3584 
Q 2172 3584 2448 3432 
Q 2725 3281 2906 2969 
z
M 947 1747 
Q 947 1113 1208 752 
Q 1469 391 1925 391 
Q 2381 391 2643 752 
Q 2906 1113 2906 1747 
Q 2906 2381 2643 2742 
Q 2381 3103 1925 3103 
Q 1469 3103 1208 2742 
Q 947 2381 947 1747 
z
" transform="scale(0.015625)"/>
       <path id="DejaVuSans-74" d="M 1172 4494 
L 1172 3500 
L 2356 3500 
L 2356 3053 
L 1172 3053 
L 1172 1153 
Q 1172 725 1289 603 
Q 1406 481 1766 481 
L 2356 481 
L 2356 0 
L 1766 0 
Q 1100 0 847 248 
Q 594 497 594 1153 
L 594 3053 
L 172 3053 
L 172 3500 
L 594 3500 
L 594 4494 
L 1172 4494 
z
" transform="scale(0.015625)"/>
      </defs>
      <use xlink:href="#DejaVuSans-56"/>
      <use xlink:href="#DejaVuSans-61" x="60.658203"/>
      <use xlink:href="#DejaVuSans-6c" x="121.9375"/>
      <use xlink:href="#DejaVuSans-69" x="149.720703"/>
      <use xlink:href="#DejaVuSans-64" x="177.503906"/>
      <use xlink:href="#DejaVuSans-61" x="240.980469"/>
      <use xlink:href="#DejaVuSans-74" x="302.259766"/>
      <use xlink:href="#DejaVuSans-69" x="341.46875"/>
      <use xlink:href="#DejaVuSans-6f" x="369.251953"/>
      <use xlink:href="#DejaVuSans-6e" x="430.433594"/>
      <use xlink:href="#DejaVuSans-20" x="493.8125"/>
      <use xlink:href="#DejaVuSans-41" x="525.599609"/>
      <use xlink:href="#DejaVuSans-63" x="592.257812"/>
      <use xlink:href="#DejaVuSans-63" x="647.238281"/>
      <use xlink:href="#DejaVuSans-75" x="702.21875"/>
      <use xlink:href="#DejaVuSans-72" x="765.597656"/>
      <use xlink:href="#DejaVuSans-61" x="806.710938"/>
      <use xlink:href="#DejaVuSans-63" x="867.990234"/>
      <use xlink:href="#DejaVuSans-79" x="922.970703"/>
     </g>
    </g>
    <g id="line2d_26">
     <path d="M 216.18875 263.648062 
L 226.18875 263.648062 
L 236.18875 263.648062 
" style="fill: none; stroke: #2ca02c; stroke-width: 1.5; stroke-linecap: square"/>
    </g>
    <g id="text_24">
     <!-- Robust Validation Accuracy -->
     <g transform="translate(244.18875 267.148062) scale(0.1 -0.1)">
      <defs>
       <path id="DejaVuSans-52" d="M 2841 2188 
Q 3044 2119 3236 1894 
Q 3428 1669 3622 1275 
L 4263 0 
L 3584 0 
L 2988 1197 
Q 2756 1666 2539 1819 
Q 2322 1972 1947 1972 
L 1259 1972 
L 1259 0 
L 628 0 
L 628 4666 
L 2053 4666 
Q 2853 4666 3247 4331 
Q 3641 3997 3641 3322 
Q 3641 2881 3436 2590 
Q 3231 2300 2841 2188 
z
M 1259 4147 
L 1259 2491 
L 2053 2491 
Q 2509 2491 2742 2702 
Q 2975 2913 2975 3322 
Q 2975 3731 2742 3939 
Q 2509 4147 2053 4147 
L 1259 4147 
z
" transform="scale(0.015625)"/>
       <path id="DejaVuSans-62" d="M 3116 1747 
Q 3116 2381 2855 2742 
Q 2594 3103 2138 3103 
Q 1681 3103 1420 2742 
Q 1159 2381 1159 1747 
Q 1159 1113 1420 752 
Q 1681 391 2138 391 
Q 2594 391 2855 752 
Q 3116 1113 3116 1747 
z
M 1159 2969 
Q 1341 3281 1617 3432 
Q 1894 3584 2278 3584 
Q 2916 3584 3314 3078 
Q 3713 2572 3713 1747 
Q 3713 922 3314 415 
Q 2916 -91 2278 -91 
Q 1894 -91 1617 61 
Q 1341 213 1159 525 
L 1159 0 
L 581 0 
L 581 4863 
L 1159 4863 
L 1159 2969 
z
" transform="scale(0.015625)"/>
      </defs>
      <use xlink:href="#DejaVuSans-52"/>
      <use xlink:href="#DejaVuSans-6f" x="64.982422"/>
      <use xlink:href="#DejaVuSans-62" x="126.164062"/>
      <use xlink:href="#DejaVuSans-75" x="189.640625"/>
      <use xlink:href="#DejaVuSans-73" x="253.019531"/>
      <use xlink:href="#DejaVuSans-74" x="305.119141"/>
      <use xlink:href="#DejaVuSans-20" x="344.328125"/>
      <use xlink:href="#DejaVuSans-56" x="376.115234"/>
      <use xlink:href="#DejaVuSans-61" x="436.773438"/>
      <use xlink:href="#DejaVuSans-6c" x="498.052734"/>
      <use xlink:href="#DejaVuSans-69" x="525.835938"/>
      <use xlink:href="#DejaVuSans-64" x="553.619141"/>
      <use xlink:href="#DejaVuSans-61" x="617.095703"/>
      <use xlink:href="#DejaVuSans-74" x="678.375"/>
      <use xlink:href="#DejaVuSans-69" x="717.583984"/>
      <use xlink:href="#DejaVuSans-6f" x="745.367188"/>
      <use xlink:href="#DejaVuSans-6e" x="806.548828"/>
      <use xlink:href="#DejaVuSans-20" x="869.927734"/>
      <use xlink:href="#DejaVuSans-41" x="901.714844"/>
      <use xlink:href="#DejaVuSans-63" x="968.373047"/>
      <use xlink:href="#DejaVuSans-63" x="1023.353516"/>
      <use xlink:href="#DejaVuSans-75" x="1078.333984"/>
      <use xlink:href="#DejaVuSans-72" x="1141.712891"/>
      <use xlink:href="#DejaVuSans-61" x="1182.826172"/>
      <use xlink:href="#DejaVuSans-63" x="1244.105469"/>
      <use xlink:href="#DejaVuSans-79" x="1299.085938"/>
     </g>
    </g>
    <g id="line2d_27">
     <path d="M 216.18875 278.326188 
L 226.18875 278.326188 
L 236.18875 278.326188 
" style="fill: none; stroke: #d62728; stroke-width: 1.5; stroke-linecap: square"/>
    </g>
    <g id="text_25">
     <!-- SWA Validation Accuracy -->
     <g transform="translate(244.18875 281.826188) scale(0.1 -0.1)">
      <defs>
       <path id="DejaVuSans-53" d="M 3425 4513 
L 3425 3897 
Q 3066 4069 2747 4153 
Q 2428 4238 2131 4238 
Q 1616 4238 1336 4038 
Q 1056 3838 1056 3469 
Q 1056 3159 1242 3001 
Q 1428 2844 1947 2747 
L 2328 2669 
Q 3034 2534 3370 2195 
Q 3706 1856 3706 1288 
Q 3706 609 3251 259 
Q 2797 -91 1919 -91 
Q 1588 -91 1214 -16 
Q 841 59 441 206 
L 441 856 
Q 825 641 1194 531 
Q 1563 422 1919 422 
Q 2459 422 2753 634 
Q 3047 847 3047 1241 
Q 3047 1584 2836 1778 
Q 2625 1972 2144 2069 
L 1759 2144 
Q 1053 2284 737 2584 
Q 422 2884 422 3419 
Q 422 4038 858 4394 
Q 1294 4750 2059 4750 
Q 2388 4750 2728 4690 
Q 3069 4631 3425 4513 
z
" transform="scale(0.015625)"/>
       <path id="DejaVuSans-57" d="M 213 4666 
L 850 4666 
L 1831 722 
L 2809 4666 
L 3519 4666 
L 4500 722 
L 5478 4666 
L 6119 4666 
L 4947 0 
L 4153 0 
L 3169 4050 
L 2175 0 
L 1381 0 
L 213 4666 
z
" transform="scale(0.015625)"/>
      </defs>
      <use xlink:href="#DejaVuSans-53"/>
      <use xlink:href="#DejaVuSans-57" x="63.476562"/>
      <use xlink:href="#DejaVuSans-41" x="156.853516"/>
      <use xlink:href="#DejaVuSans-20" x="225.261719"/>
      <use xlink:href="#DejaVuSans-56" x="257.048828"/>
      <use xlink:href="#DejaVuSans-61" x="317.707031"/>
      <use xlink:href="#DejaVuSans-6c" x="378.986328"/>
      <use xlink:href="#DejaVuSans-69" x="406.769531"/>
      <use xlink:href="#DejaVuSans-64" x="434.552734"/>
      <use xlink:href="#DejaVuSans-61" x="498.029297"/>
      <use xlink:href="#DejaVuSans-74" x="559.308594"/>
      <use xlink:href="#DejaVuSans-69" x="598.517578"/>
      <use xlink:href="#DejaVuSans-6f" x="626.300781"/>
      <use xlink:href="#DejaVuSans-6e" x="687.482422"/>
      <use xlink:href="#DejaVuSans-20" x="750.861328"/>
      <use xlink:href="#DejaVuSans-41" x="782.648438"/>
      <use xlink:href="#DejaVuSans-63" x="849.306641"/>
      <use xlink:href="#DejaVuSans-63" x="904.287109"/>
      <use xlink:href="#DejaVuSans-75" x="959.267578"/>
      <use xlink:href="#DejaVuSans-72" x="1022.646484"/>
      <use xlink:href="#DejaVuSans-61" x="1063.759766"/>
      <use xlink:href="#DejaVuSans-63" x="1125.039062"/>
      <use xlink:href="#DejaVuSans-79" x="1180.019531"/>
     </g>
    </g>
    <g id="line2d_28">
     <path d="M 216.18875 293.004312 
L 226.18875 293.004312 
L 236.18875 293.004312 
" style="fill: none; stroke: #9467bd; stroke-width: 1.5; stroke-linecap: square"/>
    </g>
    <g id="text_26">
     <!-- SWA Robust Validation Accuracy -->
     <g transform="translate(244.18875 296.504312) scale(0.1 -0.1)">
      <use xlink:href="#DejaVuSans-53"/>
      <use xlink:href="#DejaVuSans-57" x="63.476562"/>
      <use xlink:href="#DejaVuSans-41" x="156.853516"/>
      <use xlink:href="#DejaVuSans-20" x="225.261719"/>
      <use xlink:href="#DejaVuSans-52" x="257.048828"/>
      <use xlink:href="#DejaVuSans-6f" x="322.03125"/>
      <use xlink:href="#DejaVuSans-62" x="383.212891"/>
      <use xlink:href="#DejaVuSans-75" x="446.689453"/>
      <use xlink:href="#DejaVuSans-73" x="510.068359"/>
      <use xlink:href="#DejaVuSans-74" x="562.167969"/>
      <use xlink:href="#DejaVuSans-20" x="601.376953"/>
      <use xlink:href="#DejaVuSans-56" x="633.164062"/>
      <use xlink:href="#DejaVuSans-61" x="693.822266"/>
      <use xlink:href="#DejaVuSans-6c" x="755.101562"/>
      <use xlink:href="#DejaVuSans-69" x="782.884766"/>
      <use xlink:href="#DejaVuSans-64" x="810.667969"/>
      <use xlink:href="#DejaVuSans-61" x="874.144531"/>
      <use xlink:href="#DejaVuSans-74" x="935.423828"/>
      <use xlink:href="#DejaVuSans-69" x="974.632812"/>
      <use xlink:href="#DejaVuSans-6f" x="1002.416016"/>
      <use xlink:href="#DejaVuSans-6e" x="1063.597656"/>
      <use xlink:href="#DejaVuSans-20" x="1126.976562"/>
      <use xlink:href="#DejaVuSans-41" x="1158.763672"/>
      <use xlink:href="#DejaVuSans-63" x="1225.421875"/>
      <use xlink:href="#DejaVuSans-63" x="1280.402344"/>
      <use xlink:href="#DejaVuSans-75" x="1335.382812"/>
      <use xlink:href="#DejaVuSans-72" x="1398.761719"/>
      <use xlink:href="#DejaVuSans-61" x="1439.875"/>
      <use xlink:href="#DejaVuSans-63" x="1501.154297"/>
      <use xlink:href="#DejaVuSans-79" x="1556.134766"/>
     </g>
    </g>
   </g>
  </g>
 </g>
 <defs>
  <clipPath id="p9c61cdee36">
   <rect x="57.6" y="41.472" width="357.12" height="266.112"/>
  </clipPath>
 </defs>
</svg>
