<?xml version="1.0" encoding="utf-8" standalone="no"?>
<!DOCTYPE svg PUBLIC "-//W3C//DTD SVG 1.1//EN"
  "http://www.w3.org/Graphics/SVG/1.1/DTD/svg11.dtd">
<svg xmlns:xlink="http://www.w3.org/1999/xlink" width="460.8pt" height="345.6pt" viewBox="0 0 460.8 345.6" xmlns="http://www.w3.org/2000/svg" version="1.1">
 <metadata>
  <rdf:RDF xmlns:dc="http://purl.org/dc/elements/1.1/" xmlns:cc="http://creativecommons.org/ns#" xmlns:rdf="http://www.w3.org/1999/02/22-rdf-syntax-ns#">
   <cc:Work>
    <dc:type rdf:resource="http://purl.org/dc/dcmitype/StillImage"/>
    <dc:date>2025-06-24T13:16:21.428616</dc:date>
    <dc:format>image/svg+xml</dc:format>
    <dc:creator>
     <cc:Agent>
      <dc:title>Matplotlib v3.9.1, https://matplotlib.org/</dc:title>
     </cc:Agent>
    </dc:creator>
   </cc:Work>
  </rdf:RDF>
 </metadata>
 <defs>
  <style type="text/css">*{stroke-linejoin: round; stroke-linecap: butt}</style>
 </defs>
 <g id="figure_1">
  <g id="patch_1">
   <path d="M 0 345.6 
L 460.8 345.6 
L 460.8 0 
L 0 0 
z
" style="fill: #ffffff"/>
  </g>
  <g id="axes_1">
   <g id="patch_2">
    <path d="M 57.6 307.584 
L 414.72 307.584 
L 414.72 41.472 
L 57.6 41.472 
z
" style="fill: #ffffff"/>
   </g>
   <g id="matplotlib.axis_1">
    <g id="xtick_1">
     <g id="line2d_1">
      <defs>
       <path id="m92703d3759" d="M 0 0 
L 0 3.5 
" style="stroke: #000000; stroke-width: 0.8"/>
      </defs>
      <g>
       <use xlink:href="#m92703d3759" x="73.832727" y="307.584" style="stroke: #000000; stroke-width: 0.8"/>
      </g>
     </g>
     <g id="text_1">
      <!-- 1 -->
      <g transform="translate(70.651477 322.182437) scale(0.1 -0.1)">
       <defs>
        <path id="DejaVuSans-31" d="M 794 531 
L 1825 531 
L 1825 4091 
L 703 3866 
L 703 4441 
L 1819 4666 
L 2450 4666 
L 2450 531 
L 3481 531 
L 3481 0 
L 794 0 
L 794 531 
z
" transform="scale(0.015625)"/>
       </defs>
       <use xlink:href="#DejaVuSans-31"/>
      </g>
     </g>
    </g>
    <g id="xtick_2">
     <g id="line2d_2">
      <g>
       <use xlink:href="#m92703d3759" x="109.664165" y="307.584" style="stroke: #000000; stroke-width: 0.8"/>
      </g>
     </g>
     <g id="text_2">
      <!-- 34 -->
      <g transform="translate(103.301665 322.182437) scale(0.1 -0.1)">
       <defs>
        <path id="DejaVuSans-33" d="M 2597 2516 
Q 3050 2419 3304 2112 
Q 3559 1806 3559 1356 
Q 3559 666 3084 287 
Q 2609 -91 1734 -91 
Q 1441 -91 1130 -33 
Q 819 25 488 141 
L 488 750 
Q 750 597 1062 519 
Q 1375 441 1716 441 
Q 2309 441 2620 675 
Q 2931 909 2931 1356 
Q 2931 1769 2642 2001 
Q 2353 2234 1838 2234 
L 1294 2234 
L 1294 2753 
L 1863 2753 
Q 2328 2753 2575 2939 
Q 2822 3125 2822 3475 
Q 2822 3834 2567 4026 
Q 2313 4219 1838 4219 
Q 1578 4219 1281 4162 
Q 984 4106 628 3988 
L 628 4550 
Q 988 4650 1302 4700 
Q 1616 4750 1894 4750 
Q 2613 4750 3031 4423 
Q 3450 4097 3450 3541 
Q 3450 3153 3228 2886 
Q 3006 2619 2597 2516 
z
" transform="scale(0.015625)"/>
        <path id="DejaVuSans-34" d="M 2419 4116 
L 825 1625 
L 2419 1625 
L 2419 4116 
z
M 2253 4666 
L 3047 4666 
L 3047 1625 
L 3713 1625 
L 3713 1100 
L 3047 1100 
L 3047 0 
L 2419 0 
L 2419 1100 
L 313 1100 
L 313 1709 
L 2253 4666 
z
" transform="scale(0.015625)"/>
       </defs>
       <use xlink:href="#DejaVuSans-33"/>
       <use xlink:href="#DejaVuSans-34" x="63.623047"/>
      </g>
     </g>
    </g>
    <g id="xtick_3">
     <g id="line2d_3">
      <g>
       <use xlink:href="#m92703d3759" x="145.495604" y="307.584" style="stroke: #000000; stroke-width: 0.8"/>
      </g>
     </g>
     <g id="text_3">
      <!-- 67 -->
      <g transform="translate(139.133104 322.182437) scale(0.1 -0.1)">
       <defs>
        <path id="DejaVuSans-36" d="M 2113 2584 
Q 1688 2584 1439 2293 
Q 1191 2003 1191 1497 
Q 1191 994 1439 701 
Q 1688 409 2113 409 
Q 2538 409 2786 701 
Q 3034 994 3034 1497 
Q 3034 2003 2786 2293 
Q 2538 2584 2113 2584 
z
M 3366 4563 
L 3366 3988 
Q 3128 4100 2886 4159 
Q 2644 4219 2406 4219 
Q 1781 4219 1451 3797 
Q 1122 3375 1075 2522 
Q 1259 2794 1537 2939 
Q 1816 3084 2150 3084 
Q 2853 3084 3261 2657 
Q 3669 2231 3669 1497 
Q 3669 778 3244 343 
Q 2819 -91 2113 -91 
Q 1303 -91 875 529 
Q 447 1150 447 2328 
Q 447 3434 972 4092 
Q 1497 4750 2381 4750 
Q 2619 4750 2861 4703 
Q 3103 4656 3366 4563 
z
" transform="scale(0.015625)"/>
        <path id="DejaVuSans-37" d="M 525 4666 
L 3525 4666 
L 3525 4397 
L 1831 0 
L 1172 0 
L 2766 4134 
L 525 4134 
L 525 4666 
z
" transform="scale(0.015625)"/>
       </defs>
       <use xlink:href="#DejaVuSans-36"/>
       <use xlink:href="#DejaVuSans-37" x="63.623047"/>
      </g>
     </g>
    </g>
    <g id="xtick_4">
     <g id="line2d_4">
      <g>
       <use xlink:href="#m92703d3759" x="181.327042" y="307.584" style="stroke: #000000; stroke-width: 0.8"/>
      </g>
     </g>
     <g id="text_4">
      <!-- 100 -->
      <g transform="translate(171.783292 322.182437) scale(0.1 -0.1)">
       <defs>
        <path id="DejaVuSans-30" d="M 2034 4250 
Q 1547 4250 1301 3770 
Q 1056 3291 1056 2328 
Q 1056 1369 1301 889 
Q 1547 409 2034 409 
Q 2525 409 2770 889 
Q 3016 1369 3016 2328 
Q 3016 3291 2770 3770 
Q 2525 4250 2034 4250 
z
M 2034 4750 
Q 2819 4750 3233 4129 
Q 3647 3509 3647 2328 
Q 3647 1150 3233 529 
Q 2819 -91 2034 -91 
Q 1250 -91 836 529 
Q 422 1150 422 2328 
Q 422 3509 836 4129 
Q 1250 4750 2034 4750 
z
" transform="scale(0.015625)"/>
       </defs>
       <use xlink:href="#DejaVuSans-31"/>
       <use xlink:href="#DejaVuSans-30" x="63.623047"/>
       <use xlink:href="#DejaVuSans-30" x="127.246094"/>
      </g>
     </g>
    </g>
    <g id="xtick_5">
     <g id="line2d_5">
      <g>
       <use xlink:href="#m92703d3759" x="217.15848" y="307.584" style="stroke: #000000; stroke-width: 0.8"/>
      </g>
     </g>
     <g id="text_5">
      <!-- 133 -->
      <g transform="translate(207.61473 322.182437) scale(0.1 -0.1)">
       <use xlink:href="#DejaVuSans-31"/>
       <use xlink:href="#DejaVuSans-33" x="63.623047"/>
       <use xlink:href="#DejaVuSans-33" x="127.246094"/>
      </g>
     </g>
    </g>
    <g id="xtick_6">
     <g id="line2d_6">
      <g>
       <use xlink:href="#m92703d3759" x="254.075719" y="307.584" style="stroke: #000000; stroke-width: 0.8"/>
      </g>
     </g>
     <g id="text_6">
      <!-- 167 -->
      <g transform="translate(244.531969 322.182437) scale(0.1 -0.1)">
       <use xlink:href="#DejaVuSans-31"/>
       <use xlink:href="#DejaVuSans-36" x="63.623047"/>
       <use xlink:href="#DejaVuSans-37" x="127.246094"/>
      </g>
     </g>
    </g>
    <g id="xtick_7">
     <g id="line2d_7">
      <g>
       <use xlink:href="#m92703d3759" x="289.907157" y="307.584" style="stroke: #000000; stroke-width: 0.8"/>
      </g>
     </g>
     <g id="text_7">
      <!-- 200 -->
      <g transform="translate(280.363407 322.182437) scale(0.1 -0.1)">
       <defs>
        <path id="DejaVuSans-32" d="M 1228 531 
L 3431 531 
L 3431 0 
L 469 0 
L 469 531 
Q 828 903 1448 1529 
Q 2069 2156 2228 2338 
Q 2531 2678 2651 2914 
Q 2772 3150 2772 3378 
Q 2772 3750 2511 3984 
Q 2250 4219 1831 4219 
Q 1534 4219 1204 4116 
Q 875 4013 500 3803 
L 500 4441 
Q 881 4594 1212 4672 
Q 1544 4750 1819 4750 
Q 2544 4750 2975 4387 
Q 3406 4025 3406 3419 
Q 3406 3131 3298 2873 
Q 3191 2616 2906 2266 
Q 2828 2175 2409 1742 
Q 1991 1309 1228 531 
z
" transform="scale(0.015625)"/>
       </defs>
       <use xlink:href="#DejaVuSans-32"/>
       <use xlink:href="#DejaVuSans-30" x="63.623047"/>
       <use xlink:href="#DejaVuSans-30" x="127.246094"/>
      </g>
     </g>
    </g>
    <g id="xtick_8">
     <g id="line2d_8">
      <g>
       <use xlink:href="#m92703d3759" x="325.738595" y="307.584" style="stroke: #000000; stroke-width: 0.8"/>
      </g>
     </g>
     <g id="text_8">
      <!-- 233 -->
      <g transform="translate(316.194845 322.182437) scale(0.1 -0.1)">
       <use xlink:href="#DejaVuSans-32"/>
       <use xlink:href="#DejaVuSans-33" x="63.623047"/>
       <use xlink:href="#DejaVuSans-33" x="127.246094"/>
      </g>
     </g>
    </g>
    <g id="xtick_9">
     <g id="line2d_9">
      <g>
       <use xlink:href="#m92703d3759" x="361.570033" y="307.584" style="stroke: #000000; stroke-width: 0.8"/>
      </g>
     </g>
     <g id="text_9">
      <!-- 266 -->
      <g transform="translate(352.026283 322.182437) scale(0.1 -0.1)">
       <use xlink:href="#DejaVuSans-32"/>
       <use xlink:href="#DejaVuSans-36" x="63.623047"/>
       <use xlink:href="#DejaVuSans-36" x="127.246094"/>
      </g>
     </g>
    </g>
    <g id="xtick_10">
     <g id="line2d_10">
      <g>
       <use xlink:href="#m92703d3759" x="398.487273" y="307.584" style="stroke: #000000; stroke-width: 0.8"/>
      </g>
     </g>
     <g id="text_10">
      <!-- 300 -->
      <g transform="translate(388.943523 322.182437) scale(0.1 -0.1)">
       <use xlink:href="#DejaVuSans-33"/>
       <use xlink:href="#DejaVuSans-30" x="63.623047"/>
       <use xlink:href="#DejaVuSans-30" x="127.246094"/>
      </g>
     </g>
    </g>
    <g id="text_11">
     <!-- Epochs -->
     <g transform="translate(218.244375 335.860562) scale(0.1 -0.1)">
      <defs>
       <path id="DejaVuSans-45" d="M 628 4666 
L 3578 4666 
L 3578 4134 
L 1259 4134 
L 1259 2753 
L 3481 2753 
L 3481 2222 
L 1259 2222 
L 1259 531 
L 3634 531 
L 3634 0 
L 628 0 
L 628 4666 
z
" transform="scale(0.015625)"/>
       <path id="DejaVuSans-70" d="M 1159 525 
L 1159 -1331 
L 581 -1331 
L 581 3500 
L 1159 3500 
L 1159 2969 
Q 1341 3281 1617 3432 
Q 1894 3584 2278 3584 
Q 2916 3584 3314 3078 
Q 3713 2572 3713 1747 
Q 3713 922 3314 415 
Q 2916 -91 2278 -91 
Q 1894 -91 1617 61 
Q 1341 213 1159 525 
z
M 3116 1747 
Q 3116 2381 2855 2742 
Q 2594 3103 2138 3103 
Q 1681 3103 1420 2742 
Q 1159 2381 1159 1747 
Q 1159 1113 1420 752 
Q 1681 391 2138 391 
Q 2594 391 2855 752 
Q 3116 1113 3116 1747 
z
" transform="scale(0.015625)"/>
       <path id="DejaVuSans-6f" d="M 1959 3097 
Q 1497 3097 1228 2736 
Q 959 2375 959 1747 
Q 959 1119 1226 758 
Q 1494 397 1959 397 
Q 2419 397 2687 759 
Q 2956 1122 2956 1747 
Q 2956 2369 2687 2733 
Q 2419 3097 1959 3097 
z
M 1959 3584 
Q 2709 3584 3137 3096 
Q 3566 2609 3566 1747 
Q 3566 888 3137 398 
Q 2709 -91 1959 -91 
Q 1206 -91 779 398 
Q 353 888 353 1747 
Q 353 2609 779 3096 
Q 1206 3584 1959 3584 
z
" transform="scale(0.015625)"/>
       <path id="DejaVuSans-63" d="M 3122 3366 
L 3122 2828 
Q 2878 2963 2633 3030 
Q 2388 3097 2138 3097 
Q 1578 3097 1268 2742 
Q 959 2388 959 1747 
Q 959 1106 1268 751 
Q 1578 397 2138 397 
Q 2388 397 2633 464 
Q 2878 531 3122 666 
L 3122 134 
Q 2881 22 2623 -34 
Q 2366 -91 2075 -91 
Q 1284 -91 818 406 
Q 353 903 353 1747 
Q 353 2603 823 3093 
Q 1294 3584 2113 3584 
Q 2378 3584 2631 3529 
Q 2884 3475 3122 3366 
z
" transform="scale(0.015625)"/>
       <path id="DejaVuSans-68" d="M 3513 2113 
L 3513 0 
L 2938 0 
L 2938 2094 
Q 2938 2591 2744 2837 
Q 2550 3084 2163 3084 
Q 1697 3084 1428 2787 
Q 1159 2491 1159 1978 
L 1159 0 
L 581 0 
L 581 4863 
L 1159 4863 
L 1159 2956 
Q 1366 3272 1645 3428 
Q 1925 3584 2291 3584 
Q 2894 3584 3203 3211 
Q 3513 2838 3513 2113 
z
" transform="scale(0.015625)"/>
       <path id="DejaVuSans-73" d="M 2834 3397 
L 2834 2853 
Q 2591 2978 2328 3040 
Q 2066 3103 1784 3103 
Q 1356 3103 1142 2972 
Q 928 2841 928 2578 
Q 928 2378 1081 2264 
Q 1234 2150 1697 2047 
L 1894 2003 
Q 2506 1872 2764 1633 
Q 3022 1394 3022 966 
Q 3022 478 2636 193 
Q 2250 -91 1575 -91 
Q 1294 -91 989 -36 
Q 684 19 347 128 
L 347 722 
Q 666 556 975 473 
Q 1284 391 1588 391 
Q 1994 391 2212 530 
Q 2431 669 2431 922 
Q 2431 1156 2273 1281 
Q 2116 1406 1581 1522 
L 1381 1569 
Q 847 1681 609 1914 
Q 372 2147 372 2553 
Q 372 3047 722 3315 
Q 1072 3584 1716 3584 
Q 2034 3584 2315 3537 
Q 2597 3491 2834 3397 
z
" transform="scale(0.015625)"/>
      </defs>
      <use xlink:href="#DejaVuSans-45"/>
      <use xlink:href="#DejaVuSans-70" x="63.183594"/>
      <use xlink:href="#DejaVuSans-6f" x="126.660156"/>
      <use xlink:href="#DejaVuSans-63" x="187.841797"/>
      <use xlink:href="#DejaVuSans-68" x="242.822266"/>
      <use xlink:href="#DejaVuSans-73" x="306.201172"/>
     </g>
    </g>
   </g>
   <g id="matplotlib.axis_2">
    <g id="ytick_1">
     <g id="line2d_11">
      <defs>
       <path id="m775852c8bb" d="M 0 0 
L -3.5 0 
" style="stroke: #000000; stroke-width: 0.8"/>
      </defs>
      <g>
       <use xlink:href="#m775852c8bb" x="57.6" y="284.942034" style="stroke: #000000; stroke-width: 0.8"/>
      </g>
     </g>
     <g id="text_12">
      <!-- 10 -->
      <g transform="translate(37.875 288.741253) scale(0.1 -0.1)">
       <use xlink:href="#DejaVuSans-31"/>
       <use xlink:href="#DejaVuSans-30" x="63.623047"/>
      </g>
     </g>
    </g>
    <g id="ytick_2">
     <g id="line2d_12">
      <g>
       <use xlink:href="#m775852c8bb" x="57.6" y="253.081109" style="stroke: #000000; stroke-width: 0.8"/>
      </g>
     </g>
     <g id="text_13">
      <!-- 20 -->
      <g transform="translate(37.875 256.880328) scale(0.1 -0.1)">
       <use xlink:href="#DejaVuSans-32"/>
       <use xlink:href="#DejaVuSans-30" x="63.623047"/>
      </g>
     </g>
    </g>
    <g id="ytick_3">
     <g id="line2d_13">
      <g>
       <use xlink:href="#m775852c8bb" x="57.6" y="221.220185" style="stroke: #000000; stroke-width: 0.8"/>
      </g>
     </g>
     <g id="text_14">
      <!-- 30 -->
      <g transform="translate(37.875 225.019404) scale(0.1 -0.1)">
       <use xlink:href="#DejaVuSans-33"/>
       <use xlink:href="#DejaVuSans-30" x="63.623047"/>
      </g>
     </g>
    </g>
    <g id="ytick_4">
     <g id="line2d_14">
      <g>
       <use xlink:href="#m775852c8bb" x="57.6" y="189.35926" style="stroke: #000000; stroke-width: 0.8"/>
      </g>
     </g>
     <g id="text_15">
      <!-- 40 -->
      <g transform="translate(37.875 193.158479) scale(0.1 -0.1)">
       <use xlink:href="#DejaVuSans-34"/>
       <use xlink:href="#DejaVuSans-30" x="63.623047"/>
      </g>
     </g>
    </g>
    <g id="ytick_5">
     <g id="line2d_15">
      <g>
       <use xlink:href="#m775852c8bb" x="57.6" y="157.498336" style="stroke: #000000; stroke-width: 0.8"/>
      </g>
     </g>
     <g id="text_16">
      <!-- 50 -->
      <g transform="translate(37.875 161.297555) scale(0.1 -0.1)">
       <defs>
        <path id="DejaVuSans-35" d="M 691 4666 
L 3169 4666 
L 3169 4134 
L 1269 4134 
L 1269 2991 
Q 1406 3038 1543 3061 
Q 1681 3084 1819 3084 
Q 2600 3084 3056 2656 
Q 3513 2228 3513 1497 
Q 3513 744 3044 326 
Q 2575 -91 1722 -91 
Q 1428 -91 1123 -41 
Q 819 9 494 109 
L 494 744 
Q 775 591 1075 516 
Q 1375 441 1709 441 
Q 2250 441 2565 725 
Q 2881 1009 2881 1497 
Q 2881 1984 2565 2268 
Q 2250 2553 1709 2553 
Q 1456 2553 1204 2497 
Q 953 2441 691 2322 
L 691 4666 
z
" transform="scale(0.015625)"/>
       </defs>
       <use xlink:href="#DejaVuSans-35"/>
       <use xlink:href="#DejaVuSans-30" x="63.623047"/>
      </g>
     </g>
    </g>
    <g id="ytick_6">
     <g id="line2d_16">
      <g>
       <use xlink:href="#m775852c8bb" x="57.6" y="125.637411" style="stroke: #000000; stroke-width: 0.8"/>
      </g>
     </g>
     <g id="text_17">
      <!-- 60 -->
      <g transform="translate(37.875 129.43663) scale(0.1 -0.1)">
       <use xlink:href="#DejaVuSans-36"/>
       <use xlink:href="#DejaVuSans-30" x="63.623047"/>
      </g>
     </g>
    </g>
    <g id="ytick_7">
     <g id="line2d_17">
      <g>
       <use xlink:href="#m775852c8bb" x="57.6" y="93.776487" style="stroke: #000000; stroke-width: 0.8"/>
      </g>
     </g>
     <g id="text_18">
      <!-- 70 -->
      <g transform="translate(37.875 97.575706) scale(0.1 -0.1)">
       <use xlink:href="#DejaVuSans-37"/>
       <use xlink:href="#DejaVuSans-30" x="63.623047"/>
      </g>
     </g>
    </g>
    <g id="ytick_8">
     <g id="line2d_18">
      <g>
       <use xlink:href="#m775852c8bb" x="57.6" y="61.915562" style="stroke: #000000; stroke-width: 0.8"/>
      </g>
     </g>
     <g id="text_19">
      <!-- 80 -->
      <g transform="translate(37.875 65.714781) scale(0.1 -0.1)">
       <defs>
        <path id="DejaVuSans-38" d="M 2034 2216 
Q 1584 2216 1326 1975 
Q 1069 1734 1069 1313 
Q 1069 891 1326 650 
Q 1584 409 2034 409 
Q 2484 409 2743 651 
Q 3003 894 3003 1313 
Q 3003 1734 2745 1975 
Q 2488 2216 2034 2216 
z
M 1403 2484 
Q 997 2584 770 2862 
Q 544 3141 544 3541 
Q 544 4100 942 4425 
Q 1341 4750 2034 4750 
Q 2731 4750 3128 4425 
Q 3525 4100 3525 3541 
Q 3525 3141 3298 2862 
Q 3072 2584 2669 2484 
Q 3125 2378 3379 2068 
Q 3634 1759 3634 1313 
Q 3634 634 3220 271 
Q 2806 -91 2034 -91 
Q 1263 -91 848 271 
Q 434 634 434 1313 
Q 434 1759 690 2068 
Q 947 2378 1403 2484 
z
M 1172 3481 
Q 1172 3119 1398 2916 
Q 1625 2713 2034 2713 
Q 2441 2713 2670 2916 
Q 2900 3119 2900 3481 
Q 2900 3844 2670 4047 
Q 2441 4250 2034 4250 
Q 1625 4250 1398 4047 
Q 1172 3844 1172 3481 
z
" transform="scale(0.015625)"/>
       </defs>
       <use xlink:href="#DejaVuSans-38"/>
       <use xlink:href="#DejaVuSans-30" x="63.623047"/>
      </g>
     </g>
    </g>
    <g id="text_20">
     <!-- Accuracy -->
     <g transform="translate(31.795312 197.356125) rotate(-90) scale(0.1 -0.1)">
      <defs>
       <path id="DejaVuSans-41" d="M 2188 4044 
L 1331 1722 
L 3047 1722 
L 2188 4044 
z
M 1831 4666 
L 2547 4666 
L 4325 0 
L 3669 0 
L 3244 1197 
L 1141 1197 
L 716 0 
L 50 0 
L 1831 4666 
z
" transform="scale(0.015625)"/>
       <path id="DejaVuSans-75" d="M 544 1381 
L 544 3500 
L 1119 3500 
L 1119 1403 
Q 1119 906 1312 657 
Q 1506 409 1894 409 
Q 2359 409 2629 706 
Q 2900 1003 2900 1516 
L 2900 3500 
L 3475 3500 
L 3475 0 
L 2900 0 
L 2900 538 
Q 2691 219 2414 64 
Q 2138 -91 1772 -91 
Q 1169 -91 856 284 
Q 544 659 544 1381 
z
M 1991 3584 
L 1991 3584 
z
" transform="scale(0.015625)"/>
       <path id="DejaVuSans-72" d="M 2631 2963 
Q 2534 3019 2420 3045 
Q 2306 3072 2169 3072 
Q 1681 3072 1420 2755 
Q 1159 2438 1159 1844 
L 1159 0 
L 581 0 
L 581 3500 
L 1159 3500 
L 1159 2956 
Q 1341 3275 1631 3429 
Q 1922 3584 2338 3584 
Q 2397 3584 2469 3576 
Q 2541 3569 2628 3553 
L 2631 2963 
z
" transform="scale(0.015625)"/>
       <path id="DejaVuSans-61" d="M 2194 1759 
Q 1497 1759 1228 1600 
Q 959 1441 959 1056 
Q 959 750 1161 570 
Q 1363 391 1709 391 
Q 2188 391 2477 730 
Q 2766 1069 2766 1631 
L 2766 1759 
L 2194 1759 
z
M 3341 1997 
L 3341 0 
L 2766 0 
L 2766 531 
Q 2569 213 2275 61 
Q 1981 -91 1556 -91 
Q 1019 -91 701 211 
Q 384 513 384 1019 
Q 384 1609 779 1909 
Q 1175 2209 1959 2209 
L 2766 2209 
L 2766 2266 
Q 2766 2663 2505 2880 
Q 2244 3097 1772 3097 
Q 1472 3097 1187 3025 
Q 903 2953 641 2809 
L 641 3341 
Q 956 3463 1253 3523 
Q 1550 3584 1831 3584 
Q 2591 3584 2966 3190 
Q 3341 2797 3341 1997 
z
" transform="scale(0.015625)"/>
       <path id="DejaVuSans-79" d="M 2059 -325 
Q 1816 -950 1584 -1140 
Q 1353 -1331 966 -1331 
L 506 -1331 
L 506 -850 
L 844 -850 
Q 1081 -850 1212 -737 
Q 1344 -625 1503 -206 
L 1606 56 
L 191 3500 
L 800 3500 
L 1894 763 
L 2988 3500 
L 3597 3500 
L 2059 -325 
z
" transform="scale(0.015625)"/>
      </defs>
      <use xlink:href="#DejaVuSans-41"/>
      <use xlink:href="#DejaVuSans-63" x="66.658203"/>
      <use xlink:href="#DejaVuSans-63" x="121.638672"/>
      <use xlink:href="#DejaVuSans-75" x="176.619141"/>
      <use xlink:href="#DejaVuSans-72" x="239.998047"/>
      <use xlink:href="#DejaVuSans-61" x="281.111328"/>
      <use xlink:href="#DejaVuSans-63" x="342.390625"/>
      <use xlink:href="#DejaVuSans-79" x="397.371094"/>
     </g>
    </g>
   </g>
   <g id="line2d_19">
    <path d="M 73.832727 295.488 
L 77.090131 217.753716 
L 78.175932 199.580245 
L 79.261733 184.586494 
L 81.433335 165.221424 
L 82.519137 157.402753 
L 83.604938 151.170756 
L 84.690739 146.289663 
L 85.77654 139.751801 
L 86.862341 135.743697 
L 87.948142 131.079257 
L 89.033943 127.338785 
L 91.205546 121.476375 
L 92.291347 118.545169 
L 94.462949 115.913457 
L 95.54875 144.027537 
L 96.634552 142.593795 
L 97.720353 139.643474 
L 98.806154 138.133266 
L 99.891955 134.106045 
L 100.977756 132.296345 
L 102.063557 131.002791 
L 103.149358 128.046097 
L 104.23516 124.108087 
L 105.320961 121.540096 
L 106.406762 120.603385 
L 107.492563 119.010339 
L 110.749967 112.810203 
L 111.835768 111.204412 
L 112.921569 108.859448 
L 114.00737 108.508978 
L 115.093171 105.660612 
L 116.178972 103.882772 
L 117.264773 102.723034 
L 118.350575 100.040345 
L 119.436376 99.097261 
L 120.522177 97.975757 
L 121.607978 96.280755 
L 122.693779 92.565772 
L 123.77958 92.623121 
L 124.865382 89.016465 
L 125.951183 89.647311 
L 128.122785 87.971426 
L 129.208586 86.161726 
L 131.380189 84.109882 
L 133.551791 82.708002 
L 134.637592 82.051667 
L 135.723393 81.185049 
L 136.809194 81.27426 
L 137.894995 79.999823 
L 138.980797 108.770238 
L 140.066598 112.166612 
L 141.152399 110.197607 
L 143.324001 109.840765 
L 144.409802 110.465239 
L 145.495604 107.591384 
L 146.581405 106.960537 
L 147.667206 106.686533 
L 148.753007 106.049315 
L 149.838808 104.895949 
L 150.924609 104.8386 
L 152.01041 104.341569 
L 153.096212 101.881906 
L 154.182013 101.034405 
L 156.353615 100.511886 
L 157.439416 99.103633 
L 158.525217 99.084517 
L 159.611019 97.822824 
L 160.69682 97.886546 
L 161.782621 97.574309 
L 162.868422 95.528838 
L 163.954223 95.73912 
L 165.040024 95.203856 
L 166.125825 93.362295 
L 167.211627 93.598066 
L 168.297428 91.62906 
L 169.383229 91.641805 
L 170.46903 90.22718 
L 171.554831 90.488439 
L 172.640632 89.857593 
L 173.726434 86.926388 
L 174.812235 87.652817 
L 175.898036 87.162159 
L 176.983837 85.607346 
L 178.069638 85.377947 
L 179.155439 85.804883 
L 180.24124 83.472664 
L 181.327042 82.618791 
L 182.412843 83.128566 
L 183.498644 80.764485 
L 184.584445 81.121328 
L 185.670246 80.248338 
L 186.756047 79.585631 
L 187.841849 79.324371 
L 188.92765 78.09454 
L 190.013451 77.470066 
L 191.099252 76.450516 
L 192.185053 73.888898 
L 193.270854 75.15059 
L 194.356656 75.552038 
L 195.442457 74.137413 
L 196.528258 73.270796 
L 197.614059 71.397373 
L 198.69986 72.23213 
L 199.785661 70.80476 
L 200.871462 71.41649 
L 201.957264 69.517579 
L 203.043065 69.460229 
L 204.128866 67.701506 
L 205.214667 67.287314 
L 206.300468 68.243142 
L 207.386269 66.235904 
L 208.472071 65.789851 
L 209.557872 66.095716 
L 210.643673 65.668779 
L 211.729474 63.763496 
L 212.815275 63.999267 
L 213.901076 63.27921 
L 216.072679 63.559586 
L 217.15848 62.418965 
L 218.244281 63.846334 
L 220.415883 62.412593 
L 221.501684 62.202311 
L 222.587486 61.603325 
L 223.673287 61.743513 
L 224.759088 61.724397 
L 225.844889 90.494812 
L 226.93069 93.81472 
L 228.016491 95.592559 
L 229.102292 95.025435 
L 230.188094 94.808781 
L 231.273895 94.394589 
L 232.359696 94.216168 
L 233.445497 95.057296 
L 234.531298 94.005885 
L 235.617099 93.846581 
L 236.702901 93.20299 
L 238.874503 91.310451 
L 239.960304 91.450639 
L 241.046105 92.393723 
L 242.131906 90.590394 
L 243.217708 92.24079 
L 244.303509 91.348684 
L 245.38931 89.647311 
L 246.475111 90.679605 
L 247.560912 89.341446 
L 248.646713 89.96592 
L 249.732514 90.386484 
L 250.818316 88.908137 
L 251.904117 88.831671 
L 252.989918 88.054265 
L 254.075719 86.849922 
L 255.16152 88.226314 
L 256.247321 86.454846 
L 257.333123 87.238625 
L 258.418924 87.850355 
L 259.504725 86.671501 
L 260.590526 86.703362 
L 261.676327 85.371575 
L 262.762128 85.964188 
L 263.847929 84.912778 
L 264.933731 85.371575 
L 266.019532 85.142176 
L 267.105333 84.619657 
L 268.191134 83.326104 
L 269.276935 82.829073 
L 270.362736 84.192721 
L 271.448538 82.389392 
L 272.534339 83.154055 
L 273.62014 82.516836 
L 274.705941 82.924656 
L 275.791742 82.0899 
L 276.877543 82.038922 
L 277.963344 81.503659 
L 280.134947 80.605181 
L 281.220748 81.433565 
L 282.306549 80.554203 
L 283.39235 80.363038 
L 284.478151 80.547831 
L 285.563953 80.299316 
L 287.735555 79.413582 
L 288.821356 78.081795 
L 290.992958 77.897002 
L 292.07876 78.814597 
L 293.164561 76.877452 
L 294.250362 77.399972 
L 295.336163 75.940741 
L 296.421964 76.444144 
L 297.507765 76.042696 
L 298.593566 76.367678 
L 299.679368 75.144218 
L 301.85097 74.59621 
L 302.936771 73.825176 
L 304.022572 74.851098 
L 305.108373 73.710476 
L 306.194175 72.964931 
L 307.279976 72.894837 
L 308.365777 73.124235 
L 309.451578 72.678183 
L 310.537379 71.480212 
L 311.62318 71.550306 
L 312.708981 70.779271 
L 313.794783 71.645889 
L 314.880584 70.60085 
L 315.966385 69.938143 
L 317.052186 69.033293 
L 318.137987 69.065154 
L 319.223788 69.874421 
L 320.30959 69.625906 
L 321.395391 69.007804 
L 322.481192 69.249947 
L 323.566993 67.172615 
L 324.652794 67.452991 
L 325.738595 67.07066 
L 326.824396 67.07066 
L 327.910198 66.363347 
L 328.995999 66.095716 
L 330.0818 65.681524 
L 331.167601 64.923234 
L 332.253402 64.872256 
L 333.339203 64.986955 
L 334.425005 62.941484 
L 335.510806 64.012011 
L 336.596607 63.158138 
L 337.682408 63.648797 
L 338.768209 63.48312 
L 339.85401 62.845901 
L 340.939811 61.106295 
L 342.025613 61.450393 
L 343.111414 60.558287 
L 344.197215 61.106295 
L 345.283016 60.494565 
L 346.368817 60.813174 
L 347.454618 60.730336 
L 348.54042 59.436782 
L 349.626221 59.277478 
L 350.712022 59.761764 
L 351.797823 58.557421 
L 352.883624 57.754525 
L 353.969425 58.748586 
L 355.055227 57.333961 
L 356.141028 57.028096 
L 357.226829 56.002175 
L 358.31263 56.709487 
L 359.398431 56.097757 
L 360.484232 55.339467 
L 361.570033 54.88067 
L 362.655835 55.205652 
L 363.741636 55.116441 
L 365.913238 54.243452 
L 366.999039 54.052286 
L 368.08484 53.568 
L 369.170642 55.460539 
L 370.256443 55.983058 
L 371.342244 57.773642 
L 372.428045 57.327589 
L 374.599647 59.309339 
L 375.685448 58.155973 
L 377.857051 58.066763 
L 378.942852 57.964808 
L 380.028653 58.277045 
L 381.114454 57.276612 
L 382.200255 58.302533 
L 383.286057 58.52556 
L 384.371858 58.168718 
L 385.457659 58.162345 
L 386.54346 58.46821 
L 387.629261 57.811875 
L 389.800863 58.041274 
L 390.886665 58.946124 
L 391.972466 58.81868 
L 393.058267 58.143229 
L 394.144068 57.818247 
L 395.229869 57.684431 
L 396.31567 57.907458 
L 397.401472 57.168284 
L 398.487273 57.735409 
L 398.487273 57.735409 
" clip-path="url(#pb7f6bfaa30)" style="fill: none; stroke: #1f77b4; stroke-width: 1.5; stroke-linecap: square"/>
   </g>
   <g id="line2d_20">
    <path d="M 73.832727 287.713934 
L 74.918528 257.286751 
L 76.00433 223.482311 
L 77.090131 217.715483 
L 78.175932 191.175333 
L 79.261733 182.636605 
L 80.347534 169.669209 
L 81.433335 161.7677 
L 82.519137 156.223899 
L 83.604938 147.462145 
L 85.77654 133.156589 
L 86.862341 134.016834 
L 87.948142 126.115325 
L 89.033943 124.872749 
L 90.119745 120.221054 
L 91.205546 120.221054 
L 92.291347 118.914756 
L 93.377148 118.054511 
L 94.462949 117.640319 
L 95.54875 142.523701 
L 96.634552 141.631595 
L 97.720353 145.359324 
L 98.806154 132.48751 
L 99.891955 130.607716 
L 100.977756 125.541829 
L 102.063557 125.828577 
L 103.149358 124.044365 
L 104.23516 123.566451 
L 105.320961 120.252915 
L 106.406762 117.895207 
L 107.492563 114.740975 
L 108.578364 112.606293 
L 109.664165 106.29783 
L 110.749967 106.935049 
L 111.835768 103.557791 
L 112.921569 104.035704 
L 114.00737 106.170386 
L 115.093171 102.538241 
L 116.178972 101.646135 
L 117.264773 99.41587 
L 118.350575 96.006751 
L 119.436376 94.126957 
L 120.522177 95.974891 
L 121.607978 92.15158 
L 122.693779 90.271785 
L 123.77958 89.538984 
L 124.865382 90.271785 
L 125.951183 87.372441 
L 127.036984 85.779395 
L 128.122785 86.352891 
L 129.208586 84.186348 
L 130.294387 83.166799 
L 131.380189 82.52958 
L 132.46599 82.051667 
L 133.551791 81.446309 
L 134.637592 81.063978 
L 135.723393 81.000256 
L 136.809194 80.171872 
L 137.894995 80.522342 
L 138.980797 104.800367 
L 140.066598 109.101591 
L 141.152399 105.405724 
L 142.2382 106.743883 
L 143.324001 105.915499 
L 144.409802 107.954598 
L 145.495604 102.347075 
L 146.581405 104.609201 
L 147.667206 101.231943 
L 148.753007 100.913334 
L 149.838808 101.709857 
L 150.924609 101.582413 
L 152.01041 98.077712 
L 154.182013 97.759102 
L 155.267814 101.072638 
L 156.353615 95.465116 
L 157.439416 94.92348 
L 158.525217 93.967652 
L 159.611019 94.318122 
L 160.69682 96.898857 
L 161.782621 96.229778 
L 162.868422 90.909004 
L 163.954223 92.247162 
L 165.040024 92.183441 
L 166.125825 93.234851 
L 167.211627 89.76201 
L 169.383229 89.634567 
L 170.46903 90.048759 
L 171.554831 84.727984 
L 172.640632 86.034282 
L 173.726434 84.027044 
L 174.812235 84.951011 
L 175.898036 81.382587 
L 178.069638 82.752607 
L 179.155439 80.140011 
L 180.24124 82.816329 
L 181.327042 79.916985 
L 182.412843 79.853263 
L 184.584445 78.961157 
L 185.670246 78.73813 
L 186.756047 78.38766 
L 187.841849 77.68672 
L 188.92765 74.914819 
L 190.013451 76.412283 
L 191.099252 75.010402 
L 192.185053 74.723654 
L 193.270854 73.321773 
L 194.356656 72.684555 
L 195.442457 71.378257 
L 196.528258 71.314535 
L 197.614059 71.983614 
L 198.69986 70.326846 
L 199.785661 69.880793 
L 200.871462 68.255886 
L 201.957264 68.701939 
L 203.043065 68.542635 
L 205.214667 67.841694 
L 206.300468 65.9619 
L 207.386269 66.31237 
L 208.472071 65.611429 
L 209.557872 66.184926 
L 210.643673 66.31237 
L 211.729474 64.368853 
L 212.815275 64.878628 
L 213.901076 64.687463 
L 214.986877 64.687463 
L 216.072679 63.859079 
L 217.15848 63.89094 
L 218.244281 63.731635 
L 219.330082 64.496297 
L 220.415883 63.827218 
L 221.501684 63.57233 
L 222.587486 63.9228 
L 223.673287 63.604191 
L 224.759088 63.636052 
L 225.844889 92.820659 
L 226.93069 94.92348 
L 228.016491 94.318122 
L 229.102292 91.801109 
L 230.188094 90.940864 
L 231.273895 91.036447 
L 232.359696 93.585321 
L 233.445497 92.661354 
L 234.531298 92.661354 
L 235.617099 89.953176 
L 236.702901 86.480335 
L 237.788702 88.7106 
L 238.874503 90.526672 
L 239.960304 88.774322 
L 241.046105 91.036447 
L 242.131906 91.323196 
L 243.217708 91.004586 
L 244.303509 88.487573 
L 245.38931 90.494812 
L 246.475111 87.754772 
L 247.560912 83.867739 
L 248.646713 87.053832 
L 249.732514 87.69105 
L 250.818316 88.646878 
L 251.904117 86.63964 
L 252.989918 88.009659 
L 254.075719 87.499885 
L 255.16152 83.262382 
L 256.247321 85.683812 
L 257.333123 86.830805 
L 258.418924 82.816329 
L 259.504725 85.747534 
L 260.590526 85.237759 
L 261.676327 82.784468 
L 262.762128 82.306554 
L 263.847929 83.262382 
L 264.933731 85.078454 
L 266.019532 84.696123 
L 267.105333 82.816329 
L 268.191134 84.154488 
L 269.276935 84.090766 
L 270.362736 80.904673 
L 271.448538 79.279766 
L 272.534339 84.504958 
L 273.62014 83.676574 
L 274.705941 78.642548 
L 275.791742 78.451382 
L 276.877543 81.82864 
L 277.963344 79.120461 
L 279.049146 82.84819 
L 280.134947 80.681647 
L 281.220748 80.77723 
L 282.306549 79.725819 
L 283.39235 79.630236 
L 284.478151 78.03719 
L 285.563953 79.05674 
L 287.735555 79.40721 
L 288.821356 78.164634 
L 289.907157 74.182018 
L 290.992958 78.38766 
L 292.07876 76.762753 
L 293.164561 74.691793 
L 294.250362 76.730892 
L 295.336163 79.534653 
L 296.421964 75.360872 
L 297.507765 78.069051 
L 298.593566 77.240667 
L 299.679368 77.495554 
L 300.765169 73.990853 
L 301.85097 74.628071 
L 302.936771 74.277601 
L 304.022572 74.341323 
L 305.108373 74.914819 
L 306.194175 76.125535 
L 307.279976 73.417356 
L 308.365777 71.728727 
L 309.451578 74.978541 
L 310.537379 73.130608 
L 311.62318 75.96623 
L 312.708981 72.971303 
L 313.794783 72.302224 
L 314.880584 69.275436 
L 315.966385 70.422429 
L 317.052186 72.52525 
L 318.137987 71.410118 
L 319.223788 75.775064 
L 320.30959 71.760588 
L 321.395391 70.613595 
L 322.481192 70.040098 
L 323.566993 68.478913 
L 324.652794 69.530323 
L 325.738595 69.912654 
L 326.824396 69.211714 
L 327.910198 70.549873 
L 328.995999 66.790284 
L 330.0818 66.407953 
L 331.167601 66.503535 
L 332.253402 67.140754 
L 334.425005 65.898178 
L 335.510806 65.515847 
L 336.596607 65.260959 
L 337.682408 66.216787 
L 338.768209 66.758423 
L 339.85401 62.775807 
L 340.939811 65.866317 
L 342.025613 64.273271 
L 343.111414 63.986522 
L 344.197215 63.986522 
L 345.283016 63.508608 
L 346.368817 63.413026 
L 347.454618 63.827218 
L 348.54042 62.775807 
L 349.626221 61.342066 
L 350.712022 63.126277 
L 351.797823 62.17045 
L 352.883624 61.50137 
L 353.969425 60.067629 
L 355.055227 60.991595 
L 357.226829 60.386238 
L 358.31263 61.1509 
L 359.398431 60.672986 
L 360.484232 58.984357 
L 361.570033 58.251556 
L 362.655835 59.940185 
L 363.741636 59.175523 
L 364.827437 59.271105 
L 365.913238 58.283417 
L 368.08484 59.143662 
L 369.170642 60.035768 
L 370.256443 60.290655 
L 371.342244 61.979284 
L 372.428045 61.469509 
L 373.513846 61.342066 
L 374.599647 63.731635 
L 375.685448 62.011145 
L 376.77125 62.202311 
L 377.857051 64.336992 
L 378.942852 61.405787 
L 380.028653 62.775807 
L 381.114454 62.775807 
L 382.200255 63.22186 
L 383.286057 62.552781 
L 384.371858 62.935112 
L 385.457659 62.52092 
L 386.54346 63.413026 
L 387.629261 61.596953 
L 388.715062 61.947423 
L 389.800863 63.094416 
L 390.886665 62.903251 
L 391.972466 62.011145 
L 393.058267 61.278344 
L 394.144068 63.317443 
L 395.229869 62.775807 
L 397.401472 64.783045 
L 398.487273 63.859079 
L 398.487273 63.859079 
" clip-path="url(#pb7f6bfaa30)" style="fill: none; stroke: #ff7f0e; stroke-width: 1.5; stroke-linecap: square"/>
   </g>
   <g id="line2d_21">
    <path d="M 73.832727 291.46803 
L 76.00433 236.271725 
L 77.090131 235.304911 
L 78.175932 213.221994 
L 79.261733 207.487028 
L 80.347534 203.90542 
L 82.519137 191.95208 
L 83.604938 184.503216 
L 84.690739 179.559279 
L 85.77654 170.462436 
L 86.862341 171.583062 
L 87.948142 167.386209 
L 89.033943 164.793389 
L 90.119745 164.090251 
L 91.205546 162.552138 
L 92.291347 161.629269 
L 93.377148 161.255728 
L 94.462949 160.662455 
L 95.54875 180.174525 
L 96.634552 180.350309 
L 97.720353 189.249395 
L 98.806154 173.670502 
L 99.891955 172.50593 
L 100.977756 165.320742 
L 102.063557 168.440915 
L 103.149358 164.046305 
L 104.23516 169.144053 
L 105.320961 164.419847 
L 106.406762 158.135554 
L 107.492563 161.783081 
L 108.578364 160.640482 
L 109.664165 155.103273 
L 110.749967 155.630626 
L 111.835768 151.961127 
L 112.921569 152.158884 
L 114.00737 152.510453 
L 115.093171 155.520761 
L 116.178972 148.709115 
L 117.264773 148.643196 
L 118.350575 145.830646 
L 119.436376 143.655313 
L 120.522177 145.435131 
L 121.607978 138.73335 
L 123.77958 137.195236 
L 124.865382 140.666978 
L 125.951183 136.382233 
L 127.036984 135.613177 
L 128.122785 136.821694 
L 129.208586 134.184928 
L 130.294387 132.690761 
L 131.380189 131.658027 
L 132.46599 132.602869 
L 133.551791 130.888971 
L 134.637592 129.922156 
L 135.723393 129.680453 
L 136.809194 128.933369 
L 137.894995 129.460722 
L 138.980797 150.928393 
L 140.066598 154.004621 
L 141.152399 155.059327 
L 142.2382 156.817171 
L 143.324001 152.949914 
L 144.409802 154.883543 
L 145.495604 148.709115 
L 146.581405 151.609558 
L 147.667206 148.071897 
L 148.753007 149.961579 
L 149.838808 148.467412 
L 150.924609 148.225708 
L 152.01041 145.742753 
L 153.096212 145.566969 
L 154.182013 148.972792 
L 155.267814 148.159789 
L 156.353615 145.2154 
L 157.439416 145.676834 
L 158.525217 146.621675 
L 159.611019 143.809125 
L 160.69682 146.51181 
L 161.782621 148.797007 
L 162.868422 142.600607 
L 163.954223 139.963841 
L 165.040024 147.061136 
L 167.211627 138.997027 
L 168.297428 139.722137 
L 169.383229 138.074158 
L 170.46903 141.897469 
L 171.554831 132.888518 
L 172.640632 135.437392 
L 173.726434 132.97641 
L 174.812235 135.898826 
L 175.898036 130.493456 
L 176.983837 129.768345 
L 178.069638 136.294341 
L 179.155439 128.493908 
L 180.24124 133.987171 
L 181.327042 128.36207 
L 182.412843 128.142339 
L 183.498644 130.866998 
L 184.584445 126.318576 
L 185.670246 125.967007 
L 186.756047 126.516333 
L 187.841849 127.680905 
L 188.92765 125.132031 
L 190.013451 126.428441 
L 191.099252 122.649076 
L 192.185053 123.703783 
L 193.270854 122.627103 
L 194.356656 120.319933 
L 195.442457 122.319481 
L 196.528258 118.122628 
L 197.614059 120.078229 
L 198.69986 118.408277 
L 199.785661 117.661194 
L 200.871462 117.353571 
L 201.957264 116.650433 
L 203.043065 118.320385 
L 204.128866 114.738778 
L 205.214667 115.83743 
L 206.300468 113.222637 
L 207.386269 116.892137 
L 208.472071 113.881829 
L 209.557872 113.837883 
L 210.643673 112.585419 
L 211.729474 114.057613 
L 212.815275 112.849095 
L 213.901076 111.135197 
L 214.986877 112.036092 
L 217.15848 112.585419 
L 218.244281 111.508739 
L 219.330082 111.750443 
L 221.501684 111.574658 
L 222.587486 111.904254 
L 223.673287 111.970173 
L 224.759088 111.772416 
L 225.844889 143.040068 
L 226.93069 144.072801 
L 228.016491 143.12796 
L 229.102292 140.688952 
L 230.188094 143.193879 
L 231.273895 142.62258 
L 232.359696 145.171454 
L 233.445497 139.766083 
L 234.531298 144.907777 
L 235.617099 138.359808 
L 236.702901 137.107344 
L 237.788702 139.348595 
L 238.874503 140.491194 
L 239.960304 139.106892 
L 241.046105 140.183571 
L 242.131906 142.996122 
L 243.217708 137.832455 
L 244.303509 136.909587 
L 245.38931 139.062946 
L 246.475111 137.876401 
L 247.560912 136.975506 
L 248.646713 133.921252 
L 249.732514 131.987623 
L 250.818316 138.513619 
L 251.904117 133.306006 
L 252.989918 136.536045 
L 254.075719 136.536045 
L 255.16152 135.12977 
L 257.333123 135.371473 
L 258.418924 132.493003 
L 259.504725 135.459365 
L 260.590526 137.173263 
L 261.676327 129.37283 
L 262.762128 128.625746 
L 263.847929 135.239635 
L 264.933731 135.085823 
L 266.019532 131.68 
L 267.105333 131.438297 
L 268.191134 135.63515 
L 269.276935 133.349952 
L 270.362736 128.845477 
L 271.448538 128.384043 
L 272.534339 130.95489 
L 273.62014 131.306459 
L 274.705941 126.801983 
L 275.791742 131.17462 
L 276.877543 132.75668 
L 277.963344 126.450414 
L 279.049146 136.008692 
L 280.134947 129.592561 
L 281.220748 133.349952 
L 283.39235 127.219471 
L 284.478151 125.681357 
L 285.563953 128.86745 
L 286.649754 128.5818 
L 287.735555 128.427989 
L 288.821356 127.856689 
L 289.907157 125.70333 
L 290.992958 131.416324 
L 292.07876 124.033379 
L 293.164561 125.70333 
L 294.250362 129.240992 
L 295.336163 127.944582 
L 296.421964 125.000193 
L 297.507765 124.143244 
L 298.593566 127.614986 
L 299.679368 124.714543 
L 300.765169 123.044591 
L 301.85097 119.22128 
L 302.936771 121.660289 
L 304.022572 122.011858 
L 305.108373 122.033831 
L 306.194175 126.582253 
L 307.279976 120.847286 
L 308.365777 121.616343 
L 309.451578 123.11051 
L 310.537379 119.287199 
L 311.62318 123.835621 
L 312.708981 121.660289 
L 313.794783 122.583157 
L 314.880584 116.518595 
L 315.966385 123.352214 
L 317.052186 122.846834 
L 318.137987 118.056709 
L 319.223788 120.979124 
L 320.30959 119.704687 
L 321.395391 120.122175 
L 322.481192 119.265226 
L 323.566993 117.880924 
L 324.652794 117.463436 
L 325.738595 117.331598 
L 326.824396 114.606939 
L 327.910198 117.089894 
L 328.995999 115.507835 
L 331.167601 113.574206 
L 332.253402 116.870164 
L 333.339203 114.716805 
L 334.425005 115.310077 
L 335.510806 112.189904 
L 336.596607 112.343715 
L 337.682408 114.980481 
L 338.768209 116.760299 
L 339.85401 111.552685 
L 340.939811 114.233398 
L 342.025613 112.387661 
L 343.111414 112.5195 
L 344.197215 114.936535 
L 345.283016 110.036545 
L 346.368817 110.278248 
L 347.454618 107.487671 
L 348.54042 109.35538 
L 349.626221 107.971078 
L 350.712022 110.497979 
L 351.797823 110.124437 
L 352.883624 107.729374 
L 353.969425 106.784533 
L 355.055227 106.894398 
L 356.141028 105.773773 
L 357.226829 107.773321 
L 358.31263 106.564803 
L 359.398431 106.586776 
L 360.484232 103.686333 
L 361.570033 106.674668 
L 362.655835 106.345072 
L 363.741636 105.46615 
L 364.827437 107.377806 
L 365.913238 104.587228 
L 366.999039 104.103821 
L 368.08484 104.653147 
L 369.170642 107.817267 
L 370.256443 108.542377 
L 371.342244 106.213234 
L 372.428045 106.916372 
L 373.513846 107.333859 
L 374.599647 110.454033 
L 375.685448 108.696189 
L 376.77125 108.124889 
L 377.857051 109.86076 
L 380.028653 105.048662 
L 381.114454 112.23385 
L 382.200255 111.310982 
L 383.286057 109.311434 
L 384.371858 109.13565 
L 385.457659 111.398874 
L 386.54346 107.641482 
L 387.629261 107.795294 
L 388.715062 108.85 
L 389.800863 112.893041 
L 390.886665 111.508739 
L 391.972466 108.806054 
L 393.058267 109.684976 
L 394.144068 108.322647 
L 395.229869 112.145958 
L 396.31567 110.080491 
L 397.401472 113.090799 
L 398.487273 115.419942 
L 398.487273 115.419942 
" clip-path="url(#pb7f6bfaa30)" style="fill: none; stroke: #2ca02c; stroke-width: 1.5; stroke-linecap: square"/>
   </g>
   <g id="line2d_22">
    <path d="M 368.08484 58.793192 
L 369.170642 59.398549 
L 370.256443 58.793192 
L 371.342244 59.07994 
L 372.428045 60.927874 
L 373.513846 61.119039 
L 374.599647 59.43041 
L 375.685448 60.44996 
L 377.857051 60.545542 
L 378.942852 62.807668 
L 380.028653 62.807668 
L 381.114454 62.011145 
L 382.200255 63.381165 
L 383.286057 61.214622 
L 384.371858 61.437648 
L 385.457659 61.915562 
L 386.54346 64.94235 
L 387.629261 62.775807 
L 388.715062 63.604191 
L 389.800863 62.52092 
L 390.886665 62.074867 
L 391.972466 62.52092 
L 393.058267 63.859079 
L 394.144068 62.52092 
L 395.229869 63.89094 
L 396.31567 66.248648 
L 397.401472 65.197237 
L 398.487273 66.726562 
L 398.487273 66.726562 
" clip-path="url(#pb7f6bfaa30)" style="fill: none; stroke: #d62728; stroke-width: 1.5; stroke-linecap: square"/>
   </g>
   <g id="line2d_23">
    <path d="M 368.08484 103.598441 
L 369.170642 103.598441 
L 370.256443 105.839692 
L 372.428045 105.619961 
L 373.513846 106.652695 
L 374.599647 105.795746 
L 375.685448 107.158075 
L 376.77125 105.004716 
L 377.857051 106.916372 
L 378.942852 106.894398 
L 380.028653 106.740587 
L 381.114454 106.345072 
L 382.200255 108.520404 
L 383.286057 103.730279 
L 384.371858 104.96077 
L 385.457659 105.729827 
L 386.54346 107.729374 
L 387.629261 107.883186 
L 388.715062 110.278248 
L 389.800863 110.036545 
L 390.886665 106.938345 
L 391.972466 110.695736 
L 393.058267 110.124437 
L 394.144068 109.157623 
L 395.229869 110.93744 
L 396.31567 111.15717 
L 397.401472 110.981386 
L 398.487273 109.333407 
L 398.487273 109.333407 
" clip-path="url(#pb7f6bfaa30)" style="fill: none; stroke: #9467bd; stroke-width: 1.5; stroke-linecap: square"/>
   </g>
   <g id="patch_3">
    <path d="M 57.6 307.584 
L 57.6 41.472 
" style="fill: none; stroke: #000000; stroke-width: 0.8; stroke-linejoin: miter; stroke-linecap: square"/>
   </g>
   <g id="patch_4">
    <path d="M 414.72 307.584 
L 414.72 41.472 
" style="fill: none; stroke: #000000; stroke-width: 0.8; stroke-linejoin: miter; stroke-linecap: square"/>
   </g>
   <g id="patch_5">
    <path d="M 57.6 307.584 
L 414.72 307.584 
" style="fill: none; stroke: #000000; stroke-width: 0.8; stroke-linejoin: miter; stroke-linecap: square"/>
   </g>
   <g id="patch_6">
    <path d="M 57.6 41.472 
L 414.72 41.472 
" style="fill: none; stroke: #000000; stroke-width: 0.8; stroke-linejoin: miter; stroke-linecap: square"/>
   </g>
   <g id="text_21">
    <!-- Learning Curves -->
    <g transform="translate(187.37625 35.472) scale(0.12 -0.12)">
     <defs>
      <path id="DejaVuSans-4c" d="M 628 4666 
L 1259 4666 
L 1259 531 
L 3531 531 
L 3531 0 
L 628 0 
L 628 4666 
z
" transform="scale(0.015625)"/>
      <path id="DejaVuSans-65" d="M 3597 1894 
L 3597 1613 
L 953 1613 
Q 991 1019 1311 708 
Q 1631 397 2203 397 
Q 2534 397 2845 478 
Q 3156 559 3463 722 
L 3463 178 
Q 3153 47 2828 -22 
Q 2503 -91 2169 -91 
Q 1331 -91 842 396 
Q 353 884 353 1716 
Q 353 2575 817 3079 
Q 1281 3584 2069 3584 
Q 2775 3584 3186 3129 
Q 3597 2675 3597 1894 
z
M 3022 2063 
Q 3016 2534 2758 2815 
Q 2500 3097 2075 3097 
Q 1594 3097 1305 2825 
Q 1016 2553 972 2059 
L 3022 2063 
z
" transform="scale(0.015625)"/>
      <path id="DejaVuSans-6e" d="M 3513 2113 
L 3513 0 
L 2938 0 
L 2938 2094 
Q 2938 2591 2744 2837 
Q 2550 3084 2163 3084 
Q 1697 3084 1428 2787 
Q 1159 2491 1159 1978 
L 1159 0 
L 581 0 
L 581 3500 
L 1159 3500 
L 1159 2956 
Q 1366 3272 1645 3428 
Q 1925 3584 2291 3584 
Q 2894 3584 3203 3211 
Q 3513 2838 3513 2113 
z
" transform="scale(0.015625)"/>
      <path id="DejaVuSans-69" d="M 603 3500 
L 1178 3500 
L 1178 0 
L 603 0 
L 603 3500 
z
M 603 4863 
L 1178 4863 
L 1178 4134 
L 603 4134 
L 603 4863 
z
" transform="scale(0.015625)"/>
      <path id="DejaVuSans-67" d="M 2906 1791 
Q 2906 2416 2648 2759 
Q 2391 3103 1925 3103 
Q 1463 3103 1205 2759 
Q 947 2416 947 1791 
Q 947 1169 1205 825 
Q 1463 481 1925 481 
Q 2391 481 2648 825 
Q 2906 1169 2906 1791 
z
M 3481 434 
Q 3481 -459 3084 -895 
Q 2688 -1331 1869 -1331 
Q 1566 -1331 1297 -1286 
Q 1028 -1241 775 -1147 
L 775 -588 
Q 1028 -725 1275 -790 
Q 1522 -856 1778 -856 
Q 2344 -856 2625 -561 
Q 2906 -266 2906 331 
L 2906 616 
Q 2728 306 2450 153 
Q 2172 0 1784 0 
Q 1141 0 747 490 
Q 353 981 353 1791 
Q 353 2603 747 3093 
Q 1141 3584 1784 3584 
Q 2172 3584 2450 3431 
Q 2728 3278 2906 2969 
L 2906 3500 
L 3481 3500 
L 3481 434 
z
" transform="scale(0.015625)"/>
      <path id="DejaVuSans-20" transform="scale(0.015625)"/>
      <path id="DejaVuSans-43" d="M 4122 4306 
L 4122 3641 
Q 3803 3938 3442 4084 
Q 3081 4231 2675 4231 
Q 1875 4231 1450 3742 
Q 1025 3253 1025 2328 
Q 1025 1406 1450 917 
Q 1875 428 2675 428 
Q 3081 428 3442 575 
Q 3803 722 4122 1019 
L 4122 359 
Q 3791 134 3420 21 
Q 3050 -91 2638 -91 
Q 1578 -91 968 557 
Q 359 1206 359 2328 
Q 359 3453 968 4101 
Q 1578 4750 2638 4750 
Q 3056 4750 3426 4639 
Q 3797 4528 4122 4306 
z
" transform="scale(0.015625)"/>
      <path id="DejaVuSans-76" d="M 191 3500 
L 800 3500 
L 1894 563 
L 2988 3500 
L 3597 3500 
L 2284 0 
L 1503 0 
L 191 3500 
z
" transform="scale(0.015625)"/>
     </defs>
     <use xlink:href="#DejaVuSans-4c"/>
     <use xlink:href="#DejaVuSans-65" x="53.962891"/>
     <use xlink:href="#DejaVuSans-61" x="115.486328"/>
     <use xlink:href="#DejaVuSans-72" x="176.765625"/>
     <use xlink:href="#DejaVuSans-6e" x="216.128906"/>
     <use xlink:href="#DejaVuSans-69" x="279.507812"/>
     <use xlink:href="#DejaVuSans-6e" x="307.291016"/>
     <use xlink:href="#DejaVuSans-67" x="370.669922"/>
     <use xlink:href="#DejaVuSans-20" x="434.146484"/>
     <use xlink:href="#DejaVuSans-43" x="465.933594"/>
     <use xlink:href="#DejaVuSans-75" x="535.757812"/>
     <use xlink:href="#DejaVuSans-72" x="599.136719"/>
     <use xlink:href="#DejaVuSans-76" x="640.25"/>
     <use xlink:href="#DejaVuSans-65" x="699.429688"/>
     <use xlink:href="#DejaVuSans-73" x="760.953125"/>
    </g>
   </g>
   <g id="legend_1">
    <g id="patch_7">
     <path d="M 214.18875 302.584 
L 407.72 302.584 
Q 409.72 302.584 409.72 300.584 
L 409.72 228.193375 
Q 409.72 226.193375 407.72 226.193375 
L 214.18875 226.193375 
Q 212.18875 226.193375 212.18875 228.193375 
L 212.18875 300.584 
Q 212.18875 302.584 214.18875 302.584 
z
" style="fill: #ffffff; opacity: 0.8; stroke: #cccccc; stroke-linejoin: miter"/>
    </g>
    <g id="line2d_24">
     <path d="M 216.18875 234.291812 
L 226.18875 234.291812 
L 236.18875 234.291812 
" style="fill: none; stroke: #1f77b4; stroke-width: 1.5; stroke-linecap: square"/>
    </g>
    <g id="text_22">
     <!-- Train Accuracy -->
     <g transform="translate(244.18875 237.791812) scale(0.1 -0.1)">
      <defs>
       <path id="DejaVuSans-54" d="M -19 4666 
L 3928 4666 
L 3928 4134 
L 2272 4134 
L 2272 0 
L 1638 0 
L 1638 4134 
L -19 4134 
L -19 4666 
z
" transform="scale(0.015625)"/>
      </defs>
      <use xlink:href="#DejaVuSans-54"/>
      <use xlink:href="#DejaVuSans-72" x="46.333984"/>
      <use xlink:href="#DejaVuSans-61" x="87.447266"/>
      <use xlink:href="#DejaVuSans-69" x="148.726562"/>
      <use xlink:href="#DejaVuSans-6e" x="176.509766"/>
      <use xlink:href="#DejaVuSans-20" x="239.888672"/>
      <use xlink:href="#DejaVuSans-41" x="271.675781"/>
      <use xlink:href="#DejaVuSans-63" x="338.333984"/>
      <use xlink:href="#DejaVuSans-63" x="393.314453"/>
      <use xlink:href="#DejaVuSans-75" x="448.294922"/>
      <use xlink:href="#DejaVuSans-72" x="511.673828"/>
      <use xlink:href="#DejaVuSans-61" x="552.787109"/>
      <use xlink:href="#DejaVuSans-63" x="614.066406"/>
      <use xlink:href="#DejaVuSans-79" x="669.046875"/>
     </g>
    </g>
    <g id="line2d_25">
     <path d="M 216.18875 248.969937 
L 226.18875 248.969937 
L 236.18875 248.969937 
" style="fill: none; stroke: #ff7f0e; stroke-width: 1.5; stroke-linecap: square"/>
    </g>
    <g id="text_23">
     <!-- Validation Accuracy -->
     <g transform="translate(244.18875 252.469937) scale(0.1 -0.1)">
      <defs>
       <path id="DejaVuSans-56" d="M 1831 0 
L 50 4666 
L 709 4666 
L 2188 738 
L 3669 4666 
L 4325 4666 
L 2547 0 
L 1831 0 
z
" transform="scale(0.015625)"/>
       <path id="DejaVuSans-6c" d="M 603 4863 
L 1178 4863 
L 1178 0 
L 603 0 
L 603 4863 
z
" transform="scale(0.015625)"/>
       <path id="DejaVuSans-64" d="M 2906 2969 
L 2906 4863 
L 3481 4863 
L 3481 0 
L 2906 0 
L 2906 525 
Q 2725 213 2448 61 
Q 2172 -91 1784 -91 
Q 1150 -91 751 415 
Q 353 922 353 1747 
Q 353 2572 751 3078 
Q 1150 3584 1784 3584 
Q 2172 3584 2448 3432 
Q 2725 3281 2906 2969 
z
M 947 1747 
Q 947 1113 1208 752 
Q 1469 391 1925 391 
Q 2381 391 2643 752 
Q 2906 1113 2906 1747 
Q 2906 2381 2643 2742 
Q 2381 3103 1925 3103 
Q 1469 3103 1208 2742 
Q 947 2381 947 1747 
z
" transform="scale(0.015625)"/>
       <path id="DejaVuSans-74" d="M 1172 4494 
L 1172 3500 
L 2356 3500 
L 2356 3053 
L 1172 3053 
L 1172 1153 
Q 1172 725 1289 603 
Q 1406 481 1766 481 
L 2356 481 
L 2356 0 
L 1766 0 
Q 1100 0 847 248 
Q 594 497 594 1153 
L 594 3053 
L 172 3053 
L 172 3500 
L 594 3500 
L 594 4494 
L 1172 4494 
z
" transform="scale(0.015625)"/>
      </defs>
      <use xlink:href="#DejaVuSans-56"/>
      <use xlink:href="#DejaVuSans-61" x="60.658203"/>
      <use xlink:href="#DejaVuSans-6c" x="121.9375"/>
      <use xlink:href="#DejaVuSans-69" x="149.720703"/>
      <use xlink:href="#DejaVuSans-64" x="177.503906"/>
      <use xlink:href="#DejaVuSans-61" x="240.980469"/>
      <use xlink:href="#DejaVuSans-74" x="302.259766"/>
      <use xlink:href="#DejaVuSans-69" x="341.46875"/>
      <use xlink:href="#DejaVuSans-6f" x="369.251953"/>
      <use xlink:href="#DejaVuSans-6e" x="430.433594"/>
      <use xlink:href="#DejaVuSans-20" x="493.8125"/>
      <use xlink:href="#DejaVuSans-41" x="525.599609"/>
      <use xlink:href="#DejaVuSans-63" x="592.257812"/>
      <use xlink:href="#DejaVuSans-63" x="647.238281"/>
      <use xlink:href="#DejaVuSans-75" x="702.21875"/>
      <use xlink:href="#DejaVuSans-72" x="765.597656"/>
      <use xlink:href="#DejaVuSans-61" x="806.710938"/>
      <use xlink:href="#DejaVuSans-63" x="867.990234"/>
      <use xlink:href="#DejaVuSans-79" x="922.970703"/>
     </g>
    </g>
    <g id="line2d_26">
     <path d="M 216.18875 263.648062 
L 226.18875 263.648062 
L 236.18875 263.648062 
" style="fill: none; stroke: #2ca02c; stroke-width: 1.5; stroke-linecap: square"/>
    </g>
    <g id="text_24">
     <!-- Robust Validation Accuracy -->
     <g transform="translate(244.18875 267.148062) scale(0.1 -0.1)">
      <defs>
       <path id="DejaVuSans-52" d="M 2841 2188 
Q 3044 2119 3236 1894 
Q 3428 1669 3622 1275 
L 4263 0 
L 3584 0 
L 2988 1197 
Q 2756 1666 2539 1819 
Q 2322 1972 1947 1972 
L 1259 1972 
L 1259 0 
L 628 0 
L 628 4666 
L 2053 4666 
Q 2853 4666 3247 4331 
Q 3641 3997 3641 3322 
Q 3641 2881 3436 2590 
Q 3231 2300 2841 2188 
z
M 1259 4147 
L 1259 2491 
L 2053 2491 
Q 2509 2491 2742 2702 
Q 2975 2913 2975 3322 
Q 2975 3731 2742 3939 
Q 2509 4147 2053 4147 
L 1259 4147 
z
" transform="scale(0.015625)"/>
       <path id="DejaVuSans-62" d="M 3116 1747 
Q 3116 2381 2855 2742 
Q 2594 3103 2138 3103 
Q 1681 3103 1420 2742 
Q 1159 2381 1159 1747 
Q 1159 1113 1420 752 
Q 1681 391 2138 391 
Q 2594 391 2855 752 
Q 3116 1113 3116 1747 
z
M 1159 2969 
Q 1341 3281 1617 3432 
Q 1894 3584 2278 3584 
Q 2916 3584 3314 3078 
Q 3713 2572 3713 1747 
Q 3713 922 3314 415 
Q 2916 -91 2278 -91 
Q 1894 -91 1617 61 
Q 1341 213 1159 525 
L 1159 0 
L 581 0 
L 581 4863 
L 1159 4863 
L 1159 2969 
z
" transform="scale(0.015625)"/>
      </defs>
      <use xlink:href="#DejaVuSans-52"/>
      <use xlink:href="#DejaVuSans-6f" x="64.982422"/>
      <use xlink:href="#DejaVuSans-62" x="126.164062"/>
      <use xlink:href="#DejaVuSans-75" x="189.640625"/>
      <use xlink:href="#DejaVuSans-73" x="253.019531"/>
      <use xlink:href="#DejaVuSans-74" x="305.119141"/>
      <use xlink:href="#DejaVuSans-20" x="344.328125"/>
      <use xlink:href="#DejaVuSans-56" x="376.115234"/>
      <use xlink:href="#DejaVuSans-61" x="436.773438"/>
      <use xlink:href="#DejaVuSans-6c" x="498.052734"/>
      <use xlink:href="#DejaVuSans-69" x="525.835938"/>
      <use xlink:href="#DejaVuSans-64" x="553.619141"/>
      <use xlink:href="#DejaVuSans-61" x="617.095703"/>
      <use xlink:href="#DejaVuSans-74" x="678.375"/>
      <use xlink:href="#DejaVuSans-69" x="717.583984"/>
      <use xlink:href="#DejaVuSans-6f" x="745.367188"/>
      <use xlink:href="#DejaVuSans-6e" x="806.548828"/>
      <use xlink:href="#DejaVuSans-20" x="869.927734"/>
      <use xlink:href="#DejaVuSans-41" x="901.714844"/>
      <use xlink:href="#DejaVuSans-63" x="968.373047"/>
      <use xlink:href="#DejaVuSans-63" x="1023.353516"/>
      <use xlink:href="#DejaVuSans-75" x="1078.333984"/>
      <use xlink:href="#DejaVuSans-72" x="1141.712891"/>
      <use xlink:href="#DejaVuSans-61" x="1182.826172"/>
      <use xlink:href="#DejaVuSans-63" x="1244.105469"/>
      <use xlink:href="#DejaVuSans-79" x="1299.085938"/>
     </g>
    </g>
    <g id="line2d_27">
     <path d="M 216.18875 278.326188 
L 226.18875 278.326188 
L 236.18875 278.326188 
" style="fill: none; stroke: #d62728; stroke-width: 1.5; stroke-linecap: square"/>
    </g>
    <g id="text_25">
     <!-- SWA Validation Accuracy -->
     <g transform="translate(244.18875 281.826188) scale(0.1 -0.1)">
      <defs>
       <path id="DejaVuSans-53" d="M 3425 4513 
L 3425 3897 
Q 3066 4069 2747 4153 
Q 2428 4238 2131 4238 
Q 1616 4238 1336 4038 
Q 1056 3838 1056 3469 
Q 1056 3159 1242 3001 
Q 1428 2844 1947 2747 
L 2328 2669 
Q 3034 2534 3370 2195 
Q 3706 1856 3706 1288 
Q 3706 609 3251 259 
Q 2797 -91 1919 -91 
Q 1588 -91 1214 -16 
Q 841 59 441 206 
L 441 856 
Q 825 641 1194 531 
Q 1563 422 1919 422 
Q 2459 422 2753 634 
Q 3047 847 3047 1241 
Q 3047 1584 2836 1778 
Q 2625 1972 2144 2069 
L 1759 2144 
Q 1053 2284 737 2584 
Q 422 2884 422 3419 
Q 422 4038 858 4394 
Q 1294 4750 2059 4750 
Q 2388 4750 2728 4690 
Q 3069 4631 3425 4513 
z
" transform="scale(0.015625)"/>
       <path id="DejaVuSans-57" d="M 213 4666 
L 850 4666 
L 1831 722 
L 2809 4666 
L 3519 4666 
L 4500 722 
L 5478 4666 
L 6119 4666 
L 4947 0 
L 4153 0 
L 3169 4050 
L 2175 0 
L 1381 0 
L 213 4666 
z
" transform="scale(0.015625)"/>
      </defs>
      <use xlink:href="#DejaVuSans-53"/>
      <use xlink:href="#DejaVuSans-57" x="63.476562"/>
      <use xlink:href="#DejaVuSans-41" x="156.853516"/>
      <use xlink:href="#DejaVuSans-20" x="225.261719"/>
      <use xlink:href="#DejaVuSans-56" x="257.048828"/>
      <use xlink:href="#DejaVuSans-61" x="317.707031"/>
      <use xlink:href="#DejaVuSans-6c" x="378.986328"/>
      <use xlink:href="#DejaVuSans-69" x="406.769531"/>
      <use xlink:href="#DejaVuSans-64" x="434.552734"/>
      <use xlink:href="#DejaVuSans-61" x="498.029297"/>
      <use xlink:href="#DejaVuSans-74" x="559.308594"/>
      <use xlink:href="#DejaVuSans-69" x="598.517578"/>
      <use xlink:href="#DejaVuSans-6f" x="626.300781"/>
      <use xlink:href="#DejaVuSans-6e" x="687.482422"/>
      <use xlink:href="#DejaVuSans-20" x="750.861328"/>
      <use xlink:href="#DejaVuSans-41" x="782.648438"/>
      <use xlink:href="#DejaVuSans-63" x="849.306641"/>
      <use xlink:href="#DejaVuSans-63" x="904.287109"/>
      <use xlink:href="#DejaVuSans-75" x="959.267578"/>
      <use xlink:href="#DejaVuSans-72" x="1022.646484"/>
      <use xlink:href="#DejaVuSans-61" x="1063.759766"/>
      <use xlink:href="#DejaVuSans-63" x="1125.039062"/>
      <use xlink:href="#DejaVuSans-79" x="1180.019531"/>
     </g>
    </g>
    <g id="line2d_28">
     <path d="M 216.18875 293.004312 
L 226.18875 293.004312 
L 236.18875 293.004312 
" style="fill: none; stroke: #9467bd; stroke-width: 1.5; stroke-linecap: square"/>
    </g>
    <g id="text_26">
     <!-- SWA Robust Validation Accuracy -->
     <g transform="translate(244.18875 296.504312) scale(0.1 -0.1)">
      <use xlink:href="#DejaVuSans-53"/>
      <use xlink:href="#DejaVuSans-57" x="63.476562"/>
      <use xlink:href="#DejaVuSans-41" x="156.853516"/>
      <use xlink:href="#DejaVuSans-20" x="225.261719"/>
      <use xlink:href="#DejaVuSans-52" x="257.048828"/>
      <use xlink:href="#DejaVuSans-6f" x="322.03125"/>
      <use xlink:href="#DejaVuSans-62" x="383.212891"/>
      <use xlink:href="#DejaVuSans-75" x="446.689453"/>
      <use xlink:href="#DejaVuSans-73" x="510.068359"/>
      <use xlink:href="#DejaVuSans-74" x="562.167969"/>
      <use xlink:href="#DejaVuSans-20" x="601.376953"/>
      <use xlink:href="#DejaVuSans-56" x="633.164062"/>
      <use xlink:href="#DejaVuSans-61" x="693.822266"/>
      <use xlink:href="#DejaVuSans-6c" x="755.101562"/>
      <use xlink:href="#DejaVuSans-69" x="782.884766"/>
      <use xlink:href="#DejaVuSans-64" x="810.667969"/>
      <use xlink:href="#DejaVuSans-61" x="874.144531"/>
      <use xlink:href="#DejaVuSans-74" x="935.423828"/>
      <use xlink:href="#DejaVuSans-69" x="974.632812"/>
      <use xlink:href="#DejaVuSans-6f" x="1002.416016"/>
      <use xlink:href="#DejaVuSans-6e" x="1063.597656"/>
      <use xlink:href="#DejaVuSans-20" x="1126.976562"/>
      <use xlink:href="#DejaVuSans-41" x="1158.763672"/>
      <use xlink:href="#DejaVuSans-63" x="1225.421875"/>
      <use xlink:href="#DejaVuSans-63" x="1280.402344"/>
      <use xlink:href="#DejaVuSans-75" x="1335.382812"/>
      <use xlink:href="#DejaVuSans-72" x="1398.761719"/>
      <use xlink:href="#DejaVuSans-61" x="1439.875"/>
      <use xlink:href="#DejaVuSans-63" x="1501.154297"/>
      <use xlink:href="#DejaVuSans-79" x="1556.134766"/>
     </g>
    </g>
   </g>
  </g>
 </g>
 <defs>
  <clipPath id="pb7f6bfaa30">
   <rect x="57.6" y="41.472" width="357.12" height="266.112"/>
  </clipPath>
 </defs>
</svg>
