<?xml version="1.0" encoding="utf-8" standalone="no"?>
<!DOCTYPE svg PUBLIC "-//W3C//DTD SVG 1.1//EN"
  "http://www.w3.org/Graphics/SVG/1.1/DTD/svg11.dtd">
<svg xmlns:xlink="http://www.w3.org/1999/xlink" width="460.8pt" height="345.6pt" viewBox="0 0 460.8 345.6" xmlns="http://www.w3.org/2000/svg" version="1.1">
 <metadata>
  <rdf:RDF xmlns:dc="http://purl.org/dc/elements/1.1/" xmlns:cc="http://creativecommons.org/ns#" xmlns:rdf="http://www.w3.org/1999/02/22-rdf-syntax-ns#">
   <cc:Work>
    <dc:type rdf:resource="http://purl.org/dc/dcmitype/StillImage"/>
    <dc:date>2025-01-03T10:41:43.890687</dc:date>
    <dc:format>image/svg+xml</dc:format>
    <dc:creator>
     <cc:Agent>
      <dc:title>Matplotlib v3.9.1, https://matplotlib.org/</dc:title>
     </cc:Agent>
    </dc:creator>
   </cc:Work>
  </rdf:RDF>
 </metadata>
 <defs>
  <style type="text/css">*{stroke-linejoin: round; stroke-linecap: butt}</style>
 </defs>
 <g id="figure_1">
  <g id="patch_1">
   <path d="M 0 345.6 
L 460.8 345.6 
L 460.8 0 
L 0 0 
z
" style="fill: #ffffff"/>
  </g>
  <g id="axes_1">
   <g id="patch_2">
    <path d="M 57.6 307.584 
L 414.72 307.584 
L 414.72 41.472 
L 57.6 41.472 
z
" style="fill: #ffffff"/>
   </g>
   <g id="matplotlib.axis_1">
    <g id="xtick_1">
     <g id="line2d_1">
      <defs>
       <path id="m1a209eca2a" d="M 0 0 
L 0 3.5 
" style="stroke: #000000; stroke-width: 0.8"/>
      </defs>
      <g>
       <use xlink:href="#m1a209eca2a" x="73.832727" y="307.584" style="stroke: #000000; stroke-width: 0.8"/>
      </g>
     </g>
     <g id="text_1">
      <!-- 1 -->
      <g transform="translate(70.651477 322.182437) scale(0.1 -0.1)">
       <defs>
        <path id="DejaVuSans-31" d="M 794 531 
L 1825 531 
L 1825 4091 
L 703 3866 
L 703 4441 
L 1819 4666 
L 2450 4666 
L 2450 531 
L 3481 531 
L 3481 0 
L 794 0 
L 794 531 
z
" transform="scale(0.015625)"/>
       </defs>
       <use xlink:href="#DejaVuSans-31"/>
      </g>
     </g>
    </g>
    <g id="xtick_2">
     <g id="line2d_2">
      <g>
       <use xlink:href="#m1a209eca2a" x="109.48107" y="307.584" style="stroke: #000000; stroke-width: 0.8"/>
      </g>
     </g>
     <g id="text_2">
      <!-- 29 -->
      <g transform="translate(103.11857 322.182437) scale(0.1 -0.1)">
       <defs>
        <path id="DejaVuSans-32" d="M 1228 531 
L 3431 531 
L 3431 0 
L 469 0 
L 469 531 
Q 828 903 1448 1529 
Q 2069 2156 2228 2338 
Q 2531 2678 2651 2914 
Q 2772 3150 2772 3378 
Q 2772 3750 2511 3984 
Q 2250 4219 1831 4219 
Q 1534 4219 1204 4116 
Q 875 4013 500 3803 
L 500 4441 
Q 881 4594 1212 4672 
Q 1544 4750 1819 4750 
Q 2544 4750 2975 4387 
Q 3406 4025 3406 3419 
Q 3406 3131 3298 2873 
Q 3191 2616 2906 2266 
Q 2828 2175 2409 1742 
Q 1991 1309 1228 531 
z
" transform="scale(0.015625)"/>
        <path id="DejaVuSans-39" d="M 703 97 
L 703 672 
Q 941 559 1184 500 
Q 1428 441 1663 441 
Q 2288 441 2617 861 
Q 2947 1281 2994 2138 
Q 2813 1869 2534 1725 
Q 2256 1581 1919 1581 
Q 1219 1581 811 2004 
Q 403 2428 403 3163 
Q 403 3881 828 4315 
Q 1253 4750 1959 4750 
Q 2769 4750 3195 4129 
Q 3622 3509 3622 2328 
Q 3622 1225 3098 567 
Q 2575 -91 1691 -91 
Q 1453 -91 1209 -44 
Q 966 3 703 97 
z
M 1959 2075 
Q 2384 2075 2632 2365 
Q 2881 2656 2881 3163 
Q 2881 3666 2632 3958 
Q 2384 4250 1959 4250 
Q 1534 4250 1286 3958 
Q 1038 3666 1038 3163 
Q 1038 2656 1286 2365 
Q 1534 2075 1959 2075 
z
" transform="scale(0.015625)"/>
       </defs>
       <use xlink:href="#DejaVuSans-32"/>
       <use xlink:href="#DejaVuSans-39" x="63.623047"/>
      </g>
     </g>
    </g>
    <g id="xtick_3">
     <g id="line2d_3">
      <g>
       <use xlink:href="#m1a209eca2a" x="145.129412" y="307.584" style="stroke: #000000; stroke-width: 0.8"/>
      </g>
     </g>
     <g id="text_3">
      <!-- 57 -->
      <g transform="translate(138.766912 322.182437) scale(0.1 -0.1)">
       <defs>
        <path id="DejaVuSans-35" d="M 691 4666 
L 3169 4666 
L 3169 4134 
L 1269 4134 
L 1269 2991 
Q 1406 3038 1543 3061 
Q 1681 3084 1819 3084 
Q 2600 3084 3056 2656 
Q 3513 2228 3513 1497 
Q 3513 744 3044 326 
Q 2575 -91 1722 -91 
Q 1428 -91 1123 -41 
Q 819 9 494 109 
L 494 744 
Q 775 591 1075 516 
Q 1375 441 1709 441 
Q 2250 441 2565 725 
Q 2881 1009 2881 1497 
Q 2881 1984 2565 2268 
Q 2250 2553 1709 2553 
Q 1456 2553 1204 2497 
Q 953 2441 691 2322 
L 691 4666 
z
" transform="scale(0.015625)"/>
        <path id="DejaVuSans-37" d="M 525 4666 
L 3525 4666 
L 3525 4397 
L 1831 0 
L 1172 0 
L 2766 4134 
L 525 4134 
L 525 4666 
z
" transform="scale(0.015625)"/>
       </defs>
       <use xlink:href="#DejaVuSans-35"/>
       <use xlink:href="#DejaVuSans-37" x="63.623047"/>
      </g>
     </g>
    </g>
    <g id="xtick_4">
     <g id="line2d_4">
      <g>
       <use xlink:href="#m1a209eca2a" x="182.050909" y="307.584" style="stroke: #000000; stroke-width: 0.8"/>
      </g>
     </g>
     <g id="text_4">
      <!-- 86 -->
      <g transform="translate(175.688409 322.182437) scale(0.1 -0.1)">
       <defs>
        <path id="DejaVuSans-38" d="M 2034 2216 
Q 1584 2216 1326 1975 
Q 1069 1734 1069 1313 
Q 1069 891 1326 650 
Q 1584 409 2034 409 
Q 2484 409 2743 651 
Q 3003 894 3003 1313 
Q 3003 1734 2745 1975 
Q 2488 2216 2034 2216 
z
M 1403 2484 
Q 997 2584 770 2862 
Q 544 3141 544 3541 
Q 544 4100 942 4425 
Q 1341 4750 2034 4750 
Q 2731 4750 3128 4425 
Q 3525 4100 3525 3541 
Q 3525 3141 3298 2862 
Q 3072 2584 2669 2484 
Q 3125 2378 3379 2068 
Q 3634 1759 3634 1313 
Q 3634 634 3220 271 
Q 2806 -91 2034 -91 
Q 1263 -91 848 271 
Q 434 634 434 1313 
Q 434 1759 690 2068 
Q 947 2378 1403 2484 
z
M 1172 3481 
Q 1172 3119 1398 2916 
Q 1625 2713 2034 2713 
Q 2441 2713 2670 2916 
Q 2900 3119 2900 3481 
Q 2900 3844 2670 4047 
Q 2441 4250 2034 4250 
Q 1625 4250 1398 4047 
Q 1172 3844 1172 3481 
z
" transform="scale(0.015625)"/>
        <path id="DejaVuSans-36" d="M 2113 2584 
Q 1688 2584 1439 2293 
Q 1191 2003 1191 1497 
Q 1191 994 1439 701 
Q 1688 409 2113 409 
Q 2538 409 2786 701 
Q 3034 994 3034 1497 
Q 3034 2003 2786 2293 
Q 2538 2584 2113 2584 
z
M 3366 4563 
L 3366 3988 
Q 3128 4100 2886 4159 
Q 2644 4219 2406 4219 
Q 1781 4219 1451 3797 
Q 1122 3375 1075 2522 
Q 1259 2794 1537 2939 
Q 1816 3084 2150 3084 
Q 2853 3084 3261 2657 
Q 3669 2231 3669 1497 
Q 3669 778 3244 343 
Q 2819 -91 2113 -91 
Q 1303 -91 875 529 
Q 447 1150 447 2328 
Q 447 3434 972 4092 
Q 1497 4750 2381 4750 
Q 2619 4750 2861 4703 
Q 3103 4656 3366 4563 
z
" transform="scale(0.015625)"/>
       </defs>
       <use xlink:href="#DejaVuSans-38"/>
       <use xlink:href="#DejaVuSans-36" x="63.623047"/>
      </g>
     </g>
    </g>
    <g id="xtick_5">
     <g id="line2d_5">
      <g>
       <use xlink:href="#m1a209eca2a" x="217.699251" y="307.584" style="stroke: #000000; stroke-width: 0.8"/>
      </g>
     </g>
     <g id="text_5">
      <!-- 114 -->
      <g transform="translate(208.155501 322.182437) scale(0.1 -0.1)">
       <defs>
        <path id="DejaVuSans-34" d="M 2419 4116 
L 825 1625 
L 2419 1625 
L 2419 4116 
z
M 2253 4666 
L 3047 4666 
L 3047 1625 
L 3713 1625 
L 3713 1100 
L 3047 1100 
L 3047 0 
L 2419 0 
L 2419 1100 
L 313 1100 
L 313 1709 
L 2253 4666 
z
" transform="scale(0.015625)"/>
       </defs>
       <use xlink:href="#DejaVuSans-31"/>
       <use xlink:href="#DejaVuSans-31" x="63.623047"/>
       <use xlink:href="#DejaVuSans-34" x="127.246094"/>
      </g>
     </g>
    </g>
    <g id="xtick_6">
     <g id="line2d_6">
      <g>
       <use xlink:href="#m1a209eca2a" x="253.347594" y="307.584" style="stroke: #000000; stroke-width: 0.8"/>
      </g>
     </g>
     <g id="text_6">
      <!-- 142 -->
      <g transform="translate(243.803844 322.182437) scale(0.1 -0.1)">
       <use xlink:href="#DejaVuSans-31"/>
       <use xlink:href="#DejaVuSans-34" x="63.623047"/>
       <use xlink:href="#DejaVuSans-32" x="127.246094"/>
      </g>
     </g>
    </g>
    <g id="xtick_7">
     <g id="line2d_7">
      <g>
       <use xlink:href="#m1a209eca2a" x="290.269091" y="307.584" style="stroke: #000000; stroke-width: 0.8"/>
      </g>
     </g>
     <g id="text_7">
      <!-- 171 -->
      <g transform="translate(280.725341 322.182437) scale(0.1 -0.1)">
       <use xlink:href="#DejaVuSans-31"/>
       <use xlink:href="#DejaVuSans-37" x="63.623047"/>
       <use xlink:href="#DejaVuSans-31" x="127.246094"/>
      </g>
     </g>
    </g>
    <g id="xtick_8">
     <g id="line2d_8">
      <g>
       <use xlink:href="#m1a209eca2a" x="325.917433" y="307.584" style="stroke: #000000; stroke-width: 0.8"/>
      </g>
     </g>
     <g id="text_8">
      <!-- 199 -->
      <g transform="translate(316.373683 322.182437) scale(0.1 -0.1)">
       <use xlink:href="#DejaVuSans-31"/>
       <use xlink:href="#DejaVuSans-39" x="63.623047"/>
       <use xlink:href="#DejaVuSans-39" x="127.246094"/>
      </g>
     </g>
    </g>
    <g id="xtick_9">
     <g id="line2d_9">
      <g>
       <use xlink:href="#m1a209eca2a" x="361.565775" y="307.584" style="stroke: #000000; stroke-width: 0.8"/>
      </g>
     </g>
     <g id="text_9">
      <!-- 227 -->
      <g transform="translate(352.022025 322.182437) scale(0.1 -0.1)">
       <use xlink:href="#DejaVuSans-32"/>
       <use xlink:href="#DejaVuSans-32" x="63.623047"/>
       <use xlink:href="#DejaVuSans-37" x="127.246094"/>
      </g>
     </g>
    </g>
    <g id="xtick_10">
     <g id="line2d_10">
      <g>
       <use xlink:href="#m1a209eca2a" x="398.487273" y="307.584" style="stroke: #000000; stroke-width: 0.8"/>
      </g>
     </g>
     <g id="text_10">
      <!-- 256 -->
      <g transform="translate(388.943523 322.182437) scale(0.1 -0.1)">
       <use xlink:href="#DejaVuSans-32"/>
       <use xlink:href="#DejaVuSans-35" x="63.623047"/>
       <use xlink:href="#DejaVuSans-36" x="127.246094"/>
      </g>
     </g>
    </g>
    <g id="text_11">
     <!-- Epochs -->
     <g transform="translate(218.244375 335.860562) scale(0.1 -0.1)">
      <defs>
       <path id="DejaVuSans-45" d="M 628 4666 
L 3578 4666 
L 3578 4134 
L 1259 4134 
L 1259 2753 
L 3481 2753 
L 3481 2222 
L 1259 2222 
L 1259 531 
L 3634 531 
L 3634 0 
L 628 0 
L 628 4666 
z
" transform="scale(0.015625)"/>
       <path id="DejaVuSans-70" d="M 1159 525 
L 1159 -1331 
L 581 -1331 
L 581 3500 
L 1159 3500 
L 1159 2969 
Q 1341 3281 1617 3432 
Q 1894 3584 2278 3584 
Q 2916 3584 3314 3078 
Q 3713 2572 3713 1747 
Q 3713 922 3314 415 
Q 2916 -91 2278 -91 
Q 1894 -91 1617 61 
Q 1341 213 1159 525 
z
M 3116 1747 
Q 3116 2381 2855 2742 
Q 2594 3103 2138 3103 
Q 1681 3103 1420 2742 
Q 1159 2381 1159 1747 
Q 1159 1113 1420 752 
Q 1681 391 2138 391 
Q 2594 391 2855 752 
Q 3116 1113 3116 1747 
z
" transform="scale(0.015625)"/>
       <path id="DejaVuSans-6f" d="M 1959 3097 
Q 1497 3097 1228 2736 
Q 959 2375 959 1747 
Q 959 1119 1226 758 
Q 1494 397 1959 397 
Q 2419 397 2687 759 
Q 2956 1122 2956 1747 
Q 2956 2369 2687 2733 
Q 2419 3097 1959 3097 
z
M 1959 3584 
Q 2709 3584 3137 3096 
Q 3566 2609 3566 1747 
Q 3566 888 3137 398 
Q 2709 -91 1959 -91 
Q 1206 -91 779 398 
Q 353 888 353 1747 
Q 353 2609 779 3096 
Q 1206 3584 1959 3584 
z
" transform="scale(0.015625)"/>
       <path id="DejaVuSans-63" d="M 3122 3366 
L 3122 2828 
Q 2878 2963 2633 3030 
Q 2388 3097 2138 3097 
Q 1578 3097 1268 2742 
Q 959 2388 959 1747 
Q 959 1106 1268 751 
Q 1578 397 2138 397 
Q 2388 397 2633 464 
Q 2878 531 3122 666 
L 3122 134 
Q 2881 22 2623 -34 
Q 2366 -91 2075 -91 
Q 1284 -91 818 406 
Q 353 903 353 1747 
Q 353 2603 823 3093 
Q 1294 3584 2113 3584 
Q 2378 3584 2631 3529 
Q 2884 3475 3122 3366 
z
" transform="scale(0.015625)"/>
       <path id="DejaVuSans-68" d="M 3513 2113 
L 3513 0 
L 2938 0 
L 2938 2094 
Q 2938 2591 2744 2837 
Q 2550 3084 2163 3084 
Q 1697 3084 1428 2787 
Q 1159 2491 1159 1978 
L 1159 0 
L 581 0 
L 581 4863 
L 1159 4863 
L 1159 2956 
Q 1366 3272 1645 3428 
Q 1925 3584 2291 3584 
Q 2894 3584 3203 3211 
Q 3513 2838 3513 2113 
z
" transform="scale(0.015625)"/>
       <path id="DejaVuSans-73" d="M 2834 3397 
L 2834 2853 
Q 2591 2978 2328 3040 
Q 2066 3103 1784 3103 
Q 1356 3103 1142 2972 
Q 928 2841 928 2578 
Q 928 2378 1081 2264 
Q 1234 2150 1697 2047 
L 1894 2003 
Q 2506 1872 2764 1633 
Q 3022 1394 3022 966 
Q 3022 478 2636 193 
Q 2250 -91 1575 -91 
Q 1294 -91 989 -36 
Q 684 19 347 128 
L 347 722 
Q 666 556 975 473 
Q 1284 391 1588 391 
Q 1994 391 2212 530 
Q 2431 669 2431 922 
Q 2431 1156 2273 1281 
Q 2116 1406 1581 1522 
L 1381 1569 
Q 847 1681 609 1914 
Q 372 2147 372 2553 
Q 372 3047 722 3315 
Q 1072 3584 1716 3584 
Q 2034 3584 2315 3537 
Q 2597 3491 2834 3397 
z
" transform="scale(0.015625)"/>
      </defs>
      <use xlink:href="#DejaVuSans-45"/>
      <use xlink:href="#DejaVuSans-70" x="63.183594"/>
      <use xlink:href="#DejaVuSans-6f" x="126.660156"/>
      <use xlink:href="#DejaVuSans-63" x="187.841797"/>
      <use xlink:href="#DejaVuSans-68" x="242.822266"/>
      <use xlink:href="#DejaVuSans-73" x="306.201172"/>
     </g>
    </g>
   </g>
   <g id="matplotlib.axis_2">
    <g id="ytick_1">
     <g id="line2d_11">
      <defs>
       <path id="m76c61bd8ac" d="M 0 0 
L -3.5 0 
" style="stroke: #000000; stroke-width: 0.8"/>
      </defs>
      <g>
       <use xlink:href="#m76c61bd8ac" x="57.6" y="281.516736" style="stroke: #000000; stroke-width: 0.8"/>
      </g>
     </g>
     <g id="text_12">
      <!-- 10 -->
      <g transform="translate(37.875 285.315954) scale(0.1 -0.1)">
       <defs>
        <path id="DejaVuSans-30" d="M 2034 4250 
Q 1547 4250 1301 3770 
Q 1056 3291 1056 2328 
Q 1056 1369 1301 889 
Q 1547 409 2034 409 
Q 2525 409 2770 889 
Q 3016 1369 3016 2328 
Q 3016 3291 2770 3770 
Q 2525 4250 2034 4250 
z
M 2034 4750 
Q 2819 4750 3233 4129 
Q 3647 3509 3647 2328 
Q 3647 1150 3233 529 
Q 2819 -91 2034 -91 
Q 1250 -91 836 529 
Q 422 1150 422 2328 
Q 422 3509 836 4129 
Q 1250 4750 2034 4750 
z
" transform="scale(0.015625)"/>
       </defs>
       <use xlink:href="#DejaVuSans-31"/>
       <use xlink:href="#DejaVuSans-30" x="63.623047"/>
      </g>
     </g>
    </g>
    <g id="ytick_2">
     <g id="line2d_12">
      <g>
       <use xlink:href="#m76c61bd8ac" x="57.6" y="248.518945" style="stroke: #000000; stroke-width: 0.8"/>
      </g>
     </g>
     <g id="text_13">
      <!-- 20 -->
      <g transform="translate(37.875 252.318164) scale(0.1 -0.1)">
       <use xlink:href="#DejaVuSans-32"/>
       <use xlink:href="#DejaVuSans-30" x="63.623047"/>
      </g>
     </g>
    </g>
    <g id="ytick_3">
     <g id="line2d_13">
      <g>
       <use xlink:href="#m76c61bd8ac" x="57.6" y="215.521155" style="stroke: #000000; stroke-width: 0.8"/>
      </g>
     </g>
     <g id="text_14">
      <!-- 30 -->
      <g transform="translate(37.875 219.320374) scale(0.1 -0.1)">
       <defs>
        <path id="DejaVuSans-33" d="M 2597 2516 
Q 3050 2419 3304 2112 
Q 3559 1806 3559 1356 
Q 3559 666 3084 287 
Q 2609 -91 1734 -91 
Q 1441 -91 1130 -33 
Q 819 25 488 141 
L 488 750 
Q 750 597 1062 519 
Q 1375 441 1716 441 
Q 2309 441 2620 675 
Q 2931 909 2931 1356 
Q 2931 1769 2642 2001 
Q 2353 2234 1838 2234 
L 1294 2234 
L 1294 2753 
L 1863 2753 
Q 2328 2753 2575 2939 
Q 2822 3125 2822 3475 
Q 2822 3834 2567 4026 
Q 2313 4219 1838 4219 
Q 1578 4219 1281 4162 
Q 984 4106 628 3988 
L 628 4550 
Q 988 4650 1302 4700 
Q 1616 4750 1894 4750 
Q 2613 4750 3031 4423 
Q 3450 4097 3450 3541 
Q 3450 3153 3228 2886 
Q 3006 2619 2597 2516 
z
" transform="scale(0.015625)"/>
       </defs>
       <use xlink:href="#DejaVuSans-33"/>
       <use xlink:href="#DejaVuSans-30" x="63.623047"/>
      </g>
     </g>
    </g>
    <g id="ytick_4">
     <g id="line2d_14">
      <g>
       <use xlink:href="#m76c61bd8ac" x="57.6" y="182.523365" style="stroke: #000000; stroke-width: 0.8"/>
      </g>
     </g>
     <g id="text_15">
      <!-- 40 -->
      <g transform="translate(37.875 186.322583) scale(0.1 -0.1)">
       <use xlink:href="#DejaVuSans-34"/>
       <use xlink:href="#DejaVuSans-30" x="63.623047"/>
      </g>
     </g>
    </g>
    <g id="ytick_5">
     <g id="line2d_15">
      <g>
       <use xlink:href="#m76c61bd8ac" x="57.6" y="149.525574" style="stroke: #000000; stroke-width: 0.8"/>
      </g>
     </g>
     <g id="text_16">
      <!-- 50 -->
      <g transform="translate(37.875 153.324793) scale(0.1 -0.1)">
       <use xlink:href="#DejaVuSans-35"/>
       <use xlink:href="#DejaVuSans-30" x="63.623047"/>
      </g>
     </g>
    </g>
    <g id="ytick_6">
     <g id="line2d_16">
      <g>
       <use xlink:href="#m76c61bd8ac" x="57.6" y="116.527784" style="stroke: #000000; stroke-width: 0.8"/>
      </g>
     </g>
     <g id="text_17">
      <!-- 60 -->
      <g transform="translate(37.875 120.327003) scale(0.1 -0.1)">
       <use xlink:href="#DejaVuSans-36"/>
       <use xlink:href="#DejaVuSans-30" x="63.623047"/>
      </g>
     </g>
    </g>
    <g id="ytick_7">
     <g id="line2d_17">
      <g>
       <use xlink:href="#m76c61bd8ac" x="57.6" y="83.529994" style="stroke: #000000; stroke-width: 0.8"/>
      </g>
     </g>
     <g id="text_18">
      <!-- 70 -->
      <g transform="translate(37.875 87.329212) scale(0.1 -0.1)">
       <use xlink:href="#DejaVuSans-37"/>
       <use xlink:href="#DejaVuSans-30" x="63.623047"/>
      </g>
     </g>
    </g>
    <g id="ytick_8">
     <g id="line2d_18">
      <g>
       <use xlink:href="#m76c61bd8ac" x="57.6" y="50.532203" style="stroke: #000000; stroke-width: 0.8"/>
      </g>
     </g>
     <g id="text_19">
      <!-- 80 -->
      <g transform="translate(37.875 54.331422) scale(0.1 -0.1)">
       <use xlink:href="#DejaVuSans-38"/>
       <use xlink:href="#DejaVuSans-30" x="63.623047"/>
      </g>
     </g>
    </g>
    <g id="text_20">
     <!-- Accuracy -->
     <g transform="translate(31.795312 197.356125) rotate(-90) scale(0.1 -0.1)">
      <defs>
       <path id="DejaVuSans-41" d="M 2188 4044 
L 1331 1722 
L 3047 1722 
L 2188 4044 
z
M 1831 4666 
L 2547 4666 
L 4325 0 
L 3669 0 
L 3244 1197 
L 1141 1197 
L 716 0 
L 50 0 
L 1831 4666 
z
" transform="scale(0.015625)"/>
       <path id="DejaVuSans-75" d="M 544 1381 
L 544 3500 
L 1119 3500 
L 1119 1403 
Q 1119 906 1312 657 
Q 1506 409 1894 409 
Q 2359 409 2629 706 
Q 2900 1003 2900 1516 
L 2900 3500 
L 3475 3500 
L 3475 0 
L 2900 0 
L 2900 538 
Q 2691 219 2414 64 
Q 2138 -91 1772 -91 
Q 1169 -91 856 284 
Q 544 659 544 1381 
z
M 1991 3584 
L 1991 3584 
z
" transform="scale(0.015625)"/>
       <path id="DejaVuSans-72" d="M 2631 2963 
Q 2534 3019 2420 3045 
Q 2306 3072 2169 3072 
Q 1681 3072 1420 2755 
Q 1159 2438 1159 1844 
L 1159 0 
L 581 0 
L 581 3500 
L 1159 3500 
L 1159 2956 
Q 1341 3275 1631 3429 
Q 1922 3584 2338 3584 
Q 2397 3584 2469 3576 
Q 2541 3569 2628 3553 
L 2631 2963 
z
" transform="scale(0.015625)"/>
       <path id="DejaVuSans-61" d="M 2194 1759 
Q 1497 1759 1228 1600 
Q 959 1441 959 1056 
Q 959 750 1161 570 
Q 1363 391 1709 391 
Q 2188 391 2477 730 
Q 2766 1069 2766 1631 
L 2766 1759 
L 2194 1759 
z
M 3341 1997 
L 3341 0 
L 2766 0 
L 2766 531 
Q 2569 213 2275 61 
Q 1981 -91 1556 -91 
Q 1019 -91 701 211 
Q 384 513 384 1019 
Q 384 1609 779 1909 
Q 1175 2209 1959 2209 
L 2766 2209 
L 2766 2266 
Q 2766 2663 2505 2880 
Q 2244 3097 1772 3097 
Q 1472 3097 1187 3025 
Q 903 2953 641 2809 
L 641 3341 
Q 956 3463 1253 3523 
Q 1550 3584 1831 3584 
Q 2591 3584 2966 3190 
Q 3341 2797 3341 1997 
z
" transform="scale(0.015625)"/>
       <path id="DejaVuSans-79" d="M 2059 -325 
Q 1816 -950 1584 -1140 
Q 1353 -1331 966 -1331 
L 506 -1331 
L 506 -850 
L 844 -850 
Q 1081 -850 1212 -737 
Q 1344 -625 1503 -206 
L 1606 56 
L 191 3500 
L 800 3500 
L 1894 763 
L 2988 3500 
L 3597 3500 
L 2059 -325 
z
" transform="scale(0.015625)"/>
      </defs>
      <use xlink:href="#DejaVuSans-41"/>
      <use xlink:href="#DejaVuSans-63" x="66.658203"/>
      <use xlink:href="#DejaVuSans-63" x="121.638672"/>
      <use xlink:href="#DejaVuSans-75" x="176.619141"/>
      <use xlink:href="#DejaVuSans-72" x="239.998047"/>
      <use xlink:href="#DejaVuSans-61" x="281.111328"/>
      <use xlink:href="#DejaVuSans-63" x="342.390625"/>
      <use xlink:href="#DejaVuSans-79" x="397.371094"/>
     </g>
    </g>
   </g>
   <g id="line2d_19">
    <path d="M 73.832727 295.488 
L 75.105882 274.092233 
L 77.652193 227.585147 
L 78.925348 208.459628 
L 80.198503 194.131987 
L 82.744813 169.726822 
L 84.017968 164.856348 
L 85.291123 155.85455 
L 86.564278 148.938214 
L 87.837433 145.988211 
L 89.110588 142.160467 
L 90.383743 137.111806 
L 91.656898 133.90442 
L 92.930053 127.674438 
L 94.203209 126.677904 
L 95.476364 121.952621 
L 96.749519 119.603178 
L 98.022674 116.13181 
L 99.295829 113.986954 
L 100.568984 110.185609 
L 103.115294 107.077217 
L 104.388449 105.070951 
L 105.661604 102.622515 
L 106.934759 102.596117 
L 108.207914 101.223409 
L 109.48107 100.748241 
L 110.754225 100.721842 
L 112.02738 127.370858 
L 113.300535 129.337526 
L 114.57369 127.106876 
L 115.846845 126.572311 
L 117.12 122.678572 
L 118.393155 121.411457 
L 119.66631 120.784499 
L 120.939465 117.841096 
L 122.21262 115.471855 
L 123.485775 114.468722 
L 124.75893 112.455857 
L 126.032086 110.040418 
L 127.305241 108.166144 
L 128.578396 108.060551 
L 129.851551 106.351265 
L 131.124706 104.391197 
L 132.397861 103.117482 
L 133.671016 102.160546 
L 134.944171 100.622849 
L 136.217326 100.127882 
L 137.490481 98.893765 
L 138.763636 95.488393 
L 140.036791 95.653382 
L 142.583102 93.310539 
L 143.856257 92.412999 
L 145.129412 90.360536 
L 146.402567 88.981229 
L 147.675722 88.644651 
L 148.948877 86.367804 
L 150.222032 85.694649 
L 151.495187 84.618921 
L 152.768342 84.47373 
L 154.041497 82.513662 
L 155.314652 82.361872 
L 156.587807 80.639387 
L 157.860963 80.540394 
L 159.134118 79.147887 
L 160.407273 76.904037 
L 161.680428 76.508064 
L 162.953583 74.086026 
L 164.226738 75.623723 
L 165.499893 74.006831 
L 166.773048 73.445869 
L 168.046203 72.436137 
L 169.319358 71.736583 
L 170.592513 70.396873 
L 171.865668 68.364209 
L 173.138824 68.146424 
L 174.411979 68.766782 
L 175.685134 66.423939 
L 176.958289 65.500001 
L 178.231444 66.549331 
L 179.504599 64.952238 
L 180.777754 66.093961 
L 182.050909 64.457271 
L 183.324064 65.790382 
L 184.597219 65.308614 
L 185.870374 64.457271 
L 187.143529 64.503468 
L 188.416684 89.060423 
L 189.68984 94.841636 
L 190.962995 96.57072 
L 192.23615 95.363001 
L 193.509305 93.818705 
L 194.78246 93.825304 
L 196.055615 93.713112 
L 197.32877 93.429331 
L 198.601925 91.621052 
L 199.87508 91.152483 
L 201.148235 92.445997 
L 202.42139 90.74991 
L 203.694545 91.462662 
L 204.967701 89.25181 
L 206.240856 90.162549 
L 207.514011 90.545324 
L 208.787166 87.61512 
L 210.060321 88.182682 
L 211.333476 87.76031 
L 212.606631 86.4272 
L 213.879786 86.229213 
L 215.152941 84.427534 
L 216.426096 85.82004 
L 217.699251 84.493529 
L 218.972406 84.275744 
L 220.245561 84.665118 
L 221.518717 82.23648 
L 222.791872 80.929768 
L 224.065027 83.642186 
L 225.338182 81.754712 
L 226.611337 81.761312 
L 227.884492 80.817575 
L 229.157647 79.286478 
L 230.430802 79.99263 
L 231.703957 79.266679 
L 232.977112 79.411869 
L 234.250267 77.623389 
L 235.523422 78.111756 
L 236.796578 76.745648 
L 238.069733 76.587259 
L 239.342888 76.046095 
L 240.616043 77.333009 
L 241.889198 75.445535 
L 243.162353 75.22775 
L 244.435508 75.66992 
L 245.708663 74.633789 
L 246.981818 74.046429 
L 248.254973 74.284013 
L 249.528128 71.248216 
L 250.801283 72.917904 
L 252.074439 73.208285 
L 253.347594 70.647656 
L 254.620749 70.357276 
L 255.893904 71.056829 
L 257.167059 68.766782 
L 258.440214 69.664322 
L 260.986524 68.153023 
L 262.259679 68.001233 
L 263.532834 67.988034 
L 264.805989 67.75705 
L 266.079144 65.189822 
L 267.352299 64.991835 
L 268.625455 64.978636 
L 269.89861 62.734786 
L 271.171765 64.714654 
L 272.44492 64.503468 
L 273.718075 63.770917 
L 274.99123 61.606262 
L 276.264385 62.879976 
L 277.53754 61.533667 
L 278.810695 61.692056 
L 280.08385 60.695523 
L 281.357005 59.349213 
L 282.63016 60.226954 
L 283.903316 58.088697 
L 285.176471 171.264519 
L 286.449626 168.070332 
L 287.722781 171.271118 
L 288.995936 171.98387 
L 290.269091 172.868211 
L 291.542246 171.568098 
L 295.361711 169.700423 
L 296.634866 169.740021 
L 301.727487 169.264852 
L 303.000642 167.080399 
L 304.273797 167.634762 
L 305.546952 168.591698 
L 306.820107 168.215523 
L 308.093262 168.941474 
L 309.366417 169.00747 
L 310.639572 167.832748 
L 311.912727 168.40031 
L 313.185882 168.5587 
L 314.459037 167.713956 
L 315.732193 167.733755 
L 317.005348 166.737222 
L 318.278503 168.202324 
L 319.551658 168.717089 
L 320.824813 168.420109 
L 322.097968 168.901877 
L 323.371123 170.446173 
L 324.644278 167.397178 
L 327.190588 168.281518 
L 328.463743 168.10993 
L 329.736898 168.426709 
L 331.010053 168.598297 
L 332.283209 169.093264 
L 333.556364 168.730288 
L 334.829519 168.538901 
L 336.102674 167.911943 
L 337.375829 167.997737 
L 338.648984 168.631295 
L 339.922139 167.793151 
L 341.195294 181.474035 
L 342.468449 185.506365 
L 343.741604 184.100659 
L 345.014759 183.717885 
L 346.287914 184.866208 
L 347.56107 183.34171 
L 348.834225 184.582427 
L 350.10738 185.13679 
L 351.380535 184.047863 
L 352.65369 183.843276 
L 353.926845 184.397639 
L 355.2 184.793613 
L 357.74631 183.948869 
L 359.019465 183.671688 
L 360.29262 182.899539 
L 361.565775 183.625491 
L 362.83893 183.203119 
L 364.112086 183.711285 
L 365.385241 183.651889 
L 366.658396 183.222918 
L 367.931551 183.480301 
L 369.204706 182.675154 
L 370.477861 184.034663 
L 371.751016 184.245849 
L 373.024171 182.899539 
L 374.297326 182.602559 
L 375.570481 181.804013 
L 376.843636 179.296181 
L 378.116791 178.042265 
L 379.389947 177.923473 
L 380.663102 178.081862 
L 381.936257 177.784882 
L 383.209412 177.032532 
L 384.482567 176.77515 
L 385.755722 176.900541 
L 387.028877 177.758484 
L 388.302032 176.907141 
L 390.848342 177.864077 
L 392.121497 85.292076 
L 393.394652 81.807509 
L 394.667807 84.018361 
L 395.940963 82.995429 
L 397.214118 83.510195 
L 398.487273 84.513328 
L 398.487273 84.513328 
" clip-path="url(#p3c927631f7)" style="fill: none; stroke: #1f77b4; stroke-width: 1.5; stroke-linecap: square"/>
   </g>
   <g id="line2d_20">
    <path d="M 73.832727 279.767853 
L 76.379037 225.486488 
L 78.925348 203.674948 
L 80.198503 175.758818 
L 81.471658 169.621229 
L 82.744813 155.003207 
L 84.017968 144.476912 
L 85.291123 144.410917 
L 86.564278 138.405319 
L 87.837433 130.518847 
L 89.110588 131.244798 
L 90.383743 126.196137 
L 91.656898 123.391324 
L 94.203209 109.994221 
L 95.476364 109.169277 
L 96.749519 110.753171 
L 98.022674 104.780571 
L 99.295829 103.163679 
L 100.568984 103.29567 
L 101.842139 98.313004 
L 103.115294 99.170946 
L 104.388449 95.541189 
L 105.661604 93.726311 
L 106.934759 93.462329 
L 108.207914 92.472395 
L 109.48107 91.746443 
L 110.754225 92.043424 
L 112.02738 121.015483 
L 113.300535 114.184941 
L 114.57369 113.887961 
L 115.846845 116.230804 
L 117.12 116.59378 
L 118.393155 109.235272 
L 119.66631 107.387396 
L 120.939465 109.928226 
L 122.21262 103.59265 
L 123.485775 105.770504 
L 124.75893 99.434929 
L 126.032086 99.071953 
L 127.305241 100.919829 
L 128.578396 97.191079 
L 129.851551 95.343203 
L 131.124706 94.848236 
L 132.397861 90.294541 
L 133.671016 90.789507 
L 134.944171 85.872837 
L 136.217326 87.522726 
L 137.490481 89.436598 
L 138.763636 85.476863 
L 140.036791 87.32474 
L 141.309947 84.354938 
L 142.583102 82.771044 
L 143.856257 82.705049 
L 145.129412 79.273279 
L 146.402567 81.715115 
L 147.675722 80.362206 
L 148.948877 78.778312 
L 150.222032 78.745314 
L 151.495187 75.313544 
L 152.768342 75.808511 
L 154.041497 74.02663 
L 155.314652 73.960634 
L 156.587807 72.871707 
L 157.860963 71.947769 
L 159.134118 71.947769 
L 160.407273 69.868908 
L 161.680428 69.637924 
L 162.953583 67.130092 
L 164.226738 69.274948 
L 166.773048 66.899107 
L 168.046203 66.008167 
L 169.319358 64.193288 
L 170.592513 64.721253 
L 171.865668 64.160291 
L 173.138824 63.434339 
L 174.411979 63.170357 
L 175.685134 61.520467 
L 176.958289 62.906375 
L 178.231444 61.883443 
L 179.504599 62.345412 
L 180.777754 61.949439 
L 182.050909 61.718454 
L 184.597219 61.685456 
L 185.870374 61.157492 
L 187.143529 61.454472 
L 188.416684 82.573058 
L 189.68984 84.651918 
L 190.962995 84.090956 
L 192.23615 88.545658 
L 193.509305 84.156952 
L 194.78246 82.375071 
L 196.055615 84.750912 
L 197.32877 79.99923 
L 199.87508 80.89017 
L 202.42139 84.123954 
L 203.694545 83.365005 
L 204.967701 80.89017 
L 206.240856 77.16142 
L 207.514011 80.560192 
L 208.787166 79.306276 
L 210.060321 80.626188 
L 211.333476 78.283345 
L 212.606631 75.247548 
L 213.879786 78.580325 
L 215.152941 76.171486 
L 216.426096 80.098223 
L 217.699251 78.712316 
L 218.972406 78.250347 
L 220.245561 74.950568 
L 221.518717 75.346542 
L 222.791872 74.983566 
L 224.065027 74.125623 
L 225.338182 74.092626 
L 226.611337 72.409738 
L 227.884492 71.551796 
L 229.157647 77.359407 
L 230.430802 70.59486 
L 231.703957 73.795645 
L 232.977112 76.105491 
L 234.250267 72.37674 
L 235.523422 70.627858 
L 236.796578 70.165889 
L 238.069733 69.934904 
L 239.342888 67.328079 
L 240.616043 70.033897 
L 241.889198 68.977968 
L 243.162353 71.650789 
L 244.435508 68.384008 
L 245.708663 66.965103 
L 246.981818 66.206154 
L 248.254973 68.977968 
L 249.528128 66.338145 
L 250.801283 65.21622 
L 252.074439 63.731319 
L 253.347594 65.546198 
L 254.620749 63.56633 
L 255.893904 65.084229 
L 257.167059 62.642392 
L 258.440214 64.62226 
L 259.713369 63.170357 
L 260.986524 62.147425 
L 262.259679 62.444406 
L 263.532834 60.992503 
L 264.805989 61.025501 
L 266.079144 62.180423 
L 267.352299 62.114428 
L 268.625455 61.058498 
L 269.89861 62.543399 
L 271.171765 61.916441 
L 272.44492 58.979638 
L 273.718075 60.497536 
L 274.99123 58.418675 
L 276.264385 57.065766 
L 277.53754 57.725722 
L 278.810695 58.121695 
L 280.08385 60.101562 
L 281.357005 58.715655 
L 282.63016 58.484671 
L 283.903316 53.568 
L 285.176471 60.299549 
L 286.449626 60.167558 
L 287.722781 61.058498 
L 288.995936 60.662525 
L 290.269091 62.279417 
L 292.815401 61.553465 
L 294.088556 62.576397 
L 295.361711 58.418675 
L 296.634866 60.167558 
L 297.908021 61.421474 
L 299.181176 59.276618 
L 300.454332 59.870578 
L 301.727487 59.903576 
L 303.000642 59.606596 
L 304.273797 59.606596 
L 305.546952 60.299549 
L 306.820107 59.705589 
L 308.093262 60.530534 
L 309.366417 57.989704 
L 310.639572 59.606596 
L 311.912727 58.64966 
L 313.185882 57.956706 
L 314.459037 57.560733 
L 315.732193 57.725722 
L 317.005348 57.560733 
L 318.278503 57.527735 
L 319.551658 57.989704 
L 320.824813 57.59373 
L 322.097968 57.428741 
L 323.371123 57.065766 
L 324.644278 57.29675 
L 325.917433 56.504803 
L 327.190588 57.263753 
L 328.463743 56.306817 
L 329.736898 56.471806 
L 331.010053 56.372812 
L 333.556364 56.504803 
L 334.829519 56.240821 
L 339.922139 56.075832 
L 341.195294 85.278877 
L 342.468449 90.558523 
L 343.741604 88.479662 
L 345.014759 85.839839 
L 346.287914 86.235812 
L 347.56107 87.192748 
L 348.834225 87.852704 
L 350.10738 86.730779 
L 351.380535 87.225746 
L 352.65369 88.908633 
L 353.926845 90.129552 
L 355.2 87.984695 
L 356.473155 90.261543 
L 357.74631 88.875636 
L 359.019465 87.32474 
L 360.29262 91.317472 
L 361.565775 90.855503 
L 362.83893 92.901366 
L 364.112086 88.80964 
L 365.385241 93.330337 
L 366.658396 96.399132 
L 367.931551 91.878435 
L 369.204706 88.050691 
L 370.477861 88.875636 
L 371.751016 89.370603 
L 373.024171 90.525525 
L 374.297326 90.492527 
L 375.570481 89.634585 
L 376.843636 88.611653 
L 378.116791 85.839839 
L 379.389947 86.664784 
L 380.663102 86.796775 
L 381.936257 83.463998 
L 383.209412 83.398002 
L 384.482567 87.522726 
L 385.755722 86.796775 
L 387.028877 86.598788 
L 388.302032 86.169817 
L 389.575187 86.895768 
L 390.848342 88.908633 
L 392.121497 87.423733 
L 393.394652 81.352139 
L 394.667807 82.54006 
L 395.940963 75.379539 
L 397.214118 75.082559 
L 398.487273 77.689385 
L 398.487273 77.689385 
" clip-path="url(#p3c927631f7)" style="fill: none; stroke: #ff7f0e; stroke-width: 1.5; stroke-linecap: square"/>
   </g>
   <g id="line2d_21">
    <path d="M 73.832727 290.210003 
L 75.105882 254.367474 
L 76.379037 244.536442 
L 77.652193 212.130302 
L 78.925348 217.68317 
L 80.198503 190.966179 
L 81.471658 196.519047 
L 82.744813 182.705512 
L 84.017968 175.787196 
L 85.291123 179.382965 
L 86.564278 177.152644 
L 87.837433 157.627192 
L 89.110588 163.635099 
L 90.383743 166.957647 
L 91.656898 164.203981 
L 92.930053 164.06737 
L 94.203209 148.774545 
L 95.476364 152.256471 
L 96.749519 152.620437 
L 98.022674 143.062627 
L 100.568984 142.311597 
L 101.842139 139.398552 
L 103.115294 143.244775 
L 104.388449 142.220523 
L 105.661604 140.308961 
L 106.934759 138.055872 
L 108.207914 136.576911 
L 109.48107 135.689271 
L 110.754225 135.484355 
L 112.02738 169.00549 
L 113.300535 151.505442 
L 114.57369 163.498489 
L 115.846845 158.287148 
L 117.12 148.84285 
L 118.393155 149.88954 
L 119.66631 141.014454 
L 120.939465 159.44768 
L 122.21262 150.913791 
L 123.485775 138.329094 
L 124.75893 147.864466 
L 126.032086 156.125132 
L 127.305241 143.722583 
L 128.578396 150.322141 
L 129.851551 136.713192 
L 131.124706 146.020879 
L 132.397861 146.180258 
L 133.671016 135.529891 
L 134.944171 138.647523 
L 136.217326 134.619812 
L 137.490481 135.780345 
L 138.763636 131.911684 
L 140.036791 132.503334 
L 141.309947 128.68021 
L 142.583102 136.235384 
L 143.856257 123.036268 
L 145.129412 125.357663 
L 146.402567 128.406988 
L 147.675722 130.978506 
L 148.948877 121.124706 
L 150.222032 123.15011 
L 151.495187 121.80743 
L 152.768342 126.063155 
L 154.041497 121.010864 
L 155.314652 121.51144 
L 156.587807 120.305371 
L 157.860963 122.899657 
L 159.134118 116.7327 
L 160.407273 122.649534 
L 161.680428 117.301582 
L 162.953583 115.913365 
L 164.226738 113.637507 
L 165.499893 111.95363 
L 166.773048 109.450418 
L 168.046203 110.542645 
L 169.319358 108.062201 
L 170.592513 112.021936 
L 171.865668 111.453054 
L 173.138824 110.656487 
L 174.411979 110.269423 
L 176.958289 108.744925 
L 178.231444 109.882689 
L 179.504599 110.474339 
L 180.777754 109.336575 
L 182.050909 109.427649 
L 183.324064 110.337728 
L 184.597219 109.336575 
L 185.870374 109.222733 
L 187.143529 109.791615 
L 188.416684 133.550024 
L 189.68984 135.871419 
L 190.962995 132.389492 
L 192.23615 143.426593 
L 193.509305 131.888915 
L 194.78246 136.485837 
L 196.055615 133.299901 
L 197.32877 123.446101 
L 198.601925 127.246456 
L 199.87508 136.235384 
L 201.148235 136.713192 
L 202.42139 126.108362 
L 203.694545 139.967434 
L 206.240856 124.174032 
L 208.787166 135.052083 
L 210.060321 137.168562 
L 211.333476 132.776226 
L 212.606631 125.721628 
L 213.879786 125.926545 
L 215.152941 122.171396 
L 216.426096 119.713721 
L 217.699251 120.555824 
L 218.972406 120.851484 
L 220.245561 130.864664 
L 221.518717 123.536845 
L 222.791872 126.222205 
L 224.065027 125.812702 
L 225.338182 112.772965 
L 226.611337 116.846543 
L 227.884492 111.680409 
L 229.157647 123.673455 
L 230.430802 121.488672 
L 231.703957 129.340166 
L 232.977112 126.563732 
L 234.250267 119.622647 
L 235.523422 120.76074 
L 236.796578 126.108362 
L 238.069733 117.142203 
L 239.342888 120.874253 
L 240.616043 119.964174 
L 241.889198 114.50238 
L 244.435508 122.080652 
L 245.708663 110.224216 
L 246.981818 106.992412 
L 248.254973 115.890597 
L 249.528128 120.578593 
L 250.801283 116.641626 
L 252.074439 115.276178 
L 253.347594 114.274695 
L 254.620749 122.148628 
L 255.893904 114.616222 
L 257.167059 109.700541 
L 258.440214 110.497108 
L 259.713369 111.976399 
L 260.986524 115.503863 
L 262.259679 112.340364 
L 263.532834 108.289556 
L 264.805989 115.071261 
L 266.079144 116.14105 
L 267.352299 113.136931 
L 268.625455 109.131659 
L 269.89861 110.861403 
L 271.171765 108.699388 
L 272.44492 106.196176 
L 273.718075 109.473186 
L 274.99123 112.294827 
L 276.264385 111.703177 
L 277.53754 102.85086 
L 278.810695 107.037949 
L 280.08385 101.758303 
L 281.357005 104.420895 
L 282.63016 111.36198 
L 283.903316 107.493319 
L 285.176471 109.359344 
L 286.449626 114.343 
L 287.722781 110.0193 
L 288.995936 107.675137 
L 290.269091 109.973763 
L 291.542246 115.116798 
L 292.815401 104.648579 
L 294.088556 113.591971 
L 295.361711 110.997684 
L 296.634866 112.454207 
L 297.908021 114.889114 
L 299.181176 109.382112 
L 300.454332 107.493319 
L 301.727487 110.61095 
L 303.000642 105.558988 
L 304.273797 109.382112 
L 305.546952 111.817019 
L 306.820107 109.086122 
L 308.093262 107.948358 
L 309.366417 108.267117 
L 310.639572 108.130506 
L 311.912727 108.585546 
L 313.185882 107.948358 
L 314.459037 112.40867 
L 315.732193 108.22158 
L 317.005348 107.6296 
L 318.278503 108.357861 
L 319.551658 107.083486 
L 320.824813 107.6296 
L 322.097968 104.216308 
L 323.371123 106.173407 
L 324.644278 106.8789 
L 325.917433 106.400762 
L 327.190588 105.513452 
L 328.463743 106.332457 
L 329.736898 106.810595 
L 331.010053 105.331304 
L 332.283209 105.035314 
L 333.556364 104.4892 
L 334.829519 105.171924 
L 336.102674 104.648579 
L 337.375829 105.376841 
L 338.648984 106.446299 
L 339.922139 106.059565 
L 341.195294 125.903776 
L 342.468449 135.347744 
L 343.741604 138.351863 
L 346.287914 129.226324 
L 347.56107 138.055872 
L 348.834225 138.078641 
L 350.10738 135.029315 
L 351.380535 140.946149 
L 352.65369 137.100256 
L 353.926845 135.803113 
L 355.2 138.215252 
L 356.473155 135.689271 
L 357.74631 135.757576 
L 359.019465 129.385703 
L 360.29262 130.113634 
L 361.565775 144.51915 
L 362.83893 135.575428 
L 364.112086 132.047965 
L 365.385241 145.565839 
L 366.658396 138.897976 
L 367.931551 146.066416 
L 369.204706 134.392128 
L 370.477861 135.279768 
L 371.751016 141.788252 
L 373.024171 130.796358 
L 374.297326 133.663866 
L 375.570481 139.557932 
L 376.843636 139.216735 
L 378.116791 131.092349 
L 379.389947 143.631509 
L 380.663102 129.863511 
L 381.936257 132.184575 
L 383.209412 141.469494 
L 384.482567 133.846014 
L 385.755722 136.167079 
L 387.028877 137.19133 
L 388.302032 133.595561 
L 389.575187 134.278285 
L 390.848342 135.84865 
L 392.121497 134.551405 
L 393.394652 127.792547 
L 394.667807 144.086628 
L 395.940963 120.39649 
L 397.214118 141.765404 
L 398.487273 130.113771 
L 398.487273 130.113771 
" clip-path="url(#p3c927631f7)" style="fill: none; stroke: #2ca02c; stroke-width: 1.5; stroke-linecap: square"/>
   </g>
   <g id="line2d_22">
    <path d="M 0 0 
" clip-path="url(#p3c927631f7)" style="fill: none; stroke: #d62728; stroke-width: 1.5; stroke-linecap: square"/>
   </g>
   <g id="line2d_23">
    <path d="M 0 0 
" clip-path="url(#p3c927631f7)" style="fill: none; stroke: #9467bd; stroke-width: 1.5; stroke-linecap: square"/>
   </g>
   <g id="patch_3">
    <path d="M 57.6 307.584 
L 57.6 41.472 
" style="fill: none; stroke: #000000; stroke-width: 0.8; stroke-linejoin: miter; stroke-linecap: square"/>
   </g>
   <g id="patch_4">
    <path d="M 414.72 307.584 
L 414.72 41.472 
" style="fill: none; stroke: #000000; stroke-width: 0.8; stroke-linejoin: miter; stroke-linecap: square"/>
   </g>
   <g id="patch_5">
    <path d="M 57.6 307.584 
L 414.72 307.584 
" style="fill: none; stroke: #000000; stroke-width: 0.8; stroke-linejoin: miter; stroke-linecap: square"/>
   </g>
   <g id="patch_6">
    <path d="M 57.6 41.472 
L 414.72 41.472 
" style="fill: none; stroke: #000000; stroke-width: 0.8; stroke-linejoin: miter; stroke-linecap: square"/>
   </g>
   <g id="text_21">
    <!-- Learning Curves -->
    <g transform="translate(187.37625 35.472) scale(0.12 -0.12)">
     <defs>
      <path id="DejaVuSans-4c" d="M 628 4666 
L 1259 4666 
L 1259 531 
L 3531 531 
L 3531 0 
L 628 0 
L 628 4666 
z
" transform="scale(0.015625)"/>
      <path id="DejaVuSans-65" d="M 3597 1894 
L 3597 1613 
L 953 1613 
Q 991 1019 1311 708 
Q 1631 397 2203 397 
Q 2534 397 2845 478 
Q 3156 559 3463 722 
L 3463 178 
Q 3153 47 2828 -22 
Q 2503 -91 2169 -91 
Q 1331 -91 842 396 
Q 353 884 353 1716 
Q 353 2575 817 3079 
Q 1281 3584 2069 3584 
Q 2775 3584 3186 3129 
Q 3597 2675 3597 1894 
z
M 3022 2063 
Q 3016 2534 2758 2815 
Q 2500 3097 2075 3097 
Q 1594 3097 1305 2825 
Q 1016 2553 972 2059 
L 3022 2063 
z
" transform="scale(0.015625)"/>
      <path id="DejaVuSans-6e" d="M 3513 2113 
L 3513 0 
L 2938 0 
L 2938 2094 
Q 2938 2591 2744 2837 
Q 2550 3084 2163 3084 
Q 1697 3084 1428 2787 
Q 1159 2491 1159 1978 
L 1159 0 
L 581 0 
L 581 3500 
L 1159 3500 
L 1159 2956 
Q 1366 3272 1645 3428 
Q 1925 3584 2291 3584 
Q 2894 3584 3203 3211 
Q 3513 2838 3513 2113 
z
" transform="scale(0.015625)"/>
      <path id="DejaVuSans-69" d="M 603 3500 
L 1178 3500 
L 1178 0 
L 603 0 
L 603 3500 
z
M 603 4863 
L 1178 4863 
L 1178 4134 
L 603 4134 
L 603 4863 
z
" transform="scale(0.015625)"/>
      <path id="DejaVuSans-67" d="M 2906 1791 
Q 2906 2416 2648 2759 
Q 2391 3103 1925 3103 
Q 1463 3103 1205 2759 
Q 947 2416 947 1791 
Q 947 1169 1205 825 
Q 1463 481 1925 481 
Q 2391 481 2648 825 
Q 2906 1169 2906 1791 
z
M 3481 434 
Q 3481 -459 3084 -895 
Q 2688 -1331 1869 -1331 
Q 1566 -1331 1297 -1286 
Q 1028 -1241 775 -1147 
L 775 -588 
Q 1028 -725 1275 -790 
Q 1522 -856 1778 -856 
Q 2344 -856 2625 -561 
Q 2906 -266 2906 331 
L 2906 616 
Q 2728 306 2450 153 
Q 2172 0 1784 0 
Q 1141 0 747 490 
Q 353 981 353 1791 
Q 353 2603 747 3093 
Q 1141 3584 1784 3584 
Q 2172 3584 2450 3431 
Q 2728 3278 2906 2969 
L 2906 3500 
L 3481 3500 
L 3481 434 
z
" transform="scale(0.015625)"/>
      <path id="DejaVuSans-20" transform="scale(0.015625)"/>
      <path id="DejaVuSans-43" d="M 4122 4306 
L 4122 3641 
Q 3803 3938 3442 4084 
Q 3081 4231 2675 4231 
Q 1875 4231 1450 3742 
Q 1025 3253 1025 2328 
Q 1025 1406 1450 917 
Q 1875 428 2675 428 
Q 3081 428 3442 575 
Q 3803 722 4122 1019 
L 4122 359 
Q 3791 134 3420 21 
Q 3050 -91 2638 -91 
Q 1578 -91 968 557 
Q 359 1206 359 2328 
Q 359 3453 968 4101 
Q 1578 4750 2638 4750 
Q 3056 4750 3426 4639 
Q 3797 4528 4122 4306 
z
" transform="scale(0.015625)"/>
      <path id="DejaVuSans-76" d="M 191 3500 
L 800 3500 
L 1894 563 
L 2988 3500 
L 3597 3500 
L 2284 0 
L 1503 0 
L 191 3500 
z
" transform="scale(0.015625)"/>
     </defs>
     <use xlink:href="#DejaVuSans-4c"/>
     <use xlink:href="#DejaVuSans-65" x="53.962891"/>
     <use xlink:href="#DejaVuSans-61" x="115.486328"/>
     <use xlink:href="#DejaVuSans-72" x="176.765625"/>
     <use xlink:href="#DejaVuSans-6e" x="216.128906"/>
     <use xlink:href="#DejaVuSans-69" x="279.507812"/>
     <use xlink:href="#DejaVuSans-6e" x="307.291016"/>
     <use xlink:href="#DejaVuSans-67" x="370.669922"/>
     <use xlink:href="#DejaVuSans-20" x="434.146484"/>
     <use xlink:href="#DejaVuSans-43" x="465.933594"/>
     <use xlink:href="#DejaVuSans-75" x="535.757812"/>
     <use xlink:href="#DejaVuSans-72" x="599.136719"/>
     <use xlink:href="#DejaVuSans-76" x="640.25"/>
     <use xlink:href="#DejaVuSans-65" x="699.429688"/>
     <use xlink:href="#DejaVuSans-73" x="760.953125"/>
    </g>
   </g>
   <g id="legend_1">
    <g id="patch_7">
     <path d="M 214.18875 302.584 
L 407.72 302.584 
Q 409.72 302.584 409.72 300.584 
L 409.72 228.193375 
Q 409.72 226.193375 407.72 226.193375 
L 214.18875 226.193375 
Q 212.18875 226.193375 212.18875 228.193375 
L 212.18875 300.584 
Q 212.18875 302.584 214.18875 302.584 
z
" style="fill: #ffffff; opacity: 0.8; stroke: #cccccc; stroke-linejoin: miter"/>
    </g>
    <g id="line2d_24">
     <path d="M 216.18875 234.291812 
L 226.18875 234.291812 
L 236.18875 234.291812 
" style="fill: none; stroke: #1f77b4; stroke-width: 1.5; stroke-linecap: square"/>
    </g>
    <g id="text_22">
     <!-- Train Accuracy -->
     <g transform="translate(244.18875 237.791812) scale(0.1 -0.1)">
      <defs>
       <path id="DejaVuSans-54" d="M -19 4666 
L 3928 4666 
L 3928 4134 
L 2272 4134 
L 2272 0 
L 1638 0 
L 1638 4134 
L -19 4134 
L -19 4666 
z
" transform="scale(0.015625)"/>
      </defs>
      <use xlink:href="#DejaVuSans-54"/>
      <use xlink:href="#DejaVuSans-72" x="46.333984"/>
      <use xlink:href="#DejaVuSans-61" x="87.447266"/>
      <use xlink:href="#DejaVuSans-69" x="148.726562"/>
      <use xlink:href="#DejaVuSans-6e" x="176.509766"/>
      <use xlink:href="#DejaVuSans-20" x="239.888672"/>
      <use xlink:href="#DejaVuSans-41" x="271.675781"/>
      <use xlink:href="#DejaVuSans-63" x="338.333984"/>
      <use xlink:href="#DejaVuSans-63" x="393.314453"/>
      <use xlink:href="#DejaVuSans-75" x="448.294922"/>
      <use xlink:href="#DejaVuSans-72" x="511.673828"/>
      <use xlink:href="#DejaVuSans-61" x="552.787109"/>
      <use xlink:href="#DejaVuSans-63" x="614.066406"/>
      <use xlink:href="#DejaVuSans-79" x="669.046875"/>
     </g>
    </g>
    <g id="line2d_25">
     <path d="M 216.18875 248.969937 
L 226.18875 248.969937 
L 236.18875 248.969937 
" style="fill: none; stroke: #ff7f0e; stroke-width: 1.5; stroke-linecap: square"/>
    </g>
    <g id="text_23">
     <!-- Validation Accuracy -->
     <g transform="translate(244.18875 252.469937) scale(0.1 -0.1)">
      <defs>
       <path id="DejaVuSans-56" d="M 1831 0 
L 50 4666 
L 709 4666 
L 2188 738 
L 3669 4666 
L 4325 4666 
L 2547 0 
L 1831 0 
z
" transform="scale(0.015625)"/>
       <path id="DejaVuSans-6c" d="M 603 4863 
L 1178 4863 
L 1178 0 
L 603 0 
L 603 4863 
z
" transform="scale(0.015625)"/>
       <path id="DejaVuSans-64" d="M 2906 2969 
L 2906 4863 
L 3481 4863 
L 3481 0 
L 2906 0 
L 2906 525 
Q 2725 213 2448 61 
Q 2172 -91 1784 -91 
Q 1150 -91 751 415 
Q 353 922 353 1747 
Q 353 2572 751 3078 
Q 1150 3584 1784 3584 
Q 2172 3584 2448 3432 
Q 2725 3281 2906 2969 
z
M 947 1747 
Q 947 1113 1208 752 
Q 1469 391 1925 391 
Q 2381 391 2643 752 
Q 2906 1113 2906 1747 
Q 2906 2381 2643 2742 
Q 2381 3103 1925 3103 
Q 1469 3103 1208 2742 
Q 947 2381 947 1747 
z
" transform="scale(0.015625)"/>
       <path id="DejaVuSans-74" d="M 1172 4494 
L 1172 3500 
L 2356 3500 
L 2356 3053 
L 1172 3053 
L 1172 1153 
Q 1172 725 1289 603 
Q 1406 481 1766 481 
L 2356 481 
L 2356 0 
L 1766 0 
Q 1100 0 847 248 
Q 594 497 594 1153 
L 594 3053 
L 172 3053 
L 172 3500 
L 594 3500 
L 594 4494 
L 1172 4494 
z
" transform="scale(0.015625)"/>
      </defs>
      <use xlink:href="#DejaVuSans-56"/>
      <use xlink:href="#DejaVuSans-61" x="60.658203"/>
      <use xlink:href="#DejaVuSans-6c" x="121.9375"/>
      <use xlink:href="#DejaVuSans-69" x="149.720703"/>
      <use xlink:href="#DejaVuSans-64" x="177.503906"/>
      <use xlink:href="#DejaVuSans-61" x="240.980469"/>
      <use xlink:href="#DejaVuSans-74" x="302.259766"/>
      <use xlink:href="#DejaVuSans-69" x="341.46875"/>
      <use xlink:href="#DejaVuSans-6f" x="369.251953"/>
      <use xlink:href="#DejaVuSans-6e" x="430.433594"/>
      <use xlink:href="#DejaVuSans-20" x="493.8125"/>
      <use xlink:href="#DejaVuSans-41" x="525.599609"/>
      <use xlink:href="#DejaVuSans-63" x="592.257812"/>
      <use xlink:href="#DejaVuSans-63" x="647.238281"/>
      <use xlink:href="#DejaVuSans-75" x="702.21875"/>
      <use xlink:href="#DejaVuSans-72" x="765.597656"/>
      <use xlink:href="#DejaVuSans-61" x="806.710938"/>
      <use xlink:href="#DejaVuSans-63" x="867.990234"/>
      <use xlink:href="#DejaVuSans-79" x="922.970703"/>
     </g>
    </g>
    <g id="line2d_26">
     <path d="M 216.18875 263.648062 
L 226.18875 263.648062 
L 236.18875 263.648062 
" style="fill: none; stroke: #2ca02c; stroke-width: 1.5; stroke-linecap: square"/>
    </g>
    <g id="text_24">
     <!-- Robust Validation Accuracy -->
     <g transform="translate(244.18875 267.148062) scale(0.1 -0.1)">
      <defs>
       <path id="DejaVuSans-52" d="M 2841 2188 
Q 3044 2119 3236 1894 
Q 3428 1669 3622 1275 
L 4263 0 
L 3584 0 
L 2988 1197 
Q 2756 1666 2539 1819 
Q 2322 1972 1947 1972 
L 1259 1972 
L 1259 0 
L 628 0 
L 628 4666 
L 2053 4666 
Q 2853 4666 3247 4331 
Q 3641 3997 3641 3322 
Q 3641 2881 3436 2590 
Q 3231 2300 2841 2188 
z
M 1259 4147 
L 1259 2491 
L 2053 2491 
Q 2509 2491 2742 2702 
Q 2975 2913 2975 3322 
Q 2975 3731 2742 3939 
Q 2509 4147 2053 4147 
L 1259 4147 
z
" transform="scale(0.015625)"/>
       <path id="DejaVuSans-62" d="M 3116 1747 
Q 3116 2381 2855 2742 
Q 2594 3103 2138 3103 
Q 1681 3103 1420 2742 
Q 1159 2381 1159 1747 
Q 1159 1113 1420 752 
Q 1681 391 2138 391 
Q 2594 391 2855 752 
Q 3116 1113 3116 1747 
z
M 1159 2969 
Q 1341 3281 1617 3432 
Q 1894 3584 2278 3584 
Q 2916 3584 3314 3078 
Q 3713 2572 3713 1747 
Q 3713 922 3314 415 
Q 2916 -91 2278 -91 
Q 1894 -91 1617 61 
Q 1341 213 1159 525 
L 1159 0 
L 581 0 
L 581 4863 
L 1159 4863 
L 1159 2969 
z
" transform="scale(0.015625)"/>
      </defs>
      <use xlink:href="#DejaVuSans-52"/>
      <use xlink:href="#DejaVuSans-6f" x="64.982422"/>
      <use xlink:href="#DejaVuSans-62" x="126.164062"/>
      <use xlink:href="#DejaVuSans-75" x="189.640625"/>
      <use xlink:href="#DejaVuSans-73" x="253.019531"/>
      <use xlink:href="#DejaVuSans-74" x="305.119141"/>
      <use xlink:href="#DejaVuSans-20" x="344.328125"/>
      <use xlink:href="#DejaVuSans-56" x="376.115234"/>
      <use xlink:href="#DejaVuSans-61" x="436.773438"/>
      <use xlink:href="#DejaVuSans-6c" x="498.052734"/>
      <use xlink:href="#DejaVuSans-69" x="525.835938"/>
      <use xlink:href="#DejaVuSans-64" x="553.619141"/>
      <use xlink:href="#DejaVuSans-61" x="617.095703"/>
      <use xlink:href="#DejaVuSans-74" x="678.375"/>
      <use xlink:href="#DejaVuSans-69" x="717.583984"/>
      <use xlink:href="#DejaVuSans-6f" x="745.367188"/>
      <use xlink:href="#DejaVuSans-6e" x="806.548828"/>
      <use xlink:href="#DejaVuSans-20" x="869.927734"/>
      <use xlink:href="#DejaVuSans-41" x="901.714844"/>
      <use xlink:href="#DejaVuSans-63" x="968.373047"/>
      <use xlink:href="#DejaVuSans-63" x="1023.353516"/>
      <use xlink:href="#DejaVuSans-75" x="1078.333984"/>
      <use xlink:href="#DejaVuSans-72" x="1141.712891"/>
      <use xlink:href="#DejaVuSans-61" x="1182.826172"/>
      <use xlink:href="#DejaVuSans-63" x="1244.105469"/>
      <use xlink:href="#DejaVuSans-79" x="1299.085938"/>
     </g>
    </g>
    <g id="line2d_27">
     <path d="M 216.18875 278.326188 
L 226.18875 278.326188 
L 236.18875 278.326188 
" style="fill: none; stroke: #d62728; stroke-width: 1.5; stroke-linecap: square"/>
    </g>
    <g id="text_25">
     <!-- SWA Validation Accuracy -->
     <g transform="translate(244.18875 281.826188) scale(0.1 -0.1)">
      <defs>
       <path id="DejaVuSans-53" d="M 3425 4513 
L 3425 3897 
Q 3066 4069 2747 4153 
Q 2428 4238 2131 4238 
Q 1616 4238 1336 4038 
Q 1056 3838 1056 3469 
Q 1056 3159 1242 3001 
Q 1428 2844 1947 2747 
L 2328 2669 
Q 3034 2534 3370 2195 
Q 3706 1856 3706 1288 
Q 3706 609 3251 259 
Q 2797 -91 1919 -91 
Q 1588 -91 1214 -16 
Q 841 59 441 206 
L 441 856 
Q 825 641 1194 531 
Q 1563 422 1919 422 
Q 2459 422 2753 634 
Q 3047 847 3047 1241 
Q 3047 1584 2836 1778 
Q 2625 1972 2144 2069 
L 1759 2144 
Q 1053 2284 737 2584 
Q 422 2884 422 3419 
Q 422 4038 858 4394 
Q 1294 4750 2059 4750 
Q 2388 4750 2728 4690 
Q 3069 4631 3425 4513 
z
" transform="scale(0.015625)"/>
       <path id="DejaVuSans-57" d="M 213 4666 
L 850 4666 
L 1831 722 
L 2809 4666 
L 3519 4666 
L 4500 722 
L 5478 4666 
L 6119 4666 
L 4947 0 
L 4153 0 
L 3169 4050 
L 2175 0 
L 1381 0 
L 213 4666 
z
" transform="scale(0.015625)"/>
      </defs>
      <use xlink:href="#DejaVuSans-53"/>
      <use xlink:href="#DejaVuSans-57" x="63.476562"/>
      <use xlink:href="#DejaVuSans-41" x="156.853516"/>
      <use xlink:href="#DejaVuSans-20" x="225.261719"/>
      <use xlink:href="#DejaVuSans-56" x="257.048828"/>
      <use xlink:href="#DejaVuSans-61" x="317.707031"/>
      <use xlink:href="#DejaVuSans-6c" x="378.986328"/>
      <use xlink:href="#DejaVuSans-69" x="406.769531"/>
      <use xlink:href="#DejaVuSans-64" x="434.552734"/>
      <use xlink:href="#DejaVuSans-61" x="498.029297"/>
      <use xlink:href="#DejaVuSans-74" x="559.308594"/>
      <use xlink:href="#DejaVuSans-69" x="598.517578"/>
      <use xlink:href="#DejaVuSans-6f" x="626.300781"/>
      <use xlink:href="#DejaVuSans-6e" x="687.482422"/>
      <use xlink:href="#DejaVuSans-20" x="750.861328"/>
      <use xlink:href="#DejaVuSans-41" x="782.648438"/>
      <use xlink:href="#DejaVuSans-63" x="849.306641"/>
      <use xlink:href="#DejaVuSans-63" x="904.287109"/>
      <use xlink:href="#DejaVuSans-75" x="959.267578"/>
      <use xlink:href="#DejaVuSans-72" x="1022.646484"/>
      <use xlink:href="#DejaVuSans-61" x="1063.759766"/>
      <use xlink:href="#DejaVuSans-63" x="1125.039062"/>
      <use xlink:href="#DejaVuSans-79" x="1180.019531"/>
     </g>
    </g>
    <g id="line2d_28">
     <path d="M 216.18875 293.004312 
L 226.18875 293.004312 
L 236.18875 293.004312 
" style="fill: none; stroke: #9467bd; stroke-width: 1.5; stroke-linecap: square"/>
    </g>
    <g id="text_26">
     <!-- SWA Robust Validation Accuracy -->
     <g transform="translate(244.18875 296.504312) scale(0.1 -0.1)">
      <use xlink:href="#DejaVuSans-53"/>
      <use xlink:href="#DejaVuSans-57" x="63.476562"/>
      <use xlink:href="#DejaVuSans-41" x="156.853516"/>
      <use xlink:href="#DejaVuSans-20" x="225.261719"/>
      <use xlink:href="#DejaVuSans-52" x="257.048828"/>
      <use xlink:href="#DejaVuSans-6f" x="322.03125"/>
      <use xlink:href="#DejaVuSans-62" x="383.212891"/>
      <use xlink:href="#DejaVuSans-75" x="446.689453"/>
      <use xlink:href="#DejaVuSans-73" x="510.068359"/>
      <use xlink:href="#DejaVuSans-74" x="562.167969"/>
      <use xlink:href="#DejaVuSans-20" x="601.376953"/>
      <use xlink:href="#DejaVuSans-56" x="633.164062"/>
      <use xlink:href="#DejaVuSans-61" x="693.822266"/>
      <use xlink:href="#DejaVuSans-6c" x="755.101562"/>
      <use xlink:href="#DejaVuSans-69" x="782.884766"/>
      <use xlink:href="#DejaVuSans-64" x="810.667969"/>
      <use xlink:href="#DejaVuSans-61" x="874.144531"/>
      <use xlink:href="#DejaVuSans-74" x="935.423828"/>
      <use xlink:href="#DejaVuSans-69" x="974.632812"/>
      <use xlink:href="#DejaVuSans-6f" x="1002.416016"/>
      <use xlink:href="#DejaVuSans-6e" x="1063.597656"/>
      <use xlink:href="#DejaVuSans-20" x="1126.976562"/>
      <use xlink:href="#DejaVuSans-41" x="1158.763672"/>
      <use xlink:href="#DejaVuSans-63" x="1225.421875"/>
      <use xlink:href="#DejaVuSans-63" x="1280.402344"/>
      <use xlink:href="#DejaVuSans-75" x="1335.382812"/>
      <use xlink:href="#DejaVuSans-72" x="1398.761719"/>
      <use xlink:href="#DejaVuSans-61" x="1439.875"/>
      <use xlink:href="#DejaVuSans-63" x="1501.154297"/>
      <use xlink:href="#DejaVuSans-79" x="1556.134766"/>
     </g>
    </g>
   </g>
  </g>
 </g>
 <defs>
  <clipPath id="p3c927631f7">
   <rect x="57.6" y="41.472" width="357.12" height="266.112"/>
  </clipPath>
 </defs>
</svg>
