<?xml version="1.0" encoding="utf-8" standalone="no"?>
<!DOCTYPE svg PUBLIC "-//W3C//DTD SVG 1.1//EN"
  "http://www.w3.org/Graphics/SVG/1.1/DTD/svg11.dtd">
<svg xmlns:xlink="http://www.w3.org/1999/xlink" width="460.8pt" height="345.6pt" viewBox="0 0 460.8 345.6" xmlns="http://www.w3.org/2000/svg" version="1.1">
 <metadata>
  <rdf:RDF xmlns:dc="http://purl.org/dc/elements/1.1/" xmlns:cc="http://creativecommons.org/ns#" xmlns:rdf="http://www.w3.org/1999/02/22-rdf-syntax-ns#">
   <cc:Work>
    <dc:type rdf:resource="http://purl.org/dc/dcmitype/StillImage"/>
    <dc:date>2025-03-08T04:24:26.780842</dc:date>
    <dc:format>image/svg+xml</dc:format>
    <dc:creator>
     <cc:Agent>
      <dc:title>Matplotlib v3.9.1, https://matplotlib.org/</dc:title>
     </cc:Agent>
    </dc:creator>
   </cc:Work>
  </rdf:RDF>
 </metadata>
 <defs>
  <style type="text/css">*{stroke-linejoin: round; stroke-linecap: butt}</style>
 </defs>
 <g id="figure_1">
  <g id="patch_1">
   <path d="M 0 345.6 
L 460.8 345.6 
L 460.8 0 
L 0 0 
z
" style="fill: #ffffff"/>
  </g>
  <g id="axes_1">
   <g id="patch_2">
    <path d="M 57.6 307.584 
L 414.72 307.584 
L 414.72 41.472 
L 57.6 41.472 
z
" style="fill: #ffffff"/>
   </g>
   <g id="matplotlib.axis_1">
    <g id="xtick_1">
     <g id="line2d_1">
      <defs>
       <path id="m853911c5ef" d="M 0 0 
L 0 3.5 
" style="stroke: #000000; stroke-width: 0.8"/>
      </defs>
      <g>
       <use xlink:href="#m853911c5ef" x="73.832727" y="307.584" style="stroke: #000000; stroke-width: 0.8"/>
      </g>
     </g>
     <g id="text_1">
      <!-- 1 -->
      <g transform="translate(70.651477 322.182437) scale(0.1 -0.1)">
       <defs>
        <path id="DejaVuSans-31" d="M 794 531 
L 1825 531 
L 1825 4091 
L 703 3866 
L 703 4441 
L 1819 4666 
L 2450 4666 
L 2450 531 
L 3481 531 
L 3481 0 
L 794 0 
L 794 531 
z
" transform="scale(0.015625)"/>
       </defs>
       <use xlink:href="#DejaVuSans-31"/>
      </g>
     </g>
    </g>
    <g id="xtick_2">
     <g id="line2d_2">
      <g>
       <use xlink:href="#m853911c5ef" x="109.664165" y="307.584" style="stroke: #000000; stroke-width: 0.8"/>
      </g>
     </g>
     <g id="text_2">
      <!-- 34 -->
      <g transform="translate(103.301665 322.182437) scale(0.1 -0.1)">
       <defs>
        <path id="DejaVuSans-33" d="M 2597 2516 
Q 3050 2419 3304 2112 
Q 3559 1806 3559 1356 
Q 3559 666 3084 287 
Q 2609 -91 1734 -91 
Q 1441 -91 1130 -33 
Q 819 25 488 141 
L 488 750 
Q 750 597 1062 519 
Q 1375 441 1716 441 
Q 2309 441 2620 675 
Q 2931 909 2931 1356 
Q 2931 1769 2642 2001 
Q 2353 2234 1838 2234 
L 1294 2234 
L 1294 2753 
L 1863 2753 
Q 2328 2753 2575 2939 
Q 2822 3125 2822 3475 
Q 2822 3834 2567 4026 
Q 2313 4219 1838 4219 
Q 1578 4219 1281 4162 
Q 984 4106 628 3988 
L 628 4550 
Q 988 4650 1302 4700 
Q 1616 4750 1894 4750 
Q 2613 4750 3031 4423 
Q 3450 4097 3450 3541 
Q 3450 3153 3228 2886 
Q 3006 2619 2597 2516 
z
" transform="scale(0.015625)"/>
        <path id="DejaVuSans-34" d="M 2419 4116 
L 825 1625 
L 2419 1625 
L 2419 4116 
z
M 2253 4666 
L 3047 4666 
L 3047 1625 
L 3713 1625 
L 3713 1100 
L 3047 1100 
L 3047 0 
L 2419 0 
L 2419 1100 
L 313 1100 
L 313 1709 
L 2253 4666 
z
" transform="scale(0.015625)"/>
       </defs>
       <use xlink:href="#DejaVuSans-33"/>
       <use xlink:href="#DejaVuSans-34" x="63.623047"/>
      </g>
     </g>
    </g>
    <g id="xtick_3">
     <g id="line2d_3">
      <g>
       <use xlink:href="#m853911c5ef" x="145.495604" y="307.584" style="stroke: #000000; stroke-width: 0.8"/>
      </g>
     </g>
     <g id="text_3">
      <!-- 67 -->
      <g transform="translate(139.133104 322.182437) scale(0.1 -0.1)">
       <defs>
        <path id="DejaVuSans-36" d="M 2113 2584 
Q 1688 2584 1439 2293 
Q 1191 2003 1191 1497 
Q 1191 994 1439 701 
Q 1688 409 2113 409 
Q 2538 409 2786 701 
Q 3034 994 3034 1497 
Q 3034 2003 2786 2293 
Q 2538 2584 2113 2584 
z
M 3366 4563 
L 3366 3988 
Q 3128 4100 2886 4159 
Q 2644 4219 2406 4219 
Q 1781 4219 1451 3797 
Q 1122 3375 1075 2522 
Q 1259 2794 1537 2939 
Q 1816 3084 2150 3084 
Q 2853 3084 3261 2657 
Q 3669 2231 3669 1497 
Q 3669 778 3244 343 
Q 2819 -91 2113 -91 
Q 1303 -91 875 529 
Q 447 1150 447 2328 
Q 447 3434 972 4092 
Q 1497 4750 2381 4750 
Q 2619 4750 2861 4703 
Q 3103 4656 3366 4563 
z
" transform="scale(0.015625)"/>
        <path id="DejaVuSans-37" d="M 525 4666 
L 3525 4666 
L 3525 4397 
L 1831 0 
L 1172 0 
L 2766 4134 
L 525 4134 
L 525 4666 
z
" transform="scale(0.015625)"/>
       </defs>
       <use xlink:href="#DejaVuSans-36"/>
       <use xlink:href="#DejaVuSans-37" x="63.623047"/>
      </g>
     </g>
    </g>
    <g id="xtick_4">
     <g id="line2d_4">
      <g>
       <use xlink:href="#m853911c5ef" x="181.327042" y="307.584" style="stroke: #000000; stroke-width: 0.8"/>
      </g>
     </g>
     <g id="text_4">
      <!-- 100 -->
      <g transform="translate(171.783292 322.182437) scale(0.1 -0.1)">
       <defs>
        <path id="DejaVuSans-30" d="M 2034 4250 
Q 1547 4250 1301 3770 
Q 1056 3291 1056 2328 
Q 1056 1369 1301 889 
Q 1547 409 2034 409 
Q 2525 409 2770 889 
Q 3016 1369 3016 2328 
Q 3016 3291 2770 3770 
Q 2525 4250 2034 4250 
z
M 2034 4750 
Q 2819 4750 3233 4129 
Q 3647 3509 3647 2328 
Q 3647 1150 3233 529 
Q 2819 -91 2034 -91 
Q 1250 -91 836 529 
Q 422 1150 422 2328 
Q 422 3509 836 4129 
Q 1250 4750 2034 4750 
z
" transform="scale(0.015625)"/>
       </defs>
       <use xlink:href="#DejaVuSans-31"/>
       <use xlink:href="#DejaVuSans-30" x="63.623047"/>
       <use xlink:href="#DejaVuSans-30" x="127.246094"/>
      </g>
     </g>
    </g>
    <g id="xtick_5">
     <g id="line2d_5">
      <g>
       <use xlink:href="#m853911c5ef" x="217.15848" y="307.584" style="stroke: #000000; stroke-width: 0.8"/>
      </g>
     </g>
     <g id="text_5">
      <!-- 133 -->
      <g transform="translate(207.61473 322.182437) scale(0.1 -0.1)">
       <use xlink:href="#DejaVuSans-31"/>
       <use xlink:href="#DejaVuSans-33" x="63.623047"/>
       <use xlink:href="#DejaVuSans-33" x="127.246094"/>
      </g>
     </g>
    </g>
    <g id="xtick_6">
     <g id="line2d_6">
      <g>
       <use xlink:href="#m853911c5ef" x="254.075719" y="307.584" style="stroke: #000000; stroke-width: 0.8"/>
      </g>
     </g>
     <g id="text_6">
      <!-- 167 -->
      <g transform="translate(244.531969 322.182437) scale(0.1 -0.1)">
       <use xlink:href="#DejaVuSans-31"/>
       <use xlink:href="#DejaVuSans-36" x="63.623047"/>
       <use xlink:href="#DejaVuSans-37" x="127.246094"/>
      </g>
     </g>
    </g>
    <g id="xtick_7">
     <g id="line2d_7">
      <g>
       <use xlink:href="#m853911c5ef" x="289.907157" y="307.584" style="stroke: #000000; stroke-width: 0.8"/>
      </g>
     </g>
     <g id="text_7">
      <!-- 200 -->
      <g transform="translate(280.363407 322.182437) scale(0.1 -0.1)">
       <defs>
        <path id="DejaVuSans-32" d="M 1228 531 
L 3431 531 
L 3431 0 
L 469 0 
L 469 531 
Q 828 903 1448 1529 
Q 2069 2156 2228 2338 
Q 2531 2678 2651 2914 
Q 2772 3150 2772 3378 
Q 2772 3750 2511 3984 
Q 2250 4219 1831 4219 
Q 1534 4219 1204 4116 
Q 875 4013 500 3803 
L 500 4441 
Q 881 4594 1212 4672 
Q 1544 4750 1819 4750 
Q 2544 4750 2975 4387 
Q 3406 4025 3406 3419 
Q 3406 3131 3298 2873 
Q 3191 2616 2906 2266 
Q 2828 2175 2409 1742 
Q 1991 1309 1228 531 
z
" transform="scale(0.015625)"/>
       </defs>
       <use xlink:href="#DejaVuSans-32"/>
       <use xlink:href="#DejaVuSans-30" x="63.623047"/>
       <use xlink:href="#DejaVuSans-30" x="127.246094"/>
      </g>
     </g>
    </g>
    <g id="xtick_8">
     <g id="line2d_8">
      <g>
       <use xlink:href="#m853911c5ef" x="325.738595" y="307.584" style="stroke: #000000; stroke-width: 0.8"/>
      </g>
     </g>
     <g id="text_8">
      <!-- 233 -->
      <g transform="translate(316.194845 322.182437) scale(0.1 -0.1)">
       <use xlink:href="#DejaVuSans-32"/>
       <use xlink:href="#DejaVuSans-33" x="63.623047"/>
       <use xlink:href="#DejaVuSans-33" x="127.246094"/>
      </g>
     </g>
    </g>
    <g id="xtick_9">
     <g id="line2d_9">
      <g>
       <use xlink:href="#m853911c5ef" x="361.570033" y="307.584" style="stroke: #000000; stroke-width: 0.8"/>
      </g>
     </g>
     <g id="text_9">
      <!-- 266 -->
      <g transform="translate(352.026283 322.182437) scale(0.1 -0.1)">
       <use xlink:href="#DejaVuSans-32"/>
       <use xlink:href="#DejaVuSans-36" x="63.623047"/>
       <use xlink:href="#DejaVuSans-36" x="127.246094"/>
      </g>
     </g>
    </g>
    <g id="xtick_10">
     <g id="line2d_10">
      <g>
       <use xlink:href="#m853911c5ef" x="398.487273" y="307.584" style="stroke: #000000; stroke-width: 0.8"/>
      </g>
     </g>
     <g id="text_10">
      <!-- 300 -->
      <g transform="translate(388.943523 322.182437) scale(0.1 -0.1)">
       <use xlink:href="#DejaVuSans-33"/>
       <use xlink:href="#DejaVuSans-30" x="63.623047"/>
       <use xlink:href="#DejaVuSans-30" x="127.246094"/>
      </g>
     </g>
    </g>
    <g id="text_11">
     <!-- Epochs -->
     <g transform="translate(218.244375 335.860562) scale(0.1 -0.1)">
      <defs>
       <path id="DejaVuSans-45" d="M 628 4666 
L 3578 4666 
L 3578 4134 
L 1259 4134 
L 1259 2753 
L 3481 2753 
L 3481 2222 
L 1259 2222 
L 1259 531 
L 3634 531 
L 3634 0 
L 628 0 
L 628 4666 
z
" transform="scale(0.015625)"/>
       <path id="DejaVuSans-70" d="M 1159 525 
L 1159 -1331 
L 581 -1331 
L 581 3500 
L 1159 3500 
L 1159 2969 
Q 1341 3281 1617 3432 
Q 1894 3584 2278 3584 
Q 2916 3584 3314 3078 
Q 3713 2572 3713 1747 
Q 3713 922 3314 415 
Q 2916 -91 2278 -91 
Q 1894 -91 1617 61 
Q 1341 213 1159 525 
z
M 3116 1747 
Q 3116 2381 2855 2742 
Q 2594 3103 2138 3103 
Q 1681 3103 1420 2742 
Q 1159 2381 1159 1747 
Q 1159 1113 1420 752 
Q 1681 391 2138 391 
Q 2594 391 2855 752 
Q 3116 1113 3116 1747 
z
" transform="scale(0.015625)"/>
       <path id="DejaVuSans-6f" d="M 1959 3097 
Q 1497 3097 1228 2736 
Q 959 2375 959 1747 
Q 959 1119 1226 758 
Q 1494 397 1959 397 
Q 2419 397 2687 759 
Q 2956 1122 2956 1747 
Q 2956 2369 2687 2733 
Q 2419 3097 1959 3097 
z
M 1959 3584 
Q 2709 3584 3137 3096 
Q 3566 2609 3566 1747 
Q 3566 888 3137 398 
Q 2709 -91 1959 -91 
Q 1206 -91 779 398 
Q 353 888 353 1747 
Q 353 2609 779 3096 
Q 1206 3584 1959 3584 
z
" transform="scale(0.015625)"/>
       <path id="DejaVuSans-63" d="M 3122 3366 
L 3122 2828 
Q 2878 2963 2633 3030 
Q 2388 3097 2138 3097 
Q 1578 3097 1268 2742 
Q 959 2388 959 1747 
Q 959 1106 1268 751 
Q 1578 397 2138 397 
Q 2388 397 2633 464 
Q 2878 531 3122 666 
L 3122 134 
Q 2881 22 2623 -34 
Q 2366 -91 2075 -91 
Q 1284 -91 818 406 
Q 353 903 353 1747 
Q 353 2603 823 3093 
Q 1294 3584 2113 3584 
Q 2378 3584 2631 3529 
Q 2884 3475 3122 3366 
z
" transform="scale(0.015625)"/>
       <path id="DejaVuSans-68" d="M 3513 2113 
L 3513 0 
L 2938 0 
L 2938 2094 
Q 2938 2591 2744 2837 
Q 2550 3084 2163 3084 
Q 1697 3084 1428 2787 
Q 1159 2491 1159 1978 
L 1159 0 
L 581 0 
L 581 4863 
L 1159 4863 
L 1159 2956 
Q 1366 3272 1645 3428 
Q 1925 3584 2291 3584 
Q 2894 3584 3203 3211 
Q 3513 2838 3513 2113 
z
" transform="scale(0.015625)"/>
       <path id="DejaVuSans-73" d="M 2834 3397 
L 2834 2853 
Q 2591 2978 2328 3040 
Q 2066 3103 1784 3103 
Q 1356 3103 1142 2972 
Q 928 2841 928 2578 
Q 928 2378 1081 2264 
Q 1234 2150 1697 2047 
L 1894 2003 
Q 2506 1872 2764 1633 
Q 3022 1394 3022 966 
Q 3022 478 2636 193 
Q 2250 -91 1575 -91 
Q 1294 -91 989 -36 
Q 684 19 347 128 
L 347 722 
Q 666 556 975 473 
Q 1284 391 1588 391 
Q 1994 391 2212 530 
Q 2431 669 2431 922 
Q 2431 1156 2273 1281 
Q 2116 1406 1581 1522 
L 1381 1569 
Q 847 1681 609 1914 
Q 372 2147 372 2553 
Q 372 3047 722 3315 
Q 1072 3584 1716 3584 
Q 2034 3584 2315 3537 
Q 2597 3491 2834 3397 
z
" transform="scale(0.015625)"/>
      </defs>
      <use xlink:href="#DejaVuSans-45"/>
      <use xlink:href="#DejaVuSans-70" x="63.183594"/>
      <use xlink:href="#DejaVuSans-6f" x="126.660156"/>
      <use xlink:href="#DejaVuSans-63" x="187.841797"/>
      <use xlink:href="#DejaVuSans-68" x="242.822266"/>
      <use xlink:href="#DejaVuSans-73" x="306.201172"/>
     </g>
    </g>
   </g>
   <g id="matplotlib.axis_2">
    <g id="ytick_1">
     <g id="line2d_11">
      <defs>
       <path id="m471b5b9b69" d="M 0 0 
L -3.5 0 
" style="stroke: #000000; stroke-width: 0.8"/>
      </defs>
      <g>
       <use xlink:href="#m471b5b9b69" x="57.6" y="293.599708" style="stroke: #000000; stroke-width: 0.8"/>
      </g>
     </g>
     <g id="text_12">
      <!-- 10 -->
      <g transform="translate(37.875 297.398926) scale(0.1 -0.1)">
       <use xlink:href="#DejaVuSans-31"/>
       <use xlink:href="#DejaVuSans-30" x="63.623047"/>
      </g>
     </g>
    </g>
    <g id="ytick_2">
     <g id="line2d_12">
      <g>
       <use xlink:href="#m471b5b9b69" x="57.6" y="263.24131" style="stroke: #000000; stroke-width: 0.8"/>
      </g>
     </g>
     <g id="text_13">
      <!-- 20 -->
      <g transform="translate(37.875 267.040529) scale(0.1 -0.1)">
       <use xlink:href="#DejaVuSans-32"/>
       <use xlink:href="#DejaVuSans-30" x="63.623047"/>
      </g>
     </g>
    </g>
    <g id="ytick_3">
     <g id="line2d_13">
      <g>
       <use xlink:href="#m471b5b9b69" x="57.6" y="232.882912" style="stroke: #000000; stroke-width: 0.8"/>
      </g>
     </g>
     <g id="text_14">
      <!-- 30 -->
      <g transform="translate(37.875 236.682131) scale(0.1 -0.1)">
       <use xlink:href="#DejaVuSans-33"/>
       <use xlink:href="#DejaVuSans-30" x="63.623047"/>
      </g>
     </g>
    </g>
    <g id="ytick_4">
     <g id="line2d_14">
      <g>
       <use xlink:href="#m471b5b9b69" x="57.6" y="202.524514" style="stroke: #000000; stroke-width: 0.8"/>
      </g>
     </g>
     <g id="text_15">
      <!-- 40 -->
      <g transform="translate(37.875 206.323733) scale(0.1 -0.1)">
       <use xlink:href="#DejaVuSans-34"/>
       <use xlink:href="#DejaVuSans-30" x="63.623047"/>
      </g>
     </g>
    </g>
    <g id="ytick_5">
     <g id="line2d_15">
      <g>
       <use xlink:href="#m471b5b9b69" x="57.6" y="172.166117" style="stroke: #000000; stroke-width: 0.8"/>
      </g>
     </g>
     <g id="text_16">
      <!-- 50 -->
      <g transform="translate(37.875 175.965335) scale(0.1 -0.1)">
       <defs>
        <path id="DejaVuSans-35" d="M 691 4666 
L 3169 4666 
L 3169 4134 
L 1269 4134 
L 1269 2991 
Q 1406 3038 1543 3061 
Q 1681 3084 1819 3084 
Q 2600 3084 3056 2656 
Q 3513 2228 3513 1497 
Q 3513 744 3044 326 
Q 2575 -91 1722 -91 
Q 1428 -91 1123 -41 
Q 819 9 494 109 
L 494 744 
Q 775 591 1075 516 
Q 1375 441 1709 441 
Q 2250 441 2565 725 
Q 2881 1009 2881 1497 
Q 2881 1984 2565 2268 
Q 2250 2553 1709 2553 
Q 1456 2553 1204 2497 
Q 953 2441 691 2322 
L 691 4666 
z
" transform="scale(0.015625)"/>
       </defs>
       <use xlink:href="#DejaVuSans-35"/>
       <use xlink:href="#DejaVuSans-30" x="63.623047"/>
      </g>
     </g>
    </g>
    <g id="ytick_6">
     <g id="line2d_16">
      <g>
       <use xlink:href="#m471b5b9b69" x="57.6" y="141.807719" style="stroke: #000000; stroke-width: 0.8"/>
      </g>
     </g>
     <g id="text_17">
      <!-- 60 -->
      <g transform="translate(37.875 145.606938) scale(0.1 -0.1)">
       <use xlink:href="#DejaVuSans-36"/>
       <use xlink:href="#DejaVuSans-30" x="63.623047"/>
      </g>
     </g>
    </g>
    <g id="ytick_7">
     <g id="line2d_17">
      <g>
       <use xlink:href="#m471b5b9b69" x="57.6" y="111.449321" style="stroke: #000000; stroke-width: 0.8"/>
      </g>
     </g>
     <g id="text_18">
      <!-- 70 -->
      <g transform="translate(37.875 115.24854) scale(0.1 -0.1)">
       <use xlink:href="#DejaVuSans-37"/>
       <use xlink:href="#DejaVuSans-30" x="63.623047"/>
      </g>
     </g>
    </g>
    <g id="ytick_8">
     <g id="line2d_18">
      <g>
       <use xlink:href="#m471b5b9b69" x="57.6" y="81.090923" style="stroke: #000000; stroke-width: 0.8"/>
      </g>
     </g>
     <g id="text_19">
      <!-- 80 -->
      <g transform="translate(37.875 84.890142) scale(0.1 -0.1)">
       <defs>
        <path id="DejaVuSans-38" d="M 2034 2216 
Q 1584 2216 1326 1975 
Q 1069 1734 1069 1313 
Q 1069 891 1326 650 
Q 1584 409 2034 409 
Q 2484 409 2743 651 
Q 3003 894 3003 1313 
Q 3003 1734 2745 1975 
Q 2488 2216 2034 2216 
z
M 1403 2484 
Q 997 2584 770 2862 
Q 544 3141 544 3541 
Q 544 4100 942 4425 
Q 1341 4750 2034 4750 
Q 2731 4750 3128 4425 
Q 3525 4100 3525 3541 
Q 3525 3141 3298 2862 
Q 3072 2584 2669 2484 
Q 3125 2378 3379 2068 
Q 3634 1759 3634 1313 
Q 3634 634 3220 271 
Q 2806 -91 2034 -91 
Q 1263 -91 848 271 
Q 434 634 434 1313 
Q 434 1759 690 2068 
Q 947 2378 1403 2484 
z
M 1172 3481 
Q 1172 3119 1398 2916 
Q 1625 2713 2034 2713 
Q 2441 2713 2670 2916 
Q 2900 3119 2900 3481 
Q 2900 3844 2670 4047 
Q 2441 4250 2034 4250 
Q 1625 4250 1398 4047 
Q 1172 3844 1172 3481 
z
" transform="scale(0.015625)"/>
       </defs>
       <use xlink:href="#DejaVuSans-38"/>
       <use xlink:href="#DejaVuSans-30" x="63.623047"/>
      </g>
     </g>
    </g>
    <g id="ytick_9">
     <g id="line2d_19">
      <g>
       <use xlink:href="#m471b5b9b69" x="57.6" y="50.732526" style="stroke: #000000; stroke-width: 0.8"/>
      </g>
     </g>
     <g id="text_20">
      <!-- 90 -->
      <g transform="translate(37.875 54.531744) scale(0.1 -0.1)">
       <defs>
        <path id="DejaVuSans-39" d="M 703 97 
L 703 672 
Q 941 559 1184 500 
Q 1428 441 1663 441 
Q 2288 441 2617 861 
Q 2947 1281 2994 2138 
Q 2813 1869 2534 1725 
Q 2256 1581 1919 1581 
Q 1219 1581 811 2004 
Q 403 2428 403 3163 
Q 403 3881 828 4315 
Q 1253 4750 1959 4750 
Q 2769 4750 3195 4129 
Q 3622 3509 3622 2328 
Q 3622 1225 3098 567 
Q 2575 -91 1691 -91 
Q 1453 -91 1209 -44 
Q 966 3 703 97 
z
M 1959 2075 
Q 2384 2075 2632 2365 
Q 2881 2656 2881 3163 
Q 2881 3666 2632 3958 
Q 2384 4250 1959 4250 
Q 1534 4250 1286 3958 
Q 1038 3666 1038 3163 
Q 1038 2656 1286 2365 
Q 1534 2075 1959 2075 
z
" transform="scale(0.015625)"/>
       </defs>
       <use xlink:href="#DejaVuSans-39"/>
       <use xlink:href="#DejaVuSans-30" x="63.623047"/>
      </g>
     </g>
    </g>
    <g id="text_21">
     <!-- Accuracy -->
     <g transform="translate(31.795312 197.356125) rotate(-90) scale(0.1 -0.1)">
      <defs>
       <path id="DejaVuSans-41" d="M 2188 4044 
L 1331 1722 
L 3047 1722 
L 2188 4044 
z
M 1831 4666 
L 2547 4666 
L 4325 0 
L 3669 0 
L 3244 1197 
L 1141 1197 
L 716 0 
L 50 0 
L 1831 4666 
z
" transform="scale(0.015625)"/>
       <path id="DejaVuSans-75" d="M 544 1381 
L 544 3500 
L 1119 3500 
L 1119 1403 
Q 1119 906 1312 657 
Q 1506 409 1894 409 
Q 2359 409 2629 706 
Q 2900 1003 2900 1516 
L 2900 3500 
L 3475 3500 
L 3475 0 
L 2900 0 
L 2900 538 
Q 2691 219 2414 64 
Q 2138 -91 1772 -91 
Q 1169 -91 856 284 
Q 544 659 544 1381 
z
M 1991 3584 
L 1991 3584 
z
" transform="scale(0.015625)"/>
       <path id="DejaVuSans-72" d="M 2631 2963 
Q 2534 3019 2420 3045 
Q 2306 3072 2169 3072 
Q 1681 3072 1420 2755 
Q 1159 2438 1159 1844 
L 1159 0 
L 581 0 
L 581 3500 
L 1159 3500 
L 1159 2956 
Q 1341 3275 1631 3429 
Q 1922 3584 2338 3584 
Q 2397 3584 2469 3576 
Q 2541 3569 2628 3553 
L 2631 2963 
z
" transform="scale(0.015625)"/>
       <path id="DejaVuSans-61" d="M 2194 1759 
Q 1497 1759 1228 1600 
Q 959 1441 959 1056 
Q 959 750 1161 570 
Q 1363 391 1709 391 
Q 2188 391 2477 730 
Q 2766 1069 2766 1631 
L 2766 1759 
L 2194 1759 
z
M 3341 1997 
L 3341 0 
L 2766 0 
L 2766 531 
Q 2569 213 2275 61 
Q 1981 -91 1556 -91 
Q 1019 -91 701 211 
Q 384 513 384 1019 
Q 384 1609 779 1909 
Q 1175 2209 1959 2209 
L 2766 2209 
L 2766 2266 
Q 2766 2663 2505 2880 
Q 2244 3097 1772 3097 
Q 1472 3097 1187 3025 
Q 903 2953 641 2809 
L 641 3341 
Q 956 3463 1253 3523 
Q 1550 3584 1831 3584 
Q 2591 3584 2966 3190 
Q 3341 2797 3341 1997 
z
" transform="scale(0.015625)"/>
       <path id="DejaVuSans-79" d="M 2059 -325 
Q 1816 -950 1584 -1140 
Q 1353 -1331 966 -1331 
L 506 -1331 
L 506 -850 
L 844 -850 
Q 1081 -850 1212 -737 
Q 1344 -625 1503 -206 
L 1606 56 
L 191 3500 
L 800 3500 
L 1894 763 
L 2988 3500 
L 3597 3500 
L 2059 -325 
z
" transform="scale(0.015625)"/>
      </defs>
      <use xlink:href="#DejaVuSans-41"/>
      <use xlink:href="#DejaVuSans-63" x="66.658203"/>
      <use xlink:href="#DejaVuSans-63" x="121.638672"/>
      <use xlink:href="#DejaVuSans-75" x="176.619141"/>
      <use xlink:href="#DejaVuSans-72" x="239.998047"/>
      <use xlink:href="#DejaVuSans-61" x="281.111328"/>
      <use xlink:href="#DejaVuSans-63" x="342.390625"/>
      <use xlink:href="#DejaVuSans-79" x="397.371094"/>
     </g>
    </g>
   </g>
   <g id="line2d_20">
    <path d="M 73.832727 295.488 
L 76.00433 214.825737 
L 77.090131 186.616714 
L 78.175932 166.264444 
L 79.261733 153.101043 
L 80.347534 142.153805 
L 81.433335 133.598808 
L 82.519137 128.140368 
L 83.604938 121.072933 
L 84.690739 117.217417 
L 85.77654 111.619328 
L 86.862341 107.393439 
L 87.948142 104.442603 
L 89.033943 100.070994 
L 90.119745 97.848759 
L 91.205546 96.179047 
L 92.291347 94.187536 
L 93.377148 92.778907 
L 94.462949 91.777079 
L 95.54875 118.249602 
L 96.634552 116.567747 
L 97.720353 113.707986 
L 98.806154 113.301183 
L 100.977756 106.956278 
L 102.063557 105.244065 
L 103.149358 102.766819 
L 104.23516 101.764992 
L 105.320961 99.305962 
L 106.406762 98.383067 
L 107.492563 96.616208 
L 108.578364 95.644739 
L 109.664165 93.161422 
L 110.749967 92.244599 
L 111.835768 89.445554 
L 112.921569 89.506271 
L 115.093171 86.877234 
L 116.178972 84.290699 
L 117.264773 83.021717 
L 118.350575 82.63313 
L 119.436376 80.593046 
L 120.522177 80.089096 
L 122.693779 77.156475 
L 123.77958 75.256039 
L 124.865382 74.78852 
L 125.951183 74.053847 
L 128.122785 70.951219 
L 129.208586 71.090867 
L 130.294387 70.562631 
L 131.380189 69.500087 
L 132.46599 69.36651 
L 133.551791 68.437543 
L 134.637592 68.577192 
L 135.723393 68.467902 
L 136.809194 66.968197 
L 137.894995 67.241422 
L 138.980797 89.469841 
L 140.066598 90.890614 
L 141.152399 91.194198 
L 142.2382 90.374521 
L 143.324001 89.71878 
L 144.409802 90.848112 
L 145.495604 89.651992 
L 146.581405 88.77767 
L 147.667206 87.472259 
L 148.753007 86.974381 
L 149.838808 87.284037 
L 150.924609 87.362968 
L 152.01041 85.110375 
L 153.096212 85.0193 
L 154.182013 84.478921 
L 155.267814 84.667143 
L 156.353615 84.15105 
L 157.439416 83.046004 
L 158.525217 83.361732 
L 159.611019 82.614915 
L 160.69682 81.649518 
L 161.782621 81.752736 
L 162.868422 80.423039 
L 163.954223 79.664079 
L 165.040024 79.317993 
L 166.125825 79.141914 
L 167.211627 78.109729 
L 168.297428 77.957937 
L 169.383229 78.07937 
L 170.46903 76.792174 
L 171.554831 76.48859 
L 172.640632 75.753917 
L 173.726434 75.608197 
L 175.898036 74.13885 
L 176.983837 74.284571 
L 178.069638 72.541999 
L 179.155439 73.829195 
L 180.24124 72.675576 
L 181.327042 71.801254 
L 182.412843 71.376236 
L 183.498644 70.08904 
L 184.584445 69.937248 
L 185.670246 70.180115 
L 186.756047 70.19833 
L 187.841849 68.783629 
L 190.013451 68.061099 
L 191.099252 66.585681 
L 192.185053 67.168562 
L 194.356656 65.705287 
L 196.528258 64.909897 
L 197.614059 63.901999 
L 198.69986 63.695561 
L 199.785661 62.730164 
L 200.871462 62.778738 
L 201.957264 62.189785 
L 203.043065 60.951162 
L 204.128866 61.673692 
L 205.214667 60.611148 
L 206.300468 60.945091 
L 208.472071 59.0993 
L 209.557872 59.7854 
L 210.643673 59.056798 
L 211.729474 59.366454 
L 212.815275 58.061043 
L 213.901076 58.783573 
L 216.072679 58.042828 
L 217.15848 57.733172 
L 218.244281 56.925639 
L 219.330082 56.500621 
L 220.415883 56.840635 
L 221.501684 57.666384 
L 222.587486 57.429588 
L 223.673287 56.755632 
L 224.759088 57.113861 
L 225.844889 77.229335 
L 226.93069 81.370221 
L 228.016491 80.775196 
L 229.102292 80.647691 
L 230.188094 81.503798 
L 231.273895 81.060565 
L 232.359696 81.273074 
L 233.445497 80.42911 
L 234.531298 80.265175 
L 235.617099 80.593046 
L 236.702901 79.900874 
L 237.788702 79.998021 
L 238.874503 78.47403 
L 239.960304 79.834086 
L 242.131906 78.577248 
L 243.217708 78.322238 
L 244.303509 77.514704 
L 245.38931 77.605779 
L 246.475111 78.516531 
L 247.560912 77.599708 
L 248.646713 76.913608 
L 249.732514 76.974325 
L 250.818316 76.591809 
L 251.904117 77.10183 
L 252.989918 77.162547 
L 254.075719 76.136433 
L 255.16152 75.58391 
L 256.247321 75.954283 
L 257.333123 76.021071 
L 258.418924 74.97067 
L 259.504725 74.806735 
L 262.762128 74.78852 
L 263.847929 74.284571 
L 264.933731 74.727803 
L 266.019532 74.072062 
L 267.105333 74.163137 
L 268.191134 73.361675 
L 269.276935 72.797009 
L 270.362736 72.596644 
L 271.448538 73.313102 
L 272.534339 72.973088 
L 273.62014 72.888084 
L 274.705941 72.669504 
L 275.791742 72.754507 
L 276.877543 71.837684 
L 277.963344 71.273018 
L 279.049146 72.201985 
L 280.134947 72.718077 
L 282.306549 70.647635 
L 283.39235 70.228689 
L 284.478151 70.769068 
L 285.563953 69.597234 
L 286.649754 70.228689 
L 287.735555 69.348295 
L 289.907157 70.350122 
L 290.992958 68.789701 
L 292.07876 68.929349 
L 293.164561 68.844346 
L 294.250362 68.480045 
L 295.336163 70.301549 
L 296.421964 68.850417 
L 297.507765 69.342223 
L 298.593566 68.443615 
L 299.679368 68.127888 
L 300.765169 67.545006 
L 301.85097 67.933594 
L 302.936771 67.192849 
L 304.022572 67.071415 
L 305.108373 67.150347 
L 306.194175 66.579609 
L 307.279976 66.719258 
L 308.365777 66.597824 
L 309.451578 65.583854 
L 310.537379 65.717431 
L 312.708981 64.685245 
L 313.794783 65.820649 
L 314.880584 64.563812 
L 315.966385 63.804852 
L 317.052186 64.77632 
L 318.137987 64.248084 
L 319.223788 63.167325 
L 320.30959 63.707705 
L 322.481192 62.888028 
L 323.566993 62.153355 
L 324.652794 63.124824 
L 326.824396 61.272961 
L 327.910198 61.637262 
L 328.995999 61.024022 
L 331.167601 61.710122 
L 332.253402 61.078668 
L 334.425005 61.351893 
L 335.510806 59.815758 
L 336.596607 59.767185 
L 337.682408 58.19462 
L 338.768209 59.299665 
L 339.85401 59.767185 
L 342.025613 58.789644 
L 343.111414 58.631781 
L 344.197215 58.747143 
L 345.283016 58.067115 
L 346.368817 58.042828 
L 347.454618 57.174578 
L 348.54042 57.113861 
L 349.626221 57.344585 
L 350.712022 56.992427 
L 352.883624 55.802378 
L 353.969425 56.251682 
L 355.055227 55.899525 
L 356.141028 56.452048 
L 357.226829 55.759876 
L 358.31263 55.69916 
L 359.398431 55.353074 
L 360.484232 54.782336 
L 361.570033 54.496967 
L 362.655835 55.110207 
L 363.741636 55.000916 
L 364.827437 54.169096 
L 365.913238 53.592287 
L 366.999039 53.568 
L 368.08484 53.707649 
L 369.170642 54.442322 
L 370.256443 54.788408 
L 372.428045 56.105962 
L 373.513846 56.300256 
L 374.599647 56.792062 
L 376.77125 57.411373 
L 377.857051 57.162434 
L 378.942852 56.112034 
L 380.028653 57.381015 
L 381.114454 56.379188 
L 382.200255 57.302083 
L 383.286057 56.74956 
L 384.371858 57.374943 
L 385.457659 56.725273 
L 386.54346 56.755632 
L 387.629261 57.484233 
L 389.800863 56.482406 
L 390.886665 57.976039 
L 391.972466 57.034929 
L 393.058267 56.71313 
L 394.144068 57.478162 
L 395.229869 56.330614 
L 396.31567 57.623882 
L 397.401472 56.682772 
L 398.487273 56.433833 
L 398.487273 56.433833 
" clip-path="url(#p3e4c449083)" style="fill: none; stroke: #1f77b4; stroke-width: 1.5; stroke-linecap: square"/>
   </g>
   <g id="line2d_21">
    <path d="M 73.832727 280.454521 
L 76.00433 229.604205 
L 77.090131 213.423179 
L 78.175932 200.581577 
L 79.261733 183.27729 
L 80.347534 183.641591 
L 81.433335 176.112708 
L 83.604938 156.774409 
L 84.690739 154.892188 
L 85.77654 150.793805 
L 86.862341 145.602519 
L 87.948142 146.118611 
L 89.033943 143.568506 
L 90.119745 138.164711 
L 92.291347 135.493172 
L 93.377148 134.764571 
L 94.462949 134.58242 
L 95.54875 162.178204 
L 96.634552 155.074339 
L 97.720353 161.479961 
L 98.806154 152.554592 
L 99.891955 148.03119 
L 100.977756 147.059722 
L 102.063557 145.511443 
L 103.149358 148.03119 
L 104.23516 142.050586 
L 105.320961 137.770052 
L 106.406762 140.714817 
L 107.492563 137.04145 
L 108.578364 136.252132 
L 109.664165 135.250305 
L 110.749967 133.45916 
L 111.835768 130.392961 
L 112.921569 133.125217 
L 114.00737 128.632174 
L 115.093171 128.207157 
L 116.178972 130.666187 
L 117.264773 127.023179 
L 118.350575 125.657051 
L 119.436376 123.744472 
L 120.522177 121.255084 
L 121.607978 119.585372 
L 122.693779 120.435407 
L 123.77958 119.069279 
L 124.865382 116.549532 
L 125.951183 117.1567 
L 127.036984 115.335196 
L 128.122785 115.942364 
L 129.208586 114.545878 
L 130.294387 112.967241 
L 131.380189 112.785091 
L 132.46599 112.42079 
L 133.551791 112.572582 
L 134.637592 112.42079 
L 135.723393 113.635126 
L 136.809194 111.510038 
L 137.894995 111.692188 
L 138.980797 133.428801 
L 140.066598 135.705681 
L 141.152399 133.368084 
L 142.2382 134.218119 
L 143.324001 134.248478 
L 144.409802 130.666187 
L 145.495604 129.542926 
L 146.581405 130.969771 
L 147.667206 131.36443 
L 148.753007 132.426974 
L 149.838808 133.702027 
L 150.924609 130.666187 
L 152.01041 130.028661 
L 153.096212 124.564149 
L 154.182013 126.841029 
L 155.267814 127.508914 
L 156.353615 129.026833 
L 157.439416 128.935758 
L 158.525217 125.960635 
L 159.611019 125.1106 
L 160.69682 122.07476 
L 161.782621 124.381999 
L 162.868422 122.65157 
L 163.954223 123.835547 
L 165.040024 124.807016 
L 166.125825 121.13365 
L 167.211627 120.830066 
L 168.297428 121.072933 
L 169.383229 123.683755 
L 170.46903 119.828239 
L 171.554831 121.497951 
L 172.640632 117.824585 
L 173.726434 117.521001 
L 174.812235 120.010389 
L 175.898036 118.796053 
L 176.983837 117.217417 
L 178.069638 116.97455 
L 179.155439 115.912006 
L 180.24124 115.092329 
L 181.327042 113.756559 
L 182.412843 114.910178 
L 183.498644 115.486988 
L 184.584445 112.299356 
L 185.670246 111.601113 
L 186.756047 110.174268 
L 187.841849 112.511865 
L 188.92765 112.238639 
L 190.013451 110.811795 
L 191.099252 109.901043 
L 192.185053 109.142083 
L 193.270854 109.749251 
L 194.356656 106.895561 
L 195.442457 108.595632 
L 196.528258 106.500902 
L 197.614059 108.474198 
L 198.69986 106.956278 
L 199.785661 106.318752 
L 200.871462 105.377642 
L 201.957264 107.168787 
L 203.043065 105.499075 
L 204.128866 105.408 
L 205.214667 104.83119 
L 206.300468 103.616855 
L 207.386269 103.799005 
L 208.472071 102.797178 
L 209.557872 102.250727 
L 210.643673 101.400691 
L 211.729474 101.279258 
L 212.815275 100.85424 
L 213.901076 101.279258 
L 214.986877 100.823882 
L 216.072679 101.127466 
L 217.15848 100.550656 
L 218.244281 100.398864 
L 219.330082 100.763165 
L 220.415883 100.67209 
L 221.501684 100.884599 
L 222.587486 100.216714 
L 223.673287 100.581015 
L 224.759088 100.48994 
L 225.844889 129.208984 
L 226.93069 129.178625 
L 228.016491 125.990994 
L 229.102292 131.880523 
L 230.188094 130.271528 
L 231.273895 128.116082 
L 232.359696 128.510741 
L 233.445497 124.958808 
L 234.531298 125.596335 
L 235.617099 130.726904 
L 236.702901 123.805189 
L 237.788702 120.860424 
L 238.874503 125.444543 
L 239.960304 131.121563 
L 241.046105 124.837375 
L 242.131906 120.071106 
L 243.217708 123.896264 
L 244.303509 124.533791 
L 245.38931 122.681928 
L 246.475111 121.376517 
L 247.560912 124.837375 
L 249.732514 121.740818 
L 250.818316 124.290923 
L 251.904117 122.165836 
L 252.989918 129.573285 
L 254.075719 118.09781 
L 255.16152 122.408703 
L 256.247321 123.319455 
L 257.333123 119.797881 
L 258.418924 120.313973 
L 259.504725 121.285442 
L 260.590526 122.46942 
L 261.676327 121.13365 
L 262.762128 118.310319 
L 263.847929 122.439061 
L 264.933731 116.245948 
L 266.019532 117.824585 
L 267.105333 118.553186 
L 268.191134 118.553186 
L 269.276935 119.919314 
L 270.362736 115.669138 
L 271.448538 119.372863 
L 272.534339 117.399567 
L 273.62014 120.344332 
L 274.705941 115.699497 
L 275.791742 115.578063 
L 276.877543 117.1567 
L 277.963344 114.394086 
L 279.049146 121.376517 
L 280.134947 111.601113 
L 281.220748 114.181577 
L 282.306549 118.85677 
L 283.39235 117.733509 
L 284.478151 115.426271 
L 285.563953 115.031612 
L 286.649754 116.306665 
L 287.735555 114.181577 
L 288.821356 112.511865 
L 289.907157 123.835547 
L 290.992958 110.265344 
L 292.07876 115.486988 
L 293.164561 114.303011 
L 294.250362 115.031612 
L 295.336163 117.035266 
L 296.421964 115.851289 
L 297.507765 113.301183 
L 298.593566 113.665484 
L 299.679368 112.694015 
L 300.765169 112.542223 
L 301.85097 110.872512 
L 302.936771 110.599286 
L 304.022572 111.813622 
L 305.108373 109.536742 
L 306.194175 111.358246 
L 307.279976 109.324233 
L 308.365777 111.024304 
L 309.451578 115.365554 
L 310.537379 111.418963 
L 311.62318 110.751078 
L 312.708981 106.683053 
L 313.794783 107.988464 
L 314.880584 107.806313 
L 315.966385 109.658176 
L 317.052186 107.411654 
L 318.137987 107.836672 
L 319.223788 106.74377 
L 320.30959 109.293875 
L 321.395391 107.836672 
L 322.481192 105.863376 
L 323.566993 107.745597 
L 324.652794 105.772301 
L 325.738595 104.345456 
L 326.824396 104.375814 
L 327.910198 104.284739 
L 328.995999 107.502729 
L 330.0818 105.195491 
L 331.167601 103.677571 
L 332.253402 103.920439 
L 333.339203 103.768647 
L 334.425005 103.829363 
L 335.510806 102.736461 
L 336.596607 101.400691 
L 337.682408 103.161479 
L 338.768209 103.343629 
L 339.85401 104.07223 
L 340.939811 100.216714 
L 342.025613 102.19001 
L 343.111414 101.43105 
L 344.197215 101.582842 
L 345.283016 100.611373 
L 346.368817 100.338148 
L 347.454618 100.702448 
L 348.54042 100.247072 
L 349.626221 97.180874 
L 350.712022 98.820228 
L 351.797823 96.998724 
L 352.883624 100.247072 
L 353.969425 97.63625 
L 355.055227 98.121985 
L 356.141028 98.152343 
L 358.31263 95.116503 
L 359.398431 98.061268 
L 360.484232 95.693313 
L 361.570033 94.145034 
L 362.655835 95.146862 
L 363.741636 95.571879 
L 365.913238 94.782561 
L 366.999039 95.93618 
L 368.08484 95.784388 
L 369.170642 97.120157 
L 370.256443 98.729152 
L 371.342244 98.21306 
L 372.428045 98.000551 
L 373.513846 100.429223 
L 374.599647 97.909476 
L 375.685448 100.216714 
L 376.77125 99.822055 
L 377.857051 100.48994 
L 378.942852 100.520298 
L 380.028653 99.548829 
L 381.114454 99.579188 
L 382.200255 100.763165 
L 383.286057 99.548829 
L 384.371858 97.393383 
L 385.457659 101.552483 
L 386.54346 100.125639 
L 387.629261 101.977501 
L 388.715062 99.973847 
L 390.886665 99.184528 
L 391.972466 97.848759 
L 393.058267 99.397037 
L 394.144068 99.397037 
L 395.229869 100.125639 
L 396.31567 98.850586 
L 397.401472 101.704275 
L 398.487273 101.2489 
L 398.487273 101.2489 
" clip-path="url(#p3e4c449083)" style="fill: none; stroke: #ff7f0e; stroke-width: 1.5; stroke-linecap: square"/>
   </g>
   <g id="line2d_22">
    <path d="M 73.832727 289.621711 
L 74.918528 286.648681 
L 76.00433 239.854875 
L 77.090131 244.523787 
L 78.175932 230.161125 
L 79.261733 218.038702 
L 80.347534 204.53445 
L 81.433335 197.771855 
L 82.519137 205.183491 
L 83.604938 195.950351 
L 84.690739 195.803793 
L 85.77654 195.531615 
L 86.862341 191.46987 
L 87.948142 182.906708 
L 89.033943 189.564619 
L 90.119745 187.533747 
L 92.291347 178.530912 
L 93.377148 180.017426 
L 94.462949 180.163984 
L 95.54875 200.116779 
L 96.634552 205.476607 
L 97.720353 211.715781 
L 98.806154 210.375824 
L 99.891955 194.275405 
L 100.977756 201.393926 
L 102.063557 202.440767 
L 103.149358 206.020964 
L 104.23516 202.88044 
L 105.320961 196.243467 
L 106.406762 194.066037 
L 107.492563 183.95355 
L 108.578364 184.832896 
L 109.664165 184.518844 
L 110.749967 186.842832 
L 111.835768 186.486906 
L 112.921569 188.350283 
L 114.00737 183.304508 
L 115.093171 182.320477 
L 116.178972 185.523812 
L 117.264773 188.015294 
L 119.436376 173.652631 
L 120.522177 176.039429 
L 121.607978 175.306641 
L 122.693779 177.798123 
L 123.77958 175.432262 
L 124.865382 172.333611 
L 125.951183 178.133112 
L 127.036984 172.689537 
L 128.122785 175.411325 
L 129.208586 174.38542 
L 130.294387 169.151214 
L 131.380189 170.42836 
L 132.46599 169.695571 
L 133.551791 170.302739 
L 134.637592 170.42836 
L 135.723393 170.344613 
L 136.809194 167.32971 
L 137.894995 170.595855 
L 140.066598 197.813729 
L 141.152399 185.126012 
L 142.2382 186.717211 
L 143.324001 180.080237 
L 144.409802 190.15085 
L 145.495604 188.078104 
L 146.581405 172.563916 
L 147.667206 186.633463 
L 148.753007 180.666468 
L 149.838808 191.721112 
L 150.924609 184.393223 
L 152.01041 177.88187 
L 153.096212 182.613593 
L 154.182013 180.603658 
L 155.267814 177.295639 
L 156.353615 184.665402 
L 157.439416 185.754117 
L 158.525217 176.185987 
L 159.611019 176.353482 
L 160.69682 177.651565 
L 161.782621 178.363417 
L 162.868422 183.786055 
L 163.954223 180.268668 
L 165.040024 178.928711 
L 166.125825 173.359516 
L 167.211627 177.588755 
L 168.297428 177.965617 
L 169.383229 175.055399 
L 170.46903 174.825094 
L 171.554831 178.133112 
L 172.640632 173.52701 
L 173.726434 166.094437 
L 174.812235 173.171084 
L 175.898036 167.162215 
L 176.983837 176.541913 
L 179.155439 163.309839 
L 180.24124 167.622825 
L 181.327042 162.242061 
L 182.412843 165.906006 
L 183.498644 172.396422 
L 184.584445 163.016724 
L 185.670246 168.71154 
L 186.756047 162.57705 
L 187.841849 166.387553 
L 188.92765 168.125309 
L 190.013451 164.272933 
L 191.099252 166.638795 
L 192.185053 159.918073 
L 193.270854 167.622825 
L 194.356656 160.525241 
L 195.442457 167.099405 
L 196.528258 157.30097 
L 197.614059 162.242061 
L 198.69986 164.210123 
L 199.785661 161.341778 
L 200.871462 162.91204 
L 201.957264 156.128508 
L 203.043065 165.236027 
L 204.128866 160.629926 
L 205.214667 163.288902 
L 206.300468 157.908138 
L 207.386269 159.01779 
L 208.472071 160.294936 
L 209.557872 159.541211 
L 210.643673 154.26513 
L 211.729474 156.714739 
L 212.815275 156.965981 
L 213.901076 156.861297 
L 214.986877 158.61999 
L 216.072679 158.264064 
L 217.15848 156.90317 
L 218.244281 160.064631 
L 219.330082 157.677833 
L 220.415883 159.185285 
L 221.501684 159.499337 
L 222.587486 158.180317 
L 223.673287 159.855263 
L 224.759088 157.510338 
L 225.844889 184.87477 
L 226.93069 182.760151 
L 228.016491 180.896773 
L 229.102292 186.6544 
L 230.188094 177.232829 
L 231.273895 182.592656 
L 232.359696 186.675337 
L 233.445497 178.74028 
L 234.531298 177.777186 
L 235.617099 180.080237 
L 236.702901 175.369451 
L 237.788702 176.416292 
L 238.874503 174.259799 
L 239.960304 173.401389 
L 241.046105 176.835029 
L 242.131906 170.909907 
L 243.217708 169.444329 
L 244.303509 171.28677 
L 245.38931 172.794221 
L 246.475111 172.019559 
L 247.560912 179.766185 
L 248.646713 182.802024 
L 249.732514 169.779318 
L 250.818316 175.557882 
L 251.904117 179.870869 
L 252.989918 178.258733 
L 254.075719 165.068533 
L 255.16152 172.940779 
L 256.247321 174.594788 
L 257.333123 169.716508 
L 258.418924 173.882936 
L 259.504725 165.864132 
L 260.590526 179.6615 
L 261.676327 171.893938 
L 262.762128 172.54298 
L 263.847929 170.323676 
L 264.933731 164.314807 
L 266.019532 175.264767 
L 267.105333 167.957815 
L 268.191134 172.103306 
L 269.276935 173.087337 
L 270.362736 162.618924 
L 271.448538 166.994721 
L 272.534339 173.254832 
L 273.62014 174.32261 
L 274.705941 156.463497 
L 275.791742 157.321907 
L 276.877543 173.443263 
L 277.963344 166.492237 
L 279.049146 174.490104 
L 280.134947 168.502172 
L 281.220748 167.748446 
L 282.306549 179.891805 
L 283.39235 174.929778 
L 284.478151 163.267966 
L 285.563953 166.952847 
L 286.649754 162.11644 
L 287.735555 168.502172 
L 288.821356 164.440428 
L 289.907157 178.844964 
L 290.992958 164.901038 
L 292.07876 177.756249 
L 293.164561 169.904939 
L 294.250362 170.951781 
L 295.336163 167.518141 
L 296.421964 165.864132 
L 297.507765 171.014591 
L 298.593566 165.633827 
L 299.679368 169.130277 
L 300.765169 167.32971 
L 301.85097 166.01069 
L 302.936771 163.540144 
L 305.108373 162.242061 
L 306.194175 163.749513 
L 307.279976 162.681734 
L 308.365777 158.515306 
L 309.451578 167.601889 
L 310.537379 164.063565 
L 311.62318 159.624958 
L 312.708981 162.932976 
L 313.794783 160.713673 
L 314.880584 162.723608 
L 315.966385 163.791386 
L 317.052186 158.892169 
L 318.137987 162.57705 
L 319.223788 163.582018 
L 320.30959 158.913106 
L 321.395391 161.278967 
L 322.481192 162.744545 
L 323.566993 161.739577 
L 324.652794 162.11644 
L 325.738595 158.61999 
L 326.824396 163.979818 
L 327.910198 161.278967 
L 328.995999 163.288902 
L 330.0818 162.97485 
L 331.167601 164.272933 
L 332.253402 160.755546 
L 333.339203 159.4784 
L 334.425005 163.351713 
L 335.510806 159.520274 
L 336.596607 161.634893 
L 337.682408 158.117506 
L 338.768209 158.180317 
L 339.85401 163.937944 
L 340.939811 157.154412 
L 342.025613 153.302036 
L 343.111414 156.337876 
L 344.197215 158.305938 
L 345.283016 159.122474 
L 346.368817 152.359879 
L 347.454618 155.856329 
L 348.54042 151.648027 
L 349.626221 150.496502 
L 350.712022 157.070665 
L 351.797823 150.70587 
L 352.883624 156.128508 
L 353.969425 152.380816 
L 355.055227 149.051861 
L 356.141028 151.375848 
L 357.226829 150.077765 
L 358.31263 153.239226 
L 359.398431 155.605087 
L 360.484232 152.632058 
L 361.570033 148.088767 
L 362.655835 150.831491 
L 363.741636 149.072798 
L 364.827437 149.114671 
L 365.913238 152.778616 
L 366.999039 153.951078 
L 368.08484 150.182449 
L 369.170642 154.788551 
L 370.256443 155.353845 
L 371.342244 154.976982 
L 372.428045 153.992952 
L 373.513846 152.506437 
L 374.599647 156.023824 
L 375.685448 149.470597 
L 376.77125 154.893235 
L 377.857051 149.533408 
L 378.942852 149.721839 
L 380.028653 152.673932 
L 381.114454 159.4784 
L 382.200255 157.866264 
L 383.286057 157.782517 
L 384.371858 152.150511 
L 385.457659 161.425525 
L 386.54346 158.410622 
L 387.629261 156.191318 
L 388.715062 155.730708 
L 390.886665 149.994018 
L 391.972466 155.563214 
L 393.058267 155.856329 
L 394.144068 155.395719 
L 395.229869 152.590184 
L 396.31567 154.139509 
L 397.401472 156.044761 
L 398.487273 158.536243 
L 398.487273 158.536243 
" clip-path="url(#p3e4c449083)" style="fill: none; stroke: #2ca02c; stroke-width: 1.5; stroke-linecap: square"/>
   </g>
   <g id="line2d_23">
    <path d="M 368.08484 94.873636 
L 369.170642 95.268295 
L 370.256443 95.845105 
L 371.342244 95.571879 
L 372.428045 99.882772 
L 373.513846 99.882772 
L 374.599647 98.39521 
L 375.685448 100.67209 
L 376.77125 97.332666 
L 377.857051 92.778907 
L 378.942852 98.638077 
L 380.028653 97.332666 
L 381.114454 98.030909 
L 382.200255 99.15417 
M 384.371858 97.4541 
L 385.457659 96.11833 
L 386.54346 96.968365 
L 387.629261 98.486285 
L 388.715062 101.795351 
L 389.800863 103.222195 
L 390.886665 105.165133 
L 391.972466 101.127466 
L 393.058267 102.675744 
L 394.144068 101.066749 
L 395.229869 103.070403 
L 396.31567 98.729152 
L 397.401472 100.307789 
L 398.487273 99.15417 
L 398.487273 99.15417 
" clip-path="url(#p3e4c449083)" style="fill: none; stroke: #d62728; stroke-width: 1.5; stroke-linecap: square"/>
   </g>
   <g id="line2d_24">
    <path d="M 368.08484 152.255195 
L 369.170642 154.348878 
L 370.256443 150.182449 
L 371.342244 148.863429 
L 372.428045 158.745611 
L 373.513846 161.299904 
L 374.599647 154.976982 
L 375.685448 157.30097 
L 376.77125 152.443627 
L 377.857051 145.660095 
L 378.942852 151.56428 
L 380.028653 147.314104 
L 381.114454 147.502536 
L 382.200255 147.963146 
L 383.286057 148.570314 
L 384.371858 148.06783 
L 385.457659 149.679965 
L 386.54346 148.591251 
L 387.629261 146.916304 
L 388.715062 148.905303 
L 389.800863 155.353845 
L 390.886665 151.878332 
L 391.972466 154.809488 
L 393.058267 155.709771 
L 394.144068 152.527374 
L 395.229869 162.179251 
L 396.31567 153.888268 
L 397.401472 157.824391 
L 398.487273 154.683867 
L 398.487273 154.683867 
" clip-path="url(#p3e4c449083)" style="fill: none; stroke: #9467bd; stroke-width: 1.5; stroke-linecap: square"/>
   </g>
   <g id="patch_3">
    <path d="M 57.6 307.584 
L 57.6 41.472 
" style="fill: none; stroke: #000000; stroke-width: 0.8; stroke-linejoin: miter; stroke-linecap: square"/>
   </g>
   <g id="patch_4">
    <path d="M 414.72 307.584 
L 414.72 41.472 
" style="fill: none; stroke: #000000; stroke-width: 0.8; stroke-linejoin: miter; stroke-linecap: square"/>
   </g>
   <g id="patch_5">
    <path d="M 57.6 307.584 
L 414.72 307.584 
" style="fill: none; stroke: #000000; stroke-width: 0.8; stroke-linejoin: miter; stroke-linecap: square"/>
   </g>
   <g id="patch_6">
    <path d="M 57.6 41.472 
L 414.72 41.472 
" style="fill: none; stroke: #000000; stroke-width: 0.8; stroke-linejoin: miter; stroke-linecap: square"/>
   </g>
   <g id="text_22">
    <!-- Learning Curves -->
    <g transform="translate(187.37625 35.472) scale(0.12 -0.12)">
     <defs>
      <path id="DejaVuSans-4c" d="M 628 4666 
L 1259 4666 
L 1259 531 
L 3531 531 
L 3531 0 
L 628 0 
L 628 4666 
z
" transform="scale(0.015625)"/>
      <path id="DejaVuSans-65" d="M 3597 1894 
L 3597 1613 
L 953 1613 
Q 991 1019 1311 708 
Q 1631 397 2203 397 
Q 2534 397 2845 478 
Q 3156 559 3463 722 
L 3463 178 
Q 3153 47 2828 -22 
Q 2503 -91 2169 -91 
Q 1331 -91 842 396 
Q 353 884 353 1716 
Q 353 2575 817 3079 
Q 1281 3584 2069 3584 
Q 2775 3584 3186 3129 
Q 3597 2675 3597 1894 
z
M 3022 2063 
Q 3016 2534 2758 2815 
Q 2500 3097 2075 3097 
Q 1594 3097 1305 2825 
Q 1016 2553 972 2059 
L 3022 2063 
z
" transform="scale(0.015625)"/>
      <path id="DejaVuSans-6e" d="M 3513 2113 
L 3513 0 
L 2938 0 
L 2938 2094 
Q 2938 2591 2744 2837 
Q 2550 3084 2163 3084 
Q 1697 3084 1428 2787 
Q 1159 2491 1159 1978 
L 1159 0 
L 581 0 
L 581 3500 
L 1159 3500 
L 1159 2956 
Q 1366 3272 1645 3428 
Q 1925 3584 2291 3584 
Q 2894 3584 3203 3211 
Q 3513 2838 3513 2113 
z
" transform="scale(0.015625)"/>
      <path id="DejaVuSans-69" d="M 603 3500 
L 1178 3500 
L 1178 0 
L 603 0 
L 603 3500 
z
M 603 4863 
L 1178 4863 
L 1178 4134 
L 603 4134 
L 603 4863 
z
" transform="scale(0.015625)"/>
      <path id="DejaVuSans-67" d="M 2906 1791 
Q 2906 2416 2648 2759 
Q 2391 3103 1925 3103 
Q 1463 3103 1205 2759 
Q 947 2416 947 1791 
Q 947 1169 1205 825 
Q 1463 481 1925 481 
Q 2391 481 2648 825 
Q 2906 1169 2906 1791 
z
M 3481 434 
Q 3481 -459 3084 -895 
Q 2688 -1331 1869 -1331 
Q 1566 -1331 1297 -1286 
Q 1028 -1241 775 -1147 
L 775 -588 
Q 1028 -725 1275 -790 
Q 1522 -856 1778 -856 
Q 2344 -856 2625 -561 
Q 2906 -266 2906 331 
L 2906 616 
Q 2728 306 2450 153 
Q 2172 0 1784 0 
Q 1141 0 747 490 
Q 353 981 353 1791 
Q 353 2603 747 3093 
Q 1141 3584 1784 3584 
Q 2172 3584 2450 3431 
Q 2728 3278 2906 2969 
L 2906 3500 
L 3481 3500 
L 3481 434 
z
" transform="scale(0.015625)"/>
      <path id="DejaVuSans-20" transform="scale(0.015625)"/>
      <path id="DejaVuSans-43" d="M 4122 4306 
L 4122 3641 
Q 3803 3938 3442 4084 
Q 3081 4231 2675 4231 
Q 1875 4231 1450 3742 
Q 1025 3253 1025 2328 
Q 1025 1406 1450 917 
Q 1875 428 2675 428 
Q 3081 428 3442 575 
Q 3803 722 4122 1019 
L 4122 359 
Q 3791 134 3420 21 
Q 3050 -91 2638 -91 
Q 1578 -91 968 557 
Q 359 1206 359 2328 
Q 359 3453 968 4101 
Q 1578 4750 2638 4750 
Q 3056 4750 3426 4639 
Q 3797 4528 4122 4306 
z
" transform="scale(0.015625)"/>
      <path id="DejaVuSans-76" d="M 191 3500 
L 800 3500 
L 1894 563 
L 2988 3500 
L 3597 3500 
L 2284 0 
L 1503 0 
L 191 3500 
z
" transform="scale(0.015625)"/>
     </defs>
     <use xlink:href="#DejaVuSans-4c"/>
     <use xlink:href="#DejaVuSans-65" x="53.962891"/>
     <use xlink:href="#DejaVuSans-61" x="115.486328"/>
     <use xlink:href="#DejaVuSans-72" x="176.765625"/>
     <use xlink:href="#DejaVuSans-6e" x="216.128906"/>
     <use xlink:href="#DejaVuSans-69" x="279.507812"/>
     <use xlink:href="#DejaVuSans-6e" x="307.291016"/>
     <use xlink:href="#DejaVuSans-67" x="370.669922"/>
     <use xlink:href="#DejaVuSans-20" x="434.146484"/>
     <use xlink:href="#DejaVuSans-43" x="465.933594"/>
     <use xlink:href="#DejaVuSans-75" x="535.757812"/>
     <use xlink:href="#DejaVuSans-72" x="599.136719"/>
     <use xlink:href="#DejaVuSans-76" x="640.25"/>
     <use xlink:href="#DejaVuSans-65" x="699.429688"/>
     <use xlink:href="#DejaVuSans-73" x="760.953125"/>
    </g>
   </g>
   <g id="legend_1">
    <g id="patch_7">
     <path d="M 214.18875 302.584 
L 407.72 302.584 
Q 409.72 302.584 409.72 300.584 
L 409.72 228.193375 
Q 409.72 226.193375 407.72 226.193375 
L 214.18875 226.193375 
Q 212.18875 226.193375 212.18875 228.193375 
L 212.18875 300.584 
Q 212.18875 302.584 214.18875 302.584 
z
" style="fill: #ffffff; opacity: 0.8; stroke: #cccccc; stroke-linejoin: miter"/>
    </g>
    <g id="line2d_25">
     <path d="M 216.18875 234.291812 
L 226.18875 234.291812 
L 236.18875 234.291812 
" style="fill: none; stroke: #1f77b4; stroke-width: 1.5; stroke-linecap: square"/>
    </g>
    <g id="text_23">
     <!-- Train Accuracy -->
     <g transform="translate(244.18875 237.791812) scale(0.1 -0.1)">
      <defs>
       <path id="DejaVuSans-54" d="M -19 4666 
L 3928 4666 
L 3928 4134 
L 2272 4134 
L 2272 0 
L 1638 0 
L 1638 4134 
L -19 4134 
L -19 4666 
z
" transform="scale(0.015625)"/>
      </defs>
      <use xlink:href="#DejaVuSans-54"/>
      <use xlink:href="#DejaVuSans-72" x="46.333984"/>
      <use xlink:href="#DejaVuSans-61" x="87.447266"/>
      <use xlink:href="#DejaVuSans-69" x="148.726562"/>
      <use xlink:href="#DejaVuSans-6e" x="176.509766"/>
      <use xlink:href="#DejaVuSans-20" x="239.888672"/>
      <use xlink:href="#DejaVuSans-41" x="271.675781"/>
      <use xlink:href="#DejaVuSans-63" x="338.333984"/>
      <use xlink:href="#DejaVuSans-63" x="393.314453"/>
      <use xlink:href="#DejaVuSans-75" x="448.294922"/>
      <use xlink:href="#DejaVuSans-72" x="511.673828"/>
      <use xlink:href="#DejaVuSans-61" x="552.787109"/>
      <use xlink:href="#DejaVuSans-63" x="614.066406"/>
      <use xlink:href="#DejaVuSans-79" x="669.046875"/>
     </g>
    </g>
    <g id="line2d_26">
     <path d="M 216.18875 248.969937 
L 226.18875 248.969937 
L 236.18875 248.969937 
" style="fill: none; stroke: #ff7f0e; stroke-width: 1.5; stroke-linecap: square"/>
    </g>
    <g id="text_24">
     <!-- Validation Accuracy -->
     <g transform="translate(244.18875 252.469937) scale(0.1 -0.1)">
      <defs>
       <path id="DejaVuSans-56" d="M 1831 0 
L 50 4666 
L 709 4666 
L 2188 738 
L 3669 4666 
L 4325 4666 
L 2547 0 
L 1831 0 
z
" transform="scale(0.015625)"/>
       <path id="DejaVuSans-6c" d="M 603 4863 
L 1178 4863 
L 1178 0 
L 603 0 
L 603 4863 
z
" transform="scale(0.015625)"/>
       <path id="DejaVuSans-64" d="M 2906 2969 
L 2906 4863 
L 3481 4863 
L 3481 0 
L 2906 0 
L 2906 525 
Q 2725 213 2448 61 
Q 2172 -91 1784 -91 
Q 1150 -91 751 415 
Q 353 922 353 1747 
Q 353 2572 751 3078 
Q 1150 3584 1784 3584 
Q 2172 3584 2448 3432 
Q 2725 3281 2906 2969 
z
M 947 1747 
Q 947 1113 1208 752 
Q 1469 391 1925 391 
Q 2381 391 2643 752 
Q 2906 1113 2906 1747 
Q 2906 2381 2643 2742 
Q 2381 3103 1925 3103 
Q 1469 3103 1208 2742 
Q 947 2381 947 1747 
z
" transform="scale(0.015625)"/>
       <path id="DejaVuSans-74" d="M 1172 4494 
L 1172 3500 
L 2356 3500 
L 2356 3053 
L 1172 3053 
L 1172 1153 
Q 1172 725 1289 603 
Q 1406 481 1766 481 
L 2356 481 
L 2356 0 
L 1766 0 
Q 1100 0 847 248 
Q 594 497 594 1153 
L 594 3053 
L 172 3053 
L 172 3500 
L 594 3500 
L 594 4494 
L 1172 4494 
z
" transform="scale(0.015625)"/>
      </defs>
      <use xlink:href="#DejaVuSans-56"/>
      <use xlink:href="#DejaVuSans-61" x="60.658203"/>
      <use xlink:href="#DejaVuSans-6c" x="121.9375"/>
      <use xlink:href="#DejaVuSans-69" x="149.720703"/>
      <use xlink:href="#DejaVuSans-64" x="177.503906"/>
      <use xlink:href="#DejaVuSans-61" x="240.980469"/>
      <use xlink:href="#DejaVuSans-74" x="302.259766"/>
      <use xlink:href="#DejaVuSans-69" x="341.46875"/>
      <use xlink:href="#DejaVuSans-6f" x="369.251953"/>
      <use xlink:href="#DejaVuSans-6e" x="430.433594"/>
      <use xlink:href="#DejaVuSans-20" x="493.8125"/>
      <use xlink:href="#DejaVuSans-41" x="525.599609"/>
      <use xlink:href="#DejaVuSans-63" x="592.257812"/>
      <use xlink:href="#DejaVuSans-63" x="647.238281"/>
      <use xlink:href="#DejaVuSans-75" x="702.21875"/>
      <use xlink:href="#DejaVuSans-72" x="765.597656"/>
      <use xlink:href="#DejaVuSans-61" x="806.710938"/>
      <use xlink:href="#DejaVuSans-63" x="867.990234"/>
      <use xlink:href="#DejaVuSans-79" x="922.970703"/>
     </g>
    </g>
    <g id="line2d_27">
     <path d="M 216.18875 263.648062 
L 226.18875 263.648062 
L 236.18875 263.648062 
" style="fill: none; stroke: #2ca02c; stroke-width: 1.5; stroke-linecap: square"/>
    </g>
    <g id="text_25">
     <!-- Robust Validation Accuracy -->
     <g transform="translate(244.18875 267.148062) scale(0.1 -0.1)">
      <defs>
       <path id="DejaVuSans-52" d="M 2841 2188 
Q 3044 2119 3236 1894 
Q 3428 1669 3622 1275 
L 4263 0 
L 3584 0 
L 2988 1197 
Q 2756 1666 2539 1819 
Q 2322 1972 1947 1972 
L 1259 1972 
L 1259 0 
L 628 0 
L 628 4666 
L 2053 4666 
Q 2853 4666 3247 4331 
Q 3641 3997 3641 3322 
Q 3641 2881 3436 2590 
Q 3231 2300 2841 2188 
z
M 1259 4147 
L 1259 2491 
L 2053 2491 
Q 2509 2491 2742 2702 
Q 2975 2913 2975 3322 
Q 2975 3731 2742 3939 
Q 2509 4147 2053 4147 
L 1259 4147 
z
" transform="scale(0.015625)"/>
       <path id="DejaVuSans-62" d="M 3116 1747 
Q 3116 2381 2855 2742 
Q 2594 3103 2138 3103 
Q 1681 3103 1420 2742 
Q 1159 2381 1159 1747 
Q 1159 1113 1420 752 
Q 1681 391 2138 391 
Q 2594 391 2855 752 
Q 3116 1113 3116 1747 
z
M 1159 2969 
Q 1341 3281 1617 3432 
Q 1894 3584 2278 3584 
Q 2916 3584 3314 3078 
Q 3713 2572 3713 1747 
Q 3713 922 3314 415 
Q 2916 -91 2278 -91 
Q 1894 -91 1617 61 
Q 1341 213 1159 525 
L 1159 0 
L 581 0 
L 581 4863 
L 1159 4863 
L 1159 2969 
z
" transform="scale(0.015625)"/>
      </defs>
      <use xlink:href="#DejaVuSans-52"/>
      <use xlink:href="#DejaVuSans-6f" x="64.982422"/>
      <use xlink:href="#DejaVuSans-62" x="126.164062"/>
      <use xlink:href="#DejaVuSans-75" x="189.640625"/>
      <use xlink:href="#DejaVuSans-73" x="253.019531"/>
      <use xlink:href="#DejaVuSans-74" x="305.119141"/>
      <use xlink:href="#DejaVuSans-20" x="344.328125"/>
      <use xlink:href="#DejaVuSans-56" x="376.115234"/>
      <use xlink:href="#DejaVuSans-61" x="436.773438"/>
      <use xlink:href="#DejaVuSans-6c" x="498.052734"/>
      <use xlink:href="#DejaVuSans-69" x="525.835938"/>
      <use xlink:href="#DejaVuSans-64" x="553.619141"/>
      <use xlink:href="#DejaVuSans-61" x="617.095703"/>
      <use xlink:href="#DejaVuSans-74" x="678.375"/>
      <use xlink:href="#DejaVuSans-69" x="717.583984"/>
      <use xlink:href="#DejaVuSans-6f" x="745.367188"/>
      <use xlink:href="#DejaVuSans-6e" x="806.548828"/>
      <use xlink:href="#DejaVuSans-20" x="869.927734"/>
      <use xlink:href="#DejaVuSans-41" x="901.714844"/>
      <use xlink:href="#DejaVuSans-63" x="968.373047"/>
      <use xlink:href="#DejaVuSans-63" x="1023.353516"/>
      <use xlink:href="#DejaVuSans-75" x="1078.333984"/>
      <use xlink:href="#DejaVuSans-72" x="1141.712891"/>
      <use xlink:href="#DejaVuSans-61" x="1182.826172"/>
      <use xlink:href="#DejaVuSans-63" x="1244.105469"/>
      <use xlink:href="#DejaVuSans-79" x="1299.085938"/>
     </g>
    </g>
    <g id="line2d_28">
     <path d="M 216.18875 278.326188 
L 226.18875 278.326188 
L 236.18875 278.326188 
" style="fill: none; stroke: #d62728; stroke-width: 1.5; stroke-linecap: square"/>
    </g>
    <g id="text_26">
     <!-- SWA Validation Accuracy -->
     <g transform="translate(244.18875 281.826188) scale(0.1 -0.1)">
      <defs>
       <path id="DejaVuSans-53" d="M 3425 4513 
L 3425 3897 
Q 3066 4069 2747 4153 
Q 2428 4238 2131 4238 
Q 1616 4238 1336 4038 
Q 1056 3838 1056 3469 
Q 1056 3159 1242 3001 
Q 1428 2844 1947 2747 
L 2328 2669 
Q 3034 2534 3370 2195 
Q 3706 1856 3706 1288 
Q 3706 609 3251 259 
Q 2797 -91 1919 -91 
Q 1588 -91 1214 -16 
Q 841 59 441 206 
L 441 856 
Q 825 641 1194 531 
Q 1563 422 1919 422 
Q 2459 422 2753 634 
Q 3047 847 3047 1241 
Q 3047 1584 2836 1778 
Q 2625 1972 2144 2069 
L 1759 2144 
Q 1053 2284 737 2584 
Q 422 2884 422 3419 
Q 422 4038 858 4394 
Q 1294 4750 2059 4750 
Q 2388 4750 2728 4690 
Q 3069 4631 3425 4513 
z
" transform="scale(0.015625)"/>
       <path id="DejaVuSans-57" d="M 213 4666 
L 850 4666 
L 1831 722 
L 2809 4666 
L 3519 4666 
L 4500 722 
L 5478 4666 
L 6119 4666 
L 4947 0 
L 4153 0 
L 3169 4050 
L 2175 0 
L 1381 0 
L 213 4666 
z
" transform="scale(0.015625)"/>
      </defs>
      <use xlink:href="#DejaVuSans-53"/>
      <use xlink:href="#DejaVuSans-57" x="63.476562"/>
      <use xlink:href="#DejaVuSans-41" x="156.853516"/>
      <use xlink:href="#DejaVuSans-20" x="225.261719"/>
      <use xlink:href="#DejaVuSans-56" x="257.048828"/>
      <use xlink:href="#DejaVuSans-61" x="317.707031"/>
      <use xlink:href="#DejaVuSans-6c" x="378.986328"/>
      <use xlink:href="#DejaVuSans-69" x="406.769531"/>
      <use xlink:href="#DejaVuSans-64" x="434.552734"/>
      <use xlink:href="#DejaVuSans-61" x="498.029297"/>
      <use xlink:href="#DejaVuSans-74" x="559.308594"/>
      <use xlink:href="#DejaVuSans-69" x="598.517578"/>
      <use xlink:href="#DejaVuSans-6f" x="626.300781"/>
      <use xlink:href="#DejaVuSans-6e" x="687.482422"/>
      <use xlink:href="#DejaVuSans-20" x="750.861328"/>
      <use xlink:href="#DejaVuSans-41" x="782.648438"/>
      <use xlink:href="#DejaVuSans-63" x="849.306641"/>
      <use xlink:href="#DejaVuSans-63" x="904.287109"/>
      <use xlink:href="#DejaVuSans-75" x="959.267578"/>
      <use xlink:href="#DejaVuSans-72" x="1022.646484"/>
      <use xlink:href="#DejaVuSans-61" x="1063.759766"/>
      <use xlink:href="#DejaVuSans-63" x="1125.039062"/>
      <use xlink:href="#DejaVuSans-79" x="1180.019531"/>
     </g>
    </g>
    <g id="line2d_29">
     <path d="M 216.18875 293.004312 
L 226.18875 293.004312 
L 236.18875 293.004312 
" style="fill: none; stroke: #9467bd; stroke-width: 1.5; stroke-linecap: square"/>
    </g>
    <g id="text_27">
     <!-- SWA Robust Validation Accuracy -->
     <g transform="translate(244.18875 296.504312) scale(0.1 -0.1)">
      <use xlink:href="#DejaVuSans-53"/>
      <use xlink:href="#DejaVuSans-57" x="63.476562"/>
      <use xlink:href="#DejaVuSans-41" x="156.853516"/>
      <use xlink:href="#DejaVuSans-20" x="225.261719"/>
      <use xlink:href="#DejaVuSans-52" x="257.048828"/>
      <use xlink:href="#DejaVuSans-6f" x="322.03125"/>
      <use xlink:href="#DejaVuSans-62" x="383.212891"/>
      <use xlink:href="#DejaVuSans-75" x="446.689453"/>
      <use xlink:href="#DejaVuSans-73" x="510.068359"/>
      <use xlink:href="#DejaVuSans-74" x="562.167969"/>
      <use xlink:href="#DejaVuSans-20" x="601.376953"/>
      <use xlink:href="#DejaVuSans-56" x="633.164062"/>
      <use xlink:href="#DejaVuSans-61" x="693.822266"/>
      <use xlink:href="#DejaVuSans-6c" x="755.101562"/>
      <use xlink:href="#DejaVuSans-69" x="782.884766"/>
      <use xlink:href="#DejaVuSans-64" x="810.667969"/>
      <use xlink:href="#DejaVuSans-61" x="874.144531"/>
      <use xlink:href="#DejaVuSans-74" x="935.423828"/>
      <use xlink:href="#DejaVuSans-69" x="974.632812"/>
      <use xlink:href="#DejaVuSans-6f" x="1002.416016"/>
      <use xlink:href="#DejaVuSans-6e" x="1063.597656"/>
      <use xlink:href="#DejaVuSans-20" x="1126.976562"/>
      <use xlink:href="#DejaVuSans-41" x="1158.763672"/>
      <use xlink:href="#DejaVuSans-63" x="1225.421875"/>
      <use xlink:href="#DejaVuSans-63" x="1280.402344"/>
      <use xlink:href="#DejaVuSans-75" x="1335.382812"/>
      <use xlink:href="#DejaVuSans-72" x="1398.761719"/>
      <use xlink:href="#DejaVuSans-61" x="1439.875"/>
      <use xlink:href="#DejaVuSans-63" x="1501.154297"/>
      <use xlink:href="#DejaVuSans-79" x="1556.134766"/>
     </g>
    </g>
   </g>
  </g>
 </g>
 <defs>
  <clipPath id="p3e4c449083">
   <rect x="57.6" y="41.472" width="357.12" height="266.112"/>
  </clipPath>
 </defs>
</svg>
