<?xml version="1.0" encoding="utf-8" standalone="no"?>
<!DOCTYPE svg PUBLIC "-//W3C//DTD SVG 1.1//EN"
  "http://www.w3.org/Graphics/SVG/1.1/DTD/svg11.dtd">
<svg xmlns:xlink="http://www.w3.org/1999/xlink" width="460.8pt" height="345.6pt" viewBox="0 0 460.8 345.6" xmlns="http://www.w3.org/2000/svg" version="1.1">
 <metadata>
  <rdf:RDF xmlns:dc="http://purl.org/dc/elements/1.1/" xmlns:cc="http://creativecommons.org/ns#" xmlns:rdf="http://www.w3.org/1999/02/22-rdf-syntax-ns#">
   <cc:Work>
    <dc:type rdf:resource="http://purl.org/dc/dcmitype/StillImage"/>
    <dc:date>2025-02-22T18:28:21.536360</dc:date>
    <dc:format>image/svg+xml</dc:format>
    <dc:creator>
     <cc:Agent>
      <dc:title>Matplotlib v3.9.1, https://matplotlib.org/</dc:title>
     </cc:Agent>
    </dc:creator>
   </cc:Work>
  </rdf:RDF>
 </metadata>
 <defs>
  <style type="text/css">*{stroke-linejoin: round; stroke-linecap: butt}</style>
 </defs>
 <g id="figure_1">
  <g id="patch_1">
   <path d="M 0 345.6 
L 460.8 345.6 
L 460.8 0 
L 0 0 
z
" style="fill: #ffffff"/>
  </g>
  <g id="axes_1">
   <g id="patch_2">
    <path d="M 57.6 307.584 
L 414.72 307.584 
L 414.72 41.472 
L 57.6 41.472 
z
" style="fill: #ffffff"/>
   </g>
   <g id="matplotlib.axis_1">
    <g id="xtick_1">
     <g id="line2d_1">
      <defs>
       <path id="m2c66496ebb" d="M 0 0 
L 0 3.5 
" style="stroke: #000000; stroke-width: 0.8"/>
      </defs>
      <g>
       <use xlink:href="#m2c66496ebb" x="73.832727" y="307.584" style="stroke: #000000; stroke-width: 0.8"/>
      </g>
     </g>
     <g id="text_1">
      <!-- 1 -->
      <g transform="translate(70.651477 322.182437) scale(0.1 -0.1)">
       <defs>
        <path id="DejaVuSans-31" d="M 794 531 
L 1825 531 
L 1825 4091 
L 703 3866 
L 703 4441 
L 1819 4666 
L 2450 4666 
L 2450 531 
L 3481 531 
L 3481 0 
L 794 0 
L 794 531 
z
" transform="scale(0.015625)"/>
       </defs>
       <use xlink:href="#DejaVuSans-31"/>
      </g>
     </g>
    </g>
    <g id="xtick_2">
     <g id="line2d_2">
      <g>
       <use xlink:href="#m2c66496ebb" x="109.664165" y="307.584" style="stroke: #000000; stroke-width: 0.8"/>
      </g>
     </g>
     <g id="text_2">
      <!-- 34 -->
      <g transform="translate(103.301665 322.182437) scale(0.1 -0.1)">
       <defs>
        <path id="DejaVuSans-33" d="M 2597 2516 
Q 3050 2419 3304 2112 
Q 3559 1806 3559 1356 
Q 3559 666 3084 287 
Q 2609 -91 1734 -91 
Q 1441 -91 1130 -33 
Q 819 25 488 141 
L 488 750 
Q 750 597 1062 519 
Q 1375 441 1716 441 
Q 2309 441 2620 675 
Q 2931 909 2931 1356 
Q 2931 1769 2642 2001 
Q 2353 2234 1838 2234 
L 1294 2234 
L 1294 2753 
L 1863 2753 
Q 2328 2753 2575 2939 
Q 2822 3125 2822 3475 
Q 2822 3834 2567 4026 
Q 2313 4219 1838 4219 
Q 1578 4219 1281 4162 
Q 984 4106 628 3988 
L 628 4550 
Q 988 4650 1302 4700 
Q 1616 4750 1894 4750 
Q 2613 4750 3031 4423 
Q 3450 4097 3450 3541 
Q 3450 3153 3228 2886 
Q 3006 2619 2597 2516 
z
" transform="scale(0.015625)"/>
        <path id="DejaVuSans-34" d="M 2419 4116 
L 825 1625 
L 2419 1625 
L 2419 4116 
z
M 2253 4666 
L 3047 4666 
L 3047 1625 
L 3713 1625 
L 3713 1100 
L 3047 1100 
L 3047 0 
L 2419 0 
L 2419 1100 
L 313 1100 
L 313 1709 
L 2253 4666 
z
" transform="scale(0.015625)"/>
       </defs>
       <use xlink:href="#DejaVuSans-33"/>
       <use xlink:href="#DejaVuSans-34" x="63.623047"/>
      </g>
     </g>
    </g>
    <g id="xtick_3">
     <g id="line2d_3">
      <g>
       <use xlink:href="#m2c66496ebb" x="145.495604" y="307.584" style="stroke: #000000; stroke-width: 0.8"/>
      </g>
     </g>
     <g id="text_3">
      <!-- 67 -->
      <g transform="translate(139.133104 322.182437) scale(0.1 -0.1)">
       <defs>
        <path id="DejaVuSans-36" d="M 2113 2584 
Q 1688 2584 1439 2293 
Q 1191 2003 1191 1497 
Q 1191 994 1439 701 
Q 1688 409 2113 409 
Q 2538 409 2786 701 
Q 3034 994 3034 1497 
Q 3034 2003 2786 2293 
Q 2538 2584 2113 2584 
z
M 3366 4563 
L 3366 3988 
Q 3128 4100 2886 4159 
Q 2644 4219 2406 4219 
Q 1781 4219 1451 3797 
Q 1122 3375 1075 2522 
Q 1259 2794 1537 2939 
Q 1816 3084 2150 3084 
Q 2853 3084 3261 2657 
Q 3669 2231 3669 1497 
Q 3669 778 3244 343 
Q 2819 -91 2113 -91 
Q 1303 -91 875 529 
Q 447 1150 447 2328 
Q 447 3434 972 4092 
Q 1497 4750 2381 4750 
Q 2619 4750 2861 4703 
Q 3103 4656 3366 4563 
z
" transform="scale(0.015625)"/>
        <path id="DejaVuSans-37" d="M 525 4666 
L 3525 4666 
L 3525 4397 
L 1831 0 
L 1172 0 
L 2766 4134 
L 525 4134 
L 525 4666 
z
" transform="scale(0.015625)"/>
       </defs>
       <use xlink:href="#DejaVuSans-36"/>
       <use xlink:href="#DejaVuSans-37" x="63.623047"/>
      </g>
     </g>
    </g>
    <g id="xtick_4">
     <g id="line2d_4">
      <g>
       <use xlink:href="#m2c66496ebb" x="181.327042" y="307.584" style="stroke: #000000; stroke-width: 0.8"/>
      </g>
     </g>
     <g id="text_4">
      <!-- 100 -->
      <g transform="translate(171.783292 322.182437) scale(0.1 -0.1)">
       <defs>
        <path id="DejaVuSans-30" d="M 2034 4250 
Q 1547 4250 1301 3770 
Q 1056 3291 1056 2328 
Q 1056 1369 1301 889 
Q 1547 409 2034 409 
Q 2525 409 2770 889 
Q 3016 1369 3016 2328 
Q 3016 3291 2770 3770 
Q 2525 4250 2034 4250 
z
M 2034 4750 
Q 2819 4750 3233 4129 
Q 3647 3509 3647 2328 
Q 3647 1150 3233 529 
Q 2819 -91 2034 -91 
Q 1250 -91 836 529 
Q 422 1150 422 2328 
Q 422 3509 836 4129 
Q 1250 4750 2034 4750 
z
" transform="scale(0.015625)"/>
       </defs>
       <use xlink:href="#DejaVuSans-31"/>
       <use xlink:href="#DejaVuSans-30" x="63.623047"/>
       <use xlink:href="#DejaVuSans-30" x="127.246094"/>
      </g>
     </g>
    </g>
    <g id="xtick_5">
     <g id="line2d_5">
      <g>
       <use xlink:href="#m2c66496ebb" x="217.15848" y="307.584" style="stroke: #000000; stroke-width: 0.8"/>
      </g>
     </g>
     <g id="text_5">
      <!-- 133 -->
      <g transform="translate(207.61473 322.182437) scale(0.1 -0.1)">
       <use xlink:href="#DejaVuSans-31"/>
       <use xlink:href="#DejaVuSans-33" x="63.623047"/>
       <use xlink:href="#DejaVuSans-33" x="127.246094"/>
      </g>
     </g>
    </g>
    <g id="xtick_6">
     <g id="line2d_6">
      <g>
       <use xlink:href="#m2c66496ebb" x="254.075719" y="307.584" style="stroke: #000000; stroke-width: 0.8"/>
      </g>
     </g>
     <g id="text_6">
      <!-- 167 -->
      <g transform="translate(244.531969 322.182437) scale(0.1 -0.1)">
       <use xlink:href="#DejaVuSans-31"/>
       <use xlink:href="#DejaVuSans-36" x="63.623047"/>
       <use xlink:href="#DejaVuSans-37" x="127.246094"/>
      </g>
     </g>
    </g>
    <g id="xtick_7">
     <g id="line2d_7">
      <g>
       <use xlink:href="#m2c66496ebb" x="289.907157" y="307.584" style="stroke: #000000; stroke-width: 0.8"/>
      </g>
     </g>
     <g id="text_7">
      <!-- 200 -->
      <g transform="translate(280.363407 322.182437) scale(0.1 -0.1)">
       <defs>
        <path id="DejaVuSans-32" d="M 1228 531 
L 3431 531 
L 3431 0 
L 469 0 
L 469 531 
Q 828 903 1448 1529 
Q 2069 2156 2228 2338 
Q 2531 2678 2651 2914 
Q 2772 3150 2772 3378 
Q 2772 3750 2511 3984 
Q 2250 4219 1831 4219 
Q 1534 4219 1204 4116 
Q 875 4013 500 3803 
L 500 4441 
Q 881 4594 1212 4672 
Q 1544 4750 1819 4750 
Q 2544 4750 2975 4387 
Q 3406 4025 3406 3419 
Q 3406 3131 3298 2873 
Q 3191 2616 2906 2266 
Q 2828 2175 2409 1742 
Q 1991 1309 1228 531 
z
" transform="scale(0.015625)"/>
       </defs>
       <use xlink:href="#DejaVuSans-32"/>
       <use xlink:href="#DejaVuSans-30" x="63.623047"/>
       <use xlink:href="#DejaVuSans-30" x="127.246094"/>
      </g>
     </g>
    </g>
    <g id="xtick_8">
     <g id="line2d_8">
      <g>
       <use xlink:href="#m2c66496ebb" x="325.738595" y="307.584" style="stroke: #000000; stroke-width: 0.8"/>
      </g>
     </g>
     <g id="text_8">
      <!-- 233 -->
      <g transform="translate(316.194845 322.182437) scale(0.1 -0.1)">
       <use xlink:href="#DejaVuSans-32"/>
       <use xlink:href="#DejaVuSans-33" x="63.623047"/>
       <use xlink:href="#DejaVuSans-33" x="127.246094"/>
      </g>
     </g>
    </g>
    <g id="xtick_9">
     <g id="line2d_9">
      <g>
       <use xlink:href="#m2c66496ebb" x="361.570033" y="307.584" style="stroke: #000000; stroke-width: 0.8"/>
      </g>
     </g>
     <g id="text_9">
      <!-- 266 -->
      <g transform="translate(352.026283 322.182437) scale(0.1 -0.1)">
       <use xlink:href="#DejaVuSans-32"/>
       <use xlink:href="#DejaVuSans-36" x="63.623047"/>
       <use xlink:href="#DejaVuSans-36" x="127.246094"/>
      </g>
     </g>
    </g>
    <g id="xtick_10">
     <g id="line2d_10">
      <g>
       <use xlink:href="#m2c66496ebb" x="398.487273" y="307.584" style="stroke: #000000; stroke-width: 0.8"/>
      </g>
     </g>
     <g id="text_10">
      <!-- 300 -->
      <g transform="translate(388.943523 322.182437) scale(0.1 -0.1)">
       <use xlink:href="#DejaVuSans-33"/>
       <use xlink:href="#DejaVuSans-30" x="63.623047"/>
       <use xlink:href="#DejaVuSans-30" x="127.246094"/>
      </g>
     </g>
    </g>
    <g id="text_11">
     <!-- Epochs -->
     <g transform="translate(218.244375 335.860562) scale(0.1 -0.1)">
      <defs>
       <path id="DejaVuSans-45" d="M 628 4666 
L 3578 4666 
L 3578 4134 
L 1259 4134 
L 1259 2753 
L 3481 2753 
L 3481 2222 
L 1259 2222 
L 1259 531 
L 3634 531 
L 3634 0 
L 628 0 
L 628 4666 
z
" transform="scale(0.015625)"/>
       <path id="DejaVuSans-70" d="M 1159 525 
L 1159 -1331 
L 581 -1331 
L 581 3500 
L 1159 3500 
L 1159 2969 
Q 1341 3281 1617 3432 
Q 1894 3584 2278 3584 
Q 2916 3584 3314 3078 
Q 3713 2572 3713 1747 
Q 3713 922 3314 415 
Q 2916 -91 2278 -91 
Q 1894 -91 1617 61 
Q 1341 213 1159 525 
z
M 3116 1747 
Q 3116 2381 2855 2742 
Q 2594 3103 2138 3103 
Q 1681 3103 1420 2742 
Q 1159 2381 1159 1747 
Q 1159 1113 1420 752 
Q 1681 391 2138 391 
Q 2594 391 2855 752 
Q 3116 1113 3116 1747 
z
" transform="scale(0.015625)"/>
       <path id="DejaVuSans-6f" d="M 1959 3097 
Q 1497 3097 1228 2736 
Q 959 2375 959 1747 
Q 959 1119 1226 758 
Q 1494 397 1959 397 
Q 2419 397 2687 759 
Q 2956 1122 2956 1747 
Q 2956 2369 2687 2733 
Q 2419 3097 1959 3097 
z
M 1959 3584 
Q 2709 3584 3137 3096 
Q 3566 2609 3566 1747 
Q 3566 888 3137 398 
Q 2709 -91 1959 -91 
Q 1206 -91 779 398 
Q 353 888 353 1747 
Q 353 2609 779 3096 
Q 1206 3584 1959 3584 
z
" transform="scale(0.015625)"/>
       <path id="DejaVuSans-63" d="M 3122 3366 
L 3122 2828 
Q 2878 2963 2633 3030 
Q 2388 3097 2138 3097 
Q 1578 3097 1268 2742 
Q 959 2388 959 1747 
Q 959 1106 1268 751 
Q 1578 397 2138 397 
Q 2388 397 2633 464 
Q 2878 531 3122 666 
L 3122 134 
Q 2881 22 2623 -34 
Q 2366 -91 2075 -91 
Q 1284 -91 818 406 
Q 353 903 353 1747 
Q 353 2603 823 3093 
Q 1294 3584 2113 3584 
Q 2378 3584 2631 3529 
Q 2884 3475 3122 3366 
z
" transform="scale(0.015625)"/>
       <path id="DejaVuSans-68" d="M 3513 2113 
L 3513 0 
L 2938 0 
L 2938 2094 
Q 2938 2591 2744 2837 
Q 2550 3084 2163 3084 
Q 1697 3084 1428 2787 
Q 1159 2491 1159 1978 
L 1159 0 
L 581 0 
L 581 4863 
L 1159 4863 
L 1159 2956 
Q 1366 3272 1645 3428 
Q 1925 3584 2291 3584 
Q 2894 3584 3203 3211 
Q 3513 2838 3513 2113 
z
" transform="scale(0.015625)"/>
       <path id="DejaVuSans-73" d="M 2834 3397 
L 2834 2853 
Q 2591 2978 2328 3040 
Q 2066 3103 1784 3103 
Q 1356 3103 1142 2972 
Q 928 2841 928 2578 
Q 928 2378 1081 2264 
Q 1234 2150 1697 2047 
L 1894 2003 
Q 2506 1872 2764 1633 
Q 3022 1394 3022 966 
Q 3022 478 2636 193 
Q 2250 -91 1575 -91 
Q 1294 -91 989 -36 
Q 684 19 347 128 
L 347 722 
Q 666 556 975 473 
Q 1284 391 1588 391 
Q 1994 391 2212 530 
Q 2431 669 2431 922 
Q 2431 1156 2273 1281 
Q 2116 1406 1581 1522 
L 1381 1569 
Q 847 1681 609 1914 
Q 372 2147 372 2553 
Q 372 3047 722 3315 
Q 1072 3584 1716 3584 
Q 2034 3584 2315 3537 
Q 2597 3491 2834 3397 
z
" transform="scale(0.015625)"/>
      </defs>
      <use xlink:href="#DejaVuSans-45"/>
      <use xlink:href="#DejaVuSans-70" x="63.183594"/>
      <use xlink:href="#DejaVuSans-6f" x="126.660156"/>
      <use xlink:href="#DejaVuSans-63" x="187.841797"/>
      <use xlink:href="#DejaVuSans-68" x="242.822266"/>
      <use xlink:href="#DejaVuSans-73" x="306.201172"/>
     </g>
    </g>
   </g>
   <g id="matplotlib.axis_2">
    <g id="ytick_1">
     <g id="line2d_11">
      <defs>
       <path id="m017112ca37" d="M 0 0 
L -3.5 0 
" style="stroke: #000000; stroke-width: 0.8"/>
      </defs>
      <g>
       <use xlink:href="#m017112ca37" x="57.6" y="265.563153" style="stroke: #000000; stroke-width: 0.8"/>
      </g>
     </g>
     <g id="text_12">
      <!-- 20 -->
      <g transform="translate(37.875 269.362372) scale(0.1 -0.1)">
       <use xlink:href="#DejaVuSans-32"/>
       <use xlink:href="#DejaVuSans-30" x="63.623047"/>
      </g>
     </g>
    </g>
    <g id="ytick_2">
     <g id="line2d_12">
      <g>
       <use xlink:href="#m017112ca37" x="57.6" y="206.655975" style="stroke: #000000; stroke-width: 0.8"/>
      </g>
     </g>
     <g id="text_13">
      <!-- 40 -->
      <g transform="translate(37.875 210.455194) scale(0.1 -0.1)">
       <use xlink:href="#DejaVuSans-34"/>
       <use xlink:href="#DejaVuSans-30" x="63.623047"/>
      </g>
     </g>
    </g>
    <g id="ytick_3">
     <g id="line2d_13">
      <g>
       <use xlink:href="#m017112ca37" x="57.6" y="147.748797" style="stroke: #000000; stroke-width: 0.8"/>
      </g>
     </g>
     <g id="text_14">
      <!-- 60 -->
      <g transform="translate(37.875 151.548015) scale(0.1 -0.1)">
       <use xlink:href="#DejaVuSans-36"/>
       <use xlink:href="#DejaVuSans-30" x="63.623047"/>
      </g>
     </g>
    </g>
    <g id="ytick_4">
     <g id="line2d_14">
      <g>
       <use xlink:href="#m017112ca37" x="57.6" y="88.841618" style="stroke: #000000; stroke-width: 0.8"/>
      </g>
     </g>
     <g id="text_15">
      <!-- 80 -->
      <g transform="translate(37.875 92.640837) scale(0.1 -0.1)">
       <defs>
        <path id="DejaVuSans-38" d="M 2034 2216 
Q 1584 2216 1326 1975 
Q 1069 1734 1069 1313 
Q 1069 891 1326 650 
Q 1584 409 2034 409 
Q 2484 409 2743 651 
Q 3003 894 3003 1313 
Q 3003 1734 2745 1975 
Q 2488 2216 2034 2216 
z
M 1403 2484 
Q 997 2584 770 2862 
Q 544 3141 544 3541 
Q 544 4100 942 4425 
Q 1341 4750 2034 4750 
Q 2731 4750 3128 4425 
Q 3525 4100 3525 3541 
Q 3525 3141 3298 2862 
Q 3072 2584 2669 2484 
Q 3125 2378 3379 2068 
Q 3634 1759 3634 1313 
Q 3634 634 3220 271 
Q 2806 -91 2034 -91 
Q 1263 -91 848 271 
Q 434 634 434 1313 
Q 434 1759 690 2068 
Q 947 2378 1403 2484 
z
M 1172 3481 
Q 1172 3119 1398 2916 
Q 1625 2713 2034 2713 
Q 2441 2713 2670 2916 
Q 2900 3119 2900 3481 
Q 2900 3844 2670 4047 
Q 2441 4250 2034 4250 
Q 1625 4250 1398 4047 
Q 1172 3844 1172 3481 
z
" transform="scale(0.015625)"/>
       </defs>
       <use xlink:href="#DejaVuSans-38"/>
       <use xlink:href="#DejaVuSans-30" x="63.623047"/>
      </g>
     </g>
    </g>
    <g id="text_16">
     <!-- Accuracy -->
     <g transform="translate(31.795312 197.356125) rotate(-90) scale(0.1 -0.1)">
      <defs>
       <path id="DejaVuSans-41" d="M 2188 4044 
L 1331 1722 
L 3047 1722 
L 2188 4044 
z
M 1831 4666 
L 2547 4666 
L 4325 0 
L 3669 0 
L 3244 1197 
L 1141 1197 
L 716 0 
L 50 0 
L 1831 4666 
z
" transform="scale(0.015625)"/>
       <path id="DejaVuSans-75" d="M 544 1381 
L 544 3500 
L 1119 3500 
L 1119 1403 
Q 1119 906 1312 657 
Q 1506 409 1894 409 
Q 2359 409 2629 706 
Q 2900 1003 2900 1516 
L 2900 3500 
L 3475 3500 
L 3475 0 
L 2900 0 
L 2900 538 
Q 2691 219 2414 64 
Q 2138 -91 1772 -91 
Q 1169 -91 856 284 
Q 544 659 544 1381 
z
M 1991 3584 
L 1991 3584 
z
" transform="scale(0.015625)"/>
       <path id="DejaVuSans-72" d="M 2631 2963 
Q 2534 3019 2420 3045 
Q 2306 3072 2169 3072 
Q 1681 3072 1420 2755 
Q 1159 2438 1159 1844 
L 1159 0 
L 581 0 
L 581 3500 
L 1159 3500 
L 1159 2956 
Q 1341 3275 1631 3429 
Q 1922 3584 2338 3584 
Q 2397 3584 2469 3576 
Q 2541 3569 2628 3553 
L 2631 2963 
z
" transform="scale(0.015625)"/>
       <path id="DejaVuSans-61" d="M 2194 1759 
Q 1497 1759 1228 1600 
Q 959 1441 959 1056 
Q 959 750 1161 570 
Q 1363 391 1709 391 
Q 2188 391 2477 730 
Q 2766 1069 2766 1631 
L 2766 1759 
L 2194 1759 
z
M 3341 1997 
L 3341 0 
L 2766 0 
L 2766 531 
Q 2569 213 2275 61 
Q 1981 -91 1556 -91 
Q 1019 -91 701 211 
Q 384 513 384 1019 
Q 384 1609 779 1909 
Q 1175 2209 1959 2209 
L 2766 2209 
L 2766 2266 
Q 2766 2663 2505 2880 
Q 2244 3097 1772 3097 
Q 1472 3097 1187 3025 
Q 903 2953 641 2809 
L 641 3341 
Q 956 3463 1253 3523 
Q 1550 3584 1831 3584 
Q 2591 3584 2966 3190 
Q 3341 2797 3341 1997 
z
" transform="scale(0.015625)"/>
       <path id="DejaVuSans-79" d="M 2059 -325 
Q 1816 -950 1584 -1140 
Q 1353 -1331 966 -1331 
L 506 -1331 
L 506 -850 
L 844 -850 
Q 1081 -850 1212 -737 
Q 1344 -625 1503 -206 
L 1606 56 
L 191 3500 
L 800 3500 
L 1894 763 
L 2988 3500 
L 3597 3500 
L 2059 -325 
z
" transform="scale(0.015625)"/>
      </defs>
      <use xlink:href="#DejaVuSans-41"/>
      <use xlink:href="#DejaVuSans-63" x="66.658203"/>
      <use xlink:href="#DejaVuSans-63" x="121.638672"/>
      <use xlink:href="#DejaVuSans-75" x="176.619141"/>
      <use xlink:href="#DejaVuSans-72" x="239.998047"/>
      <use xlink:href="#DejaVuSans-61" x="281.111328"/>
      <use xlink:href="#DejaVuSans-63" x="342.390625"/>
      <use xlink:href="#DejaVuSans-79" x="397.371094"/>
     </g>
    </g>
   </g>
   <g id="line2d_15">
    <path d="M 73.832727 295.488 
L 76.00433 209.383377 
L 77.090131 181.596861 
L 78.175932 161.921864 
L 79.261733 148.414448 
L 80.347534 137.657997 
L 81.433335 131.684809 
L 82.519137 123.626307 
L 83.604938 119.190597 
L 84.690739 113.199737 
L 85.77654 109.659415 
L 86.862341 103.845277 
L 87.948142 101.353503 
L 89.033943 97.783728 
L 90.119745 94.967965 
L 91.205546 92.476191 
L 92.291347 92.163983 
L 93.377148 89.772352 
L 94.462949 88.894635 
L 95.54875 115.232034 
L 97.720353 113.040687 
L 98.806154 109.329535 
L 99.891955 106.666931 
L 100.977756 105.571257 
L 102.063557 103.603757 
L 103.149358 101.259252 
L 104.23516 98.402253 
L 105.320961 97.565772 
L 107.492563 93.984215 
L 108.578364 93.677898 
L 111.835768 88.240765 
L 112.921569 88.03459 
L 114.00737 86.768086 
L 115.093171 83.569426 
L 116.178972 83.433939 
L 117.264773 81.808101 
L 119.436376 79.893618 
L 120.522177 77.996807 
L 122.693779 75.746553 
L 123.77958 75.157481 
L 124.865382 73.537533 
L 125.951183 73.036822 
L 127.036984 73.060385 
L 128.122785 71.37564 
L 129.208586 70.674645 
L 130.294387 69.508282 
L 131.380189 68.17109 
L 132.46599 67.122542 
L 133.551791 68.076838 
L 134.637592 67.587908 
L 135.723393 67.570236 
L 136.809194 66.745536 
L 137.894995 66.745536 
L 138.980797 88.293782 
L 140.066598 89.901948 
L 141.152399 89.407127 
L 142.2382 88.576536 
L 143.324001 88.246656 
L 144.409802 89.542614 
L 145.495604 89.171499 
L 146.581405 87.168655 
L 147.667206 86.8859 
L 148.753007 85.937494 
L 149.838808 84.617974 
L 150.924609 84.529613 
L 152.01041 84.735788 
L 153.096212 83.534082 
L 154.182013 82.762398 
L 155.267814 83.162966 
L 156.353615 82.037839 
L 157.439416 81.613708 
L 158.525217 81.643161 
L 159.611019 80.088012 
L 160.69682 79.687443 
L 161.782621 80.488581 
L 162.868422 79.204404 
L 163.954223 78.59766 
L 165.040024 78.173528 
L 166.125825 77.979135 
L 167.211627 77.384172 
L 168.297428 76.488783 
L 169.383229 77.177997 
L 171.554831 74.845273 
L 172.640632 74.98665 
L 173.726434 74.262092 
L 174.812235 73.354921 
L 175.898036 73.826179 
L 176.983837 72.901336 
L 178.069638 73.225325 
L 179.155439 71.676067 
L 180.24124 71.251935 
L 181.327042 70.14448 
L 182.412843 70.509704 
L 183.498644 69.32567 
L 184.584445 69.019353 
L 185.670246 68.954555 
L 186.756047 68.406718 
L 187.841849 68.25945 
L 188.92765 67.081307 
L 190.013451 66.480453 
L 191.099252 66.710191 
L 192.185053 66.822115 
L 193.270854 65.514376 
L 194.356656 64.766255 
L 195.442457 64.571861 
L 196.528258 63.894428 
L 197.614059 64.312669 
L 198.69986 63.323029 
L 199.785661 62.610252 
L 200.871462 62.551345 
L 201.957264 60.95496 
L 203.043065 62.074197 
L 204.128866 60.860709 
L 205.214667 60.766457 
L 206.300468 60.012445 
L 207.386269 60.466031 
L 208.472071 59.88874 
L 209.557872 58.893209 
L 210.643673 59.39392 
L 211.729474 58.840192 
L 212.815275 59.117056 
L 213.901076 59.011023 
L 214.986877 58.109743 
L 216.072679 58.516203 
L 217.15848 57.355732 
L 218.244281 58.65758 
L 220.415883 57.349841 
L 221.501684 57.114212 
L 222.587486 57.603142 
L 223.673287 56.919818 
L 224.759088 56.483905 
L 225.844889 76.777428 
L 226.93069 79.923072 
L 228.016491 79.422361 
L 229.102292 80.688865 
L 230.188094 79.434142 
L 231.273895 80.064449 
L 232.359696 80.07623 
L 233.445497 79.09248 
L 234.531298 79.557847 
L 235.617099 78.880415 
L 236.702901 78.709584 
L 237.788702 79.074808 
L 238.874503 78.291343 
L 239.960304 78.691912 
L 241.046105 77.661036 
L 242.131906 77.631582 
L 243.217708 76.977713 
L 244.303509 77.9379 
L 245.38931 76.488783 
L 246.475111 77.384172 
L 247.560912 76.365078 
L 248.646713 76.7951 
L 249.732514 76.665505 
L 250.818316 75.581613 
L 251.904117 76.471111 
L 252.989918 74.344562 
L 254.075719 75.876148 
L 255.16152 74.762803 
L 256.247321 74.892399 
L 257.333123 74.698005 
L 258.418924 73.861523 
L 259.504725 74.639098 
L 260.590526 73.979337 
L 263.847929 73.472736 
L 264.933731 74.303327 
L 266.019532 73.083948 
L 267.105333 72.807084 
L 268.191134 73.066276 
L 269.276935 72.777631 
L 270.362736 71.899914 
L 271.448538 72.44186 
L 272.534339 72.382953 
L 273.62014 72.000056 
L 274.705941 72.447751 
L 275.791742 71.575924 
L 276.877543 71.228372 
L 277.963344 71.894023 
L 279.049146 71.416875 
L 280.134947 70.79835 
L 281.220748 69.761583 
L 282.306549 70.47436 
L 283.39235 70.651082 
L 284.478151 70.008993 
L 285.563953 68.689473 
L 286.649754 69.873507 
L 287.735555 69.366905 
L 288.821356 69.720348 
L 289.907157 68.707145 
L 290.992958 69.855835 
L 292.07876 67.970805 
L 293.164561 68.412609 
L 295.336163 67.858881 
L 297.507765 68.135745 
L 298.593566 67.328717 
L 299.679368 66.951711 
L 301.85097 66.904585 
L 302.936771 66.633612 
L 304.022572 66.774989 
L 305.108373 66.586486 
L 306.194175 66.262497 
L 307.279976 65.732332 
L 308.365777 66.397983 
L 309.451578 65.561502 
L 310.537379 65.001883 
L 311.62318 64.748582 
L 312.708981 65.537939 
L 313.794783 63.876756 
L 314.880584 63.888538 
L 315.966385 64.554189 
L 317.052186 64.312669 
L 318.137987 63.216996 
L 319.223788 63.876756 
L 320.30959 63.90621 
L 321.395391 63.216996 
L 322.481192 63.41728 
L 323.566993 62.716285 
L 324.652794 62.156667 
L 325.738595 62.569017 
L 326.824396 62.115432 
L 327.910198 62.551345 
L 328.995999 61.11401 
L 331.167601 61.467453 
L 332.253402 60.683987 
L 333.339203 61.019758 
L 334.425005 60.471921 
L 335.510806 59.664893 
L 336.596607 59.305559 
L 337.682408 60.183276 
L 338.768209 59.876959 
L 339.85401 59.39392 
L 340.939811 59.217198 
L 342.025613 59.517625 
L 343.111414 57.92124 
L 344.197215 58.504422 
L 345.283016 58.610454 
L 346.368817 57.909459 
L 347.454618 57.66794 
L 348.54042 57.609032 
L 350.712022 57.662049 
L 352.883624 57.078868 
L 353.969425 56.69008 
L 355.055227 56.130462 
L 356.141028 56.454452 
L 357.226829 55.647423 
L 359.398431 55.235073 
L 360.484232 55.488374 
L 361.570033 54.734362 
L 362.655835 55.335215 
L 364.827437 54.869849 
L 365.913238 54.846286 
L 366.999039 53.568 
L 368.08484 54.522296 
L 370.256443 55.335215 
L 371.342244 56.289512 
L 372.428045 56.678299 
L 373.513846 57.709175 
L 375.685448 57.202573 
L 376.77125 57.084759 
L 377.857051 57.455874 
L 378.942852 56.996398 
L 380.028653 57.986038 
L 382.200255 57.202573 
L 383.286057 57.190791 
L 384.371858 56.937491 
L 385.457659 57.526562 
L 386.54346 56.819676 
L 387.629261 57.467655 
L 388.715062 57.143666 
L 389.800863 56.60172 
L 390.886665 57.108321 
L 391.972466 57.361622 
L 393.058267 57.744519 
L 394.144068 57.385185 
L 395.229869 57.408748 
L 396.31567 57.226136 
L 397.401472 57.338059 
L 398.487273 57.7563 
L 398.487273 57.7563 
" clip-path="url(#p92ca357787)" style="fill: none; stroke: #1f77b4; stroke-width: 1.5; stroke-linecap: square"/>
   </g>
   <g id="line2d_16">
    <path d="M 73.832727 283.353121 
L 74.918528 243.384601 
L 76.00433 224.180861 
L 77.090131 206.979965 
L 78.175932 196.170497 
L 79.261733 195.640333 
L 80.347534 178.027086 
L 81.433335 173.343966 
L 82.519137 171.429482 
L 84.690739 160.767283 
L 85.77654 156.614327 
L 86.862341 151.754485 
L 87.948142 149.074208 
L 89.033943 148.043333 
L 90.119745 143.772562 
L 91.205546 143.890377 
L 92.291347 141.916986 
L 93.377148 142.947862 
L 94.462949 142.182068 
L 95.54875 161.621437 
L 96.634552 163.241385 
L 97.720353 154.758751 
L 98.806154 160.060397 
L 99.891955 149.840002 
L 100.977756 154.434761 
L 102.063557 154.434761 
L 103.149358 150.311259 
L 104.23516 153.227164 
L 105.320961 147.336446 
L 106.406762 146.688468 
L 107.492563 147.483714 
L 108.578364 142.270429 
L 109.664165 144.508902 
L 110.749967 138.91272 
L 111.835768 140.503214 
L 112.921569 138.618184 
L 114.00737 133.699435 
L 115.093171 131.814405 
L 116.178972 132.079487 
L 117.264773 134.347414 
L 118.350575 131.519869 
L 119.436376 128.132706 
L 120.522177 127.74981 
L 121.607978 126.660027 
L 122.693779 126.984016 
L 123.77958 123.449586 
L 125.951183 123.066689 
L 127.036984 122.448164 
L 128.122785 121.328927 
L 129.208586 121.535102 
L 130.294387 120.12133 
L 131.380189 120.268598 
L 133.551791 118.825372 
L 134.637592 118.030125 
L 135.723393 119.090454 
L 136.809194 117.82395 
L 137.894995 117.882857 
L 138.980797 141.2101 
L 140.066598 141.504636 
L 141.152399 141.504636 
L 142.2382 138.235287 
L 143.324001 141.916986 
L 144.409802 140.120317 
L 145.495604 135.731732 
L 146.581405 136.144083 
L 147.667206 137.911298 
L 148.753007 142.830047 
L 149.838808 135.260475 
L 150.924609 135.142661 
L 152.01041 132.167848 
L 153.096212 132.933641 
L 154.182013 133.552167 
L 155.267814 132.491838 
L 156.353615 135.348836 
L 157.439416 130.45954 
L 158.525217 132.904188 
L 159.611019 128.250521 
L 160.69682 130.724622 
L 161.782621 126.954563 
L 162.868422 129.870468 
L 163.954223 126.512759 
L 165.040024 125.953141 
L 166.125825 127.955985 
L 167.211627 126.041502 
L 168.297428 126.836748 
L 169.383229 124.215379 
L 170.46903 126.483305 
L 171.554831 124.009204 
L 172.640632 124.922265 
L 173.726434 122.83106 
L 174.812235 125.688058 
L 175.898036 125.54079 
L 176.983837 121.27002 
L 178.069638 122.507071 
L 179.155439 122.565978 
L 180.24124 120.12133 
L 181.327042 121.152206 
L 182.412843 120.563134 
L 183.498644 122.565978 
L 184.584445 121.947453 
L 185.670246 117.941764 
L 186.756047 119.237722 
L 187.841849 116.439631 
L 188.92765 117.4116 
L 190.013451 116.351271 
L 191.099252 116.380724 
L 192.185053 115.438209 
L 193.270854 113.847716 
L 194.356656 113.818262 
L 195.442457 113.612087 
L 196.528258 112.81684 
L 197.614059 111.756511 
L 198.69986 111.992139 
L 199.785661 110.490006 
L 200.871462 111.196893 
L 201.957264 110.313285 
L 203.043065 108.781698 
L 204.128866 109.194049 
L 205.214667 107.868637 
L 206.300468 108.752245 
L 207.386269 109.076234 
L 208.472071 107.544648 
L 209.557872 106.749401 
L 210.643673 107.014483 
L 211.729474 107.043936 
L 212.815275 106.278143 
L 213.901076 106.837761 
L 214.986877 106.013061 
L 216.072679 105.041092 
L 217.15848 105.954154 
L 218.244281 105.18836 
L 219.330082 105.335628 
L 220.415883 104.599289 
L 221.501684 105.011639 
L 224.759088 105.18836 
L 225.844889 133.964517 
L 226.93069 129.899922 
L 228.016491 135.496104 
L 229.102292 131.784951 
L 230.188094 134.052878 
L 231.273895 134.583042 
L 232.359696 130.223911 
L 233.445497 131.225333 
L 234.531298 132.521291 
L 235.617099 130.665715 
L 236.702901 132.639105 
L 237.788702 130.930797 
L 238.874503 127.602542 
L 239.960304 129.782107 
L 241.046105 128.839592 
L 242.131906 124.981172 
L 243.217708 131.873312 
L 244.303509 126.336037 
L 245.38931 130.812983 
L 246.475111 128.044346 
L 247.560912 129.399211 
L 248.646713 125.835326 
L 249.732514 125.334615 
L 250.818316 128.397789 
L 251.904117 123.773575 
L 252.989918 129.399211 
L 254.075719 125.393523 
L 255.16152 129.281396 
L 256.247321 124.451008 
L 257.333123 130.842437 
L 258.418924 127.249099 
L 259.504725 125.422976 
L 260.590526 125.923687 
L 261.676327 127.455274 
L 262.762128 126.453852 
L 263.847929 125.86478 
L 264.933731 125.717512 
L 266.019532 125.953141 
L 267.105333 124.863358 
L 268.191134 125.040079 
L 269.276935 124.362647 
L 270.362736 124.833904 
L 271.448538 122.183081 
L 272.534339 124.774997 
L 273.62014 125.511337 
L 274.705941 124.127018 
L 275.791742 125.334615 
L 276.877543 123.361225 
L 277.963344 120.268598 
L 279.049146 120.504227 
L 280.134947 119.797341 
L 282.306549 121.947453 
L 283.39235 122.124174 
L 284.478151 122.624885 
L 285.563953 126.070955 
L 286.649754 121.829638 
L 287.735555 122.300896 
L 288.821356 120.680948 
L 289.907157 119.679526 
L 290.992958 121.27002 
L 292.07876 119.090454 
L 293.164561 120.592588 
L 294.250362 117.234878 
L 295.336163 119.061001 
L 296.421964 116.910889 
L 297.507765 117.323239 
L 298.593566 116.910889 
L 299.679368 117.765043 
L 300.765169 115.85056 
L 301.85097 118.913733 
L 302.936771 115.703292 
L 304.022572 118.295208 
L 305.108373 119.443898 
L 306.194175 113.818262 
L 307.279976 117.234878 
L 308.365777 115.320395 
L 310.537379 112.787386 
L 311.62318 115.261488 
L 312.708981 112.345583 
L 313.794783 113.405912 
L 314.880584 116.67526 
L 315.966385 115.52657 
L 317.052186 118.884279 
L 318.137987 111.196893 
L 319.223788 114.024437 
L 320.30959 112.699026 
L 321.395391 114.937498 
L 322.481192 113.818262 
L 323.566993 111.461975 
L 324.652794 112.757933 
L 325.738595 112.905201 
L 326.824396 109.930388 
L 327.910198 110.961264 
L 328.995999 111.314707 
L 330.0818 111.167439 
L 331.167601 111.403068 
L 332.253402 111.373614 
L 333.339203 108.722791 
L 334.425005 110.283831 
L 335.510806 110.51946 
L 336.596607 111.609243 
L 337.682408 108.280987 
L 338.768209 110.224924 
L 339.85401 106.66104 
L 340.939811 107.80973 
L 342.025613 110.136563 
L 343.111414 108.457709 
L 344.197215 108.870059 
L 345.283016 105.070546 
L 346.368817 105.453443 
L 347.454618 108.899513 
L 348.54042 108.251534 
L 349.626221 105.482896 
L 350.712022 104.304753 
L 351.797823 105.689071 
L 352.883624 105.365082 
L 353.969425 105.689071 
L 355.055227 105.659618 
L 356.141028 102.655352 
L 357.226829 102.80262 
L 358.31263 103.450599 
L 359.398431 102.596445 
L 360.484232 102.272455 
L 361.570033 103.097156 
L 362.655835 103.185516 
L 363.741636 100.652508 
L 364.827437 101.977919 
L 365.913238 102.036826 
L 366.999039 101.771744 
L 368.08484 101.919012 
L 369.170642 102.89098 
L 370.256443 103.185516 
L 371.342244 104.952732 
L 372.428045 105.482896 
L 373.513846 106.543225 
L 374.599647 104.77601 
L 375.685448 104.834917 
L 376.77125 105.689071 
L 377.857051 106.719947 
L 378.942852 105.600711 
L 380.028653 106.778854 
L 381.114454 105.306175 
L 382.200255 108.251534 
L 383.286057 105.659618 
L 384.371858 106.66104 
L 385.457659 108.045359 
L 386.54346 105.423989 
L 387.629261 106.837761 
L 388.715062 107.426833 
L 389.800863 106.278143 
L 390.886665 106.513772 
L 391.972466 109.665306 
L 393.058267 105.600711 
L 394.144068 104.717103 
L 395.229869 108.54607 
L 398.487273 104.805464 
L 398.487273 104.805464 
" clip-path="url(#p92ca357787)" style="fill: none; stroke: #ff7f0e; stroke-width: 1.5; stroke-linecap: square"/>
   </g>
   <g id="line2d_17">
    <path d="M 73.832727 291.319728 
L 74.918528 257.925543 
L 76.00433 252.359698 
L 77.090131 243.13778 
L 78.175932 224.145222 
L 79.261733 225.689179 
L 81.433335 209.316812 
L 82.519137 213.359317 
L 83.604938 199.038688 
L 84.690739 205.335571 
L 85.77654 203.8732 
L 86.862341 192.355668 
L 87.948142 194.082238 
L 89.033943 194.285468 
L 91.205546 189.999381 
L 92.291347 185.388422 
L 93.377148 188.029231 
L 94.462949 188.171197 
L 95.54875 198.002805 
L 96.634552 201.719848 
L 97.720353 194.224499 
L 98.806154 204.299688 
L 99.891955 191.949503 
L 100.977756 202.045016 
L 102.063557 199.363561 
L 103.149358 188.861884 
L 104.23516 206.188841 
L 105.320961 199.42453 
L 106.406762 189.857415 
L 107.492563 190.446487 
L 108.578364 183.276011 
L 109.664165 196.804339 
L 110.749967 185.693267 
L 111.835768 188.232166 
L 112.921569 187.013376 
L 114.00737 182.666616 
L 115.093171 177.710166 
L 116.178972 186.363336 
L 117.264773 180.696171 
L 118.350575 175.739721 
L 119.436376 173.119529 
L 120.522177 175.089974 
L 121.607978 178.786694 
L 122.693779 175.008683 
L 123.77958 175.536785 
L 124.865382 176.572668 
L 125.951183 174.175735 
L 127.036984 170.499044 
L 128.122785 175.374202 
L 129.208586 176.999156 
L 130.294387 171.636541 
L 131.380189 177.121094 
L 132.46599 174.236704 
L 133.551791 172.9163 
L 134.637592 171.291345 
L 135.723393 173.038237 
L 136.809194 170.641304 
L 137.894995 171.088115 
L 138.980797 191.664982 
L 140.066598 191.258817 
L 141.152399 196.194944 
L 142.2382 184.393185 
L 143.324001 184.657089 
L 144.409802 187.114991 
L 145.495604 193.574458 
L 146.581405 201.212068 
L 147.667206 184.636766 
L 148.753007 196.519817 
L 149.838808 194.244822 
L 152.01041 185.957171 
L 153.096212 178.421175 
L 154.182013 183.13375 
L 155.267814 190.527484 
L 156.353615 189.938412 
L 157.439416 177.405616 
L 158.525217 183.865082 
L 159.611019 179.294474 
L 160.69682 184.636766 
L 161.782621 183.13375 
L 162.868422 176.14618 
L 163.954223 179.822872 
L 165.040024 181.163305 
L 166.125825 179.091539 
L 167.211627 187.399513 
L 168.297428 178.360206 
L 169.383229 184.616443 
L 170.46903 171.880417 
L 171.554831 177.567905 
L 172.640632 173.444402 
L 173.726434 173.221144 
L 174.812235 179.903869 
L 175.898036 191.116556 
L 176.983837 175.719692 
L 178.069638 184.352539 
L 179.155439 182.077544 
L 180.24124 173.302436 
L 181.327042 177.547582 
L 182.412843 178.583759 
L 183.498644 175.455494 
L 184.584445 175.455494 
L 185.670246 171.149084 
L 186.756047 168.528893 
L 187.841849 173.830539 
L 188.92765 165.806792 
L 190.013451 170.336754 
L 191.099252 168.285017 
L 192.185053 169.056996 
L 193.270854 169.970941 
L 194.356656 168.528893 
L 195.442457 167.79756 
L 196.528258 168.122433 
L 197.614059 169.970941 
L 198.69986 170.194493 
L 199.785661 164.608326 
L 200.871462 166.497479 
L 201.957264 167.066228 
L 203.043065 160.952252 
L 204.128866 163.856965 
L 205.214667 164.892847 
L 206.300468 167.28978 
L 207.386269 164.709941 
L 208.472071 164.120869 
L 209.557872 164.100546 
L 210.643673 163.409859 
L 211.729474 163.186601 
L 212.815275 162.556883 
L 213.901076 162.211393 
L 214.986877 162.780141 
L 216.072679 161.805228 
L 217.15848 162.171041 
L 218.244281 162.069426 
L 219.330082 161.662967 
L 220.415883 160.444177 
L 221.501684 159.489586 
L 222.587486 160.423854 
L 223.673287 160.322534 
L 224.759088 161.012926 
L 225.844889 183.865082 
L 226.93069 181.325888 
L 228.016491 191.299463 
L 229.102292 190.812006 
L 230.188094 181.305565 
L 231.273895 196.74337 
L 232.359696 192.396314 
L 233.445497 180.55391 
L 234.531298 186.01814 
L 235.617099 186.444719 
L 236.702901 181.143073 
L 237.788702 181.549329 
L 238.874503 183.194668 
L 239.960304 186.444719 
L 241.046105 184.515001 
L 242.131906 187.379109 
L 243.217708 186.079088 
L 244.303509 184.108745 
L 245.38931 187.622863 
L 246.475111 181.183699 
L 247.560912 171.027289 
L 249.732514 183.113417 
L 250.818316 181.366514 
L 252.989918 185.997837 
L 254.075719 186.343155 
L 255.16152 178.908663 
L 256.247321 178.949288 
L 257.333123 175.110165 
L 258.418924 173.789832 
L 259.504725 182.646222 
L 260.590526 182.99154 
L 261.676327 175.638299 
L 262.762128 183.052478 
L 263.847929 174.947663 
L 264.933731 183.804052 
L 266.019532 182.402468 
L 267.105333 173.34295 
L 268.191134 181.143073 
L 269.276935 181.996211 
L 270.362736 189.349452 
L 271.448538 175.57736 
L 272.534339 186.607222 
L 273.62014 177.568017 
L 274.705941 177.933647 
L 275.791742 188.719755 
L 276.877543 186.830663 
L 277.963344 173.911709 
L 279.049146 174.724222 
L 280.134947 181.549329 
L 281.220748 172.063242 
L 282.306549 168.996007 
L 284.478151 182.077463 
L 285.563953 173.566391 
L 286.649754 179.497735 
L 287.735555 182.950914 
L 288.821356 160.525561 
L 289.907157 174.074212 
L 290.992958 177.283637 
L 292.07876 174.175776 
L 293.164561 176.999258 
L 294.250362 168.488186 
L 295.336163 174.500781 
L 296.421964 174.724222 
L 297.507765 163.369355 
L 298.593566 169.280386 
L 299.679368 171.941365 
L 300.765169 167.28973 
L 301.85097 170.17415 
L 302.936771 164.811566 
L 304.022572 174.866412 
L 305.108373 176.674253 
L 306.194175 167.594422 
L 307.279976 170.905412 
L 308.365777 167.472545 
L 309.451578 170.803848 
L 310.537379 172.489812 
L 311.62318 171.860114 
L 312.708981 164.039678 
L 313.794783 168.792878 
L 314.880584 174.602345 
L 315.966385 164.12093 
L 317.052186 166.639719 
L 318.137987 167.919427 
L 319.223788 167.960053 
L 320.30959 165.258448 
L 321.395391 161.866207 
L 322.481192 171.047601 
L 323.566993 166.294401 
L 324.652794 175.008601 
L 325.738595 166.21315 
L 326.824396 162.902161 
L 327.910198 167.472545 
L 328.995999 169.402263 
L 330.0818 164.527186 
L 331.167601 167.411607 
L 332.253402 163.613109 
L 333.339203 166.131899 
L 334.425005 167.716299 
L 335.510806 163.024037 
L 336.596607 164.161555 
L 337.682408 166.477217 
L 338.768209 160.119304 
L 339.85401 160.891191 
L 340.939811 159.36773 
L 342.025613 168.711627 
L 343.111414 164.567812 
L 344.197215 159.611484 
L 345.283016 160.545873 
L 346.368817 156.239556 
L 347.454618 160.200555 
L 348.54042 164.588125 
L 349.626221 167.777237 
L 350.712022 160.098991 
L 351.797823 156.320807 
L 352.883624 160.586499 
L 353.969425 162.170899 
L 355.055227 160.058366 
L 356.141028 156.930191 
L 357.226829 158.555217 
L 358.31263 157.702079 
L 359.398431 155.731735 
L 360.484232 154.106709 
L 361.570033 155.000474 
L 362.655835 155.142663 
L 363.741636 154.61453 
L 364.827437 156.239556 
L 365.913238 158.555217 
L 366.999039 155.670797 
L 368.08484 157.763017 
L 369.170642 157.844268 
L 370.256443 160.688063 
L 371.342244 157.884894 
L 372.428045 162.333402 
L 373.513846 160.545873 
L 374.599647 161.947458 
L 375.685448 156.564561 
L 376.77125 158.331776 
L 377.857051 163.125602 
L 378.942852 157.92552 
L 380.028653 160.383371 
L 381.114454 155.934863 
L 382.200255 165.42095 
L 383.286057 159.286479 
L 384.371858 162.272463 
L 385.457659 162.820909 
L 386.54346 161.703704 
L 387.629261 163.003725 
L 388.715062 163.430294 
L 389.800863 167.452232 
L 390.886665 166.660032 
L 391.972466 163.674048 
L 393.058267 164.730314 
L 394.144068 162.414653 
L 395.229869 164.303745 
L 397.401472 163.531858 
L 398.487273 161.541202 
L 398.487273 161.541202 
" clip-path="url(#p92ca357787)" style="fill: none; stroke: #2ca02c; stroke-width: 1.5; stroke-linecap: square"/>
   </g>
   <g id="line2d_18">
    <path d="M 368.08484 101.005951 
L 369.170642 101.65393 
L 370.256443 104.658196 
L 371.342244 103.126609 
L 372.428045 104.216392 
L 373.513846 104.893824 
L 374.599647 105.18836 
L 375.685448 104.157485 
L 376.77125 104.687649 
L 377.857051 103.21497 
L 378.942852 104.805464 
L 380.028653 104.422567 
L 381.114454 109.076234 
L 382.200255 108.663884 
L 383.286057 104.422567 
L 385.457659 108.693337 
L 386.54346 107.868637 
L 387.629261 110.195471 
L 389.800863 105.806886 
L 390.886665 107.691915 
L 391.972466 109.930388 
L 393.058267 110.10711 
L 394.144068 110.10711 
L 395.229869 108.840605 
L 396.31567 109.635852 
L 397.401472 108.428255 
L 398.487273 110.843449 
L 398.487273 110.843449 
" clip-path="url(#p92ca357787)" style="fill: none; stroke: #d62728; stroke-width: 1.5; stroke-linecap: square"/>
   </g>
   <g id="line2d_19">
    <path d="M 368.08484 157.559889 
L 369.170642 154.045771 
L 370.256443 159.733361 
L 371.342244 159.50992 
L 372.428045 156.300494 
L 373.513846 161.845894 
L 374.599647 155.528607 
L 375.685448 160.220868 
L 376.77125 160.078679 
L 377.857051 156.686438 
L 378.942852 156.727063 
L 380.028653 155.995802 
L 381.114454 163.653735 
L 382.200255 162.008396 
L 383.286057 155.711422 
L 384.371858 156.300494 
L 385.457659 165.481889 
L 386.54346 163.227166 
L 387.629261 168.224119 
L 388.715062 165.867832 
L 389.800863 160.586499 
L 390.886665 164.527186 
L 391.972466 167.452232 
L 394.144068 170.296027 
L 395.229869 168.772566 
L 396.31567 166.111586 
L 397.401472 165.949084 
L 398.487273 167.817863 
L 398.487273 167.817863 
" clip-path="url(#p92ca357787)" style="fill: none; stroke: #9467bd; stroke-width: 1.5; stroke-linecap: square"/>
   </g>
   <g id="patch_3">
    <path d="M 57.6 307.584 
L 57.6 41.472 
" style="fill: none; stroke: #000000; stroke-width: 0.8; stroke-linejoin: miter; stroke-linecap: square"/>
   </g>
   <g id="patch_4">
    <path d="M 414.72 307.584 
L 414.72 41.472 
" style="fill: none; stroke: #000000; stroke-width: 0.8; stroke-linejoin: miter; stroke-linecap: square"/>
   </g>
   <g id="patch_5">
    <path d="M 57.6 307.584 
L 414.72 307.584 
" style="fill: none; stroke: #000000; stroke-width: 0.8; stroke-linejoin: miter; stroke-linecap: square"/>
   </g>
   <g id="patch_6">
    <path d="M 57.6 41.472 
L 414.72 41.472 
" style="fill: none; stroke: #000000; stroke-width: 0.8; stroke-linejoin: miter; stroke-linecap: square"/>
   </g>
   <g id="text_17">
    <!-- Learning Curves -->
    <g transform="translate(187.37625 35.472) scale(0.12 -0.12)">
     <defs>
      <path id="DejaVuSans-4c" d="M 628 4666 
L 1259 4666 
L 1259 531 
L 3531 531 
L 3531 0 
L 628 0 
L 628 4666 
z
" transform="scale(0.015625)"/>
      <path id="DejaVuSans-65" d="M 3597 1894 
L 3597 1613 
L 953 1613 
Q 991 1019 1311 708 
Q 1631 397 2203 397 
Q 2534 397 2845 478 
Q 3156 559 3463 722 
L 3463 178 
Q 3153 47 2828 -22 
Q 2503 -91 2169 -91 
Q 1331 -91 842 396 
Q 353 884 353 1716 
Q 353 2575 817 3079 
Q 1281 3584 2069 3584 
Q 2775 3584 3186 3129 
Q 3597 2675 3597 1894 
z
M 3022 2063 
Q 3016 2534 2758 2815 
Q 2500 3097 2075 3097 
Q 1594 3097 1305 2825 
Q 1016 2553 972 2059 
L 3022 2063 
z
" transform="scale(0.015625)"/>
      <path id="DejaVuSans-6e" d="M 3513 2113 
L 3513 0 
L 2938 0 
L 2938 2094 
Q 2938 2591 2744 2837 
Q 2550 3084 2163 3084 
Q 1697 3084 1428 2787 
Q 1159 2491 1159 1978 
L 1159 0 
L 581 0 
L 581 3500 
L 1159 3500 
L 1159 2956 
Q 1366 3272 1645 3428 
Q 1925 3584 2291 3584 
Q 2894 3584 3203 3211 
Q 3513 2838 3513 2113 
z
" transform="scale(0.015625)"/>
      <path id="DejaVuSans-69" d="M 603 3500 
L 1178 3500 
L 1178 0 
L 603 0 
L 603 3500 
z
M 603 4863 
L 1178 4863 
L 1178 4134 
L 603 4134 
L 603 4863 
z
" transform="scale(0.015625)"/>
      <path id="DejaVuSans-67" d="M 2906 1791 
Q 2906 2416 2648 2759 
Q 2391 3103 1925 3103 
Q 1463 3103 1205 2759 
Q 947 2416 947 1791 
Q 947 1169 1205 825 
Q 1463 481 1925 481 
Q 2391 481 2648 825 
Q 2906 1169 2906 1791 
z
M 3481 434 
Q 3481 -459 3084 -895 
Q 2688 -1331 1869 -1331 
Q 1566 -1331 1297 -1286 
Q 1028 -1241 775 -1147 
L 775 -588 
Q 1028 -725 1275 -790 
Q 1522 -856 1778 -856 
Q 2344 -856 2625 -561 
Q 2906 -266 2906 331 
L 2906 616 
Q 2728 306 2450 153 
Q 2172 0 1784 0 
Q 1141 0 747 490 
Q 353 981 353 1791 
Q 353 2603 747 3093 
Q 1141 3584 1784 3584 
Q 2172 3584 2450 3431 
Q 2728 3278 2906 2969 
L 2906 3500 
L 3481 3500 
L 3481 434 
z
" transform="scale(0.015625)"/>
      <path id="DejaVuSans-20" transform="scale(0.015625)"/>
      <path id="DejaVuSans-43" d="M 4122 4306 
L 4122 3641 
Q 3803 3938 3442 4084 
Q 3081 4231 2675 4231 
Q 1875 4231 1450 3742 
Q 1025 3253 1025 2328 
Q 1025 1406 1450 917 
Q 1875 428 2675 428 
Q 3081 428 3442 575 
Q 3803 722 4122 1019 
L 4122 359 
Q 3791 134 3420 21 
Q 3050 -91 2638 -91 
Q 1578 -91 968 557 
Q 359 1206 359 2328 
Q 359 3453 968 4101 
Q 1578 4750 2638 4750 
Q 3056 4750 3426 4639 
Q 3797 4528 4122 4306 
z
" transform="scale(0.015625)"/>
      <path id="DejaVuSans-76" d="M 191 3500 
L 800 3500 
L 1894 563 
L 2988 3500 
L 3597 3500 
L 2284 0 
L 1503 0 
L 191 3500 
z
" transform="scale(0.015625)"/>
     </defs>
     <use xlink:href="#DejaVuSans-4c"/>
     <use xlink:href="#DejaVuSans-65" x="53.962891"/>
     <use xlink:href="#DejaVuSans-61" x="115.486328"/>
     <use xlink:href="#DejaVuSans-72" x="176.765625"/>
     <use xlink:href="#DejaVuSans-6e" x="216.128906"/>
     <use xlink:href="#DejaVuSans-69" x="279.507812"/>
     <use xlink:href="#DejaVuSans-6e" x="307.291016"/>
     <use xlink:href="#DejaVuSans-67" x="370.669922"/>
     <use xlink:href="#DejaVuSans-20" x="434.146484"/>
     <use xlink:href="#DejaVuSans-43" x="465.933594"/>
     <use xlink:href="#DejaVuSans-75" x="535.757812"/>
     <use xlink:href="#DejaVuSans-72" x="599.136719"/>
     <use xlink:href="#DejaVuSans-76" x="640.25"/>
     <use xlink:href="#DejaVuSans-65" x="699.429688"/>
     <use xlink:href="#DejaVuSans-73" x="760.953125"/>
    </g>
   </g>
   <g id="legend_1">
    <g id="patch_7">
     <path d="M 214.18875 302.584 
L 407.72 302.584 
Q 409.72 302.584 409.72 300.584 
L 409.72 228.193375 
Q 409.72 226.193375 407.72 226.193375 
L 214.18875 226.193375 
Q 212.18875 226.193375 212.18875 228.193375 
L 212.18875 300.584 
Q 212.18875 302.584 214.18875 302.584 
z
" style="fill: #ffffff; opacity: 0.8; stroke: #cccccc; stroke-linejoin: miter"/>
    </g>
    <g id="line2d_20">
     <path d="M 216.18875 234.291812 
L 226.18875 234.291812 
L 236.18875 234.291812 
" style="fill: none; stroke: #1f77b4; stroke-width: 1.5; stroke-linecap: square"/>
    </g>
    <g id="text_18">
     <!-- Train Accuracy -->
     <g transform="translate(244.18875 237.791812) scale(0.1 -0.1)">
      <defs>
       <path id="DejaVuSans-54" d="M -19 4666 
L 3928 4666 
L 3928 4134 
L 2272 4134 
L 2272 0 
L 1638 0 
L 1638 4134 
L -19 4134 
L -19 4666 
z
" transform="scale(0.015625)"/>
      </defs>
      <use xlink:href="#DejaVuSans-54"/>
      <use xlink:href="#DejaVuSans-72" x="46.333984"/>
      <use xlink:href="#DejaVuSans-61" x="87.447266"/>
      <use xlink:href="#DejaVuSans-69" x="148.726562"/>
      <use xlink:href="#DejaVuSans-6e" x="176.509766"/>
      <use xlink:href="#DejaVuSans-20" x="239.888672"/>
      <use xlink:href="#DejaVuSans-41" x="271.675781"/>
      <use xlink:href="#DejaVuSans-63" x="338.333984"/>
      <use xlink:href="#DejaVuSans-63" x="393.314453"/>
      <use xlink:href="#DejaVuSans-75" x="448.294922"/>
      <use xlink:href="#DejaVuSans-72" x="511.673828"/>
      <use xlink:href="#DejaVuSans-61" x="552.787109"/>
      <use xlink:href="#DejaVuSans-63" x="614.066406"/>
      <use xlink:href="#DejaVuSans-79" x="669.046875"/>
     </g>
    </g>
    <g id="line2d_21">
     <path d="M 216.18875 248.969937 
L 226.18875 248.969937 
L 236.18875 248.969937 
" style="fill: none; stroke: #ff7f0e; stroke-width: 1.5; stroke-linecap: square"/>
    </g>
    <g id="text_19">
     <!-- Validation Accuracy -->
     <g transform="translate(244.18875 252.469937) scale(0.1 -0.1)">
      <defs>
       <path id="DejaVuSans-56" d="M 1831 0 
L 50 4666 
L 709 4666 
L 2188 738 
L 3669 4666 
L 4325 4666 
L 2547 0 
L 1831 0 
z
" transform="scale(0.015625)"/>
       <path id="DejaVuSans-6c" d="M 603 4863 
L 1178 4863 
L 1178 0 
L 603 0 
L 603 4863 
z
" transform="scale(0.015625)"/>
       <path id="DejaVuSans-64" d="M 2906 2969 
L 2906 4863 
L 3481 4863 
L 3481 0 
L 2906 0 
L 2906 525 
Q 2725 213 2448 61 
Q 2172 -91 1784 -91 
Q 1150 -91 751 415 
Q 353 922 353 1747 
Q 353 2572 751 3078 
Q 1150 3584 1784 3584 
Q 2172 3584 2448 3432 
Q 2725 3281 2906 2969 
z
M 947 1747 
Q 947 1113 1208 752 
Q 1469 391 1925 391 
Q 2381 391 2643 752 
Q 2906 1113 2906 1747 
Q 2906 2381 2643 2742 
Q 2381 3103 1925 3103 
Q 1469 3103 1208 2742 
Q 947 2381 947 1747 
z
" transform="scale(0.015625)"/>
       <path id="DejaVuSans-74" d="M 1172 4494 
L 1172 3500 
L 2356 3500 
L 2356 3053 
L 1172 3053 
L 1172 1153 
Q 1172 725 1289 603 
Q 1406 481 1766 481 
L 2356 481 
L 2356 0 
L 1766 0 
Q 1100 0 847 248 
Q 594 497 594 1153 
L 594 3053 
L 172 3053 
L 172 3500 
L 594 3500 
L 594 4494 
L 1172 4494 
z
" transform="scale(0.015625)"/>
      </defs>
      <use xlink:href="#DejaVuSans-56"/>
      <use xlink:href="#DejaVuSans-61" x="60.658203"/>
      <use xlink:href="#DejaVuSans-6c" x="121.9375"/>
      <use xlink:href="#DejaVuSans-69" x="149.720703"/>
      <use xlink:href="#DejaVuSans-64" x="177.503906"/>
      <use xlink:href="#DejaVuSans-61" x="240.980469"/>
      <use xlink:href="#DejaVuSans-74" x="302.259766"/>
      <use xlink:href="#DejaVuSans-69" x="341.46875"/>
      <use xlink:href="#DejaVuSans-6f" x="369.251953"/>
      <use xlink:href="#DejaVuSans-6e" x="430.433594"/>
      <use xlink:href="#DejaVuSans-20" x="493.8125"/>
      <use xlink:href="#DejaVuSans-41" x="525.599609"/>
      <use xlink:href="#DejaVuSans-63" x="592.257812"/>
      <use xlink:href="#DejaVuSans-63" x="647.238281"/>
      <use xlink:href="#DejaVuSans-75" x="702.21875"/>
      <use xlink:href="#DejaVuSans-72" x="765.597656"/>
      <use xlink:href="#DejaVuSans-61" x="806.710938"/>
      <use xlink:href="#DejaVuSans-63" x="867.990234"/>
      <use xlink:href="#DejaVuSans-79" x="922.970703"/>
     </g>
    </g>
    <g id="line2d_22">
     <path d="M 216.18875 263.648062 
L 226.18875 263.648062 
L 236.18875 263.648062 
" style="fill: none; stroke: #2ca02c; stroke-width: 1.5; stroke-linecap: square"/>
    </g>
    <g id="text_20">
     <!-- Robust Validation Accuracy -->
     <g transform="translate(244.18875 267.148062) scale(0.1 -0.1)">
      <defs>
       <path id="DejaVuSans-52" d="M 2841 2188 
Q 3044 2119 3236 1894 
Q 3428 1669 3622 1275 
L 4263 0 
L 3584 0 
L 2988 1197 
Q 2756 1666 2539 1819 
Q 2322 1972 1947 1972 
L 1259 1972 
L 1259 0 
L 628 0 
L 628 4666 
L 2053 4666 
Q 2853 4666 3247 4331 
Q 3641 3997 3641 3322 
Q 3641 2881 3436 2590 
Q 3231 2300 2841 2188 
z
M 1259 4147 
L 1259 2491 
L 2053 2491 
Q 2509 2491 2742 2702 
Q 2975 2913 2975 3322 
Q 2975 3731 2742 3939 
Q 2509 4147 2053 4147 
L 1259 4147 
z
" transform="scale(0.015625)"/>
       <path id="DejaVuSans-62" d="M 3116 1747 
Q 3116 2381 2855 2742 
Q 2594 3103 2138 3103 
Q 1681 3103 1420 2742 
Q 1159 2381 1159 1747 
Q 1159 1113 1420 752 
Q 1681 391 2138 391 
Q 2594 391 2855 752 
Q 3116 1113 3116 1747 
z
M 1159 2969 
Q 1341 3281 1617 3432 
Q 1894 3584 2278 3584 
Q 2916 3584 3314 3078 
Q 3713 2572 3713 1747 
Q 3713 922 3314 415 
Q 2916 -91 2278 -91 
Q 1894 -91 1617 61 
Q 1341 213 1159 525 
L 1159 0 
L 581 0 
L 581 4863 
L 1159 4863 
L 1159 2969 
z
" transform="scale(0.015625)"/>
      </defs>
      <use xlink:href="#DejaVuSans-52"/>
      <use xlink:href="#DejaVuSans-6f" x="64.982422"/>
      <use xlink:href="#DejaVuSans-62" x="126.164062"/>
      <use xlink:href="#DejaVuSans-75" x="189.640625"/>
      <use xlink:href="#DejaVuSans-73" x="253.019531"/>
      <use xlink:href="#DejaVuSans-74" x="305.119141"/>
      <use xlink:href="#DejaVuSans-20" x="344.328125"/>
      <use xlink:href="#DejaVuSans-56" x="376.115234"/>
      <use xlink:href="#DejaVuSans-61" x="436.773438"/>
      <use xlink:href="#DejaVuSans-6c" x="498.052734"/>
      <use xlink:href="#DejaVuSans-69" x="525.835938"/>
      <use xlink:href="#DejaVuSans-64" x="553.619141"/>
      <use xlink:href="#DejaVuSans-61" x="617.095703"/>
      <use xlink:href="#DejaVuSans-74" x="678.375"/>
      <use xlink:href="#DejaVuSans-69" x="717.583984"/>
      <use xlink:href="#DejaVuSans-6f" x="745.367188"/>
      <use xlink:href="#DejaVuSans-6e" x="806.548828"/>
      <use xlink:href="#DejaVuSans-20" x="869.927734"/>
      <use xlink:href="#DejaVuSans-41" x="901.714844"/>
      <use xlink:href="#DejaVuSans-63" x="968.373047"/>
      <use xlink:href="#DejaVuSans-63" x="1023.353516"/>
      <use xlink:href="#DejaVuSans-75" x="1078.333984"/>
      <use xlink:href="#DejaVuSans-72" x="1141.712891"/>
      <use xlink:href="#DejaVuSans-61" x="1182.826172"/>
      <use xlink:href="#DejaVuSans-63" x="1244.105469"/>
      <use xlink:href="#DejaVuSans-79" x="1299.085938"/>
     </g>
    </g>
    <g id="line2d_23">
     <path d="M 216.18875 278.326188 
L 226.18875 278.326188 
L 236.18875 278.326188 
" style="fill: none; stroke: #d62728; stroke-width: 1.5; stroke-linecap: square"/>
    </g>
    <g id="text_21">
     <!-- SWA Validation Accuracy -->
     <g transform="translate(244.18875 281.826188) scale(0.1 -0.1)">
      <defs>
       <path id="DejaVuSans-53" d="M 3425 4513 
L 3425 3897 
Q 3066 4069 2747 4153 
Q 2428 4238 2131 4238 
Q 1616 4238 1336 4038 
Q 1056 3838 1056 3469 
Q 1056 3159 1242 3001 
Q 1428 2844 1947 2747 
L 2328 2669 
Q 3034 2534 3370 2195 
Q 3706 1856 3706 1288 
Q 3706 609 3251 259 
Q 2797 -91 1919 -91 
Q 1588 -91 1214 -16 
Q 841 59 441 206 
L 441 856 
Q 825 641 1194 531 
Q 1563 422 1919 422 
Q 2459 422 2753 634 
Q 3047 847 3047 1241 
Q 3047 1584 2836 1778 
Q 2625 1972 2144 2069 
L 1759 2144 
Q 1053 2284 737 2584 
Q 422 2884 422 3419 
Q 422 4038 858 4394 
Q 1294 4750 2059 4750 
Q 2388 4750 2728 4690 
Q 3069 4631 3425 4513 
z
" transform="scale(0.015625)"/>
       <path id="DejaVuSans-57" d="M 213 4666 
L 850 4666 
L 1831 722 
L 2809 4666 
L 3519 4666 
L 4500 722 
L 5478 4666 
L 6119 4666 
L 4947 0 
L 4153 0 
L 3169 4050 
L 2175 0 
L 1381 0 
L 213 4666 
z
" transform="scale(0.015625)"/>
      </defs>
      <use xlink:href="#DejaVuSans-53"/>
      <use xlink:href="#DejaVuSans-57" x="63.476562"/>
      <use xlink:href="#DejaVuSans-41" x="156.853516"/>
      <use xlink:href="#DejaVuSans-20" x="225.261719"/>
      <use xlink:href="#DejaVuSans-56" x="257.048828"/>
      <use xlink:href="#DejaVuSans-61" x="317.707031"/>
      <use xlink:href="#DejaVuSans-6c" x="378.986328"/>
      <use xlink:href="#DejaVuSans-69" x="406.769531"/>
      <use xlink:href="#DejaVuSans-64" x="434.552734"/>
      <use xlink:href="#DejaVuSans-61" x="498.029297"/>
      <use xlink:href="#DejaVuSans-74" x="559.308594"/>
      <use xlink:href="#DejaVuSans-69" x="598.517578"/>
      <use xlink:href="#DejaVuSans-6f" x="626.300781"/>
      <use xlink:href="#DejaVuSans-6e" x="687.482422"/>
      <use xlink:href="#DejaVuSans-20" x="750.861328"/>
      <use xlink:href="#DejaVuSans-41" x="782.648438"/>
      <use xlink:href="#DejaVuSans-63" x="849.306641"/>
      <use xlink:href="#DejaVuSans-63" x="904.287109"/>
      <use xlink:href="#DejaVuSans-75" x="959.267578"/>
      <use xlink:href="#DejaVuSans-72" x="1022.646484"/>
      <use xlink:href="#DejaVuSans-61" x="1063.759766"/>
      <use xlink:href="#DejaVuSans-63" x="1125.039062"/>
      <use xlink:href="#DejaVuSans-79" x="1180.019531"/>
     </g>
    </g>
    <g id="line2d_24">
     <path d="M 216.18875 293.004312 
L 226.18875 293.004312 
L 236.18875 293.004312 
" style="fill: none; stroke: #9467bd; stroke-width: 1.5; stroke-linecap: square"/>
    </g>
    <g id="text_22">
     <!-- SWA Robust Validation Accuracy -->
     <g transform="translate(244.18875 296.504312) scale(0.1 -0.1)">
      <use xlink:href="#DejaVuSans-53"/>
      <use xlink:href="#DejaVuSans-57" x="63.476562"/>
      <use xlink:href="#DejaVuSans-41" x="156.853516"/>
      <use xlink:href="#DejaVuSans-20" x="225.261719"/>
      <use xlink:href="#DejaVuSans-52" x="257.048828"/>
      <use xlink:href="#DejaVuSans-6f" x="322.03125"/>
      <use xlink:href="#DejaVuSans-62" x="383.212891"/>
      <use xlink:href="#DejaVuSans-75" x="446.689453"/>
      <use xlink:href="#DejaVuSans-73" x="510.068359"/>
      <use xlink:href="#DejaVuSans-74" x="562.167969"/>
      <use xlink:href="#DejaVuSans-20" x="601.376953"/>
      <use xlink:href="#DejaVuSans-56" x="633.164062"/>
      <use xlink:href="#DejaVuSans-61" x="693.822266"/>
      <use xlink:href="#DejaVuSans-6c" x="755.101562"/>
      <use xlink:href="#DejaVuSans-69" x="782.884766"/>
      <use xlink:href="#DejaVuSans-64" x="810.667969"/>
      <use xlink:href="#DejaVuSans-61" x="874.144531"/>
      <use xlink:href="#DejaVuSans-74" x="935.423828"/>
      <use xlink:href="#DejaVuSans-69" x="974.632812"/>
      <use xlink:href="#DejaVuSans-6f" x="1002.416016"/>
      <use xlink:href="#DejaVuSans-6e" x="1063.597656"/>
      <use xlink:href="#DejaVuSans-20" x="1126.976562"/>
      <use xlink:href="#DejaVuSans-41" x="1158.763672"/>
      <use xlink:href="#DejaVuSans-63" x="1225.421875"/>
      <use xlink:href="#DejaVuSans-63" x="1280.402344"/>
      <use xlink:href="#DejaVuSans-75" x="1335.382812"/>
      <use xlink:href="#DejaVuSans-72" x="1398.761719"/>
      <use xlink:href="#DejaVuSans-61" x="1439.875"/>
      <use xlink:href="#DejaVuSans-63" x="1501.154297"/>
      <use xlink:href="#DejaVuSans-79" x="1556.134766"/>
     </g>
    </g>
   </g>
  </g>
 </g>
 <defs>
  <clipPath id="p92ca357787">
   <rect x="57.6" y="41.472" width="357.12" height="266.112"/>
  </clipPath>
 </defs>
</svg>
