<?xml version="1.0" encoding="utf-8" standalone="no"?>
<!DOCTYPE svg PUBLIC "-//W3C//DTD SVG 1.1//EN"
  "http://www.w3.org/Graphics/SVG/1.1/DTD/svg11.dtd">
<svg xmlns:xlink="http://www.w3.org/1999/xlink" width="460.8pt" height="345.6pt" viewBox="0 0 460.8 345.6" xmlns="http://www.w3.org/2000/svg" version="1.1">
 <metadata>
  <rdf:RDF xmlns:dc="http://purl.org/dc/elements/1.1/" xmlns:cc="http://creativecommons.org/ns#" xmlns:rdf="http://www.w3.org/1999/02/22-rdf-syntax-ns#">
   <cc:Work>
    <dc:type rdf:resource="http://purl.org/dc/dcmitype/StillImage"/>
    <dc:date>2025-01-02T05:25:28.594506</dc:date>
    <dc:format>image/svg+xml</dc:format>
    <dc:creator>
     <cc:Agent>
      <dc:title>Matplotlib v3.9.1, https://matplotlib.org/</dc:title>
     </cc:Agent>
    </dc:creator>
   </cc:Work>
  </rdf:RDF>
 </metadata>
 <defs>
  <style type="text/css">*{stroke-linejoin: round; stroke-linecap: butt}</style>
 </defs>
 <g id="figure_1">
  <g id="patch_1">
   <path d="M 0 345.6 
L 460.8 345.6 
L 460.8 0 
L 0 0 
z
" style="fill: #ffffff"/>
  </g>
  <g id="axes_1">
   <g id="patch_2">
    <path d="M 57.6 307.584 
L 414.72 307.584 
L 414.72 41.472 
L 57.6 41.472 
z
" style="fill: #ffffff"/>
   </g>
   <g id="matplotlib.axis_1">
    <g id="xtick_1">
     <g id="line2d_1">
      <defs>
       <path id="m6eeabbe8d6" d="M 0 0 
L 0 3.5 
" style="stroke: #000000; stroke-width: 0.8"/>
      </defs>
      <g>
       <use xlink:href="#m6eeabbe8d6" x="73.832727" y="307.584" style="stroke: #000000; stroke-width: 0.8"/>
      </g>
     </g>
     <g id="text_1">
      <!-- 1 -->
      <g transform="translate(70.651477 322.182437) scale(0.1 -0.1)">
       <defs>
        <path id="DejaVuSans-31" d="M 794 531 
L 1825 531 
L 1825 4091 
L 703 3866 
L 703 4441 
L 1819 4666 
L 2450 4666 
L 2450 531 
L 3481 531 
L 3481 0 
L 794 0 
L 794 531 
z
" transform="scale(0.015625)"/>
       </defs>
       <use xlink:href="#DejaVuSans-31"/>
      </g>
     </g>
    </g>
    <g id="xtick_2">
     <g id="line2d_2">
      <g>
       <use xlink:href="#m6eeabbe8d6" x="109.262733" y="307.584" style="stroke: #000000; stroke-width: 0.8"/>
      </g>
     </g>
     <g id="text_2">
      <!-- 50 -->
      <g transform="translate(102.900233 322.182437) scale(0.1 -0.1)">
       <defs>
        <path id="DejaVuSans-35" d="M 691 4666 
L 3169 4666 
L 3169 4134 
L 1269 4134 
L 1269 2991 
Q 1406 3038 1543 3061 
Q 1681 3084 1819 3084 
Q 2600 3084 3056 2656 
Q 3513 2228 3513 1497 
Q 3513 744 3044 326 
Q 2575 -91 1722 -91 
Q 1428 -91 1123 -41 
Q 819 9 494 109 
L 494 744 
Q 775 591 1075 516 
Q 1375 441 1709 441 
Q 2250 441 2565 725 
Q 2881 1009 2881 1497 
Q 2881 1984 2565 2268 
Q 2250 2553 1709 2553 
Q 1456 2553 1204 2497 
Q 953 2441 691 2322 
L 691 4666 
z
" transform="scale(0.015625)"/>
        <path id="DejaVuSans-30" d="M 2034 4250 
Q 1547 4250 1301 3770 
Q 1056 3291 1056 2328 
Q 1056 1369 1301 889 
Q 1547 409 2034 409 
Q 2525 409 2770 889 
Q 3016 1369 3016 2328 
Q 3016 3291 2770 3770 
Q 2525 4250 2034 4250 
z
M 2034 4750 
Q 2819 4750 3233 4129 
Q 3647 3509 3647 2328 
Q 3647 1150 3233 529 
Q 2819 -91 2034 -91 
Q 1250 -91 836 529 
Q 422 1150 422 2328 
Q 422 3509 836 4129 
Q 1250 4750 2034 4750 
z
" transform="scale(0.015625)"/>
       </defs>
       <use xlink:href="#DejaVuSans-35"/>
       <use xlink:href="#DejaVuSans-30" x="63.623047"/>
      </g>
     </g>
    </g>
    <g id="xtick_3">
     <g id="line2d_3">
      <g>
       <use xlink:href="#m6eeabbe8d6" x="145.415801" y="307.584" style="stroke: #000000; stroke-width: 0.8"/>
      </g>
     </g>
     <g id="text_3">
      <!-- 100 -->
      <g transform="translate(135.872051 322.182437) scale(0.1 -0.1)">
       <use xlink:href="#DejaVuSans-31"/>
       <use xlink:href="#DejaVuSans-30" x="63.623047"/>
       <use xlink:href="#DejaVuSans-30" x="127.246094"/>
      </g>
     </g>
    </g>
    <g id="xtick_4">
     <g id="line2d_4">
      <g>
       <use xlink:href="#m6eeabbe8d6" x="181.568868" y="307.584" style="stroke: #000000; stroke-width: 0.8"/>
      </g>
     </g>
     <g id="text_4">
      <!-- 150 -->
      <g transform="translate(172.025118 322.182437) scale(0.1 -0.1)">
       <use xlink:href="#DejaVuSans-31"/>
       <use xlink:href="#DejaVuSans-35" x="63.623047"/>
       <use xlink:href="#DejaVuSans-30" x="127.246094"/>
      </g>
     </g>
    </g>
    <g id="xtick_5">
     <g id="line2d_5">
      <g>
       <use xlink:href="#m6eeabbe8d6" x="217.721936" y="307.584" style="stroke: #000000; stroke-width: 0.8"/>
      </g>
     </g>
     <g id="text_5">
      <!-- 200 -->
      <g transform="translate(208.178186 322.182437) scale(0.1 -0.1)">
       <defs>
        <path id="DejaVuSans-32" d="M 1228 531 
L 3431 531 
L 3431 0 
L 469 0 
L 469 531 
Q 828 903 1448 1529 
Q 2069 2156 2228 2338 
Q 2531 2678 2651 2914 
Q 2772 3150 2772 3378 
Q 2772 3750 2511 3984 
Q 2250 4219 1831 4219 
Q 1534 4219 1204 4116 
Q 875 4013 500 3803 
L 500 4441 
Q 881 4594 1212 4672 
Q 1544 4750 1819 4750 
Q 2544 4750 2975 4387 
Q 3406 4025 3406 3419 
Q 3406 3131 3298 2873 
Q 3191 2616 2906 2266 
Q 2828 2175 2409 1742 
Q 1991 1309 1228 531 
z
" transform="scale(0.015625)"/>
       </defs>
       <use xlink:href="#DejaVuSans-32"/>
       <use xlink:href="#DejaVuSans-30" x="63.623047"/>
       <use xlink:href="#DejaVuSans-30" x="127.246094"/>
      </g>
     </g>
    </g>
    <g id="xtick_6">
     <g id="line2d_6">
      <g>
       <use xlink:href="#m6eeabbe8d6" x="253.875003" y="307.584" style="stroke: #000000; stroke-width: 0.8"/>
      </g>
     </g>
     <g id="text_6">
      <!-- 250 -->
      <g transform="translate(244.331253 322.182437) scale(0.1 -0.1)">
       <use xlink:href="#DejaVuSans-32"/>
       <use xlink:href="#DejaVuSans-35" x="63.623047"/>
       <use xlink:href="#DejaVuSans-30" x="127.246094"/>
      </g>
     </g>
    </g>
    <g id="xtick_7">
     <g id="line2d_7">
      <g>
       <use xlink:href="#m6eeabbe8d6" x="290.02807" y="307.584" style="stroke: #000000; stroke-width: 0.8"/>
      </g>
     </g>
     <g id="text_7">
      <!-- 300 -->
      <g transform="translate(280.48432 322.182437) scale(0.1 -0.1)">
       <defs>
        <path id="DejaVuSans-33" d="M 2597 2516 
Q 3050 2419 3304 2112 
Q 3559 1806 3559 1356 
Q 3559 666 3084 287 
Q 2609 -91 1734 -91 
Q 1441 -91 1130 -33 
Q 819 25 488 141 
L 488 750 
Q 750 597 1062 519 
Q 1375 441 1716 441 
Q 2309 441 2620 675 
Q 2931 909 2931 1356 
Q 2931 1769 2642 2001 
Q 2353 2234 1838 2234 
L 1294 2234 
L 1294 2753 
L 1863 2753 
Q 2328 2753 2575 2939 
Q 2822 3125 2822 3475 
Q 2822 3834 2567 4026 
Q 2313 4219 1838 4219 
Q 1578 4219 1281 4162 
Q 984 4106 628 3988 
L 628 4550 
Q 988 4650 1302 4700 
Q 1616 4750 1894 4750 
Q 2613 4750 3031 4423 
Q 3450 4097 3450 3541 
Q 3450 3153 3228 2886 
Q 3006 2619 2597 2516 
z
" transform="scale(0.015625)"/>
       </defs>
       <use xlink:href="#DejaVuSans-33"/>
       <use xlink:href="#DejaVuSans-30" x="63.623047"/>
       <use xlink:href="#DejaVuSans-30" x="127.246094"/>
      </g>
     </g>
    </g>
    <g id="xtick_8">
     <g id="line2d_8">
      <g>
       <use xlink:href="#m6eeabbe8d6" x="326.181138" y="307.584" style="stroke: #000000; stroke-width: 0.8"/>
      </g>
     </g>
     <g id="text_8">
      <!-- 350 -->
      <g transform="translate(316.637388 322.182437) scale(0.1 -0.1)">
       <use xlink:href="#DejaVuSans-33"/>
       <use xlink:href="#DejaVuSans-35" x="63.623047"/>
       <use xlink:href="#DejaVuSans-30" x="127.246094"/>
      </g>
     </g>
    </g>
    <g id="xtick_9">
     <g id="line2d_9">
      <g>
       <use xlink:href="#m6eeabbe8d6" x="362.334205" y="307.584" style="stroke: #000000; stroke-width: 0.8"/>
      </g>
     </g>
     <g id="text_9">
      <!-- 400 -->
      <g transform="translate(352.790455 322.182437) scale(0.1 -0.1)">
       <defs>
        <path id="DejaVuSans-34" d="M 2419 4116 
L 825 1625 
L 2419 1625 
L 2419 4116 
z
M 2253 4666 
L 3047 4666 
L 3047 1625 
L 3713 1625 
L 3713 1100 
L 3047 1100 
L 3047 0 
L 2419 0 
L 2419 1100 
L 313 1100 
L 313 1709 
L 2253 4666 
z
" transform="scale(0.015625)"/>
       </defs>
       <use xlink:href="#DejaVuSans-34"/>
       <use xlink:href="#DejaVuSans-30" x="63.623047"/>
       <use xlink:href="#DejaVuSans-30" x="127.246094"/>
      </g>
     </g>
    </g>
    <g id="xtick_10">
     <g id="line2d_10">
      <g>
       <use xlink:href="#m6eeabbe8d6" x="398.487273" y="307.584" style="stroke: #000000; stroke-width: 0.8"/>
      </g>
     </g>
     <g id="text_10">
      <!-- 450 -->
      <g transform="translate(388.943523 322.182437) scale(0.1 -0.1)">
       <use xlink:href="#DejaVuSans-34"/>
       <use xlink:href="#DejaVuSans-35" x="63.623047"/>
       <use xlink:href="#DejaVuSans-30" x="127.246094"/>
      </g>
     </g>
    </g>
    <g id="text_11">
     <!-- Epochs -->
     <g transform="translate(218.244375 335.860562) scale(0.1 -0.1)">
      <defs>
       <path id="DejaVuSans-45" d="M 628 4666 
L 3578 4666 
L 3578 4134 
L 1259 4134 
L 1259 2753 
L 3481 2753 
L 3481 2222 
L 1259 2222 
L 1259 531 
L 3634 531 
L 3634 0 
L 628 0 
L 628 4666 
z
" transform="scale(0.015625)"/>
       <path id="DejaVuSans-70" d="M 1159 525 
L 1159 -1331 
L 581 -1331 
L 581 3500 
L 1159 3500 
L 1159 2969 
Q 1341 3281 1617 3432 
Q 1894 3584 2278 3584 
Q 2916 3584 3314 3078 
Q 3713 2572 3713 1747 
Q 3713 922 3314 415 
Q 2916 -91 2278 -91 
Q 1894 -91 1617 61 
Q 1341 213 1159 525 
z
M 3116 1747 
Q 3116 2381 2855 2742 
Q 2594 3103 2138 3103 
Q 1681 3103 1420 2742 
Q 1159 2381 1159 1747 
Q 1159 1113 1420 752 
Q 1681 391 2138 391 
Q 2594 391 2855 752 
Q 3116 1113 3116 1747 
z
" transform="scale(0.015625)"/>
       <path id="DejaVuSans-6f" d="M 1959 3097 
Q 1497 3097 1228 2736 
Q 959 2375 959 1747 
Q 959 1119 1226 758 
Q 1494 397 1959 397 
Q 2419 397 2687 759 
Q 2956 1122 2956 1747 
Q 2956 2369 2687 2733 
Q 2419 3097 1959 3097 
z
M 1959 3584 
Q 2709 3584 3137 3096 
Q 3566 2609 3566 1747 
Q 3566 888 3137 398 
Q 2709 -91 1959 -91 
Q 1206 -91 779 398 
Q 353 888 353 1747 
Q 353 2609 779 3096 
Q 1206 3584 1959 3584 
z
" transform="scale(0.015625)"/>
       <path id="DejaVuSans-63" d="M 3122 3366 
L 3122 2828 
Q 2878 2963 2633 3030 
Q 2388 3097 2138 3097 
Q 1578 3097 1268 2742 
Q 959 2388 959 1747 
Q 959 1106 1268 751 
Q 1578 397 2138 397 
Q 2388 397 2633 464 
Q 2878 531 3122 666 
L 3122 134 
Q 2881 22 2623 -34 
Q 2366 -91 2075 -91 
Q 1284 -91 818 406 
Q 353 903 353 1747 
Q 353 2603 823 3093 
Q 1294 3584 2113 3584 
Q 2378 3584 2631 3529 
Q 2884 3475 3122 3366 
z
" transform="scale(0.015625)"/>
       <path id="DejaVuSans-68" d="M 3513 2113 
L 3513 0 
L 2938 0 
L 2938 2094 
Q 2938 2591 2744 2837 
Q 2550 3084 2163 3084 
Q 1697 3084 1428 2787 
Q 1159 2491 1159 1978 
L 1159 0 
L 581 0 
L 581 4863 
L 1159 4863 
L 1159 2956 
Q 1366 3272 1645 3428 
Q 1925 3584 2291 3584 
Q 2894 3584 3203 3211 
Q 3513 2838 3513 2113 
z
" transform="scale(0.015625)"/>
       <path id="DejaVuSans-73" d="M 2834 3397 
L 2834 2853 
Q 2591 2978 2328 3040 
Q 2066 3103 1784 3103 
Q 1356 3103 1142 2972 
Q 928 2841 928 2578 
Q 928 2378 1081 2264 
Q 1234 2150 1697 2047 
L 1894 2003 
Q 2506 1872 2764 1633 
Q 3022 1394 3022 966 
Q 3022 478 2636 193 
Q 2250 -91 1575 -91 
Q 1294 -91 989 -36 
Q 684 19 347 128 
L 347 722 
Q 666 556 975 473 
Q 1284 391 1588 391 
Q 1994 391 2212 530 
Q 2431 669 2431 922 
Q 2431 1156 2273 1281 
Q 2116 1406 1581 1522 
L 1381 1569 
Q 847 1681 609 1914 
Q 372 2147 372 2553 
Q 372 3047 722 3315 
Q 1072 3584 1716 3584 
Q 2034 3584 2315 3537 
Q 2597 3491 2834 3397 
z
" transform="scale(0.015625)"/>
      </defs>
      <use xlink:href="#DejaVuSans-45"/>
      <use xlink:href="#DejaVuSans-70" x="63.183594"/>
      <use xlink:href="#DejaVuSans-6f" x="126.660156"/>
      <use xlink:href="#DejaVuSans-63" x="187.841797"/>
      <use xlink:href="#DejaVuSans-68" x="242.822266"/>
      <use xlink:href="#DejaVuSans-73" x="306.201172"/>
     </g>
    </g>
   </g>
   <g id="matplotlib.axis_2">
    <g id="ytick_1">
     <g id="line2d_11">
      <defs>
       <path id="m88741ede91" d="M 0 0 
L -3.5 0 
" style="stroke: #000000; stroke-width: 0.8"/>
      </defs>
      <g>
       <use xlink:href="#m88741ede91" x="57.6" y="281.125206" style="stroke: #000000; stroke-width: 0.8"/>
      </g>
     </g>
     <g id="text_12">
      <!-- 10 -->
      <g transform="translate(37.875 284.924425) scale(0.1 -0.1)">
       <use xlink:href="#DejaVuSans-31"/>
       <use xlink:href="#DejaVuSans-30" x="63.623047"/>
      </g>
     </g>
    </g>
    <g id="ytick_2">
     <g id="line2d_12">
      <g>
       <use xlink:href="#m88741ede91" x="57.6" y="249.996481" style="stroke: #000000; stroke-width: 0.8"/>
      </g>
     </g>
     <g id="text_13">
      <!-- 20 -->
      <g transform="translate(37.875 253.7957) scale(0.1 -0.1)">
       <use xlink:href="#DejaVuSans-32"/>
       <use xlink:href="#DejaVuSans-30" x="63.623047"/>
      </g>
     </g>
    </g>
    <g id="ytick_3">
     <g id="line2d_13">
      <g>
       <use xlink:href="#m88741ede91" x="57.6" y="218.867756" style="stroke: #000000; stroke-width: 0.8"/>
      </g>
     </g>
     <g id="text_14">
      <!-- 30 -->
      <g transform="translate(37.875 222.666975) scale(0.1 -0.1)">
       <use xlink:href="#DejaVuSans-33"/>
       <use xlink:href="#DejaVuSans-30" x="63.623047"/>
      </g>
     </g>
    </g>
    <g id="ytick_4">
     <g id="line2d_14">
      <g>
       <use xlink:href="#m88741ede91" x="57.6" y="187.739031" style="stroke: #000000; stroke-width: 0.8"/>
      </g>
     </g>
     <g id="text_15">
      <!-- 40 -->
      <g transform="translate(37.875 191.53825) scale(0.1 -0.1)">
       <use xlink:href="#DejaVuSans-34"/>
       <use xlink:href="#DejaVuSans-30" x="63.623047"/>
      </g>
     </g>
    </g>
    <g id="ytick_5">
     <g id="line2d_15">
      <g>
       <use xlink:href="#m88741ede91" x="57.6" y="156.610306" style="stroke: #000000; stroke-width: 0.8"/>
      </g>
     </g>
     <g id="text_16">
      <!-- 50 -->
      <g transform="translate(37.875 160.409525) scale(0.1 -0.1)">
       <use xlink:href="#DejaVuSans-35"/>
       <use xlink:href="#DejaVuSans-30" x="63.623047"/>
      </g>
     </g>
    </g>
    <g id="ytick_6">
     <g id="line2d_16">
      <g>
       <use xlink:href="#m88741ede91" x="57.6" y="125.481581" style="stroke: #000000; stroke-width: 0.8"/>
      </g>
     </g>
     <g id="text_17">
      <!-- 60 -->
      <g transform="translate(37.875 129.280799) scale(0.1 -0.1)">
       <defs>
        <path id="DejaVuSans-36" d="M 2113 2584 
Q 1688 2584 1439 2293 
Q 1191 2003 1191 1497 
Q 1191 994 1439 701 
Q 1688 409 2113 409 
Q 2538 409 2786 701 
Q 3034 994 3034 1497 
Q 3034 2003 2786 2293 
Q 2538 2584 2113 2584 
z
M 3366 4563 
L 3366 3988 
Q 3128 4100 2886 4159 
Q 2644 4219 2406 4219 
Q 1781 4219 1451 3797 
Q 1122 3375 1075 2522 
Q 1259 2794 1537 2939 
Q 1816 3084 2150 3084 
Q 2853 3084 3261 2657 
Q 3669 2231 3669 1497 
Q 3669 778 3244 343 
Q 2819 -91 2113 -91 
Q 1303 -91 875 529 
Q 447 1150 447 2328 
Q 447 3434 972 4092 
Q 1497 4750 2381 4750 
Q 2619 4750 2861 4703 
Q 3103 4656 3366 4563 
z
" transform="scale(0.015625)"/>
       </defs>
       <use xlink:href="#DejaVuSans-36"/>
       <use xlink:href="#DejaVuSans-30" x="63.623047"/>
      </g>
     </g>
    </g>
    <g id="ytick_7">
     <g id="line2d_17">
      <g>
       <use xlink:href="#m88741ede91" x="57.6" y="94.352856" style="stroke: #000000; stroke-width: 0.8"/>
      </g>
     </g>
     <g id="text_18">
      <!-- 70 -->
      <g transform="translate(37.875 98.152074) scale(0.1 -0.1)">
       <defs>
        <path id="DejaVuSans-37" d="M 525 4666 
L 3525 4666 
L 3525 4397 
L 1831 0 
L 1172 0 
L 2766 4134 
L 525 4134 
L 525 4666 
z
" transform="scale(0.015625)"/>
       </defs>
       <use xlink:href="#DejaVuSans-37"/>
       <use xlink:href="#DejaVuSans-30" x="63.623047"/>
      </g>
     </g>
    </g>
    <g id="ytick_8">
     <g id="line2d_18">
      <g>
       <use xlink:href="#m88741ede91" x="57.6" y="63.224131" style="stroke: #000000; stroke-width: 0.8"/>
      </g>
     </g>
     <g id="text_19">
      <!-- 80 -->
      <g transform="translate(37.875 67.023349) scale(0.1 -0.1)">
       <defs>
        <path id="DejaVuSans-38" d="M 2034 2216 
Q 1584 2216 1326 1975 
Q 1069 1734 1069 1313 
Q 1069 891 1326 650 
Q 1584 409 2034 409 
Q 2484 409 2743 651 
Q 3003 894 3003 1313 
Q 3003 1734 2745 1975 
Q 2488 2216 2034 2216 
z
M 1403 2484 
Q 997 2584 770 2862 
Q 544 3141 544 3541 
Q 544 4100 942 4425 
Q 1341 4750 2034 4750 
Q 2731 4750 3128 4425 
Q 3525 4100 3525 3541 
Q 3525 3141 3298 2862 
Q 3072 2584 2669 2484 
Q 3125 2378 3379 2068 
Q 3634 1759 3634 1313 
Q 3634 634 3220 271 
Q 2806 -91 2034 -91 
Q 1263 -91 848 271 
Q 434 634 434 1313 
Q 434 1759 690 2068 
Q 947 2378 1403 2484 
z
M 1172 3481 
Q 1172 3119 1398 2916 
Q 1625 2713 2034 2713 
Q 2441 2713 2670 2916 
Q 2900 3119 2900 3481 
Q 2900 3844 2670 4047 
Q 2441 4250 2034 4250 
Q 1625 4250 1398 4047 
Q 1172 3844 1172 3481 
z
" transform="scale(0.015625)"/>
       </defs>
       <use xlink:href="#DejaVuSans-38"/>
       <use xlink:href="#DejaVuSans-30" x="63.623047"/>
      </g>
     </g>
    </g>
    <g id="text_20">
     <!-- Accuracy -->
     <g transform="translate(31.795312 197.356125) rotate(-90) scale(0.1 -0.1)">
      <defs>
       <path id="DejaVuSans-41" d="M 2188 4044 
L 1331 1722 
L 3047 1722 
L 2188 4044 
z
M 1831 4666 
L 2547 4666 
L 4325 0 
L 3669 0 
L 3244 1197 
L 1141 1197 
L 716 0 
L 50 0 
L 1831 4666 
z
" transform="scale(0.015625)"/>
       <path id="DejaVuSans-75" d="M 544 1381 
L 544 3500 
L 1119 3500 
L 1119 1403 
Q 1119 906 1312 657 
Q 1506 409 1894 409 
Q 2359 409 2629 706 
Q 2900 1003 2900 1516 
L 2900 3500 
L 3475 3500 
L 3475 0 
L 2900 0 
L 2900 538 
Q 2691 219 2414 64 
Q 2138 -91 1772 -91 
Q 1169 -91 856 284 
Q 544 659 544 1381 
z
M 1991 3584 
L 1991 3584 
z
" transform="scale(0.015625)"/>
       <path id="DejaVuSans-72" d="M 2631 2963 
Q 2534 3019 2420 3045 
Q 2306 3072 2169 3072 
Q 1681 3072 1420 2755 
Q 1159 2438 1159 1844 
L 1159 0 
L 581 0 
L 581 3500 
L 1159 3500 
L 1159 2956 
Q 1341 3275 1631 3429 
Q 1922 3584 2338 3584 
Q 2397 3584 2469 3576 
Q 2541 3569 2628 3553 
L 2631 2963 
z
" transform="scale(0.015625)"/>
       <path id="DejaVuSans-61" d="M 2194 1759 
Q 1497 1759 1228 1600 
Q 959 1441 959 1056 
Q 959 750 1161 570 
Q 1363 391 1709 391 
Q 2188 391 2477 730 
Q 2766 1069 2766 1631 
L 2766 1759 
L 2194 1759 
z
M 3341 1997 
L 3341 0 
L 2766 0 
L 2766 531 
Q 2569 213 2275 61 
Q 1981 -91 1556 -91 
Q 1019 -91 701 211 
Q 384 513 384 1019 
Q 384 1609 779 1909 
Q 1175 2209 1959 2209 
L 2766 2209 
L 2766 2266 
Q 2766 2663 2505 2880 
Q 2244 3097 1772 3097 
Q 1472 3097 1187 3025 
Q 903 2953 641 2809 
L 641 3341 
Q 956 3463 1253 3523 
Q 1550 3584 1831 3584 
Q 2591 3584 2966 3190 
Q 3341 2797 3341 1997 
z
" transform="scale(0.015625)"/>
       <path id="DejaVuSans-79" d="M 2059 -325 
Q 1816 -950 1584 -1140 
Q 1353 -1331 966 -1331 
L 506 -1331 
L 506 -850 
L 844 -850 
Q 1081 -850 1212 -737 
Q 1344 -625 1503 -206 
L 1606 56 
L 191 3500 
L 800 3500 
L 1894 763 
L 2988 3500 
L 3597 3500 
L 2059 -325 
z
" transform="scale(0.015625)"/>
      </defs>
      <use xlink:href="#DejaVuSans-41"/>
      <use xlink:href="#DejaVuSans-63" x="66.658203"/>
      <use xlink:href="#DejaVuSans-63" x="121.638672"/>
      <use xlink:href="#DejaVuSans-75" x="176.619141"/>
      <use xlink:href="#DejaVuSans-72" x="239.998047"/>
      <use xlink:href="#DejaVuSans-61" x="281.111328"/>
      <use xlink:href="#DejaVuSans-63" x="342.390625"/>
      <use xlink:href="#DejaVuSans-79" x="397.371094"/>
     </g>
    </g>
   </g>
   <g id="line2d_19">
    <path d="M 73.832727 295.488 
L 75.27885 256.272032 
L 76.724973 216.445941 
L 77.448034 200.576517 
L 78.171095 188.747602 
L 78.894157 180.560747 
L 79.617218 175.735795 
L 80.340279 165.525573 
L 81.063341 161.53487 
L 81.786402 156.597854 
L 82.509463 152.737892 
L 83.232525 145.889573 
L 84.678647 138.412453 
L 85.401709 136.488698 
L 86.12477 132.57893 
L 87.570893 126.614666 
L 88.293954 126.359411 
L 89.017016 122.057421 
L 89.740077 120.644177 
L 90.463138 117.145308 
L 91.909261 113.833212 
L 92.632322 113.808309 
L 94.078445 111.361591 
L 94.801506 111.604395 
L 95.524568 136.501149 
L 96.247629 139.159543 
L 96.97069 136.140056 
L 97.693752 134.073109 
L 99.139874 132.348577 
L 99.862936 128.706517 
L 100.585997 128.762548 
L 101.309059 127.64814 
L 102.755181 123.775727 
L 103.478243 121.042625 
L 104.201304 119.523543 
L 104.924365 118.739099 
L 105.647427 116.653474 
L 106.370488 113.465893 
L 107.093549 114.848008 
L 107.816611 114.3624 
L 108.539672 112.258098 
L 109.262733 109.213709 
L 109.985795 110.595824 
L 110.708856 107.906303 
L 111.431917 107.514081 
L 112.154979 105.945193 
L 112.87804 103.753731 
L 113.601101 104.008986 
L 114.324163 102.465001 
L 115.047224 99.538901 
L 115.770285 98.492976 
L 116.493347 98.991036 
L 117.93947 94.072697 
L 118.662531 95.22446 
L 119.385592 95.149751 
L 120.108654 91.993298 
L 120.831715 90.443088 
L 121.554776 89.503 
L 122.277838 89.359808 
L 123.000899 89.403388 
L 123.72396 88.438398 
L 124.447022 87.043831 
L 125.170083 86.321645 
L 125.893144 84.846143 
L 126.616206 82.162847 
L 127.339267 84.142634 
L 128.062328 82.866356 
L 128.78539 80.662442 
L 129.508451 79.921579 
L 130.231512 80.830537 
L 130.954574 80.363607 
L 132.400696 79.97761 
L 133.123758 76.640611 
L 133.846819 76.148777 
L 134.569881 77.462409 
L 135.292942 77.63673 
L 136.016003 76.590805 
L 136.739065 76.883415 
L 137.462126 76.67174 
L 138.185187 75.644492 
L 138.908249 98.903875 
L 139.63131 105.372424 
L 140.354371 107.078278 
L 141.077433 104.712495 
L 141.800494 104.16463 
L 142.523555 106.038579 
L 143.246617 102.626871 
L 143.969678 105.185652 
L 144.692739 102.882126 
L 145.415801 101.680558 
L 146.138862 102.240875 
L 146.861923 101.556043 
L 147.584985 100.167701 
L 148.308046 99.352129 
L 149.031108 99.184034 
L 150.47723 99.283646 
L 151.200292 98.10698 
L 151.923353 98.237721 
L 152.646414 97.210473 
L 153.369476 99.383258 
L 154.092537 96.264159 
L 154.815598 96.606575 
L 155.53866 93.997988 
L 156.261721 92.871128 
L 156.984782 94.738852 
L 157.707844 92.815097 
L 158.430905 93.960634 
L 159.153966 93.692927 
L 159.877028 94.408887 
L 160.600089 91.358272 
L 161.32315 91.55127 
L 162.046212 90.019737 
L 162.769273 90.860213 
L 163.492334 91.451658 
L 164.215396 91.432981 
L 164.938457 88.768362 
L 165.661519 88.419721 
L 166.38458 86.657835 
L 167.107641 87.965241 
L 167.830703 87.168346 
L 168.553764 87.361344 
L 169.276825 86.439934 
L 169.999887 86.62048 
L 170.722948 87.255506 
L 171.446009 86.464837 
L 172.169071 84.622016 
L 172.892132 84.746531 
L 173.615193 82.237556 
L 174.338255 82.916162 
L 175.061316 84.080376 
L 175.784377 84.341858 
L 176.507439 83.793992 
L 177.2305 80.51925 
L 178.676623 78.713784 
L 179.399684 79.940256 
L 180.122745 81.683465 
L 180.845807 78.489657 
L 181.568868 80.102125 
L 183.014991 77.412603 
L 183.738052 77.611827 
L 184.461114 75.613363 
L 185.184175 76.796255 
L 185.907236 76.235938 
L 186.630298 76.030488 
L 187.353359 75.619589 
L 188.07642 74.312182 
L 189.522543 73.060808 
L 190.245604 74.542535 
L 190.968666 72.992324 
L 191.691727 70.402415 
L 192.414788 71.566629 
L 193.13785 71.311373 
L 193.860911 69.674002 
L 194.583972 71.410985 
L 195.307034 70.053773 
L 196.030095 69.275555 
L 196.753157 69.40007 
L 197.476218 68.410176 
L 198.199279 66.909772 
L 198.922341 67.052964 
L 199.645402 67.737796 
L 200.368463 65.340884 
L 201.091525 65.596139 
L 201.814586 64.942436 
L 202.537647 65.191466 
L 203.260709 64.587569 
L 203.98377 62.975101 
L 204.706831 62.501944 
L 205.429893 62.7572 
L 206.152954 65.166563 
L 206.876015 63.230356 
L 207.599077 63.354871 
L 208.322138 60.702704 
L 209.045199 62.21556 
L 209.768261 61.823338 
L 210.491322 60.621769 
L 211.214383 61.449793 
L 211.937445 59.999195 
L 212.660506 60.939282 
L 213.383568 60.484803 
L 214.106629 61.082474 
L 214.82969 59.009301 
L 215.552752 59.494909 
L 216.275813 59.146268 
L 216.998874 59.301911 
L 217.721936 60.870799 
L 218.444997 58.934592 
L 219.168058 59.650553 
L 219.89112 59.164945 
L 221.337242 58.654434 
L 222.060304 59.538489 
L 222.783365 57.334576 
L 223.506426 59.220976 
L 224.229488 57.564928 
L 224.952549 58.872335 
L 225.67561 83.10916 
L 226.398672 88.650073 
L 227.121733 90.237638 
L 227.844794 89.073424 
L 228.567856 87.566794 
L 229.290917 90.785504 
L 230.013979 90.206509 
L 230.73704 90.829084 
L 231.460101 88.612719 
L 232.183163 88.818168 
L 232.906224 89.384711 
L 233.629285 89.378485 
L 234.352347 90.106898 
L 235.075408 88.232948 
L 235.798469 87.709986 
L 236.521531 89.658644 
L 237.967653 87.467182 
L 238.690715 89.229067 
L 239.413776 88.282754 
L 240.136837 88.606493 
L 240.859899 87.728663 
L 241.58296 86.608029 
L 242.306021 87.093637 
L 243.029083 86.801027 
L 243.752144 86.975348 
L 245.198267 86.415031 
L 245.921328 86.720092 
L 246.64439 85.250816 
L 247.367451 85.02669 
L 248.090512 85.923197 
L 248.813574 85.350428 
L 249.536635 84.348083 
L 250.259696 85.549652 
L 250.982758 85.313074 
L 251.705819 84.142634 
L 252.42888 84.578436 
L 253.151942 83.625897 
L 253.875003 82.250007 
L 254.598064 84.435244 
L 255.321126 81.484241 
L 256.044187 83.744186 
L 256.767248 83.451576 
L 257.49031 82.044558 
L 258.213371 83.594768 
L 258.936432 83.140289 
L 259.659494 82.829002 
L 260.382555 81.216534 
L 261.105617 81.44066 
L 261.828678 79.604066 
L 262.551739 83.165192 
L 263.274801 81.695916 
L 263.997862 81.926269 
L 264.720923 81.951172 
L 265.443985 82.629778 
L 266.167046 81.409532 
L 266.890107 79.180715 
L 267.613169 79.610291 
L 268.33623 79.853095 
L 269.059291 80.338704 
L 269.782353 79.498228 
L 270.505414 81.496692 
L 271.228475 78.408723 
L 271.951537 78.296659 
L 272.674598 79.498228 
L 273.397659 79.379939 
L 274.120721 78.888105 
L 274.843782 78.751139 
L 275.566843 79.199392 
L 276.289905 78.993943 
L 277.012966 77.474861 
L 277.736028 76.958124 
L 278.459089 77.406378 
L 279.18215 77.325443 
L 279.905212 76.777577 
L 280.628273 77.804825 
L 281.351334 77.854631 
L 282.074396 76.578354 
L 282.797457 75.700524 
L 283.520518 75.669395 
L 284.24358 77.294314 
L 285.689702 74.810242 
L 286.412764 74.12541 
L 287.135825 75.712975 
L 287.858886 75.694298 
L 288.581948 75.364333 
L 289.305009 77.232057 
L 290.02807 74.193893 
L 290.751132 75.563557 
L 291.474193 73.932412 
L 292.197255 73.646028 
L 292.920316 73.011002 
L 293.643377 73.434352 
L 294.366439 73.33474 
L 295.0895 74.000895 
L 295.812561 73.235129 
L 297.258684 72.973647 
L 297.981745 71.940174 
L 298.704807 73.067033 
L 300.150929 72.811778 
L 300.873991 71.628886 
L 301.597052 72.126946 
L 303.043175 70.190739 
L 304.489297 71.479468 
L 305.212359 69.617971 
L 305.93542 69.848323 
L 306.658481 69.817195 
L 307.381543 68.372822 
L 308.104604 69.860775 
L 308.827666 70.744831 
L 309.550727 67.968148 
L 310.273788 69.244426 
L 310.99685 68.995396 
L 311.719911 69.088782 
L 312.442972 68.366596 
L 313.166034 68.920687 
L 313.889095 69.001622 
L 314.612156 66.442841 
L 315.335218 67.426508 
L 316.058279 67.613281 
L 316.78134 67.289542 
L 317.504402 66.841288 
L 318.227463 66.536227 
L 318.950524 65.589914 
L 319.673586 68.173598 
L 320.396647 65.913652 
L 321.119708 65.652171 
L 321.84277 66.087973 
L 322.565831 64.05838 
L 323.288892 64.824147 
L 324.011954 64.80547 
L 325.458077 65.110531 
L 326.181138 63.859157 
L 326.904199 62.122174 
L 327.627261 62.919069 
L 328.350322 61.549405 
L 329.073383 64.170444 
L 329.796445 62.140851 
L 330.519506 61.785983 
L 331.242567 61.58676 
L 331.965629 62.875489 
L 332.68869 61.978982 
L 333.411751 61.462245 
L 334.134813 63.267711 
L 334.857874 61.399987 
L 335.580935 60.764961 
L 336.303997 59.862228 
L 337.027058 60.652898 
L 337.750119 60.478577 
L 338.473181 60.017872 
L 339.196242 59.214751 
L 339.919304 61.17586 
L 340.642365 58.58595 
L 341.365426 58.716691 
L 342.088488 58.343146 
L 342.811549 58.324469 
L 343.53461 57.988279 
L 344.257672 57.24119 
L 344.980733 58.523693 
L 346.426856 55.896429 
L 347.149917 57.932247 
L 347.872978 56.873871 
L 348.59604 56.749356 
L 349.319101 56.002266 
L 350.042162 56.475423 
L 350.765224 55.859074 
L 351.488285 55.759462 
L 352.211346 55.286306 
L 352.934408 55.653625 
L 353.657469 55.361015 
L 354.38053 56.226393 
L 355.103592 56.718227 
L 355.826653 56.69955 
L 356.549715 55.566464 
L 357.272776 56.512777 
L 357.995837 56.008492 
L 358.718899 56.033395 
L 360.165021 54.501862 
L 360.888083 56.083201 
L 361.611144 54.613925 
L 362.334205 56.718227 
L 363.057267 57.546251 
L 363.780328 57.266093 
L 364.503389 56.014718 
L 365.226451 56.469197 
L 365.949512 55.497981 
L 366.672573 54.73844 
L 367.395635 56.668421 
L 368.118696 55.578916 
L 368.841757 55.809268 
L 369.564819 56.774259 
L 370.28788 56.587486 
L 371.010941 54.645054 
L 371.734003 55.435724 
L 372.457064 56.456746 
L 373.180126 56.033395 
L 373.903187 53.568 
L 374.626248 56.904999 
L 375.34931 55.940009 
L 376.795432 55.36724 
L 377.518494 56.257522 
L 378.241555 56.606164 
L 378.964616 55.771914 
L 380.410739 56.15791 
L 382.579923 55.379692 
L 383.302984 56.929902 
L 384.026046 55.404595 
L 384.749107 54.69486 
L 385.472168 55.111985 
L 386.19523 55.983589 
L 386.918291 56.164136 
L 387.641353 57.110449 
L 388.364414 55.803042 
L 389.087475 56.855193 
L 389.810537 56.145458 
L 390.533598 55.678528 
L 391.256659 55.796817 
L 391.979721 55.634947 
L 392.702782 56.238845 
L 393.425843 55.373466 
L 394.148905 56.562583 
L 394.871966 55.354789 
L 395.595027 55.286306 
L 396.318089 56.36336 
L 397.04115 55.479304 
L 397.764211 56.276199 
L 398.487273 55.124436 
L 398.487273 55.124436 
" clip-path="url(#p46f336c9d7)" style="fill: none; stroke: #1f77b4; stroke-width: 1.5; stroke-linecap: square"/>
   </g>
   <g id="line2d_20">
    <path d="M 73.832727 288.160298 
L 74.555789 255.724167 
L 75.27885 238.074179 
L 76.001911 213.700388 
L 76.724973 197.171035 
L 78.894157 168.003419 
L 79.617218 164.579259 
L 80.340279 159.629792 
L 81.063341 150.322303 
L 81.786402 148.330065 
L 82.509463 143.847529 
L 83.232525 135.660674 
L 83.955586 135.909704 
L 84.678647 130.306533 
L 85.401709 126.944631 
L 86.12477 121.59049 
L 86.847832 121.310332 
L 87.570893 119.037935 
L 88.293954 118.91342 
L 89.017016 114.928943 
L 89.740077 114.119596 
L 90.463138 111.753813 
L 91.1862 111.784942 
L 91.909261 110.757694 
L 93.355384 107.800465 
L 94.078445 107.17789 
L 94.801506 107.42692 
L 95.524568 135.162614 
L 96.247629 131.11588 
L 96.97069 130.960236 
L 97.693752 125.357066 
L 98.416813 127.038017 
L 99.139874 120.065183 
L 99.862936 125.325937 
L 100.585997 118.16633 
L 101.309059 118.882291 
L 102.03212 117.543756 
L 102.755181 111.878328 
L 103.478243 115.333616 
L 104.201304 112.127358 
L 104.924365 109.668188 
L 105.647427 108.734327 
L 106.370488 111.34914 
L 107.093549 105.403553 
L 107.816611 104.843236 
L 108.539672 103.909374 
L 109.262733 101.730363 
L 109.985795 100.796502 
L 110.708856 101.045532 
L 111.431917 101.979393 
L 112.154979 101.138918 
L 112.87804 95.847034 
L 113.601101 97.745887 
L 114.324163 96.18945 
L 115.047224 93.418994 
L 115.770285 92.734162 
L 116.493347 89.994834 
L 117.216408 90.804181 
L 117.93947 88.282754 
L 118.662531 88.500655 
L 119.385592 87.255506 
L 120.108654 88.62517 
L 120.831715 87.380021 
L 121.554776 84.453921 
L 122.277838 83.302158 
L 123.000899 82.928614 
L 123.72396 82.02588 
L 124.447022 80.56283 
L 125.170083 80.220414 
L 125.893144 80.344929 
L 127.339267 79.09978 
L 128.062328 78.757364 
L 128.78539 78.228176 
L 129.508451 78.072532 
L 130.231512 76.858512 
L 130.954574 76.702868 
L 131.677635 77.014156 
L 132.400696 75.582234 
L 133.123758 75.955779 
L 133.846819 75.084175 
L 134.569881 74.990789 
L 135.292942 75.239818 
L 136.016003 74.337085 
L 138.185187 74.243699 
L 138.908249 96.531866 
L 139.63131 97.216698 
L 140.354371 98.555234 
L 141.077433 94.819787 
L 141.800494 97.714758 
L 142.523555 97.092183 
L 143.969678 94.757529 
L 144.692739 96.096064 
L 145.415801 93.076578 
L 146.138862 95.629133 
L 146.861923 91.769171 
L 147.584985 93.605766 
L 148.308046 90.83531 
L 149.031108 92.765291 
L 149.754169 95.411232 
L 150.47723 94.97543 
L 151.200292 93.045449 
L 151.923353 93.356736 
L 152.646414 89.83919 
L 153.369476 88.656299 
L 154.092537 88.158239 
L 154.815598 87.037605 
L 155.53866 88.002596 
L 156.261721 86.228258 
L 156.984782 87.846952 
L 157.707844 87.504536 
L 158.430905 87.691308 
L 159.153966 87.099863 
L 159.877028 82.088138 
L 160.600089 84.142634 
L 161.32315 83.924733 
L 162.046212 81.527821 
L 162.769273 82.928614 
L 163.492334 85.263268 
L 164.215396 83.862475 
L 164.938457 84.671822 
L 165.661519 82.990871 
L 166.38458 82.057009 
L 167.107641 82.679584 
L 167.830703 80.064771 
L 168.553764 82.461683 
L 169.276825 80.531702 
L 169.999887 81.06089 
L 170.722948 80.0959 
L 171.446009 79.473325 
L 172.169071 80.189286 
L 172.892132 80.064771 
L 173.615193 78.228176 
L 174.338255 79.442196 
L 175.061316 76.765126 
L 175.784377 75.551106 
L 176.507439 75.800135 
L 177.2305 77.823503 
L 177.953561 77.574473 
L 178.676623 77.574473 
L 179.399684 74.928531 
L 180.122745 76.827383 
L 180.845807 76.235938 
L 181.568868 74.150313 
L 182.29193 73.558867 
L 183.014991 73.621125 
L 183.738052 74.305957 
L 184.461114 73.621125 
L 185.184175 72.656134 
L 185.907236 74.741759 
L 186.630298 73.434352 
L 187.353359 70.912926 
L 188.07642 71.473243 
L 188.799482 72.842907 
L 189.522543 71.628886 
L 190.245604 71.628886 
L 190.968666 70.103579 
L 191.691727 70.850668 
L 192.414788 71.815659 
L 193.13785 68.920687 
L 193.860911 67.582152 
L 194.583972 69.449876 
L 196.030095 66.928449 
L 196.753157 67.270865 
L 198.199279 66.866191 
L 198.922341 66.990706 
L 199.645402 66.087973 
L 200.368463 67.333122 
L 201.091525 66.89732 
L 201.814586 65.589914 
L 202.537647 66.772805 
L 203.260709 65.216369 
L 203.98377 65.652171 
L 204.706831 65.309755 
L 205.429893 64.780567 
L 206.152954 64.095735 
L 206.876015 62.7572 
L 207.599077 63.535418 
L 208.322138 63.877834 
L 209.045199 63.442032 
L 209.768261 62.539299 
L 210.491322 62.943972 
L 211.214383 62.601556 
L 211.937445 61.667694 
L 212.660506 61.698823 
L 213.383568 62.321397 
L 214.106629 62.290269 
L 214.82969 61.916724 
L 215.552752 61.138506 
L 216.275813 61.823338 
L 216.998874 61.169635 
L 217.721936 61.698823 
L 219.168058 61.449793 
L 219.89112 61.667694 
L 220.614181 61.263021 
L 222.060304 61.04512 
L 222.783365 60.578189 
L 223.506426 61.636566 
L 224.229488 61.356407 
L 224.952549 61.512051 
L 225.67561 83.613445 
L 226.398672 84.547307 
L 227.121733 87.784695 
L 228.567856 87.566794 
L 229.290917 81.527821 
L 230.013979 83.800218 
L 230.73704 82.461683 
L 231.460101 83.582317 
L 232.183163 86.352773 
L 232.906224 85.294397 
L 233.629285 88.313883 
L 234.352347 84.671822 
L 235.798469 81.652336 
L 236.521531 83.644574 
L 237.244592 81.870237 
L 237.967653 83.208772 
L 238.690715 82.212653 
L 239.413776 88.780814 
L 240.136837 82.866356 
L 240.859899 85.543426 
L 241.58296 83.73796 
L 242.306021 82.897485 
L 243.029083 85.076496 
L 243.752144 82.52394 
L 244.475206 78.228176 
L 245.198267 80.905246 
L 245.921328 82.617326 
L 246.64439 80.220414 
L 247.367451 84.578436 
L 248.090512 78.041404 
L 248.813574 81.372177 
L 249.536635 83.613445 
L 250.259696 79.722355 
L 250.982758 83.053128 
L 251.705819 79.162038 
L 252.42888 80.656217 
L 253.151942 80.002513 
L 253.875003 80.251543 
L 254.598064 81.434435 
L 255.321126 79.162038 
L 256.044187 80.780731 
L 256.767248 80.905246 
L 257.49031 78.103661 
L 258.213371 84.858594 
L 258.936432 80.282672 
L 259.659494 80.593959 
L 260.382555 82.648455 
L 261.105617 80.282672 
L 261.828678 80.0959 
L 262.551739 76.578354 
L 263.274801 81.341049 
L 263.997862 78.103661 
L 264.720923 78.757364 
L 265.443985 77.854631 
L 266.167046 80.376058 
L 266.890107 80.500573 
L 267.613169 77.325443 
L 268.33623 79.84687 
L 269.059291 77.979146 
L 269.782353 75.146432 
L 270.505414 78.695107 
L 271.228475 75.862393 
L 271.951537 77.979146 
L 272.674598 75.582234 
L 273.397659 77.481087 
L 274.120721 78.072532 
L 274.843782 77.169799 
L 275.566843 79.473325 
L 276.289905 75.582234 
L 277.012966 78.539463 
L 277.736028 74.95966 
L 278.459089 78.290433 
L 279.18215 77.356572 
L 279.905212 75.021917 
L 280.628273 77.107542 
L 281.351334 74.430472 
L 282.074396 74.150313 
L 282.797457 75.457719 
L 283.520518 76.298195 
L 284.24358 72.03356 
L 286.412764 75.426591 
L 287.135825 72.74952 
L 287.858886 73.434352 
L 288.581948 73.372095 
L 289.305009 71.130827 
L 290.02807 75.270947 
L 290.751132 71.909045 
L 291.474193 76.640611 
L 292.197255 71.909045 
L 292.920316 74.119184 
L 294.366439 73.901283 
L 295.0895 72.625006 
L 295.812561 74.430472 
L 296.535623 72.438233 
L 297.258684 72.74952 
L 297.981745 70.508252 
L 298.704807 70.508252 
L 299.427868 71.255342 
L 300.150929 71.348728 
L 300.873991 69.138588 
L 301.597052 71.099698 
L 302.320113 71.28647 
L 303.043175 69.418747 
L 303.766236 73.49661 
L 304.489297 70.352609 
L 305.212359 68.765044 
L 305.93542 72.500491 
L 306.658481 69.543262 
L 307.381543 68.982945 
L 308.104604 69.792292 
L 308.827666 68.484885 
L 309.550727 68.080212 
L 310.273788 67.924568 
L 310.99685 70.103579 
L 311.719911 67.551023 
L 312.442972 68.298113 
L 313.166034 68.827301 
L 313.889095 66.866191 
L 314.612156 68.36037 
L 315.335218 68.889558 
L 316.058279 67.301994 
L 316.78134 68.11134 
L 317.504402 66.89732 
L 318.227463 69.169717 
L 318.950524 65.714429 
L 319.673586 68.484885 
L 320.396647 66.866191 
L 321.119708 67.052964 
L 321.84277 64.842824 
L 322.565831 66.959578 
L 323.288892 66.150231 
L 324.011954 67.301994 
L 324.735015 66.803934 
L 325.458077 65.838943 
L 326.181138 64.126864 
L 326.904199 63.348645 
L 327.627261 65.43427 
L 328.350322 63.940091 
L 329.073383 66.368132 
L 329.796445 64.251378 
L 330.519506 64.842824 
L 331.242567 63.317517 
L 331.965629 63.659933 
L 332.68869 63.846705 
L 333.411751 63.597675 
L 334.134813 62.632685 
L 334.857874 61.854467 
L 335.580935 63.815576 
L 336.303997 65.340884 
L 337.027058 63.504289 
L 337.750119 63.224131 
L 338.473181 61.418664 
L 339.196242 60.79609 
L 340.642365 62.041239 
L 341.365426 60.671575 
L 342.088488 61.667694 
L 342.811549 61.076248 
L 343.53461 62.414784 
L 344.257672 62.01011 
L 344.980733 61.107377 
L 345.703794 61.29415 
L 346.426856 61.169635 
L 347.149917 61.418664 
L 347.872978 60.049001 
L 348.59604 62.788328 
L 349.319101 60.111258 
L 350.042162 60.080129 
L 351.488285 60.827219 
L 352.211346 60.702704 
L 352.934408 59.768842 
L 353.657469 61.231892 
L 354.38053 60.827219 
L 355.826653 60.827219 
L 356.549715 59.924486 
L 357.272776 62.445912 
L 357.995837 61.418664 
L 358.718899 61.013991 
L 359.44196 61.605437 
L 360.165021 60.017872 
L 360.888083 61.231892 
L 361.611144 60.54706 
L 362.334205 61.449793 
L 363.057267 61.138506 
L 363.780328 60.702704 
L 364.503389 61.325278 
L 365.949512 60.640446 
L 366.672573 60.827219 
L 367.395635 60.54706 
L 368.118696 61.512051 
L 368.841757 62.134625 
L 369.564819 61.636566 
L 370.28788 59.052881 
L 371.010941 62.912843 
L 371.734003 60.017872 
L 372.457064 60.609318 
L 373.180126 61.512051 
L 373.903187 60.422545 
L 374.626248 63.130744 
L 375.34931 60.422545 
L 376.072371 58.58595 
L 376.795432 60.858347 
L 377.518494 61.480922 
L 378.241555 60.827219 
L 378.964616 61.574308 
L 379.687678 60.173515 
L 380.410739 60.017872 
L 381.1338 61.138506 
L 381.856862 60.266902 
L 383.302984 59.768842 
L 384.026046 61.013991 
L 384.749107 59.737713 
L 385.472168 61.978982 
L 386.19523 62.570427 
L 386.918291 61.200763 
L 387.641353 60.54706 
L 388.364414 60.142387 
L 389.087475 60.578189 
L 389.810537 60.235773 
L 390.533598 63.099616 
L 391.256659 62.726071 
L 391.979721 60.515931 
L 392.702782 59.799971 
L 393.425843 61.076248 
L 394.148905 60.422545 
L 394.871966 60.173515 
L 395.595027 61.263021 
L 396.318089 60.204644 
L 397.04115 61.916724 
L 397.764211 61.636566 
L 398.487273 58.897238 
L 398.487273 58.897238 
" clip-path="url(#p46f336c9d7)" style="fill: none; stroke: #ff7f0e; stroke-width: 1.5; stroke-linecap: square"/>
   </g>
   <g id="line2d_21">
    <path d="M 73.832727 282.928525 
L 74.555789 248.042885 
L 75.27885 230.997225 
L 76.001911 233.809544 
L 76.724973 211.997968 
L 77.448034 208.713351 
L 78.171095 202.594947 
L 78.894157 183.59569 
L 79.617218 187.137925 
L 80.340279 188.683627 
L 81.063341 183.917712 
L 81.786402 182.350541 
L 83.232525 174.879647 
L 83.955586 166.399753 
L 84.678647 173.1622 
L 85.401709 175.008456 
L 86.12477 159.615838 
L 86.847832 156.009199 
L 87.570893 164.274413 
L 88.293954 155.279284 
L 89.017016 158.0272 
L 89.740077 153.19688 
L 90.463138 149.26822 
L 91.1862 153.003667 
L 91.909261 155.944795 
L 92.632322 149.761986 
L 93.355384 149.633178 
L 94.078445 149.998135 
L 94.801506 149.869327 
L 96.247629 175.287541 
L 96.97069 171.959988 
L 97.693752 165.605434 
L 98.416813 173.183668 
L 99.139874 160.818051 
L 99.862936 172.689902 
L 100.585997 161.204476 
L 101.309059 160.15254 
L 102.03212 164.918455 
L 102.755181 166.034796 
L 103.478243 166.378285 
L 104.201304 165.004328 
L 104.924365 153.969731 
L 105.647427 145.403965 
L 106.370488 163.845051 
L 107.093549 149.71905 
L 107.816611 156.696178 
L 108.539672 145.339561 
L 109.262733 150.255752 
L 109.985795 151.672646 
L 110.708856 150.964199 
L 111.431917 146.455901 
L 112.154979 144.309092 
L 112.87804 142.870731 
L 113.601101 144.502305 
L 114.324163 144.996071 
L 115.047224 144.137348 
L 115.770285 131.514113 
L 116.493347 135.056347 
L 117.216408 144.996071 
L 117.93947 138.083347 
L 118.662531 139.435837 
L 119.385592 136.70939 
L 120.108654 129.796666 
L 120.831715 131.041815 
L 121.554776 131.87907 
L 122.277838 130.633921 
L 123.000899 131.277964 
L 123.72396 127.628389 
L 124.447022 126.984347 
L 125.170083 126.705262 
L 125.893144 127.048751 
L 126.616206 123.420644 
L 127.339267 126.211496 
L 128.062328 120.243368 
L 128.78539 122.604857 
L 129.508451 124.472581 
L 130.231512 119.019687 
L 130.954574 121.402644 
L 131.677635 121.102091 
L 132.400696 120.500985 
L 133.123758 119.019687 
L 133.846819 122.218432 
L 134.569881 121.059155 
L 135.292942 118.783538 
L 136.016003 120.951815 
L 136.739065 119.384644 
L 137.462126 119.835474 
L 138.185187 119.062623 
L 138.908249 141.539709 
L 139.63131 142.806326 
L 140.354371 147.207284 
L 141.077433 142.162284 
L 141.800494 138.555645 
L 142.523555 141.668518 
L 143.246617 139.671986 
L 143.969678 135.657454 
L 144.692739 140.122816 
L 145.415801 142.334028 
L 146.138862 141.131816 
L 146.861923 133.059815 
L 147.584985 134.584049 
L 148.308046 140.917135 
L 149.754169 135.657454 
L 150.47723 142.076411 
L 151.200292 132.050815 
L 151.923353 127.39224 
L 152.646414 136.537645 
L 153.369476 135.893603 
L 154.092537 129.131155 
L 154.815598 133.381836 
L 155.53866 136.773794 
L 156.261721 138.383901 
L 156.984782 122.390176 
L 157.707844 138.791794 
L 158.430905 123.957347 
L 159.153966 137.761326 
L 159.877028 132.651922 
L 160.600089 131.406773 
L 161.32315 133.875602 
L 162.046212 131.986411 
L 162.769273 122.476049 
L 163.492334 128.229496 
L 164.215396 123.721198 
L 164.938457 129.882538 
L 165.661519 122.69073 
L 166.38458 127.156091 
L 167.107641 128.551517 
L 167.830703 125.524517 
L 168.553764 126.877006 
L 169.276825 122.454581 
L 169.999887 129.904007 
L 170.722948 123.635325 
L 171.446009 120.393644 
L 172.169071 123.163027 
L 172.892132 127.2849 
L 173.615193 122.776602 
L 174.338255 122.368708 
L 175.061316 118.590325 
L 175.784377 120.114559 
L 176.507439 120.758602 
L 177.2305 114.83341 
L 177.953561 121.252368 
L 178.676623 119.964283 
L 179.399684 121.102091 
L 180.122745 120.865942 
L 180.845807 118.86941 
L 181.568868 122.883942 
L 182.29193 116.164431 
L 183.014991 119.556389 
L 183.738052 124.300836 
L 184.461114 114.83341 
L 185.184175 116.121495 
L 185.907236 118.611793 
L 186.630298 113.523857 
L 188.07642 115.820942 
L 188.799482 114.210835 
L 189.522543 108.972622 
L 190.245604 116.185899 
L 190.968666 115.069559 
L 191.691727 115.262772 
L 192.414788 110.303644 
L 193.13785 113.287708 
L 193.860911 104.464324 
L 194.583972 117.495453 
L 195.307034 113.480921 
L 196.030095 111.119431 
L 196.753157 104.249643 
L 197.476218 106.289112 
L 198.199279 110.861814 
L 198.922341 103.970558 
L 199.645402 110.647133 
L 200.368463 106.847282 
L 201.091525 106.010026 
L 201.814586 107.98509 
L 202.537647 102.83275 
L 203.260709 101.995494 
L 204.706831 106.396452 
L 205.429893 105.96709 
L 206.152954 102.897154 
L 206.876015 102.38192 
L 207.599077 103.154771 
L 208.322138 104.120835 
L 209.045199 104.442856 
L 209.768261 104.228175 
L 210.491322 103.884686 
L 211.214383 104.679005 
L 211.937445 102.618069 
L 212.660506 102.467792 
L 213.383568 103.133303 
L 214.106629 104.034963 
L 214.82969 101.759345 
L 215.552752 102.854218 
L 216.275813 102.768345 
L 216.998874 104.356984 
L 217.721936 103.090367 
L 218.444997 103.262111 
L 219.168058 103.025962 
L 219.89112 103.820282 
L 220.614181 103.412388 
L 221.337242 102.746877 
L 222.060304 103.262111 
L 222.783365 102.682473 
L 223.506426 102.338984 
L 224.229488 103.090367 
L 224.952549 102.875686 
L 225.67561 134.734326 
L 226.398672 128.465645 
L 227.121733 131.642921 
L 227.844794 126.340304 
L 228.567856 126.082687 
L 229.290917 130.097219 
L 230.013979 127.134623 
L 230.73704 128.272432 
L 231.460101 131.235028 
L 232.183163 137.052879 
L 232.906224 126.619389 
L 233.629285 132.587517 
L 234.352347 124.472581 
L 235.075408 127.628389 
L 235.798469 122.518985 
L 236.521531 130.161624 
L 237.244592 116.85141 
L 237.967653 123.098623 
L 238.690715 127.800134 
L 239.413776 128.465645 
L 240.136837 129.517581 
L 240.859899 133.446241 
L 242.306021 122.733666 
L 243.029083 134.927539 
L 243.752144 130.397772 
L 244.475206 122.69073 
L 245.198267 120.350708 
L 246.64439 127.39224 
L 247.367451 120.050155 
L 248.090512 122.776602 
L 248.813574 119.706666 
L 249.536635 123.35624 
L 250.259696 124.558453 
L 251.705819 118.440048 
L 252.42888 124.558453 
L 253.151942 123.80707 
L 253.875003 128.079219 
L 254.598064 128.508581 
L 255.321126 122.733666 
L 256.044187 123.742666 
L 256.767248 128.701794 
L 257.49031 126.404708 
L 258.213371 125.782134 
L 258.936432 125.932411 
L 259.659494 122.34724 
L 260.382555 124.730198 
L 261.105617 120.823006 
L 261.828678 123.120091 
L 262.551739 126.490581 
L 263.274801 133.295964 
L 263.997862 117.731602 
L 264.720923 120.801538 
L 265.443985 122.261368 
L 266.167046 122.390176 
L 266.890107 128.637389 
L 267.613169 118.976751 
L 268.33623 123.506517 
L 269.059291 123.377708 
L 269.782353 116.872878 
L 270.505414 116.185899 
L 271.228475 120.071623 
L 271.951537 125.782134 
L 272.674598 118.118027 
L 273.397659 117.645729 
L 274.120721 120.715666 
L 274.843782 116.078559 
L 275.566843 124.773134 
L 276.289905 121.531453 
L 277.012966 127.84307 
L 277.736028 126.791134 
L 278.459089 125.524517 
L 279.18215 114.597261 
L 280.628273 124.408176 
L 281.351334 126.147091 
L 282.074396 121.939346 
L 282.797457 114.146431 
L 283.520518 123.785602 
L 284.24358 120.908878 
L 284.966641 122.776602 
L 285.689702 121.445581 
L 286.412764 124.81607 
L 287.135825 111.334112 
L 287.858886 122.068155 
L 288.581948 125.009283 
L 289.305009 116.078559 
L 290.02807 119.513453 
L 290.751132 116.271772 
L 291.474193 114.618729 
L 292.197255 117.989219 
L 292.920316 118.41858 
L 293.643377 115.477453 
L 294.366439 121.810538 
L 295.0895 121.209432 
L 295.812561 120.243368 
L 296.535623 118.203899 
L 297.258684 122.712198 
L 297.981745 124.794602 
L 298.704807 120.715666 
L 299.427868 119.835474 
L 300.150929 122.540453 
L 300.873991 127.778666 
L 301.597052 116.615261 
L 302.320113 112.901282 
L 303.043175 114.532857 
L 303.766236 118.289772 
L 304.489297 106.525261 
L 305.212359 114.704601 
L 305.93542 117.023155 
L 306.658481 115.348644 
L 307.381543 112.708069 
L 308.104604 125.910942 
L 308.827666 113.008623 
L 309.550727 115.928282 
L 310.273788 120.865942 
L 310.99685 110.518325 
L 311.719911 114.146431 
L 312.442972 112.428984 
L 313.166034 106.86875 
L 313.889095 110.153367 
L 314.612156 114.103495 
L 315.335218 116.228836 
L 316.058279 115.541857 
L 316.78134 120.565389 
L 317.504402 116.74407 
L 318.227463 118.697665 
L 318.950524 111.80641 
L 319.673586 113.588261 
L 320.396647 109.724005 
L 321.119708 114.769006 
L 321.84277 114.082027 
L 322.565831 112.493389 
L 323.288892 116.980219 
L 324.011954 114.446984 
L 325.458077 111.377048 
L 326.181138 109.079963 
L 326.904199 110.389516 
L 327.627261 117.366644 
L 328.350322 110.518325 
L 329.073383 109.122899 
L 329.796445 105.730941 
L 330.519506 114.854878 
L 331.242567 109.273176 
L 331.965629 108.285644 
L 332.68869 104.915154 
L 334.134813 113.437984 
L 334.857874 109.78841 
L 335.580935 105.387452 
L 336.303997 103.820282 
L 337.027058 113.309176 
L 337.750119 104.485792 
L 338.473181 108.607665 
L 339.196242 106.203239 
L 339.919304 103.262111 
L 340.642365 104.271111 
L 341.365426 104.936622 
L 342.088488 107.341048 
L 342.811549 110.282176 
L 343.53461 111.24824 
L 344.257672 108.414452 
L 344.980733 100.36392 
L 345.703794 100.213643 
L 347.149917 106.052963 
L 347.872978 110.239239 
L 348.59604 108.564729 
L 349.319101 107.233707 
L 350.042162 106.911686 
L 350.765224 104.056431 
L 351.488285 105.258643 
L 352.211346 102.188707 
L 352.934408 103.884686 
L 353.657469 106.267644 
L 354.38053 105.022495 
L 355.103592 104.593133 
L 355.826653 103.262111 
L 356.549715 105.96709 
L 357.272776 104.528729 
L 357.995837 106.654069 
L 358.718899 102.167239 
L 359.44196 105.945622 
L 360.165021 102.746877 
L 360.888083 110.883282 
L 361.611144 105.365984 
L 362.334205 104.356984 
L 363.057267 105.795346 
L 363.780328 110.475388 
L 364.503389 99.440792 
L 365.226451 106.632601 
L 365.949512 105.043963 
L 366.672573 103.820282 
L 367.395635 103.755877 
L 368.118696 104.764877 
L 368.841757 104.593133 
L 369.564819 102.510728 
L 370.28788 99.204643 
L 371.010941 103.240643 
L 371.734003 101.673473 
L 372.457064 102.467792 
L 373.180126 109.573729 
L 373.903187 103.068899 
L 374.626248 102.145771 
L 375.34931 108.242707 
L 376.072371 98.710877 
L 376.795432 102.081367 
L 377.518494 103.992026 
L 378.241555 104.249643 
L 378.964616 100.299516 
L 380.410739 106.031495 
L 381.1338 109.316112 
L 381.856862 100.92209 
L 382.579923 103.670005 
L 384.026046 103.884686 
L 384.749107 104.829282 
L 385.472168 108.564729 
L 386.19523 107.813346 
L 386.918291 110.625665 
L 387.641353 107.31958 
L 388.364414 102.768345 
L 389.087475 105.172771 
L 389.810537 99.483728 
L 390.533598 103.627069 
L 391.256659 104.485792 
L 391.979721 103.154771 
L 392.702782 110.260708 
L 393.425843 114.683133 
L 394.148905 107.061963 
L 394.871966 106.095899 
L 395.595027 107.448388 
L 396.318089 107.233707 
L 397.04115 105.773878 
L 397.764211 105.688005 
L 398.487273 110.582729 
L 398.487273 110.582729 
" clip-path="url(#p46f336c9d7)" style="fill: none; stroke: #2ca02c; stroke-width: 1.5; stroke-linecap: square"/>
   </g>
   <g id="line2d_22">
    <path d="M 350.765224 59.052881 
L 351.488285 59.270782 
L 352.211346 59.706585 
L 352.934408 58.866109 
L 353.657469 59.613198 
L 354.38053 59.457555 
L 355.103592 58.617079 
L 355.826653 61.356407 
L 356.549715 60.204644 
L 357.272776 60.017872 
L 357.995837 58.305792 
L 359.44196 62.165754 
L 360.165021 60.111258 
L 360.888083 59.768842 
L 361.611144 60.640446 
L 362.334205 60.204644 
L 363.057267 59.550941 
L 363.780328 61.29415 
L 364.503389 60.360288 
L 365.226451 61.76108 
L 365.949512 60.54706 
L 366.672573 60.671575 
L 367.395635 61.231892 
L 368.118696 60.017872 
L 368.841757 61.916724 
L 369.564819 61.76108 
L 370.28788 66.586033 
L 371.010941 62.134625 
L 372.457064 60.515931 
L 373.180126 61.107377 
L 373.903187 61.387536 
L 374.626248 64.157992 
L 375.34931 61.916724 
L 376.072371 63.691061 
L 376.795432 65.870072 
L 377.518494 63.161873 
L 378.241555 64.438151 
L 378.964616 60.920605 
L 379.687678 63.691061 
L 380.410739 62.321397 
L 381.1338 62.788328 
L 381.856862 64.189121 
L 382.579923 64.531537 
L 383.302984 65.465399 
L 384.026046 62.041239 
L 384.749107 61.04512 
L 386.19523 65.060725 
L 386.918291 65.465399 
L 387.641353 66.928449 
L 388.364414 65.122983 
L 389.087475 64.624923 
L 389.810537 67.14635 
L 390.533598 67.115221 
L 391.256659 71.722272 
L 391.979721 68.6094 
L 392.702782 73.683382 
L 393.425843 71.660015 
L 394.148905 72.375976 
L 394.871966 68.049083 
L 395.595027 67.364251 
L 396.318089 70.010193 
L 397.764211 68.422628 
L 398.487273 72.874035 
L 398.487273 72.874035 
" clip-path="url(#p46f336c9d7)" style="fill: none; stroke: #d62728; stroke-width: 1.5; stroke-linecap: square"/>
   </g>
   <g id="line2d_23">
    <path d="M 350.765224 103.519728 
L 351.488285 102.274579 
L 352.211346 104.979558 
L 352.934408 104.721941 
L 353.657469 105.645069 
L 354.38053 102.446324 
L 355.103592 100.235111 
L 355.826653 99.505196 
L 356.549715 103.240643 
L 357.272776 104.936622 
L 357.995837 100.492728 
L 358.718899 103.347984 
L 359.44196 105.237175 
L 360.165021 103.347984 
L 360.888083 100.836218 
L 361.611144 102.231643 
L 362.334205 102.596601 
L 363.057267 101.609069 
L 363.780328 100.235111 
L 364.503389 102.725409 
L 365.226451 102.296048 
L 365.949512 97.508664 
L 366.672573 100.557133 
L 367.395635 98.732345 
L 368.118696 100.600069 
L 368.841757 100.256579 
L 369.564819 98.818218 
L 370.28788 103.670005 
L 371.010941 101.737877 
L 371.734003 96.413792 
L 372.457064 101.587601 
L 373.180126 102.016962 
L 373.903187 101.523196 
L 374.626248 102.467792 
L 375.34931 104.464324 
L 376.072371 105.30158 
L 376.795432 104.077899 
L 377.518494 100.578601 
L 378.964616 99.46226 
L 379.687678 98.431792 
L 380.410739 95.383324 
L 382.579923 100.965026 
L 383.302984 101.716409 
L 384.026046 100.600069 
L 384.749107 98.560601 
L 385.472168 105.816814 
L 386.19523 103.025962 
L 386.918291 101.179707 
L 387.641353 107.813346 
L 388.364414 103.906154 
L 389.087475 105.795346 
L 389.810537 106.052963 
L 390.533598 102.274579 
L 391.256659 102.789814 
L 391.979721 108.371516 
L 392.702782 112.428984 
L 393.425843 111.291176 
L 394.148905 108.264176 
L 394.871966 104.550197 
L 395.595027 110.196303 
L 396.318089 107.791878 
L 397.04115 108.178303 
L 397.764211 104.657537 
L 398.487273 106.546729 
L 398.487273 106.546729 
" clip-path="url(#p46f336c9d7)" style="fill: none; stroke: #9467bd; stroke-width: 1.5; stroke-linecap: square"/>
   </g>
   <g id="patch_3">
    <path d="M 57.6 307.584 
L 57.6 41.472 
" style="fill: none; stroke: #000000; stroke-width: 0.8; stroke-linejoin: miter; stroke-linecap: square"/>
   </g>
   <g id="patch_4">
    <path d="M 414.72 307.584 
L 414.72 41.472 
" style="fill: none; stroke: #000000; stroke-width: 0.8; stroke-linejoin: miter; stroke-linecap: square"/>
   </g>
   <g id="patch_5">
    <path d="M 57.6 307.584 
L 414.72 307.584 
" style="fill: none; stroke: #000000; stroke-width: 0.8; stroke-linejoin: miter; stroke-linecap: square"/>
   </g>
   <g id="patch_6">
    <path d="M 57.6 41.472 
L 414.72 41.472 
" style="fill: none; stroke: #000000; stroke-width: 0.8; stroke-linejoin: miter; stroke-linecap: square"/>
   </g>
   <g id="text_21">
    <!-- Learning Curves -->
    <g transform="translate(187.37625 35.472) scale(0.12 -0.12)">
     <defs>
      <path id="DejaVuSans-4c" d="M 628 4666 
L 1259 4666 
L 1259 531 
L 3531 531 
L 3531 0 
L 628 0 
L 628 4666 
z
" transform="scale(0.015625)"/>
      <path id="DejaVuSans-65" d="M 3597 1894 
L 3597 1613 
L 953 1613 
Q 991 1019 1311 708 
Q 1631 397 2203 397 
Q 2534 397 2845 478 
Q 3156 559 3463 722 
L 3463 178 
Q 3153 47 2828 -22 
Q 2503 -91 2169 -91 
Q 1331 -91 842 396 
Q 353 884 353 1716 
Q 353 2575 817 3079 
Q 1281 3584 2069 3584 
Q 2775 3584 3186 3129 
Q 3597 2675 3597 1894 
z
M 3022 2063 
Q 3016 2534 2758 2815 
Q 2500 3097 2075 3097 
Q 1594 3097 1305 2825 
Q 1016 2553 972 2059 
L 3022 2063 
z
" transform="scale(0.015625)"/>
      <path id="DejaVuSans-6e" d="M 3513 2113 
L 3513 0 
L 2938 0 
L 2938 2094 
Q 2938 2591 2744 2837 
Q 2550 3084 2163 3084 
Q 1697 3084 1428 2787 
Q 1159 2491 1159 1978 
L 1159 0 
L 581 0 
L 581 3500 
L 1159 3500 
L 1159 2956 
Q 1366 3272 1645 3428 
Q 1925 3584 2291 3584 
Q 2894 3584 3203 3211 
Q 3513 2838 3513 2113 
z
" transform="scale(0.015625)"/>
      <path id="DejaVuSans-69" d="M 603 3500 
L 1178 3500 
L 1178 0 
L 603 0 
L 603 3500 
z
M 603 4863 
L 1178 4863 
L 1178 4134 
L 603 4134 
L 603 4863 
z
" transform="scale(0.015625)"/>
      <path id="DejaVuSans-67" d="M 2906 1791 
Q 2906 2416 2648 2759 
Q 2391 3103 1925 3103 
Q 1463 3103 1205 2759 
Q 947 2416 947 1791 
Q 947 1169 1205 825 
Q 1463 481 1925 481 
Q 2391 481 2648 825 
Q 2906 1169 2906 1791 
z
M 3481 434 
Q 3481 -459 3084 -895 
Q 2688 -1331 1869 -1331 
Q 1566 -1331 1297 -1286 
Q 1028 -1241 775 -1147 
L 775 -588 
Q 1028 -725 1275 -790 
Q 1522 -856 1778 -856 
Q 2344 -856 2625 -561 
Q 2906 -266 2906 331 
L 2906 616 
Q 2728 306 2450 153 
Q 2172 0 1784 0 
Q 1141 0 747 490 
Q 353 981 353 1791 
Q 353 2603 747 3093 
Q 1141 3584 1784 3584 
Q 2172 3584 2450 3431 
Q 2728 3278 2906 2969 
L 2906 3500 
L 3481 3500 
L 3481 434 
z
" transform="scale(0.015625)"/>
      <path id="DejaVuSans-20" transform="scale(0.015625)"/>
      <path id="DejaVuSans-43" d="M 4122 4306 
L 4122 3641 
Q 3803 3938 3442 4084 
Q 3081 4231 2675 4231 
Q 1875 4231 1450 3742 
Q 1025 3253 1025 2328 
Q 1025 1406 1450 917 
Q 1875 428 2675 428 
Q 3081 428 3442 575 
Q 3803 722 4122 1019 
L 4122 359 
Q 3791 134 3420 21 
Q 3050 -91 2638 -91 
Q 1578 -91 968 557 
Q 359 1206 359 2328 
Q 359 3453 968 4101 
Q 1578 4750 2638 4750 
Q 3056 4750 3426 4639 
Q 3797 4528 4122 4306 
z
" transform="scale(0.015625)"/>
      <path id="DejaVuSans-76" d="M 191 3500 
L 800 3500 
L 1894 563 
L 2988 3500 
L 3597 3500 
L 2284 0 
L 1503 0 
L 191 3500 
z
" transform="scale(0.015625)"/>
     </defs>
     <use xlink:href="#DejaVuSans-4c"/>
     <use xlink:href="#DejaVuSans-65" x="53.962891"/>
     <use xlink:href="#DejaVuSans-61" x="115.486328"/>
     <use xlink:href="#DejaVuSans-72" x="176.765625"/>
     <use xlink:href="#DejaVuSans-6e" x="216.128906"/>
     <use xlink:href="#DejaVuSans-69" x="279.507812"/>
     <use xlink:href="#DejaVuSans-6e" x="307.291016"/>
     <use xlink:href="#DejaVuSans-67" x="370.669922"/>
     <use xlink:href="#DejaVuSans-20" x="434.146484"/>
     <use xlink:href="#DejaVuSans-43" x="465.933594"/>
     <use xlink:href="#DejaVuSans-75" x="535.757812"/>
     <use xlink:href="#DejaVuSans-72" x="599.136719"/>
     <use xlink:href="#DejaVuSans-76" x="640.25"/>
     <use xlink:href="#DejaVuSans-65" x="699.429688"/>
     <use xlink:href="#DejaVuSans-73" x="760.953125"/>
    </g>
   </g>
   <g id="legend_1">
    <g id="patch_7">
     <path d="M 214.18875 302.584 
L 407.72 302.584 
Q 409.72 302.584 409.72 300.584 
L 409.72 228.193375 
Q 409.72 226.193375 407.72 226.193375 
L 214.18875 226.193375 
Q 212.18875 226.193375 212.18875 228.193375 
L 212.18875 300.584 
Q 212.18875 302.584 214.18875 302.584 
z
" style="fill: #ffffff; opacity: 0.8; stroke: #cccccc; stroke-linejoin: miter"/>
    </g>
    <g id="line2d_24">
     <path d="M 216.18875 234.291812 
L 226.18875 234.291812 
L 236.18875 234.291812 
" style="fill: none; stroke: #1f77b4; stroke-width: 1.5; stroke-linecap: square"/>
    </g>
    <g id="text_22">
     <!-- Train Accuracy -->
     <g transform="translate(244.18875 237.791812) scale(0.1 -0.1)">
      <defs>
       <path id="DejaVuSans-54" d="M -19 4666 
L 3928 4666 
L 3928 4134 
L 2272 4134 
L 2272 0 
L 1638 0 
L 1638 4134 
L -19 4134 
L -19 4666 
z
" transform="scale(0.015625)"/>
      </defs>
      <use xlink:href="#DejaVuSans-54"/>
      <use xlink:href="#DejaVuSans-72" x="46.333984"/>
      <use xlink:href="#DejaVuSans-61" x="87.447266"/>
      <use xlink:href="#DejaVuSans-69" x="148.726562"/>
      <use xlink:href="#DejaVuSans-6e" x="176.509766"/>
      <use xlink:href="#DejaVuSans-20" x="239.888672"/>
      <use xlink:href="#DejaVuSans-41" x="271.675781"/>
      <use xlink:href="#DejaVuSans-63" x="338.333984"/>
      <use xlink:href="#DejaVuSans-63" x="393.314453"/>
      <use xlink:href="#DejaVuSans-75" x="448.294922"/>
      <use xlink:href="#DejaVuSans-72" x="511.673828"/>
      <use xlink:href="#DejaVuSans-61" x="552.787109"/>
      <use xlink:href="#DejaVuSans-63" x="614.066406"/>
      <use xlink:href="#DejaVuSans-79" x="669.046875"/>
     </g>
    </g>
    <g id="line2d_25">
     <path d="M 216.18875 248.969937 
L 226.18875 248.969937 
L 236.18875 248.969937 
" style="fill: none; stroke: #ff7f0e; stroke-width: 1.5; stroke-linecap: square"/>
    </g>
    <g id="text_23">
     <!-- Validation Accuracy -->
     <g transform="translate(244.18875 252.469937) scale(0.1 -0.1)">
      <defs>
       <path id="DejaVuSans-56" d="M 1831 0 
L 50 4666 
L 709 4666 
L 2188 738 
L 3669 4666 
L 4325 4666 
L 2547 0 
L 1831 0 
z
" transform="scale(0.015625)"/>
       <path id="DejaVuSans-6c" d="M 603 4863 
L 1178 4863 
L 1178 0 
L 603 0 
L 603 4863 
z
" transform="scale(0.015625)"/>
       <path id="DejaVuSans-64" d="M 2906 2969 
L 2906 4863 
L 3481 4863 
L 3481 0 
L 2906 0 
L 2906 525 
Q 2725 213 2448 61 
Q 2172 -91 1784 -91 
Q 1150 -91 751 415 
Q 353 922 353 1747 
Q 353 2572 751 3078 
Q 1150 3584 1784 3584 
Q 2172 3584 2448 3432 
Q 2725 3281 2906 2969 
z
M 947 1747 
Q 947 1113 1208 752 
Q 1469 391 1925 391 
Q 2381 391 2643 752 
Q 2906 1113 2906 1747 
Q 2906 2381 2643 2742 
Q 2381 3103 1925 3103 
Q 1469 3103 1208 2742 
Q 947 2381 947 1747 
z
" transform="scale(0.015625)"/>
       <path id="DejaVuSans-74" d="M 1172 4494 
L 1172 3500 
L 2356 3500 
L 2356 3053 
L 1172 3053 
L 1172 1153 
Q 1172 725 1289 603 
Q 1406 481 1766 481 
L 2356 481 
L 2356 0 
L 1766 0 
Q 1100 0 847 248 
Q 594 497 594 1153 
L 594 3053 
L 172 3053 
L 172 3500 
L 594 3500 
L 594 4494 
L 1172 4494 
z
" transform="scale(0.015625)"/>
      </defs>
      <use xlink:href="#DejaVuSans-56"/>
      <use xlink:href="#DejaVuSans-61" x="60.658203"/>
      <use xlink:href="#DejaVuSans-6c" x="121.9375"/>
      <use xlink:href="#DejaVuSans-69" x="149.720703"/>
      <use xlink:href="#DejaVuSans-64" x="177.503906"/>
      <use xlink:href="#DejaVuSans-61" x="240.980469"/>
      <use xlink:href="#DejaVuSans-74" x="302.259766"/>
      <use xlink:href="#DejaVuSans-69" x="341.46875"/>
      <use xlink:href="#DejaVuSans-6f" x="369.251953"/>
      <use xlink:href="#DejaVuSans-6e" x="430.433594"/>
      <use xlink:href="#DejaVuSans-20" x="493.8125"/>
      <use xlink:href="#DejaVuSans-41" x="525.599609"/>
      <use xlink:href="#DejaVuSans-63" x="592.257812"/>
      <use xlink:href="#DejaVuSans-63" x="647.238281"/>
      <use xlink:href="#DejaVuSans-75" x="702.21875"/>
      <use xlink:href="#DejaVuSans-72" x="765.597656"/>
      <use xlink:href="#DejaVuSans-61" x="806.710938"/>
      <use xlink:href="#DejaVuSans-63" x="867.990234"/>
      <use xlink:href="#DejaVuSans-79" x="922.970703"/>
     </g>
    </g>
    <g id="line2d_26">
     <path d="M 216.18875 263.648062 
L 226.18875 263.648062 
L 236.18875 263.648062 
" style="fill: none; stroke: #2ca02c; stroke-width: 1.5; stroke-linecap: square"/>
    </g>
    <g id="text_24">
     <!-- Robust Validation Accuracy -->
     <g transform="translate(244.18875 267.148062) scale(0.1 -0.1)">
      <defs>
       <path id="DejaVuSans-52" d="M 2841 2188 
Q 3044 2119 3236 1894 
Q 3428 1669 3622 1275 
L 4263 0 
L 3584 0 
L 2988 1197 
Q 2756 1666 2539 1819 
Q 2322 1972 1947 1972 
L 1259 1972 
L 1259 0 
L 628 0 
L 628 4666 
L 2053 4666 
Q 2853 4666 3247 4331 
Q 3641 3997 3641 3322 
Q 3641 2881 3436 2590 
Q 3231 2300 2841 2188 
z
M 1259 4147 
L 1259 2491 
L 2053 2491 
Q 2509 2491 2742 2702 
Q 2975 2913 2975 3322 
Q 2975 3731 2742 3939 
Q 2509 4147 2053 4147 
L 1259 4147 
z
" transform="scale(0.015625)"/>
       <path id="DejaVuSans-62" d="M 3116 1747 
Q 3116 2381 2855 2742 
Q 2594 3103 2138 3103 
Q 1681 3103 1420 2742 
Q 1159 2381 1159 1747 
Q 1159 1113 1420 752 
Q 1681 391 2138 391 
Q 2594 391 2855 752 
Q 3116 1113 3116 1747 
z
M 1159 2969 
Q 1341 3281 1617 3432 
Q 1894 3584 2278 3584 
Q 2916 3584 3314 3078 
Q 3713 2572 3713 1747 
Q 3713 922 3314 415 
Q 2916 -91 2278 -91 
Q 1894 -91 1617 61 
Q 1341 213 1159 525 
L 1159 0 
L 581 0 
L 581 4863 
L 1159 4863 
L 1159 2969 
z
" transform="scale(0.015625)"/>
      </defs>
      <use xlink:href="#DejaVuSans-52"/>
      <use xlink:href="#DejaVuSans-6f" x="64.982422"/>
      <use xlink:href="#DejaVuSans-62" x="126.164062"/>
      <use xlink:href="#DejaVuSans-75" x="189.640625"/>
      <use xlink:href="#DejaVuSans-73" x="253.019531"/>
      <use xlink:href="#DejaVuSans-74" x="305.119141"/>
      <use xlink:href="#DejaVuSans-20" x="344.328125"/>
      <use xlink:href="#DejaVuSans-56" x="376.115234"/>
      <use xlink:href="#DejaVuSans-61" x="436.773438"/>
      <use xlink:href="#DejaVuSans-6c" x="498.052734"/>
      <use xlink:href="#DejaVuSans-69" x="525.835938"/>
      <use xlink:href="#DejaVuSans-64" x="553.619141"/>
      <use xlink:href="#DejaVuSans-61" x="617.095703"/>
      <use xlink:href="#DejaVuSans-74" x="678.375"/>
      <use xlink:href="#DejaVuSans-69" x="717.583984"/>
      <use xlink:href="#DejaVuSans-6f" x="745.367188"/>
      <use xlink:href="#DejaVuSans-6e" x="806.548828"/>
      <use xlink:href="#DejaVuSans-20" x="869.927734"/>
      <use xlink:href="#DejaVuSans-41" x="901.714844"/>
      <use xlink:href="#DejaVuSans-63" x="968.373047"/>
      <use xlink:href="#DejaVuSans-63" x="1023.353516"/>
      <use xlink:href="#DejaVuSans-75" x="1078.333984"/>
      <use xlink:href="#DejaVuSans-72" x="1141.712891"/>
      <use xlink:href="#DejaVuSans-61" x="1182.826172"/>
      <use xlink:href="#DejaVuSans-63" x="1244.105469"/>
      <use xlink:href="#DejaVuSans-79" x="1299.085938"/>
     </g>
    </g>
    <g id="line2d_27">
     <path d="M 216.18875 278.326188 
L 226.18875 278.326188 
L 236.18875 278.326188 
" style="fill: none; stroke: #d62728; stroke-width: 1.5; stroke-linecap: square"/>
    </g>
    <g id="text_25">
     <!-- SWA Validation Accuracy -->
     <g transform="translate(244.18875 281.826188) scale(0.1 -0.1)">
      <defs>
       <path id="DejaVuSans-53" d="M 3425 4513 
L 3425 3897 
Q 3066 4069 2747 4153 
Q 2428 4238 2131 4238 
Q 1616 4238 1336 4038 
Q 1056 3838 1056 3469 
Q 1056 3159 1242 3001 
Q 1428 2844 1947 2747 
L 2328 2669 
Q 3034 2534 3370 2195 
Q 3706 1856 3706 1288 
Q 3706 609 3251 259 
Q 2797 -91 1919 -91 
Q 1588 -91 1214 -16 
Q 841 59 441 206 
L 441 856 
Q 825 641 1194 531 
Q 1563 422 1919 422 
Q 2459 422 2753 634 
Q 3047 847 3047 1241 
Q 3047 1584 2836 1778 
Q 2625 1972 2144 2069 
L 1759 2144 
Q 1053 2284 737 2584 
Q 422 2884 422 3419 
Q 422 4038 858 4394 
Q 1294 4750 2059 4750 
Q 2388 4750 2728 4690 
Q 3069 4631 3425 4513 
z
" transform="scale(0.015625)"/>
       <path id="DejaVuSans-57" d="M 213 4666 
L 850 4666 
L 1831 722 
L 2809 4666 
L 3519 4666 
L 4500 722 
L 5478 4666 
L 6119 4666 
L 4947 0 
L 4153 0 
L 3169 4050 
L 2175 0 
L 1381 0 
L 213 4666 
z
" transform="scale(0.015625)"/>
      </defs>
      <use xlink:href="#DejaVuSans-53"/>
      <use xlink:href="#DejaVuSans-57" x="63.476562"/>
      <use xlink:href="#DejaVuSans-41" x="156.853516"/>
      <use xlink:href="#DejaVuSans-20" x="225.261719"/>
      <use xlink:href="#DejaVuSans-56" x="257.048828"/>
      <use xlink:href="#DejaVuSans-61" x="317.707031"/>
      <use xlink:href="#DejaVuSans-6c" x="378.986328"/>
      <use xlink:href="#DejaVuSans-69" x="406.769531"/>
      <use xlink:href="#DejaVuSans-64" x="434.552734"/>
      <use xlink:href="#DejaVuSans-61" x="498.029297"/>
      <use xlink:href="#DejaVuSans-74" x="559.308594"/>
      <use xlink:href="#DejaVuSans-69" x="598.517578"/>
      <use xlink:href="#DejaVuSans-6f" x="626.300781"/>
      <use xlink:href="#DejaVuSans-6e" x="687.482422"/>
      <use xlink:href="#DejaVuSans-20" x="750.861328"/>
      <use xlink:href="#DejaVuSans-41" x="782.648438"/>
      <use xlink:href="#DejaVuSans-63" x="849.306641"/>
      <use xlink:href="#DejaVuSans-63" x="904.287109"/>
      <use xlink:href="#DejaVuSans-75" x="959.267578"/>
      <use xlink:href="#DejaVuSans-72" x="1022.646484"/>
      <use xlink:href="#DejaVuSans-61" x="1063.759766"/>
      <use xlink:href="#DejaVuSans-63" x="1125.039062"/>
      <use xlink:href="#DejaVuSans-79" x="1180.019531"/>
     </g>
    </g>
    <g id="line2d_28">
     <path d="M 216.18875 293.004312 
L 226.18875 293.004312 
L 236.18875 293.004312 
" style="fill: none; stroke: #9467bd; stroke-width: 1.5; stroke-linecap: square"/>
    </g>
    <g id="text_26">
     <!-- SWA Robust Validation Accuracy -->
     <g transform="translate(244.18875 296.504312) scale(0.1 -0.1)">
      <use xlink:href="#DejaVuSans-53"/>
      <use xlink:href="#DejaVuSans-57" x="63.476562"/>
      <use xlink:href="#DejaVuSans-41" x="156.853516"/>
      <use xlink:href="#DejaVuSans-20" x="225.261719"/>
      <use xlink:href="#DejaVuSans-52" x="257.048828"/>
      <use xlink:href="#DejaVuSans-6f" x="322.03125"/>
      <use xlink:href="#DejaVuSans-62" x="383.212891"/>
      <use xlink:href="#DejaVuSans-75" x="446.689453"/>
      <use xlink:href="#DejaVuSans-73" x="510.068359"/>
      <use xlink:href="#DejaVuSans-74" x="562.167969"/>
      <use xlink:href="#DejaVuSans-20" x="601.376953"/>
      <use xlink:href="#DejaVuSans-56" x="633.164062"/>
      <use xlink:href="#DejaVuSans-61" x="693.822266"/>
      <use xlink:href="#DejaVuSans-6c" x="755.101562"/>
      <use xlink:href="#DejaVuSans-69" x="782.884766"/>
      <use xlink:href="#DejaVuSans-64" x="810.667969"/>
      <use xlink:href="#DejaVuSans-61" x="874.144531"/>
      <use xlink:href="#DejaVuSans-74" x="935.423828"/>
      <use xlink:href="#DejaVuSans-69" x="974.632812"/>
      <use xlink:href="#DejaVuSans-6f" x="1002.416016"/>
      <use xlink:href="#DejaVuSans-6e" x="1063.597656"/>
      <use xlink:href="#DejaVuSans-20" x="1126.976562"/>
      <use xlink:href="#DejaVuSans-41" x="1158.763672"/>
      <use xlink:href="#DejaVuSans-63" x="1225.421875"/>
      <use xlink:href="#DejaVuSans-63" x="1280.402344"/>
      <use xlink:href="#DejaVuSans-75" x="1335.382812"/>
      <use xlink:href="#DejaVuSans-72" x="1398.761719"/>
      <use xlink:href="#DejaVuSans-61" x="1439.875"/>
      <use xlink:href="#DejaVuSans-63" x="1501.154297"/>
      <use xlink:href="#DejaVuSans-79" x="1556.134766"/>
     </g>
    </g>
   </g>
  </g>
 </g>
 <defs>
  <clipPath id="p46f336c9d7">
   <rect x="57.6" y="41.472" width="357.12" height="266.112"/>
  </clipPath>
 </defs>
</svg>
