<?xml version="1.0" encoding="utf-8" standalone="no"?>
<!DOCTYPE svg PUBLIC "-//W3C//DTD SVG 1.1//EN"
  "http://www.w3.org/Graphics/SVG/1.1/DTD/svg11.dtd">
<svg xmlns:xlink="http://www.w3.org/1999/xlink" width="460.8pt" height="345.6pt" viewBox="0 0 460.8 345.6" xmlns="http://www.w3.org/2000/svg" version="1.1">
 <metadata>
  <rdf:RDF xmlns:dc="http://purl.org/dc/elements/1.1/" xmlns:cc="http://creativecommons.org/ns#" xmlns:rdf="http://www.w3.org/1999/02/22-rdf-syntax-ns#">
   <cc:Work>
    <dc:type rdf:resource="http://purl.org/dc/dcmitype/StillImage"/>
    <dc:date>2025-04-24T17:01:42.784693</dc:date>
    <dc:format>image/svg+xml</dc:format>
    <dc:creator>
     <cc:Agent>
      <dc:title>Matplotlib v3.9.1, https://matplotlib.org/</dc:title>
     </cc:Agent>
    </dc:creator>
   </cc:Work>
  </rdf:RDF>
 </metadata>
 <defs>
  <style type="text/css">*{stroke-linejoin: round; stroke-linecap: butt}</style>
 </defs>
 <g id="figure_1">
  <g id="patch_1">
   <path d="M 0 345.6 
L 460.8 345.6 
L 460.8 0 
L 0 0 
z
" style="fill: #ffffff"/>
  </g>
  <g id="axes_1">
   <g id="patch_2">
    <path d="M 57.6 307.584 
L 414.72 307.584 
L 414.72 41.472 
L 57.6 41.472 
z
" style="fill: #ffffff"/>
   </g>
   <g id="matplotlib.axis_1">
    <g id="xtick_1">
     <g id="line2d_1">
      <defs>
       <path id="mf490fa449c" d="M 0 0 
L 0 3.5 
" style="stroke: #000000; stroke-width: 0.8"/>
      </defs>
      <g>
       <use xlink:href="#mf490fa449c" x="73.832727" y="307.584" style="stroke: #000000; stroke-width: 0.8"/>
      </g>
     </g>
     <g id="text_1">
      <!-- 1 -->
      <g transform="translate(70.651477 322.182437) scale(0.1 -0.1)">
       <defs>
        <path id="DejaVuSans-31" d="M 794 531 
L 1825 531 
L 1825 4091 
L 703 3866 
L 703 4441 
L 1819 4666 
L 2450 4666 
L 2450 531 
L 3481 531 
L 3481 0 
L 794 0 
L 794 531 
z
" transform="scale(0.015625)"/>
       </defs>
       <use xlink:href="#DejaVuSans-31"/>
      </g>
     </g>
    </g>
    <g id="xtick_2">
     <g id="line2d_2">
      <g>
       <use xlink:href="#mf490fa449c" x="109.664165" y="307.584" style="stroke: #000000; stroke-width: 0.8"/>
      </g>
     </g>
     <g id="text_2">
      <!-- 34 -->
      <g transform="translate(103.301665 322.182437) scale(0.1 -0.1)">
       <defs>
        <path id="DejaVuSans-33" d="M 2597 2516 
Q 3050 2419 3304 2112 
Q 3559 1806 3559 1356 
Q 3559 666 3084 287 
Q 2609 -91 1734 -91 
Q 1441 -91 1130 -33 
Q 819 25 488 141 
L 488 750 
Q 750 597 1062 519 
Q 1375 441 1716 441 
Q 2309 441 2620 675 
Q 2931 909 2931 1356 
Q 2931 1769 2642 2001 
Q 2353 2234 1838 2234 
L 1294 2234 
L 1294 2753 
L 1863 2753 
Q 2328 2753 2575 2939 
Q 2822 3125 2822 3475 
Q 2822 3834 2567 4026 
Q 2313 4219 1838 4219 
Q 1578 4219 1281 4162 
Q 984 4106 628 3988 
L 628 4550 
Q 988 4650 1302 4700 
Q 1616 4750 1894 4750 
Q 2613 4750 3031 4423 
Q 3450 4097 3450 3541 
Q 3450 3153 3228 2886 
Q 3006 2619 2597 2516 
z
" transform="scale(0.015625)"/>
        <path id="DejaVuSans-34" d="M 2419 4116 
L 825 1625 
L 2419 1625 
L 2419 4116 
z
M 2253 4666 
L 3047 4666 
L 3047 1625 
L 3713 1625 
L 3713 1100 
L 3047 1100 
L 3047 0 
L 2419 0 
L 2419 1100 
L 313 1100 
L 313 1709 
L 2253 4666 
z
" transform="scale(0.015625)"/>
       </defs>
       <use xlink:href="#DejaVuSans-33"/>
       <use xlink:href="#DejaVuSans-34" x="63.623047"/>
      </g>
     </g>
    </g>
    <g id="xtick_3">
     <g id="line2d_3">
      <g>
       <use xlink:href="#mf490fa449c" x="145.495604" y="307.584" style="stroke: #000000; stroke-width: 0.8"/>
      </g>
     </g>
     <g id="text_3">
      <!-- 67 -->
      <g transform="translate(139.133104 322.182437) scale(0.1 -0.1)">
       <defs>
        <path id="DejaVuSans-36" d="M 2113 2584 
Q 1688 2584 1439 2293 
Q 1191 2003 1191 1497 
Q 1191 994 1439 701 
Q 1688 409 2113 409 
Q 2538 409 2786 701 
Q 3034 994 3034 1497 
Q 3034 2003 2786 2293 
Q 2538 2584 2113 2584 
z
M 3366 4563 
L 3366 3988 
Q 3128 4100 2886 4159 
Q 2644 4219 2406 4219 
Q 1781 4219 1451 3797 
Q 1122 3375 1075 2522 
Q 1259 2794 1537 2939 
Q 1816 3084 2150 3084 
Q 2853 3084 3261 2657 
Q 3669 2231 3669 1497 
Q 3669 778 3244 343 
Q 2819 -91 2113 -91 
Q 1303 -91 875 529 
Q 447 1150 447 2328 
Q 447 3434 972 4092 
Q 1497 4750 2381 4750 
Q 2619 4750 2861 4703 
Q 3103 4656 3366 4563 
z
" transform="scale(0.015625)"/>
        <path id="DejaVuSans-37" d="M 525 4666 
L 3525 4666 
L 3525 4397 
L 1831 0 
L 1172 0 
L 2766 4134 
L 525 4134 
L 525 4666 
z
" transform="scale(0.015625)"/>
       </defs>
       <use xlink:href="#DejaVuSans-36"/>
       <use xlink:href="#DejaVuSans-37" x="63.623047"/>
      </g>
     </g>
    </g>
    <g id="xtick_4">
     <g id="line2d_4">
      <g>
       <use xlink:href="#mf490fa449c" x="181.327042" y="307.584" style="stroke: #000000; stroke-width: 0.8"/>
      </g>
     </g>
     <g id="text_4">
      <!-- 100 -->
      <g transform="translate(171.783292 322.182437) scale(0.1 -0.1)">
       <defs>
        <path id="DejaVuSans-30" d="M 2034 4250 
Q 1547 4250 1301 3770 
Q 1056 3291 1056 2328 
Q 1056 1369 1301 889 
Q 1547 409 2034 409 
Q 2525 409 2770 889 
Q 3016 1369 3016 2328 
Q 3016 3291 2770 3770 
Q 2525 4250 2034 4250 
z
M 2034 4750 
Q 2819 4750 3233 4129 
Q 3647 3509 3647 2328 
Q 3647 1150 3233 529 
Q 2819 -91 2034 -91 
Q 1250 -91 836 529 
Q 422 1150 422 2328 
Q 422 3509 836 4129 
Q 1250 4750 2034 4750 
z
" transform="scale(0.015625)"/>
       </defs>
       <use xlink:href="#DejaVuSans-31"/>
       <use xlink:href="#DejaVuSans-30" x="63.623047"/>
       <use xlink:href="#DejaVuSans-30" x="127.246094"/>
      </g>
     </g>
    </g>
    <g id="xtick_5">
     <g id="line2d_5">
      <g>
       <use xlink:href="#mf490fa449c" x="217.15848" y="307.584" style="stroke: #000000; stroke-width: 0.8"/>
      </g>
     </g>
     <g id="text_5">
      <!-- 133 -->
      <g transform="translate(207.61473 322.182437) scale(0.1 -0.1)">
       <use xlink:href="#DejaVuSans-31"/>
       <use xlink:href="#DejaVuSans-33" x="63.623047"/>
       <use xlink:href="#DejaVuSans-33" x="127.246094"/>
      </g>
     </g>
    </g>
    <g id="xtick_6">
     <g id="line2d_6">
      <g>
       <use xlink:href="#mf490fa449c" x="254.075719" y="307.584" style="stroke: #000000; stroke-width: 0.8"/>
      </g>
     </g>
     <g id="text_6">
      <!-- 167 -->
      <g transform="translate(244.531969 322.182437) scale(0.1 -0.1)">
       <use xlink:href="#DejaVuSans-31"/>
       <use xlink:href="#DejaVuSans-36" x="63.623047"/>
       <use xlink:href="#DejaVuSans-37" x="127.246094"/>
      </g>
     </g>
    </g>
    <g id="xtick_7">
     <g id="line2d_7">
      <g>
       <use xlink:href="#mf490fa449c" x="289.907157" y="307.584" style="stroke: #000000; stroke-width: 0.8"/>
      </g>
     </g>
     <g id="text_7">
      <!-- 200 -->
      <g transform="translate(280.363407 322.182437) scale(0.1 -0.1)">
       <defs>
        <path id="DejaVuSans-32" d="M 1228 531 
L 3431 531 
L 3431 0 
L 469 0 
L 469 531 
Q 828 903 1448 1529 
Q 2069 2156 2228 2338 
Q 2531 2678 2651 2914 
Q 2772 3150 2772 3378 
Q 2772 3750 2511 3984 
Q 2250 4219 1831 4219 
Q 1534 4219 1204 4116 
Q 875 4013 500 3803 
L 500 4441 
Q 881 4594 1212 4672 
Q 1544 4750 1819 4750 
Q 2544 4750 2975 4387 
Q 3406 4025 3406 3419 
Q 3406 3131 3298 2873 
Q 3191 2616 2906 2266 
Q 2828 2175 2409 1742 
Q 1991 1309 1228 531 
z
" transform="scale(0.015625)"/>
       </defs>
       <use xlink:href="#DejaVuSans-32"/>
       <use xlink:href="#DejaVuSans-30" x="63.623047"/>
       <use xlink:href="#DejaVuSans-30" x="127.246094"/>
      </g>
     </g>
    </g>
    <g id="xtick_8">
     <g id="line2d_8">
      <g>
       <use xlink:href="#mf490fa449c" x="325.738595" y="307.584" style="stroke: #000000; stroke-width: 0.8"/>
      </g>
     </g>
     <g id="text_8">
      <!-- 233 -->
      <g transform="translate(316.194845 322.182437) scale(0.1 -0.1)">
       <use xlink:href="#DejaVuSans-32"/>
       <use xlink:href="#DejaVuSans-33" x="63.623047"/>
       <use xlink:href="#DejaVuSans-33" x="127.246094"/>
      </g>
     </g>
    </g>
    <g id="xtick_9">
     <g id="line2d_9">
      <g>
       <use xlink:href="#mf490fa449c" x="361.570033" y="307.584" style="stroke: #000000; stroke-width: 0.8"/>
      </g>
     </g>
     <g id="text_9">
      <!-- 266 -->
      <g transform="translate(352.026283 322.182437) scale(0.1 -0.1)">
       <use xlink:href="#DejaVuSans-32"/>
       <use xlink:href="#DejaVuSans-36" x="63.623047"/>
       <use xlink:href="#DejaVuSans-36" x="127.246094"/>
      </g>
     </g>
    </g>
    <g id="xtick_10">
     <g id="line2d_10">
      <g>
       <use xlink:href="#mf490fa449c" x="398.487273" y="307.584" style="stroke: #000000; stroke-width: 0.8"/>
      </g>
     </g>
     <g id="text_10">
      <!-- 300 -->
      <g transform="translate(388.943523 322.182437) scale(0.1 -0.1)">
       <use xlink:href="#DejaVuSans-33"/>
       <use xlink:href="#DejaVuSans-30" x="63.623047"/>
       <use xlink:href="#DejaVuSans-30" x="127.246094"/>
      </g>
     </g>
    </g>
    <g id="text_11">
     <!-- Epochs -->
     <g transform="translate(218.244375 335.860562) scale(0.1 -0.1)">
      <defs>
       <path id="DejaVuSans-45" d="M 628 4666 
L 3578 4666 
L 3578 4134 
L 1259 4134 
L 1259 2753 
L 3481 2753 
L 3481 2222 
L 1259 2222 
L 1259 531 
L 3634 531 
L 3634 0 
L 628 0 
L 628 4666 
z
" transform="scale(0.015625)"/>
       <path id="DejaVuSans-70" d="M 1159 525 
L 1159 -1331 
L 581 -1331 
L 581 3500 
L 1159 3500 
L 1159 2969 
Q 1341 3281 1617 3432 
Q 1894 3584 2278 3584 
Q 2916 3584 3314 3078 
Q 3713 2572 3713 1747 
Q 3713 922 3314 415 
Q 2916 -91 2278 -91 
Q 1894 -91 1617 61 
Q 1341 213 1159 525 
z
M 3116 1747 
Q 3116 2381 2855 2742 
Q 2594 3103 2138 3103 
Q 1681 3103 1420 2742 
Q 1159 2381 1159 1747 
Q 1159 1113 1420 752 
Q 1681 391 2138 391 
Q 2594 391 2855 752 
Q 3116 1113 3116 1747 
z
" transform="scale(0.015625)"/>
       <path id="DejaVuSans-6f" d="M 1959 3097 
Q 1497 3097 1228 2736 
Q 959 2375 959 1747 
Q 959 1119 1226 758 
Q 1494 397 1959 397 
Q 2419 397 2687 759 
Q 2956 1122 2956 1747 
Q 2956 2369 2687 2733 
Q 2419 3097 1959 3097 
z
M 1959 3584 
Q 2709 3584 3137 3096 
Q 3566 2609 3566 1747 
Q 3566 888 3137 398 
Q 2709 -91 1959 -91 
Q 1206 -91 779 398 
Q 353 888 353 1747 
Q 353 2609 779 3096 
Q 1206 3584 1959 3584 
z
" transform="scale(0.015625)"/>
       <path id="DejaVuSans-63" d="M 3122 3366 
L 3122 2828 
Q 2878 2963 2633 3030 
Q 2388 3097 2138 3097 
Q 1578 3097 1268 2742 
Q 959 2388 959 1747 
Q 959 1106 1268 751 
Q 1578 397 2138 397 
Q 2388 397 2633 464 
Q 2878 531 3122 666 
L 3122 134 
Q 2881 22 2623 -34 
Q 2366 -91 2075 -91 
Q 1284 -91 818 406 
Q 353 903 353 1747 
Q 353 2603 823 3093 
Q 1294 3584 2113 3584 
Q 2378 3584 2631 3529 
Q 2884 3475 3122 3366 
z
" transform="scale(0.015625)"/>
       <path id="DejaVuSans-68" d="M 3513 2113 
L 3513 0 
L 2938 0 
L 2938 2094 
Q 2938 2591 2744 2837 
Q 2550 3084 2163 3084 
Q 1697 3084 1428 2787 
Q 1159 2491 1159 1978 
L 1159 0 
L 581 0 
L 581 4863 
L 1159 4863 
L 1159 2956 
Q 1366 3272 1645 3428 
Q 1925 3584 2291 3584 
Q 2894 3584 3203 3211 
Q 3513 2838 3513 2113 
z
" transform="scale(0.015625)"/>
       <path id="DejaVuSans-73" d="M 2834 3397 
L 2834 2853 
Q 2591 2978 2328 3040 
Q 2066 3103 1784 3103 
Q 1356 3103 1142 2972 
Q 928 2841 928 2578 
Q 928 2378 1081 2264 
Q 1234 2150 1697 2047 
L 1894 2003 
Q 2506 1872 2764 1633 
Q 3022 1394 3022 966 
Q 3022 478 2636 193 
Q 2250 -91 1575 -91 
Q 1294 -91 989 -36 
Q 684 19 347 128 
L 347 722 
Q 666 556 975 473 
Q 1284 391 1588 391 
Q 1994 391 2212 530 
Q 2431 669 2431 922 
Q 2431 1156 2273 1281 
Q 2116 1406 1581 1522 
L 1381 1569 
Q 847 1681 609 1914 
Q 372 2147 372 2553 
Q 372 3047 722 3315 
Q 1072 3584 1716 3584 
Q 2034 3584 2315 3537 
Q 2597 3491 2834 3397 
z
" transform="scale(0.015625)"/>
      </defs>
      <use xlink:href="#DejaVuSans-45"/>
      <use xlink:href="#DejaVuSans-70" x="63.183594"/>
      <use xlink:href="#DejaVuSans-6f" x="126.660156"/>
      <use xlink:href="#DejaVuSans-63" x="187.841797"/>
      <use xlink:href="#DejaVuSans-68" x="242.822266"/>
      <use xlink:href="#DejaVuSans-73" x="306.201172"/>
     </g>
    </g>
   </g>
   <g id="matplotlib.axis_2">
    <g id="ytick_1">
     <g id="line2d_11">
      <defs>
       <path id="mda3b19e96d" d="M 0 0 
L -3.5 0 
" style="stroke: #000000; stroke-width: 0.8"/>
      </defs>
      <g>
       <use xlink:href="#mda3b19e96d" x="57.6" y="291.019044" style="stroke: #000000; stroke-width: 0.8"/>
      </g>
     </g>
     <g id="text_12">
      <!-- 10 -->
      <g transform="translate(37.875 294.818263) scale(0.1 -0.1)">
       <use xlink:href="#DejaVuSans-31"/>
       <use xlink:href="#DejaVuSans-30" x="63.623047"/>
      </g>
     </g>
    </g>
    <g id="ytick_2">
     <g id="line2d_12">
      <g>
       <use xlink:href="#mda3b19e96d" x="57.6" y="260.823394" style="stroke: #000000; stroke-width: 0.8"/>
      </g>
     </g>
     <g id="text_13">
      <!-- 20 -->
      <g transform="translate(37.875 264.622612) scale(0.1 -0.1)">
       <use xlink:href="#DejaVuSans-32"/>
       <use xlink:href="#DejaVuSans-30" x="63.623047"/>
      </g>
     </g>
    </g>
    <g id="ytick_3">
     <g id="line2d_13">
      <g>
       <use xlink:href="#mda3b19e96d" x="57.6" y="230.627744" style="stroke: #000000; stroke-width: 0.8"/>
      </g>
     </g>
     <g id="text_14">
      <!-- 30 -->
      <g transform="translate(37.875 234.426962) scale(0.1 -0.1)">
       <use xlink:href="#DejaVuSans-33"/>
       <use xlink:href="#DejaVuSans-30" x="63.623047"/>
      </g>
     </g>
    </g>
    <g id="ytick_4">
     <g id="line2d_14">
      <g>
       <use xlink:href="#mda3b19e96d" x="57.6" y="200.432093" style="stroke: #000000; stroke-width: 0.8"/>
      </g>
     </g>
     <g id="text_15">
      <!-- 40 -->
      <g transform="translate(37.875 204.231312) scale(0.1 -0.1)">
       <use xlink:href="#DejaVuSans-34"/>
       <use xlink:href="#DejaVuSans-30" x="63.623047"/>
      </g>
     </g>
    </g>
    <g id="ytick_5">
     <g id="line2d_15">
      <g>
       <use xlink:href="#mda3b19e96d" x="57.6" y="170.236443" style="stroke: #000000; stroke-width: 0.8"/>
      </g>
     </g>
     <g id="text_16">
      <!-- 50 -->
      <g transform="translate(37.875 174.035662) scale(0.1 -0.1)">
       <defs>
        <path id="DejaVuSans-35" d="M 691 4666 
L 3169 4666 
L 3169 4134 
L 1269 4134 
L 1269 2991 
Q 1406 3038 1543 3061 
Q 1681 3084 1819 3084 
Q 2600 3084 3056 2656 
Q 3513 2228 3513 1497 
Q 3513 744 3044 326 
Q 2575 -91 1722 -91 
Q 1428 -91 1123 -41 
Q 819 9 494 109 
L 494 744 
Q 775 591 1075 516 
Q 1375 441 1709 441 
Q 2250 441 2565 725 
Q 2881 1009 2881 1497 
Q 2881 1984 2565 2268 
Q 2250 2553 1709 2553 
Q 1456 2553 1204 2497 
Q 953 2441 691 2322 
L 691 4666 
z
" transform="scale(0.015625)"/>
       </defs>
       <use xlink:href="#DejaVuSans-35"/>
       <use xlink:href="#DejaVuSans-30" x="63.623047"/>
      </g>
     </g>
    </g>
    <g id="ytick_6">
     <g id="line2d_16">
      <g>
       <use xlink:href="#mda3b19e96d" x="57.6" y="140.040793" style="stroke: #000000; stroke-width: 0.8"/>
      </g>
     </g>
     <g id="text_17">
      <!-- 60 -->
      <g transform="translate(37.875 143.840012) scale(0.1 -0.1)">
       <use xlink:href="#DejaVuSans-36"/>
       <use xlink:href="#DejaVuSans-30" x="63.623047"/>
      </g>
     </g>
    </g>
    <g id="ytick_7">
     <g id="line2d_17">
      <g>
       <use xlink:href="#mda3b19e96d" x="57.6" y="109.845143" style="stroke: #000000; stroke-width: 0.8"/>
      </g>
     </g>
     <g id="text_18">
      <!-- 70 -->
      <g transform="translate(37.875 113.644362) scale(0.1 -0.1)">
       <use xlink:href="#DejaVuSans-37"/>
       <use xlink:href="#DejaVuSans-30" x="63.623047"/>
      </g>
     </g>
    </g>
    <g id="ytick_8">
     <g id="line2d_18">
      <g>
       <use xlink:href="#mda3b19e96d" x="57.6" y="79.649493" style="stroke: #000000; stroke-width: 0.8"/>
      </g>
     </g>
     <g id="text_19">
      <!-- 80 -->
      <g transform="translate(37.875 83.448712) scale(0.1 -0.1)">
       <defs>
        <path id="DejaVuSans-38" d="M 2034 2216 
Q 1584 2216 1326 1975 
Q 1069 1734 1069 1313 
Q 1069 891 1326 650 
Q 1584 409 2034 409 
Q 2484 409 2743 651 
Q 3003 894 3003 1313 
Q 3003 1734 2745 1975 
Q 2488 2216 2034 2216 
z
M 1403 2484 
Q 997 2584 770 2862 
Q 544 3141 544 3541 
Q 544 4100 942 4425 
Q 1341 4750 2034 4750 
Q 2731 4750 3128 4425 
Q 3525 4100 3525 3541 
Q 3525 3141 3298 2862 
Q 3072 2584 2669 2484 
Q 3125 2378 3379 2068 
Q 3634 1759 3634 1313 
Q 3634 634 3220 271 
Q 2806 -91 2034 -91 
Q 1263 -91 848 271 
Q 434 634 434 1313 
Q 434 1759 690 2068 
Q 947 2378 1403 2484 
z
M 1172 3481 
Q 1172 3119 1398 2916 
Q 1625 2713 2034 2713 
Q 2441 2713 2670 2916 
Q 2900 3119 2900 3481 
Q 2900 3844 2670 4047 
Q 2441 4250 2034 4250 
Q 1625 4250 1398 4047 
Q 1172 3844 1172 3481 
z
" transform="scale(0.015625)"/>
       </defs>
       <use xlink:href="#DejaVuSans-38"/>
       <use xlink:href="#DejaVuSans-30" x="63.623047"/>
      </g>
     </g>
    </g>
    <g id="ytick_9">
     <g id="line2d_19">
      <g>
       <use xlink:href="#mda3b19e96d" x="57.6" y="49.453843" style="stroke: #000000; stroke-width: 0.8"/>
      </g>
     </g>
     <g id="text_20">
      <!-- 90 -->
      <g transform="translate(37.875 53.253061) scale(0.1 -0.1)">
       <defs>
        <path id="DejaVuSans-39" d="M 703 97 
L 703 672 
Q 941 559 1184 500 
Q 1428 441 1663 441 
Q 2288 441 2617 861 
Q 2947 1281 2994 2138 
Q 2813 1869 2534 1725 
Q 2256 1581 1919 1581 
Q 1219 1581 811 2004 
Q 403 2428 403 3163 
Q 403 3881 828 4315 
Q 1253 4750 1959 4750 
Q 2769 4750 3195 4129 
Q 3622 3509 3622 2328 
Q 3622 1225 3098 567 
Q 2575 -91 1691 -91 
Q 1453 -91 1209 -44 
Q 966 3 703 97 
z
M 1959 2075 
Q 2384 2075 2632 2365 
Q 2881 2656 2881 3163 
Q 2881 3666 2632 3958 
Q 2384 4250 1959 4250 
Q 1534 4250 1286 3958 
Q 1038 3666 1038 3163 
Q 1038 2656 1286 2365 
Q 1534 2075 1959 2075 
z
" transform="scale(0.015625)"/>
       </defs>
       <use xlink:href="#DejaVuSans-39"/>
       <use xlink:href="#DejaVuSans-30" x="63.623047"/>
      </g>
     </g>
    </g>
    <g id="text_21">
     <!-- Accuracy -->
     <g transform="translate(31.795312 197.356125) rotate(-90) scale(0.1 -0.1)">
      <defs>
       <path id="DejaVuSans-41" d="M 2188 4044 
L 1331 1722 
L 3047 1722 
L 2188 4044 
z
M 1831 4666 
L 2547 4666 
L 4325 0 
L 3669 0 
L 3244 1197 
L 1141 1197 
L 716 0 
L 50 0 
L 1831 4666 
z
" transform="scale(0.015625)"/>
       <path id="DejaVuSans-75" d="M 544 1381 
L 544 3500 
L 1119 3500 
L 1119 1403 
Q 1119 906 1312 657 
Q 1506 409 1894 409 
Q 2359 409 2629 706 
Q 2900 1003 2900 1516 
L 2900 3500 
L 3475 3500 
L 3475 0 
L 2900 0 
L 2900 538 
Q 2691 219 2414 64 
Q 2138 -91 1772 -91 
Q 1169 -91 856 284 
Q 544 659 544 1381 
z
M 1991 3584 
L 1991 3584 
z
" transform="scale(0.015625)"/>
       <path id="DejaVuSans-72" d="M 2631 2963 
Q 2534 3019 2420 3045 
Q 2306 3072 2169 3072 
Q 1681 3072 1420 2755 
Q 1159 2438 1159 1844 
L 1159 0 
L 581 0 
L 581 3500 
L 1159 3500 
L 1159 2956 
Q 1341 3275 1631 3429 
Q 1922 3584 2338 3584 
Q 2397 3584 2469 3576 
Q 2541 3569 2628 3553 
L 2631 2963 
z
" transform="scale(0.015625)"/>
       <path id="DejaVuSans-61" d="M 2194 1759 
Q 1497 1759 1228 1600 
Q 959 1441 959 1056 
Q 959 750 1161 570 
Q 1363 391 1709 391 
Q 2188 391 2477 730 
Q 2766 1069 2766 1631 
L 2766 1759 
L 2194 1759 
z
M 3341 1997 
L 3341 0 
L 2766 0 
L 2766 531 
Q 2569 213 2275 61 
Q 1981 -91 1556 -91 
Q 1019 -91 701 211 
Q 384 513 384 1019 
Q 384 1609 779 1909 
Q 1175 2209 1959 2209 
L 2766 2209 
L 2766 2266 
Q 2766 2663 2505 2880 
Q 2244 3097 1772 3097 
Q 1472 3097 1187 3025 
Q 903 2953 641 2809 
L 641 3341 
Q 956 3463 1253 3523 
Q 1550 3584 1831 3584 
Q 2591 3584 2966 3190 
Q 3341 2797 3341 1997 
z
" transform="scale(0.015625)"/>
       <path id="DejaVuSans-79" d="M 2059 -325 
Q 1816 -950 1584 -1140 
Q 1353 -1331 966 -1331 
L 506 -1331 
L 506 -850 
L 844 -850 
Q 1081 -850 1212 -737 
Q 1344 -625 1503 -206 
L 1606 56 
L 191 3500 
L 800 3500 
L 1894 763 
L 2988 3500 
L 3597 3500 
L 2059 -325 
z
" transform="scale(0.015625)"/>
      </defs>
      <use xlink:href="#DejaVuSans-41"/>
      <use xlink:href="#DejaVuSans-63" x="66.658203"/>
      <use xlink:href="#DejaVuSans-63" x="121.638672"/>
      <use xlink:href="#DejaVuSans-75" x="176.619141"/>
      <use xlink:href="#DejaVuSans-72" x="239.998047"/>
      <use xlink:href="#DejaVuSans-61" x="281.111328"/>
      <use xlink:href="#DejaVuSans-63" x="342.390625"/>
      <use xlink:href="#DejaVuSans-79" x="397.371094"/>
     </g>
    </g>
   </g>
   <g id="line2d_20">
    <path d="M 73.832727 295.488 
L 76.00433 242.102091 
L 77.090131 220.436712 
L 78.175932 201.662566 
L 79.261733 187.244143 
L 80.347534 176.71341 
L 81.433335 167.473541 
L 82.519137 161.170199 
L 83.604938 153.613738 
L 85.77654 141.543027 
L 87.948142 133.065598 
L 89.033943 127.834202 
L 90.119745 125.297767 
L 91.205546 121.493115 
L 92.291347 120.572148 
L 93.377148 118.654724 
L 94.462949 117.08455 
L 95.54875 144.653179 
L 96.634552 143.717113 
L 97.720353 141.120288 
L 98.806154 137.330733 
L 99.891955 135.058511 
L 100.977756 131.291603 
L 102.063557 129.902604 
L 103.149358 126.158343 
L 104.23516 125.645017 
L 105.320961 122.338593 
L 106.406762 120.564599 
L 107.492563 117.356311 
L 108.578364 114.985952 
L 109.664165 114.019692 
L 110.749967 113.521463 
L 111.835768 110.192393 
L 112.921569 109.384659 
L 116.178972 102.952986 
L 117.264773 102.968084 
L 118.350575 100.07685 
L 119.436376 98.423638 
L 120.522177 97.434731 
L 121.607978 95.041725 
L 122.693779 94.173601 
L 123.77958 92.112747 
L 124.865382 91.584324 
L 125.951183 90.821883 
L 127.036984 88.376036 
L 128.122785 87.621144 
L 129.208586 86.700177 
L 130.294387 85.371569 
L 131.380189 84.971476 
L 132.46599 83.574927 
L 133.551791 83.099346 
L 134.637592 82.246319 
L 135.723393 82.774743 
L 136.809194 81.083786 
L 137.894995 81.151726 
L 138.980797 106.757638 
L 140.066598 111.151105 
L 141.152399 110.35092 
L 142.2382 108.425947 
L 143.324001 108.139089 
L 145.495604 106.901067 
L 146.581405 107.210572 
L 147.667206 104.372181 
L 148.753007 104.130616 
L 149.838808 103.473861 
L 150.924609 100.801546 
L 152.01041 101.435654 
L 153.096212 101.095953 
L 154.182013 100.046654 
L 155.267814 100.325964 
L 156.353615 98.89922 
L 157.439416 97.661198 
L 158.525217 97.774432 
L 159.611019 96.385432 
L 160.69682 96.000437 
L 161.782621 96.083475 
L 162.868422 95.01153 
L 163.954223 92.912932 
L 165.040024 93.071459 
L 166.125825 91.440894 
L 167.211627 92.452448 
L 168.297428 92.4449 
L 170.46903 89.417786 
L 171.554831 88.730835 
L 172.640632 88.783677 
L 173.726434 87.439971 
L 174.812235 87.009683 
L 175.898036 87.054976 
L 178.069638 83.718357 
L 179.155439 82.767194 
L 180.24124 82.842683 
L 182.412843 81.408389 
L 183.498644 80.064683 
L 184.584445 79.634395 
L 185.670246 78.97764 
L 186.756047 78.132161 
L 187.841849 77.09796 
L 188.92765 78.547352 
L 190.013451 76.471401 
L 192.185053 74.765346 
L 193.270854 73.3537 
L 194.356656 73.315955 
L 195.442457 72.236461 
L 196.528258 72.417635 
L 197.614059 71.61745 
L 198.69986 69.896298 
L 199.785661 70.001983 
L 200.871462 68.990428 
L 201.957264 69.722673 
L 203.043065 68.069461 
L 204.128866 67.676918 
L 205.214667 66.718206 
L 206.300468 67.020162 
L 207.386269 66.023706 
L 208.472071 64.81588 
L 209.557872 65.684005 
L 210.643673 64.808331 
L 211.729474 65.261266 
L 212.815275 63.336293 
L 213.901076 63.577858 
L 214.986877 63.532565 
L 216.072679 64.211967 
L 217.15848 62.483266 
L 218.244281 63.449527 
L 219.330082 62.060527 
L 220.415883 61.856706 
L 222.587486 62.724831 
L 223.673287 62.332287 
L 224.759088 63.132472 
L 225.844889 89.010144 
L 226.93069 92.188237 
L 228.016491 91.659813 
L 229.102292 93.177144 
L 231.273895 91.463541 
L 232.359696 93.501747 
L 233.445497 92.467546 
L 234.531298 91.795693 
L 235.617099 91.705106 
L 236.702901 90.436889 
L 237.788702 90.716199 
L 238.874503 89.772585 
L 241.046105 90.165128 
L 242.131906 88.157117 
L 243.217708 89.078085 
L 244.303509 88.232606 
L 247.560912 87.115367 
L 248.646713 87.356933 
L 249.732514 87.349384 
L 250.818316 86.284987 
L 251.904117 86.934193 
L 252.989918 86.088715 
L 254.075719 85.665976 
L 255.16152 85.492351 
L 256.247321 85.182846 
L 257.333123 85.175297 
L 258.418924 84.880889 
L 259.504725 84.443052 
L 261.676327 84.005215 
L 262.762128 83.423949 
L 263.847929 82.450139 
L 264.933731 83.099346 
L 266.019532 81.778286 
L 267.105333 82.472786 
L 268.191134 81.657504 
L 269.276935 82.329357 
L 271.448538 81.038493 
L 272.534339 80.970553 
L 273.62014 80.653498 
L 274.705941 80.185466 
L 275.791742 80.034487 
L 276.877543 78.796466 
L 277.963344 78.879504 
L 279.049146 79.815569 
L 281.220748 78.313335 
L 282.306549 78.713428 
L 283.39235 77.671678 
L 284.478151 78.034026 
L 285.563953 77.392368 
L 287.735555 76.47895 
L 288.821356 76.40346 
L 289.907157 75.354162 
L 290.992958 75.407004 
L 292.07876 75.278672 
L 293.164561 74.470939 
L 294.250362 74.229374 
L 295.336163 75.474944 
L 296.421964 73.934966 
L 298.593566 73.648107 
L 299.679368 73.617912 
L 300.765169 72.6592 
L 302.936771 73.013999 
L 304.022572 71.504216 
L 305.108373 71.20226 
L 306.194175 70.620993 
L 307.279976 71.05883 
L 308.365777 70.43982 
L 309.451578 70.598347 
L 310.537379 69.53395 
L 311.62318 69.858553 
L 312.708981 70.01708 
L 313.794783 68.741314 
L 315.966385 67.941129 
L 317.052186 68.122303 
L 318.137987 66.997515 
L 319.223788 66.567227 
L 320.30959 67.148494 
L 321.395391 65.902923 
L 322.481192 67.374961 
L 323.566993 66.099195 
L 324.652794 65.23107 
L 325.738595 65.374499 
L 326.824396 65.253717 
L 327.910198 65.382048 
L 330.0818 63.42688 
L 331.167601 63.887363 
L 333.339203 62.943749 
L 334.425005 62.158662 
L 335.510806 61.901999 
L 336.596607 62.490815 
L 337.682408 62.113369 
L 338.768209 61.562298 
L 339.85401 61.456614 
L 340.939811 60.30163 
L 342.025613 59.720364 
L 343.111414 59.909087 
L 344.197215 58.391755 
L 345.283016 59.244782 
L 346.368817 59.124 
L 347.454618 57.810489 
L 348.54042 58.905081 
L 349.626221 58.08225 
L 350.712022 58.225679 
L 352.883624 56.640407 
L 353.969425 56.610212 
L 355.055227 56.308255 
L 356.141028 55.681696 
L 357.226829 56.149728 
L 358.31263 54.813571 
L 359.398431 55.976103 
L 360.484232 55.153272 
L 361.570033 54.655043 
L 362.655835 54.949451 
L 363.741636 54.081326 
L 364.827437 54.066228 
L 365.913238 53.568 
L 366.999039 54.451223 
L 368.08484 53.718978 
L 369.170642 53.960543 
L 370.256443 55.09288 
L 371.342244 56.41394 
L 372.428045 56.89707 
L 373.513846 56.89707 
L 374.599647 56.685701 
L 375.685448 56.708348 
L 376.77125 57.59157 
L 377.857051 56.708348 
L 378.942852 57.448141 
L 380.028653 56.904619 
L 381.114454 56.746092 
L 382.200255 57.410396 
L 383.286057 57.357554 
L 384.371858 57.80294 
L 386.54346 56.496978 
L 387.629261 56.247864 
L 388.715062 56.851777 
L 389.800863 57.236771 
L 390.886665 57.115989 
L 391.972466 57.704804 
L 393.058267 56.919717 
L 394.144068 57.146185 
L 395.229869 56.881973 
L 396.31567 56.48188 
L 397.401472 56.353549 
L 398.487273 57.380201 
L 398.487273 57.380201 
" clip-path="url(#peec60e2d84)" style="fill: none; stroke: #1f77b4; stroke-width: 1.5; stroke-linecap: square"/>
   </g>
   <g id="line2d_21">
    <path d="M 73.832727 284.466588 
L 74.918528 259.343807 
L 76.00433 237.059417 
L 77.090131 223.833722 
L 78.175932 204.931245 
L 79.261733 198.710941 
L 80.347534 196.204702 
L 81.433335 174.101486 
L 82.519137 175.641465 
L 83.604938 165.223965 
L 84.690739 159.607574 
L 85.77654 154.897053 
L 86.862341 141.490184 
L 87.948142 140.82588 
L 89.033943 137.806315 
L 90.119745 133.39775 
L 91.205546 130.197011 
L 92.291347 128.05312 
L 93.377148 126.513142 
L 94.462949 126.090403 
L 95.54875 167.54903 
L 96.634552 165.707096 
L 97.720353 152.994727 
L 98.806154 151.424553 
L 99.891955 144.08701 
L 100.977756 145.294836 
L 102.063557 137.625141 
L 103.149358 134.937728 
L 104.23516 133.337359 
L 105.320961 128.355076 
L 106.406762 132.00875 
L 107.492563 133.337359 
L 109.664165 123.644555 
L 110.749967 124.79199 
L 111.835768 121.983794 
L 114.00737 114.616056 
L 115.093171 114.072534 
L 116.178972 113.287447 
L 117.264773 109.331817 
L 118.350575 107.85223 
L 119.436376 108.667513 
L 120.522177 104.772274 
L 121.607978 104.168361 
L 122.693779 102.658578 
L 123.77958 102.235839 
L 124.865382 102.29623 
L 125.951183 100.363709 
L 127.036984 97.313948 
L 128.122785 96.287296 
L 129.208586 96.015535 
L 130.294387 97.042187 
L 131.380189 96.528861 
L 132.46599 93.720666 
L 133.551791 94.837905 
L 134.637592 93.811253 
L 135.723393 93.962231 
L 136.809194 93.781057 
L 137.894995 93.479101 
L 138.980797 121.077925 
L 140.066598 120.262642 
L 141.152399 122.617903 
L 142.2382 114.223512 
L 143.324001 117.756403 
L 144.409802 116.820338 
L 145.495604 117.484642 
L 146.581405 118.903838 
L 147.667206 115.552121 
L 148.753007 115.099186 
L 149.838808 114.344295 
L 150.924609 110.298078 
L 152.01041 111.717273 
L 153.096212 111.475708 
L 154.182013 111.083165 
L 155.267814 110.116904 
L 156.353615 107.942817 
L 157.439416 111.173752 
L 158.525217 108.214578 
L 159.611019 108.184382 
L 160.69682 104.742078 
L 161.782621 108.003208 
L 162.868422 105.2856 
L 163.954223 101.933883 
L 166.125825 106.855774 
L 167.211627 101.843296 
L 168.297428 102.930339 
L 169.383229 100.575078 
L 170.46903 103.353078 
L 171.554831 99.699404 
L 172.640632 96.800622 
L 173.726434 98.491578 
L 174.812235 97.706492 
L 175.898036 98.129231 
L 176.983837 96.679839 
L 178.069638 96.408079 
L 179.155439 93.328122 
L 180.24124 94.264187 
L 181.327042 93.056361 
L 182.412843 92.875188 
L 183.498644 92.422253 
L 184.584445 91.788144 
L 185.670246 90.852079 
L 186.756047 90.308557 
L 187.841849 90.519927 
L 188.92765 90.852079 
L 190.013451 90.278362 
L 191.099252 89.221514 
L 192.185053 86.685079 
L 193.270854 87.560753 
L 194.356656 87.319188 
L 195.442457 87.530557 
L 196.528258 86.292536 
L 197.614059 83.454145 
L 198.69986 84.480797 
L 199.785661 85.930188 
L 200.871462 83.635319 
L 201.957264 83.665514 
L 203.043065 82.850232 
L 204.128866 83.061601 
L 205.214667 82.397297 
L 206.300468 82.065145 
L 208.472071 80.313797 
L 209.557872 80.645949 
L 210.643673 80.343993 
L 211.729474 78.985189 
L 213.901076 79.468319 
L 214.986877 78.713428 
L 216.072679 78.592645 
L 217.15848 79.075775 
L 218.244281 78.622841 
L 219.330082 78.592645 
L 220.415883 78.35108 
L 221.501684 78.683232 
L 222.587486 78.079319 
L 223.673287 78.562449 
L 224.759088 77.747167 
L 225.844889 107.912621 
L 226.93069 107.671056 
L 228.016491 105.225208 
L 229.102292 103.806013 
L 230.188094 107.761643 
L 231.273895 104.107969 
L 232.359696 104.168361 
L 233.445497 107.701252 
L 234.531298 106.584013 
L 235.617099 107.278513 
L 236.702901 101.8131 
L 237.788702 101.933883 
L 238.874503 104.409926 
L 239.960304 102.537796 
L 241.046105 97.766883 
L 242.131906 106.553817 
L 243.217708 102.115057 
L 244.303509 102.628383 
L 245.38931 101.631926 
L 246.475111 99.94097 
L 247.560912 98.763339 
L 248.646713 100.212731 
L 249.732514 102.658578 
L 250.818316 98.159426 
L 251.904117 98.974709 
L 252.989918 102.628383 
L 254.075719 96.045731 
L 255.16152 98.914318 
L 256.247321 97.253557 
L 257.333123 95.381427 
L 258.418924 99.94097 
L 259.504725 98.038644 
L 260.590526 98.763339 
L 261.676327 98.491578 
L 262.762128 97.917861 
L 263.847929 96.679839 
L 264.933731 96.075926 
L 266.019532 99.910774 
L 267.105333 95.864557 
L 268.191134 99.337057 
L 269.276935 93.448905 
L 270.362736 94.535948 
L 271.448538 94.38497 
L 272.534339 94.445361 
L 273.62014 96.2571 
L 274.705941 96.166513 
L 275.791742 96.287296 
L 276.877543 95.834361 
L 277.963344 94.173601 
L 279.049146 93.569688 
L 280.134947 94.958687 
L 281.220748 89.614057 
L 282.306549 92.663818 
L 283.39235 92.905383 
L 284.478151 93.479101 
L 285.563953 93.267731 
L 286.649754 89.312101 
L 287.735555 96.528861 
L 288.821356 91.697557 
L 289.907157 95.472013 
L 290.992958 87.349384 
L 292.07876 89.674449 
L 293.164561 89.130927 
L 294.250362 93.177144 
L 295.336163 89.553666 
L 296.421964 88.82897 
L 298.593566 91.60697 
L 299.679368 88.889362 
L 300.765169 90.066992 
L 301.85097 87.379579 
L 302.936771 87.741927 
L 304.022572 86.775666 
L 305.108373 87.621144 
L 306.194175 86.987036 
L 307.279976 85.175297 
L 308.365777 86.654884 
L 309.451578 86.715275 
L 310.537379 88.859166 
L 311.62318 88.527014 
L 312.708981 85.537645 
L 313.794783 84.420406 
L 314.880584 83.816493 
L 315.966385 85.839601 
L 317.052186 84.299623 
L 318.137987 83.121993 
L 319.223788 85.356471 
L 320.30959 81.883971 
L 321.395391 83.907079 
L 322.481192 82.971014 
L 323.566993 84.027862 
L 324.652794 81.068688 
L 325.738595 84.088253 
L 326.824396 79.981645 
L 327.910198 82.216123 
L 328.995999 80.404384 
L 330.0818 80.011841 
L 331.167601 79.04558 
L 332.253402 81.340449 
L 333.339203 79.105971 
L 334.425005 79.407928 
L 335.510806 79.136167 
L 336.596607 81.551819 
L 337.682408 81.400841 
L 338.768209 78.954993 
L 339.85401 79.196558 
L 340.939811 77.928341 
L 342.025613 80.313797 
L 343.111414 79.891058 
L 344.197215 79.105971 
L 345.283016 80.464775 
L 346.368817 77.475406 
L 347.454618 76.871493 
L 348.54042 78.13971 
L 349.626221 76.690319 
L 350.712022 76.05621 
L 351.797823 75.935428 
L 352.883624 76.539341 
L 353.969425 76.146797 
L 355.055227 74.969167 
L 356.141028 75.754254 
L 357.226829 75.08995 
L 359.398431 74.848384 
L 360.484232 74.848384 
L 361.570033 74.244471 
L 362.655835 73.912319 
L 363.741636 73.459385 
L 364.827437 72.885667 
L 365.913238 73.851928 
L 366.999039 73.670754 
L 368.08484 72.976254 
L 369.170642 74.18408 
L 370.256443 75.693863 
L 371.342244 75.693863 
L 372.428045 77.324428 
L 373.513846 77.384819 
L 374.599647 75.180537 
L 376.77125 78.320884 
L 377.857051 77.505602 
L 378.942852 75.693863 
L 380.028653 76.931884 
L 381.114454 75.150341 
L 382.200255 75.029558 
L 383.286057 76.599732 
L 384.371858 74.908776 
L 385.457659 76.931884 
L 386.54346 75.57308 
L 387.629261 77.807558 
L 388.715062 76.780906 
L 389.800863 78.441667 
L 390.886665 77.716971 
L 391.972466 77.928341 
L 393.058267 78.773819 
L 394.144068 77.113058 
L 395.229869 75.663667 
L 396.31567 75.995819 
L 397.401472 77.535797 
L 398.487273 77.384819 
L 398.487273 77.384819 
" clip-path="url(#peec60e2d84)" style="fill: none; stroke: #ff7f0e; stroke-width: 1.5; stroke-linecap: square"/>
   </g>
   <g id="line2d_22">
    <path d="M 73.832727 291.123167 
L 74.918528 272.06867 
L 76.00433 256.346108 
L 77.090131 252.910051 
L 78.175932 241.040037 
L 79.261733 238.957578 
L 80.347534 232.501956 
L 81.433335 221.360803 
L 83.604938 217.404131 
L 84.690739 208.033067 
L 85.77654 205.013502 
L 86.862341 197.10016 
L 87.948142 196.683668 
L 89.033943 192.414628 
L 90.119745 189.603308 
L 91.205546 185.75076 
L 92.291347 186.271375 
L 93.377148 183.876547 
L 94.462949 183.355933 
L 95.54875 214.488689 
L 96.634552 216.258779 
L 97.720353 205.429994 
L 98.806154 204.909379 
L 99.891955 202.09806 
L 100.977756 204.701134 
L 102.063557 196.475422 
L 103.149358 189.915677 
L 104.23516 192.206382 
L 105.320961 188.562079 
L 106.406762 192.206382 
L 107.492563 191.373398 
L 108.578364 190.228046 
L 109.664165 184.084793 
L 110.749967 183.98067 
L 111.835768 185.959006 
L 112.921569 179.815753 
L 114.00737 179.399261 
L 115.093171 176.17145 
L 116.178972 171.798287 
L 117.264773 170.444689 
L 118.350575 172.943639 
L 119.436376 167.112755 
L 120.522177 166.279772 
L 121.607978 164.717928 
L 122.693779 162.010732 
L 123.77958 164.405559 
L 124.865382 163.260207 
L 125.951183 159.407658 
L 127.036984 160.657134 
L 128.122785 160.032396 
L 129.208586 160.657134 
L 130.294387 159.615904 
L 131.380189 156.908708 
L 132.46599 155.971602 
L 133.551791 156.908708 
L 134.637592 155.763356 
L 135.723393 156.700462 
L 136.809194 154.826249 
L 137.894995 155.867479 
L 138.980797 187.416727 
L 140.066598 180.752859 
L 141.152399 184.917777 
L 142.2382 176.587942 
L 143.324001 173.151885 
L 144.409802 178.670401 
L 145.495604 180.544613 
L 146.581405 176.900311 
L 147.667206 175.650836 
L 148.753007 175.650836 
L 149.838808 176.379696 
L 150.924609 174.088992 
L 152.01041 173.568377 
L 153.096212 180.232245 
L 154.182013 172.318902 
L 155.267814 173.880746 
L 156.353615 170.13232 
L 157.439416 171.277673 
L 158.525217 166.800386 
L 159.611019 168.674599 
L 160.69682 162.427223 
L 161.782621 168.674599 
L 162.868422 164.717928 
L 163.954223 166.488018 
L 165.040024 170.757058 
L 166.125825 172.214779 
L 167.211627 167.321001 
L 168.297428 168.570476 
L 169.383229 161.281871 
L 170.46903 163.780821 
L 171.554831 163.572576 
L 172.640632 161.698363 
L 173.726434 162.739592 
L 174.812235 165.655034 
L 175.898036 158.470552 
L 176.983837 161.073625 
L 178.069638 160.136519 
L 179.155439 155.450987 
L 180.24124 156.804585 
L 181.327042 156.804585 
L 182.412843 153.576774 
L 183.498644 153.680897 
L 184.584445 156.075725 
L 185.670246 152.535545 
L 186.756047 152.743791 
L 187.841849 155.034495 
L 188.92765 153.576774 
L 190.013451 153.160282 
L 191.099252 154.305635 
L 192.185053 147.954136 
L 193.270854 150.453086 
L 194.356656 150.869578 
L 195.442457 149.932472 
L 196.528258 148.162382 
L 197.614059 149.411857 
L 198.69986 151.390193 
L 199.785661 149.099488 
L 200.871462 143.685096 
L 201.957264 148.370628 
L 203.043065 142.956235 
L 204.128866 146.288169 
L 205.214667 145.038694 
L 206.300468 144.622202 
L 207.386269 145.351063 
L 208.472071 143.789219 
L 209.557872 140.249039 
L 210.643673 141.498514 
L 211.729474 140.873777 
L 212.815275 142.747989 
L 213.901076 141.810883 
L 214.986877 140.561408 
L 216.072679 143.268604 
L 217.15848 142.643866 
L 218.244281 140.873777 
L 219.330082 143.580973 
L 220.415883 143.164481 
L 221.501684 138.791318 
L 223.673287 140.769654 
L 224.759088 139.520178 
L 225.844889 175.130221 
L 226.93069 173.880746 
L 228.016491 169.40346 
L 229.102292 168.258108 
L 230.188094 177.21268 
L 231.273895 170.340566 
L 232.359696 168.258108 
L 233.445497 175.546713 
L 234.531298 167.216878 
L 235.617099 174.193115 
L 236.702901 162.218977 
L 237.788702 163.36433 
L 238.874503 170.028197 
L 239.960304 167.529247 
L 241.046105 160.448888 
L 242.131906 168.570476 
L 243.217708 167.216878 
L 244.303509 172.318902 
L 245.38931 165.86328 
L 246.475111 163.676699 
L 247.560912 165.342665 
L 248.646713 167.63337 
L 249.732514 164.405559 
L 251.904117 165.759157 
L 252.989918 163.989067 
L 254.075719 161.073625 
L 255.16152 165.238543 
L 256.247321 164.09319 
L 257.333123 162.635469 
L 258.418924 160.761256 
L 259.504725 160.136519 
L 260.590526 165.759157 
L 261.676327 162.114855 
L 262.762128 162.427223 
L 263.847929 157.3252 
L 264.933731 158.158183 
L 266.019532 163.468453 
L 267.105333 155.034495 
L 268.191134 169.715829 
L 269.276935 152.223176 
L 270.362736 158.158183 
L 271.448538 155.763356 
L 272.534339 158.366429 
L 273.62014 162.3231 
L 274.705941 158.262306 
L 275.791742 157.012831 
L 276.877543 155.138618 
L 277.963344 156.804585 
L 279.049146 153.264405 
L 280.134947 154.826249 
L 281.220748 149.932472 
L 282.306549 155.242741 
L 283.39235 157.3252 
L 284.478151 157.429323 
L 285.563953 154.618003 
L 286.649754 151.181947 
L 287.735555 158.470552 
L 288.821356 156.804585 
L 289.907157 155.659233 
L 290.992958 148.787119 
L 292.07876 148.682996 
L 293.164561 146.912907 
L 294.250362 153.264405 
L 295.336163 150.973701 
L 296.421964 147.74589 
L 297.507765 151.494316 
L 298.593566 150.869578 
L 299.679368 152.223176 
L 300.765169 146.704661 
L 301.85097 148.266505 
L 302.936771 156.908708 
L 304.022572 153.78502 
L 305.108373 146.079923 
L 306.194175 148.578873 
L 307.279976 145.663431 
L 308.365777 151.598438 
L 309.451578 147.017029 
L 310.537379 146.079923 
L 311.62318 147.225275 
L 312.708981 144.934571 
L 313.794783 149.411857 
L 314.880584 144.309833 
L 315.966385 144.309833 
L 317.052186 143.47685 
L 318.137987 143.580973 
L 319.223788 147.017029 
L 320.30959 142.019129 
L 321.395391 146.600538 
L 322.481192 142.643866 
L 323.566993 142.331498 
L 324.652794 141.602637 
L 325.738595 143.685096 
L 326.824396 143.685096 
L 327.910198 145.351063 
L 328.995999 141.915006 
L 330.0818 144.518079 
L 331.167601 141.810883 
L 332.253402 142.747989 
L 333.339203 145.142817 
L 334.425005 140.873777 
L 335.510806 137.43772 
L 336.596607 145.24694 
L 337.682408 142.956235 
L 338.768209 136.292368 
L 339.85401 142.019129 
L 340.939811 137.541843 
L 342.025613 143.060358 
L 343.111414 136.708859 
L 344.197215 137.541843 
L 345.283016 141.70676 
L 346.368817 138.999564 
L 347.454618 135.875876 
L 348.54042 137.229474 
L 349.626221 137.021228 
L 350.712022 137.541843 
L 351.797823 132.023327 
L 352.883624 133.376925 
L 353.969425 132.752188 
L 355.055227 134.001663 
L 356.141028 136.917105 
L 357.226829 131.815081 
L 358.31263 134.730524 
L 359.398431 138.16658 
L 360.484232 134.730524 
L 362.655835 130.461483 
L 363.741636 130.253238 
L 364.827437 129.732623 
L 365.913238 131.086221 
L 366.999039 131.190344 
L 368.08484 132.960434 
L 369.170642 134.314032 
L 370.256443 137.125351 
L 371.342244 134.834647 
L 372.428045 138.687195 
L 373.513846 137.333597 
L 374.599647 137.43772 
L 375.685448 134.105786 
L 376.77125 135.042892 
L 377.857051 132.856311 
L 378.942852 132.231573 
L 380.028653 141.602637 
L 381.114454 135.875876 
L 382.200255 134.938769 
L 383.286057 138.791318 
L 384.371858 133.689294 
L 385.457659 138.374826 
L 386.54346 137.333597 
L 387.629261 139.416055 
L 388.715062 138.478949 
L 389.800863 138.583072 
L 390.886665 137.43772 
L 391.972466 140.665531 
L 393.058267 137.958334 
L 394.144068 130.773852 
L 396.31567 134.314032 
L 397.401472 139.520178 
L 398.487273 134.001663 
L 398.487273 134.001663 
" clip-path="url(#peec60e2d84)" style="fill: none; stroke: #2ca02c; stroke-width: 1.5; stroke-linecap: square"/>
   </g>
   <g id="line2d_23">
    <path d="M 368.08484 73.308406 
L 369.170642 72.221363 
L 370.256443 73.036645 
L 371.342244 74.87858 
L 372.428045 74.606819 
L 373.513846 74.576624 
L 374.599647 75.633471 
L 375.685448 74.697406 
L 377.857051 74.455841 
L 378.942852 73.278211 
L 380.028653 75.78445 
L 381.114454 75.452297 
L 382.200255 76.146797 
L 383.286057 74.516232 
L 384.371858 75.210732 
L 385.457659 74.787993 
L 386.54346 75.391906 
L 387.629261 75.844841 
L 388.715062 76.539341 
L 389.800863 75.180537 
L 390.886665 76.629928 
L 394.144068 77.686776 
L 395.229869 77.807558 
L 396.31567 76.690319 
L 397.401472 77.475406 
L 398.487273 77.535797 
L 398.487273 77.535797 
" clip-path="url(#peec60e2d84)" style="fill: none; stroke: #d62728; stroke-width: 1.5; stroke-linecap: square"/>
   </g>
   <g id="line2d_24">
    <path d="M 368.08484 130.35736 
L 369.170642 129.6285 
L 370.256443 132.752188 
L 371.342244 132.752188 
L 372.428045 129.940869 
L 373.513846 133.16868 
L 374.599647 134.834647 
L 375.685448 134.626401 
L 376.77125 132.335696 
L 377.857051 133.16868 
L 378.942852 131.710959 
L 380.028653 134.834647 
L 381.114454 137.021228 
L 382.200255 133.272803 
L 383.286057 131.606836 
L 384.371858 130.669729 
L 385.457659 133.481048 
L 386.54346 131.086221 
L 387.629261 132.752188 
L 388.715062 131.710959 
L 389.800863 132.335696 
L 390.886665 133.793417 
L 391.972466 133.16868 
L 393.058267 132.856311 
L 394.144068 133.064557 
L 395.229869 134.209909 
L 396.31567 130.253238 
L 397.401472 130.461483 
L 398.487273 133.064557 
L 398.487273 133.064557 
" clip-path="url(#peec60e2d84)" style="fill: none; stroke: #9467bd; stroke-width: 1.5; stroke-linecap: square"/>
   </g>
   <g id="patch_3">
    <path d="M 57.6 307.584 
L 57.6 41.472 
" style="fill: none; stroke: #000000; stroke-width: 0.8; stroke-linejoin: miter; stroke-linecap: square"/>
   </g>
   <g id="patch_4">
    <path d="M 414.72 307.584 
L 414.72 41.472 
" style="fill: none; stroke: #000000; stroke-width: 0.8; stroke-linejoin: miter; stroke-linecap: square"/>
   </g>
   <g id="patch_5">
    <path d="M 57.6 307.584 
L 414.72 307.584 
" style="fill: none; stroke: #000000; stroke-width: 0.8; stroke-linejoin: miter; stroke-linecap: square"/>
   </g>
   <g id="patch_6">
    <path d="M 57.6 41.472 
L 414.72 41.472 
" style="fill: none; stroke: #000000; stroke-width: 0.8; stroke-linejoin: miter; stroke-linecap: square"/>
   </g>
   <g id="text_22">
    <!-- Learning Curves -->
    <g transform="translate(187.37625 35.472) scale(0.12 -0.12)">
     <defs>
      <path id="DejaVuSans-4c" d="M 628 4666 
L 1259 4666 
L 1259 531 
L 3531 531 
L 3531 0 
L 628 0 
L 628 4666 
z
" transform="scale(0.015625)"/>
      <path id="DejaVuSans-65" d="M 3597 1894 
L 3597 1613 
L 953 1613 
Q 991 1019 1311 708 
Q 1631 397 2203 397 
Q 2534 397 2845 478 
Q 3156 559 3463 722 
L 3463 178 
Q 3153 47 2828 -22 
Q 2503 -91 2169 -91 
Q 1331 -91 842 396 
Q 353 884 353 1716 
Q 353 2575 817 3079 
Q 1281 3584 2069 3584 
Q 2775 3584 3186 3129 
Q 3597 2675 3597 1894 
z
M 3022 2063 
Q 3016 2534 2758 2815 
Q 2500 3097 2075 3097 
Q 1594 3097 1305 2825 
Q 1016 2553 972 2059 
L 3022 2063 
z
" transform="scale(0.015625)"/>
      <path id="DejaVuSans-6e" d="M 3513 2113 
L 3513 0 
L 2938 0 
L 2938 2094 
Q 2938 2591 2744 2837 
Q 2550 3084 2163 3084 
Q 1697 3084 1428 2787 
Q 1159 2491 1159 1978 
L 1159 0 
L 581 0 
L 581 3500 
L 1159 3500 
L 1159 2956 
Q 1366 3272 1645 3428 
Q 1925 3584 2291 3584 
Q 2894 3584 3203 3211 
Q 3513 2838 3513 2113 
z
" transform="scale(0.015625)"/>
      <path id="DejaVuSans-69" d="M 603 3500 
L 1178 3500 
L 1178 0 
L 603 0 
L 603 3500 
z
M 603 4863 
L 1178 4863 
L 1178 4134 
L 603 4134 
L 603 4863 
z
" transform="scale(0.015625)"/>
      <path id="DejaVuSans-67" d="M 2906 1791 
Q 2906 2416 2648 2759 
Q 2391 3103 1925 3103 
Q 1463 3103 1205 2759 
Q 947 2416 947 1791 
Q 947 1169 1205 825 
Q 1463 481 1925 481 
Q 2391 481 2648 825 
Q 2906 1169 2906 1791 
z
M 3481 434 
Q 3481 -459 3084 -895 
Q 2688 -1331 1869 -1331 
Q 1566 -1331 1297 -1286 
Q 1028 -1241 775 -1147 
L 775 -588 
Q 1028 -725 1275 -790 
Q 1522 -856 1778 -856 
Q 2344 -856 2625 -561 
Q 2906 -266 2906 331 
L 2906 616 
Q 2728 306 2450 153 
Q 2172 0 1784 0 
Q 1141 0 747 490 
Q 353 981 353 1791 
Q 353 2603 747 3093 
Q 1141 3584 1784 3584 
Q 2172 3584 2450 3431 
Q 2728 3278 2906 2969 
L 2906 3500 
L 3481 3500 
L 3481 434 
z
" transform="scale(0.015625)"/>
      <path id="DejaVuSans-20" transform="scale(0.015625)"/>
      <path id="DejaVuSans-43" d="M 4122 4306 
L 4122 3641 
Q 3803 3938 3442 4084 
Q 3081 4231 2675 4231 
Q 1875 4231 1450 3742 
Q 1025 3253 1025 2328 
Q 1025 1406 1450 917 
Q 1875 428 2675 428 
Q 3081 428 3442 575 
Q 3803 722 4122 1019 
L 4122 359 
Q 3791 134 3420 21 
Q 3050 -91 2638 -91 
Q 1578 -91 968 557 
Q 359 1206 359 2328 
Q 359 3453 968 4101 
Q 1578 4750 2638 4750 
Q 3056 4750 3426 4639 
Q 3797 4528 4122 4306 
z
" transform="scale(0.015625)"/>
      <path id="DejaVuSans-76" d="M 191 3500 
L 800 3500 
L 1894 563 
L 2988 3500 
L 3597 3500 
L 2284 0 
L 1503 0 
L 191 3500 
z
" transform="scale(0.015625)"/>
     </defs>
     <use xlink:href="#DejaVuSans-4c"/>
     <use xlink:href="#DejaVuSans-65" x="53.962891"/>
     <use xlink:href="#DejaVuSans-61" x="115.486328"/>
     <use xlink:href="#DejaVuSans-72" x="176.765625"/>
     <use xlink:href="#DejaVuSans-6e" x="216.128906"/>
     <use xlink:href="#DejaVuSans-69" x="279.507812"/>
     <use xlink:href="#DejaVuSans-6e" x="307.291016"/>
     <use xlink:href="#DejaVuSans-67" x="370.669922"/>
     <use xlink:href="#DejaVuSans-20" x="434.146484"/>
     <use xlink:href="#DejaVuSans-43" x="465.933594"/>
     <use xlink:href="#DejaVuSans-75" x="535.757812"/>
     <use xlink:href="#DejaVuSans-72" x="599.136719"/>
     <use xlink:href="#DejaVuSans-76" x="640.25"/>
     <use xlink:href="#DejaVuSans-65" x="699.429688"/>
     <use xlink:href="#DejaVuSans-73" x="760.953125"/>
    </g>
   </g>
   <g id="legend_1">
    <g id="patch_7">
     <path d="M 214.18875 302.584 
L 407.72 302.584 
Q 409.72 302.584 409.72 300.584 
L 409.72 228.193375 
Q 409.72 226.193375 407.72 226.193375 
L 214.18875 226.193375 
Q 212.18875 226.193375 212.18875 228.193375 
L 212.18875 300.584 
Q 212.18875 302.584 214.18875 302.584 
z
" style="fill: #ffffff; opacity: 0.8; stroke: #cccccc; stroke-linejoin: miter"/>
    </g>
    <g id="line2d_25">
     <path d="M 216.18875 234.291812 
L 226.18875 234.291812 
L 236.18875 234.291812 
" style="fill: none; stroke: #1f77b4; stroke-width: 1.5; stroke-linecap: square"/>
    </g>
    <g id="text_23">
     <!-- Train Accuracy -->
     <g transform="translate(244.18875 237.791812) scale(0.1 -0.1)">
      <defs>
       <path id="DejaVuSans-54" d="M -19 4666 
L 3928 4666 
L 3928 4134 
L 2272 4134 
L 2272 0 
L 1638 0 
L 1638 4134 
L -19 4134 
L -19 4666 
z
" transform="scale(0.015625)"/>
      </defs>
      <use xlink:href="#DejaVuSans-54"/>
      <use xlink:href="#DejaVuSans-72" x="46.333984"/>
      <use xlink:href="#DejaVuSans-61" x="87.447266"/>
      <use xlink:href="#DejaVuSans-69" x="148.726562"/>
      <use xlink:href="#DejaVuSans-6e" x="176.509766"/>
      <use xlink:href="#DejaVuSans-20" x="239.888672"/>
      <use xlink:href="#DejaVuSans-41" x="271.675781"/>
      <use xlink:href="#DejaVuSans-63" x="338.333984"/>
      <use xlink:href="#DejaVuSans-63" x="393.314453"/>
      <use xlink:href="#DejaVuSans-75" x="448.294922"/>
      <use xlink:href="#DejaVuSans-72" x="511.673828"/>
      <use xlink:href="#DejaVuSans-61" x="552.787109"/>
      <use xlink:href="#DejaVuSans-63" x="614.066406"/>
      <use xlink:href="#DejaVuSans-79" x="669.046875"/>
     </g>
    </g>
    <g id="line2d_26">
     <path d="M 216.18875 248.969937 
L 226.18875 248.969937 
L 236.18875 248.969937 
" style="fill: none; stroke: #ff7f0e; stroke-width: 1.5; stroke-linecap: square"/>
    </g>
    <g id="text_24">
     <!-- Validation Accuracy -->
     <g transform="translate(244.18875 252.469937) scale(0.1 -0.1)">
      <defs>
       <path id="DejaVuSans-56" d="M 1831 0 
L 50 4666 
L 709 4666 
L 2188 738 
L 3669 4666 
L 4325 4666 
L 2547 0 
L 1831 0 
z
" transform="scale(0.015625)"/>
       <path id="DejaVuSans-6c" d="M 603 4863 
L 1178 4863 
L 1178 0 
L 603 0 
L 603 4863 
z
" transform="scale(0.015625)"/>
       <path id="DejaVuSans-64" d="M 2906 2969 
L 2906 4863 
L 3481 4863 
L 3481 0 
L 2906 0 
L 2906 525 
Q 2725 213 2448 61 
Q 2172 -91 1784 -91 
Q 1150 -91 751 415 
Q 353 922 353 1747 
Q 353 2572 751 3078 
Q 1150 3584 1784 3584 
Q 2172 3584 2448 3432 
Q 2725 3281 2906 2969 
z
M 947 1747 
Q 947 1113 1208 752 
Q 1469 391 1925 391 
Q 2381 391 2643 752 
Q 2906 1113 2906 1747 
Q 2906 2381 2643 2742 
Q 2381 3103 1925 3103 
Q 1469 3103 1208 2742 
Q 947 2381 947 1747 
z
" transform="scale(0.015625)"/>
       <path id="DejaVuSans-74" d="M 1172 4494 
L 1172 3500 
L 2356 3500 
L 2356 3053 
L 1172 3053 
L 1172 1153 
Q 1172 725 1289 603 
Q 1406 481 1766 481 
L 2356 481 
L 2356 0 
L 1766 0 
Q 1100 0 847 248 
Q 594 497 594 1153 
L 594 3053 
L 172 3053 
L 172 3500 
L 594 3500 
L 594 4494 
L 1172 4494 
z
" transform="scale(0.015625)"/>
      </defs>
      <use xlink:href="#DejaVuSans-56"/>
      <use xlink:href="#DejaVuSans-61" x="60.658203"/>
      <use xlink:href="#DejaVuSans-6c" x="121.9375"/>
      <use xlink:href="#DejaVuSans-69" x="149.720703"/>
      <use xlink:href="#DejaVuSans-64" x="177.503906"/>
      <use xlink:href="#DejaVuSans-61" x="240.980469"/>
      <use xlink:href="#DejaVuSans-74" x="302.259766"/>
      <use xlink:href="#DejaVuSans-69" x="341.46875"/>
      <use xlink:href="#DejaVuSans-6f" x="369.251953"/>
      <use xlink:href="#DejaVuSans-6e" x="430.433594"/>
      <use xlink:href="#DejaVuSans-20" x="493.8125"/>
      <use xlink:href="#DejaVuSans-41" x="525.599609"/>
      <use xlink:href="#DejaVuSans-63" x="592.257812"/>
      <use xlink:href="#DejaVuSans-63" x="647.238281"/>
      <use xlink:href="#DejaVuSans-75" x="702.21875"/>
      <use xlink:href="#DejaVuSans-72" x="765.597656"/>
      <use xlink:href="#DejaVuSans-61" x="806.710938"/>
      <use xlink:href="#DejaVuSans-63" x="867.990234"/>
      <use xlink:href="#DejaVuSans-79" x="922.970703"/>
     </g>
    </g>
    <g id="line2d_27">
     <path d="M 216.18875 263.648062 
L 226.18875 263.648062 
L 236.18875 263.648062 
" style="fill: none; stroke: #2ca02c; stroke-width: 1.5; stroke-linecap: square"/>
    </g>
    <g id="text_25">
     <!-- Robust Validation Accuracy -->
     <g transform="translate(244.18875 267.148062) scale(0.1 -0.1)">
      <defs>
       <path id="DejaVuSans-52" d="M 2841 2188 
Q 3044 2119 3236 1894 
Q 3428 1669 3622 1275 
L 4263 0 
L 3584 0 
L 2988 1197 
Q 2756 1666 2539 1819 
Q 2322 1972 1947 1972 
L 1259 1972 
L 1259 0 
L 628 0 
L 628 4666 
L 2053 4666 
Q 2853 4666 3247 4331 
Q 3641 3997 3641 3322 
Q 3641 2881 3436 2590 
Q 3231 2300 2841 2188 
z
M 1259 4147 
L 1259 2491 
L 2053 2491 
Q 2509 2491 2742 2702 
Q 2975 2913 2975 3322 
Q 2975 3731 2742 3939 
Q 2509 4147 2053 4147 
L 1259 4147 
z
" transform="scale(0.015625)"/>
       <path id="DejaVuSans-62" d="M 3116 1747 
Q 3116 2381 2855 2742 
Q 2594 3103 2138 3103 
Q 1681 3103 1420 2742 
Q 1159 2381 1159 1747 
Q 1159 1113 1420 752 
Q 1681 391 2138 391 
Q 2594 391 2855 752 
Q 3116 1113 3116 1747 
z
M 1159 2969 
Q 1341 3281 1617 3432 
Q 1894 3584 2278 3584 
Q 2916 3584 3314 3078 
Q 3713 2572 3713 1747 
Q 3713 922 3314 415 
Q 2916 -91 2278 -91 
Q 1894 -91 1617 61 
Q 1341 213 1159 525 
L 1159 0 
L 581 0 
L 581 4863 
L 1159 4863 
L 1159 2969 
z
" transform="scale(0.015625)"/>
      </defs>
      <use xlink:href="#DejaVuSans-52"/>
      <use xlink:href="#DejaVuSans-6f" x="64.982422"/>
      <use xlink:href="#DejaVuSans-62" x="126.164062"/>
      <use xlink:href="#DejaVuSans-75" x="189.640625"/>
      <use xlink:href="#DejaVuSans-73" x="253.019531"/>
      <use xlink:href="#DejaVuSans-74" x="305.119141"/>
      <use xlink:href="#DejaVuSans-20" x="344.328125"/>
      <use xlink:href="#DejaVuSans-56" x="376.115234"/>
      <use xlink:href="#DejaVuSans-61" x="436.773438"/>
      <use xlink:href="#DejaVuSans-6c" x="498.052734"/>
      <use xlink:href="#DejaVuSans-69" x="525.835938"/>
      <use xlink:href="#DejaVuSans-64" x="553.619141"/>
      <use xlink:href="#DejaVuSans-61" x="617.095703"/>
      <use xlink:href="#DejaVuSans-74" x="678.375"/>
      <use xlink:href="#DejaVuSans-69" x="717.583984"/>
      <use xlink:href="#DejaVuSans-6f" x="745.367188"/>
      <use xlink:href="#DejaVuSans-6e" x="806.548828"/>
      <use xlink:href="#DejaVuSans-20" x="869.927734"/>
      <use xlink:href="#DejaVuSans-41" x="901.714844"/>
      <use xlink:href="#DejaVuSans-63" x="968.373047"/>
      <use xlink:href="#DejaVuSans-63" x="1023.353516"/>
      <use xlink:href="#DejaVuSans-75" x="1078.333984"/>
      <use xlink:href="#DejaVuSans-72" x="1141.712891"/>
      <use xlink:href="#DejaVuSans-61" x="1182.826172"/>
      <use xlink:href="#DejaVuSans-63" x="1244.105469"/>
      <use xlink:href="#DejaVuSans-79" x="1299.085938"/>
     </g>
    </g>
    <g id="line2d_28">
     <path d="M 216.18875 278.326188 
L 226.18875 278.326188 
L 236.18875 278.326188 
" style="fill: none; stroke: #d62728; stroke-width: 1.5; stroke-linecap: square"/>
    </g>
    <g id="text_26">
     <!-- SWA Validation Accuracy -->
     <g transform="translate(244.18875 281.826188) scale(0.1 -0.1)">
      <defs>
       <path id="DejaVuSans-53" d="M 3425 4513 
L 3425 3897 
Q 3066 4069 2747 4153 
Q 2428 4238 2131 4238 
Q 1616 4238 1336 4038 
Q 1056 3838 1056 3469 
Q 1056 3159 1242 3001 
Q 1428 2844 1947 2747 
L 2328 2669 
Q 3034 2534 3370 2195 
Q 3706 1856 3706 1288 
Q 3706 609 3251 259 
Q 2797 -91 1919 -91 
Q 1588 -91 1214 -16 
Q 841 59 441 206 
L 441 856 
Q 825 641 1194 531 
Q 1563 422 1919 422 
Q 2459 422 2753 634 
Q 3047 847 3047 1241 
Q 3047 1584 2836 1778 
Q 2625 1972 2144 2069 
L 1759 2144 
Q 1053 2284 737 2584 
Q 422 2884 422 3419 
Q 422 4038 858 4394 
Q 1294 4750 2059 4750 
Q 2388 4750 2728 4690 
Q 3069 4631 3425 4513 
z
" transform="scale(0.015625)"/>
       <path id="DejaVuSans-57" d="M 213 4666 
L 850 4666 
L 1831 722 
L 2809 4666 
L 3519 4666 
L 4500 722 
L 5478 4666 
L 6119 4666 
L 4947 0 
L 4153 0 
L 3169 4050 
L 2175 0 
L 1381 0 
L 213 4666 
z
" transform="scale(0.015625)"/>
      </defs>
      <use xlink:href="#DejaVuSans-53"/>
      <use xlink:href="#DejaVuSans-57" x="63.476562"/>
      <use xlink:href="#DejaVuSans-41" x="156.853516"/>
      <use xlink:href="#DejaVuSans-20" x="225.261719"/>
      <use xlink:href="#DejaVuSans-56" x="257.048828"/>
      <use xlink:href="#DejaVuSans-61" x="317.707031"/>
      <use xlink:href="#DejaVuSans-6c" x="378.986328"/>
      <use xlink:href="#DejaVuSans-69" x="406.769531"/>
      <use xlink:href="#DejaVuSans-64" x="434.552734"/>
      <use xlink:href="#DejaVuSans-61" x="498.029297"/>
      <use xlink:href="#DejaVuSans-74" x="559.308594"/>
      <use xlink:href="#DejaVuSans-69" x="598.517578"/>
      <use xlink:href="#DejaVuSans-6f" x="626.300781"/>
      <use xlink:href="#DejaVuSans-6e" x="687.482422"/>
      <use xlink:href="#DejaVuSans-20" x="750.861328"/>
      <use xlink:href="#DejaVuSans-41" x="782.648438"/>
      <use xlink:href="#DejaVuSans-63" x="849.306641"/>
      <use xlink:href="#DejaVuSans-63" x="904.287109"/>
      <use xlink:href="#DejaVuSans-75" x="959.267578"/>
      <use xlink:href="#DejaVuSans-72" x="1022.646484"/>
      <use xlink:href="#DejaVuSans-61" x="1063.759766"/>
      <use xlink:href="#DejaVuSans-63" x="1125.039062"/>
      <use xlink:href="#DejaVuSans-79" x="1180.019531"/>
     </g>
    </g>
    <g id="line2d_29">
     <path d="M 216.18875 293.004312 
L 226.18875 293.004312 
L 236.18875 293.004312 
" style="fill: none; stroke: #9467bd; stroke-width: 1.5; stroke-linecap: square"/>
    </g>
    <g id="text_27">
     <!-- SWA Robust Validation Accuracy -->
     <g transform="translate(244.18875 296.504312) scale(0.1 -0.1)">
      <use xlink:href="#DejaVuSans-53"/>
      <use xlink:href="#DejaVuSans-57" x="63.476562"/>
      <use xlink:href="#DejaVuSans-41" x="156.853516"/>
      <use xlink:href="#DejaVuSans-20" x="225.261719"/>
      <use xlink:href="#DejaVuSans-52" x="257.048828"/>
      <use xlink:href="#DejaVuSans-6f" x="322.03125"/>
      <use xlink:href="#DejaVuSans-62" x="383.212891"/>
      <use xlink:href="#DejaVuSans-75" x="446.689453"/>
      <use xlink:href="#DejaVuSans-73" x="510.068359"/>
      <use xlink:href="#DejaVuSans-74" x="562.167969"/>
      <use xlink:href="#DejaVuSans-20" x="601.376953"/>
      <use xlink:href="#DejaVuSans-56" x="633.164062"/>
      <use xlink:href="#DejaVuSans-61" x="693.822266"/>
      <use xlink:href="#DejaVuSans-6c" x="755.101562"/>
      <use xlink:href="#DejaVuSans-69" x="782.884766"/>
      <use xlink:href="#DejaVuSans-64" x="810.667969"/>
      <use xlink:href="#DejaVuSans-61" x="874.144531"/>
      <use xlink:href="#DejaVuSans-74" x="935.423828"/>
      <use xlink:href="#DejaVuSans-69" x="974.632812"/>
      <use xlink:href="#DejaVuSans-6f" x="1002.416016"/>
      <use xlink:href="#DejaVuSans-6e" x="1063.597656"/>
      <use xlink:href="#DejaVuSans-20" x="1126.976562"/>
      <use xlink:href="#DejaVuSans-41" x="1158.763672"/>
      <use xlink:href="#DejaVuSans-63" x="1225.421875"/>
      <use xlink:href="#DejaVuSans-63" x="1280.402344"/>
      <use xlink:href="#DejaVuSans-75" x="1335.382812"/>
      <use xlink:href="#DejaVuSans-72" x="1398.761719"/>
      <use xlink:href="#DejaVuSans-61" x="1439.875"/>
      <use xlink:href="#DejaVuSans-63" x="1501.154297"/>
      <use xlink:href="#DejaVuSans-79" x="1556.134766"/>
     </g>
    </g>
   </g>
  </g>
 </g>
 <defs>
  <clipPath id="peec60e2d84">
   <rect x="57.6" y="41.472" width="357.12" height="266.112"/>
  </clipPath>
 </defs>
</svg>
