<?xml version="1.0" encoding="utf-8" standalone="no"?>
<!DOCTYPE svg PUBLIC "-//W3C//DTD SVG 1.1//EN"
  "http://www.w3.org/Graphics/SVG/1.1/DTD/svg11.dtd">
<svg xmlns:xlink="http://www.w3.org/1999/xlink" width="460.8pt" height="345.6pt" viewBox="0 0 460.8 345.6" xmlns="http://www.w3.org/2000/svg" version="1.1">
 <metadata>
  <rdf:RDF xmlns:dc="http://purl.org/dc/elements/1.1/" xmlns:cc="http://creativecommons.org/ns#" xmlns:rdf="http://www.w3.org/1999/02/22-rdf-syntax-ns#">
   <cc:Work>
    <dc:type rdf:resource="http://purl.org/dc/dcmitype/StillImage"/>
    <dc:date>2025-03-07T20:43:06.414960</dc:date>
    <dc:format>image/svg+xml</dc:format>
    <dc:creator>
     <cc:Agent>
      <dc:title>Matplotlib v3.9.1, https://matplotlib.org/</dc:title>
     </cc:Agent>
    </dc:creator>
   </cc:Work>
  </rdf:RDF>
 </metadata>
 <defs>
  <style type="text/css">*{stroke-linejoin: round; stroke-linecap: butt}</style>
 </defs>
 <g id="figure_1">
  <g id="patch_1">
   <path d="M 0 345.6 
L 460.8 345.6 
L 460.8 0 
L 0 0 
z
" style="fill: #ffffff"/>
  </g>
  <g id="axes_1">
   <g id="patch_2">
    <path d="M 57.6 307.584 
L 414.72 307.584 
L 414.72 41.472 
L 57.6 41.472 
z
" style="fill: #ffffff"/>
   </g>
   <g id="matplotlib.axis_1">
    <g id="xtick_1">
     <g id="line2d_1">
      <defs>
       <path id="m21db0a01af" d="M 0 0 
L 0 3.5 
" style="stroke: #000000; stroke-width: 0.8"/>
      </defs>
      <g>
       <use xlink:href="#m21db0a01af" x="73.832727" y="307.584" style="stroke: #000000; stroke-width: 0.8"/>
      </g>
     </g>
     <g id="text_1">
      <!-- 1 -->
      <g transform="translate(70.651477 322.182437) scale(0.1 -0.1)">
       <defs>
        <path id="DejaVuSans-31" d="M 794 531 
L 1825 531 
L 1825 4091 
L 703 3866 
L 703 4441 
L 1819 4666 
L 2450 4666 
L 2450 531 
L 3481 531 
L 3481 0 
L 794 0 
L 794 531 
z
" transform="scale(0.015625)"/>
       </defs>
       <use xlink:href="#DejaVuSans-31"/>
      </g>
     </g>
    </g>
    <g id="xtick_2">
     <g id="line2d_2">
      <g>
       <use xlink:href="#m21db0a01af" x="109.664165" y="307.584" style="stroke: #000000; stroke-width: 0.8"/>
      </g>
     </g>
     <g id="text_2">
      <!-- 34 -->
      <g transform="translate(103.301665 322.182437) scale(0.1 -0.1)">
       <defs>
        <path id="DejaVuSans-33" d="M 2597 2516 
Q 3050 2419 3304 2112 
Q 3559 1806 3559 1356 
Q 3559 666 3084 287 
Q 2609 -91 1734 -91 
Q 1441 -91 1130 -33 
Q 819 25 488 141 
L 488 750 
Q 750 597 1062 519 
Q 1375 441 1716 441 
Q 2309 441 2620 675 
Q 2931 909 2931 1356 
Q 2931 1769 2642 2001 
Q 2353 2234 1838 2234 
L 1294 2234 
L 1294 2753 
L 1863 2753 
Q 2328 2753 2575 2939 
Q 2822 3125 2822 3475 
Q 2822 3834 2567 4026 
Q 2313 4219 1838 4219 
Q 1578 4219 1281 4162 
Q 984 4106 628 3988 
L 628 4550 
Q 988 4650 1302 4700 
Q 1616 4750 1894 4750 
Q 2613 4750 3031 4423 
Q 3450 4097 3450 3541 
Q 3450 3153 3228 2886 
Q 3006 2619 2597 2516 
z
" transform="scale(0.015625)"/>
        <path id="DejaVuSans-34" d="M 2419 4116 
L 825 1625 
L 2419 1625 
L 2419 4116 
z
M 2253 4666 
L 3047 4666 
L 3047 1625 
L 3713 1625 
L 3713 1100 
L 3047 1100 
L 3047 0 
L 2419 0 
L 2419 1100 
L 313 1100 
L 313 1709 
L 2253 4666 
z
" transform="scale(0.015625)"/>
       </defs>
       <use xlink:href="#DejaVuSans-33"/>
       <use xlink:href="#DejaVuSans-34" x="63.623047"/>
      </g>
     </g>
    </g>
    <g id="xtick_3">
     <g id="line2d_3">
      <g>
       <use xlink:href="#m21db0a01af" x="145.495604" y="307.584" style="stroke: #000000; stroke-width: 0.8"/>
      </g>
     </g>
     <g id="text_3">
      <!-- 67 -->
      <g transform="translate(139.133104 322.182437) scale(0.1 -0.1)">
       <defs>
        <path id="DejaVuSans-36" d="M 2113 2584 
Q 1688 2584 1439 2293 
Q 1191 2003 1191 1497 
Q 1191 994 1439 701 
Q 1688 409 2113 409 
Q 2538 409 2786 701 
Q 3034 994 3034 1497 
Q 3034 2003 2786 2293 
Q 2538 2584 2113 2584 
z
M 3366 4563 
L 3366 3988 
Q 3128 4100 2886 4159 
Q 2644 4219 2406 4219 
Q 1781 4219 1451 3797 
Q 1122 3375 1075 2522 
Q 1259 2794 1537 2939 
Q 1816 3084 2150 3084 
Q 2853 3084 3261 2657 
Q 3669 2231 3669 1497 
Q 3669 778 3244 343 
Q 2819 -91 2113 -91 
Q 1303 -91 875 529 
Q 447 1150 447 2328 
Q 447 3434 972 4092 
Q 1497 4750 2381 4750 
Q 2619 4750 2861 4703 
Q 3103 4656 3366 4563 
z
" transform="scale(0.015625)"/>
        <path id="DejaVuSans-37" d="M 525 4666 
L 3525 4666 
L 3525 4397 
L 1831 0 
L 1172 0 
L 2766 4134 
L 525 4134 
L 525 4666 
z
" transform="scale(0.015625)"/>
       </defs>
       <use xlink:href="#DejaVuSans-36"/>
       <use xlink:href="#DejaVuSans-37" x="63.623047"/>
      </g>
     </g>
    </g>
    <g id="xtick_4">
     <g id="line2d_4">
      <g>
       <use xlink:href="#m21db0a01af" x="181.327042" y="307.584" style="stroke: #000000; stroke-width: 0.8"/>
      </g>
     </g>
     <g id="text_4">
      <!-- 100 -->
      <g transform="translate(171.783292 322.182437) scale(0.1 -0.1)">
       <defs>
        <path id="DejaVuSans-30" d="M 2034 4250 
Q 1547 4250 1301 3770 
Q 1056 3291 1056 2328 
Q 1056 1369 1301 889 
Q 1547 409 2034 409 
Q 2525 409 2770 889 
Q 3016 1369 3016 2328 
Q 3016 3291 2770 3770 
Q 2525 4250 2034 4250 
z
M 2034 4750 
Q 2819 4750 3233 4129 
Q 3647 3509 3647 2328 
Q 3647 1150 3233 529 
Q 2819 -91 2034 -91 
Q 1250 -91 836 529 
Q 422 1150 422 2328 
Q 422 3509 836 4129 
Q 1250 4750 2034 4750 
z
" transform="scale(0.015625)"/>
       </defs>
       <use xlink:href="#DejaVuSans-31"/>
       <use xlink:href="#DejaVuSans-30" x="63.623047"/>
       <use xlink:href="#DejaVuSans-30" x="127.246094"/>
      </g>
     </g>
    </g>
    <g id="xtick_5">
     <g id="line2d_5">
      <g>
       <use xlink:href="#m21db0a01af" x="217.15848" y="307.584" style="stroke: #000000; stroke-width: 0.8"/>
      </g>
     </g>
     <g id="text_5">
      <!-- 133 -->
      <g transform="translate(207.61473 322.182437) scale(0.1 -0.1)">
       <use xlink:href="#DejaVuSans-31"/>
       <use xlink:href="#DejaVuSans-33" x="63.623047"/>
       <use xlink:href="#DejaVuSans-33" x="127.246094"/>
      </g>
     </g>
    </g>
    <g id="xtick_6">
     <g id="line2d_6">
      <g>
       <use xlink:href="#m21db0a01af" x="254.075719" y="307.584" style="stroke: #000000; stroke-width: 0.8"/>
      </g>
     </g>
     <g id="text_6">
      <!-- 167 -->
      <g transform="translate(244.531969 322.182437) scale(0.1 -0.1)">
       <use xlink:href="#DejaVuSans-31"/>
       <use xlink:href="#DejaVuSans-36" x="63.623047"/>
       <use xlink:href="#DejaVuSans-37" x="127.246094"/>
      </g>
     </g>
    </g>
    <g id="xtick_7">
     <g id="line2d_7">
      <g>
       <use xlink:href="#m21db0a01af" x="289.907157" y="307.584" style="stroke: #000000; stroke-width: 0.8"/>
      </g>
     </g>
     <g id="text_7">
      <!-- 200 -->
      <g transform="translate(280.363407 322.182437) scale(0.1 -0.1)">
       <defs>
        <path id="DejaVuSans-32" d="M 1228 531 
L 3431 531 
L 3431 0 
L 469 0 
L 469 531 
Q 828 903 1448 1529 
Q 2069 2156 2228 2338 
Q 2531 2678 2651 2914 
Q 2772 3150 2772 3378 
Q 2772 3750 2511 3984 
Q 2250 4219 1831 4219 
Q 1534 4219 1204 4116 
Q 875 4013 500 3803 
L 500 4441 
Q 881 4594 1212 4672 
Q 1544 4750 1819 4750 
Q 2544 4750 2975 4387 
Q 3406 4025 3406 3419 
Q 3406 3131 3298 2873 
Q 3191 2616 2906 2266 
Q 2828 2175 2409 1742 
Q 1991 1309 1228 531 
z
" transform="scale(0.015625)"/>
       </defs>
       <use xlink:href="#DejaVuSans-32"/>
       <use xlink:href="#DejaVuSans-30" x="63.623047"/>
       <use xlink:href="#DejaVuSans-30" x="127.246094"/>
      </g>
     </g>
    </g>
    <g id="xtick_8">
     <g id="line2d_8">
      <g>
       <use xlink:href="#m21db0a01af" x="325.738595" y="307.584" style="stroke: #000000; stroke-width: 0.8"/>
      </g>
     </g>
     <g id="text_8">
      <!-- 233 -->
      <g transform="translate(316.194845 322.182437) scale(0.1 -0.1)">
       <use xlink:href="#DejaVuSans-32"/>
       <use xlink:href="#DejaVuSans-33" x="63.623047"/>
       <use xlink:href="#DejaVuSans-33" x="127.246094"/>
      </g>
     </g>
    </g>
    <g id="xtick_9">
     <g id="line2d_9">
      <g>
       <use xlink:href="#m21db0a01af" x="361.570033" y="307.584" style="stroke: #000000; stroke-width: 0.8"/>
      </g>
     </g>
     <g id="text_9">
      <!-- 266 -->
      <g transform="translate(352.026283 322.182437) scale(0.1 -0.1)">
       <use xlink:href="#DejaVuSans-32"/>
       <use xlink:href="#DejaVuSans-36" x="63.623047"/>
       <use xlink:href="#DejaVuSans-36" x="127.246094"/>
      </g>
     </g>
    </g>
    <g id="xtick_10">
     <g id="line2d_10">
      <g>
       <use xlink:href="#m21db0a01af" x="398.487273" y="307.584" style="stroke: #000000; stroke-width: 0.8"/>
      </g>
     </g>
     <g id="text_10">
      <!-- 300 -->
      <g transform="translate(388.943523 322.182437) scale(0.1 -0.1)">
       <use xlink:href="#DejaVuSans-33"/>
       <use xlink:href="#DejaVuSans-30" x="63.623047"/>
       <use xlink:href="#DejaVuSans-30" x="127.246094"/>
      </g>
     </g>
    </g>
    <g id="text_11">
     <!-- Epochs -->
     <g transform="translate(218.244375 335.860562) scale(0.1 -0.1)">
      <defs>
       <path id="DejaVuSans-45" d="M 628 4666 
L 3578 4666 
L 3578 4134 
L 1259 4134 
L 1259 2753 
L 3481 2753 
L 3481 2222 
L 1259 2222 
L 1259 531 
L 3634 531 
L 3634 0 
L 628 0 
L 628 4666 
z
" transform="scale(0.015625)"/>
       <path id="DejaVuSans-70" d="M 1159 525 
L 1159 -1331 
L 581 -1331 
L 581 3500 
L 1159 3500 
L 1159 2969 
Q 1341 3281 1617 3432 
Q 1894 3584 2278 3584 
Q 2916 3584 3314 3078 
Q 3713 2572 3713 1747 
Q 3713 922 3314 415 
Q 2916 -91 2278 -91 
Q 1894 -91 1617 61 
Q 1341 213 1159 525 
z
M 3116 1747 
Q 3116 2381 2855 2742 
Q 2594 3103 2138 3103 
Q 1681 3103 1420 2742 
Q 1159 2381 1159 1747 
Q 1159 1113 1420 752 
Q 1681 391 2138 391 
Q 2594 391 2855 752 
Q 3116 1113 3116 1747 
z
" transform="scale(0.015625)"/>
       <path id="DejaVuSans-6f" d="M 1959 3097 
Q 1497 3097 1228 2736 
Q 959 2375 959 1747 
Q 959 1119 1226 758 
Q 1494 397 1959 397 
Q 2419 397 2687 759 
Q 2956 1122 2956 1747 
Q 2956 2369 2687 2733 
Q 2419 3097 1959 3097 
z
M 1959 3584 
Q 2709 3584 3137 3096 
Q 3566 2609 3566 1747 
Q 3566 888 3137 398 
Q 2709 -91 1959 -91 
Q 1206 -91 779 398 
Q 353 888 353 1747 
Q 353 2609 779 3096 
Q 1206 3584 1959 3584 
z
" transform="scale(0.015625)"/>
       <path id="DejaVuSans-63" d="M 3122 3366 
L 3122 2828 
Q 2878 2963 2633 3030 
Q 2388 3097 2138 3097 
Q 1578 3097 1268 2742 
Q 959 2388 959 1747 
Q 959 1106 1268 751 
Q 1578 397 2138 397 
Q 2388 397 2633 464 
Q 2878 531 3122 666 
L 3122 134 
Q 2881 22 2623 -34 
Q 2366 -91 2075 -91 
Q 1284 -91 818 406 
Q 353 903 353 1747 
Q 353 2603 823 3093 
Q 1294 3584 2113 3584 
Q 2378 3584 2631 3529 
Q 2884 3475 3122 3366 
z
" transform="scale(0.015625)"/>
       <path id="DejaVuSans-68" d="M 3513 2113 
L 3513 0 
L 2938 0 
L 2938 2094 
Q 2938 2591 2744 2837 
Q 2550 3084 2163 3084 
Q 1697 3084 1428 2787 
Q 1159 2491 1159 1978 
L 1159 0 
L 581 0 
L 581 4863 
L 1159 4863 
L 1159 2956 
Q 1366 3272 1645 3428 
Q 1925 3584 2291 3584 
Q 2894 3584 3203 3211 
Q 3513 2838 3513 2113 
z
" transform="scale(0.015625)"/>
       <path id="DejaVuSans-73" d="M 2834 3397 
L 2834 2853 
Q 2591 2978 2328 3040 
Q 2066 3103 1784 3103 
Q 1356 3103 1142 2972 
Q 928 2841 928 2578 
Q 928 2378 1081 2264 
Q 1234 2150 1697 2047 
L 1894 2003 
Q 2506 1872 2764 1633 
Q 3022 1394 3022 966 
Q 3022 478 2636 193 
Q 2250 -91 1575 -91 
Q 1294 -91 989 -36 
Q 684 19 347 128 
L 347 722 
Q 666 556 975 473 
Q 1284 391 1588 391 
Q 1994 391 2212 530 
Q 2431 669 2431 922 
Q 2431 1156 2273 1281 
Q 2116 1406 1581 1522 
L 1381 1569 
Q 847 1681 609 1914 
Q 372 2147 372 2553 
Q 372 3047 722 3315 
Q 1072 3584 1716 3584 
Q 2034 3584 2315 3537 
Q 2597 3491 2834 3397 
z
" transform="scale(0.015625)"/>
      </defs>
      <use xlink:href="#DejaVuSans-45"/>
      <use xlink:href="#DejaVuSans-70" x="63.183594"/>
      <use xlink:href="#DejaVuSans-6f" x="126.660156"/>
      <use xlink:href="#DejaVuSans-63" x="187.841797"/>
      <use xlink:href="#DejaVuSans-68" x="242.822266"/>
      <use xlink:href="#DejaVuSans-73" x="306.201172"/>
     </g>
    </g>
   </g>
   <g id="matplotlib.axis_2">
    <g id="ytick_1">
     <g id="line2d_11">
      <defs>
       <path id="mea5568a76c" d="M 0 0 
L -3.5 0 
" style="stroke: #000000; stroke-width: 0.8"/>
      </defs>
      <g>
       <use xlink:href="#mea5568a76c" x="57.6" y="298.031339" style="stroke: #000000; stroke-width: 0.8"/>
      </g>
     </g>
     <g id="text_12">
      <!-- 10 -->
      <g transform="translate(37.875 301.830558) scale(0.1 -0.1)">
       <use xlink:href="#DejaVuSans-31"/>
       <use xlink:href="#DejaVuSans-30" x="63.623047"/>
      </g>
     </g>
    </g>
    <g id="ytick_2">
     <g id="line2d_12">
      <g>
       <use xlink:href="#mea5568a76c" x="57.6" y="267.753492" style="stroke: #000000; stroke-width: 0.8"/>
      </g>
     </g>
     <g id="text_13">
      <!-- 20 -->
      <g transform="translate(37.875 271.552711) scale(0.1 -0.1)">
       <use xlink:href="#DejaVuSans-32"/>
       <use xlink:href="#DejaVuSans-30" x="63.623047"/>
      </g>
     </g>
    </g>
    <g id="ytick_3">
     <g id="line2d_13">
      <g>
       <use xlink:href="#mea5568a76c" x="57.6" y="237.475645" style="stroke: #000000; stroke-width: 0.8"/>
      </g>
     </g>
     <g id="text_14">
      <!-- 30 -->
      <g transform="translate(37.875 241.274863) scale(0.1 -0.1)">
       <use xlink:href="#DejaVuSans-33"/>
       <use xlink:href="#DejaVuSans-30" x="63.623047"/>
      </g>
     </g>
    </g>
    <g id="ytick_4">
     <g id="line2d_14">
      <g>
       <use xlink:href="#mea5568a76c" x="57.6" y="207.197797" style="stroke: #000000; stroke-width: 0.8"/>
      </g>
     </g>
     <g id="text_15">
      <!-- 40 -->
      <g transform="translate(37.875 210.997016) scale(0.1 -0.1)">
       <use xlink:href="#DejaVuSans-34"/>
       <use xlink:href="#DejaVuSans-30" x="63.623047"/>
      </g>
     </g>
    </g>
    <g id="ytick_5">
     <g id="line2d_15">
      <g>
       <use xlink:href="#mea5568a76c" x="57.6" y="176.91995" style="stroke: #000000; stroke-width: 0.8"/>
      </g>
     </g>
     <g id="text_16">
      <!-- 50 -->
      <g transform="translate(37.875 180.719169) scale(0.1 -0.1)">
       <defs>
        <path id="DejaVuSans-35" d="M 691 4666 
L 3169 4666 
L 3169 4134 
L 1269 4134 
L 1269 2991 
Q 1406 3038 1543 3061 
Q 1681 3084 1819 3084 
Q 2600 3084 3056 2656 
Q 3513 2228 3513 1497 
Q 3513 744 3044 326 
Q 2575 -91 1722 -91 
Q 1428 -91 1123 -41 
Q 819 9 494 109 
L 494 744 
Q 775 591 1075 516 
Q 1375 441 1709 441 
Q 2250 441 2565 725 
Q 2881 1009 2881 1497 
Q 2881 1984 2565 2268 
Q 2250 2553 1709 2553 
Q 1456 2553 1204 2497 
Q 953 2441 691 2322 
L 691 4666 
z
" transform="scale(0.015625)"/>
       </defs>
       <use xlink:href="#DejaVuSans-35"/>
       <use xlink:href="#DejaVuSans-30" x="63.623047"/>
      </g>
     </g>
    </g>
    <g id="ytick_6">
     <g id="line2d_16">
      <g>
       <use xlink:href="#mea5568a76c" x="57.6" y="146.642103" style="stroke: #000000; stroke-width: 0.8"/>
      </g>
     </g>
     <g id="text_17">
      <!-- 60 -->
      <g transform="translate(37.875 150.441321) scale(0.1 -0.1)">
       <use xlink:href="#DejaVuSans-36"/>
       <use xlink:href="#DejaVuSans-30" x="63.623047"/>
      </g>
     </g>
    </g>
    <g id="ytick_7">
     <g id="line2d_17">
      <g>
       <use xlink:href="#mea5568a76c" x="57.6" y="116.364255" style="stroke: #000000; stroke-width: 0.8"/>
      </g>
     </g>
     <g id="text_18">
      <!-- 70 -->
      <g transform="translate(37.875 120.163474) scale(0.1 -0.1)">
       <use xlink:href="#DejaVuSans-37"/>
       <use xlink:href="#DejaVuSans-30" x="63.623047"/>
      </g>
     </g>
    </g>
    <g id="ytick_8">
     <g id="line2d_18">
      <g>
       <use xlink:href="#mea5568a76c" x="57.6" y="86.086408" style="stroke: #000000; stroke-width: 0.8"/>
      </g>
     </g>
     <g id="text_19">
      <!-- 80 -->
      <g transform="translate(37.875 89.885627) scale(0.1 -0.1)">
       <defs>
        <path id="DejaVuSans-38" d="M 2034 2216 
Q 1584 2216 1326 1975 
Q 1069 1734 1069 1313 
Q 1069 891 1326 650 
Q 1584 409 2034 409 
Q 2484 409 2743 651 
Q 3003 894 3003 1313 
Q 3003 1734 2745 1975 
Q 2488 2216 2034 2216 
z
M 1403 2484 
Q 997 2584 770 2862 
Q 544 3141 544 3541 
Q 544 4100 942 4425 
Q 1341 4750 2034 4750 
Q 2731 4750 3128 4425 
Q 3525 4100 3525 3541 
Q 3525 3141 3298 2862 
Q 3072 2584 2669 2484 
Q 3125 2378 3379 2068 
Q 3634 1759 3634 1313 
Q 3634 634 3220 271 
Q 2806 -91 2034 -91 
Q 1263 -91 848 271 
Q 434 634 434 1313 
Q 434 1759 690 2068 
Q 947 2378 1403 2484 
z
M 1172 3481 
Q 1172 3119 1398 2916 
Q 1625 2713 2034 2713 
Q 2441 2713 2670 2916 
Q 2900 3119 2900 3481 
Q 2900 3844 2670 4047 
Q 2441 4250 2034 4250 
Q 1625 4250 1398 4047 
Q 1172 3844 1172 3481 
z
" transform="scale(0.015625)"/>
       </defs>
       <use xlink:href="#DejaVuSans-38"/>
       <use xlink:href="#DejaVuSans-30" x="63.623047"/>
      </g>
     </g>
    </g>
    <g id="ytick_9">
     <g id="line2d_19">
      <g>
       <use xlink:href="#mea5568a76c" x="57.6" y="55.808561" style="stroke: #000000; stroke-width: 0.8"/>
      </g>
     </g>
     <g id="text_20">
      <!-- 90 -->
      <g transform="translate(37.875 59.607779) scale(0.1 -0.1)">
       <defs>
        <path id="DejaVuSans-39" d="M 703 97 
L 703 672 
Q 941 559 1184 500 
Q 1428 441 1663 441 
Q 2288 441 2617 861 
Q 2947 1281 2994 2138 
Q 2813 1869 2534 1725 
Q 2256 1581 1919 1581 
Q 1219 1581 811 2004 
Q 403 2428 403 3163 
Q 403 3881 828 4315 
Q 1253 4750 1959 4750 
Q 2769 4750 3195 4129 
Q 3622 3509 3622 2328 
Q 3622 1225 3098 567 
Q 2575 -91 1691 -91 
Q 1453 -91 1209 -44 
Q 966 3 703 97 
z
M 1959 2075 
Q 2384 2075 2632 2365 
Q 2881 2656 2881 3163 
Q 2881 3666 2632 3958 
Q 2384 4250 1959 4250 
Q 1534 4250 1286 3958 
Q 1038 3666 1038 3163 
Q 1038 2656 1286 2365 
Q 1534 2075 1959 2075 
z
" transform="scale(0.015625)"/>
       </defs>
       <use xlink:href="#DejaVuSans-39"/>
       <use xlink:href="#DejaVuSans-30" x="63.623047"/>
      </g>
     </g>
    </g>
    <g id="text_21">
     <!-- Accuracy -->
     <g transform="translate(31.795312 197.356125) rotate(-90) scale(0.1 -0.1)">
      <defs>
       <path id="DejaVuSans-41" d="M 2188 4044 
L 1331 1722 
L 3047 1722 
L 2188 4044 
z
M 1831 4666 
L 2547 4666 
L 4325 0 
L 3669 0 
L 3244 1197 
L 1141 1197 
L 716 0 
L 50 0 
L 1831 4666 
z
" transform="scale(0.015625)"/>
       <path id="DejaVuSans-75" d="M 544 1381 
L 544 3500 
L 1119 3500 
L 1119 1403 
Q 1119 906 1312 657 
Q 1506 409 1894 409 
Q 2359 409 2629 706 
Q 2900 1003 2900 1516 
L 2900 3500 
L 3475 3500 
L 3475 0 
L 2900 0 
L 2900 538 
Q 2691 219 2414 64 
Q 2138 -91 1772 -91 
Q 1169 -91 856 284 
Q 544 659 544 1381 
z
M 1991 3584 
L 1991 3584 
z
" transform="scale(0.015625)"/>
       <path id="DejaVuSans-72" d="M 2631 2963 
Q 2534 3019 2420 3045 
Q 2306 3072 2169 3072 
Q 1681 3072 1420 2755 
Q 1159 2438 1159 1844 
L 1159 0 
L 581 0 
L 581 3500 
L 1159 3500 
L 1159 2956 
Q 1341 3275 1631 3429 
Q 1922 3584 2338 3584 
Q 2397 3584 2469 3576 
Q 2541 3569 2628 3553 
L 2631 2963 
z
" transform="scale(0.015625)"/>
       <path id="DejaVuSans-61" d="M 2194 1759 
Q 1497 1759 1228 1600 
Q 959 1441 959 1056 
Q 959 750 1161 570 
Q 1363 391 1709 391 
Q 2188 391 2477 730 
Q 2766 1069 2766 1631 
L 2766 1759 
L 2194 1759 
z
M 3341 1997 
L 3341 0 
L 2766 0 
L 2766 531 
Q 2569 213 2275 61 
Q 1981 -91 1556 -91 
Q 1019 -91 701 211 
Q 384 513 384 1019 
Q 384 1609 779 1909 
Q 1175 2209 1959 2209 
L 2766 2209 
L 2766 2266 
Q 2766 2663 2505 2880 
Q 2244 3097 1772 3097 
Q 1472 3097 1187 3025 
Q 903 2953 641 2809 
L 641 3341 
Q 956 3463 1253 3523 
Q 1550 3584 1831 3584 
Q 2591 3584 2966 3190 
Q 3341 2797 3341 1997 
z
" transform="scale(0.015625)"/>
       <path id="DejaVuSans-79" d="M 2059 -325 
Q 1816 -950 1584 -1140 
Q 1353 -1331 966 -1331 
L 506 -1331 
L 506 -850 
L 844 -850 
Q 1081 -850 1212 -737 
Q 1344 -625 1503 -206 
L 1606 56 
L 191 3500 
L 800 3500 
L 1894 763 
L 2988 3500 
L 3597 3500 
L 2059 -325 
z
" transform="scale(0.015625)"/>
      </defs>
      <use xlink:href="#DejaVuSans-41"/>
      <use xlink:href="#DejaVuSans-63" x="66.658203"/>
      <use xlink:href="#DejaVuSans-63" x="121.638672"/>
      <use xlink:href="#DejaVuSans-75" x="176.619141"/>
      <use xlink:href="#DejaVuSans-72" x="239.998047"/>
      <use xlink:href="#DejaVuSans-61" x="281.111328"/>
      <use xlink:href="#DejaVuSans-63" x="342.390625"/>
      <use xlink:href="#DejaVuSans-79" x="397.371094"/>
     </g>
    </g>
   </g>
   <g id="line2d_20">
    <path d="M 73.832727 295.488 
L 74.918528 246.825444 
L 76.00433 204.793736 
L 77.090131 178.100786 
L 78.175932 158.63213 
L 80.347534 134.54913 
L 82.519137 121.323767 
L 83.604938 115.867699 
L 86.862341 103.157058 
L 90.119745 91.869477 
L 91.205546 90.924808 
L 92.291347 89.362471 
L 93.377148 87.303577 
L 94.462949 86.909965 
L 95.54875 113.082137 
L 96.634552 111.168577 
L 97.720353 108.800849 
L 98.806154 107.244568 
L 99.891955 104.34395 
L 100.977756 103.290281 
L 102.063557 100.94072 
L 103.149358 99.850717 
L 104.23516 97.676768 
L 105.320961 95.902486 
L 106.406762 94.455205 
L 107.492563 92.717257 
L 108.578364 90.343473 
L 109.664165 88.974915 
L 110.749967 88.702414 
L 111.835768 86.189353 
L 112.921569 85.850241 
L 114.00737 84.439293 
L 116.178972 82.22901 
L 117.264773 80.721173 
L 118.350575 80.248839 
L 119.436376 78.177834 
L 120.522177 76.869831 
L 122.693779 74.483937 
L 123.77958 73.866269 
L 124.865382 72.285765 
L 125.951183 71.643875 
L 127.036984 70.632595 
L 128.122785 68.700868 
L 129.208586 69.73637 
L 130.294387 69.221647 
L 131.380189 67.404976 
L 132.46599 67.798588 
L 133.551791 66.381585 
L 134.637592 66.866031 
L 135.723393 66.036418 
L 136.809194 65.679139 
L 137.894995 66.181751 
L 138.980797 86.086408 
L 140.066598 88.012079 
L 142.2382 87.551856 
L 143.324001 86.819132 
L 144.409802 87.473133 
L 145.495604 86.994743 
L 146.581405 86.195408 
L 147.667206 84.760238 
L 148.753007 85.117517 
L 149.838808 84.760238 
L 153.096212 82.144232 
L 155.267814 81.042119 
L 157.439416 80.254895 
L 158.525217 79.770449 
L 160.69682 78.45639 
L 161.782621 79.237559 
L 163.954223 76.821387 
L 165.040024 77.196832 
L 166.125825 75.991774 
L 167.211627 76.464108 
L 168.297428 75.62844 
L 169.383229 74.980494 
L 170.46903 75.579995 
L 172.640632 73.599824 
L 173.726434 73.000322 
L 174.812235 72.8126 
L 175.898036 71.54093 
L 176.983837 71.958764 
L 178.069638 71.244207 
L 179.155439 71.468263 
L 180.24124 71.226041 
L 181.327042 70.057316 
L 182.412843 69.324592 
L 183.498644 68.228534 
L 184.584445 68.131645 
L 185.670246 68.949146 
L 186.756047 68.519201 
L 187.841849 67.253587 
L 188.92765 66.914475 
L 190.013451 66.393696 
L 191.099252 65.255249 
L 192.185053 65.824473 
L 193.270854 65.188638 
L 194.356656 63.868524 
L 195.442457 63.953302 
L 196.528258 63.735301 
L 197.614059 62.584743 
L 198.69986 63.117633 
L 199.785661 62.23352 
L 200.871462 61.137462 
L 201.957264 61.464463 
L 203.043065 60.017181 
L 204.128866 60.973961 
L 205.214667 59.829459 
L 206.300468 59.986904 
L 207.386269 58.727345 
L 209.557872 58.77579 
L 210.643673 58.273177 
L 211.729474 58.370067 
L 212.815275 58.103622 
L 213.901076 57.691843 
L 214.986877 57.473842 
L 217.15848 57.274009 
L 218.244281 56.517062 
L 219.330082 56.129506 
L 220.415883 56.65634 
L 223.673287 56.27484 
L 224.759088 56.232451 
L 225.844889 75.906996 
L 226.93069 78.226279 
L 228.016491 78.777336 
L 229.102292 79.08617 
L 230.188094 78.837891 
L 231.273895 78.922669 
L 232.359696 78.613835 
L 233.445497 77.7055 
L 234.531298 77.396666 
L 235.617099 77.747889 
L 236.702901 77.941667 
L 237.788702 77.741833 
L 238.874503 76.246108 
L 239.960304 76.573108 
L 242.131906 76.718442 
L 244.303509 75.731384 
L 245.38931 76.015996 
L 246.475111 75.47705 
L 247.560912 76.137107 
L 248.646713 74.350714 
L 249.732514 75.047105 
L 250.818316 74.683771 
L 251.904117 75.059216 
L 252.989918 73.957102 
L 254.075719 74.78066 
L 256.247321 74.308325 
L 257.333123 73.496879 
L 258.418924 73.048767 
L 259.504725 72.291821 
L 260.590526 73.387879 
L 261.676327 72.963989 
L 262.762128 73.545324 
L 263.847929 73.012434 
L 264.933731 72.243376 
L 266.019532 72.031431 
L 267.105333 71.989042 
L 268.191134 71.789209 
L 269.276935 71.861875 
L 270.362736 71.577264 
L 272.534339 71.359263 
L 273.62014 70.47515 
L 275.791742 70.323761 
L 276.877543 70.47515 
L 277.963344 70.093649 
L 280.134947 70.63865 
L 281.220748 70.093649 
L 282.306549 68.694813 
L 284.478151 69.506259 
L 287.735555 68.537368 
L 288.821356 68.676646 
L 289.907157 68.392034 
L 290.992958 67.429198 
L 292.07876 67.338365 
L 293.164561 68.149811 
L 294.250362 67.186976 
L 295.336163 67.55031 
L 296.421964 67.538199 
L 297.507765 67.302032 
L 298.593566 67.223309 
L 299.679368 66.393696 
L 300.765169 65.794195 
L 301.85097 65.848695 
L 302.936771 66.181751 
L 304.022572 65.994029 
L 305.108373 65.188638 
L 306.194175 65.000915 
L 307.279976 65.588305 
L 309.451578 64.825304 
L 310.537379 64.231858 
L 311.62318 64.492247 
L 312.708981 63.632356 
L 313.794783 64.437747 
L 314.880584 63.123689 
L 315.966385 63.069188 
L 317.052186 63.977524 
L 318.137987 63.789801 
L 319.223788 62.063964 
L 320.30959 62.990466 
L 322.481192 61.894408 
L 323.566993 62.063964 
L 324.652794 61.870186 
L 325.738595 61.325184 
L 326.824396 60.471349 
L 327.910198 61.107184 
L 328.995999 60.410793 
L 330.0818 60.568238 
L 333.339203 59.744681 
L 334.425005 59.774959 
L 335.510806 59.605403 
L 336.596607 59.024068 
L 337.682408 58.727345 
L 338.768209 58.588067 
L 339.85401 59.090679 
L 340.939811 58.648623 
L 342.025613 58.333733 
L 343.111414 57.691843 
L 344.197215 57.619176 
L 345.283016 57.086286 
L 346.368817 57.576787 
L 347.454618 56.831952 
L 351.797823 56.01445 
L 352.883624 56.153728 
L 353.969425 55.433115 
L 355.055227 55.832783 
L 356.141028 56.359618 
L 357.226829 55.511838 
L 358.31263 54.918392 
L 359.398431 53.689111 
L 360.484232 55.269615 
L 361.570033 54.760947 
L 362.655835 54.803336 
L 363.741636 53.725445 
L 364.827437 53.943445 
L 365.913238 53.725445 
L 366.999039 54.076668 
L 368.08484 53.568 
L 369.170642 54.555058 
L 370.256443 54.446058 
L 372.428045 56.280895 
L 373.513846 56.093172 
L 374.599647 56.020506 
L 375.685448 56.184006 
L 376.77125 56.135561 
L 377.857051 56.795619 
L 378.942852 56.402007 
L 381.114454 56.638174 
L 383.286057 55.90545 
L 384.371858 56.184006 
L 385.457659 56.347506 
L 386.54346 55.354393 
L 387.629261 56.184006 
L 388.715062 56.777452 
L 389.800863 56.523118 
L 390.886665 56.674507 
L 391.972466 57.074175 
L 393.058267 56.765341 
L 394.144068 57.007563 
L 395.229869 55.596616 
L 396.31567 56.414118 
L 397.401472 56.341451 
L 398.487273 56.49284 
L 398.487273 56.49284 
" clip-path="url(#pf4cdc50493)" style="fill: none; stroke: #1f77b4; stroke-width: 1.5; stroke-linecap: square"/>
   </g>
   <g id="line2d_21">
    <path d="M 73.832727 276.836846 
L 74.918528 254.794573 
L 76.00433 227.362844 
L 77.090131 215.675594 
L 78.175932 207.318909 
L 80.347534 175.920781 
L 82.519137 170.622158 
L 83.604938 160.32769 
L 84.690739 156.24018 
L 85.77654 154.484065 
L 87.948142 143.795985 
L 89.033943 144.340986 
L 90.119745 140.828756 
L 91.205546 139.557086 
L 92.291347 137.528471 
L 93.377148 136.317357 
L 94.462949 136.680691 
L 95.54875 166.262148 
L 96.634552 163.234363 
L 97.720353 157.996295 
L 98.806154 156.936571 
L 99.891955 152.788506 
L 100.977756 156.421847 
L 102.063557 151.668225 
L 103.149358 150.941557 
L 104.23516 150.699334 
L 105.320961 145.945712 
L 106.406762 144.159319 
L 107.492563 139.193752 
L 108.578364 140.677367 
L 109.664165 138.10375 
L 110.749967 136.922914 
L 111.835768 134.742909 
L 112.921569 138.224861 
L 114.00737 132.169292 
L 115.093171 132.078458 
L 116.178972 129.686508 
L 117.264773 128.11206 
L 118.350575 129.141507 
L 119.436376 126.537612 
L 120.522177 128.051504 
L 121.607978 125.44761 
L 122.693779 124.720941 
L 123.77958 123.418994 
L 124.865382 119.81593 
L 125.951183 118.998428 
L 127.036984 120.058153 
L 129.208586 117.272591 
L 130.294387 116.969812 
L 132.46599 116.818423 
L 133.551791 116.364255 
L 134.637592 115.45592 
L 135.723393 115.304531 
L 137.894995 115.637587 
L 138.980797 140.041532 
L 140.066598 138.860696 
L 141.152399 137.407359 
L 142.2382 138.921252 
L 143.324001 136.953191 
L 144.409802 138.224861 
L 145.495604 132.562904 
L 146.581405 131.170123 
L 147.667206 136.165967 
L 148.753007 133.834573 
L 149.838808 133.410683 
L 150.924609 131.472901 
L 152.01041 136.771524 
L 153.096212 136.226523 
L 154.182013 130.655399 
L 155.267814 133.410683 
L 156.353615 130.473732 
L 157.439416 131.018733 
L 158.525217 129.837897 
L 159.611019 135.7118 
L 160.69682 127.718448 
L 161.782621 129.716786 
L 162.868422 127.960671 
L 163.954223 129.535119 
L 165.040024 128.899284 
L 166.125825 126.416501 
L 167.211627 127.779004 
L 168.297428 127.506503 
L 169.383229 124.569552 
L 170.46903 126.56789 
L 171.554831 122.843715 
L 172.640632 124.357607 
L 173.726434 125.053997 
L 174.812235 123.479549 
L 175.898036 119.240651 
L 176.983837 122.056491 
L 178.069638 122.147324 
L 179.155439 120.724265 
L 180.24124 116.848701 
L 181.327042 119.967319 
L 182.412843 121.753712 
L 183.498644 119.028706 
L 184.584445 118.937872 
L 185.670246 116.606478 
L 186.756047 117.060646 
L 187.841849 117.090924 
L 188.92765 114.365917 
L 190.013451 117.00009 
L 191.099252 114.941196 
L 192.185053 113.972305 
L 193.270854 116.606478 
L 194.356656 115.304531 
L 195.442457 114.517307 
L 197.614059 111.09591 
L 198.69986 110.338964 
L 199.785661 111.005076 
L 200.871462 109.612295 
L 201.957264 110.157297 
L 203.043065 109.733407 
L 204.128866 107.523124 
L 205.214667 108.492015 
L 206.300468 108.673682 
L 207.386269 109.763685 
L 208.472071 107.644235 
L 209.557872 106.978123 
L 210.643673 105.676175 
L 211.729474 108.461737 
L 212.815275 106.523955 
L 213.901076 105.494508 
L 214.986877 105.857842 
L 216.072679 105.373397 
L 217.15848 106.523955 
L 218.244281 105.978954 
L 219.330082 105.736731 
L 220.415883 106.069787 
L 221.501684 104.707284 
L 222.587486 105.433952 
L 223.673287 105.403675 
L 224.759088 105.19173 
L 225.844889 131.260956 
L 226.93069 131.836235 
L 228.016491 132.199569 
L 229.102292 128.384561 
L 230.188094 129.504841 
L 231.273895 131.715124 
L 232.359696 127.082613 
L 233.445497 132.744571 
L 234.531298 132.593181 
L 235.617099 128.566228 
L 236.702901 127.839559 
L 237.788702 129.837897 
L 238.874503 129.65623 
L 239.960304 126.931224 
L 241.046105 132.623459 
L 242.131906 129.535119 
L 243.217708 129.23234 
L 244.303509 129.777342 
L 245.38931 127.809282 
L 247.560912 131.684846 
L 248.646713 127.324836 
L 249.732514 127.234003 
L 250.818316 126.628446 
L 251.904117 126.446778 
L 255.16152 124.115384 
L 256.247321 126.56789 
L 257.333123 130.958178 
L 258.418924 124.59983 
L 259.504725 125.659554 
L 260.590526 122.298713 
L 261.676327 125.265942 
L 262.762128 121.995935 
L 263.847929 127.536781 
L 264.933731 123.388716 
L 266.019532 126.446778 
L 267.105333 124.539274 
L 268.191134 123.540105 
L 269.276935 122.995104 
L 270.362736 119.210373 
L 271.448538 122.419825 
L 272.534339 120.482043 
L 273.62014 125.44761 
L 274.705941 120.330653 
L 275.791742 123.237327 
L 276.877543 120.027875 
L 277.963344 122.147324 
L 279.049146 119.876486 
L 280.134947 121.511489 
L 281.220748 124.720941 
L 282.306549 125.326498 
L 284.478151 121.602323 
L 285.563953 126.113722 
L 286.649754 119.210373 
L 287.735555 121.632601 
L 288.821356 123.267605 
L 289.907157 119.937041 
L 290.992958 116.061477 
L 292.07876 115.304531 
L 293.164561 116.182588 
L 294.250362 120.875655 
L 295.336163 118.453427 
L 296.421964 116.757867 
L 297.507765 120.360931 
L 298.593566 116.757867 
L 299.679368 115.243975 
L 300.765169 118.27176 
L 301.85097 113.699805 
L 304.022572 122.540936 
L 305.108373 114.456751 
L 306.194175 114.638418 
L 307.279976 116.667034 
L 308.365777 115.122864 
L 309.451578 113.033692 
L 310.537379 115.819254 
L 311.62318 117.121202 
L 312.708981 113.185081 
L 313.794783 113.881472 
L 314.880584 114.759529 
L 315.966385 110.793131 
L 317.052186 112.034523 
L 318.137987 112.882303 
L 319.223788 114.365917 
L 320.30959 113.245637 
L 321.395391 113.336471 
L 322.481192 111.217021 
L 323.566993 116.364255 
L 324.652794 109.703129 
L 325.738595 110.399519 
L 326.824396 112.852025 
L 327.910198 111.489522 
L 328.995999 113.548416 
L 330.0818 110.460075 
L 331.167601 109.188406 
L 332.253402 109.248961 
L 333.339203 109.854518 
L 334.425005 109.037016 
L 335.510806 110.732576 
L 336.596607 107.704791 
L 337.682408 108.976461 
L 338.768209 105.918398 
L 339.85401 109.12785 
L 340.939811 105.010063 
L 342.025613 105.524786 
L 343.111414 106.31201 
L 344.197215 106.614788 
L 345.283016 105.161452 
L 346.368817 105.676175 
L 347.454618 103.980616 
L 348.54042 105.88812 
L 349.626221 105.948676 
L 350.712022 105.343119 
L 351.797823 104.919229 
L 352.883624 104.949507 
L 353.969425 102.981447 
L 355.055227 102.315334 
L 356.141028 103.708115 
L 357.226829 102.951169 
L 358.31263 100.952831 
L 359.398431 102.315334 
L 360.484232 102.315334 
L 361.570033 101.134498 
L 362.655835 102.830058 
L 363.741636 102.557557 
L 364.827437 102.951169 
L 365.913238 102.012556 
L 366.999039 100.589497 
L 368.08484 103.375059 
L 369.170642 103.011725 
L 370.256443 101.316165 
L 371.342244 105.131174 
L 372.428045 103.617282 
L 374.599647 105.524786 
L 375.685448 103.92006 
L 376.77125 106.947845 
L 377.857051 104.76784 
L 378.942852 104.434783 
L 380.028653 104.586173 
L 381.114454 106.826733 
L 382.200255 106.7359 
L 383.286057 104.979785 
L 384.371858 105.978954 
L 385.457659 105.161452 
L 386.54346 106.947845 
L 387.629261 106.493677 
L 388.715062 108.522293 
L 389.800863 106.130343 
L 390.886665 106.069787 
L 391.972466 106.614788 
L 393.058267 105.61562 
L 394.144068 108.28007 
L 395.229869 106.493677 
L 396.31567 105.373397 
L 397.401472 102.890613 
L 398.487273 106.796456 
L 398.487273 106.796456 
" clip-path="url(#pf4cdc50493)" style="fill: none; stroke: #ff7f0e; stroke-width: 1.5; stroke-linecap: square"/>
   </g>
   <g id="line2d_22">
    <path d="M 73.832727 292.309734 
L 74.918528 281.305554 
L 76.00433 261.217716 
L 77.090131 266.542378 
L 78.175932 240.336296 
L 79.261733 240.775022 
L 80.347534 221.647597 
L 81.433335 226.324919 
L 82.519137 224.570923 
L 84.690739 202.583151 
L 85.77654 206.216492 
L 86.862341 213.921599 
L 87.948142 199.492691 
L 89.033943 200.620238 
L 90.119745 198.19801 
L 91.205546 199.012484 
L 92.291347 198.260685 
L 93.377148 195.086658 
L 94.462949 195.149333 
L 95.54875 207.594437 
L 96.634552 209.995773 
L 97.720353 215.571136 
L 98.806154 212.084036 
L 99.891955 204.754678 
L 100.977756 212.25117 
L 102.063557 203.188707 
L 103.149358 204.337146 
L 104.23516 209.849834 
L 105.320961 197.655128 
L 106.406762 201.434712 
L 107.492563 201.497084 
L 108.578364 195.483298 
L 109.664165 192.727106 
L 110.749967 194.313968 
L 111.835768 192.643539 
L 112.921569 189.594862 
L 114.00737 191.160833 
L 115.093171 185.982412 
L 116.178972 186.045088 
L 117.264773 182.537096 
L 118.350575 188.571774 
L 119.436376 180.991715 
L 120.522177 184.562381 
L 121.607978 180.219327 
L 122.693779 179.989518 
L 123.77958 175.312196 
L 124.865382 176.209934 
L 127.036984 175.583486 
L 128.122785 176.293501 
L 129.208586 175.625269 
L 130.294387 175.103279 
L 131.380189 171.720638 
L 132.46599 171.720638 
L 133.551791 168.776117 
L 134.637592 170.196148 
L 135.723393 170.488632 
L 136.809194 170.384174 
L 137.894995 170.780814 
L 138.980797 187.590166 
L 141.152399 188.634449 
L 142.2382 187.047284 
L 143.324001 191.348858 
L 144.409802 190.200419 
L 145.495604 184.39555 
L 146.581405 182.161045 
L 147.667206 186.734211 
L 148.753007 183.789993 
L 149.838808 189.177331 
L 150.924609 188.216615 
L 152.01041 190.158636 
L 153.096212 189.156439 
L 154.182013 180.219327 
L 155.267814 179.070585 
L 156.353615 177.212434 
L 157.439416 189.177331 
L 158.525217 182.703927 
L 159.611019 184.79219 
L 160.69682 177.755316 
L 161.782621 185.418639 
L 162.868422 178.861971 
L 163.954223 182.411746 
L 165.040024 189.093764 
L 166.125825 178.715729 
L 167.211627 182.891953 
L 168.297428 183.142653 
L 169.383229 178.193739 
L 170.46903 183.560185 
L 171.554831 178.715729 
L 172.640632 174.727531 
L 173.726434 183.935933 
L 174.812235 179.467528 
L 175.898036 170.279715 
L 176.983837 175.959537 
L 178.069638 173.140366 
L 179.155439 177.149759 
L 180.24124 171.156864 
L 181.327042 170.843489 
L 182.412843 186.483511 
L 183.498644 172.075494 
L 184.584445 179.321286 
L 185.670246 170.697247 
L 186.756047 172.701943 
L 187.841849 172.555701 
L 188.92765 170.405066 
L 190.013451 169.381674 
L 191.099252 169.235735 
L 192.185053 169.527916 
L 193.270854 171.574396 
L 194.356656 168.463044 
L 195.442457 170.300607 
L 197.614059 170.843489 
L 198.69986 170.446849 
L 199.785661 167.481739 
L 200.871462 162.99214 
L 201.957264 165.456151 
L 204.128866 161.593001 
L 205.214667 162.449258 
L 206.300468 167.64857 
L 207.386269 163.493239 
L 208.472071 162.491042 
L 209.557872 162.887682 
L 210.643673 161.175469 
L 211.729474 165.873683 
L 212.815275 165.309909 
L 213.901076 162.532825 
L 214.986877 163.827506 
L 216.072679 161.634784 
L 217.15848 161.969052 
L 218.244281 160.674371 
L 219.330082 161.969052 
L 220.415883 161.34252 
L 221.501684 160.068762 
L 222.587486 160.52815 
L 223.673287 161.530451 
L 224.759088 161.697501 
L 225.844889 183.246976 
L 226.93069 185.063647 
L 228.016491 181.534711 
L 229.102292 180.574173 
L 230.188094 177.483744 
L 231.273895 181.659999 
L 232.359696 178.632214 
L 233.445497 183.497551 
L 234.531298 190.388372 
L 235.617099 191.474198 
L 236.702901 189.239902 
L 237.788702 183.372264 
L 238.874503 179.676278 
L 239.960304 181.931456 
L 241.046105 180.260954 
L 242.131906 182.49525 
L 243.217708 181.01268 
L 244.303509 193.541444 
L 245.38931 176.168224 
L 246.475111 182.432606 
L 247.560912 183.894295 
L 248.646713 179.133365 
L 249.732514 180.574173 
L 250.818316 188.529938 
L 251.904117 189.093733 
L 252.989918 193.332631 
L 254.075719 175.667073 
L 255.16152 174.268028 
L 256.247321 189.05197 
L 257.333123 177.358457 
L 258.418924 179.801566 
L 259.504725 176.042936 
L 260.590526 177.149644 
L 261.676327 180.240073 
L 262.762128 174.288909 
L 263.847929 176.001174 
L 264.933731 177.984895 
L 266.019532 174.163622 
L 267.105333 182.140268 
L 268.191134 174.852704 
L 269.276935 181.9941 
L 271.448538 171.991969 
L 272.534339 175.207685 
L 273.62014 175.082398 
L 274.705941 174.393316 
L 275.791742 177.358457 
L 276.877543 175.103279 
L 277.963344 183.205213 
L 279.049146 186.608861 
L 280.134947 182.098506 
L 281.220748 178.632214 
L 282.306549 182.035862 
L 283.39235 180.36536 
L 284.478151 177.441982 
L 285.563953 182.975519 
L 286.649754 170.070892 
L 287.735555 185.355985 
L 288.821356 181.054442 
L 289.907157 178.298114 
L 290.992958 166.792532 
L 292.07876 173.349252 
L 293.164561 169.298285 
L 294.250362 182.871113 
L 295.336163 170.822618 
L 296.421964 176.209987 
L 297.507765 170.885262 
L 298.593566 170.739093 
L 299.679368 171.657869 
L 300.765169 174.643891 
L 301.85097 170.780855 
L 302.936771 175.520905 
L 304.022572 175.228567 
L 305.108373 168.546559 
L 306.194175 167.857477 
L 308.365777 177.73432 
L 309.451578 173.913046 
L 310.537379 175.708836 
L 311.62318 173.745996 
L 312.708981 169.966486 
L 313.794783 170.217061 
L 314.880584 176.27263 
L 315.966385 163.284478 
L 317.052186 162.82509 
L 318.137987 170.780855 
L 319.223788 170.19618 
L 320.30959 168.692728 
L 321.395391 167.961883 
L 322.481192 171.866682 
L 323.566993 171.553463 
L 324.652794 164.015323 
L 325.738595 174.080097 
L 326.824396 167.25192 
L 327.910198 168.212459 
L 328.995999 176.523206 
L 330.0818 173.349252 
L 331.167601 164.245017 
L 332.253402 167.398089 
L 333.339203 169.945604 
L 334.425005 170.425874 
L 335.510806 171.762275 
L 336.596607 164.245017 
L 337.682408 162.470108 
L 338.768209 164.182373 
L 339.85401 166.124331 
L 342.025613 157.709178 
L 343.111414 159.463205 
L 344.197215 165.017624 
L 345.283016 161.906314 
L 346.368817 166.124331 
L 347.454618 160.799606 
L 348.54042 166.938701 
L 349.626221 165.226436 
L 350.712022 168.024527 
L 351.797823 164.725286 
L 352.883624 160.089643 
L 353.969425 162.678921 
L 355.055227 164.245017 
L 356.141028 158.669716 
L 357.226829 158.857648 
L 358.31263 154.764918 
L 359.398431 158.39826 
L 360.484232 159.797305 
L 361.570033 158.962054 
L 362.655835 161.426045 
L 363.741636 157.542128 
L 364.827437 161.112826 
L 365.913238 160.319337 
L 366.999039 164.077966 
L 368.08484 164.746167 
L 369.170642 158.56531 
L 370.256443 156.832164 
L 371.342244 158.168566 
L 372.428045 156.539827 
L 373.513846 157.542128 
L 374.599647 160.235812 
L 375.685448 159.776424 
L 376.77125 160.194049 
L 377.857051 161.133707 
L 378.942852 159.275273 
L 380.028653 165.205555 
L 381.114454 169.256522 
L 382.200255 165.309962 
L 383.286057 158.314735 
L 384.371858 167.043107 
L 385.457659 164.161492 
L 386.54346 165.059386 
L 388.715062 160.716081 
L 389.800863 163.931798 
L 390.886665 166.312263 
L 391.972466 159.567611 
L 393.058267 161.697501 
L 394.144068 165.330843 
L 395.229869 160.131406 
L 396.31567 156.393658 
L 397.401472 160.716081 
L 398.487273 158.56531 
L 398.487273 158.56531 
" clip-path="url(#pf4cdc50493)" style="fill: none; stroke: #2ca02c; stroke-width: 1.5; stroke-linecap: square"/>
   </g>
   <g id="line2d_23">
    <path d="M 368.08484 100.074773 
L 369.170642 103.102558 
L 370.256443 100.650053 
L 371.342244 104.192561 
L 372.428045 104.798118 
L 373.513846 101.10422 
L 374.599647 103.314503 
L 375.685448 101.406999 
L 376.77125 102.012556 
L 377.857051 103.738393 
L 378.942852 101.740055 
L 380.028653 103.526448 
L 381.114454 104.162283 
L 382.200255 103.980616 
L 383.286057 101.52811 
L 384.371858 103.314503 
L 385.457659 101.195054 
L 386.54346 106.160621 
L 387.629261 101.740055 
L 388.715062 103.102558 
L 390.886665 103.980616 
L 391.972466 103.07228 
L 393.058267 104.76784 
L 394.144068 103.102558 
L 395.229869 104.253116 
L 396.31567 103.889782 
L 397.401472 108.431459 
L 398.487273 106.130343 
L 398.487273 106.130343 
" clip-path="url(#pf4cdc50493)" style="fill: none; stroke: #d62728; stroke-width: 1.5; stroke-linecap: square"/>
   </g>
   <g id="line2d_24">
    <path d="M 368.08484 162.303058 
L 369.170642 162.804209 
L 370.256443 161.196351 
L 371.342244 162.99214 
L 372.428045 156.665114 
L 373.513846 155.996913 
L 374.599647 160.423743 
L 375.685448 156.769521 
L 376.77125 161.279876 
L 377.857051 153.97143 
L 378.942852 153.094416 
L 380.028653 158.460904 
L 381.114454 159.964355 
L 382.200255 157.959753 
L 383.286057 160.402862 
L 384.371858 156.665114 
L 385.457659 150.776595 
L 386.54346 155.600169 
L 387.629261 150.839239 
L 388.715062 155.307831 
L 389.800863 158.669716 
L 390.886665 163.80651 
L 391.972466 153.762617 
L 393.058267 161.34252 
L 394.144068 154.994612 
L 395.229869 161.968958 
L 396.31567 158.293854 
L 397.401472 160.736963 
L 398.487273 158.23121 
L 398.487273 158.23121 
" clip-path="url(#pf4cdc50493)" style="fill: none; stroke: #9467bd; stroke-width: 1.5; stroke-linecap: square"/>
   </g>
   <g id="patch_3">
    <path d="M 57.6 307.584 
L 57.6 41.472 
" style="fill: none; stroke: #000000; stroke-width: 0.8; stroke-linejoin: miter; stroke-linecap: square"/>
   </g>
   <g id="patch_4">
    <path d="M 414.72 307.584 
L 414.72 41.472 
" style="fill: none; stroke: #000000; stroke-width: 0.8; stroke-linejoin: miter; stroke-linecap: square"/>
   </g>
   <g id="patch_5">
    <path d="M 57.6 307.584 
L 414.72 307.584 
" style="fill: none; stroke: #000000; stroke-width: 0.8; stroke-linejoin: miter; stroke-linecap: square"/>
   </g>
   <g id="patch_6">
    <path d="M 57.6 41.472 
L 414.72 41.472 
" style="fill: none; stroke: #000000; stroke-width: 0.8; stroke-linejoin: miter; stroke-linecap: square"/>
   </g>
   <g id="text_22">
    <!-- Learning Curves -->
    <g transform="translate(187.37625 35.472) scale(0.12 -0.12)">
     <defs>
      <path id="DejaVuSans-4c" d="M 628 4666 
L 1259 4666 
L 1259 531 
L 3531 531 
L 3531 0 
L 628 0 
L 628 4666 
z
" transform="scale(0.015625)"/>
      <path id="DejaVuSans-65" d="M 3597 1894 
L 3597 1613 
L 953 1613 
Q 991 1019 1311 708 
Q 1631 397 2203 397 
Q 2534 397 2845 478 
Q 3156 559 3463 722 
L 3463 178 
Q 3153 47 2828 -22 
Q 2503 -91 2169 -91 
Q 1331 -91 842 396 
Q 353 884 353 1716 
Q 353 2575 817 3079 
Q 1281 3584 2069 3584 
Q 2775 3584 3186 3129 
Q 3597 2675 3597 1894 
z
M 3022 2063 
Q 3016 2534 2758 2815 
Q 2500 3097 2075 3097 
Q 1594 3097 1305 2825 
Q 1016 2553 972 2059 
L 3022 2063 
z
" transform="scale(0.015625)"/>
      <path id="DejaVuSans-6e" d="M 3513 2113 
L 3513 0 
L 2938 0 
L 2938 2094 
Q 2938 2591 2744 2837 
Q 2550 3084 2163 3084 
Q 1697 3084 1428 2787 
Q 1159 2491 1159 1978 
L 1159 0 
L 581 0 
L 581 3500 
L 1159 3500 
L 1159 2956 
Q 1366 3272 1645 3428 
Q 1925 3584 2291 3584 
Q 2894 3584 3203 3211 
Q 3513 2838 3513 2113 
z
" transform="scale(0.015625)"/>
      <path id="DejaVuSans-69" d="M 603 3500 
L 1178 3500 
L 1178 0 
L 603 0 
L 603 3500 
z
M 603 4863 
L 1178 4863 
L 1178 4134 
L 603 4134 
L 603 4863 
z
" transform="scale(0.015625)"/>
      <path id="DejaVuSans-67" d="M 2906 1791 
Q 2906 2416 2648 2759 
Q 2391 3103 1925 3103 
Q 1463 3103 1205 2759 
Q 947 2416 947 1791 
Q 947 1169 1205 825 
Q 1463 481 1925 481 
Q 2391 481 2648 825 
Q 2906 1169 2906 1791 
z
M 3481 434 
Q 3481 -459 3084 -895 
Q 2688 -1331 1869 -1331 
Q 1566 -1331 1297 -1286 
Q 1028 -1241 775 -1147 
L 775 -588 
Q 1028 -725 1275 -790 
Q 1522 -856 1778 -856 
Q 2344 -856 2625 -561 
Q 2906 -266 2906 331 
L 2906 616 
Q 2728 306 2450 153 
Q 2172 0 1784 0 
Q 1141 0 747 490 
Q 353 981 353 1791 
Q 353 2603 747 3093 
Q 1141 3584 1784 3584 
Q 2172 3584 2450 3431 
Q 2728 3278 2906 2969 
L 2906 3500 
L 3481 3500 
L 3481 434 
z
" transform="scale(0.015625)"/>
      <path id="DejaVuSans-20" transform="scale(0.015625)"/>
      <path id="DejaVuSans-43" d="M 4122 4306 
L 4122 3641 
Q 3803 3938 3442 4084 
Q 3081 4231 2675 4231 
Q 1875 4231 1450 3742 
Q 1025 3253 1025 2328 
Q 1025 1406 1450 917 
Q 1875 428 2675 428 
Q 3081 428 3442 575 
Q 3803 722 4122 1019 
L 4122 359 
Q 3791 134 3420 21 
Q 3050 -91 2638 -91 
Q 1578 -91 968 557 
Q 359 1206 359 2328 
Q 359 3453 968 4101 
Q 1578 4750 2638 4750 
Q 3056 4750 3426 4639 
Q 3797 4528 4122 4306 
z
" transform="scale(0.015625)"/>
      <path id="DejaVuSans-76" d="M 191 3500 
L 800 3500 
L 1894 563 
L 2988 3500 
L 3597 3500 
L 2284 0 
L 1503 0 
L 191 3500 
z
" transform="scale(0.015625)"/>
     </defs>
     <use xlink:href="#DejaVuSans-4c"/>
     <use xlink:href="#DejaVuSans-65" x="53.962891"/>
     <use xlink:href="#DejaVuSans-61" x="115.486328"/>
     <use xlink:href="#DejaVuSans-72" x="176.765625"/>
     <use xlink:href="#DejaVuSans-6e" x="216.128906"/>
     <use xlink:href="#DejaVuSans-69" x="279.507812"/>
     <use xlink:href="#DejaVuSans-6e" x="307.291016"/>
     <use xlink:href="#DejaVuSans-67" x="370.669922"/>
     <use xlink:href="#DejaVuSans-20" x="434.146484"/>
     <use xlink:href="#DejaVuSans-43" x="465.933594"/>
     <use xlink:href="#DejaVuSans-75" x="535.757812"/>
     <use xlink:href="#DejaVuSans-72" x="599.136719"/>
     <use xlink:href="#DejaVuSans-76" x="640.25"/>
     <use xlink:href="#DejaVuSans-65" x="699.429688"/>
     <use xlink:href="#DejaVuSans-73" x="760.953125"/>
    </g>
   </g>
   <g id="legend_1">
    <g id="patch_7">
     <path d="M 214.18875 302.584 
L 407.72 302.584 
Q 409.72 302.584 409.72 300.584 
L 409.72 228.193375 
Q 409.72 226.193375 407.72 226.193375 
L 214.18875 226.193375 
Q 212.18875 226.193375 212.18875 228.193375 
L 212.18875 300.584 
Q 212.18875 302.584 214.18875 302.584 
z
" style="fill: #ffffff; opacity: 0.8; stroke: #cccccc; stroke-linejoin: miter"/>
    </g>
    <g id="line2d_25">
     <path d="M 216.18875 234.291812 
L 226.18875 234.291812 
L 236.18875 234.291812 
" style="fill: none; stroke: #1f77b4; stroke-width: 1.5; stroke-linecap: square"/>
    </g>
    <g id="text_23">
     <!-- Train Accuracy -->
     <g transform="translate(244.18875 237.791812) scale(0.1 -0.1)">
      <defs>
       <path id="DejaVuSans-54" d="M -19 4666 
L 3928 4666 
L 3928 4134 
L 2272 4134 
L 2272 0 
L 1638 0 
L 1638 4134 
L -19 4134 
L -19 4666 
z
" transform="scale(0.015625)"/>
      </defs>
      <use xlink:href="#DejaVuSans-54"/>
      <use xlink:href="#DejaVuSans-72" x="46.333984"/>
      <use xlink:href="#DejaVuSans-61" x="87.447266"/>
      <use xlink:href="#DejaVuSans-69" x="148.726562"/>
      <use xlink:href="#DejaVuSans-6e" x="176.509766"/>
      <use xlink:href="#DejaVuSans-20" x="239.888672"/>
      <use xlink:href="#DejaVuSans-41" x="271.675781"/>
      <use xlink:href="#DejaVuSans-63" x="338.333984"/>
      <use xlink:href="#DejaVuSans-63" x="393.314453"/>
      <use xlink:href="#DejaVuSans-75" x="448.294922"/>
      <use xlink:href="#DejaVuSans-72" x="511.673828"/>
      <use xlink:href="#DejaVuSans-61" x="552.787109"/>
      <use xlink:href="#DejaVuSans-63" x="614.066406"/>
      <use xlink:href="#DejaVuSans-79" x="669.046875"/>
     </g>
    </g>
    <g id="line2d_26">
     <path d="M 216.18875 248.969937 
L 226.18875 248.969937 
L 236.18875 248.969937 
" style="fill: none; stroke: #ff7f0e; stroke-width: 1.5; stroke-linecap: square"/>
    </g>
    <g id="text_24">
     <!-- Validation Accuracy -->
     <g transform="translate(244.18875 252.469937) scale(0.1 -0.1)">
      <defs>
       <path id="DejaVuSans-56" d="M 1831 0 
L 50 4666 
L 709 4666 
L 2188 738 
L 3669 4666 
L 4325 4666 
L 2547 0 
L 1831 0 
z
" transform="scale(0.015625)"/>
       <path id="DejaVuSans-6c" d="M 603 4863 
L 1178 4863 
L 1178 0 
L 603 0 
L 603 4863 
z
" transform="scale(0.015625)"/>
       <path id="DejaVuSans-64" d="M 2906 2969 
L 2906 4863 
L 3481 4863 
L 3481 0 
L 2906 0 
L 2906 525 
Q 2725 213 2448 61 
Q 2172 -91 1784 -91 
Q 1150 -91 751 415 
Q 353 922 353 1747 
Q 353 2572 751 3078 
Q 1150 3584 1784 3584 
Q 2172 3584 2448 3432 
Q 2725 3281 2906 2969 
z
M 947 1747 
Q 947 1113 1208 752 
Q 1469 391 1925 391 
Q 2381 391 2643 752 
Q 2906 1113 2906 1747 
Q 2906 2381 2643 2742 
Q 2381 3103 1925 3103 
Q 1469 3103 1208 2742 
Q 947 2381 947 1747 
z
" transform="scale(0.015625)"/>
       <path id="DejaVuSans-74" d="M 1172 4494 
L 1172 3500 
L 2356 3500 
L 2356 3053 
L 1172 3053 
L 1172 1153 
Q 1172 725 1289 603 
Q 1406 481 1766 481 
L 2356 481 
L 2356 0 
L 1766 0 
Q 1100 0 847 248 
Q 594 497 594 1153 
L 594 3053 
L 172 3053 
L 172 3500 
L 594 3500 
L 594 4494 
L 1172 4494 
z
" transform="scale(0.015625)"/>
      </defs>
      <use xlink:href="#DejaVuSans-56"/>
      <use xlink:href="#DejaVuSans-61" x="60.658203"/>
      <use xlink:href="#DejaVuSans-6c" x="121.9375"/>
      <use xlink:href="#DejaVuSans-69" x="149.720703"/>
      <use xlink:href="#DejaVuSans-64" x="177.503906"/>
      <use xlink:href="#DejaVuSans-61" x="240.980469"/>
      <use xlink:href="#DejaVuSans-74" x="302.259766"/>
      <use xlink:href="#DejaVuSans-69" x="341.46875"/>
      <use xlink:href="#DejaVuSans-6f" x="369.251953"/>
      <use xlink:href="#DejaVuSans-6e" x="430.433594"/>
      <use xlink:href="#DejaVuSans-20" x="493.8125"/>
      <use xlink:href="#DejaVuSans-41" x="525.599609"/>
      <use xlink:href="#DejaVuSans-63" x="592.257812"/>
      <use xlink:href="#DejaVuSans-63" x="647.238281"/>
      <use xlink:href="#DejaVuSans-75" x="702.21875"/>
      <use xlink:href="#DejaVuSans-72" x="765.597656"/>
      <use xlink:href="#DejaVuSans-61" x="806.710938"/>
      <use xlink:href="#DejaVuSans-63" x="867.990234"/>
      <use xlink:href="#DejaVuSans-79" x="922.970703"/>
     </g>
    </g>
    <g id="line2d_27">
     <path d="M 216.18875 263.648062 
L 226.18875 263.648062 
L 236.18875 263.648062 
" style="fill: none; stroke: #2ca02c; stroke-width: 1.5; stroke-linecap: square"/>
    </g>
    <g id="text_25">
     <!-- Robust Validation Accuracy -->
     <g transform="translate(244.18875 267.148062) scale(0.1 -0.1)">
      <defs>
       <path id="DejaVuSans-52" d="M 2841 2188 
Q 3044 2119 3236 1894 
Q 3428 1669 3622 1275 
L 4263 0 
L 3584 0 
L 2988 1197 
Q 2756 1666 2539 1819 
Q 2322 1972 1947 1972 
L 1259 1972 
L 1259 0 
L 628 0 
L 628 4666 
L 2053 4666 
Q 2853 4666 3247 4331 
Q 3641 3997 3641 3322 
Q 3641 2881 3436 2590 
Q 3231 2300 2841 2188 
z
M 1259 4147 
L 1259 2491 
L 2053 2491 
Q 2509 2491 2742 2702 
Q 2975 2913 2975 3322 
Q 2975 3731 2742 3939 
Q 2509 4147 2053 4147 
L 1259 4147 
z
" transform="scale(0.015625)"/>
       <path id="DejaVuSans-62" d="M 3116 1747 
Q 3116 2381 2855 2742 
Q 2594 3103 2138 3103 
Q 1681 3103 1420 2742 
Q 1159 2381 1159 1747 
Q 1159 1113 1420 752 
Q 1681 391 2138 391 
Q 2594 391 2855 752 
Q 3116 1113 3116 1747 
z
M 1159 2969 
Q 1341 3281 1617 3432 
Q 1894 3584 2278 3584 
Q 2916 3584 3314 3078 
Q 3713 2572 3713 1747 
Q 3713 922 3314 415 
Q 2916 -91 2278 -91 
Q 1894 -91 1617 61 
Q 1341 213 1159 525 
L 1159 0 
L 581 0 
L 581 4863 
L 1159 4863 
L 1159 2969 
z
" transform="scale(0.015625)"/>
      </defs>
      <use xlink:href="#DejaVuSans-52"/>
      <use xlink:href="#DejaVuSans-6f" x="64.982422"/>
      <use xlink:href="#DejaVuSans-62" x="126.164062"/>
      <use xlink:href="#DejaVuSans-75" x="189.640625"/>
      <use xlink:href="#DejaVuSans-73" x="253.019531"/>
      <use xlink:href="#DejaVuSans-74" x="305.119141"/>
      <use xlink:href="#DejaVuSans-20" x="344.328125"/>
      <use xlink:href="#DejaVuSans-56" x="376.115234"/>
      <use xlink:href="#DejaVuSans-61" x="436.773438"/>
      <use xlink:href="#DejaVuSans-6c" x="498.052734"/>
      <use xlink:href="#DejaVuSans-69" x="525.835938"/>
      <use xlink:href="#DejaVuSans-64" x="553.619141"/>
      <use xlink:href="#DejaVuSans-61" x="617.095703"/>
      <use xlink:href="#DejaVuSans-74" x="678.375"/>
      <use xlink:href="#DejaVuSans-69" x="717.583984"/>
      <use xlink:href="#DejaVuSans-6f" x="745.367188"/>
      <use xlink:href="#DejaVuSans-6e" x="806.548828"/>
      <use xlink:href="#DejaVuSans-20" x="869.927734"/>
      <use xlink:href="#DejaVuSans-41" x="901.714844"/>
      <use xlink:href="#DejaVuSans-63" x="968.373047"/>
      <use xlink:href="#DejaVuSans-63" x="1023.353516"/>
      <use xlink:href="#DejaVuSans-75" x="1078.333984"/>
      <use xlink:href="#DejaVuSans-72" x="1141.712891"/>
      <use xlink:href="#DejaVuSans-61" x="1182.826172"/>
      <use xlink:href="#DejaVuSans-63" x="1244.105469"/>
      <use xlink:href="#DejaVuSans-79" x="1299.085938"/>
     </g>
    </g>
    <g id="line2d_28">
     <path d="M 216.18875 278.326188 
L 226.18875 278.326188 
L 236.18875 278.326188 
" style="fill: none; stroke: #d62728; stroke-width: 1.5; stroke-linecap: square"/>
    </g>
    <g id="text_26">
     <!-- SWA Validation Accuracy -->
     <g transform="translate(244.18875 281.826188) scale(0.1 -0.1)">
      <defs>
       <path id="DejaVuSans-53" d="M 3425 4513 
L 3425 3897 
Q 3066 4069 2747 4153 
Q 2428 4238 2131 4238 
Q 1616 4238 1336 4038 
Q 1056 3838 1056 3469 
Q 1056 3159 1242 3001 
Q 1428 2844 1947 2747 
L 2328 2669 
Q 3034 2534 3370 2195 
Q 3706 1856 3706 1288 
Q 3706 609 3251 259 
Q 2797 -91 1919 -91 
Q 1588 -91 1214 -16 
Q 841 59 441 206 
L 441 856 
Q 825 641 1194 531 
Q 1563 422 1919 422 
Q 2459 422 2753 634 
Q 3047 847 3047 1241 
Q 3047 1584 2836 1778 
Q 2625 1972 2144 2069 
L 1759 2144 
Q 1053 2284 737 2584 
Q 422 2884 422 3419 
Q 422 4038 858 4394 
Q 1294 4750 2059 4750 
Q 2388 4750 2728 4690 
Q 3069 4631 3425 4513 
z
" transform="scale(0.015625)"/>
       <path id="DejaVuSans-57" d="M 213 4666 
L 850 4666 
L 1831 722 
L 2809 4666 
L 3519 4666 
L 4500 722 
L 5478 4666 
L 6119 4666 
L 4947 0 
L 4153 0 
L 3169 4050 
L 2175 0 
L 1381 0 
L 213 4666 
z
" transform="scale(0.015625)"/>
      </defs>
      <use xlink:href="#DejaVuSans-53"/>
      <use xlink:href="#DejaVuSans-57" x="63.476562"/>
      <use xlink:href="#DejaVuSans-41" x="156.853516"/>
      <use xlink:href="#DejaVuSans-20" x="225.261719"/>
      <use xlink:href="#DejaVuSans-56" x="257.048828"/>
      <use xlink:href="#DejaVuSans-61" x="317.707031"/>
      <use xlink:href="#DejaVuSans-6c" x="378.986328"/>
      <use xlink:href="#DejaVuSans-69" x="406.769531"/>
      <use xlink:href="#DejaVuSans-64" x="434.552734"/>
      <use xlink:href="#DejaVuSans-61" x="498.029297"/>
      <use xlink:href="#DejaVuSans-74" x="559.308594"/>
      <use xlink:href="#DejaVuSans-69" x="598.517578"/>
      <use xlink:href="#DejaVuSans-6f" x="626.300781"/>
      <use xlink:href="#DejaVuSans-6e" x="687.482422"/>
      <use xlink:href="#DejaVuSans-20" x="750.861328"/>
      <use xlink:href="#DejaVuSans-41" x="782.648438"/>
      <use xlink:href="#DejaVuSans-63" x="849.306641"/>
      <use xlink:href="#DejaVuSans-63" x="904.287109"/>
      <use xlink:href="#DejaVuSans-75" x="959.267578"/>
      <use xlink:href="#DejaVuSans-72" x="1022.646484"/>
      <use xlink:href="#DejaVuSans-61" x="1063.759766"/>
      <use xlink:href="#DejaVuSans-63" x="1125.039062"/>
      <use xlink:href="#DejaVuSans-79" x="1180.019531"/>
     </g>
    </g>
    <g id="line2d_29">
     <path d="M 216.18875 293.004312 
L 226.18875 293.004312 
L 236.18875 293.004312 
" style="fill: none; stroke: #9467bd; stroke-width: 1.5; stroke-linecap: square"/>
    </g>
    <g id="text_27">
     <!-- SWA Robust Validation Accuracy -->
     <g transform="translate(244.18875 296.504312) scale(0.1 -0.1)">
      <use xlink:href="#DejaVuSans-53"/>
      <use xlink:href="#DejaVuSans-57" x="63.476562"/>
      <use xlink:href="#DejaVuSans-41" x="156.853516"/>
      <use xlink:href="#DejaVuSans-20" x="225.261719"/>
      <use xlink:href="#DejaVuSans-52" x="257.048828"/>
      <use xlink:href="#DejaVuSans-6f" x="322.03125"/>
      <use xlink:href="#DejaVuSans-62" x="383.212891"/>
      <use xlink:href="#DejaVuSans-75" x="446.689453"/>
      <use xlink:href="#DejaVuSans-73" x="510.068359"/>
      <use xlink:href="#DejaVuSans-74" x="562.167969"/>
      <use xlink:href="#DejaVuSans-20" x="601.376953"/>
      <use xlink:href="#DejaVuSans-56" x="633.164062"/>
      <use xlink:href="#DejaVuSans-61" x="693.822266"/>
      <use xlink:href="#DejaVuSans-6c" x="755.101562"/>
      <use xlink:href="#DejaVuSans-69" x="782.884766"/>
      <use xlink:href="#DejaVuSans-64" x="810.667969"/>
      <use xlink:href="#DejaVuSans-61" x="874.144531"/>
      <use xlink:href="#DejaVuSans-74" x="935.423828"/>
      <use xlink:href="#DejaVuSans-69" x="974.632812"/>
      <use xlink:href="#DejaVuSans-6f" x="1002.416016"/>
      <use xlink:href="#DejaVuSans-6e" x="1063.597656"/>
      <use xlink:href="#DejaVuSans-20" x="1126.976562"/>
      <use xlink:href="#DejaVuSans-41" x="1158.763672"/>
      <use xlink:href="#DejaVuSans-63" x="1225.421875"/>
      <use xlink:href="#DejaVuSans-63" x="1280.402344"/>
      <use xlink:href="#DejaVuSans-75" x="1335.382812"/>
      <use xlink:href="#DejaVuSans-72" x="1398.761719"/>
      <use xlink:href="#DejaVuSans-61" x="1439.875"/>
      <use xlink:href="#DejaVuSans-63" x="1501.154297"/>
      <use xlink:href="#DejaVuSans-79" x="1556.134766"/>
     </g>
    </g>
   </g>
  </g>
 </g>
 <defs>
  <clipPath id="pf4cdc50493">
   <rect x="57.6" y="41.472" width="357.12" height="266.112"/>
  </clipPath>
 </defs>
</svg>
