<?xml version="1.0" encoding="utf-8" standalone="no"?>
<!DOCTYPE svg PUBLIC "-//W3C//DTD SVG 1.1//EN"
  "http://www.w3.org/Graphics/SVG/1.1/DTD/svg11.dtd">
<svg xmlns:xlink="http://www.w3.org/1999/xlink" width="460.8pt" height="345.6pt" viewBox="0 0 460.8 345.6" xmlns="http://www.w3.org/2000/svg" version="1.1">
 <metadata>
  <rdf:RDF xmlns:dc="http://purl.org/dc/elements/1.1/" xmlns:cc="http://creativecommons.org/ns#" xmlns:rdf="http://www.w3.org/1999/02/22-rdf-syntax-ns#">
   <cc:Work>
    <dc:type rdf:resource="http://purl.org/dc/dcmitype/StillImage"/>
    <dc:date>2025-08-20T08:59:22.703185</dc:date>
    <dc:format>image/svg+xml</dc:format>
    <dc:creator>
     <cc:Agent>
      <dc:title>Matplotlib v3.9.1, https://matplotlib.org/</dc:title>
     </cc:Agent>
    </dc:creator>
   </cc:Work>
  </rdf:RDF>
 </metadata>
 <defs>
  <style type="text/css">*{stroke-linejoin: round; stroke-linecap: butt}</style>
 </defs>
 <g id="figure_1">
  <g id="patch_1">
   <path d="M 0 345.6 
L 460.8 345.6 
L 460.8 0 
L 0 0 
z
" style="fill: #ffffff"/>
  </g>
  <g id="axes_1">
   <g id="patch_2">
    <path d="M 57.6 307.584 
L 414.72 307.584 
L 414.72 41.472 
L 57.6 41.472 
z
" style="fill: #ffffff"/>
   </g>
   <g id="matplotlib.axis_1">
    <g id="xtick_1">
     <g id="line2d_1">
      <defs>
       <path id="m37c9cf8b64" d="M 0 0 
L 0 3.5 
" style="stroke: #000000; stroke-width: 0.8"/>
      </defs>
      <g>
       <use xlink:href="#m37c9cf8b64" x="73.832727" y="307.584" style="stroke: #000000; stroke-width: 0.8"/>
      </g>
     </g>
     <g id="text_1">
      <!-- 1 -->
      <g transform="translate(70.651477 322.182437) scale(0.1 -0.1)">
       <defs>
        <path id="DejaVuSans-31" d="M 794 531 
L 1825 531 
L 1825 4091 
L 703 3866 
L 703 4441 
L 1819 4666 
L 2450 4666 
L 2450 531 
L 3481 531 
L 3481 0 
L 794 0 
L 794 531 
z
" transform="scale(0.015625)"/>
       </defs>
       <use xlink:href="#DejaVuSans-31"/>
      </g>
     </g>
    </g>
    <g id="xtick_2">
     <g id="line2d_2">
      <g>
       <use xlink:href="#m37c9cf8b64" x="109.664165" y="307.584" style="stroke: #000000; stroke-width: 0.8"/>
      </g>
     </g>
     <g id="text_2">
      <!-- 34 -->
      <g transform="translate(103.301665 322.182437) scale(0.1 -0.1)">
       <defs>
        <path id="DejaVuSans-33" d="M 2597 2516 
Q 3050 2419 3304 2112 
Q 3559 1806 3559 1356 
Q 3559 666 3084 287 
Q 2609 -91 1734 -91 
Q 1441 -91 1130 -33 
Q 819 25 488 141 
L 488 750 
Q 750 597 1062 519 
Q 1375 441 1716 441 
Q 2309 441 2620 675 
Q 2931 909 2931 1356 
Q 2931 1769 2642 2001 
Q 2353 2234 1838 2234 
L 1294 2234 
L 1294 2753 
L 1863 2753 
Q 2328 2753 2575 2939 
Q 2822 3125 2822 3475 
Q 2822 3834 2567 4026 
Q 2313 4219 1838 4219 
Q 1578 4219 1281 4162 
Q 984 4106 628 3988 
L 628 4550 
Q 988 4650 1302 4700 
Q 1616 4750 1894 4750 
Q 2613 4750 3031 4423 
Q 3450 4097 3450 3541 
Q 3450 3153 3228 2886 
Q 3006 2619 2597 2516 
z
" transform="scale(0.015625)"/>
        <path id="DejaVuSans-34" d="M 2419 4116 
L 825 1625 
L 2419 1625 
L 2419 4116 
z
M 2253 4666 
L 3047 4666 
L 3047 1625 
L 3713 1625 
L 3713 1100 
L 3047 1100 
L 3047 0 
L 2419 0 
L 2419 1100 
L 313 1100 
L 313 1709 
L 2253 4666 
z
" transform="scale(0.015625)"/>
       </defs>
       <use xlink:href="#DejaVuSans-33"/>
       <use xlink:href="#DejaVuSans-34" x="63.623047"/>
      </g>
     </g>
    </g>
    <g id="xtick_3">
     <g id="line2d_3">
      <g>
       <use xlink:href="#m37c9cf8b64" x="145.495604" y="307.584" style="stroke: #000000; stroke-width: 0.8"/>
      </g>
     </g>
     <g id="text_3">
      <!-- 67 -->
      <g transform="translate(139.133104 322.182437) scale(0.1 -0.1)">
       <defs>
        <path id="DejaVuSans-36" d="M 2113 2584 
Q 1688 2584 1439 2293 
Q 1191 2003 1191 1497 
Q 1191 994 1439 701 
Q 1688 409 2113 409 
Q 2538 409 2786 701 
Q 3034 994 3034 1497 
Q 3034 2003 2786 2293 
Q 2538 2584 2113 2584 
z
M 3366 4563 
L 3366 3988 
Q 3128 4100 2886 4159 
Q 2644 4219 2406 4219 
Q 1781 4219 1451 3797 
Q 1122 3375 1075 2522 
Q 1259 2794 1537 2939 
Q 1816 3084 2150 3084 
Q 2853 3084 3261 2657 
Q 3669 2231 3669 1497 
Q 3669 778 3244 343 
Q 2819 -91 2113 -91 
Q 1303 -91 875 529 
Q 447 1150 447 2328 
Q 447 3434 972 4092 
Q 1497 4750 2381 4750 
Q 2619 4750 2861 4703 
Q 3103 4656 3366 4563 
z
" transform="scale(0.015625)"/>
        <path id="DejaVuSans-37" d="M 525 4666 
L 3525 4666 
L 3525 4397 
L 1831 0 
L 1172 0 
L 2766 4134 
L 525 4134 
L 525 4666 
z
" transform="scale(0.015625)"/>
       </defs>
       <use xlink:href="#DejaVuSans-36"/>
       <use xlink:href="#DejaVuSans-37" x="63.623047"/>
      </g>
     </g>
    </g>
    <g id="xtick_4">
     <g id="line2d_4">
      <g>
       <use xlink:href="#m37c9cf8b64" x="181.327042" y="307.584" style="stroke: #000000; stroke-width: 0.8"/>
      </g>
     </g>
     <g id="text_4">
      <!-- 100 -->
      <g transform="translate(171.783292 322.182437) scale(0.1 -0.1)">
       <defs>
        <path id="DejaVuSans-30" d="M 2034 4250 
Q 1547 4250 1301 3770 
Q 1056 3291 1056 2328 
Q 1056 1369 1301 889 
Q 1547 409 2034 409 
Q 2525 409 2770 889 
Q 3016 1369 3016 2328 
Q 3016 3291 2770 3770 
Q 2525 4250 2034 4250 
z
M 2034 4750 
Q 2819 4750 3233 4129 
Q 3647 3509 3647 2328 
Q 3647 1150 3233 529 
Q 2819 -91 2034 -91 
Q 1250 -91 836 529 
Q 422 1150 422 2328 
Q 422 3509 836 4129 
Q 1250 4750 2034 4750 
z
" transform="scale(0.015625)"/>
       </defs>
       <use xlink:href="#DejaVuSans-31"/>
       <use xlink:href="#DejaVuSans-30" x="63.623047"/>
       <use xlink:href="#DejaVuSans-30" x="127.246094"/>
      </g>
     </g>
    </g>
    <g id="xtick_5">
     <g id="line2d_5">
      <g>
       <use xlink:href="#m37c9cf8b64" x="217.15848" y="307.584" style="stroke: #000000; stroke-width: 0.8"/>
      </g>
     </g>
     <g id="text_5">
      <!-- 133 -->
      <g transform="translate(207.61473 322.182437) scale(0.1 -0.1)">
       <use xlink:href="#DejaVuSans-31"/>
       <use xlink:href="#DejaVuSans-33" x="63.623047"/>
       <use xlink:href="#DejaVuSans-33" x="127.246094"/>
      </g>
     </g>
    </g>
    <g id="xtick_6">
     <g id="line2d_6">
      <g>
       <use xlink:href="#m37c9cf8b64" x="254.075719" y="307.584" style="stroke: #000000; stroke-width: 0.8"/>
      </g>
     </g>
     <g id="text_6">
      <!-- 167 -->
      <g transform="translate(244.531969 322.182437) scale(0.1 -0.1)">
       <use xlink:href="#DejaVuSans-31"/>
       <use xlink:href="#DejaVuSans-36" x="63.623047"/>
       <use xlink:href="#DejaVuSans-37" x="127.246094"/>
      </g>
     </g>
    </g>
    <g id="xtick_7">
     <g id="line2d_7">
      <g>
       <use xlink:href="#m37c9cf8b64" x="289.907157" y="307.584" style="stroke: #000000; stroke-width: 0.8"/>
      </g>
     </g>
     <g id="text_7">
      <!-- 200 -->
      <g transform="translate(280.363407 322.182437) scale(0.1 -0.1)">
       <defs>
        <path id="DejaVuSans-32" d="M 1228 531 
L 3431 531 
L 3431 0 
L 469 0 
L 469 531 
Q 828 903 1448 1529 
Q 2069 2156 2228 2338 
Q 2531 2678 2651 2914 
Q 2772 3150 2772 3378 
Q 2772 3750 2511 3984 
Q 2250 4219 1831 4219 
Q 1534 4219 1204 4116 
Q 875 4013 500 3803 
L 500 4441 
Q 881 4594 1212 4672 
Q 1544 4750 1819 4750 
Q 2544 4750 2975 4387 
Q 3406 4025 3406 3419 
Q 3406 3131 3298 2873 
Q 3191 2616 2906 2266 
Q 2828 2175 2409 1742 
Q 1991 1309 1228 531 
z
" transform="scale(0.015625)"/>
       </defs>
       <use xlink:href="#DejaVuSans-32"/>
       <use xlink:href="#DejaVuSans-30" x="63.623047"/>
       <use xlink:href="#DejaVuSans-30" x="127.246094"/>
      </g>
     </g>
    </g>
    <g id="xtick_8">
     <g id="line2d_8">
      <g>
       <use xlink:href="#m37c9cf8b64" x="325.738595" y="307.584" style="stroke: #000000; stroke-width: 0.8"/>
      </g>
     </g>
     <g id="text_8">
      <!-- 233 -->
      <g transform="translate(316.194845 322.182437) scale(0.1 -0.1)">
       <use xlink:href="#DejaVuSans-32"/>
       <use xlink:href="#DejaVuSans-33" x="63.623047"/>
       <use xlink:href="#DejaVuSans-33" x="127.246094"/>
      </g>
     </g>
    </g>
    <g id="xtick_9">
     <g id="line2d_9">
      <g>
       <use xlink:href="#m37c9cf8b64" x="361.570033" y="307.584" style="stroke: #000000; stroke-width: 0.8"/>
      </g>
     </g>
     <g id="text_9">
      <!-- 266 -->
      <g transform="translate(352.026283 322.182437) scale(0.1 -0.1)">
       <use xlink:href="#DejaVuSans-32"/>
       <use xlink:href="#DejaVuSans-36" x="63.623047"/>
       <use xlink:href="#DejaVuSans-36" x="127.246094"/>
      </g>
     </g>
    </g>
    <g id="xtick_10">
     <g id="line2d_10">
      <g>
       <use xlink:href="#m37c9cf8b64" x="398.487273" y="307.584" style="stroke: #000000; stroke-width: 0.8"/>
      </g>
     </g>
     <g id="text_10">
      <!-- 300 -->
      <g transform="translate(388.943523 322.182437) scale(0.1 -0.1)">
       <use xlink:href="#DejaVuSans-33"/>
       <use xlink:href="#DejaVuSans-30" x="63.623047"/>
       <use xlink:href="#DejaVuSans-30" x="127.246094"/>
      </g>
     </g>
    </g>
    <g id="text_11">
     <!-- Epochs -->
     <g transform="translate(218.244375 335.860562) scale(0.1 -0.1)">
      <defs>
       <path id="DejaVuSans-45" d="M 628 4666 
L 3578 4666 
L 3578 4134 
L 1259 4134 
L 1259 2753 
L 3481 2753 
L 3481 2222 
L 1259 2222 
L 1259 531 
L 3634 531 
L 3634 0 
L 628 0 
L 628 4666 
z
" transform="scale(0.015625)"/>
       <path id="DejaVuSans-70" d="M 1159 525 
L 1159 -1331 
L 581 -1331 
L 581 3500 
L 1159 3500 
L 1159 2969 
Q 1341 3281 1617 3432 
Q 1894 3584 2278 3584 
Q 2916 3584 3314 3078 
Q 3713 2572 3713 1747 
Q 3713 922 3314 415 
Q 2916 -91 2278 -91 
Q 1894 -91 1617 61 
Q 1341 213 1159 525 
z
M 3116 1747 
Q 3116 2381 2855 2742 
Q 2594 3103 2138 3103 
Q 1681 3103 1420 2742 
Q 1159 2381 1159 1747 
Q 1159 1113 1420 752 
Q 1681 391 2138 391 
Q 2594 391 2855 752 
Q 3116 1113 3116 1747 
z
" transform="scale(0.015625)"/>
       <path id="DejaVuSans-6f" d="M 1959 3097 
Q 1497 3097 1228 2736 
Q 959 2375 959 1747 
Q 959 1119 1226 758 
Q 1494 397 1959 397 
Q 2419 397 2687 759 
Q 2956 1122 2956 1747 
Q 2956 2369 2687 2733 
Q 2419 3097 1959 3097 
z
M 1959 3584 
Q 2709 3584 3137 3096 
Q 3566 2609 3566 1747 
Q 3566 888 3137 398 
Q 2709 -91 1959 -91 
Q 1206 -91 779 398 
Q 353 888 353 1747 
Q 353 2609 779 3096 
Q 1206 3584 1959 3584 
z
" transform="scale(0.015625)"/>
       <path id="DejaVuSans-63" d="M 3122 3366 
L 3122 2828 
Q 2878 2963 2633 3030 
Q 2388 3097 2138 3097 
Q 1578 3097 1268 2742 
Q 959 2388 959 1747 
Q 959 1106 1268 751 
Q 1578 397 2138 397 
Q 2388 397 2633 464 
Q 2878 531 3122 666 
L 3122 134 
Q 2881 22 2623 -34 
Q 2366 -91 2075 -91 
Q 1284 -91 818 406 
Q 353 903 353 1747 
Q 353 2603 823 3093 
Q 1294 3584 2113 3584 
Q 2378 3584 2631 3529 
Q 2884 3475 3122 3366 
z
" transform="scale(0.015625)"/>
       <path id="DejaVuSans-68" d="M 3513 2113 
L 3513 0 
L 2938 0 
L 2938 2094 
Q 2938 2591 2744 2837 
Q 2550 3084 2163 3084 
Q 1697 3084 1428 2787 
Q 1159 2491 1159 1978 
L 1159 0 
L 581 0 
L 581 4863 
L 1159 4863 
L 1159 2956 
Q 1366 3272 1645 3428 
Q 1925 3584 2291 3584 
Q 2894 3584 3203 3211 
Q 3513 2838 3513 2113 
z
" transform="scale(0.015625)"/>
       <path id="DejaVuSans-73" d="M 2834 3397 
L 2834 2853 
Q 2591 2978 2328 3040 
Q 2066 3103 1784 3103 
Q 1356 3103 1142 2972 
Q 928 2841 928 2578 
Q 928 2378 1081 2264 
Q 1234 2150 1697 2047 
L 1894 2003 
Q 2506 1872 2764 1633 
Q 3022 1394 3022 966 
Q 3022 478 2636 193 
Q 2250 -91 1575 -91 
Q 1294 -91 989 -36 
Q 684 19 347 128 
L 347 722 
Q 666 556 975 473 
Q 1284 391 1588 391 
Q 1994 391 2212 530 
Q 2431 669 2431 922 
Q 2431 1156 2273 1281 
Q 2116 1406 1581 1522 
L 1381 1569 
Q 847 1681 609 1914 
Q 372 2147 372 2553 
Q 372 3047 722 3315 
Q 1072 3584 1716 3584 
Q 2034 3584 2315 3537 
Q 2597 3491 2834 3397 
z
" transform="scale(0.015625)"/>
      </defs>
      <use xlink:href="#DejaVuSans-45"/>
      <use xlink:href="#DejaVuSans-70" x="63.183594"/>
      <use xlink:href="#DejaVuSans-6f" x="126.660156"/>
      <use xlink:href="#DejaVuSans-63" x="187.841797"/>
      <use xlink:href="#DejaVuSans-68" x="242.822266"/>
      <use xlink:href="#DejaVuSans-73" x="306.201172"/>
     </g>
    </g>
   </g>
   <g id="matplotlib.axis_2">
    <g id="ytick_1">
     <g id="line2d_11">
      <defs>
       <path id="mc962c44b0c" d="M 0 0 
L -3.5 0 
" style="stroke: #000000; stroke-width: 0.8"/>
      </defs>
      <g>
       <use xlink:href="#mc962c44b0c" x="57.6" y="256.310644" style="stroke: #000000; stroke-width: 0.8"/>
      </g>
     </g>
     <g id="text_12">
      <!-- 20 -->
      <g transform="translate(37.875 260.109863) scale(0.1 -0.1)">
       <use xlink:href="#DejaVuSans-32"/>
       <use xlink:href="#DejaVuSans-30" x="63.623047"/>
      </g>
     </g>
    </g>
    <g id="ytick_2">
     <g id="line2d_12">
      <g>
       <use xlink:href="#mc962c44b0c" x="57.6" y="199.701694" style="stroke: #000000; stroke-width: 0.8"/>
      </g>
     </g>
     <g id="text_13">
      <!-- 40 -->
      <g transform="translate(37.875 203.500913) scale(0.1 -0.1)">
       <use xlink:href="#DejaVuSans-34"/>
       <use xlink:href="#DejaVuSans-30" x="63.623047"/>
      </g>
     </g>
    </g>
    <g id="ytick_3">
     <g id="line2d_13">
      <g>
       <use xlink:href="#mc962c44b0c" x="57.6" y="143.092744" style="stroke: #000000; stroke-width: 0.8"/>
      </g>
     </g>
     <g id="text_14">
      <!-- 60 -->
      <g transform="translate(37.875 146.891963) scale(0.1 -0.1)">
       <use xlink:href="#DejaVuSans-36"/>
       <use xlink:href="#DejaVuSans-30" x="63.623047"/>
      </g>
     </g>
    </g>
    <g id="ytick_4">
     <g id="line2d_14">
      <g>
       <use xlink:href="#mc962c44b0c" x="57.6" y="86.483794" style="stroke: #000000; stroke-width: 0.8"/>
      </g>
     </g>
     <g id="text_15">
      <!-- 80 -->
      <g transform="translate(37.875 90.283013) scale(0.1 -0.1)">
       <defs>
        <path id="DejaVuSans-38" d="M 2034 2216 
Q 1584 2216 1326 1975 
Q 1069 1734 1069 1313 
Q 1069 891 1326 650 
Q 1584 409 2034 409 
Q 2484 409 2743 651 
Q 3003 894 3003 1313 
Q 3003 1734 2745 1975 
Q 2488 2216 2034 2216 
z
M 1403 2484 
Q 997 2584 770 2862 
Q 544 3141 544 3541 
Q 544 4100 942 4425 
Q 1341 4750 2034 4750 
Q 2731 4750 3128 4425 
Q 3525 4100 3525 3541 
Q 3525 3141 3298 2862 
Q 3072 2584 2669 2484 
Q 3125 2378 3379 2068 
Q 3634 1759 3634 1313 
Q 3634 634 3220 271 
Q 2806 -91 2034 -91 
Q 1263 -91 848 271 
Q 434 634 434 1313 
Q 434 1759 690 2068 
Q 947 2378 1403 2484 
z
M 1172 3481 
Q 1172 3119 1398 2916 
Q 1625 2713 2034 2713 
Q 2441 2713 2670 2916 
Q 2900 3119 2900 3481 
Q 2900 3844 2670 4047 
Q 2441 4250 2034 4250 
Q 1625 4250 1398 4047 
Q 1172 3844 1172 3481 
z
" transform="scale(0.015625)"/>
       </defs>
       <use xlink:href="#DejaVuSans-38"/>
       <use xlink:href="#DejaVuSans-30" x="63.623047"/>
      </g>
     </g>
    </g>
    <g id="text_16">
     <!-- Accuracy -->
     <g transform="translate(31.795312 197.356125) rotate(-90) scale(0.1 -0.1)">
      <defs>
       <path id="DejaVuSans-41" d="M 2188 4044 
L 1331 1722 
L 3047 1722 
L 2188 4044 
z
M 1831 4666 
L 2547 4666 
L 4325 0 
L 3669 0 
L 3244 1197 
L 1141 1197 
L 716 0 
L 50 0 
L 1831 4666 
z
" transform="scale(0.015625)"/>
       <path id="DejaVuSans-75" d="M 544 1381 
L 544 3500 
L 1119 3500 
L 1119 1403 
Q 1119 906 1312 657 
Q 1506 409 1894 409 
Q 2359 409 2629 706 
Q 2900 1003 2900 1516 
L 2900 3500 
L 3475 3500 
L 3475 0 
L 2900 0 
L 2900 538 
Q 2691 219 2414 64 
Q 2138 -91 1772 -91 
Q 1169 -91 856 284 
Q 544 659 544 1381 
z
M 1991 3584 
L 1991 3584 
z
" transform="scale(0.015625)"/>
       <path id="DejaVuSans-72" d="M 2631 2963 
Q 2534 3019 2420 3045 
Q 2306 3072 2169 3072 
Q 1681 3072 1420 2755 
Q 1159 2438 1159 1844 
L 1159 0 
L 581 0 
L 581 3500 
L 1159 3500 
L 1159 2956 
Q 1341 3275 1631 3429 
Q 1922 3584 2338 3584 
Q 2397 3584 2469 3576 
Q 2541 3569 2628 3553 
L 2631 2963 
z
" transform="scale(0.015625)"/>
       <path id="DejaVuSans-61" d="M 2194 1759 
Q 1497 1759 1228 1600 
Q 959 1441 959 1056 
Q 959 750 1161 570 
Q 1363 391 1709 391 
Q 2188 391 2477 730 
Q 2766 1069 2766 1631 
L 2766 1759 
L 2194 1759 
z
M 3341 1997 
L 3341 0 
L 2766 0 
L 2766 531 
Q 2569 213 2275 61 
Q 1981 -91 1556 -91 
Q 1019 -91 701 211 
Q 384 513 384 1019 
Q 384 1609 779 1909 
Q 1175 2209 1959 2209 
L 2766 2209 
L 2766 2266 
Q 2766 2663 2505 2880 
Q 2244 3097 1772 3097 
Q 1472 3097 1187 3025 
Q 903 2953 641 2809 
L 641 3341 
Q 956 3463 1253 3523 
Q 1550 3584 1831 3584 
Q 2591 3584 2966 3190 
Q 3341 2797 3341 1997 
z
" transform="scale(0.015625)"/>
       <path id="DejaVuSans-79" d="M 2059 -325 
Q 1816 -950 1584 -1140 
Q 1353 -1331 966 -1331 
L 506 -1331 
L 506 -850 
L 844 -850 
Q 1081 -850 1212 -737 
Q 1344 -625 1503 -206 
L 1606 56 
L 191 3500 
L 800 3500 
L 1894 763 
L 2988 3500 
L 3597 3500 
L 2059 -325 
z
" transform="scale(0.015625)"/>
      </defs>
      <use xlink:href="#DejaVuSans-41"/>
      <use xlink:href="#DejaVuSans-63" x="66.658203"/>
      <use xlink:href="#DejaVuSans-63" x="121.638672"/>
      <use xlink:href="#DejaVuSans-75" x="176.619141"/>
      <use xlink:href="#DejaVuSans-72" x="239.998047"/>
      <use xlink:href="#DejaVuSans-61" x="281.111328"/>
      <use xlink:href="#DejaVuSans-63" x="342.390625"/>
      <use xlink:href="#DejaVuSans-79" x="397.371094"/>
     </g>
    </g>
   </g>
   <g id="line2d_15">
    <path d="M 73.832727 287.443019 
L 74.918528 250.389056 
L 76.00433 225.170419 
L 77.090131 208.180305 
L 78.175932 195.749621 
L 79.261733 185.332118 
L 82.519137 162.310967 
L 83.604938 156.206208 
L 84.690739 151.56455 
L 86.862341 140.361623 
L 87.948142 136.953392 
L 89.033943 132.861814 
L 92.291347 124.137085 
L 93.377148 122.943353 
L 94.462949 122.387602 
L 95.54875 151.740349 
L 96.634552 150.455883 
L 97.720353 148.408676 
L 99.891955 143.146051 
L 100.977756 139.255791 
L 102.063557 138.059224 
L 104.23516 132.337253 
L 105.320961 131.900591 
L 106.406762 128.120915 
L 107.492563 126.516041 
L 108.578364 123.949944 
L 109.664165 122.535046 
L 110.749967 120.46232 
L 111.835768 117.493587 
L 112.921569 116.10988 
L 114.00737 114.173256 
L 115.093171 112.534357 
L 117.264773 107.84166 
L 124.865382 94.483778 
L 125.951183 92.082138 
L 127.036984 90.514126 
L 128.122785 88.586009 
L 129.208586 87.16544 
L 134.637592 81.432127 
L 135.723393 81.633445 
L 136.809194 81.037997 
L 137.894995 80.706248 
L 138.980797 115.857523 
L 140.066598 119.864037 
L 141.152399 119.478414 
L 142.2382 119.923582 
L 143.324001 118.347063 
L 144.409802 117.675057 
L 147.667206 115.245062 
L 148.753007 114.726172 
L 149.838808 114.649615 
L 150.924609 113.308439 
L 152.01041 112.471976 
L 153.096212 110.855761 
L 154.182013 110.041982 
L 155.267814 110.291503 
L 156.353615 109.506079 
L 157.439416 108.516501 
L 158.525217 107.237706 
L 159.611019 106.730157 
L 160.69682 106.097848 
L 161.782621 105.783111 
L 162.868422 104.348366 
L 163.954223 104.050642 
L 165.040024 103.072406 
L 166.125825 101.578115 
L 167.211627 101.558267 
L 168.297428 100.038457 
L 169.383229 99.771923 
L 171.554831 97.795603 
L 172.640632 96.312654 
L 173.726434 96.62172 
L 174.812235 95.056543 
L 176.983837 92.714447 
L 178.069638 92.439407 
L 180.24124 90.383694 
L 181.327042 88.659731 
L 182.412843 87.775065 
L 183.498644 87.213643 
L 184.584445 85.770391 
L 185.670246 84.970789 
L 186.756047 83.706171 
L 187.841849 82.642871 
L 188.92765 81.35557 
L 190.013451 80.425537 
L 191.099252 78.812156 
L 192.185053 78.28476 
L 193.270854 77.323536 
L 194.356656 75.871778 
L 195.442457 75.117544 
L 196.528258 74.042902 
L 197.614059 72.344458 
L 199.785661 70.370973 
L 200.871462 69.574207 
L 203.043065 67.368214 
L 204.128866 66.951401 
L 205.214667 65.525161 
L 206.300468 64.649002 
L 207.386269 64.314417 
L 209.557872 62.621644 
L 210.643673 61.71713 
L 211.729474 61.725636 
L 212.815275 61.237936 
L 213.901076 60.594285 
L 216.072679 59.837216 
L 217.15848 59.224755 
L 218.244281 59.366529 
L 219.330082 58.975234 
L 220.415883 58.408141 
L 222.587486 58.822119 
L 223.673287 57.999834 
L 224.759088 58.297558 
L 225.844889 102.664099 
L 226.93069 109.520256 
L 228.016491 109.350128 
L 229.102292 110.152565 
L 230.188094 109.248051 
L 231.273895 108.680958 
L 232.359696 108.400247 
L 233.445497 107.731077 
L 234.531298 107.776444 
L 235.617099 107.23487 
L 236.702901 106.148887 
L 237.788702 106.165899 
L 238.874503 105.303918 
L 239.960304 105.199005 
L 241.046105 104.260466 
L 242.131906 103.959907 
L 243.217708 103.304914 
L 244.303509 103.182989 
L 245.38931 102.598883 
L 246.475111 102.142373 
L 247.560912 101.81913 
L 248.646713 101.680192 
L 249.732514 101.36262 
L 250.818316 101.320088 
L 252.989918 100.48079 
L 254.075719 99.584782 
L 255.16152 99.125437 
L 256.247321 99.635821 
L 257.333123 98.470444 
L 258.418924 98.470444 
L 259.504725 98.096162 
L 260.590526 97.449676 
L 261.676327 97.305067 
L 262.762128 96.50263 
L 263.847929 96.987495 
L 264.933731 96.000753 
L 266.019532 96.423237 
L 267.105333 96.108501 
L 268.191134 94.838212 
L 269.276935 94.73897 
L 270.362736 94.112332 
L 271.448538 93.925192 
L 272.534339 93.610455 
L 273.62014 92.745638 
L 274.705941 92.479104 
L 275.791742 92.527307 
L 276.877543 91.934694 
L 280.134947 91.322233 
L 281.220748 90.562329 
L 282.306549 90.199389 
L 283.39235 89.689005 
L 284.478151 89.408294 
L 285.563953 88.699427 
L 286.649754 89.150266 
L 287.735555 88.421551 
L 288.821356 87.429138 
L 290.992958 86.944274 
L 292.07876 86.414041 
L 294.250362 85.563401 
L 295.336163 85.639959 
L 296.421964 84.528456 
L 297.507765 83.952857 
L 299.679368 83.572904 
L 300.765169 83.33189 
L 301.85097 82.430211 
L 302.936771 81.834763 
L 304.022572 81.885802 
L 305.108373 81.157087 
L 306.194175 79.983204 
L 307.279976 80.181686 
L 308.365777 79.824418 
L 309.451578 78.846182 
L 310.537379 78.633522 
L 311.62318 77.754527 
L 312.708981 77.74035 
L 313.794783 76.779127 
L 314.880584 76.665708 
L 315.966385 75.290507 
L 317.052186 75.919981 
L 318.137987 75.208279 
L 319.223788 74.008876 
L 320.30959 74.360474 
L 321.395391 73.189427 
L 322.481192 72.741423 
L 323.566993 72.469218 
L 325.738595 71.059991 
L 326.824396 70.887028 
L 328.995999 69.25947 
L 330.0818 68.941898 
L 331.167601 67.884269 
L 332.253402 67.578039 
L 333.339203 67.427759 
L 334.425005 66.891856 
L 336.596607 65.199083 
L 337.682408 65.502478 
L 338.768209 64.413659 
L 339.85401 64.305911 
L 340.939811 63.996845 
L 342.025613 62.893849 
L 343.111414 62.888178 
L 344.197215 62.258704 
L 345.283016 61.461938 
L 346.368817 61.096163 
L 347.454618 60.384461 
L 348.54042 60.296561 
L 349.626221 59.428909 
L 350.712022 59.769165 
L 351.797823 58.357103 
L 352.883624 58.101911 
L 353.969425 57.398715 
L 355.055227 57.180384 
L 356.141028 56.434656 
L 357.226829 56.355263 
L 359.398431 55.893082 
L 360.484232 55.291963 
L 361.570033 55.127506 
L 363.741636 54.410133 
L 364.827437 53.74947 
L 365.913238 53.568 
L 366.999039 53.667241 
L 368.08484 53.959294 
L 369.170642 54.747554 
L 370.256443 55.221077 
L 372.428045 57.841048 
L 373.513846 57.296638 
L 374.599647 58.209658 
L 375.685448 58.130265 
L 376.77125 58.49604 
L 377.857051 58.467686 
L 378.942852 58.25219 
L 380.028653 58.754068 
L 382.200255 58.203987 
L 383.286057 58.3089 
L 384.371858 58.203987 
L 385.457659 58.640649 
L 386.54346 58.192645 
L 387.629261 57.999834 
L 388.715062 58.878828 
L 389.800863 58.7966 
L 390.886665 58.997918 
L 391.972466 58.467686 
L 393.058267 58.980905 
L 394.144068 58.720042 
L 395.229869 58.737055 
L 396.31567 59.292806 
L 397.401472 58.7966 
L 398.487273 59.077311 
L 398.487273 59.077311 
" clip-path="url(#p3e6222e118)" style="fill: none; stroke: #1f77b4; stroke-width: 1.5; stroke-linecap: square"/>
   </g>
   <g id="line2d_16">
    <path d="M 73.832727 275.784123 
L 74.918528 254.470853 
L 76.00433 236.440902 
L 78.175932 210.655526 
L 79.261733 205.843765 
L 80.347534 195.682458 
L 82.519137 182.068006 
L 83.604938 177.680812 
L 84.690739 173.774795 
L 85.77654 165.283452 
L 86.862341 160.01882 
L 87.948142 154.159794 
L 89.033943 151.725609 
L 90.119745 148.215854 
L 91.205546 146.206236 
L 92.291347 143.57392 
L 93.377148 142.470045 
L 94.462949 141.960565 
L 95.54875 192.90862 
L 96.634552 184.304059 
L 97.720353 179.548908 
L 98.806154 170.916043 
L 99.891955 170.944347 
L 100.977756 166.613763 
L 102.063557 165.028712 
L 103.149358 162.622832 
L 104.23516 167.094939 
L 105.320961 157.273286 
L 106.406762 160.556605 
L 107.492563 151.272737 
L 109.664165 150.84817 
L 110.749967 144.734403 
L 111.835768 147.225197 
L 112.921569 146.630803 
L 114.00737 142.073783 
L 115.093171 143.262571 
L 116.178972 137.799807 
L 117.264773 136.894064 
L 118.350575 132.25213 
L 119.436376 132.365348 
L 120.522177 133.554136 
L 121.607978 128.912202 
L 122.693779 128.600853 
L 123.77958 126.279886 
L 124.865382 125.968536 
L 125.951183 123.506047 
L 127.036984 122.147432 
L 129.208586 119.03394 
L 130.294387 117.760239 
L 131.380189 118.807504 
L 132.46599 117.080931 
L 133.551791 116.656364 
L 134.637592 117.080931 
L 135.723393 116.118579 
L 136.809194 115.665708 
L 137.894995 115.524185 
L 138.980797 156.933632 
L 140.066598 159.113077 
L 141.152399 185.464543 
L 142.2382 154.357925 
L 143.324001 159.169686 
L 144.409802 162.283178 
L 145.495604 160.301865 
L 146.581405 159.537644 
L 147.667206 151.272737 
L 148.753007 146.659108 
L 149.838808 151.301042 
L 150.924609 150.253776 
L 152.01041 150.59343 
L 153.096212 154.301316 
L 154.182013 146.177932 
L 155.267814 143.885269 
L 156.353615 143.772051 
L 157.439416 143.998487 
L 158.525217 144.423054 
L 159.611019 143.800356 
L 160.69682 140.743472 
L 161.782621 149.178206 
L 162.868422 144.168314 
L 163.954223 143.290875 
L 165.040024 143.432398 
L 166.125825 138.224374 
L 167.211627 134.686315 
L 168.297428 140.85669 
L 169.383229 136.526106 
L 170.46903 134.742924 
L 171.554831 136.55441 
L 173.726434 138.45081 
L 174.812235 135.110882 
L 175.898036 133.129569 
L 176.983837 132.648393 
L 178.069638 131.827563 
L 179.155439 131.374691 
L 180.24124 130.667079 
L 181.327042 128.034763 
L 182.412843 128.431026 
L 183.498644 129.959467 
L 184.584445 124.921271 
L 185.670246 126.704453 
L 187.841849 124.355181 
L 188.92765 124.581617 
L 190.013451 122.515391 
L 191.099252 119.60003 
L 192.185053 122.741826 
L 193.270854 118.184806 
L 194.356656 118.665982 
L 195.442457 117.392281 
L 196.528258 118.609373 
L 197.614059 117.562107 
L 198.69986 117.222454 
L 199.785661 115.156227 
L 200.871462 113.939135 
L 201.957264 114.590138 
L 203.043065 114.420311 
L 204.128866 112.071039 
L 205.214667 112.920173 
L 206.300468 112.32578 
L 207.386269 111.250209 
L 208.472071 109.86329 
L 209.557872 111.391732 
L 210.643673 110.68412 
L 211.729474 110.570902 
L 212.815275 108.900938 
L 213.901076 109.155678 
L 214.986877 108.872634 
L 216.072679 109.467028 
L 217.15848 108.561284 
L 218.244281 109.155678 
L 219.330082 108.080108 
L 220.415883 108.334849 
L 221.501684 108.165022 
L 222.587486 108.759416 
L 224.759088 108.136717 
L 225.844889 166.811894 
L 226.93069 166.557154 
L 228.016491 154.754188 
L 229.102292 160.584909 
L 230.188094 157.018546 
L 231.273895 158.094116 
L 232.359696 154.414534 
L 233.445497 152.574743 
L 234.531298 155.744844 
L 235.617099 153.25405 
L 236.702901 152.263394 
L 237.788702 144.536272 
L 238.874503 161.547262 
L 239.960304 140.233992 
L 241.046105 145.187275 
L 242.131906 140.205687 
L 243.217708 140.177383 
L 244.303509 145.47032 
L 245.38931 146.008105 
L 246.475111 148.810248 
L 247.560912 144.055096 
L 248.646713 148.357376 
L 249.732514 150.904779 
L 251.904117 140.800081 
L 252.989918 140.828386 
L 254.075719 139.752816 
L 255.16152 146.970457 
L 256.247321 143.913574 
L 257.333123 139.582989 
L 258.418924 143.205962 
L 259.504725 141.281257 
L 260.590526 134.912751 
L 261.676327 145.102362 
L 262.762128 137.488458 
L 263.847929 140.460428 
L 264.933731 139.413162 
L 266.019532 139.328249 
L 267.105333 143.913574 
L 268.191134 133.214482 
L 269.276935 135.620362 
L 270.362736 141.394475 
L 271.448538 136.55441 
L 272.534339 138.394201 
L 273.62014 136.526106 
L 274.705941 135.365622 
L 275.791742 135.875103 
L 276.877543 135.280709 
L 277.963344 131.544518 
L 279.049146 130.299121 
L 280.134947 133.752267 
L 281.220748 133.525831 
L 282.306549 135.252404 
L 283.39235 137.318631 
L 284.478151 138.931986 
L 285.563953 137.799807 
L 286.649754 134.374966 
L 287.735555 129.5349 
L 288.821356 129.591509 
L 289.907157 132.393652 
L 290.992958 134.431575 
L 292.07876 127.723414 
L 293.164561 131.940781 
L 294.250362 128.317808 
L 295.336163 129.902859 
L 296.421964 125.827014 
L 297.507765 128.742375 
L 298.593566 126.845975 
L 299.679368 127.808327 
L 300.765169 127.893241 
L 301.85097 126.676148 
L 302.936771 130.695384 
L 304.022572 126.336495 
L 305.108373 127.978154 
L 306.194175 127.100715 
L 307.279976 127.921545 
L 308.365777 124.270268 
L 309.451578 127.015802 
L 310.537379 126.364799 
L 311.62318 127.581892 
L 312.708981 125.685492 
L 313.794783 123.279611 
L 314.880584 123.562656 
L 315.966385 122.883349 
L 317.052186 122.062519 
L 318.137987 123.704178 
L 319.223788 122.26065 
L 320.30959 121.920997 
L 321.395391 119.939683 
L 322.481192 123.307916 
L 323.566993 118.7792 
L 324.652794 120.279337 
L 325.738595 118.665982 
L 326.824396 119.118854 
L 327.910198 121.298298 
L 328.995999 122.288955 
L 330.0818 117.420585 
L 331.167601 120.590686 
L 332.253402 118.637677 
L 333.339203 115.326054 
L 334.425005 118.382937 
L 335.510806 118.184806 
L 336.596607 116.345015 
L 337.682408 115.80723 
L 338.768209 116.996018 
L 339.85401 114.278788 
L 340.939811 113.457959 
L 342.025613 114.759964 
L 343.111414 113.429654 
L 344.197215 114.278788 
L 346.368817 112.410693 
L 347.454618 112.410693 
L 348.54042 109.806681 
L 349.626221 111.391732 
L 350.712022 111.901212 
L 351.797823 111.052078 
L 352.883624 110.995469 
L 353.969425 111.193601 
L 355.055227 110.231248 
L 356.141028 112.099344 
L 357.226829 109.721768 
L 358.31263 110.259553 
L 359.398431 110.344466 
L 360.484232 110.287857 
L 361.570033 109.438723 
L 362.655835 109.127374 
L 363.741636 108.363153 
L 365.913238 109.155678 
L 366.999039 108.306544 
L 368.08484 108.646198 
L 369.170642 110.457684 
L 370.256443 111.420036 
L 371.342244 112.155953 
L 373.513846 114.363702 
L 374.599647 116.401624 
L 375.685448 114.618442 
L 376.77125 114.278788 
L 377.857051 115.524185 
L 378.942852 112.920173 
L 380.028653 113.967439 
L 381.114454 113.684394 
L 382.200255 114.703355 
L 384.371858 113.288132 
L 385.457659 114.080657 
L 386.54346 113.429654 
L 387.629261 113.288132 
L 388.715062 115.043009 
L 389.800863 114.47692 
L 390.886665 115.043009 
L 391.972466 113.542872 
L 393.058267 112.608824 
L 394.144068 115.665708 
L 395.229869 114.108961 
L 396.31567 115.750621 
L 397.401472 114.9864 
L 398.487273 115.354358 
L 398.487273 115.354358 
" clip-path="url(#p3e6222e118)" style="fill: none; stroke: #ff7f0e; stroke-width: 1.5; stroke-linecap: square"/>
   </g>
   <g id="line2d_17">
    <path d="M 73.832727 295.488 
L 74.918528 287.211323 
L 76.00433 281.68707 
L 77.090131 277.177874 
L 78.175932 271.477938 
L 79.261733 276.494663 
L 80.347534 271.926906 
L 81.433335 268.159483 
L 82.519137 265.289995 
L 83.604938 263.025637 
L 84.690739 264.528702 
L 86.862341 257.638026 
L 87.948142 254.143888 
L 89.033943 257.520904 
L 90.119745 254.456213 
L 91.205546 253.284993 
L 92.291347 252.406578 
L 93.377148 250.903513 
L 94.462949 251.098716 
L 95.54875 274.913516 
L 96.634552 267.730036 
L 97.720353 263.630767 
L 98.806154 264.880068 
L 99.891955 268.393727 
L 100.977756 257.228099 
L 102.063557 259.824303 
L 103.149358 255.822636 
L 104.23516 260.527035 
L 105.320961 258.126034 
L 106.406762 256.0764 
L 107.492563 249.010041 
L 108.578364 248.892919 
L 109.664165 253.226432 
L 110.749967 252.269936 
L 111.835768 252.426099 
L 112.921569 251.274399 
L 114.00737 246.199114 
L 115.093171 245.672065 
L 116.178972 243.407707 
L 117.264773 245.242618 
L 118.350575 242.060805 
L 119.436376 240.167333 
L 120.522177 245.105976 
L 121.607978 240.772463 
L 122.693779 238.566666 
L 123.77958 238.059138 
L 124.865382 236.790316 
L 125.951183 234.213633 
L 127.036984 233.120495 
L 128.122785 234.838284 
L 129.208586 233.901308 
L 130.294387 232.749609 
L 131.380189 232.320161 
L 132.46599 233.510901 
L 133.551791 233.706105 
L 134.637592 232.573926 
L 135.723393 232.203039 
L 136.809194 231.480787 
L 137.894995 232.066397 
L 138.980797 255.978798 
L 140.066598 254.788058 
L 141.152399 267.573873 
L 142.2382 250.591188 
L 143.324001 260.117108 
L 144.409802 256.0764 
L 145.495604 251.157277 
L 146.581405 256.466807 
L 147.667206 253.10931 
L 148.753007 254.202449 
L 149.838808 254.30005 
L 150.924609 248.443952 
L 152.01041 251.625765 
L 153.096212 254.124367 
L 154.182013 247.409375 
L 155.267814 250.415505 
L 156.353615 246.589521 
L 157.439416 249.907976 
L 158.525217 247.702179 
L 159.611019 246.179594 
L 160.69682 243.876195 
L 161.782621 248.131627 
L 162.868422 246.257675 
L 163.954223 248.93196 
L 165.040024 245.437821 
L 166.125825 243.641951 
L 167.211627 241.397114 
L 168.297428 247.038488 
L 169.383229 243.388187 
L 170.46903 240.655341 
L 171.554831 244.12996 
L 172.640632 248.151147 
L 173.726434 242.529293 
L 174.812235 245.691586 
L 175.898036 241.455675 
L 176.983837 238.644747 
L 178.069638 242.021764 
L 179.155439 242.314569 
L 180.24124 242.158406 
L 181.327042 239.757406 
L 182.412843 236.029024 
L 183.498644 241.416634 
L 184.584445 237.746812 
L 185.670246 231.988316 
L 186.756047 238.020097 
L 187.841849 236.926959 
L 188.92765 237.297845 
L 190.013451 228.552738 
L 191.099252 235.013967 
L 192.185053 239.581723 
L 193.270854 235.580056 
L 194.356656 228.572258 
L 195.442457 232.80817 
L 196.528258 233.647544 
L 197.614059 231.949275 
L 198.69986 232.300641 
L 199.785661 231.754072 
L 200.871462 230.973259 
L 201.957264 233.471861 
L 203.043065 228.08425 
L 204.128866 229.392112 
L 205.214667 227.440079 
L 206.300468 229.821559 
L 207.386269 228.04521 
L 208.472071 229.509234 
L 209.557872 228.103771 
L 210.643673 227.869527 
L 211.729474 226.913031 
L 212.815275 227.322957 
L 213.901076 227.576722 
L 214.986877 228.494177 
L 216.072679 227.791445 
L 217.15848 226.717827 
L 218.244281 228.318494 
L 219.330082 227.010632 
L 220.415883 228.494177 
L 221.501684 228.318494 
L 222.587486 227.732884 
L 223.673287 228.357535 
L 224.759088 226.932551 
L 225.844889 256.564408 
L 226.93069 258.984929 
L 228.016491 253.753481 
L 229.102292 259.980466 
L 230.188094 250.610708 
L 231.273895 259.453417 
L 232.359696 248.834358 
L 233.445497 251.625765 
L 234.531298 245.37926 
L 235.617099 251.020635 
L 236.702901 250.064139 
L 237.788702 248.717237 
L 238.874503 260.351352 
L 239.960304 239.99165 
L 241.046105 251.606245 
L 242.131906 242.529293 
L 243.217708 245.105976 
L 244.303509 249.380928 
L 245.38931 245.593984 
L 246.475111 249.673733 
L 247.560912 244.988854 
L 248.646713 251.567204 
L 249.732514 252.016172 
L 250.818316 253.304513 
L 251.904117 248.580594 
L 252.989918 248.151147 
L 254.075719 247.194651 
L 255.16152 251.996652 
L 256.247321 251.977131 
L 257.333123 247.565537 
L 258.418924 244.247081 
L 259.504725 248.541554 
L 260.590526 247.272732 
L 261.676327 252.191855 
L 262.762128 242.97826 
L 263.847929 243.876195 
L 264.933731 244.071399 
L 266.019532 246.784724 
L 267.105333 248.697716 
L 268.191134 242.412171 
L 269.276935 239.659805 
L 270.362736 252.621302 
L 271.448538 239.679325 
L 272.534339 243.798114 
L 273.62014 243.700512 
L 274.705941 240.401577 
L 275.791742 242.470732 
L 276.877543 241.240951 
L 277.963344 238.527626 
L 279.049146 239.093715 
L 280.134947 244.715569 
L 281.220748 238.957073 
L 282.306549 237.395447 
L 283.39235 245.92583 
L 284.478151 250.571668 
L 285.563953 238.742349 
L 286.649754 242.158406 
L 287.735555 235.755739 
L 289.907157 239.640284 
L 290.992958 243.466268 
L 292.07876 238.020097 
L 293.164561 242.002244 
L 294.250362 244.090919 
L 295.336163 240.303975 
L 296.421964 238.761869 
L 297.507765 243.915236 
L 298.593566 233.354739 
L 299.679368 241.709439 
L 300.765169 238.410504 
L 301.85097 232.320161 
L 302.936771 239.347479 
L 304.022572 239.113235 
L 305.108373 238.508105 
L 306.194175 239.581723 
L 307.279976 236.556072 
L 309.451578 238.839951 
L 310.537379 237.766333 
L 311.62318 246.394318 
L 312.708981 238.937552 
L 313.794783 234.974926 
L 314.880584 236.302308 
L 315.966385 233.549942 
L 317.052186 231.832153 
L 318.137987 236.614633 
L 319.223788 235.638617 
L 320.30959 233.120495 
L 321.395391 233.354739 
L 322.481192 232.437283 
L 323.566993 233.530422 
L 324.652794 233.745145 
L 325.738595 230.270527 
L 326.824396 233.179056 
L 327.910198 233.510901 
L 328.995999 232.417763 
L 330.0818 233.237617 
L 331.167601 229.567795 
L 332.253402 229.353072 
L 333.339203 235.462934 
L 334.425005 230.290047 
L 335.510806 232.749609 
L 336.596607 225.917494 
L 337.682408 229.314031 
L 338.768209 234.506438 
L 339.85401 226.444543 
L 340.939811 229.118828 
L 342.025613 230.290047 
L 343.111414 228.220893 
L 344.197215 227.088714 
L 345.283016 232.359202 
L 346.368817 226.015096 
L 347.454618 228.025689 
L 348.54042 226.932551 
L 349.626221 228.747941 
L 350.712022 227.732884 
L 351.797823 228.611299 
L 352.883624 227.244876 
L 353.969425 225.546608 
L 355.055227 229.138348 
L 356.141028 225.937014 
L 357.226829 227.186315 
L 359.398431 224.648673 
L 360.484232 227.654803 
L 361.570033 223.750738 
L 362.655835 226.3079 
L 364.827437 225.409965 
L 365.913238 226.89351 
L 366.999039 224.824356 
L 368.08484 225.937014 
L 369.170642 224.863396 
L 370.256443 226.171258 
L 371.342244 224.590112 
L 373.513846 229.997242 
L 374.599647 228.943145 
L 375.685448 231.61743 
L 376.77125 227.186315 
L 377.857051 226.366461 
L 378.942852 228.338014 
L 380.028653 229.548275 
L 381.114454 229.23595 
L 382.200255 227.440079 
L 383.286057 231.402706 
L 384.371858 227.244876 
L 385.457659 229.997242 
L 386.54346 230.621893 
L 387.629261 227.713364 
L 388.715062 230.680454 
L 389.800863 226.952071 
L 390.886665 231.519828 
L 391.972466 232.983852 
L 393.058267 229.899641 
L 394.144068 229.84108 
L 395.229869 229.294511 
L 396.31567 230.739015 
L 397.401472 233.315698 
L 398.487273 230.055803 
L 398.487273 230.055803 
" clip-path="url(#p3e6222e118)" style="fill: none; stroke: #2ca02c; stroke-width: 1.5; stroke-linecap: square"/>
   </g>
   <g id="line2d_18">
    <path d="M 368.08484 107.655541 
L 369.170642 109.976508 
L 370.256443 110.401075 
L 371.342244 113.91083 
L 372.428045 118.128197 
L 373.513846 123.024871 
L 374.599647 119.798161 
L 375.685448 123.053176 
L 376.77125 125.911928 
L 377.857051 133.044655 
L 378.942852 143.970183 
L 380.028653 151.584086 
L 381.114454 149.942427 
L 382.200255 157.895984 
L 383.286057 168.708294 
L 384.371858 170.859434 
L 385.457659 185.775892 
L 386.54346 197.522249 
L 387.629261 203.805843 
L 388.715062 198.456297 
L 389.800863 222.430187 
L 390.886665 218.77891 
L 391.972466 238.054258 
L 393.058267 238.054258 
L 394.144068 250.111964 
L 395.229869 254.272722 
L 396.31567 250.762967 
L 397.401472 265.368076 
L 398.487273 266.981431 
L 398.487273 266.981431 
" clip-path="url(#p3e6222e118)" style="fill: none; stroke: #d62728; stroke-width: 1.5; stroke-linecap: square"/>
   </g>
   <g id="line2d_19">
    <path d="M 368.08484 224.258266 
L 369.170642 224.765795 
L 370.256443 225.819892 
L 371.342244 230.719494 
L 372.428045 232.905771 
L 373.513846 232.124958 
L 374.599647 227.615762 
L 375.685448 228.865063 
L 376.77125 235.931422 
L 377.857051 235.599576 
L 378.942852 239.210837 
L 380.028653 243.993317 
L 381.114454 239.99165 
L 382.200255 246.023431 
L 383.286057 250.10318 
L 384.371858 253.421635 
L 385.457659 260.624636 
L 386.54346 263.533165 
L 387.629261 265.778003 
L 388.715062 264.899588 
L 389.800863 276.533703 
L 390.886665 274.854955 
L 391.972466 282.370281 
L 393.058267 281.257623 
L 394.144068 284.849363 
L 395.229869 283.170615 
L 397.401472 287.426046 
L 398.487273 287.914054 
L 398.487273 287.914054 
" clip-path="url(#p3e6222e118)" style="fill: none; stroke: #9467bd; stroke-width: 1.5; stroke-linecap: square"/>
   </g>
   <g id="patch_3">
    <path d="M 57.6 307.584 
L 57.6 41.472 
" style="fill: none; stroke: #000000; stroke-width: 0.8; stroke-linejoin: miter; stroke-linecap: square"/>
   </g>
   <g id="patch_4">
    <path d="M 414.72 307.584 
L 414.72 41.472 
" style="fill: none; stroke: #000000; stroke-width: 0.8; stroke-linejoin: miter; stroke-linecap: square"/>
   </g>
   <g id="patch_5">
    <path d="M 57.6 307.584 
L 414.72 307.584 
" style="fill: none; stroke: #000000; stroke-width: 0.8; stroke-linejoin: miter; stroke-linecap: square"/>
   </g>
   <g id="patch_6">
    <path d="M 57.6 41.472 
L 414.72 41.472 
" style="fill: none; stroke: #000000; stroke-width: 0.8; stroke-linejoin: miter; stroke-linecap: square"/>
   </g>
   <g id="text_17">
    <!-- Learning Curves -->
    <g transform="translate(187.37625 35.472) scale(0.12 -0.12)">
     <defs>
      <path id="DejaVuSans-4c" d="M 628 4666 
L 1259 4666 
L 1259 531 
L 3531 531 
L 3531 0 
L 628 0 
L 628 4666 
z
" transform="scale(0.015625)"/>
      <path id="DejaVuSans-65" d="M 3597 1894 
L 3597 1613 
L 953 1613 
Q 991 1019 1311 708 
Q 1631 397 2203 397 
Q 2534 397 2845 478 
Q 3156 559 3463 722 
L 3463 178 
Q 3153 47 2828 -22 
Q 2503 -91 2169 -91 
Q 1331 -91 842 396 
Q 353 884 353 1716 
Q 353 2575 817 3079 
Q 1281 3584 2069 3584 
Q 2775 3584 3186 3129 
Q 3597 2675 3597 1894 
z
M 3022 2063 
Q 3016 2534 2758 2815 
Q 2500 3097 2075 3097 
Q 1594 3097 1305 2825 
Q 1016 2553 972 2059 
L 3022 2063 
z
" transform="scale(0.015625)"/>
      <path id="DejaVuSans-6e" d="M 3513 2113 
L 3513 0 
L 2938 0 
L 2938 2094 
Q 2938 2591 2744 2837 
Q 2550 3084 2163 3084 
Q 1697 3084 1428 2787 
Q 1159 2491 1159 1978 
L 1159 0 
L 581 0 
L 581 3500 
L 1159 3500 
L 1159 2956 
Q 1366 3272 1645 3428 
Q 1925 3584 2291 3584 
Q 2894 3584 3203 3211 
Q 3513 2838 3513 2113 
z
" transform="scale(0.015625)"/>
      <path id="DejaVuSans-69" d="M 603 3500 
L 1178 3500 
L 1178 0 
L 603 0 
L 603 3500 
z
M 603 4863 
L 1178 4863 
L 1178 4134 
L 603 4134 
L 603 4863 
z
" transform="scale(0.015625)"/>
      <path id="DejaVuSans-67" d="M 2906 1791 
Q 2906 2416 2648 2759 
Q 2391 3103 1925 3103 
Q 1463 3103 1205 2759 
Q 947 2416 947 1791 
Q 947 1169 1205 825 
Q 1463 481 1925 481 
Q 2391 481 2648 825 
Q 2906 1169 2906 1791 
z
M 3481 434 
Q 3481 -459 3084 -895 
Q 2688 -1331 1869 -1331 
Q 1566 -1331 1297 -1286 
Q 1028 -1241 775 -1147 
L 775 -588 
Q 1028 -725 1275 -790 
Q 1522 -856 1778 -856 
Q 2344 -856 2625 -561 
Q 2906 -266 2906 331 
L 2906 616 
Q 2728 306 2450 153 
Q 2172 0 1784 0 
Q 1141 0 747 490 
Q 353 981 353 1791 
Q 353 2603 747 3093 
Q 1141 3584 1784 3584 
Q 2172 3584 2450 3431 
Q 2728 3278 2906 2969 
L 2906 3500 
L 3481 3500 
L 3481 434 
z
" transform="scale(0.015625)"/>
      <path id="DejaVuSans-20" transform="scale(0.015625)"/>
      <path id="DejaVuSans-43" d="M 4122 4306 
L 4122 3641 
Q 3803 3938 3442 4084 
Q 3081 4231 2675 4231 
Q 1875 4231 1450 3742 
Q 1025 3253 1025 2328 
Q 1025 1406 1450 917 
Q 1875 428 2675 428 
Q 3081 428 3442 575 
Q 3803 722 4122 1019 
L 4122 359 
Q 3791 134 3420 21 
Q 3050 -91 2638 -91 
Q 1578 -91 968 557 
Q 359 1206 359 2328 
Q 359 3453 968 4101 
Q 1578 4750 2638 4750 
Q 3056 4750 3426 4639 
Q 3797 4528 4122 4306 
z
" transform="scale(0.015625)"/>
      <path id="DejaVuSans-76" d="M 191 3500 
L 800 3500 
L 1894 563 
L 2988 3500 
L 3597 3500 
L 2284 0 
L 1503 0 
L 191 3500 
z
" transform="scale(0.015625)"/>
     </defs>
     <use xlink:href="#DejaVuSans-4c"/>
     <use xlink:href="#DejaVuSans-65" x="53.962891"/>
     <use xlink:href="#DejaVuSans-61" x="115.486328"/>
     <use xlink:href="#DejaVuSans-72" x="176.765625"/>
     <use xlink:href="#DejaVuSans-6e" x="216.128906"/>
     <use xlink:href="#DejaVuSans-69" x="279.507812"/>
     <use xlink:href="#DejaVuSans-6e" x="307.291016"/>
     <use xlink:href="#DejaVuSans-67" x="370.669922"/>
     <use xlink:href="#DejaVuSans-20" x="434.146484"/>
     <use xlink:href="#DejaVuSans-43" x="465.933594"/>
     <use xlink:href="#DejaVuSans-75" x="535.757812"/>
     <use xlink:href="#DejaVuSans-72" x="599.136719"/>
     <use xlink:href="#DejaVuSans-76" x="640.25"/>
     <use xlink:href="#DejaVuSans-65" x="699.429688"/>
     <use xlink:href="#DejaVuSans-73" x="760.953125"/>
    </g>
   </g>
   <g id="legend_1">
    <g id="patch_7">
     <path d="M 214.18875 212.723313 
L 407.72 212.723313 
Q 409.72 212.723313 409.72 210.723313 
L 409.72 138.332688 
Q 409.72 136.332688 407.72 136.332688 
L 214.18875 136.332688 
Q 212.18875 136.332688 212.18875 138.332688 
L 212.18875 210.723313 
Q 212.18875 212.723313 214.18875 212.723313 
z
" style="fill: #ffffff; opacity: 0.8; stroke: #cccccc; stroke-linejoin: miter"/>
    </g>
    <g id="line2d_20">
     <path d="M 216.18875 144.431125 
L 226.18875 144.431125 
L 236.18875 144.431125 
" style="fill: none; stroke: #1f77b4; stroke-width: 1.5; stroke-linecap: square"/>
    </g>
    <g id="text_18">
     <!-- Train Accuracy -->
     <g transform="translate(244.18875 147.931125) scale(0.1 -0.1)">
      <defs>
       <path id="DejaVuSans-54" d="M -19 4666 
L 3928 4666 
L 3928 4134 
L 2272 4134 
L 2272 0 
L 1638 0 
L 1638 4134 
L -19 4134 
L -19 4666 
z
" transform="scale(0.015625)"/>
      </defs>
      <use xlink:href="#DejaVuSans-54"/>
      <use xlink:href="#DejaVuSans-72" x="46.333984"/>
      <use xlink:href="#DejaVuSans-61" x="87.447266"/>
      <use xlink:href="#DejaVuSans-69" x="148.726562"/>
      <use xlink:href="#DejaVuSans-6e" x="176.509766"/>
      <use xlink:href="#DejaVuSans-20" x="239.888672"/>
      <use xlink:href="#DejaVuSans-41" x="271.675781"/>
      <use xlink:href="#DejaVuSans-63" x="338.333984"/>
      <use xlink:href="#DejaVuSans-63" x="393.314453"/>
      <use xlink:href="#DejaVuSans-75" x="448.294922"/>
      <use xlink:href="#DejaVuSans-72" x="511.673828"/>
      <use xlink:href="#DejaVuSans-61" x="552.787109"/>
      <use xlink:href="#DejaVuSans-63" x="614.066406"/>
      <use xlink:href="#DejaVuSans-79" x="669.046875"/>
     </g>
    </g>
    <g id="line2d_21">
     <path d="M 216.18875 159.10925 
L 226.18875 159.10925 
L 236.18875 159.10925 
" style="fill: none; stroke: #ff7f0e; stroke-width: 1.5; stroke-linecap: square"/>
    </g>
    <g id="text_19">
     <!-- Validation Accuracy -->
     <g transform="translate(244.18875 162.60925) scale(0.1 -0.1)">
      <defs>
       <path id="DejaVuSans-56" d="M 1831 0 
L 50 4666 
L 709 4666 
L 2188 738 
L 3669 4666 
L 4325 4666 
L 2547 0 
L 1831 0 
z
" transform="scale(0.015625)"/>
       <path id="DejaVuSans-6c" d="M 603 4863 
L 1178 4863 
L 1178 0 
L 603 0 
L 603 4863 
z
" transform="scale(0.015625)"/>
       <path id="DejaVuSans-64" d="M 2906 2969 
L 2906 4863 
L 3481 4863 
L 3481 0 
L 2906 0 
L 2906 525 
Q 2725 213 2448 61 
Q 2172 -91 1784 -91 
Q 1150 -91 751 415 
Q 353 922 353 1747 
Q 353 2572 751 3078 
Q 1150 3584 1784 3584 
Q 2172 3584 2448 3432 
Q 2725 3281 2906 2969 
z
M 947 1747 
Q 947 1113 1208 752 
Q 1469 391 1925 391 
Q 2381 391 2643 752 
Q 2906 1113 2906 1747 
Q 2906 2381 2643 2742 
Q 2381 3103 1925 3103 
Q 1469 3103 1208 2742 
Q 947 2381 947 1747 
z
" transform="scale(0.015625)"/>
       <path id="DejaVuSans-74" d="M 1172 4494 
L 1172 3500 
L 2356 3500 
L 2356 3053 
L 1172 3053 
L 1172 1153 
Q 1172 725 1289 603 
Q 1406 481 1766 481 
L 2356 481 
L 2356 0 
L 1766 0 
Q 1100 0 847 248 
Q 594 497 594 1153 
L 594 3053 
L 172 3053 
L 172 3500 
L 594 3500 
L 594 4494 
L 1172 4494 
z
" transform="scale(0.015625)"/>
      </defs>
      <use xlink:href="#DejaVuSans-56"/>
      <use xlink:href="#DejaVuSans-61" x="60.658203"/>
      <use xlink:href="#DejaVuSans-6c" x="121.9375"/>
      <use xlink:href="#DejaVuSans-69" x="149.720703"/>
      <use xlink:href="#DejaVuSans-64" x="177.503906"/>
      <use xlink:href="#DejaVuSans-61" x="240.980469"/>
      <use xlink:href="#DejaVuSans-74" x="302.259766"/>
      <use xlink:href="#DejaVuSans-69" x="341.46875"/>
      <use xlink:href="#DejaVuSans-6f" x="369.251953"/>
      <use xlink:href="#DejaVuSans-6e" x="430.433594"/>
      <use xlink:href="#DejaVuSans-20" x="493.8125"/>
      <use xlink:href="#DejaVuSans-41" x="525.599609"/>
      <use xlink:href="#DejaVuSans-63" x="592.257812"/>
      <use xlink:href="#DejaVuSans-63" x="647.238281"/>
      <use xlink:href="#DejaVuSans-75" x="702.21875"/>
      <use xlink:href="#DejaVuSans-72" x="765.597656"/>
      <use xlink:href="#DejaVuSans-61" x="806.710938"/>
      <use xlink:href="#DejaVuSans-63" x="867.990234"/>
      <use xlink:href="#DejaVuSans-79" x="922.970703"/>
     </g>
    </g>
    <g id="line2d_22">
     <path d="M 216.18875 173.787375 
L 226.18875 173.787375 
L 236.18875 173.787375 
" style="fill: none; stroke: #2ca02c; stroke-width: 1.5; stroke-linecap: square"/>
    </g>
    <g id="text_20">
     <!-- Robust Validation Accuracy -->
     <g transform="translate(244.18875 177.287375) scale(0.1 -0.1)">
      <defs>
       <path id="DejaVuSans-52" d="M 2841 2188 
Q 3044 2119 3236 1894 
Q 3428 1669 3622 1275 
L 4263 0 
L 3584 0 
L 2988 1197 
Q 2756 1666 2539 1819 
Q 2322 1972 1947 1972 
L 1259 1972 
L 1259 0 
L 628 0 
L 628 4666 
L 2053 4666 
Q 2853 4666 3247 4331 
Q 3641 3997 3641 3322 
Q 3641 2881 3436 2590 
Q 3231 2300 2841 2188 
z
M 1259 4147 
L 1259 2491 
L 2053 2491 
Q 2509 2491 2742 2702 
Q 2975 2913 2975 3322 
Q 2975 3731 2742 3939 
Q 2509 4147 2053 4147 
L 1259 4147 
z
" transform="scale(0.015625)"/>
       <path id="DejaVuSans-62" d="M 3116 1747 
Q 3116 2381 2855 2742 
Q 2594 3103 2138 3103 
Q 1681 3103 1420 2742 
Q 1159 2381 1159 1747 
Q 1159 1113 1420 752 
Q 1681 391 2138 391 
Q 2594 391 2855 752 
Q 3116 1113 3116 1747 
z
M 1159 2969 
Q 1341 3281 1617 3432 
Q 1894 3584 2278 3584 
Q 2916 3584 3314 3078 
Q 3713 2572 3713 1747 
Q 3713 922 3314 415 
Q 2916 -91 2278 -91 
Q 1894 -91 1617 61 
Q 1341 213 1159 525 
L 1159 0 
L 581 0 
L 581 4863 
L 1159 4863 
L 1159 2969 
z
" transform="scale(0.015625)"/>
      </defs>
      <use xlink:href="#DejaVuSans-52"/>
      <use xlink:href="#DejaVuSans-6f" x="64.982422"/>
      <use xlink:href="#DejaVuSans-62" x="126.164062"/>
      <use xlink:href="#DejaVuSans-75" x="189.640625"/>
      <use xlink:href="#DejaVuSans-73" x="253.019531"/>
      <use xlink:href="#DejaVuSans-74" x="305.119141"/>
      <use xlink:href="#DejaVuSans-20" x="344.328125"/>
      <use xlink:href="#DejaVuSans-56" x="376.115234"/>
      <use xlink:href="#DejaVuSans-61" x="436.773438"/>
      <use xlink:href="#DejaVuSans-6c" x="498.052734"/>
      <use xlink:href="#DejaVuSans-69" x="525.835938"/>
      <use xlink:href="#DejaVuSans-64" x="553.619141"/>
      <use xlink:href="#DejaVuSans-61" x="617.095703"/>
      <use xlink:href="#DejaVuSans-74" x="678.375"/>
      <use xlink:href="#DejaVuSans-69" x="717.583984"/>
      <use xlink:href="#DejaVuSans-6f" x="745.367188"/>
      <use xlink:href="#DejaVuSans-6e" x="806.548828"/>
      <use xlink:href="#DejaVuSans-20" x="869.927734"/>
      <use xlink:href="#DejaVuSans-41" x="901.714844"/>
      <use xlink:href="#DejaVuSans-63" x="968.373047"/>
      <use xlink:href="#DejaVuSans-63" x="1023.353516"/>
      <use xlink:href="#DejaVuSans-75" x="1078.333984"/>
      <use xlink:href="#DejaVuSans-72" x="1141.712891"/>
      <use xlink:href="#DejaVuSans-61" x="1182.826172"/>
      <use xlink:href="#DejaVuSans-63" x="1244.105469"/>
      <use xlink:href="#DejaVuSans-79" x="1299.085938"/>
     </g>
    </g>
    <g id="line2d_23">
     <path d="M 216.18875 188.4655 
L 226.18875 188.4655 
L 236.18875 188.4655 
" style="fill: none; stroke: #d62728; stroke-width: 1.5; stroke-linecap: square"/>
    </g>
    <g id="text_21">
     <!-- SWA Validation Accuracy -->
     <g transform="translate(244.18875 191.9655) scale(0.1 -0.1)">
      <defs>
       <path id="DejaVuSans-53" d="M 3425 4513 
L 3425 3897 
Q 3066 4069 2747 4153 
Q 2428 4238 2131 4238 
Q 1616 4238 1336 4038 
Q 1056 3838 1056 3469 
Q 1056 3159 1242 3001 
Q 1428 2844 1947 2747 
L 2328 2669 
Q 3034 2534 3370 2195 
Q 3706 1856 3706 1288 
Q 3706 609 3251 259 
Q 2797 -91 1919 -91 
Q 1588 -91 1214 -16 
Q 841 59 441 206 
L 441 856 
Q 825 641 1194 531 
Q 1563 422 1919 422 
Q 2459 422 2753 634 
Q 3047 847 3047 1241 
Q 3047 1584 2836 1778 
Q 2625 1972 2144 2069 
L 1759 2144 
Q 1053 2284 737 2584 
Q 422 2884 422 3419 
Q 422 4038 858 4394 
Q 1294 4750 2059 4750 
Q 2388 4750 2728 4690 
Q 3069 4631 3425 4513 
z
" transform="scale(0.015625)"/>
       <path id="DejaVuSans-57" d="M 213 4666 
L 850 4666 
L 1831 722 
L 2809 4666 
L 3519 4666 
L 4500 722 
L 5478 4666 
L 6119 4666 
L 4947 0 
L 4153 0 
L 3169 4050 
L 2175 0 
L 1381 0 
L 213 4666 
z
" transform="scale(0.015625)"/>
      </defs>
      <use xlink:href="#DejaVuSans-53"/>
      <use xlink:href="#DejaVuSans-57" x="63.476562"/>
      <use xlink:href="#DejaVuSans-41" x="156.853516"/>
      <use xlink:href="#DejaVuSans-20" x="225.261719"/>
      <use xlink:href="#DejaVuSans-56" x="257.048828"/>
      <use xlink:href="#DejaVuSans-61" x="317.707031"/>
      <use xlink:href="#DejaVuSans-6c" x="378.986328"/>
      <use xlink:href="#DejaVuSans-69" x="406.769531"/>
      <use xlink:href="#DejaVuSans-64" x="434.552734"/>
      <use xlink:href="#DejaVuSans-61" x="498.029297"/>
      <use xlink:href="#DejaVuSans-74" x="559.308594"/>
      <use xlink:href="#DejaVuSans-69" x="598.517578"/>
      <use xlink:href="#DejaVuSans-6f" x="626.300781"/>
      <use xlink:href="#DejaVuSans-6e" x="687.482422"/>
      <use xlink:href="#DejaVuSans-20" x="750.861328"/>
      <use xlink:href="#DejaVuSans-41" x="782.648438"/>
      <use xlink:href="#DejaVuSans-63" x="849.306641"/>
      <use xlink:href="#DejaVuSans-63" x="904.287109"/>
      <use xlink:href="#DejaVuSans-75" x="959.267578"/>
      <use xlink:href="#DejaVuSans-72" x="1022.646484"/>
      <use xlink:href="#DejaVuSans-61" x="1063.759766"/>
      <use xlink:href="#DejaVuSans-63" x="1125.039062"/>
      <use xlink:href="#DejaVuSans-79" x="1180.019531"/>
     </g>
    </g>
    <g id="line2d_24">
     <path d="M 216.18875 203.143625 
L 226.18875 203.143625 
L 236.18875 203.143625 
" style="fill: none; stroke: #9467bd; stroke-width: 1.5; stroke-linecap: square"/>
    </g>
    <g id="text_22">
     <!-- SWA Robust Validation Accuracy -->
     <g transform="translate(244.18875 206.643625) scale(0.1 -0.1)">
      <use xlink:href="#DejaVuSans-53"/>
      <use xlink:href="#DejaVuSans-57" x="63.476562"/>
      <use xlink:href="#DejaVuSans-41" x="156.853516"/>
      <use xlink:href="#DejaVuSans-20" x="225.261719"/>
      <use xlink:href="#DejaVuSans-52" x="257.048828"/>
      <use xlink:href="#DejaVuSans-6f" x="322.03125"/>
      <use xlink:href="#DejaVuSans-62" x="383.212891"/>
      <use xlink:href="#DejaVuSans-75" x="446.689453"/>
      <use xlink:href="#DejaVuSans-73" x="510.068359"/>
      <use xlink:href="#DejaVuSans-74" x="562.167969"/>
      <use xlink:href="#DejaVuSans-20" x="601.376953"/>
      <use xlink:href="#DejaVuSans-56" x="633.164062"/>
      <use xlink:href="#DejaVuSans-61" x="693.822266"/>
      <use xlink:href="#DejaVuSans-6c" x="755.101562"/>
      <use xlink:href="#DejaVuSans-69" x="782.884766"/>
      <use xlink:href="#DejaVuSans-64" x="810.667969"/>
      <use xlink:href="#DejaVuSans-61" x="874.144531"/>
      <use xlink:href="#DejaVuSans-74" x="935.423828"/>
      <use xlink:href="#DejaVuSans-69" x="974.632812"/>
      <use xlink:href="#DejaVuSans-6f" x="1002.416016"/>
      <use xlink:href="#DejaVuSans-6e" x="1063.597656"/>
      <use xlink:href="#DejaVuSans-20" x="1126.976562"/>
      <use xlink:href="#DejaVuSans-41" x="1158.763672"/>
      <use xlink:href="#DejaVuSans-63" x="1225.421875"/>
      <use xlink:href="#DejaVuSans-63" x="1280.402344"/>
      <use xlink:href="#DejaVuSans-75" x="1335.382812"/>
      <use xlink:href="#DejaVuSans-72" x="1398.761719"/>
      <use xlink:href="#DejaVuSans-61" x="1439.875"/>
      <use xlink:href="#DejaVuSans-63" x="1501.154297"/>
      <use xlink:href="#DejaVuSans-79" x="1556.134766"/>
     </g>
    </g>
   </g>
  </g>
 </g>
 <defs>
  <clipPath id="p3e6222e118">
   <rect x="57.6" y="41.472" width="357.12" height="266.112"/>
  </clipPath>
 </defs>
</svg>
