<?xml version="1.0" encoding="utf-8" standalone="no"?>
<!DOCTYPE svg PUBLIC "-//W3C//DTD SVG 1.1//EN"
  "http://www.w3.org/Graphics/SVG/1.1/DTD/svg11.dtd">
<svg xmlns:xlink="http://www.w3.org/1999/xlink" width="460.8pt" height="345.6pt" viewBox="0 0 460.8 345.6" xmlns="http://www.w3.org/2000/svg" version="1.1">
 <metadata>
  <rdf:RDF xmlns:dc="http://purl.org/dc/elements/1.1/" xmlns:cc="http://creativecommons.org/ns#" xmlns:rdf="http://www.w3.org/1999/02/22-rdf-syntax-ns#">
   <cc:Work>
    <dc:type rdf:resource="http://purl.org/dc/dcmitype/StillImage"/>
    <dc:date>2025-01-10T01:32:27.024059</dc:date>
    <dc:format>image/svg+xml</dc:format>
    <dc:creator>
     <cc:Agent>
      <dc:title>Matplotlib v3.9.1, https://matplotlib.org/</dc:title>
     </cc:Agent>
    </dc:creator>
   </cc:Work>
  </rdf:RDF>
 </metadata>
 <defs>
  <style type="text/css">*{stroke-linejoin: round; stroke-linecap: butt}</style>
 </defs>
 <g id="figure_1">
  <g id="patch_1">
   <path d="M 0 345.6 
L 460.8 345.6 
L 460.8 0 
L 0 0 
z
" style="fill: #ffffff"/>
  </g>
  <g id="axes_1">
   <g id="patch_2">
    <path d="M 57.6 307.584 
L 414.72 307.584 
L 414.72 41.472 
L 57.6 41.472 
z
" style="fill: #ffffff"/>
   </g>
   <g id="matplotlib.axis_1">
    <g id="xtick_1">
     <g id="line2d_1">
      <defs>
       <path id="m411f5e73ca" d="M 0 0 
L 0 3.5 
" style="stroke: #000000; stroke-width: 0.8"/>
      </defs>
      <g>
       <use xlink:href="#m411f5e73ca" x="73.832727" y="307.584" style="stroke: #000000; stroke-width: 0.8"/>
      </g>
     </g>
     <g id="text_1">
      <!-- 1 -->
      <g transform="translate(70.651477 322.182437) scale(0.1 -0.1)">
       <defs>
        <path id="DejaVuSans-31" d="M 794 531 
L 1825 531 
L 1825 4091 
L 703 3866 
L 703 4441 
L 1819 4666 
L 2450 4666 
L 2450 531 
L 3481 531 
L 3481 0 
L 794 0 
L 794 531 
z
" transform="scale(0.015625)"/>
       </defs>
       <use xlink:href="#DejaVuSans-31"/>
      </g>
     </g>
    </g>
    <g id="xtick_2">
     <g id="line2d_2">
      <g>
       <use xlink:href="#m411f5e73ca" x="109.664165" y="307.584" style="stroke: #000000; stroke-width: 0.8"/>
      </g>
     </g>
     <g id="text_2">
      <!-- 34 -->
      <g transform="translate(103.301665 322.182437) scale(0.1 -0.1)">
       <defs>
        <path id="DejaVuSans-33" d="M 2597 2516 
Q 3050 2419 3304 2112 
Q 3559 1806 3559 1356 
Q 3559 666 3084 287 
Q 2609 -91 1734 -91 
Q 1441 -91 1130 -33 
Q 819 25 488 141 
L 488 750 
Q 750 597 1062 519 
Q 1375 441 1716 441 
Q 2309 441 2620 675 
Q 2931 909 2931 1356 
Q 2931 1769 2642 2001 
Q 2353 2234 1838 2234 
L 1294 2234 
L 1294 2753 
L 1863 2753 
Q 2328 2753 2575 2939 
Q 2822 3125 2822 3475 
Q 2822 3834 2567 4026 
Q 2313 4219 1838 4219 
Q 1578 4219 1281 4162 
Q 984 4106 628 3988 
L 628 4550 
Q 988 4650 1302 4700 
Q 1616 4750 1894 4750 
Q 2613 4750 3031 4423 
Q 3450 4097 3450 3541 
Q 3450 3153 3228 2886 
Q 3006 2619 2597 2516 
z
" transform="scale(0.015625)"/>
        <path id="DejaVuSans-34" d="M 2419 4116 
L 825 1625 
L 2419 1625 
L 2419 4116 
z
M 2253 4666 
L 3047 4666 
L 3047 1625 
L 3713 1625 
L 3713 1100 
L 3047 1100 
L 3047 0 
L 2419 0 
L 2419 1100 
L 313 1100 
L 313 1709 
L 2253 4666 
z
" transform="scale(0.015625)"/>
       </defs>
       <use xlink:href="#DejaVuSans-33"/>
       <use xlink:href="#DejaVuSans-34" x="63.623047"/>
      </g>
     </g>
    </g>
    <g id="xtick_3">
     <g id="line2d_3">
      <g>
       <use xlink:href="#m411f5e73ca" x="145.495604" y="307.584" style="stroke: #000000; stroke-width: 0.8"/>
      </g>
     </g>
     <g id="text_3">
      <!-- 67 -->
      <g transform="translate(139.133104 322.182437) scale(0.1 -0.1)">
       <defs>
        <path id="DejaVuSans-36" d="M 2113 2584 
Q 1688 2584 1439 2293 
Q 1191 2003 1191 1497 
Q 1191 994 1439 701 
Q 1688 409 2113 409 
Q 2538 409 2786 701 
Q 3034 994 3034 1497 
Q 3034 2003 2786 2293 
Q 2538 2584 2113 2584 
z
M 3366 4563 
L 3366 3988 
Q 3128 4100 2886 4159 
Q 2644 4219 2406 4219 
Q 1781 4219 1451 3797 
Q 1122 3375 1075 2522 
Q 1259 2794 1537 2939 
Q 1816 3084 2150 3084 
Q 2853 3084 3261 2657 
Q 3669 2231 3669 1497 
Q 3669 778 3244 343 
Q 2819 -91 2113 -91 
Q 1303 -91 875 529 
Q 447 1150 447 2328 
Q 447 3434 972 4092 
Q 1497 4750 2381 4750 
Q 2619 4750 2861 4703 
Q 3103 4656 3366 4563 
z
" transform="scale(0.015625)"/>
        <path id="DejaVuSans-37" d="M 525 4666 
L 3525 4666 
L 3525 4397 
L 1831 0 
L 1172 0 
L 2766 4134 
L 525 4134 
L 525 4666 
z
" transform="scale(0.015625)"/>
       </defs>
       <use xlink:href="#DejaVuSans-36"/>
       <use xlink:href="#DejaVuSans-37" x="63.623047"/>
      </g>
     </g>
    </g>
    <g id="xtick_4">
     <g id="line2d_4">
      <g>
       <use xlink:href="#m411f5e73ca" x="181.327042" y="307.584" style="stroke: #000000; stroke-width: 0.8"/>
      </g>
     </g>
     <g id="text_4">
      <!-- 100 -->
      <g transform="translate(171.783292 322.182437) scale(0.1 -0.1)">
       <defs>
        <path id="DejaVuSans-30" d="M 2034 4250 
Q 1547 4250 1301 3770 
Q 1056 3291 1056 2328 
Q 1056 1369 1301 889 
Q 1547 409 2034 409 
Q 2525 409 2770 889 
Q 3016 1369 3016 2328 
Q 3016 3291 2770 3770 
Q 2525 4250 2034 4250 
z
M 2034 4750 
Q 2819 4750 3233 4129 
Q 3647 3509 3647 2328 
Q 3647 1150 3233 529 
Q 2819 -91 2034 -91 
Q 1250 -91 836 529 
Q 422 1150 422 2328 
Q 422 3509 836 4129 
Q 1250 4750 2034 4750 
z
" transform="scale(0.015625)"/>
       </defs>
       <use xlink:href="#DejaVuSans-31"/>
       <use xlink:href="#DejaVuSans-30" x="63.623047"/>
       <use xlink:href="#DejaVuSans-30" x="127.246094"/>
      </g>
     </g>
    </g>
    <g id="xtick_5">
     <g id="line2d_5">
      <g>
       <use xlink:href="#m411f5e73ca" x="217.15848" y="307.584" style="stroke: #000000; stroke-width: 0.8"/>
      </g>
     </g>
     <g id="text_5">
      <!-- 133 -->
      <g transform="translate(207.61473 322.182437) scale(0.1 -0.1)">
       <use xlink:href="#DejaVuSans-31"/>
       <use xlink:href="#DejaVuSans-33" x="63.623047"/>
       <use xlink:href="#DejaVuSans-33" x="127.246094"/>
      </g>
     </g>
    </g>
    <g id="xtick_6">
     <g id="line2d_6">
      <g>
       <use xlink:href="#m411f5e73ca" x="254.075719" y="307.584" style="stroke: #000000; stroke-width: 0.8"/>
      </g>
     </g>
     <g id="text_6">
      <!-- 167 -->
      <g transform="translate(244.531969 322.182437) scale(0.1 -0.1)">
       <use xlink:href="#DejaVuSans-31"/>
       <use xlink:href="#DejaVuSans-36" x="63.623047"/>
       <use xlink:href="#DejaVuSans-37" x="127.246094"/>
      </g>
     </g>
    </g>
    <g id="xtick_7">
     <g id="line2d_7">
      <g>
       <use xlink:href="#m411f5e73ca" x="289.907157" y="307.584" style="stroke: #000000; stroke-width: 0.8"/>
      </g>
     </g>
     <g id="text_7">
      <!-- 200 -->
      <g transform="translate(280.363407 322.182437) scale(0.1 -0.1)">
       <defs>
        <path id="DejaVuSans-32" d="M 1228 531 
L 3431 531 
L 3431 0 
L 469 0 
L 469 531 
Q 828 903 1448 1529 
Q 2069 2156 2228 2338 
Q 2531 2678 2651 2914 
Q 2772 3150 2772 3378 
Q 2772 3750 2511 3984 
Q 2250 4219 1831 4219 
Q 1534 4219 1204 4116 
Q 875 4013 500 3803 
L 500 4441 
Q 881 4594 1212 4672 
Q 1544 4750 1819 4750 
Q 2544 4750 2975 4387 
Q 3406 4025 3406 3419 
Q 3406 3131 3298 2873 
Q 3191 2616 2906 2266 
Q 2828 2175 2409 1742 
Q 1991 1309 1228 531 
z
" transform="scale(0.015625)"/>
       </defs>
       <use xlink:href="#DejaVuSans-32"/>
       <use xlink:href="#DejaVuSans-30" x="63.623047"/>
       <use xlink:href="#DejaVuSans-30" x="127.246094"/>
      </g>
     </g>
    </g>
    <g id="xtick_8">
     <g id="line2d_8">
      <g>
       <use xlink:href="#m411f5e73ca" x="325.738595" y="307.584" style="stroke: #000000; stroke-width: 0.8"/>
      </g>
     </g>
     <g id="text_8">
      <!-- 233 -->
      <g transform="translate(316.194845 322.182437) scale(0.1 -0.1)">
       <use xlink:href="#DejaVuSans-32"/>
       <use xlink:href="#DejaVuSans-33" x="63.623047"/>
       <use xlink:href="#DejaVuSans-33" x="127.246094"/>
      </g>
     </g>
    </g>
    <g id="xtick_9">
     <g id="line2d_9">
      <g>
       <use xlink:href="#m411f5e73ca" x="361.570033" y="307.584" style="stroke: #000000; stroke-width: 0.8"/>
      </g>
     </g>
     <g id="text_9">
      <!-- 266 -->
      <g transform="translate(352.026283 322.182437) scale(0.1 -0.1)">
       <use xlink:href="#DejaVuSans-32"/>
       <use xlink:href="#DejaVuSans-36" x="63.623047"/>
       <use xlink:href="#DejaVuSans-36" x="127.246094"/>
      </g>
     </g>
    </g>
    <g id="xtick_10">
     <g id="line2d_10">
      <g>
       <use xlink:href="#m411f5e73ca" x="398.487273" y="307.584" style="stroke: #000000; stroke-width: 0.8"/>
      </g>
     </g>
     <g id="text_10">
      <!-- 300 -->
      <g transform="translate(388.943523 322.182437) scale(0.1 -0.1)">
       <use xlink:href="#DejaVuSans-33"/>
       <use xlink:href="#DejaVuSans-30" x="63.623047"/>
       <use xlink:href="#DejaVuSans-30" x="127.246094"/>
      </g>
     </g>
    </g>
    <g id="text_11">
     <!-- Epochs -->
     <g transform="translate(218.244375 335.860562) scale(0.1 -0.1)">
      <defs>
       <path id="DejaVuSans-45" d="M 628 4666 
L 3578 4666 
L 3578 4134 
L 1259 4134 
L 1259 2753 
L 3481 2753 
L 3481 2222 
L 1259 2222 
L 1259 531 
L 3634 531 
L 3634 0 
L 628 0 
L 628 4666 
z
" transform="scale(0.015625)"/>
       <path id="DejaVuSans-70" d="M 1159 525 
L 1159 -1331 
L 581 -1331 
L 581 3500 
L 1159 3500 
L 1159 2969 
Q 1341 3281 1617 3432 
Q 1894 3584 2278 3584 
Q 2916 3584 3314 3078 
Q 3713 2572 3713 1747 
Q 3713 922 3314 415 
Q 2916 -91 2278 -91 
Q 1894 -91 1617 61 
Q 1341 213 1159 525 
z
M 3116 1747 
Q 3116 2381 2855 2742 
Q 2594 3103 2138 3103 
Q 1681 3103 1420 2742 
Q 1159 2381 1159 1747 
Q 1159 1113 1420 752 
Q 1681 391 2138 391 
Q 2594 391 2855 752 
Q 3116 1113 3116 1747 
z
" transform="scale(0.015625)"/>
       <path id="DejaVuSans-6f" d="M 1959 3097 
Q 1497 3097 1228 2736 
Q 959 2375 959 1747 
Q 959 1119 1226 758 
Q 1494 397 1959 397 
Q 2419 397 2687 759 
Q 2956 1122 2956 1747 
Q 2956 2369 2687 2733 
Q 2419 3097 1959 3097 
z
M 1959 3584 
Q 2709 3584 3137 3096 
Q 3566 2609 3566 1747 
Q 3566 888 3137 398 
Q 2709 -91 1959 -91 
Q 1206 -91 779 398 
Q 353 888 353 1747 
Q 353 2609 779 3096 
Q 1206 3584 1959 3584 
z
" transform="scale(0.015625)"/>
       <path id="DejaVuSans-63" d="M 3122 3366 
L 3122 2828 
Q 2878 2963 2633 3030 
Q 2388 3097 2138 3097 
Q 1578 3097 1268 2742 
Q 959 2388 959 1747 
Q 959 1106 1268 751 
Q 1578 397 2138 397 
Q 2388 397 2633 464 
Q 2878 531 3122 666 
L 3122 134 
Q 2881 22 2623 -34 
Q 2366 -91 2075 -91 
Q 1284 -91 818 406 
Q 353 903 353 1747 
Q 353 2603 823 3093 
Q 1294 3584 2113 3584 
Q 2378 3584 2631 3529 
Q 2884 3475 3122 3366 
z
" transform="scale(0.015625)"/>
       <path id="DejaVuSans-68" d="M 3513 2113 
L 3513 0 
L 2938 0 
L 2938 2094 
Q 2938 2591 2744 2837 
Q 2550 3084 2163 3084 
Q 1697 3084 1428 2787 
Q 1159 2491 1159 1978 
L 1159 0 
L 581 0 
L 581 4863 
L 1159 4863 
L 1159 2956 
Q 1366 3272 1645 3428 
Q 1925 3584 2291 3584 
Q 2894 3584 3203 3211 
Q 3513 2838 3513 2113 
z
" transform="scale(0.015625)"/>
       <path id="DejaVuSans-73" d="M 2834 3397 
L 2834 2853 
Q 2591 2978 2328 3040 
Q 2066 3103 1784 3103 
Q 1356 3103 1142 2972 
Q 928 2841 928 2578 
Q 928 2378 1081 2264 
Q 1234 2150 1697 2047 
L 1894 2003 
Q 2506 1872 2764 1633 
Q 3022 1394 3022 966 
Q 3022 478 2636 193 
Q 2250 -91 1575 -91 
Q 1294 -91 989 -36 
Q 684 19 347 128 
L 347 722 
Q 666 556 975 473 
Q 1284 391 1588 391 
Q 1994 391 2212 530 
Q 2431 669 2431 922 
Q 2431 1156 2273 1281 
Q 2116 1406 1581 1522 
L 1381 1569 
Q 847 1681 609 1914 
Q 372 2147 372 2553 
Q 372 3047 722 3315 
Q 1072 3584 1716 3584 
Q 2034 3584 2315 3537 
Q 2597 3491 2834 3397 
z
" transform="scale(0.015625)"/>
      </defs>
      <use xlink:href="#DejaVuSans-45"/>
      <use xlink:href="#DejaVuSans-70" x="63.183594"/>
      <use xlink:href="#DejaVuSans-6f" x="126.660156"/>
      <use xlink:href="#DejaVuSans-63" x="187.841797"/>
      <use xlink:href="#DejaVuSans-68" x="242.822266"/>
      <use xlink:href="#DejaVuSans-73" x="306.201172"/>
     </g>
    </g>
   </g>
   <g id="matplotlib.axis_2">
    <g id="ytick_1">
     <g id="line2d_11">
      <defs>
       <path id="m24ee1a1e7d" d="M 0 0 
L -3.5 0 
" style="stroke: #000000; stroke-width: 0.8"/>
      </defs>
      <g>
       <use xlink:href="#m24ee1a1e7d" x="57.6" y="255.125351" style="stroke: #000000; stroke-width: 0.8"/>
      </g>
     </g>
     <g id="text_12">
      <!-- 20 -->
      <g transform="translate(37.875 258.92457) scale(0.1 -0.1)">
       <use xlink:href="#DejaVuSans-32"/>
       <use xlink:href="#DejaVuSans-30" x="63.623047"/>
      </g>
     </g>
    </g>
    <g id="ytick_2">
     <g id="line2d_12">
      <g>
       <use xlink:href="#m24ee1a1e7d" x="57.6" y="200.859389" style="stroke: #000000; stroke-width: 0.8"/>
      </g>
     </g>
     <g id="text_13">
      <!-- 40 -->
      <g transform="translate(37.875 204.658608) scale(0.1 -0.1)">
       <use xlink:href="#DejaVuSans-34"/>
       <use xlink:href="#DejaVuSans-30" x="63.623047"/>
      </g>
     </g>
    </g>
    <g id="ytick_3">
     <g id="line2d_13">
      <g>
       <use xlink:href="#m24ee1a1e7d" x="57.6" y="146.593426" style="stroke: #000000; stroke-width: 0.8"/>
      </g>
     </g>
     <g id="text_14">
      <!-- 60 -->
      <g transform="translate(37.875 150.392645) scale(0.1 -0.1)">
       <use xlink:href="#DejaVuSans-36"/>
       <use xlink:href="#DejaVuSans-30" x="63.623047"/>
      </g>
     </g>
    </g>
    <g id="ytick_4">
     <g id="line2d_14">
      <g>
       <use xlink:href="#m24ee1a1e7d" x="57.6" y="92.327464" style="stroke: #000000; stroke-width: 0.8"/>
      </g>
     </g>
     <g id="text_15">
      <!-- 80 -->
      <g transform="translate(37.875 96.126682) scale(0.1 -0.1)">
       <defs>
        <path id="DejaVuSans-38" d="M 2034 2216 
Q 1584 2216 1326 1975 
Q 1069 1734 1069 1313 
Q 1069 891 1326 650 
Q 1584 409 2034 409 
Q 2484 409 2743 651 
Q 3003 894 3003 1313 
Q 3003 1734 2745 1975 
Q 2488 2216 2034 2216 
z
M 1403 2484 
Q 997 2584 770 2862 
Q 544 3141 544 3541 
Q 544 4100 942 4425 
Q 1341 4750 2034 4750 
Q 2731 4750 3128 4425 
Q 3525 4100 3525 3541 
Q 3525 3141 3298 2862 
Q 3072 2584 2669 2484 
Q 3125 2378 3379 2068 
Q 3634 1759 3634 1313 
Q 3634 634 3220 271 
Q 2806 -91 2034 -91 
Q 1263 -91 848 271 
Q 434 634 434 1313 
Q 434 1759 690 2068 
Q 947 2378 1403 2484 
z
M 1172 3481 
Q 1172 3119 1398 2916 
Q 1625 2713 2034 2713 
Q 2441 2713 2670 2916 
Q 2900 3119 2900 3481 
Q 2900 3844 2670 4047 
Q 2441 4250 2034 4250 
Q 1625 4250 1398 4047 
Q 1172 3844 1172 3481 
z
" transform="scale(0.015625)"/>
       </defs>
       <use xlink:href="#DejaVuSans-38"/>
       <use xlink:href="#DejaVuSans-30" x="63.623047"/>
      </g>
     </g>
    </g>
    <g id="text_16">
     <!-- Accuracy -->
     <g transform="translate(31.795312 197.356125) rotate(-90) scale(0.1 -0.1)">
      <defs>
       <path id="DejaVuSans-41" d="M 2188 4044 
L 1331 1722 
L 3047 1722 
L 2188 4044 
z
M 1831 4666 
L 2547 4666 
L 4325 0 
L 3669 0 
L 3244 1197 
L 1141 1197 
L 716 0 
L 50 0 
L 1831 4666 
z
" transform="scale(0.015625)"/>
       <path id="DejaVuSans-75" d="M 544 1381 
L 544 3500 
L 1119 3500 
L 1119 1403 
Q 1119 906 1312 657 
Q 1506 409 1894 409 
Q 2359 409 2629 706 
Q 2900 1003 2900 1516 
L 2900 3500 
L 3475 3500 
L 3475 0 
L 2900 0 
L 2900 538 
Q 2691 219 2414 64 
Q 2138 -91 1772 -91 
Q 1169 -91 856 284 
Q 544 659 544 1381 
z
M 1991 3584 
L 1991 3584 
z
" transform="scale(0.015625)"/>
       <path id="DejaVuSans-72" d="M 2631 2963 
Q 2534 3019 2420 3045 
Q 2306 3072 2169 3072 
Q 1681 3072 1420 2755 
Q 1159 2438 1159 1844 
L 1159 0 
L 581 0 
L 581 3500 
L 1159 3500 
L 1159 2956 
Q 1341 3275 1631 3429 
Q 1922 3584 2338 3584 
Q 2397 3584 2469 3576 
Q 2541 3569 2628 3553 
L 2631 2963 
z
" transform="scale(0.015625)"/>
       <path id="DejaVuSans-61" d="M 2194 1759 
Q 1497 1759 1228 1600 
Q 959 1441 959 1056 
Q 959 750 1161 570 
Q 1363 391 1709 391 
Q 2188 391 2477 730 
Q 2766 1069 2766 1631 
L 2766 1759 
L 2194 1759 
z
M 3341 1997 
L 3341 0 
L 2766 0 
L 2766 531 
Q 2569 213 2275 61 
Q 1981 -91 1556 -91 
Q 1019 -91 701 211 
Q 384 513 384 1019 
Q 384 1609 779 1909 
Q 1175 2209 1959 2209 
L 2766 2209 
L 2766 2266 
Q 2766 2663 2505 2880 
Q 2244 3097 1772 3097 
Q 1472 3097 1187 3025 
Q 903 2953 641 2809 
L 641 3341 
Q 956 3463 1253 3523 
Q 1550 3584 1831 3584 
Q 2591 3584 2966 3190 
Q 3341 2797 3341 1997 
z
" transform="scale(0.015625)"/>
       <path id="DejaVuSans-79" d="M 2059 -325 
Q 1816 -950 1584 -1140 
Q 1353 -1331 966 -1331 
L 506 -1331 
L 506 -850 
L 844 -850 
Q 1081 -850 1212 -737 
Q 1344 -625 1503 -206 
L 1606 56 
L 191 3500 
L 800 3500 
L 1894 763 
L 2988 3500 
L 3597 3500 
L 2059 -325 
z
" transform="scale(0.015625)"/>
      </defs>
      <use xlink:href="#DejaVuSans-41"/>
      <use xlink:href="#DejaVuSans-63" x="66.658203"/>
      <use xlink:href="#DejaVuSans-63" x="121.638672"/>
      <use xlink:href="#DejaVuSans-75" x="176.619141"/>
      <use xlink:href="#DejaVuSans-72" x="239.998047"/>
      <use xlink:href="#DejaVuSans-61" x="281.111328"/>
      <use xlink:href="#DejaVuSans-63" x="342.390625"/>
      <use xlink:href="#DejaVuSans-79" x="397.371094"/>
     </g>
    </g>
   </g>
   <g id="line2d_15">
    <path d="M 73.832727 295.249604 
L 74.918528 273.825402 
L 76.00433 256.555259 
L 77.090131 242.560068 
L 78.175932 230.738228 
L 80.347534 213.006825 
L 81.433335 205.249505 
L 84.690739 186.62 
L 86.862341 175.381519 
L 87.948142 170.831318 
L 89.033943 165.692332 
L 91.205546 158.339294 
L 92.291347 155.864766 
L 93.377148 153.734827 
L 94.462949 152.511129 
L 95.54875 186.752952 
L 96.634552 185.502121 
L 99.891955 174.828007 
L 100.977756 171.805392 
L 102.063557 168.367644 
L 104.23516 162.51506 
L 105.320961 159.050178 
L 106.406762 155.970585 
L 109.664165 147.673319 
L 111.835768 140.729989 
L 115.093171 131.759825 
L 117.264773 124.604858 
L 118.350575 121.671783 
L 120.522177 114.7176 
L 121.607978 110.86743 
L 123.77958 104.230703 
L 125.951183 98.483937 
L 127.036984 94.867111 
L 128.122785 92.6205 
L 129.208586 89.844796 
L 130.294387 88.463727 
L 131.380189 86.325648 
L 132.46599 84.998845 
L 133.551791 83.300321 
L 134.637592 82.423926 
L 135.723393 82.063057 
L 136.809194 81.379306 
L 137.894995 81.376592 
L 138.980797 134.638635 
L 140.066598 140.862941 
L 141.152399 140.111357 
L 142.2382 139.549704 
L 143.324001 137.886453 
L 144.409802 137.786061 
L 145.495604 135.7538 
L 147.667206 133.243999 
L 148.753007 131.968749 
L 149.838808 130.416743 
L 150.924609 129.203899 
L 152.01041 127.643752 
L 153.096212 126.504167 
L 154.182013 124.599432 
L 155.267814 124.254843 
L 157.439416 120.448086 
L 158.525217 119.57169 
L 159.611019 117.962704 
L 161.782621 115.688961 
L 162.868422 114.641628 
L 163.954223 112.785732 
L 165.040024 111.241865 
L 166.125825 109.396822 
L 168.297428 107.356422 
L 169.383229 105.017559 
L 170.46903 104.523739 
L 171.554831 102.467059 
L 173.726434 99.164975 
L 174.812235 97.74592 
L 175.898036 96.611761 
L 176.983837 95.276819 
L 179.155439 91.958455 
L 181.327042 88.75405 
L 182.412843 87.47066 
L 184.584445 84.065471 
L 185.670246 83.08597 
L 186.756047 81.238214 
L 187.841849 80.212588 
L 188.92765 78.546623 
L 190.013451 76.66088 
L 191.099252 75.91201 
L 192.185053 74.37357 
L 193.270854 73.261118 
L 195.442457 71.557167 
L 196.528258 70.186951 
L 197.614059 69.00938 
L 198.69986 68.279502 
L 199.785661 66.977119 
L 200.871462 65.894513 
L 201.957264 65.484805 
L 204.128866 63.919232 
L 205.214667 62.573436 
L 206.300468 62.000931 
L 207.386269 61.257487 
L 211.729474 59.708194 
L 212.815275 58.967463 
L 213.901076 58.837225 
L 214.986877 58.492636 
L 216.072679 57.66508 
L 217.15848 58.017809 
L 218.244281 57.190253 
L 220.415883 57.19568 
L 221.501684 56.699146 
L 222.587486 56.997609 
L 223.673287 56.959623 
L 224.759088 56.802251 
L 225.844889 112.62836 
L 226.93069 123.033859 
L 228.016491 123.012152 
L 229.102292 123.221076 
L 230.188094 122.483059 
L 231.273895 122.097771 
L 232.359696 120.906633 
L 236.702901 117.30066 
L 237.788702 116.036263 
L 238.874503 115.656401 
L 239.960304 114.682327 
L 241.046105 113.521035 
L 242.131906 112.812865 
L 243.217708 112.470989 
L 244.303509 111.339544 
L 245.38931 110.528268 
L 246.475111 110.213525 
L 247.560912 109.022387 
L 248.646713 108.884009 
L 249.732514 108.154132 
L 250.818316 107.858382 
L 251.904117 106.477313 
L 252.989918 106.621118 
L 255.16152 104.776076 
L 256.247321 104.67297 
L 257.333123 104.127597 
L 259.504725 102.586444 
L 260.590526 102.540318 
L 261.676327 101.037151 
L 262.762128 101.511978 
L 263.847929 100.554184 
L 264.933731 99.433592 
L 266.019532 99.637089 
L 267.105333 99.696781 
L 268.191134 98.416105 
L 269.276935 97.640101 
L 270.362736 98.166481 
L 271.448538 96.383844 
L 272.534339 96.929217 
L 273.62014 95.879171 
L 274.705941 95.374498 
L 275.791742 94.723306 
L 277.963344 93.117033 
L 279.049146 92.970515 
L 281.220748 91.765811 
L 282.306549 91.071207 
L 283.39235 90.911122 
L 284.478151 89.926195 
L 285.563953 89.589746 
L 286.649754 89.085072 
L 287.735555 88.016033 
L 288.821356 88.148985 
L 289.907157 87.096225 
L 290.992958 86.208976 
L 292.07876 86.108584 
L 293.164561 85.880667 
L 294.250362 84.966286 
L 295.336163 83.601497 
L 296.421964 83.520098 
L 297.507765 83.167369 
L 299.679368 81.930105 
L 300.765169 81.601796 
L 302.936771 80.055216 
L 304.022572 79.686208 
L 306.194175 78.370258 
L 307.279976 77.615961 
L 308.365777 77.162841 
L 309.451578 77.013609 
L 310.537379 76.194193 
L 311.62318 76.088374 
L 312.708981 74.994915 
L 313.794783 75.173993 
L 314.880584 74.075107 
L 317.052186 72.935522 
L 318.137987 72.653339 
L 319.223788 71.747097 
L 320.30959 71.532747 
L 321.395391 71.136605 
L 322.481192 71.0335 
L 323.566993 69.52762 
L 324.652794 69.798949 
L 325.738595 69.400095 
L 327.910198 67.850801 
L 328.995999 67.810102 
L 331.167601 65.780555 
L 332.253402 65.742569 
L 333.339203 65.582484 
L 335.510806 64.461892 
L 337.682408 63.436265 
L 338.768209 63.262614 
L 339.85401 62.199001 
L 342.025613 61.648202 
L 345.283016 59.776026 
L 346.368817 60.085342 
L 348.54042 59.016303 
L 349.626221 58.883351 
L 350.712022 58.245726 
L 351.797823 58.123628 
L 352.883624 57.572828 
L 356.141028 56.593327 
L 357.226829 56.145633 
L 358.31263 56.229745 
L 359.398431 55.413043 
L 360.484232 55.491728 
L 362.655835 54.474242 
L 363.741636 54.666886 
L 365.913238 53.568 
L 368.08484 53.83119 
L 369.170642 55.022328 
L 370.256443 55.752205 
L 371.342244 56.918923 
L 373.513846 58.22402 
L 374.599647 58.137194 
L 376.77125 58.278286 
L 377.857051 58.221306 
L 378.942852 58.449223 
L 380.028653 58.280999 
L 381.114454 58.788386 
L 382.200255 59.040722 
L 383.286057 58.536049 
L 384.371858 58.571322 
L 385.457659 58.877924 
L 387.629261 58.818232 
L 388.715062 58.93219 
L 389.800863 58.774819 
L 390.886665 58.839938 
L 391.972466 58.704273 
L 393.058267 58.715127 
L 394.144068 58.584888 
L 396.31567 59.057002 
L 397.401472 58.820945 
L 398.487273 58.848078 
L 398.487273 58.848078 
" clip-path="url(#p90c79ede0d)" style="fill: none; stroke: #1f77b4; stroke-width: 1.5; stroke-linecap: square"/>
   </g>
   <g id="line2d_16">
    <path d="M 73.832727 282.42113 
L 74.918528 265.110288 
L 76.00433 242.182919 
L 77.090131 232.90344 
L 78.175932 216.352321 
L 79.261733 210.681528 
L 80.347534 201.103586 
L 81.433335 193.153622 
L 82.519137 189.626335 
L 83.604938 183.060153 
L 84.690739 180.889515 
L 85.77654 173.726408 
L 86.862341 168.191279 
L 87.948142 164.908189 
L 89.033943 162.520486 
L 90.119745 159.590124 
L 91.205546 158.504805 
L 92.291347 156.442698 
L 93.377148 155.27598 
L 94.462949 154.923252 
L 95.54875 190.548856 
L 96.634552 180.726717 
L 97.720353 178.040552 
L 98.806154 174.133402 
L 99.891955 176.412573 
L 100.977756 178.203349 
L 102.063557 170.389051 
L 103.149358 171.691434 
L 104.23516 166.346237 
L 105.320961 167.133093 
L 106.406762 165.613646 
L 107.492563 161.136704 
L 108.578364 159.454459 
L 110.749967 152.535549 
L 111.835768 156.985358 
L 112.921569 150.527709 
L 114.00737 148.736932 
L 115.093171 150.256379 
L 116.178972 150.147847 
L 117.264773 144.151458 
L 118.350575 143.039006 
L 119.436376 144.53132 
L 120.522177 142.279282 
L 122.693779 142.143617 
L 123.77958 141.682357 
L 124.865382 139.403186 
L 125.951183 138.969059 
L 127.036984 137.449612 
L 128.122785 138.399266 
L 129.208586 137.612409 
L 130.294387 136.282893 
L 131.380189 136.364292 
L 132.46599 136.06583 
L 133.551791 136.06583 
L 134.637592 136.282893 
L 136.809194 136.011564 
L 137.894995 136.364292 
L 138.980797 167.350157 
L 140.066598 164.501194 
L 141.152399 160.648311 
L 142.2382 161.625098 
L 143.324001 159.671523 
L 144.409802 157.229555 
L 145.495604 162.357688 
L 146.581405 157.663683 
L 147.667206 161.136704 
L 148.753007 157.446619 
L 149.838808 158.477672 
L 150.924609 157.528018 
L 152.01041 161.869295 
L 153.096212 159.752922 
L 154.182013 159.562991 
L 155.267814 156.415565 
L 156.353615 155.54731 
L 157.439416 153.566602 
L 158.525217 156.008571 
L 159.611019 154.54339 
L 160.69682 153.403805 
L 161.782621 155.791507 
L 162.868422 156.632629 
L 163.954223 151.151767 
L 165.040024 152.18282 
L 166.125825 152.45415 
L 167.211627 149.116794 
L 168.297428 154.082129 
L 169.383229 151.830092 
L 170.46903 153.783666 
L 171.554831 151.45023 
L 172.640632 151.640161 
L 173.726434 150.581975 
L 174.812235 147.868676 
L 175.898036 150.256379 
L 176.983837 147.733011 
L 178.069638 148.438469 
L 179.155439 147.977208 
L 180.24124 146.26783 
L 181.327042 147.434549 
L 182.412843 145.779437 
L 183.498644 148.248538 
L 185.670246 143.337469 
L 186.756047 143.907261 
L 187.841849 143.364601 
L 188.92765 143.690197 
L 191.099252 141.329628 
L 192.185053 142.957607 
L 193.270854 140.786968 
L 194.356656 139.240388 
L 195.442457 140.000112 
L 196.528258 140.569904 
L 197.614059 140.325708 
L 198.69986 138.07367 
L 199.785661 138.534931 
L 201.957264 137.124016 
L 203.043065 137.178282 
L 204.128866 136.581356 
L 205.214667 136.337159 
L 206.300468 135.848766 
L 207.386269 135.224707 
L 208.472071 135.496037 
L 209.557872 133.949457 
L 210.643673 135.441771 
L 211.729474 135.306106 
L 212.815275 134.193654 
L 213.901076 134.166521 
L 214.986877 135.007643 
L 216.072679 134.085122 
L 217.15848 134.926244 
L 218.244281 134.139388 
L 219.330082 134.763446 
L 220.415883 134.51925 
L 221.501684 134.492117 
L 222.587486 134.24792 
L 223.673287 134.682047 
L 224.759088 134.139388 
L 225.844889 167.10596 
L 226.93069 167.811418 
L 228.016491 162.601885 
L 229.102292 164.82679 
L 230.188094 168.245545 
L 231.273895 161.245236 
L 232.359696 160.485513 
L 233.445497 161.408034 
L 234.531298 157.121023 
L 235.617099 156.931092 
L 236.702901 156.307034 
L 237.788702 167.730019 
L 238.874503 152.806879 
L 239.960304 157.745082 
L 241.046105 158.776135 
L 242.131906 157.473752 
L 243.217708 156.741161 
L 244.303509 155.791507 
L 245.38931 155.954305 
L 246.475111 158.314874 
L 247.560912 150.202113 
L 248.646713 158.260608 
L 249.732514 163.090279 
L 250.818316 158.559071 
L 251.904117 157.555151 
L 252.989918 157.690816 
L 254.075719 154.163528 
L 255.16152 156.008571 
L 256.247321 157.555151 
L 257.333123 150.554842 
L 258.418924 157.202422 
L 259.504725 157.256688 
L 260.590526 153.539469 
L 261.676327 152.698347 
L 263.847929 154.516257 
L 264.933731 153.648001 
L 266.019532 153.539469 
L 267.105333 151.1789 
L 268.191134 151.314565 
L 269.276935 149.578054 
L 270.362736 152.399884 
L 271.448538 151.694427 
L 272.534339 151.314565 
L 273.62014 153.159608 
L 274.705941 151.341698 
L 275.791742 151.233166 
L 276.877543 151.857225 
L 277.963344 150.202113 
L 279.049146 154.733321 
L 280.134947 149.90365 
L 281.220748 151.314565 
L 282.306549 150.771905 
L 283.39235 154.489124 
L 284.478151 152.399884 
L 285.563953 149.442389 
L 286.649754 148.112873 
L 287.735555 149.795118 
L 288.821356 149.198192 
L 289.907157 150.093581 
L 290.992958 148.89973 
L 292.07876 147.027554 
L 293.164561 150.202113 
L 294.250362 148.031474 
L 295.336163 147.515948 
L 296.421964 144.368522 
L 297.507765 146.484894 
L 298.593566 145.616639 
L 299.679368 143.71733 
L 300.765169 145.779437 
L 301.85097 149.496655 
L 302.936771 147.651613 
L 304.022572 148.275671 
L 305.108373 145.318176 
L 306.194175 144.666985 
L 307.279976 146.159299 
L 308.365777 143.98866 
L 309.451578 146.050767 
L 310.537379 145.589506 
L 311.62318 148.112873 
L 312.708981 144.99258 
L 314.880584 144.856915 
L 315.966385 143.934394 
L 317.052186 145.209644 
L 318.137987 142.930474 
L 319.223788 144.856915 
L 320.30959 144.748384 
L 321.395391 144.504187 
L 322.481192 144.856915 
L 323.566993 142.360681 
L 324.652794 143.690197 
L 325.738595 141.43816 
L 326.824396 141.980819 
L 327.910198 140.62417 
L 328.995999 143.093272 
L 330.0818 141.655224 
L 332.253402 139.484585 
L 333.339203 140.922633 
L 334.425005 139.511718 
L 336.596607 139.972979 
L 337.682408 137.938005 
L 338.768209 138.779128 
L 339.85401 140.488505 
L 340.939811 138.589197 
L 342.025613 137.748074 
L 343.111414 138.724862 
L 344.197215 138.453532 
L 345.283016 137.286814 
L 346.368817 137.259681 
L 347.454618 135.848766 
L 348.54042 137.178282 
L 349.626221 136.147228 
L 350.712022 136.581356 
L 351.797823 135.604569 
L 352.883624 137.042617 
L 353.969425 136.06583 
L 355.055227 136.581356 
L 356.141028 134.98051 
L 358.31263 134.627782 
L 359.398431 135.034776 
L 360.484232 134.627782 
L 361.570033 134.573516 
L 362.655835 134.112255 
L 363.741636 133.488196 
L 364.827437 133.243999 
L 365.913238 132.212946 
L 366.999039 132.348611 
L 368.08484 133.678127 
L 369.170642 133.026936 
L 370.256443 134.763446 
L 371.342244 136.906952 
L 372.428045 138.209335 
L 373.513846 137.34108 
L 374.599647 138.426399 
L 375.685448 137.531011 
L 376.77125 138.209335 
L 377.857051 137.449612 
L 378.942852 138.290734 
L 380.028653 139.755915 
L 381.114454 138.643463 
L 382.200255 138.61633 
L 383.286057 136.310026 
L 384.371858 139.403186 
L 385.457659 138.751995 
L 386.54346 139.674516 
L 387.629261 139.376053 
L 388.715062 138.860527 
L 389.800863 137.639542 
L 390.886665 139.158989 
L 391.972466 137.748074 
L 393.058267 140.217176 
L 394.144068 138.07367 
L 395.229869 138.860527 
L 396.31567 139.403186 
L 397.401472 138.155069 
L 398.487273 138.100803 
L 398.487273 138.100803 
" clip-path="url(#p90c79ede0d)" style="fill: none; stroke: #ff7f0e; stroke-width: 1.5; stroke-linecap: square"/>
   </g>
   <g id="line2d_17">
    <path d="M 73.832727 295.488 
L 76.00433 281.977647 
L 77.090131 278.366153 
L 78.175932 272.097499 
L 79.261733 271.33029 
L 81.433335 258.175473 
L 82.519137 253.590934 
L 83.604938 255.855135 
L 84.690739 249.923304 
L 85.77654 249.436781 
L 86.862341 245.020655 
L 87.948142 245.900138 
L 90.119745 237.666681 
L 91.205546 240.754227 
L 92.291347 237.367283 
L 93.377148 237.03046 
L 94.462949 237.124022 
L 95.54875 258.119335 
L 96.634552 250.915061 
L 98.806154 247.303568 
L 99.891955 246.218249 
L 100.977756 251.588708 
L 102.063557 247.210006 
L 103.149358 248.276613 
L 104.23516 243.486238 
L 105.320961 249.848454 
L 106.406762 241.895684 
L 107.492563 238.209341 
L 108.578364 244.178597 
L 109.664165 241.427874 
L 110.749967 240.342555 
L 111.835768 241.446586 
L 112.921569 234.841109 
L 114.00737 231.529014 
L 115.093171 236.618787 
L 116.178972 233.400254 
L 117.264773 232.240085 
L 118.350575 226.495378 
L 119.436376 229.975885 
L 120.522177 226.308254 
L 121.607978 226.776064 
L 122.693779 225.316497 
L 123.77958 228.946703 
L 124.865382 224.773837 
L 125.951183 225.410059 
L 127.036984 222.921309 
L 128.122785 225.297784 
L 130.294387 221.91084 
L 131.380189 221.592729 
L 132.46599 222.472212 
L 133.551791 222.228951 
L 134.637592 222.790323 
L 135.723393 222.37865 
L 136.809194 222.322513 
L 137.894995 222.116676 
L 138.980797 244.178597 
L 140.066598 240.679378 
L 141.152399 238.340328 
L 142.2382 246.180824 
L 143.324001 236.338101 
L 144.409802 235.94514 
L 145.495604 242.981003 
L 146.581405 238.639726 
L 147.667206 235.55218 
L 148.753007 238.546164 
L 149.838808 237.161446 
L 150.924609 238.153204 
L 152.01041 241.203325 
L 153.096212 247.453267 
L 154.182013 242.550618 
L 155.267814 236.824623 
L 156.353615 243.860486 
L 157.439416 234.186175 
L 158.525217 240.398692 
L 159.611019 234.466861 
L 160.69682 232.183948 
L 162.868422 242.269932 
L 163.954223 236.993035 
L 165.040024 231.005067 
L 166.125825 236.637499 
L 167.211627 230.181721 
L 168.297428 232.146523 
L 169.383229 238.789425 
L 170.46903 234.859821 
L 171.554831 237.105309 
L 172.640632 233.531241 
L 173.726434 235.383768 
L 175.898036 235.94514 
L 176.983837 229.601637 
L 178.069638 232.20266 
L 179.155439 238.864275 
L 180.24124 234.055188 
L 181.327042 234.373299 
L 182.412843 233.905489 
L 183.498644 231.921974 
L 184.584445 234.354586 
L 185.670246 229.302238 
L 186.756047 229.657774 
L 187.841849 230.574681 
L 188.92765 230.256571 
L 190.013451 229.133827 
L 192.185053 230.612106 
L 193.270854 229.115114 
L 194.356656 230.088159 
L 195.442457 227.99237 
L 196.528258 229.901035 
L 197.614059 228.329193 
L 198.69986 228.347906 
L 199.785661 227.05675 
L 200.871462 224.324739 
L 201.957264 225.934006 
L 203.043065 227.880096 
L 204.128866 225.915294 
L 205.214667 227.44971 
L 207.386269 224.755125 
L 208.472071 225.241647 
L 209.557872 225.877869 
L 210.643673 224.511863 
L 211.729474 224.081478 
L 212.815275 226.158555 
L 213.901076 225.784307 
L 214.986877 224.960961 
L 216.072679 223.913067 
L 217.15848 224.268602 
L 218.244281 224.437014 
L 219.330082 224.811262 
L 220.415883 224.006629 
L 221.501684 224.829974 
L 222.587486 224.362164 
L 223.673287 224.960961 
L 224.759088 224.979674 
L 225.844889 251.551283 
L 226.93069 245.114217 
L 228.016491 246.424085 
L 229.102292 246.405373 
L 230.188094 244.758681 
L 231.273895 239.856032 
L 232.359696 240.866502 
L 233.445497 243.149415 
L 234.531298 244.477995 
L 235.617099 240.754227 
L 236.702901 239.706333 
L 237.788702 251.345446 
L 238.874503 234.953383 
L 239.960304 236.95561 
L 241.046105 241.484011 
L 242.131906 239.332085 
L 243.217708 238.714576 
L 244.303509 237.292433 
L 245.38931 244.552845 
L 246.475111 238.546164 
L 247.560912 235.645742 
L 248.646713 241.63371 
L 249.732514 244.44057 
L 250.818316 238.639726 
L 251.904117 236.469088 
L 252.989918 239.238523 
L 254.075719 238.190629 
L 255.16152 238.246766 
L 256.247321 237.516982 
L 257.333123 233.68094 
L 258.418924 240.754227 
L 259.504725 237.722819 
L 260.590526 242.756454 
L 261.676327 232.764032 
L 262.762128 234.597848 
L 263.847929 233.60609 
L 264.933731 235.701879 
L 266.019532 236.693636 
L 267.105333 241.614998 
L 268.191134 240.623241 
L 269.276935 237.591832 
L 270.362736 241.053626 
L 271.448538 233.643515 
L 272.534339 238.003505 
L 273.62014 235.252782 
L 274.705941 231.790987 
L 275.791742 236.805911 
L 276.877543 238.134491 
L 277.963344 242.981003 
L 279.049146 242.775167 
L 280.134947 238.059642 
L 281.220748 235.00952 
L 282.306549 236.356813 
L 283.39235 241.558861 
L 284.478151 237.236296 
L 285.563953 237.049172 
L 286.649754 236.394238 
L 287.735555 232.895019 
L 288.821356 237.835093 
L 289.907157 240.398692 
L 290.992958 233.737077 
L 292.07876 232.876307 
L 293.164561 237.573119 
L 294.250362 229.414513 
L 295.336163 231.210903 
L 296.421964 236.600074 
L 297.507765 231.26704 
L 298.593566 235.15922 
L 299.679368 232.427209 
L 300.765169 230.293995 
L 301.85097 234.728834 
L 302.936771 232.20266 
L 304.022572 234.14875 
L 305.108373 238.920412 
L 306.194175 231.978111 
L 307.279976 238.190629 
L 308.365777 229.901035 
L 309.451578 234.448148 
L 310.537379 232.034249 
L 311.62318 231.323177 
L 312.708981 235.739304 
L 313.794783 233.849352 
L 314.880584 235.570892 
L 315.966385 235.55218 
L 317.052186 232.857594 
L 318.137987 231.136053 
L 320.30959 235.608317 
L 321.395391 231.996824 
L 322.481192 230.930217 
L 323.566993 236.95561 
L 324.652794 231.360602 
L 325.738595 233.13828 
L 326.824396 231.079916 
L 327.910198 236.88076 
L 328.995999 230.593394 
L 330.0818 228.85314 
L 331.167601 231.229615 
L 332.253402 229.882323 
L 333.339203 234.204887 
L 335.510806 232.427209 
L 336.596607 230.163009 
L 337.682408 229.433225 
L 338.768209 228.46018 
L 339.85401 231.566439 
L 340.939811 226.214692 
L 342.025613 226.551515 
L 343.111414 229.620349 
L 344.197215 229.377088 
L 345.283016 229.339663 
L 346.368817 227.094175 
L 347.454618 228.965415 
L 348.54042 229.377088 
L 349.626221 225.335209 
L 350.712022 228.011082 
L 351.797823 228.647304 
L 352.883624 227.300011 
L 353.969425 226.776064 
L 355.055227 230.780518 
L 356.141028 227.618122 
L 357.226829 228.216919 
L 358.31263 227.730396 
L 359.398431 225.971431 
L 360.484232 227.692972 
L 361.570033 227.805246 
L 362.655835 226.439241 
L 363.741636 224.698988 
L 364.827437 226.177267 
L 365.913238 224.64285 
L 368.08484 227.337436 
L 369.170642 225.971431 
L 370.256443 227.954945 
L 371.342244 227.767821 
L 372.428045 227.973658 
L 373.513846 228.591167 
L 374.599647 229.975885 
L 375.685448 231.173478 
L 376.77125 228.740866 
L 377.857051 230.424982 
L 378.942852 229.489362 
L 380.028653 225.57847 
L 381.114454 227.954945 
L 382.200255 231.697425 
L 383.286057 228.759578 
L 384.371858 230.387557 
L 385.457659 231.042491 
L 386.54346 224.137615 
L 387.629261 227.880096 
L 388.715062 232.520771 
L 389.800863 229.732623 
L 390.886665 229.414513 
L 391.972466 229.901035 
L 393.058267 228.441468 
L 394.144068 233.100855 
L 395.229869 229.339663 
L 396.31567 232.371072 
L 397.401472 226.308254 
L 398.487273 229.433225 
L 398.487273 229.433225 
" clip-path="url(#p90c79ede0d)" style="fill: none; stroke: #2ca02c; stroke-width: 1.5; stroke-linecap: square"/>
   </g>
   <g id="line2d_18">
    <path d="M 368.08484 132.348611 
L 369.170642 133.271132 
L 370.256443 137.06975 
L 371.342244 137.883739 
L 372.428045 141.763756 
L 373.513846 148.845464 
L 374.599647 146.457761 
L 375.685448 148.08574 
L 376.77125 152.969677 
L 377.857051 154.570523 
L 378.942852 163.443008 
L 381.114454 165.966375 
L 382.200255 172.071296 
L 383.286057 172.206961 
L 384.371858 175.924179 
L 385.457659 185.529254 
L 386.54346 187.1301 
L 387.629261 191.064383 
L 388.715062 186.723106 
L 389.800863 195.622723 
L 390.886665 201.619112 
L 391.972466 210.735794 
L 393.058267 212.011044 
L 394.144068 219.065619 
L 395.229869 225.116274 
L 396.31567 229.891679 
L 398.487273 234.884147 
L 398.487273 234.884147 
" clip-path="url(#p90c79ede0d)" style="fill: none; stroke: #d62728; stroke-width: 1.5; stroke-linecap: square"/>
   </g>
   <g id="line2d_19">
    <path d="M 368.08484 227.880096 
L 369.170642 226.757352 
L 370.256443 227.374861 
L 371.342244 230.87408 
L 372.428045 233.175705 
L 373.513846 236.263251 
L 374.599647 231.716138 
L 375.685448 238.714576 
L 376.77125 238.621014 
L 377.857051 243.392676 
L 378.942852 241.24075 
L 380.028653 247.359705 
L 381.114454 243.411388 
L 382.200255 248.950259 
L 383.286057 249.792317 
L 384.371858 252.019093 
L 385.457659 258.493583 
L 386.54346 260.402248 
L 387.629261 257.726375 
L 388.715062 253.441235 
L 389.800863 259.990576 
L 390.886665 261.03847 
L 391.972466 265.099061 
L 393.058267 266.839314 
L 395.229869 273.688053 
L 396.31567 275.166333 
L 397.401472 278.272591 
L 398.487273 280.630354 
L 398.487273 280.630354 
" clip-path="url(#p90c79ede0d)" style="fill: none; stroke: #9467bd; stroke-width: 1.5; stroke-linecap: square"/>
   </g>
   <g id="patch_3">
    <path d="M 57.6 307.584 
L 57.6 41.472 
" style="fill: none; stroke: #000000; stroke-width: 0.8; stroke-linejoin: miter; stroke-linecap: square"/>
   </g>
   <g id="patch_4">
    <path d="M 414.72 307.584 
L 414.72 41.472 
" style="fill: none; stroke: #000000; stroke-width: 0.8; stroke-linejoin: miter; stroke-linecap: square"/>
   </g>
   <g id="patch_5">
    <path d="M 57.6 307.584 
L 414.72 307.584 
" style="fill: none; stroke: #000000; stroke-width: 0.8; stroke-linejoin: miter; stroke-linecap: square"/>
   </g>
   <g id="patch_6">
    <path d="M 57.6 41.472 
L 414.72 41.472 
" style="fill: none; stroke: #000000; stroke-width: 0.8; stroke-linejoin: miter; stroke-linecap: square"/>
   </g>
   <g id="text_17">
    <!-- Learning Curves -->
    <g transform="translate(187.37625 35.472) scale(0.12 -0.12)">
     <defs>
      <path id="DejaVuSans-4c" d="M 628 4666 
L 1259 4666 
L 1259 531 
L 3531 531 
L 3531 0 
L 628 0 
L 628 4666 
z
" transform="scale(0.015625)"/>
      <path id="DejaVuSans-65" d="M 3597 1894 
L 3597 1613 
L 953 1613 
Q 991 1019 1311 708 
Q 1631 397 2203 397 
Q 2534 397 2845 478 
Q 3156 559 3463 722 
L 3463 178 
Q 3153 47 2828 -22 
Q 2503 -91 2169 -91 
Q 1331 -91 842 396 
Q 353 884 353 1716 
Q 353 2575 817 3079 
Q 1281 3584 2069 3584 
Q 2775 3584 3186 3129 
Q 3597 2675 3597 1894 
z
M 3022 2063 
Q 3016 2534 2758 2815 
Q 2500 3097 2075 3097 
Q 1594 3097 1305 2825 
Q 1016 2553 972 2059 
L 3022 2063 
z
" transform="scale(0.015625)"/>
      <path id="DejaVuSans-6e" d="M 3513 2113 
L 3513 0 
L 2938 0 
L 2938 2094 
Q 2938 2591 2744 2837 
Q 2550 3084 2163 3084 
Q 1697 3084 1428 2787 
Q 1159 2491 1159 1978 
L 1159 0 
L 581 0 
L 581 3500 
L 1159 3500 
L 1159 2956 
Q 1366 3272 1645 3428 
Q 1925 3584 2291 3584 
Q 2894 3584 3203 3211 
Q 3513 2838 3513 2113 
z
" transform="scale(0.015625)"/>
      <path id="DejaVuSans-69" d="M 603 3500 
L 1178 3500 
L 1178 0 
L 603 0 
L 603 3500 
z
M 603 4863 
L 1178 4863 
L 1178 4134 
L 603 4134 
L 603 4863 
z
" transform="scale(0.015625)"/>
      <path id="DejaVuSans-67" d="M 2906 1791 
Q 2906 2416 2648 2759 
Q 2391 3103 1925 3103 
Q 1463 3103 1205 2759 
Q 947 2416 947 1791 
Q 947 1169 1205 825 
Q 1463 481 1925 481 
Q 2391 481 2648 825 
Q 2906 1169 2906 1791 
z
M 3481 434 
Q 3481 -459 3084 -895 
Q 2688 -1331 1869 -1331 
Q 1566 -1331 1297 -1286 
Q 1028 -1241 775 -1147 
L 775 -588 
Q 1028 -725 1275 -790 
Q 1522 -856 1778 -856 
Q 2344 -856 2625 -561 
Q 2906 -266 2906 331 
L 2906 616 
Q 2728 306 2450 153 
Q 2172 0 1784 0 
Q 1141 0 747 490 
Q 353 981 353 1791 
Q 353 2603 747 3093 
Q 1141 3584 1784 3584 
Q 2172 3584 2450 3431 
Q 2728 3278 2906 2969 
L 2906 3500 
L 3481 3500 
L 3481 434 
z
" transform="scale(0.015625)"/>
      <path id="DejaVuSans-20" transform="scale(0.015625)"/>
      <path id="DejaVuSans-43" d="M 4122 4306 
L 4122 3641 
Q 3803 3938 3442 4084 
Q 3081 4231 2675 4231 
Q 1875 4231 1450 3742 
Q 1025 3253 1025 2328 
Q 1025 1406 1450 917 
Q 1875 428 2675 428 
Q 3081 428 3442 575 
Q 3803 722 4122 1019 
L 4122 359 
Q 3791 134 3420 21 
Q 3050 -91 2638 -91 
Q 1578 -91 968 557 
Q 359 1206 359 2328 
Q 359 3453 968 4101 
Q 1578 4750 2638 4750 
Q 3056 4750 3426 4639 
Q 3797 4528 4122 4306 
z
" transform="scale(0.015625)"/>
      <path id="DejaVuSans-76" d="M 191 3500 
L 800 3500 
L 1894 563 
L 2988 3500 
L 3597 3500 
L 2284 0 
L 1503 0 
L 191 3500 
z
" transform="scale(0.015625)"/>
     </defs>
     <use xlink:href="#DejaVuSans-4c"/>
     <use xlink:href="#DejaVuSans-65" x="53.962891"/>
     <use xlink:href="#DejaVuSans-61" x="115.486328"/>
     <use xlink:href="#DejaVuSans-72" x="176.765625"/>
     <use xlink:href="#DejaVuSans-6e" x="216.128906"/>
     <use xlink:href="#DejaVuSans-69" x="279.507812"/>
     <use xlink:href="#DejaVuSans-6e" x="307.291016"/>
     <use xlink:href="#DejaVuSans-67" x="370.669922"/>
     <use xlink:href="#DejaVuSans-20" x="434.146484"/>
     <use xlink:href="#DejaVuSans-43" x="465.933594"/>
     <use xlink:href="#DejaVuSans-75" x="535.757812"/>
     <use xlink:href="#DejaVuSans-72" x="599.136719"/>
     <use xlink:href="#DejaVuSans-76" x="640.25"/>
     <use xlink:href="#DejaVuSans-65" x="699.429688"/>
     <use xlink:href="#DejaVuSans-73" x="760.953125"/>
    </g>
   </g>
   <g id="legend_1">
    <g id="patch_7">
     <path d="M 64.6 122.862625 
L 258.13125 122.862625 
Q 260.13125 122.862625 260.13125 120.862625 
L 260.13125 48.472 
Q 260.13125 46.472 258.13125 46.472 
L 64.6 46.472 
Q 62.6 46.472 62.6 48.472 
L 62.6 120.862625 
Q 62.6 122.862625 64.6 122.862625 
z
" style="fill: #ffffff; opacity: 0.8; stroke: #cccccc; stroke-linejoin: miter"/>
    </g>
    <g id="line2d_20">
     <path d="M 66.6 54.570438 
L 76.6 54.570438 
L 86.6 54.570438 
" style="fill: none; stroke: #1f77b4; stroke-width: 1.5; stroke-linecap: square"/>
    </g>
    <g id="text_18">
     <!-- Train Accuracy -->
     <g transform="translate(94.6 58.070438) scale(0.1 -0.1)">
      <defs>
       <path id="DejaVuSans-54" d="M -19 4666 
L 3928 4666 
L 3928 4134 
L 2272 4134 
L 2272 0 
L 1638 0 
L 1638 4134 
L -19 4134 
L -19 4666 
z
" transform="scale(0.015625)"/>
      </defs>
      <use xlink:href="#DejaVuSans-54"/>
      <use xlink:href="#DejaVuSans-72" x="46.333984"/>
      <use xlink:href="#DejaVuSans-61" x="87.447266"/>
      <use xlink:href="#DejaVuSans-69" x="148.726562"/>
      <use xlink:href="#DejaVuSans-6e" x="176.509766"/>
      <use xlink:href="#DejaVuSans-20" x="239.888672"/>
      <use xlink:href="#DejaVuSans-41" x="271.675781"/>
      <use xlink:href="#DejaVuSans-63" x="338.333984"/>
      <use xlink:href="#DejaVuSans-63" x="393.314453"/>
      <use xlink:href="#DejaVuSans-75" x="448.294922"/>
      <use xlink:href="#DejaVuSans-72" x="511.673828"/>
      <use xlink:href="#DejaVuSans-61" x="552.787109"/>
      <use xlink:href="#DejaVuSans-63" x="614.066406"/>
      <use xlink:href="#DejaVuSans-79" x="669.046875"/>
     </g>
    </g>
    <g id="line2d_21">
     <path d="M 66.6 69.248563 
L 76.6 69.248563 
L 86.6 69.248563 
" style="fill: none; stroke: #ff7f0e; stroke-width: 1.5; stroke-linecap: square"/>
    </g>
    <g id="text_19">
     <!-- Validation Accuracy -->
     <g transform="translate(94.6 72.748563) scale(0.1 -0.1)">
      <defs>
       <path id="DejaVuSans-56" d="M 1831 0 
L 50 4666 
L 709 4666 
L 2188 738 
L 3669 4666 
L 4325 4666 
L 2547 0 
L 1831 0 
z
" transform="scale(0.015625)"/>
       <path id="DejaVuSans-6c" d="M 603 4863 
L 1178 4863 
L 1178 0 
L 603 0 
L 603 4863 
z
" transform="scale(0.015625)"/>
       <path id="DejaVuSans-64" d="M 2906 2969 
L 2906 4863 
L 3481 4863 
L 3481 0 
L 2906 0 
L 2906 525 
Q 2725 213 2448 61 
Q 2172 -91 1784 -91 
Q 1150 -91 751 415 
Q 353 922 353 1747 
Q 353 2572 751 3078 
Q 1150 3584 1784 3584 
Q 2172 3584 2448 3432 
Q 2725 3281 2906 2969 
z
M 947 1747 
Q 947 1113 1208 752 
Q 1469 391 1925 391 
Q 2381 391 2643 752 
Q 2906 1113 2906 1747 
Q 2906 2381 2643 2742 
Q 2381 3103 1925 3103 
Q 1469 3103 1208 2742 
Q 947 2381 947 1747 
z
" transform="scale(0.015625)"/>
       <path id="DejaVuSans-74" d="M 1172 4494 
L 1172 3500 
L 2356 3500 
L 2356 3053 
L 1172 3053 
L 1172 1153 
Q 1172 725 1289 603 
Q 1406 481 1766 481 
L 2356 481 
L 2356 0 
L 1766 0 
Q 1100 0 847 248 
Q 594 497 594 1153 
L 594 3053 
L 172 3053 
L 172 3500 
L 594 3500 
L 594 4494 
L 1172 4494 
z
" transform="scale(0.015625)"/>
      </defs>
      <use xlink:href="#DejaVuSans-56"/>
      <use xlink:href="#DejaVuSans-61" x="60.658203"/>
      <use xlink:href="#DejaVuSans-6c" x="121.9375"/>
      <use xlink:href="#DejaVuSans-69" x="149.720703"/>
      <use xlink:href="#DejaVuSans-64" x="177.503906"/>
      <use xlink:href="#DejaVuSans-61" x="240.980469"/>
      <use xlink:href="#DejaVuSans-74" x="302.259766"/>
      <use xlink:href="#DejaVuSans-69" x="341.46875"/>
      <use xlink:href="#DejaVuSans-6f" x="369.251953"/>
      <use xlink:href="#DejaVuSans-6e" x="430.433594"/>
      <use xlink:href="#DejaVuSans-20" x="493.8125"/>
      <use xlink:href="#DejaVuSans-41" x="525.599609"/>
      <use xlink:href="#DejaVuSans-63" x="592.257812"/>
      <use xlink:href="#DejaVuSans-63" x="647.238281"/>
      <use xlink:href="#DejaVuSans-75" x="702.21875"/>
      <use xlink:href="#DejaVuSans-72" x="765.597656"/>
      <use xlink:href="#DejaVuSans-61" x="806.710938"/>
      <use xlink:href="#DejaVuSans-63" x="867.990234"/>
      <use xlink:href="#DejaVuSans-79" x="922.970703"/>
     </g>
    </g>
    <g id="line2d_22">
     <path d="M 66.6 83.926688 
L 76.6 83.926688 
L 86.6 83.926688 
" style="fill: none; stroke: #2ca02c; stroke-width: 1.5; stroke-linecap: square"/>
    </g>
    <g id="text_20">
     <!-- Robust Validation Accuracy -->
     <g transform="translate(94.6 87.426688) scale(0.1 -0.1)">
      <defs>
       <path id="DejaVuSans-52" d="M 2841 2188 
Q 3044 2119 3236 1894 
Q 3428 1669 3622 1275 
L 4263 0 
L 3584 0 
L 2988 1197 
Q 2756 1666 2539 1819 
Q 2322 1972 1947 1972 
L 1259 1972 
L 1259 0 
L 628 0 
L 628 4666 
L 2053 4666 
Q 2853 4666 3247 4331 
Q 3641 3997 3641 3322 
Q 3641 2881 3436 2590 
Q 3231 2300 2841 2188 
z
M 1259 4147 
L 1259 2491 
L 2053 2491 
Q 2509 2491 2742 2702 
Q 2975 2913 2975 3322 
Q 2975 3731 2742 3939 
Q 2509 4147 2053 4147 
L 1259 4147 
z
" transform="scale(0.015625)"/>
       <path id="DejaVuSans-62" d="M 3116 1747 
Q 3116 2381 2855 2742 
Q 2594 3103 2138 3103 
Q 1681 3103 1420 2742 
Q 1159 2381 1159 1747 
Q 1159 1113 1420 752 
Q 1681 391 2138 391 
Q 2594 391 2855 752 
Q 3116 1113 3116 1747 
z
M 1159 2969 
Q 1341 3281 1617 3432 
Q 1894 3584 2278 3584 
Q 2916 3584 3314 3078 
Q 3713 2572 3713 1747 
Q 3713 922 3314 415 
Q 2916 -91 2278 -91 
Q 1894 -91 1617 61 
Q 1341 213 1159 525 
L 1159 0 
L 581 0 
L 581 4863 
L 1159 4863 
L 1159 2969 
z
" transform="scale(0.015625)"/>
      </defs>
      <use xlink:href="#DejaVuSans-52"/>
      <use xlink:href="#DejaVuSans-6f" x="64.982422"/>
      <use xlink:href="#DejaVuSans-62" x="126.164062"/>
      <use xlink:href="#DejaVuSans-75" x="189.640625"/>
      <use xlink:href="#DejaVuSans-73" x="253.019531"/>
      <use xlink:href="#DejaVuSans-74" x="305.119141"/>
      <use xlink:href="#DejaVuSans-20" x="344.328125"/>
      <use xlink:href="#DejaVuSans-56" x="376.115234"/>
      <use xlink:href="#DejaVuSans-61" x="436.773438"/>
      <use xlink:href="#DejaVuSans-6c" x="498.052734"/>
      <use xlink:href="#DejaVuSans-69" x="525.835938"/>
      <use xlink:href="#DejaVuSans-64" x="553.619141"/>
      <use xlink:href="#DejaVuSans-61" x="617.095703"/>
      <use xlink:href="#DejaVuSans-74" x="678.375"/>
      <use xlink:href="#DejaVuSans-69" x="717.583984"/>
      <use xlink:href="#DejaVuSans-6f" x="745.367188"/>
      <use xlink:href="#DejaVuSans-6e" x="806.548828"/>
      <use xlink:href="#DejaVuSans-20" x="869.927734"/>
      <use xlink:href="#DejaVuSans-41" x="901.714844"/>
      <use xlink:href="#DejaVuSans-63" x="968.373047"/>
      <use xlink:href="#DejaVuSans-63" x="1023.353516"/>
      <use xlink:href="#DejaVuSans-75" x="1078.333984"/>
      <use xlink:href="#DejaVuSans-72" x="1141.712891"/>
      <use xlink:href="#DejaVuSans-61" x="1182.826172"/>
      <use xlink:href="#DejaVuSans-63" x="1244.105469"/>
      <use xlink:href="#DejaVuSans-79" x="1299.085938"/>
     </g>
    </g>
    <g id="line2d_23">
     <path d="M 66.6 98.604813 
L 76.6 98.604813 
L 86.6 98.604813 
" style="fill: none; stroke: #d62728; stroke-width: 1.5; stroke-linecap: square"/>
    </g>
    <g id="text_21">
     <!-- SWA Validation Accuracy -->
     <g transform="translate(94.6 102.104813) scale(0.1 -0.1)">
      <defs>
       <path id="DejaVuSans-53" d="M 3425 4513 
L 3425 3897 
Q 3066 4069 2747 4153 
Q 2428 4238 2131 4238 
Q 1616 4238 1336 4038 
Q 1056 3838 1056 3469 
Q 1056 3159 1242 3001 
Q 1428 2844 1947 2747 
L 2328 2669 
Q 3034 2534 3370 2195 
Q 3706 1856 3706 1288 
Q 3706 609 3251 259 
Q 2797 -91 1919 -91 
Q 1588 -91 1214 -16 
Q 841 59 441 206 
L 441 856 
Q 825 641 1194 531 
Q 1563 422 1919 422 
Q 2459 422 2753 634 
Q 3047 847 3047 1241 
Q 3047 1584 2836 1778 
Q 2625 1972 2144 2069 
L 1759 2144 
Q 1053 2284 737 2584 
Q 422 2884 422 3419 
Q 422 4038 858 4394 
Q 1294 4750 2059 4750 
Q 2388 4750 2728 4690 
Q 3069 4631 3425 4513 
z
" transform="scale(0.015625)"/>
       <path id="DejaVuSans-57" d="M 213 4666 
L 850 4666 
L 1831 722 
L 2809 4666 
L 3519 4666 
L 4500 722 
L 5478 4666 
L 6119 4666 
L 4947 0 
L 4153 0 
L 3169 4050 
L 2175 0 
L 1381 0 
L 213 4666 
z
" transform="scale(0.015625)"/>
      </defs>
      <use xlink:href="#DejaVuSans-53"/>
      <use xlink:href="#DejaVuSans-57" x="63.476562"/>
      <use xlink:href="#DejaVuSans-41" x="156.853516"/>
      <use xlink:href="#DejaVuSans-20" x="225.261719"/>
      <use xlink:href="#DejaVuSans-56" x="257.048828"/>
      <use xlink:href="#DejaVuSans-61" x="317.707031"/>
      <use xlink:href="#DejaVuSans-6c" x="378.986328"/>
      <use xlink:href="#DejaVuSans-69" x="406.769531"/>
      <use xlink:href="#DejaVuSans-64" x="434.552734"/>
      <use xlink:href="#DejaVuSans-61" x="498.029297"/>
      <use xlink:href="#DejaVuSans-74" x="559.308594"/>
      <use xlink:href="#DejaVuSans-69" x="598.517578"/>
      <use xlink:href="#DejaVuSans-6f" x="626.300781"/>
      <use xlink:href="#DejaVuSans-6e" x="687.482422"/>
      <use xlink:href="#DejaVuSans-20" x="750.861328"/>
      <use xlink:href="#DejaVuSans-41" x="782.648438"/>
      <use xlink:href="#DejaVuSans-63" x="849.306641"/>
      <use xlink:href="#DejaVuSans-63" x="904.287109"/>
      <use xlink:href="#DejaVuSans-75" x="959.267578"/>
      <use xlink:href="#DejaVuSans-72" x="1022.646484"/>
      <use xlink:href="#DejaVuSans-61" x="1063.759766"/>
      <use xlink:href="#DejaVuSans-63" x="1125.039062"/>
      <use xlink:href="#DejaVuSans-79" x="1180.019531"/>
     </g>
    </g>
    <g id="line2d_24">
     <path d="M 66.6 113.282938 
L 76.6 113.282938 
L 86.6 113.282938 
" style="fill: none; stroke: #9467bd; stroke-width: 1.5; stroke-linecap: square"/>
    </g>
    <g id="text_22">
     <!-- SWA Robust Validation Accuracy -->
     <g transform="translate(94.6 116.782938) scale(0.1 -0.1)">
      <use xlink:href="#DejaVuSans-53"/>
      <use xlink:href="#DejaVuSans-57" x="63.476562"/>
      <use xlink:href="#DejaVuSans-41" x="156.853516"/>
      <use xlink:href="#DejaVuSans-20" x="225.261719"/>
      <use xlink:href="#DejaVuSans-52" x="257.048828"/>
      <use xlink:href="#DejaVuSans-6f" x="322.03125"/>
      <use xlink:href="#DejaVuSans-62" x="383.212891"/>
      <use xlink:href="#DejaVuSans-75" x="446.689453"/>
      <use xlink:href="#DejaVuSans-73" x="510.068359"/>
      <use xlink:href="#DejaVuSans-74" x="562.167969"/>
      <use xlink:href="#DejaVuSans-20" x="601.376953"/>
      <use xlink:href="#DejaVuSans-56" x="633.164062"/>
      <use xlink:href="#DejaVuSans-61" x="693.822266"/>
      <use xlink:href="#DejaVuSans-6c" x="755.101562"/>
      <use xlink:href="#DejaVuSans-69" x="782.884766"/>
      <use xlink:href="#DejaVuSans-64" x="810.667969"/>
      <use xlink:href="#DejaVuSans-61" x="874.144531"/>
      <use xlink:href="#DejaVuSans-74" x="935.423828"/>
      <use xlink:href="#DejaVuSans-69" x="974.632812"/>
      <use xlink:href="#DejaVuSans-6f" x="1002.416016"/>
      <use xlink:href="#DejaVuSans-6e" x="1063.597656"/>
      <use xlink:href="#DejaVuSans-20" x="1126.976562"/>
      <use xlink:href="#DejaVuSans-41" x="1158.763672"/>
      <use xlink:href="#DejaVuSans-63" x="1225.421875"/>
      <use xlink:href="#DejaVuSans-63" x="1280.402344"/>
      <use xlink:href="#DejaVuSans-75" x="1335.382812"/>
      <use xlink:href="#DejaVuSans-72" x="1398.761719"/>
      <use xlink:href="#DejaVuSans-61" x="1439.875"/>
      <use xlink:href="#DejaVuSans-63" x="1501.154297"/>
      <use xlink:href="#DejaVuSans-79" x="1556.134766"/>
     </g>
    </g>
   </g>
  </g>
 </g>
 <defs>
  <clipPath id="p90c79ede0d">
   <rect x="57.6" y="41.472" width="357.12" height="266.112"/>
  </clipPath>
 </defs>
</svg>
