<?xml version="1.0" encoding="utf-8" standalone="no"?>
<!DOCTYPE svg PUBLIC "-//W3C//DTD SVG 1.1//EN"
  "http://www.w3.org/Graphics/SVG/1.1/DTD/svg11.dtd">
<svg xmlns:xlink="http://www.w3.org/1999/xlink" width="460.8pt" height="345.6pt" viewBox="0 0 460.8 345.6" xmlns="http://www.w3.org/2000/svg" version="1.1">
 <metadata>
  <rdf:RDF xmlns:dc="http://purl.org/dc/elements/1.1/" xmlns:cc="http://creativecommons.org/ns#" xmlns:rdf="http://www.w3.org/1999/02/22-rdf-syntax-ns#">
   <cc:Work>
    <dc:type rdf:resource="http://purl.org/dc/dcmitype/StillImage"/>
    <dc:date>2025-01-09T20:33:52.181219</dc:date>
    <dc:format>image/svg+xml</dc:format>
    <dc:creator>
     <cc:Agent>
      <dc:title>Matplotlib v3.9.1, https://matplotlib.org/</dc:title>
     </cc:Agent>
    </dc:creator>
   </cc:Work>
  </rdf:RDF>
 </metadata>
 <defs>
  <style type="text/css">*{stroke-linejoin: round; stroke-linecap: butt}</style>
 </defs>
 <g id="figure_1">
  <g id="patch_1">
   <path d="M 0 345.6 
L 460.8 345.6 
L 460.8 0 
L 0 0 
z
" style="fill: #ffffff"/>
  </g>
  <g id="axes_1">
   <g id="patch_2">
    <path d="M 57.6 307.584 
L 414.72 307.584 
L 414.72 41.472 
L 57.6 41.472 
z
" style="fill: #ffffff"/>
   </g>
   <g id="matplotlib.axis_1">
    <g id="xtick_1">
     <g id="line2d_1">
      <defs>
       <path id="ma7b51f92f0" d="M 0 0 
L 0 3.5 
" style="stroke: #000000; stroke-width: 0.8"/>
      </defs>
      <g>
       <use xlink:href="#ma7b51f92f0" x="73.832727" y="307.584" style="stroke: #000000; stroke-width: 0.8"/>
      </g>
     </g>
     <g id="text_1">
      <!-- 1 -->
      <g transform="translate(70.651477 322.182437) scale(0.1 -0.1)">
       <defs>
        <path id="DejaVuSans-31" d="M 794 531 
L 1825 531 
L 1825 4091 
L 703 3866 
L 703 4441 
L 1819 4666 
L 2450 4666 
L 2450 531 
L 3481 531 
L 3481 0 
L 794 0 
L 794 531 
z
" transform="scale(0.015625)"/>
       </defs>
       <use xlink:href="#DejaVuSans-31"/>
      </g>
     </g>
    </g>
    <g id="xtick_2">
     <g id="line2d_2">
      <g>
       <use xlink:href="#ma7b51f92f0" x="109.664165" y="307.584" style="stroke: #000000; stroke-width: 0.8"/>
      </g>
     </g>
     <g id="text_2">
      <!-- 34 -->
      <g transform="translate(103.301665 322.182437) scale(0.1 -0.1)">
       <defs>
        <path id="DejaVuSans-33" d="M 2597 2516 
Q 3050 2419 3304 2112 
Q 3559 1806 3559 1356 
Q 3559 666 3084 287 
Q 2609 -91 1734 -91 
Q 1441 -91 1130 -33 
Q 819 25 488 141 
L 488 750 
Q 750 597 1062 519 
Q 1375 441 1716 441 
Q 2309 441 2620 675 
Q 2931 909 2931 1356 
Q 2931 1769 2642 2001 
Q 2353 2234 1838 2234 
L 1294 2234 
L 1294 2753 
L 1863 2753 
Q 2328 2753 2575 2939 
Q 2822 3125 2822 3475 
Q 2822 3834 2567 4026 
Q 2313 4219 1838 4219 
Q 1578 4219 1281 4162 
Q 984 4106 628 3988 
L 628 4550 
Q 988 4650 1302 4700 
Q 1616 4750 1894 4750 
Q 2613 4750 3031 4423 
Q 3450 4097 3450 3541 
Q 3450 3153 3228 2886 
Q 3006 2619 2597 2516 
z
" transform="scale(0.015625)"/>
        <path id="DejaVuSans-34" d="M 2419 4116 
L 825 1625 
L 2419 1625 
L 2419 4116 
z
M 2253 4666 
L 3047 4666 
L 3047 1625 
L 3713 1625 
L 3713 1100 
L 3047 1100 
L 3047 0 
L 2419 0 
L 2419 1100 
L 313 1100 
L 313 1709 
L 2253 4666 
z
" transform="scale(0.015625)"/>
       </defs>
       <use xlink:href="#DejaVuSans-33"/>
       <use xlink:href="#DejaVuSans-34" x="63.623047"/>
      </g>
     </g>
    </g>
    <g id="xtick_3">
     <g id="line2d_3">
      <g>
       <use xlink:href="#ma7b51f92f0" x="145.495604" y="307.584" style="stroke: #000000; stroke-width: 0.8"/>
      </g>
     </g>
     <g id="text_3">
      <!-- 67 -->
      <g transform="translate(139.133104 322.182437) scale(0.1 -0.1)">
       <defs>
        <path id="DejaVuSans-36" d="M 2113 2584 
Q 1688 2584 1439 2293 
Q 1191 2003 1191 1497 
Q 1191 994 1439 701 
Q 1688 409 2113 409 
Q 2538 409 2786 701 
Q 3034 994 3034 1497 
Q 3034 2003 2786 2293 
Q 2538 2584 2113 2584 
z
M 3366 4563 
L 3366 3988 
Q 3128 4100 2886 4159 
Q 2644 4219 2406 4219 
Q 1781 4219 1451 3797 
Q 1122 3375 1075 2522 
Q 1259 2794 1537 2939 
Q 1816 3084 2150 3084 
Q 2853 3084 3261 2657 
Q 3669 2231 3669 1497 
Q 3669 778 3244 343 
Q 2819 -91 2113 -91 
Q 1303 -91 875 529 
Q 447 1150 447 2328 
Q 447 3434 972 4092 
Q 1497 4750 2381 4750 
Q 2619 4750 2861 4703 
Q 3103 4656 3366 4563 
z
" transform="scale(0.015625)"/>
        <path id="DejaVuSans-37" d="M 525 4666 
L 3525 4666 
L 3525 4397 
L 1831 0 
L 1172 0 
L 2766 4134 
L 525 4134 
L 525 4666 
z
" transform="scale(0.015625)"/>
       </defs>
       <use xlink:href="#DejaVuSans-36"/>
       <use xlink:href="#DejaVuSans-37" x="63.623047"/>
      </g>
     </g>
    </g>
    <g id="xtick_4">
     <g id="line2d_4">
      <g>
       <use xlink:href="#ma7b51f92f0" x="181.327042" y="307.584" style="stroke: #000000; stroke-width: 0.8"/>
      </g>
     </g>
     <g id="text_4">
      <!-- 100 -->
      <g transform="translate(171.783292 322.182437) scale(0.1 -0.1)">
       <defs>
        <path id="DejaVuSans-30" d="M 2034 4250 
Q 1547 4250 1301 3770 
Q 1056 3291 1056 2328 
Q 1056 1369 1301 889 
Q 1547 409 2034 409 
Q 2525 409 2770 889 
Q 3016 1369 3016 2328 
Q 3016 3291 2770 3770 
Q 2525 4250 2034 4250 
z
M 2034 4750 
Q 2819 4750 3233 4129 
Q 3647 3509 3647 2328 
Q 3647 1150 3233 529 
Q 2819 -91 2034 -91 
Q 1250 -91 836 529 
Q 422 1150 422 2328 
Q 422 3509 836 4129 
Q 1250 4750 2034 4750 
z
" transform="scale(0.015625)"/>
       </defs>
       <use xlink:href="#DejaVuSans-31"/>
       <use xlink:href="#DejaVuSans-30" x="63.623047"/>
       <use xlink:href="#DejaVuSans-30" x="127.246094"/>
      </g>
     </g>
    </g>
    <g id="xtick_5">
     <g id="line2d_5">
      <g>
       <use xlink:href="#ma7b51f92f0" x="217.15848" y="307.584" style="stroke: #000000; stroke-width: 0.8"/>
      </g>
     </g>
     <g id="text_5">
      <!-- 133 -->
      <g transform="translate(207.61473 322.182437) scale(0.1 -0.1)">
       <use xlink:href="#DejaVuSans-31"/>
       <use xlink:href="#DejaVuSans-33" x="63.623047"/>
       <use xlink:href="#DejaVuSans-33" x="127.246094"/>
      </g>
     </g>
    </g>
    <g id="xtick_6">
     <g id="line2d_6">
      <g>
       <use xlink:href="#ma7b51f92f0" x="254.075719" y="307.584" style="stroke: #000000; stroke-width: 0.8"/>
      </g>
     </g>
     <g id="text_6">
      <!-- 167 -->
      <g transform="translate(244.531969 322.182437) scale(0.1 -0.1)">
       <use xlink:href="#DejaVuSans-31"/>
       <use xlink:href="#DejaVuSans-36" x="63.623047"/>
       <use xlink:href="#DejaVuSans-37" x="127.246094"/>
      </g>
     </g>
    </g>
    <g id="xtick_7">
     <g id="line2d_7">
      <g>
       <use xlink:href="#ma7b51f92f0" x="289.907157" y="307.584" style="stroke: #000000; stroke-width: 0.8"/>
      </g>
     </g>
     <g id="text_7">
      <!-- 200 -->
      <g transform="translate(280.363407 322.182437) scale(0.1 -0.1)">
       <defs>
        <path id="DejaVuSans-32" d="M 1228 531 
L 3431 531 
L 3431 0 
L 469 0 
L 469 531 
Q 828 903 1448 1529 
Q 2069 2156 2228 2338 
Q 2531 2678 2651 2914 
Q 2772 3150 2772 3378 
Q 2772 3750 2511 3984 
Q 2250 4219 1831 4219 
Q 1534 4219 1204 4116 
Q 875 4013 500 3803 
L 500 4441 
Q 881 4594 1212 4672 
Q 1544 4750 1819 4750 
Q 2544 4750 2975 4387 
Q 3406 4025 3406 3419 
Q 3406 3131 3298 2873 
Q 3191 2616 2906 2266 
Q 2828 2175 2409 1742 
Q 1991 1309 1228 531 
z
" transform="scale(0.015625)"/>
       </defs>
       <use xlink:href="#DejaVuSans-32"/>
       <use xlink:href="#DejaVuSans-30" x="63.623047"/>
       <use xlink:href="#DejaVuSans-30" x="127.246094"/>
      </g>
     </g>
    </g>
    <g id="xtick_8">
     <g id="line2d_8">
      <g>
       <use xlink:href="#ma7b51f92f0" x="325.738595" y="307.584" style="stroke: #000000; stroke-width: 0.8"/>
      </g>
     </g>
     <g id="text_8">
      <!-- 233 -->
      <g transform="translate(316.194845 322.182437) scale(0.1 -0.1)">
       <use xlink:href="#DejaVuSans-32"/>
       <use xlink:href="#DejaVuSans-33" x="63.623047"/>
       <use xlink:href="#DejaVuSans-33" x="127.246094"/>
      </g>
     </g>
    </g>
    <g id="xtick_9">
     <g id="line2d_9">
      <g>
       <use xlink:href="#ma7b51f92f0" x="361.570033" y="307.584" style="stroke: #000000; stroke-width: 0.8"/>
      </g>
     </g>
     <g id="text_9">
      <!-- 266 -->
      <g transform="translate(352.026283 322.182437) scale(0.1 -0.1)">
       <use xlink:href="#DejaVuSans-32"/>
       <use xlink:href="#DejaVuSans-36" x="63.623047"/>
       <use xlink:href="#DejaVuSans-36" x="127.246094"/>
      </g>
     </g>
    </g>
    <g id="xtick_10">
     <g id="line2d_10">
      <g>
       <use xlink:href="#ma7b51f92f0" x="398.487273" y="307.584" style="stroke: #000000; stroke-width: 0.8"/>
      </g>
     </g>
     <g id="text_10">
      <!-- 300 -->
      <g transform="translate(388.943523 322.182437) scale(0.1 -0.1)">
       <use xlink:href="#DejaVuSans-33"/>
       <use xlink:href="#DejaVuSans-30" x="63.623047"/>
       <use xlink:href="#DejaVuSans-30" x="127.246094"/>
      </g>
     </g>
    </g>
    <g id="text_11">
     <!-- Epochs -->
     <g transform="translate(218.244375 335.860562) scale(0.1 -0.1)">
      <defs>
       <path id="DejaVuSans-45" d="M 628 4666 
L 3578 4666 
L 3578 4134 
L 1259 4134 
L 1259 2753 
L 3481 2753 
L 3481 2222 
L 1259 2222 
L 1259 531 
L 3634 531 
L 3634 0 
L 628 0 
L 628 4666 
z
" transform="scale(0.015625)"/>
       <path id="DejaVuSans-70" d="M 1159 525 
L 1159 -1331 
L 581 -1331 
L 581 3500 
L 1159 3500 
L 1159 2969 
Q 1341 3281 1617 3432 
Q 1894 3584 2278 3584 
Q 2916 3584 3314 3078 
Q 3713 2572 3713 1747 
Q 3713 922 3314 415 
Q 2916 -91 2278 -91 
Q 1894 -91 1617 61 
Q 1341 213 1159 525 
z
M 3116 1747 
Q 3116 2381 2855 2742 
Q 2594 3103 2138 3103 
Q 1681 3103 1420 2742 
Q 1159 2381 1159 1747 
Q 1159 1113 1420 752 
Q 1681 391 2138 391 
Q 2594 391 2855 752 
Q 3116 1113 3116 1747 
z
" transform="scale(0.015625)"/>
       <path id="DejaVuSans-6f" d="M 1959 3097 
Q 1497 3097 1228 2736 
Q 959 2375 959 1747 
Q 959 1119 1226 758 
Q 1494 397 1959 397 
Q 2419 397 2687 759 
Q 2956 1122 2956 1747 
Q 2956 2369 2687 2733 
Q 2419 3097 1959 3097 
z
M 1959 3584 
Q 2709 3584 3137 3096 
Q 3566 2609 3566 1747 
Q 3566 888 3137 398 
Q 2709 -91 1959 -91 
Q 1206 -91 779 398 
Q 353 888 353 1747 
Q 353 2609 779 3096 
Q 1206 3584 1959 3584 
z
" transform="scale(0.015625)"/>
       <path id="DejaVuSans-63" d="M 3122 3366 
L 3122 2828 
Q 2878 2963 2633 3030 
Q 2388 3097 2138 3097 
Q 1578 3097 1268 2742 
Q 959 2388 959 1747 
Q 959 1106 1268 751 
Q 1578 397 2138 397 
Q 2388 397 2633 464 
Q 2878 531 3122 666 
L 3122 134 
Q 2881 22 2623 -34 
Q 2366 -91 2075 -91 
Q 1284 -91 818 406 
Q 353 903 353 1747 
Q 353 2603 823 3093 
Q 1294 3584 2113 3584 
Q 2378 3584 2631 3529 
Q 2884 3475 3122 3366 
z
" transform="scale(0.015625)"/>
       <path id="DejaVuSans-68" d="M 3513 2113 
L 3513 0 
L 2938 0 
L 2938 2094 
Q 2938 2591 2744 2837 
Q 2550 3084 2163 3084 
Q 1697 3084 1428 2787 
Q 1159 2491 1159 1978 
L 1159 0 
L 581 0 
L 581 4863 
L 1159 4863 
L 1159 2956 
Q 1366 3272 1645 3428 
Q 1925 3584 2291 3584 
Q 2894 3584 3203 3211 
Q 3513 2838 3513 2113 
z
" transform="scale(0.015625)"/>
       <path id="DejaVuSans-73" d="M 2834 3397 
L 2834 2853 
Q 2591 2978 2328 3040 
Q 2066 3103 1784 3103 
Q 1356 3103 1142 2972 
Q 928 2841 928 2578 
Q 928 2378 1081 2264 
Q 1234 2150 1697 2047 
L 1894 2003 
Q 2506 1872 2764 1633 
Q 3022 1394 3022 966 
Q 3022 478 2636 193 
Q 2250 -91 1575 -91 
Q 1294 -91 989 -36 
Q 684 19 347 128 
L 347 722 
Q 666 556 975 473 
Q 1284 391 1588 391 
Q 1994 391 2212 530 
Q 2431 669 2431 922 
Q 2431 1156 2273 1281 
Q 2116 1406 1581 1522 
L 1381 1569 
Q 847 1681 609 1914 
Q 372 2147 372 2553 
Q 372 3047 722 3315 
Q 1072 3584 1716 3584 
Q 2034 3584 2315 3537 
Q 2597 3491 2834 3397 
z
" transform="scale(0.015625)"/>
      </defs>
      <use xlink:href="#DejaVuSans-45"/>
      <use xlink:href="#DejaVuSans-70" x="63.183594"/>
      <use xlink:href="#DejaVuSans-6f" x="126.660156"/>
      <use xlink:href="#DejaVuSans-63" x="187.841797"/>
      <use xlink:href="#DejaVuSans-68" x="242.822266"/>
      <use xlink:href="#DejaVuSans-73" x="306.201172"/>
     </g>
    </g>
   </g>
   <g id="matplotlib.axis_2">
    <g id="ytick_1">
     <g id="line2d_11">
      <defs>
       <path id="mb1836b6060" d="M 0 0 
L -3.5 0 
" style="stroke: #000000; stroke-width: 0.8"/>
      </defs>
      <g>
       <use xlink:href="#mb1836b6060" x="57.6" y="253.272917" style="stroke: #000000; stroke-width: 0.8"/>
      </g>
     </g>
     <g id="text_12">
      <!-- 20 -->
      <g transform="translate(37.875 257.072135) scale(0.1 -0.1)">
       <use xlink:href="#DejaVuSans-32"/>
       <use xlink:href="#DejaVuSans-30" x="63.623047"/>
      </g>
     </g>
    </g>
    <g id="ytick_2">
     <g id="line2d_12">
      <g>
       <use xlink:href="#mb1836b6060" x="57.6" y="195.348817" style="stroke: #000000; stroke-width: 0.8"/>
      </g>
     </g>
     <g id="text_13">
      <!-- 40 -->
      <g transform="translate(37.875 199.148036) scale(0.1 -0.1)">
       <use xlink:href="#DejaVuSans-34"/>
       <use xlink:href="#DejaVuSans-30" x="63.623047"/>
      </g>
     </g>
    </g>
    <g id="ytick_3">
     <g id="line2d_13">
      <g>
       <use xlink:href="#mb1836b6060" x="57.6" y="137.424718" style="stroke: #000000; stroke-width: 0.8"/>
      </g>
     </g>
     <g id="text_14">
      <!-- 60 -->
      <g transform="translate(37.875 141.223937) scale(0.1 -0.1)">
       <use xlink:href="#DejaVuSans-36"/>
       <use xlink:href="#DejaVuSans-30" x="63.623047"/>
      </g>
     </g>
    </g>
    <g id="ytick_4">
     <g id="line2d_14">
      <g>
       <use xlink:href="#mb1836b6060" x="57.6" y="79.500619" style="stroke: #000000; stroke-width: 0.8"/>
      </g>
     </g>
     <g id="text_15">
      <!-- 80 -->
      <g transform="translate(37.875 83.299838) scale(0.1 -0.1)">
       <defs>
        <path id="DejaVuSans-38" d="M 2034 2216 
Q 1584 2216 1326 1975 
Q 1069 1734 1069 1313 
Q 1069 891 1326 650 
Q 1584 409 2034 409 
Q 2484 409 2743 651 
Q 3003 894 3003 1313 
Q 3003 1734 2745 1975 
Q 2488 2216 2034 2216 
z
M 1403 2484 
Q 997 2584 770 2862 
Q 544 3141 544 3541 
Q 544 4100 942 4425 
Q 1341 4750 2034 4750 
Q 2731 4750 3128 4425 
Q 3525 4100 3525 3541 
Q 3525 3141 3298 2862 
Q 3072 2584 2669 2484 
Q 3125 2378 3379 2068 
Q 3634 1759 3634 1313 
Q 3634 634 3220 271 
Q 2806 -91 2034 -91 
Q 1263 -91 848 271 
Q 434 634 434 1313 
Q 434 1759 690 2068 
Q 947 2378 1403 2484 
z
M 1172 3481 
Q 1172 3119 1398 2916 
Q 1625 2713 2034 2713 
Q 2441 2713 2670 2916 
Q 2900 3119 2900 3481 
Q 2900 3844 2670 4047 
Q 2441 4250 2034 4250 
Q 1625 4250 1398 4047 
Q 1172 3844 1172 3481 
z
" transform="scale(0.015625)"/>
       </defs>
       <use xlink:href="#DejaVuSans-38"/>
       <use xlink:href="#DejaVuSans-30" x="63.623047"/>
      </g>
     </g>
    </g>
    <g id="text_16">
     <!-- Accuracy -->
     <g transform="translate(31.795312 197.356125) rotate(-90) scale(0.1 -0.1)">
      <defs>
       <path id="DejaVuSans-41" d="M 2188 4044 
L 1331 1722 
L 3047 1722 
L 2188 4044 
z
M 1831 4666 
L 2547 4666 
L 4325 0 
L 3669 0 
L 3244 1197 
L 1141 1197 
L 716 0 
L 50 0 
L 1831 4666 
z
" transform="scale(0.015625)"/>
       <path id="DejaVuSans-75" d="M 544 1381 
L 544 3500 
L 1119 3500 
L 1119 1403 
Q 1119 906 1312 657 
Q 1506 409 1894 409 
Q 2359 409 2629 706 
Q 2900 1003 2900 1516 
L 2900 3500 
L 3475 3500 
L 3475 0 
L 2900 0 
L 2900 538 
Q 2691 219 2414 64 
Q 2138 -91 1772 -91 
Q 1169 -91 856 284 
Q 544 659 544 1381 
z
M 1991 3584 
L 1991 3584 
z
" transform="scale(0.015625)"/>
       <path id="DejaVuSans-72" d="M 2631 2963 
Q 2534 3019 2420 3045 
Q 2306 3072 2169 3072 
Q 1681 3072 1420 2755 
Q 1159 2438 1159 1844 
L 1159 0 
L 581 0 
L 581 3500 
L 1159 3500 
L 1159 2956 
Q 1341 3275 1631 3429 
Q 1922 3584 2338 3584 
Q 2397 3584 2469 3576 
Q 2541 3569 2628 3553 
L 2631 2963 
z
" transform="scale(0.015625)"/>
       <path id="DejaVuSans-61" d="M 2194 1759 
Q 1497 1759 1228 1600 
Q 959 1441 959 1056 
Q 959 750 1161 570 
Q 1363 391 1709 391 
Q 2188 391 2477 730 
Q 2766 1069 2766 1631 
L 2766 1759 
L 2194 1759 
z
M 3341 1997 
L 3341 0 
L 2766 0 
L 2766 531 
Q 2569 213 2275 61 
Q 1981 -91 1556 -91 
Q 1019 -91 701 211 
Q 384 513 384 1019 
Q 384 1609 779 1909 
Q 1175 2209 1959 2209 
L 2766 2209 
L 2766 2266 
Q 2766 2663 2505 2880 
Q 2244 3097 1772 3097 
Q 1472 3097 1187 3025 
Q 903 2953 641 2809 
L 641 3341 
Q 956 3463 1253 3523 
Q 1550 3584 1831 3584 
Q 2591 3584 2966 3190 
Q 3341 2797 3341 1997 
z
" transform="scale(0.015625)"/>
       <path id="DejaVuSans-79" d="M 2059 -325 
Q 1816 -950 1584 -1140 
Q 1353 -1331 966 -1331 
L 506 -1331 
L 506 -850 
L 844 -850 
Q 1081 -850 1212 -737 
Q 1344 -625 1503 -206 
L 1606 56 
L 191 3500 
L 800 3500 
L 1894 763 
L 2988 3500 
L 3597 3500 
L 2059 -325 
z
" transform="scale(0.015625)"/>
      </defs>
      <use xlink:href="#DejaVuSans-41"/>
      <use xlink:href="#DejaVuSans-63" x="66.658203"/>
      <use xlink:href="#DejaVuSans-63" x="121.638672"/>
      <use xlink:href="#DejaVuSans-75" x="176.619141"/>
      <use xlink:href="#DejaVuSans-72" x="239.998047"/>
      <use xlink:href="#DejaVuSans-61" x="281.111328"/>
      <use xlink:href="#DejaVuSans-63" x="342.390625"/>
      <use xlink:href="#DejaVuSans-79" x="397.371094"/>
     </g>
    </g>
   </g>
   <g id="line2d_15">
    <path d="M 73.832727 295.488 
L 74.918528 269.891341 
L 76.00433 251.526505 
L 77.090131 237.685541 
L 78.175932 226.995649 
L 79.261733 218.063753 
L 81.433335 203.710161 
L 82.519137 198.413002 
L 84.690739 185.86085 
L 90.119745 162.135139 
L 91.205546 158.595977 
L 93.377148 153.678221 
L 94.462949 152.496569 
L 95.54875 187.824477 
L 96.634552 187.581196 
L 97.720353 184.824009 
L 98.806154 180.90834 
L 99.891955 177.994757 
L 100.977756 174.249964 
L 104.23516 166.470758 
L 105.320961 163.418158 
L 106.406762 160.881082 
L 108.578364 154.801948 
L 109.664165 152.545804 
L 110.749967 149.580091 
L 111.835768 147.767066 
L 112.921569 144.013585 
L 114.00737 141.612631 
L 117.264773 132.767621 
L 118.350575 129.092337 
L 119.436376 126.737722 
L 120.522177 123.024787 
L 121.607978 119.723114 
L 122.693779 117.982494 
L 124.865382 111.141658 
L 125.951183 108.488735 
L 127.036984 106.603305 
L 129.208586 100.712424 
L 131.380189 97.054517 
L 132.46599 95.794668 
L 133.551791 94.013502 
L 134.637592 93.173603 
L 136.809194 91.713915 
L 137.894995 91.951404 
L 138.980797 145.134416 
L 140.066598 150.037691 
L 141.152399 150.307038 
L 142.2382 149.18331 
L 143.324001 148.302864 
L 145.495604 146.139399 
L 146.581405 145.328462 
L 147.667206 143.596531 
L 148.753007 142.611821 
L 149.838808 141.01022 
L 150.924609 140.885683 
L 152.01041 139.324629 
L 153.096212 138.400739 
L 154.182013 136.735422 
L 155.267814 137.161164 
L 156.353615 135.379998 
L 157.439416 134.25627 
L 158.525217 133.543804 
L 160.69682 130.650495 
L 161.782621 130.760551 
L 162.868422 128.365389 
L 163.954223 127.316963 
L 165.040024 126.717449 
L 166.125825 124.93049 
L 167.211627 124.310702 
L 168.297428 122.263085 
L 169.383229 121.113292 
L 170.46903 120.481919 
L 171.554831 118.7413 
L 172.640632 117.724732 
L 173.726434 116.082584 
L 176.983837 112.169811 
L 178.069638 110.524767 
L 179.155439 109.140381 
L 180.24124 107.573534 
L 181.327042 105.583841 
L 183.498644 102.57758 
L 184.584445 101.091827 
L 185.670246 99.258529 
L 186.756047 97.810427 
L 187.841849 96.13642 
L 188.92765 94.708591 
L 191.099252 91.282381 
L 193.270854 87.644748 
L 195.442457 84.904938 
L 196.528258 82.680652 
L 197.614059 81.157248 
L 198.69986 80.14068 
L 199.785661 77.974319 
L 201.957264 75.732657 
L 203.043065 73.128968 
L 204.128866 71.71562 
L 206.300468 69.914181 
L 207.386269 68.335749 
L 208.472071 68.086675 
L 209.557872 66.383707 
L 210.643673 65.419271 
L 211.729474 64.703908 
L 212.815275 64.501174 
L 213.901076 62.80979 
L 214.986877 62.757658 
L 216.072679 61.697647 
L 217.15848 61.413819 
L 218.244281 60.822993 
L 220.415883 60.217687 
L 221.501684 60.113423 
L 223.673287 59.511013 
L 224.759088 59.768775 
L 225.844889 131.45564 
L 226.93069 140.181905 
L 228.016491 140.213764 
L 229.102292 139.785125 
L 230.188094 139.854634 
L 231.273895 138.316749 
L 232.359696 137.72882 
L 234.531298 135.13382 
L 235.617099 135.310489 
L 236.702901 134.241789 
L 237.788702 133.75233 
L 239.960304 132.153625 
L 241.046105 131.192085 
L 242.131906 131.47881 
L 243.217708 130.311639 
L 244.303509 129.604965 
L 245.38931 128.510199 
L 246.475111 129.132884 
L 247.560912 127.635546 
L 248.646713 126.885428 
L 249.732514 126.6016 
L 250.818316 126.028152 
L 251.904117 125.199837 
L 254.075719 124.443928 
L 255.16152 123.270965 
L 256.247321 123.65616 
L 258.418924 122.216746 
L 259.504725 121.738872 
L 260.590526 120.66438 
L 261.676327 120.638314 
L 263.847929 119.711529 
L 264.933731 118.749989 
L 266.019532 118.040419 
L 267.105333 117.956429 
L 268.191134 117.63495 
L 270.362736 115.847991 
L 271.448538 115.422249 
L 272.534339 114.869074 
L 273.62014 114.133438 
L 274.705941 114.066825 
L 275.791742 113.632395 
L 276.877543 112.421781 
L 277.963344 111.454448 
L 279.049146 111.428383 
L 280.134947 110.487116 
L 281.220748 109.777546 
L 282.306549 109.771753 
L 283.39235 108.488735 
L 284.478151 108.077473 
L 285.563953 106.736531 
L 287.735555 106.296307 
L 288.821356 105.311598 
L 289.907157 104.949572 
L 292.07876 103.767921 
L 293.164561 102.832446 
L 294.250362 102.250309 
L 295.336163 101.442268 
L 296.421964 101.164232 
L 297.507765 100.185315 
L 299.679368 99.1282 
L 300.765169 98.062397 
L 302.936771 96.3044 
L 304.022572 95.99161 
L 305.108373 94.977938 
L 306.194175 94.859194 
L 307.279976 93.524044 
L 309.451578 92.646493 
L 310.537379 91.511181 
L 311.62318 90.167342 
L 312.708981 90.181823 
L 313.794783 89.703949 
L 314.880584 88.412242 
L 315.966385 88.064697 
L 319.223788 85.530518 
L 320.30959 83.978152 
L 321.395391 83.691428 
L 322.481192 82.822566 
L 323.566993 82.434475 
L 325.738595 80.305764 
L 326.824396 80.30866 
L 327.910198 79.109632 
L 328.995999 78.515909 
L 331.167601 76.204738 
L 332.253402 76.323482 
L 333.339203 75.072322 
L 334.425005 73.262194 
L 335.510806 73.508371 
L 336.596607 72.526558 
L 337.682408 71.99076 
L 338.768209 70.904683 
L 339.85401 70.21249 
L 340.939811 69.917077 
L 342.025613 68.49504 
L 343.111414 67.490057 
L 344.197215 66.983221 
L 345.283016 66.157803 
L 346.368817 65.824739 
L 349.626221 63.20657 
L 350.712022 63.134165 
L 351.797823 62.302954 
L 352.883624 61.147368 
L 353.969425 61.164746 
L 355.055227 59.997575 
L 358.31263 57.741431 
L 359.398431 57.990505 
L 360.484232 57.147709 
L 361.570033 56.061632 
L 362.655835 55.531627 
L 363.741636 55.137743 
L 364.827437 54.349975 
L 365.913238 54.321013 
L 366.999039 53.568 
L 368.08484 54.683039 
L 369.170642 56.113764 
L 370.256443 58.077391 
L 371.342244 59.288005 
L 372.428045 62.242134 
L 373.513846 62.951704 
L 375.685448 63.284768 
L 376.77125 63.655482 
L 377.857051 63.20657 
L 380.028653 63.299249 
L 381.114454 63.77133 
L 382.200255 63.956687 
L 383.286057 63.533841 
L 384.371858 63.881386 
L 386.54346 63.739472 
L 387.629261 64.31292 
L 388.715062 63.904555 
L 389.800863 64.214449 
L 390.886665 64.063847 
L 391.972466 64.356363 
L 393.058267 63.985649 
L 394.144068 64.321609 
L 396.31567 64.104394 
L 397.401472 64.631503 
L 398.487273 64.463523 
L 398.487273 64.463523 
" clip-path="url(#p84a8f9fb18)" style="fill: none; stroke: #1f77b4; stroke-width: 1.5; stroke-linecap: square"/>
   </g>
   <g id="line2d_16">
    <path d="M 73.832727 277.658962 
L 74.918528 256.371856 
L 76.00433 242.325262 
L 77.090131 222.080789 
L 78.175932 214.46377 
L 79.261733 202.792064 
L 80.347534 198.302946 
L 81.433335 196.043907 
L 82.519137 186.109924 
L 83.604938 182.721364 
L 85.77654 171.542013 
L 86.862341 168.993352 
L 87.948142 163.664335 
L 89.033943 160.015117 
L 90.119745 157.611267 
L 91.205546 156.250051 
L 92.291347 155.352227 
L 93.377148 154.135821 
L 94.462949 153.440732 
L 95.54875 187.529064 
L 96.634552 187.094633 
L 97.720353 185.733417 
L 98.806154 177.102726 
L 99.891955 173.974825 
L 100.977756 171.252392 
L 102.063557 169.340897 
L 103.149358 166.039223 
L 104.23516 163.751221 
L 105.320961 159.725496 
L 106.406762 160.739168 
L 107.492563 160.826054 
L 108.578364 156.047316 
L 109.664165 153.064225 
L 110.749967 152.745643 
L 111.835768 150.718299 
L 112.921569 152.513946 
L 115.093171 146.692574 
L 116.178972 147.47455 
L 117.264773 143.072318 
L 118.350575 141.884874 
L 119.436376 141.073937 
L 120.522177 139.481024 
L 121.607978 141.218747 
L 122.693779 141.073937 
L 123.77958 137.221984 
L 124.865382 137.048212 
L 127.036984 135.223603 
L 128.122785 134.007196 
L 130.294387 133.022487 
L 131.380189 133.283145 
L 132.46599 132.732866 
L 133.551791 132.819752 
L 134.637592 132.327398 
L 135.723393 132.35636 
L 136.809194 131.835043 
L 137.894995 131.806081 
L 138.980797 162.998208 
L 140.066598 157.842963 
L 141.152399 160.073041 
L 142.2382 157.698153 
L 143.324001 159.117293 
L 144.409802 157.842963 
L 145.495604 155.554961 
L 146.581405 154.917796 
L 147.667206 159.262104 
L 149.838808 156.800329 
L 150.924609 159.406914 
L 152.01041 154.83091 
L 153.096212 155.091569 
L 154.182013 151.674047 
L 155.267814 153.8462 
L 156.353615 151.789895 
L 157.439416 150.428679 
L 158.525217 150.428679 
L 159.611019 151.500274 
L 160.69682 148.633031 
L 161.782621 149.472931 
L 162.868422 146.750498 
L 163.954223 147.416625 
L 165.040024 147.90898 
L 166.125825 148.661994 
L 167.211627 148.169639 
L 168.297428 145.50513 
L 169.383229 146.982195 
L 170.46903 144.433534 
L 171.554831 143.883255 
L 173.726434 144.172876 
L 174.812235 144.896927 
L 175.898036 145.041737 
L 176.983837 140.668468 
L 178.069638 142.435153 
L 179.155439 139.828568 
L 180.24124 137.685377 
L 181.327042 137.627453 
L 182.412843 139.85753 
L 183.498644 137.424718 
L 184.584445 137.45368 
L 185.670246 137.106136 
L 186.756047 135.368413 
L 188.92765 136.32416 
L 190.013451 138.119807 
L 192.185053 134.876058 
L 193.270854 136.555857 
L 194.356656 133.891348 
L 195.442457 132.588056 
L 196.528258 133.022487 
L 197.614059 131.487498 
L 198.69986 131.632308 
L 199.785661 132.269473 
L 200.871462 129.547041 
L 201.957264 131.082029 
L 203.043065 129.95251 
L 204.128866 129.691851 
L 205.214667 129.141572 
L 206.300468 129.054686 
L 207.386269 128.301673 
L 208.472071 128.504407 
L 209.557872 128.533369 
L 210.643673 128.1279 
L 212.815275 127.954128 
L 214.986877 128.330635 
L 216.072679 127.027343 
L 217.15848 127.114229 
L 218.244281 127.316963 
L 219.330082 127.201115 
L 220.415883 127.316963 
L 221.501684 126.824608 
L 222.587486 127.432811 
L 223.673287 127.027343 
L 224.759088 127.114229 
L 225.844889 160.652282 
L 226.93069 161.028789 
L 228.016491 161.926612 
L 229.102292 159.870307 
L 230.188094 156.452785 
L 231.273895 156.655519 
L 232.359696 151.15273 
L 233.445497 152.803567 
L 234.531298 154.801948 
L 235.617099 157.553343 
L 236.702901 149.936324 
L 237.788702 152.253288 
L 238.874503 155.120531 
L 239.960304 150.921033 
L 241.046105 153.788276 
L 242.131906 148.604069 
L 243.217708 151.500274 
L 244.303509 149.791513 
L 245.38931 148.690956 
L 246.475111 150.689337 
L 247.560912 149.0385 
L 248.646713 149.8784 
L 249.732514 148.05379 
L 250.818316 148.575107 
L 251.904117 144.810041 
L 252.989918 145.794751 
L 254.075719 145.099661 
L 255.16152 146.837384 
L 256.247321 149.530855 
L 257.333123 142.232419 
L 258.418924 146.953233 
L 259.504725 148.488221 
L 260.590526 146.34503 
L 262.762128 143.072318 
L 263.847929 146.431916 
L 264.933731 145.36032 
L 266.019532 142.203456 
L 267.105333 144.665231 
L 268.191134 148.111715 
L 269.276935 141.855912 
L 271.448538 144.028066 
L 272.534339 143.10128 
L 273.62014 142.637887 
L 274.705941 146.113333 
L 275.791742 143.130242 
L 276.877543 142.927508 
L 277.963344 139.278289 
L 279.049146 145.418244 
L 280.134947 146.113333 
L 281.220748 140.784316 
L 282.306549 145.302396 
L 283.39235 138.728011 
L 284.478151 140.639506 
L 285.563953 142.058646 
L 286.649754 142.869584 
L 287.735555 139.133479 
L 288.821356 140.98705 
L 289.907157 139.046593 
L 290.992958 141.68214 
L 292.07876 140.262999 
L 293.164561 140.69743 
L 294.250362 141.363557 
L 295.336163 137.337832 
L 296.421964 140.813278 
L 297.507765 139.017631 
L 298.593566 138.612162 
L 299.679368 141.016012 
L 300.765169 138.670086 
L 301.85097 138.670086 
L 302.936771 138.43839 
L 304.022572 141.479405 
L 305.108373 139.104517 
L 306.194175 136.005578 
L 307.279976 139.162441 
L 308.365777 135.860768 
L 309.451578 138.699048 
L 310.537379 135.484261 
L 311.62318 135.600109 
L 312.708981 139.71272 
L 313.794783 134.383703 
L 314.880584 134.673324 
L 315.966385 136.816515 
L 317.052186 133.717576 
L 319.223788 136.555857 
L 320.30959 134.962944 
L 321.395391 132.414284 
L 322.481192 136.32416 
L 323.566993 135.107754 
L 324.652794 134.238893 
L 325.738595 135.802844 
L 326.824396 134.615399 
L 327.910198 133.051449 
L 328.995999 134.528513 
L 330.0818 134.065121 
L 332.253402 131.921929 
L 333.339203 133.138335 
L 334.425005 131.864005 
L 335.510806 129.923547 
L 336.596607 130.821371 
L 337.682408 131.313726 
L 338.768209 130.850333 
L 339.85401 130.155244 
L 340.939811 132.385322 
L 342.025613 129.981472 
L 343.111414 129.228458 
L 344.197215 128.707141 
L 345.283016 130.126282 
L 346.368817 129.170534 
L 347.454618 128.794028 
L 348.54042 127.143191 
L 349.626221 128.765065 
L 350.712022 128.1279 
L 351.797823 127.925166 
L 352.883624 125.926785 
L 353.969425 126.70876 
L 355.055227 126.534988 
L 356.141028 125.231695 
L 357.226829 126.100557 
L 358.31263 125.521316 
L 359.398431 126.071595 
L 360.484232 125.405468 
L 361.570033 125.028961 
L 362.655835 125.405468 
L 363.741636 123.551897 
L 364.827437 123.783593 
L 365.913238 124.652454 
L 366.999039 125.810936 
L 368.08484 125.115847 
L 369.170642 126.390177 
L 370.256443 127.201115 
L 371.342244 129.11261 
L 372.428045 130.329016 
L 373.513846 129.894585 
L 374.599647 130.995143 
L 375.685448 130.821371 
L 376.77125 128.9678 
L 377.857051 127.98309 
L 378.942852 128.533369 
L 380.028653 130.734485 
L 381.114454 129.025724 
L 382.200255 131.51646 
L 383.286057 131.487498 
L 384.371858 130.879295 
L 385.457659 130.879295 
L 386.54346 130.647599 
L 387.629261 130.09732 
L 388.715062 131.574384 
L 389.800863 131.806081 
L 390.886665 131.053067 
L 391.972466 132.269473 
L 393.058267 132.240511 
L 394.144068 130.010434 
L 395.229869 131.748157 
L 396.31567 130.184206 
L 397.401472 130.589675 
L 398.487273 130.850333 
L 398.487273 130.850333 
" clip-path="url(#p84a8f9fb18)" style="fill: none; stroke: #ff7f0e; stroke-width: 1.5; stroke-linecap: square"/>
   </g>
   <g id="line2d_17">
    <path d="M 73.832727 291.922192 
L 76.00433 274.684849 
L 77.090131 272.467805 
L 78.175932 268.053409 
L 79.261733 269.891051 
L 80.347534 261.961531 
L 81.433335 264.138609 
L 82.519137 255.230461 
L 83.604938 255.050607 
L 84.690739 249.617616 
L 85.77654 249.21823 
L 86.862341 243.345884 
L 87.948142 241.728064 
L 89.033943 239.570971 
L 90.119745 239.4111 
L 91.205546 236.69475 
L 92.291347 236.394993 
L 93.377148 235.975622 
L 94.462949 235.156575 
L 95.54875 263.619319 
L 96.634552 250.696163 
L 97.720353 257.347587 
L 99.891955 243.745271 
L 100.977756 244.045028 
L 102.063557 243.84519 
L 103.149358 244.544334 
L 104.23516 242.027532 
L 105.320961 237.932877 
L 106.406762 242.007548 
L 107.492563 239.790503 
L 108.578364 233.159352 
L 109.664165 238.132716 
L 110.749967 236.934266 
L 111.835768 230.363066 
L 112.921569 231.141856 
L 114.00737 234.757189 
L 115.093171 230.422728 
L 116.178972 229.484068 
L 117.264773 227.646426 
L 118.350575 228.565392 
L 119.436376 224.830157 
L 120.522177 222.433257 
L 121.607978 224.17098 
L 122.693779 225.509317 
L 123.77958 223.771594 
L 124.865382 220.93534 
L 125.951183 221.774081 
L 127.036984 218.917844 
L 128.122785 220.336115 
L 129.208586 217.379959 
L 130.294387 218.019151 
L 131.380189 219.15765 
L 132.46599 217.819313 
L 133.551791 218.758263 
L 134.637592 216.740766 
L 135.723393 217.040524 
L 137.894995 217.120169 
L 138.980797 237.653394 
L 140.066598 234.677253 
L 142.2382 233.558739 
L 143.324001 232.400257 
L 144.409802 236.035574 
L 145.495604 235.136592 
L 146.581405 238.332554 
L 147.667206 240.86905 
L 148.753007 231.561226 
L 149.838808 230.742469 
L 150.924609 239.950374 
L 152.01041 232.100789 
L 153.096212 230.442712 
L 154.182013 233.958126 
L 155.267814 229.084682 
L 156.353615 230.462696 
L 157.439416 233.898174 
L 158.525217 228.505441 
L 159.611019 224.610335 
L 160.69682 223.292272 
L 161.782621 229.384149 
L 162.868422 225.888719 
L 163.954223 235.536268 
L 165.040024 227.466862 
L 166.125825 225.609236 
L 167.211627 226.487944 
L 168.297428 227.626442 
L 169.383229 229.823504 
L 170.46903 223.372207 
L 171.554831 224.550673 
L 172.640632 226.128525 
L 173.726434 227.986151 
L 174.812235 221.993903 
L 175.898036 225.589252 
L 176.983837 222.952547 
L 178.069638 223.671675 
L 179.155439 218.139054 
L 180.24124 220.735502 
L 181.327042 219.15765 
L 182.412843 219.856793 
L 183.498644 219.337504 
L 184.584445 218.179022 
L 185.670246 218.338603 
L 186.756047 217.919232 
L 187.841849 218.598392 
L 188.92765 216.640847 
L 190.013451 217.339991 
L 191.099252 220.216212 
L 192.185053 216.76075 
L 193.270854 216.381347 
L 194.356656 214.543705 
L 195.442457 217.519846 
L 196.528258 213.62474 
L 197.614059 213.285304 
L 198.69986 214.72356 
L 199.785661 212.346644 
L 200.871462 213.185385 
L 201.957264 212.566177 
L 203.043065 214.243948 
L 204.128866 212.68608 
L 205.214667 211.327759 
L 206.300468 208.491506 
L 207.386269 213.764626 
L 208.472071 210.80847 
L 210.643673 210.349132 
L 212.815275 212.606144 
L 213.901076 211.088243 
L 214.986877 210.848437 
L 216.072679 210.329148 
L 217.15848 210.489018 
L 218.244281 209.829842 
L 219.330082 209.949745 
L 220.415883 209.570053 
L 221.501684 209.61002 
L 222.587486 210.12931 
L 223.673287 209.889794 
L 224.759088 209.35052 
L 225.844889 239.93039 
L 226.93069 241.02892 
L 228.016491 238.212651 
L 229.102292 236.035574 
L 230.188094 228.665022 
L 231.273895 229.204585 
L 232.359696 232.739692 
L 233.445497 229.643939 
L 234.531298 234.457431 
L 235.617099 233.858496 
L 236.702901 235.456333 
L 237.788702 232.919547 
L 238.874503 234.897075 
L 239.960304 233.279255 
L 241.046105 228.625344 
L 242.131906 225.569268 
L 243.217708 228.545408 
L 244.303509 229.044714 
L 245.38931 230.742469 
L 246.475111 227.866248 
L 247.560912 222.693047 
L 248.646713 232.440225 
L 249.732514 229.444101 
L 250.818316 231.361678 
L 251.904117 224.350835 
L 252.989918 222.892595 
L 254.075719 228.026119 
L 255.16152 232.100789 
L 256.247321 224.710254 
L 257.333123 222.892595 
L 258.418924 232.180435 
L 259.504725 228.225667 
L 260.590526 228.125748 
L 261.676327 225.868736 
L 262.762128 221.374694 
L 263.847929 225.549284 
L 264.933731 225.010011 
L 266.019532 223.891497 
L 267.105333 223.012498 
L 268.191134 223.49182 
L 270.362736 221.554549 
L 271.448538 222.433257 
L 272.534339 224.530689 
L 273.62014 225.729139 
L 275.791742 218.917844 
L 276.877543 224.091045 
L 277.963344 222.253563 
L 279.049146 228.964769 
L 280.134947 232.819717 
L 281.220748 224.590501 
L 283.39235 220.535814 
L 284.478151 228.08592 
L 285.563953 224.989977 
L 286.649754 227.506679 
L 287.735555 223.332149 
L 288.821356 224.770265 
L 289.907157 229.983434 
L 290.992958 227.227046 
L 292.07876 231.042047 
L 293.164561 223.891417 
L 294.250362 227.386836 
L 295.336163 222.013877 
L 296.421964 229.28435 
L 297.507765 227.886182 
L 298.593566 222.832804 
L 299.679368 223.332149 
L 300.765169 230.143225 
L 301.85097 226.168433 
L 302.936771 224.350815 
L 304.022572 224.630448 
L 305.108373 227.366863 
L 306.194175 223.791547 
L 307.279976 220.7755 
L 308.365777 223.91139 
L 309.451578 222.752908 
L 310.537379 222.173667 
L 311.62318 221.174976 
L 312.708981 225.129794 
L 313.794783 222.653039 
L 314.880584 221.254871 
L 315.966385 223.471966 
L 317.052186 223.49194 
L 318.137987 221.534505 
L 319.223788 221.354741 
L 320.30959 217.69953 
L 321.395391 217.140263 
L 322.481192 224.670396 
L 323.566993 225.269611 
L 324.652794 218.818064 
L 325.738595 218.6383 
L 326.824396 219.756834 
L 327.910198 214.503718 
L 328.995999 215.282697 
L 330.0818 222.193641 
L 331.167601 220.495866 
L 332.253402 218.298745 
L 333.339203 220.316102 
L 336.596607 216.281388 
L 337.682408 216.421205 
L 338.768209 215.841964 
L 339.85401 218.698222 
L 340.939811 220.855395 
L 342.025613 215.442488 
L 343.111414 216.241441 
L 344.197215 213.704765 
L 345.283016 217.140263 
L 346.368817 217.200184 
L 347.454618 216.381258 
L 348.54042 213.944451 
L 349.626221 216.261415 
L 350.712022 214.543665 
L 351.797823 215.802017 
L 352.883624 215.682174 
L 353.969425 216.201493 
L 355.055227 215.742095 
L 356.141028 217.379949 
L 357.226829 212.626178 
L 358.31263 212.925785 
L 359.398431 213.505026 
L 360.484232 212.865864 
L 361.570033 211.607513 
L 362.655835 217.140263 
L 363.741636 215.322645 
L 364.827437 215.242749 
L 365.913238 211.787277 
L 366.999039 214.024346 
L 369.170642 213.964424 
L 370.256443 214.284006 
L 371.342244 216.720813 
L 372.428045 222.513223 
L 373.513846 217.599661 
L 374.599647 217.499792 
L 375.685448 218.738169 
L 376.77125 218.618326 
L 377.857051 216.76076 
L 378.942852 219.537122 
L 380.028653 218.178902 
L 381.114454 216.141572 
L 382.200255 218.21885 
L 383.286057 217.779425 
L 384.371858 214.284006 
L 385.457659 216.301362 
L 386.54346 218.678248 
L 387.629261 217.28008 
L 388.715062 217.180211 
L 389.800863 217.759452 
L 390.886665 215.622252 
L 391.972466 221.274845 
L 393.058267 217.479818 
L 394.144068 217.359975 
L 395.229869 216.441179 
L 396.31567 215.722121 
L 397.401472 214.763378 
L 398.487273 219.197567 
L 398.487273 219.197567 
" clip-path="url(#p84a8f9fb18)" style="fill: none; stroke: #2ca02c; stroke-width: 1.5; stroke-linecap: square"/>
   </g>
   <g id="line2d_18">
    <path d="M 368.08484 126.100557 
L 369.170642 127.606584 
L 370.256443 130.039396 
L 371.342244 134.267855 
L 372.428045 134.933982 
L 373.513846 137.135098 
L 374.599647 137.685377 
L 375.685448 138.380466 
L 376.77125 140.031303 
L 377.857051 153.614504 
L 378.942852 153.41177 
L 380.028653 156.655519 
L 381.114454 185.009366 
L 382.200255 174.380294 
L 383.286057 165.923375 
L 384.371858 187.76076 
L 385.457659 198.013326 
L 386.54346 191.525827 
L 387.629261 181.562882 
L 388.715062 183.879846 
L 389.800863 200.388214 
L 390.886665 199.548315 
L 391.972466 212.349541 
L 393.058267 226.801603 
L 395.229869 236.561814 
L 396.31567 219.908635 
L 397.401472 221.646358 
L 398.487273 230.740442 
L 398.487273 230.740442 
" clip-path="url(#p84a8f9fb18)" style="fill: none; stroke: #d62728; stroke-width: 1.5; stroke-linecap: square"/>
   </g>
   <g id="line2d_19">
    <path d="M 368.08484 211.587539 
L 369.170642 215.382566 
L 370.256443 216.361284 
L 371.342244 222.013877 
L 372.428045 221.774191 
L 373.513846 224.410736 
L 374.599647 220.615709 
L 375.685448 220.435945 
L 376.77125 225.62914 
L 377.857051 236.375059 
L 378.942852 231.062021 
L 380.028653 234.477545 
L 381.114454 256.62852 
L 382.200255 246.761449 
L 383.286057 245.8826 
L 384.371858 261.841688 
L 385.457659 268.592842 
L 386.54346 262.420929 
L 387.629261 253.372786 
L 388.715062 254.890797 
L 389.800863 262.32106 
L 390.886665 260.803049 
L 391.972466 266.535538 
L 393.058267 276.20287 
L 394.144068 278.000515 
L 395.229869 283.653108 
L 396.31567 269.232005 
L 397.401472 270.210722 
L 398.487273 276.142949 
L 398.487273 276.142949 
" clip-path="url(#p84a8f9fb18)" style="fill: none; stroke: #9467bd; stroke-width: 1.5; stroke-linecap: square"/>
   </g>
   <g id="patch_3">
    <path d="M 57.6 307.584 
L 57.6 41.472 
" style="fill: none; stroke: #000000; stroke-width: 0.8; stroke-linejoin: miter; stroke-linecap: square"/>
   </g>
   <g id="patch_4">
    <path d="M 414.72 307.584 
L 414.72 41.472 
" style="fill: none; stroke: #000000; stroke-width: 0.8; stroke-linejoin: miter; stroke-linecap: square"/>
   </g>
   <g id="patch_5">
    <path d="M 57.6 307.584 
L 414.72 307.584 
" style="fill: none; stroke: #000000; stroke-width: 0.8; stroke-linejoin: miter; stroke-linecap: square"/>
   </g>
   <g id="patch_6">
    <path d="M 57.6 41.472 
L 414.72 41.472 
" style="fill: none; stroke: #000000; stroke-width: 0.8; stroke-linejoin: miter; stroke-linecap: square"/>
   </g>
   <g id="text_17">
    <!-- Learning Curves -->
    <g transform="translate(187.37625 35.472) scale(0.12 -0.12)">
     <defs>
      <path id="DejaVuSans-4c" d="M 628 4666 
L 1259 4666 
L 1259 531 
L 3531 531 
L 3531 0 
L 628 0 
L 628 4666 
z
" transform="scale(0.015625)"/>
      <path id="DejaVuSans-65" d="M 3597 1894 
L 3597 1613 
L 953 1613 
Q 991 1019 1311 708 
Q 1631 397 2203 397 
Q 2534 397 2845 478 
Q 3156 559 3463 722 
L 3463 178 
Q 3153 47 2828 -22 
Q 2503 -91 2169 -91 
Q 1331 -91 842 396 
Q 353 884 353 1716 
Q 353 2575 817 3079 
Q 1281 3584 2069 3584 
Q 2775 3584 3186 3129 
Q 3597 2675 3597 1894 
z
M 3022 2063 
Q 3016 2534 2758 2815 
Q 2500 3097 2075 3097 
Q 1594 3097 1305 2825 
Q 1016 2553 972 2059 
L 3022 2063 
z
" transform="scale(0.015625)"/>
      <path id="DejaVuSans-6e" d="M 3513 2113 
L 3513 0 
L 2938 0 
L 2938 2094 
Q 2938 2591 2744 2837 
Q 2550 3084 2163 3084 
Q 1697 3084 1428 2787 
Q 1159 2491 1159 1978 
L 1159 0 
L 581 0 
L 581 3500 
L 1159 3500 
L 1159 2956 
Q 1366 3272 1645 3428 
Q 1925 3584 2291 3584 
Q 2894 3584 3203 3211 
Q 3513 2838 3513 2113 
z
" transform="scale(0.015625)"/>
      <path id="DejaVuSans-69" d="M 603 3500 
L 1178 3500 
L 1178 0 
L 603 0 
L 603 3500 
z
M 603 4863 
L 1178 4863 
L 1178 4134 
L 603 4134 
L 603 4863 
z
" transform="scale(0.015625)"/>
      <path id="DejaVuSans-67" d="M 2906 1791 
Q 2906 2416 2648 2759 
Q 2391 3103 1925 3103 
Q 1463 3103 1205 2759 
Q 947 2416 947 1791 
Q 947 1169 1205 825 
Q 1463 481 1925 481 
Q 2391 481 2648 825 
Q 2906 1169 2906 1791 
z
M 3481 434 
Q 3481 -459 3084 -895 
Q 2688 -1331 1869 -1331 
Q 1566 -1331 1297 -1286 
Q 1028 -1241 775 -1147 
L 775 -588 
Q 1028 -725 1275 -790 
Q 1522 -856 1778 -856 
Q 2344 -856 2625 -561 
Q 2906 -266 2906 331 
L 2906 616 
Q 2728 306 2450 153 
Q 2172 0 1784 0 
Q 1141 0 747 490 
Q 353 981 353 1791 
Q 353 2603 747 3093 
Q 1141 3584 1784 3584 
Q 2172 3584 2450 3431 
Q 2728 3278 2906 2969 
L 2906 3500 
L 3481 3500 
L 3481 434 
z
" transform="scale(0.015625)"/>
      <path id="DejaVuSans-20" transform="scale(0.015625)"/>
      <path id="DejaVuSans-43" d="M 4122 4306 
L 4122 3641 
Q 3803 3938 3442 4084 
Q 3081 4231 2675 4231 
Q 1875 4231 1450 3742 
Q 1025 3253 1025 2328 
Q 1025 1406 1450 917 
Q 1875 428 2675 428 
Q 3081 428 3442 575 
Q 3803 722 4122 1019 
L 4122 359 
Q 3791 134 3420 21 
Q 3050 -91 2638 -91 
Q 1578 -91 968 557 
Q 359 1206 359 2328 
Q 359 3453 968 4101 
Q 1578 4750 2638 4750 
Q 3056 4750 3426 4639 
Q 3797 4528 4122 4306 
z
" transform="scale(0.015625)"/>
      <path id="DejaVuSans-76" d="M 191 3500 
L 800 3500 
L 1894 563 
L 2988 3500 
L 3597 3500 
L 2284 0 
L 1503 0 
L 191 3500 
z
" transform="scale(0.015625)"/>
     </defs>
     <use xlink:href="#DejaVuSans-4c"/>
     <use xlink:href="#DejaVuSans-65" x="53.962891"/>
     <use xlink:href="#DejaVuSans-61" x="115.486328"/>
     <use xlink:href="#DejaVuSans-72" x="176.765625"/>
     <use xlink:href="#DejaVuSans-6e" x="216.128906"/>
     <use xlink:href="#DejaVuSans-69" x="279.507812"/>
     <use xlink:href="#DejaVuSans-6e" x="307.291016"/>
     <use xlink:href="#DejaVuSans-67" x="370.669922"/>
     <use xlink:href="#DejaVuSans-20" x="434.146484"/>
     <use xlink:href="#DejaVuSans-43" x="465.933594"/>
     <use xlink:href="#DejaVuSans-75" x="535.757812"/>
     <use xlink:href="#DejaVuSans-72" x="599.136719"/>
     <use xlink:href="#DejaVuSans-76" x="640.25"/>
     <use xlink:href="#DejaVuSans-65" x="699.429688"/>
     <use xlink:href="#DejaVuSans-73" x="760.953125"/>
    </g>
   </g>
   <g id="legend_1">
    <g id="patch_7">
     <path d="M 214.18875 302.584 
L 407.72 302.584 
Q 409.72 302.584 409.72 300.584 
L 409.72 228.193375 
Q 409.72 226.193375 407.72 226.193375 
L 214.18875 226.193375 
Q 212.18875 226.193375 212.18875 228.193375 
L 212.18875 300.584 
Q 212.18875 302.584 214.18875 302.584 
z
" style="fill: #ffffff; opacity: 0.8; stroke: #cccccc; stroke-linejoin: miter"/>
    </g>
    <g id="line2d_20">
     <path d="M 216.18875 234.291812 
L 226.18875 234.291812 
L 236.18875 234.291812 
" style="fill: none; stroke: #1f77b4; stroke-width: 1.5; stroke-linecap: square"/>
    </g>
    <g id="text_18">
     <!-- Train Accuracy -->
     <g transform="translate(244.18875 237.791812) scale(0.1 -0.1)">
      <defs>
       <path id="DejaVuSans-54" d="M -19 4666 
L 3928 4666 
L 3928 4134 
L 2272 4134 
L 2272 0 
L 1638 0 
L 1638 4134 
L -19 4134 
L -19 4666 
z
" transform="scale(0.015625)"/>
      </defs>
      <use xlink:href="#DejaVuSans-54"/>
      <use xlink:href="#DejaVuSans-72" x="46.333984"/>
      <use xlink:href="#DejaVuSans-61" x="87.447266"/>
      <use xlink:href="#DejaVuSans-69" x="148.726562"/>
      <use xlink:href="#DejaVuSans-6e" x="176.509766"/>
      <use xlink:href="#DejaVuSans-20" x="239.888672"/>
      <use xlink:href="#DejaVuSans-41" x="271.675781"/>
      <use xlink:href="#DejaVuSans-63" x="338.333984"/>
      <use xlink:href="#DejaVuSans-63" x="393.314453"/>
      <use xlink:href="#DejaVuSans-75" x="448.294922"/>
      <use xlink:href="#DejaVuSans-72" x="511.673828"/>
      <use xlink:href="#DejaVuSans-61" x="552.787109"/>
      <use xlink:href="#DejaVuSans-63" x="614.066406"/>
      <use xlink:href="#DejaVuSans-79" x="669.046875"/>
     </g>
    </g>
    <g id="line2d_21">
     <path d="M 216.18875 248.969937 
L 226.18875 248.969937 
L 236.18875 248.969937 
" style="fill: none; stroke: #ff7f0e; stroke-width: 1.5; stroke-linecap: square"/>
    </g>
    <g id="text_19">
     <!-- Validation Accuracy -->
     <g transform="translate(244.18875 252.469937) scale(0.1 -0.1)">
      <defs>
       <path id="DejaVuSans-56" d="M 1831 0 
L 50 4666 
L 709 4666 
L 2188 738 
L 3669 4666 
L 4325 4666 
L 2547 0 
L 1831 0 
z
" transform="scale(0.015625)"/>
       <path id="DejaVuSans-6c" d="M 603 4863 
L 1178 4863 
L 1178 0 
L 603 0 
L 603 4863 
z
" transform="scale(0.015625)"/>
       <path id="DejaVuSans-64" d="M 2906 2969 
L 2906 4863 
L 3481 4863 
L 3481 0 
L 2906 0 
L 2906 525 
Q 2725 213 2448 61 
Q 2172 -91 1784 -91 
Q 1150 -91 751 415 
Q 353 922 353 1747 
Q 353 2572 751 3078 
Q 1150 3584 1784 3584 
Q 2172 3584 2448 3432 
Q 2725 3281 2906 2969 
z
M 947 1747 
Q 947 1113 1208 752 
Q 1469 391 1925 391 
Q 2381 391 2643 752 
Q 2906 1113 2906 1747 
Q 2906 2381 2643 2742 
Q 2381 3103 1925 3103 
Q 1469 3103 1208 2742 
Q 947 2381 947 1747 
z
" transform="scale(0.015625)"/>
       <path id="DejaVuSans-74" d="M 1172 4494 
L 1172 3500 
L 2356 3500 
L 2356 3053 
L 1172 3053 
L 1172 1153 
Q 1172 725 1289 603 
Q 1406 481 1766 481 
L 2356 481 
L 2356 0 
L 1766 0 
Q 1100 0 847 248 
Q 594 497 594 1153 
L 594 3053 
L 172 3053 
L 172 3500 
L 594 3500 
L 594 4494 
L 1172 4494 
z
" transform="scale(0.015625)"/>
      </defs>
      <use xlink:href="#DejaVuSans-56"/>
      <use xlink:href="#DejaVuSans-61" x="60.658203"/>
      <use xlink:href="#DejaVuSans-6c" x="121.9375"/>
      <use xlink:href="#DejaVuSans-69" x="149.720703"/>
      <use xlink:href="#DejaVuSans-64" x="177.503906"/>
      <use xlink:href="#DejaVuSans-61" x="240.980469"/>
      <use xlink:href="#DejaVuSans-74" x="302.259766"/>
      <use xlink:href="#DejaVuSans-69" x="341.46875"/>
      <use xlink:href="#DejaVuSans-6f" x="369.251953"/>
      <use xlink:href="#DejaVuSans-6e" x="430.433594"/>
      <use xlink:href="#DejaVuSans-20" x="493.8125"/>
      <use xlink:href="#DejaVuSans-41" x="525.599609"/>
      <use xlink:href="#DejaVuSans-63" x="592.257812"/>
      <use xlink:href="#DejaVuSans-63" x="647.238281"/>
      <use xlink:href="#DejaVuSans-75" x="702.21875"/>
      <use xlink:href="#DejaVuSans-72" x="765.597656"/>
      <use xlink:href="#DejaVuSans-61" x="806.710938"/>
      <use xlink:href="#DejaVuSans-63" x="867.990234"/>
      <use xlink:href="#DejaVuSans-79" x="922.970703"/>
     </g>
    </g>
    <g id="line2d_22">
     <path d="M 216.18875 263.648062 
L 226.18875 263.648062 
L 236.18875 263.648062 
" style="fill: none; stroke: #2ca02c; stroke-width: 1.5; stroke-linecap: square"/>
    </g>
    <g id="text_20">
     <!-- Robust Validation Accuracy -->
     <g transform="translate(244.18875 267.148062) scale(0.1 -0.1)">
      <defs>
       <path id="DejaVuSans-52" d="M 2841 2188 
Q 3044 2119 3236 1894 
Q 3428 1669 3622 1275 
L 4263 0 
L 3584 0 
L 2988 1197 
Q 2756 1666 2539 1819 
Q 2322 1972 1947 1972 
L 1259 1972 
L 1259 0 
L 628 0 
L 628 4666 
L 2053 4666 
Q 2853 4666 3247 4331 
Q 3641 3997 3641 3322 
Q 3641 2881 3436 2590 
Q 3231 2300 2841 2188 
z
M 1259 4147 
L 1259 2491 
L 2053 2491 
Q 2509 2491 2742 2702 
Q 2975 2913 2975 3322 
Q 2975 3731 2742 3939 
Q 2509 4147 2053 4147 
L 1259 4147 
z
" transform="scale(0.015625)"/>
       <path id="DejaVuSans-62" d="M 3116 1747 
Q 3116 2381 2855 2742 
Q 2594 3103 2138 3103 
Q 1681 3103 1420 2742 
Q 1159 2381 1159 1747 
Q 1159 1113 1420 752 
Q 1681 391 2138 391 
Q 2594 391 2855 752 
Q 3116 1113 3116 1747 
z
M 1159 2969 
Q 1341 3281 1617 3432 
Q 1894 3584 2278 3584 
Q 2916 3584 3314 3078 
Q 3713 2572 3713 1747 
Q 3713 922 3314 415 
Q 2916 -91 2278 -91 
Q 1894 -91 1617 61 
Q 1341 213 1159 525 
L 1159 0 
L 581 0 
L 581 4863 
L 1159 4863 
L 1159 2969 
z
" transform="scale(0.015625)"/>
      </defs>
      <use xlink:href="#DejaVuSans-52"/>
      <use xlink:href="#DejaVuSans-6f" x="64.982422"/>
      <use xlink:href="#DejaVuSans-62" x="126.164062"/>
      <use xlink:href="#DejaVuSans-75" x="189.640625"/>
      <use xlink:href="#DejaVuSans-73" x="253.019531"/>
      <use xlink:href="#DejaVuSans-74" x="305.119141"/>
      <use xlink:href="#DejaVuSans-20" x="344.328125"/>
      <use xlink:href="#DejaVuSans-56" x="376.115234"/>
      <use xlink:href="#DejaVuSans-61" x="436.773438"/>
      <use xlink:href="#DejaVuSans-6c" x="498.052734"/>
      <use xlink:href="#DejaVuSans-69" x="525.835938"/>
      <use xlink:href="#DejaVuSans-64" x="553.619141"/>
      <use xlink:href="#DejaVuSans-61" x="617.095703"/>
      <use xlink:href="#DejaVuSans-74" x="678.375"/>
      <use xlink:href="#DejaVuSans-69" x="717.583984"/>
      <use xlink:href="#DejaVuSans-6f" x="745.367188"/>
      <use xlink:href="#DejaVuSans-6e" x="806.548828"/>
      <use xlink:href="#DejaVuSans-20" x="869.927734"/>
      <use xlink:href="#DejaVuSans-41" x="901.714844"/>
      <use xlink:href="#DejaVuSans-63" x="968.373047"/>
      <use xlink:href="#DejaVuSans-63" x="1023.353516"/>
      <use xlink:href="#DejaVuSans-75" x="1078.333984"/>
      <use xlink:href="#DejaVuSans-72" x="1141.712891"/>
      <use xlink:href="#DejaVuSans-61" x="1182.826172"/>
      <use xlink:href="#DejaVuSans-63" x="1244.105469"/>
      <use xlink:href="#DejaVuSans-79" x="1299.085938"/>
     </g>
    </g>
    <g id="line2d_23">
     <path d="M 216.18875 278.326188 
L 226.18875 278.326188 
L 236.18875 278.326188 
" style="fill: none; stroke: #d62728; stroke-width: 1.5; stroke-linecap: square"/>
    </g>
    <g id="text_21">
     <!-- SWA Validation Accuracy -->
     <g transform="translate(244.18875 281.826188) scale(0.1 -0.1)">
      <defs>
       <path id="DejaVuSans-53" d="M 3425 4513 
L 3425 3897 
Q 3066 4069 2747 4153 
Q 2428 4238 2131 4238 
Q 1616 4238 1336 4038 
Q 1056 3838 1056 3469 
Q 1056 3159 1242 3001 
Q 1428 2844 1947 2747 
L 2328 2669 
Q 3034 2534 3370 2195 
Q 3706 1856 3706 1288 
Q 3706 609 3251 259 
Q 2797 -91 1919 -91 
Q 1588 -91 1214 -16 
Q 841 59 441 206 
L 441 856 
Q 825 641 1194 531 
Q 1563 422 1919 422 
Q 2459 422 2753 634 
Q 3047 847 3047 1241 
Q 3047 1584 2836 1778 
Q 2625 1972 2144 2069 
L 1759 2144 
Q 1053 2284 737 2584 
Q 422 2884 422 3419 
Q 422 4038 858 4394 
Q 1294 4750 2059 4750 
Q 2388 4750 2728 4690 
Q 3069 4631 3425 4513 
z
" transform="scale(0.015625)"/>
       <path id="DejaVuSans-57" d="M 213 4666 
L 850 4666 
L 1831 722 
L 2809 4666 
L 3519 4666 
L 4500 722 
L 5478 4666 
L 6119 4666 
L 4947 0 
L 4153 0 
L 3169 4050 
L 2175 0 
L 1381 0 
L 213 4666 
z
" transform="scale(0.015625)"/>
      </defs>
      <use xlink:href="#DejaVuSans-53"/>
      <use xlink:href="#DejaVuSans-57" x="63.476562"/>
      <use xlink:href="#DejaVuSans-41" x="156.853516"/>
      <use xlink:href="#DejaVuSans-20" x="225.261719"/>
      <use xlink:href="#DejaVuSans-56" x="257.048828"/>
      <use xlink:href="#DejaVuSans-61" x="317.707031"/>
      <use xlink:href="#DejaVuSans-6c" x="378.986328"/>
      <use xlink:href="#DejaVuSans-69" x="406.769531"/>
      <use xlink:href="#DejaVuSans-64" x="434.552734"/>
      <use xlink:href="#DejaVuSans-61" x="498.029297"/>
      <use xlink:href="#DejaVuSans-74" x="559.308594"/>
      <use xlink:href="#DejaVuSans-69" x="598.517578"/>
      <use xlink:href="#DejaVuSans-6f" x="626.300781"/>
      <use xlink:href="#DejaVuSans-6e" x="687.482422"/>
      <use xlink:href="#DejaVuSans-20" x="750.861328"/>
      <use xlink:href="#DejaVuSans-41" x="782.648438"/>
      <use xlink:href="#DejaVuSans-63" x="849.306641"/>
      <use xlink:href="#DejaVuSans-63" x="904.287109"/>
      <use xlink:href="#DejaVuSans-75" x="959.267578"/>
      <use xlink:href="#DejaVuSans-72" x="1022.646484"/>
      <use xlink:href="#DejaVuSans-61" x="1063.759766"/>
      <use xlink:href="#DejaVuSans-63" x="1125.039062"/>
      <use xlink:href="#DejaVuSans-79" x="1180.019531"/>
     </g>
    </g>
    <g id="line2d_24">
     <path d="M 216.18875 293.004312 
L 226.18875 293.004312 
L 236.18875 293.004312 
" style="fill: none; stroke: #9467bd; stroke-width: 1.5; stroke-linecap: square"/>
    </g>
    <g id="text_22">
     <!-- SWA Robust Validation Accuracy -->
     <g transform="translate(244.18875 296.504312) scale(0.1 -0.1)">
      <use xlink:href="#DejaVuSans-53"/>
      <use xlink:href="#DejaVuSans-57" x="63.476562"/>
      <use xlink:href="#DejaVuSans-41" x="156.853516"/>
      <use xlink:href="#DejaVuSans-20" x="225.261719"/>
      <use xlink:href="#DejaVuSans-52" x="257.048828"/>
      <use xlink:href="#DejaVuSans-6f" x="322.03125"/>
      <use xlink:href="#DejaVuSans-62" x="383.212891"/>
      <use xlink:href="#DejaVuSans-75" x="446.689453"/>
      <use xlink:href="#DejaVuSans-73" x="510.068359"/>
      <use xlink:href="#DejaVuSans-74" x="562.167969"/>
      <use xlink:href="#DejaVuSans-20" x="601.376953"/>
      <use xlink:href="#DejaVuSans-56" x="633.164062"/>
      <use xlink:href="#DejaVuSans-61" x="693.822266"/>
      <use xlink:href="#DejaVuSans-6c" x="755.101562"/>
      <use xlink:href="#DejaVuSans-69" x="782.884766"/>
      <use xlink:href="#DejaVuSans-64" x="810.667969"/>
      <use xlink:href="#DejaVuSans-61" x="874.144531"/>
      <use xlink:href="#DejaVuSans-74" x="935.423828"/>
      <use xlink:href="#DejaVuSans-69" x="974.632812"/>
      <use xlink:href="#DejaVuSans-6f" x="1002.416016"/>
      <use xlink:href="#DejaVuSans-6e" x="1063.597656"/>
      <use xlink:href="#DejaVuSans-20" x="1126.976562"/>
      <use xlink:href="#DejaVuSans-41" x="1158.763672"/>
      <use xlink:href="#DejaVuSans-63" x="1225.421875"/>
      <use xlink:href="#DejaVuSans-63" x="1280.402344"/>
      <use xlink:href="#DejaVuSans-75" x="1335.382812"/>
      <use xlink:href="#DejaVuSans-72" x="1398.761719"/>
      <use xlink:href="#DejaVuSans-61" x="1439.875"/>
      <use xlink:href="#DejaVuSans-63" x="1501.154297"/>
      <use xlink:href="#DejaVuSans-79" x="1556.134766"/>
     </g>
    </g>
   </g>
  </g>
 </g>
 <defs>
  <clipPath id="p84a8f9fb18">
   <rect x="57.6" y="41.472" width="357.12" height="266.112"/>
  </clipPath>
 </defs>
</svg>
