<?xml version="1.0" encoding="utf-8" standalone="no"?>
<!DOCTYPE svg PUBLIC "-//W3C//DTD SVG 1.1//EN"
  "http://www.w3.org/Graphics/SVG/1.1/DTD/svg11.dtd">
<svg xmlns:xlink="http://www.w3.org/1999/xlink" width="460.8pt" height="345.6pt" viewBox="0 0 460.8 345.6" xmlns="http://www.w3.org/2000/svg" version="1.1">
 <metadata>
  <rdf:RDF xmlns:dc="http://purl.org/dc/elements/1.1/" xmlns:cc="http://creativecommons.org/ns#" xmlns:rdf="http://www.w3.org/1999/02/22-rdf-syntax-ns#">
   <cc:Work>
    <dc:type rdf:resource="http://purl.org/dc/dcmitype/StillImage"/>
    <dc:date>2025-05-06T11:26:37.591261</dc:date>
    <dc:format>image/svg+xml</dc:format>
    <dc:creator>
     <cc:Agent>
      <dc:title>Matplotlib v3.9.1, https://matplotlib.org/</dc:title>
     </cc:Agent>
    </dc:creator>
   </cc:Work>
  </rdf:RDF>
 </metadata>
 <defs>
  <style type="text/css">*{stroke-linejoin: round; stroke-linecap: butt}</style>
 </defs>
 <g id="figure_1">
  <g id="patch_1">
   <path d="M 0 345.6 
L 460.8 345.6 
L 460.8 0 
L 0 0 
z
" style="fill: #ffffff"/>
  </g>
  <g id="axes_1">
   <g id="patch_2">
    <path d="M 57.6 307.584 
L 414.72 307.584 
L 414.72 41.472 
L 57.6 41.472 
z
" style="fill: #ffffff"/>
   </g>
   <g id="matplotlib.axis_1">
    <g id="xtick_1">
     <g id="line2d_1">
      <defs>
       <path id="m91e0673b81" d="M 0 0 
L 0 3.5 
" style="stroke: #000000; stroke-width: 0.8"/>
      </defs>
      <g>
       <use xlink:href="#m91e0673b81" x="73.832727" y="307.584" style="stroke: #000000; stroke-width: 0.8"/>
      </g>
     </g>
     <g id="text_1">
      <!-- 1 -->
      <g transform="translate(70.651477 322.182437) scale(0.1 -0.1)">
       <defs>
        <path id="DejaVuSans-31" d="M 794 531 
L 1825 531 
L 1825 4091 
L 703 3866 
L 703 4441 
L 1819 4666 
L 2450 4666 
L 2450 531 
L 3481 531 
L 3481 0 
L 794 0 
L 794 531 
z
" transform="scale(0.015625)"/>
       </defs>
       <use xlink:href="#DejaVuSans-31"/>
      </g>
     </g>
    </g>
    <g id="xtick_2">
     <g id="line2d_2">
      <g>
       <use xlink:href="#m91e0673b81" x="109.664165" y="307.584" style="stroke: #000000; stroke-width: 0.8"/>
      </g>
     </g>
     <g id="text_2">
      <!-- 34 -->
      <g transform="translate(103.301665 322.182437) scale(0.1 -0.1)">
       <defs>
        <path id="DejaVuSans-33" d="M 2597 2516 
Q 3050 2419 3304 2112 
Q 3559 1806 3559 1356 
Q 3559 666 3084 287 
Q 2609 -91 1734 -91 
Q 1441 -91 1130 -33 
Q 819 25 488 141 
L 488 750 
Q 750 597 1062 519 
Q 1375 441 1716 441 
Q 2309 441 2620 675 
Q 2931 909 2931 1356 
Q 2931 1769 2642 2001 
Q 2353 2234 1838 2234 
L 1294 2234 
L 1294 2753 
L 1863 2753 
Q 2328 2753 2575 2939 
Q 2822 3125 2822 3475 
Q 2822 3834 2567 4026 
Q 2313 4219 1838 4219 
Q 1578 4219 1281 4162 
Q 984 4106 628 3988 
L 628 4550 
Q 988 4650 1302 4700 
Q 1616 4750 1894 4750 
Q 2613 4750 3031 4423 
Q 3450 4097 3450 3541 
Q 3450 3153 3228 2886 
Q 3006 2619 2597 2516 
z
" transform="scale(0.015625)"/>
        <path id="DejaVuSans-34" d="M 2419 4116 
L 825 1625 
L 2419 1625 
L 2419 4116 
z
M 2253 4666 
L 3047 4666 
L 3047 1625 
L 3713 1625 
L 3713 1100 
L 3047 1100 
L 3047 0 
L 2419 0 
L 2419 1100 
L 313 1100 
L 313 1709 
L 2253 4666 
z
" transform="scale(0.015625)"/>
       </defs>
       <use xlink:href="#DejaVuSans-33"/>
       <use xlink:href="#DejaVuSans-34" x="63.623047"/>
      </g>
     </g>
    </g>
    <g id="xtick_3">
     <g id="line2d_3">
      <g>
       <use xlink:href="#m91e0673b81" x="145.495604" y="307.584" style="stroke: #000000; stroke-width: 0.8"/>
      </g>
     </g>
     <g id="text_3">
      <!-- 67 -->
      <g transform="translate(139.133104 322.182437) scale(0.1 -0.1)">
       <defs>
        <path id="DejaVuSans-36" d="M 2113 2584 
Q 1688 2584 1439 2293 
Q 1191 2003 1191 1497 
Q 1191 994 1439 701 
Q 1688 409 2113 409 
Q 2538 409 2786 701 
Q 3034 994 3034 1497 
Q 3034 2003 2786 2293 
Q 2538 2584 2113 2584 
z
M 3366 4563 
L 3366 3988 
Q 3128 4100 2886 4159 
Q 2644 4219 2406 4219 
Q 1781 4219 1451 3797 
Q 1122 3375 1075 2522 
Q 1259 2794 1537 2939 
Q 1816 3084 2150 3084 
Q 2853 3084 3261 2657 
Q 3669 2231 3669 1497 
Q 3669 778 3244 343 
Q 2819 -91 2113 -91 
Q 1303 -91 875 529 
Q 447 1150 447 2328 
Q 447 3434 972 4092 
Q 1497 4750 2381 4750 
Q 2619 4750 2861 4703 
Q 3103 4656 3366 4563 
z
" transform="scale(0.015625)"/>
        <path id="DejaVuSans-37" d="M 525 4666 
L 3525 4666 
L 3525 4397 
L 1831 0 
L 1172 0 
L 2766 4134 
L 525 4134 
L 525 4666 
z
" transform="scale(0.015625)"/>
       </defs>
       <use xlink:href="#DejaVuSans-36"/>
       <use xlink:href="#DejaVuSans-37" x="63.623047"/>
      </g>
     </g>
    </g>
    <g id="xtick_4">
     <g id="line2d_4">
      <g>
       <use xlink:href="#m91e0673b81" x="181.327042" y="307.584" style="stroke: #000000; stroke-width: 0.8"/>
      </g>
     </g>
     <g id="text_4">
      <!-- 100 -->
      <g transform="translate(171.783292 322.182437) scale(0.1 -0.1)">
       <defs>
        <path id="DejaVuSans-30" d="M 2034 4250 
Q 1547 4250 1301 3770 
Q 1056 3291 1056 2328 
Q 1056 1369 1301 889 
Q 1547 409 2034 409 
Q 2525 409 2770 889 
Q 3016 1369 3016 2328 
Q 3016 3291 2770 3770 
Q 2525 4250 2034 4250 
z
M 2034 4750 
Q 2819 4750 3233 4129 
Q 3647 3509 3647 2328 
Q 3647 1150 3233 529 
Q 2819 -91 2034 -91 
Q 1250 -91 836 529 
Q 422 1150 422 2328 
Q 422 3509 836 4129 
Q 1250 4750 2034 4750 
z
" transform="scale(0.015625)"/>
       </defs>
       <use xlink:href="#DejaVuSans-31"/>
       <use xlink:href="#DejaVuSans-30" x="63.623047"/>
       <use xlink:href="#DejaVuSans-30" x="127.246094"/>
      </g>
     </g>
    </g>
    <g id="xtick_5">
     <g id="line2d_5">
      <g>
       <use xlink:href="#m91e0673b81" x="217.15848" y="307.584" style="stroke: #000000; stroke-width: 0.8"/>
      </g>
     </g>
     <g id="text_5">
      <!-- 133 -->
      <g transform="translate(207.61473 322.182437) scale(0.1 -0.1)">
       <use xlink:href="#DejaVuSans-31"/>
       <use xlink:href="#DejaVuSans-33" x="63.623047"/>
       <use xlink:href="#DejaVuSans-33" x="127.246094"/>
      </g>
     </g>
    </g>
    <g id="xtick_6">
     <g id="line2d_6">
      <g>
       <use xlink:href="#m91e0673b81" x="254.075719" y="307.584" style="stroke: #000000; stroke-width: 0.8"/>
      </g>
     </g>
     <g id="text_6">
      <!-- 167 -->
      <g transform="translate(244.531969 322.182437) scale(0.1 -0.1)">
       <use xlink:href="#DejaVuSans-31"/>
       <use xlink:href="#DejaVuSans-36" x="63.623047"/>
       <use xlink:href="#DejaVuSans-37" x="127.246094"/>
      </g>
     </g>
    </g>
    <g id="xtick_7">
     <g id="line2d_7">
      <g>
       <use xlink:href="#m91e0673b81" x="289.907157" y="307.584" style="stroke: #000000; stroke-width: 0.8"/>
      </g>
     </g>
     <g id="text_7">
      <!-- 200 -->
      <g transform="translate(280.363407 322.182437) scale(0.1 -0.1)">
       <defs>
        <path id="DejaVuSans-32" d="M 1228 531 
L 3431 531 
L 3431 0 
L 469 0 
L 469 531 
Q 828 903 1448 1529 
Q 2069 2156 2228 2338 
Q 2531 2678 2651 2914 
Q 2772 3150 2772 3378 
Q 2772 3750 2511 3984 
Q 2250 4219 1831 4219 
Q 1534 4219 1204 4116 
Q 875 4013 500 3803 
L 500 4441 
Q 881 4594 1212 4672 
Q 1544 4750 1819 4750 
Q 2544 4750 2975 4387 
Q 3406 4025 3406 3419 
Q 3406 3131 3298 2873 
Q 3191 2616 2906 2266 
Q 2828 2175 2409 1742 
Q 1991 1309 1228 531 
z
" transform="scale(0.015625)"/>
       </defs>
       <use xlink:href="#DejaVuSans-32"/>
       <use xlink:href="#DejaVuSans-30" x="63.623047"/>
       <use xlink:href="#DejaVuSans-30" x="127.246094"/>
      </g>
     </g>
    </g>
    <g id="xtick_8">
     <g id="line2d_8">
      <g>
       <use xlink:href="#m91e0673b81" x="325.738595" y="307.584" style="stroke: #000000; stroke-width: 0.8"/>
      </g>
     </g>
     <g id="text_8">
      <!-- 233 -->
      <g transform="translate(316.194845 322.182437) scale(0.1 -0.1)">
       <use xlink:href="#DejaVuSans-32"/>
       <use xlink:href="#DejaVuSans-33" x="63.623047"/>
       <use xlink:href="#DejaVuSans-33" x="127.246094"/>
      </g>
     </g>
    </g>
    <g id="xtick_9">
     <g id="line2d_9">
      <g>
       <use xlink:href="#m91e0673b81" x="361.570033" y="307.584" style="stroke: #000000; stroke-width: 0.8"/>
      </g>
     </g>
     <g id="text_9">
      <!-- 266 -->
      <g transform="translate(352.026283 322.182437) scale(0.1 -0.1)">
       <use xlink:href="#DejaVuSans-32"/>
       <use xlink:href="#DejaVuSans-36" x="63.623047"/>
       <use xlink:href="#DejaVuSans-36" x="127.246094"/>
      </g>
     </g>
    </g>
    <g id="xtick_10">
     <g id="line2d_10">
      <g>
       <use xlink:href="#m91e0673b81" x="398.487273" y="307.584" style="stroke: #000000; stroke-width: 0.8"/>
      </g>
     </g>
     <g id="text_10">
      <!-- 300 -->
      <g transform="translate(388.943523 322.182437) scale(0.1 -0.1)">
       <use xlink:href="#DejaVuSans-33"/>
       <use xlink:href="#DejaVuSans-30" x="63.623047"/>
       <use xlink:href="#DejaVuSans-30" x="127.246094"/>
      </g>
     </g>
    </g>
    <g id="text_11">
     <!-- Epochs -->
     <g transform="translate(218.244375 335.860562) scale(0.1 -0.1)">
      <defs>
       <path id="DejaVuSans-45" d="M 628 4666 
L 3578 4666 
L 3578 4134 
L 1259 4134 
L 1259 2753 
L 3481 2753 
L 3481 2222 
L 1259 2222 
L 1259 531 
L 3634 531 
L 3634 0 
L 628 0 
L 628 4666 
z
" transform="scale(0.015625)"/>
       <path id="DejaVuSans-70" d="M 1159 525 
L 1159 -1331 
L 581 -1331 
L 581 3500 
L 1159 3500 
L 1159 2969 
Q 1341 3281 1617 3432 
Q 1894 3584 2278 3584 
Q 2916 3584 3314 3078 
Q 3713 2572 3713 1747 
Q 3713 922 3314 415 
Q 2916 -91 2278 -91 
Q 1894 -91 1617 61 
Q 1341 213 1159 525 
z
M 3116 1747 
Q 3116 2381 2855 2742 
Q 2594 3103 2138 3103 
Q 1681 3103 1420 2742 
Q 1159 2381 1159 1747 
Q 1159 1113 1420 752 
Q 1681 391 2138 391 
Q 2594 391 2855 752 
Q 3116 1113 3116 1747 
z
" transform="scale(0.015625)"/>
       <path id="DejaVuSans-6f" d="M 1959 3097 
Q 1497 3097 1228 2736 
Q 959 2375 959 1747 
Q 959 1119 1226 758 
Q 1494 397 1959 397 
Q 2419 397 2687 759 
Q 2956 1122 2956 1747 
Q 2956 2369 2687 2733 
Q 2419 3097 1959 3097 
z
M 1959 3584 
Q 2709 3584 3137 3096 
Q 3566 2609 3566 1747 
Q 3566 888 3137 398 
Q 2709 -91 1959 -91 
Q 1206 -91 779 398 
Q 353 888 353 1747 
Q 353 2609 779 3096 
Q 1206 3584 1959 3584 
z
" transform="scale(0.015625)"/>
       <path id="DejaVuSans-63" d="M 3122 3366 
L 3122 2828 
Q 2878 2963 2633 3030 
Q 2388 3097 2138 3097 
Q 1578 3097 1268 2742 
Q 959 2388 959 1747 
Q 959 1106 1268 751 
Q 1578 397 2138 397 
Q 2388 397 2633 464 
Q 2878 531 3122 666 
L 3122 134 
Q 2881 22 2623 -34 
Q 2366 -91 2075 -91 
Q 1284 -91 818 406 
Q 353 903 353 1747 
Q 353 2603 823 3093 
Q 1294 3584 2113 3584 
Q 2378 3584 2631 3529 
Q 2884 3475 3122 3366 
z
" transform="scale(0.015625)"/>
       <path id="DejaVuSans-68" d="M 3513 2113 
L 3513 0 
L 2938 0 
L 2938 2094 
Q 2938 2591 2744 2837 
Q 2550 3084 2163 3084 
Q 1697 3084 1428 2787 
Q 1159 2491 1159 1978 
L 1159 0 
L 581 0 
L 581 4863 
L 1159 4863 
L 1159 2956 
Q 1366 3272 1645 3428 
Q 1925 3584 2291 3584 
Q 2894 3584 3203 3211 
Q 3513 2838 3513 2113 
z
" transform="scale(0.015625)"/>
       <path id="DejaVuSans-73" d="M 2834 3397 
L 2834 2853 
Q 2591 2978 2328 3040 
Q 2066 3103 1784 3103 
Q 1356 3103 1142 2972 
Q 928 2841 928 2578 
Q 928 2378 1081 2264 
Q 1234 2150 1697 2047 
L 1894 2003 
Q 2506 1872 2764 1633 
Q 3022 1394 3022 966 
Q 3022 478 2636 193 
Q 2250 -91 1575 -91 
Q 1294 -91 989 -36 
Q 684 19 347 128 
L 347 722 
Q 666 556 975 473 
Q 1284 391 1588 391 
Q 1994 391 2212 530 
Q 2431 669 2431 922 
Q 2431 1156 2273 1281 
Q 2116 1406 1581 1522 
L 1381 1569 
Q 847 1681 609 1914 
Q 372 2147 372 2553 
Q 372 3047 722 3315 
Q 1072 3584 1716 3584 
Q 2034 3584 2315 3537 
Q 2597 3491 2834 3397 
z
" transform="scale(0.015625)"/>
      </defs>
      <use xlink:href="#DejaVuSans-45"/>
      <use xlink:href="#DejaVuSans-70" x="63.183594"/>
      <use xlink:href="#DejaVuSans-6f" x="126.660156"/>
      <use xlink:href="#DejaVuSans-63" x="187.841797"/>
      <use xlink:href="#DejaVuSans-68" x="242.822266"/>
      <use xlink:href="#DejaVuSans-73" x="306.201172"/>
     </g>
    </g>
   </g>
   <g id="matplotlib.axis_2">
    <g id="ytick_1">
     <g id="line2d_11">
      <defs>
       <path id="mf0e5ec6e43" d="M 0 0 
L -3.5 0 
" style="stroke: #000000; stroke-width: 0.8"/>
      </defs>
      <g>
       <use xlink:href="#mf0e5ec6e43" x="57.6" y="306.316044" style="stroke: #000000; stroke-width: 0.8"/>
      </g>
     </g>
     <g id="text_12">
      <!-- 0 -->
      <g transform="translate(44.2375 310.115263) scale(0.1 -0.1)">
       <use xlink:href="#DejaVuSans-30"/>
      </g>
     </g>
    </g>
    <g id="ytick_2">
     <g id="line2d_12">
      <g>
       <use xlink:href="#mf0e5ec6e43" x="57.6" y="271.182871" style="stroke: #000000; stroke-width: 0.8"/>
      </g>
     </g>
     <g id="text_13">
      <!-- 10 -->
      <g transform="translate(37.875 274.98209) scale(0.1 -0.1)">
       <use xlink:href="#DejaVuSans-31"/>
       <use xlink:href="#DejaVuSans-30" x="63.623047"/>
      </g>
     </g>
    </g>
    <g id="ytick_3">
     <g id="line2d_13">
      <g>
       <use xlink:href="#mf0e5ec6e43" x="57.6" y="236.049699" style="stroke: #000000; stroke-width: 0.8"/>
      </g>
     </g>
     <g id="text_14">
      <!-- 20 -->
      <g transform="translate(37.875 239.848917) scale(0.1 -0.1)">
       <use xlink:href="#DejaVuSans-32"/>
       <use xlink:href="#DejaVuSans-30" x="63.623047"/>
      </g>
     </g>
    </g>
    <g id="ytick_4">
     <g id="line2d_14">
      <g>
       <use xlink:href="#mf0e5ec6e43" x="57.6" y="200.916526" style="stroke: #000000; stroke-width: 0.8"/>
      </g>
     </g>
     <g id="text_15">
      <!-- 30 -->
      <g transform="translate(37.875 204.715745) scale(0.1 -0.1)">
       <use xlink:href="#DejaVuSans-33"/>
       <use xlink:href="#DejaVuSans-30" x="63.623047"/>
      </g>
     </g>
    </g>
    <g id="ytick_5">
     <g id="line2d_15">
      <g>
       <use xlink:href="#mf0e5ec6e43" x="57.6" y="165.783353" style="stroke: #000000; stroke-width: 0.8"/>
      </g>
     </g>
     <g id="text_16">
      <!-- 40 -->
      <g transform="translate(37.875 169.582572) scale(0.1 -0.1)">
       <use xlink:href="#DejaVuSans-34"/>
       <use xlink:href="#DejaVuSans-30" x="63.623047"/>
      </g>
     </g>
    </g>
    <g id="ytick_6">
     <g id="line2d_16">
      <g>
       <use xlink:href="#mf0e5ec6e43" x="57.6" y="130.650181" style="stroke: #000000; stroke-width: 0.8"/>
      </g>
     </g>
     <g id="text_17">
      <!-- 50 -->
      <g transform="translate(37.875 134.449399) scale(0.1 -0.1)">
       <defs>
        <path id="DejaVuSans-35" d="M 691 4666 
L 3169 4666 
L 3169 4134 
L 1269 4134 
L 1269 2991 
Q 1406 3038 1543 3061 
Q 1681 3084 1819 3084 
Q 2600 3084 3056 2656 
Q 3513 2228 3513 1497 
Q 3513 744 3044 326 
Q 2575 -91 1722 -91 
Q 1428 -91 1123 -41 
Q 819 9 494 109 
L 494 744 
Q 775 591 1075 516 
Q 1375 441 1709 441 
Q 2250 441 2565 725 
Q 2881 1009 2881 1497 
Q 2881 1984 2565 2268 
Q 2250 2553 1709 2553 
Q 1456 2553 1204 2497 
Q 953 2441 691 2322 
L 691 4666 
z
" transform="scale(0.015625)"/>
       </defs>
       <use xlink:href="#DejaVuSans-35"/>
       <use xlink:href="#DejaVuSans-30" x="63.623047"/>
      </g>
     </g>
    </g>
    <g id="ytick_7">
     <g id="line2d_17">
      <g>
       <use xlink:href="#mf0e5ec6e43" x="57.6" y="95.517008" style="stroke: #000000; stroke-width: 0.8"/>
      </g>
     </g>
     <g id="text_18">
      <!-- 60 -->
      <g transform="translate(37.875 99.316227) scale(0.1 -0.1)">
       <use xlink:href="#DejaVuSans-36"/>
       <use xlink:href="#DejaVuSans-30" x="63.623047"/>
      </g>
     </g>
    </g>
    <g id="ytick_8">
     <g id="line2d_18">
      <g>
       <use xlink:href="#mf0e5ec6e43" x="57.6" y="60.383835" style="stroke: #000000; stroke-width: 0.8"/>
      </g>
     </g>
     <g id="text_19">
      <!-- 70 -->
      <g transform="translate(37.875 64.183054) scale(0.1 -0.1)">
       <use xlink:href="#DejaVuSans-37"/>
       <use xlink:href="#DejaVuSans-30" x="63.623047"/>
      </g>
     </g>
    </g>
    <g id="text_20">
     <!-- Accuracy -->
     <g transform="translate(31.795312 197.356125) rotate(-90) scale(0.1 -0.1)">
      <defs>
       <path id="DejaVuSans-41" d="M 2188 4044 
L 1331 1722 
L 3047 1722 
L 2188 4044 
z
M 1831 4666 
L 2547 4666 
L 4325 0 
L 3669 0 
L 3244 1197 
L 1141 1197 
L 716 0 
L 50 0 
L 1831 4666 
z
" transform="scale(0.015625)"/>
       <path id="DejaVuSans-75" d="M 544 1381 
L 544 3500 
L 1119 3500 
L 1119 1403 
Q 1119 906 1312 657 
Q 1506 409 1894 409 
Q 2359 409 2629 706 
Q 2900 1003 2900 1516 
L 2900 3500 
L 3475 3500 
L 3475 0 
L 2900 0 
L 2900 538 
Q 2691 219 2414 64 
Q 2138 -91 1772 -91 
Q 1169 -91 856 284 
Q 544 659 544 1381 
z
M 1991 3584 
L 1991 3584 
z
" transform="scale(0.015625)"/>
       <path id="DejaVuSans-72" d="M 2631 2963 
Q 2534 3019 2420 3045 
Q 2306 3072 2169 3072 
Q 1681 3072 1420 2755 
Q 1159 2438 1159 1844 
L 1159 0 
L 581 0 
L 581 3500 
L 1159 3500 
L 1159 2956 
Q 1341 3275 1631 3429 
Q 1922 3584 2338 3584 
Q 2397 3584 2469 3576 
Q 2541 3569 2628 3553 
L 2631 2963 
z
" transform="scale(0.015625)"/>
       <path id="DejaVuSans-61" d="M 2194 1759 
Q 1497 1759 1228 1600 
Q 959 1441 959 1056 
Q 959 750 1161 570 
Q 1363 391 1709 391 
Q 2188 391 2477 730 
Q 2766 1069 2766 1631 
L 2766 1759 
L 2194 1759 
z
M 3341 1997 
L 3341 0 
L 2766 0 
L 2766 531 
Q 2569 213 2275 61 
Q 1981 -91 1556 -91 
Q 1019 -91 701 211 
Q 384 513 384 1019 
Q 384 1609 779 1909 
Q 1175 2209 1959 2209 
L 2766 2209 
L 2766 2266 
Q 2766 2663 2505 2880 
Q 2244 3097 1772 3097 
Q 1472 3097 1187 3025 
Q 903 2953 641 2809 
L 641 3341 
Q 956 3463 1253 3523 
Q 1550 3584 1831 3584 
Q 2591 3584 2966 3190 
Q 3341 2797 3341 1997 
z
" transform="scale(0.015625)"/>
       <path id="DejaVuSans-79" d="M 2059 -325 
Q 1816 -950 1584 -1140 
Q 1353 -1331 966 -1331 
L 506 -1331 
L 506 -850 
L 844 -850 
Q 1081 -850 1212 -737 
Q 1344 -625 1503 -206 
L 1606 56 
L 191 3500 
L 800 3500 
L 1894 763 
L 2988 3500 
L 3597 3500 
L 2059 -325 
z
" transform="scale(0.015625)"/>
      </defs>
      <use xlink:href="#DejaVuSans-41"/>
      <use xlink:href="#DejaVuSans-63" x="66.658203"/>
      <use xlink:href="#DejaVuSans-63" x="121.638672"/>
      <use xlink:href="#DejaVuSans-75" x="176.619141"/>
      <use xlink:href="#DejaVuSans-72" x="239.998047"/>
      <use xlink:href="#DejaVuSans-61" x="281.111328"/>
      <use xlink:href="#DejaVuSans-63" x="342.390625"/>
      <use xlink:href="#DejaVuSans-79" x="397.371094"/>
     </g>
    </g>
   </g>
   <g id="line2d_19">
    <path d="M 73.832727 295.488 
L 76.00433 257.249055 
L 77.090131 242.155844 
L 78.175932 229.644921 
L 79.261733 222.136962 
L 80.347534 213.546902 
L 82.519137 200.066303 
L 84.690739 189.118807 
L 85.77654 183.729378 
L 86.862341 180.39524 
L 87.948142 174.700153 
L 89.033943 171.780586 
L 90.119745 167.624332 
L 92.291347 162.255983 
L 93.377148 161.293334 
L 94.462949 159.905574 
L 95.54875 189.066107 
L 96.634552 188.739368 
L 99.891955 178.663174 
L 100.977756 176.899489 
L 104.23516 167.33624 
L 105.320961 166.689789 
L 106.406762 162.617854 
L 107.492563 160.836603 
L 108.578364 158.542406 
L 109.664165 156.553869 
L 110.749967 154.143733 
L 111.835768 152.035743 
L 112.921569 149.260222 
L 114.00737 147.763549 
L 115.093171 145.2972 
L 116.178972 143.674048 
L 117.264773 140.589355 
L 118.350575 139.363208 
L 119.436376 136.496341 
L 120.522177 134.725629 
L 121.607978 133.344895 
L 122.693779 130.509648 
L 123.77958 129.360793 
L 125.951183 124.171624 
L 128.122785 121.445289 
L 129.208586 120.70398 
L 130.294387 118.553829 
L 131.380189 118.413297 
L 132.46599 115.774795 
L 133.551791 115.008892 
L 135.723393 115.121318 
L 136.809194 114.7735 
L 137.894995 113.997057 
L 138.980797 148.722685 
L 140.066598 153.297024 
L 141.152399 152.72084 
L 142.2382 153.174058 
L 144.409802 151.772244 
L 145.495604 149.611554 
L 146.581405 149.983966 
L 147.667206 147.763549 
L 148.753007 147.243578 
L 149.838808 146.593614 
L 150.924609 146.098237 
L 152.01041 144.752636 
L 153.096212 143.765394 
L 154.182013 143.400009 
L 155.267814 142.514653 
L 157.439416 140.462876 
L 158.525217 139.686433 
L 159.611019 139.131329 
L 160.69682 137.466016 
L 161.782621 137.318457 
L 162.868422 135.821784 
L 163.954223 135.013721 
L 165.040024 134.799408 
L 166.125825 133.71028 
L 167.211627 134.307544 
L 168.297428 132.044968 
L 169.383229 132.220634 
L 171.554831 129.392413 
L 172.640632 128.145186 
L 173.726434 128.103026 
L 174.812235 126.012602 
L 175.898036 125.162379 
L 176.983837 124.547549 
L 178.069638 123.054389 
L 179.155439 120.517774 
L 180.24124 121.705275 
L 181.327042 119.966183 
L 182.412843 119.544585 
L 183.498644 118.153311 
L 185.670246 114.583781 
L 186.756047 114.439735 
L 187.841849 113.789771 
L 188.92765 112.142025 
L 190.013451 111.875013 
L 191.099252 110.248347 
L 192.185053 108.20711 
L 193.270854 107.184735 
L 194.356656 107.068795 
L 195.442457 105.424563 
L 196.528258 103.467645 
L 197.614059 102.30825 
L 198.69986 102.536616 
L 199.785661 100.604291 
L 200.871462 100.133507 
L 201.957264 98.840606 
L 203.043065 97.196374 
L 204.128866 96.318044 
L 205.214667 95.706727 
L 207.386269 92.990933 
L 208.472071 92.218003 
L 209.557872 90.963749 
L 210.643673 90.250546 
L 211.729474 90.478911 
L 212.815275 89.080611 
L 213.901076 87.935269 
L 214.986877 87.826357 
L 216.072679 86.27347 
L 218.244281 85.567294 
L 219.330082 85.173802 
L 220.415883 86.29455 
L 221.501684 84.527352 
L 222.587486 85.100022 
L 223.673287 85.128129 
L 224.759088 85.352981 
L 225.844889 134.282951 
L 226.93069 140.220457 
L 228.016491 141.000413 
L 229.102292 142.240614 
L 232.359696 139.292941 
L 233.445497 138.952149 
L 235.617099 137.455476 
L 236.702901 137.244677 
L 238.874503 137.434396 
L 239.960304 136.197709 
L 241.046105 135.312353 
L 242.131906 135.059394 
L 243.217708 135.249113 
L 244.303509 133.250035 
L 245.38931 133.780546 
L 246.475111 133.127069 
L 247.560912 132.308466 
L 248.646713 133.450295 
L 249.732514 132.2382 
L 250.818316 131.890382 
L 251.904117 131.036646 
L 252.989918 129.550512 
L 254.075719 130.885573 
L 255.16152 129.532946 
L 256.247321 129.374847 
L 257.333123 129.012975 
L 258.418924 128.387604 
L 259.504725 128.029246 
L 260.590526 128.018706 
L 261.676327 127.442522 
L 262.762128 127.140377 
L 263.847929 125.938822 
L 264.933731 126.146108 
L 267.105333 125.179946 
L 268.191134 125.59803 
L 269.276935 125.425878 
L 270.362736 123.746512 
L 271.448538 124.684568 
L 272.534339 123.781645 
L 273.62014 124.312156 
L 274.705941 123.939745 
L 275.791742 123.128168 
L 276.877543 121.280164 
L 279.049146 121.034231 
L 280.134947 121.378536 
L 281.220748 119.312706 
L 282.306549 119.295139 
L 283.39235 120.054016 
L 284.478151 118.536263 
L 285.563953 119.611338 
L 286.649754 117.77036 
L 288.821356 117.099316 
L 289.907157 116.740958 
L 290.992958 116.790144 
L 292.07876 114.966732 
L 293.164561 114.892953 
L 294.250362 115.511297 
L 295.336163 114.664587 
L 297.507765 113.712478 
L 298.593566 112.307151 
L 299.679368 112.890362 
L 300.765169 112.774422 
L 302.936771 111.218023 
L 304.022572 110.511846 
L 305.108373 109.373531 
L 306.194175 108.832481 
L 307.279976 109.489471 
L 308.365777 109.492984 
L 309.451578 108.435476 
L 310.537379 107.996311 
L 311.62318 106.987989 
L 312.708981 107.427154 
L 313.794783 105.442129 
L 314.880584 105.923454 
L 315.966385 103.776817 
L 317.052186 104.335434 
L 318.137987 103.17604 
L 319.223788 102.385543 
L 320.30959 102.027185 
L 323.566993 100.203773 
L 324.652794 100.129994 
L 325.738595 99.360577 
L 326.824396 98.900333 
L 327.910198 98.605214 
L 328.995999 97.424739 
L 330.0818 96.409391 
L 331.167601 96.458577 
L 332.253402 94.979471 
L 333.339203 94.540306 
L 334.425005 93.595224 
L 335.510806 92.358536 
L 336.596607 92.281243 
L 337.682408 93.208759 
L 338.768209 91.715599 
L 339.85401 91.058608 
L 340.939811 90.088933 
L 342.025613 88.883865 
L 343.111414 89.084124 
L 344.197215 88.247955 
L 345.283016 88.054722 
L 346.368817 87.208013 
L 347.454618 86.853168 
L 348.54042 85.043809 
L 349.626221 84.436005 
L 350.712022 85.187855 
L 351.797823 84.07062 
L 352.883624 83.223911 
L 353.969425 82.138296 
L 355.055227 80.360557 
L 357.226829 79.545468 
L 358.31263 79.475201 
L 359.398431 80.409744 
L 360.484232 77.859076 
L 361.570033 76.541582 
L 363.741636 76.829674 
L 364.827437 75.561366 
L 365.913238 75.649199 
L 366.999039 74.837623 
L 368.08484 74.978155 
L 369.170642 76.246463 
L 372.428045 81.544545 
L 373.513846 81.579679 
L 374.599647 83.645509 
L 375.685448 83.448763 
L 377.857051 83.431197 
L 378.942852 81.906417 
L 381.114454 83.185265 
L 382.200255 83.490923 
L 383.286057 83.670102 
L 384.371858 83.129051 
L 385.457659 82.935819 
L 386.54346 82.127756 
L 387.629261 84.172507 
L 388.715062 83.157158 
L 389.800863 83.736855 
L 390.886665 84.130347 
L 391.972466 82.876093 
L 394.144068 83.252018 
L 395.229869 83.884415 
L 397.401472 83.564703 
L 398.487273 83.715775 
L 398.487273 83.715775 
" clip-path="url(#pc115c240a6)" style="fill: none; stroke: #1f77b4; stroke-width: 1.5; stroke-linecap: square"/>
   </g>
   <g id="line2d_20">
    <path d="M 73.832727 281.968755 
L 74.918528 248.416575 
L 76.00433 237.419892 
L 77.090131 210.859214 
L 78.175932 197.930206 
L 79.261733 189.076647 
L 80.347534 178.958293 
L 81.433335 171.158729 
L 82.519137 168.06701 
L 83.604938 157.527058 
L 84.690739 155.138002 
L 85.77654 144.914249 
L 86.862341 140.663135 
L 87.948142 133.7419 
L 89.033943 129.525919 
L 90.119745 126.926064 
L 92.291347 122.569551 
L 93.377148 121.164224 
L 94.462949 120.145362 
L 95.54875 159.98638 
L 96.634552 152.924612 
L 98.806154 154.329939 
L 99.891955 144.984515 
L 100.977756 143.649455 
L 102.063557 140.698268 
L 103.149358 136.412021 
L 104.23516 136.060689 
L 105.320961 131.774442 
L 106.406762 128.401658 
L 107.492563 124.150544 
L 108.578364 122.991149 
L 109.664165 118.704902 
L 110.749967 121.23449 
L 111.835768 114.067323 
L 112.921569 112.767396 
L 114.00737 110.202674 
L 115.093171 109.675677 
L 116.178972 108.832481 
L 117.264773 102.859841 
L 118.350575 103.562505 
L 119.436376 101.349115 
L 120.522177 98.011463 
L 121.607978 96.500737 
L 122.693779 95.552141 
L 123.77958 92.600955 
L 124.865382 91.687492 
L 125.951183 87.330979 
L 127.036984 88.139042 
L 128.122785 87.01478 
L 129.208586 86.558049 
L 130.294387 85.152722 
L 131.380189 84.13386 
L 132.46599 82.306935 
L 133.551791 83.325797 
L 135.723393 81.674538 
L 136.809194 81.639405 
L 137.894995 81.25294 
L 138.980797 118.45897 
L 140.066598 122.077687 
L 141.152399 118.529236 
L 142.2382 119.091367 
L 143.324001 120.602093 
L 144.409802 120.145362 
L 145.495604 126.996331 
L 146.581405 116.561779 
L 147.667206 116.280713 
L 148.753007 113.048461 
L 149.838808 112.556597 
L 150.924609 115.999648 
L 152.01041 118.107638 
L 153.096212 111.8188 
L 155.267814 111.643134 
L 156.353615 109.008146 
L 157.439416 113.715992 
L 158.525217 104.757033 
L 159.611019 106.935289 
L 160.69682 103.84357 
L 161.782621 105.178631 
L 162.868422 102.719308 
L 163.954223 99.803255 
L 165.040024 97.660132 
L 166.125825 101.700446 
L 167.211627 97.835797 
L 168.297428 98.503328 
L 169.383229 101.595047 
L 170.46903 98.995192 
L 171.554831 93.795483 
L 172.640632 94.779211 
L 174.812235 94.884611 
L 175.898036 90.598364 
L 176.983837 92.846887 
L 178.069638 90.77403 
L 179.155439 91.336161 
L 180.24124 86.206717 
L 181.327042 86.803981 
L 182.412843 86.101318 
L 183.498644 86.663449 
L 184.584445 88.174175 
L 185.670246 81.779938 
L 186.756047 81.498872 
L 187.841849 82.377202 
L 188.92765 79.14495 
L 190.013451 79.03955 
L 191.099252 77.528824 
L 192.185053 79.074683 
L 193.270854 75.561366 
L 194.356656 73.593908 
L 195.442457 75.3857 
L 196.528258 73.312843 
L 197.614059 72.188581 
L 198.69986 70.677855 
L 199.785661 70.361657 
L 200.871462 70.326523 
L 201.957264 68.640131 
L 203.043065 67.51587 
L 205.214667 67.761802 
L 206.300468 67.129405 
L 207.386269 65.794344 
L 208.472071 64.810615 
L 209.557872 64.705216 
L 211.729474 61.508097 
L 212.815275 61.718896 
L 213.901076 61.297298 
L 214.986877 61.297298 
L 216.072679 60.910833 
L 218.244281 60.489235 
L 219.330082 60.910833 
L 220.415883 60.278436 
L 221.501684 60.664901 
L 223.673287 60.067637 
L 224.759088 60.664901 
L 225.844889 115.261851 
L 226.93069 120.180495 
L 228.016491 109.218945 
L 229.102292 113.505192 
L 230.188094 114.80512 
L 231.273895 110.48374 
L 232.359696 107.532553 
L 233.445497 107.356887 
L 234.531298 108.059551 
L 235.617099 106.197493 
L 236.702901 108.129817 
L 237.788702 110.940471 
L 238.874503 108.235217 
L 241.046105 103.84357 
L 242.131906 104.581367 
L 243.217708 106.513691 
L 244.303509 106.900156 
L 245.38931 102.473376 
L 246.475111 102.719308 
L 247.560912 102.613909 
L 248.646713 106.338025 
L 249.732514 99.697856 
L 250.818316 99.030325 
L 251.904117 97.238534 
L 252.989918 101.805846 
L 254.075719 103.316572 
L 255.16152 96.711536 
L 256.247321 96.852069 
L 257.333123 101.173449 
L 258.418924 95.833207 
L 259.504725 104.5111 
L 260.590526 95.20081 
L 261.676327 95.692674 
L 262.762128 101.243715 
L 263.847929 93.268485 
L 264.933731 92.671221 
L 266.019532 95.025144 
L 267.105333 93.760349 
L 268.191134 96.430471 
L 269.276935 94.673812 
L 270.362736 94.533279 
L 271.448538 91.511826 
L 272.534339 92.425289 
L 273.62014 94.884611 
L 274.705941 90.282165 
L 275.791742 91.090228 
L 276.877543 90.282165 
L 277.963344 90.949696 
L 279.049146 93.092819 
L 280.134947 89.22817 
L 281.220748 88.174175 
L 282.306549 90.949696 
L 283.39235 86.909381 
L 284.478151 86.663449 
L 285.563953 87.471512 
L 286.649754 86.45265 
L 287.735555 84.379792 
L 288.821356 83.782528 
L 289.907157 89.8957 
L 290.992958 88.349841 
L 292.07876 87.260713 
L 293.164561 87.436378 
L 294.250362 85.152722 
L 295.336163 85.012189 
L 296.421964 83.325797 
L 297.507765 82.6934 
L 298.593566 78.688218 
L 299.679368 82.061003 
L 300.765169 82.552867 
L 301.85097 80.550277 
L 302.936771 82.061003 
L 304.022572 80.655676 
L 305.108373 80.831342 
L 306.194175 79.390882 
L 307.279976 79.81248 
L 308.365777 79.215216 
L 309.451578 80.198945 
L 310.537379 76.93156 
L 311.62318 76.861293 
L 312.708981 78.547686 
L 313.794783 74.366838 
L 314.880584 75.912698 
L 315.966385 75.982964 
L 317.052186 73.629042 
L 318.137987 74.401971 
L 319.223788 74.542504 
L 321.395391 73.453376 
L 322.481192 74.015506 
L 323.566993 70.326523 
L 324.652794 70.677855 
L 327.910198 70.185991 
L 328.995999 69.131995 
L 330.0818 71.696717 
L 331.167601 69.167129 
L 332.253402 68.078 
L 333.339203 69.131995 
L 334.425005 67.199671 
L 335.510806 67.972601 
L 336.596607 66.286208 
L 337.682408 65.443012 
L 338.768209 65.091681 
L 339.85401 63.932286 
L 340.939811 63.75662 
L 342.025613 63.124223 
L 343.111414 62.702625 
L 344.197215 61.121632 
L 345.283016 60.981099 
L 346.368817 59.43524 
L 347.454618 60.840567 
L 348.54042 61.262165 
L 349.626221 59.751438 
L 350.712022 59.751438 
L 351.797823 59.575773 
L 352.883624 59.927104 
L 353.969425 57.011051 
L 355.055227 59.43524 
L 356.141028 58.029913 
L 357.226829 58.275845 
L 358.31263 55.67599 
L 360.484232 55.816523 
L 361.570033 54.797661 
L 362.655835 55.00846 
L 363.741636 54.938194 
L 364.827437 53.778799 
L 365.913238 53.568 
L 366.999039 54.270663 
L 368.08484 55.430058 
L 369.170642 55.078726 
L 370.256443 56.870518 
L 371.342244 59.154174 
L 372.428045 60.137903 
L 373.513846 61.297298 
L 374.599647 61.683763 
L 375.685448 61.54323 
L 376.77125 61.789162 
L 377.857051 59.997371 
L 378.942852 61.332431 
L 380.028653 61.297298 
L 381.114454 60.383835 
L 382.200255 62.421559 
L 383.286057 60.559501 
L 384.371858 61.929695 
L 385.457659 61.999961 
L 386.54346 62.702625 
L 387.629261 64.072819 
L 388.715062 61.859429 
L 389.800863 61.894562 
L 390.886665 62.597225 
L 391.972466 61.613497 
L 393.058267 61.508097 
L 394.144068 61.613497 
L 396.31567 62.456693 
L 397.401472 62.526959 
L 398.487273 60.910833 
L 398.487273 60.910833 
" clip-path="url(#pc115c240a6)" style="fill: none; stroke: #ff7f0e; stroke-width: 1.5; stroke-linecap: square"/>
   </g>
   <g id="line2d_21">
    <path d="M 73.832727 290.760529 
L 74.918528 274.744648 
L 76.00433 264.83467 
L 77.090131 250.636023 
L 78.175932 249.351845 
L 79.261733 246.783489 
L 80.347534 231.809488 
L 81.433335 226.745465 
L 82.519137 237.866932 
L 83.604938 222.359876 
L 84.690739 223.01408 
L 85.77654 219.79152 
L 86.862341 211.383788 
L 89.033943 206.489374 
L 90.119745 206.271306 
L 91.205546 202.200704 
L 92.291347 201.401121 
L 93.377148 201.716109 
L 94.462949 200.43193 
L 95.54875 231.882177 
L 96.634552 222.384106 
L 97.720353 222.699093 
L 98.806154 218.483112 
L 99.891955 226.067032 
L 100.977756 214.751727 
L 102.063557 211.16572 
L 103.149358 213.782536 
L 104.23516 204.308694 
L 105.320961 209.615015 
L 106.406762 211.723005 
L 107.492563 203.65449 
L 108.578364 199.317361 
L 109.664165 207.192037 
L 110.749967 202.927597 
L 111.835768 195.513286 
L 112.921569 197.28206 
L 114.00737 193.187228 
L 115.093171 191.103467 
L 116.178972 190.206966 
L 117.264773 188.389733 
L 118.350575 192.072658 
L 119.436376 188.971247 
L 120.522177 189.79506 
L 121.607978 182.380749 
L 122.693779 179.788163 
L 123.77958 180.10315 
L 124.865382 181.532707 
L 127.036984 174.651451 
L 128.122785 173.997247 
L 129.208586 173.488422 
L 130.294387 173.318813 
L 131.380189 173.60957 
L 132.46599 173.391502 
L 133.551791 171.646959 
L 134.637592 171.646959 
L 135.723393 171.307742 
L 136.809194 169.902415 
L 137.894995 170.4597 
L 138.980797 200.359241 
L 140.066598 207.410105 
L 142.2382 197.912034 
L 143.324001 205.011358 
L 144.409802 205.277885 
L 145.495604 209.711934 
L 146.581405 196.700545 
L 147.667206 194.883312 
L 148.753007 196.312869 
L 149.838808 199.244672 
L 150.924609 197.887804 
L 152.01041 204.575222 
L 153.096212 195.537516 
L 154.182013 195.513286 
L 155.267814 200.068484 
L 156.353615 189.407383 
L 157.439416 197.378979 
L 158.525217 190.279655 
L 159.611019 186.935946 
L 161.782621 188.195894 
L 162.868422 182.889574 
L 163.954223 185.772917 
L 165.040024 182.889574 
L 166.125825 184.731037 
L 167.211627 184.537199 
L 168.297428 185.191402 
L 169.383229 189.092396 
L 170.46903 184.125292 
L 171.554831 184.464509 
L 172.640632 181.532707 
L 173.726434 180.05469 
L 174.812235 175.329884 
L 175.898036 182.138451 
L 176.983837 184.270671 
L 178.069638 179.618554 
L 179.155439 176.541373 
L 180.24124 172.809988 
L 181.327042 172.083095 
L 182.412843 169.829726 
L 183.498644 172.906907 
L 184.584445 172.979596 
L 185.670246 169.030143 
L 186.756047 165.928732 
L 187.841849 168.836305 
L 188.92765 165.880272 
L 190.013451 168.085182 
L 191.099252 167.867114 
L 192.185053 169.514739 
L 194.356656 161.470454 
L 195.442457 162.342725 
L 196.528258 163.457295 
L 197.614059 162.124657 
L 198.69986 158.247894 
L 199.785661 158.465962 
L 200.871462 160.913169 
L 201.957264 156.794107 
L 203.043065 154.492279 
L 204.128866 154.879955 
L 205.214667 156.697188 
L 206.300468 154.29844 
L 207.386269 154.080372 
L 208.472071 152.16622 
L 210.643673 150.857812 
L 212.815275 148.095618 
L 213.901076 148.362146 
L 214.986877 150.00977 
L 216.072679 148.362146 
L 217.15848 148.289456 
L 218.244281 148.96789 
L 219.330082 149.355566 
L 220.415883 148.555984 
L 221.501684 148.604443 
L 222.587486 147.998699 
L 223.673287 148.846741 
L 224.759088 148.144078 
L 225.844889 192.557254 
L 226.93069 197.887804 
L 228.016491 196.070571 
L 229.102292 198.154332 
L 230.188094 195.392137 
L 231.273895 198.275481 
L 232.359696 187.202474 
L 233.445497 185.50639 
L 234.531298 186.49981 
L 235.617099 186.887487 
L 236.702901 201.5465 
L 237.788702 197.112451 
L 238.874503 193.405296 
L 239.960304 183.422629 
L 241.046105 194.641014 
L 242.131906 198.469319 
L 243.217708 195.634435 
L 244.303509 197.403209 
L 245.38931 184.512969 
L 246.475111 177.486334 
L 247.560912 192.823781 
L 248.646713 198.227021 
L 249.732514 177.583253 
L 250.818316 180.030461 
L 251.904117 184.706807 
L 252.989918 186.54827 
L 254.075719 187.129784 
L 255.16152 180.878503 
L 256.247321 183.156101 
L 257.333123 186.112134 
L 258.418924 176.202156 
L 259.504725 192.775322 
L 260.590526 181.775004 
L 261.676327 183.422629 
L 262.762128 187.56592 
L 263.847929 179.448946 
L 264.933731 183.32571 
L 267.105333 173.294583 
L 268.191134 178.188998 
L 269.276935 179.497406 
L 270.362736 179.352027 
L 271.448538 175.281425 
L 272.534339 180.248529 
L 273.62014 177.583253 
L 274.705941 172.713069 
L 275.791742 173.367273 
L 276.877543 173.270354 
L 277.963344 175.063357 
L 279.049146 180.224299 
L 280.134947 178.794742 
L 281.220748 170.871606 
L 282.306549 178.116308 
L 283.39235 173.779179 
L 284.478151 178.794742 
L 285.563953 175.76602 
L 286.649754 171.865027 
L 287.735555 167.358289 
L 288.821356 173.464192 
L 289.907157 178.140538 
L 290.992958 179.691244 
L 292.07876 172.058865 
L 293.164561 172.54346 
L 294.250362 168.594007 
L 295.336163 163.529984 
L 296.421964 172.713069 
L 297.507765 168.060952 
L 298.593566 167.382518 
L 299.679368 162.245806 
L 300.765169 161.906589 
L 301.85097 171.041214 
L 302.936771 168.908994 
L 304.022572 175.499493 
L 305.108373 166.558706 
L 306.194175 171.55004 
L 307.279976 167.479438 
L 308.365777 161.664292 
L 309.451578 168.690926 
L 310.537379 164.256878 
L 311.62318 170.823146 
L 312.708981 168.30325 
L 313.794783 162.730402 
L 314.880584 163.675363 
L 315.966385 168.351709 
L 317.052186 160.937398 
L 318.137987 164.135729 
L 319.223788 162.148887 
L 320.30959 161.325075 
L 321.395391 160.162046 
L 322.481192 165.10492 
L 323.566993 161.470454 
L 324.652794 155.800686 
L 325.738595 160.016667 
L 326.824396 159.362463 
L 327.910198 160.234735 
L 328.995999 157.835987 
L 330.0818 156.963716 
L 331.167601 159.168625 
L 332.253402 152.117761 
L 333.339203 157.109094 
L 334.425005 153.813845 
L 335.510806 155.534159 
L 336.596607 154.807266 
L 337.682408 158.63557 
L 338.768209 154.492279 
L 339.85401 151.14857 
L 340.939811 150.857812 
L 342.025613 149.646324 
L 343.111414 150.930502 
L 344.197215 152.602356 
L 345.283016 146.593372 
L 346.368817 151.512016 
L 347.454618 148.434835 
L 348.54042 148.386375 
L 349.626221 145.260735 
L 350.712022 149.646324 
L 351.797823 148.386375 
L 352.883624 144.291544 
L 353.969425 145.115356 
L 355.055227 146.569142 
L 356.141028 144.67922 
L 357.226829 145.066896 
L 358.31263 147.392955 
L 359.398431 143.395042 
L 360.484232 140.899375 
L 361.570033 144.461152 
L 362.655835 146.8599 
L 363.741636 144.194625 
L 364.827437 142.038175 
L 365.913238 142.256243 
L 366.999039 140.778226 
L 368.08484 144.267314 
L 369.170642 144.000786 
L 370.256443 145.381883 
L 371.342244 149.937081 
L 372.428045 149.525175 
L 373.513846 149.912851 
L 374.599647 148.99212 
L 375.685448 151.657395 
L 376.77125 151.584706 
L 377.857051 151.827003 
L 378.942852 150.470136 
L 380.028653 147.586793 
L 381.114454 150.324757 
L 382.200255 153.692696 
L 383.286057 148.119848 
L 384.371858 152.21468 
L 385.457659 146.690291 
L 387.629261 157.521 
L 388.715062 151.899693 
L 389.800863 149.622094 
L 390.886665 149.597864 
L 391.972466 152.16622 
L 393.058267 151.827003 
L 394.144068 149.234418 
L 395.229869 151.487787 
L 396.31567 147.756401 
L 397.401472 151.12434 
L 398.487273 150.252068 
L 398.487273 150.252068 
" clip-path="url(#pc115c240a6)" style="fill: none; stroke: #2ca02c; stroke-width: 1.5; stroke-linecap: square"/>
   </g>
   <g id="line2d_22">
    <path d="M 368.08484 55.605724 
L 369.170642 55.992189 
L 370.256443 56.132722 
L 371.342244 60.348702 
L 372.428045 60.945966 
L 373.513846 63.616087 
L 374.599647 66.848339 
L 375.685448 67.164538 
L 376.77125 72.083182 
L 377.857051 78.723352 
L 378.942852 81.779938 
L 380.028653 88.209308 
L 381.114454 95.657541 
L 382.200255 95.060277 
L 383.286057 98.397928 
L 384.371858 99.205991 
L 385.457659 99.065459 
L 386.54346 111.537735 
L 387.629261 116.456379 
L 388.715062 128.928655 
L 389.800863 144.984515 
L 390.886665 129.490786 
L 391.972466 128.507057 
L 393.058267 133.109503 
L 394.144068 136.763353 
L 395.229869 145.546646 
L 396.31567 148.708631 
L 397.401472 168.804806 
L 398.487273 180.890618 
L 398.487273 180.890618 
" clip-path="url(#pc115c240a6)" style="fill: none; stroke: #d62728; stroke-width: 1.5; stroke-linecap: square"/>
   </g>
   <g id="line2d_23">
    <path d="M 368.08484 144.364233 
L 369.170642 144.340003 
L 370.256443 143.516191 
L 371.342244 146.520683 
L 372.428045 152.19045 
L 373.513846 154.3469 
L 374.599647 153.377709 
L 375.685448 160.162046 
L 376.77125 165.347217 
L 377.857051 167.721735 
L 378.942852 176.492914 
L 380.028653 177.316726 
L 381.114454 182.501898 
L 382.200255 184.537199 
L 384.371858 190.740021 
L 385.457659 186.54827 
L 386.54346 197.136681 
L 387.629261 201.183053 
L 389.800863 221.729902 
L 390.886665 215.575539 
L 391.972466 210.947652 
L 393.058267 210.632665 
L 394.144068 211.650316 
L 395.229869 220.300345 
L 396.31567 223.086769 
L 397.401472 230.137634 
L 398.487273 245.54777 
L 398.487273 245.54777 
" clip-path="url(#pc115c240a6)" style="fill: none; stroke: #9467bd; stroke-width: 1.5; stroke-linecap: square"/>
   </g>
   <g id="patch_3">
    <path d="M 57.6 307.584 
L 57.6 41.472 
" style="fill: none; stroke: #000000; stroke-width: 0.8; stroke-linejoin: miter; stroke-linecap: square"/>
   </g>
   <g id="patch_4">
    <path d="M 414.72 307.584 
L 414.72 41.472 
" style="fill: none; stroke: #000000; stroke-width: 0.8; stroke-linejoin: miter; stroke-linecap: square"/>
   </g>
   <g id="patch_5">
    <path d="M 57.6 307.584 
L 414.72 307.584 
" style="fill: none; stroke: #000000; stroke-width: 0.8; stroke-linejoin: miter; stroke-linecap: square"/>
   </g>
   <g id="patch_6">
    <path d="M 57.6 41.472 
L 414.72 41.472 
" style="fill: none; stroke: #000000; stroke-width: 0.8; stroke-linejoin: miter; stroke-linecap: square"/>
   </g>
   <g id="text_21">
    <!-- Learning Curves -->
    <g transform="translate(187.37625 35.472) scale(0.12 -0.12)">
     <defs>
      <path id="DejaVuSans-4c" d="M 628 4666 
L 1259 4666 
L 1259 531 
L 3531 531 
L 3531 0 
L 628 0 
L 628 4666 
z
" transform="scale(0.015625)"/>
      <path id="DejaVuSans-65" d="M 3597 1894 
L 3597 1613 
L 953 1613 
Q 991 1019 1311 708 
Q 1631 397 2203 397 
Q 2534 397 2845 478 
Q 3156 559 3463 722 
L 3463 178 
Q 3153 47 2828 -22 
Q 2503 -91 2169 -91 
Q 1331 -91 842 396 
Q 353 884 353 1716 
Q 353 2575 817 3079 
Q 1281 3584 2069 3584 
Q 2775 3584 3186 3129 
Q 3597 2675 3597 1894 
z
M 3022 2063 
Q 3016 2534 2758 2815 
Q 2500 3097 2075 3097 
Q 1594 3097 1305 2825 
Q 1016 2553 972 2059 
L 3022 2063 
z
" transform="scale(0.015625)"/>
      <path id="DejaVuSans-6e" d="M 3513 2113 
L 3513 0 
L 2938 0 
L 2938 2094 
Q 2938 2591 2744 2837 
Q 2550 3084 2163 3084 
Q 1697 3084 1428 2787 
Q 1159 2491 1159 1978 
L 1159 0 
L 581 0 
L 581 3500 
L 1159 3500 
L 1159 2956 
Q 1366 3272 1645 3428 
Q 1925 3584 2291 3584 
Q 2894 3584 3203 3211 
Q 3513 2838 3513 2113 
z
" transform="scale(0.015625)"/>
      <path id="DejaVuSans-69" d="M 603 3500 
L 1178 3500 
L 1178 0 
L 603 0 
L 603 3500 
z
M 603 4863 
L 1178 4863 
L 1178 4134 
L 603 4134 
L 603 4863 
z
" transform="scale(0.015625)"/>
      <path id="DejaVuSans-67" d="M 2906 1791 
Q 2906 2416 2648 2759 
Q 2391 3103 1925 3103 
Q 1463 3103 1205 2759 
Q 947 2416 947 1791 
Q 947 1169 1205 825 
Q 1463 481 1925 481 
Q 2391 481 2648 825 
Q 2906 1169 2906 1791 
z
M 3481 434 
Q 3481 -459 3084 -895 
Q 2688 -1331 1869 -1331 
Q 1566 -1331 1297 -1286 
Q 1028 -1241 775 -1147 
L 775 -588 
Q 1028 -725 1275 -790 
Q 1522 -856 1778 -856 
Q 2344 -856 2625 -561 
Q 2906 -266 2906 331 
L 2906 616 
Q 2728 306 2450 153 
Q 2172 0 1784 0 
Q 1141 0 747 490 
Q 353 981 353 1791 
Q 353 2603 747 3093 
Q 1141 3584 1784 3584 
Q 2172 3584 2450 3431 
Q 2728 3278 2906 2969 
L 2906 3500 
L 3481 3500 
L 3481 434 
z
" transform="scale(0.015625)"/>
      <path id="DejaVuSans-20" transform="scale(0.015625)"/>
      <path id="DejaVuSans-43" d="M 4122 4306 
L 4122 3641 
Q 3803 3938 3442 4084 
Q 3081 4231 2675 4231 
Q 1875 4231 1450 3742 
Q 1025 3253 1025 2328 
Q 1025 1406 1450 917 
Q 1875 428 2675 428 
Q 3081 428 3442 575 
Q 3803 722 4122 1019 
L 4122 359 
Q 3791 134 3420 21 
Q 3050 -91 2638 -91 
Q 1578 -91 968 557 
Q 359 1206 359 2328 
Q 359 3453 968 4101 
Q 1578 4750 2638 4750 
Q 3056 4750 3426 4639 
Q 3797 4528 4122 4306 
z
" transform="scale(0.015625)"/>
      <path id="DejaVuSans-76" d="M 191 3500 
L 800 3500 
L 1894 563 
L 2988 3500 
L 3597 3500 
L 2284 0 
L 1503 0 
L 191 3500 
z
" transform="scale(0.015625)"/>
     </defs>
     <use xlink:href="#DejaVuSans-4c"/>
     <use xlink:href="#DejaVuSans-65" x="53.962891"/>
     <use xlink:href="#DejaVuSans-61" x="115.486328"/>
     <use xlink:href="#DejaVuSans-72" x="176.765625"/>
     <use xlink:href="#DejaVuSans-6e" x="216.128906"/>
     <use xlink:href="#DejaVuSans-69" x="279.507812"/>
     <use xlink:href="#DejaVuSans-6e" x="307.291016"/>
     <use xlink:href="#DejaVuSans-67" x="370.669922"/>
     <use xlink:href="#DejaVuSans-20" x="434.146484"/>
     <use xlink:href="#DejaVuSans-43" x="465.933594"/>
     <use xlink:href="#DejaVuSans-75" x="535.757812"/>
     <use xlink:href="#DejaVuSans-72" x="599.136719"/>
     <use xlink:href="#DejaVuSans-76" x="640.25"/>
     <use xlink:href="#DejaVuSans-65" x="699.429688"/>
     <use xlink:href="#DejaVuSans-73" x="760.953125"/>
    </g>
   </g>
   <g id="legend_1">
    <g id="patch_7">
     <path d="M 139.394375 302.584 
L 332.925625 302.584 
Q 334.925625 302.584 334.925625 300.584 
L 334.925625 228.193375 
Q 334.925625 226.193375 332.925625 226.193375 
L 139.394375 226.193375 
Q 137.394375 226.193375 137.394375 228.193375 
L 137.394375 300.584 
Q 137.394375 302.584 139.394375 302.584 
z
" style="fill: #ffffff; opacity: 0.8; stroke: #cccccc; stroke-linejoin: miter"/>
    </g>
    <g id="line2d_24">
     <path d="M 141.394375 234.291812 
L 151.394375 234.291812 
L 161.394375 234.291812 
" style="fill: none; stroke: #1f77b4; stroke-width: 1.5; stroke-linecap: square"/>
    </g>
    <g id="text_22">
     <!-- Train Accuracy -->
     <g transform="translate(169.394375 237.791812) scale(0.1 -0.1)">
      <defs>
       <path id="DejaVuSans-54" d="M -19 4666 
L 3928 4666 
L 3928 4134 
L 2272 4134 
L 2272 0 
L 1638 0 
L 1638 4134 
L -19 4134 
L -19 4666 
z
" transform="scale(0.015625)"/>
      </defs>
      <use xlink:href="#DejaVuSans-54"/>
      <use xlink:href="#DejaVuSans-72" x="46.333984"/>
      <use xlink:href="#DejaVuSans-61" x="87.447266"/>
      <use xlink:href="#DejaVuSans-69" x="148.726562"/>
      <use xlink:href="#DejaVuSans-6e" x="176.509766"/>
      <use xlink:href="#DejaVuSans-20" x="239.888672"/>
      <use xlink:href="#DejaVuSans-41" x="271.675781"/>
      <use xlink:href="#DejaVuSans-63" x="338.333984"/>
      <use xlink:href="#DejaVuSans-63" x="393.314453"/>
      <use xlink:href="#DejaVuSans-75" x="448.294922"/>
      <use xlink:href="#DejaVuSans-72" x="511.673828"/>
      <use xlink:href="#DejaVuSans-61" x="552.787109"/>
      <use xlink:href="#DejaVuSans-63" x="614.066406"/>
      <use xlink:href="#DejaVuSans-79" x="669.046875"/>
     </g>
    </g>
    <g id="line2d_25">
     <path d="M 141.394375 248.969937 
L 151.394375 248.969937 
L 161.394375 248.969937 
" style="fill: none; stroke: #ff7f0e; stroke-width: 1.5; stroke-linecap: square"/>
    </g>
    <g id="text_23">
     <!-- Validation Accuracy -->
     <g transform="translate(169.394375 252.469937) scale(0.1 -0.1)">
      <defs>
       <path id="DejaVuSans-56" d="M 1831 0 
L 50 4666 
L 709 4666 
L 2188 738 
L 3669 4666 
L 4325 4666 
L 2547 0 
L 1831 0 
z
" transform="scale(0.015625)"/>
       <path id="DejaVuSans-6c" d="M 603 4863 
L 1178 4863 
L 1178 0 
L 603 0 
L 603 4863 
z
" transform="scale(0.015625)"/>
       <path id="DejaVuSans-64" d="M 2906 2969 
L 2906 4863 
L 3481 4863 
L 3481 0 
L 2906 0 
L 2906 525 
Q 2725 213 2448 61 
Q 2172 -91 1784 -91 
Q 1150 -91 751 415 
Q 353 922 353 1747 
Q 353 2572 751 3078 
Q 1150 3584 1784 3584 
Q 2172 3584 2448 3432 
Q 2725 3281 2906 2969 
z
M 947 1747 
Q 947 1113 1208 752 
Q 1469 391 1925 391 
Q 2381 391 2643 752 
Q 2906 1113 2906 1747 
Q 2906 2381 2643 2742 
Q 2381 3103 1925 3103 
Q 1469 3103 1208 2742 
Q 947 2381 947 1747 
z
" transform="scale(0.015625)"/>
       <path id="DejaVuSans-74" d="M 1172 4494 
L 1172 3500 
L 2356 3500 
L 2356 3053 
L 1172 3053 
L 1172 1153 
Q 1172 725 1289 603 
Q 1406 481 1766 481 
L 2356 481 
L 2356 0 
L 1766 0 
Q 1100 0 847 248 
Q 594 497 594 1153 
L 594 3053 
L 172 3053 
L 172 3500 
L 594 3500 
L 594 4494 
L 1172 4494 
z
" transform="scale(0.015625)"/>
      </defs>
      <use xlink:href="#DejaVuSans-56"/>
      <use xlink:href="#DejaVuSans-61" x="60.658203"/>
      <use xlink:href="#DejaVuSans-6c" x="121.9375"/>
      <use xlink:href="#DejaVuSans-69" x="149.720703"/>
      <use xlink:href="#DejaVuSans-64" x="177.503906"/>
      <use xlink:href="#DejaVuSans-61" x="240.980469"/>
      <use xlink:href="#DejaVuSans-74" x="302.259766"/>
      <use xlink:href="#DejaVuSans-69" x="341.46875"/>
      <use xlink:href="#DejaVuSans-6f" x="369.251953"/>
      <use xlink:href="#DejaVuSans-6e" x="430.433594"/>
      <use xlink:href="#DejaVuSans-20" x="493.8125"/>
      <use xlink:href="#DejaVuSans-41" x="525.599609"/>
      <use xlink:href="#DejaVuSans-63" x="592.257812"/>
      <use xlink:href="#DejaVuSans-63" x="647.238281"/>
      <use xlink:href="#DejaVuSans-75" x="702.21875"/>
      <use xlink:href="#DejaVuSans-72" x="765.597656"/>
      <use xlink:href="#DejaVuSans-61" x="806.710938"/>
      <use xlink:href="#DejaVuSans-63" x="867.990234"/>
      <use xlink:href="#DejaVuSans-79" x="922.970703"/>
     </g>
    </g>
    <g id="line2d_26">
     <path d="M 141.394375 263.648062 
L 151.394375 263.648062 
L 161.394375 263.648062 
" style="fill: none; stroke: #2ca02c; stroke-width: 1.5; stroke-linecap: square"/>
    </g>
    <g id="text_24">
     <!-- Robust Validation Accuracy -->
     <g transform="translate(169.394375 267.148062) scale(0.1 -0.1)">
      <defs>
       <path id="DejaVuSans-52" d="M 2841 2188 
Q 3044 2119 3236 1894 
Q 3428 1669 3622 1275 
L 4263 0 
L 3584 0 
L 2988 1197 
Q 2756 1666 2539 1819 
Q 2322 1972 1947 1972 
L 1259 1972 
L 1259 0 
L 628 0 
L 628 4666 
L 2053 4666 
Q 2853 4666 3247 4331 
Q 3641 3997 3641 3322 
Q 3641 2881 3436 2590 
Q 3231 2300 2841 2188 
z
M 1259 4147 
L 1259 2491 
L 2053 2491 
Q 2509 2491 2742 2702 
Q 2975 2913 2975 3322 
Q 2975 3731 2742 3939 
Q 2509 4147 2053 4147 
L 1259 4147 
z
" transform="scale(0.015625)"/>
       <path id="DejaVuSans-62" d="M 3116 1747 
Q 3116 2381 2855 2742 
Q 2594 3103 2138 3103 
Q 1681 3103 1420 2742 
Q 1159 2381 1159 1747 
Q 1159 1113 1420 752 
Q 1681 391 2138 391 
Q 2594 391 2855 752 
Q 3116 1113 3116 1747 
z
M 1159 2969 
Q 1341 3281 1617 3432 
Q 1894 3584 2278 3584 
Q 2916 3584 3314 3078 
Q 3713 2572 3713 1747 
Q 3713 922 3314 415 
Q 2916 -91 2278 -91 
Q 1894 -91 1617 61 
Q 1341 213 1159 525 
L 1159 0 
L 581 0 
L 581 4863 
L 1159 4863 
L 1159 2969 
z
" transform="scale(0.015625)"/>
      </defs>
      <use xlink:href="#DejaVuSans-52"/>
      <use xlink:href="#DejaVuSans-6f" x="64.982422"/>
      <use xlink:href="#DejaVuSans-62" x="126.164062"/>
      <use xlink:href="#DejaVuSans-75" x="189.640625"/>
      <use xlink:href="#DejaVuSans-73" x="253.019531"/>
      <use xlink:href="#DejaVuSans-74" x="305.119141"/>
      <use xlink:href="#DejaVuSans-20" x="344.328125"/>
      <use xlink:href="#DejaVuSans-56" x="376.115234"/>
      <use xlink:href="#DejaVuSans-61" x="436.773438"/>
      <use xlink:href="#DejaVuSans-6c" x="498.052734"/>
      <use xlink:href="#DejaVuSans-69" x="525.835938"/>
      <use xlink:href="#DejaVuSans-64" x="553.619141"/>
      <use xlink:href="#DejaVuSans-61" x="617.095703"/>
      <use xlink:href="#DejaVuSans-74" x="678.375"/>
      <use xlink:href="#DejaVuSans-69" x="717.583984"/>
      <use xlink:href="#DejaVuSans-6f" x="745.367188"/>
      <use xlink:href="#DejaVuSans-6e" x="806.548828"/>
      <use xlink:href="#DejaVuSans-20" x="869.927734"/>
      <use xlink:href="#DejaVuSans-41" x="901.714844"/>
      <use xlink:href="#DejaVuSans-63" x="968.373047"/>
      <use xlink:href="#DejaVuSans-63" x="1023.353516"/>
      <use xlink:href="#DejaVuSans-75" x="1078.333984"/>
      <use xlink:href="#DejaVuSans-72" x="1141.712891"/>
      <use xlink:href="#DejaVuSans-61" x="1182.826172"/>
      <use xlink:href="#DejaVuSans-63" x="1244.105469"/>
      <use xlink:href="#DejaVuSans-79" x="1299.085938"/>
     </g>
    </g>
    <g id="line2d_27">
     <path d="M 141.394375 278.326188 
L 151.394375 278.326188 
L 161.394375 278.326188 
" style="fill: none; stroke: #d62728; stroke-width: 1.5; stroke-linecap: square"/>
    </g>
    <g id="text_25">
     <!-- SWA Validation Accuracy -->
     <g transform="translate(169.394375 281.826188) scale(0.1 -0.1)">
      <defs>
       <path id="DejaVuSans-53" d="M 3425 4513 
L 3425 3897 
Q 3066 4069 2747 4153 
Q 2428 4238 2131 4238 
Q 1616 4238 1336 4038 
Q 1056 3838 1056 3469 
Q 1056 3159 1242 3001 
Q 1428 2844 1947 2747 
L 2328 2669 
Q 3034 2534 3370 2195 
Q 3706 1856 3706 1288 
Q 3706 609 3251 259 
Q 2797 -91 1919 -91 
Q 1588 -91 1214 -16 
Q 841 59 441 206 
L 441 856 
Q 825 641 1194 531 
Q 1563 422 1919 422 
Q 2459 422 2753 634 
Q 3047 847 3047 1241 
Q 3047 1584 2836 1778 
Q 2625 1972 2144 2069 
L 1759 2144 
Q 1053 2284 737 2584 
Q 422 2884 422 3419 
Q 422 4038 858 4394 
Q 1294 4750 2059 4750 
Q 2388 4750 2728 4690 
Q 3069 4631 3425 4513 
z
" transform="scale(0.015625)"/>
       <path id="DejaVuSans-57" d="M 213 4666 
L 850 4666 
L 1831 722 
L 2809 4666 
L 3519 4666 
L 4500 722 
L 5478 4666 
L 6119 4666 
L 4947 0 
L 4153 0 
L 3169 4050 
L 2175 0 
L 1381 0 
L 213 4666 
z
" transform="scale(0.015625)"/>
      </defs>
      <use xlink:href="#DejaVuSans-53"/>
      <use xlink:href="#DejaVuSans-57" x="63.476562"/>
      <use xlink:href="#DejaVuSans-41" x="156.853516"/>
      <use xlink:href="#DejaVuSans-20" x="225.261719"/>
      <use xlink:href="#DejaVuSans-56" x="257.048828"/>
      <use xlink:href="#DejaVuSans-61" x="317.707031"/>
      <use xlink:href="#DejaVuSans-6c" x="378.986328"/>
      <use xlink:href="#DejaVuSans-69" x="406.769531"/>
      <use xlink:href="#DejaVuSans-64" x="434.552734"/>
      <use xlink:href="#DejaVuSans-61" x="498.029297"/>
      <use xlink:href="#DejaVuSans-74" x="559.308594"/>
      <use xlink:href="#DejaVuSans-69" x="598.517578"/>
      <use xlink:href="#DejaVuSans-6f" x="626.300781"/>
      <use xlink:href="#DejaVuSans-6e" x="687.482422"/>
      <use xlink:href="#DejaVuSans-20" x="750.861328"/>
      <use xlink:href="#DejaVuSans-41" x="782.648438"/>
      <use xlink:href="#DejaVuSans-63" x="849.306641"/>
      <use xlink:href="#DejaVuSans-63" x="904.287109"/>
      <use xlink:href="#DejaVuSans-75" x="959.267578"/>
      <use xlink:href="#DejaVuSans-72" x="1022.646484"/>
      <use xlink:href="#DejaVuSans-61" x="1063.759766"/>
      <use xlink:href="#DejaVuSans-63" x="1125.039062"/>
      <use xlink:href="#DejaVuSans-79" x="1180.019531"/>
     </g>
    </g>
    <g id="line2d_28">
     <path d="M 141.394375 293.004312 
L 151.394375 293.004312 
L 161.394375 293.004312 
" style="fill: none; stroke: #9467bd; stroke-width: 1.5; stroke-linecap: square"/>
    </g>
    <g id="text_26">
     <!-- SWA Robust Validation Accuracy -->
     <g transform="translate(169.394375 296.504312) scale(0.1 -0.1)">
      <use xlink:href="#DejaVuSans-53"/>
      <use xlink:href="#DejaVuSans-57" x="63.476562"/>
      <use xlink:href="#DejaVuSans-41" x="156.853516"/>
      <use xlink:href="#DejaVuSans-20" x="225.261719"/>
      <use xlink:href="#DejaVuSans-52" x="257.048828"/>
      <use xlink:href="#DejaVuSans-6f" x="322.03125"/>
      <use xlink:href="#DejaVuSans-62" x="383.212891"/>
      <use xlink:href="#DejaVuSans-75" x="446.689453"/>
      <use xlink:href="#DejaVuSans-73" x="510.068359"/>
      <use xlink:href="#DejaVuSans-74" x="562.167969"/>
      <use xlink:href="#DejaVuSans-20" x="601.376953"/>
      <use xlink:href="#DejaVuSans-56" x="633.164062"/>
      <use xlink:href="#DejaVuSans-61" x="693.822266"/>
      <use xlink:href="#DejaVuSans-6c" x="755.101562"/>
      <use xlink:href="#DejaVuSans-69" x="782.884766"/>
      <use xlink:href="#DejaVuSans-64" x="810.667969"/>
      <use xlink:href="#DejaVuSans-61" x="874.144531"/>
      <use xlink:href="#DejaVuSans-74" x="935.423828"/>
      <use xlink:href="#DejaVuSans-69" x="974.632812"/>
      <use xlink:href="#DejaVuSans-6f" x="1002.416016"/>
      <use xlink:href="#DejaVuSans-6e" x="1063.597656"/>
      <use xlink:href="#DejaVuSans-20" x="1126.976562"/>
      <use xlink:href="#DejaVuSans-41" x="1158.763672"/>
      <use xlink:href="#DejaVuSans-63" x="1225.421875"/>
      <use xlink:href="#DejaVuSans-63" x="1280.402344"/>
      <use xlink:href="#DejaVuSans-75" x="1335.382812"/>
      <use xlink:href="#DejaVuSans-72" x="1398.761719"/>
      <use xlink:href="#DejaVuSans-61" x="1439.875"/>
      <use xlink:href="#DejaVuSans-63" x="1501.154297"/>
      <use xlink:href="#DejaVuSans-79" x="1556.134766"/>
     </g>
    </g>
   </g>
  </g>
 </g>
 <defs>
  <clipPath id="pc115c240a6">
   <rect x="57.6" y="41.472" width="357.12" height="266.112"/>
  </clipPath>
 </defs>
</svg>
