<?xml version="1.0" encoding="utf-8" standalone="no"?>
<!DOCTYPE svg PUBLIC "-//W3C//DTD SVG 1.1//EN"
  "http://www.w3.org/Graphics/SVG/1.1/DTD/svg11.dtd">
<svg xmlns:xlink="http://www.w3.org/1999/xlink" width="460.8pt" height="345.6pt" viewBox="0 0 460.8 345.6" xmlns="http://www.w3.org/2000/svg" version="1.1">
 <metadata>
  <rdf:RDF xmlns:dc="http://purl.org/dc/elements/1.1/" xmlns:cc="http://creativecommons.org/ns#" xmlns:rdf="http://www.w3.org/1999/02/22-rdf-syntax-ns#">
   <cc:Work>
    <dc:type rdf:resource="http://purl.org/dc/dcmitype/StillImage"/>
    <dc:date>2025-01-17T23:57:20.248970</dc:date>
    <dc:format>image/svg+xml</dc:format>
    <dc:creator>
     <cc:Agent>
      <dc:title>Matplotlib v3.9.1, https://matplotlib.org/</dc:title>
     </cc:Agent>
    </dc:creator>
   </cc:Work>
  </rdf:RDF>
 </metadata>
 <defs>
  <style type="text/css">*{stroke-linejoin: round; stroke-linecap: butt}</style>
 </defs>
 <g id="figure_1">
  <g id="patch_1">
   <path d="M 0 345.6 
L 460.8 345.6 
L 460.8 0 
L 0 0 
z
" style="fill: #ffffff"/>
  </g>
  <g id="axes_1">
   <g id="patch_2">
    <path d="M 57.6 307.584 
L 414.72 307.584 
L 414.72 41.472 
L 57.6 41.472 
z
" style="fill: #ffffff"/>
   </g>
   <g id="matplotlib.axis_1">
    <g id="xtick_1">
     <g id="line2d_1">
      <defs>
       <path id="mf6f37a1397" d="M 0 0 
L 0 3.5 
" style="stroke: #000000; stroke-width: 0.8"/>
      </defs>
      <g>
       <use xlink:href="#mf6f37a1397" x="73.832727" y="307.584" style="stroke: #000000; stroke-width: 0.8"/>
      </g>
     </g>
     <g id="text_1">
      <!-- 1 -->
      <g transform="translate(70.651477 322.182437) scale(0.1 -0.1)">
       <defs>
        <path id="DejaVuSans-31" d="M 794 531 
L 1825 531 
L 1825 4091 
L 703 3866 
L 703 4441 
L 1819 4666 
L 2450 4666 
L 2450 531 
L 3481 531 
L 3481 0 
L 794 0 
L 794 531 
z
" transform="scale(0.015625)"/>
       </defs>
       <use xlink:href="#DejaVuSans-31"/>
      </g>
     </g>
    </g>
    <g id="xtick_2">
     <g id="line2d_2">
      <g>
       <use xlink:href="#mf6f37a1397" x="109.664165" y="307.584" style="stroke: #000000; stroke-width: 0.8"/>
      </g>
     </g>
     <g id="text_2">
      <!-- 34 -->
      <g transform="translate(103.301665 322.182437) scale(0.1 -0.1)">
       <defs>
        <path id="DejaVuSans-33" d="M 2597 2516 
Q 3050 2419 3304 2112 
Q 3559 1806 3559 1356 
Q 3559 666 3084 287 
Q 2609 -91 1734 -91 
Q 1441 -91 1130 -33 
Q 819 25 488 141 
L 488 750 
Q 750 597 1062 519 
Q 1375 441 1716 441 
Q 2309 441 2620 675 
Q 2931 909 2931 1356 
Q 2931 1769 2642 2001 
Q 2353 2234 1838 2234 
L 1294 2234 
L 1294 2753 
L 1863 2753 
Q 2328 2753 2575 2939 
Q 2822 3125 2822 3475 
Q 2822 3834 2567 4026 
Q 2313 4219 1838 4219 
Q 1578 4219 1281 4162 
Q 984 4106 628 3988 
L 628 4550 
Q 988 4650 1302 4700 
Q 1616 4750 1894 4750 
Q 2613 4750 3031 4423 
Q 3450 4097 3450 3541 
Q 3450 3153 3228 2886 
Q 3006 2619 2597 2516 
z
" transform="scale(0.015625)"/>
        <path id="DejaVuSans-34" d="M 2419 4116 
L 825 1625 
L 2419 1625 
L 2419 4116 
z
M 2253 4666 
L 3047 4666 
L 3047 1625 
L 3713 1625 
L 3713 1100 
L 3047 1100 
L 3047 0 
L 2419 0 
L 2419 1100 
L 313 1100 
L 313 1709 
L 2253 4666 
z
" transform="scale(0.015625)"/>
       </defs>
       <use xlink:href="#DejaVuSans-33"/>
       <use xlink:href="#DejaVuSans-34" x="63.623047"/>
      </g>
     </g>
    </g>
    <g id="xtick_3">
     <g id="line2d_3">
      <g>
       <use xlink:href="#mf6f37a1397" x="145.495604" y="307.584" style="stroke: #000000; stroke-width: 0.8"/>
      </g>
     </g>
     <g id="text_3">
      <!-- 67 -->
      <g transform="translate(139.133104 322.182437) scale(0.1 -0.1)">
       <defs>
        <path id="DejaVuSans-36" d="M 2113 2584 
Q 1688 2584 1439 2293 
Q 1191 2003 1191 1497 
Q 1191 994 1439 701 
Q 1688 409 2113 409 
Q 2538 409 2786 701 
Q 3034 994 3034 1497 
Q 3034 2003 2786 2293 
Q 2538 2584 2113 2584 
z
M 3366 4563 
L 3366 3988 
Q 3128 4100 2886 4159 
Q 2644 4219 2406 4219 
Q 1781 4219 1451 3797 
Q 1122 3375 1075 2522 
Q 1259 2794 1537 2939 
Q 1816 3084 2150 3084 
Q 2853 3084 3261 2657 
Q 3669 2231 3669 1497 
Q 3669 778 3244 343 
Q 2819 -91 2113 -91 
Q 1303 -91 875 529 
Q 447 1150 447 2328 
Q 447 3434 972 4092 
Q 1497 4750 2381 4750 
Q 2619 4750 2861 4703 
Q 3103 4656 3366 4563 
z
" transform="scale(0.015625)"/>
        <path id="DejaVuSans-37" d="M 525 4666 
L 3525 4666 
L 3525 4397 
L 1831 0 
L 1172 0 
L 2766 4134 
L 525 4134 
L 525 4666 
z
" transform="scale(0.015625)"/>
       </defs>
       <use xlink:href="#DejaVuSans-36"/>
       <use xlink:href="#DejaVuSans-37" x="63.623047"/>
      </g>
     </g>
    </g>
    <g id="xtick_4">
     <g id="line2d_4">
      <g>
       <use xlink:href="#mf6f37a1397" x="181.327042" y="307.584" style="stroke: #000000; stroke-width: 0.8"/>
      </g>
     </g>
     <g id="text_4">
      <!-- 100 -->
      <g transform="translate(171.783292 322.182437) scale(0.1 -0.1)">
       <defs>
        <path id="DejaVuSans-30" d="M 2034 4250 
Q 1547 4250 1301 3770 
Q 1056 3291 1056 2328 
Q 1056 1369 1301 889 
Q 1547 409 2034 409 
Q 2525 409 2770 889 
Q 3016 1369 3016 2328 
Q 3016 3291 2770 3770 
Q 2525 4250 2034 4250 
z
M 2034 4750 
Q 2819 4750 3233 4129 
Q 3647 3509 3647 2328 
Q 3647 1150 3233 529 
Q 2819 -91 2034 -91 
Q 1250 -91 836 529 
Q 422 1150 422 2328 
Q 422 3509 836 4129 
Q 1250 4750 2034 4750 
z
" transform="scale(0.015625)"/>
       </defs>
       <use xlink:href="#DejaVuSans-31"/>
       <use xlink:href="#DejaVuSans-30" x="63.623047"/>
       <use xlink:href="#DejaVuSans-30" x="127.246094"/>
      </g>
     </g>
    </g>
    <g id="xtick_5">
     <g id="line2d_5">
      <g>
       <use xlink:href="#mf6f37a1397" x="217.15848" y="307.584" style="stroke: #000000; stroke-width: 0.8"/>
      </g>
     </g>
     <g id="text_5">
      <!-- 133 -->
      <g transform="translate(207.61473 322.182437) scale(0.1 -0.1)">
       <use xlink:href="#DejaVuSans-31"/>
       <use xlink:href="#DejaVuSans-33" x="63.623047"/>
       <use xlink:href="#DejaVuSans-33" x="127.246094"/>
      </g>
     </g>
    </g>
    <g id="xtick_6">
     <g id="line2d_6">
      <g>
       <use xlink:href="#mf6f37a1397" x="254.075719" y="307.584" style="stroke: #000000; stroke-width: 0.8"/>
      </g>
     </g>
     <g id="text_6">
      <!-- 167 -->
      <g transform="translate(244.531969 322.182437) scale(0.1 -0.1)">
       <use xlink:href="#DejaVuSans-31"/>
       <use xlink:href="#DejaVuSans-36" x="63.623047"/>
       <use xlink:href="#DejaVuSans-37" x="127.246094"/>
      </g>
     </g>
    </g>
    <g id="xtick_7">
     <g id="line2d_7">
      <g>
       <use xlink:href="#mf6f37a1397" x="289.907157" y="307.584" style="stroke: #000000; stroke-width: 0.8"/>
      </g>
     </g>
     <g id="text_7">
      <!-- 200 -->
      <g transform="translate(280.363407 322.182437) scale(0.1 -0.1)">
       <defs>
        <path id="DejaVuSans-32" d="M 1228 531 
L 3431 531 
L 3431 0 
L 469 0 
L 469 531 
Q 828 903 1448 1529 
Q 2069 2156 2228 2338 
Q 2531 2678 2651 2914 
Q 2772 3150 2772 3378 
Q 2772 3750 2511 3984 
Q 2250 4219 1831 4219 
Q 1534 4219 1204 4116 
Q 875 4013 500 3803 
L 500 4441 
Q 881 4594 1212 4672 
Q 1544 4750 1819 4750 
Q 2544 4750 2975 4387 
Q 3406 4025 3406 3419 
Q 3406 3131 3298 2873 
Q 3191 2616 2906 2266 
Q 2828 2175 2409 1742 
Q 1991 1309 1228 531 
z
" transform="scale(0.015625)"/>
       </defs>
       <use xlink:href="#DejaVuSans-32"/>
       <use xlink:href="#DejaVuSans-30" x="63.623047"/>
       <use xlink:href="#DejaVuSans-30" x="127.246094"/>
      </g>
     </g>
    </g>
    <g id="xtick_8">
     <g id="line2d_8">
      <g>
       <use xlink:href="#mf6f37a1397" x="325.738595" y="307.584" style="stroke: #000000; stroke-width: 0.8"/>
      </g>
     </g>
     <g id="text_8">
      <!-- 233 -->
      <g transform="translate(316.194845 322.182437) scale(0.1 -0.1)">
       <use xlink:href="#DejaVuSans-32"/>
       <use xlink:href="#DejaVuSans-33" x="63.623047"/>
       <use xlink:href="#DejaVuSans-33" x="127.246094"/>
      </g>
     </g>
    </g>
    <g id="xtick_9">
     <g id="line2d_9">
      <g>
       <use xlink:href="#mf6f37a1397" x="361.570033" y="307.584" style="stroke: #000000; stroke-width: 0.8"/>
      </g>
     </g>
     <g id="text_9">
      <!-- 266 -->
      <g transform="translate(352.026283 322.182437) scale(0.1 -0.1)">
       <use xlink:href="#DejaVuSans-32"/>
       <use xlink:href="#DejaVuSans-36" x="63.623047"/>
       <use xlink:href="#DejaVuSans-36" x="127.246094"/>
      </g>
     </g>
    </g>
    <g id="xtick_10">
     <g id="line2d_10">
      <g>
       <use xlink:href="#mf6f37a1397" x="398.487273" y="307.584" style="stroke: #000000; stroke-width: 0.8"/>
      </g>
     </g>
     <g id="text_10">
      <!-- 300 -->
      <g transform="translate(388.943523 322.182437) scale(0.1 -0.1)">
       <use xlink:href="#DejaVuSans-33"/>
       <use xlink:href="#DejaVuSans-30" x="63.623047"/>
       <use xlink:href="#DejaVuSans-30" x="127.246094"/>
      </g>
     </g>
    </g>
    <g id="text_11">
     <!-- Epochs -->
     <g transform="translate(218.244375 335.860562) scale(0.1 -0.1)">
      <defs>
       <path id="DejaVuSans-45" d="M 628 4666 
L 3578 4666 
L 3578 4134 
L 1259 4134 
L 1259 2753 
L 3481 2753 
L 3481 2222 
L 1259 2222 
L 1259 531 
L 3634 531 
L 3634 0 
L 628 0 
L 628 4666 
z
" transform="scale(0.015625)"/>
       <path id="DejaVuSans-70" d="M 1159 525 
L 1159 -1331 
L 581 -1331 
L 581 3500 
L 1159 3500 
L 1159 2969 
Q 1341 3281 1617 3432 
Q 1894 3584 2278 3584 
Q 2916 3584 3314 3078 
Q 3713 2572 3713 1747 
Q 3713 922 3314 415 
Q 2916 -91 2278 -91 
Q 1894 -91 1617 61 
Q 1341 213 1159 525 
z
M 3116 1747 
Q 3116 2381 2855 2742 
Q 2594 3103 2138 3103 
Q 1681 3103 1420 2742 
Q 1159 2381 1159 1747 
Q 1159 1113 1420 752 
Q 1681 391 2138 391 
Q 2594 391 2855 752 
Q 3116 1113 3116 1747 
z
" transform="scale(0.015625)"/>
       <path id="DejaVuSans-6f" d="M 1959 3097 
Q 1497 3097 1228 2736 
Q 959 2375 959 1747 
Q 959 1119 1226 758 
Q 1494 397 1959 397 
Q 2419 397 2687 759 
Q 2956 1122 2956 1747 
Q 2956 2369 2687 2733 
Q 2419 3097 1959 3097 
z
M 1959 3584 
Q 2709 3584 3137 3096 
Q 3566 2609 3566 1747 
Q 3566 888 3137 398 
Q 2709 -91 1959 -91 
Q 1206 -91 779 398 
Q 353 888 353 1747 
Q 353 2609 779 3096 
Q 1206 3584 1959 3584 
z
" transform="scale(0.015625)"/>
       <path id="DejaVuSans-63" d="M 3122 3366 
L 3122 2828 
Q 2878 2963 2633 3030 
Q 2388 3097 2138 3097 
Q 1578 3097 1268 2742 
Q 959 2388 959 1747 
Q 959 1106 1268 751 
Q 1578 397 2138 397 
Q 2388 397 2633 464 
Q 2878 531 3122 666 
L 3122 134 
Q 2881 22 2623 -34 
Q 2366 -91 2075 -91 
Q 1284 -91 818 406 
Q 353 903 353 1747 
Q 353 2603 823 3093 
Q 1294 3584 2113 3584 
Q 2378 3584 2631 3529 
Q 2884 3475 3122 3366 
z
" transform="scale(0.015625)"/>
       <path id="DejaVuSans-68" d="M 3513 2113 
L 3513 0 
L 2938 0 
L 2938 2094 
Q 2938 2591 2744 2837 
Q 2550 3084 2163 3084 
Q 1697 3084 1428 2787 
Q 1159 2491 1159 1978 
L 1159 0 
L 581 0 
L 581 4863 
L 1159 4863 
L 1159 2956 
Q 1366 3272 1645 3428 
Q 1925 3584 2291 3584 
Q 2894 3584 3203 3211 
Q 3513 2838 3513 2113 
z
" transform="scale(0.015625)"/>
       <path id="DejaVuSans-73" d="M 2834 3397 
L 2834 2853 
Q 2591 2978 2328 3040 
Q 2066 3103 1784 3103 
Q 1356 3103 1142 2972 
Q 928 2841 928 2578 
Q 928 2378 1081 2264 
Q 1234 2150 1697 2047 
L 1894 2003 
Q 2506 1872 2764 1633 
Q 3022 1394 3022 966 
Q 3022 478 2636 193 
Q 2250 -91 1575 -91 
Q 1294 -91 989 -36 
Q 684 19 347 128 
L 347 722 
Q 666 556 975 473 
Q 1284 391 1588 391 
Q 1994 391 2212 530 
Q 2431 669 2431 922 
Q 2431 1156 2273 1281 
Q 2116 1406 1581 1522 
L 1381 1569 
Q 847 1681 609 1914 
Q 372 2147 372 2553 
Q 372 3047 722 3315 
Q 1072 3584 1716 3584 
Q 2034 3584 2315 3537 
Q 2597 3491 2834 3397 
z
" transform="scale(0.015625)"/>
      </defs>
      <use xlink:href="#DejaVuSans-45"/>
      <use xlink:href="#DejaVuSans-70" x="63.183594"/>
      <use xlink:href="#DejaVuSans-6f" x="126.660156"/>
      <use xlink:href="#DejaVuSans-63" x="187.841797"/>
      <use xlink:href="#DejaVuSans-68" x="242.822266"/>
      <use xlink:href="#DejaVuSans-73" x="306.201172"/>
     </g>
    </g>
   </g>
   <g id="matplotlib.axis_2">
    <g id="ytick_1">
     <g id="line2d_11">
      <defs>
       <path id="m87fecab326" d="M 0 0 
L -3.5 0 
" style="stroke: #000000; stroke-width: 0.8"/>
      </defs>
      <g>
       <use xlink:href="#m87fecab326" x="57.6" y="276.686662" style="stroke: #000000; stroke-width: 0.8"/>
      </g>
     </g>
     <g id="text_12">
      <!-- 50 -->
      <g transform="translate(37.875 280.48588) scale(0.1 -0.1)">
       <defs>
        <path id="DejaVuSans-35" d="M 691 4666 
L 3169 4666 
L 3169 4134 
L 1269 4134 
L 1269 2991 
Q 1406 3038 1543 3061 
Q 1681 3084 1819 3084 
Q 2600 3084 3056 2656 
Q 3513 2228 3513 1497 
Q 3513 744 3044 326 
Q 2575 -91 1722 -91 
Q 1428 -91 1123 -41 
Q 819 9 494 109 
L 494 744 
Q 775 591 1075 516 
Q 1375 441 1709 441 
Q 2250 441 2565 725 
Q 2881 1009 2881 1497 
Q 2881 1984 2565 2268 
Q 2250 2553 1709 2553 
Q 1456 2553 1204 2497 
Q 953 2441 691 2322 
L 691 4666 
z
" transform="scale(0.015625)"/>
       </defs>
       <use xlink:href="#DejaVuSans-35"/>
       <use xlink:href="#DejaVuSans-30" x="63.623047"/>
      </g>
     </g>
    </g>
    <g id="ytick_2">
     <g id="line2d_12">
      <g>
       <use xlink:href="#m87fecab326" x="57.6" y="231.994993" style="stroke: #000000; stroke-width: 0.8"/>
      </g>
     </g>
     <g id="text_13">
      <!-- 60 -->
      <g transform="translate(37.875 235.794211) scale(0.1 -0.1)">
       <use xlink:href="#DejaVuSans-36"/>
       <use xlink:href="#DejaVuSans-30" x="63.623047"/>
      </g>
     </g>
    </g>
    <g id="ytick_3">
     <g id="line2d_13">
      <g>
       <use xlink:href="#m87fecab326" x="57.6" y="187.303323" style="stroke: #000000; stroke-width: 0.8"/>
      </g>
     </g>
     <g id="text_14">
      <!-- 70 -->
      <g transform="translate(37.875 191.102542) scale(0.1 -0.1)">
       <use xlink:href="#DejaVuSans-37"/>
       <use xlink:href="#DejaVuSans-30" x="63.623047"/>
      </g>
     </g>
    </g>
    <g id="ytick_4">
     <g id="line2d_14">
      <g>
       <use xlink:href="#m87fecab326" x="57.6" y="142.611654" style="stroke: #000000; stroke-width: 0.8"/>
      </g>
     </g>
     <g id="text_15">
      <!-- 80 -->
      <g transform="translate(37.875 146.410873) scale(0.1 -0.1)">
       <defs>
        <path id="DejaVuSans-38" d="M 2034 2216 
Q 1584 2216 1326 1975 
Q 1069 1734 1069 1313 
Q 1069 891 1326 650 
Q 1584 409 2034 409 
Q 2484 409 2743 651 
Q 3003 894 3003 1313 
Q 3003 1734 2745 1975 
Q 2488 2216 2034 2216 
z
M 1403 2484 
Q 997 2584 770 2862 
Q 544 3141 544 3541 
Q 544 4100 942 4425 
Q 1341 4750 2034 4750 
Q 2731 4750 3128 4425 
Q 3525 4100 3525 3541 
Q 3525 3141 3298 2862 
Q 3072 2584 2669 2484 
Q 3125 2378 3379 2068 
Q 3634 1759 3634 1313 
Q 3634 634 3220 271 
Q 2806 -91 2034 -91 
Q 1263 -91 848 271 
Q 434 634 434 1313 
Q 434 1759 690 2068 
Q 947 2378 1403 2484 
z
M 1172 3481 
Q 1172 3119 1398 2916 
Q 1625 2713 2034 2713 
Q 2441 2713 2670 2916 
Q 2900 3119 2900 3481 
Q 2900 3844 2670 4047 
Q 2441 4250 2034 4250 
Q 1625 4250 1398 4047 
Q 1172 3844 1172 3481 
z
" transform="scale(0.015625)"/>
       </defs>
       <use xlink:href="#DejaVuSans-38"/>
       <use xlink:href="#DejaVuSans-30" x="63.623047"/>
      </g>
     </g>
    </g>
    <g id="ytick_5">
     <g id="line2d_15">
      <g>
       <use xlink:href="#m87fecab326" x="57.6" y="97.919985" style="stroke: #000000; stroke-width: 0.8"/>
      </g>
     </g>
     <g id="text_16">
      <!-- 90 -->
      <g transform="translate(37.875 101.719204) scale(0.1 -0.1)">
       <defs>
        <path id="DejaVuSans-39" d="M 703 97 
L 703 672 
Q 941 559 1184 500 
Q 1428 441 1663 441 
Q 2288 441 2617 861 
Q 2947 1281 2994 2138 
Q 2813 1869 2534 1725 
Q 2256 1581 1919 1581 
Q 1219 1581 811 2004 
Q 403 2428 403 3163 
Q 403 3881 828 4315 
Q 1253 4750 1959 4750 
Q 2769 4750 3195 4129 
Q 3622 3509 3622 2328 
Q 3622 1225 3098 567 
Q 2575 -91 1691 -91 
Q 1453 -91 1209 -44 
Q 966 3 703 97 
z
M 1959 2075 
Q 2384 2075 2632 2365 
Q 2881 2656 2881 3163 
Q 2881 3666 2632 3958 
Q 2384 4250 1959 4250 
Q 1534 4250 1286 3958 
Q 1038 3666 1038 3163 
Q 1038 2656 1286 2365 
Q 1534 2075 1959 2075 
z
" transform="scale(0.015625)"/>
       </defs>
       <use xlink:href="#DejaVuSans-39"/>
       <use xlink:href="#DejaVuSans-30" x="63.623047"/>
      </g>
     </g>
    </g>
    <g id="ytick_6">
     <g id="line2d_16">
      <g>
       <use xlink:href="#m87fecab326" x="57.6" y="53.228316" style="stroke: #000000; stroke-width: 0.8"/>
      </g>
     </g>
     <g id="text_17">
      <!-- 100 -->
      <g transform="translate(31.5125 57.027535) scale(0.1 -0.1)">
       <use xlink:href="#DejaVuSans-31"/>
       <use xlink:href="#DejaVuSans-30" x="63.623047"/>
       <use xlink:href="#DejaVuSans-30" x="127.246094"/>
      </g>
     </g>
    </g>
    <g id="text_18">
     <!-- Accuracy -->
     <g transform="translate(25.432812 197.356125) rotate(-90) scale(0.1 -0.1)">
      <defs>
       <path id="DejaVuSans-41" d="M 2188 4044 
L 1331 1722 
L 3047 1722 
L 2188 4044 
z
M 1831 4666 
L 2547 4666 
L 4325 0 
L 3669 0 
L 3244 1197 
L 1141 1197 
L 716 0 
L 50 0 
L 1831 4666 
z
" transform="scale(0.015625)"/>
       <path id="DejaVuSans-75" d="M 544 1381 
L 544 3500 
L 1119 3500 
L 1119 1403 
Q 1119 906 1312 657 
Q 1506 409 1894 409 
Q 2359 409 2629 706 
Q 2900 1003 2900 1516 
L 2900 3500 
L 3475 3500 
L 3475 0 
L 2900 0 
L 2900 538 
Q 2691 219 2414 64 
Q 2138 -91 1772 -91 
Q 1169 -91 856 284 
Q 544 659 544 1381 
z
M 1991 3584 
L 1991 3584 
z
" transform="scale(0.015625)"/>
       <path id="DejaVuSans-72" d="M 2631 2963 
Q 2534 3019 2420 3045 
Q 2306 3072 2169 3072 
Q 1681 3072 1420 2755 
Q 1159 2438 1159 1844 
L 1159 0 
L 581 0 
L 581 3500 
L 1159 3500 
L 1159 2956 
Q 1341 3275 1631 3429 
Q 1922 3584 2338 3584 
Q 2397 3584 2469 3576 
Q 2541 3569 2628 3553 
L 2631 2963 
z
" transform="scale(0.015625)"/>
       <path id="DejaVuSans-61" d="M 2194 1759 
Q 1497 1759 1228 1600 
Q 959 1441 959 1056 
Q 959 750 1161 570 
Q 1363 391 1709 391 
Q 2188 391 2477 730 
Q 2766 1069 2766 1631 
L 2766 1759 
L 2194 1759 
z
M 3341 1997 
L 3341 0 
L 2766 0 
L 2766 531 
Q 2569 213 2275 61 
Q 1981 -91 1556 -91 
Q 1019 -91 701 211 
Q 384 513 384 1019 
Q 384 1609 779 1909 
Q 1175 2209 1959 2209 
L 2766 2209 
L 2766 2266 
Q 2766 2663 2505 2880 
Q 2244 3097 1772 3097 
Q 1472 3097 1187 3025 
Q 903 2953 641 2809 
L 641 3341 
Q 956 3463 1253 3523 
Q 1550 3584 1831 3584 
Q 2591 3584 2966 3190 
Q 3341 2797 3341 1997 
z
" transform="scale(0.015625)"/>
       <path id="DejaVuSans-79" d="M 2059 -325 
Q 1816 -950 1584 -1140 
Q 1353 -1331 966 -1331 
L 506 -1331 
L 506 -850 
L 844 -850 
Q 1081 -850 1212 -737 
Q 1344 -625 1503 -206 
L 1606 56 
L 191 3500 
L 800 3500 
L 1894 763 
L 2988 3500 
L 3597 3500 
L 2059 -325 
z
" transform="scale(0.015625)"/>
      </defs>
      <use xlink:href="#DejaVuSans-41"/>
      <use xlink:href="#DejaVuSans-63" x="66.658203"/>
      <use xlink:href="#DejaVuSans-63" x="121.638672"/>
      <use xlink:href="#DejaVuSans-75" x="176.619141"/>
      <use xlink:href="#DejaVuSans-72" x="239.998047"/>
      <use xlink:href="#DejaVuSans-61" x="281.111328"/>
      <use xlink:href="#DejaVuSans-63" x="342.390625"/>
      <use xlink:href="#DejaVuSans-79" x="397.371094"/>
     </g>
    </g>
   </g>
   <g id="line2d_17">
    <path d="M 73.832727 279.314532 
L 74.918528 181.664576 
L 76.00433 147.669411 
L 77.090131 132.133246 
L 78.175932 120.950496 
L 79.261733 112.583769 
L 80.347534 107.828128 
L 81.433335 103.573034 
L 82.519137 96.931406 
L 83.604938 93.793603 
L 84.690739 89.833922 
L 85.77654 86.731873 
L 87.948142 79.115965 
L 89.033943 76.523402 
L 90.119745 73.627382 
L 91.205546 71.785638 
L 92.291347 69.604684 
L 94.462949 67.611436 
L 95.54875 94.258397 
L 96.634552 93.141105 
L 97.720353 89.932243 
L 100.977756 86.043621 
L 102.063557 82.968387 
L 103.149358 81.618699 
L 104.23516 81.207536 
L 105.320961 78.230624 
L 106.406762 78.051857 
L 107.492563 77.22953 
L 109.664165 74.11899 
L 111.835768 72.393445 
L 112.921569 70.7041 
L 114.00737 70.051601 
L 115.093171 68.934309 
L 116.178972 67.977908 
L 117.264773 66.699279 
L 118.350575 65.036749 
L 119.436376 64.920551 
L 120.522177 63.713876 
L 121.607978 62.283742 
L 122.693779 61.460969 
L 123.77958 60.397307 
L 125.951183 58.958235 
L 127.036984 58.010772 
L 128.122785 57.251013 
L 129.208586 57.072247 
L 130.294387 56.276735 
L 131.380189 56.053277 
L 132.46599 55.579098 
L 133.551791 55.936631 
L 134.637592 55.391393 
L 135.723393 55.489715 
L 136.809194 55.284133 
L 137.894995 55.35564 
L 138.980797 75.710013 
L 140.066598 78.588604 
L 141.152399 76.827305 
L 142.2382 75.736828 
L 143.324001 75.102207 
L 144.409802 74.17262 
L 145.495604 73.645258 
L 146.581405 72.679471 
L 147.667206 72.599026 
L 148.753007 72.241493 
L 149.838808 70.54321 
L 150.924609 70.435949 
L 152.01041 70.632593 
L 153.096212 69.345473 
L 154.182013 68.961124 
L 155.267814 69.586808 
L 156.353615 68.272873 
L 157.439416 68.094106 
L 159.611019 67.548868 
L 160.69682 66.297054 
L 161.782621 67.003182 
L 162.868422 65.930582 
L 163.954223 65.859076 
L 165.040024 66.091472 
L 166.125825 64.062471 
L 168.297428 64.339559 
L 169.383229 64.965242 
L 171.554831 62.954117 
L 172.640632 62.793227 
L 173.726434 61.75638 
L 175.898036 62.256927 
L 176.983837 60.781655 
L 178.069638 60.933607 
L 179.155439 60.281108 
L 180.24124 60.772717 
L 181.327042 59.610733 
L 182.412843 59.539227 
L 184.584445 58.466627 
L 185.670246 58.055463 
L 186.756047 58.055463 
L 188.92765 57.662177 
L 190.013451 57.036493 
L 192.185053 57.018617 
L 193.270854 56.205228 
L 194.356656 56.14266 
L 195.442457 55.847248 
L 196.528258 55.328825 
L 197.614059 55.614851 
L 198.69986 55.123243 
L 199.785661 55.391393 
L 200.871462 54.613758 
L 201.957264 54.622696 
L 204.128866 54.184718 
L 208.472071 54.077458 
L 209.557872 53.862938 
L 211.729474 53.871876 
L 214.986877 53.880815 
L 217.15848 53.836123 
L 218.244281 53.764616 
L 219.330082 53.916568 
L 220.415883 53.809308 
L 222.587486 53.737801 
L 223.673287 53.657356 
L 224.759088 53.702048 
L 225.844889 72.393445 
L 226.93069 73.457553 
L 228.016491 73.225157 
L 229.102292 72.840808 
L 230.188094 70.7041 
L 231.273895 70.59684 
L 233.445497 69.318658 
L 234.531298 69.989033 
L 235.617099 68.710851 
L 236.702901 68.272873 
L 237.788702 68.398009 
L 238.874503 67.361163 
L 239.960304 67.155134 
L 241.046105 66.136164 
L 242.131906 66.770786 
L 243.217708 66.002089 
L 244.303509 65.608802 
L 245.38931 65.805446 
L 246.475111 65.653494 
L 247.560912 65.635617 
L 248.646713 64.902674 
L 250.818316 64.938427 
L 251.904117 64.411066 
L 252.989918 64.357436 
L 254.075719 64.956304 
L 255.16152 63.910519 
L 256.247321 64.491511 
L 257.333123 64.062471 
L 258.418924 63.803259 
L 260.590526 63.758567 
L 261.676327 64.250176 
L 263.847929 63.401034 
L 264.933731 62.72172 
L 266.019532 62.748535 
L 267.105333 62.998809 
L 268.191134 62.230112 
L 269.276935 62.489324 
L 270.362736 63.222267 
L 271.448538 62.569769 
L 272.534339 62.435694 
L 273.62014 62.873672 
L 274.705941 62.060284 
L 275.791742 62.310557 
L 276.877543 61.45203 
L 277.963344 62.015592 
L 279.049146 61.479058 
L 280.134947 61.255582 
L 281.220748 61.738291 
L 283.39235 61.398607 
L 284.478151 61.398607 
L 285.563953 61.237704 
L 286.649754 60.611971 
L 287.735555 60.424251 
L 289.907157 60.763934 
L 290.992958 59.878969 
L 292.07876 59.727005 
L 293.164561 59.798517 
L 294.250362 60.272287 
L 295.336163 59.566102 
L 296.421964 59.914725 
L 299.679368 58.663258 
L 300.765169 58.582806 
L 302.936771 58.895673 
L 304.022572 58.654319 
L 305.108373 58.198427 
L 306.194175 58.189488 
L 307.279976 58.430843 
L 309.451578 57.697841 
L 310.537379 58.073281 
L 312.708981 57.492242 
L 313.794783 57.60845 
L 314.880584 57.599511 
L 315.966385 57.411791 
L 318.137987 57.340279 
L 319.223788 57.018473 
L 322.481192 56.812875 
L 323.566993 56.455313 
L 324.652794 56.356983 
L 325.738595 56.035178 
L 326.824396 56.240776 
L 328.995999 55.579286 
L 330.0818 55.758067 
L 331.167601 55.203846 
L 332.253402 55.275358 
L 333.339203 55.588225 
L 334.425005 55.275358 
L 335.510806 55.293236 
L 336.596607 55.194907 
L 337.682408 55.382627 
L 338.768209 55.087638 
L 339.85401 55.114455 
L 340.939811 54.944614 
L 342.025613 54.470844 
L 344.197215 54.390393 
L 346.368817 54.542356 
L 347.454618 54.184794 
L 348.54042 54.444027 
L 349.626221 54.068587 
L 350.712022 54.211612 
L 352.883624 54.104343 
L 355.055227 54.140099 
L 357.226829 53.907684 
L 358.31263 53.773598 
L 359.398431 53.845111 
L 360.484232 53.693147 
L 361.570033 53.898745 
L 362.655835 53.880867 
L 363.741636 53.684208 
L 364.827437 53.693147 
L 365.913238 53.585878 
L 368.08484 53.603756 
L 369.170642 53.568 
L 370.256443 53.791476 
L 371.342244 53.898745 
L 372.428045 54.31888 
L 373.513846 54.265246 
L 376.77125 54.515539 
L 377.857051 54.873101 
L 378.942852 54.595991 
L 380.028653 54.810528 
L 381.114454 54.569173 
L 383.286057 54.810528 
L 384.371858 54.69432 
L 385.457659 54.899918 
L 386.54346 54.712198 
L 387.629261 55.016126 
L 388.715062 54.801589 
L 389.800863 54.98037 
L 390.886665 54.962492 
L 391.972466 54.828406 
L 393.058267 55.06976 
L 394.144068 54.890979 
L 396.31567 55.25748 
L 398.487273 55.051882 
L 398.487273 55.051882 
" clip-path="url(#pccc71dbf54)" style="fill: none; stroke: #1f77b4; stroke-width: 1.5; stroke-linecap: square"/>
   </g>
   <g id="line2d_18">
    <path d="M 73.832727 232.039684 
L 74.918528 181.225256 
L 76.00433 167.907139 
L 77.090131 179.124748 
L 78.175932 150.075163 
L 80.347534 120.26582 
L 81.433335 116.24357 
L 82.519137 110.031428 
L 83.604938 127.818712 
L 84.690739 110.344269 
L 85.77654 108.199069 
L 86.862341 99.886419 
L 87.948142 101.80816 
L 89.033943 95.461943 
L 90.119745 91.797227 
L 91.205546 93.540202 
L 92.291347 93.853043 
L 93.377148 92.020685 
L 94.462949 91.752535 
L 95.54875 125.494745 
L 96.634552 114.008986 
L 97.720353 112.534161 
L 98.806154 112.042553 
L 99.891955 118.65692 
L 100.977756 104.221511 
L 102.063557 101.942235 
L 103.149358 106.903011 
L 104.23516 96.579235 
L 105.320961 100.869635 
L 106.406762 103.819286 
L 107.492563 102.612611 
L 108.578364 100.109877 
L 109.664165 103.327677 
L 110.749967 98.679744 
L 112.921569 93.629585 
L 114.00737 95.819477 
L 115.093171 94.83626 
L 116.178972 91.931302 
L 117.264773 92.825135 
L 118.350575 88.355968 
L 119.436376 91.126852 
L 120.522177 89.071035 
L 121.607978 87.730285 
L 122.693779 85.763851 
L 123.77958 84.557176 
L 124.865382 84.870018 
L 125.951183 83.797418 
L 127.036984 82.411976 
L 128.122785 81.384068 
L 129.208586 81.562834 
L 130.294387 80.311468 
L 131.380189 81.607526 
L 132.46599 80.579618 
L 133.551791 80.579618 
L 134.637592 80.132701 
L 135.723393 79.864551 
L 136.809194 80.579618 
L 137.894995 79.685784 
L 138.980797 104.087436 
L 140.066598 103.551136 
L 141.152399 105.025961 
L 142.2382 99.216044 
L 143.324001 99.037277 
L 144.409802 99.12666 
L 145.495604 98.992585 
L 146.581405 96.623927 
L 147.667206 97.78591 
L 148.753007 97.160227 
L 149.838808 94.925643 
L 150.924609 94.29996 
L 152.01041 98.32221 
L 153.096212 92.065377 
L 154.182013 94.121193 
L 155.267814 96.623927 
L 156.353615 90.501168 
L 157.439416 96.400469 
L 158.525217 92.467602 
L 159.611019 91.08216 
L 160.69682 93.540202 
L 161.782621 93.137977 
L 162.868422 93.22736 
L 163.954223 97.428377 
L 165.040024 92.467602 
L 166.125825 92.780443 
L 167.211627 88.355968 
L 169.383229 87.640901 
L 170.46903 91.931302 
L 171.554831 86.389535 
L 172.640632 88.847576 
L 173.726434 86.25546 
L 174.812235 87.86436 
L 175.898036 87.730285 
L 176.983837 90.27771 
L 178.069638 83.305809 
L 179.155439 86.032001 
L 181.327042 86.300151 
L 182.412843 84.691251 
L 183.498644 83.305809 
L 184.584445 85.048785 
L 185.670246 82.814201 
L 186.756047 84.91471 
L 187.841849 85.361626 
L 188.92765 83.216426 
L 190.013451 84.37841 
L 192.185053 81.652218 
L 193.270854 85.540393 
L 194.356656 81.518143 
L 195.442457 79.909243 
L 196.528258 82.814201 
L 197.614059 81.607526 
L 198.69986 79.864551 
L 199.785661 80.669001 
L 200.871462 80.266776 
L 201.957264 78.881334 
L 203.043065 79.775168 
L 204.128866 78.523801 
L 205.214667 77.495892 
L 206.300468 78.434418 
L 207.386269 78.523801 
L 208.472071 78.926026 
L 209.557872 78.076884 
L 210.643673 77.406509 
L 211.729474 77.629967 
L 213.901076 77.272434 
L 214.986877 77.227742 
L 216.072679 77.987501 
L 217.15848 76.959592 
L 218.244281 77.451201 
L 219.330082 76.959592 
L 220.415883 77.495892 
L 221.501684 76.780826 
L 222.587486 77.406509 
L 223.673287 77.585276 
L 224.759088 77.317126 
L 225.844889 102.970144 
L 226.93069 99.171352 
L 230.188094 93.76366 
L 231.273895 95.90886 
L 232.359696 94.255268 
L 233.445497 92.288835 
L 234.531298 91.260927 
L 235.617099 97.204919 
L 236.702901 93.718968 
L 237.788702 92.110068 
L 238.874503 90.098943 
L 239.960304 90.769318 
L 241.046105 98.366902 
L 242.131906 91.305618 
L 243.217708 91.797227 
L 244.303509 90.143635 
L 245.38931 89.74141 
L 246.475111 95.37256 
L 247.560912 92.914518 
L 248.646713 93.22736 
L 249.732514 95.864168 
L 250.818316 90.769318 
L 251.904117 89.115726 
L 252.989918 90.769318 
L 254.075719 92.020685 
L 255.16152 93.808352 
L 256.247321 91.529077 
L 257.333123 90.81401 
L 258.418924 89.875485 
L 259.504725 90.367093 
L 260.590526 89.47326 
L 261.676327 88.802885 
L 262.762128 84.601868 
L 263.847929 90.54586 
L 264.933731 89.026343 
L 266.019532 87.953743 
L 267.105333 92.333527 
L 268.191134 93.182668 
L 269.276935 87.953743 
L 270.362736 87.730285 
L 271.448538 90.322402 
L 272.534339 89.294493 
L 273.62014 85.98731 
L 275.791742 86.836451 
L 276.877543 85.674468 
L 277.963344 83.171734 
L 279.049146 88.892268 
L 280.134947 85.004093 
L 281.220748 86.881143 
L 282.306549 89.964868 
L 283.39235 86.836451 
L 284.478151 91.35031 
L 285.563953 85.004093 
L 286.649754 85.674468 
L 287.735555 87.953743 
L 288.821356 86.657685 
L 289.907157 86.970526 
L 290.992958 86.925835 
L 292.07876 85.674468 
L 293.164561 87.640901 
L 294.250362 84.870018 
L 295.336163 86.032001 
L 296.421964 84.64656 
L 297.507765 84.423101 
L 298.593566 85.093476 
L 299.679368 83.708034 
L 300.765169 85.942618 
L 301.85097 83.708034 
L 302.936771 86.478918 
L 304.022572 89.696718 
L 305.108373 83.350501 
L 306.194175 83.797418 
L 307.279976 84.91471 
L 308.365777 82.814201 
L 309.451578 87.238676 
L 310.537379 84.825326 
L 311.62318 84.423101 
L 312.708981 85.361626 
L 313.794783 82.233209 
L 314.880584 83.797418 
L 315.966385 81.249993 
L 317.052186 84.780635 
L 318.137987 82.903584 
L 319.223788 82.143826 
L 320.30959 85.942618 
L 321.395391 83.842109 
L 322.481192 81.160609 
L 323.566993 83.305809 
L 324.652794 80.132701 
L 325.738595 81.562834 
L 326.824396 82.367284 
L 327.910198 81.026534 
L 328.995999 81.830984 
L 330.0818 81.518143 
L 331.167601 80.534926 
L 332.253402 78.836643 
L 333.339203 80.088009 
L 334.425005 79.730476 
L 335.510806 80.222084 
L 336.596607 79.328251 
L 338.768209 79.551709 
L 340.939811 77.317126 
L 342.025613 78.345034 
L 343.111414 77.585276 
L 344.197215 78.032192 
L 345.283016 78.255651 
L 346.368817 77.004284 
L 347.454618 76.825517 
L 348.54042 77.629967 
L 349.626221 77.361817 
L 350.712022 77.495892 
L 351.797823 76.870209 
L 352.883624 77.272434 
L 353.969425 77.495892 
L 355.055227 77.317126 
L 356.141028 76.825517 
L 357.226829 76.602059 
L 358.31263 77.495892 
L 359.398431 76.199834 
L 360.484232 76.914901 
L 361.570033 75.976376 
L 362.655835 75.618842 
L 363.741636 76.021067 
L 364.827437 75.886992 
L 365.913238 75.395384 
L 366.999039 76.512676 
L 368.08484 76.155142 
L 369.170642 77.317126 
L 370.256443 77.138359 
L 371.342244 76.691442 
L 372.428045 77.719351 
L 373.513846 78.032192 
L 374.599647 77.898117 
L 375.685448 78.747259 
L 376.77125 79.328251 
L 377.857051 80.132701 
L 378.942852 78.210959 
L 380.028653 78.747259 
L 381.114454 78.926026 
L 382.200255 77.898117 
L 383.286057 79.998626 
L 384.371858 79.417634 
L 385.457659 79.060101 
L 386.54346 79.417634 
L 387.629261 80.311468 
L 388.715062 80.043318 
L 389.800863 80.266776 
L 390.886665 80.624309 
L 391.972466 78.479109 
L 393.058267 79.507018 
L 394.144068 81.071226 
L 395.229869 82.099134 
L 396.31567 79.194176 
L 397.401472 80.222084 
L 398.487273 82.188518 
L 398.487273 82.188518 
" clip-path="url(#pccc71dbf54)" style="fill: none; stroke: #ff7f0e; stroke-width: 1.5; stroke-linecap: square"/>
   </g>
   <g id="line2d_19">
    <path d="M 73.832727 294.902539 
L 74.918528 271.632034 
L 76.00433 251.073866 
L 77.090131 295.488 
L 78.175932 258.03951 
L 79.261733 255.111312 
L 80.347534 220.375159 
L 81.433335 223.395869 
L 82.519137 222.56371 
L 83.604938 248.23818 
L 84.690739 242.628481 
L 85.77654 233.350938 
L 86.862341 210.728015 
L 87.948142 220.714368 
L 89.033943 213.625376 
L 90.119745 204.316995 
L 91.205546 206.135499 
L 92.291347 205.272503 
L 93.377148 207.091007 
L 94.462949 205.30334 
L 95.54875 242.073858 
L 96.634552 227.92671 
L 97.720353 224.967675 
L 98.806154 224.289702 
L 99.891955 219.450488 
L 100.977756 224.19719 
L 102.063557 223.180008 
L 103.149358 240.378703 
L 104.23516 207.245193 
L 105.320961 227.094104 
L 106.406762 237.04962 
L 107.492563 220.035949 
L 108.578364 208.35444 
L 109.664165 230.269 
L 110.749967 215.782643 
L 111.835768 223.210845 
L 114.00737 198.18351 
L 115.093171 212.608193 
L 116.178972 206.289685 
L 117.264773 205.087479 
L 118.350575 214.857972 
L 119.436376 211.005103 
L 120.522177 199.015669 
L 121.607978 208.909511 
L 122.693779 204.37867 
L 123.77958 201.512146 
L 124.865382 204.871619 
L 125.951183 201.450471 
L 127.036984 201.296285 
L 128.122785 202.097607 
L 129.208586 199.755316 
L 130.294387 198.522273 
L 131.380189 199.477781 
L 132.46599 197.197165 
L 133.551791 201.35796 
L 134.637592 197.104653 
L 135.723393 198.923157 
L 136.809194 199.878665 
L 137.894995 199.015669 
L 138.980797 225.645647 
L 140.066598 227.094104 
L 141.152399 237.265481 
L 142.2382 220.128461 
L 143.324001 227.834198 
L 144.409802 215.258856 
L 145.495604 224.351376 
L 146.581405 218.186608 
L 147.667206 214.519209 
L 148.753007 201.851356 
L 149.838808 209.187046 
L 150.924609 204.255321 
L 152.01041 213.317003 
L 153.096212 213.47119 
L 154.182013 218.402468 
L 155.267814 228.912608 
L 156.353615 204.74827 
L 157.439416 230.792787 
L 158.525217 221.577365 
L 159.611019 213.347841 
L 160.69682 220.159298 
L 161.782621 209.556646 
L 162.868422 220.097623 
L 163.954223 211.498499 
L 165.040024 220.776043 
L 166.125825 197.320514 
L 167.211627 208.601138 
L 168.297428 197.413026 
L 169.383229 192.758836 
L 170.46903 205.457526 
L 171.554831 204.409507 
L 172.640632 201.666332 
L 173.726434 200.679987 
L 174.812235 206.72096 
L 175.898036 224.659302 
L 176.983837 222.717449 
L 178.069638 204.440344 
L 179.155439 201.419634 
L 180.24124 213.994976 
L 181.327042 210.08088 
L 182.412843 194.824038 
L 183.498644 197.413026 
L 184.584445 214.550046 
L 185.670246 209.094534 
L 186.756047 206.104662 
L 187.841849 213.255329 
L 188.92765 212.577356 
L 190.013451 200.279103 
L 191.099252 209.74167 
L 192.185053 210.512154 
L 193.270854 197.104653 
L 194.356656 204.440344 
L 195.442457 196.056634 
L 196.528258 198.923157 
L 197.614059 198.676459 
L 198.69986 199.631967 
L 199.785661 201.820518 
L 200.871462 203.053115 
L 201.957264 196.21082 
L 203.043065 199.077344 
L 204.128866 194.700689 
L 205.214667 197.413026 
L 206.300468 196.426681 
L 207.386269 199.786154 
L 208.472071 198.337697 
L 209.557872 201.728007 
L 210.643673 195.840773 
L 211.729474 202.436816 
L 212.815275 197.720952 
L 213.901076 198.645622 
L 214.986877 199.108181 
L 216.072679 199.139018 
L 217.15848 196.580867 
L 218.244281 195.563685 
L 219.330082 196.765444 
L 220.415883 199.847828 
L 221.501684 196.642542 
L 222.587486 199.847828 
L 223.673287 199.508618 
L 224.759088 199.878665 
L 225.844889 226.87869 
L 226.93069 216.707313 
L 228.016491 218.772515 
L 229.102292 216.091015 
L 230.188094 230.145651 
L 231.273895 222.347849 
L 232.359696 213.13198 
L 233.445497 232.73464 
L 234.531298 210.357968 
L 235.617099 229.159306 
L 236.702901 215.905992 
L 237.788702 209.125372 
L 238.874503 205.118317 
L 239.960304 211.591011 
L 241.046105 209.03286 
L 242.131906 212.700705 
L 243.217708 210.789689 
L 244.303509 217.693658 
L 245.38931 209.834182 
L 246.475111 224.289702 
L 247.560912 199.324042 
L 248.646713 234.830679 
L 249.732514 231.68662 
L 250.818316 204.59453 
L 251.904117 206.628448 
L 252.989918 203.114789 
L 254.075719 209.74167 
L 255.16152 217.755333 
L 256.247321 211.190127 
L 257.333123 212.515682 
L 258.418924 208.909511 
L 259.504725 211.652686 
L 260.590526 204.74827 
L 261.676327 196.55003 
L 262.762128 194.546502 
L 263.847929 208.293213 
L 264.933731 211.128452 
L 266.019532 213.255329 
L 267.105333 212.176472 
L 268.191134 214.149162 
L 269.276935 214.365023 
L 270.362736 207.954003 
L 271.448538 215.505107 
L 272.534339 201.974705 
L 273.62014 207.42977 
L 274.705941 208.446952 
L 275.791742 216.799825 
L 276.877543 207.337705 
L 277.963344 194.083944 
L 279.049146 208.632037 
L 280.134947 204.594376 
L 281.220748 202.005342 
L 282.306549 211.467647 
L 283.39235 190.971123 
L 284.478151 215.998457 
L 285.563953 199.9711 
L 286.649754 207.984779 
L 287.735555 207.306698 
L 288.821356 194.423169 
L 289.907157 197.998502 
L 290.992958 209.67998 
L 292.07876 209.67998 
L 293.164561 213.840928 
L 294.250362 195.995083 
L 295.336163 212.114905 
L 296.421964 204.779307 
L 297.507765 203.977939 
L 298.593566 205.734784 
L 299.679368 202.128629 
L 300.765169 192.388927 
L 301.85097 200.31014 
L 302.936771 223.642274 
L 304.022572 230.977872 
L 305.108373 204.779307 
L 306.194175 209.217652 
L 307.279976 201.851232 
L 308.365777 196.549876 
L 309.451578 210.542991 
L 310.537379 202.036163 
L 311.62318 202.529313 
L 312.708981 208.693681 
L 313.794783 201.789589 
L 314.880584 197.258778 
L 315.966385 193.683445 
L 317.052186 198.769048 
L 318.137987 198.46083 
L 319.223788 203.577255 
L 320.30959 213.501888 
L 321.395391 206.659439 
L 322.481192 193.868376 
L 323.566993 215.289555 
L 324.652794 191.864956 
L 325.738595 199.601238 
L 326.824396 206.043003 
L 327.910198 203.546434 
L 328.995999 192.173174 
L 330.0818 201.358083 
L 331.167601 191.217697 
L 332.253402 190.323864 
L 333.339203 196.272479 
L 334.425005 188.75195 
L 335.510806 199.508772 
L 336.596607 200.156031 
L 337.682408 192.049887 
L 338.768209 195.594399 
L 339.85401 197.412887 
L 340.939811 193.251939 
L 342.025613 189.553318 
L 343.111414 190.75537 
L 344.197215 189.707427 
L 345.283016 194.977962 
L 346.368817 190.385508 
L 347.454618 193.991663 
L 348.54042 187.91976 
L 349.626221 185.330726 
L 350.712022 189.245099 
L 351.797823 188.443732 
L 352.883624 186.933461 
L 353.969425 193.282761 
L 355.055227 191.710847 
L 356.141028 191.680025 
L 357.226829 191.525916 
L 358.31263 193.930019 
L 359.398431 193.005364 
L 360.484232 190.60126 
L 361.570033 195.008784 
L 362.655835 193.652623 
L 363.741636 193.467692 
L 364.827437 190.878657 
L 365.913238 192.573858 
L 366.999039 198.029324 
L 368.08484 195.008784 
L 369.170642 189.92318 
L 370.256443 192.789611 
L 371.342244 191.09441 
L 372.428045 199.200554 
L 373.513846 188.166335 
L 374.599647 188.721128 
L 375.685448 195.717686 
L 376.77125 199.416307 
L 377.857051 190.138933 
L 378.942852 194.330703 
L 380.028653 188.41291 
L 381.114454 195.810152 
L 382.200255 192.60468 
L 383.286057 197.96768 
L 384.371858 205.519031 
L 385.457659 196.025904 
L 386.54346 198.830692 
L 387.629261 191.032766 
L 388.715062 204.008761 
L 389.800863 191.741669 
L 390.886665 192.573858 
L 391.972466 195.871795 
L 393.058267 201.234796 
L 394.144068 199.077267 
L 395.229869 198.738226 
L 396.31567 196.210835 
L 397.401472 198.12179 
L 398.487273 191.649203 
L 398.487273 191.649203 
" clip-path="url(#pccc71dbf54)" style="fill: none; stroke: #2ca02c; stroke-width: 1.5; stroke-linecap: square"/>
   </g>
   <g id="line2d_20">
    <path d="M 368.08484 75.976376 
L 369.170642 75.842301 
L 370.256443 75.931684 
L 371.342244 74.501551 
L 372.428045 75.037851 
L 373.513846 74.233401 
L 374.599647 75.171926 
L 375.685448 75.216617 
L 376.77125 74.456859 
L 377.857051 75.037851 
L 378.942852 73.339567 
L 380.028653 75.127234 
L 381.114454 74.009942 
L 383.286057 75.261309 
L 384.371858 74.769701 
L 385.457659 74.993159 
L 386.54346 74.725009 
L 387.629261 74.188709 
L 388.715062 76.110451 
L 389.800863 73.920559 
L 390.886665 75.350692 
L 393.058267 74.188709 
L 394.144068 74.546242 
L 395.229869 75.171926 
L 396.31567 74.948467 
L 397.401472 75.484767 
L 398.487273 75.306001 
L 398.487273 75.306001 
" clip-path="url(#pccc71dbf54)" style="fill: none; stroke: #d62728; stroke-width: 1.5; stroke-linecap: square"/>
   </g>
   <g id="line2d_21">
    <path d="M 368.08484 196.580698 
L 369.170642 193.837554 
L 370.256443 193.590979 
L 371.342244 190.539617 
L 372.428045 188.227979 
L 373.513846 182.8958 
L 374.599647 185.423191 
L 375.685448 182.55676 
L 376.77125 184.775933 
L 377.857051 182.495116 
L 378.942852 180.923202 
L 380.028653 181.077312 
L 381.114454 178.950605 
L 382.200255 185.022507 
L 383.286057 194.638922 
L 384.371858 187.734829 
L 385.457659 185.392369 
L 386.54346 193.806732 
L 387.629261 183.111553 
L 388.715062 183.635524 
L 389.800863 183.234841 
L 390.886665 182.402651 
L 391.972466 182.21772 
L 393.058267 180.614984 
L 394.144068 182.525938 
L 395.229869 181.077312 
L 396.31567 181.632105 
L 397.401472 178.241702 
L 398.487273 186.378668 
L 398.487273 186.378668 
" clip-path="url(#pccc71dbf54)" style="fill: none; stroke: #9467bd; stroke-width: 1.5; stroke-linecap: square"/>
   </g>
   <g id="patch_3">
    <path d="M 57.6 307.584 
L 57.6 41.472 
" style="fill: none; stroke: #000000; stroke-width: 0.8; stroke-linejoin: miter; stroke-linecap: square"/>
   </g>
   <g id="patch_4">
    <path d="M 414.72 307.584 
L 414.72 41.472 
" style="fill: none; stroke: #000000; stroke-width: 0.8; stroke-linejoin: miter; stroke-linecap: square"/>
   </g>
   <g id="patch_5">
    <path d="M 57.6 307.584 
L 414.72 307.584 
" style="fill: none; stroke: #000000; stroke-width: 0.8; stroke-linejoin: miter; stroke-linecap: square"/>
   </g>
   <g id="patch_6">
    <path d="M 57.6 41.472 
L 414.72 41.472 
" style="fill: none; stroke: #000000; stroke-width: 0.8; stroke-linejoin: miter; stroke-linecap: square"/>
   </g>
   <g id="text_19">
    <!-- Learning Curves -->
    <g transform="translate(187.37625 35.472) scale(0.12 -0.12)">
     <defs>
      <path id="DejaVuSans-4c" d="M 628 4666 
L 1259 4666 
L 1259 531 
L 3531 531 
L 3531 0 
L 628 0 
L 628 4666 
z
" transform="scale(0.015625)"/>
      <path id="DejaVuSans-65" d="M 3597 1894 
L 3597 1613 
L 953 1613 
Q 991 1019 1311 708 
Q 1631 397 2203 397 
Q 2534 397 2845 478 
Q 3156 559 3463 722 
L 3463 178 
Q 3153 47 2828 -22 
Q 2503 -91 2169 -91 
Q 1331 -91 842 396 
Q 353 884 353 1716 
Q 353 2575 817 3079 
Q 1281 3584 2069 3584 
Q 2775 3584 3186 3129 
Q 3597 2675 3597 1894 
z
M 3022 2063 
Q 3016 2534 2758 2815 
Q 2500 3097 2075 3097 
Q 1594 3097 1305 2825 
Q 1016 2553 972 2059 
L 3022 2063 
z
" transform="scale(0.015625)"/>
      <path id="DejaVuSans-6e" d="M 3513 2113 
L 3513 0 
L 2938 0 
L 2938 2094 
Q 2938 2591 2744 2837 
Q 2550 3084 2163 3084 
Q 1697 3084 1428 2787 
Q 1159 2491 1159 1978 
L 1159 0 
L 581 0 
L 581 3500 
L 1159 3500 
L 1159 2956 
Q 1366 3272 1645 3428 
Q 1925 3584 2291 3584 
Q 2894 3584 3203 3211 
Q 3513 2838 3513 2113 
z
" transform="scale(0.015625)"/>
      <path id="DejaVuSans-69" d="M 603 3500 
L 1178 3500 
L 1178 0 
L 603 0 
L 603 3500 
z
M 603 4863 
L 1178 4863 
L 1178 4134 
L 603 4134 
L 603 4863 
z
" transform="scale(0.015625)"/>
      <path id="DejaVuSans-67" d="M 2906 1791 
Q 2906 2416 2648 2759 
Q 2391 3103 1925 3103 
Q 1463 3103 1205 2759 
Q 947 2416 947 1791 
Q 947 1169 1205 825 
Q 1463 481 1925 481 
Q 2391 481 2648 825 
Q 2906 1169 2906 1791 
z
M 3481 434 
Q 3481 -459 3084 -895 
Q 2688 -1331 1869 -1331 
Q 1566 -1331 1297 -1286 
Q 1028 -1241 775 -1147 
L 775 -588 
Q 1028 -725 1275 -790 
Q 1522 -856 1778 -856 
Q 2344 -856 2625 -561 
Q 2906 -266 2906 331 
L 2906 616 
Q 2728 306 2450 153 
Q 2172 0 1784 0 
Q 1141 0 747 490 
Q 353 981 353 1791 
Q 353 2603 747 3093 
Q 1141 3584 1784 3584 
Q 2172 3584 2450 3431 
Q 2728 3278 2906 2969 
L 2906 3500 
L 3481 3500 
L 3481 434 
z
" transform="scale(0.015625)"/>
      <path id="DejaVuSans-20" transform="scale(0.015625)"/>
      <path id="DejaVuSans-43" d="M 4122 4306 
L 4122 3641 
Q 3803 3938 3442 4084 
Q 3081 4231 2675 4231 
Q 1875 4231 1450 3742 
Q 1025 3253 1025 2328 
Q 1025 1406 1450 917 
Q 1875 428 2675 428 
Q 3081 428 3442 575 
Q 3803 722 4122 1019 
L 4122 359 
Q 3791 134 3420 21 
Q 3050 -91 2638 -91 
Q 1578 -91 968 557 
Q 359 1206 359 2328 
Q 359 3453 968 4101 
Q 1578 4750 2638 4750 
Q 3056 4750 3426 4639 
Q 3797 4528 4122 4306 
z
" transform="scale(0.015625)"/>
      <path id="DejaVuSans-76" d="M 191 3500 
L 800 3500 
L 1894 563 
L 2988 3500 
L 3597 3500 
L 2284 0 
L 1503 0 
L 191 3500 
z
" transform="scale(0.015625)"/>
     </defs>
     <use xlink:href="#DejaVuSans-4c"/>
     <use xlink:href="#DejaVuSans-65" x="53.962891"/>
     <use xlink:href="#DejaVuSans-61" x="115.486328"/>
     <use xlink:href="#DejaVuSans-72" x="176.765625"/>
     <use xlink:href="#DejaVuSans-6e" x="216.128906"/>
     <use xlink:href="#DejaVuSans-69" x="279.507812"/>
     <use xlink:href="#DejaVuSans-6e" x="307.291016"/>
     <use xlink:href="#DejaVuSans-67" x="370.669922"/>
     <use xlink:href="#DejaVuSans-20" x="434.146484"/>
     <use xlink:href="#DejaVuSans-43" x="465.933594"/>
     <use xlink:href="#DejaVuSans-75" x="535.757812"/>
     <use xlink:href="#DejaVuSans-72" x="599.136719"/>
     <use xlink:href="#DejaVuSans-76" x="640.25"/>
     <use xlink:href="#DejaVuSans-65" x="699.429688"/>
     <use xlink:href="#DejaVuSans-73" x="760.953125"/>
    </g>
   </g>
   <g id="legend_1">
    <g id="patch_7">
     <path d="M 214.18875 302.584 
L 407.72 302.584 
Q 409.72 302.584 409.72 300.584 
L 409.72 228.193375 
Q 409.72 226.193375 407.72 226.193375 
L 214.18875 226.193375 
Q 212.18875 226.193375 212.18875 228.193375 
L 212.18875 300.584 
Q 212.18875 302.584 214.18875 302.584 
z
" style="fill: #ffffff; opacity: 0.8; stroke: #cccccc; stroke-linejoin: miter"/>
    </g>
    <g id="line2d_22">
     <path d="M 216.18875 234.291812 
L 226.18875 234.291812 
L 236.18875 234.291812 
" style="fill: none; stroke: #1f77b4; stroke-width: 1.5; stroke-linecap: square"/>
    </g>
    <g id="text_20">
     <!-- Train Accuracy -->
     <g transform="translate(244.18875 237.791812) scale(0.1 -0.1)">
      <defs>
       <path id="DejaVuSans-54" d="M -19 4666 
L 3928 4666 
L 3928 4134 
L 2272 4134 
L 2272 0 
L 1638 0 
L 1638 4134 
L -19 4134 
L -19 4666 
z
" transform="scale(0.015625)"/>
      </defs>
      <use xlink:href="#DejaVuSans-54"/>
      <use xlink:href="#DejaVuSans-72" x="46.333984"/>
      <use xlink:href="#DejaVuSans-61" x="87.447266"/>
      <use xlink:href="#DejaVuSans-69" x="148.726562"/>
      <use xlink:href="#DejaVuSans-6e" x="176.509766"/>
      <use xlink:href="#DejaVuSans-20" x="239.888672"/>
      <use xlink:href="#DejaVuSans-41" x="271.675781"/>
      <use xlink:href="#DejaVuSans-63" x="338.333984"/>
      <use xlink:href="#DejaVuSans-63" x="393.314453"/>
      <use xlink:href="#DejaVuSans-75" x="448.294922"/>
      <use xlink:href="#DejaVuSans-72" x="511.673828"/>
      <use xlink:href="#DejaVuSans-61" x="552.787109"/>
      <use xlink:href="#DejaVuSans-63" x="614.066406"/>
      <use xlink:href="#DejaVuSans-79" x="669.046875"/>
     </g>
    </g>
    <g id="line2d_23">
     <path d="M 216.18875 248.969937 
L 226.18875 248.969937 
L 236.18875 248.969937 
" style="fill: none; stroke: #ff7f0e; stroke-width: 1.5; stroke-linecap: square"/>
    </g>
    <g id="text_21">
     <!-- Validation Accuracy -->
     <g transform="translate(244.18875 252.469937) scale(0.1 -0.1)">
      <defs>
       <path id="DejaVuSans-56" d="M 1831 0 
L 50 4666 
L 709 4666 
L 2188 738 
L 3669 4666 
L 4325 4666 
L 2547 0 
L 1831 0 
z
" transform="scale(0.015625)"/>
       <path id="DejaVuSans-6c" d="M 603 4863 
L 1178 4863 
L 1178 0 
L 603 0 
L 603 4863 
z
" transform="scale(0.015625)"/>
       <path id="DejaVuSans-64" d="M 2906 2969 
L 2906 4863 
L 3481 4863 
L 3481 0 
L 2906 0 
L 2906 525 
Q 2725 213 2448 61 
Q 2172 -91 1784 -91 
Q 1150 -91 751 415 
Q 353 922 353 1747 
Q 353 2572 751 3078 
Q 1150 3584 1784 3584 
Q 2172 3584 2448 3432 
Q 2725 3281 2906 2969 
z
M 947 1747 
Q 947 1113 1208 752 
Q 1469 391 1925 391 
Q 2381 391 2643 752 
Q 2906 1113 2906 1747 
Q 2906 2381 2643 2742 
Q 2381 3103 1925 3103 
Q 1469 3103 1208 2742 
Q 947 2381 947 1747 
z
" transform="scale(0.015625)"/>
       <path id="DejaVuSans-74" d="M 1172 4494 
L 1172 3500 
L 2356 3500 
L 2356 3053 
L 1172 3053 
L 1172 1153 
Q 1172 725 1289 603 
Q 1406 481 1766 481 
L 2356 481 
L 2356 0 
L 1766 0 
Q 1100 0 847 248 
Q 594 497 594 1153 
L 594 3053 
L 172 3053 
L 172 3500 
L 594 3500 
L 594 4494 
L 1172 4494 
z
" transform="scale(0.015625)"/>
      </defs>
      <use xlink:href="#DejaVuSans-56"/>
      <use xlink:href="#DejaVuSans-61" x="60.658203"/>
      <use xlink:href="#DejaVuSans-6c" x="121.9375"/>
      <use xlink:href="#DejaVuSans-69" x="149.720703"/>
      <use xlink:href="#DejaVuSans-64" x="177.503906"/>
      <use xlink:href="#DejaVuSans-61" x="240.980469"/>
      <use xlink:href="#DejaVuSans-74" x="302.259766"/>
      <use xlink:href="#DejaVuSans-69" x="341.46875"/>
      <use xlink:href="#DejaVuSans-6f" x="369.251953"/>
      <use xlink:href="#DejaVuSans-6e" x="430.433594"/>
      <use xlink:href="#DejaVuSans-20" x="493.8125"/>
      <use xlink:href="#DejaVuSans-41" x="525.599609"/>
      <use xlink:href="#DejaVuSans-63" x="592.257812"/>
      <use xlink:href="#DejaVuSans-63" x="647.238281"/>
      <use xlink:href="#DejaVuSans-75" x="702.21875"/>
      <use xlink:href="#DejaVuSans-72" x="765.597656"/>
      <use xlink:href="#DejaVuSans-61" x="806.710938"/>
      <use xlink:href="#DejaVuSans-63" x="867.990234"/>
      <use xlink:href="#DejaVuSans-79" x="922.970703"/>
     </g>
    </g>
    <g id="line2d_24">
     <path d="M 216.18875 263.648062 
L 226.18875 263.648062 
L 236.18875 263.648062 
" style="fill: none; stroke: #2ca02c; stroke-width: 1.5; stroke-linecap: square"/>
    </g>
    <g id="text_22">
     <!-- Robust Validation Accuracy -->
     <g transform="translate(244.18875 267.148062) scale(0.1 -0.1)">
      <defs>
       <path id="DejaVuSans-52" d="M 2841 2188 
Q 3044 2119 3236 1894 
Q 3428 1669 3622 1275 
L 4263 0 
L 3584 0 
L 2988 1197 
Q 2756 1666 2539 1819 
Q 2322 1972 1947 1972 
L 1259 1972 
L 1259 0 
L 628 0 
L 628 4666 
L 2053 4666 
Q 2853 4666 3247 4331 
Q 3641 3997 3641 3322 
Q 3641 2881 3436 2590 
Q 3231 2300 2841 2188 
z
M 1259 4147 
L 1259 2491 
L 2053 2491 
Q 2509 2491 2742 2702 
Q 2975 2913 2975 3322 
Q 2975 3731 2742 3939 
Q 2509 4147 2053 4147 
L 1259 4147 
z
" transform="scale(0.015625)"/>
       <path id="DejaVuSans-62" d="M 3116 1747 
Q 3116 2381 2855 2742 
Q 2594 3103 2138 3103 
Q 1681 3103 1420 2742 
Q 1159 2381 1159 1747 
Q 1159 1113 1420 752 
Q 1681 391 2138 391 
Q 2594 391 2855 752 
Q 3116 1113 3116 1747 
z
M 1159 2969 
Q 1341 3281 1617 3432 
Q 1894 3584 2278 3584 
Q 2916 3584 3314 3078 
Q 3713 2572 3713 1747 
Q 3713 922 3314 415 
Q 2916 -91 2278 -91 
Q 1894 -91 1617 61 
Q 1341 213 1159 525 
L 1159 0 
L 581 0 
L 581 4863 
L 1159 4863 
L 1159 2969 
z
" transform="scale(0.015625)"/>
      </defs>
      <use xlink:href="#DejaVuSans-52"/>
      <use xlink:href="#DejaVuSans-6f" x="64.982422"/>
      <use xlink:href="#DejaVuSans-62" x="126.164062"/>
      <use xlink:href="#DejaVuSans-75" x="189.640625"/>
      <use xlink:href="#DejaVuSans-73" x="253.019531"/>
      <use xlink:href="#DejaVuSans-74" x="305.119141"/>
      <use xlink:href="#DejaVuSans-20" x="344.328125"/>
      <use xlink:href="#DejaVuSans-56" x="376.115234"/>
      <use xlink:href="#DejaVuSans-61" x="436.773438"/>
      <use xlink:href="#DejaVuSans-6c" x="498.052734"/>
      <use xlink:href="#DejaVuSans-69" x="525.835938"/>
      <use xlink:href="#DejaVuSans-64" x="553.619141"/>
      <use xlink:href="#DejaVuSans-61" x="617.095703"/>
      <use xlink:href="#DejaVuSans-74" x="678.375"/>
      <use xlink:href="#DejaVuSans-69" x="717.583984"/>
      <use xlink:href="#DejaVuSans-6f" x="745.367188"/>
      <use xlink:href="#DejaVuSans-6e" x="806.548828"/>
      <use xlink:href="#DejaVuSans-20" x="869.927734"/>
      <use xlink:href="#DejaVuSans-41" x="901.714844"/>
      <use xlink:href="#DejaVuSans-63" x="968.373047"/>
      <use xlink:href="#DejaVuSans-63" x="1023.353516"/>
      <use xlink:href="#DejaVuSans-75" x="1078.333984"/>
      <use xlink:href="#DejaVuSans-72" x="1141.712891"/>
      <use xlink:href="#DejaVuSans-61" x="1182.826172"/>
      <use xlink:href="#DejaVuSans-63" x="1244.105469"/>
      <use xlink:href="#DejaVuSans-79" x="1299.085938"/>
     </g>
    </g>
    <g id="line2d_25">
     <path d="M 216.18875 278.326188 
L 226.18875 278.326188 
L 236.18875 278.326188 
" style="fill: none; stroke: #d62728; stroke-width: 1.5; stroke-linecap: square"/>
    </g>
    <g id="text_23">
     <!-- SWA Validation Accuracy -->
     <g transform="translate(244.18875 281.826188) scale(0.1 -0.1)">
      <defs>
       <path id="DejaVuSans-53" d="M 3425 4513 
L 3425 3897 
Q 3066 4069 2747 4153 
Q 2428 4238 2131 4238 
Q 1616 4238 1336 4038 
Q 1056 3838 1056 3469 
Q 1056 3159 1242 3001 
Q 1428 2844 1947 2747 
L 2328 2669 
Q 3034 2534 3370 2195 
Q 3706 1856 3706 1288 
Q 3706 609 3251 259 
Q 2797 -91 1919 -91 
Q 1588 -91 1214 -16 
Q 841 59 441 206 
L 441 856 
Q 825 641 1194 531 
Q 1563 422 1919 422 
Q 2459 422 2753 634 
Q 3047 847 3047 1241 
Q 3047 1584 2836 1778 
Q 2625 1972 2144 2069 
L 1759 2144 
Q 1053 2284 737 2584 
Q 422 2884 422 3419 
Q 422 4038 858 4394 
Q 1294 4750 2059 4750 
Q 2388 4750 2728 4690 
Q 3069 4631 3425 4513 
z
" transform="scale(0.015625)"/>
       <path id="DejaVuSans-57" d="M 213 4666 
L 850 4666 
L 1831 722 
L 2809 4666 
L 3519 4666 
L 4500 722 
L 5478 4666 
L 6119 4666 
L 4947 0 
L 4153 0 
L 3169 4050 
L 2175 0 
L 1381 0 
L 213 4666 
z
" transform="scale(0.015625)"/>
      </defs>
      <use xlink:href="#DejaVuSans-53"/>
      <use xlink:href="#DejaVuSans-57" x="63.476562"/>
      <use xlink:href="#DejaVuSans-41" x="156.853516"/>
      <use xlink:href="#DejaVuSans-20" x="225.261719"/>
      <use xlink:href="#DejaVuSans-56" x="257.048828"/>
      <use xlink:href="#DejaVuSans-61" x="317.707031"/>
      <use xlink:href="#DejaVuSans-6c" x="378.986328"/>
      <use xlink:href="#DejaVuSans-69" x="406.769531"/>
      <use xlink:href="#DejaVuSans-64" x="434.552734"/>
      <use xlink:href="#DejaVuSans-61" x="498.029297"/>
      <use xlink:href="#DejaVuSans-74" x="559.308594"/>
      <use xlink:href="#DejaVuSans-69" x="598.517578"/>
      <use xlink:href="#DejaVuSans-6f" x="626.300781"/>
      <use xlink:href="#DejaVuSans-6e" x="687.482422"/>
      <use xlink:href="#DejaVuSans-20" x="750.861328"/>
      <use xlink:href="#DejaVuSans-41" x="782.648438"/>
      <use xlink:href="#DejaVuSans-63" x="849.306641"/>
      <use xlink:href="#DejaVuSans-63" x="904.287109"/>
      <use xlink:href="#DejaVuSans-75" x="959.267578"/>
      <use xlink:href="#DejaVuSans-72" x="1022.646484"/>
      <use xlink:href="#DejaVuSans-61" x="1063.759766"/>
      <use xlink:href="#DejaVuSans-63" x="1125.039062"/>
      <use xlink:href="#DejaVuSans-79" x="1180.019531"/>
     </g>
    </g>
    <g id="line2d_26">
     <path d="M 216.18875 293.004312 
L 226.18875 293.004312 
L 236.18875 293.004312 
" style="fill: none; stroke: #9467bd; stroke-width: 1.5; stroke-linecap: square"/>
    </g>
    <g id="text_24">
     <!-- SWA Robust Validation Accuracy -->
     <g transform="translate(244.18875 296.504312) scale(0.1 -0.1)">
      <use xlink:href="#DejaVuSans-53"/>
      <use xlink:href="#DejaVuSans-57" x="63.476562"/>
      <use xlink:href="#DejaVuSans-41" x="156.853516"/>
      <use xlink:href="#DejaVuSans-20" x="225.261719"/>
      <use xlink:href="#DejaVuSans-52" x="257.048828"/>
      <use xlink:href="#DejaVuSans-6f" x="322.03125"/>
      <use xlink:href="#DejaVuSans-62" x="383.212891"/>
      <use xlink:href="#DejaVuSans-75" x="446.689453"/>
      <use xlink:href="#DejaVuSans-73" x="510.068359"/>
      <use xlink:href="#DejaVuSans-74" x="562.167969"/>
      <use xlink:href="#DejaVuSans-20" x="601.376953"/>
      <use xlink:href="#DejaVuSans-56" x="633.164062"/>
      <use xlink:href="#DejaVuSans-61" x="693.822266"/>
      <use xlink:href="#DejaVuSans-6c" x="755.101562"/>
      <use xlink:href="#DejaVuSans-69" x="782.884766"/>
      <use xlink:href="#DejaVuSans-64" x="810.667969"/>
      <use xlink:href="#DejaVuSans-61" x="874.144531"/>
      <use xlink:href="#DejaVuSans-74" x="935.423828"/>
      <use xlink:href="#DejaVuSans-69" x="974.632812"/>
      <use xlink:href="#DejaVuSans-6f" x="1002.416016"/>
      <use xlink:href="#DejaVuSans-6e" x="1063.597656"/>
      <use xlink:href="#DejaVuSans-20" x="1126.976562"/>
      <use xlink:href="#DejaVuSans-41" x="1158.763672"/>
      <use xlink:href="#DejaVuSans-63" x="1225.421875"/>
      <use xlink:href="#DejaVuSans-63" x="1280.402344"/>
      <use xlink:href="#DejaVuSans-75" x="1335.382812"/>
      <use xlink:href="#DejaVuSans-72" x="1398.761719"/>
      <use xlink:href="#DejaVuSans-61" x="1439.875"/>
      <use xlink:href="#DejaVuSans-63" x="1501.154297"/>
      <use xlink:href="#DejaVuSans-79" x="1556.134766"/>
     </g>
    </g>
   </g>
  </g>
 </g>
 <defs>
  <clipPath id="pccc71dbf54">
   <rect x="57.6" y="41.472" width="357.12" height="266.112"/>
  </clipPath>
 </defs>
</svg>
