<?xml version="1.0" encoding="utf-8" standalone="no"?>
<!DOCTYPE svg PUBLIC "-//W3C//DTD SVG 1.1//EN"
  "http://www.w3.org/Graphics/SVG/1.1/DTD/svg11.dtd">
<svg xmlns:xlink="http://www.w3.org/1999/xlink" width="460.8pt" height="345.6pt" viewBox="0 0 460.8 345.6" xmlns="http://www.w3.org/2000/svg" version="1.1">
 <metadata>
  <rdf:RDF xmlns:dc="http://purl.org/dc/elements/1.1/" xmlns:cc="http://creativecommons.org/ns#" xmlns:rdf="http://www.w3.org/1999/02/22-rdf-syntax-ns#">
   <cc:Work>
    <dc:type rdf:resource="http://purl.org/dc/dcmitype/StillImage"/>
    <dc:date>2025-01-14T06:10:20.131898</dc:date>
    <dc:format>image/svg+xml</dc:format>
    <dc:creator>
     <cc:Agent>
      <dc:title>Matplotlib v3.9.1, https://matplotlib.org/</dc:title>
     </cc:Agent>
    </dc:creator>
   </cc:Work>
  </rdf:RDF>
 </metadata>
 <defs>
  <style type="text/css">*{stroke-linejoin: round; stroke-linecap: butt}</style>
 </defs>
 <g id="figure_1">
  <g id="patch_1">
   <path d="M 0 345.6 
L 460.8 345.6 
L 460.8 0 
L 0 0 
z
" style="fill: #ffffff"/>
  </g>
  <g id="axes_1">
   <g id="patch_2">
    <path d="M 57.6 307.584 
L 414.72 307.584 
L 414.72 41.472 
L 57.6 41.472 
z
" style="fill: #ffffff"/>
   </g>
   <g id="matplotlib.axis_1">
    <g id="xtick_1">
     <g id="line2d_1">
      <defs>
       <path id="ma111e65456" d="M 0 0 
L 0 3.5 
" style="stroke: #000000; stroke-width: 0.8"/>
      </defs>
      <g>
       <use xlink:href="#ma111e65456" x="73.832727" y="307.584" style="stroke: #000000; stroke-width: 0.8"/>
      </g>
     </g>
     <g id="text_1">
      <!-- 1 -->
      <g transform="translate(70.651477 322.182437) scale(0.1 -0.1)">
       <defs>
        <path id="DejaVuSans-31" d="M 794 531 
L 1825 531 
L 1825 4091 
L 703 3866 
L 703 4441 
L 1819 4666 
L 2450 4666 
L 2450 531 
L 3481 531 
L 3481 0 
L 794 0 
L 794 531 
z
" transform="scale(0.015625)"/>
       </defs>
       <use xlink:href="#DejaVuSans-31"/>
      </g>
     </g>
    </g>
    <g id="xtick_2">
     <g id="line2d_2">
      <g>
       <use xlink:href="#ma111e65456" x="109.664165" y="307.584" style="stroke: #000000; stroke-width: 0.8"/>
      </g>
     </g>
     <g id="text_2">
      <!-- 34 -->
      <g transform="translate(103.301665 322.182437) scale(0.1 -0.1)">
       <defs>
        <path id="DejaVuSans-33" d="M 2597 2516 
Q 3050 2419 3304 2112 
Q 3559 1806 3559 1356 
Q 3559 666 3084 287 
Q 2609 -91 1734 -91 
Q 1441 -91 1130 -33 
Q 819 25 488 141 
L 488 750 
Q 750 597 1062 519 
Q 1375 441 1716 441 
Q 2309 441 2620 675 
Q 2931 909 2931 1356 
Q 2931 1769 2642 2001 
Q 2353 2234 1838 2234 
L 1294 2234 
L 1294 2753 
L 1863 2753 
Q 2328 2753 2575 2939 
Q 2822 3125 2822 3475 
Q 2822 3834 2567 4026 
Q 2313 4219 1838 4219 
Q 1578 4219 1281 4162 
Q 984 4106 628 3988 
L 628 4550 
Q 988 4650 1302 4700 
Q 1616 4750 1894 4750 
Q 2613 4750 3031 4423 
Q 3450 4097 3450 3541 
Q 3450 3153 3228 2886 
Q 3006 2619 2597 2516 
z
" transform="scale(0.015625)"/>
        <path id="DejaVuSans-34" d="M 2419 4116 
L 825 1625 
L 2419 1625 
L 2419 4116 
z
M 2253 4666 
L 3047 4666 
L 3047 1625 
L 3713 1625 
L 3713 1100 
L 3047 1100 
L 3047 0 
L 2419 0 
L 2419 1100 
L 313 1100 
L 313 1709 
L 2253 4666 
z
" transform="scale(0.015625)"/>
       </defs>
       <use xlink:href="#DejaVuSans-33"/>
       <use xlink:href="#DejaVuSans-34" x="63.623047"/>
      </g>
     </g>
    </g>
    <g id="xtick_3">
     <g id="line2d_3">
      <g>
       <use xlink:href="#ma111e65456" x="145.495604" y="307.584" style="stroke: #000000; stroke-width: 0.8"/>
      </g>
     </g>
     <g id="text_3">
      <!-- 67 -->
      <g transform="translate(139.133104 322.182437) scale(0.1 -0.1)">
       <defs>
        <path id="DejaVuSans-36" d="M 2113 2584 
Q 1688 2584 1439 2293 
Q 1191 2003 1191 1497 
Q 1191 994 1439 701 
Q 1688 409 2113 409 
Q 2538 409 2786 701 
Q 3034 994 3034 1497 
Q 3034 2003 2786 2293 
Q 2538 2584 2113 2584 
z
M 3366 4563 
L 3366 3988 
Q 3128 4100 2886 4159 
Q 2644 4219 2406 4219 
Q 1781 4219 1451 3797 
Q 1122 3375 1075 2522 
Q 1259 2794 1537 2939 
Q 1816 3084 2150 3084 
Q 2853 3084 3261 2657 
Q 3669 2231 3669 1497 
Q 3669 778 3244 343 
Q 2819 -91 2113 -91 
Q 1303 -91 875 529 
Q 447 1150 447 2328 
Q 447 3434 972 4092 
Q 1497 4750 2381 4750 
Q 2619 4750 2861 4703 
Q 3103 4656 3366 4563 
z
" transform="scale(0.015625)"/>
        <path id="DejaVuSans-37" d="M 525 4666 
L 3525 4666 
L 3525 4397 
L 1831 0 
L 1172 0 
L 2766 4134 
L 525 4134 
L 525 4666 
z
" transform="scale(0.015625)"/>
       </defs>
       <use xlink:href="#DejaVuSans-36"/>
       <use xlink:href="#DejaVuSans-37" x="63.623047"/>
      </g>
     </g>
    </g>
    <g id="xtick_4">
     <g id="line2d_4">
      <g>
       <use xlink:href="#ma111e65456" x="181.327042" y="307.584" style="stroke: #000000; stroke-width: 0.8"/>
      </g>
     </g>
     <g id="text_4">
      <!-- 100 -->
      <g transform="translate(171.783292 322.182437) scale(0.1 -0.1)">
       <defs>
        <path id="DejaVuSans-30" d="M 2034 4250 
Q 1547 4250 1301 3770 
Q 1056 3291 1056 2328 
Q 1056 1369 1301 889 
Q 1547 409 2034 409 
Q 2525 409 2770 889 
Q 3016 1369 3016 2328 
Q 3016 3291 2770 3770 
Q 2525 4250 2034 4250 
z
M 2034 4750 
Q 2819 4750 3233 4129 
Q 3647 3509 3647 2328 
Q 3647 1150 3233 529 
Q 2819 -91 2034 -91 
Q 1250 -91 836 529 
Q 422 1150 422 2328 
Q 422 3509 836 4129 
Q 1250 4750 2034 4750 
z
" transform="scale(0.015625)"/>
       </defs>
       <use xlink:href="#DejaVuSans-31"/>
       <use xlink:href="#DejaVuSans-30" x="63.623047"/>
       <use xlink:href="#DejaVuSans-30" x="127.246094"/>
      </g>
     </g>
    </g>
    <g id="xtick_5">
     <g id="line2d_5">
      <g>
       <use xlink:href="#ma111e65456" x="217.15848" y="307.584" style="stroke: #000000; stroke-width: 0.8"/>
      </g>
     </g>
     <g id="text_5">
      <!-- 133 -->
      <g transform="translate(207.61473 322.182437) scale(0.1 -0.1)">
       <use xlink:href="#DejaVuSans-31"/>
       <use xlink:href="#DejaVuSans-33" x="63.623047"/>
       <use xlink:href="#DejaVuSans-33" x="127.246094"/>
      </g>
     </g>
    </g>
    <g id="xtick_6">
     <g id="line2d_6">
      <g>
       <use xlink:href="#ma111e65456" x="254.075719" y="307.584" style="stroke: #000000; stroke-width: 0.8"/>
      </g>
     </g>
     <g id="text_6">
      <!-- 167 -->
      <g transform="translate(244.531969 322.182437) scale(0.1 -0.1)">
       <use xlink:href="#DejaVuSans-31"/>
       <use xlink:href="#DejaVuSans-36" x="63.623047"/>
       <use xlink:href="#DejaVuSans-37" x="127.246094"/>
      </g>
     </g>
    </g>
    <g id="xtick_7">
     <g id="line2d_7">
      <g>
       <use xlink:href="#ma111e65456" x="289.907157" y="307.584" style="stroke: #000000; stroke-width: 0.8"/>
      </g>
     </g>
     <g id="text_7">
      <!-- 200 -->
      <g transform="translate(280.363407 322.182437) scale(0.1 -0.1)">
       <defs>
        <path id="DejaVuSans-32" d="M 1228 531 
L 3431 531 
L 3431 0 
L 469 0 
L 469 531 
Q 828 903 1448 1529 
Q 2069 2156 2228 2338 
Q 2531 2678 2651 2914 
Q 2772 3150 2772 3378 
Q 2772 3750 2511 3984 
Q 2250 4219 1831 4219 
Q 1534 4219 1204 4116 
Q 875 4013 500 3803 
L 500 4441 
Q 881 4594 1212 4672 
Q 1544 4750 1819 4750 
Q 2544 4750 2975 4387 
Q 3406 4025 3406 3419 
Q 3406 3131 3298 2873 
Q 3191 2616 2906 2266 
Q 2828 2175 2409 1742 
Q 1991 1309 1228 531 
z
" transform="scale(0.015625)"/>
       </defs>
       <use xlink:href="#DejaVuSans-32"/>
       <use xlink:href="#DejaVuSans-30" x="63.623047"/>
       <use xlink:href="#DejaVuSans-30" x="127.246094"/>
      </g>
     </g>
    </g>
    <g id="xtick_8">
     <g id="line2d_8">
      <g>
       <use xlink:href="#ma111e65456" x="325.738595" y="307.584" style="stroke: #000000; stroke-width: 0.8"/>
      </g>
     </g>
     <g id="text_8">
      <!-- 233 -->
      <g transform="translate(316.194845 322.182437) scale(0.1 -0.1)">
       <use xlink:href="#DejaVuSans-32"/>
       <use xlink:href="#DejaVuSans-33" x="63.623047"/>
       <use xlink:href="#DejaVuSans-33" x="127.246094"/>
      </g>
     </g>
    </g>
    <g id="xtick_9">
     <g id="line2d_9">
      <g>
       <use xlink:href="#ma111e65456" x="361.570033" y="307.584" style="stroke: #000000; stroke-width: 0.8"/>
      </g>
     </g>
     <g id="text_9">
      <!-- 266 -->
      <g transform="translate(352.026283 322.182437) scale(0.1 -0.1)">
       <use xlink:href="#DejaVuSans-32"/>
       <use xlink:href="#DejaVuSans-36" x="63.623047"/>
       <use xlink:href="#DejaVuSans-36" x="127.246094"/>
      </g>
     </g>
    </g>
    <g id="xtick_10">
     <g id="line2d_10">
      <g>
       <use xlink:href="#ma111e65456" x="398.487273" y="307.584" style="stroke: #000000; stroke-width: 0.8"/>
      </g>
     </g>
     <g id="text_10">
      <!-- 300 -->
      <g transform="translate(388.943523 322.182437) scale(0.1 -0.1)">
       <use xlink:href="#DejaVuSans-33"/>
       <use xlink:href="#DejaVuSans-30" x="63.623047"/>
       <use xlink:href="#DejaVuSans-30" x="127.246094"/>
      </g>
     </g>
    </g>
    <g id="text_11">
     <!-- Epochs -->
     <g transform="translate(218.244375 335.860562) scale(0.1 -0.1)">
      <defs>
       <path id="DejaVuSans-45" d="M 628 4666 
L 3578 4666 
L 3578 4134 
L 1259 4134 
L 1259 2753 
L 3481 2753 
L 3481 2222 
L 1259 2222 
L 1259 531 
L 3634 531 
L 3634 0 
L 628 0 
L 628 4666 
z
" transform="scale(0.015625)"/>
       <path id="DejaVuSans-70" d="M 1159 525 
L 1159 -1331 
L 581 -1331 
L 581 3500 
L 1159 3500 
L 1159 2969 
Q 1341 3281 1617 3432 
Q 1894 3584 2278 3584 
Q 2916 3584 3314 3078 
Q 3713 2572 3713 1747 
Q 3713 922 3314 415 
Q 2916 -91 2278 -91 
Q 1894 -91 1617 61 
Q 1341 213 1159 525 
z
M 3116 1747 
Q 3116 2381 2855 2742 
Q 2594 3103 2138 3103 
Q 1681 3103 1420 2742 
Q 1159 2381 1159 1747 
Q 1159 1113 1420 752 
Q 1681 391 2138 391 
Q 2594 391 2855 752 
Q 3116 1113 3116 1747 
z
" transform="scale(0.015625)"/>
       <path id="DejaVuSans-6f" d="M 1959 3097 
Q 1497 3097 1228 2736 
Q 959 2375 959 1747 
Q 959 1119 1226 758 
Q 1494 397 1959 397 
Q 2419 397 2687 759 
Q 2956 1122 2956 1747 
Q 2956 2369 2687 2733 
Q 2419 3097 1959 3097 
z
M 1959 3584 
Q 2709 3584 3137 3096 
Q 3566 2609 3566 1747 
Q 3566 888 3137 398 
Q 2709 -91 1959 -91 
Q 1206 -91 779 398 
Q 353 888 353 1747 
Q 353 2609 779 3096 
Q 1206 3584 1959 3584 
z
" transform="scale(0.015625)"/>
       <path id="DejaVuSans-63" d="M 3122 3366 
L 3122 2828 
Q 2878 2963 2633 3030 
Q 2388 3097 2138 3097 
Q 1578 3097 1268 2742 
Q 959 2388 959 1747 
Q 959 1106 1268 751 
Q 1578 397 2138 397 
Q 2388 397 2633 464 
Q 2878 531 3122 666 
L 3122 134 
Q 2881 22 2623 -34 
Q 2366 -91 2075 -91 
Q 1284 -91 818 406 
Q 353 903 353 1747 
Q 353 2603 823 3093 
Q 1294 3584 2113 3584 
Q 2378 3584 2631 3529 
Q 2884 3475 3122 3366 
z
" transform="scale(0.015625)"/>
       <path id="DejaVuSans-68" d="M 3513 2113 
L 3513 0 
L 2938 0 
L 2938 2094 
Q 2938 2591 2744 2837 
Q 2550 3084 2163 3084 
Q 1697 3084 1428 2787 
Q 1159 2491 1159 1978 
L 1159 0 
L 581 0 
L 581 4863 
L 1159 4863 
L 1159 2956 
Q 1366 3272 1645 3428 
Q 1925 3584 2291 3584 
Q 2894 3584 3203 3211 
Q 3513 2838 3513 2113 
z
" transform="scale(0.015625)"/>
       <path id="DejaVuSans-73" d="M 2834 3397 
L 2834 2853 
Q 2591 2978 2328 3040 
Q 2066 3103 1784 3103 
Q 1356 3103 1142 2972 
Q 928 2841 928 2578 
Q 928 2378 1081 2264 
Q 1234 2150 1697 2047 
L 1894 2003 
Q 2506 1872 2764 1633 
Q 3022 1394 3022 966 
Q 3022 478 2636 193 
Q 2250 -91 1575 -91 
Q 1294 -91 989 -36 
Q 684 19 347 128 
L 347 722 
Q 666 556 975 473 
Q 1284 391 1588 391 
Q 1994 391 2212 530 
Q 2431 669 2431 922 
Q 2431 1156 2273 1281 
Q 2116 1406 1581 1522 
L 1381 1569 
Q 847 1681 609 1914 
Q 372 2147 372 2553 
Q 372 3047 722 3315 
Q 1072 3584 1716 3584 
Q 2034 3584 2315 3537 
Q 2597 3491 2834 3397 
z
" transform="scale(0.015625)"/>
      </defs>
      <use xlink:href="#DejaVuSans-45"/>
      <use xlink:href="#DejaVuSans-70" x="63.183594"/>
      <use xlink:href="#DejaVuSans-6f" x="126.660156"/>
      <use xlink:href="#DejaVuSans-63" x="187.841797"/>
      <use xlink:href="#DejaVuSans-68" x="242.822266"/>
      <use xlink:href="#DejaVuSans-73" x="306.201172"/>
     </g>
    </g>
   </g>
   <g id="matplotlib.axis_2">
    <g id="ytick_1">
     <g id="line2d_11">
      <defs>
       <path id="m3c8d00047a" d="M 0 0 
L -3.5 0 
" style="stroke: #000000; stroke-width: 0.8"/>
      </defs>
      <g>
       <use xlink:href="#m3c8d00047a" x="57.6" y="278.362326" style="stroke: #000000; stroke-width: 0.8"/>
      </g>
     </g>
     <g id="text_12">
      <!-- 40 -->
      <g transform="translate(37.875 282.161545) scale(0.1 -0.1)">
       <use xlink:href="#DejaVuSans-34"/>
       <use xlink:href="#DejaVuSans-30" x="63.623047"/>
      </g>
     </g>
    </g>
    <g id="ytick_2">
     <g id="line2d_12">
      <g>
       <use xlink:href="#m3c8d00047a" x="57.6" y="238.646014" style="stroke: #000000; stroke-width: 0.8"/>
      </g>
     </g>
     <g id="text_13">
      <!-- 50 -->
      <g transform="translate(37.875 242.445233) scale(0.1 -0.1)">
       <defs>
        <path id="DejaVuSans-35" d="M 691 4666 
L 3169 4666 
L 3169 4134 
L 1269 4134 
L 1269 2991 
Q 1406 3038 1543 3061 
Q 1681 3084 1819 3084 
Q 2600 3084 3056 2656 
Q 3513 2228 3513 1497 
Q 3513 744 3044 326 
Q 2575 -91 1722 -91 
Q 1428 -91 1123 -41 
Q 819 9 494 109 
L 494 744 
Q 775 591 1075 516 
Q 1375 441 1709 441 
Q 2250 441 2565 725 
Q 2881 1009 2881 1497 
Q 2881 1984 2565 2268 
Q 2250 2553 1709 2553 
Q 1456 2553 1204 2497 
Q 953 2441 691 2322 
L 691 4666 
z
" transform="scale(0.015625)"/>
       </defs>
       <use xlink:href="#DejaVuSans-35"/>
       <use xlink:href="#DejaVuSans-30" x="63.623047"/>
      </g>
     </g>
    </g>
    <g id="ytick_3">
     <g id="line2d_13">
      <g>
       <use xlink:href="#m3c8d00047a" x="57.6" y="198.929702" style="stroke: #000000; stroke-width: 0.8"/>
      </g>
     </g>
     <g id="text_14">
      <!-- 60 -->
      <g transform="translate(37.875 202.728921) scale(0.1 -0.1)">
       <use xlink:href="#DejaVuSans-36"/>
       <use xlink:href="#DejaVuSans-30" x="63.623047"/>
      </g>
     </g>
    </g>
    <g id="ytick_4">
     <g id="line2d_14">
      <g>
       <use xlink:href="#m3c8d00047a" x="57.6" y="159.21339" style="stroke: #000000; stroke-width: 0.8"/>
      </g>
     </g>
     <g id="text_15">
      <!-- 70 -->
      <g transform="translate(37.875 163.012609) scale(0.1 -0.1)">
       <use xlink:href="#DejaVuSans-37"/>
       <use xlink:href="#DejaVuSans-30" x="63.623047"/>
      </g>
     </g>
    </g>
    <g id="ytick_5">
     <g id="line2d_15">
      <g>
       <use xlink:href="#m3c8d00047a" x="57.6" y="119.497078" style="stroke: #000000; stroke-width: 0.8"/>
      </g>
     </g>
     <g id="text_16">
      <!-- 80 -->
      <g transform="translate(37.875 123.296297) scale(0.1 -0.1)">
       <defs>
        <path id="DejaVuSans-38" d="M 2034 2216 
Q 1584 2216 1326 1975 
Q 1069 1734 1069 1313 
Q 1069 891 1326 650 
Q 1584 409 2034 409 
Q 2484 409 2743 651 
Q 3003 894 3003 1313 
Q 3003 1734 2745 1975 
Q 2488 2216 2034 2216 
z
M 1403 2484 
Q 997 2584 770 2862 
Q 544 3141 544 3541 
Q 544 4100 942 4425 
Q 1341 4750 2034 4750 
Q 2731 4750 3128 4425 
Q 3525 4100 3525 3541 
Q 3525 3141 3298 2862 
Q 3072 2584 2669 2484 
Q 3125 2378 3379 2068 
Q 3634 1759 3634 1313 
Q 3634 634 3220 271 
Q 2806 -91 2034 -91 
Q 1263 -91 848 271 
Q 434 634 434 1313 
Q 434 1759 690 2068 
Q 947 2378 1403 2484 
z
M 1172 3481 
Q 1172 3119 1398 2916 
Q 1625 2713 2034 2713 
Q 2441 2713 2670 2916 
Q 2900 3119 2900 3481 
Q 2900 3844 2670 4047 
Q 2441 4250 2034 4250 
Q 1625 4250 1398 4047 
Q 1172 3844 1172 3481 
z
" transform="scale(0.015625)"/>
       </defs>
       <use xlink:href="#DejaVuSans-38"/>
       <use xlink:href="#DejaVuSans-30" x="63.623047"/>
      </g>
     </g>
    </g>
    <g id="ytick_6">
     <g id="line2d_16">
      <g>
       <use xlink:href="#m3c8d00047a" x="57.6" y="79.780766" style="stroke: #000000; stroke-width: 0.8"/>
      </g>
     </g>
     <g id="text_17">
      <!-- 90 -->
      <g transform="translate(37.875 83.579985) scale(0.1 -0.1)">
       <defs>
        <path id="DejaVuSans-39" d="M 703 97 
L 703 672 
Q 941 559 1184 500 
Q 1428 441 1663 441 
Q 2288 441 2617 861 
Q 2947 1281 2994 2138 
Q 2813 1869 2534 1725 
Q 2256 1581 1919 1581 
Q 1219 1581 811 2004 
Q 403 2428 403 3163 
Q 403 3881 828 4315 
Q 1253 4750 1959 4750 
Q 2769 4750 3195 4129 
Q 3622 3509 3622 2328 
Q 3622 1225 3098 567 
Q 2575 -91 1691 -91 
Q 1453 -91 1209 -44 
Q 966 3 703 97 
z
M 1959 2075 
Q 2384 2075 2632 2365 
Q 2881 2656 2881 3163 
Q 2881 3666 2632 3958 
Q 2384 4250 1959 4250 
Q 1534 4250 1286 3958 
Q 1038 3666 1038 3163 
Q 1038 2656 1286 2365 
Q 1534 2075 1959 2075 
z
" transform="scale(0.015625)"/>
       </defs>
       <use xlink:href="#DejaVuSans-39"/>
       <use xlink:href="#DejaVuSans-30" x="63.623047"/>
      </g>
     </g>
    </g>
    <g id="text_18">
     <!-- Accuracy -->
     <g transform="translate(31.795312 197.356125) rotate(-90) scale(0.1 -0.1)">
      <defs>
       <path id="DejaVuSans-41" d="M 2188 4044 
L 1331 1722 
L 3047 1722 
L 2188 4044 
z
M 1831 4666 
L 2547 4666 
L 4325 0 
L 3669 0 
L 3244 1197 
L 1141 1197 
L 716 0 
L 50 0 
L 1831 4666 
z
" transform="scale(0.015625)"/>
       <path id="DejaVuSans-75" d="M 544 1381 
L 544 3500 
L 1119 3500 
L 1119 1403 
Q 1119 906 1312 657 
Q 1506 409 1894 409 
Q 2359 409 2629 706 
Q 2900 1003 2900 1516 
L 2900 3500 
L 3475 3500 
L 3475 0 
L 2900 0 
L 2900 538 
Q 2691 219 2414 64 
Q 2138 -91 1772 -91 
Q 1169 -91 856 284 
Q 544 659 544 1381 
z
M 1991 3584 
L 1991 3584 
z
" transform="scale(0.015625)"/>
       <path id="DejaVuSans-72" d="M 2631 2963 
Q 2534 3019 2420 3045 
Q 2306 3072 2169 3072 
Q 1681 3072 1420 2755 
Q 1159 2438 1159 1844 
L 1159 0 
L 581 0 
L 581 3500 
L 1159 3500 
L 1159 2956 
Q 1341 3275 1631 3429 
Q 1922 3584 2338 3584 
Q 2397 3584 2469 3576 
Q 2541 3569 2628 3553 
L 2631 2963 
z
" transform="scale(0.015625)"/>
       <path id="DejaVuSans-61" d="M 2194 1759 
Q 1497 1759 1228 1600 
Q 959 1441 959 1056 
Q 959 750 1161 570 
Q 1363 391 1709 391 
Q 2188 391 2477 730 
Q 2766 1069 2766 1631 
L 2766 1759 
L 2194 1759 
z
M 3341 1997 
L 3341 0 
L 2766 0 
L 2766 531 
Q 2569 213 2275 61 
Q 1981 -91 1556 -91 
Q 1019 -91 701 211 
Q 384 513 384 1019 
Q 384 1609 779 1909 
Q 1175 2209 1959 2209 
L 2766 2209 
L 2766 2266 
Q 2766 2663 2505 2880 
Q 2244 3097 1772 3097 
Q 1472 3097 1187 3025 
Q 903 2953 641 2809 
L 641 3341 
Q 956 3463 1253 3523 
Q 1550 3584 1831 3584 
Q 2591 3584 2966 3190 
Q 3341 2797 3341 1997 
z
" transform="scale(0.015625)"/>
       <path id="DejaVuSans-79" d="M 2059 -325 
Q 1816 -950 1584 -1140 
Q 1353 -1331 966 -1331 
L 506 -1331 
L 506 -850 
L 844 -850 
Q 1081 -850 1212 -737 
Q 1344 -625 1503 -206 
L 1606 56 
L 191 3500 
L 800 3500 
L 1894 763 
L 2988 3500 
L 3597 3500 
L 2059 -325 
z
" transform="scale(0.015625)"/>
      </defs>
      <use xlink:href="#DejaVuSans-41"/>
      <use xlink:href="#DejaVuSans-63" x="66.658203"/>
      <use xlink:href="#DejaVuSans-63" x="121.638672"/>
      <use xlink:href="#DejaVuSans-75" x="176.619141"/>
      <use xlink:href="#DejaVuSans-72" x="239.998047"/>
      <use xlink:href="#DejaVuSans-61" x="281.111328"/>
      <use xlink:href="#DejaVuSans-63" x="342.390625"/>
      <use xlink:href="#DejaVuSans-79" x="397.371094"/>
     </g>
    </g>
   </g>
   <g id="line2d_17">
    <path d="M 73.832727 295.488 
L 74.918528 218.93878 
L 76.00433 184.695376 
L 77.090131 163.66956 
L 78.175932 152.421901 
L 79.261733 142.333957 
L 81.433335 131.682043 
L 82.519137 126.360057 
L 84.690739 117.479489 
L 85.77654 114.198922 
L 86.862341 110.537078 
L 89.033943 104.984738 
L 90.119745 102.935376 
L 91.205546 98.518922 
L 92.291347 96.668142 
L 93.377148 96.255092 
L 94.462949 96.44573 
L 95.54875 121.10956 
L 96.634552 121.395518 
L 97.720353 117.408 
L 98.806154 115.739915 
L 99.891955 114.993248 
L 100.977756 111.823887 
L 102.063557 110.926298 
L 103.149358 109.099348 
L 104.23516 108.003177 
L 105.320961 106.398638 
L 106.406762 103.94417 
L 108.578364 102.331688 
L 109.664165 101.728 
L 110.749967 99.368851 
L 111.835768 98.979631 
L 112.921569 97.899348 
L 114.00737 96.564879 
L 115.093171 95.587858 
L 116.178972 93.729135 
L 117.264773 93.530553 
L 118.350575 91.60034 
L 119.436376 89.948142 
L 120.522177 89.77339 
L 121.607978 88.65339 
L 122.693779 86.993248 
L 123.77958 86.07183 
L 124.865382 85.976511 
L 125.951183 84.90417 
L 127.036984 84.58644 
L 128.122785 82.036652 
L 129.208586 81.464738 
L 130.294387 80.749844 
L 131.380189 79.899915 
L 132.46599 79.764879 
L 133.551791 78.867291 
L 134.637592 78.152397 
L 135.723393 77.612255 
L 136.809194 78.200057 
L 137.894995 77.334241 
L 138.980797 100.163177 
L 140.066598 101.70417 
L 141.152399 100.623887 
L 142.2382 99.09878 
L 143.324001 98.788993 
L 144.409802 99.305305 
L 145.495604 97.970837 
L 146.581405 98.518922 
L 147.667206 96.326582 
L 148.753007 96.795234 
L 149.838808 96.644312 
L 150.924609 94.658496 
L 152.01041 93.657645 
L 153.096212 94.054809 
L 154.182013 93.760908 
L 155.267814 93.91183 
L 156.353615 93.212823 
L 157.439416 93.355801 
L 158.525217 92.418496 
L 159.611019 90.432681 
L 160.69682 91.33027 
L 161.782621 90.432681 
L 163.954223 90.297645 
L 165.040024 89.43183 
L 166.125825 89.686014 
L 167.211627 88.550128 
L 168.297428 88.049702 
L 169.383229 88.518355 
L 170.46903 87.843177 
L 172.640632 85.857362 
L 173.726434 85.476085 
L 175.898036 85.484028 
L 176.983837 84.840624 
L 179.155439 84.340199 
L 180.24124 83.172539 
L 181.327042 83.236085 
L 182.412843 82.092255 
L 183.498644 81.623603 
L 184.584445 81.814241 
L 185.670246 80.185872 
L 186.756047 80.845163 
L 187.841849 81.139064 
L 188.92765 79.677504 
L 190.013451 79.312113 
L 191.099252 78.478071 
L 192.185053 78.287433 
L 193.270854 77.358071 
L 194.356656 77.262752 
L 195.442457 76.079206 
L 196.528258 77.270695 
L 198.69986 74.951262 
L 199.785661 74.14105 
L 200.871462 73.036936 
L 201.957264 73.449986 
L 203.043065 73.052823 
L 204.128866 72.345872 
L 205.214667 72.187007 
L 206.300468 71.527716 
L 207.386269 71.241759 
L 208.472071 70.375943 
L 209.557872 70.010553 
L 210.643673 71.051121 
L 212.815275 69.025589 
L 213.901076 69.788142 
L 214.986877 69.915234 
L 216.072679 69.518071 
L 217.15848 68.374241 
L 218.244281 69.120908 
L 219.330082 68.715801 
L 220.415883 68.072397 
L 221.501684 68.850837 
L 222.587486 68.08034 
L 223.673287 68.008851 
L 224.759088 68.501333 
L 225.844889 90.798071 
L 226.93069 92.458213 
L 228.016491 92.156369 
L 229.102292 93.13339 
L 230.188094 90.790128 
L 231.273895 90.972823 
L 232.359696 90.512113 
L 233.445497 90.242043 
L 234.531298 89.709844 
L 235.617099 90.226156 
L 236.702901 89.129986 
L 237.788702 89.423887 
L 238.874503 88.756652 
L 239.960304 88.867858 
L 241.046105 88.113248 
L 242.131906 87.724028 
L 243.217708 89.336511 
L 244.303509 87.628709 
L 245.38931 87.104454 
L 246.475111 88.025872 
L 247.560912 86.683461 
L 248.646713 86.373674 
L 249.732514 86.222752 
L 250.818316 85.428426 
L 251.904117 86.36573 
L 252.989918 85.714383 
L 254.075719 85.905021 
L 255.16152 85.063035 
L 256.247321 86.159206 
L 257.333123 86.055943 
L 258.418924 84.912113 
L 259.504725 85.611121 
L 260.590526 85.26956 
L 261.676327 84.427574 
L 262.762128 85.134525 
L 263.847929 84.602326 
L 264.933731 83.291688 
L 266.019532 84.88034 
L 267.105333 84.395801 
L 268.191134 83.585589 
L 269.276935 84.713532 
L 271.448538 83.251972 
L 273.62014 83.093106 
L 274.705941 82.807149 
L 275.791742 83.10105 
L 276.877543 81.655376 
L 277.963344 82.417929 
L 279.049146 82.560908 
L 280.134947 82.34644 
L 281.220748 82.473532 
L 282.306549 82.052539 
L 283.39235 81.440908 
L 284.478151 81.512397 
L 285.563953 81.274099 
L 286.649754 80.138213 
L 287.735555 80.479773 
L 288.821356 80.654525 
L 289.907157 81.337645 
L 290.992958 80.273248 
L 292.07876 79.756936 
L 293.164561 79.065872 
L 294.250362 79.987291 
L 295.336163 79.502752 
L 296.421964 79.582184 
L 297.507765 78.54956 
L 298.593566 78.017362 
L 299.679368 78.279489 
L 300.765169 79.026156 
L 301.85097 77.977645 
L 302.936771 78.343035 
L 304.022572 78.454241 
L 305.108373 77.238922 
L 306.194175 77.413674 
L 307.279976 77.151546 
L 308.365777 77.008567 
L 309.451578 77.318355 
L 310.537379 76.063319 
L 311.62318 77.707574 
L 313.794783 76.388993 
L 314.880584 75.872681 
L 315.966385 75.666156 
L 317.052186 76.182468 
L 318.137987 74.927433 
L 319.223788 74.204596 
L 320.30959 75.99183 
L 321.395391 75.030695 
L 322.481192 75.046582 
L 323.566993 74.323745 
L 324.652794 73.823319 
L 325.738595 74.474667 
L 326.824396 74.156936 
L 328.995999 72.766865 
L 330.0818 73.179915 
L 332.253402 72.187007 
L 333.339203 72.298213 
L 335.510806 71.114667 
L 336.596607 71.694525 
L 337.682408 71.781901 
L 338.768209 71.654809 
L 339.85401 70.280624 
L 340.939811 71.400624 
L 342.025613 70.209135 
L 343.111414 70.264738 
L 345.283016 69.20034 
L 346.368817 69.319489 
L 347.454618 69.120908 
L 348.54042 69.732539 
L 349.626221 68.715801 
L 350.712022 69.168567 
L 351.797823 69.29566 
L 352.883624 67.675234 
L 353.969425 67.341617 
L 355.055227 68.199489 
L 356.141028 66.809418 
L 357.226829 67.111262 
L 358.31263 66.372539 
L 359.398431 66.865021 
L 360.484232 67.230411 
L 361.570033 66.30105 
L 362.655835 66.22956 
L 363.741636 65.331972 
L 364.827437 65.49878 
L 365.913238 65.459064 
L 366.999039 65.260482 
L 368.08484 66.070695 
L 369.170642 65.721191 
L 370.256443 66.817362 
L 371.342244 67.381333 
L 372.428045 67.770553 
L 373.513846 68.302752 
L 374.599647 67.961191 
L 375.685448 69.025589 
L 376.77125 68.17566 
L 377.857051 68.223319 
L 378.942852 67.961191 
L 380.028653 68.358355 
L 381.114454 68.072397 
L 382.200255 68.850837 
L 383.286057 68.286865 
L 384.371858 68.08034 
L 385.457659 68.49339 
L 386.54346 68.128 
L 387.629261 68.46956 
L 388.715062 68.628426 
L 389.800863 68.366298 
L 390.886665 68.747574 
L 391.972466 68.358355 
L 393.058267 69.120908 
L 394.144068 68.612539 
L 396.31567 68.310695 
L 397.401472 67.428993 
L 398.487273 68.334525 
L 398.487273 68.334525 
" clip-path="url(#p6375be8d52)" style="fill: none; stroke: #1f77b4; stroke-width: 1.5; stroke-linecap: square"/>
   </g>
   <g id="line2d_18">
    <path d="M 73.832727 229.352397 
L 76.00433 147.020482 
L 77.090131 129.942468 
L 78.175932 119.775092 
L 79.261733 114.016227 
L 80.347534 114.016227 
L 81.433335 104.007716 
L 82.519137 106.350979 
L 83.604938 95.190695 
L 84.690739 94.833248 
L 86.862341 84.785021 
L 87.948142 80.932539 
L 89.033943 79.860199 
L 90.119745 81.170837 
L 91.205546 76.960908 
L 92.291347 77.397787 
L 93.377148 76.28573 
L 94.462949 76.365163 
L 95.54875 105.278638 
L 96.634552 95.587858 
L 97.720353 94.158071 
L 98.806154 88.796369 
L 99.891955 92.529702 
L 100.977756 94.475801 
L 102.063557 89.709844 
L 103.149358 87.604879 
L 104.23516 87.644596 
L 105.320961 82.958071 
L 106.406762 83.633248 
L 107.492563 81.210553 
L 108.578364 77.874383 
L 109.664165 76.563745 
L 110.749967 78.509844 
L 111.835768 80.932539 
L 112.921569 75.968 
L 114.00737 77.914099 
L 115.093171 73.585021 
L 116.178972 73.426156 
L 117.264773 73.148142 
L 118.350575 72.115518 
L 119.436376 70.209135 
L 120.522177 71.162326 
L 121.607978 70.646014 
L 123.77958 68.10417 
L 124.865382 69.772255 
L 125.951183 65.125447 
L 127.036984 65.919773 
L 128.122785 65.880057 
L 129.208586 65.006298 
L 130.294387 64.291404 
L 132.46599 63.417645 
L 133.551791 63.417645 
L 134.637592 62.821901 
L 135.723393 62.623319 
L 136.809194 62.543887 
L 137.894995 62.583603 
L 138.980797 77.556652 
L 140.066598 81.806298 
L 141.152399 84.467291 
L 142.2382 76.087149 
L 143.324001 78.152397 
L 144.409802 80.614809 
L 145.495604 78.946723 
L 146.581405 75.094241 
L 147.667206 74.14105 
L 148.753007 78.98644 
L 149.838808 77.675801 
L 150.924609 75.928284 
L 152.01041 77.675801 
L 153.096212 76.365163 
L 154.182013 74.101333 
L 155.267814 77.397787 
L 156.353615 74.101333 
L 157.439416 73.743887 
L 158.525217 73.823319 
L 159.611019 70.407716 
L 160.69682 72.274383 
L 161.782621 71.837504 
L 162.868422 74.736794 
L 163.954223 70.526865 
L 165.040024 73.187858 
L 166.125825 72.19495 
L 167.211627 73.902752 
L 168.297428 69.057362 
L 169.383229 75.451688 
L 171.554831 67.905589 
L 172.640632 67.707007 
L 173.726434 68.699915 
L 174.812235 70.68573 
L 175.898036 69.851688 
L 176.983837 65.880057 
L 178.069638 65.562326 
L 180.24124 68.739631 
L 181.327042 64.489986 
L 182.412843 66.992113 
L 183.498644 63.814809 
L 185.670246 64.410553 
L 186.756047 62.742468 
L 187.841849 63.655943 
L 188.92765 64.01339 
L 190.013451 61.948142 
L 192.185053 64.410553 
L 193.270854 62.305589 
L 194.356656 63.338213 
L 195.442457 60.200624 
L 196.528258 60.915518 
L 197.614059 61.987858 
L 198.69986 61.471546 
L 199.785661 60.359489 
L 200.871462 60.478638 
L 201.957264 59.962326 
L 203.043065 59.207716 
L 204.128866 60.121191 
L 205.214667 59.247433 
L 206.300468 60.319773 
L 207.386269 59.207716 
L 208.472071 58.969418 
L 209.557872 58.85027 
L 210.643673 59.366582 
L 211.729474 58.254525 
L 212.815275 59.207716 
L 213.901076 57.65878 
L 217.15848 57.897078 
L 219.330082 57.499915 
L 220.415883 57.698496 
L 221.501684 57.539631 
L 222.587486 56.983603 
L 223.673287 57.619064 
L 224.759088 57.420482 
L 225.844889 75.689986 
L 226.93069 73.823319 
L 228.016491 74.339631 
L 229.102292 77.000624 
L 230.188094 71.956652 
L 231.273895 69.61339 
L 232.359696 74.021901 
L 233.445497 73.902752 
L 234.531298 71.043177 
L 235.617099 71.480057 
L 236.702901 70.010553 
L 237.788702 71.718355 
L 238.874503 71.916936 
L 239.960304 68.10417 
L 241.046105 70.248851 
L 242.131906 69.891404 
L 243.217708 69.414809 
L 244.303509 69.216227 
L 245.38931 72.433248 
L 246.475111 72.19495 
L 247.560912 67.865872 
L 248.646713 69.732539 
L 249.732514 67.071546 
L 250.818316 69.931121 
L 251.904117 70.725447 
L 252.989918 68.898496 
L 254.075719 71.718355 
L 256.247321 68.699915 
L 257.333123 71.12261 
L 258.418924 68.382184 
L 259.504725 66.793532 
L 260.590526 68.024738 
L 261.676327 65.84034 
L 262.762128 71.956652 
L 263.847929 69.454525 
L 264.933731 68.898496 
L 267.105333 65.046014 
L 268.191134 66.078638 
L 269.276935 67.945305 
L 270.362736 66.674383 
L 271.448538 68.660199 
L 272.534339 64.609135 
L 273.62014 71.202043 
L 274.705941 66.753816 
L 275.791742 69.772255 
L 276.877543 66.793532 
L 277.963344 65.125447 
L 279.049146 65.52261 
L 280.134947 66.753816 
L 281.220748 66.634667 
L 282.306549 67.309844 
L 283.39235 64.966582 
L 284.478151 70.566582 
L 285.563953 63.894241 
L 286.649754 64.768 
L 287.735555 64.768 
L 288.821356 65.204879 
L 289.907157 64.926865 
L 290.992958 63.139631 
L 292.07876 65.08573 
L 293.164561 64.807716 
L 294.250362 68.302752 
L 295.336163 63.497078 
L 296.421964 65.482894 
L 297.507765 63.060199 
L 298.593566 65.046014 
L 299.679368 64.609135 
L 300.765169 66.475801 
L 301.85097 64.370837 
L 302.936771 63.377929 
L 304.022572 61.987858 
L 305.108373 63.497078 
L 306.194175 64.768 
L 307.279976 62.027574 
L 308.365777 62.146723 
L 309.451578 61.789277 
L 310.537379 65.562326 
L 311.62318 66.237504 
L 312.708981 60.796369 
L 313.794783 64.211972 
L 314.880584 62.94105 
L 315.966385 62.543887 
L 317.052186 64.01339 
L 318.137987 64.370837 
L 319.223788 60.716936 
L 320.30959 61.153816 
L 321.395391 60.438922 
L 322.481192 60.280057 
L 323.566993 62.265872 
L 324.652794 61.630411 
L 325.738595 62.305589 
L 326.824396 58.492823 
L 327.910198 60.24034 
L 328.995999 59.763745 
L 330.0818 60.041759 
L 331.167601 59.088567 
L 333.339203 59.644596 
L 334.425005 57.857362 
L 335.510806 60.24034 
L 336.596607 57.380766 
L 337.682408 59.882894 
L 338.768209 57.619064 
L 339.85401 58.016227 
L 340.939811 58.651688 
L 342.025613 59.128284 
L 343.111414 58.175092 
L 344.197215 58.016227 
L 345.283016 59.882894 
L 346.368817 57.460199 
L 347.454618 59.326865 
L 348.54042 56.348142 
L 349.626221 56.507007 
L 350.712022 57.063035 
L 351.797823 57.182184 
L 352.883624 56.824738 
L 353.969425 57.738213 
L 355.055227 57.380766 
L 356.141028 56.785021 
L 357.226829 54.799206 
L 358.31263 56.387858 
L 359.398431 56.507007 
L 360.484232 56.427574 
L 361.570033 56.507007 
L 362.655835 55.553816 
L 363.741636 55.514099 
L 364.827437 54.600624 
L 365.913238 54.997787 
L 366.999039 54.799206 
L 368.08484 55.39495 
L 369.170642 55.752397 
L 370.256443 55.593532 
L 371.342244 56.427574 
L 372.428045 56.745305 
L 373.513846 57.579348 
L 374.599647 57.063035 
L 375.685448 58.41339 
L 376.77125 57.261617 
L 377.857051 57.65878 
L 378.942852 57.063035 
L 380.028653 56.90417 
L 381.114454 57.301333 
L 382.200255 58.810553 
L 383.286057 57.817645 
L 384.371858 58.85027 
L 385.457659 57.539631 
L 386.54346 58.09566 
L 387.629261 56.507007 
L 388.715062 58.055943 
L 389.800863 59.803461 
L 390.886665 57.65878 
L 391.972466 57.619064 
L 393.058267 56.745305 
L 394.144068 58.929702 
L 395.229869 56.348142 
L 396.31567 58.810553 
L 397.401472 57.301333 
L 398.487273 57.460199 
L 398.487273 57.460199 
" clip-path="url(#p6375be8d52)" style="fill: none; stroke: #ff7f0e; stroke-width: 1.5; stroke-linecap: square"/>
   </g>
   <g id="line2d_19">
    <path d="M 73.832727 291.948044 
L 76.00433 210.899377 
L 77.090131 203.668269 
L 78.175932 205.20214 
L 79.261733 182.385804 
L 80.347534 195.177195 
L 81.433335 178.003314 
L 82.519137 207.448166 
L 83.604938 171.237846 
L 84.690739 184.16619 
L 85.77654 175.045134 
L 86.862341 161.623759 
L 87.948142 159.186 
L 89.033943 165.951468 
L 91.205546 154.420042 
L 92.291347 153.406591 
L 93.377148 153.762669 
L 94.462949 152.639656 
L 95.54875 199.395342 
L 96.634552 175.949022 
L 97.720353 159.898154 
L 98.806154 157.953424 
L 99.891955 174.88079 
L 100.977756 178.961984 
L 102.063557 158.309502 
L 103.149358 160.637699 
L 104.23516 166.03364 
L 105.320961 155.899132 
L 106.406762 152.584875 
L 107.492563 159.952935 
L 108.578364 154.255699 
L 109.664165 152.447922 
L 110.749967 160.089888 
L 111.835768 162.746772 
L 112.921569 146.9972 
L 114.00737 148.421509 
L 115.093171 135.73968 
L 116.178972 147.051981 
L 117.264773 143.491209 
L 118.350575 144.997689 
L 119.436376 144.997689 
L 120.522177 150.174505 
L 121.607978 138.150049 
L 122.693779 145.956359 
L 123.77958 140.6152 
L 124.865382 142.340805 
L 125.951183 129.138555 
L 127.036984 122.373087 
L 128.122785 132.041955 
L 129.208586 129.028993 
L 130.294387 128.700306 
L 131.380189 127.41295 
L 132.46599 126.618624 
L 133.551791 130.37113 
L 134.637592 127.659465 
L 135.723393 124.263035 
L 136.809194 125.714735 
L 137.894995 126.481671 
L 138.980797 148.969321 
L 140.066598 152.886171 
L 141.152399 177.756799 
L 142.2382 155.378712 
L 143.324001 150.749707 
L 144.409802 151.160565 
L 145.495604 154.529604 
L 146.581405 158.473845 
L 148.753007 150.777098 
L 149.838808 152.064454 
L 150.924609 150.147115 
L 152.01041 150.88666 
L 153.096212 141.053449 
L 154.182013 145.353767 
L 155.267814 153.32442 
L 156.353615 142.09429 
L 157.439416 150.174505 
L 158.525217 150.174505 
L 159.611019 139.327843 
L 160.69682 141.573869 
L 161.782621 148.668024 
L 162.868422 140.533028 
L 163.954223 143.08035 
L 165.040024 140.396075 
L 166.125825 146.01114 
L 167.211627 150.585364 
L 168.297428 139.766092 
L 169.383229 147.216325 
L 170.46903 146.832857 
L 171.554831 129.522023 
L 172.640632 133.931903 
L 173.726434 136.095757 
L 174.812235 132.151517 
L 175.898036 133.411483 
L 176.983837 132.863671 
L 178.069638 135.000135 
L 179.155439 133.028015 
L 180.24124 141.820384 
L 181.327042 127.549903 
L 182.412843 144.367707 
L 183.498644 125.851688 
L 184.584445 126.152984 
L 185.670246 130.918942 
L 187.841849 119.387516 
L 188.92765 132.014564 
L 190.013451 121.277464 
L 191.099252 130.042444 
L 192.185053 134.698839 
L 193.270854 120.318795 
L 194.356656 113.854623 
L 195.442457 117.579739 
L 196.528258 115.114588 
L 197.614059 120.400966 
L 198.69986 119.825765 
L 199.785661 116.977146 
L 200.871462 117.14149 
L 201.957264 119.634031 
L 203.043065 118.100159 
L 204.128866 120.264014 
L 205.214667 116.18282 
L 206.300468 118.428846 
L 207.386269 113.964185 
L 208.472071 110.184288 
L 209.557872 114.922854 
L 210.643673 117.990597 
L 211.729474 117.853644 
L 212.815275 115.224151 
L 213.901076 115.635009 
L 214.986877 114.785902 
L 216.072679 111.033395 
L 217.15848 112.978125 
L 218.244281 110.595146 
L 219.330082 112.512485 
L 220.415883 114.155919 
L 221.501684 112.786391 
L 222.587486 110.841661 
L 223.673287 111.855112 
L 224.759088 111.252519 
L 225.844889 149.736256 
L 226.93069 135.602727 
L 228.016491 159.076437 
L 229.102292 159.569467 
L 230.188094 144.367707 
L 231.273895 131.302409 
L 232.359696 145.600282 
L 233.445497 144.477269 
L 234.531298 133.384092 
L 235.617099 138.834813 
L 236.702901 152.146626 
L 238.874503 139.903045 
L 239.960304 136.862693 
L 241.046105 140.998668 
L 242.131906 150.010162 
L 243.217708 128.809868 
L 244.303509 141.738213 
L 245.38931 135.986195 
L 246.475111 128.179886 
L 247.560912 141.163011 
L 248.646713 131.439362 
L 249.732514 139.519577 
L 250.818316 136.862693 
L 251.904117 133.493654 
L 252.989918 137.492676 
L 254.075719 145.600282 
L 255.16152 131.247628 
L 256.247321 135.602727 
L 257.333123 140.587809 
L 258.418924 129.549414 
L 259.504725 128.015542 
L 260.590526 130.234178 
L 261.676327 130.261568 
L 262.762128 136.20532 
L 263.847929 139.574359 
L 264.933731 132.096736 
L 266.019532 127.44034 
L 267.105333 132.945843 
L 268.191134 133.329311 
L 269.276935 133.986684 
L 270.362736 131.959783 
L 271.448538 147.791527 
L 272.534339 122.53743 
L 273.62014 151.845329 
L 274.705941 131.028504 
L 275.791742 132.671937 
L 276.877543 138.396564 
L 277.963344 124.97519 
L 279.049146 126.481671 
L 280.134947 137.355723 
L 281.220748 138.916985 
L 282.306549 141.053449 
L 283.39235 142.368196 
L 284.478151 153.872231 
L 285.563953 129.248117 
L 286.649754 129.522023 
L 287.735555 125.084752 
L 288.821356 135.410993 
L 289.907157 129.083774 
L 290.992958 128.919431 
L 292.07876 127.41295 
L 293.164561 120.729653 
L 294.250362 126.45428 
L 295.336163 122.592211 
L 296.421964 132.206298 
L 297.507765 130.562864 
L 298.593566 134.178418 
L 299.679368 120.784434 
L 300.765169 130.83677 
L 301.85097 113.772451 
L 302.936771 131.905002 
L 304.022572 114.155919 
L 305.108373 118.100159 
L 306.194175 125.769516 
L 307.279976 126.974701 
L 308.365777 122.592211 
L 309.451578 119.661421 
L 310.537379 122.01701 
L 311.62318 142.422977 
L 312.708981 123.249585 
L 313.794783 127.549903 
L 314.880584 117.415395 
L 315.966385 122.373087 
L 317.052186 143.436427 
L 318.137987 135.137088 
L 319.223788 116.894975 
L 320.30959 128.316838 
L 321.395391 116.018477 
L 322.481192 124.947799 
L 323.566993 125.906469 
L 324.652794 121.962228 
L 325.738595 132.754109 
L 326.824396 113.525936 
L 327.910198 112.320751 
L 328.995999 122.345696 
L 330.0818 124.427379 
L 331.167601 113.635498 
L 332.253402 112.485095 
L 333.339203 116.347164 
L 334.425005 117.470177 
L 335.510806 122.01701 
L 336.596607 114.511996 
L 337.682408 119.634031 
L 338.768209 121.222683 
L 339.85401 110.869052 
L 340.939811 112.23858 
L 342.025613 118.675361 
L 343.111414 116.949756 
L 344.197215 121.030949 
L 345.283016 128.782478 
L 346.368817 112.786391 
L 347.454618 120.976168 
L 348.54042 111.499034 
L 349.626221 110.567755 
L 350.712022 113.197249 
L 351.797823 110.211678 
L 352.883624 116.347164 
L 353.969425 115.032417 
L 355.055227 111.060786 
L 356.141028 112.046846 
L 357.226829 109.30779 
L 358.31263 113.169859 
L 359.398431 111.115567 
L 360.484232 106.979592 
L 361.570033 106.678296 
L 362.655835 103.4736 
L 363.741636 102.871008 
L 364.827437 106.240047 
L 365.913238 106.212656 
L 366.999039 108.869541 
L 368.08484 106.541343 
L 369.170642 105.966141 
L 370.256443 109.554305 
L 371.342244 115.607618 
L 373.513846 106.513953 
L 374.599647 111.718159 
L 375.685448 111.471644 
L 376.77125 108.486073 
L 377.857051 116.840194 
L 378.942852 109.773429 
L 380.028653 107.36306 
L 381.114454 112.074236 
L 382.200255 117.305833 
L 383.286057 114.2107 
L 384.371858 117.908426 
L 385.457659 109.389961 
L 386.54346 116.758022 
L 387.629261 113.662889 
L 388.715062 121.606151 
L 389.800863 116.949756 
L 391.972466 110.266459 
L 393.058267 109.143446 
L 394.144068 115.580228 
L 395.229869 110.156897 
L 396.31567 113.416374 
L 397.401472 108.595635 
L 398.487273 114.2107 
L 398.487273 114.2107 
" clip-path="url(#p6375be8d52)" style="fill: none; stroke: #2ca02c; stroke-width: 1.5; stroke-linecap: square"/>
   </g>
   <g id="line2d_20">
    <path d="M 368.08484 54.560908 
L 369.170642 53.568 
L 371.342244 56.308426 
L 373.513846 53.925447 
L 374.599647 55.355234 
L 375.685448 55.037504 
L 377.857051 54.282894 
L 378.942852 55.315518 
L 380.028653 55.633248 
L 381.114454 55.116936 
L 382.200255 55.474383 
L 383.286057 54.838922 
L 385.457659 55.116936 
L 386.54346 55.07722 
L 387.629261 55.514099 
L 388.715062 55.156652 
L 389.800863 54.481475 
L 390.886665 55.593532 
L 391.972466 55.672965 
L 393.058267 58.333957 
L 394.144068 55.275801 
L 395.229869 54.521191 
L 397.401472 53.647433 
L 398.487273 55.633248 
L 398.487273 55.633248 
" clip-path="url(#p6375be8d52)" style="fill: none; stroke: #d62728; stroke-width: 1.5; stroke-linecap: square"/>
   </g>
   <g id="line2d_21">
    <path d="M 368.08484 105.774407 
L 369.170642 101.775386 
L 370.256443 101.337137 
L 371.342244 111.033395 
L 372.428045 107.828699 
L 373.513846 105.308768 
L 374.599647 111.882502 
L 375.685448 108.486073 
L 376.77125 107.719137 
L 377.857051 101.419308 
L 378.942852 103.774897 
L 380.028653 108.650416 
L 381.114454 102.624493 
L 382.200255 102.049291 
L 383.286057 102.597102 
L 384.371858 104.843128 
L 386.54346 99.365016 
L 387.629261 102.213635 
L 388.715062 104.213146 
L 389.800863 105.281377 
L 390.886665 102.295806 
L 391.972466 101.720605 
L 393.058267 108.102605 
L 394.144068 102.651884 
L 395.229869 100.51542 
L 396.31567 100.707154 
L 397.401472 95.338604 
L 398.487273 100.433248 
L 398.487273 100.433248 
" clip-path="url(#p6375be8d52)" style="fill: none; stroke: #9467bd; stroke-width: 1.5; stroke-linecap: square"/>
   </g>
   <g id="patch_3">
    <path d="M 57.6 307.584 
L 57.6 41.472 
" style="fill: none; stroke: #000000; stroke-width: 0.8; stroke-linejoin: miter; stroke-linecap: square"/>
   </g>
   <g id="patch_4">
    <path d="M 414.72 307.584 
L 414.72 41.472 
" style="fill: none; stroke: #000000; stroke-width: 0.8; stroke-linejoin: miter; stroke-linecap: square"/>
   </g>
   <g id="patch_5">
    <path d="M 57.6 307.584 
L 414.72 307.584 
" style="fill: none; stroke: #000000; stroke-width: 0.8; stroke-linejoin: miter; stroke-linecap: square"/>
   </g>
   <g id="patch_6">
    <path d="M 57.6 41.472 
L 414.72 41.472 
" style="fill: none; stroke: #000000; stroke-width: 0.8; stroke-linejoin: miter; stroke-linecap: square"/>
   </g>
   <g id="text_19">
    <!-- Learning Curves -->
    <g transform="translate(187.37625 35.472) scale(0.12 -0.12)">
     <defs>
      <path id="DejaVuSans-4c" d="M 628 4666 
L 1259 4666 
L 1259 531 
L 3531 531 
L 3531 0 
L 628 0 
L 628 4666 
z
" transform="scale(0.015625)"/>
      <path id="DejaVuSans-65" d="M 3597 1894 
L 3597 1613 
L 953 1613 
Q 991 1019 1311 708 
Q 1631 397 2203 397 
Q 2534 397 2845 478 
Q 3156 559 3463 722 
L 3463 178 
Q 3153 47 2828 -22 
Q 2503 -91 2169 -91 
Q 1331 -91 842 396 
Q 353 884 353 1716 
Q 353 2575 817 3079 
Q 1281 3584 2069 3584 
Q 2775 3584 3186 3129 
Q 3597 2675 3597 1894 
z
M 3022 2063 
Q 3016 2534 2758 2815 
Q 2500 3097 2075 3097 
Q 1594 3097 1305 2825 
Q 1016 2553 972 2059 
L 3022 2063 
z
" transform="scale(0.015625)"/>
      <path id="DejaVuSans-6e" d="M 3513 2113 
L 3513 0 
L 2938 0 
L 2938 2094 
Q 2938 2591 2744 2837 
Q 2550 3084 2163 3084 
Q 1697 3084 1428 2787 
Q 1159 2491 1159 1978 
L 1159 0 
L 581 0 
L 581 3500 
L 1159 3500 
L 1159 2956 
Q 1366 3272 1645 3428 
Q 1925 3584 2291 3584 
Q 2894 3584 3203 3211 
Q 3513 2838 3513 2113 
z
" transform="scale(0.015625)"/>
      <path id="DejaVuSans-69" d="M 603 3500 
L 1178 3500 
L 1178 0 
L 603 0 
L 603 3500 
z
M 603 4863 
L 1178 4863 
L 1178 4134 
L 603 4134 
L 603 4863 
z
" transform="scale(0.015625)"/>
      <path id="DejaVuSans-67" d="M 2906 1791 
Q 2906 2416 2648 2759 
Q 2391 3103 1925 3103 
Q 1463 3103 1205 2759 
Q 947 2416 947 1791 
Q 947 1169 1205 825 
Q 1463 481 1925 481 
Q 2391 481 2648 825 
Q 2906 1169 2906 1791 
z
M 3481 434 
Q 3481 -459 3084 -895 
Q 2688 -1331 1869 -1331 
Q 1566 -1331 1297 -1286 
Q 1028 -1241 775 -1147 
L 775 -588 
Q 1028 -725 1275 -790 
Q 1522 -856 1778 -856 
Q 2344 -856 2625 -561 
Q 2906 -266 2906 331 
L 2906 616 
Q 2728 306 2450 153 
Q 2172 0 1784 0 
Q 1141 0 747 490 
Q 353 981 353 1791 
Q 353 2603 747 3093 
Q 1141 3584 1784 3584 
Q 2172 3584 2450 3431 
Q 2728 3278 2906 2969 
L 2906 3500 
L 3481 3500 
L 3481 434 
z
" transform="scale(0.015625)"/>
      <path id="DejaVuSans-20" transform="scale(0.015625)"/>
      <path id="DejaVuSans-43" d="M 4122 4306 
L 4122 3641 
Q 3803 3938 3442 4084 
Q 3081 4231 2675 4231 
Q 1875 4231 1450 3742 
Q 1025 3253 1025 2328 
Q 1025 1406 1450 917 
Q 1875 428 2675 428 
Q 3081 428 3442 575 
Q 3803 722 4122 1019 
L 4122 359 
Q 3791 134 3420 21 
Q 3050 -91 2638 -91 
Q 1578 -91 968 557 
Q 359 1206 359 2328 
Q 359 3453 968 4101 
Q 1578 4750 2638 4750 
Q 3056 4750 3426 4639 
Q 3797 4528 4122 4306 
z
" transform="scale(0.015625)"/>
      <path id="DejaVuSans-76" d="M 191 3500 
L 800 3500 
L 1894 563 
L 2988 3500 
L 3597 3500 
L 2284 0 
L 1503 0 
L 191 3500 
z
" transform="scale(0.015625)"/>
     </defs>
     <use xlink:href="#DejaVuSans-4c"/>
     <use xlink:href="#DejaVuSans-65" x="53.962891"/>
     <use xlink:href="#DejaVuSans-61" x="115.486328"/>
     <use xlink:href="#DejaVuSans-72" x="176.765625"/>
     <use xlink:href="#DejaVuSans-6e" x="216.128906"/>
     <use xlink:href="#DejaVuSans-69" x="279.507812"/>
     <use xlink:href="#DejaVuSans-6e" x="307.291016"/>
     <use xlink:href="#DejaVuSans-67" x="370.669922"/>
     <use xlink:href="#DejaVuSans-20" x="434.146484"/>
     <use xlink:href="#DejaVuSans-43" x="465.933594"/>
     <use xlink:href="#DejaVuSans-75" x="535.757812"/>
     <use xlink:href="#DejaVuSans-72" x="599.136719"/>
     <use xlink:href="#DejaVuSans-76" x="640.25"/>
     <use xlink:href="#DejaVuSans-65" x="699.429688"/>
     <use xlink:href="#DejaVuSans-73" x="760.953125"/>
    </g>
   </g>
   <g id="legend_1">
    <g id="patch_7">
     <path d="M 214.18875 302.584 
L 407.72 302.584 
Q 409.72 302.584 409.72 300.584 
L 409.72 228.193375 
Q 409.72 226.193375 407.72 226.193375 
L 214.18875 226.193375 
Q 212.18875 226.193375 212.18875 228.193375 
L 212.18875 300.584 
Q 212.18875 302.584 214.18875 302.584 
z
" style="fill: #ffffff; opacity: 0.8; stroke: #cccccc; stroke-linejoin: miter"/>
    </g>
    <g id="line2d_22">
     <path d="M 216.18875 234.291812 
L 226.18875 234.291812 
L 236.18875 234.291812 
" style="fill: none; stroke: #1f77b4; stroke-width: 1.5; stroke-linecap: square"/>
    </g>
    <g id="text_20">
     <!-- Train Accuracy -->
     <g transform="translate(244.18875 237.791812) scale(0.1 -0.1)">
      <defs>
       <path id="DejaVuSans-54" d="M -19 4666 
L 3928 4666 
L 3928 4134 
L 2272 4134 
L 2272 0 
L 1638 0 
L 1638 4134 
L -19 4134 
L -19 4666 
z
" transform="scale(0.015625)"/>
      </defs>
      <use xlink:href="#DejaVuSans-54"/>
      <use xlink:href="#DejaVuSans-72" x="46.333984"/>
      <use xlink:href="#DejaVuSans-61" x="87.447266"/>
      <use xlink:href="#DejaVuSans-69" x="148.726562"/>
      <use xlink:href="#DejaVuSans-6e" x="176.509766"/>
      <use xlink:href="#DejaVuSans-20" x="239.888672"/>
      <use xlink:href="#DejaVuSans-41" x="271.675781"/>
      <use xlink:href="#DejaVuSans-63" x="338.333984"/>
      <use xlink:href="#DejaVuSans-63" x="393.314453"/>
      <use xlink:href="#DejaVuSans-75" x="448.294922"/>
      <use xlink:href="#DejaVuSans-72" x="511.673828"/>
      <use xlink:href="#DejaVuSans-61" x="552.787109"/>
      <use xlink:href="#DejaVuSans-63" x="614.066406"/>
      <use xlink:href="#DejaVuSans-79" x="669.046875"/>
     </g>
    </g>
    <g id="line2d_23">
     <path d="M 216.18875 248.969937 
L 226.18875 248.969937 
L 236.18875 248.969937 
" style="fill: none; stroke: #ff7f0e; stroke-width: 1.5; stroke-linecap: square"/>
    </g>
    <g id="text_21">
     <!-- Validation Accuracy -->
     <g transform="translate(244.18875 252.469937) scale(0.1 -0.1)">
      <defs>
       <path id="DejaVuSans-56" d="M 1831 0 
L 50 4666 
L 709 4666 
L 2188 738 
L 3669 4666 
L 4325 4666 
L 2547 0 
L 1831 0 
z
" transform="scale(0.015625)"/>
       <path id="DejaVuSans-6c" d="M 603 4863 
L 1178 4863 
L 1178 0 
L 603 0 
L 603 4863 
z
" transform="scale(0.015625)"/>
       <path id="DejaVuSans-64" d="M 2906 2969 
L 2906 4863 
L 3481 4863 
L 3481 0 
L 2906 0 
L 2906 525 
Q 2725 213 2448 61 
Q 2172 -91 1784 -91 
Q 1150 -91 751 415 
Q 353 922 353 1747 
Q 353 2572 751 3078 
Q 1150 3584 1784 3584 
Q 2172 3584 2448 3432 
Q 2725 3281 2906 2969 
z
M 947 1747 
Q 947 1113 1208 752 
Q 1469 391 1925 391 
Q 2381 391 2643 752 
Q 2906 1113 2906 1747 
Q 2906 2381 2643 2742 
Q 2381 3103 1925 3103 
Q 1469 3103 1208 2742 
Q 947 2381 947 1747 
z
" transform="scale(0.015625)"/>
       <path id="DejaVuSans-74" d="M 1172 4494 
L 1172 3500 
L 2356 3500 
L 2356 3053 
L 1172 3053 
L 1172 1153 
Q 1172 725 1289 603 
Q 1406 481 1766 481 
L 2356 481 
L 2356 0 
L 1766 0 
Q 1100 0 847 248 
Q 594 497 594 1153 
L 594 3053 
L 172 3053 
L 172 3500 
L 594 3500 
L 594 4494 
L 1172 4494 
z
" transform="scale(0.015625)"/>
      </defs>
      <use xlink:href="#DejaVuSans-56"/>
      <use xlink:href="#DejaVuSans-61" x="60.658203"/>
      <use xlink:href="#DejaVuSans-6c" x="121.9375"/>
      <use xlink:href="#DejaVuSans-69" x="149.720703"/>
      <use xlink:href="#DejaVuSans-64" x="177.503906"/>
      <use xlink:href="#DejaVuSans-61" x="240.980469"/>
      <use xlink:href="#DejaVuSans-74" x="302.259766"/>
      <use xlink:href="#DejaVuSans-69" x="341.46875"/>
      <use xlink:href="#DejaVuSans-6f" x="369.251953"/>
      <use xlink:href="#DejaVuSans-6e" x="430.433594"/>
      <use xlink:href="#DejaVuSans-20" x="493.8125"/>
      <use xlink:href="#DejaVuSans-41" x="525.599609"/>
      <use xlink:href="#DejaVuSans-63" x="592.257812"/>
      <use xlink:href="#DejaVuSans-63" x="647.238281"/>
      <use xlink:href="#DejaVuSans-75" x="702.21875"/>
      <use xlink:href="#DejaVuSans-72" x="765.597656"/>
      <use xlink:href="#DejaVuSans-61" x="806.710938"/>
      <use xlink:href="#DejaVuSans-63" x="867.990234"/>
      <use xlink:href="#DejaVuSans-79" x="922.970703"/>
     </g>
    </g>
    <g id="line2d_24">
     <path d="M 216.18875 263.648062 
L 226.18875 263.648062 
L 236.18875 263.648062 
" style="fill: none; stroke: #2ca02c; stroke-width: 1.5; stroke-linecap: square"/>
    </g>
    <g id="text_22">
     <!-- Robust Validation Accuracy -->
     <g transform="translate(244.18875 267.148062) scale(0.1 -0.1)">
      <defs>
       <path id="DejaVuSans-52" d="M 2841 2188 
Q 3044 2119 3236 1894 
Q 3428 1669 3622 1275 
L 4263 0 
L 3584 0 
L 2988 1197 
Q 2756 1666 2539 1819 
Q 2322 1972 1947 1972 
L 1259 1972 
L 1259 0 
L 628 0 
L 628 4666 
L 2053 4666 
Q 2853 4666 3247 4331 
Q 3641 3997 3641 3322 
Q 3641 2881 3436 2590 
Q 3231 2300 2841 2188 
z
M 1259 4147 
L 1259 2491 
L 2053 2491 
Q 2509 2491 2742 2702 
Q 2975 2913 2975 3322 
Q 2975 3731 2742 3939 
Q 2509 4147 2053 4147 
L 1259 4147 
z
" transform="scale(0.015625)"/>
       <path id="DejaVuSans-62" d="M 3116 1747 
Q 3116 2381 2855 2742 
Q 2594 3103 2138 3103 
Q 1681 3103 1420 2742 
Q 1159 2381 1159 1747 
Q 1159 1113 1420 752 
Q 1681 391 2138 391 
Q 2594 391 2855 752 
Q 3116 1113 3116 1747 
z
M 1159 2969 
Q 1341 3281 1617 3432 
Q 1894 3584 2278 3584 
Q 2916 3584 3314 3078 
Q 3713 2572 3713 1747 
Q 3713 922 3314 415 
Q 2916 -91 2278 -91 
Q 1894 -91 1617 61 
Q 1341 213 1159 525 
L 1159 0 
L 581 0 
L 581 4863 
L 1159 4863 
L 1159 2969 
z
" transform="scale(0.015625)"/>
      </defs>
      <use xlink:href="#DejaVuSans-52"/>
      <use xlink:href="#DejaVuSans-6f" x="64.982422"/>
      <use xlink:href="#DejaVuSans-62" x="126.164062"/>
      <use xlink:href="#DejaVuSans-75" x="189.640625"/>
      <use xlink:href="#DejaVuSans-73" x="253.019531"/>
      <use xlink:href="#DejaVuSans-74" x="305.119141"/>
      <use xlink:href="#DejaVuSans-20" x="344.328125"/>
      <use xlink:href="#DejaVuSans-56" x="376.115234"/>
      <use xlink:href="#DejaVuSans-61" x="436.773438"/>
      <use xlink:href="#DejaVuSans-6c" x="498.052734"/>
      <use xlink:href="#DejaVuSans-69" x="525.835938"/>
      <use xlink:href="#DejaVuSans-64" x="553.619141"/>
      <use xlink:href="#DejaVuSans-61" x="617.095703"/>
      <use xlink:href="#DejaVuSans-74" x="678.375"/>
      <use xlink:href="#DejaVuSans-69" x="717.583984"/>
      <use xlink:href="#DejaVuSans-6f" x="745.367188"/>
      <use xlink:href="#DejaVuSans-6e" x="806.548828"/>
      <use xlink:href="#DejaVuSans-20" x="869.927734"/>
      <use xlink:href="#DejaVuSans-41" x="901.714844"/>
      <use xlink:href="#DejaVuSans-63" x="968.373047"/>
      <use xlink:href="#DejaVuSans-63" x="1023.353516"/>
      <use xlink:href="#DejaVuSans-75" x="1078.333984"/>
      <use xlink:href="#DejaVuSans-72" x="1141.712891"/>
      <use xlink:href="#DejaVuSans-61" x="1182.826172"/>
      <use xlink:href="#DejaVuSans-63" x="1244.105469"/>
      <use xlink:href="#DejaVuSans-79" x="1299.085938"/>
     </g>
    </g>
    <g id="line2d_25">
     <path d="M 216.18875 278.326188 
L 226.18875 278.326188 
L 236.18875 278.326188 
" style="fill: none; stroke: #d62728; stroke-width: 1.5; stroke-linecap: square"/>
    </g>
    <g id="text_23">
     <!-- SWA Validation Accuracy -->
     <g transform="translate(244.18875 281.826188) scale(0.1 -0.1)">
      <defs>
       <path id="DejaVuSans-53" d="M 3425 4513 
L 3425 3897 
Q 3066 4069 2747 4153 
Q 2428 4238 2131 4238 
Q 1616 4238 1336 4038 
Q 1056 3838 1056 3469 
Q 1056 3159 1242 3001 
Q 1428 2844 1947 2747 
L 2328 2669 
Q 3034 2534 3370 2195 
Q 3706 1856 3706 1288 
Q 3706 609 3251 259 
Q 2797 -91 1919 -91 
Q 1588 -91 1214 -16 
Q 841 59 441 206 
L 441 856 
Q 825 641 1194 531 
Q 1563 422 1919 422 
Q 2459 422 2753 634 
Q 3047 847 3047 1241 
Q 3047 1584 2836 1778 
Q 2625 1972 2144 2069 
L 1759 2144 
Q 1053 2284 737 2584 
Q 422 2884 422 3419 
Q 422 4038 858 4394 
Q 1294 4750 2059 4750 
Q 2388 4750 2728 4690 
Q 3069 4631 3425 4513 
z
" transform="scale(0.015625)"/>
       <path id="DejaVuSans-57" d="M 213 4666 
L 850 4666 
L 1831 722 
L 2809 4666 
L 3519 4666 
L 4500 722 
L 5478 4666 
L 6119 4666 
L 4947 0 
L 4153 0 
L 3169 4050 
L 2175 0 
L 1381 0 
L 213 4666 
z
" transform="scale(0.015625)"/>
      </defs>
      <use xlink:href="#DejaVuSans-53"/>
      <use xlink:href="#DejaVuSans-57" x="63.476562"/>
      <use xlink:href="#DejaVuSans-41" x="156.853516"/>
      <use xlink:href="#DejaVuSans-20" x="225.261719"/>
      <use xlink:href="#DejaVuSans-56" x="257.048828"/>
      <use xlink:href="#DejaVuSans-61" x="317.707031"/>
      <use xlink:href="#DejaVuSans-6c" x="378.986328"/>
      <use xlink:href="#DejaVuSans-69" x="406.769531"/>
      <use xlink:href="#DejaVuSans-64" x="434.552734"/>
      <use xlink:href="#DejaVuSans-61" x="498.029297"/>
      <use xlink:href="#DejaVuSans-74" x="559.308594"/>
      <use xlink:href="#DejaVuSans-69" x="598.517578"/>
      <use xlink:href="#DejaVuSans-6f" x="626.300781"/>
      <use xlink:href="#DejaVuSans-6e" x="687.482422"/>
      <use xlink:href="#DejaVuSans-20" x="750.861328"/>
      <use xlink:href="#DejaVuSans-41" x="782.648438"/>
      <use xlink:href="#DejaVuSans-63" x="849.306641"/>
      <use xlink:href="#DejaVuSans-63" x="904.287109"/>
      <use xlink:href="#DejaVuSans-75" x="959.267578"/>
      <use xlink:href="#DejaVuSans-72" x="1022.646484"/>
      <use xlink:href="#DejaVuSans-61" x="1063.759766"/>
      <use xlink:href="#DejaVuSans-63" x="1125.039062"/>
      <use xlink:href="#DejaVuSans-79" x="1180.019531"/>
     </g>
    </g>
    <g id="line2d_26">
     <path d="M 216.18875 293.004312 
L 226.18875 293.004312 
L 236.18875 293.004312 
" style="fill: none; stroke: #9467bd; stroke-width: 1.5; stroke-linecap: square"/>
    </g>
    <g id="text_24">
     <!-- SWA Robust Validation Accuracy -->
     <g transform="translate(244.18875 296.504312) scale(0.1 -0.1)">
      <use xlink:href="#DejaVuSans-53"/>
      <use xlink:href="#DejaVuSans-57" x="63.476562"/>
      <use xlink:href="#DejaVuSans-41" x="156.853516"/>
      <use xlink:href="#DejaVuSans-20" x="225.261719"/>
      <use xlink:href="#DejaVuSans-52" x="257.048828"/>
      <use xlink:href="#DejaVuSans-6f" x="322.03125"/>
      <use xlink:href="#DejaVuSans-62" x="383.212891"/>
      <use xlink:href="#DejaVuSans-75" x="446.689453"/>
      <use xlink:href="#DejaVuSans-73" x="510.068359"/>
      <use xlink:href="#DejaVuSans-74" x="562.167969"/>
      <use xlink:href="#DejaVuSans-20" x="601.376953"/>
      <use xlink:href="#DejaVuSans-56" x="633.164062"/>
      <use xlink:href="#DejaVuSans-61" x="693.822266"/>
      <use xlink:href="#DejaVuSans-6c" x="755.101562"/>
      <use xlink:href="#DejaVuSans-69" x="782.884766"/>
      <use xlink:href="#DejaVuSans-64" x="810.667969"/>
      <use xlink:href="#DejaVuSans-61" x="874.144531"/>
      <use xlink:href="#DejaVuSans-74" x="935.423828"/>
      <use xlink:href="#DejaVuSans-69" x="974.632812"/>
      <use xlink:href="#DejaVuSans-6f" x="1002.416016"/>
      <use xlink:href="#DejaVuSans-6e" x="1063.597656"/>
      <use xlink:href="#DejaVuSans-20" x="1126.976562"/>
      <use xlink:href="#DejaVuSans-41" x="1158.763672"/>
      <use xlink:href="#DejaVuSans-63" x="1225.421875"/>
      <use xlink:href="#DejaVuSans-63" x="1280.402344"/>
      <use xlink:href="#DejaVuSans-75" x="1335.382812"/>
      <use xlink:href="#DejaVuSans-72" x="1398.761719"/>
      <use xlink:href="#DejaVuSans-61" x="1439.875"/>
      <use xlink:href="#DejaVuSans-63" x="1501.154297"/>
      <use xlink:href="#DejaVuSans-79" x="1556.134766"/>
     </g>
    </g>
   </g>
  </g>
 </g>
 <defs>
  <clipPath id="p6375be8d52">
   <rect x="57.6" y="41.472" width="357.12" height="266.112"/>
  </clipPath>
 </defs>
</svg>
