<?xml version="1.0" encoding="utf-8" standalone="no"?>
<!DOCTYPE svg PUBLIC "-//W3C//DTD SVG 1.1//EN"
  "http://www.w3.org/Graphics/SVG/1.1/DTD/svg11.dtd">
<svg xmlns:xlink="http://www.w3.org/1999/xlink" width="460.8pt" height="345.6pt" viewBox="0 0 460.8 345.6" xmlns="http://www.w3.org/2000/svg" version="1.1">
 <metadata>
  <rdf:RDF xmlns:dc="http://purl.org/dc/elements/1.1/" xmlns:cc="http://creativecommons.org/ns#" xmlns:rdf="http://www.w3.org/1999/02/22-rdf-syntax-ns#">
   <cc:Work>
    <dc:type rdf:resource="http://purl.org/dc/dcmitype/StillImage"/>
    <dc:date>2025-04-22T21:51:28.020206</dc:date>
    <dc:format>image/svg+xml</dc:format>
    <dc:creator>
     <cc:Agent>
      <dc:title>Matplotlib v3.9.1, https://matplotlib.org/</dc:title>
     </cc:Agent>
    </dc:creator>
   </cc:Work>
  </rdf:RDF>
 </metadata>
 <defs>
  <style type="text/css">*{stroke-linejoin: round; stroke-linecap: butt}</style>
 </defs>
 <g id="figure_1">
  <g id="patch_1">
   <path d="M 0 345.6 
L 460.8 345.6 
L 460.8 0 
L 0 0 
z
" style="fill: #ffffff"/>
  </g>
  <g id="axes_1">
   <g id="patch_2">
    <path d="M 57.6 307.584 
L 414.72 307.584 
L 414.72 41.472 
L 57.6 41.472 
z
" style="fill: #ffffff"/>
   </g>
   <g id="matplotlib.axis_1">
    <g id="xtick_1">
     <g id="line2d_1">
      <defs>
       <path id="m52b5a8664a" d="M 0 0 
L 0 3.5 
" style="stroke: #000000; stroke-width: 0.8"/>
      </defs>
      <g>
       <use xlink:href="#m52b5a8664a" x="73.832727" y="307.584" style="stroke: #000000; stroke-width: 0.8"/>
      </g>
     </g>
     <g id="text_1">
      <!-- 1 -->
      <g transform="translate(70.651477 322.182437) scale(0.1 -0.1)">
       <defs>
        <path id="DejaVuSans-31" d="M 794 531 
L 1825 531 
L 1825 4091 
L 703 3866 
L 703 4441 
L 1819 4666 
L 2450 4666 
L 2450 531 
L 3481 531 
L 3481 0 
L 794 0 
L 794 531 
z
" transform="scale(0.015625)"/>
       </defs>
       <use xlink:href="#DejaVuSans-31"/>
      </g>
     </g>
    </g>
    <g id="xtick_2">
     <g id="line2d_2">
      <g>
       <use xlink:href="#m52b5a8664a" x="109.664165" y="307.584" style="stroke: #000000; stroke-width: 0.8"/>
      </g>
     </g>
     <g id="text_2">
      <!-- 34 -->
      <g transform="translate(103.301665 322.182437) scale(0.1 -0.1)">
       <defs>
        <path id="DejaVuSans-33" d="M 2597 2516 
Q 3050 2419 3304 2112 
Q 3559 1806 3559 1356 
Q 3559 666 3084 287 
Q 2609 -91 1734 -91 
Q 1441 -91 1130 -33 
Q 819 25 488 141 
L 488 750 
Q 750 597 1062 519 
Q 1375 441 1716 441 
Q 2309 441 2620 675 
Q 2931 909 2931 1356 
Q 2931 1769 2642 2001 
Q 2353 2234 1838 2234 
L 1294 2234 
L 1294 2753 
L 1863 2753 
Q 2328 2753 2575 2939 
Q 2822 3125 2822 3475 
Q 2822 3834 2567 4026 
Q 2313 4219 1838 4219 
Q 1578 4219 1281 4162 
Q 984 4106 628 3988 
L 628 4550 
Q 988 4650 1302 4700 
Q 1616 4750 1894 4750 
Q 2613 4750 3031 4423 
Q 3450 4097 3450 3541 
Q 3450 3153 3228 2886 
Q 3006 2619 2597 2516 
z
" transform="scale(0.015625)"/>
        <path id="DejaVuSans-34" d="M 2419 4116 
L 825 1625 
L 2419 1625 
L 2419 4116 
z
M 2253 4666 
L 3047 4666 
L 3047 1625 
L 3713 1625 
L 3713 1100 
L 3047 1100 
L 3047 0 
L 2419 0 
L 2419 1100 
L 313 1100 
L 313 1709 
L 2253 4666 
z
" transform="scale(0.015625)"/>
       </defs>
       <use xlink:href="#DejaVuSans-33"/>
       <use xlink:href="#DejaVuSans-34" x="63.623047"/>
      </g>
     </g>
    </g>
    <g id="xtick_3">
     <g id="line2d_3">
      <g>
       <use xlink:href="#m52b5a8664a" x="145.495604" y="307.584" style="stroke: #000000; stroke-width: 0.8"/>
      </g>
     </g>
     <g id="text_3">
      <!-- 67 -->
      <g transform="translate(139.133104 322.182437) scale(0.1 -0.1)">
       <defs>
        <path id="DejaVuSans-36" d="M 2113 2584 
Q 1688 2584 1439 2293 
Q 1191 2003 1191 1497 
Q 1191 994 1439 701 
Q 1688 409 2113 409 
Q 2538 409 2786 701 
Q 3034 994 3034 1497 
Q 3034 2003 2786 2293 
Q 2538 2584 2113 2584 
z
M 3366 4563 
L 3366 3988 
Q 3128 4100 2886 4159 
Q 2644 4219 2406 4219 
Q 1781 4219 1451 3797 
Q 1122 3375 1075 2522 
Q 1259 2794 1537 2939 
Q 1816 3084 2150 3084 
Q 2853 3084 3261 2657 
Q 3669 2231 3669 1497 
Q 3669 778 3244 343 
Q 2819 -91 2113 -91 
Q 1303 -91 875 529 
Q 447 1150 447 2328 
Q 447 3434 972 4092 
Q 1497 4750 2381 4750 
Q 2619 4750 2861 4703 
Q 3103 4656 3366 4563 
z
" transform="scale(0.015625)"/>
        <path id="DejaVuSans-37" d="M 525 4666 
L 3525 4666 
L 3525 4397 
L 1831 0 
L 1172 0 
L 2766 4134 
L 525 4134 
L 525 4666 
z
" transform="scale(0.015625)"/>
       </defs>
       <use xlink:href="#DejaVuSans-36"/>
       <use xlink:href="#DejaVuSans-37" x="63.623047"/>
      </g>
     </g>
    </g>
    <g id="xtick_4">
     <g id="line2d_4">
      <g>
       <use xlink:href="#m52b5a8664a" x="181.327042" y="307.584" style="stroke: #000000; stroke-width: 0.8"/>
      </g>
     </g>
     <g id="text_4">
      <!-- 100 -->
      <g transform="translate(171.783292 322.182437) scale(0.1 -0.1)">
       <defs>
        <path id="DejaVuSans-30" d="M 2034 4250 
Q 1547 4250 1301 3770 
Q 1056 3291 1056 2328 
Q 1056 1369 1301 889 
Q 1547 409 2034 409 
Q 2525 409 2770 889 
Q 3016 1369 3016 2328 
Q 3016 3291 2770 3770 
Q 2525 4250 2034 4250 
z
M 2034 4750 
Q 2819 4750 3233 4129 
Q 3647 3509 3647 2328 
Q 3647 1150 3233 529 
Q 2819 -91 2034 -91 
Q 1250 -91 836 529 
Q 422 1150 422 2328 
Q 422 3509 836 4129 
Q 1250 4750 2034 4750 
z
" transform="scale(0.015625)"/>
       </defs>
       <use xlink:href="#DejaVuSans-31"/>
       <use xlink:href="#DejaVuSans-30" x="63.623047"/>
       <use xlink:href="#DejaVuSans-30" x="127.246094"/>
      </g>
     </g>
    </g>
    <g id="xtick_5">
     <g id="line2d_5">
      <g>
       <use xlink:href="#m52b5a8664a" x="217.15848" y="307.584" style="stroke: #000000; stroke-width: 0.8"/>
      </g>
     </g>
     <g id="text_5">
      <!-- 133 -->
      <g transform="translate(207.61473 322.182437) scale(0.1 -0.1)">
       <use xlink:href="#DejaVuSans-31"/>
       <use xlink:href="#DejaVuSans-33" x="63.623047"/>
       <use xlink:href="#DejaVuSans-33" x="127.246094"/>
      </g>
     </g>
    </g>
    <g id="xtick_6">
     <g id="line2d_6">
      <g>
       <use xlink:href="#m52b5a8664a" x="254.075719" y="307.584" style="stroke: #000000; stroke-width: 0.8"/>
      </g>
     </g>
     <g id="text_6">
      <!-- 167 -->
      <g transform="translate(244.531969 322.182437) scale(0.1 -0.1)">
       <use xlink:href="#DejaVuSans-31"/>
       <use xlink:href="#DejaVuSans-36" x="63.623047"/>
       <use xlink:href="#DejaVuSans-37" x="127.246094"/>
      </g>
     </g>
    </g>
    <g id="xtick_7">
     <g id="line2d_7">
      <g>
       <use xlink:href="#m52b5a8664a" x="289.907157" y="307.584" style="stroke: #000000; stroke-width: 0.8"/>
      </g>
     </g>
     <g id="text_7">
      <!-- 200 -->
      <g transform="translate(280.363407 322.182437) scale(0.1 -0.1)">
       <defs>
        <path id="DejaVuSans-32" d="M 1228 531 
L 3431 531 
L 3431 0 
L 469 0 
L 469 531 
Q 828 903 1448 1529 
Q 2069 2156 2228 2338 
Q 2531 2678 2651 2914 
Q 2772 3150 2772 3378 
Q 2772 3750 2511 3984 
Q 2250 4219 1831 4219 
Q 1534 4219 1204 4116 
Q 875 4013 500 3803 
L 500 4441 
Q 881 4594 1212 4672 
Q 1544 4750 1819 4750 
Q 2544 4750 2975 4387 
Q 3406 4025 3406 3419 
Q 3406 3131 3298 2873 
Q 3191 2616 2906 2266 
Q 2828 2175 2409 1742 
Q 1991 1309 1228 531 
z
" transform="scale(0.015625)"/>
       </defs>
       <use xlink:href="#DejaVuSans-32"/>
       <use xlink:href="#DejaVuSans-30" x="63.623047"/>
       <use xlink:href="#DejaVuSans-30" x="127.246094"/>
      </g>
     </g>
    </g>
    <g id="xtick_8">
     <g id="line2d_8">
      <g>
       <use xlink:href="#m52b5a8664a" x="325.738595" y="307.584" style="stroke: #000000; stroke-width: 0.8"/>
      </g>
     </g>
     <g id="text_8">
      <!-- 233 -->
      <g transform="translate(316.194845 322.182437) scale(0.1 -0.1)">
       <use xlink:href="#DejaVuSans-32"/>
       <use xlink:href="#DejaVuSans-33" x="63.623047"/>
       <use xlink:href="#DejaVuSans-33" x="127.246094"/>
      </g>
     </g>
    </g>
    <g id="xtick_9">
     <g id="line2d_9">
      <g>
       <use xlink:href="#m52b5a8664a" x="361.570033" y="307.584" style="stroke: #000000; stroke-width: 0.8"/>
      </g>
     </g>
     <g id="text_9">
      <!-- 266 -->
      <g transform="translate(352.026283 322.182437) scale(0.1 -0.1)">
       <use xlink:href="#DejaVuSans-32"/>
       <use xlink:href="#DejaVuSans-36" x="63.623047"/>
       <use xlink:href="#DejaVuSans-36" x="127.246094"/>
      </g>
     </g>
    </g>
    <g id="xtick_10">
     <g id="line2d_10">
      <g>
       <use xlink:href="#m52b5a8664a" x="398.487273" y="307.584" style="stroke: #000000; stroke-width: 0.8"/>
      </g>
     </g>
     <g id="text_10">
      <!-- 300 -->
      <g transform="translate(388.943523 322.182437) scale(0.1 -0.1)">
       <use xlink:href="#DejaVuSans-33"/>
       <use xlink:href="#DejaVuSans-30" x="63.623047"/>
       <use xlink:href="#DejaVuSans-30" x="127.246094"/>
      </g>
     </g>
    </g>
    <g id="text_11">
     <!-- Epochs -->
     <g transform="translate(218.244375 335.860562) scale(0.1 -0.1)">
      <defs>
       <path id="DejaVuSans-45" d="M 628 4666 
L 3578 4666 
L 3578 4134 
L 1259 4134 
L 1259 2753 
L 3481 2753 
L 3481 2222 
L 1259 2222 
L 1259 531 
L 3634 531 
L 3634 0 
L 628 0 
L 628 4666 
z
" transform="scale(0.015625)"/>
       <path id="DejaVuSans-70" d="M 1159 525 
L 1159 -1331 
L 581 -1331 
L 581 3500 
L 1159 3500 
L 1159 2969 
Q 1341 3281 1617 3432 
Q 1894 3584 2278 3584 
Q 2916 3584 3314 3078 
Q 3713 2572 3713 1747 
Q 3713 922 3314 415 
Q 2916 -91 2278 -91 
Q 1894 -91 1617 61 
Q 1341 213 1159 525 
z
M 3116 1747 
Q 3116 2381 2855 2742 
Q 2594 3103 2138 3103 
Q 1681 3103 1420 2742 
Q 1159 2381 1159 1747 
Q 1159 1113 1420 752 
Q 1681 391 2138 391 
Q 2594 391 2855 752 
Q 3116 1113 3116 1747 
z
" transform="scale(0.015625)"/>
       <path id="DejaVuSans-6f" d="M 1959 3097 
Q 1497 3097 1228 2736 
Q 959 2375 959 1747 
Q 959 1119 1226 758 
Q 1494 397 1959 397 
Q 2419 397 2687 759 
Q 2956 1122 2956 1747 
Q 2956 2369 2687 2733 
Q 2419 3097 1959 3097 
z
M 1959 3584 
Q 2709 3584 3137 3096 
Q 3566 2609 3566 1747 
Q 3566 888 3137 398 
Q 2709 -91 1959 -91 
Q 1206 -91 779 398 
Q 353 888 353 1747 
Q 353 2609 779 3096 
Q 1206 3584 1959 3584 
z
" transform="scale(0.015625)"/>
       <path id="DejaVuSans-63" d="M 3122 3366 
L 3122 2828 
Q 2878 2963 2633 3030 
Q 2388 3097 2138 3097 
Q 1578 3097 1268 2742 
Q 959 2388 959 1747 
Q 959 1106 1268 751 
Q 1578 397 2138 397 
Q 2388 397 2633 464 
Q 2878 531 3122 666 
L 3122 134 
Q 2881 22 2623 -34 
Q 2366 -91 2075 -91 
Q 1284 -91 818 406 
Q 353 903 353 1747 
Q 353 2603 823 3093 
Q 1294 3584 2113 3584 
Q 2378 3584 2631 3529 
Q 2884 3475 3122 3366 
z
" transform="scale(0.015625)"/>
       <path id="DejaVuSans-68" d="M 3513 2113 
L 3513 0 
L 2938 0 
L 2938 2094 
Q 2938 2591 2744 2837 
Q 2550 3084 2163 3084 
Q 1697 3084 1428 2787 
Q 1159 2491 1159 1978 
L 1159 0 
L 581 0 
L 581 4863 
L 1159 4863 
L 1159 2956 
Q 1366 3272 1645 3428 
Q 1925 3584 2291 3584 
Q 2894 3584 3203 3211 
Q 3513 2838 3513 2113 
z
" transform="scale(0.015625)"/>
       <path id="DejaVuSans-73" d="M 2834 3397 
L 2834 2853 
Q 2591 2978 2328 3040 
Q 2066 3103 1784 3103 
Q 1356 3103 1142 2972 
Q 928 2841 928 2578 
Q 928 2378 1081 2264 
Q 1234 2150 1697 2047 
L 1894 2003 
Q 2506 1872 2764 1633 
Q 3022 1394 3022 966 
Q 3022 478 2636 193 
Q 2250 -91 1575 -91 
Q 1294 -91 989 -36 
Q 684 19 347 128 
L 347 722 
Q 666 556 975 473 
Q 1284 391 1588 391 
Q 1994 391 2212 530 
Q 2431 669 2431 922 
Q 2431 1156 2273 1281 
Q 2116 1406 1581 1522 
L 1381 1569 
Q 847 1681 609 1914 
Q 372 2147 372 2553 
Q 372 3047 722 3315 
Q 1072 3584 1716 3584 
Q 2034 3584 2315 3537 
Q 2597 3491 2834 3397 
z
" transform="scale(0.015625)"/>
      </defs>
      <use xlink:href="#DejaVuSans-45"/>
      <use xlink:href="#DejaVuSans-70" x="63.183594"/>
      <use xlink:href="#DejaVuSans-6f" x="126.660156"/>
      <use xlink:href="#DejaVuSans-63" x="187.841797"/>
      <use xlink:href="#DejaVuSans-68" x="242.822266"/>
      <use xlink:href="#DejaVuSans-73" x="306.201172"/>
     </g>
    </g>
   </g>
   <g id="matplotlib.axis_2">
    <g id="ytick_1">
     <g id="line2d_11">
      <defs>
       <path id="m36ea896d87" d="M 0 0 
L -3.5 0 
" style="stroke: #000000; stroke-width: 0.8"/>
      </defs>
      <g>
       <use xlink:href="#m36ea896d87" x="57.6" y="288.381567" style="stroke: #000000; stroke-width: 0.8"/>
      </g>
     </g>
     <g id="text_12">
      <!-- 30 -->
      <g transform="translate(37.875 292.180786) scale(0.1 -0.1)">
       <use xlink:href="#DejaVuSans-33"/>
       <use xlink:href="#DejaVuSans-30" x="63.623047"/>
      </g>
     </g>
    </g>
    <g id="ytick_2">
     <g id="line2d_12">
      <g>
       <use xlink:href="#m36ea896d87" x="57.6" y="252.93801" style="stroke: #000000; stroke-width: 0.8"/>
      </g>
     </g>
     <g id="text_13">
      <!-- 40 -->
      <g transform="translate(37.875 256.737228) scale(0.1 -0.1)">
       <use xlink:href="#DejaVuSans-34"/>
       <use xlink:href="#DejaVuSans-30" x="63.623047"/>
      </g>
     </g>
    </g>
    <g id="ytick_3">
     <g id="line2d_13">
      <g>
       <use xlink:href="#m36ea896d87" x="57.6" y="217.494452" style="stroke: #000000; stroke-width: 0.8"/>
      </g>
     </g>
     <g id="text_14">
      <!-- 50 -->
      <g transform="translate(37.875 221.293671) scale(0.1 -0.1)">
       <defs>
        <path id="DejaVuSans-35" d="M 691 4666 
L 3169 4666 
L 3169 4134 
L 1269 4134 
L 1269 2991 
Q 1406 3038 1543 3061 
Q 1681 3084 1819 3084 
Q 2600 3084 3056 2656 
Q 3513 2228 3513 1497 
Q 3513 744 3044 326 
Q 2575 -91 1722 -91 
Q 1428 -91 1123 -41 
Q 819 9 494 109 
L 494 744 
Q 775 591 1075 516 
Q 1375 441 1709 441 
Q 2250 441 2565 725 
Q 2881 1009 2881 1497 
Q 2881 1984 2565 2268 
Q 2250 2553 1709 2553 
Q 1456 2553 1204 2497 
Q 953 2441 691 2322 
L 691 4666 
z
" transform="scale(0.015625)"/>
       </defs>
       <use xlink:href="#DejaVuSans-35"/>
       <use xlink:href="#DejaVuSans-30" x="63.623047"/>
      </g>
     </g>
    </g>
    <g id="ytick_4">
     <g id="line2d_14">
      <g>
       <use xlink:href="#m36ea896d87" x="57.6" y="182.050895" style="stroke: #000000; stroke-width: 0.8"/>
      </g>
     </g>
     <g id="text_15">
      <!-- 60 -->
      <g transform="translate(37.875 185.850114) scale(0.1 -0.1)">
       <use xlink:href="#DejaVuSans-36"/>
       <use xlink:href="#DejaVuSans-30" x="63.623047"/>
      </g>
     </g>
    </g>
    <g id="ytick_5">
     <g id="line2d_15">
      <g>
       <use xlink:href="#m36ea896d87" x="57.6" y="146.607338" style="stroke: #000000; stroke-width: 0.8"/>
      </g>
     </g>
     <g id="text_16">
      <!-- 70 -->
      <g transform="translate(37.875 150.406557) scale(0.1 -0.1)">
       <use xlink:href="#DejaVuSans-37"/>
       <use xlink:href="#DejaVuSans-30" x="63.623047"/>
      </g>
     </g>
    </g>
    <g id="ytick_6">
     <g id="line2d_16">
      <g>
       <use xlink:href="#m36ea896d87" x="57.6" y="111.163781" style="stroke: #000000; stroke-width: 0.8"/>
      </g>
     </g>
     <g id="text_17">
      <!-- 80 -->
      <g transform="translate(37.875 114.962999) scale(0.1 -0.1)">
       <defs>
        <path id="DejaVuSans-38" d="M 2034 2216 
Q 1584 2216 1326 1975 
Q 1069 1734 1069 1313 
Q 1069 891 1326 650 
Q 1584 409 2034 409 
Q 2484 409 2743 651 
Q 3003 894 3003 1313 
Q 3003 1734 2745 1975 
Q 2488 2216 2034 2216 
z
M 1403 2484 
Q 997 2584 770 2862 
Q 544 3141 544 3541 
Q 544 4100 942 4425 
Q 1341 4750 2034 4750 
Q 2731 4750 3128 4425 
Q 3525 4100 3525 3541 
Q 3525 3141 3298 2862 
Q 3072 2584 2669 2484 
Q 3125 2378 3379 2068 
Q 3634 1759 3634 1313 
Q 3634 634 3220 271 
Q 2806 -91 2034 -91 
Q 1263 -91 848 271 
Q 434 634 434 1313 
Q 434 1759 690 2068 
Q 947 2378 1403 2484 
z
M 1172 3481 
Q 1172 3119 1398 2916 
Q 1625 2713 2034 2713 
Q 2441 2713 2670 2916 
Q 2900 3119 2900 3481 
Q 2900 3844 2670 4047 
Q 2441 4250 2034 4250 
Q 1625 4250 1398 4047 
Q 1172 3844 1172 3481 
z
" transform="scale(0.015625)"/>
       </defs>
       <use xlink:href="#DejaVuSans-38"/>
       <use xlink:href="#DejaVuSans-30" x="63.623047"/>
      </g>
     </g>
    </g>
    <g id="ytick_7">
     <g id="line2d_17">
      <g>
       <use xlink:href="#m36ea896d87" x="57.6" y="75.720223" style="stroke: #000000; stroke-width: 0.8"/>
      </g>
     </g>
     <g id="text_18">
      <!-- 90 -->
      <g transform="translate(37.875 79.519442) scale(0.1 -0.1)">
       <defs>
        <path id="DejaVuSans-39" d="M 703 97 
L 703 672 
Q 941 559 1184 500 
Q 1428 441 1663 441 
Q 2288 441 2617 861 
Q 2947 1281 2994 2138 
Q 2813 1869 2534 1725 
Q 2256 1581 1919 1581 
Q 1219 1581 811 2004 
Q 403 2428 403 3163 
Q 403 3881 828 4315 
Q 1253 4750 1959 4750 
Q 2769 4750 3195 4129 
Q 3622 3509 3622 2328 
Q 3622 1225 3098 567 
Q 2575 -91 1691 -91 
Q 1453 -91 1209 -44 
Q 966 3 703 97 
z
M 1959 2075 
Q 2384 2075 2632 2365 
Q 2881 2656 2881 3163 
Q 2881 3666 2632 3958 
Q 2384 4250 1959 4250 
Q 1534 4250 1286 3958 
Q 1038 3666 1038 3163 
Q 1038 2656 1286 2365 
Q 1534 2075 1959 2075 
z
" transform="scale(0.015625)"/>
       </defs>
       <use xlink:href="#DejaVuSans-39"/>
       <use xlink:href="#DejaVuSans-30" x="63.623047"/>
      </g>
     </g>
    </g>
    <g id="text_19">
     <!-- Accuracy -->
     <g transform="translate(31.795312 197.356125) rotate(-90) scale(0.1 -0.1)">
      <defs>
       <path id="DejaVuSans-41" d="M 2188 4044 
L 1331 1722 
L 3047 1722 
L 2188 4044 
z
M 1831 4666 
L 2547 4666 
L 4325 0 
L 3669 0 
L 3244 1197 
L 1141 1197 
L 716 0 
L 50 0 
L 1831 4666 
z
" transform="scale(0.015625)"/>
       <path id="DejaVuSans-75" d="M 544 1381 
L 544 3500 
L 1119 3500 
L 1119 1403 
Q 1119 906 1312 657 
Q 1506 409 1894 409 
Q 2359 409 2629 706 
Q 2900 1003 2900 1516 
L 2900 3500 
L 3475 3500 
L 3475 0 
L 2900 0 
L 2900 538 
Q 2691 219 2414 64 
Q 2138 -91 1772 -91 
Q 1169 -91 856 284 
Q 544 659 544 1381 
z
M 1991 3584 
L 1991 3584 
z
" transform="scale(0.015625)"/>
       <path id="DejaVuSans-72" d="M 2631 2963 
Q 2534 3019 2420 3045 
Q 2306 3072 2169 3072 
Q 1681 3072 1420 2755 
Q 1159 2438 1159 1844 
L 1159 0 
L 581 0 
L 581 3500 
L 1159 3500 
L 1159 2956 
Q 1341 3275 1631 3429 
Q 1922 3584 2338 3584 
Q 2397 3584 2469 3576 
Q 2541 3569 2628 3553 
L 2631 2963 
z
" transform="scale(0.015625)"/>
       <path id="DejaVuSans-61" d="M 2194 1759 
Q 1497 1759 1228 1600 
Q 959 1441 959 1056 
Q 959 750 1161 570 
Q 1363 391 1709 391 
Q 2188 391 2477 730 
Q 2766 1069 2766 1631 
L 2766 1759 
L 2194 1759 
z
M 3341 1997 
L 3341 0 
L 2766 0 
L 2766 531 
Q 2569 213 2275 61 
Q 1981 -91 1556 -91 
Q 1019 -91 701 211 
Q 384 513 384 1019 
Q 384 1609 779 1909 
Q 1175 2209 1959 2209 
L 2766 2209 
L 2766 2266 
Q 2766 2663 2505 2880 
Q 2244 3097 1772 3097 
Q 1472 3097 1187 3025 
Q 903 2953 641 2809 
L 641 3341 
Q 956 3463 1253 3523 
Q 1550 3584 1831 3584 
Q 2591 3584 2966 3190 
Q 3341 2797 3341 1997 
z
" transform="scale(0.015625)"/>
       <path id="DejaVuSans-79" d="M 2059 -325 
Q 1816 -950 1584 -1140 
Q 1353 -1331 966 -1331 
L 506 -1331 
L 506 -850 
L 844 -850 
Q 1081 -850 1212 -737 
Q 1344 -625 1503 -206 
L 1606 56 
L 191 3500 
L 800 3500 
L 1894 763 
L 2988 3500 
L 3597 3500 
L 2059 -325 
z
" transform="scale(0.015625)"/>
      </defs>
      <use xlink:href="#DejaVuSans-41"/>
      <use xlink:href="#DejaVuSans-63" x="66.658203"/>
      <use xlink:href="#DejaVuSans-63" x="121.638672"/>
      <use xlink:href="#DejaVuSans-75" x="176.619141"/>
      <use xlink:href="#DejaVuSans-72" x="239.998047"/>
      <use xlink:href="#DejaVuSans-61" x="281.111328"/>
      <use xlink:href="#DejaVuSans-63" x="342.390625"/>
      <use xlink:href="#DejaVuSans-79" x="397.371094"/>
     </g>
    </g>
   </g>
   <g id="line2d_18">
    <path d="M 73.832727 295.488 
L 74.918528 233.302279 
L 76.00433 201.420799 
L 77.090131 182.352165 
L 78.175932 171.984925 
L 79.261733 164.018985 
L 80.347534 156.912552 
L 81.433335 151.950454 
L 82.519137 145.508588 
L 83.604938 140.84776 
L 85.77654 133.741326 
L 86.862341 129.142525 
L 87.948142 127.520982 
L 89.033943 125.031072 
L 90.119745 121.327221 
L 91.205546 119.608208 
L 92.291347 117.481595 
L 93.377148 116.028409 
L 94.462949 115.700556 
L 95.54875 139.926227 
L 96.634552 140.005975 
L 97.720353 138.047719 
L 98.806154 134.866659 
L 99.891955 132.243836 
L 100.977756 130.640015 
L 102.063557 128.123523 
L 103.149358 127.50326 
L 105.320961 124.463975 
L 106.406762 121.9209 
L 107.492563 120.671515 
L 108.578364 120.317079 
L 109.664165 118.890476 
L 110.749967 115.806887 
L 111.835768 115.310677 
L 112.921569 116.453731 
L 114.00737 113.210646 
L 115.093171 112.067591 
L 116.178972 110.75618 
L 117.264773 111.252389 
L 118.350575 109.347298 
L 119.436376 107.752338 
L 120.522177 105.953578 
L 122.693779 103.454807 
L 123.77958 103.295311 
L 124.865382 101.345915 
L 125.951183 101.283889 
L 128.122785 99.564876 
L 129.208586 97.783838 
L 130.294387 95.71039 
L 131.380189 96.153434 
L 132.46599 95.878746 
L 133.551791 95.31165 
L 134.637592 93.964794 
L 136.809194 94.735692 
L 137.894995 93.876185 
L 138.980797 115.222068 
L 140.066598 117.906917 
L 141.152399 117.809448 
L 142.2382 114.991685 
L 143.324001 115.452451 
L 144.409802 114.265092 
L 145.495604 114.371422 
L 146.581405 113.662551 
L 147.667206 112.271392 
L 148.753007 113.184063 
L 149.838808 112.368861 
L 150.924609 111.961261 
L 152.01041 110.968841 
L 153.096212 109.808064 
L 154.182013 109.36502 
L 155.267814 110.020726 
L 156.353615 109.134637 
L 157.439416 107.415624 
L 158.525217 108.602984 
L 159.611019 107.920695 
L 160.69682 106.786501 
L 161.782621 106.839667 
L 162.868422 106.715614 
L 163.954223 103.826964 
L 165.040024 105.164958 
L 166.125825 105.111793 
L 167.211627 103.951017 
L 168.297428 104.775079 
L 169.383229 103.242145 
L 171.554831 101.797821 
L 172.640632 101.629464 
L 173.726434 101.09781 
L 174.812235 100.194 
L 175.898036 99.928173 
L 178.069638 100.247165 
L 179.155439 99.343354 
L 180.24124 98.99778 
L 181.327042 97.482567 
L 182.412843 97.774977 
L 183.498644 96.073686 
L 184.584445 96.233182 
L 185.670246 96.924331 
L 186.756047 95.595198 
L 187.841849 94.593918 
L 188.92765 94.434422 
L 190.013451 93.991377 
L 191.099252 93.12301 
L 192.185053 92.423 
L 193.270854 92.600217 
L 194.356656 91.279945 
L 195.442457 91.138171 
L 196.528258 90.163473 
L 197.614059 91.217919 
L 198.69986 89.93309 
L 199.785661 89.303967 
L 200.871462 89.605237 
L 201.957264 89.596376 
L 203.043065 87.717867 
L 204.128866 87.363432 
L 205.214667 88.258382 
L 206.300468 86.858361 
L 208.472071 85.086183 
L 209.557872 85.440619 
L 210.643673 85.35201 
L 211.729474 84.75833 
L 212.815275 83.801354 
L 213.901076 84.315286 
L 214.986877 83.35831 
L 216.072679 83.402614 
L 217.15848 82.525386 
L 218.244281 82.808935 
L 219.330082 82.879822 
L 220.415883 83.065901 
L 222.587486 82.100064 
L 223.673287 82.835517 
L 224.759088 82.986153 
L 225.844889 104.739636 
L 226.93069 106.547257 
L 228.016491 107.619425 
L 229.102292 106.343457 
L 230.188094 105.891551 
L 232.359696 105.643446 
L 233.445497 104.270009 
L 234.531298 104.704192 
L 235.617099 104.766218 
L 236.702901 104.615583 
L 237.788702 104.305452 
L 238.874503 103.578859 
L 239.960304 104.234565 
L 241.046105 102.577579 
L 242.131906 103.224424 
L 243.217708 102.559857 
L 244.303509 102.249726 
L 245.38931 103.153537 
L 247.560912 101.177558 
L 248.646713 101.700351 
L 249.732514 100.264887 
L 250.818316 100.858566 
L 251.904117 101.29275 
L 252.989918 100.583879 
L 254.075719 101.035784 
L 255.16152 100.805401 
L 256.247321 99.228163 
L 257.333123 99.556016 
L 258.418924 98.439543 
L 259.504725 99.821842 
L 260.590526 100.105391 
L 261.676327 98.882588 
L 262.762128 98.253465 
L 263.847929 98.99778 
L 264.933731 98.297769 
L 266.019532 98.856005 
L 267.105333 98.99778 
L 268.191134 98.218021 
L 269.276935 97.269906 
L 270.362736 97.978777 
L 271.448538 98.014221 
L 272.534339 98.962336 
L 273.62014 96.738253 
L 274.705941 96.871166 
L 275.791742 97.296489 
L 276.877543 96.31293 
L 277.963344 97.642063 
L 279.049146 97.181297 
L 280.134947 96.21546 
L 281.220748 96.374956 
L 282.306549 94.983797 
L 283.39235 95.728111 
L 284.478151 95.763555 
L 285.563953 95.488867 
L 286.649754 94.930631 
L 287.735555 94.629361 
L 288.821356 94.850883 
L 289.907157 93.264784 
L 290.992958 93.255923 
L 292.07876 94.4167 
L 293.164561 92.759713 
L 294.250362 92.157173 
L 295.336163 92.857183 
L 296.421964 93.02554 
L 297.507765 92.272365 
L 298.593566 91.873624 
L 299.679368 92.82174 
L 300.765169 92.352113 
L 301.85097 92.511609 
L 302.936771 91.279945 
L 304.022572 93.158453 
L 305.108373 91.714128 
L 306.194175 91.315388 
L 307.279976 90.597656 
L 308.365777 91.191336 
L 309.451578 90.863483 
L 310.537379 89.569793 
L 311.62318 89.977394 
L 312.708981 89.53435 
L 313.794783 89.357132 
L 314.880584 89.649541 
L 315.966385 89.259662 
L 319.223788 88.914087 
L 320.30959 88.400156 
L 321.395391 88.107747 
L 322.481192 88.630539 
L 323.566993 87.522928 
L 324.652794 87.24824 
L 325.738595 87.407736 
L 326.824396 85.688724 
L 327.910198 88.373573 
L 328.995999 86.362151 
L 330.0818 85.688724 
L 331.167601 86.060881 
L 332.253402 85.493784 
L 333.339203 85.608976 
L 334.425005 85.538089 
L 335.510806 84.448199 
L 336.596607 85.245679 
L 337.682408 84.536808 
L 338.768209 84.944409 
L 339.85401 84.563391 
L 340.939811 83.535528 
L 342.025613 83.597554 
L 343.111414 81.719045 
L 344.197215 81.913985 
L 345.283016 83.45578 
L 346.368817 81.231696 
L 347.454618 81.479801 
L 348.54042 82.170951 
L 349.626221 81.001313 
L 350.712022 81.96715 
L 351.797823 81.66588 
L 352.883624 80.56713 
L 353.969425 80.903844 
L 355.055227 80.186111 
L 356.141028 79.193692 
L 357.226829 79.938007 
L 358.31263 79.654458 
L 360.484232 79.521545 
L 361.570033 78.750647 
L 362.655835 78.272159 
L 363.741636 78.591151 
L 364.827437 78.236716 
L 365.913238 78.272159 
L 366.999039 78.024055 
L 368.08484 77.908863 
L 369.170642 79.822815 
L 370.256443 80.505104 
L 371.342244 78.334186 
L 372.428045 80.726626 
L 373.513846 80.992452 
L 374.599647 80.753208 
L 375.685448 80.017755 
L 376.77125 81.497523 
L 377.857051 79.707623 
L 378.942852 81.160809 
L 380.028653 81.081061 
L 381.114454 80.832956 
L 382.200255 81.231696 
L 383.286057 80.363329 
L 384.371858 80.593712 
L 385.457659 80.354468 
L 386.54346 80.939287 
L 387.629261 80.27472 
L 388.715062 80.957009 
L 389.800863 80.726626 
L 390.886665 81.639297 
L 393.058267 81.036757 
L 394.144068 81.06334 
L 395.229869 80.77093 
L 396.31567 81.329166 
L 397.401472 80.496243 
L 398.487273 80.894983 
L 398.487273 80.894983 
" clip-path="url(#peb6061b88d)" style="fill: none; stroke: #1f77b4; stroke-width: 1.5; stroke-linecap: square"/>
   </g>
   <g id="line2d_19">
    <path d="M 73.832727 231.884537 
L 74.918528 201.580295 
L 76.00433 149.442822 
L 77.090131 142.885764 
L 78.175932 123.994348 
L 79.261733 112.439749 
L 80.347534 124.100679 
L 81.433335 114.141039 
L 82.519137 102.905432 
L 83.604938 108.96628 
L 84.690739 95.887607 
L 85.77654 92.02426 
L 86.862341 87.274823 
L 87.948142 88.550791 
L 89.033943 83.05704 
L 90.119745 81.781072 
L 91.205546 78.910143 
L 93.377148 77.917724 
L 94.462949 78.37849 
L 95.54875 106.237126 
L 96.634552 96.348374 
L 97.720353 101.452246 
L 98.806154 98.297769 
L 99.891955 98.4041 
L 100.977756 88.409017 
L 102.063557 92.166034 
L 103.149358 93.229341 
L 104.23516 86.565952 
L 105.320961 84.581113 
L 106.406762 81.284862 
L 107.492563 82.100064 
L 108.578364 80.079781 
L 109.664165 79.831676 
L 110.749967 77.244296 
L 111.835768 80.646878 
L 112.921569 76.464538 
L 114.00737 75.046796 
L 115.093171 75.68478 
L 116.178972 75.011352 
L 118.350575 72.49486 
L 119.436376 72.672077 
L 120.522177 71.608771 
L 121.607978 73.026513 
L 122.693779 69.978367 
L 124.865382 67.603649 
L 125.951183 66.788447 
L 127.036984 66.611229 
L 128.122785 66.575786 
L 129.208586 65.016269 
L 131.380189 64.768164 
L 132.46599 64.271954 
L 133.551791 64.307398 
L 134.637592 64.874495 
L 135.723393 63.882075 
L 136.809194 63.421309 
L 137.894995 63.740301 
L 138.980797 79.867119 
L 140.066598 78.130385 
L 141.152399 79.548127 
L 142.2382 80.505104 
L 143.324001 76.322764 
L 144.409802 79.689902 
L 145.495604 76.499982 
L 146.581405 75.18857 
L 147.667206 76.464538 
L 148.753007 73.522723 
L 149.838808 73.558166 
L 150.924609 83.127927 
L 152.01041 80.292442 
L 153.096212 76.039215 
L 154.182013 70.687238 
L 155.267814 76.464538 
L 156.353615 73.806271 
L 157.439416 72.530303 
L 158.525217 76.074659 
L 159.611019 75.68478 
L 160.69682 72.742964 
L 161.782621 71.431553 
L 162.868422 70.474577 
L 163.954223 69.872036 
L 165.040024 69.694819 
L 166.125825 70.651795 
L 167.211627 69.375827 
L 168.297428 70.758125 
L 169.383229 69.801149 
L 170.46903 67.958084 
L 171.554831 70.793569 
L 172.640632 69.198609 
L 173.726434 66.894778 
L 174.812235 65.512479 
L 175.898036 65.760584 
L 176.983837 66.256793 
L 178.069638 66.894778 
L 179.155439 65.299817 
L 180.24124 64.697277 
L 181.327042 66.965665 
L 182.412843 66.044132 
L 183.498644 65.796027 
L 184.584445 63.492196 
L 185.670246 61.968123 
L 186.756047 64.165624 
L 187.841849 63.63397 
L 190.013451 62.03901 
L 191.099252 61.861792 
L 192.185053 60.94026 
L 193.270854 63.173204 
L 194.356656 61.365583 
L 195.442457 62.03901 
L 196.528258 60.373163 
L 197.614059 59.487074 
L 198.69986 60.44405 
L 199.785661 60.656711 
L 200.871462 59.380743 
L 201.957264 58.990864 
L 203.043065 58.84909 
L 204.128866 58.281993 
L 205.214667 58.636429 
L 206.300468 58.636429 
L 207.386269 57.998445 
L 208.472071 58.84909 
L 209.557872 57.963001 
L 212.815275 57.006025 
L 213.901076 56.509815 
L 214.986877 57.25413 
L 216.072679 57.644009 
L 217.15848 56.616146 
L 218.244281 56.651589 
L 220.415883 57.076912 
L 221.501684 56.75792 
L 222.587486 56.793364 
L 223.673287 56.970581 
L 224.759088 56.75792 
L 225.844889 77.917724 
L 226.93069 70.829012 
L 228.016491 75.401231 
L 229.102292 69.375827 
L 230.188094 78.024055 
L 231.273895 70.829012 
L 232.359696 72.175868 
L 233.445497 69.765706 
L 234.531298 74.550586 
L 235.617099 67.3201 
L 236.702901 69.304939 
L 237.788702 72.636634 
L 238.874503 68.489738 
L 239.960304 70.368246 
L 241.046105 68.489738 
L 242.131906 69.41127 
L 243.217708 69.978367 
L 244.303509 70.970787 
L 245.38931 68.525181 
L 246.475111 65.087156 
L 247.560912 69.446714 
L 248.646713 69.694819 
L 250.818316 68.135302 
L 251.904117 66.292237 
L 252.989918 68.844173 
L 254.075719 65.547922 
L 255.16152 64.803608 
L 256.247321 66.82389 
L 257.333123 67.071995 
L 258.418924 68.844173 
L 259.504725 66.965665 
L 260.590526 64.236511 
L 261.676327 66.398568 
L 262.762128 67.249213 
L 263.847929 66.894778 
L 264.933731 65.512479 
L 266.019532 66.930221 
L 267.105333 64.874495 
L 268.191134 67.107439 
L 269.276935 68.525181 
L 270.362736 64.803608 
L 271.448538 66.504898 
L 272.534339 64.697277 
L 273.62014 64.449172 
L 274.705941 64.023849 
L 275.791742 67.958084 
L 276.877543 64.342841 
L 277.963344 67.107439 
L 279.049146 64.413729 
L 280.134947 63.882075 
L 281.220748 62.145341 
L 282.306549 65.441592 
L 283.39235 65.406148 
L 284.478151 64.13018 
L 285.563953 61.790905 
L 286.649754 63.492196 
L 287.735555 64.165624 
L 288.821356 64.661833 
L 289.907157 63.598527 
L 290.992958 63.669414 
L 292.07876 64.803608 
L 293.164561 63.350422 
L 294.250362 64.094737 
L 296.421964 62.428889 
L 297.507765 63.03143 
L 298.593566 62.287115 
L 299.679368 62.925099 
L 300.765169 62.074454 
L 301.85097 62.428889 
L 302.936771 60.869373 
L 304.022572 63.492196 
L 305.108373 63.279535 
L 306.194175 61.152921 
L 307.279976 60.692155 
L 308.365777 60.44405 
L 309.451578 63.314978 
L 310.537379 60.727599 
L 311.62318 61.790905 
L 312.708981 60.94026 
L 313.794783 58.955421 
L 314.880584 59.557961 
L 315.966385 61.649131 
L 317.052186 60.160502 
L 318.137987 60.727599 
L 319.223788 59.238969 
L 320.30959 60.94026 
L 321.395391 59.770623 
L 322.481192 57.927558 
L 323.566993 59.132638 
L 324.652794 60.904816 
L 325.738595 59.026308 
L 326.824396 57.785783 
L 327.910198 59.912397 
L 328.995999 58.35288 
L 330.0818 58.84909 
L 331.167601 58.388324 
L 332.253402 57.714896 
L 333.339203 60.763042 
L 334.425005 57.892114 
L 336.596607 57.714896 
L 337.682408 57.112356 
L 338.768209 57.927558 
L 339.85401 56.899694 
L 340.939811 57.25413 
L 342.025613 56.545259 
L 343.111414 56.26171 
L 344.197215 56.616146 
L 345.283016 56.226267 
L 346.368817 56.26171 
L 347.454618 56.509815 
L 349.626221 55.800944 
L 350.712022 56.084493 
L 351.797823 55.233847 
L 352.883624 56.190823 
L 353.969425 54.950299 
L 355.055227 54.808525 
L 356.141028 55.836388 
L 357.226829 55.375621 
L 358.31263 55.198404 
L 359.398431 55.411065 
L 360.484232 54.702194 
L 361.570033 55.340178 
L 362.655835 54.843968 
L 363.741636 54.524976 
L 364.827437 54.914855 
L 365.913238 54.06421 
L 366.999039 54.028766 
L 368.08484 54.347758 
L 369.170642 54.454089 
L 370.256443 55.800944 
L 371.342244 55.127517 
L 372.428045 56.119936 
L 373.513846 54.843968 
L 374.599647 56.013605 
L 375.685448 56.119936 
L 376.77125 54.950299 
L 377.857051 56.013605 
L 378.942852 55.198404 
L 380.028653 55.694613 
L 381.114454 55.694613 
L 382.200255 55.340178 
L 383.286057 55.907275 
L 384.371858 55.65917 
L 385.457659 55.16296 
L 386.54346 55.446509 
L 388.715062 56.368041 
L 389.800863 55.836388 
L 391.972466 56.545259 
L 393.058267 55.800944 
L 394.144068 55.836388 
L 395.229869 56.084493 
L 396.31567 55.623726 
L 397.401472 56.190823 
L 398.487273 55.765501 
L 398.487273 55.765501 
" clip-path="url(#peb6061b88d)" style="fill: none; stroke: #ff7f0e; stroke-width: 1.5; stroke-linecap: square"/>
   </g>
   <g id="line2d_20">
    <path d="M 73.832727 252.082475 
L 74.918528 234.360697 
L 76.00433 180.950923 
L 77.090131 179.973169 
L 78.175932 168.729006 
L 79.261733 149.418379 
L 80.347534 168.729006 
L 81.433335 158.340377 
L 82.519137 139.274188 
L 83.604938 147.096214 
L 84.690739 134.507641 
L 85.77654 132.063257 
L 86.862341 128.518902 
L 87.948142 127.541148 
L 89.033943 120.574656 
L 90.119745 121.919067 
L 91.205546 117.519177 
L 92.291347 117.641396 
L 93.377148 116.174766 
L 94.462949 118.008054 
L 95.54875 147.829529 
L 96.634552 137.929777 
L 97.720353 143.674078 
L 98.806154 142.818544 
L 99.891955 143.796297 
L 100.977756 131.085504 
L 102.063557 134.996517 
L 103.149358 131.818819 
L 104.23516 125.341203 
L 105.320961 125.707861 
L 107.492563 119.230245 
L 108.578364 123.141258 
L 109.664165 122.774601 
L 110.749967 117.763615 
L 111.835768 122.530163 
L 112.921569 114.830355 
L 114.00737 117.519177 
L 116.178972 114.708136 
L 117.264773 112.75263 
L 118.350575 107.497206 
L 119.436376 110.186027 
L 120.522177 110.552685 
L 121.607978 113.241506 
L 122.693779 108.230521 
L 124.865382 103.830631 
L 125.951183 103.219535 
L 127.036984 103.463973 
L 128.122785 105.175042 
L 129.208586 101.997343 
L 130.294387 102.852877 
L 131.380189 102.119562 
L 132.46599 102.119562 
L 133.551791 100.652933 
L 134.637592 100.775152 
L 135.723393 98.697426 
L 136.809194 97.964111 
L 137.894995 98.452988 
L 138.980797 125.096765 
L 140.066598 120.085779 
L 141.152399 121.796848 
L 142.2382 120.819094 
L 143.324001 116.419205 
L 144.409802 117.0303 
L 145.495604 121.674629 
L 146.581405 117.641396 
L 147.667206 116.419205 
L 148.753007 117.641396 
L 149.838808 113.119287 
L 150.924609 124.730108 
L 152.01041 121.674629 
L 154.182013 110.552685 
L 155.267814 118.374711 
L 156.353615 113.974821 
L 157.439416 114.21926 
L 158.525217 114.830355 
L 159.611019 113.852602 
L 160.69682 114.585917 
L 161.782621 112.019315 
L 162.868422 110.797123 
L 163.954223 109.208274 
L 165.040024 105.297261 
L 166.125825 107.741644 
L 167.211627 110.674904 
L 168.297428 111.041561 
L 169.383229 108.108301 
L 170.46903 103.463973 
L 171.554831 108.597178 
L 172.640632 107.374986 
L 173.726434 106.641672 
L 174.812235 102.119562 
L 176.983837 103.708412 
L 178.069638 101.630686 
L 179.155439 104.563946 
L 180.24124 102.608439 
L 181.327042 105.908357 
L 182.412843 99.186303 
L 183.498644 101.875124 
L 184.584445 98.08633 
L 185.670246 97.108577 
L 186.756047 101.386247 
L 187.841849 103.586192 
L 188.92765 97.841892 
L 190.013451 97.353015 
L 191.099252 100.408494 
L 192.185053 95.030851 
L 193.270854 102.730658 
L 194.356656 96.6197 
L 195.442457 96.497481 
L 196.528258 97.230796 
L 197.614059 93.564221 
L 198.69986 92.830906 
L 199.785661 93.197564 
L 200.871462 93.68644 
L 201.957264 92.097591 
L 203.043065 89.164331 
L 204.128866 91.608714 
L 205.214667 90.386523 
L 206.300468 92.830906 
L 207.386269 90.75318 
L 208.472071 90.75318 
L 209.557872 87.81992 
L 210.643673 89.40877 
L 211.729474 87.331044 
L 212.815275 87.94214 
L 214.986877 88.431016 
L 216.072679 89.530989 
L 217.15848 88.675455 
L 218.244281 86.35329 
L 219.330082 86.842167 
L 220.415883 87.208825 
L 221.501684 87.94214 
L 223.673287 86.719948 
L 224.759088 87.81992 
L 225.844889 120.574656 
L 226.93069 108.963836 
L 228.016491 116.785862 
L 229.102292 109.452712 
L 230.188094 126.074518 
L 231.273895 112.141534 
L 232.359696 114.463698 
L 233.445497 108.597178 
L 234.531298 113.852602 
L 235.617099 107.741644 
L 236.702901 109.697151 
L 237.788702 116.174766 
L 238.874503 110.186027 
L 239.960304 109.81937 
L 241.046105 105.297261 
L 242.131906 108.597178 
L 243.217708 111.041561 
L 244.303509 109.574931 
L 245.38931 104.930603 
L 246.475111 102.852877 
L 247.560912 107.986082 
L 248.646713 111.897096 
L 249.732514 105.541699 
L 250.818316 104.686165 
L 251.904117 104.808384 
L 252.989918 109.81937 
L 254.075719 102.48622 
L 255.16152 101.01959 
L 256.247321 106.152795 
L 257.333123 104.930603 
L 258.418924 108.35274 
L 259.504725 104.808384 
L 260.590526 101.997343 
L 261.676327 107.497206 
L 262.762128 107.252767 
L 263.847929 105.908357 
L 264.933731 99.55296 
L 266.019532 101.875124 
L 267.105333 102.364001 
L 268.191134 102.730658 
L 269.276935 102.730658 
L 270.362736 106.519452 
L 271.448538 102.119562 
L 272.534339 101.875124 
L 273.62014 98.697426 
L 274.705941 99.919618 
L 275.791742 103.219535 
L 276.877543 102.241782 
L 277.963344 105.663918 
L 279.049146 98.697426 
L 280.134947 97.597453 
L 281.220748 100.286275 
L 282.306549 99.919618 
L 283.39235 105.297261 
L 284.478151 100.530713 
L 285.563953 96.864138 
L 286.649754 99.430741 
L 287.735555 97.230796 
L 288.821356 97.475234 
L 289.907157 98.819645 
L 290.992958 97.230796 
L 292.07876 96.741919 
L 293.164561 97.475234 
L 294.250362 98.819645 
L 296.421964 96.6197 
L 297.507765 96.375262 
L 298.593566 99.186303 
L 299.679368 96.864138 
L 300.765169 97.353015 
L 301.85097 99.308522 
L 302.936771 93.930879 
L 304.022572 94.786413 
L 305.108373 97.353015 
L 306.194175 95.030851 
L 307.279976 95.397509 
L 308.365777 95.15307 
L 309.451578 96.130823 
L 310.537379 95.397509 
L 311.62318 97.230796 
L 312.708981 95.030851 
L 313.794783 92.342029 
L 314.880584 92.586468 
L 315.966385 92.342029 
L 317.052186 89.530989 
L 318.137987 95.764166 
L 319.223788 93.319783 
L 320.30959 92.586468 
L 321.395391 93.930879 
L 322.481192 90.142085 
L 323.566993 90.997619 
L 324.652794 93.319783 
L 325.738595 91.730934 
L 326.824396 90.630961 
L 327.910198 93.197564 
L 328.995999 91.242057 
L 330.0818 91.853153 
L 332.253402 87.453263 
L 333.339203 93.808659 
L 334.425005 87.086605 
L 335.510806 88.186578 
L 336.596607 88.553235 
L 337.682408 88.308797 
L 338.768209 89.164331 
L 339.85401 85.986633 
L 340.939811 84.642222 
L 342.025613 86.597729 
L 343.111414 88.308797 
L 344.197215 85.864414 
L 345.283016 87.208825 
L 346.368817 85.619975 
L 347.454618 85.864414 
L 348.54042 85.00888 
L 349.626221 84.88666 
L 350.712022 84.153346 
L 351.797823 86.108852 
L 352.883624 82.442277 
L 353.969425 83.175592 
L 355.055227 82.197839 
L 356.141028 83.420031 
L 357.226829 81.708962 
L 358.31263 82.442277 
L 359.398431 84.031126 
L 360.484232 82.07562 
L 361.570033 81.342305 
L 362.655835 82.808935 
L 363.741636 79.020141 
L 364.827437 80.853428 
L 365.913238 81.220086 
L 366.999039 79.264579 
L 368.08484 81.097866 
L 369.170642 80.242332 
L 370.256443 83.908907 
L 371.342244 82.197839 
L 372.428045 85.619975 
L 373.513846 85.253318 
L 374.599647 82.442277 
L 375.685448 85.986633 
L 376.77125 85.00888 
L 377.857051 87.575482 
L 378.942852 84.153346 
L 380.028653 85.986633 
L 381.114454 84.642222 
L 382.200255 83.053373 
L 383.286057 82.07562 
L 384.371858 86.231071 
L 385.457659 84.88666 
L 386.54346 84.397784 
L 387.629261 84.520003 
L 388.715062 87.697701 
L 389.800863 84.764441 
L 390.886665 86.108852 
L 391.972466 84.031126 
L 393.058267 84.642222 
L 394.144068 85.742195 
L 395.229869 84.275565 
L 396.31567 84.397784 
L 397.401472 87.086605 
L 398.487273 84.764441 
L 398.487273 84.764441 
" clip-path="url(#peb6061b88d)" style="fill: none; stroke: #2ca02c; stroke-width: 1.5; stroke-linecap: square"/>
   </g>
   <g id="line2d_21">
    <path d="M 368.08484 53.922436 
L 369.170642 53.851548 
L 370.256443 53.922436 
L 371.342244 53.638887 
L 373.513846 54.418645 
L 374.599647 54.205984 
L 375.685448 54.454089 
L 376.77125 54.418645 
L 377.857051 55.552839 
L 378.942852 53.993323 
L 380.028653 53.603444 
L 381.114454 53.851548 
L 382.200255 53.568 
L 383.286057 54.205984 
L 384.371858 53.922436 
L 385.457659 54.135097 
L 386.54346 54.489532 
L 387.629261 53.709774 
L 388.715062 53.780661 
L 391.972466 53.603444 
L 393.058267 54.028766 
L 394.144068 54.702194 
L 395.229869 54.631307 
L 396.31567 53.674331 
L 397.401472 54.383202 
L 398.487273 53.816105 
L 398.487273 53.816105 
" clip-path="url(#peb6061b88d)" style="fill: none; stroke: #d62728; stroke-width: 1.5; stroke-linecap: square"/>
   </g>
   <g id="line2d_22">
    <path d="M 368.08484 78.775702 
L 369.170642 78.531264 
L 370.256443 79.631236 
L 371.342244 77.431292 
L 372.428045 79.386798 
L 373.513846 78.897922 
L 374.599647 79.509017 
L 375.685448 78.775702 
L 376.77125 76.820196 
L 377.857051 81.342305 
L 378.942852 79.509017 
L 380.028653 78.409045 
L 381.114454 79.264579 
L 382.200255 77.553511 
L 383.286057 79.020141 
L 384.371858 80.120113 
L 385.457659 79.509017 
L 386.54346 79.997894 
L 388.715062 78.164607 
L 389.800863 77.920168 
L 390.886665 78.531264 
L 391.972466 78.042387 
L 393.058267 78.653483 
L 394.144068 81.220086 
L 395.229869 80.242332 
L 396.31567 78.286826 
L 397.401472 79.020141 
L 398.487273 79.386798 
L 398.487273 79.386798 
" clip-path="url(#peb6061b88d)" style="fill: none; stroke: #9467bd; stroke-width: 1.5; stroke-linecap: square"/>
   </g>
   <g id="patch_3">
    <path d="M 57.6 307.584 
L 57.6 41.472 
" style="fill: none; stroke: #000000; stroke-width: 0.8; stroke-linejoin: miter; stroke-linecap: square"/>
   </g>
   <g id="patch_4">
    <path d="M 414.72 307.584 
L 414.72 41.472 
" style="fill: none; stroke: #000000; stroke-width: 0.8; stroke-linejoin: miter; stroke-linecap: square"/>
   </g>
   <g id="patch_5">
    <path d="M 57.6 307.584 
L 414.72 307.584 
" style="fill: none; stroke: #000000; stroke-width: 0.8; stroke-linejoin: miter; stroke-linecap: square"/>
   </g>
   <g id="patch_6">
    <path d="M 57.6 41.472 
L 414.72 41.472 
" style="fill: none; stroke: #000000; stroke-width: 0.8; stroke-linejoin: miter; stroke-linecap: square"/>
   </g>
   <g id="text_20">
    <!-- Learning Curves -->
    <g transform="translate(187.37625 35.472) scale(0.12 -0.12)">
     <defs>
      <path id="DejaVuSans-4c" d="M 628 4666 
L 1259 4666 
L 1259 531 
L 3531 531 
L 3531 0 
L 628 0 
L 628 4666 
z
" transform="scale(0.015625)"/>
      <path id="DejaVuSans-65" d="M 3597 1894 
L 3597 1613 
L 953 1613 
Q 991 1019 1311 708 
Q 1631 397 2203 397 
Q 2534 397 2845 478 
Q 3156 559 3463 722 
L 3463 178 
Q 3153 47 2828 -22 
Q 2503 -91 2169 -91 
Q 1331 -91 842 396 
Q 353 884 353 1716 
Q 353 2575 817 3079 
Q 1281 3584 2069 3584 
Q 2775 3584 3186 3129 
Q 3597 2675 3597 1894 
z
M 3022 2063 
Q 3016 2534 2758 2815 
Q 2500 3097 2075 3097 
Q 1594 3097 1305 2825 
Q 1016 2553 972 2059 
L 3022 2063 
z
" transform="scale(0.015625)"/>
      <path id="DejaVuSans-6e" d="M 3513 2113 
L 3513 0 
L 2938 0 
L 2938 2094 
Q 2938 2591 2744 2837 
Q 2550 3084 2163 3084 
Q 1697 3084 1428 2787 
Q 1159 2491 1159 1978 
L 1159 0 
L 581 0 
L 581 3500 
L 1159 3500 
L 1159 2956 
Q 1366 3272 1645 3428 
Q 1925 3584 2291 3584 
Q 2894 3584 3203 3211 
Q 3513 2838 3513 2113 
z
" transform="scale(0.015625)"/>
      <path id="DejaVuSans-69" d="M 603 3500 
L 1178 3500 
L 1178 0 
L 603 0 
L 603 3500 
z
M 603 4863 
L 1178 4863 
L 1178 4134 
L 603 4134 
L 603 4863 
z
" transform="scale(0.015625)"/>
      <path id="DejaVuSans-67" d="M 2906 1791 
Q 2906 2416 2648 2759 
Q 2391 3103 1925 3103 
Q 1463 3103 1205 2759 
Q 947 2416 947 1791 
Q 947 1169 1205 825 
Q 1463 481 1925 481 
Q 2391 481 2648 825 
Q 2906 1169 2906 1791 
z
M 3481 434 
Q 3481 -459 3084 -895 
Q 2688 -1331 1869 -1331 
Q 1566 -1331 1297 -1286 
Q 1028 -1241 775 -1147 
L 775 -588 
Q 1028 -725 1275 -790 
Q 1522 -856 1778 -856 
Q 2344 -856 2625 -561 
Q 2906 -266 2906 331 
L 2906 616 
Q 2728 306 2450 153 
Q 2172 0 1784 0 
Q 1141 0 747 490 
Q 353 981 353 1791 
Q 353 2603 747 3093 
Q 1141 3584 1784 3584 
Q 2172 3584 2450 3431 
Q 2728 3278 2906 2969 
L 2906 3500 
L 3481 3500 
L 3481 434 
z
" transform="scale(0.015625)"/>
      <path id="DejaVuSans-20" transform="scale(0.015625)"/>
      <path id="DejaVuSans-43" d="M 4122 4306 
L 4122 3641 
Q 3803 3938 3442 4084 
Q 3081 4231 2675 4231 
Q 1875 4231 1450 3742 
Q 1025 3253 1025 2328 
Q 1025 1406 1450 917 
Q 1875 428 2675 428 
Q 3081 428 3442 575 
Q 3803 722 4122 1019 
L 4122 359 
Q 3791 134 3420 21 
Q 3050 -91 2638 -91 
Q 1578 -91 968 557 
Q 359 1206 359 2328 
Q 359 3453 968 4101 
Q 1578 4750 2638 4750 
Q 3056 4750 3426 4639 
Q 3797 4528 4122 4306 
z
" transform="scale(0.015625)"/>
      <path id="DejaVuSans-76" d="M 191 3500 
L 800 3500 
L 1894 563 
L 2988 3500 
L 3597 3500 
L 2284 0 
L 1503 0 
L 191 3500 
z
" transform="scale(0.015625)"/>
     </defs>
     <use xlink:href="#DejaVuSans-4c"/>
     <use xlink:href="#DejaVuSans-65" x="53.962891"/>
     <use xlink:href="#DejaVuSans-61" x="115.486328"/>
     <use xlink:href="#DejaVuSans-72" x="176.765625"/>
     <use xlink:href="#DejaVuSans-6e" x="216.128906"/>
     <use xlink:href="#DejaVuSans-69" x="279.507812"/>
     <use xlink:href="#DejaVuSans-6e" x="307.291016"/>
     <use xlink:href="#DejaVuSans-67" x="370.669922"/>
     <use xlink:href="#DejaVuSans-20" x="434.146484"/>
     <use xlink:href="#DejaVuSans-43" x="465.933594"/>
     <use xlink:href="#DejaVuSans-75" x="535.757812"/>
     <use xlink:href="#DejaVuSans-72" x="599.136719"/>
     <use xlink:href="#DejaVuSans-76" x="640.25"/>
     <use xlink:href="#DejaVuSans-65" x="699.429688"/>
     <use xlink:href="#DejaVuSans-73" x="760.953125"/>
    </g>
   </g>
   <g id="legend_1">
    <g id="patch_7">
     <path d="M 214.18875 302.584 
L 407.72 302.584 
Q 409.72 302.584 409.72 300.584 
L 409.72 228.193375 
Q 409.72 226.193375 407.72 226.193375 
L 214.18875 226.193375 
Q 212.18875 226.193375 212.18875 228.193375 
L 212.18875 300.584 
Q 212.18875 302.584 214.18875 302.584 
z
" style="fill: #ffffff; opacity: 0.8; stroke: #cccccc; stroke-linejoin: miter"/>
    </g>
    <g id="line2d_23">
     <path d="M 216.18875 234.291812 
L 226.18875 234.291812 
L 236.18875 234.291812 
" style="fill: none; stroke: #1f77b4; stroke-width: 1.5; stroke-linecap: square"/>
    </g>
    <g id="text_21">
     <!-- Train Accuracy -->
     <g transform="translate(244.18875 237.791812) scale(0.1 -0.1)">
      <defs>
       <path id="DejaVuSans-54" d="M -19 4666 
L 3928 4666 
L 3928 4134 
L 2272 4134 
L 2272 0 
L 1638 0 
L 1638 4134 
L -19 4134 
L -19 4666 
z
" transform="scale(0.015625)"/>
      </defs>
      <use xlink:href="#DejaVuSans-54"/>
      <use xlink:href="#DejaVuSans-72" x="46.333984"/>
      <use xlink:href="#DejaVuSans-61" x="87.447266"/>
      <use xlink:href="#DejaVuSans-69" x="148.726562"/>
      <use xlink:href="#DejaVuSans-6e" x="176.509766"/>
      <use xlink:href="#DejaVuSans-20" x="239.888672"/>
      <use xlink:href="#DejaVuSans-41" x="271.675781"/>
      <use xlink:href="#DejaVuSans-63" x="338.333984"/>
      <use xlink:href="#DejaVuSans-63" x="393.314453"/>
      <use xlink:href="#DejaVuSans-75" x="448.294922"/>
      <use xlink:href="#DejaVuSans-72" x="511.673828"/>
      <use xlink:href="#DejaVuSans-61" x="552.787109"/>
      <use xlink:href="#DejaVuSans-63" x="614.066406"/>
      <use xlink:href="#DejaVuSans-79" x="669.046875"/>
     </g>
    </g>
    <g id="line2d_24">
     <path d="M 216.18875 248.969937 
L 226.18875 248.969937 
L 236.18875 248.969937 
" style="fill: none; stroke: #ff7f0e; stroke-width: 1.5; stroke-linecap: square"/>
    </g>
    <g id="text_22">
     <!-- Validation Accuracy -->
     <g transform="translate(244.18875 252.469937) scale(0.1 -0.1)">
      <defs>
       <path id="DejaVuSans-56" d="M 1831 0 
L 50 4666 
L 709 4666 
L 2188 738 
L 3669 4666 
L 4325 4666 
L 2547 0 
L 1831 0 
z
" transform="scale(0.015625)"/>
       <path id="DejaVuSans-6c" d="M 603 4863 
L 1178 4863 
L 1178 0 
L 603 0 
L 603 4863 
z
" transform="scale(0.015625)"/>
       <path id="DejaVuSans-64" d="M 2906 2969 
L 2906 4863 
L 3481 4863 
L 3481 0 
L 2906 0 
L 2906 525 
Q 2725 213 2448 61 
Q 2172 -91 1784 -91 
Q 1150 -91 751 415 
Q 353 922 353 1747 
Q 353 2572 751 3078 
Q 1150 3584 1784 3584 
Q 2172 3584 2448 3432 
Q 2725 3281 2906 2969 
z
M 947 1747 
Q 947 1113 1208 752 
Q 1469 391 1925 391 
Q 2381 391 2643 752 
Q 2906 1113 2906 1747 
Q 2906 2381 2643 2742 
Q 2381 3103 1925 3103 
Q 1469 3103 1208 2742 
Q 947 2381 947 1747 
z
" transform="scale(0.015625)"/>
       <path id="DejaVuSans-74" d="M 1172 4494 
L 1172 3500 
L 2356 3500 
L 2356 3053 
L 1172 3053 
L 1172 1153 
Q 1172 725 1289 603 
Q 1406 481 1766 481 
L 2356 481 
L 2356 0 
L 1766 0 
Q 1100 0 847 248 
Q 594 497 594 1153 
L 594 3053 
L 172 3053 
L 172 3500 
L 594 3500 
L 594 4494 
L 1172 4494 
z
" transform="scale(0.015625)"/>
      </defs>
      <use xlink:href="#DejaVuSans-56"/>
      <use xlink:href="#DejaVuSans-61" x="60.658203"/>
      <use xlink:href="#DejaVuSans-6c" x="121.9375"/>
      <use xlink:href="#DejaVuSans-69" x="149.720703"/>
      <use xlink:href="#DejaVuSans-64" x="177.503906"/>
      <use xlink:href="#DejaVuSans-61" x="240.980469"/>
      <use xlink:href="#DejaVuSans-74" x="302.259766"/>
      <use xlink:href="#DejaVuSans-69" x="341.46875"/>
      <use xlink:href="#DejaVuSans-6f" x="369.251953"/>
      <use xlink:href="#DejaVuSans-6e" x="430.433594"/>
      <use xlink:href="#DejaVuSans-20" x="493.8125"/>
      <use xlink:href="#DejaVuSans-41" x="525.599609"/>
      <use xlink:href="#DejaVuSans-63" x="592.257812"/>
      <use xlink:href="#DejaVuSans-63" x="647.238281"/>
      <use xlink:href="#DejaVuSans-75" x="702.21875"/>
      <use xlink:href="#DejaVuSans-72" x="765.597656"/>
      <use xlink:href="#DejaVuSans-61" x="806.710938"/>
      <use xlink:href="#DejaVuSans-63" x="867.990234"/>
      <use xlink:href="#DejaVuSans-79" x="922.970703"/>
     </g>
    </g>
    <g id="line2d_25">
     <path d="M 216.18875 263.648062 
L 226.18875 263.648062 
L 236.18875 263.648062 
" style="fill: none; stroke: #2ca02c; stroke-width: 1.5; stroke-linecap: square"/>
    </g>
    <g id="text_23">
     <!-- Robust Validation Accuracy -->
     <g transform="translate(244.18875 267.148062) scale(0.1 -0.1)">
      <defs>
       <path id="DejaVuSans-52" d="M 2841 2188 
Q 3044 2119 3236 1894 
Q 3428 1669 3622 1275 
L 4263 0 
L 3584 0 
L 2988 1197 
Q 2756 1666 2539 1819 
Q 2322 1972 1947 1972 
L 1259 1972 
L 1259 0 
L 628 0 
L 628 4666 
L 2053 4666 
Q 2853 4666 3247 4331 
Q 3641 3997 3641 3322 
Q 3641 2881 3436 2590 
Q 3231 2300 2841 2188 
z
M 1259 4147 
L 1259 2491 
L 2053 2491 
Q 2509 2491 2742 2702 
Q 2975 2913 2975 3322 
Q 2975 3731 2742 3939 
Q 2509 4147 2053 4147 
L 1259 4147 
z
" transform="scale(0.015625)"/>
       <path id="DejaVuSans-62" d="M 3116 1747 
Q 3116 2381 2855 2742 
Q 2594 3103 2138 3103 
Q 1681 3103 1420 2742 
Q 1159 2381 1159 1747 
Q 1159 1113 1420 752 
Q 1681 391 2138 391 
Q 2594 391 2855 752 
Q 3116 1113 3116 1747 
z
M 1159 2969 
Q 1341 3281 1617 3432 
Q 1894 3584 2278 3584 
Q 2916 3584 3314 3078 
Q 3713 2572 3713 1747 
Q 3713 922 3314 415 
Q 2916 -91 2278 -91 
Q 1894 -91 1617 61 
Q 1341 213 1159 525 
L 1159 0 
L 581 0 
L 581 4863 
L 1159 4863 
L 1159 2969 
z
" transform="scale(0.015625)"/>
      </defs>
      <use xlink:href="#DejaVuSans-52"/>
      <use xlink:href="#DejaVuSans-6f" x="64.982422"/>
      <use xlink:href="#DejaVuSans-62" x="126.164062"/>
      <use xlink:href="#DejaVuSans-75" x="189.640625"/>
      <use xlink:href="#DejaVuSans-73" x="253.019531"/>
      <use xlink:href="#DejaVuSans-74" x="305.119141"/>
      <use xlink:href="#DejaVuSans-20" x="344.328125"/>
      <use xlink:href="#DejaVuSans-56" x="376.115234"/>
      <use xlink:href="#DejaVuSans-61" x="436.773438"/>
      <use xlink:href="#DejaVuSans-6c" x="498.052734"/>
      <use xlink:href="#DejaVuSans-69" x="525.835938"/>
      <use xlink:href="#DejaVuSans-64" x="553.619141"/>
      <use xlink:href="#DejaVuSans-61" x="617.095703"/>
      <use xlink:href="#DejaVuSans-74" x="678.375"/>
      <use xlink:href="#DejaVuSans-69" x="717.583984"/>
      <use xlink:href="#DejaVuSans-6f" x="745.367188"/>
      <use xlink:href="#DejaVuSans-6e" x="806.548828"/>
      <use xlink:href="#DejaVuSans-20" x="869.927734"/>
      <use xlink:href="#DejaVuSans-41" x="901.714844"/>
      <use xlink:href="#DejaVuSans-63" x="968.373047"/>
      <use xlink:href="#DejaVuSans-63" x="1023.353516"/>
      <use xlink:href="#DejaVuSans-75" x="1078.333984"/>
      <use xlink:href="#DejaVuSans-72" x="1141.712891"/>
      <use xlink:href="#DejaVuSans-61" x="1182.826172"/>
      <use xlink:href="#DejaVuSans-63" x="1244.105469"/>
      <use xlink:href="#DejaVuSans-79" x="1299.085938"/>
     </g>
    </g>
    <g id="line2d_26">
     <path d="M 216.18875 278.326188 
L 226.18875 278.326188 
L 236.18875 278.326188 
" style="fill: none; stroke: #d62728; stroke-width: 1.5; stroke-linecap: square"/>
    </g>
    <g id="text_24">
     <!-- SWA Validation Accuracy -->
     <g transform="translate(244.18875 281.826188) scale(0.1 -0.1)">
      <defs>
       <path id="DejaVuSans-53" d="M 3425 4513 
L 3425 3897 
Q 3066 4069 2747 4153 
Q 2428 4238 2131 4238 
Q 1616 4238 1336 4038 
Q 1056 3838 1056 3469 
Q 1056 3159 1242 3001 
Q 1428 2844 1947 2747 
L 2328 2669 
Q 3034 2534 3370 2195 
Q 3706 1856 3706 1288 
Q 3706 609 3251 259 
Q 2797 -91 1919 -91 
Q 1588 -91 1214 -16 
Q 841 59 441 206 
L 441 856 
Q 825 641 1194 531 
Q 1563 422 1919 422 
Q 2459 422 2753 634 
Q 3047 847 3047 1241 
Q 3047 1584 2836 1778 
Q 2625 1972 2144 2069 
L 1759 2144 
Q 1053 2284 737 2584 
Q 422 2884 422 3419 
Q 422 4038 858 4394 
Q 1294 4750 2059 4750 
Q 2388 4750 2728 4690 
Q 3069 4631 3425 4513 
z
" transform="scale(0.015625)"/>
       <path id="DejaVuSans-57" d="M 213 4666 
L 850 4666 
L 1831 722 
L 2809 4666 
L 3519 4666 
L 4500 722 
L 5478 4666 
L 6119 4666 
L 4947 0 
L 4153 0 
L 3169 4050 
L 2175 0 
L 1381 0 
L 213 4666 
z
" transform="scale(0.015625)"/>
      </defs>
      <use xlink:href="#DejaVuSans-53"/>
      <use xlink:href="#DejaVuSans-57" x="63.476562"/>
      <use xlink:href="#DejaVuSans-41" x="156.853516"/>
      <use xlink:href="#DejaVuSans-20" x="225.261719"/>
      <use xlink:href="#DejaVuSans-56" x="257.048828"/>
      <use xlink:href="#DejaVuSans-61" x="317.707031"/>
      <use xlink:href="#DejaVuSans-6c" x="378.986328"/>
      <use xlink:href="#DejaVuSans-69" x="406.769531"/>
      <use xlink:href="#DejaVuSans-64" x="434.552734"/>
      <use xlink:href="#DejaVuSans-61" x="498.029297"/>
      <use xlink:href="#DejaVuSans-74" x="559.308594"/>
      <use xlink:href="#DejaVuSans-69" x="598.517578"/>
      <use xlink:href="#DejaVuSans-6f" x="626.300781"/>
      <use xlink:href="#DejaVuSans-6e" x="687.482422"/>
      <use xlink:href="#DejaVuSans-20" x="750.861328"/>
      <use xlink:href="#DejaVuSans-41" x="782.648438"/>
      <use xlink:href="#DejaVuSans-63" x="849.306641"/>
      <use xlink:href="#DejaVuSans-63" x="904.287109"/>
      <use xlink:href="#DejaVuSans-75" x="959.267578"/>
      <use xlink:href="#DejaVuSans-72" x="1022.646484"/>
      <use xlink:href="#DejaVuSans-61" x="1063.759766"/>
      <use xlink:href="#DejaVuSans-63" x="1125.039062"/>
      <use xlink:href="#DejaVuSans-79" x="1180.019531"/>
     </g>
    </g>
    <g id="line2d_27">
     <path d="M 216.18875 293.004312 
L 226.18875 293.004312 
L 236.18875 293.004312 
" style="fill: none; stroke: #9467bd; stroke-width: 1.5; stroke-linecap: square"/>
    </g>
    <g id="text_25">
     <!-- SWA Robust Validation Accuracy -->
     <g transform="translate(244.18875 296.504312) scale(0.1 -0.1)">
      <use xlink:href="#DejaVuSans-53"/>
      <use xlink:href="#DejaVuSans-57" x="63.476562"/>
      <use xlink:href="#DejaVuSans-41" x="156.853516"/>
      <use xlink:href="#DejaVuSans-20" x="225.261719"/>
      <use xlink:href="#DejaVuSans-52" x="257.048828"/>
      <use xlink:href="#DejaVuSans-6f" x="322.03125"/>
      <use xlink:href="#DejaVuSans-62" x="383.212891"/>
      <use xlink:href="#DejaVuSans-75" x="446.689453"/>
      <use xlink:href="#DejaVuSans-73" x="510.068359"/>
      <use xlink:href="#DejaVuSans-74" x="562.167969"/>
      <use xlink:href="#DejaVuSans-20" x="601.376953"/>
      <use xlink:href="#DejaVuSans-56" x="633.164062"/>
      <use xlink:href="#DejaVuSans-61" x="693.822266"/>
      <use xlink:href="#DejaVuSans-6c" x="755.101562"/>
      <use xlink:href="#DejaVuSans-69" x="782.884766"/>
      <use xlink:href="#DejaVuSans-64" x="810.667969"/>
      <use xlink:href="#DejaVuSans-61" x="874.144531"/>
      <use xlink:href="#DejaVuSans-74" x="935.423828"/>
      <use xlink:href="#DejaVuSans-69" x="974.632812"/>
      <use xlink:href="#DejaVuSans-6f" x="1002.416016"/>
      <use xlink:href="#DejaVuSans-6e" x="1063.597656"/>
      <use xlink:href="#DejaVuSans-20" x="1126.976562"/>
      <use xlink:href="#DejaVuSans-41" x="1158.763672"/>
      <use xlink:href="#DejaVuSans-63" x="1225.421875"/>
      <use xlink:href="#DejaVuSans-63" x="1280.402344"/>
      <use xlink:href="#DejaVuSans-75" x="1335.382812"/>
      <use xlink:href="#DejaVuSans-72" x="1398.761719"/>
      <use xlink:href="#DejaVuSans-61" x="1439.875"/>
      <use xlink:href="#DejaVuSans-63" x="1501.154297"/>
      <use xlink:href="#DejaVuSans-79" x="1556.134766"/>
     </g>
    </g>
   </g>
  </g>
 </g>
 <defs>
  <clipPath id="peb6061b88d">
   <rect x="57.6" y="41.472" width="357.12" height="266.112"/>
  </clipPath>
 </defs>
</svg>
