<?xml version="1.0" encoding="utf-8" standalone="no"?>
<!DOCTYPE svg PUBLIC "-//W3C//DTD SVG 1.1//EN"
  "http://www.w3.org/Graphics/SVG/1.1/DTD/svg11.dtd">
<svg xmlns:xlink="http://www.w3.org/1999/xlink" width="460.8pt" height="345.6pt" viewBox="0 0 460.8 345.6" xmlns="http://www.w3.org/2000/svg" version="1.1">
 <metadata>
  <rdf:RDF xmlns:dc="http://purl.org/dc/elements/1.1/" xmlns:cc="http://creativecommons.org/ns#" xmlns:rdf="http://www.w3.org/1999/02/22-rdf-syntax-ns#">
   <cc:Work>
    <dc:type rdf:resource="http://purl.org/dc/dcmitype/StillImage"/>
    <dc:date>2025-05-07T02:58:39.156624</dc:date>
    <dc:format>image/svg+xml</dc:format>
    <dc:creator>
     <cc:Agent>
      <dc:title>Matplotlib v3.9.1, https://matplotlib.org/</dc:title>
     </cc:Agent>
    </dc:creator>
   </cc:Work>
  </rdf:RDF>
 </metadata>
 <defs>
  <style type="text/css">*{stroke-linejoin: round; stroke-linecap: butt}</style>
 </defs>
 <g id="figure_1">
  <g id="patch_1">
   <path d="M 0 345.6 
L 460.8 345.6 
L 460.8 0 
L 0 0 
z
" style="fill: #ffffff"/>
  </g>
  <g id="axes_1">
   <g id="patch_2">
    <path d="M 57.6 307.584 
L 414.72 307.584 
L 414.72 41.472 
L 57.6 41.472 
z
" style="fill: #ffffff"/>
   </g>
   <g id="matplotlib.axis_1">
    <g id="xtick_1">
     <g id="line2d_1">
      <defs>
       <path id="m1a7e612647" d="M 0 0 
L 0 3.5 
" style="stroke: #000000; stroke-width: 0.8"/>
      </defs>
      <g>
       <use xlink:href="#m1a7e612647" x="73.832727" y="307.584" style="stroke: #000000; stroke-width: 0.8"/>
      </g>
     </g>
     <g id="text_1">
      <!-- 1 -->
      <g transform="translate(70.651477 322.182437) scale(0.1 -0.1)">
       <defs>
        <path id="DejaVuSans-31" d="M 794 531 
L 1825 531 
L 1825 4091 
L 703 3866 
L 703 4441 
L 1819 4666 
L 2450 4666 
L 2450 531 
L 3481 531 
L 3481 0 
L 794 0 
L 794 531 
z
" transform="scale(0.015625)"/>
       </defs>
       <use xlink:href="#DejaVuSans-31"/>
      </g>
     </g>
    </g>
    <g id="xtick_2">
     <g id="line2d_2">
      <g>
       <use xlink:href="#m1a7e612647" x="109.664165" y="307.584" style="stroke: #000000; stroke-width: 0.8"/>
      </g>
     </g>
     <g id="text_2">
      <!-- 34 -->
      <g transform="translate(103.301665 322.182437) scale(0.1 -0.1)">
       <defs>
        <path id="DejaVuSans-33" d="M 2597 2516 
Q 3050 2419 3304 2112 
Q 3559 1806 3559 1356 
Q 3559 666 3084 287 
Q 2609 -91 1734 -91 
Q 1441 -91 1130 -33 
Q 819 25 488 141 
L 488 750 
Q 750 597 1062 519 
Q 1375 441 1716 441 
Q 2309 441 2620 675 
Q 2931 909 2931 1356 
Q 2931 1769 2642 2001 
Q 2353 2234 1838 2234 
L 1294 2234 
L 1294 2753 
L 1863 2753 
Q 2328 2753 2575 2939 
Q 2822 3125 2822 3475 
Q 2822 3834 2567 4026 
Q 2313 4219 1838 4219 
Q 1578 4219 1281 4162 
Q 984 4106 628 3988 
L 628 4550 
Q 988 4650 1302 4700 
Q 1616 4750 1894 4750 
Q 2613 4750 3031 4423 
Q 3450 4097 3450 3541 
Q 3450 3153 3228 2886 
Q 3006 2619 2597 2516 
z
" transform="scale(0.015625)"/>
        <path id="DejaVuSans-34" d="M 2419 4116 
L 825 1625 
L 2419 1625 
L 2419 4116 
z
M 2253 4666 
L 3047 4666 
L 3047 1625 
L 3713 1625 
L 3713 1100 
L 3047 1100 
L 3047 0 
L 2419 0 
L 2419 1100 
L 313 1100 
L 313 1709 
L 2253 4666 
z
" transform="scale(0.015625)"/>
       </defs>
       <use xlink:href="#DejaVuSans-33"/>
       <use xlink:href="#DejaVuSans-34" x="63.623047"/>
      </g>
     </g>
    </g>
    <g id="xtick_3">
     <g id="line2d_3">
      <g>
       <use xlink:href="#m1a7e612647" x="145.495604" y="307.584" style="stroke: #000000; stroke-width: 0.8"/>
      </g>
     </g>
     <g id="text_3">
      <!-- 67 -->
      <g transform="translate(139.133104 322.182437) scale(0.1 -0.1)">
       <defs>
        <path id="DejaVuSans-36" d="M 2113 2584 
Q 1688 2584 1439 2293 
Q 1191 2003 1191 1497 
Q 1191 994 1439 701 
Q 1688 409 2113 409 
Q 2538 409 2786 701 
Q 3034 994 3034 1497 
Q 3034 2003 2786 2293 
Q 2538 2584 2113 2584 
z
M 3366 4563 
L 3366 3988 
Q 3128 4100 2886 4159 
Q 2644 4219 2406 4219 
Q 1781 4219 1451 3797 
Q 1122 3375 1075 2522 
Q 1259 2794 1537 2939 
Q 1816 3084 2150 3084 
Q 2853 3084 3261 2657 
Q 3669 2231 3669 1497 
Q 3669 778 3244 343 
Q 2819 -91 2113 -91 
Q 1303 -91 875 529 
Q 447 1150 447 2328 
Q 447 3434 972 4092 
Q 1497 4750 2381 4750 
Q 2619 4750 2861 4703 
Q 3103 4656 3366 4563 
z
" transform="scale(0.015625)"/>
        <path id="DejaVuSans-37" d="M 525 4666 
L 3525 4666 
L 3525 4397 
L 1831 0 
L 1172 0 
L 2766 4134 
L 525 4134 
L 525 4666 
z
" transform="scale(0.015625)"/>
       </defs>
       <use xlink:href="#DejaVuSans-36"/>
       <use xlink:href="#DejaVuSans-37" x="63.623047"/>
      </g>
     </g>
    </g>
    <g id="xtick_4">
     <g id="line2d_4">
      <g>
       <use xlink:href="#m1a7e612647" x="181.327042" y="307.584" style="stroke: #000000; stroke-width: 0.8"/>
      </g>
     </g>
     <g id="text_4">
      <!-- 100 -->
      <g transform="translate(171.783292 322.182437) scale(0.1 -0.1)">
       <defs>
        <path id="DejaVuSans-30" d="M 2034 4250 
Q 1547 4250 1301 3770 
Q 1056 3291 1056 2328 
Q 1056 1369 1301 889 
Q 1547 409 2034 409 
Q 2525 409 2770 889 
Q 3016 1369 3016 2328 
Q 3016 3291 2770 3770 
Q 2525 4250 2034 4250 
z
M 2034 4750 
Q 2819 4750 3233 4129 
Q 3647 3509 3647 2328 
Q 3647 1150 3233 529 
Q 2819 -91 2034 -91 
Q 1250 -91 836 529 
Q 422 1150 422 2328 
Q 422 3509 836 4129 
Q 1250 4750 2034 4750 
z
" transform="scale(0.015625)"/>
       </defs>
       <use xlink:href="#DejaVuSans-31"/>
       <use xlink:href="#DejaVuSans-30" x="63.623047"/>
       <use xlink:href="#DejaVuSans-30" x="127.246094"/>
      </g>
     </g>
    </g>
    <g id="xtick_5">
     <g id="line2d_5">
      <g>
       <use xlink:href="#m1a7e612647" x="217.15848" y="307.584" style="stroke: #000000; stroke-width: 0.8"/>
      </g>
     </g>
     <g id="text_5">
      <!-- 133 -->
      <g transform="translate(207.61473 322.182437) scale(0.1 -0.1)">
       <use xlink:href="#DejaVuSans-31"/>
       <use xlink:href="#DejaVuSans-33" x="63.623047"/>
       <use xlink:href="#DejaVuSans-33" x="127.246094"/>
      </g>
     </g>
    </g>
    <g id="xtick_6">
     <g id="line2d_6">
      <g>
       <use xlink:href="#m1a7e612647" x="254.075719" y="307.584" style="stroke: #000000; stroke-width: 0.8"/>
      </g>
     </g>
     <g id="text_6">
      <!-- 167 -->
      <g transform="translate(244.531969 322.182437) scale(0.1 -0.1)">
       <use xlink:href="#DejaVuSans-31"/>
       <use xlink:href="#DejaVuSans-36" x="63.623047"/>
       <use xlink:href="#DejaVuSans-37" x="127.246094"/>
      </g>
     </g>
    </g>
    <g id="xtick_7">
     <g id="line2d_7">
      <g>
       <use xlink:href="#m1a7e612647" x="289.907157" y="307.584" style="stroke: #000000; stroke-width: 0.8"/>
      </g>
     </g>
     <g id="text_7">
      <!-- 200 -->
      <g transform="translate(280.363407 322.182437) scale(0.1 -0.1)">
       <defs>
        <path id="DejaVuSans-32" d="M 1228 531 
L 3431 531 
L 3431 0 
L 469 0 
L 469 531 
Q 828 903 1448 1529 
Q 2069 2156 2228 2338 
Q 2531 2678 2651 2914 
Q 2772 3150 2772 3378 
Q 2772 3750 2511 3984 
Q 2250 4219 1831 4219 
Q 1534 4219 1204 4116 
Q 875 4013 500 3803 
L 500 4441 
Q 881 4594 1212 4672 
Q 1544 4750 1819 4750 
Q 2544 4750 2975 4387 
Q 3406 4025 3406 3419 
Q 3406 3131 3298 2873 
Q 3191 2616 2906 2266 
Q 2828 2175 2409 1742 
Q 1991 1309 1228 531 
z
" transform="scale(0.015625)"/>
       </defs>
       <use xlink:href="#DejaVuSans-32"/>
       <use xlink:href="#DejaVuSans-30" x="63.623047"/>
       <use xlink:href="#DejaVuSans-30" x="127.246094"/>
      </g>
     </g>
    </g>
    <g id="xtick_8">
     <g id="line2d_8">
      <g>
       <use xlink:href="#m1a7e612647" x="325.738595" y="307.584" style="stroke: #000000; stroke-width: 0.8"/>
      </g>
     </g>
     <g id="text_8">
      <!-- 233 -->
      <g transform="translate(316.194845 322.182437) scale(0.1 -0.1)">
       <use xlink:href="#DejaVuSans-32"/>
       <use xlink:href="#DejaVuSans-33" x="63.623047"/>
       <use xlink:href="#DejaVuSans-33" x="127.246094"/>
      </g>
     </g>
    </g>
    <g id="xtick_9">
     <g id="line2d_9">
      <g>
       <use xlink:href="#m1a7e612647" x="361.570033" y="307.584" style="stroke: #000000; stroke-width: 0.8"/>
      </g>
     </g>
     <g id="text_9">
      <!-- 266 -->
      <g transform="translate(352.026283 322.182437) scale(0.1 -0.1)">
       <use xlink:href="#DejaVuSans-32"/>
       <use xlink:href="#DejaVuSans-36" x="63.623047"/>
       <use xlink:href="#DejaVuSans-36" x="127.246094"/>
      </g>
     </g>
    </g>
    <g id="xtick_10">
     <g id="line2d_10">
      <g>
       <use xlink:href="#m1a7e612647" x="398.487273" y="307.584" style="stroke: #000000; stroke-width: 0.8"/>
      </g>
     </g>
     <g id="text_10">
      <!-- 300 -->
      <g transform="translate(388.943523 322.182437) scale(0.1 -0.1)">
       <use xlink:href="#DejaVuSans-33"/>
       <use xlink:href="#DejaVuSans-30" x="63.623047"/>
       <use xlink:href="#DejaVuSans-30" x="127.246094"/>
      </g>
     </g>
    </g>
    <g id="text_11">
     <!-- Epochs -->
     <g transform="translate(218.244375 335.860562) scale(0.1 -0.1)">
      <defs>
       <path id="DejaVuSans-45" d="M 628 4666 
L 3578 4666 
L 3578 4134 
L 1259 4134 
L 1259 2753 
L 3481 2753 
L 3481 2222 
L 1259 2222 
L 1259 531 
L 3634 531 
L 3634 0 
L 628 0 
L 628 4666 
z
" transform="scale(0.015625)"/>
       <path id="DejaVuSans-70" d="M 1159 525 
L 1159 -1331 
L 581 -1331 
L 581 3500 
L 1159 3500 
L 1159 2969 
Q 1341 3281 1617 3432 
Q 1894 3584 2278 3584 
Q 2916 3584 3314 3078 
Q 3713 2572 3713 1747 
Q 3713 922 3314 415 
Q 2916 -91 2278 -91 
Q 1894 -91 1617 61 
Q 1341 213 1159 525 
z
M 3116 1747 
Q 3116 2381 2855 2742 
Q 2594 3103 2138 3103 
Q 1681 3103 1420 2742 
Q 1159 2381 1159 1747 
Q 1159 1113 1420 752 
Q 1681 391 2138 391 
Q 2594 391 2855 752 
Q 3116 1113 3116 1747 
z
" transform="scale(0.015625)"/>
       <path id="DejaVuSans-6f" d="M 1959 3097 
Q 1497 3097 1228 2736 
Q 959 2375 959 1747 
Q 959 1119 1226 758 
Q 1494 397 1959 397 
Q 2419 397 2687 759 
Q 2956 1122 2956 1747 
Q 2956 2369 2687 2733 
Q 2419 3097 1959 3097 
z
M 1959 3584 
Q 2709 3584 3137 3096 
Q 3566 2609 3566 1747 
Q 3566 888 3137 398 
Q 2709 -91 1959 -91 
Q 1206 -91 779 398 
Q 353 888 353 1747 
Q 353 2609 779 3096 
Q 1206 3584 1959 3584 
z
" transform="scale(0.015625)"/>
       <path id="DejaVuSans-63" d="M 3122 3366 
L 3122 2828 
Q 2878 2963 2633 3030 
Q 2388 3097 2138 3097 
Q 1578 3097 1268 2742 
Q 959 2388 959 1747 
Q 959 1106 1268 751 
Q 1578 397 2138 397 
Q 2388 397 2633 464 
Q 2878 531 3122 666 
L 3122 134 
Q 2881 22 2623 -34 
Q 2366 -91 2075 -91 
Q 1284 -91 818 406 
Q 353 903 353 1747 
Q 353 2603 823 3093 
Q 1294 3584 2113 3584 
Q 2378 3584 2631 3529 
Q 2884 3475 3122 3366 
z
" transform="scale(0.015625)"/>
       <path id="DejaVuSans-68" d="M 3513 2113 
L 3513 0 
L 2938 0 
L 2938 2094 
Q 2938 2591 2744 2837 
Q 2550 3084 2163 3084 
Q 1697 3084 1428 2787 
Q 1159 2491 1159 1978 
L 1159 0 
L 581 0 
L 581 4863 
L 1159 4863 
L 1159 2956 
Q 1366 3272 1645 3428 
Q 1925 3584 2291 3584 
Q 2894 3584 3203 3211 
Q 3513 2838 3513 2113 
z
" transform="scale(0.015625)"/>
       <path id="DejaVuSans-73" d="M 2834 3397 
L 2834 2853 
Q 2591 2978 2328 3040 
Q 2066 3103 1784 3103 
Q 1356 3103 1142 2972 
Q 928 2841 928 2578 
Q 928 2378 1081 2264 
Q 1234 2150 1697 2047 
L 1894 2003 
Q 2506 1872 2764 1633 
Q 3022 1394 3022 966 
Q 3022 478 2636 193 
Q 2250 -91 1575 -91 
Q 1294 -91 989 -36 
Q 684 19 347 128 
L 347 722 
Q 666 556 975 473 
Q 1284 391 1588 391 
Q 1994 391 2212 530 
Q 2431 669 2431 922 
Q 2431 1156 2273 1281 
Q 2116 1406 1581 1522 
L 1381 1569 
Q 847 1681 609 1914 
Q 372 2147 372 2553 
Q 372 3047 722 3315 
Q 1072 3584 1716 3584 
Q 2034 3584 2315 3537 
Q 2597 3491 2834 3397 
z
" transform="scale(0.015625)"/>
      </defs>
      <use xlink:href="#DejaVuSans-45"/>
      <use xlink:href="#DejaVuSans-70" x="63.183594"/>
      <use xlink:href="#DejaVuSans-6f" x="126.660156"/>
      <use xlink:href="#DejaVuSans-63" x="187.841797"/>
      <use xlink:href="#DejaVuSans-68" x="242.822266"/>
      <use xlink:href="#DejaVuSans-73" x="306.201172"/>
     </g>
    </g>
   </g>
   <g id="matplotlib.axis_2">
    <g id="ytick_1">
     <g id="line2d_11">
      <defs>
       <path id="m1e0952d480" d="M 0 0 
L -3.5 0 
" style="stroke: #000000; stroke-width: 0.8"/>
      </defs>
      <g>
       <use xlink:href="#m1e0952d480" x="57.6" y="275.589976" style="stroke: #000000; stroke-width: 0.8"/>
      </g>
     </g>
     <g id="text_12">
      <!-- 50 -->
      <g transform="translate(37.875 279.389194) scale(0.1 -0.1)">
       <defs>
        <path id="DejaVuSans-35" d="M 691 4666 
L 3169 4666 
L 3169 4134 
L 1269 4134 
L 1269 2991 
Q 1406 3038 1543 3061 
Q 1681 3084 1819 3084 
Q 2600 3084 3056 2656 
Q 3513 2228 3513 1497 
Q 3513 744 3044 326 
Q 2575 -91 1722 -91 
Q 1428 -91 1123 -41 
Q 819 9 494 109 
L 494 744 
Q 775 591 1075 516 
Q 1375 441 1709 441 
Q 2250 441 2565 725 
Q 2881 1009 2881 1497 
Q 2881 1984 2565 2268 
Q 2250 2553 1709 2553 
Q 1456 2553 1204 2497 
Q 953 2441 691 2322 
L 691 4666 
z
" transform="scale(0.015625)"/>
       </defs>
       <use xlink:href="#DejaVuSans-35"/>
       <use xlink:href="#DejaVuSans-30" x="63.623047"/>
      </g>
     </g>
    </g>
    <g id="ytick_2">
     <g id="line2d_12">
      <g>
       <use xlink:href="#m1e0952d480" x="57.6" y="230.160696" style="stroke: #000000; stroke-width: 0.8"/>
      </g>
     </g>
     <g id="text_13">
      <!-- 60 -->
      <g transform="translate(37.875 233.959915) scale(0.1 -0.1)">
       <use xlink:href="#DejaVuSans-36"/>
       <use xlink:href="#DejaVuSans-30" x="63.623047"/>
      </g>
     </g>
    </g>
    <g id="ytick_3">
     <g id="line2d_13">
      <g>
       <use xlink:href="#m1e0952d480" x="57.6" y="184.731416" style="stroke: #000000; stroke-width: 0.8"/>
      </g>
     </g>
     <g id="text_14">
      <!-- 70 -->
      <g transform="translate(37.875 188.530635) scale(0.1 -0.1)">
       <use xlink:href="#DejaVuSans-37"/>
       <use xlink:href="#DejaVuSans-30" x="63.623047"/>
      </g>
     </g>
    </g>
    <g id="ytick_4">
     <g id="line2d_14">
      <g>
       <use xlink:href="#m1e0952d480" x="57.6" y="139.302137" style="stroke: #000000; stroke-width: 0.8"/>
      </g>
     </g>
     <g id="text_15">
      <!-- 80 -->
      <g transform="translate(37.875 143.101355) scale(0.1 -0.1)">
       <defs>
        <path id="DejaVuSans-38" d="M 2034 2216 
Q 1584 2216 1326 1975 
Q 1069 1734 1069 1313 
Q 1069 891 1326 650 
Q 1584 409 2034 409 
Q 2484 409 2743 651 
Q 3003 894 3003 1313 
Q 3003 1734 2745 1975 
Q 2488 2216 2034 2216 
z
M 1403 2484 
Q 997 2584 770 2862 
Q 544 3141 544 3541 
Q 544 4100 942 4425 
Q 1341 4750 2034 4750 
Q 2731 4750 3128 4425 
Q 3525 4100 3525 3541 
Q 3525 3141 3298 2862 
Q 3072 2584 2669 2484 
Q 3125 2378 3379 2068 
Q 3634 1759 3634 1313 
Q 3634 634 3220 271 
Q 2806 -91 2034 -91 
Q 1263 -91 848 271 
Q 434 634 434 1313 
Q 434 1759 690 2068 
Q 947 2378 1403 2484 
z
M 1172 3481 
Q 1172 3119 1398 2916 
Q 1625 2713 2034 2713 
Q 2441 2713 2670 2916 
Q 2900 3119 2900 3481 
Q 2900 3844 2670 4047 
Q 2441 4250 2034 4250 
Q 1625 4250 1398 4047 
Q 1172 3844 1172 3481 
z
" transform="scale(0.015625)"/>
       </defs>
       <use xlink:href="#DejaVuSans-38"/>
       <use xlink:href="#DejaVuSans-30" x="63.623047"/>
      </g>
     </g>
    </g>
    <g id="ytick_5">
     <g id="line2d_15">
      <g>
       <use xlink:href="#m1e0952d480" x="57.6" y="93.872857" style="stroke: #000000; stroke-width: 0.8"/>
      </g>
     </g>
     <g id="text_16">
      <!-- 90 -->
      <g transform="translate(37.875 97.672076) scale(0.1 -0.1)">
       <defs>
        <path id="DejaVuSans-39" d="M 703 97 
L 703 672 
Q 941 559 1184 500 
Q 1428 441 1663 441 
Q 2288 441 2617 861 
Q 2947 1281 2994 2138 
Q 2813 1869 2534 1725 
Q 2256 1581 1919 1581 
Q 1219 1581 811 2004 
Q 403 2428 403 3163 
Q 403 3881 828 4315 
Q 1253 4750 1959 4750 
Q 2769 4750 3195 4129 
Q 3622 3509 3622 2328 
Q 3622 1225 3098 567 
Q 2575 -91 1691 -91 
Q 1453 -91 1209 -44 
Q 966 3 703 97 
z
M 1959 2075 
Q 2384 2075 2632 2365 
Q 2881 2656 2881 3163 
Q 2881 3666 2632 3958 
Q 2384 4250 1959 4250 
Q 1534 4250 1286 3958 
Q 1038 3666 1038 3163 
Q 1038 2656 1286 2365 
Q 1534 2075 1959 2075 
z
" transform="scale(0.015625)"/>
       </defs>
       <use xlink:href="#DejaVuSans-39"/>
       <use xlink:href="#DejaVuSans-30" x="63.623047"/>
      </g>
     </g>
    </g>
    <g id="ytick_6">
     <g id="line2d_16">
      <g>
       <use xlink:href="#m1e0952d480" x="57.6" y="48.443577" style="stroke: #000000; stroke-width: 0.8"/>
      </g>
     </g>
     <g id="text_17">
      <!-- 100 -->
      <g transform="translate(31.5125 52.242796) scale(0.1 -0.1)">
       <use xlink:href="#DejaVuSans-31"/>
       <use xlink:href="#DejaVuSans-30" x="63.623047"/>
       <use xlink:href="#DejaVuSans-30" x="127.246094"/>
      </g>
     </g>
    </g>
    <g id="text_18">
     <!-- Accuracy -->
     <g transform="translate(25.432812 197.356125) rotate(-90) scale(0.1 -0.1)">
      <defs>
       <path id="DejaVuSans-41" d="M 2188 4044 
L 1331 1722 
L 3047 1722 
L 2188 4044 
z
M 1831 4666 
L 2547 4666 
L 4325 0 
L 3669 0 
L 3244 1197 
L 1141 1197 
L 716 0 
L 50 0 
L 1831 4666 
z
" transform="scale(0.015625)"/>
       <path id="DejaVuSans-75" d="M 544 1381 
L 544 3500 
L 1119 3500 
L 1119 1403 
Q 1119 906 1312 657 
Q 1506 409 1894 409 
Q 2359 409 2629 706 
Q 2900 1003 2900 1516 
L 2900 3500 
L 3475 3500 
L 3475 0 
L 2900 0 
L 2900 538 
Q 2691 219 2414 64 
Q 2138 -91 1772 -91 
Q 1169 -91 856 284 
Q 544 659 544 1381 
z
M 1991 3584 
L 1991 3584 
z
" transform="scale(0.015625)"/>
       <path id="DejaVuSans-72" d="M 2631 2963 
Q 2534 3019 2420 3045 
Q 2306 3072 2169 3072 
Q 1681 3072 1420 2755 
Q 1159 2438 1159 1844 
L 1159 0 
L 581 0 
L 581 3500 
L 1159 3500 
L 1159 2956 
Q 1341 3275 1631 3429 
Q 1922 3584 2338 3584 
Q 2397 3584 2469 3576 
Q 2541 3569 2628 3553 
L 2631 2963 
z
" transform="scale(0.015625)"/>
       <path id="DejaVuSans-61" d="M 2194 1759 
Q 1497 1759 1228 1600 
Q 959 1441 959 1056 
Q 959 750 1161 570 
Q 1363 391 1709 391 
Q 2188 391 2477 730 
Q 2766 1069 2766 1631 
L 2766 1759 
L 2194 1759 
z
M 3341 1997 
L 3341 0 
L 2766 0 
L 2766 531 
Q 2569 213 2275 61 
Q 1981 -91 1556 -91 
Q 1019 -91 701 211 
Q 384 513 384 1019 
Q 384 1609 779 1909 
Q 1175 2209 1959 2209 
L 2766 2209 
L 2766 2266 
Q 2766 2663 2505 2880 
Q 2244 3097 1772 3097 
Q 1472 3097 1187 3025 
Q 903 2953 641 2809 
L 641 3341 
Q 956 3463 1253 3523 
Q 1550 3584 1831 3584 
Q 2591 3584 2966 3190 
Q 3341 2797 3341 1997 
z
" transform="scale(0.015625)"/>
       <path id="DejaVuSans-79" d="M 2059 -325 
Q 1816 -950 1584 -1140 
Q 1353 -1331 966 -1331 
L 506 -1331 
L 506 -850 
L 844 -850 
Q 1081 -850 1212 -737 
Q 1344 -625 1503 -206 
L 1606 56 
L 191 3500 
L 800 3500 
L 1894 763 
L 2988 3500 
L 3597 3500 
L 2059 -325 
z
" transform="scale(0.015625)"/>
      </defs>
      <use xlink:href="#DejaVuSans-41"/>
      <use xlink:href="#DejaVuSans-63" x="66.658203"/>
      <use xlink:href="#DejaVuSans-63" x="121.638672"/>
      <use xlink:href="#DejaVuSans-75" x="176.619141"/>
      <use xlink:href="#DejaVuSans-72" x="239.998047"/>
      <use xlink:href="#DejaVuSans-61" x="281.111328"/>
      <use xlink:href="#DejaVuSans-63" x="342.390625"/>
      <use xlink:href="#DejaVuSans-79" x="397.371094"/>
     </g>
    </g>
   </g>
   <g id="line2d_17">
    <path d="M 73.832727 295.488 
L 74.918528 204.838415 
L 76.00433 172.828945 
L 77.090131 152.658345 
L 78.175932 140.537813 
L 79.261733 130.752346 
L 80.347534 125.455292 
L 81.433335 118.504612 
L 83.604938 107.910504 
L 84.690739 103.131344 
L 86.862341 94.754185 
L 87.948142 91.51962 
L 89.033943 87.394642 
L 90.119745 84.659799 
L 91.205546 81.416148 
L 93.377148 77.336599 
L 94.462949 76.12818 
L 95.54875 106.420424 
L 96.634552 106.847459 
L 97.720353 103.930899 
L 98.806154 101.541319 
L 99.891955 97.925149 
L 100.977756 96.71673 
L 102.063557 95.026761 
L 103.149358 92.564494 
L 104.23516 91.419676 
L 105.320961 89.448045 
L 106.406762 88.157854 
L 107.492563 86.222566 
L 108.578364 85.20495 
L 109.664165 82.960744 
L 110.749967 81.261689 
L 111.835768 80.371275 
L 112.921569 79.671664 
L 114.00737 77.427458 
L 115.093171 75.546685 
L 116.178972 75.192337 
L 117.264773 74.129292 
L 118.350575 72.766414 
L 119.436376 70.894727 
L 120.522177 70.304147 
L 121.607978 68.414289 
L 122.693779 67.614733 
L 123.77958 66.170082 
L 125.951183 63.698729 
L 127.036984 63.362553 
L 128.122785 62.354023 
L 131.380189 59.955357 
L 132.46599 59.319347 
L 133.551791 59.610094 
L 134.637592 58.419847 
L 135.723393 57.956468 
L 136.809194 58.537963 
L 137.894995 58.592478 
L 138.980797 84.45991 
L 140.066598 85.904561 
L 141.152399 84.35088 
L 142.2382 83.524067 
L 143.324001 81.979471 
L 144.409802 81.179916 
L 145.495604 81.54335 
L 146.581405 79.798866 
L 147.667206 79.444518 
L 148.753007 78.735821 
L 149.838808 78.535932 
L 150.924609 77.082195 
L 152.01041 76.373498 
L 153.096212 75.837433 
L 154.182013 76.12818 
L 155.267814 75.092393 
L 156.353615 74.601756 
L 157.439416 74.492726 
L 159.611019 73.575055 
L 160.69682 72.957217 
L 161.782621 71.876 
L 162.868422 71.294505 
L 163.954223 72.075889 
L 165.040024 70.504035 
L 166.125825 70.44952 
L 167.211627 70.249631 
L 168.297428 70.176945 
L 169.383229 69.695394 
L 170.46903 68.596006 
L 171.554831 68.159885 
L 172.640632 67.969082 
L 173.726434 67.514789 
L 174.812235 67.187698 
L 176.983837 65.842991 
L 178.069638 66.015623 
L 179.155439 65.397784 
L 180.24124 64.452855 
L 181.327042 64.461941 
L 182.412843 63.753244 
L 183.498644 63.298952 
L 184.584445 62.42671 
L 185.670246 62.980947 
L 186.756047 62.317679 
L 187.841849 61.15469 
L 188.92765 61.454523 
L 191.099252 60.164331 
L 192.185053 60.264276 
L 194.356656 59.210317 
L 195.442457 58.98317 
L 196.528258 58.574307 
L 197.614059 58.692423 
L 199.785661 57.983726 
L 200.871462 57.356802 
L 201.957264 57.683893 
L 203.043065 56.275585 
L 204.128866 56.920681 
L 206.300468 56.139297 
L 209.557872 55.812206 
L 211.729474 55.194368 
L 212.815275 54.830934 
L 213.901076 54.930878 
L 214.986877 54.658303 
L 216.072679 54.621959 
L 217.15848 54.240353 
L 218.244281 54.194924 
L 219.330082 54.758247 
L 220.415883 54.303954 
L 221.501684 54.930878 
L 222.587486 53.840576 
L 223.673287 54.058636 
L 224.759088 54.104065 
L 225.844889 75.583029 
L 226.93069 78.635877 
L 228.016491 77.154882 
L 229.102292 77.282084 
L 231.273895 75.019706 
L 232.359696 74.492726 
L 233.445497 74.229236 
L 234.531298 73.62957 
L 235.617099 73.702257 
L 236.702901 71.966858 
L 237.788702 71.866914 
L 238.874503 72.711898 
L 239.960304 70.958328 
L 241.046105 72.748242 
L 242.131906 71.294505 
L 243.217708 70.676667 
L 244.303509 70.322318 
L 245.38931 70.49495 
L 246.475111 71.140045 
L 247.560912 70.004313 
L 248.646713 70.131515 
L 249.732514 69.304702 
L 250.818316 69.204758 
L 251.904117 68.359773 
L 252.989918 69.413733 
L 254.075719 67.769193 
L 255.16152 68.941268 
L 256.247321 68.605092 
L 257.333123 68.986698 
L 258.418924 68.005425 
L 259.504725 68.187142 
L 260.590526 67.323986 
L 261.676327 67.79645 
L 262.762128 67.505703 
L 263.847929 66.933294 
L 264.933731 67.505703 
L 266.019532 66.951466 
L 267.105333 67.414844 
L 268.191134 67.115011 
L 269.276935 67.351243 
L 271.448538 66.360885 
L 272.534339 66.996895 
L 273.62014 66.188254 
L 274.705941 65.534072 
L 275.791742 65.797562 
L 277.963344 64.898062 
L 279.049146 65.206981 
L 280.134947 64.434684 
L 281.220748 64.361997 
L 283.39235 64.652744 
L 284.478151 65.234239 
L 285.563953 64.02582 
L 286.649754 64.371083 
L 289.907157 64.125765 
L 290.992958 62.953689 
L 292.07876 63.43524 
L 293.164561 63.162664 
L 294.250362 63.798674 
L 295.336163 62.608427 
L 297.507765 62.317679 
L 298.593566 62.472139 
L 299.679368 62.145048 
L 300.765169 62.036018 
L 301.85097 62.372194 
L 304.022572 61.209205 
L 306.194175 60.982058 
L 307.279976 61.608982 
L 309.451578 60.982058 
L 310.537379 61.10926 
L 311.62318 60.673139 
L 314.880584 60.091645 
L 315.966385 60.227932 
L 317.052186 59.919013 
L 318.137987 60.209761 
L 319.223788 59.046771 
L 320.30959 59.410205 
L 322.481192 59.501064 
L 324.652794 58.701509 
L 325.738595 58.865054 
L 326.824396 58.492534 
L 327.910198 58.365332 
L 328.995999 57.874696 
L 330.0818 57.983726 
L 331.167601 57.720236 
L 333.339203 57.638463 
L 334.425005 57.093312 
L 335.510806 56.929767 
L 336.596607 57.202342 
L 337.682408 57.311373 
L 338.768209 56.829822 
L 340.939811 56.639019 
L 342.025613 55.921237 
L 343.111414 56.021181 
L 345.283016 55.84855 
L 348.54042 55.566888 
L 349.626221 55.939408 
L 350.712022 55.294313 
L 352.883624 55.167111 
L 353.969425 54.494757 
L 355.055227 55.403343 
L 356.141028 54.749161 
L 357.226829 54.894535 
L 358.31263 54.20401 
L 359.398431 54.749161 
L 360.484232 53.922348 
L 361.570033 54.213096 
L 362.655835 54.176752 
L 363.741636 54.794591 
L 364.827437 53.822404 
L 365.913238 53.568 
L 366.999039 53.795146 
L 368.08484 54.285783 
L 369.170642 53.849662 
L 370.256443 54.594702 
L 372.428045 55.666833 
L 373.513846 55.884893 
L 374.599647 55.312484 
L 375.685448 55.921237 
L 376.77125 55.69409 
L 377.857051 55.821292 
L 378.942852 55.58506 
L 382.200255 56.302843 
L 383.286057 55.839464 
L 384.371858 56.157469 
L 385.457659 55.775863 
L 386.54346 56.057525 
L 387.629261 55.875807 
L 388.715062 56.075696 
L 389.800863 55.775863 
L 390.886665 56.775307 
L 391.972466 56.321014 
L 393.058267 56.420959 
L 394.144068 55.712262 
L 395.229869 55.966666 
L 396.31567 56.057525 
L 397.401472 56.557247 
L 398.487273 56.22107 
L 398.487273 56.22107 
" clip-path="url(#p7441f12d96)" style="fill: none; stroke: #1f77b4; stroke-width: 1.5; stroke-linecap: square"/>
   </g>
   <g id="line2d_18">
    <path d="M 73.832727 246.696954 
L 74.918528 186.276012 
L 76.00433 178.961898 
L 77.090131 156.928697 
L 78.175932 132.624032 
L 79.261733 126.536509 
L 80.347534 116.769214 
L 81.433335 113.089442 
L 82.519137 110.636261 
L 83.604938 106.729343 
L 84.690739 107.138207 
L 85.77654 104.321591 
L 86.862341 98.415785 
L 87.948142 97.280053 
L 89.033943 91.192529 
L 90.119745 88.148768 
L 91.205546 92.964271 
L 92.291347 86.604172 
L 93.377148 87.194753 
L 94.462949 85.332152 
L 95.54875 121.857293 
L 96.634552 128.717114 
L 97.720353 103.049571 
L 98.806154 116.042345 
L 99.891955 100.051239 
L 100.977756 100.823537 
L 102.063557 97.280053 
L 103.149358 91.873969 
L 104.23516 95.372023 
L 105.320961 96.916619 
L 107.492563 89.011924 
L 108.578364 92.827983 
L 109.664165 93.05513 
L 110.749967 91.828539 
L 111.835768 89.2845 
L 112.921569 87.103894 
L 114.00737 87.285611 
L 115.093171 85.604728 
L 116.178972 85.014147 
L 117.264773 84.968718 
L 118.350575 84.014703 
L 119.436376 81.288946 
L 120.522177 79.880639 
L 121.607978 79.335487 
L 122.693779 78.245185 
L 123.77958 78.835765 
L 124.865382 76.291726 
L 125.951183 78.108897 
L 127.036984 77.109453 
L 128.122785 75.519428 
L 129.208586 74.837989 
L 130.294387 75.837433 
L 131.380189 75.201423 
L 132.46599 74.338267 
L 133.551791 74.837989 
L 134.637592 73.702257 
L 135.723393 73.293393 
L 136.809194 73.702257 
L 137.894995 73.747686 
L 138.980797 94.32715 
L 140.066598 95.871745 
L 141.152399 95.235735 
L 142.2382 93.009701 
L 143.324001 88.285056 
L 144.409802 95.281165 
L 145.495604 88.375914 
L 146.581405 88.739348 
L 147.667206 87.467328 
L 148.753007 88.921065 
L 149.838808 87.37647 
L 150.924609 90.51109 
L 152.01041 86.74046 
L 153.096212 93.05513 
L 154.182013 87.103894 
L 155.267814 86.149879 
L 156.353615 89.057353 
L 157.439416 86.467884 
L 158.525217 82.788113 
L 159.611019 86.059021 
L 160.69682 85.968162 
L 161.782621 84.19642 
L 162.868422 83.333264 
L 163.954223 84.19642 
L 165.040024 80.516649 
L 166.125825 83.378693 
L 167.211627 82.288391 
L 168.297428 80.289502 
L 169.383229 81.425234 
L 170.46903 82.379249 
L 171.554831 80.516649 
L 172.640632 80.698366 
L 173.726434 79.380917 
L 174.812235 82.742683 
L 176.983837 80.562078 
L 178.069638 81.834098 
L 179.155439 78.972053 
L 180.24124 76.791448 
L 181.327042 78.881195 
L 182.412843 76.291726 
L 183.498644 76.473443 
L 184.584445 78.063468 
L 185.670246 75.837433 
L 186.756047 75.428569 
L 187.841849 76.700589 
L 188.92765 76.01915 
L 190.013451 74.792559 
L 191.099252 73.838545 
L 192.185053 73.565969 
L 193.270854 74.656272 
L 194.356656 76.473443 
L 195.442457 75.564857 
L 196.528258 74.065691 
L 197.614059 72.157661 
L 198.69986 74.656272 
L 199.785661 72.066803 
L 200.871462 71.430793 
L 201.957264 72.066803 
L 203.043065 70.885641 
L 204.128866 71.021929 
L 205.214667 71.794227 
L 206.300468 70.703924 
L 207.386269 70.34049 
L 208.472071 69.522763 
L 209.557872 70.658495 
L 210.643673 70.113344 
L 211.729474 68.841324 
L 212.815275 68.886753 
L 213.901076 69.250187 
L 214.986877 68.841324 
L 216.072679 69.113899 
L 217.15848 68.795895 
L 218.244281 69.023041 
L 221.501684 68.841324 
L 222.587486 68.205314 
L 223.673287 68.750465 
L 224.759088 68.932182 
L 225.844889 86.331596 
L 226.93069 87.921621 
L 228.016491 89.738792 
L 229.102292 89.738792 
L 230.188094 87.739904 
L 231.273895 83.514981 
L 232.359696 84.87786 
L 233.445497 87.558187 
L 234.531298 85.741016 
L 235.617099 81.970386 
L 236.702901 84.514425 
L 237.788702 82.96983 
L 238.874503 82.515537 
L 239.960304 90.329373 
L 241.046105 85.332152 
L 242.131906 81.379805 
L 243.217708 82.878971 
L 244.303509 84.650713 
L 245.38931 80.652937 
L 246.475111 84.741572 
L 247.560912 86.922177 
L 248.646713 82.106673 
L 249.732514 82.061244 
L 250.818316 79.744351 
L 251.904117 81.69781 
L 252.989918 79.971497 
L 254.075719 81.243517 
L 255.16152 88.784778 
L 256.247321 80.925512 
L 257.333123 81.243517 
L 258.418924 85.195864 
L 259.504725 81.69781 
L 260.590526 82.379249 
L 261.676327 84.150991 
L 262.762128 80.925512 
L 264.933731 80.970941 
L 266.019532 78.199755 
L 267.105333 83.56041 
L 268.191134 83.333264 
L 269.276935 80.698366 
L 270.362736 80.198644 
L 272.534339 77.654604 
L 273.62014 81.924956 
L 274.705941 81.470664 
L 275.791742 78.790336 
L 276.877543 79.608063 
L 277.963344 80.880083 
L 279.049146 78.381473 
L 280.134947 79.471775 
L 281.220748 79.653492 
L 282.306549 79.426346 
L 283.39235 78.51776 
L 284.478151 79.062912 
L 285.563953 79.744351 
L 286.649754 75.701145 
L 287.735555 78.154326 
L 288.821356 77.518316 
L 289.907157 79.835209 
L 290.992958 79.698922 
L 292.07876 77.154882 
L 293.164561 79.290058 
L 294.250362 75.519428 
L 295.336163 80.107785 
L 296.421964 77.018594 
L 297.507765 77.29117 
L 298.593566 78.51776 
L 299.679368 74.656272 
L 300.765169 76.882306 
L 301.85097 76.428014 
L 302.936771 77.972609 
L 304.022572 77.064023 
L 305.108373 75.201423 
L 306.194175 76.973165 
L 307.279976 77.018594 
L 308.365777 75.928291 
L 309.451578 77.609175 
L 310.537379 76.064579 
L 311.62318 74.974277 
L 312.708981 75.38314 
L 313.794783 77.109453 
L 314.880584 76.973165 
L 315.966385 76.155438 
L 317.052186 76.246296 
L 318.137987 73.974832 
L 319.223788 75.155994 
L 320.30959 74.656272 
L 321.395391 76.01915 
L 322.481192 74.565413 
L 323.566993 74.701701 
L 324.652794 73.565969 
L 325.738595 74.701701 
L 326.824396 74.610842 
L 327.910198 73.247964 
L 328.995999 74.565413 
L 330.0818 73.429681 
L 331.167601 74.519984 
L 332.253402 74.247408 
L 333.339203 74.519984 
L 334.425005 74.065691 
L 335.510806 71.112788 
L 336.596607 73.202535 
L 337.682408 73.157105 
L 338.768209 71.476222 
L 339.85401 73.066247 
L 340.939811 70.385919 
L 342.025613 72.24852 
L 343.111414 70.567636 
L 344.197215 71.794227 
L 345.283016 71.975944 
L 346.368817 70.794783 
L 347.454618 70.204202 
L 348.54042 70.794783 
L 349.626221 70.067914 
L 350.712022 70.658495 
L 351.797823 69.977056 
L 352.883624 69.431904 
L 353.969425 69.204758 
L 355.055227 70.567636 
L 356.141028 69.886197 
L 357.226829 69.840768 
L 358.31263 70.204202 
L 359.398431 70.113344 
L 360.484232 69.659051 
L 362.655835 68.205314 
L 363.741636 68.659607 
L 364.827437 69.977056 
L 365.913238 68.296172 
L 366.999039 68.47789 
L 368.08484 68.341602 
L 369.170642 69.749909 
L 370.256443 69.204758 
L 371.342244 69.295617 
L 372.428045 69.840768 
L 373.513846 70.9765 
L 374.599647 70.749354 
L 375.685448 72.112232 
L 376.77125 70.794783 
L 377.857051 70.34049 
L 378.942852 71.158217 
L 380.028653 71.657939 
L 381.114454 70.9765 
L 382.200255 71.385363 
L 383.286057 72.203091 
L 384.371858 71.930515 
L 385.457659 70.703924 
L 386.54346 72.521095 
L 388.715062 70.840212 
L 389.800863 70.931071 
L 390.886665 73.111676 
L 391.972466 72.157661 
L 393.058267 70.476778 
L 394.144068 71.567081 
L 395.229869 70.567636 
L 396.31567 72.8391 
L 397.401472 72.066803 
L 398.487273 72.521095 
L 398.487273 72.521095 
" clip-path="url(#p7441f12d96)" style="fill: none; stroke: #ff7f0e; stroke-width: 1.5; stroke-linecap: square"/>
   </g>
   <g id="line2d_19">
    <path d="M 73.832727 294.858256 
L 74.918528 257.919552 
L 76.00433 267.350044 
L 77.090131 251.026834 
L 78.175932 212.020315 
L 79.261733 227.560261 
L 80.347534 214.213452 
L 81.433335 216.970539 
L 82.519137 225.367124 
L 83.604938 213.179544 
L 84.690739 204.532316 
L 85.77654 218.474405 
L 87.948142 197.482945 
L 89.033943 196.793673 
L 90.119745 194.28723 
L 91.205546 202.245187 
L 92.291347 192.783364 
L 93.377148 193.190661 
L 94.462949 189.493658 
L 95.54875 233.387741 
L 96.634552 237.805347 
L 97.720353 211.205721 
L 98.806154 213.586841 
L 99.891955 206.318157 
L 100.977756 205.816868 
L 102.063557 199.143464 
L 103.149358 186.172621 
L 104.23516 193.284653 
L 105.320961 198.3602 
L 106.406762 194.819849 
L 107.492563 196.104401 
L 108.578364 193.221992 
L 109.664165 201.27394 
L 110.749967 197.357623 
L 111.835768 187.363181 
L 112.921569 197.858912 
L 114.00737 206.255496 
L 115.093171 195.759765 
L 116.178972 195.509121 
L 117.264773 197.921573 
L 118.350575 197.294962 
L 119.436376 188.961039 
L 120.522177 182.63227 
L 121.607978 180.627116 
L 122.693779 176.930112 
L 123.77958 179.060589 
L 124.865382 181.786346 
L 125.951183 183.133559 
L 127.036984 172.042548 
L 128.122785 179.405225 
L 129.208586 172.73182 
L 130.294387 178.245995 
L 131.380189 173.452423 
L 132.46599 175.990196 
L 133.551791 179.373894 
L 134.637592 179.091919 
L 135.723393 173.985042 
L 136.809194 174.548991 
L 137.894995 174.047703 
L 138.980797 199.770074 
L 140.066598 207.164081 
L 141.152399 212.176967 
L 142.2382 206.53747 
L 143.324001 203.686392 
L 144.409802 210.547779 
L 145.495604 191.749457 
L 146.581405 191.749457 
L 147.667206 194.945171 
L 148.753007 204.563647 
L 149.838808 193.315984 
L 150.924609 198.579514 
L 152.01041 189.305675 
L 153.096212 208.479964 
L 154.182013 198.516853 
L 155.267814 196.856334 
L 156.353615 208.010006 
L 157.439416 206.50614 
L 158.525217 195.477791 
L 159.611019 186.736571 
L 160.69682 197.984234 
L 162.868422 182.506948 
L 163.954223 206.568801 
L 165.040024 190.684218 
L 166.125825 195.697104 
L 167.211627 187.425842 
L 168.297428 188.898378 
L 169.383229 185.984638 
L 170.46903 187.457173 
L 171.554831 183.22755 
L 172.640632 182.130982 
L 173.726434 190.621557 
L 174.812235 186.830562 
L 175.898036 188.021123 
L 176.983837 182.63227 
L 178.069638 184.261458 
L 179.155439 175.676891 
L 180.24124 178.935267 
L 181.327042 189.524988 
L 182.412843 180.971752 
L 183.498644 176.428824 
L 184.584445 178.152003 
L 185.670246 182.162312 
L 186.756047 174.862297 
L 187.841849 179.499216 
L 188.92765 174.329678 
L 190.013451 175.457577 
L 191.099252 174.48633 
L 192.185053 175.833544 
L 193.270854 174.517661 
L 194.356656 177.901359 
L 195.442457 170.068725 
L 196.528258 178.997928 
L 197.614059 173.922381 
L 198.69986 179.060589 
L 199.785661 173.201778 
L 200.871462 175.332255 
L 201.957264 179.561877 
L 203.043065 175.332255 
L 204.128866 173.734397 
L 205.214667 173.89105 
L 206.300468 172.073879 
L 207.386269 170.883319 
L 208.472071 172.763151 
L 209.557872 175.64556 
L 210.643673 169.912072 
L 211.729474 169.880741 
L 212.815275 169.2228 
L 213.901076 171.791904 
L 214.986877 170.757996 
L 216.072679 168.03224 
L 217.15848 168.65885 
L 218.244281 169.034817 
L 219.330082 168.06357 
L 220.415883 170.94598 
L 221.501684 169.912072 
L 222.587486 166.841679 
L 223.673287 169.2228 
L 224.759088 169.536105 
L 225.844889 195.947749 
L 226.93069 183.415534 
L 228.016491 197.451615 
L 229.102292 198.454192 
L 230.188094 187.895801 
L 231.273895 186.360604 
L 232.359696 192.031431 
L 233.445497 199.362777 
L 234.531298 194.600536 
L 235.617099 188.961039 
L 236.702901 187.457173 
L 237.788702 197.106979 
L 238.874503 191.091515 
L 239.960304 196.229724 
L 241.046105 190.088938 
L 242.131906 191.279499 
L 243.217708 193.723281 
L 244.303509 193.879933 
L 245.38931 183.822831 
L 246.475111 189.524988 
L 247.560912 189.994947 
L 248.646713 189.305675 
L 249.732514 183.7915 
L 250.818316 181.911668 
L 251.904117 192.470059 
L 252.989918 181.661024 
L 254.075719 186.10996 
L 255.16152 200.803982 
L 257.333123 178.308656 
L 258.418924 192.470059 
L 259.504725 177.776037 
L 260.590526 182.130982 
L 261.676327 181.598362 
L 262.762128 183.603517 
L 263.847929 178.966597 
L 264.933731 184.136136 
L 266.019532 183.979483 
L 267.105333 188.42842 
L 268.191134 188.177775 
L 269.276935 185.765324 
L 270.362736 185.076052 
L 271.448538 184.637425 
L 272.534339 184.731416 
L 273.62014 189.149022 
L 274.705941 181.347718 
L 275.791742 187.551165 
L 276.877543 181.629693 
L 277.963344 177.462731 
L 279.049146 182.851584 
L 280.134947 186.172621 
L 281.220748 184.856738 
L 282.306549 182.506948 
L 283.39235 195.759765 
L 284.478151 179.405225 
L 285.563953 189.462327 
L 286.649754 171.447268 
L 287.735555 179.279903 
L 289.907157 188.303098 
L 290.992958 187.645156 
L 292.07876 183.22755 
L 293.164561 182.63227 
L 294.250362 176.397493 
L 295.336163 183.572186 
L 296.421964 184.95073 
L 297.507765 180.157158 
L 298.593566 190.77821 
L 299.679368 183.478195 
L 300.765169 180.564455 
L 301.85097 177.995351 
L 302.936771 180.815099 
L 304.022572 181.661024 
L 305.108373 175.582899 
L 306.194175 183.572186 
L 307.279976 171.259285 
L 308.365777 176.80479 
L 309.451578 184.731416 
L 310.537379 180.219819 
L 311.62318 174.548991 
L 312.708981 182.757592 
L 313.794783 178.872606 
L 314.880584 179.561877 
L 315.966385 174.016372 
L 317.052186 188.647733 
L 318.137987 170.41336 
L 319.223788 184.700086 
L 320.30959 181.065743 
L 321.395391 186.360604 
L 322.481192 177.118096 
L 323.566993 183.039567 
L 324.652794 175.708221 
L 325.738595 173.515084 
L 326.824396 172.606498 
L 327.910198 169.034817 
L 328.995999 172.199201 
L 330.0818 174.517661 
L 331.167601 167.530951 
L 332.253402 177.776037 
L 333.339203 177.243418 
L 334.425005 175.864874 
L 335.510806 168.533528 
L 336.596607 167.844256 
L 337.682408 170.319369 
L 338.768209 171.948557 
L 339.85401 172.387184 
L 340.939811 170.538683 
L 342.025613 171.227954 
L 343.111414 169.974733 
L 344.197215 172.324523 
L 345.283016 176.742129 
L 346.368817 173.045126 
L 347.454618 161.327505 
L 348.54042 170.288038 
L 349.626221 168.282884 
L 350.712022 168.846834 
L 351.797823 165.964424 
L 352.883624 167.374298 
L 353.969425 169.630097 
L 355.055227 168.721511 
L 356.141028 164.617211 
L 357.226829 168.533528 
L 358.31263 169.567436 
L 359.398431 169.097478 
L 360.484232 166.434382 
L 361.570033 168.126231 
L 362.655835 163.802617 
L 363.741636 165.14983 
L 364.827437 164.961847 
L 365.913238 165.463136 
L 366.999039 164.993177 
L 368.08484 161.734802 
L 369.170642 163.426651 
L 370.256443 164.836525 
L 371.342244 170.256708 
L 372.428045 171.165293 
L 373.513846 174.235686 
L 374.599647 169.348122 
L 375.685448 176.961443 
L 376.77125 174.48633 
L 377.857051 169.066147 
L 378.942852 174.235686 
L 380.028653 175.144272 
L 381.114454 169.692758 
L 382.200255 167.186315 
L 383.286057 172.042548 
L 384.371858 170.757996 
L 385.457659 162.83137 
L 386.54346 172.763151 
L 387.629261 168.596189 
L 388.715062 175.05028 
L 390.886665 172.387184 
L 391.972466 174.705644 
L 393.058267 179.091919 
L 395.229869 165.651119 
L 396.31567 179.060589 
L 398.487273 168.940825 
L 398.487273 168.940825 
" clip-path="url(#p7441f12d96)" style="fill: none; stroke: #2ca02c; stroke-width: 1.5; stroke-linecap: square"/>
   </g>
   <g id="line2d_20">
    <path d="M 368.08484 67.887309 
L 369.170642 67.342158 
L 370.256443 68.114455 
L 371.342244 68.159885 
L 372.428045 69.159329 
L 373.513846 67.20587 
L 375.685448 70.158773 
L 376.77125 68.659607 
L 377.857051 68.659607 
L 378.942852 68.387031 
L 380.028653 68.614177 
L 381.114454 68.069026 
L 382.200255 68.250743 
L 383.286057 67.433016 
L 384.371858 67.523875 
L 385.457659 68.387031 
L 386.54346 68.614177 
L 387.629261 67.20587 
L 388.715062 67.115011 
L 389.800863 68.341602 
L 390.886665 68.705036 
L 391.972466 68.296172 
L 393.058267 70.295061 
L 394.144068 69.886197 
L 395.229869 68.568748 
L 396.31567 69.477334 
L 397.401472 67.478445 
L 398.487273 70.522207 
L 398.487273 70.522207 
" clip-path="url(#p7441f12d96)" style="fill: none; stroke: #d62728; stroke-width: 1.5; stroke-linecap: square"/>
   </g>
   <g id="line2d_21">
    <path d="M 368.08484 162.330082 
L 369.170642 161.734802 
L 370.256443 159.792308 
L 371.342244 157.097882 
L 372.428045 170.820657 
L 373.513846 163.896609 
L 374.599647 162.142099 
L 375.685448 167.781595 
L 376.77125 162.267421 
L 377.857051 167.593612 
L 378.942852 159.385011 
L 380.028653 167.405629 
L 381.114454 165.933094 
L 382.200255 158.977714 
L 383.286057 160.324927 
L 384.371858 161.421496 
L 385.457659 164.178583 
L 386.54346 158.570417 
L 387.629261 160.888877 
L 388.715062 158.069129 
L 389.800863 159.32235 
L 390.886665 162.298751 
L 391.972466 159.040375 
L 393.058267 165.1185 
L 394.144068 162.83137 
L 395.229869 161.922785 
L 396.31567 161.828793 
L 397.401472 162.173429 
L 398.487273 158.915053 
L 398.487273 158.915053 
" clip-path="url(#p7441f12d96)" style="fill: none; stroke: #9467bd; stroke-width: 1.5; stroke-linecap: square"/>
   </g>
   <g id="patch_3">
    <path d="M 57.6 307.584 
L 57.6 41.472 
" style="fill: none; stroke: #000000; stroke-width: 0.8; stroke-linejoin: miter; stroke-linecap: square"/>
   </g>
   <g id="patch_4">
    <path d="M 414.72 307.584 
L 414.72 41.472 
" style="fill: none; stroke: #000000; stroke-width: 0.8; stroke-linejoin: miter; stroke-linecap: square"/>
   </g>
   <g id="patch_5">
    <path d="M 57.6 307.584 
L 414.72 307.584 
" style="fill: none; stroke: #000000; stroke-width: 0.8; stroke-linejoin: miter; stroke-linecap: square"/>
   </g>
   <g id="patch_6">
    <path d="M 57.6 41.472 
L 414.72 41.472 
" style="fill: none; stroke: #000000; stroke-width: 0.8; stroke-linejoin: miter; stroke-linecap: square"/>
   </g>
   <g id="text_19">
    <!-- Learning Curves -->
    <g transform="translate(187.37625 35.472) scale(0.12 -0.12)">
     <defs>
      <path id="DejaVuSans-4c" d="M 628 4666 
L 1259 4666 
L 1259 531 
L 3531 531 
L 3531 0 
L 628 0 
L 628 4666 
z
" transform="scale(0.015625)"/>
      <path id="DejaVuSans-65" d="M 3597 1894 
L 3597 1613 
L 953 1613 
Q 991 1019 1311 708 
Q 1631 397 2203 397 
Q 2534 397 2845 478 
Q 3156 559 3463 722 
L 3463 178 
Q 3153 47 2828 -22 
Q 2503 -91 2169 -91 
Q 1331 -91 842 396 
Q 353 884 353 1716 
Q 353 2575 817 3079 
Q 1281 3584 2069 3584 
Q 2775 3584 3186 3129 
Q 3597 2675 3597 1894 
z
M 3022 2063 
Q 3016 2534 2758 2815 
Q 2500 3097 2075 3097 
Q 1594 3097 1305 2825 
Q 1016 2553 972 2059 
L 3022 2063 
z
" transform="scale(0.015625)"/>
      <path id="DejaVuSans-6e" d="M 3513 2113 
L 3513 0 
L 2938 0 
L 2938 2094 
Q 2938 2591 2744 2837 
Q 2550 3084 2163 3084 
Q 1697 3084 1428 2787 
Q 1159 2491 1159 1978 
L 1159 0 
L 581 0 
L 581 3500 
L 1159 3500 
L 1159 2956 
Q 1366 3272 1645 3428 
Q 1925 3584 2291 3584 
Q 2894 3584 3203 3211 
Q 3513 2838 3513 2113 
z
" transform="scale(0.015625)"/>
      <path id="DejaVuSans-69" d="M 603 3500 
L 1178 3500 
L 1178 0 
L 603 0 
L 603 3500 
z
M 603 4863 
L 1178 4863 
L 1178 4134 
L 603 4134 
L 603 4863 
z
" transform="scale(0.015625)"/>
      <path id="DejaVuSans-67" d="M 2906 1791 
Q 2906 2416 2648 2759 
Q 2391 3103 1925 3103 
Q 1463 3103 1205 2759 
Q 947 2416 947 1791 
Q 947 1169 1205 825 
Q 1463 481 1925 481 
Q 2391 481 2648 825 
Q 2906 1169 2906 1791 
z
M 3481 434 
Q 3481 -459 3084 -895 
Q 2688 -1331 1869 -1331 
Q 1566 -1331 1297 -1286 
Q 1028 -1241 775 -1147 
L 775 -588 
Q 1028 -725 1275 -790 
Q 1522 -856 1778 -856 
Q 2344 -856 2625 -561 
Q 2906 -266 2906 331 
L 2906 616 
Q 2728 306 2450 153 
Q 2172 0 1784 0 
Q 1141 0 747 490 
Q 353 981 353 1791 
Q 353 2603 747 3093 
Q 1141 3584 1784 3584 
Q 2172 3584 2450 3431 
Q 2728 3278 2906 2969 
L 2906 3500 
L 3481 3500 
L 3481 434 
z
" transform="scale(0.015625)"/>
      <path id="DejaVuSans-20" transform="scale(0.015625)"/>
      <path id="DejaVuSans-43" d="M 4122 4306 
L 4122 3641 
Q 3803 3938 3442 4084 
Q 3081 4231 2675 4231 
Q 1875 4231 1450 3742 
Q 1025 3253 1025 2328 
Q 1025 1406 1450 917 
Q 1875 428 2675 428 
Q 3081 428 3442 575 
Q 3803 722 4122 1019 
L 4122 359 
Q 3791 134 3420 21 
Q 3050 -91 2638 -91 
Q 1578 -91 968 557 
Q 359 1206 359 2328 
Q 359 3453 968 4101 
Q 1578 4750 2638 4750 
Q 3056 4750 3426 4639 
Q 3797 4528 4122 4306 
z
" transform="scale(0.015625)"/>
      <path id="DejaVuSans-76" d="M 191 3500 
L 800 3500 
L 1894 563 
L 2988 3500 
L 3597 3500 
L 2284 0 
L 1503 0 
L 191 3500 
z
" transform="scale(0.015625)"/>
     </defs>
     <use xlink:href="#DejaVuSans-4c"/>
     <use xlink:href="#DejaVuSans-65" x="53.962891"/>
     <use xlink:href="#DejaVuSans-61" x="115.486328"/>
     <use xlink:href="#DejaVuSans-72" x="176.765625"/>
     <use xlink:href="#DejaVuSans-6e" x="216.128906"/>
     <use xlink:href="#DejaVuSans-69" x="279.507812"/>
     <use xlink:href="#DejaVuSans-6e" x="307.291016"/>
     <use xlink:href="#DejaVuSans-67" x="370.669922"/>
     <use xlink:href="#DejaVuSans-20" x="434.146484"/>
     <use xlink:href="#DejaVuSans-43" x="465.933594"/>
     <use xlink:href="#DejaVuSans-75" x="535.757812"/>
     <use xlink:href="#DejaVuSans-72" x="599.136719"/>
     <use xlink:href="#DejaVuSans-76" x="640.25"/>
     <use xlink:href="#DejaVuSans-65" x="699.429688"/>
     <use xlink:href="#DejaVuSans-73" x="760.953125"/>
    </g>
   </g>
   <g id="legend_1">
    <g id="patch_7">
     <path d="M 214.18875 302.584 
L 407.72 302.584 
Q 409.72 302.584 409.72 300.584 
L 409.72 228.193375 
Q 409.72 226.193375 407.72 226.193375 
L 214.18875 226.193375 
Q 212.18875 226.193375 212.18875 228.193375 
L 212.18875 300.584 
Q 212.18875 302.584 214.18875 302.584 
z
" style="fill: #ffffff; opacity: 0.8; stroke: #cccccc; stroke-linejoin: miter"/>
    </g>
    <g id="line2d_22">
     <path d="M 216.18875 234.291812 
L 226.18875 234.291812 
L 236.18875 234.291812 
" style="fill: none; stroke: #1f77b4; stroke-width: 1.5; stroke-linecap: square"/>
    </g>
    <g id="text_20">
     <!-- Train Accuracy -->
     <g transform="translate(244.18875 237.791812) scale(0.1 -0.1)">
      <defs>
       <path id="DejaVuSans-54" d="M -19 4666 
L 3928 4666 
L 3928 4134 
L 2272 4134 
L 2272 0 
L 1638 0 
L 1638 4134 
L -19 4134 
L -19 4666 
z
" transform="scale(0.015625)"/>
      </defs>
      <use xlink:href="#DejaVuSans-54"/>
      <use xlink:href="#DejaVuSans-72" x="46.333984"/>
      <use xlink:href="#DejaVuSans-61" x="87.447266"/>
      <use xlink:href="#DejaVuSans-69" x="148.726562"/>
      <use xlink:href="#DejaVuSans-6e" x="176.509766"/>
      <use xlink:href="#DejaVuSans-20" x="239.888672"/>
      <use xlink:href="#DejaVuSans-41" x="271.675781"/>
      <use xlink:href="#DejaVuSans-63" x="338.333984"/>
      <use xlink:href="#DejaVuSans-63" x="393.314453"/>
      <use xlink:href="#DejaVuSans-75" x="448.294922"/>
      <use xlink:href="#DejaVuSans-72" x="511.673828"/>
      <use xlink:href="#DejaVuSans-61" x="552.787109"/>
      <use xlink:href="#DejaVuSans-63" x="614.066406"/>
      <use xlink:href="#DejaVuSans-79" x="669.046875"/>
     </g>
    </g>
    <g id="line2d_23">
     <path d="M 216.18875 248.969937 
L 226.18875 248.969937 
L 236.18875 248.969937 
" style="fill: none; stroke: #ff7f0e; stroke-width: 1.5; stroke-linecap: square"/>
    </g>
    <g id="text_21">
     <!-- Validation Accuracy -->
     <g transform="translate(244.18875 252.469937) scale(0.1 -0.1)">
      <defs>
       <path id="DejaVuSans-56" d="M 1831 0 
L 50 4666 
L 709 4666 
L 2188 738 
L 3669 4666 
L 4325 4666 
L 2547 0 
L 1831 0 
z
" transform="scale(0.015625)"/>
       <path id="DejaVuSans-6c" d="M 603 4863 
L 1178 4863 
L 1178 0 
L 603 0 
L 603 4863 
z
" transform="scale(0.015625)"/>
       <path id="DejaVuSans-64" d="M 2906 2969 
L 2906 4863 
L 3481 4863 
L 3481 0 
L 2906 0 
L 2906 525 
Q 2725 213 2448 61 
Q 2172 -91 1784 -91 
Q 1150 -91 751 415 
Q 353 922 353 1747 
Q 353 2572 751 3078 
Q 1150 3584 1784 3584 
Q 2172 3584 2448 3432 
Q 2725 3281 2906 2969 
z
M 947 1747 
Q 947 1113 1208 752 
Q 1469 391 1925 391 
Q 2381 391 2643 752 
Q 2906 1113 2906 1747 
Q 2906 2381 2643 2742 
Q 2381 3103 1925 3103 
Q 1469 3103 1208 2742 
Q 947 2381 947 1747 
z
" transform="scale(0.015625)"/>
       <path id="DejaVuSans-74" d="M 1172 4494 
L 1172 3500 
L 2356 3500 
L 2356 3053 
L 1172 3053 
L 1172 1153 
Q 1172 725 1289 603 
Q 1406 481 1766 481 
L 2356 481 
L 2356 0 
L 1766 0 
Q 1100 0 847 248 
Q 594 497 594 1153 
L 594 3053 
L 172 3053 
L 172 3500 
L 594 3500 
L 594 4494 
L 1172 4494 
z
" transform="scale(0.015625)"/>
      </defs>
      <use xlink:href="#DejaVuSans-56"/>
      <use xlink:href="#DejaVuSans-61" x="60.658203"/>
      <use xlink:href="#DejaVuSans-6c" x="121.9375"/>
      <use xlink:href="#DejaVuSans-69" x="149.720703"/>
      <use xlink:href="#DejaVuSans-64" x="177.503906"/>
      <use xlink:href="#DejaVuSans-61" x="240.980469"/>
      <use xlink:href="#DejaVuSans-74" x="302.259766"/>
      <use xlink:href="#DejaVuSans-69" x="341.46875"/>
      <use xlink:href="#DejaVuSans-6f" x="369.251953"/>
      <use xlink:href="#DejaVuSans-6e" x="430.433594"/>
      <use xlink:href="#DejaVuSans-20" x="493.8125"/>
      <use xlink:href="#DejaVuSans-41" x="525.599609"/>
      <use xlink:href="#DejaVuSans-63" x="592.257812"/>
      <use xlink:href="#DejaVuSans-63" x="647.238281"/>
      <use xlink:href="#DejaVuSans-75" x="702.21875"/>
      <use xlink:href="#DejaVuSans-72" x="765.597656"/>
      <use xlink:href="#DejaVuSans-61" x="806.710938"/>
      <use xlink:href="#DejaVuSans-63" x="867.990234"/>
      <use xlink:href="#DejaVuSans-79" x="922.970703"/>
     </g>
    </g>
    <g id="line2d_24">
     <path d="M 216.18875 263.648062 
L 226.18875 263.648062 
L 236.18875 263.648062 
" style="fill: none; stroke: #2ca02c; stroke-width: 1.5; stroke-linecap: square"/>
    </g>
    <g id="text_22">
     <!-- Robust Validation Accuracy -->
     <g transform="translate(244.18875 267.148062) scale(0.1 -0.1)">
      <defs>
       <path id="DejaVuSans-52" d="M 2841 2188 
Q 3044 2119 3236 1894 
Q 3428 1669 3622 1275 
L 4263 0 
L 3584 0 
L 2988 1197 
Q 2756 1666 2539 1819 
Q 2322 1972 1947 1972 
L 1259 1972 
L 1259 0 
L 628 0 
L 628 4666 
L 2053 4666 
Q 2853 4666 3247 4331 
Q 3641 3997 3641 3322 
Q 3641 2881 3436 2590 
Q 3231 2300 2841 2188 
z
M 1259 4147 
L 1259 2491 
L 2053 2491 
Q 2509 2491 2742 2702 
Q 2975 2913 2975 3322 
Q 2975 3731 2742 3939 
Q 2509 4147 2053 4147 
L 1259 4147 
z
" transform="scale(0.015625)"/>
       <path id="DejaVuSans-62" d="M 3116 1747 
Q 3116 2381 2855 2742 
Q 2594 3103 2138 3103 
Q 1681 3103 1420 2742 
Q 1159 2381 1159 1747 
Q 1159 1113 1420 752 
Q 1681 391 2138 391 
Q 2594 391 2855 752 
Q 3116 1113 3116 1747 
z
M 1159 2969 
Q 1341 3281 1617 3432 
Q 1894 3584 2278 3584 
Q 2916 3584 3314 3078 
Q 3713 2572 3713 1747 
Q 3713 922 3314 415 
Q 2916 -91 2278 -91 
Q 1894 -91 1617 61 
Q 1341 213 1159 525 
L 1159 0 
L 581 0 
L 581 4863 
L 1159 4863 
L 1159 2969 
z
" transform="scale(0.015625)"/>
      </defs>
      <use xlink:href="#DejaVuSans-52"/>
      <use xlink:href="#DejaVuSans-6f" x="64.982422"/>
      <use xlink:href="#DejaVuSans-62" x="126.164062"/>
      <use xlink:href="#DejaVuSans-75" x="189.640625"/>
      <use xlink:href="#DejaVuSans-73" x="253.019531"/>
      <use xlink:href="#DejaVuSans-74" x="305.119141"/>
      <use xlink:href="#DejaVuSans-20" x="344.328125"/>
      <use xlink:href="#DejaVuSans-56" x="376.115234"/>
      <use xlink:href="#DejaVuSans-61" x="436.773438"/>
      <use xlink:href="#DejaVuSans-6c" x="498.052734"/>
      <use xlink:href="#DejaVuSans-69" x="525.835938"/>
      <use xlink:href="#DejaVuSans-64" x="553.619141"/>
      <use xlink:href="#DejaVuSans-61" x="617.095703"/>
      <use xlink:href="#DejaVuSans-74" x="678.375"/>
      <use xlink:href="#DejaVuSans-69" x="717.583984"/>
      <use xlink:href="#DejaVuSans-6f" x="745.367188"/>
      <use xlink:href="#DejaVuSans-6e" x="806.548828"/>
      <use xlink:href="#DejaVuSans-20" x="869.927734"/>
      <use xlink:href="#DejaVuSans-41" x="901.714844"/>
      <use xlink:href="#DejaVuSans-63" x="968.373047"/>
      <use xlink:href="#DejaVuSans-63" x="1023.353516"/>
      <use xlink:href="#DejaVuSans-75" x="1078.333984"/>
      <use xlink:href="#DejaVuSans-72" x="1141.712891"/>
      <use xlink:href="#DejaVuSans-61" x="1182.826172"/>
      <use xlink:href="#DejaVuSans-63" x="1244.105469"/>
      <use xlink:href="#DejaVuSans-79" x="1299.085938"/>
     </g>
    </g>
    <g id="line2d_25">
     <path d="M 216.18875 278.326188 
L 226.18875 278.326188 
L 236.18875 278.326188 
" style="fill: none; stroke: #d62728; stroke-width: 1.5; stroke-linecap: square"/>
    </g>
    <g id="text_23">
     <!-- SWA Validation Accuracy -->
     <g transform="translate(244.18875 281.826188) scale(0.1 -0.1)">
      <defs>
       <path id="DejaVuSans-53" d="M 3425 4513 
L 3425 3897 
Q 3066 4069 2747 4153 
Q 2428 4238 2131 4238 
Q 1616 4238 1336 4038 
Q 1056 3838 1056 3469 
Q 1056 3159 1242 3001 
Q 1428 2844 1947 2747 
L 2328 2669 
Q 3034 2534 3370 2195 
Q 3706 1856 3706 1288 
Q 3706 609 3251 259 
Q 2797 -91 1919 -91 
Q 1588 -91 1214 -16 
Q 841 59 441 206 
L 441 856 
Q 825 641 1194 531 
Q 1563 422 1919 422 
Q 2459 422 2753 634 
Q 3047 847 3047 1241 
Q 3047 1584 2836 1778 
Q 2625 1972 2144 2069 
L 1759 2144 
Q 1053 2284 737 2584 
Q 422 2884 422 3419 
Q 422 4038 858 4394 
Q 1294 4750 2059 4750 
Q 2388 4750 2728 4690 
Q 3069 4631 3425 4513 
z
" transform="scale(0.015625)"/>
       <path id="DejaVuSans-57" d="M 213 4666 
L 850 4666 
L 1831 722 
L 2809 4666 
L 3519 4666 
L 4500 722 
L 5478 4666 
L 6119 4666 
L 4947 0 
L 4153 0 
L 3169 4050 
L 2175 0 
L 1381 0 
L 213 4666 
z
" transform="scale(0.015625)"/>
      </defs>
      <use xlink:href="#DejaVuSans-53"/>
      <use xlink:href="#DejaVuSans-57" x="63.476562"/>
      <use xlink:href="#DejaVuSans-41" x="156.853516"/>
      <use xlink:href="#DejaVuSans-20" x="225.261719"/>
      <use xlink:href="#DejaVuSans-56" x="257.048828"/>
      <use xlink:href="#DejaVuSans-61" x="317.707031"/>
      <use xlink:href="#DejaVuSans-6c" x="378.986328"/>
      <use xlink:href="#DejaVuSans-69" x="406.769531"/>
      <use xlink:href="#DejaVuSans-64" x="434.552734"/>
      <use xlink:href="#DejaVuSans-61" x="498.029297"/>
      <use xlink:href="#DejaVuSans-74" x="559.308594"/>
      <use xlink:href="#DejaVuSans-69" x="598.517578"/>
      <use xlink:href="#DejaVuSans-6f" x="626.300781"/>
      <use xlink:href="#DejaVuSans-6e" x="687.482422"/>
      <use xlink:href="#DejaVuSans-20" x="750.861328"/>
      <use xlink:href="#DejaVuSans-41" x="782.648438"/>
      <use xlink:href="#DejaVuSans-63" x="849.306641"/>
      <use xlink:href="#DejaVuSans-63" x="904.287109"/>
      <use xlink:href="#DejaVuSans-75" x="959.267578"/>
      <use xlink:href="#DejaVuSans-72" x="1022.646484"/>
      <use xlink:href="#DejaVuSans-61" x="1063.759766"/>
      <use xlink:href="#DejaVuSans-63" x="1125.039062"/>
      <use xlink:href="#DejaVuSans-79" x="1180.019531"/>
     </g>
    </g>
    <g id="line2d_26">
     <path d="M 216.18875 293.004312 
L 226.18875 293.004312 
L 236.18875 293.004312 
" style="fill: none; stroke: #9467bd; stroke-width: 1.5; stroke-linecap: square"/>
    </g>
    <g id="text_24">
     <!-- SWA Robust Validation Accuracy -->
     <g transform="translate(244.18875 296.504312) scale(0.1 -0.1)">
      <use xlink:href="#DejaVuSans-53"/>
      <use xlink:href="#DejaVuSans-57" x="63.476562"/>
      <use xlink:href="#DejaVuSans-41" x="156.853516"/>
      <use xlink:href="#DejaVuSans-20" x="225.261719"/>
      <use xlink:href="#DejaVuSans-52" x="257.048828"/>
      <use xlink:href="#DejaVuSans-6f" x="322.03125"/>
      <use xlink:href="#DejaVuSans-62" x="383.212891"/>
      <use xlink:href="#DejaVuSans-75" x="446.689453"/>
      <use xlink:href="#DejaVuSans-73" x="510.068359"/>
      <use xlink:href="#DejaVuSans-74" x="562.167969"/>
      <use xlink:href="#DejaVuSans-20" x="601.376953"/>
      <use xlink:href="#DejaVuSans-56" x="633.164062"/>
      <use xlink:href="#DejaVuSans-61" x="693.822266"/>
      <use xlink:href="#DejaVuSans-6c" x="755.101562"/>
      <use xlink:href="#DejaVuSans-69" x="782.884766"/>
      <use xlink:href="#DejaVuSans-64" x="810.667969"/>
      <use xlink:href="#DejaVuSans-61" x="874.144531"/>
      <use xlink:href="#DejaVuSans-74" x="935.423828"/>
      <use xlink:href="#DejaVuSans-69" x="974.632812"/>
      <use xlink:href="#DejaVuSans-6f" x="1002.416016"/>
      <use xlink:href="#DejaVuSans-6e" x="1063.597656"/>
      <use xlink:href="#DejaVuSans-20" x="1126.976562"/>
      <use xlink:href="#DejaVuSans-41" x="1158.763672"/>
      <use xlink:href="#DejaVuSans-63" x="1225.421875"/>
      <use xlink:href="#DejaVuSans-63" x="1280.402344"/>
      <use xlink:href="#DejaVuSans-75" x="1335.382812"/>
      <use xlink:href="#DejaVuSans-72" x="1398.761719"/>
      <use xlink:href="#DejaVuSans-61" x="1439.875"/>
      <use xlink:href="#DejaVuSans-63" x="1501.154297"/>
      <use xlink:href="#DejaVuSans-79" x="1556.134766"/>
     </g>
    </g>
   </g>
  </g>
 </g>
 <defs>
  <clipPath id="p7441f12d96">
   <rect x="57.6" y="41.472" width="357.12" height="266.112"/>
  </clipPath>
 </defs>
</svg>
