<?xml version="1.0" encoding="utf-8" standalone="no"?>
<!DOCTYPE svg PUBLIC "-//W3C//DTD SVG 1.1//EN"
  "http://www.w3.org/Graphics/SVG/1.1/DTD/svg11.dtd">
<svg xmlns:xlink="http://www.w3.org/1999/xlink" width="460.8pt" height="345.6pt" viewBox="0 0 460.8 345.6" xmlns="http://www.w3.org/2000/svg" version="1.1">
 <metadata>
  <rdf:RDF xmlns:dc="http://purl.org/dc/elements/1.1/" xmlns:cc="http://creativecommons.org/ns#" xmlns:rdf="http://www.w3.org/1999/02/22-rdf-syntax-ns#">
   <cc:Work>
    <dc:type rdf:resource="http://purl.org/dc/dcmitype/StillImage"/>
    <dc:date>2025-05-05T22:03:01.914056</dc:date>
    <dc:format>image/svg+xml</dc:format>
    <dc:creator>
     <cc:Agent>
      <dc:title>Matplotlib v3.9.1, https://matplotlib.org/</dc:title>
     </cc:Agent>
    </dc:creator>
   </cc:Work>
  </rdf:RDF>
 </metadata>
 <defs>
  <style type="text/css">*{stroke-linejoin: round; stroke-linecap: butt}</style>
 </defs>
 <g id="figure_1">
  <g id="patch_1">
   <path d="M 0 345.6 
L 460.8 345.6 
L 460.8 0 
L 0 0 
z
" style="fill: #ffffff"/>
  </g>
  <g id="axes_1">
   <g id="patch_2">
    <path d="M 57.6 307.584 
L 414.72 307.584 
L 414.72 41.472 
L 57.6 41.472 
z
" style="fill: #ffffff"/>
   </g>
   <g id="matplotlib.axis_1">
    <g id="xtick_1">
     <g id="line2d_1">
      <defs>
       <path id="m07e25a23ec" d="M 0 0 
L 0 3.5 
" style="stroke: #000000; stroke-width: 0.8"/>
      </defs>
      <g>
       <use xlink:href="#m07e25a23ec" x="73.832727" y="307.584" style="stroke: #000000; stroke-width: 0.8"/>
      </g>
     </g>
     <g id="text_1">
      <!-- 1 -->
      <g transform="translate(70.651477 322.182437) scale(0.1 -0.1)">
       <defs>
        <path id="DejaVuSans-31" d="M 794 531 
L 1825 531 
L 1825 4091 
L 703 3866 
L 703 4441 
L 1819 4666 
L 2450 4666 
L 2450 531 
L 3481 531 
L 3481 0 
L 794 0 
L 794 531 
z
" transform="scale(0.015625)"/>
       </defs>
       <use xlink:href="#DejaVuSans-31"/>
      </g>
     </g>
    </g>
    <g id="xtick_2">
     <g id="line2d_2">
      <g>
       <use xlink:href="#m07e25a23ec" x="109.664165" y="307.584" style="stroke: #000000; stroke-width: 0.8"/>
      </g>
     </g>
     <g id="text_2">
      <!-- 34 -->
      <g transform="translate(103.301665 322.182437) scale(0.1 -0.1)">
       <defs>
        <path id="DejaVuSans-33" d="M 2597 2516 
Q 3050 2419 3304 2112 
Q 3559 1806 3559 1356 
Q 3559 666 3084 287 
Q 2609 -91 1734 -91 
Q 1441 -91 1130 -33 
Q 819 25 488 141 
L 488 750 
Q 750 597 1062 519 
Q 1375 441 1716 441 
Q 2309 441 2620 675 
Q 2931 909 2931 1356 
Q 2931 1769 2642 2001 
Q 2353 2234 1838 2234 
L 1294 2234 
L 1294 2753 
L 1863 2753 
Q 2328 2753 2575 2939 
Q 2822 3125 2822 3475 
Q 2822 3834 2567 4026 
Q 2313 4219 1838 4219 
Q 1578 4219 1281 4162 
Q 984 4106 628 3988 
L 628 4550 
Q 988 4650 1302 4700 
Q 1616 4750 1894 4750 
Q 2613 4750 3031 4423 
Q 3450 4097 3450 3541 
Q 3450 3153 3228 2886 
Q 3006 2619 2597 2516 
z
" transform="scale(0.015625)"/>
        <path id="DejaVuSans-34" d="M 2419 4116 
L 825 1625 
L 2419 1625 
L 2419 4116 
z
M 2253 4666 
L 3047 4666 
L 3047 1625 
L 3713 1625 
L 3713 1100 
L 3047 1100 
L 3047 0 
L 2419 0 
L 2419 1100 
L 313 1100 
L 313 1709 
L 2253 4666 
z
" transform="scale(0.015625)"/>
       </defs>
       <use xlink:href="#DejaVuSans-33"/>
       <use xlink:href="#DejaVuSans-34" x="63.623047"/>
      </g>
     </g>
    </g>
    <g id="xtick_3">
     <g id="line2d_3">
      <g>
       <use xlink:href="#m07e25a23ec" x="145.495604" y="307.584" style="stroke: #000000; stroke-width: 0.8"/>
      </g>
     </g>
     <g id="text_3">
      <!-- 67 -->
      <g transform="translate(139.133104 322.182437) scale(0.1 -0.1)">
       <defs>
        <path id="DejaVuSans-36" d="M 2113 2584 
Q 1688 2584 1439 2293 
Q 1191 2003 1191 1497 
Q 1191 994 1439 701 
Q 1688 409 2113 409 
Q 2538 409 2786 701 
Q 3034 994 3034 1497 
Q 3034 2003 2786 2293 
Q 2538 2584 2113 2584 
z
M 3366 4563 
L 3366 3988 
Q 3128 4100 2886 4159 
Q 2644 4219 2406 4219 
Q 1781 4219 1451 3797 
Q 1122 3375 1075 2522 
Q 1259 2794 1537 2939 
Q 1816 3084 2150 3084 
Q 2853 3084 3261 2657 
Q 3669 2231 3669 1497 
Q 3669 778 3244 343 
Q 2819 -91 2113 -91 
Q 1303 -91 875 529 
Q 447 1150 447 2328 
Q 447 3434 972 4092 
Q 1497 4750 2381 4750 
Q 2619 4750 2861 4703 
Q 3103 4656 3366 4563 
z
" transform="scale(0.015625)"/>
        <path id="DejaVuSans-37" d="M 525 4666 
L 3525 4666 
L 3525 4397 
L 1831 0 
L 1172 0 
L 2766 4134 
L 525 4134 
L 525 4666 
z
" transform="scale(0.015625)"/>
       </defs>
       <use xlink:href="#DejaVuSans-36"/>
       <use xlink:href="#DejaVuSans-37" x="63.623047"/>
      </g>
     </g>
    </g>
    <g id="xtick_4">
     <g id="line2d_4">
      <g>
       <use xlink:href="#m07e25a23ec" x="181.327042" y="307.584" style="stroke: #000000; stroke-width: 0.8"/>
      </g>
     </g>
     <g id="text_4">
      <!-- 100 -->
      <g transform="translate(171.783292 322.182437) scale(0.1 -0.1)">
       <defs>
        <path id="DejaVuSans-30" d="M 2034 4250 
Q 1547 4250 1301 3770 
Q 1056 3291 1056 2328 
Q 1056 1369 1301 889 
Q 1547 409 2034 409 
Q 2525 409 2770 889 
Q 3016 1369 3016 2328 
Q 3016 3291 2770 3770 
Q 2525 4250 2034 4250 
z
M 2034 4750 
Q 2819 4750 3233 4129 
Q 3647 3509 3647 2328 
Q 3647 1150 3233 529 
Q 2819 -91 2034 -91 
Q 1250 -91 836 529 
Q 422 1150 422 2328 
Q 422 3509 836 4129 
Q 1250 4750 2034 4750 
z
" transform="scale(0.015625)"/>
       </defs>
       <use xlink:href="#DejaVuSans-31"/>
       <use xlink:href="#DejaVuSans-30" x="63.623047"/>
       <use xlink:href="#DejaVuSans-30" x="127.246094"/>
      </g>
     </g>
    </g>
    <g id="xtick_5">
     <g id="line2d_5">
      <g>
       <use xlink:href="#m07e25a23ec" x="217.15848" y="307.584" style="stroke: #000000; stroke-width: 0.8"/>
      </g>
     </g>
     <g id="text_5">
      <!-- 133 -->
      <g transform="translate(207.61473 322.182437) scale(0.1 -0.1)">
       <use xlink:href="#DejaVuSans-31"/>
       <use xlink:href="#DejaVuSans-33" x="63.623047"/>
       <use xlink:href="#DejaVuSans-33" x="127.246094"/>
      </g>
     </g>
    </g>
    <g id="xtick_6">
     <g id="line2d_6">
      <g>
       <use xlink:href="#m07e25a23ec" x="254.075719" y="307.584" style="stroke: #000000; stroke-width: 0.8"/>
      </g>
     </g>
     <g id="text_6">
      <!-- 167 -->
      <g transform="translate(244.531969 322.182437) scale(0.1 -0.1)">
       <use xlink:href="#DejaVuSans-31"/>
       <use xlink:href="#DejaVuSans-36" x="63.623047"/>
       <use xlink:href="#DejaVuSans-37" x="127.246094"/>
      </g>
     </g>
    </g>
    <g id="xtick_7">
     <g id="line2d_7">
      <g>
       <use xlink:href="#m07e25a23ec" x="289.907157" y="307.584" style="stroke: #000000; stroke-width: 0.8"/>
      </g>
     </g>
     <g id="text_7">
      <!-- 200 -->
      <g transform="translate(280.363407 322.182437) scale(0.1 -0.1)">
       <defs>
        <path id="DejaVuSans-32" d="M 1228 531 
L 3431 531 
L 3431 0 
L 469 0 
L 469 531 
Q 828 903 1448 1529 
Q 2069 2156 2228 2338 
Q 2531 2678 2651 2914 
Q 2772 3150 2772 3378 
Q 2772 3750 2511 3984 
Q 2250 4219 1831 4219 
Q 1534 4219 1204 4116 
Q 875 4013 500 3803 
L 500 4441 
Q 881 4594 1212 4672 
Q 1544 4750 1819 4750 
Q 2544 4750 2975 4387 
Q 3406 4025 3406 3419 
Q 3406 3131 3298 2873 
Q 3191 2616 2906 2266 
Q 2828 2175 2409 1742 
Q 1991 1309 1228 531 
z
" transform="scale(0.015625)"/>
       </defs>
       <use xlink:href="#DejaVuSans-32"/>
       <use xlink:href="#DejaVuSans-30" x="63.623047"/>
       <use xlink:href="#DejaVuSans-30" x="127.246094"/>
      </g>
     </g>
    </g>
    <g id="xtick_8">
     <g id="line2d_8">
      <g>
       <use xlink:href="#m07e25a23ec" x="325.738595" y="307.584" style="stroke: #000000; stroke-width: 0.8"/>
      </g>
     </g>
     <g id="text_8">
      <!-- 233 -->
      <g transform="translate(316.194845 322.182437) scale(0.1 -0.1)">
       <use xlink:href="#DejaVuSans-32"/>
       <use xlink:href="#DejaVuSans-33" x="63.623047"/>
       <use xlink:href="#DejaVuSans-33" x="127.246094"/>
      </g>
     </g>
    </g>
    <g id="xtick_9">
     <g id="line2d_9">
      <g>
       <use xlink:href="#m07e25a23ec" x="361.570033" y="307.584" style="stroke: #000000; stroke-width: 0.8"/>
      </g>
     </g>
     <g id="text_9">
      <!-- 266 -->
      <g transform="translate(352.026283 322.182437) scale(0.1 -0.1)">
       <use xlink:href="#DejaVuSans-32"/>
       <use xlink:href="#DejaVuSans-36" x="63.623047"/>
       <use xlink:href="#DejaVuSans-36" x="127.246094"/>
      </g>
     </g>
    </g>
    <g id="xtick_10">
     <g id="line2d_10">
      <g>
       <use xlink:href="#m07e25a23ec" x="398.487273" y="307.584" style="stroke: #000000; stroke-width: 0.8"/>
      </g>
     </g>
     <g id="text_10">
      <!-- 300 -->
      <g transform="translate(388.943523 322.182437) scale(0.1 -0.1)">
       <use xlink:href="#DejaVuSans-33"/>
       <use xlink:href="#DejaVuSans-30" x="63.623047"/>
       <use xlink:href="#DejaVuSans-30" x="127.246094"/>
      </g>
     </g>
    </g>
    <g id="text_11">
     <!-- Epochs -->
     <g transform="translate(218.244375 335.860562) scale(0.1 -0.1)">
      <defs>
       <path id="DejaVuSans-45" d="M 628 4666 
L 3578 4666 
L 3578 4134 
L 1259 4134 
L 1259 2753 
L 3481 2753 
L 3481 2222 
L 1259 2222 
L 1259 531 
L 3634 531 
L 3634 0 
L 628 0 
L 628 4666 
z
" transform="scale(0.015625)"/>
       <path id="DejaVuSans-70" d="M 1159 525 
L 1159 -1331 
L 581 -1331 
L 581 3500 
L 1159 3500 
L 1159 2969 
Q 1341 3281 1617 3432 
Q 1894 3584 2278 3584 
Q 2916 3584 3314 3078 
Q 3713 2572 3713 1747 
Q 3713 922 3314 415 
Q 2916 -91 2278 -91 
Q 1894 -91 1617 61 
Q 1341 213 1159 525 
z
M 3116 1747 
Q 3116 2381 2855 2742 
Q 2594 3103 2138 3103 
Q 1681 3103 1420 2742 
Q 1159 2381 1159 1747 
Q 1159 1113 1420 752 
Q 1681 391 2138 391 
Q 2594 391 2855 752 
Q 3116 1113 3116 1747 
z
" transform="scale(0.015625)"/>
       <path id="DejaVuSans-6f" d="M 1959 3097 
Q 1497 3097 1228 2736 
Q 959 2375 959 1747 
Q 959 1119 1226 758 
Q 1494 397 1959 397 
Q 2419 397 2687 759 
Q 2956 1122 2956 1747 
Q 2956 2369 2687 2733 
Q 2419 3097 1959 3097 
z
M 1959 3584 
Q 2709 3584 3137 3096 
Q 3566 2609 3566 1747 
Q 3566 888 3137 398 
Q 2709 -91 1959 -91 
Q 1206 -91 779 398 
Q 353 888 353 1747 
Q 353 2609 779 3096 
Q 1206 3584 1959 3584 
z
" transform="scale(0.015625)"/>
       <path id="DejaVuSans-63" d="M 3122 3366 
L 3122 2828 
Q 2878 2963 2633 3030 
Q 2388 3097 2138 3097 
Q 1578 3097 1268 2742 
Q 959 2388 959 1747 
Q 959 1106 1268 751 
Q 1578 397 2138 397 
Q 2388 397 2633 464 
Q 2878 531 3122 666 
L 3122 134 
Q 2881 22 2623 -34 
Q 2366 -91 2075 -91 
Q 1284 -91 818 406 
Q 353 903 353 1747 
Q 353 2603 823 3093 
Q 1294 3584 2113 3584 
Q 2378 3584 2631 3529 
Q 2884 3475 3122 3366 
z
" transform="scale(0.015625)"/>
       <path id="DejaVuSans-68" d="M 3513 2113 
L 3513 0 
L 2938 0 
L 2938 2094 
Q 2938 2591 2744 2837 
Q 2550 3084 2163 3084 
Q 1697 3084 1428 2787 
Q 1159 2491 1159 1978 
L 1159 0 
L 581 0 
L 581 4863 
L 1159 4863 
L 1159 2956 
Q 1366 3272 1645 3428 
Q 1925 3584 2291 3584 
Q 2894 3584 3203 3211 
Q 3513 2838 3513 2113 
z
" transform="scale(0.015625)"/>
       <path id="DejaVuSans-73" d="M 2834 3397 
L 2834 2853 
Q 2591 2978 2328 3040 
Q 2066 3103 1784 3103 
Q 1356 3103 1142 2972 
Q 928 2841 928 2578 
Q 928 2378 1081 2264 
Q 1234 2150 1697 2047 
L 1894 2003 
Q 2506 1872 2764 1633 
Q 3022 1394 3022 966 
Q 3022 478 2636 193 
Q 2250 -91 1575 -91 
Q 1294 -91 989 -36 
Q 684 19 347 128 
L 347 722 
Q 666 556 975 473 
Q 1284 391 1588 391 
Q 1994 391 2212 530 
Q 2431 669 2431 922 
Q 2431 1156 2273 1281 
Q 2116 1406 1581 1522 
L 1381 1569 
Q 847 1681 609 1914 
Q 372 2147 372 2553 
Q 372 3047 722 3315 
Q 1072 3584 1716 3584 
Q 2034 3584 2315 3537 
Q 2597 3491 2834 3397 
z
" transform="scale(0.015625)"/>
      </defs>
      <use xlink:href="#DejaVuSans-45"/>
      <use xlink:href="#DejaVuSans-70" x="63.183594"/>
      <use xlink:href="#DejaVuSans-6f" x="126.660156"/>
      <use xlink:href="#DejaVuSans-63" x="187.841797"/>
      <use xlink:href="#DejaVuSans-68" x="242.822266"/>
      <use xlink:href="#DejaVuSans-73" x="306.201172"/>
     </g>
    </g>
   </g>
   <g id="matplotlib.axis_2">
    <g id="ytick_1">
     <g id="line2d_11">
      <defs>
       <path id="mf84696de8b" d="M 0 0 
L -3.5 0 
" style="stroke: #000000; stroke-width: 0.8"/>
      </defs>
      <g>
       <use xlink:href="#mf84696de8b" x="57.6" y="297.023603" style="stroke: #000000; stroke-width: 0.8"/>
      </g>
     </g>
     <g id="text_12">
      <!-- 30 -->
      <g transform="translate(37.875 300.822822) scale(0.1 -0.1)">
       <use xlink:href="#DejaVuSans-33"/>
       <use xlink:href="#DejaVuSans-30" x="63.623047"/>
      </g>
     </g>
    </g>
    <g id="ytick_2">
     <g id="line2d_12">
      <g>
       <use xlink:href="#mf84696de8b" x="57.6" y="260.286678" style="stroke: #000000; stroke-width: 0.8"/>
      </g>
     </g>
     <g id="text_13">
      <!-- 40 -->
      <g transform="translate(37.875 264.085897) scale(0.1 -0.1)">
       <use xlink:href="#DejaVuSans-34"/>
       <use xlink:href="#DejaVuSans-30" x="63.623047"/>
      </g>
     </g>
    </g>
    <g id="ytick_3">
     <g id="line2d_13">
      <g>
       <use xlink:href="#mf84696de8b" x="57.6" y="223.549753" style="stroke: #000000; stroke-width: 0.8"/>
      </g>
     </g>
     <g id="text_14">
      <!-- 50 -->
      <g transform="translate(37.875 227.348972) scale(0.1 -0.1)">
       <defs>
        <path id="DejaVuSans-35" d="M 691 4666 
L 3169 4666 
L 3169 4134 
L 1269 4134 
L 1269 2991 
Q 1406 3038 1543 3061 
Q 1681 3084 1819 3084 
Q 2600 3084 3056 2656 
Q 3513 2228 3513 1497 
Q 3513 744 3044 326 
Q 2575 -91 1722 -91 
Q 1428 -91 1123 -41 
Q 819 9 494 109 
L 494 744 
Q 775 591 1075 516 
Q 1375 441 1709 441 
Q 2250 441 2565 725 
Q 2881 1009 2881 1497 
Q 2881 1984 2565 2268 
Q 2250 2553 1709 2553 
Q 1456 2553 1204 2497 
Q 953 2441 691 2322 
L 691 4666 
z
" transform="scale(0.015625)"/>
       </defs>
       <use xlink:href="#DejaVuSans-35"/>
       <use xlink:href="#DejaVuSans-30" x="63.623047"/>
      </g>
     </g>
    </g>
    <g id="ytick_4">
     <g id="line2d_14">
      <g>
       <use xlink:href="#mf84696de8b" x="57.6" y="186.812828" style="stroke: #000000; stroke-width: 0.8"/>
      </g>
     </g>
     <g id="text_15">
      <!-- 60 -->
      <g transform="translate(37.875 190.612047) scale(0.1 -0.1)">
       <use xlink:href="#DejaVuSans-36"/>
       <use xlink:href="#DejaVuSans-30" x="63.623047"/>
      </g>
     </g>
    </g>
    <g id="ytick_5">
     <g id="line2d_15">
      <g>
       <use xlink:href="#mf84696de8b" x="57.6" y="150.075903" style="stroke: #000000; stroke-width: 0.8"/>
      </g>
     </g>
     <g id="text_16">
      <!-- 70 -->
      <g transform="translate(37.875 153.875121) scale(0.1 -0.1)">
       <use xlink:href="#DejaVuSans-37"/>
       <use xlink:href="#DejaVuSans-30" x="63.623047"/>
      </g>
     </g>
    </g>
    <g id="ytick_6">
     <g id="line2d_16">
      <g>
       <use xlink:href="#mf84696de8b" x="57.6" y="113.338977" style="stroke: #000000; stroke-width: 0.8"/>
      </g>
     </g>
     <g id="text_17">
      <!-- 80 -->
      <g transform="translate(37.875 117.138196) scale(0.1 -0.1)">
       <defs>
        <path id="DejaVuSans-38" d="M 2034 2216 
Q 1584 2216 1326 1975 
Q 1069 1734 1069 1313 
Q 1069 891 1326 650 
Q 1584 409 2034 409 
Q 2484 409 2743 651 
Q 3003 894 3003 1313 
Q 3003 1734 2745 1975 
Q 2488 2216 2034 2216 
z
M 1403 2484 
Q 997 2584 770 2862 
Q 544 3141 544 3541 
Q 544 4100 942 4425 
Q 1341 4750 2034 4750 
Q 2731 4750 3128 4425 
Q 3525 4100 3525 3541 
Q 3525 3141 3298 2862 
Q 3072 2584 2669 2484 
Q 3125 2378 3379 2068 
Q 3634 1759 3634 1313 
Q 3634 634 3220 271 
Q 2806 -91 2034 -91 
Q 1263 -91 848 271 
Q 434 634 434 1313 
Q 434 1759 690 2068 
Q 947 2378 1403 2484 
z
M 1172 3481 
Q 1172 3119 1398 2916 
Q 1625 2713 2034 2713 
Q 2441 2713 2670 2916 
Q 2900 3119 2900 3481 
Q 2900 3844 2670 4047 
Q 2441 4250 2034 4250 
Q 1625 4250 1398 4047 
Q 1172 3844 1172 3481 
z
" transform="scale(0.015625)"/>
       </defs>
       <use xlink:href="#DejaVuSans-38"/>
       <use xlink:href="#DejaVuSans-30" x="63.623047"/>
      </g>
     </g>
    </g>
    <g id="ytick_7">
     <g id="line2d_17">
      <g>
       <use xlink:href="#mf84696de8b" x="57.6" y="76.602052" style="stroke: #000000; stroke-width: 0.8"/>
      </g>
     </g>
     <g id="text_18">
      <!-- 90 -->
      <g transform="translate(37.875 80.401271) scale(0.1 -0.1)">
       <defs>
        <path id="DejaVuSans-39" d="M 703 97 
L 703 672 
Q 941 559 1184 500 
Q 1428 441 1663 441 
Q 2288 441 2617 861 
Q 2947 1281 2994 2138 
Q 2813 1869 2534 1725 
Q 2256 1581 1919 1581 
Q 1219 1581 811 2004 
Q 403 2428 403 3163 
Q 403 3881 828 4315 
Q 1253 4750 1959 4750 
Q 2769 4750 3195 4129 
Q 3622 3509 3622 2328 
Q 3622 1225 3098 567 
Q 2575 -91 1691 -91 
Q 1453 -91 1209 -44 
Q 966 3 703 97 
z
M 1959 2075 
Q 2384 2075 2632 2365 
Q 2881 2656 2881 3163 
Q 2881 3666 2632 3958 
Q 2384 4250 1959 4250 
Q 1534 4250 1286 3958 
Q 1038 3666 1038 3163 
Q 1038 2656 1286 2365 
Q 1534 2075 1959 2075 
z
" transform="scale(0.015625)"/>
       </defs>
       <use xlink:href="#DejaVuSans-39"/>
       <use xlink:href="#DejaVuSans-30" x="63.623047"/>
      </g>
     </g>
    </g>
    <g id="text_19">
     <!-- Accuracy -->
     <g transform="translate(31.795312 197.356125) rotate(-90) scale(0.1 -0.1)">
      <defs>
       <path id="DejaVuSans-41" d="M 2188 4044 
L 1331 1722 
L 3047 1722 
L 2188 4044 
z
M 1831 4666 
L 2547 4666 
L 4325 0 
L 3669 0 
L 3244 1197 
L 1141 1197 
L 716 0 
L 50 0 
L 1831 4666 
z
" transform="scale(0.015625)"/>
       <path id="DejaVuSans-75" d="M 544 1381 
L 544 3500 
L 1119 3500 
L 1119 1403 
Q 1119 906 1312 657 
Q 1506 409 1894 409 
Q 2359 409 2629 706 
Q 2900 1003 2900 1516 
L 2900 3500 
L 3475 3500 
L 3475 0 
L 2900 0 
L 2900 538 
Q 2691 219 2414 64 
Q 2138 -91 1772 -91 
Q 1169 -91 856 284 
Q 544 659 544 1381 
z
M 1991 3584 
L 1991 3584 
z
" transform="scale(0.015625)"/>
       <path id="DejaVuSans-72" d="M 2631 2963 
Q 2534 3019 2420 3045 
Q 2306 3072 2169 3072 
Q 1681 3072 1420 2755 
Q 1159 2438 1159 1844 
L 1159 0 
L 581 0 
L 581 3500 
L 1159 3500 
L 1159 2956 
Q 1341 3275 1631 3429 
Q 1922 3584 2338 3584 
Q 2397 3584 2469 3576 
Q 2541 3569 2628 3553 
L 2631 2963 
z
" transform="scale(0.015625)"/>
       <path id="DejaVuSans-61" d="M 2194 1759 
Q 1497 1759 1228 1600 
Q 959 1441 959 1056 
Q 959 750 1161 570 
Q 1363 391 1709 391 
Q 2188 391 2477 730 
Q 2766 1069 2766 1631 
L 2766 1759 
L 2194 1759 
z
M 3341 1997 
L 3341 0 
L 2766 0 
L 2766 531 
Q 2569 213 2275 61 
Q 1981 -91 1556 -91 
Q 1019 -91 701 211 
Q 384 513 384 1019 
Q 384 1609 779 1909 
Q 1175 2209 1959 2209 
L 2766 2209 
L 2766 2266 
Q 2766 2663 2505 2880 
Q 2244 3097 1772 3097 
Q 1472 3097 1187 3025 
Q 903 2953 641 2809 
L 641 3341 
Q 956 3463 1253 3523 
Q 1550 3584 1831 3584 
Q 2591 3584 2966 3190 
Q 3341 2797 3341 1997 
z
" transform="scale(0.015625)"/>
       <path id="DejaVuSans-79" d="M 2059 -325 
Q 1816 -950 1584 -1140 
Q 1353 -1331 966 -1331 
L 506 -1331 
L 506 -850 
L 844 -850 
Q 1081 -850 1212 -737 
Q 1344 -625 1503 -206 
L 1606 56 
L 191 3500 
L 800 3500 
L 1894 763 
L 2988 3500 
L 3597 3500 
L 2059 -325 
z
" transform="scale(0.015625)"/>
      </defs>
      <use xlink:href="#DejaVuSans-41"/>
      <use xlink:href="#DejaVuSans-63" x="66.658203"/>
      <use xlink:href="#DejaVuSans-63" x="121.638672"/>
      <use xlink:href="#DejaVuSans-75" x="176.619141"/>
      <use xlink:href="#DejaVuSans-72" x="239.998047"/>
      <use xlink:href="#DejaVuSans-61" x="281.111328"/>
      <use xlink:href="#DejaVuSans-63" x="342.390625"/>
      <use xlink:href="#DejaVuSans-79" x="397.371094"/>
     </g>
    </g>
   </g>
   <g id="line2d_18">
    <path d="M 73.832727 295.488 
L 74.918528 239.14568 
L 76.00433 221.421583 
L 78.175932 197.709 
L 79.261733 190.266099 
L 80.347534 177.00664 
L 81.433335 182.129972 
L 84.690739 168.720994 
L 85.77654 159.461085 
L 86.862341 163.151676 
L 87.948142 157.751348 
L 89.033943 158.777778 
L 90.119745 151.604159 
L 91.205546 153.99463 
L 92.291347 153.409044 
L 93.377148 154.168396 
L 94.462949 145.287979 
L 95.54875 170.288559 
L 97.720353 163.661218 
L 98.806154 161.9614 
L 99.891955 159.527211 
L 100.977756 162.164923 
L 102.063557 157.72453 
L 103.149358 154.406084 
L 104.23516 158.78733 
L 105.320961 155.060001 
L 106.406762 152.201868 
L 107.492563 148.907668 
L 108.578364 151.596811 
L 109.664165 151.288221 
L 110.749967 147.768824 
L 111.835768 150.822764 
L 112.921569 143.622327 
L 114.00737 145.380924 
L 115.093171 148.138765 
L 116.178972 137.541264 
L 117.264773 141.584897 
L 118.350575 143.154666 
L 119.436376 134.401359 
L 120.522177 143.58559 
L 121.607978 143.323656 
L 122.693779 134.847345 
L 123.77958 135.626168 
L 124.865382 130.852572 
L 125.951183 134.972251 
L 127.036984 132.312497 
L 128.122785 132.219185 
L 129.208586 125.307868 
L 130.294387 139.774869 
L 131.380189 131.675479 
L 132.46599 135.420441 
L 133.551791 126.34642 
L 134.637592 128.085179 
L 135.723393 128.873921 
L 136.809194 122.263479 
L 137.894995 126.392709 
L 138.980797 144.54075 
L 140.066598 143.774418 
L 141.152399 146.953264 
L 142.2382 145.628163 
L 143.324001 143.02976 
L 144.409802 144.739129 
L 145.495604 146.681411 
L 146.581405 143.024985 
L 147.667206 145.770335 
L 148.753007 143.835401 
L 149.838808 138.778196 
L 150.924609 141.673066 
L 152.01041 148.809581 
L 153.096212 148.248975 
L 154.182013 139.49824 
L 155.267814 143.426519 
L 156.353615 137.222755 
L 157.439416 147.203075 
L 158.525217 140.612471 
L 159.611019 140.7326 
L 160.69682 134.590186 
L 161.782621 137.901286 
L 162.868422 134.687907 
L 163.954223 137.876672 
L 165.040024 136.799178 
L 166.125825 136.377805 
L 167.211627 134.428544 
L 168.297428 138.800238 
L 169.383229 127.272191 
L 170.46903 132.875674 
L 171.554831 135.116627 
L 172.640632 136.943676 
L 173.726434 138.0017 
L 174.812235 134.763952 
L 175.898036 127.568413 
L 176.983837 129.841204 
L 178.069638 135.746053 
L 179.155439 129.476284 
L 180.24124 129.062381 
L 181.327042 133.211205 
L 182.412843 128.156204 
L 183.498644 131.440485 
L 184.584445 126.458958 
L 186.756047 131.494366 
L 187.841849 124.698035 
L 188.92765 129.618333 
L 190.013451 125.545433 
L 191.099252 125.672788 
L 192.185053 124.85233 
L 193.270854 114.779065 
L 194.356656 130.1351 
L 195.442457 125.662991 
L 196.528258 123.228558 
L 197.614059 126.326705 
L 198.69986 120.83331 
L 199.785661 124.950295 
L 200.871462 124.124939 
L 201.957264 121.107612 
L 203.043065 119.415265 
L 204.128866 119.089531 
L 205.214667 121.702751 
L 206.300468 114.237807 
L 207.386269 125.405833 
L 208.472071 116.439574 
L 209.557872 119.449553 
L 210.643673 117.796391 
L 211.729474 118.509087 
L 212.815275 120.848005 
L 213.901076 111.526622 
L 214.986877 120.600643 
L 216.072679 117.622503 
L 217.15848 120.656973 
L 219.330082 116.006078 
L 220.415883 112.589544 
L 222.587486 121.205578 
L 223.673287 116.522844 
L 224.759088 113.965954 
L 225.844889 137.788626 
L 226.93069 142.542384 
L 228.016491 135.329701 
L 229.102292 138.349476 
L 230.188094 140.553692 
L 231.273895 134.249635 
L 232.359696 137.649025 
L 233.445497 138.361722 
L 234.531298 133.769606 
L 235.617099 137.409011 
L 236.702901 139.706293 
L 237.788702 140.426337 
L 239.960304 131.878879 
L 241.046105 133.338559 
L 242.131906 136.181997 
L 243.217708 131.543348 
L 244.303509 134.391685 
L 245.38931 138.195181 
L 246.475111 134.222695 
L 247.560912 133.176917 
L 248.646713 140.414091 
L 249.732514 136.064439 
L 250.818316 134.661089 
L 251.904117 130.147345 
L 254.075719 137.761685 
L 255.16152 135.043153 
L 256.247321 124.173921 
L 257.333123 139.40505 
L 258.418924 134.744359 
L 259.504725 131.771117 
L 260.590526 132.892818 
L 261.676327 134.210449 
L 262.762128 131.259249 
L 263.847929 129.268108 
L 264.933731 130.539206 
L 266.019532 130.353072 
L 267.105333 128.56031 
L 268.191134 125.261334 
L 269.276935 124.526596 
L 270.362736 126.914496 
L 271.448538 126.08669 
L 272.534339 120.852903 
L 273.62014 125.263783 
L 274.705941 127.614946 
L 275.791742 133.007927 
L 276.877543 127.595353 
L 277.963344 137.044091 
L 279.049146 126.478551 
L 280.134947 127.370034 
L 281.220748 129.224024 
L 282.306549 125.006625 
L 283.39235 128.8689 
L 284.478151 129.892636 
L 285.563953 125.437671 
L 287.735555 129.922025 
L 288.821356 125.707076 
L 289.907157 126.816531 
L 290.992958 124.751915 
L 292.07876 117.725366 
L 293.164561 123.035076 
L 294.250362 125.503798 
L 295.336163 128.795426 
L 296.421964 126.574067 
L 297.507765 121.849698 
L 298.593566 125.765855 
L 299.679368 117.397183 
L 300.765169 125.07765 
L 301.85097 124.497206 
L 302.936771 125.011523 
L 304.022572 121.173739 
L 305.108373 130.284496 
L 306.194175 118.932786 
L 307.279976 123.287337 
L 308.365777 125.422977 
L 309.451578 121.303543 
L 310.537379 121.117409 
L 311.62318 119.510781 
L 312.708981 125.124183 
L 313.794783 121.122307 
L 314.880584 125.4989 
L 315.966385 122.699546 
L 317.052186 125.293173 
L 318.137987 117.044509 
L 320.30959 123.762468 
L 322.481192 119.265868 
L 323.566993 121.830105 
L 324.652794 118.367038 
L 325.738595 122.067671 
L 326.824396 125.092344 
L 327.910198 116.370998 
L 328.995999 120.816166 
L 330.0818 112.643425 
L 331.167601 118.234785 
L 332.253402 116.593869 
L 333.339203 120.010403 
L 334.425005 118.411122 
L 335.510806 116.270584 
L 336.596607 116.971035 
L 337.682408 112.12421 
L 338.768209 120.323891 
L 339.85401 123.500411 
L 340.939811 116.099145 
L 342.025613 112.871194 
L 343.111414 108.41378 
L 344.197215 118.741754 
L 345.283016 117.646994 
L 346.368817 113.662262 
L 347.454618 116.184864 
L 348.54042 113.481027 
L 349.626221 119.581806 
L 350.712022 115.560337 
L 351.797823 112.800169 
L 352.883624 108.928097 
L 353.969425 114.25985 
L 355.055227 108.788497 
L 356.141028 114.100656 
L 357.226829 110.047349 
L 358.31263 116.708978 
L 359.398431 103.726149 
L 360.484232 114.046775 
L 361.570033 115.783207 
L 362.655835 108.494601 
L 363.741636 113.66961 
L 364.827437 117.211049 
L 365.913238 114.392103 
L 366.999039 112.26381 
L 368.08484 107.054514 
L 369.170642 116.980831 
L 370.256443 107.581077 
L 371.342244 112.697306 
L 372.428045 110.417167 
L 373.513846 121.061079 
L 374.599647 109.924892 
L 375.685448 111.84256 
L 376.77125 114.242706 
L 377.857051 118.457656 
L 378.942852 112.520968 
L 380.028653 110.60575 
L 381.114454 107.894565 
L 382.200255 117.108186 
L 383.286057 118.406224 
L 384.371858 119.4569 
L 385.457659 111.710307 
L 386.54346 113.461434 
L 387.629261 122.479124 
L 388.715062 107.634957 
L 389.800863 116.503251 
L 390.886665 110.542073 
L 391.972466 105.60463 
L 393.058267 113.833701 
L 394.144068 105.599732 
L 395.229869 117.561275 
L 396.31567 112.307894 
L 397.401472 109.515888 
L 398.487273 108.72482 
L 398.487273 108.72482 
" clip-path="url(#p60f9d1aedc)" style="fill: none; stroke: #1f77b4; stroke-width: 1.5; stroke-linecap: square"/>
   </g>
   <g id="line2d_19">
    <path d="M 73.832727 235.41578 
L 74.918528 183.8004 
L 76.00433 146.291999 
L 77.090131 134.462709 
L 78.175932 133.029969 
L 79.261733 116.167721 
L 80.347534 118.298462 
L 81.433335 109.444863 
L 82.519137 105.477275 
L 83.604938 99.268735 
L 84.690739 102.79548 
L 85.77654 89.53345 
L 86.862341 91.774402 
L 87.948142 86.925128 
L 89.033943 83.692279 
L 90.119745 85.198493 
L 92.291347 80.055323 
L 93.377148 79.651217 
L 94.462949 79.430795 
L 95.54875 96.586939 
L 96.634552 96.366518 
L 97.720353 101.84032 
L 98.806154 90.745768 
L 99.891955 88.504816 
L 100.977756 88.027236 
L 102.063557 82.884066 
L 103.149358 88.798711 
L 104.23516 80.202271 
L 105.320961 83.398383 
L 106.406762 81.377852 
L 107.492563 77.814371 
L 108.578364 81.488063 
L 109.664165 83.508594 
L 110.749967 74.94889 
L 111.835768 82.994277 
L 112.921569 73.736572 
L 114.00737 75.610155 
L 115.093171 76.381631 
L 116.178972 73.148781 
L 117.264773 73.663098 
L 118.350575 70.099616 
L 119.436376 72.193621 
L 121.607978 69.364878 
L 122.693779 68.777087 
L 125.951183 69.548562 
L 127.036984 68.74035 
L 128.122785 68.079085 
L 129.208586 64.001287 
L 130.294387 65.470764 
L 131.380189 64.846236 
L 132.46599 65.140131 
L 133.551791 63.744128 
L 134.637592 64.221708 
L 135.723393 64.221708 
L 136.809194 62.568547 
L 137.894995 63.046127 
L 138.980797 82.112591 
L 140.066598 72.92836 
L 141.152399 79.357322 
L 142.2382 73.442677 
L 143.324001 73.552887 
L 144.409802 80.202271 
L 145.495604 73.148781 
L 146.581405 84.133122 
L 147.667206 76.969421 
L 148.753007 72.744675 
L 149.838808 74.434574 
L 150.924609 73.112044 
L 152.01041 72.340569 
L 153.096212 74.581521 
L 154.182013 74.030467 
L 155.267814 73.626361 
L 156.353615 71.826252 
L 157.439416 68.924035 
L 158.525217 75.683629 
L 160.69682 71.164987 
L 161.782621 75.683629 
L 162.868422 66.83003 
L 163.954223 69.989406 
L 165.040024 69.915932 
L 166.125825 68.887298 
L 167.211627 68.850561 
L 168.297428 73.001833 
L 169.383229 66.242239 
L 170.46903 66.83003 
L 171.554831 70.320038 
L 172.640632 67.30761 
L 173.726434 65.580975 
L 174.812235 68.887298 
L 175.898036 67.968875 
L 176.983837 65.948344 
L 178.069638 64.589078 
L 179.155439 62.752231 
L 180.24124 66.058555 
L 181.327042 63.376759 
L 182.412843 62.421599 
L 183.498644 62.715494 
L 184.584445 64.625814 
L 185.670246 62.201177 
L 186.756047 63.00939 
L 187.841849 62.899179 
L 188.92765 63.082864 
L 190.013451 61.539913 
L 191.099252 62.862442 
L 192.185053 60.915385 
L 193.270854 59.886751 
L 194.356656 60.7317 
L 195.442457 59.960225 
L 196.528258 60.437805 
L 197.614059 61.282754 
L 198.69986 59.519382 
L 199.785661 60.070436 
L 200.871462 60.14391 
L 201.957264 59.960225 
L 203.043065 57.204956 
L 204.128866 59.041802 
L 205.214667 59.225486 
L 206.300468 57.572325 
L 207.386269 58.674433 
L 208.472071 57.86622 
L 209.557872 58.527485 
L 210.643673 57.094745 
L 211.729474 58.380537 
L 212.815275 56.984534 
L 213.901076 57.315166 
L 214.986877 56.91106 
L 216.072679 57.094745 
L 217.15848 56.764112 
L 218.244281 56.91106 
L 219.330082 56.91106 
L 220.415883 56.176322 
L 221.501684 56.102848 
L 222.587486 57.425377 
L 223.673287 56.764112 
L 224.759088 57.131482 
L 225.844889 68.372981 
L 226.93069 67.78519 
L 228.016491 73.773309 
L 229.102292 68.079085 
L 230.188094 71.238461 
L 232.359696 69.511826 
L 233.445497 67.528032 
L 234.531298 67.601505 
L 235.617099 64.956447 
L 236.702901 70.540459 
L 237.788702 68.042349 
L 238.874503 66.536135 
L 239.960304 67.821927 
L 241.046105 65.911607 
L 242.131906 66.132028 
L 243.217708 66.609608 
L 244.303509 66.425924 
L 245.38931 67.564769 
L 246.475111 66.242239 
L 247.560912 67.711716 
L 248.646713 66.021818 
L 249.732514 66.021818 
L 250.818316 67.821927 
L 251.904117 66.132028 
L 252.989918 65.250342 
L 254.075719 65.580975 
L 255.16152 64.956447 
L 257.333123 66.462661 
L 258.418924 67.638242 
L 259.504725 63.450233 
L 260.590526 66.462661 
L 261.676327 65.103395 
L 262.762128 66.168765 
L 263.847929 65.39729 
L 266.019532 66.35245 
L 267.105333 62.53181 
L 269.276935 65.801396 
L 270.362736 66.278976 
L 271.448538 64.295182 
L 272.534339 63.303285 
L 273.62014 61.172544 
L 274.705941 63.927813 
L 275.791742 60.768437 
L 276.877543 62.605284 
L 277.963344 61.723597 
L 279.049146 63.119601 
L 280.134947 65.507501 
L 281.220748 62.348125 
L 282.306549 63.633918 
L 283.39235 60.290857 
L 284.478151 65.213605 
L 285.563953 63.119601 
L 286.649754 67.454558 
L 287.735555 60.62149 
L 288.821356 62.678757 
L 289.907157 61.870545 
L 290.992958 59.960225 
L 292.07876 62.201177 
L 293.164561 60.437805 
L 294.250362 61.760334 
L 295.336163 62.862442 
L 296.421964 61.68686 
L 297.507765 60.107173 
L 299.679368 62.421599 
L 300.765169 63.046127 
L 301.85097 62.164441 
L 302.936771 61.429702 
L 304.022572 61.135807 
L 305.108373 61.135807 
L 306.194175 63.707391 
L 307.279976 62.348125 
L 308.365777 58.3438 
L 309.451578 61.907282 
L 310.537379 60.694963 
L 311.62318 62.127704 
L 312.708981 59.372434 
L 313.794783 59.66633 
L 314.880584 59.482645 
L 315.966385 61.392965 
L 317.052186 60.511279 
L 318.137987 59.152013 
L 319.223788 59.445908 
L 321.395391 61.944019 
L 322.481192 58.013168 
L 323.566993 58.71117 
L 324.652794 56.984534 
L 325.738595 58.123379 
L 326.824396 60.327594 
L 327.910198 58.454011 
L 328.995999 58.270326 
L 330.0818 60.401068 
L 331.167601 57.792746 
L 332.253402 57.976431 
L 333.339203 58.307063 
L 334.425005 59.850014 
L 335.510806 56.837586 
L 337.682408 58.784643 
L 338.768209 57.902957 
L 339.85401 57.38864 
L 340.939811 56.727376 
L 342.025613 55.47832 
L 343.111414 56.874323 
L 344.197215 57.609062 
L 345.283016 56.470217 
L 346.368817 57.094745 
L 347.454618 57.902957 
L 348.54042 56.176322 
L 349.626221 56.764112 
L 350.712022 57.535588 
L 351.797823 56.543691 
L 352.883624 56.139585 
L 353.969425 56.213059 
L 355.055227 57.131482 
L 356.141028 55.404846 
L 357.226829 55.845689 
L 358.31263 54.964003 
L 359.398431 55.441583 
L 360.484232 56.139585 
L 361.570033 54.706845 
L 362.655835 54.559897 
L 363.741636 54.853792 
L 364.827437 56.176322 
L 365.913238 54.376212 
L 366.999039 54.706845 
L 368.08484 54.817055 
L 369.170642 56.653902 
L 370.256443 55.47832 
L 371.342244 55.772216 
L 372.428045 56.690639 
L 373.513846 56.323269 
L 374.599647 59.77654 
L 375.685448 54.853792 
L 376.77125 57.241693 
L 377.857051 57.792746 
L 378.942852 57.058008 
L 380.028653 55.588531 
L 381.114454 56.470217 
L 382.200255 55.808952 
L 383.286057 55.9559 
L 384.371858 55.9559 
L 385.457659 56.874323 
L 386.54346 54.927266 
L 387.629261 56.653902 
L 388.715062 55.368109 
L 389.800863 56.653902 
L 390.886665 56.066111 
L 391.972466 56.984534 
L 393.058267 56.800849 
L 394.144068 55.882426 
L 395.229869 55.147688 
L 396.31567 54.670108 
L 397.401472 55.368109 
L 398.487273 57.425377 
L 398.487273 57.425377 
" clip-path="url(#p60f9d1aedc)" style="fill: none; stroke: #ff7f0e; stroke-width: 1.5; stroke-linecap: square"/>
   </g>
   <g id="line2d_20">
    <path d="M 73.832727 263.022844 
L 74.918528 207.993502 
L 76.00433 190.334429 
L 77.090131 182.860302 
L 78.175932 178.426523 
L 79.261733 159.297973 
L 80.347534 163.250499 
L 82.519137 148.53038 
L 83.604938 147.567505 
L 84.690739 143.691392 
L 85.77654 132.315436 
L 86.862341 134.646394 
L 87.948142 130.364705 
L 89.033943 128.54035 
L 90.119745 128.413607 
L 91.205546 124.689585 
L 92.291347 124.182616 
L 93.377148 121.015893 
L 94.462949 120.610317 
L 95.54875 148.15052 
L 96.634552 139.029477 
L 97.720353 148.175869 
L 98.806154 136.217265 
L 99.891955 136.369356 
L 100.977756 128.743137 
L 102.063557 125.474653 
L 103.149358 135.685314 
L 104.23516 126.488225 
L 105.320961 125.424324 
L 106.406762 120.027669 
L 107.492563 121.547843 
L 108.578364 124.841309 
L 109.664165 129.452527 
L 110.749967 117.088715 
L 111.835768 127.476448 
L 112.921569 116.379325 
L 114.00737 120.255806 
L 115.093171 117.772757 
L 116.178972 113.13619 
L 117.264773 114.225807 
L 118.350575 111.514622 
L 119.436376 115.213663 
L 120.522177 109.361103 
L 121.607978 109.538542 
L 122.693779 108.575668 
L 123.77958 107.942323 
L 124.865382 109.260077 
L 125.951183 107.739903 
L 127.036984 104.243282 
L 128.122785 104.826297 
L 129.208586 99.860199 
L 130.294387 102.951244 
L 131.380189 101.228283 
L 132.46599 100.544241 
L 133.551791 99.607082 
L 134.637592 100.620286 
L 135.723393 99.277552 
L 136.809194 98.390722 
L 137.894995 99.454991 
L 138.980797 127.603191 
L 140.066598 112.097637 
L 141.152399 119.926275 
L 142.2382 119.368976 
L 143.324001 111.996243 
L 144.409802 119.926275 
L 145.495604 118.228662 
L 146.581405 127.476448 
L 147.667206 122.460021 
L 148.753007 120.002321 
L 149.838808 116.506068 
L 150.924609 113.946973 
L 152.01041 110.045145 
L 153.096212 117.190109 
L 154.182013 114.251155 
L 155.267814 119.064795 
L 156.353615 115.26436 
L 157.439416 109.260077 
L 158.525217 120.914499 
L 159.611019 113.668508 
L 160.69682 115.188314 
L 161.782621 118.026242 
L 162.868422 107.714554 
L 163.954223 107.334327 
L 165.040024 114.149761 
L 166.125825 109.639936 
L 167.211627 107.765251 
L 168.297428 117.72206 
L 169.383229 105.535687 
L 170.46903 106.574316 
L 171.554831 115.416514 
L 172.640632 104.116742 
L 173.726434 105.332861 
L 174.812235 109.589277 
L 176.983837 105.484876 
L 179.155439 100.392378 
L 180.24124 102.469915 
L 181.327042 100.367042 
L 182.412843 98.796222 
L 183.498644 98.998909 
L 184.584445 106.194279 
L 185.670246 101.101781 
L 187.841849 99.074916 
L 188.92765 100.493721 
L 190.013451 100.44305 
L 191.099252 102.773944 
L 192.185053 101.355139 
L 193.270854 96.668014 
L 194.356656 95.071858 
L 195.442457 95.021186 
L 196.528258 102.01387 
L 197.614059 97.022715 
L 198.69986 95.679917 
L 199.785661 98.289506 
L 200.871462 93.070329 
L 201.957264 95.021186 
L 203.043065 92.867642 
L 204.128866 94.109097 
L 205.214667 93.044993 
L 206.300468 91.803538 
L 207.386269 93.627717 
L 208.472071 91.600852 
L 211.729474 91.271486 
L 212.815275 90.080703 
L 213.901076 90.080703 
L 214.986877 90.536748 
L 216.072679 91.119472 
L 217.15848 90.967457 
L 218.244281 91.524845 
L 219.330082 88.965928 
L 220.415883 89.49798 
L 221.501684 88.231189 
L 222.587486 89.726002 
L 223.673287 89.472644 
L 224.759088 91.600852 
L 225.844889 109.8173 
L 226.93069 103.787377 
L 228.016491 107.714427 
L 229.102292 112.300209 
L 230.188094 111.286777 
L 231.273895 112.17353 
L 232.359696 109.538606 
L 233.445497 110.425359 
L 234.531298 109.183904 
L 235.617099 110.374688 
L 236.702901 104.19275 
L 237.788702 109.842635 
L 238.874503 104.420772 
L 239.960304 108.955882 
L 241.046105 106.574316 
L 242.131906 104.775473 
L 243.217708 108.474502 
L 244.303509 108.499838 
L 245.38931 107.63842 
L 246.475111 107.714427 
L 247.560912 108.221144 
L 248.646713 108.170472 
L 249.732514 103.229989 
L 250.818316 103.458011 
L 251.904117 108.246479 
L 252.989918 107.207711 
L 254.075719 108.398494 
L 255.16152 105.332861 
L 256.247321 103.001967 
L 257.333123 107.790435 
L 258.418924 108.398494 
L 259.504725 101.355139 
L 260.590526 107.739763 
L 261.676327 101.988534 
L 262.762128 105.560884 
L 263.847929 109.99465 
L 264.933731 103.914056 
L 266.019532 107.917114 
L 267.105333 104.826145 
L 268.191134 100.012341 
L 269.276935 103.229989 
L 270.362736 104.699466 
L 271.448538 104.724802 
L 272.534339 103.027302 
L 273.62014 99.35361 
L 274.705941 105.054167 
L 275.791742 95.629246 
L 276.877543 98.26417 
L 277.963344 100.367042 
L 279.049146 103.458011 
L 280.134947 108.575845 
L 281.220748 100.493721 
L 282.306549 98.720215 
L 283.39235 96.009283 
L 284.478151 103.508683 
L 285.563953 101.760512 
L 286.649754 109.107897 
L 287.735555 96.592007 
L 288.821356 101.025773 
L 289.907157 96.313313 
L 290.992958 96.592007 
L 292.07876 101.760512 
L 293.164561 92.512941 
L 294.250362 98.238834 
L 295.336163 102.773944 
L 296.421964 101.304467 
L 297.507765 101.937863 
L 298.593566 95.730589 
L 299.679368 99.784319 
L 300.765169 106.624988 
L 301.85097 98.618871 
L 302.936771 96.99738 
L 304.022572 98.948237 
L 305.108373 94.235776 
L 306.194175 99.404282 
L 307.279976 99.987005 
L 308.365777 92.310255 
L 309.451578 100.088348 
L 310.537379 99.302938 
L 311.62318 94.970515 
L 312.708981 94.793164 
L 313.794783 97.681446 
L 314.880584 94.413127 
L 315.966385 96.186634 
L 317.052186 100.595065 
L 318.137987 95.097194 
L 319.223788 94.742492 
L 320.30959 95.071858 
L 321.395391 97.377417 
L 322.481192 92.082232 
L 323.566993 94.615813 
L 324.652794 88.763241 
L 326.824396 93.72906 
L 327.910198 97.200066 
L 328.995999 95.021186 
L 330.0818 93.653053 
L 331.167601 96.161298 
L 332.253402 92.892978 
L 333.339203 94.337119 
L 334.425005 96.034619 
L 335.510806 89.624659 
L 336.596607 90.232718 
L 337.682408 97.352081 
L 338.768209 94.185105 
L 339.85401 89.447308 
L 340.939811 91.55018 
L 342.025613 87.952495 
L 343.111414 89.852681 
L 344.197215 89.802009 
L 345.283016 90.106039 
L 346.368817 90.891449 
L 347.454618 92.842307 
L 348.54042 88.028503 
L 349.626221 90.612755 
L 350.712022 88.58589 
L 351.797823 88.560555 
L 352.883624 91.271486 
L 353.969425 89.143278 
L 355.055227 89.371301 
L 356.141028 87.420443 
L 357.226829 88.915256 
L 358.31263 86.685705 
L 359.398431 89.143278 
L 360.484232 85.44425 
L 361.570033 87.80048 
L 362.655835 88.383204 
L 363.741636 86.508354 
L 364.827437 89.345965 
L 365.913238 87.496451 
L 366.999039 86.178988 
L 368.08484 87.547122 
L 369.170642 90.536748 
L 370.256443 88.788577 
L 371.342244 88.459211 
L 372.428045 91.702195 
L 373.513846 88.839249 
L 374.599647 94.666485 
L 375.685448 87.471115 
L 376.77125 92.538277 
L 377.857051 90.030032 
L 378.942852 90.992792 
L 380.028653 91.423501 
L 381.114454 90.384733 
L 382.200255 89.041935 
L 383.286057 91.651524 
L 384.371858 89.345965 
L 385.457659 90.384733 
L 386.54346 89.143278 
L 387.629261 88.484547 
L 388.715062 88.332532 
L 389.800863 89.067271 
L 390.886665 88.991263 
L 391.972466 88.028503 
L 393.058267 88.636562 
L 394.144068 86.128317 
L 395.229869 86.457682 
L 396.31567 88.003167 
L 397.401472 89.269957 
L 398.487273 91.651524 
L 398.487273 91.651524 
" clip-path="url(#p60f9d1aedc)" style="fill: none; stroke: #2ca02c; stroke-width: 1.5; stroke-linecap: square"/>
   </g>
   <g id="line2d_21">
    <path d="M 368.08484 54.04558 
L 369.170642 55.441583 
L 370.256443 54.927266 
L 371.342244 54.964003 
L 372.428045 55.47832 
L 373.513846 54.706845 
L 374.599647 55.9559 
L 375.685448 53.568 
L 376.77125 55.074214 
L 377.857051 53.714948 
L 378.942852 54.670108 
L 380.028653 55.037477 
L 381.114454 54.486423 
L 382.200255 54.559897 
L 383.286057 54.817055 
L 385.457659 54.412949 
L 386.54346 53.788422 
L 387.629261 55.919163 
L 388.715062 53.861895 
L 389.800863 54.52316 
L 391.972466 53.825158 
L 393.058267 55.184425 
L 394.144068 54.192528 
L 397.401472 55.294635 
L 398.487273 55.47832 
L 398.487273 55.47832 
" clip-path="url(#p60f9d1aedc)" style="fill: none; stroke: #d62728; stroke-width: 1.5; stroke-linecap: square"/>
   </g>
   <g id="line2d_22">
    <path d="M 368.08484 84.810855 
L 369.170642 87.065742 
L 370.256443 87.876488 
L 371.342244 87.268428 
L 372.428045 87.065742 
L 373.513846 85.722944 
L 374.599647 87.62313 
L 375.685448 85.266899 
L 376.77125 85.697608 
L 377.857051 84.228131 
L 378.942852 86.609697 
L 380.028653 87.496451 
L 381.114454 86.736376 
L 382.200255 88.003167 
L 383.286057 86.204324 
L 384.371858 85.190892 
L 385.457659 85.900295 
L 386.54346 85.038877 
L 387.629261 86.508354 
L 388.715062 85.874959 
L 389.800863 86.483018 
L 390.886665 85.494922 
L 391.972466 85.722944 
L 393.058267 88.71257 
L 394.144068 85.596265 
L 395.229869 86.989734 
L 396.31567 87.977831 
L 397.401472 87.268428 
L 398.487273 87.547122 
L 398.487273 87.547122 
" clip-path="url(#p60f9d1aedc)" style="fill: none; stroke: #9467bd; stroke-width: 1.5; stroke-linecap: square"/>
   </g>
   <g id="patch_3">
    <path d="M 57.6 307.584 
L 57.6 41.472 
" style="fill: none; stroke: #000000; stroke-width: 0.8; stroke-linejoin: miter; stroke-linecap: square"/>
   </g>
   <g id="patch_4">
    <path d="M 414.72 307.584 
L 414.72 41.472 
" style="fill: none; stroke: #000000; stroke-width: 0.8; stroke-linejoin: miter; stroke-linecap: square"/>
   </g>
   <g id="patch_5">
    <path d="M 57.6 307.584 
L 414.72 307.584 
" style="fill: none; stroke: #000000; stroke-width: 0.8; stroke-linejoin: miter; stroke-linecap: square"/>
   </g>
   <g id="patch_6">
    <path d="M 57.6 41.472 
L 414.72 41.472 
" style="fill: none; stroke: #000000; stroke-width: 0.8; stroke-linejoin: miter; stroke-linecap: square"/>
   </g>
   <g id="text_20">
    <!-- Learning Curves -->
    <g transform="translate(187.37625 35.472) scale(0.12 -0.12)">
     <defs>
      <path id="DejaVuSans-4c" d="M 628 4666 
L 1259 4666 
L 1259 531 
L 3531 531 
L 3531 0 
L 628 0 
L 628 4666 
z
" transform="scale(0.015625)"/>
      <path id="DejaVuSans-65" d="M 3597 1894 
L 3597 1613 
L 953 1613 
Q 991 1019 1311 708 
Q 1631 397 2203 397 
Q 2534 397 2845 478 
Q 3156 559 3463 722 
L 3463 178 
Q 3153 47 2828 -22 
Q 2503 -91 2169 -91 
Q 1331 -91 842 396 
Q 353 884 353 1716 
Q 353 2575 817 3079 
Q 1281 3584 2069 3584 
Q 2775 3584 3186 3129 
Q 3597 2675 3597 1894 
z
M 3022 2063 
Q 3016 2534 2758 2815 
Q 2500 3097 2075 3097 
Q 1594 3097 1305 2825 
Q 1016 2553 972 2059 
L 3022 2063 
z
" transform="scale(0.015625)"/>
      <path id="DejaVuSans-6e" d="M 3513 2113 
L 3513 0 
L 2938 0 
L 2938 2094 
Q 2938 2591 2744 2837 
Q 2550 3084 2163 3084 
Q 1697 3084 1428 2787 
Q 1159 2491 1159 1978 
L 1159 0 
L 581 0 
L 581 3500 
L 1159 3500 
L 1159 2956 
Q 1366 3272 1645 3428 
Q 1925 3584 2291 3584 
Q 2894 3584 3203 3211 
Q 3513 2838 3513 2113 
z
" transform="scale(0.015625)"/>
      <path id="DejaVuSans-69" d="M 603 3500 
L 1178 3500 
L 1178 0 
L 603 0 
L 603 3500 
z
M 603 4863 
L 1178 4863 
L 1178 4134 
L 603 4134 
L 603 4863 
z
" transform="scale(0.015625)"/>
      <path id="DejaVuSans-67" d="M 2906 1791 
Q 2906 2416 2648 2759 
Q 2391 3103 1925 3103 
Q 1463 3103 1205 2759 
Q 947 2416 947 1791 
Q 947 1169 1205 825 
Q 1463 481 1925 481 
Q 2391 481 2648 825 
Q 2906 1169 2906 1791 
z
M 3481 434 
Q 3481 -459 3084 -895 
Q 2688 -1331 1869 -1331 
Q 1566 -1331 1297 -1286 
Q 1028 -1241 775 -1147 
L 775 -588 
Q 1028 -725 1275 -790 
Q 1522 -856 1778 -856 
Q 2344 -856 2625 -561 
Q 2906 -266 2906 331 
L 2906 616 
Q 2728 306 2450 153 
Q 2172 0 1784 0 
Q 1141 0 747 490 
Q 353 981 353 1791 
Q 353 2603 747 3093 
Q 1141 3584 1784 3584 
Q 2172 3584 2450 3431 
Q 2728 3278 2906 2969 
L 2906 3500 
L 3481 3500 
L 3481 434 
z
" transform="scale(0.015625)"/>
      <path id="DejaVuSans-20" transform="scale(0.015625)"/>
      <path id="DejaVuSans-43" d="M 4122 4306 
L 4122 3641 
Q 3803 3938 3442 4084 
Q 3081 4231 2675 4231 
Q 1875 4231 1450 3742 
Q 1025 3253 1025 2328 
Q 1025 1406 1450 917 
Q 1875 428 2675 428 
Q 3081 428 3442 575 
Q 3803 722 4122 1019 
L 4122 359 
Q 3791 134 3420 21 
Q 3050 -91 2638 -91 
Q 1578 -91 968 557 
Q 359 1206 359 2328 
Q 359 3453 968 4101 
Q 1578 4750 2638 4750 
Q 3056 4750 3426 4639 
Q 3797 4528 4122 4306 
z
" transform="scale(0.015625)"/>
      <path id="DejaVuSans-76" d="M 191 3500 
L 800 3500 
L 1894 563 
L 2988 3500 
L 3597 3500 
L 2284 0 
L 1503 0 
L 191 3500 
z
" transform="scale(0.015625)"/>
     </defs>
     <use xlink:href="#DejaVuSans-4c"/>
     <use xlink:href="#DejaVuSans-65" x="53.962891"/>
     <use xlink:href="#DejaVuSans-61" x="115.486328"/>
     <use xlink:href="#DejaVuSans-72" x="176.765625"/>
     <use xlink:href="#DejaVuSans-6e" x="216.128906"/>
     <use xlink:href="#DejaVuSans-69" x="279.507812"/>
     <use xlink:href="#DejaVuSans-6e" x="307.291016"/>
     <use xlink:href="#DejaVuSans-67" x="370.669922"/>
     <use xlink:href="#DejaVuSans-20" x="434.146484"/>
     <use xlink:href="#DejaVuSans-43" x="465.933594"/>
     <use xlink:href="#DejaVuSans-75" x="535.757812"/>
     <use xlink:href="#DejaVuSans-72" x="599.136719"/>
     <use xlink:href="#DejaVuSans-76" x="640.25"/>
     <use xlink:href="#DejaVuSans-65" x="699.429688"/>
     <use xlink:href="#DejaVuSans-73" x="760.953125"/>
    </g>
   </g>
   <g id="legend_1">
    <g id="patch_7">
     <path d="M 214.18875 302.584 
L 407.72 302.584 
Q 409.72 302.584 409.72 300.584 
L 409.72 228.193375 
Q 409.72 226.193375 407.72 226.193375 
L 214.18875 226.193375 
Q 212.18875 226.193375 212.18875 228.193375 
L 212.18875 300.584 
Q 212.18875 302.584 214.18875 302.584 
z
" style="fill: #ffffff; opacity: 0.8; stroke: #cccccc; stroke-linejoin: miter"/>
    </g>
    <g id="line2d_23">
     <path d="M 216.18875 234.291812 
L 226.18875 234.291812 
L 236.18875 234.291812 
" style="fill: none; stroke: #1f77b4; stroke-width: 1.5; stroke-linecap: square"/>
    </g>
    <g id="text_21">
     <!-- Train Accuracy -->
     <g transform="translate(244.18875 237.791812) scale(0.1 -0.1)">
      <defs>
       <path id="DejaVuSans-54" d="M -19 4666 
L 3928 4666 
L 3928 4134 
L 2272 4134 
L 2272 0 
L 1638 0 
L 1638 4134 
L -19 4134 
L -19 4666 
z
" transform="scale(0.015625)"/>
      </defs>
      <use xlink:href="#DejaVuSans-54"/>
      <use xlink:href="#DejaVuSans-72" x="46.333984"/>
      <use xlink:href="#DejaVuSans-61" x="87.447266"/>
      <use xlink:href="#DejaVuSans-69" x="148.726562"/>
      <use xlink:href="#DejaVuSans-6e" x="176.509766"/>
      <use xlink:href="#DejaVuSans-20" x="239.888672"/>
      <use xlink:href="#DejaVuSans-41" x="271.675781"/>
      <use xlink:href="#DejaVuSans-63" x="338.333984"/>
      <use xlink:href="#DejaVuSans-63" x="393.314453"/>
      <use xlink:href="#DejaVuSans-75" x="448.294922"/>
      <use xlink:href="#DejaVuSans-72" x="511.673828"/>
      <use xlink:href="#DejaVuSans-61" x="552.787109"/>
      <use xlink:href="#DejaVuSans-63" x="614.066406"/>
      <use xlink:href="#DejaVuSans-79" x="669.046875"/>
     </g>
    </g>
    <g id="line2d_24">
     <path d="M 216.18875 248.969937 
L 226.18875 248.969937 
L 236.18875 248.969937 
" style="fill: none; stroke: #ff7f0e; stroke-width: 1.5; stroke-linecap: square"/>
    </g>
    <g id="text_22">
     <!-- Validation Accuracy -->
     <g transform="translate(244.18875 252.469937) scale(0.1 -0.1)">
      <defs>
       <path id="DejaVuSans-56" d="M 1831 0 
L 50 4666 
L 709 4666 
L 2188 738 
L 3669 4666 
L 4325 4666 
L 2547 0 
L 1831 0 
z
" transform="scale(0.015625)"/>
       <path id="DejaVuSans-6c" d="M 603 4863 
L 1178 4863 
L 1178 0 
L 603 0 
L 603 4863 
z
" transform="scale(0.015625)"/>
       <path id="DejaVuSans-64" d="M 2906 2969 
L 2906 4863 
L 3481 4863 
L 3481 0 
L 2906 0 
L 2906 525 
Q 2725 213 2448 61 
Q 2172 -91 1784 -91 
Q 1150 -91 751 415 
Q 353 922 353 1747 
Q 353 2572 751 3078 
Q 1150 3584 1784 3584 
Q 2172 3584 2448 3432 
Q 2725 3281 2906 2969 
z
M 947 1747 
Q 947 1113 1208 752 
Q 1469 391 1925 391 
Q 2381 391 2643 752 
Q 2906 1113 2906 1747 
Q 2906 2381 2643 2742 
Q 2381 3103 1925 3103 
Q 1469 3103 1208 2742 
Q 947 2381 947 1747 
z
" transform="scale(0.015625)"/>
       <path id="DejaVuSans-74" d="M 1172 4494 
L 1172 3500 
L 2356 3500 
L 2356 3053 
L 1172 3053 
L 1172 1153 
Q 1172 725 1289 603 
Q 1406 481 1766 481 
L 2356 481 
L 2356 0 
L 1766 0 
Q 1100 0 847 248 
Q 594 497 594 1153 
L 594 3053 
L 172 3053 
L 172 3500 
L 594 3500 
L 594 4494 
L 1172 4494 
z
" transform="scale(0.015625)"/>
      </defs>
      <use xlink:href="#DejaVuSans-56"/>
      <use xlink:href="#DejaVuSans-61" x="60.658203"/>
      <use xlink:href="#DejaVuSans-6c" x="121.9375"/>
      <use xlink:href="#DejaVuSans-69" x="149.720703"/>
      <use xlink:href="#DejaVuSans-64" x="177.503906"/>
      <use xlink:href="#DejaVuSans-61" x="240.980469"/>
      <use xlink:href="#DejaVuSans-74" x="302.259766"/>
      <use xlink:href="#DejaVuSans-69" x="341.46875"/>
      <use xlink:href="#DejaVuSans-6f" x="369.251953"/>
      <use xlink:href="#DejaVuSans-6e" x="430.433594"/>
      <use xlink:href="#DejaVuSans-20" x="493.8125"/>
      <use xlink:href="#DejaVuSans-41" x="525.599609"/>
      <use xlink:href="#DejaVuSans-63" x="592.257812"/>
      <use xlink:href="#DejaVuSans-63" x="647.238281"/>
      <use xlink:href="#DejaVuSans-75" x="702.21875"/>
      <use xlink:href="#DejaVuSans-72" x="765.597656"/>
      <use xlink:href="#DejaVuSans-61" x="806.710938"/>
      <use xlink:href="#DejaVuSans-63" x="867.990234"/>
      <use xlink:href="#DejaVuSans-79" x="922.970703"/>
     </g>
    </g>
    <g id="line2d_25">
     <path d="M 216.18875 263.648062 
L 226.18875 263.648062 
L 236.18875 263.648062 
" style="fill: none; stroke: #2ca02c; stroke-width: 1.5; stroke-linecap: square"/>
    </g>
    <g id="text_23">
     <!-- Robust Validation Accuracy -->
     <g transform="translate(244.18875 267.148062) scale(0.1 -0.1)">
      <defs>
       <path id="DejaVuSans-52" d="M 2841 2188 
Q 3044 2119 3236 1894 
Q 3428 1669 3622 1275 
L 4263 0 
L 3584 0 
L 2988 1197 
Q 2756 1666 2539 1819 
Q 2322 1972 1947 1972 
L 1259 1972 
L 1259 0 
L 628 0 
L 628 4666 
L 2053 4666 
Q 2853 4666 3247 4331 
Q 3641 3997 3641 3322 
Q 3641 2881 3436 2590 
Q 3231 2300 2841 2188 
z
M 1259 4147 
L 1259 2491 
L 2053 2491 
Q 2509 2491 2742 2702 
Q 2975 2913 2975 3322 
Q 2975 3731 2742 3939 
Q 2509 4147 2053 4147 
L 1259 4147 
z
" transform="scale(0.015625)"/>
       <path id="DejaVuSans-62" d="M 3116 1747 
Q 3116 2381 2855 2742 
Q 2594 3103 2138 3103 
Q 1681 3103 1420 2742 
Q 1159 2381 1159 1747 
Q 1159 1113 1420 752 
Q 1681 391 2138 391 
Q 2594 391 2855 752 
Q 3116 1113 3116 1747 
z
M 1159 2969 
Q 1341 3281 1617 3432 
Q 1894 3584 2278 3584 
Q 2916 3584 3314 3078 
Q 3713 2572 3713 1747 
Q 3713 922 3314 415 
Q 2916 -91 2278 -91 
Q 1894 -91 1617 61 
Q 1341 213 1159 525 
L 1159 0 
L 581 0 
L 581 4863 
L 1159 4863 
L 1159 2969 
z
" transform="scale(0.015625)"/>
      </defs>
      <use xlink:href="#DejaVuSans-52"/>
      <use xlink:href="#DejaVuSans-6f" x="64.982422"/>
      <use xlink:href="#DejaVuSans-62" x="126.164062"/>
      <use xlink:href="#DejaVuSans-75" x="189.640625"/>
      <use xlink:href="#DejaVuSans-73" x="253.019531"/>
      <use xlink:href="#DejaVuSans-74" x="305.119141"/>
      <use xlink:href="#DejaVuSans-20" x="344.328125"/>
      <use xlink:href="#DejaVuSans-56" x="376.115234"/>
      <use xlink:href="#DejaVuSans-61" x="436.773438"/>
      <use xlink:href="#DejaVuSans-6c" x="498.052734"/>
      <use xlink:href="#DejaVuSans-69" x="525.835938"/>
      <use xlink:href="#DejaVuSans-64" x="553.619141"/>
      <use xlink:href="#DejaVuSans-61" x="617.095703"/>
      <use xlink:href="#DejaVuSans-74" x="678.375"/>
      <use xlink:href="#DejaVuSans-69" x="717.583984"/>
      <use xlink:href="#DejaVuSans-6f" x="745.367188"/>
      <use xlink:href="#DejaVuSans-6e" x="806.548828"/>
      <use xlink:href="#DejaVuSans-20" x="869.927734"/>
      <use xlink:href="#DejaVuSans-41" x="901.714844"/>
      <use xlink:href="#DejaVuSans-63" x="968.373047"/>
      <use xlink:href="#DejaVuSans-63" x="1023.353516"/>
      <use xlink:href="#DejaVuSans-75" x="1078.333984"/>
      <use xlink:href="#DejaVuSans-72" x="1141.712891"/>
      <use xlink:href="#DejaVuSans-61" x="1182.826172"/>
      <use xlink:href="#DejaVuSans-63" x="1244.105469"/>
      <use xlink:href="#DejaVuSans-79" x="1299.085938"/>
     </g>
    </g>
    <g id="line2d_26">
     <path d="M 216.18875 278.326188 
L 226.18875 278.326188 
L 236.18875 278.326188 
" style="fill: none; stroke: #d62728; stroke-width: 1.5; stroke-linecap: square"/>
    </g>
    <g id="text_24">
     <!-- SWA Validation Accuracy -->
     <g transform="translate(244.18875 281.826188) scale(0.1 -0.1)">
      <defs>
       <path id="DejaVuSans-53" d="M 3425 4513 
L 3425 3897 
Q 3066 4069 2747 4153 
Q 2428 4238 2131 4238 
Q 1616 4238 1336 4038 
Q 1056 3838 1056 3469 
Q 1056 3159 1242 3001 
Q 1428 2844 1947 2747 
L 2328 2669 
Q 3034 2534 3370 2195 
Q 3706 1856 3706 1288 
Q 3706 609 3251 259 
Q 2797 -91 1919 -91 
Q 1588 -91 1214 -16 
Q 841 59 441 206 
L 441 856 
Q 825 641 1194 531 
Q 1563 422 1919 422 
Q 2459 422 2753 634 
Q 3047 847 3047 1241 
Q 3047 1584 2836 1778 
Q 2625 1972 2144 2069 
L 1759 2144 
Q 1053 2284 737 2584 
Q 422 2884 422 3419 
Q 422 4038 858 4394 
Q 1294 4750 2059 4750 
Q 2388 4750 2728 4690 
Q 3069 4631 3425 4513 
z
" transform="scale(0.015625)"/>
       <path id="DejaVuSans-57" d="M 213 4666 
L 850 4666 
L 1831 722 
L 2809 4666 
L 3519 4666 
L 4500 722 
L 5478 4666 
L 6119 4666 
L 4947 0 
L 4153 0 
L 3169 4050 
L 2175 0 
L 1381 0 
L 213 4666 
z
" transform="scale(0.015625)"/>
      </defs>
      <use xlink:href="#DejaVuSans-53"/>
      <use xlink:href="#DejaVuSans-57" x="63.476562"/>
      <use xlink:href="#DejaVuSans-41" x="156.853516"/>
      <use xlink:href="#DejaVuSans-20" x="225.261719"/>
      <use xlink:href="#DejaVuSans-56" x="257.048828"/>
      <use xlink:href="#DejaVuSans-61" x="317.707031"/>
      <use xlink:href="#DejaVuSans-6c" x="378.986328"/>
      <use xlink:href="#DejaVuSans-69" x="406.769531"/>
      <use xlink:href="#DejaVuSans-64" x="434.552734"/>
      <use xlink:href="#DejaVuSans-61" x="498.029297"/>
      <use xlink:href="#DejaVuSans-74" x="559.308594"/>
      <use xlink:href="#DejaVuSans-69" x="598.517578"/>
      <use xlink:href="#DejaVuSans-6f" x="626.300781"/>
      <use xlink:href="#DejaVuSans-6e" x="687.482422"/>
      <use xlink:href="#DejaVuSans-20" x="750.861328"/>
      <use xlink:href="#DejaVuSans-41" x="782.648438"/>
      <use xlink:href="#DejaVuSans-63" x="849.306641"/>
      <use xlink:href="#DejaVuSans-63" x="904.287109"/>
      <use xlink:href="#DejaVuSans-75" x="959.267578"/>
      <use xlink:href="#DejaVuSans-72" x="1022.646484"/>
      <use xlink:href="#DejaVuSans-61" x="1063.759766"/>
      <use xlink:href="#DejaVuSans-63" x="1125.039062"/>
      <use xlink:href="#DejaVuSans-79" x="1180.019531"/>
     </g>
    </g>
    <g id="line2d_27">
     <path d="M 216.18875 293.004312 
L 226.18875 293.004312 
L 236.18875 293.004312 
" style="fill: none; stroke: #9467bd; stroke-width: 1.5; stroke-linecap: square"/>
    </g>
    <g id="text_25">
     <!-- SWA Robust Validation Accuracy -->
     <g transform="translate(244.18875 296.504312) scale(0.1 -0.1)">
      <use xlink:href="#DejaVuSans-53"/>
      <use xlink:href="#DejaVuSans-57" x="63.476562"/>
      <use xlink:href="#DejaVuSans-41" x="156.853516"/>
      <use xlink:href="#DejaVuSans-20" x="225.261719"/>
      <use xlink:href="#DejaVuSans-52" x="257.048828"/>
      <use xlink:href="#DejaVuSans-6f" x="322.03125"/>
      <use xlink:href="#DejaVuSans-62" x="383.212891"/>
      <use xlink:href="#DejaVuSans-75" x="446.689453"/>
      <use xlink:href="#DejaVuSans-73" x="510.068359"/>
      <use xlink:href="#DejaVuSans-74" x="562.167969"/>
      <use xlink:href="#DejaVuSans-20" x="601.376953"/>
      <use xlink:href="#DejaVuSans-56" x="633.164062"/>
      <use xlink:href="#DejaVuSans-61" x="693.822266"/>
      <use xlink:href="#DejaVuSans-6c" x="755.101562"/>
      <use xlink:href="#DejaVuSans-69" x="782.884766"/>
      <use xlink:href="#DejaVuSans-64" x="810.667969"/>
      <use xlink:href="#DejaVuSans-61" x="874.144531"/>
      <use xlink:href="#DejaVuSans-74" x="935.423828"/>
      <use xlink:href="#DejaVuSans-69" x="974.632812"/>
      <use xlink:href="#DejaVuSans-6f" x="1002.416016"/>
      <use xlink:href="#DejaVuSans-6e" x="1063.597656"/>
      <use xlink:href="#DejaVuSans-20" x="1126.976562"/>
      <use xlink:href="#DejaVuSans-41" x="1158.763672"/>
      <use xlink:href="#DejaVuSans-63" x="1225.421875"/>
      <use xlink:href="#DejaVuSans-63" x="1280.402344"/>
      <use xlink:href="#DejaVuSans-75" x="1335.382812"/>
      <use xlink:href="#DejaVuSans-72" x="1398.761719"/>
      <use xlink:href="#DejaVuSans-61" x="1439.875"/>
      <use xlink:href="#DejaVuSans-63" x="1501.154297"/>
      <use xlink:href="#DejaVuSans-79" x="1556.134766"/>
     </g>
    </g>
   </g>
  </g>
 </g>
 <defs>
  <clipPath id="p60f9d1aedc">
   <rect x="57.6" y="41.472" width="357.12" height="266.112"/>
  </clipPath>
 </defs>
</svg>
