<?xml version="1.0" encoding="utf-8" standalone="no"?>
<!DOCTYPE svg PUBLIC "-//W3C//DTD SVG 1.1//EN"
  "http://www.w3.org/Graphics/SVG/1.1/DTD/svg11.dtd">
<svg xmlns:xlink="http://www.w3.org/1999/xlink" width="460.8pt" height="345.6pt" viewBox="0 0 460.8 345.6" xmlns="http://www.w3.org/2000/svg" version="1.1">
 <metadata>
  <rdf:RDF xmlns:dc="http://purl.org/dc/elements/1.1/" xmlns:cc="http://creativecommons.org/ns#" xmlns:rdf="http://www.w3.org/1999/02/22-rdf-syntax-ns#">
   <cc:Work>
    <dc:type rdf:resource="http://purl.org/dc/dcmitype/StillImage"/>
    <dc:date>2025-01-09T15:29:33.690595</dc:date>
    <dc:format>image/svg+xml</dc:format>
    <dc:creator>
     <cc:Agent>
      <dc:title>Matplotlib v3.9.1, https://matplotlib.org/</dc:title>
     </cc:Agent>
    </dc:creator>
   </cc:Work>
  </rdf:RDF>
 </metadata>
 <defs>
  <style type="text/css">*{stroke-linejoin: round; stroke-linecap: butt}</style>
 </defs>
 <g id="figure_1">
  <g id="patch_1">
   <path d="M 0 345.6 
L 460.8 345.6 
L 460.8 0 
L 0 0 
z
" style="fill: #ffffff"/>
  </g>
  <g id="axes_1">
   <g id="patch_2">
    <path d="M 57.6 307.584 
L 414.72 307.584 
L 414.72 41.472 
L 57.6 41.472 
z
" style="fill: #ffffff"/>
   </g>
   <g id="matplotlib.axis_1">
    <g id="xtick_1">
     <g id="line2d_1">
      <defs>
       <path id="m50e6beca98" d="M 0 0 
L 0 3.5 
" style="stroke: #000000; stroke-width: 0.8"/>
      </defs>
      <g>
       <use xlink:href="#m50e6beca98" x="73.832727" y="307.584" style="stroke: #000000; stroke-width: 0.8"/>
      </g>
     </g>
     <g id="text_1">
      <!-- 1 -->
      <g transform="translate(70.651477 322.182437) scale(0.1 -0.1)">
       <defs>
        <path id="DejaVuSans-31" d="M 794 531 
L 1825 531 
L 1825 4091 
L 703 3866 
L 703 4441 
L 1819 4666 
L 2450 4666 
L 2450 531 
L 3481 531 
L 3481 0 
L 794 0 
L 794 531 
z
" transform="scale(0.015625)"/>
       </defs>
       <use xlink:href="#DejaVuSans-31"/>
      </g>
     </g>
    </g>
    <g id="xtick_2">
     <g id="line2d_2">
      <g>
       <use xlink:href="#m50e6beca98" x="109.664165" y="307.584" style="stroke: #000000; stroke-width: 0.8"/>
      </g>
     </g>
     <g id="text_2">
      <!-- 34 -->
      <g transform="translate(103.301665 322.182437) scale(0.1 -0.1)">
       <defs>
        <path id="DejaVuSans-33" d="M 2597 2516 
Q 3050 2419 3304 2112 
Q 3559 1806 3559 1356 
Q 3559 666 3084 287 
Q 2609 -91 1734 -91 
Q 1441 -91 1130 -33 
Q 819 25 488 141 
L 488 750 
Q 750 597 1062 519 
Q 1375 441 1716 441 
Q 2309 441 2620 675 
Q 2931 909 2931 1356 
Q 2931 1769 2642 2001 
Q 2353 2234 1838 2234 
L 1294 2234 
L 1294 2753 
L 1863 2753 
Q 2328 2753 2575 2939 
Q 2822 3125 2822 3475 
Q 2822 3834 2567 4026 
Q 2313 4219 1838 4219 
Q 1578 4219 1281 4162 
Q 984 4106 628 3988 
L 628 4550 
Q 988 4650 1302 4700 
Q 1616 4750 1894 4750 
Q 2613 4750 3031 4423 
Q 3450 4097 3450 3541 
Q 3450 3153 3228 2886 
Q 3006 2619 2597 2516 
z
" transform="scale(0.015625)"/>
        <path id="DejaVuSans-34" d="M 2419 4116 
L 825 1625 
L 2419 1625 
L 2419 4116 
z
M 2253 4666 
L 3047 4666 
L 3047 1625 
L 3713 1625 
L 3713 1100 
L 3047 1100 
L 3047 0 
L 2419 0 
L 2419 1100 
L 313 1100 
L 313 1709 
L 2253 4666 
z
" transform="scale(0.015625)"/>
       </defs>
       <use xlink:href="#DejaVuSans-33"/>
       <use xlink:href="#DejaVuSans-34" x="63.623047"/>
      </g>
     </g>
    </g>
    <g id="xtick_3">
     <g id="line2d_3">
      <g>
       <use xlink:href="#m50e6beca98" x="145.495604" y="307.584" style="stroke: #000000; stroke-width: 0.8"/>
      </g>
     </g>
     <g id="text_3">
      <!-- 67 -->
      <g transform="translate(139.133104 322.182437) scale(0.1 -0.1)">
       <defs>
        <path id="DejaVuSans-36" d="M 2113 2584 
Q 1688 2584 1439 2293 
Q 1191 2003 1191 1497 
Q 1191 994 1439 701 
Q 1688 409 2113 409 
Q 2538 409 2786 701 
Q 3034 994 3034 1497 
Q 3034 2003 2786 2293 
Q 2538 2584 2113 2584 
z
M 3366 4563 
L 3366 3988 
Q 3128 4100 2886 4159 
Q 2644 4219 2406 4219 
Q 1781 4219 1451 3797 
Q 1122 3375 1075 2522 
Q 1259 2794 1537 2939 
Q 1816 3084 2150 3084 
Q 2853 3084 3261 2657 
Q 3669 2231 3669 1497 
Q 3669 778 3244 343 
Q 2819 -91 2113 -91 
Q 1303 -91 875 529 
Q 447 1150 447 2328 
Q 447 3434 972 4092 
Q 1497 4750 2381 4750 
Q 2619 4750 2861 4703 
Q 3103 4656 3366 4563 
z
" transform="scale(0.015625)"/>
        <path id="DejaVuSans-37" d="M 525 4666 
L 3525 4666 
L 3525 4397 
L 1831 0 
L 1172 0 
L 2766 4134 
L 525 4134 
L 525 4666 
z
" transform="scale(0.015625)"/>
       </defs>
       <use xlink:href="#DejaVuSans-36"/>
       <use xlink:href="#DejaVuSans-37" x="63.623047"/>
      </g>
     </g>
    </g>
    <g id="xtick_4">
     <g id="line2d_4">
      <g>
       <use xlink:href="#m50e6beca98" x="181.327042" y="307.584" style="stroke: #000000; stroke-width: 0.8"/>
      </g>
     </g>
     <g id="text_4">
      <!-- 100 -->
      <g transform="translate(171.783292 322.182437) scale(0.1 -0.1)">
       <defs>
        <path id="DejaVuSans-30" d="M 2034 4250 
Q 1547 4250 1301 3770 
Q 1056 3291 1056 2328 
Q 1056 1369 1301 889 
Q 1547 409 2034 409 
Q 2525 409 2770 889 
Q 3016 1369 3016 2328 
Q 3016 3291 2770 3770 
Q 2525 4250 2034 4250 
z
M 2034 4750 
Q 2819 4750 3233 4129 
Q 3647 3509 3647 2328 
Q 3647 1150 3233 529 
Q 2819 -91 2034 -91 
Q 1250 -91 836 529 
Q 422 1150 422 2328 
Q 422 3509 836 4129 
Q 1250 4750 2034 4750 
z
" transform="scale(0.015625)"/>
       </defs>
       <use xlink:href="#DejaVuSans-31"/>
       <use xlink:href="#DejaVuSans-30" x="63.623047"/>
       <use xlink:href="#DejaVuSans-30" x="127.246094"/>
      </g>
     </g>
    </g>
    <g id="xtick_5">
     <g id="line2d_5">
      <g>
       <use xlink:href="#m50e6beca98" x="217.15848" y="307.584" style="stroke: #000000; stroke-width: 0.8"/>
      </g>
     </g>
     <g id="text_5">
      <!-- 133 -->
      <g transform="translate(207.61473 322.182437) scale(0.1 -0.1)">
       <use xlink:href="#DejaVuSans-31"/>
       <use xlink:href="#DejaVuSans-33" x="63.623047"/>
       <use xlink:href="#DejaVuSans-33" x="127.246094"/>
      </g>
     </g>
    </g>
    <g id="xtick_6">
     <g id="line2d_6">
      <g>
       <use xlink:href="#m50e6beca98" x="254.075719" y="307.584" style="stroke: #000000; stroke-width: 0.8"/>
      </g>
     </g>
     <g id="text_6">
      <!-- 167 -->
      <g transform="translate(244.531969 322.182437) scale(0.1 -0.1)">
       <use xlink:href="#DejaVuSans-31"/>
       <use xlink:href="#DejaVuSans-36" x="63.623047"/>
       <use xlink:href="#DejaVuSans-37" x="127.246094"/>
      </g>
     </g>
    </g>
    <g id="xtick_7">
     <g id="line2d_7">
      <g>
       <use xlink:href="#m50e6beca98" x="289.907157" y="307.584" style="stroke: #000000; stroke-width: 0.8"/>
      </g>
     </g>
     <g id="text_7">
      <!-- 200 -->
      <g transform="translate(280.363407 322.182437) scale(0.1 -0.1)">
       <defs>
        <path id="DejaVuSans-32" d="M 1228 531 
L 3431 531 
L 3431 0 
L 469 0 
L 469 531 
Q 828 903 1448 1529 
Q 2069 2156 2228 2338 
Q 2531 2678 2651 2914 
Q 2772 3150 2772 3378 
Q 2772 3750 2511 3984 
Q 2250 4219 1831 4219 
Q 1534 4219 1204 4116 
Q 875 4013 500 3803 
L 500 4441 
Q 881 4594 1212 4672 
Q 1544 4750 1819 4750 
Q 2544 4750 2975 4387 
Q 3406 4025 3406 3419 
Q 3406 3131 3298 2873 
Q 3191 2616 2906 2266 
Q 2828 2175 2409 1742 
Q 1991 1309 1228 531 
z
" transform="scale(0.015625)"/>
       </defs>
       <use xlink:href="#DejaVuSans-32"/>
       <use xlink:href="#DejaVuSans-30" x="63.623047"/>
       <use xlink:href="#DejaVuSans-30" x="127.246094"/>
      </g>
     </g>
    </g>
    <g id="xtick_8">
     <g id="line2d_8">
      <g>
       <use xlink:href="#m50e6beca98" x="325.738595" y="307.584" style="stroke: #000000; stroke-width: 0.8"/>
      </g>
     </g>
     <g id="text_8">
      <!-- 233 -->
      <g transform="translate(316.194845 322.182437) scale(0.1 -0.1)">
       <use xlink:href="#DejaVuSans-32"/>
       <use xlink:href="#DejaVuSans-33" x="63.623047"/>
       <use xlink:href="#DejaVuSans-33" x="127.246094"/>
      </g>
     </g>
    </g>
    <g id="xtick_9">
     <g id="line2d_9">
      <g>
       <use xlink:href="#m50e6beca98" x="361.570033" y="307.584" style="stroke: #000000; stroke-width: 0.8"/>
      </g>
     </g>
     <g id="text_9">
      <!-- 266 -->
      <g transform="translate(352.026283 322.182437) scale(0.1 -0.1)">
       <use xlink:href="#DejaVuSans-32"/>
       <use xlink:href="#DejaVuSans-36" x="63.623047"/>
       <use xlink:href="#DejaVuSans-36" x="127.246094"/>
      </g>
     </g>
    </g>
    <g id="xtick_10">
     <g id="line2d_10">
      <g>
       <use xlink:href="#m50e6beca98" x="398.487273" y="307.584" style="stroke: #000000; stroke-width: 0.8"/>
      </g>
     </g>
     <g id="text_10">
      <!-- 300 -->
      <g transform="translate(388.943523 322.182437) scale(0.1 -0.1)">
       <use xlink:href="#DejaVuSans-33"/>
       <use xlink:href="#DejaVuSans-30" x="63.623047"/>
       <use xlink:href="#DejaVuSans-30" x="127.246094"/>
      </g>
     </g>
    </g>
    <g id="text_11">
     <!-- Epochs -->
     <g transform="translate(218.244375 335.860562) scale(0.1 -0.1)">
      <defs>
       <path id="DejaVuSans-45" d="M 628 4666 
L 3578 4666 
L 3578 4134 
L 1259 4134 
L 1259 2753 
L 3481 2753 
L 3481 2222 
L 1259 2222 
L 1259 531 
L 3634 531 
L 3634 0 
L 628 0 
L 628 4666 
z
" transform="scale(0.015625)"/>
       <path id="DejaVuSans-70" d="M 1159 525 
L 1159 -1331 
L 581 -1331 
L 581 3500 
L 1159 3500 
L 1159 2969 
Q 1341 3281 1617 3432 
Q 1894 3584 2278 3584 
Q 2916 3584 3314 3078 
Q 3713 2572 3713 1747 
Q 3713 922 3314 415 
Q 2916 -91 2278 -91 
Q 1894 -91 1617 61 
Q 1341 213 1159 525 
z
M 3116 1747 
Q 3116 2381 2855 2742 
Q 2594 3103 2138 3103 
Q 1681 3103 1420 2742 
Q 1159 2381 1159 1747 
Q 1159 1113 1420 752 
Q 1681 391 2138 391 
Q 2594 391 2855 752 
Q 3116 1113 3116 1747 
z
" transform="scale(0.015625)"/>
       <path id="DejaVuSans-6f" d="M 1959 3097 
Q 1497 3097 1228 2736 
Q 959 2375 959 1747 
Q 959 1119 1226 758 
Q 1494 397 1959 397 
Q 2419 397 2687 759 
Q 2956 1122 2956 1747 
Q 2956 2369 2687 2733 
Q 2419 3097 1959 3097 
z
M 1959 3584 
Q 2709 3584 3137 3096 
Q 3566 2609 3566 1747 
Q 3566 888 3137 398 
Q 2709 -91 1959 -91 
Q 1206 -91 779 398 
Q 353 888 353 1747 
Q 353 2609 779 3096 
Q 1206 3584 1959 3584 
z
" transform="scale(0.015625)"/>
       <path id="DejaVuSans-63" d="M 3122 3366 
L 3122 2828 
Q 2878 2963 2633 3030 
Q 2388 3097 2138 3097 
Q 1578 3097 1268 2742 
Q 959 2388 959 1747 
Q 959 1106 1268 751 
Q 1578 397 2138 397 
Q 2388 397 2633 464 
Q 2878 531 3122 666 
L 3122 134 
Q 2881 22 2623 -34 
Q 2366 -91 2075 -91 
Q 1284 -91 818 406 
Q 353 903 353 1747 
Q 353 2603 823 3093 
Q 1294 3584 2113 3584 
Q 2378 3584 2631 3529 
Q 2884 3475 3122 3366 
z
" transform="scale(0.015625)"/>
       <path id="DejaVuSans-68" d="M 3513 2113 
L 3513 0 
L 2938 0 
L 2938 2094 
Q 2938 2591 2744 2837 
Q 2550 3084 2163 3084 
Q 1697 3084 1428 2787 
Q 1159 2491 1159 1978 
L 1159 0 
L 581 0 
L 581 4863 
L 1159 4863 
L 1159 2956 
Q 1366 3272 1645 3428 
Q 1925 3584 2291 3584 
Q 2894 3584 3203 3211 
Q 3513 2838 3513 2113 
z
" transform="scale(0.015625)"/>
       <path id="DejaVuSans-73" d="M 2834 3397 
L 2834 2853 
Q 2591 2978 2328 3040 
Q 2066 3103 1784 3103 
Q 1356 3103 1142 2972 
Q 928 2841 928 2578 
Q 928 2378 1081 2264 
Q 1234 2150 1697 2047 
L 1894 2003 
Q 2506 1872 2764 1633 
Q 3022 1394 3022 966 
Q 3022 478 2636 193 
Q 2250 -91 1575 -91 
Q 1294 -91 989 -36 
Q 684 19 347 128 
L 347 722 
Q 666 556 975 473 
Q 1284 391 1588 391 
Q 1994 391 2212 530 
Q 2431 669 2431 922 
Q 2431 1156 2273 1281 
Q 2116 1406 1581 1522 
L 1381 1569 
Q 847 1681 609 1914 
Q 372 2147 372 2553 
Q 372 3047 722 3315 
Q 1072 3584 1716 3584 
Q 2034 3584 2315 3537 
Q 2597 3491 2834 3397 
z
" transform="scale(0.015625)"/>
      </defs>
      <use xlink:href="#DejaVuSans-45"/>
      <use xlink:href="#DejaVuSans-70" x="63.183594"/>
      <use xlink:href="#DejaVuSans-6f" x="126.660156"/>
      <use xlink:href="#DejaVuSans-63" x="187.841797"/>
      <use xlink:href="#DejaVuSans-68" x="242.822266"/>
      <use xlink:href="#DejaVuSans-73" x="306.201172"/>
     </g>
    </g>
   </g>
   <g id="matplotlib.axis_2">
    <g id="ytick_1">
     <g id="line2d_11">
      <defs>
       <path id="mee143b3809" d="M 0 0 
L -3.5 0 
" style="stroke: #000000; stroke-width: 0.8"/>
      </defs>
      <g>
       <use xlink:href="#mee143b3809" x="57.6" y="279.913923" style="stroke: #000000; stroke-width: 0.8"/>
      </g>
     </g>
     <g id="text_12">
      <!-- 40 -->
      <g transform="translate(37.875 283.713142) scale(0.1 -0.1)">
       <use xlink:href="#DejaVuSans-34"/>
       <use xlink:href="#DejaVuSans-30" x="63.623047"/>
      </g>
     </g>
    </g>
    <g id="ytick_2">
     <g id="line2d_12">
      <g>
       <use xlink:href="#mee143b3809" x="57.6" y="239.774551" style="stroke: #000000; stroke-width: 0.8"/>
      </g>
     </g>
     <g id="text_13">
      <!-- 50 -->
      <g transform="translate(37.875 243.573769) scale(0.1 -0.1)">
       <defs>
        <path id="DejaVuSans-35" d="M 691 4666 
L 3169 4666 
L 3169 4134 
L 1269 4134 
L 1269 2991 
Q 1406 3038 1543 3061 
Q 1681 3084 1819 3084 
Q 2600 3084 3056 2656 
Q 3513 2228 3513 1497 
Q 3513 744 3044 326 
Q 2575 -91 1722 -91 
Q 1428 -91 1123 -41 
Q 819 9 494 109 
L 494 744 
Q 775 591 1075 516 
Q 1375 441 1709 441 
Q 2250 441 2565 725 
Q 2881 1009 2881 1497 
Q 2881 1984 2565 2268 
Q 2250 2553 1709 2553 
Q 1456 2553 1204 2497 
Q 953 2441 691 2322 
L 691 4666 
z
" transform="scale(0.015625)"/>
       </defs>
       <use xlink:href="#DejaVuSans-35"/>
       <use xlink:href="#DejaVuSans-30" x="63.623047"/>
      </g>
     </g>
    </g>
    <g id="ytick_3">
     <g id="line2d_13">
      <g>
       <use xlink:href="#mee143b3809" x="57.6" y="199.635178" style="stroke: #000000; stroke-width: 0.8"/>
      </g>
     </g>
     <g id="text_14">
      <!-- 60 -->
      <g transform="translate(37.875 203.434396) scale(0.1 -0.1)">
       <use xlink:href="#DejaVuSans-36"/>
       <use xlink:href="#DejaVuSans-30" x="63.623047"/>
      </g>
     </g>
    </g>
    <g id="ytick_4">
     <g id="line2d_14">
      <g>
       <use xlink:href="#mee143b3809" x="57.6" y="159.495805" style="stroke: #000000; stroke-width: 0.8"/>
      </g>
     </g>
     <g id="text_15">
      <!-- 70 -->
      <g transform="translate(37.875 163.295024) scale(0.1 -0.1)">
       <use xlink:href="#DejaVuSans-37"/>
       <use xlink:href="#DejaVuSans-30" x="63.623047"/>
      </g>
     </g>
    </g>
    <g id="ytick_5">
     <g id="line2d_15">
      <g>
       <use xlink:href="#mee143b3809" x="57.6" y="119.356432" style="stroke: #000000; stroke-width: 0.8"/>
      </g>
     </g>
     <g id="text_16">
      <!-- 80 -->
      <g transform="translate(37.875 123.155651) scale(0.1 -0.1)">
       <defs>
        <path id="DejaVuSans-38" d="M 2034 2216 
Q 1584 2216 1326 1975 
Q 1069 1734 1069 1313 
Q 1069 891 1326 650 
Q 1584 409 2034 409 
Q 2484 409 2743 651 
Q 3003 894 3003 1313 
Q 3003 1734 2745 1975 
Q 2488 2216 2034 2216 
z
M 1403 2484 
Q 997 2584 770 2862 
Q 544 3141 544 3541 
Q 544 4100 942 4425 
Q 1341 4750 2034 4750 
Q 2731 4750 3128 4425 
Q 3525 4100 3525 3541 
Q 3525 3141 3298 2862 
Q 3072 2584 2669 2484 
Q 3125 2378 3379 2068 
Q 3634 1759 3634 1313 
Q 3634 634 3220 271 
Q 2806 -91 2034 -91 
Q 1263 -91 848 271 
Q 434 634 434 1313 
Q 434 1759 690 2068 
Q 947 2378 1403 2484 
z
M 1172 3481 
Q 1172 3119 1398 2916 
Q 1625 2713 2034 2713 
Q 2441 2713 2670 2916 
Q 2900 3119 2900 3481 
Q 2900 3844 2670 4047 
Q 2441 4250 2034 4250 
Q 1625 4250 1398 4047 
Q 1172 3844 1172 3481 
z
" transform="scale(0.015625)"/>
       </defs>
       <use xlink:href="#DejaVuSans-38"/>
       <use xlink:href="#DejaVuSans-30" x="63.623047"/>
      </g>
     </g>
    </g>
    <g id="ytick_6">
     <g id="line2d_16">
      <g>
       <use xlink:href="#mee143b3809" x="57.6" y="79.217059" style="stroke: #000000; stroke-width: 0.8"/>
      </g>
     </g>
     <g id="text_17">
      <!-- 90 -->
      <g transform="translate(37.875 83.016278) scale(0.1 -0.1)">
       <defs>
        <path id="DejaVuSans-39" d="M 703 97 
L 703 672 
Q 941 559 1184 500 
Q 1428 441 1663 441 
Q 2288 441 2617 861 
Q 2947 1281 2994 2138 
Q 2813 1869 2534 1725 
Q 2256 1581 1919 1581 
Q 1219 1581 811 2004 
Q 403 2428 403 3163 
Q 403 3881 828 4315 
Q 1253 4750 1959 4750 
Q 2769 4750 3195 4129 
Q 3622 3509 3622 2328 
Q 3622 1225 3098 567 
Q 2575 -91 1691 -91 
Q 1453 -91 1209 -44 
Q 966 3 703 97 
z
M 1959 2075 
Q 2384 2075 2632 2365 
Q 2881 2656 2881 3163 
Q 2881 3666 2632 3958 
Q 2384 4250 1959 4250 
Q 1534 4250 1286 3958 
Q 1038 3666 1038 3163 
Q 1038 2656 1286 2365 
Q 1534 2075 1959 2075 
z
" transform="scale(0.015625)"/>
       </defs>
       <use xlink:href="#DejaVuSans-39"/>
       <use xlink:href="#DejaVuSans-30" x="63.623047"/>
      </g>
     </g>
    </g>
    <g id="text_18">
     <!-- Accuracy -->
     <g transform="translate(31.795312 197.356125) rotate(-90) scale(0.1 -0.1)">
      <defs>
       <path id="DejaVuSans-41" d="M 2188 4044 
L 1331 1722 
L 3047 1722 
L 2188 4044 
z
M 1831 4666 
L 2547 4666 
L 4325 0 
L 3669 0 
L 3244 1197 
L 1141 1197 
L 716 0 
L 50 0 
L 1831 4666 
z
" transform="scale(0.015625)"/>
       <path id="DejaVuSans-75" d="M 544 1381 
L 544 3500 
L 1119 3500 
L 1119 1403 
Q 1119 906 1312 657 
Q 1506 409 1894 409 
Q 2359 409 2629 706 
Q 2900 1003 2900 1516 
L 2900 3500 
L 3475 3500 
L 3475 0 
L 2900 0 
L 2900 538 
Q 2691 219 2414 64 
Q 2138 -91 1772 -91 
Q 1169 -91 856 284 
Q 544 659 544 1381 
z
M 1991 3584 
L 1991 3584 
z
" transform="scale(0.015625)"/>
       <path id="DejaVuSans-72" d="M 2631 2963 
Q 2534 3019 2420 3045 
Q 2306 3072 2169 3072 
Q 1681 3072 1420 2755 
Q 1159 2438 1159 1844 
L 1159 0 
L 581 0 
L 581 3500 
L 1159 3500 
L 1159 2956 
Q 1341 3275 1631 3429 
Q 1922 3584 2338 3584 
Q 2397 3584 2469 3576 
Q 2541 3569 2628 3553 
L 2631 2963 
z
" transform="scale(0.015625)"/>
       <path id="DejaVuSans-61" d="M 2194 1759 
Q 1497 1759 1228 1600 
Q 959 1441 959 1056 
Q 959 750 1161 570 
Q 1363 391 1709 391 
Q 2188 391 2477 730 
Q 2766 1069 2766 1631 
L 2766 1759 
L 2194 1759 
z
M 3341 1997 
L 3341 0 
L 2766 0 
L 2766 531 
Q 2569 213 2275 61 
Q 1981 -91 1556 -91 
Q 1019 -91 701 211 
Q 384 513 384 1019 
Q 384 1609 779 1909 
Q 1175 2209 1959 2209 
L 2766 2209 
L 2766 2266 
Q 2766 2663 2505 2880 
Q 2244 3097 1772 3097 
Q 1472 3097 1187 3025 
Q 903 2953 641 2809 
L 641 3341 
Q 956 3463 1253 3523 
Q 1550 3584 1831 3584 
Q 2591 3584 2966 3190 
Q 3341 2797 3341 1997 
z
" transform="scale(0.015625)"/>
       <path id="DejaVuSans-79" d="M 2059 -325 
Q 1816 -950 1584 -1140 
Q 1353 -1331 966 -1331 
L 506 -1331 
L 506 -850 
L 844 -850 
Q 1081 -850 1212 -737 
Q 1344 -625 1503 -206 
L 1606 56 
L 191 3500 
L 800 3500 
L 1894 763 
L 2988 3500 
L 3597 3500 
L 2059 -325 
z
" transform="scale(0.015625)"/>
      </defs>
      <use xlink:href="#DejaVuSans-41"/>
      <use xlink:href="#DejaVuSans-63" x="66.658203"/>
      <use xlink:href="#DejaVuSans-63" x="121.638672"/>
      <use xlink:href="#DejaVuSans-75" x="176.619141"/>
      <use xlink:href="#DejaVuSans-72" x="239.998047"/>
      <use xlink:href="#DejaVuSans-61" x="281.111328"/>
      <use xlink:href="#DejaVuSans-63" x="342.390625"/>
      <use xlink:href="#DejaVuSans-79" x="397.371094"/>
     </g>
    </g>
   </g>
   <g id="line2d_17">
    <path d="M 73.832727 295.488 
L 74.918528 228.093993 
L 76.00433 200.526272 
L 77.090131 182.222718 
L 78.175932 170.782997 
L 79.261733 160.539429 
L 80.347534 153.161812 
L 81.433335 147.50216 
L 82.519137 141.152111 
L 83.604938 137.860683 
L 85.77654 127.167554 
L 86.862341 124.630746 
L 87.948142 120.833561 
L 89.033943 116.201477 
L 90.119745 112.861882 
L 91.205546 110.991387 
L 92.291347 107.99699 
L 93.377148 106.78478 
L 94.462949 105.990021 
L 95.54875 135.267679 
L 96.634552 133.94308 
L 97.720353 131.173463 
L 99.891955 126.404906 
L 100.977756 123.48276 
L 102.063557 121.572125 
L 103.149358 120.392028 
L 104.23516 119.003206 
L 105.320961 116.024864 
L 107.492563 113.35961 
L 108.578364 111.914592 
L 109.664165 110.951247 
L 111.835768 107.836432 
L 112.921569 106.67239 
L 114.00737 103.581659 
L 115.093171 104.657394 
L 116.178972 102.144669 
L 117.264773 98.451847 
L 118.350575 98.62846 
L 120.522177 96.204042 
L 121.607978 94.614523 
L 122.693779 93.410341 
L 123.77958 91.804767 
L 124.865382 89.613157 
L 125.951183 89.316125 
L 127.036984 87.100432 
L 128.122785 86.450174 
L 129.208586 84.611791 
L 130.294387 84.700098 
L 131.380189 83.536056 
L 132.46599 82.596794 
L 133.551791 81.938509 
L 134.637592 81.039387 
L 135.723393 81.296279 
L 136.809194 80.389129 
L 137.894995 80.059986 
L 138.980797 106.768725 
L 140.066598 108.880056 
L 141.152399 108.952307 
L 142.2382 108.021073 
L 143.324001 107.772209 
L 144.409802 105.861575 
L 145.495604 104.536976 
L 146.581405 104.954425 
L 147.667206 104.834007 
L 148.753007 103.686021 
L 149.838808 102.345366 
L 150.924609 102.425645 
L 152.01041 101.847638 
L 153.096212 100.763875 
L 154.182013 100.466843 
L 155.267814 99.49547 
L 156.353615 97.8337 
L 157.439416 98.186927 
L 158.525217 97.360056 
L 159.611019 95.963206 
L 160.69682 97.038941 
L 161.782621 95.746453 
L 162.868422 96.605436 
L 163.954223 95.088167 
L 165.040024 95.023944 
L 166.125825 93.619066 
L 167.211627 93.049087 
L 168.297428 92.976836 
L 169.383229 92.061659 
L 170.46903 91.636181 
L 171.554831 90.881561 
L 172.640632 90.391861 
L 173.726434 90.20722 
L 174.812235 89.757659 
L 175.898036 88.826425 
L 176.983837 87.646328 
L 178.069638 88.095889 
L 179.155439 87.429575 
L 180.24124 86.209338 
L 182.412843 86.185254 
L 183.498644 84.724181 
L 185.670246 83.279164 
L 186.756047 82.428209 
L 187.841849 82.323847 
L 190.013451 81.023331 
L 191.099252 80.557714 
L 192.185053 79.008334 
L 193.270854 80.059986 
L 194.356656 78.26977 
L 195.442457 78.26977 
L 196.528258 76.680251 
L 197.614059 76.993338 
L 198.69986 75.773101 
L 199.785661 76.029993 
L 200.871462 75.612544 
L 203.043065 74.295972 
L 204.128866 74.199638 
L 205.214667 73.517268 
L 206.300468 73.236293 
L 207.386269 72.208725 
L 208.472071 71.943805 
L 209.557872 71.807331 
L 210.643673 70.595122 
L 211.729474 71.24538 
L 212.815275 69.80839 
L 213.901076 69.511359 
L 214.986877 69.342774 
L 217.15848 69.310662 
L 218.244281 68.507875 
L 219.330082 69.246439 
L 220.415883 68.122537 
L 221.501684 68.981519 
L 222.587486 69.126021 
L 223.673287 68.716599 
L 224.759088 68.740683 
L 225.844889 94.28538 
L 226.93069 98.379596 
L 228.016491 97.352028 
L 229.102292 97.616948 
L 230.188094 96.196014 
L 231.273895 96.541213 
L 232.359696 95.272808 
L 233.445497 95.449422 
L 234.531298 94.991833 
L 235.617099 94.189045 
L 236.702901 93.956237 
L 237.788702 93.49062 
L 238.874503 92.326578 
L 239.960304 93.940181 
L 241.046105 93.787652 
L 242.131906 93.90807 
L 243.217708 93.033031 
L 244.303509 93.073171 
L 245.38931 91.403373 
L 246.475111 92.149965 
L 247.560912 91.836878 
L 248.646713 91.130425 
L 249.732514 91.82885 
L 250.818316 90.624669 
L 251.904117 91.018035 
L 252.989918 90.239331 
L 254.075719 89.613157 
L 255.16152 89.797798 
L 257.333123 89.348237 
L 258.418924 88.625728 
L 259.504725 89.243875 
L 260.590526 88.65784 
L 262.762128 88.513338 
L 263.847929 87.461686 
L 264.933731 88.497282 
L 266.019532 88.561505 
L 268.191134 86.715094 
L 269.276935 87.212822 
L 270.362736 86.546509 
L 271.448538 86.402007 
L 272.534339 86.410035 
L 273.62014 86.739178 
L 274.705941 86.803401 
L 275.791742 86.096948 
L 276.877543 85.703582 
L 277.963344 85.743721 
L 279.049146 84.868683 
L 280.134947 84.981073 
L 281.220748 85.229937 
L 282.306549 84.017728 
L 283.39235 85.318244 
L 284.478151 84.684042 
L 285.563953 83.89731 
L 286.649754 83.969561 
L 287.735555 84.250537 
L 288.821356 82.821575 
L 289.907157 84.306732 
L 290.992958 83.439721 
L 292.07876 82.380042 
L 293.164561 81.617394 
L 294.250362 82.002732 
L 295.336163 82.139206 
L 296.421964 81.264167 
L 297.507765 81.577254 
L 298.593566 81.641477 
L 299.679368 80.822634 
L 300.765169 80.252655 
L 301.85097 80.413213 
L 304.022572 79.979707 
L 305.108373 79.562258 
L 306.194175 79.626481 
L 307.279976 79.498035 
L 308.365777 78.960167 
L 309.451578 79.225087 
L 310.537379 77.466983 
L 311.62318 77.611484 
L 312.708981 78.655108 
L 313.794783 77.980767 
L 314.880584 77.868376 
L 315.966385 77.531206 
L 317.052186 77.547261 
L 318.137987 77.113756 
L 319.223788 76.1183 
L 320.30959 76.005909 
L 321.395391 75.765073 
L 323.566993 75.660711 
L 324.652794 75.869436 
L 325.738595 75.331568 
L 326.824396 74.352167 
L 327.910198 74.609059 
L 328.995999 74.263861 
L 330.0818 74.673282 
L 331.167601 74.641171 
L 333.339203 72.875038 
L 335.510806 72.473645 
L 336.596607 72.048167 
L 338.768209 72.120418 
L 339.85401 71.100878 
L 340.939811 71.317631 
L 342.025613 71.100878 
L 343.111414 70.747652 
L 344.197215 70.659345 
L 345.283016 70.723568 
L 346.368817 70.041199 
L 347.454618 69.760223 
L 348.54042 69.752195 
L 349.626221 69.126021 
L 350.712022 68.67646 
L 351.797823 68.780822 
L 352.883624 68.52393 
L 353.969425 69.109965 
L 355.055227 68.94138 
L 356.141028 67.761282 
L 357.226829 67.8817 
L 358.31263 67.528474 
L 359.398431 67.528474 
L 360.484232 66.926383 
L 361.570033 66.621324 
L 362.655835 66.621324 
L 363.741636 66.757798 
L 364.827437 66.043317 
L 365.913238 65.545589 
L 366.999039 65.762341 
L 368.08484 66.717659 
L 369.170642 66.581185 
L 370.256443 66.805965 
L 371.342244 68.877157 
L 372.428045 68.636321 
L 373.513846 68.531958 
L 375.685448 69.069826 
L 376.77125 69.230383 
L 377.857051 67.745226 
L 378.942852 68.965463 
L 380.028653 69.270523 
L 382.200255 69.286578 
L 383.286057 69.093909 
L 384.371858 68.427596 
L 385.457659 69.463192 
L 386.54346 68.67646 
L 387.629261 69.101937 
L 388.715062 69.294606 
L 389.800863 68.973491 
L 390.886665 68.861101 
L 391.972466 68.491819 
L 393.058267 68.82899 
L 394.144068 69.406997 
L 396.31567 68.764767 
L 397.401472 68.162676 
L 398.487273 69.182216 
L 398.487273 69.182216 
" clip-path="url(#p6072befb91)" style="fill: none; stroke: #1f77b4; stroke-width: 1.5; stroke-linecap: square"/>
   </g>
   <g id="line2d_18">
    <path d="M 73.832727 228.29469 
L 74.918528 199.795735 
L 76.00433 178.963401 
L 77.090131 141.954899 
L 78.175932 138.422634 
L 79.261733 122.688 
L 80.347534 124.935805 
L 81.433335 107.515317 
L 82.519137 102.497895 
L 83.604938 102.457756 
L 84.690739 107.876571 
L 85.77654 104.665422 
L 87.948142 85.639359 
L 89.033943 86.241449 
L 90.119745 79.77901 
L 91.205546 82.669045 
L 92.291347 80.381101 
L 93.377148 79.337477 
L 94.462949 79.13678 
L 95.54875 107.716014 
L 96.634552 98.002286 
L 97.720353 96.035456 
L 98.806154 92.824307 
L 99.891955 98.524098 
L 100.977756 85.518941 
L 102.063557 84.114063 
L 103.149358 86.84354 
L 104.23516 81.625422 
L 105.320961 83.311275 
L 106.406762 80.742355 
L 107.492563 81.866258 
L 108.578364 77.450927 
L 109.664165 76.929115 
L 110.749967 77.972739 
L 111.835768 77.450927 
L 112.921569 75.96577 
L 114.00737 74.199638 
L 115.093171 74.721449 
L 116.178972 71.911693 
L 117.264773 72.072251 
L 118.350575 72.353226 
L 119.436376 72.79476 
L 120.522177 70.506815 
L 121.607978 66.131624 
L 122.693779 65.890787 
L 123.77958 69.101937 
L 124.865382 66.252042 
L 125.951183 66.091484 
L 127.036984 64.405631 
L 128.122785 66.051345 
L 129.208586 63.923958 
L 130.294387 64.325352 
L 131.380189 62.880334 
L 132.46599 62.599359 
L 134.637592 62.679638 
L 135.723393 61.756432 
L 136.809194 61.475456 
L 137.894995 62.238105 
L 138.980797 82.669045 
L 140.066598 76.005909 
L 141.152399 85.55908 
L 142.2382 84.033784 
L 143.324001 78.614969 
L 144.409802 80.42124 
L 145.495604 80.220544 
L 146.581405 78.775526 
L 147.667206 75.684794 
L 148.753007 74.560892 
L 149.838808 76.166467 
L 150.924609 77.089672 
L 152.01041 72.674341 
L 153.096212 74.199638 
L 154.182013 75.524237 
L 155.267814 75.363679 
L 156.353615 75.644655 
L 157.439416 68.660404 
L 158.525217 68.660404 
L 159.611019 71.229324 
L 160.69682 68.700544 
L 161.782621 70.466676 
L 162.868422 71.430021 
L 163.954223 69.985003 
L 165.040024 70.506815 
L 166.125825 69.262495 
L 167.211627 69.623749 
L 168.297428 71.108906 
L 169.383229 65.529533 
L 170.46903 68.580125 
L 171.554831 67.094969 
L 172.640632 67.175247 
L 173.726434 67.817477 
L 174.812235 66.773854 
L 175.898036 64.686606 
L 176.983837 66.533017 
L 178.069638 64.967582 
L 179.155439 64.204934 
L 180.24124 64.124655 
L 182.412843 66.613296 
L 183.498644 65.449254 
L 184.584445 65.368976 
L 185.670246 62.719777 
L 186.756047 61.636014 
L 187.841849 63.081031 
L 188.92765 61.796571 
L 190.013451 63.923958 
L 191.099252 59.669185 
L 192.185053 63.040892 
L 193.270854 61.796571 
L 194.356656 61.836711 
L 195.442457 59.829742 
L 196.528258 58.505143 
L 197.614059 60.030439 
L 198.69986 58.545282 
L 199.785661 62.197965 
L 200.871462 58.585422 
L 201.957264 58.946676 
L 203.043065 58.103749 
L 204.128866 58.866397 
L 205.214667 57.220683 
L 206.300468 57.38124 
L 207.386269 56.899568 
L 208.472071 57.662216 
L 209.557872 58.103749 
L 210.643673 57.983331 
L 211.729474 56.73901 
L 213.901076 56.979847 
L 214.986877 57.220683 
L 216.072679 56.698871 
L 217.15848 56.337617 
L 218.244281 56.819289 
L 219.330082 56.819289 
L 220.415883 56.939707 
L 221.501684 56.658732 
L 223.673287 56.859429 
L 224.759088 56.337617 
L 225.844889 72.513784 
L 226.93069 70.265979 
L 228.016491 78.012878 
L 229.102292 78.976223 
L 230.188094 72.393366 
L 231.273895 70.587094 
L 232.359696 68.379429 
L 233.445497 69.182216 
L 234.531298 70.587094 
L 235.617099 70.747652 
L 236.702901 71.269463 
L 237.788702 69.142077 
L 238.874503 68.339289 
L 239.960304 66.934411 
L 241.046105 70.306118 
L 242.131906 69.382913 
L 243.217708 68.018174 
L 244.303509 67.255526 
L 245.38931 68.178732 
L 246.475111 69.985003 
L 247.560912 67.576641 
L 248.646713 70.22584 
L 249.732514 72.553923 
L 250.818316 68.25901 
L 251.904117 65.73023 
L 252.989918 67.697059 
L 254.075719 65.770369 
L 255.16152 70.948348 
L 256.247321 69.142077 
L 257.333123 63.883819 
L 258.418924 70.82793 
L 260.590526 63.482425 
L 261.676327 65.770369 
L 262.762128 71.028627 
L 263.847929 63.883819 
L 264.933731 68.700544 
L 266.019532 65.890787 
L 267.105333 64.405631 
L 268.191134 64.204934 
L 269.276935 65.328836 
L 270.362736 65.649951 
L 271.448538 67.65692 
L 272.534339 64.124655 
L 273.62014 63.000753 
L 274.705941 69.382913 
L 276.877543 65.007721 
L 277.963344 63.964098 
L 279.049146 63.281728 
L 281.220748 62.639498 
L 282.306549 67.054829 
L 283.39235 65.088 
L 284.478151 62.157826 
L 285.563953 60.391693 
L 286.649754 64.485909 
L 288.821356 62.478941 
L 289.907157 63.843679 
L 290.992958 61.435317 
L 292.07876 61.796571 
L 293.164561 63.000753 
L 294.250362 65.770369 
L 295.336163 62.759916 
L 296.421964 63.241589 
L 297.507765 61.756432 
L 298.593566 62.960613 
L 299.679368 65.770369 
L 300.765169 64.164794 
L 301.85097 60.63253 
L 302.936771 59.709324 
L 304.022572 63.362007 
L 305.108373 60.873366 
L 306.194175 60.953645 
L 307.279976 63.843679 
L 308.365777 60.993784 
L 309.451578 63.362007 
L 310.537379 59.267791 
L 311.62318 61.636014 
L 312.708981 62.157826 
L 313.794783 65.850648 
L 314.880584 60.873366 
L 315.966385 60.793087 
L 317.052186 60.953645 
L 318.137987 60.311415 
L 319.223788 59.95016 
L 320.30959 60.431833 
L 321.395391 62.880334 
L 322.481192 62.880334 
L 323.566993 60.752948 
L 324.652794 57.943192 
L 325.738595 58.465003 
L 326.824396 58.184028 
L 327.910198 58.946676 
L 328.995999 58.986815 
L 330.0818 61.636014 
L 331.167601 59.147373 
L 332.253402 59.107233 
L 333.339203 58.424864 
L 334.425005 57.581937 
L 335.510806 58.625561 
L 336.596607 56.578453 
L 337.682408 56.899568 
L 338.768209 58.103749 
L 339.85401 57.862913 
L 342.025613 56.859429 
L 343.111414 57.581937 
L 344.197215 57.019986 
L 346.368817 56.658732 
L 347.454618 55.775666 
L 348.54042 56.939707 
L 350.712022 56.498174 
L 351.797823 55.735526 
L 352.883624 55.695387 
L 353.969425 55.855944 
L 355.055227 57.140404 
L 356.141028 55.133436 
L 357.226829 54.892599 
L 358.31263 55.815805 
L 359.398431 56.297477 
L 360.484232 55.615108 
L 361.570033 56.056641 
L 362.655835 54.812321 
L 363.741636 55.253854 
L 364.827437 53.929254 
L 365.913238 54.089812 
L 366.999039 54.009533 
L 369.170642 55.133436 
L 370.256443 55.213714 
L 371.342244 56.458035 
L 372.428045 56.016502 
L 373.513846 56.297477 
L 374.599647 57.662216 
L 375.685448 56.177059 
L 376.77125 57.260822 
L 377.857051 56.177059 
L 378.942852 58.304446 
L 380.028653 56.819289 
L 381.114454 56.698871 
L 382.200255 56.377756 
L 383.286057 57.019986 
L 384.371858 57.461519 
L 385.457659 56.297477 
L 386.54346 58.103749 
L 387.629261 56.899568 
L 388.715062 57.461519 
L 389.800863 57.341101 
L 390.886665 55.374272 
L 391.972466 56.016502 
L 393.058267 57.501659 
L 394.144068 55.053157 
L 395.229869 56.498174 
L 396.31567 56.658732 
L 397.401472 58.02347 
L 398.487273 57.822774 
L 398.487273 57.822774 
" clip-path="url(#p6072befb91)" style="fill: none; stroke: #ff7f0e; stroke-width: 1.5; stroke-linecap: square"/>
   </g>
   <g id="line2d_19">
    <path d="M 73.832727 270.335866 
L 74.918528 262.474169 
L 76.00433 239.829943 
L 77.090131 211.483116 
L 78.175932 203.372153 
L 79.261733 199.137048 
L 80.347534 201.046879 
L 81.433335 191.026085 
L 82.519137 176.769383 
L 83.604938 195.344279 
L 84.690739 190.55525 
L 85.77654 188.257672 
L 86.862341 194.790757 
L 87.948142 174.776463 
L 89.033943 165.751928 
L 90.119745 158.416056 
L 91.205546 170.042826 
L 92.291347 159.689678 
L 93.377148 158.831498 
L 94.462949 160.132415 
L 95.54875 193.517536 
L 96.634552 187.454885 
L 97.720353 176.714392 
L 98.806154 170.153611 
L 99.891955 189.91864 
L 100.977756 160.437073 
L 102.063557 159.357324 
L 103.149358 176.354341 
L 104.23516 158.139495 
L 105.320961 156.589313 
L 107.492563 174.499501 
L 108.578364 153.710116 
L 109.664165 156.007693 
L 110.749967 154.180951 
L 111.835768 159.108059 
L 112.921569 148.699518 
L 114.00737 147.730955 
L 115.093171 154.180951 
L 116.178972 155.371083 
L 117.264773 154.485207 
L 118.350575 160.824418 
L 119.436376 156.699696 
L 120.522177 151.855677 
L 121.607978 139.758472 
L 122.693779 140.56126 
L 123.77958 144.021274 
L 124.865382 138.290977 
L 125.951183 136.159576 
L 127.036984 132.256424 
L 128.122785 138.318673 
L 129.208586 137.100845 
L 130.294387 129.654188 
L 131.380189 131.010498 
L 132.46599 134.055872 
L 133.551791 133.41886 
L 134.637592 134.249344 
L 135.723393 131.951766 
L 136.809194 129.322236 
L 137.894995 133.225388 
L 138.980797 170.319788 
L 140.066598 160.520162 
L 141.152399 168.631125 
L 142.2382 166.195066 
L 143.324001 152.547679 
L 144.409802 163.067005 
L 145.495604 162.291914 
L 146.581405 166.44393 
L 147.667206 150.167013 
L 148.753007 143.855097 
L 149.838808 151.855677 
L 150.924609 168.879989 
L 152.01041 145.488368 
L 153.096212 149.557698 
L 154.182013 162.402297 
L 155.267814 149.585394 
L 156.353615 148.090603 
L 157.439416 147.149335 
L 158.525217 143.052309 
L 159.611019 135.938007 
L 160.69682 153.073505 
L 161.782621 149.170353 
L 162.868422 150.056229 
L 163.954223 144.657884 
L 165.040024 148.312173 
L 167.211627 139.924248 
L 168.297428 146.429636 
L 169.383229 125.917213 
L 170.46903 138.290977 
L 171.554831 140.810124 
L 172.640632 129.820365 
L 173.726434 138.20829 
L 174.812235 131.204371 
L 175.898036 138.678723 
L 176.983837 128.851401 
L 178.069638 129.294539 
L 179.155439 130.041934 
L 180.24124 130.097327 
L 182.412843 141.308655 
L 183.498644 132.28412 
L 184.584445 143.633929 
L 185.670246 121.266665 
L 186.756047 130.484672 
L 187.841849 119.882258 
L 188.92765 119.66109 
L 190.013451 126.221469 
L 191.099252 118.80291 
L 192.185053 135.412181 
L 193.270854 124.422422 
L 194.356656 130.041934 
L 195.442457 124.86516 
L 196.528258 118.193594 
L 197.614059 123.619635 
L 198.69986 124.615894 
L 199.785661 127.744357 
L 200.871462 125.889516 
L 201.957264 114.954748 
L 203.043065 119.716482 
L 204.128866 118.470556 
L 205.214667 115.840624 
L 206.300468 116.671108 
L 207.386269 118.858302 
L 208.472071 118.747518 
L 209.557872 120.103827 
L 210.643673 118.80291 
L 211.729474 115.093229 
L 212.815275 120.823526 
L 213.901076 116.560323 
L 214.986877 116.671108 
L 216.072679 117.723161 
L 217.15848 118.193594 
L 218.244281 116.671108 
L 219.330082 117.917034 
L 220.415883 115.425583 
L 221.501684 114.73358 
L 222.587486 116.560323 
L 223.673287 117.058854 
L 224.759088 115.480976 
L 225.844889 154.346726 
L 226.93069 142.91423 
L 228.016491 156.39544 
L 229.102292 149.004176 
L 230.188094 146.540421 
L 231.273895 140.478171 
L 232.359696 145.848418 
L 233.445497 123.923891 
L 234.531298 152.159933 
L 235.617099 151.96606 
L 236.702901 146.678902 
L 237.788702 143.633929 
L 238.874503 135.550662 
L 239.960304 135.744369 
L 241.046105 142.277398 
L 242.131906 157.917912 
L 243.217708 129.239022 
L 244.303509 132.754678 
L 245.38931 131.536656 
L 246.475111 139.453801 
L 247.560912 149.945402 
L 248.646713 146.014512 
L 249.732514 163.399013 
L 250.818316 137.903591 
L 251.904117 152.852047 
L 252.989918 146.540476 
L 254.075719 128.4916 
L 255.16152 148.72738 
L 256.247321 141.142423 
L 257.333123 139.952083 
L 258.418924 141.253152 
L 259.504725 140.062812 
L 261.676327 127.66113 
L 262.762128 161.212109 
L 263.847929 138.955519 
L 264.933731 133.723559 
L 266.019532 135.578275 
L 267.105333 131.398244 
L 268.191134 128.38087 
L 269.276935 137.017756 
L 270.362736 130.484727 
L 271.448538 143.467738 
L 272.534339 121.515653 
L 273.62014 126.941389 
L 274.705941 144.713443 
L 275.791742 128.657694 
L 276.877543 130.04181 
L 277.963344 123.038181 
L 279.049146 134.304888 
L 280.134947 135.550593 
L 281.220748 125.308132 
L 282.306549 141.640705 
L 284.478151 122.401488 
L 285.563953 129.68194 
L 286.649754 143.024821 
L 287.735555 129.737304 
L 288.821356 132.920772 
L 289.907157 133.086866 
L 290.992958 119.494844 
L 292.07876 128.574647 
L 293.164561 122.844405 
L 294.250362 141.004011 
L 295.336163 127.135166 
L 296.421964 124.616074 
L 297.507765 128.768423 
L 298.593566 122.207712 
L 299.679368 138.235778 
L 300.765169 138.540284 
L 301.85097 121.70943 
L 302.936771 116.366741 
L 304.022572 125.917143 
L 305.108373 119.660938 
L 306.194175 122.124665 
L 307.279976 142.914092 
L 308.365777 117.363305 
L 309.451578 130.816915 
L 310.537379 112.159027 
L 311.62318 131.093738 
L 312.708981 120.463725 
L 313.794783 136.990074 
L 314.880584 127.19053 
L 315.966385 123.481099 
L 317.052186 126.747613 
L 318.137987 132.810043 
L 319.223788 122.041618 
L 320.30959 130.733868 
L 321.395391 127.079801 
L 322.481192 136.962391 
L 324.652794 124.754486 
L 325.738595 117.972316 
L 326.824396 114.733484 
L 327.910198 124.394615 
L 328.995999 116.920387 
L 330.0818 140.201224 
L 331.167601 123.73024 
L 334.425005 115.647 
L 335.510806 120.436043 
L 336.596607 114.179837 
L 337.682408 113.73692 
L 338.768209 117.363305 
L 339.85401 111.35624 
L 340.939811 122.235394 
L 342.025613 118.885833 
L 343.111414 114.954942 
L 344.197215 115.176401 
L 345.283016 114.179837 
L 346.368817 117.501716 
L 347.454618 109.999806 
L 348.54042 115.674683 
L 349.626221 113.072544 
L 350.712022 108.062043 
L 351.797823 114.92726 
L 352.883624 115.536271 
L 353.969425 114.899578 
L 355.055227 113.432414 
L 356.141028 113.903014 
L 357.226829 110.608817 
L 358.31263 111.799157 
L 359.398431 112.352804 
L 360.484232 107.397667 
L 361.570033 110.221264 
L 363.741636 111.937569 
L 364.827437 107.31462 
L 365.913238 107.508396 
L 366.999039 110.387358 
L 368.08484 107.563761 
L 369.170642 112.574262 
L 370.256443 116.47747 
L 371.342244 110.110535 
L 372.428045 113.460097 
L 374.599647 116.394423 
L 375.685448 110.608817 
L 376.77125 110.498088 
L 377.857051 110.968687 
L 378.942852 113.100226 
L 380.028653 116.560517 
L 381.114454 113.515461 
L 382.200255 114.428978 
L 383.286057 118.332186 
L 384.371858 115.010307 
L 385.457659 109.556889 
L 386.54346 125.114356 
L 387.629261 106.982432 
L 388.715062 117.141846 
L 389.800863 118.470598 
L 390.886665 110.52577 
L 391.972466 114.622754 
L 393.058267 120.906642 
L 394.144068 106.235009 
L 395.229869 120.602137 
L 396.31567 113.764602 
L 397.401472 119.384114 
L 398.487273 106.179645 
L 398.487273 106.179645 
" clip-path="url(#p6072befb91)" style="fill: none; stroke: #2ca02c; stroke-width: 1.5; stroke-linecap: square"/>
   </g>
   <g id="line2d_20">
    <path d="M 368.08484 54.170091 
L 369.170642 54.089812 
L 370.256443 53.568 
L 371.342244 54.571484 
L 372.428045 55.374272 
L 373.513846 54.21023 
L 374.599647 55.334132 
L 375.685448 55.414411 
L 376.77125 54.129951 
L 377.857051 55.173575 
L 378.942852 53.929254 
L 380.028653 54.410927 
L 381.114454 53.568 
L 382.200255 54.330648 
L 383.286057 54.732042 
L 386.54346 55.655247 
L 387.629261 55.173575 
L 388.715062 55.213714 
L 389.800863 54.370787 
L 390.886665 54.611624 
L 393.058267 54.932739 
L 394.144068 54.129951 
L 395.229869 55.454551 
L 396.31567 56.09678 
L 397.401472 54.972878 
L 398.487273 55.574969 
L 398.487273 55.574969 
" clip-path="url(#p6072befb91)" style="fill: none; stroke: #d62728; stroke-width: 1.5; stroke-linecap: square"/>
   </g>
   <g id="line2d_21">
    <path d="M 368.08484 108.283502 
L 369.170642 108.97556 
L 370.256443 105.238446 
L 371.342244 113.044862 
L 373.513846 105.709045 
L 374.599647 107.840584 
L 375.685448 113.321685 
L 376.77125 104.878576 
L 377.857051 110.664182 
L 378.942852 108.311184 
L 380.028653 106.650244 
L 381.114454 103.771282 
L 382.200255 105.29381 
L 383.286057 108.338866 
L 384.371858 103.715918 
L 386.54346 105.958186 
L 387.629261 104.629435 
L 388.715062 109.916759 
L 389.800863 109.778347 
L 390.886665 106.345739 
L 391.972466 105.376857 
L 393.058267 108.698737 
L 394.144068 100.421721 
L 395.229869 109.252383 
L 396.31567 109.169336 
L 397.401472 105.044669 
L 398.487273 106.207327 
L 398.487273 106.207327 
" clip-path="url(#p6072befb91)" style="fill: none; stroke: #9467bd; stroke-width: 1.5; stroke-linecap: square"/>
   </g>
   <g id="patch_3">
    <path d="M 57.6 307.584 
L 57.6 41.472 
" style="fill: none; stroke: #000000; stroke-width: 0.8; stroke-linejoin: miter; stroke-linecap: square"/>
   </g>
   <g id="patch_4">
    <path d="M 414.72 307.584 
L 414.72 41.472 
" style="fill: none; stroke: #000000; stroke-width: 0.8; stroke-linejoin: miter; stroke-linecap: square"/>
   </g>
   <g id="patch_5">
    <path d="M 57.6 307.584 
L 414.72 307.584 
" style="fill: none; stroke: #000000; stroke-width: 0.8; stroke-linejoin: miter; stroke-linecap: square"/>
   </g>
   <g id="patch_6">
    <path d="M 57.6 41.472 
L 414.72 41.472 
" style="fill: none; stroke: #000000; stroke-width: 0.8; stroke-linejoin: miter; stroke-linecap: square"/>
   </g>
   <g id="text_19">
    <!-- Learning Curves -->
    <g transform="translate(187.37625 35.472) scale(0.12 -0.12)">
     <defs>
      <path id="DejaVuSans-4c" d="M 628 4666 
L 1259 4666 
L 1259 531 
L 3531 531 
L 3531 0 
L 628 0 
L 628 4666 
z
" transform="scale(0.015625)"/>
      <path id="DejaVuSans-65" d="M 3597 1894 
L 3597 1613 
L 953 1613 
Q 991 1019 1311 708 
Q 1631 397 2203 397 
Q 2534 397 2845 478 
Q 3156 559 3463 722 
L 3463 178 
Q 3153 47 2828 -22 
Q 2503 -91 2169 -91 
Q 1331 -91 842 396 
Q 353 884 353 1716 
Q 353 2575 817 3079 
Q 1281 3584 2069 3584 
Q 2775 3584 3186 3129 
Q 3597 2675 3597 1894 
z
M 3022 2063 
Q 3016 2534 2758 2815 
Q 2500 3097 2075 3097 
Q 1594 3097 1305 2825 
Q 1016 2553 972 2059 
L 3022 2063 
z
" transform="scale(0.015625)"/>
      <path id="DejaVuSans-6e" d="M 3513 2113 
L 3513 0 
L 2938 0 
L 2938 2094 
Q 2938 2591 2744 2837 
Q 2550 3084 2163 3084 
Q 1697 3084 1428 2787 
Q 1159 2491 1159 1978 
L 1159 0 
L 581 0 
L 581 3500 
L 1159 3500 
L 1159 2956 
Q 1366 3272 1645 3428 
Q 1925 3584 2291 3584 
Q 2894 3584 3203 3211 
Q 3513 2838 3513 2113 
z
" transform="scale(0.015625)"/>
      <path id="DejaVuSans-69" d="M 603 3500 
L 1178 3500 
L 1178 0 
L 603 0 
L 603 3500 
z
M 603 4863 
L 1178 4863 
L 1178 4134 
L 603 4134 
L 603 4863 
z
" transform="scale(0.015625)"/>
      <path id="DejaVuSans-67" d="M 2906 1791 
Q 2906 2416 2648 2759 
Q 2391 3103 1925 3103 
Q 1463 3103 1205 2759 
Q 947 2416 947 1791 
Q 947 1169 1205 825 
Q 1463 481 1925 481 
Q 2391 481 2648 825 
Q 2906 1169 2906 1791 
z
M 3481 434 
Q 3481 -459 3084 -895 
Q 2688 -1331 1869 -1331 
Q 1566 -1331 1297 -1286 
Q 1028 -1241 775 -1147 
L 775 -588 
Q 1028 -725 1275 -790 
Q 1522 -856 1778 -856 
Q 2344 -856 2625 -561 
Q 2906 -266 2906 331 
L 2906 616 
Q 2728 306 2450 153 
Q 2172 0 1784 0 
Q 1141 0 747 490 
Q 353 981 353 1791 
Q 353 2603 747 3093 
Q 1141 3584 1784 3584 
Q 2172 3584 2450 3431 
Q 2728 3278 2906 2969 
L 2906 3500 
L 3481 3500 
L 3481 434 
z
" transform="scale(0.015625)"/>
      <path id="DejaVuSans-20" transform="scale(0.015625)"/>
      <path id="DejaVuSans-43" d="M 4122 4306 
L 4122 3641 
Q 3803 3938 3442 4084 
Q 3081 4231 2675 4231 
Q 1875 4231 1450 3742 
Q 1025 3253 1025 2328 
Q 1025 1406 1450 917 
Q 1875 428 2675 428 
Q 3081 428 3442 575 
Q 3803 722 4122 1019 
L 4122 359 
Q 3791 134 3420 21 
Q 3050 -91 2638 -91 
Q 1578 -91 968 557 
Q 359 1206 359 2328 
Q 359 3453 968 4101 
Q 1578 4750 2638 4750 
Q 3056 4750 3426 4639 
Q 3797 4528 4122 4306 
z
" transform="scale(0.015625)"/>
      <path id="DejaVuSans-76" d="M 191 3500 
L 800 3500 
L 1894 563 
L 2988 3500 
L 3597 3500 
L 2284 0 
L 1503 0 
L 191 3500 
z
" transform="scale(0.015625)"/>
     </defs>
     <use xlink:href="#DejaVuSans-4c"/>
     <use xlink:href="#DejaVuSans-65" x="53.962891"/>
     <use xlink:href="#DejaVuSans-61" x="115.486328"/>
     <use xlink:href="#DejaVuSans-72" x="176.765625"/>
     <use xlink:href="#DejaVuSans-6e" x="216.128906"/>
     <use xlink:href="#DejaVuSans-69" x="279.507812"/>
     <use xlink:href="#DejaVuSans-6e" x="307.291016"/>
     <use xlink:href="#DejaVuSans-67" x="370.669922"/>
     <use xlink:href="#DejaVuSans-20" x="434.146484"/>
     <use xlink:href="#DejaVuSans-43" x="465.933594"/>
     <use xlink:href="#DejaVuSans-75" x="535.757812"/>
     <use xlink:href="#DejaVuSans-72" x="599.136719"/>
     <use xlink:href="#DejaVuSans-76" x="640.25"/>
     <use xlink:href="#DejaVuSans-65" x="699.429688"/>
     <use xlink:href="#DejaVuSans-73" x="760.953125"/>
    </g>
   </g>
   <g id="legend_1">
    <g id="patch_7">
     <path d="M 214.18875 302.584 
L 407.72 302.584 
Q 409.72 302.584 409.72 300.584 
L 409.72 228.193375 
Q 409.72 226.193375 407.72 226.193375 
L 214.18875 226.193375 
Q 212.18875 226.193375 212.18875 228.193375 
L 212.18875 300.584 
Q 212.18875 302.584 214.18875 302.584 
z
" style="fill: #ffffff; opacity: 0.8; stroke: #cccccc; stroke-linejoin: miter"/>
    </g>
    <g id="line2d_22">
     <path d="M 216.18875 234.291812 
L 226.18875 234.291812 
L 236.18875 234.291812 
" style="fill: none; stroke: #1f77b4; stroke-width: 1.5; stroke-linecap: square"/>
    </g>
    <g id="text_20">
     <!-- Train Accuracy -->
     <g transform="translate(244.18875 237.791812) scale(0.1 -0.1)">
      <defs>
       <path id="DejaVuSans-54" d="M -19 4666 
L 3928 4666 
L 3928 4134 
L 2272 4134 
L 2272 0 
L 1638 0 
L 1638 4134 
L -19 4134 
L -19 4666 
z
" transform="scale(0.015625)"/>
      </defs>
      <use xlink:href="#DejaVuSans-54"/>
      <use xlink:href="#DejaVuSans-72" x="46.333984"/>
      <use xlink:href="#DejaVuSans-61" x="87.447266"/>
      <use xlink:href="#DejaVuSans-69" x="148.726562"/>
      <use xlink:href="#DejaVuSans-6e" x="176.509766"/>
      <use xlink:href="#DejaVuSans-20" x="239.888672"/>
      <use xlink:href="#DejaVuSans-41" x="271.675781"/>
      <use xlink:href="#DejaVuSans-63" x="338.333984"/>
      <use xlink:href="#DejaVuSans-63" x="393.314453"/>
      <use xlink:href="#DejaVuSans-75" x="448.294922"/>
      <use xlink:href="#DejaVuSans-72" x="511.673828"/>
      <use xlink:href="#DejaVuSans-61" x="552.787109"/>
      <use xlink:href="#DejaVuSans-63" x="614.066406"/>
      <use xlink:href="#DejaVuSans-79" x="669.046875"/>
     </g>
    </g>
    <g id="line2d_23">
     <path d="M 216.18875 248.969937 
L 226.18875 248.969937 
L 236.18875 248.969937 
" style="fill: none; stroke: #ff7f0e; stroke-width: 1.5; stroke-linecap: square"/>
    </g>
    <g id="text_21">
     <!-- Validation Accuracy -->
     <g transform="translate(244.18875 252.469937) scale(0.1 -0.1)">
      <defs>
       <path id="DejaVuSans-56" d="M 1831 0 
L 50 4666 
L 709 4666 
L 2188 738 
L 3669 4666 
L 4325 4666 
L 2547 0 
L 1831 0 
z
" transform="scale(0.015625)"/>
       <path id="DejaVuSans-6c" d="M 603 4863 
L 1178 4863 
L 1178 0 
L 603 0 
L 603 4863 
z
" transform="scale(0.015625)"/>
       <path id="DejaVuSans-64" d="M 2906 2969 
L 2906 4863 
L 3481 4863 
L 3481 0 
L 2906 0 
L 2906 525 
Q 2725 213 2448 61 
Q 2172 -91 1784 -91 
Q 1150 -91 751 415 
Q 353 922 353 1747 
Q 353 2572 751 3078 
Q 1150 3584 1784 3584 
Q 2172 3584 2448 3432 
Q 2725 3281 2906 2969 
z
M 947 1747 
Q 947 1113 1208 752 
Q 1469 391 1925 391 
Q 2381 391 2643 752 
Q 2906 1113 2906 1747 
Q 2906 2381 2643 2742 
Q 2381 3103 1925 3103 
Q 1469 3103 1208 2742 
Q 947 2381 947 1747 
z
" transform="scale(0.015625)"/>
       <path id="DejaVuSans-74" d="M 1172 4494 
L 1172 3500 
L 2356 3500 
L 2356 3053 
L 1172 3053 
L 1172 1153 
Q 1172 725 1289 603 
Q 1406 481 1766 481 
L 2356 481 
L 2356 0 
L 1766 0 
Q 1100 0 847 248 
Q 594 497 594 1153 
L 594 3053 
L 172 3053 
L 172 3500 
L 594 3500 
L 594 4494 
L 1172 4494 
z
" transform="scale(0.015625)"/>
      </defs>
      <use xlink:href="#DejaVuSans-56"/>
      <use xlink:href="#DejaVuSans-61" x="60.658203"/>
      <use xlink:href="#DejaVuSans-6c" x="121.9375"/>
      <use xlink:href="#DejaVuSans-69" x="149.720703"/>
      <use xlink:href="#DejaVuSans-64" x="177.503906"/>
      <use xlink:href="#DejaVuSans-61" x="240.980469"/>
      <use xlink:href="#DejaVuSans-74" x="302.259766"/>
      <use xlink:href="#DejaVuSans-69" x="341.46875"/>
      <use xlink:href="#DejaVuSans-6f" x="369.251953"/>
      <use xlink:href="#DejaVuSans-6e" x="430.433594"/>
      <use xlink:href="#DejaVuSans-20" x="493.8125"/>
      <use xlink:href="#DejaVuSans-41" x="525.599609"/>
      <use xlink:href="#DejaVuSans-63" x="592.257812"/>
      <use xlink:href="#DejaVuSans-63" x="647.238281"/>
      <use xlink:href="#DejaVuSans-75" x="702.21875"/>
      <use xlink:href="#DejaVuSans-72" x="765.597656"/>
      <use xlink:href="#DejaVuSans-61" x="806.710938"/>
      <use xlink:href="#DejaVuSans-63" x="867.990234"/>
      <use xlink:href="#DejaVuSans-79" x="922.970703"/>
     </g>
    </g>
    <g id="line2d_24">
     <path d="M 216.18875 263.648062 
L 226.18875 263.648062 
L 236.18875 263.648062 
" style="fill: none; stroke: #2ca02c; stroke-width: 1.5; stroke-linecap: square"/>
    </g>
    <g id="text_22">
     <!-- Robust Validation Accuracy -->
     <g transform="translate(244.18875 267.148062) scale(0.1 -0.1)">
      <defs>
       <path id="DejaVuSans-52" d="M 2841 2188 
Q 3044 2119 3236 1894 
Q 3428 1669 3622 1275 
L 4263 0 
L 3584 0 
L 2988 1197 
Q 2756 1666 2539 1819 
Q 2322 1972 1947 1972 
L 1259 1972 
L 1259 0 
L 628 0 
L 628 4666 
L 2053 4666 
Q 2853 4666 3247 4331 
Q 3641 3997 3641 3322 
Q 3641 2881 3436 2590 
Q 3231 2300 2841 2188 
z
M 1259 4147 
L 1259 2491 
L 2053 2491 
Q 2509 2491 2742 2702 
Q 2975 2913 2975 3322 
Q 2975 3731 2742 3939 
Q 2509 4147 2053 4147 
L 1259 4147 
z
" transform="scale(0.015625)"/>
       <path id="DejaVuSans-62" d="M 3116 1747 
Q 3116 2381 2855 2742 
Q 2594 3103 2138 3103 
Q 1681 3103 1420 2742 
Q 1159 2381 1159 1747 
Q 1159 1113 1420 752 
Q 1681 391 2138 391 
Q 2594 391 2855 752 
Q 3116 1113 3116 1747 
z
M 1159 2969 
Q 1341 3281 1617 3432 
Q 1894 3584 2278 3584 
Q 2916 3584 3314 3078 
Q 3713 2572 3713 1747 
Q 3713 922 3314 415 
Q 2916 -91 2278 -91 
Q 1894 -91 1617 61 
Q 1341 213 1159 525 
L 1159 0 
L 581 0 
L 581 4863 
L 1159 4863 
L 1159 2969 
z
" transform="scale(0.015625)"/>
      </defs>
      <use xlink:href="#DejaVuSans-52"/>
      <use xlink:href="#DejaVuSans-6f" x="64.982422"/>
      <use xlink:href="#DejaVuSans-62" x="126.164062"/>
      <use xlink:href="#DejaVuSans-75" x="189.640625"/>
      <use xlink:href="#DejaVuSans-73" x="253.019531"/>
      <use xlink:href="#DejaVuSans-74" x="305.119141"/>
      <use xlink:href="#DejaVuSans-20" x="344.328125"/>
      <use xlink:href="#DejaVuSans-56" x="376.115234"/>
      <use xlink:href="#DejaVuSans-61" x="436.773438"/>
      <use xlink:href="#DejaVuSans-6c" x="498.052734"/>
      <use xlink:href="#DejaVuSans-69" x="525.835938"/>
      <use xlink:href="#DejaVuSans-64" x="553.619141"/>
      <use xlink:href="#DejaVuSans-61" x="617.095703"/>
      <use xlink:href="#DejaVuSans-74" x="678.375"/>
      <use xlink:href="#DejaVuSans-69" x="717.583984"/>
      <use xlink:href="#DejaVuSans-6f" x="745.367188"/>
      <use xlink:href="#DejaVuSans-6e" x="806.548828"/>
      <use xlink:href="#DejaVuSans-20" x="869.927734"/>
      <use xlink:href="#DejaVuSans-41" x="901.714844"/>
      <use xlink:href="#DejaVuSans-63" x="968.373047"/>
      <use xlink:href="#DejaVuSans-63" x="1023.353516"/>
      <use xlink:href="#DejaVuSans-75" x="1078.333984"/>
      <use xlink:href="#DejaVuSans-72" x="1141.712891"/>
      <use xlink:href="#DejaVuSans-61" x="1182.826172"/>
      <use xlink:href="#DejaVuSans-63" x="1244.105469"/>
      <use xlink:href="#DejaVuSans-79" x="1299.085938"/>
     </g>
    </g>
    <g id="line2d_25">
     <path d="M 216.18875 278.326188 
L 226.18875 278.326188 
L 236.18875 278.326188 
" style="fill: none; stroke: #d62728; stroke-width: 1.5; stroke-linecap: square"/>
    </g>
    <g id="text_23">
     <!-- SWA Validation Accuracy -->
     <g transform="translate(244.18875 281.826188) scale(0.1 -0.1)">
      <defs>
       <path id="DejaVuSans-53" d="M 3425 4513 
L 3425 3897 
Q 3066 4069 2747 4153 
Q 2428 4238 2131 4238 
Q 1616 4238 1336 4038 
Q 1056 3838 1056 3469 
Q 1056 3159 1242 3001 
Q 1428 2844 1947 2747 
L 2328 2669 
Q 3034 2534 3370 2195 
Q 3706 1856 3706 1288 
Q 3706 609 3251 259 
Q 2797 -91 1919 -91 
Q 1588 -91 1214 -16 
Q 841 59 441 206 
L 441 856 
Q 825 641 1194 531 
Q 1563 422 1919 422 
Q 2459 422 2753 634 
Q 3047 847 3047 1241 
Q 3047 1584 2836 1778 
Q 2625 1972 2144 2069 
L 1759 2144 
Q 1053 2284 737 2584 
Q 422 2884 422 3419 
Q 422 4038 858 4394 
Q 1294 4750 2059 4750 
Q 2388 4750 2728 4690 
Q 3069 4631 3425 4513 
z
" transform="scale(0.015625)"/>
       <path id="DejaVuSans-57" d="M 213 4666 
L 850 4666 
L 1831 722 
L 2809 4666 
L 3519 4666 
L 4500 722 
L 5478 4666 
L 6119 4666 
L 4947 0 
L 4153 0 
L 3169 4050 
L 2175 0 
L 1381 0 
L 213 4666 
z
" transform="scale(0.015625)"/>
      </defs>
      <use xlink:href="#DejaVuSans-53"/>
      <use xlink:href="#DejaVuSans-57" x="63.476562"/>
      <use xlink:href="#DejaVuSans-41" x="156.853516"/>
      <use xlink:href="#DejaVuSans-20" x="225.261719"/>
      <use xlink:href="#DejaVuSans-56" x="257.048828"/>
      <use xlink:href="#DejaVuSans-61" x="317.707031"/>
      <use xlink:href="#DejaVuSans-6c" x="378.986328"/>
      <use xlink:href="#DejaVuSans-69" x="406.769531"/>
      <use xlink:href="#DejaVuSans-64" x="434.552734"/>
      <use xlink:href="#DejaVuSans-61" x="498.029297"/>
      <use xlink:href="#DejaVuSans-74" x="559.308594"/>
      <use xlink:href="#DejaVuSans-69" x="598.517578"/>
      <use xlink:href="#DejaVuSans-6f" x="626.300781"/>
      <use xlink:href="#DejaVuSans-6e" x="687.482422"/>
      <use xlink:href="#DejaVuSans-20" x="750.861328"/>
      <use xlink:href="#DejaVuSans-41" x="782.648438"/>
      <use xlink:href="#DejaVuSans-63" x="849.306641"/>
      <use xlink:href="#DejaVuSans-63" x="904.287109"/>
      <use xlink:href="#DejaVuSans-75" x="959.267578"/>
      <use xlink:href="#DejaVuSans-72" x="1022.646484"/>
      <use xlink:href="#DejaVuSans-61" x="1063.759766"/>
      <use xlink:href="#DejaVuSans-63" x="1125.039062"/>
      <use xlink:href="#DejaVuSans-79" x="1180.019531"/>
     </g>
    </g>
    <g id="line2d_26">
     <path d="M 216.18875 293.004312 
L 226.18875 293.004312 
L 236.18875 293.004312 
" style="fill: none; stroke: #9467bd; stroke-width: 1.5; stroke-linecap: square"/>
    </g>
    <g id="text_24">
     <!-- SWA Robust Validation Accuracy -->
     <g transform="translate(244.18875 296.504312) scale(0.1 -0.1)">
      <use xlink:href="#DejaVuSans-53"/>
      <use xlink:href="#DejaVuSans-57" x="63.476562"/>
      <use xlink:href="#DejaVuSans-41" x="156.853516"/>
      <use xlink:href="#DejaVuSans-20" x="225.261719"/>
      <use xlink:href="#DejaVuSans-52" x="257.048828"/>
      <use xlink:href="#DejaVuSans-6f" x="322.03125"/>
      <use xlink:href="#DejaVuSans-62" x="383.212891"/>
      <use xlink:href="#DejaVuSans-75" x="446.689453"/>
      <use xlink:href="#DejaVuSans-73" x="510.068359"/>
      <use xlink:href="#DejaVuSans-74" x="562.167969"/>
      <use xlink:href="#DejaVuSans-20" x="601.376953"/>
      <use xlink:href="#DejaVuSans-56" x="633.164062"/>
      <use xlink:href="#DejaVuSans-61" x="693.822266"/>
      <use xlink:href="#DejaVuSans-6c" x="755.101562"/>
      <use xlink:href="#DejaVuSans-69" x="782.884766"/>
      <use xlink:href="#DejaVuSans-64" x="810.667969"/>
      <use xlink:href="#DejaVuSans-61" x="874.144531"/>
      <use xlink:href="#DejaVuSans-74" x="935.423828"/>
      <use xlink:href="#DejaVuSans-69" x="974.632812"/>
      <use xlink:href="#DejaVuSans-6f" x="1002.416016"/>
      <use xlink:href="#DejaVuSans-6e" x="1063.597656"/>
      <use xlink:href="#DejaVuSans-20" x="1126.976562"/>
      <use xlink:href="#DejaVuSans-41" x="1158.763672"/>
      <use xlink:href="#DejaVuSans-63" x="1225.421875"/>
      <use xlink:href="#DejaVuSans-63" x="1280.402344"/>
      <use xlink:href="#DejaVuSans-75" x="1335.382812"/>
      <use xlink:href="#DejaVuSans-72" x="1398.761719"/>
      <use xlink:href="#DejaVuSans-61" x="1439.875"/>
      <use xlink:href="#DejaVuSans-63" x="1501.154297"/>
      <use xlink:href="#DejaVuSans-79" x="1556.134766"/>
     </g>
    </g>
   </g>
  </g>
 </g>
 <defs>
  <clipPath id="p6072befb91">
   <rect x="57.6" y="41.472" width="357.12" height="266.112"/>
  </clipPath>
 </defs>
</svg>
