<?xml version="1.0" encoding="utf-8" standalone="no"?>
<!DOCTYPE svg PUBLIC "-//W3C//DTD SVG 1.1//EN"
  "http://www.w3.org/Graphics/SVG/1.1/DTD/svg11.dtd">
<svg xmlns:xlink="http://www.w3.org/1999/xlink" width="460.8pt" height="345.6pt" viewBox="0 0 460.8 345.6" xmlns="http://www.w3.org/2000/svg" version="1.1">
 <metadata>
  <rdf:RDF xmlns:dc="http://purl.org/dc/elements/1.1/" xmlns:cc="http://creativecommons.org/ns#" xmlns:rdf="http://www.w3.org/1999/02/22-rdf-syntax-ns#">
   <cc:Work>
    <dc:type rdf:resource="http://purl.org/dc/dcmitype/StillImage"/>
    <dc:date>2025-01-09T22:01:30.562418</dc:date>
    <dc:format>image/svg+xml</dc:format>
    <dc:creator>
     <cc:Agent>
      <dc:title>Matplotlib v3.9.1, https://matplotlib.org/</dc:title>
     </cc:Agent>
    </dc:creator>
   </cc:Work>
  </rdf:RDF>
 </metadata>
 <defs>
  <style type="text/css">*{stroke-linejoin: round; stroke-linecap: butt}</style>
 </defs>
 <g id="figure_1">
  <g id="patch_1">
   <path d="M 0 345.6 
L 460.8 345.6 
L 460.8 0 
L 0 0 
z
" style="fill: #ffffff"/>
  </g>
  <g id="axes_1">
   <g id="patch_2">
    <path d="M 57.6 307.584 
L 414.72 307.584 
L 414.72 41.472 
L 57.6 41.472 
z
" style="fill: #ffffff"/>
   </g>
   <g id="matplotlib.axis_1">
    <g id="xtick_1">
     <g id="line2d_1">
      <defs>
       <path id="mc51fe22026" d="M 0 0 
L 0 3.5 
" style="stroke: #000000; stroke-width: 0.8"/>
      </defs>
      <g>
       <use xlink:href="#mc51fe22026" x="73.832727" y="307.584" style="stroke: #000000; stroke-width: 0.8"/>
      </g>
     </g>
     <g id="text_1">
      <!-- 1 -->
      <g transform="translate(70.651477 322.182437) scale(0.1 -0.1)">
       <defs>
        <path id="DejaVuSans-31" d="M 794 531 
L 1825 531 
L 1825 4091 
L 703 3866 
L 703 4441 
L 1819 4666 
L 2450 4666 
L 2450 531 
L 3481 531 
L 3481 0 
L 794 0 
L 794 531 
z
" transform="scale(0.015625)"/>
       </defs>
       <use xlink:href="#DejaVuSans-31"/>
      </g>
     </g>
    </g>
    <g id="xtick_2">
     <g id="line2d_2">
      <g>
       <use xlink:href="#mc51fe22026" x="109.664165" y="307.584" style="stroke: #000000; stroke-width: 0.8"/>
      </g>
     </g>
     <g id="text_2">
      <!-- 34 -->
      <g transform="translate(103.301665 322.182437) scale(0.1 -0.1)">
       <defs>
        <path id="DejaVuSans-33" d="M 2597 2516 
Q 3050 2419 3304 2112 
Q 3559 1806 3559 1356 
Q 3559 666 3084 287 
Q 2609 -91 1734 -91 
Q 1441 -91 1130 -33 
Q 819 25 488 141 
L 488 750 
Q 750 597 1062 519 
Q 1375 441 1716 441 
Q 2309 441 2620 675 
Q 2931 909 2931 1356 
Q 2931 1769 2642 2001 
Q 2353 2234 1838 2234 
L 1294 2234 
L 1294 2753 
L 1863 2753 
Q 2328 2753 2575 2939 
Q 2822 3125 2822 3475 
Q 2822 3834 2567 4026 
Q 2313 4219 1838 4219 
Q 1578 4219 1281 4162 
Q 984 4106 628 3988 
L 628 4550 
Q 988 4650 1302 4700 
Q 1616 4750 1894 4750 
Q 2613 4750 3031 4423 
Q 3450 4097 3450 3541 
Q 3450 3153 3228 2886 
Q 3006 2619 2597 2516 
z
" transform="scale(0.015625)"/>
        <path id="DejaVuSans-34" d="M 2419 4116 
L 825 1625 
L 2419 1625 
L 2419 4116 
z
M 2253 4666 
L 3047 4666 
L 3047 1625 
L 3713 1625 
L 3713 1100 
L 3047 1100 
L 3047 0 
L 2419 0 
L 2419 1100 
L 313 1100 
L 313 1709 
L 2253 4666 
z
" transform="scale(0.015625)"/>
       </defs>
       <use xlink:href="#DejaVuSans-33"/>
       <use xlink:href="#DejaVuSans-34" x="63.623047"/>
      </g>
     </g>
    </g>
    <g id="xtick_3">
     <g id="line2d_3">
      <g>
       <use xlink:href="#mc51fe22026" x="145.495604" y="307.584" style="stroke: #000000; stroke-width: 0.8"/>
      </g>
     </g>
     <g id="text_3">
      <!-- 67 -->
      <g transform="translate(139.133104 322.182437) scale(0.1 -0.1)">
       <defs>
        <path id="DejaVuSans-36" d="M 2113 2584 
Q 1688 2584 1439 2293 
Q 1191 2003 1191 1497 
Q 1191 994 1439 701 
Q 1688 409 2113 409 
Q 2538 409 2786 701 
Q 3034 994 3034 1497 
Q 3034 2003 2786 2293 
Q 2538 2584 2113 2584 
z
M 3366 4563 
L 3366 3988 
Q 3128 4100 2886 4159 
Q 2644 4219 2406 4219 
Q 1781 4219 1451 3797 
Q 1122 3375 1075 2522 
Q 1259 2794 1537 2939 
Q 1816 3084 2150 3084 
Q 2853 3084 3261 2657 
Q 3669 2231 3669 1497 
Q 3669 778 3244 343 
Q 2819 -91 2113 -91 
Q 1303 -91 875 529 
Q 447 1150 447 2328 
Q 447 3434 972 4092 
Q 1497 4750 2381 4750 
Q 2619 4750 2861 4703 
Q 3103 4656 3366 4563 
z
" transform="scale(0.015625)"/>
        <path id="DejaVuSans-37" d="M 525 4666 
L 3525 4666 
L 3525 4397 
L 1831 0 
L 1172 0 
L 2766 4134 
L 525 4134 
L 525 4666 
z
" transform="scale(0.015625)"/>
       </defs>
       <use xlink:href="#DejaVuSans-36"/>
       <use xlink:href="#DejaVuSans-37" x="63.623047"/>
      </g>
     </g>
    </g>
    <g id="xtick_4">
     <g id="line2d_4">
      <g>
       <use xlink:href="#mc51fe22026" x="181.327042" y="307.584" style="stroke: #000000; stroke-width: 0.8"/>
      </g>
     </g>
     <g id="text_4">
      <!-- 100 -->
      <g transform="translate(171.783292 322.182437) scale(0.1 -0.1)">
       <defs>
        <path id="DejaVuSans-30" d="M 2034 4250 
Q 1547 4250 1301 3770 
Q 1056 3291 1056 2328 
Q 1056 1369 1301 889 
Q 1547 409 2034 409 
Q 2525 409 2770 889 
Q 3016 1369 3016 2328 
Q 3016 3291 2770 3770 
Q 2525 4250 2034 4250 
z
M 2034 4750 
Q 2819 4750 3233 4129 
Q 3647 3509 3647 2328 
Q 3647 1150 3233 529 
Q 2819 -91 2034 -91 
Q 1250 -91 836 529 
Q 422 1150 422 2328 
Q 422 3509 836 4129 
Q 1250 4750 2034 4750 
z
" transform="scale(0.015625)"/>
       </defs>
       <use xlink:href="#DejaVuSans-31"/>
       <use xlink:href="#DejaVuSans-30" x="63.623047"/>
       <use xlink:href="#DejaVuSans-30" x="127.246094"/>
      </g>
     </g>
    </g>
    <g id="xtick_5">
     <g id="line2d_5">
      <g>
       <use xlink:href="#mc51fe22026" x="217.15848" y="307.584" style="stroke: #000000; stroke-width: 0.8"/>
      </g>
     </g>
     <g id="text_5">
      <!-- 133 -->
      <g transform="translate(207.61473 322.182437) scale(0.1 -0.1)">
       <use xlink:href="#DejaVuSans-31"/>
       <use xlink:href="#DejaVuSans-33" x="63.623047"/>
       <use xlink:href="#DejaVuSans-33" x="127.246094"/>
      </g>
     </g>
    </g>
    <g id="xtick_6">
     <g id="line2d_6">
      <g>
       <use xlink:href="#mc51fe22026" x="254.075719" y="307.584" style="stroke: #000000; stroke-width: 0.8"/>
      </g>
     </g>
     <g id="text_6">
      <!-- 167 -->
      <g transform="translate(244.531969 322.182437) scale(0.1 -0.1)">
       <use xlink:href="#DejaVuSans-31"/>
       <use xlink:href="#DejaVuSans-36" x="63.623047"/>
       <use xlink:href="#DejaVuSans-37" x="127.246094"/>
      </g>
     </g>
    </g>
    <g id="xtick_7">
     <g id="line2d_7">
      <g>
       <use xlink:href="#mc51fe22026" x="289.907157" y="307.584" style="stroke: #000000; stroke-width: 0.8"/>
      </g>
     </g>
     <g id="text_7">
      <!-- 200 -->
      <g transform="translate(280.363407 322.182437) scale(0.1 -0.1)">
       <defs>
        <path id="DejaVuSans-32" d="M 1228 531 
L 3431 531 
L 3431 0 
L 469 0 
L 469 531 
Q 828 903 1448 1529 
Q 2069 2156 2228 2338 
Q 2531 2678 2651 2914 
Q 2772 3150 2772 3378 
Q 2772 3750 2511 3984 
Q 2250 4219 1831 4219 
Q 1534 4219 1204 4116 
Q 875 4013 500 3803 
L 500 4441 
Q 881 4594 1212 4672 
Q 1544 4750 1819 4750 
Q 2544 4750 2975 4387 
Q 3406 4025 3406 3419 
Q 3406 3131 3298 2873 
Q 3191 2616 2906 2266 
Q 2828 2175 2409 1742 
Q 1991 1309 1228 531 
z
" transform="scale(0.015625)"/>
       </defs>
       <use xlink:href="#DejaVuSans-32"/>
       <use xlink:href="#DejaVuSans-30" x="63.623047"/>
       <use xlink:href="#DejaVuSans-30" x="127.246094"/>
      </g>
     </g>
    </g>
    <g id="xtick_8">
     <g id="line2d_8">
      <g>
       <use xlink:href="#mc51fe22026" x="325.738595" y="307.584" style="stroke: #000000; stroke-width: 0.8"/>
      </g>
     </g>
     <g id="text_8">
      <!-- 233 -->
      <g transform="translate(316.194845 322.182437) scale(0.1 -0.1)">
       <use xlink:href="#DejaVuSans-32"/>
       <use xlink:href="#DejaVuSans-33" x="63.623047"/>
       <use xlink:href="#DejaVuSans-33" x="127.246094"/>
      </g>
     </g>
    </g>
    <g id="xtick_9">
     <g id="line2d_9">
      <g>
       <use xlink:href="#mc51fe22026" x="361.570033" y="307.584" style="stroke: #000000; stroke-width: 0.8"/>
      </g>
     </g>
     <g id="text_9">
      <!-- 266 -->
      <g transform="translate(352.026283 322.182437) scale(0.1 -0.1)">
       <use xlink:href="#DejaVuSans-32"/>
       <use xlink:href="#DejaVuSans-36" x="63.623047"/>
       <use xlink:href="#DejaVuSans-36" x="127.246094"/>
      </g>
     </g>
    </g>
    <g id="xtick_10">
     <g id="line2d_10">
      <g>
       <use xlink:href="#mc51fe22026" x="398.487273" y="307.584" style="stroke: #000000; stroke-width: 0.8"/>
      </g>
     </g>
     <g id="text_10">
      <!-- 300 -->
      <g transform="translate(388.943523 322.182437) scale(0.1 -0.1)">
       <use xlink:href="#DejaVuSans-33"/>
       <use xlink:href="#DejaVuSans-30" x="63.623047"/>
       <use xlink:href="#DejaVuSans-30" x="127.246094"/>
      </g>
     </g>
    </g>
    <g id="text_11">
     <!-- Epochs -->
     <g transform="translate(218.244375 335.860562) scale(0.1 -0.1)">
      <defs>
       <path id="DejaVuSans-45" d="M 628 4666 
L 3578 4666 
L 3578 4134 
L 1259 4134 
L 1259 2753 
L 3481 2753 
L 3481 2222 
L 1259 2222 
L 1259 531 
L 3634 531 
L 3634 0 
L 628 0 
L 628 4666 
z
" transform="scale(0.015625)"/>
       <path id="DejaVuSans-70" d="M 1159 525 
L 1159 -1331 
L 581 -1331 
L 581 3500 
L 1159 3500 
L 1159 2969 
Q 1341 3281 1617 3432 
Q 1894 3584 2278 3584 
Q 2916 3584 3314 3078 
Q 3713 2572 3713 1747 
Q 3713 922 3314 415 
Q 2916 -91 2278 -91 
Q 1894 -91 1617 61 
Q 1341 213 1159 525 
z
M 3116 1747 
Q 3116 2381 2855 2742 
Q 2594 3103 2138 3103 
Q 1681 3103 1420 2742 
Q 1159 2381 1159 1747 
Q 1159 1113 1420 752 
Q 1681 391 2138 391 
Q 2594 391 2855 752 
Q 3116 1113 3116 1747 
z
" transform="scale(0.015625)"/>
       <path id="DejaVuSans-6f" d="M 1959 3097 
Q 1497 3097 1228 2736 
Q 959 2375 959 1747 
Q 959 1119 1226 758 
Q 1494 397 1959 397 
Q 2419 397 2687 759 
Q 2956 1122 2956 1747 
Q 2956 2369 2687 2733 
Q 2419 3097 1959 3097 
z
M 1959 3584 
Q 2709 3584 3137 3096 
Q 3566 2609 3566 1747 
Q 3566 888 3137 398 
Q 2709 -91 1959 -91 
Q 1206 -91 779 398 
Q 353 888 353 1747 
Q 353 2609 779 3096 
Q 1206 3584 1959 3584 
z
" transform="scale(0.015625)"/>
       <path id="DejaVuSans-63" d="M 3122 3366 
L 3122 2828 
Q 2878 2963 2633 3030 
Q 2388 3097 2138 3097 
Q 1578 3097 1268 2742 
Q 959 2388 959 1747 
Q 959 1106 1268 751 
Q 1578 397 2138 397 
Q 2388 397 2633 464 
Q 2878 531 3122 666 
L 3122 134 
Q 2881 22 2623 -34 
Q 2366 -91 2075 -91 
Q 1284 -91 818 406 
Q 353 903 353 1747 
Q 353 2603 823 3093 
Q 1294 3584 2113 3584 
Q 2378 3584 2631 3529 
Q 2884 3475 3122 3366 
z
" transform="scale(0.015625)"/>
       <path id="DejaVuSans-68" d="M 3513 2113 
L 3513 0 
L 2938 0 
L 2938 2094 
Q 2938 2591 2744 2837 
Q 2550 3084 2163 3084 
Q 1697 3084 1428 2787 
Q 1159 2491 1159 1978 
L 1159 0 
L 581 0 
L 581 4863 
L 1159 4863 
L 1159 2956 
Q 1366 3272 1645 3428 
Q 1925 3584 2291 3584 
Q 2894 3584 3203 3211 
Q 3513 2838 3513 2113 
z
" transform="scale(0.015625)"/>
       <path id="DejaVuSans-73" d="M 2834 3397 
L 2834 2853 
Q 2591 2978 2328 3040 
Q 2066 3103 1784 3103 
Q 1356 3103 1142 2972 
Q 928 2841 928 2578 
Q 928 2378 1081 2264 
Q 1234 2150 1697 2047 
L 1894 2003 
Q 2506 1872 2764 1633 
Q 3022 1394 3022 966 
Q 3022 478 2636 193 
Q 2250 -91 1575 -91 
Q 1294 -91 989 -36 
Q 684 19 347 128 
L 347 722 
Q 666 556 975 473 
Q 1284 391 1588 391 
Q 1994 391 2212 530 
Q 2431 669 2431 922 
Q 2431 1156 2273 1281 
Q 2116 1406 1581 1522 
L 1381 1569 
Q 847 1681 609 1914 
Q 372 2147 372 2553 
Q 372 3047 722 3315 
Q 1072 3584 1716 3584 
Q 2034 3584 2315 3537 
Q 2597 3491 2834 3397 
z
" transform="scale(0.015625)"/>
      </defs>
      <use xlink:href="#DejaVuSans-45"/>
      <use xlink:href="#DejaVuSans-70" x="63.183594"/>
      <use xlink:href="#DejaVuSans-6f" x="126.660156"/>
      <use xlink:href="#DejaVuSans-63" x="187.841797"/>
      <use xlink:href="#DejaVuSans-68" x="242.822266"/>
      <use xlink:href="#DejaVuSans-73" x="306.201172"/>
     </g>
    </g>
   </g>
   <g id="matplotlib.axis_2">
    <g id="ytick_1">
     <g id="line2d_11">
      <defs>
       <path id="m15ef23388d" d="M 0 0 
L -3.5 0 
" style="stroke: #000000; stroke-width: 0.8"/>
      </defs>
      <g>
       <use xlink:href="#m15ef23388d" x="57.6" y="287.952694" style="stroke: #000000; stroke-width: 0.8"/>
      </g>
     </g>
     <g id="text_12">
      <!-- 30 -->
      <g transform="translate(37.875 291.751913) scale(0.1 -0.1)">
       <use xlink:href="#DejaVuSans-33"/>
       <use xlink:href="#DejaVuSans-30" x="63.623047"/>
      </g>
     </g>
    </g>
    <g id="ytick_2">
     <g id="line2d_12">
      <g>
       <use xlink:href="#m15ef23388d" x="57.6" y="252.675046" style="stroke: #000000; stroke-width: 0.8"/>
      </g>
     </g>
     <g id="text_13">
      <!-- 40 -->
      <g transform="translate(37.875 256.474265) scale(0.1 -0.1)">
       <use xlink:href="#DejaVuSans-34"/>
       <use xlink:href="#DejaVuSans-30" x="63.623047"/>
      </g>
     </g>
    </g>
    <g id="ytick_3">
     <g id="line2d_13">
      <g>
       <use xlink:href="#m15ef23388d" x="57.6" y="217.397398" style="stroke: #000000; stroke-width: 0.8"/>
      </g>
     </g>
     <g id="text_14">
      <!-- 50 -->
      <g transform="translate(37.875 221.196617) scale(0.1 -0.1)">
       <defs>
        <path id="DejaVuSans-35" d="M 691 4666 
L 3169 4666 
L 3169 4134 
L 1269 4134 
L 1269 2991 
Q 1406 3038 1543 3061 
Q 1681 3084 1819 3084 
Q 2600 3084 3056 2656 
Q 3513 2228 3513 1497 
Q 3513 744 3044 326 
Q 2575 -91 1722 -91 
Q 1428 -91 1123 -41 
Q 819 9 494 109 
L 494 744 
Q 775 591 1075 516 
Q 1375 441 1709 441 
Q 2250 441 2565 725 
Q 2881 1009 2881 1497 
Q 2881 1984 2565 2268 
Q 2250 2553 1709 2553 
Q 1456 2553 1204 2497 
Q 953 2441 691 2322 
L 691 4666 
z
" transform="scale(0.015625)"/>
       </defs>
       <use xlink:href="#DejaVuSans-35"/>
       <use xlink:href="#DejaVuSans-30" x="63.623047"/>
      </g>
     </g>
    </g>
    <g id="ytick_4">
     <g id="line2d_14">
      <g>
       <use xlink:href="#m15ef23388d" x="57.6" y="182.11975" style="stroke: #000000; stroke-width: 0.8"/>
      </g>
     </g>
     <g id="text_15">
      <!-- 60 -->
      <g transform="translate(37.875 185.918969) scale(0.1 -0.1)">
       <use xlink:href="#DejaVuSans-36"/>
       <use xlink:href="#DejaVuSans-30" x="63.623047"/>
      </g>
     </g>
    </g>
    <g id="ytick_5">
     <g id="line2d_15">
      <g>
       <use xlink:href="#m15ef23388d" x="57.6" y="146.842102" style="stroke: #000000; stroke-width: 0.8"/>
      </g>
     </g>
     <g id="text_16">
      <!-- 70 -->
      <g transform="translate(37.875 150.64132) scale(0.1 -0.1)">
       <use xlink:href="#DejaVuSans-37"/>
       <use xlink:href="#DejaVuSans-30" x="63.623047"/>
      </g>
     </g>
    </g>
    <g id="ytick_6">
     <g id="line2d_16">
      <g>
       <use xlink:href="#m15ef23388d" x="57.6" y="111.564454" style="stroke: #000000; stroke-width: 0.8"/>
      </g>
     </g>
     <g id="text_17">
      <!-- 80 -->
      <g transform="translate(37.875 115.363672) scale(0.1 -0.1)">
       <defs>
        <path id="DejaVuSans-38" d="M 2034 2216 
Q 1584 2216 1326 1975 
Q 1069 1734 1069 1313 
Q 1069 891 1326 650 
Q 1584 409 2034 409 
Q 2484 409 2743 651 
Q 3003 894 3003 1313 
Q 3003 1734 2745 1975 
Q 2488 2216 2034 2216 
z
M 1403 2484 
Q 997 2584 770 2862 
Q 544 3141 544 3541 
Q 544 4100 942 4425 
Q 1341 4750 2034 4750 
Q 2731 4750 3128 4425 
Q 3525 4100 3525 3541 
Q 3525 3141 3298 2862 
Q 3072 2584 2669 2484 
Q 3125 2378 3379 2068 
Q 3634 1759 3634 1313 
Q 3634 634 3220 271 
Q 2806 -91 2034 -91 
Q 1263 -91 848 271 
Q 434 634 434 1313 
Q 434 1759 690 2068 
Q 947 2378 1403 2484 
z
M 1172 3481 
Q 1172 3119 1398 2916 
Q 1625 2713 2034 2713 
Q 2441 2713 2670 2916 
Q 2900 3119 2900 3481 
Q 2900 3844 2670 4047 
Q 2441 4250 2034 4250 
Q 1625 4250 1398 4047 
Q 1172 3844 1172 3481 
z
" transform="scale(0.015625)"/>
       </defs>
       <use xlink:href="#DejaVuSans-38"/>
       <use xlink:href="#DejaVuSans-30" x="63.623047"/>
      </g>
     </g>
    </g>
    <g id="ytick_7">
     <g id="line2d_17">
      <g>
       <use xlink:href="#m15ef23388d" x="57.6" y="76.286805" style="stroke: #000000; stroke-width: 0.8"/>
      </g>
     </g>
     <g id="text_18">
      <!-- 90 -->
      <g transform="translate(37.875 80.086024) scale(0.1 -0.1)">
       <defs>
        <path id="DejaVuSans-39" d="M 703 97 
L 703 672 
Q 941 559 1184 500 
Q 1428 441 1663 441 
Q 2288 441 2617 861 
Q 2947 1281 2994 2138 
Q 2813 1869 2534 1725 
Q 2256 1581 1919 1581 
Q 1219 1581 811 2004 
Q 403 2428 403 3163 
Q 403 3881 828 4315 
Q 1253 4750 1959 4750 
Q 2769 4750 3195 4129 
Q 3622 3509 3622 2328 
Q 3622 1225 3098 567 
Q 2575 -91 1691 -91 
Q 1453 -91 1209 -44 
Q 966 3 703 97 
z
M 1959 2075 
Q 2384 2075 2632 2365 
Q 2881 2656 2881 3163 
Q 2881 3666 2632 3958 
Q 2384 4250 1959 4250 
Q 1534 4250 1286 3958 
Q 1038 3666 1038 3163 
Q 1038 2656 1286 2365 
Q 1534 2075 1959 2075 
z
" transform="scale(0.015625)"/>
       </defs>
       <use xlink:href="#DejaVuSans-39"/>
       <use xlink:href="#DejaVuSans-30" x="63.623047"/>
      </g>
     </g>
    </g>
    <g id="text_19">
     <!-- Accuracy -->
     <g transform="translate(31.795312 197.356125) rotate(-90) scale(0.1 -0.1)">
      <defs>
       <path id="DejaVuSans-41" d="M 2188 4044 
L 1331 1722 
L 3047 1722 
L 2188 4044 
z
M 1831 4666 
L 2547 4666 
L 4325 0 
L 3669 0 
L 3244 1197 
L 1141 1197 
L 716 0 
L 50 0 
L 1831 4666 
z
" transform="scale(0.015625)"/>
       <path id="DejaVuSans-75" d="M 544 1381 
L 544 3500 
L 1119 3500 
L 1119 1403 
Q 1119 906 1312 657 
Q 1506 409 1894 409 
Q 2359 409 2629 706 
Q 2900 1003 2900 1516 
L 2900 3500 
L 3475 3500 
L 3475 0 
L 2900 0 
L 2900 538 
Q 2691 219 2414 64 
Q 2138 -91 1772 -91 
Q 1169 -91 856 284 
Q 544 659 544 1381 
z
M 1991 3584 
L 1991 3584 
z
" transform="scale(0.015625)"/>
       <path id="DejaVuSans-72" d="M 2631 2963 
Q 2534 3019 2420 3045 
Q 2306 3072 2169 3072 
Q 1681 3072 1420 2755 
Q 1159 2438 1159 1844 
L 1159 0 
L 581 0 
L 581 3500 
L 1159 3500 
L 1159 2956 
Q 1341 3275 1631 3429 
Q 1922 3584 2338 3584 
Q 2397 3584 2469 3576 
Q 2541 3569 2628 3553 
L 2631 2963 
z
" transform="scale(0.015625)"/>
       <path id="DejaVuSans-61" d="M 2194 1759 
Q 1497 1759 1228 1600 
Q 959 1441 959 1056 
Q 959 750 1161 570 
Q 1363 391 1709 391 
Q 2188 391 2477 730 
Q 2766 1069 2766 1631 
L 2766 1759 
L 2194 1759 
z
M 3341 1997 
L 3341 0 
L 2766 0 
L 2766 531 
Q 2569 213 2275 61 
Q 1981 -91 1556 -91 
Q 1019 -91 701 211 
Q 384 513 384 1019 
Q 384 1609 779 1909 
Q 1175 2209 1959 2209 
L 2766 2209 
L 2766 2266 
Q 2766 2663 2505 2880 
Q 2244 3097 1772 3097 
Q 1472 3097 1187 3025 
Q 903 2953 641 2809 
L 641 3341 
Q 956 3463 1253 3523 
Q 1550 3584 1831 3584 
Q 2591 3584 2966 3190 
Q 3341 2797 3341 1997 
z
" transform="scale(0.015625)"/>
       <path id="DejaVuSans-79" d="M 2059 -325 
Q 1816 -950 1584 -1140 
Q 1353 -1331 966 -1331 
L 506 -1331 
L 506 -850 
L 844 -850 
Q 1081 -850 1212 -737 
Q 1344 -625 1503 -206 
L 1606 56 
L 191 3500 
L 800 3500 
L 1894 763 
L 2988 3500 
L 3597 3500 
L 2059 -325 
z
" transform="scale(0.015625)"/>
      </defs>
      <use xlink:href="#DejaVuSans-41"/>
      <use xlink:href="#DejaVuSans-63" x="66.658203"/>
      <use xlink:href="#DejaVuSans-63" x="121.638672"/>
      <use xlink:href="#DejaVuSans-75" x="176.619141"/>
      <use xlink:href="#DejaVuSans-72" x="239.998047"/>
      <use xlink:href="#DejaVuSans-61" x="281.111328"/>
      <use xlink:href="#DejaVuSans-63" x="342.390625"/>
      <use xlink:href="#DejaVuSans-79" x="397.371094"/>
     </g>
    </g>
   </g>
   <g id="line2d_18">
    <path d="M 73.832727 295.488 
L 74.918528 227.769027 
L 76.00433 196.463642 
L 77.090131 176.969213 
L 78.175932 161.976213 
L 79.261733 151.209475 
L 80.347534 142.672284 
L 81.433335 136.152974 
L 82.519137 130.529717 
L 83.604938 125.534402 
L 84.690739 121.879638 
L 85.77654 116.333992 
L 86.862341 112.326451 
L 87.948142 109.511294 
L 89.033943 105.821252 
L 90.119745 102.702708 
L 91.205546 100.099218 
L 92.291347 97.947281 
L 93.377148 96.726675 
L 94.462949 96.557342 
L 95.54875 121.63975 
L 96.634552 122.366469 
L 98.806154 116.785545 
L 99.891955 115.45205 
L 102.063557 111.543287 
L 103.149358 108.671686 
L 105.320961 104.466591 
L 106.406762 103.676371 
L 107.492563 101.206936 
L 108.578364 100.480217 
L 109.664165 98.511724 
L 110.749967 96.063455 
L 111.835768 94.454794 
L 112.921569 93.149521 
L 114.00737 92.902578 
L 116.178972 88.775093 
L 117.264773 87.512153 
L 118.350575 86.658434 
L 119.436376 85.254384 
L 120.522177 83.47639 
L 121.607978 82.382783 
L 122.693779 80.435457 
L 123.77958 79.863959 
L 124.865382 78.198854 
L 125.951183 77.563856 
L 128.122785 75.200254 
L 129.208586 74.854533 
L 130.294387 73.640982 
L 131.380189 74.127813 
L 132.46599 72.561486 
L 133.551791 71.616045 
L 134.637592 71.947655 
L 135.723393 71.870044 
L 136.809194 71.489045 
L 137.894995 71.841822 
L 138.980797 92.084136 
L 140.066598 95.379069 
L 142.2382 94.652349 
L 143.324001 94.080851 
L 144.409802 92.542746 
L 145.495604 92.352246 
L 146.581405 92.302858 
L 147.667206 90.934085 
L 149.838808 89.649979 
L 150.924609 88.499927 
L 152.01041 88.528149 
L 153.096212 86.912433 
L 154.182013 86.912433 
L 155.267814 86.482046 
L 156.353615 86.453824 
L 157.439416 85.430772 
L 158.525217 85.162662 
L 159.611019 84.273665 
L 160.69682 83.906777 
L 161.782621 83.730389 
L 162.868422 82.086451 
L 163.954223 82.185228 
L 167.211627 80.534234 
L 168.297428 80.54129 
L 169.383229 79.574682 
L 170.46903 78.911462 
L 171.554831 79.080795 
L 172.640632 77.592078 
L 173.726434 77.034692 
L 174.812235 77.175802 
L 175.898036 76.456138 
L 176.983837 76.336194 
L 178.069638 75.807029 
L 179.155439 75.066199 
L 180.24124 74.903922 
L 181.327042 73.937314 
L 182.412843 73.161206 
L 183.498644 72.011154 
L 184.584445 72.61793 
L 185.670246 71.707767 
L 186.756047 71.256213 
L 187.841849 70.261383 
L 188.92765 70.416605 
L 191.099252 69.132498 
L 193.270854 68.702111 
L 194.356656 67.989503 
L 195.442457 67.770781 
L 198.69986 66.458453 
L 199.785661 66.543119 
L 200.871462 65.047347 
L 201.957264 65.534178 
L 204.128866 64.179517 
L 205.214667 64.391182 
L 206.300468 63.629185 
L 207.386269 64.123072 
L 208.472071 63.608019 
L 209.557872 63.459853 
L 210.643673 62.182802 
L 211.729474 63.121187 
L 212.815275 62.211024 
L 213.901076 62.394468 
L 214.986877 61.844136 
L 218.244281 61.957025 
L 219.330082 60.722307 
L 220.415883 61.724192 
L 221.501684 61.618359 
L 222.587486 61.96408 
L 223.673287 61.166805 
L 224.759088 61.498415 
L 225.844889 79.765182 
L 226.93069 82.516838 
L 228.016491 84.266609 
L 230.188094 83.942055 
L 231.273895 83.441112 
L 232.359696 83.546945 
L 233.445497 83.038947 
L 234.531298 82.665004 
L 235.617099 81.931229 
L 236.702901 81.987673 
L 237.788702 81.211565 
L 238.874503 81.797174 
L 239.960304 81.373842 
L 241.046105 81.098677 
L 242.131906 81.663119 
L 243.217708 80.174402 
L 244.303509 80.421346 
L 245.38931 80.41429 
L 246.475111 79.60996 
L 247.560912 79.539405 
L 248.646713 79.130184 
L 249.732514 79.101962 
L 250.818316 78.819741 
L 251.904117 78.847963 
L 252.989918 79.101962 
L 255.16152 77.944855 
L 256.247321 78.121243 
L 257.333123 77.712022 
L 258.418924 77.112302 
L 259.504725 77.204024 
L 260.590526 76.696026 
L 261.676327 77.295746 
L 262.762128 76.823026 
L 263.847929 76.554916 
L 264.933731 76.773637 
L 266.019532 76.830081 
L 267.105333 75.976362 
L 268.191134 75.701196 
L 269.276935 75.983418 
L 270.362736 75.729419 
L 271.448538 75.595364 
L 273.62014 74.261868 
L 274.705941 75.249643 
L 275.791742 74.177202 
L 276.877543 74.445312 
L 277.963344 74.226591 
L 279.049146 74.741644 
L 280.134947 73.147095 
L 281.220748 73.61276 
L 282.306549 73.386983 
L 283.39235 72.716707 
L 284.478151 72.815485 
L 285.563953 73.499871 
L 286.649754 72.780207 
L 287.735555 72.547375 
L 288.821356 71.6866 
L 289.907157 72.505042 
L 290.992958 71.136269 
L 292.07876 72.28632 
L 293.164561 71.905322 
L 294.250362 71.143324 
L 296.421964 71.037491 
L 297.507765 69.746329 
L 298.593566 69.936829 
L 299.679368 69.901551 
L 300.765169 69.471164 
L 301.85097 70.162606 
L 302.936771 68.899666 
L 304.022572 69.421775 
L 305.108373 69.090165 
L 306.194175 69.139554 
L 307.279976 68.659778 
L 308.365777 69.315942 
L 310.537379 67.707281 
L 311.62318 68.229391 
L 312.708981 67.728448 
L 313.794783 67.763726 
L 314.880584 68.053002 
L 315.966385 67.389783 
L 317.052186 66.543119 
L 318.137987 66.423175 
L 319.223788 66.867673 
L 320.30959 66.204454 
L 321.395391 65.922232 
L 322.481192 65.237846 
L 323.566993 64.948569 
L 324.652794 65.033236 
L 325.738595 65.308401 
L 326.824396 65.124958 
L 327.910198 64.793348 
L 328.995999 64.087795 
L 330.0818 63.685629 
L 331.167601 63.981962 
L 332.253402 63.212909 
L 333.339203 63.749129 
L 334.425005 63.297575 
L 336.596607 63.050632 
L 337.682408 62.387412 
L 338.768209 62.168691 
L 339.85401 62.408579 
L 340.939811 61.978191 
L 342.025613 62.218079 
L 343.111414 62.168691 
L 345.283016 61.378471 
L 346.368817 61.336138 
L 347.454618 61.688915 
L 348.54042 60.447141 
L 349.626221 61.378471 
L 350.712022 60.778751 
L 351.797823 60.510641 
L 352.883624 60.517697 
L 353.969425 59.826255 
L 355.055227 60.418919 
L 356.141028 59.769811 
L 357.226829 59.713366 
L 358.31263 59.036035 
L 359.398431 59.113646 
L 360.484232 59.318257 
L 362.655835 58.873758 
L 363.741636 58.351649 
L 364.827437 58.330483 
L 365.913238 58.42926 
L 366.999039 58.238761 
L 368.08484 59.014869 
L 369.170642 59.226535 
L 370.256443 58.972536 
L 371.342244 59.417034 
L 372.428045 59.473478 
L 373.513846 60.411864 
L 374.599647 59.875643 
L 375.685448 60.489475 
L 376.77125 60.376586 
L 377.857051 60.016754 
L 378.942852 60.171976 
L 380.028653 60.849307 
L 382.200255 60.087309 
L 383.286057 60.454197 
L 384.371858 59.635755 
L 385.457659 60.362475 
L 386.54346 60.602363 
L 387.629261 60.306031 
L 388.715062 60.362475 
L 389.800863 60.595308 
L 390.886665 59.96031 
L 393.058267 60.200198 
L 394.144068 59.910921 
L 395.229869 59.981476 
L 396.31567 60.411864 
L 397.401472 59.932088 
L 398.487273 60.313086 
L 398.487273 60.313086 
" clip-path="url(#pb28ab1c532)" style="fill: none; stroke: #1f77b4; stroke-width: 1.5; stroke-linecap: square"/>
   </g>
   <g id="line2d_19">
    <path d="M 73.832727 236.235662 
L 74.918528 197.218583 
L 76.00433 178.450874 
L 77.090131 145.889605 
L 78.175932 126.945508 
L 79.261733 118.337762 
L 80.347534 140.139349 
L 81.433335 114.351388 
L 82.519137 114.492498 
L 83.604938 99.675886 
L 84.690739 97.030063 
L 85.77654 92.585079 
L 86.862341 86.799545 
L 87.948142 79.602904 
L 89.033943 81.931229 
L 90.119745 78.61513 
L 91.205546 76.992358 
L 92.291347 75.087365 
L 93.377148 74.240702 
L 94.462949 74.170147 
L 95.54875 140.668513 
L 96.634552 104.403091 
L 97.720353 85.705937 
L 98.806154 106.625583 
L 99.891955 93.713964 
L 100.977756 86.587879 
L 102.063557 88.245928 
L 103.149358 86.799545 
L 104.23516 78.509297 
L 105.320961 85.635382 
L 106.406762 87.187599 
L 107.492563 83.730389 
L 108.578364 77.627356 
L 109.664165 78.297631 
L 110.749967 75.440142 
L 111.835768 74.769867 
L 112.921569 73.464594 
L 114.00737 69.054888 
L 115.093171 70.254328 
L 116.178972 67.643782 
L 117.264773 68.666833 
L 118.350575 69.231276 
L 119.436376 68.666833 
L 120.522177 66.726563 
L 121.607978 65.774066 
L 122.693779 64.010184 
L 123.77958 64.36296 
L 125.951183 62.069913 
L 127.036984 62.105191 
L 128.122785 61.22325 
L 129.208586 61.717137 
L 130.294387 61.576026 
L 131.380189 60.129643 
L 132.46599 59.812144 
L 133.551791 60.235476 
L 134.637592 59.741588 
L 135.723393 60.129643 
L 136.809194 59.917977 
L 137.894995 60.02381 
L 138.980797 79.708737 
L 140.066598 87.46982 
L 141.152399 90.292032 
L 142.2382 73.640982 
L 143.324001 75.545975 
L 144.409802 84.823996 
L 145.495604 75.757641 
L 146.581405 72.582652 
L 148.753007 78.191798 
L 149.838808 76.780692 
L 150.924609 80.802344 
L 152.01041 68.772666 
L 153.096212 69.584052 
L 154.182013 72.864874 
L 155.267814 71.030436 
L 156.353615 66.479619 
L 157.439416 66.76184 
L 158.525217 72.088765 
L 159.611019 67.432116 
L 160.69682 68.455168 
L 161.782621 67.890725 
L 162.868422 70.360161 
L 163.954223 65.915177 
L 165.040024 66.902951 
L 166.125825 64.856847 
L 167.211627 66.02101 
L 168.297428 68.561 
L 169.383229 67.749615 
L 170.46903 67.749615 
L 171.554831 65.915177 
L 172.640632 68.525723 
L 173.726434 63.939629 
L 174.812235 61.893525 
L 175.898036 65.386012 
L 176.983837 65.5624 
L 178.069638 62.316857 
L 179.155439 60.694085 
L 180.24124 64.22185 
L 181.327042 62.951854 
L 182.412843 62.175746 
L 183.498644 59.812144 
L 184.584445 59.953254 
L 185.670246 59.42409 
L 186.756047 60.835196 
L 187.841849 61.787692 
L 188.92765 61.117417 
L 191.099252 58.012984 
L 192.185053 60.059087 
L 193.270854 59.388812 
L 194.356656 57.62493 
L 196.528258 58.789092 
L 197.614059 58.189372 
L 198.69986 59.42409 
L 199.785661 57.660207 
L 200.871462 57.76604 
L 201.957264 57.413264 
L 203.043065 56.919377 
L 204.128866 57.554374 
L 205.214667 57.02521 
L 206.300468 56.284379 
L 207.386269 56.284379 
L 208.472071 56.742988 
L 209.557872 56.213824 
L 211.729474 56.002158 
L 212.815275 55.96688 
L 213.901076 55.331882 
L 217.15848 55.790492 
L 218.244281 55.049661 
L 219.330082 54.908551 
L 220.415883 54.979106 
L 221.501684 54.908551 
L 222.587486 55.155494 
L 224.759088 55.36716 
L 225.844889 71.630156 
L 226.93069 72.053488 
L 228.016491 83.377613 
L 229.102292 72.759041 
L 230.188094 70.007384 
L 231.273895 73.182372 
L 232.359696 71.171546 
L 233.445497 70.395438 
L 234.531298 75.369587 
L 235.617099 69.866273 
L 236.702901 72.794318 
L 237.788702 78.227076 
L 238.874503 70.607104 
L 239.960304 69.548775 
L 241.046105 72.01821 
L 242.131906 67.714337 
L 243.217708 73.041262 
L 244.303509 67.643782 
L 245.38931 71.030436 
L 246.475111 68.102391 
L 247.560912 64.645182 
L 248.646713 68.208224 
L 249.732514 66.409064 
L 250.818316 71.065713 
L 251.904117 69.301831 
L 252.989918 70.995158 
L 254.075719 65.42129 
L 255.16152 68.772666 
L 256.247321 67.82017 
L 257.333123 66.550175 
L 258.418924 64.327683 
L 259.504725 65.103791 
L 260.590526 64.82157 
L 261.676327 66.973506 
L 262.762128 66.373786 
L 263.847929 63.586852 
L 264.933731 63.551574 
L 266.019532 64.609904 
L 267.105333 64.080739 
L 268.191134 66.409064 
L 269.276935 65.632956 
L 270.362736 67.643782 
L 271.448538 62.951854 
L 272.534339 62.951854 
L 273.62014 65.033236 
L 274.705941 64.151294 
L 275.791742 72.229876 
L 276.877543 63.869073 
L 277.963344 64.609904 
L 279.049146 63.657407 
L 280.134947 68.737389 
L 281.220748 62.669633 
L 282.306549 61.611304 
L 283.39235 64.574626 
L 284.478151 62.316857 
L 285.563953 62.069913 
L 286.649754 68.737389 
L 287.735555 62.42269 
L 288.821356 64.504071 
L 289.907157 63.16352 
L 290.992958 60.658807 
L 292.07876 59.282979 
L 293.164561 61.082139 
L 294.250362 62.634356 
L 295.336163 60.870473 
L 296.421964 63.798518 
L 297.507765 62.599078 
L 298.593566 63.269353 
L 299.679368 58.506871 
L 300.765169 62.387412 
L 301.85097 59.212424 
L 302.936771 59.177146 
L 304.022572 62.034636 
L 305.108373 59.847421 
L 306.194175 59.635755 
L 307.279976 61.22325 
L 308.365777 59.459367 
L 309.451578 58.083539 
L 310.537379 59.036035 
L 311.62318 59.177146 
L 312.708981 59.529923 
L 313.794783 58.859647 
L 314.880584 60.905751 
L 315.966385 59.494645 
L 317.052186 59.353534 
L 318.137987 56.601878 
L 319.223788 60.517697 
L 320.30959 58.718537 
L 321.395391 58.542148 
L 322.481192 57.589652 
L 323.566993 57.201598 
L 324.652794 56.531322 
L 325.738595 57.907151 
L 326.824396 57.272153 
L 327.910198 58.22465 
L 328.995999 57.695485 
L 330.0818 55.861047 
L 331.167601 57.131042 
L 332.253402 56.037435 
L 333.339203 57.413264 
L 334.425005 56.249101 
L 336.596607 57.342708 
L 337.682408 57.272153 
L 338.768209 56.002158 
L 339.85401 55.896325 
L 340.939811 55.614104 
L 342.025613 56.002158 
L 343.111414 55.790492 
L 344.197215 56.707711 
L 345.283016 56.002158 
L 346.368817 56.143268 
L 347.454618 54.908551 
L 348.54042 55.578826 
L 349.626221 55.861047 
L 350.712022 54.837995 
L 351.797823 54.76744 
L 352.883624 55.578826 
L 353.969425 54.555774 
L 356.141028 54.732162 
L 357.226829 53.709111 
L 358.31263 55.226049 
L 359.398431 54.555774 
L 360.484232 54.061887 
L 361.570033 54.520497 
L 362.655835 54.379386 
L 363.741636 54.026609 
L 364.827437 54.061887 
L 365.913238 53.956054 
L 366.999039 54.097165 
L 368.08484 53.956054 
L 369.170642 54.696885 
L 370.256443 54.202998 
L 371.342244 55.049661 
L 372.428045 55.543548 
L 373.513846 54.696885 
L 374.599647 54.485219 
L 375.685448 55.578826 
L 376.77125 54.943828 
L 377.857051 54.76744 
L 378.942852 55.543548 
L 380.028653 55.226049 
L 381.114454 55.084939 
L 382.200255 55.190772 
L 383.286057 55.155494 
L 384.371858 56.072713 
L 385.457659 54.837995 
L 386.54346 55.543548 
L 387.629261 55.120217 
L 388.715062 54.520497 
L 389.800863 56.107991 
L 390.886665 56.5666 
L 391.972466 55.437715 
L 393.058267 55.684659 
L 394.144068 55.437715 
L 395.229869 56.107991 
L 396.31567 55.684659 
L 397.401472 55.684659 
L 398.487273 55.331882 
L 398.487273 55.331882 
" clip-path="url(#pb28ab1c532)" style="fill: none; stroke: #ff7f0e; stroke-width: 1.5; stroke-linecap: square"/>
   </g>
   <g id="line2d_20">
    <path d="M 73.832727 253.599564 
L 74.918528 238.563987 
L 76.00433 234.379328 
L 77.090131 204.624456 
L 78.175932 190.124127 
L 79.261733 185.890809 
L 80.347534 193.70055 
L 81.433335 192.87335 
L 82.519137 174.164032 
L 83.604938 161.82902 
L 84.690739 167.668079 
L 85.77654 155.041114 
L 86.862341 164.115985 
L 87.948142 152.973114 
L 89.033943 143.241349 
L 90.119745 142.925066 
L 91.205546 143.971231 
L 92.291347 140.054196 
L 93.377148 139.786572 
L 94.462949 140.054196 
L 95.54875 218.832833 
L 96.634552 169.468455 
L 97.720353 155.62502 
L 98.806154 167.230149 
L 99.891955 167.61942 
L 100.977756 166.208314 
L 102.063557 160.15029 
L 103.149358 158.93382 
L 104.23516 149.153396 
L 105.320961 148.691137 
L 106.406762 146.404172 
L 107.492563 162.875185 
L 108.578364 139.810902 
L 109.664165 150.929443 
L 110.749967 143.071043 
L 111.835768 136.210148 
L 112.921569 137.937537 
L 114.00737 136.404784 
L 115.093171 132.925678 
L 116.178972 128.959984 
L 117.264773 130.784689 
L 118.350575 125.894478 
L 119.436376 124.094101 
L 120.522177 128.27876 
L 121.607978 122.87763 
L 122.693779 127.329913 
L 123.77958 120.736642 
L 124.865382 122.269395 
L 125.951183 113.924407 
L 127.036984 111.953724 
L 128.122785 115.943748 
L 129.208586 115.87076 
L 130.294387 113.486477 
L 131.380189 116.065395 
L 132.46599 116.114054 
L 133.551791 115.213865 
L 134.637592 114.727277 
L 135.723393 114.459654 
L 136.809194 113.948736 
L 137.894995 114.19203 
L 138.980797 135.139654 
L 140.066598 134.580078 
L 141.152399 150.394196 
L 142.2382 138.740407 
L 143.324001 145.868925 
L 144.409802 148.058572 
L 145.495604 138.180831 
L 146.581405 137.840219 
L 147.667206 147.353019 
L 148.753007 144.165866 
L 149.838808 134.945019 
L 150.924609 136.891372 
L 152.01041 126.697348 
L 153.096212 138.253819 
L 154.182013 142.268172 
L 155.267814 133.144642 
L 156.353615 126.964972 
L 157.439416 136.380454 
L 158.525217 129.008642 
L 159.611019 128.011136 
L 160.69682 134.117819 
L 161.782621 130.954995 
L 162.868422 131.271278 
L 163.954223 136.356125 
L 165.040024 132.658054 
L 166.125825 122.755983 
L 167.211627 122.90196 
L 168.297428 125.35923 
L 169.383229 129.762854 
L 170.46903 125.188925 
L 171.554831 122.439701 
L 172.640632 134.020501 
L 173.726434 123.510195 
L 174.812235 118.717301 
L 175.898036 121.588172 
L 176.983837 123.70483 
L 178.069638 112.099701 
L 179.155439 115.116548 
L 180.24124 121.880124 
L 181.327042 123.023607 
L 182.412843 122.293724 
L 183.498644 115.286854 
L 184.584445 117.52516 
L 185.670246 116.381677 
L 186.756047 123.266901 
L 187.841849 113.486477 
L 188.92765 113.170195 
L 190.013451 115.822101 
L 191.099252 113.291842 
L 192.185053 117.08723 
L 193.270854 109.326148 
L 194.356656 111.515795 
L 195.442457 110.737254 
L 196.528258 113.437818 
L 197.614059 108.717912 
L 198.69986 109.910054 
L 200.871462 114.946242 
L 201.957264 109.155842 
L 203.043065 109.180171 
L 204.128866 105.287465 
L 205.214667 108.961206 
L 206.300468 106.552595 
L 207.386269 109.058524 
L 208.472071 111.126524 
L 209.557872 106.74723 
L 210.643673 108.742242 
L 211.729474 107.282477 
L 212.815275 106.820218 
L 213.901076 108.158336 
L 214.986877 107.063512 
L 216.072679 106.966195 
L 217.15848 106.211983 
L 218.244281 106.3093 
L 219.330082 106.990524 
L 220.415883 106.138995 
L 221.501684 106.74723 
L 222.587486 105.847042 
L 223.673287 106.990524 
L 224.759088 106.211983 
L 225.844889 134.48276 
L 226.93069 134.750384 
L 228.016491 139.105349 
L 229.102292 144.798431 
L 230.188094 125.188925 
L 231.273895 135.480266 
L 232.359696 143.095372 
L 233.445497 128.011136 
L 234.531298 132.02549 
L 235.617099 129.276266 
L 236.702901 150.199561 
L 237.788702 140.394807 
L 238.874503 135.455937 
L 239.960304 148.739796 
L 241.046105 140.954384 
L 242.131906 128.084125 
L 243.217708 148.56949 
L 244.303509 124.14276 
L 245.38931 142.511466 
L 246.475111 129.616878 
L 247.560912 121.782807 
L 248.646713 133.923184 
L 249.732514 138.010525 
L 250.818316 140.224502 
L 251.904117 133.314948 
L 252.989918 134.969348 
L 254.075719 120.517677 
L 255.16152 128.69236 
L 256.247321 123.461536 
L 257.333123 121.685489 
L 258.418924 117.184548 
L 259.504725 125.35923 
L 260.590526 127.159607 
L 261.676327 119.666148 
L 262.762128 127.621866 
L 263.847929 128.668031 
L 264.933731 120.152736 
L 266.019532 131.855184 
L 267.105333 131.709207 
L 268.191134 128.303089 
L 269.276935 123.193913 
L 270.362736 125.067278 
L 271.448538 130.492737 
L 272.534339 118.717301 
L 273.62014 121.198901 
L 274.705941 124.872642 
L 275.791742 136.234478 
L 276.877543 125.675513 
L 277.963344 130.541395 
L 279.049146 120.371701 
L 280.134947 120.639324 
L 281.220748 119.714807 
L 282.306549 124.653678 
L 285.563953 114.702948 
L 286.649754 139.081019 
L 287.735555 126.089113 
L 288.821356 120.39603 
L 289.907157 113.924407 
L 290.992958 118.522666 
L 292.07876 116.381677 
L 293.164561 110.956218 
L 294.250362 119.520171 
L 295.336163 112.245677 
L 296.421964 113.875748 
L 297.507765 112.415983 
L 298.593566 125.626854 
L 299.679368 108.571936 
L 300.765169 118.206383 
L 301.85097 115.530148 
L 302.936771 109.180171 
L 304.022572 120.736642 
L 305.108373 111.929395 
L 306.194175 120.42036 
L 307.279976 121.24756 
L 308.365777 115.384171 
L 309.451578 117.330524 
L 310.537379 120.542007 
L 311.62318 104.6549 
L 312.708981 108.717912 
L 313.794783 108.985536 
L 314.880584 110.907559 
L 315.966385 107.817724 
L 317.052186 112.318665 
L 318.137987 105.993018 
L 319.223788 115.651795 
L 320.30959 107.671748 
L 321.395391 115.359842 
L 322.481192 103.633065 
L 323.566993 112.805254 
L 324.652794 106.455277 
L 325.738595 105.798383 
L 326.824396 105.725395 
L 327.910198 103.487089 
L 328.995999 102.027324 
L 330.0818 102.440924 
L 331.167601 103.730383 
L 332.253402 103.292453 
L 333.339203 115.45716 
L 334.425005 106.503936 
L 335.510806 109.910054 
L 336.596607 108.474618 
L 337.682408 111.783418 
L 338.768209 101.321771 
L 339.85401 102.027324 
L 340.939811 108.742242 
L 342.025613 102.830194 
L 343.111414 105.725395 
L 344.197215 109.618101 
L 345.283016 103.43843 
L 346.368817 103.803371 
L 347.454618 102.684218 
L 348.54042 109.788406 
L 349.626221 102.367936 
L 350.712022 99.983653 
L 351.797823 104.922524 
L 352.883624 102.392265 
L 353.969425 107.98803 
L 355.055227 100.470241 
L 357.226829 102.294947 
L 358.31263 99.862006 
L 359.398431 99.059136 
L 360.484232 99.983653 
L 361.570033 102.294947 
L 362.655835 100.470241 
L 363.741636 102.781536 
L 364.827437 102.270618 
L 365.913238 101.200124 
L 366.999039 97.721018 
L 368.08484 98.47523 
L 369.170642 102.562571 
L 370.256443 99.375418 
L 371.342244 101.808359 
L 372.428045 105.4821 
L 373.513846 104.800877 
L 374.599647 102.635559 
L 375.685448 101.37043 
L 376.77125 103.803371 
L 377.857051 101.321771 
L 378.942852 103.560077 
L 380.028653 104.070995 
L 381.114454 101.224453 
L 382.200255 102.270618 
L 383.286057 100.494571 
L 384.371858 103.608736 
L 385.457659 104.143983 
L 386.54346 102.878853 
L 387.629261 101.005489 
L 388.715062 109.350477 
L 389.800863 104.460265 
L 390.886665 105.165818 
L 391.972466 107.623089 
L 393.058267 104.192642 
L 394.144068 103.02483 
L 395.229869 111.345489 
L 396.31567 103.170806 
L 397.401472 107.647418 
L 398.487273 107.428453 
L 398.487273 107.428453 
" clip-path="url(#pb28ab1c532)" style="fill: none; stroke: #2ca02c; stroke-width: 1.5; stroke-linecap: square"/>
   </g>
   <g id="line2d_21">
    <path d="M 368.08484 53.814944 
L 369.170642 53.991332 
L 370.256443 54.344108 
L 371.342244 54.061887 
L 372.428045 53.568 
L 373.513846 54.626329 
L 374.599647 54.449941 
L 376.77125 54.873273 
L 377.857051 55.508271 
L 378.942852 54.238275 
L 380.028653 55.790492 
L 381.114454 54.873273 
L 382.200255 55.084939 
L 383.286057 54.732162 
L 384.371858 56.919377 
L 385.457659 56.531322 
L 386.54346 57.201598 
L 387.629261 56.002158 
L 388.715062 57.448541 
L 389.800863 59.141868 
L 390.886665 57.589652 
L 391.972466 56.919377 
L 393.058267 58.96548 
L 394.144068 59.071313 
L 395.229869 60.376586 
L 396.31567 61.470193 
L 397.401472 61.611304 
L 398.487273 59.988532 
L 398.487273 59.988532 
" clip-path="url(#pb28ab1c532)" style="fill: none; stroke: #d62728; stroke-width: 1.5; stroke-linecap: square"/>
   </g>
   <g id="line2d_22">
    <path d="M 368.08484 95.531371 
L 369.170642 95.458382 
L 370.256443 95.239418 
L 371.342244 96.772171 
L 372.428045 99.229441 
L 373.513846 100.786524 
L 374.599647 101.857018 
L 375.685448 98.913159 
L 376.77125 100.883841 
L 377.857051 100.372924 
L 378.942852 101.565065 
L 380.028653 107.525771 
L 381.114454 100.640547 
L 382.200255 102.513912 
L 383.286057 102.805865 
L 384.371858 104.849536 
L 385.457659 107.525771 
L 386.54346 107.720406 
L 387.629261 107.769065 
L 388.715062 105.336124 
L 389.800863 114.265018 
L 390.886665 114.19203 
L 391.972466 107.331136 
L 393.058267 117.257536 
L 394.144068 114.654289 
L 395.229869 120.663654 
L 396.31567 120.687983 
L 397.401472 119.252548 
L 398.487273 117.08723 
L 398.487273 117.08723 
" clip-path="url(#pb28ab1c532)" style="fill: none; stroke: #9467bd; stroke-width: 1.5; stroke-linecap: square"/>
   </g>
   <g id="patch_3">
    <path d="M 57.6 307.584 
L 57.6 41.472 
" style="fill: none; stroke: #000000; stroke-width: 0.8; stroke-linejoin: miter; stroke-linecap: square"/>
   </g>
   <g id="patch_4">
    <path d="M 414.72 307.584 
L 414.72 41.472 
" style="fill: none; stroke: #000000; stroke-width: 0.8; stroke-linejoin: miter; stroke-linecap: square"/>
   </g>
   <g id="patch_5">
    <path d="M 57.6 307.584 
L 414.72 307.584 
" style="fill: none; stroke: #000000; stroke-width: 0.8; stroke-linejoin: miter; stroke-linecap: square"/>
   </g>
   <g id="patch_6">
    <path d="M 57.6 41.472 
L 414.72 41.472 
" style="fill: none; stroke: #000000; stroke-width: 0.8; stroke-linejoin: miter; stroke-linecap: square"/>
   </g>
   <g id="text_20">
    <!-- Learning Curves -->
    <g transform="translate(187.37625 35.472) scale(0.12 -0.12)">
     <defs>
      <path id="DejaVuSans-4c" d="M 628 4666 
L 1259 4666 
L 1259 531 
L 3531 531 
L 3531 0 
L 628 0 
L 628 4666 
z
" transform="scale(0.015625)"/>
      <path id="DejaVuSans-65" d="M 3597 1894 
L 3597 1613 
L 953 1613 
Q 991 1019 1311 708 
Q 1631 397 2203 397 
Q 2534 397 2845 478 
Q 3156 559 3463 722 
L 3463 178 
Q 3153 47 2828 -22 
Q 2503 -91 2169 -91 
Q 1331 -91 842 396 
Q 353 884 353 1716 
Q 353 2575 817 3079 
Q 1281 3584 2069 3584 
Q 2775 3584 3186 3129 
Q 3597 2675 3597 1894 
z
M 3022 2063 
Q 3016 2534 2758 2815 
Q 2500 3097 2075 3097 
Q 1594 3097 1305 2825 
Q 1016 2553 972 2059 
L 3022 2063 
z
" transform="scale(0.015625)"/>
      <path id="DejaVuSans-6e" d="M 3513 2113 
L 3513 0 
L 2938 0 
L 2938 2094 
Q 2938 2591 2744 2837 
Q 2550 3084 2163 3084 
Q 1697 3084 1428 2787 
Q 1159 2491 1159 1978 
L 1159 0 
L 581 0 
L 581 3500 
L 1159 3500 
L 1159 2956 
Q 1366 3272 1645 3428 
Q 1925 3584 2291 3584 
Q 2894 3584 3203 3211 
Q 3513 2838 3513 2113 
z
" transform="scale(0.015625)"/>
      <path id="DejaVuSans-69" d="M 603 3500 
L 1178 3500 
L 1178 0 
L 603 0 
L 603 3500 
z
M 603 4863 
L 1178 4863 
L 1178 4134 
L 603 4134 
L 603 4863 
z
" transform="scale(0.015625)"/>
      <path id="DejaVuSans-67" d="M 2906 1791 
Q 2906 2416 2648 2759 
Q 2391 3103 1925 3103 
Q 1463 3103 1205 2759 
Q 947 2416 947 1791 
Q 947 1169 1205 825 
Q 1463 481 1925 481 
Q 2391 481 2648 825 
Q 2906 1169 2906 1791 
z
M 3481 434 
Q 3481 -459 3084 -895 
Q 2688 -1331 1869 -1331 
Q 1566 -1331 1297 -1286 
Q 1028 -1241 775 -1147 
L 775 -588 
Q 1028 -725 1275 -790 
Q 1522 -856 1778 -856 
Q 2344 -856 2625 -561 
Q 2906 -266 2906 331 
L 2906 616 
Q 2728 306 2450 153 
Q 2172 0 1784 0 
Q 1141 0 747 490 
Q 353 981 353 1791 
Q 353 2603 747 3093 
Q 1141 3584 1784 3584 
Q 2172 3584 2450 3431 
Q 2728 3278 2906 2969 
L 2906 3500 
L 3481 3500 
L 3481 434 
z
" transform="scale(0.015625)"/>
      <path id="DejaVuSans-20" transform="scale(0.015625)"/>
      <path id="DejaVuSans-43" d="M 4122 4306 
L 4122 3641 
Q 3803 3938 3442 4084 
Q 3081 4231 2675 4231 
Q 1875 4231 1450 3742 
Q 1025 3253 1025 2328 
Q 1025 1406 1450 917 
Q 1875 428 2675 428 
Q 3081 428 3442 575 
Q 3803 722 4122 1019 
L 4122 359 
Q 3791 134 3420 21 
Q 3050 -91 2638 -91 
Q 1578 -91 968 557 
Q 359 1206 359 2328 
Q 359 3453 968 4101 
Q 1578 4750 2638 4750 
Q 3056 4750 3426 4639 
Q 3797 4528 4122 4306 
z
" transform="scale(0.015625)"/>
      <path id="DejaVuSans-76" d="M 191 3500 
L 800 3500 
L 1894 563 
L 2988 3500 
L 3597 3500 
L 2284 0 
L 1503 0 
L 191 3500 
z
" transform="scale(0.015625)"/>
     </defs>
     <use xlink:href="#DejaVuSans-4c"/>
     <use xlink:href="#DejaVuSans-65" x="53.962891"/>
     <use xlink:href="#DejaVuSans-61" x="115.486328"/>
     <use xlink:href="#DejaVuSans-72" x="176.765625"/>
     <use xlink:href="#DejaVuSans-6e" x="216.128906"/>
     <use xlink:href="#DejaVuSans-69" x="279.507812"/>
     <use xlink:href="#DejaVuSans-6e" x="307.291016"/>
     <use xlink:href="#DejaVuSans-67" x="370.669922"/>
     <use xlink:href="#DejaVuSans-20" x="434.146484"/>
     <use xlink:href="#DejaVuSans-43" x="465.933594"/>
     <use xlink:href="#DejaVuSans-75" x="535.757812"/>
     <use xlink:href="#DejaVuSans-72" x="599.136719"/>
     <use xlink:href="#DejaVuSans-76" x="640.25"/>
     <use xlink:href="#DejaVuSans-65" x="699.429688"/>
     <use xlink:href="#DejaVuSans-73" x="760.953125"/>
    </g>
   </g>
   <g id="legend_1">
    <g id="patch_7">
     <path d="M 214.18875 302.584 
L 407.72 302.584 
Q 409.72 302.584 409.72 300.584 
L 409.72 228.193375 
Q 409.72 226.193375 407.72 226.193375 
L 214.18875 226.193375 
Q 212.18875 226.193375 212.18875 228.193375 
L 212.18875 300.584 
Q 212.18875 302.584 214.18875 302.584 
z
" style="fill: #ffffff; opacity: 0.8; stroke: #cccccc; stroke-linejoin: miter"/>
    </g>
    <g id="line2d_23">
     <path d="M 216.18875 234.291812 
L 226.18875 234.291812 
L 236.18875 234.291812 
" style="fill: none; stroke: #1f77b4; stroke-width: 1.5; stroke-linecap: square"/>
    </g>
    <g id="text_21">
     <!-- Train Accuracy -->
     <g transform="translate(244.18875 237.791812) scale(0.1 -0.1)">
      <defs>
       <path id="DejaVuSans-54" d="M -19 4666 
L 3928 4666 
L 3928 4134 
L 2272 4134 
L 2272 0 
L 1638 0 
L 1638 4134 
L -19 4134 
L -19 4666 
z
" transform="scale(0.015625)"/>
      </defs>
      <use xlink:href="#DejaVuSans-54"/>
      <use xlink:href="#DejaVuSans-72" x="46.333984"/>
      <use xlink:href="#DejaVuSans-61" x="87.447266"/>
      <use xlink:href="#DejaVuSans-69" x="148.726562"/>
      <use xlink:href="#DejaVuSans-6e" x="176.509766"/>
      <use xlink:href="#DejaVuSans-20" x="239.888672"/>
      <use xlink:href="#DejaVuSans-41" x="271.675781"/>
      <use xlink:href="#DejaVuSans-63" x="338.333984"/>
      <use xlink:href="#DejaVuSans-63" x="393.314453"/>
      <use xlink:href="#DejaVuSans-75" x="448.294922"/>
      <use xlink:href="#DejaVuSans-72" x="511.673828"/>
      <use xlink:href="#DejaVuSans-61" x="552.787109"/>
      <use xlink:href="#DejaVuSans-63" x="614.066406"/>
      <use xlink:href="#DejaVuSans-79" x="669.046875"/>
     </g>
    </g>
    <g id="line2d_24">
     <path d="M 216.18875 248.969937 
L 226.18875 248.969937 
L 236.18875 248.969937 
" style="fill: none; stroke: #ff7f0e; stroke-width: 1.5; stroke-linecap: square"/>
    </g>
    <g id="text_22">
     <!-- Validation Accuracy -->
     <g transform="translate(244.18875 252.469937) scale(0.1 -0.1)">
      <defs>
       <path id="DejaVuSans-56" d="M 1831 0 
L 50 4666 
L 709 4666 
L 2188 738 
L 3669 4666 
L 4325 4666 
L 2547 0 
L 1831 0 
z
" transform="scale(0.015625)"/>
       <path id="DejaVuSans-6c" d="M 603 4863 
L 1178 4863 
L 1178 0 
L 603 0 
L 603 4863 
z
" transform="scale(0.015625)"/>
       <path id="DejaVuSans-64" d="M 2906 2969 
L 2906 4863 
L 3481 4863 
L 3481 0 
L 2906 0 
L 2906 525 
Q 2725 213 2448 61 
Q 2172 -91 1784 -91 
Q 1150 -91 751 415 
Q 353 922 353 1747 
Q 353 2572 751 3078 
Q 1150 3584 1784 3584 
Q 2172 3584 2448 3432 
Q 2725 3281 2906 2969 
z
M 947 1747 
Q 947 1113 1208 752 
Q 1469 391 1925 391 
Q 2381 391 2643 752 
Q 2906 1113 2906 1747 
Q 2906 2381 2643 2742 
Q 2381 3103 1925 3103 
Q 1469 3103 1208 2742 
Q 947 2381 947 1747 
z
" transform="scale(0.015625)"/>
       <path id="DejaVuSans-74" d="M 1172 4494 
L 1172 3500 
L 2356 3500 
L 2356 3053 
L 1172 3053 
L 1172 1153 
Q 1172 725 1289 603 
Q 1406 481 1766 481 
L 2356 481 
L 2356 0 
L 1766 0 
Q 1100 0 847 248 
Q 594 497 594 1153 
L 594 3053 
L 172 3053 
L 172 3500 
L 594 3500 
L 594 4494 
L 1172 4494 
z
" transform="scale(0.015625)"/>
      </defs>
      <use xlink:href="#DejaVuSans-56"/>
      <use xlink:href="#DejaVuSans-61" x="60.658203"/>
      <use xlink:href="#DejaVuSans-6c" x="121.9375"/>
      <use xlink:href="#DejaVuSans-69" x="149.720703"/>
      <use xlink:href="#DejaVuSans-64" x="177.503906"/>
      <use xlink:href="#DejaVuSans-61" x="240.980469"/>
      <use xlink:href="#DejaVuSans-74" x="302.259766"/>
      <use xlink:href="#DejaVuSans-69" x="341.46875"/>
      <use xlink:href="#DejaVuSans-6f" x="369.251953"/>
      <use xlink:href="#DejaVuSans-6e" x="430.433594"/>
      <use xlink:href="#DejaVuSans-20" x="493.8125"/>
      <use xlink:href="#DejaVuSans-41" x="525.599609"/>
      <use xlink:href="#DejaVuSans-63" x="592.257812"/>
      <use xlink:href="#DejaVuSans-63" x="647.238281"/>
      <use xlink:href="#DejaVuSans-75" x="702.21875"/>
      <use xlink:href="#DejaVuSans-72" x="765.597656"/>
      <use xlink:href="#DejaVuSans-61" x="806.710938"/>
      <use xlink:href="#DejaVuSans-63" x="867.990234"/>
      <use xlink:href="#DejaVuSans-79" x="922.970703"/>
     </g>
    </g>
    <g id="line2d_25">
     <path d="M 216.18875 263.648062 
L 226.18875 263.648062 
L 236.18875 263.648062 
" style="fill: none; stroke: #2ca02c; stroke-width: 1.5; stroke-linecap: square"/>
    </g>
    <g id="text_23">
     <!-- Robust Validation Accuracy -->
     <g transform="translate(244.18875 267.148062) scale(0.1 -0.1)">
      <defs>
       <path id="DejaVuSans-52" d="M 2841 2188 
Q 3044 2119 3236 1894 
Q 3428 1669 3622 1275 
L 4263 0 
L 3584 0 
L 2988 1197 
Q 2756 1666 2539 1819 
Q 2322 1972 1947 1972 
L 1259 1972 
L 1259 0 
L 628 0 
L 628 4666 
L 2053 4666 
Q 2853 4666 3247 4331 
Q 3641 3997 3641 3322 
Q 3641 2881 3436 2590 
Q 3231 2300 2841 2188 
z
M 1259 4147 
L 1259 2491 
L 2053 2491 
Q 2509 2491 2742 2702 
Q 2975 2913 2975 3322 
Q 2975 3731 2742 3939 
Q 2509 4147 2053 4147 
L 1259 4147 
z
" transform="scale(0.015625)"/>
       <path id="DejaVuSans-62" d="M 3116 1747 
Q 3116 2381 2855 2742 
Q 2594 3103 2138 3103 
Q 1681 3103 1420 2742 
Q 1159 2381 1159 1747 
Q 1159 1113 1420 752 
Q 1681 391 2138 391 
Q 2594 391 2855 752 
Q 3116 1113 3116 1747 
z
M 1159 2969 
Q 1341 3281 1617 3432 
Q 1894 3584 2278 3584 
Q 2916 3584 3314 3078 
Q 3713 2572 3713 1747 
Q 3713 922 3314 415 
Q 2916 -91 2278 -91 
Q 1894 -91 1617 61 
Q 1341 213 1159 525 
L 1159 0 
L 581 0 
L 581 4863 
L 1159 4863 
L 1159 2969 
z
" transform="scale(0.015625)"/>
      </defs>
      <use xlink:href="#DejaVuSans-52"/>
      <use xlink:href="#DejaVuSans-6f" x="64.982422"/>
      <use xlink:href="#DejaVuSans-62" x="126.164062"/>
      <use xlink:href="#DejaVuSans-75" x="189.640625"/>
      <use xlink:href="#DejaVuSans-73" x="253.019531"/>
      <use xlink:href="#DejaVuSans-74" x="305.119141"/>
      <use xlink:href="#DejaVuSans-20" x="344.328125"/>
      <use xlink:href="#DejaVuSans-56" x="376.115234"/>
      <use xlink:href="#DejaVuSans-61" x="436.773438"/>
      <use xlink:href="#DejaVuSans-6c" x="498.052734"/>
      <use xlink:href="#DejaVuSans-69" x="525.835938"/>
      <use xlink:href="#DejaVuSans-64" x="553.619141"/>
      <use xlink:href="#DejaVuSans-61" x="617.095703"/>
      <use xlink:href="#DejaVuSans-74" x="678.375"/>
      <use xlink:href="#DejaVuSans-69" x="717.583984"/>
      <use xlink:href="#DejaVuSans-6f" x="745.367188"/>
      <use xlink:href="#DejaVuSans-6e" x="806.548828"/>
      <use xlink:href="#DejaVuSans-20" x="869.927734"/>
      <use xlink:href="#DejaVuSans-41" x="901.714844"/>
      <use xlink:href="#DejaVuSans-63" x="968.373047"/>
      <use xlink:href="#DejaVuSans-63" x="1023.353516"/>
      <use xlink:href="#DejaVuSans-75" x="1078.333984"/>
      <use xlink:href="#DejaVuSans-72" x="1141.712891"/>
      <use xlink:href="#DejaVuSans-61" x="1182.826172"/>
      <use xlink:href="#DejaVuSans-63" x="1244.105469"/>
      <use xlink:href="#DejaVuSans-79" x="1299.085938"/>
     </g>
    </g>
    <g id="line2d_26">
     <path d="M 216.18875 278.326188 
L 226.18875 278.326188 
L 236.18875 278.326188 
" style="fill: none; stroke: #d62728; stroke-width: 1.5; stroke-linecap: square"/>
    </g>
    <g id="text_24">
     <!-- SWA Validation Accuracy -->
     <g transform="translate(244.18875 281.826188) scale(0.1 -0.1)">
      <defs>
       <path id="DejaVuSans-53" d="M 3425 4513 
L 3425 3897 
Q 3066 4069 2747 4153 
Q 2428 4238 2131 4238 
Q 1616 4238 1336 4038 
Q 1056 3838 1056 3469 
Q 1056 3159 1242 3001 
Q 1428 2844 1947 2747 
L 2328 2669 
Q 3034 2534 3370 2195 
Q 3706 1856 3706 1288 
Q 3706 609 3251 259 
Q 2797 -91 1919 -91 
Q 1588 -91 1214 -16 
Q 841 59 441 206 
L 441 856 
Q 825 641 1194 531 
Q 1563 422 1919 422 
Q 2459 422 2753 634 
Q 3047 847 3047 1241 
Q 3047 1584 2836 1778 
Q 2625 1972 2144 2069 
L 1759 2144 
Q 1053 2284 737 2584 
Q 422 2884 422 3419 
Q 422 4038 858 4394 
Q 1294 4750 2059 4750 
Q 2388 4750 2728 4690 
Q 3069 4631 3425 4513 
z
" transform="scale(0.015625)"/>
       <path id="DejaVuSans-57" d="M 213 4666 
L 850 4666 
L 1831 722 
L 2809 4666 
L 3519 4666 
L 4500 722 
L 5478 4666 
L 6119 4666 
L 4947 0 
L 4153 0 
L 3169 4050 
L 2175 0 
L 1381 0 
L 213 4666 
z
" transform="scale(0.015625)"/>
      </defs>
      <use xlink:href="#DejaVuSans-53"/>
      <use xlink:href="#DejaVuSans-57" x="63.476562"/>
      <use xlink:href="#DejaVuSans-41" x="156.853516"/>
      <use xlink:href="#DejaVuSans-20" x="225.261719"/>
      <use xlink:href="#DejaVuSans-56" x="257.048828"/>
      <use xlink:href="#DejaVuSans-61" x="317.707031"/>
      <use xlink:href="#DejaVuSans-6c" x="378.986328"/>
      <use xlink:href="#DejaVuSans-69" x="406.769531"/>
      <use xlink:href="#DejaVuSans-64" x="434.552734"/>
      <use xlink:href="#DejaVuSans-61" x="498.029297"/>
      <use xlink:href="#DejaVuSans-74" x="559.308594"/>
      <use xlink:href="#DejaVuSans-69" x="598.517578"/>
      <use xlink:href="#DejaVuSans-6f" x="626.300781"/>
      <use xlink:href="#DejaVuSans-6e" x="687.482422"/>
      <use xlink:href="#DejaVuSans-20" x="750.861328"/>
      <use xlink:href="#DejaVuSans-41" x="782.648438"/>
      <use xlink:href="#DejaVuSans-63" x="849.306641"/>
      <use xlink:href="#DejaVuSans-63" x="904.287109"/>
      <use xlink:href="#DejaVuSans-75" x="959.267578"/>
      <use xlink:href="#DejaVuSans-72" x="1022.646484"/>
      <use xlink:href="#DejaVuSans-61" x="1063.759766"/>
      <use xlink:href="#DejaVuSans-63" x="1125.039062"/>
      <use xlink:href="#DejaVuSans-79" x="1180.019531"/>
     </g>
    </g>
    <g id="line2d_27">
     <path d="M 216.18875 293.004312 
L 226.18875 293.004312 
L 236.18875 293.004312 
" style="fill: none; stroke: #9467bd; stroke-width: 1.5; stroke-linecap: square"/>
    </g>
    <g id="text_25">
     <!-- SWA Robust Validation Accuracy -->
     <g transform="translate(244.18875 296.504312) scale(0.1 -0.1)">
      <use xlink:href="#DejaVuSans-53"/>
      <use xlink:href="#DejaVuSans-57" x="63.476562"/>
      <use xlink:href="#DejaVuSans-41" x="156.853516"/>
      <use xlink:href="#DejaVuSans-20" x="225.261719"/>
      <use xlink:href="#DejaVuSans-52" x="257.048828"/>
      <use xlink:href="#DejaVuSans-6f" x="322.03125"/>
      <use xlink:href="#DejaVuSans-62" x="383.212891"/>
      <use xlink:href="#DejaVuSans-75" x="446.689453"/>
      <use xlink:href="#DejaVuSans-73" x="510.068359"/>
      <use xlink:href="#DejaVuSans-74" x="562.167969"/>
      <use xlink:href="#DejaVuSans-20" x="601.376953"/>
      <use xlink:href="#DejaVuSans-56" x="633.164062"/>
      <use xlink:href="#DejaVuSans-61" x="693.822266"/>
      <use xlink:href="#DejaVuSans-6c" x="755.101562"/>
      <use xlink:href="#DejaVuSans-69" x="782.884766"/>
      <use xlink:href="#DejaVuSans-64" x="810.667969"/>
      <use xlink:href="#DejaVuSans-61" x="874.144531"/>
      <use xlink:href="#DejaVuSans-74" x="935.423828"/>
      <use xlink:href="#DejaVuSans-69" x="974.632812"/>
      <use xlink:href="#DejaVuSans-6f" x="1002.416016"/>
      <use xlink:href="#DejaVuSans-6e" x="1063.597656"/>
      <use xlink:href="#DejaVuSans-20" x="1126.976562"/>
      <use xlink:href="#DejaVuSans-41" x="1158.763672"/>
      <use xlink:href="#DejaVuSans-63" x="1225.421875"/>
      <use xlink:href="#DejaVuSans-63" x="1280.402344"/>
      <use xlink:href="#DejaVuSans-75" x="1335.382812"/>
      <use xlink:href="#DejaVuSans-72" x="1398.761719"/>
      <use xlink:href="#DejaVuSans-61" x="1439.875"/>
      <use xlink:href="#DejaVuSans-63" x="1501.154297"/>
      <use xlink:href="#DejaVuSans-79" x="1556.134766"/>
     </g>
    </g>
   </g>
  </g>
 </g>
 <defs>
  <clipPath id="pb28ab1c532">
   <rect x="57.6" y="41.472" width="357.12" height="266.112"/>
  </clipPath>
 </defs>
</svg>
