<?xml version="1.0" encoding="utf-8" standalone="no"?>
<!DOCTYPE svg PUBLIC "-//W3C//DTD SVG 1.1//EN"
  "http://www.w3.org/Graphics/SVG/1.1/DTD/svg11.dtd">
<svg xmlns:xlink="http://www.w3.org/1999/xlink" width="460.8pt" height="345.6pt" viewBox="0 0 460.8 345.6" xmlns="http://www.w3.org/2000/svg" version="1.1">
 <metadata>
  <rdf:RDF xmlns:dc="http://purl.org/dc/elements/1.1/" xmlns:cc="http://creativecommons.org/ns#" xmlns:rdf="http://www.w3.org/1999/02/22-rdf-syntax-ns#">
   <cc:Work>
    <dc:type rdf:resource="http://purl.org/dc/dcmitype/StillImage"/>
    <dc:date>2025-03-19T09:16:37.065597</dc:date>
    <dc:format>image/svg+xml</dc:format>
    <dc:creator>
     <cc:Agent>
      <dc:title>Matplotlib v3.9.1, https://matplotlib.org/</dc:title>
     </cc:Agent>
    </dc:creator>
   </cc:Work>
  </rdf:RDF>
 </metadata>
 <defs>
  <style type="text/css">*{stroke-linejoin: round; stroke-linecap: butt}</style>
 </defs>
 <g id="figure_1">
  <g id="patch_1">
   <path d="M 0 345.6 
L 460.8 345.6 
L 460.8 0 
L 0 0 
z
" style="fill: #ffffff"/>
  </g>
  <g id="axes_1">
   <g id="patch_2">
    <path d="M 57.6 307.584 
L 414.72 307.584 
L 414.72 41.472 
L 57.6 41.472 
z
" style="fill: #ffffff"/>
   </g>
   <g id="matplotlib.axis_1">
    <g id="xtick_1">
     <g id="line2d_1">
      <defs>
       <path id="m20c3980407" d="M 0 0 
L 0 3.5 
" style="stroke: #000000; stroke-width: 0.8"/>
      </defs>
      <g>
       <use xlink:href="#m20c3980407" x="73.832727" y="307.584" style="stroke: #000000; stroke-width: 0.8"/>
      </g>
     </g>
     <g id="text_1">
      <!-- 1 -->
      <g transform="translate(70.651477 322.182437) scale(0.1 -0.1)">
       <defs>
        <path id="DejaVuSans-31" d="M 794 531 
L 1825 531 
L 1825 4091 
L 703 3866 
L 703 4441 
L 1819 4666 
L 2450 4666 
L 2450 531 
L 3481 531 
L 3481 0 
L 794 0 
L 794 531 
z
" transform="scale(0.015625)"/>
       </defs>
       <use xlink:href="#DejaVuSans-31"/>
      </g>
     </g>
    </g>
    <g id="xtick_2">
     <g id="line2d_2">
      <g>
       <use xlink:href="#m20c3980407" x="109.664165" y="307.584" style="stroke: #000000; stroke-width: 0.8"/>
      </g>
     </g>
     <g id="text_2">
      <!-- 34 -->
      <g transform="translate(103.301665 322.182437) scale(0.1 -0.1)">
       <defs>
        <path id="DejaVuSans-33" d="M 2597 2516 
Q 3050 2419 3304 2112 
Q 3559 1806 3559 1356 
Q 3559 666 3084 287 
Q 2609 -91 1734 -91 
Q 1441 -91 1130 -33 
Q 819 25 488 141 
L 488 750 
Q 750 597 1062 519 
Q 1375 441 1716 441 
Q 2309 441 2620 675 
Q 2931 909 2931 1356 
Q 2931 1769 2642 2001 
Q 2353 2234 1838 2234 
L 1294 2234 
L 1294 2753 
L 1863 2753 
Q 2328 2753 2575 2939 
Q 2822 3125 2822 3475 
Q 2822 3834 2567 4026 
Q 2313 4219 1838 4219 
Q 1578 4219 1281 4162 
Q 984 4106 628 3988 
L 628 4550 
Q 988 4650 1302 4700 
Q 1616 4750 1894 4750 
Q 2613 4750 3031 4423 
Q 3450 4097 3450 3541 
Q 3450 3153 3228 2886 
Q 3006 2619 2597 2516 
z
" transform="scale(0.015625)"/>
        <path id="DejaVuSans-34" d="M 2419 4116 
L 825 1625 
L 2419 1625 
L 2419 4116 
z
M 2253 4666 
L 3047 4666 
L 3047 1625 
L 3713 1625 
L 3713 1100 
L 3047 1100 
L 3047 0 
L 2419 0 
L 2419 1100 
L 313 1100 
L 313 1709 
L 2253 4666 
z
" transform="scale(0.015625)"/>
       </defs>
       <use xlink:href="#DejaVuSans-33"/>
       <use xlink:href="#DejaVuSans-34" x="63.623047"/>
      </g>
     </g>
    </g>
    <g id="xtick_3">
     <g id="line2d_3">
      <g>
       <use xlink:href="#m20c3980407" x="145.495604" y="307.584" style="stroke: #000000; stroke-width: 0.8"/>
      </g>
     </g>
     <g id="text_3">
      <!-- 67 -->
      <g transform="translate(139.133104 322.182437) scale(0.1 -0.1)">
       <defs>
        <path id="DejaVuSans-36" d="M 2113 2584 
Q 1688 2584 1439 2293 
Q 1191 2003 1191 1497 
Q 1191 994 1439 701 
Q 1688 409 2113 409 
Q 2538 409 2786 701 
Q 3034 994 3034 1497 
Q 3034 2003 2786 2293 
Q 2538 2584 2113 2584 
z
M 3366 4563 
L 3366 3988 
Q 3128 4100 2886 4159 
Q 2644 4219 2406 4219 
Q 1781 4219 1451 3797 
Q 1122 3375 1075 2522 
Q 1259 2794 1537 2939 
Q 1816 3084 2150 3084 
Q 2853 3084 3261 2657 
Q 3669 2231 3669 1497 
Q 3669 778 3244 343 
Q 2819 -91 2113 -91 
Q 1303 -91 875 529 
Q 447 1150 447 2328 
Q 447 3434 972 4092 
Q 1497 4750 2381 4750 
Q 2619 4750 2861 4703 
Q 3103 4656 3366 4563 
z
" transform="scale(0.015625)"/>
        <path id="DejaVuSans-37" d="M 525 4666 
L 3525 4666 
L 3525 4397 
L 1831 0 
L 1172 0 
L 2766 4134 
L 525 4134 
L 525 4666 
z
" transform="scale(0.015625)"/>
       </defs>
       <use xlink:href="#DejaVuSans-36"/>
       <use xlink:href="#DejaVuSans-37" x="63.623047"/>
      </g>
     </g>
    </g>
    <g id="xtick_4">
     <g id="line2d_4">
      <g>
       <use xlink:href="#m20c3980407" x="181.327042" y="307.584" style="stroke: #000000; stroke-width: 0.8"/>
      </g>
     </g>
     <g id="text_4">
      <!-- 100 -->
      <g transform="translate(171.783292 322.182437) scale(0.1 -0.1)">
       <defs>
        <path id="DejaVuSans-30" d="M 2034 4250 
Q 1547 4250 1301 3770 
Q 1056 3291 1056 2328 
Q 1056 1369 1301 889 
Q 1547 409 2034 409 
Q 2525 409 2770 889 
Q 3016 1369 3016 2328 
Q 3016 3291 2770 3770 
Q 2525 4250 2034 4250 
z
M 2034 4750 
Q 2819 4750 3233 4129 
Q 3647 3509 3647 2328 
Q 3647 1150 3233 529 
Q 2819 -91 2034 -91 
Q 1250 -91 836 529 
Q 422 1150 422 2328 
Q 422 3509 836 4129 
Q 1250 4750 2034 4750 
z
" transform="scale(0.015625)"/>
       </defs>
       <use xlink:href="#DejaVuSans-31"/>
       <use xlink:href="#DejaVuSans-30" x="63.623047"/>
       <use xlink:href="#DejaVuSans-30" x="127.246094"/>
      </g>
     </g>
    </g>
    <g id="xtick_5">
     <g id="line2d_5">
      <g>
       <use xlink:href="#m20c3980407" x="217.15848" y="307.584" style="stroke: #000000; stroke-width: 0.8"/>
      </g>
     </g>
     <g id="text_5">
      <!-- 133 -->
      <g transform="translate(207.61473 322.182437) scale(0.1 -0.1)">
       <use xlink:href="#DejaVuSans-31"/>
       <use xlink:href="#DejaVuSans-33" x="63.623047"/>
       <use xlink:href="#DejaVuSans-33" x="127.246094"/>
      </g>
     </g>
    </g>
    <g id="xtick_6">
     <g id="line2d_6">
      <g>
       <use xlink:href="#m20c3980407" x="254.075719" y="307.584" style="stroke: #000000; stroke-width: 0.8"/>
      </g>
     </g>
     <g id="text_6">
      <!-- 167 -->
      <g transform="translate(244.531969 322.182437) scale(0.1 -0.1)">
       <use xlink:href="#DejaVuSans-31"/>
       <use xlink:href="#DejaVuSans-36" x="63.623047"/>
       <use xlink:href="#DejaVuSans-37" x="127.246094"/>
      </g>
     </g>
    </g>
    <g id="xtick_7">
     <g id="line2d_7">
      <g>
       <use xlink:href="#m20c3980407" x="289.907157" y="307.584" style="stroke: #000000; stroke-width: 0.8"/>
      </g>
     </g>
     <g id="text_7">
      <!-- 200 -->
      <g transform="translate(280.363407 322.182437) scale(0.1 -0.1)">
       <defs>
        <path id="DejaVuSans-32" d="M 1228 531 
L 3431 531 
L 3431 0 
L 469 0 
L 469 531 
Q 828 903 1448 1529 
Q 2069 2156 2228 2338 
Q 2531 2678 2651 2914 
Q 2772 3150 2772 3378 
Q 2772 3750 2511 3984 
Q 2250 4219 1831 4219 
Q 1534 4219 1204 4116 
Q 875 4013 500 3803 
L 500 4441 
Q 881 4594 1212 4672 
Q 1544 4750 1819 4750 
Q 2544 4750 2975 4387 
Q 3406 4025 3406 3419 
Q 3406 3131 3298 2873 
Q 3191 2616 2906 2266 
Q 2828 2175 2409 1742 
Q 1991 1309 1228 531 
z
" transform="scale(0.015625)"/>
       </defs>
       <use xlink:href="#DejaVuSans-32"/>
       <use xlink:href="#DejaVuSans-30" x="63.623047"/>
       <use xlink:href="#DejaVuSans-30" x="127.246094"/>
      </g>
     </g>
    </g>
    <g id="xtick_8">
     <g id="line2d_8">
      <g>
       <use xlink:href="#m20c3980407" x="325.738595" y="307.584" style="stroke: #000000; stroke-width: 0.8"/>
      </g>
     </g>
     <g id="text_8">
      <!-- 233 -->
      <g transform="translate(316.194845 322.182437) scale(0.1 -0.1)">
       <use xlink:href="#DejaVuSans-32"/>
       <use xlink:href="#DejaVuSans-33" x="63.623047"/>
       <use xlink:href="#DejaVuSans-33" x="127.246094"/>
      </g>
     </g>
    </g>
    <g id="xtick_9">
     <g id="line2d_9">
      <g>
       <use xlink:href="#m20c3980407" x="361.570033" y="307.584" style="stroke: #000000; stroke-width: 0.8"/>
      </g>
     </g>
     <g id="text_9">
      <!-- 266 -->
      <g transform="translate(352.026283 322.182437) scale(0.1 -0.1)">
       <use xlink:href="#DejaVuSans-32"/>
       <use xlink:href="#DejaVuSans-36" x="63.623047"/>
       <use xlink:href="#DejaVuSans-36" x="127.246094"/>
      </g>
     </g>
    </g>
    <g id="xtick_10">
     <g id="line2d_10">
      <g>
       <use xlink:href="#m20c3980407" x="398.487273" y="307.584" style="stroke: #000000; stroke-width: 0.8"/>
      </g>
     </g>
     <g id="text_10">
      <!-- 300 -->
      <g transform="translate(388.943523 322.182437) scale(0.1 -0.1)">
       <use xlink:href="#DejaVuSans-33"/>
       <use xlink:href="#DejaVuSans-30" x="63.623047"/>
       <use xlink:href="#DejaVuSans-30" x="127.246094"/>
      </g>
     </g>
    </g>
    <g id="text_11">
     <!-- Epochs -->
     <g transform="translate(218.244375 335.860562) scale(0.1 -0.1)">
      <defs>
       <path id="DejaVuSans-45" d="M 628 4666 
L 3578 4666 
L 3578 4134 
L 1259 4134 
L 1259 2753 
L 3481 2753 
L 3481 2222 
L 1259 2222 
L 1259 531 
L 3634 531 
L 3634 0 
L 628 0 
L 628 4666 
z
" transform="scale(0.015625)"/>
       <path id="DejaVuSans-70" d="M 1159 525 
L 1159 -1331 
L 581 -1331 
L 581 3500 
L 1159 3500 
L 1159 2969 
Q 1341 3281 1617 3432 
Q 1894 3584 2278 3584 
Q 2916 3584 3314 3078 
Q 3713 2572 3713 1747 
Q 3713 922 3314 415 
Q 2916 -91 2278 -91 
Q 1894 -91 1617 61 
Q 1341 213 1159 525 
z
M 3116 1747 
Q 3116 2381 2855 2742 
Q 2594 3103 2138 3103 
Q 1681 3103 1420 2742 
Q 1159 2381 1159 1747 
Q 1159 1113 1420 752 
Q 1681 391 2138 391 
Q 2594 391 2855 752 
Q 3116 1113 3116 1747 
z
" transform="scale(0.015625)"/>
       <path id="DejaVuSans-6f" d="M 1959 3097 
Q 1497 3097 1228 2736 
Q 959 2375 959 1747 
Q 959 1119 1226 758 
Q 1494 397 1959 397 
Q 2419 397 2687 759 
Q 2956 1122 2956 1747 
Q 2956 2369 2687 2733 
Q 2419 3097 1959 3097 
z
M 1959 3584 
Q 2709 3584 3137 3096 
Q 3566 2609 3566 1747 
Q 3566 888 3137 398 
Q 2709 -91 1959 -91 
Q 1206 -91 779 398 
Q 353 888 353 1747 
Q 353 2609 779 3096 
Q 1206 3584 1959 3584 
z
" transform="scale(0.015625)"/>
       <path id="DejaVuSans-63" d="M 3122 3366 
L 3122 2828 
Q 2878 2963 2633 3030 
Q 2388 3097 2138 3097 
Q 1578 3097 1268 2742 
Q 959 2388 959 1747 
Q 959 1106 1268 751 
Q 1578 397 2138 397 
Q 2388 397 2633 464 
Q 2878 531 3122 666 
L 3122 134 
Q 2881 22 2623 -34 
Q 2366 -91 2075 -91 
Q 1284 -91 818 406 
Q 353 903 353 1747 
Q 353 2603 823 3093 
Q 1294 3584 2113 3584 
Q 2378 3584 2631 3529 
Q 2884 3475 3122 3366 
z
" transform="scale(0.015625)"/>
       <path id="DejaVuSans-68" d="M 3513 2113 
L 3513 0 
L 2938 0 
L 2938 2094 
Q 2938 2591 2744 2837 
Q 2550 3084 2163 3084 
Q 1697 3084 1428 2787 
Q 1159 2491 1159 1978 
L 1159 0 
L 581 0 
L 581 4863 
L 1159 4863 
L 1159 2956 
Q 1366 3272 1645 3428 
Q 1925 3584 2291 3584 
Q 2894 3584 3203 3211 
Q 3513 2838 3513 2113 
z
" transform="scale(0.015625)"/>
       <path id="DejaVuSans-73" d="M 2834 3397 
L 2834 2853 
Q 2591 2978 2328 3040 
Q 2066 3103 1784 3103 
Q 1356 3103 1142 2972 
Q 928 2841 928 2578 
Q 928 2378 1081 2264 
Q 1234 2150 1697 2047 
L 1894 2003 
Q 2506 1872 2764 1633 
Q 3022 1394 3022 966 
Q 3022 478 2636 193 
Q 2250 -91 1575 -91 
Q 1294 -91 989 -36 
Q 684 19 347 128 
L 347 722 
Q 666 556 975 473 
Q 1284 391 1588 391 
Q 1994 391 2212 530 
Q 2431 669 2431 922 
Q 2431 1156 2273 1281 
Q 2116 1406 1581 1522 
L 1381 1569 
Q 847 1681 609 1914 
Q 372 2147 372 2553 
Q 372 3047 722 3315 
Q 1072 3584 1716 3584 
Q 2034 3584 2315 3537 
Q 2597 3491 2834 3397 
z
" transform="scale(0.015625)"/>
      </defs>
      <use xlink:href="#DejaVuSans-45"/>
      <use xlink:href="#DejaVuSans-70" x="63.183594"/>
      <use xlink:href="#DejaVuSans-6f" x="126.660156"/>
      <use xlink:href="#DejaVuSans-63" x="187.841797"/>
      <use xlink:href="#DejaVuSans-68" x="242.822266"/>
      <use xlink:href="#DejaVuSans-73" x="306.201172"/>
     </g>
    </g>
   </g>
   <g id="matplotlib.axis_2">
    <g id="ytick_1">
     <g id="line2d_11">
      <defs>
       <path id="m4e63635c1d" d="M 0 0 
L -3.5 0 
" style="stroke: #000000; stroke-width: 0.8"/>
      </defs>
      <g>
       <use xlink:href="#m4e63635c1d" x="57.6" y="271.865627" style="stroke: #000000; stroke-width: 0.8"/>
      </g>
     </g>
     <g id="text_12">
      <!-- 10 -->
      <g transform="translate(37.875 275.664846) scale(0.1 -0.1)">
       <use xlink:href="#DejaVuSans-31"/>
       <use xlink:href="#DejaVuSans-30" x="63.623047"/>
      </g>
     </g>
    </g>
    <g id="ytick_2">
     <g id="line2d_12">
      <g>
       <use xlink:href="#m4e63635c1d" x="57.6" y="235.263074" style="stroke: #000000; stroke-width: 0.8"/>
      </g>
     </g>
     <g id="text_13">
      <!-- 20 -->
      <g transform="translate(37.875 239.062293) scale(0.1 -0.1)">
       <use xlink:href="#DejaVuSans-32"/>
       <use xlink:href="#DejaVuSans-30" x="63.623047"/>
      </g>
     </g>
    </g>
    <g id="ytick_3">
     <g id="line2d_13">
      <g>
       <use xlink:href="#m4e63635c1d" x="57.6" y="198.660521" style="stroke: #000000; stroke-width: 0.8"/>
      </g>
     </g>
     <g id="text_14">
      <!-- 30 -->
      <g transform="translate(37.875 202.45974) scale(0.1 -0.1)">
       <use xlink:href="#DejaVuSans-33"/>
       <use xlink:href="#DejaVuSans-30" x="63.623047"/>
      </g>
     </g>
    </g>
    <g id="ytick_4">
     <g id="line2d_14">
      <g>
       <use xlink:href="#m4e63635c1d" x="57.6" y="162.057968" style="stroke: #000000; stroke-width: 0.8"/>
      </g>
     </g>
     <g id="text_15">
      <!-- 40 -->
      <g transform="translate(37.875 165.857186) scale(0.1 -0.1)">
       <use xlink:href="#DejaVuSans-34"/>
       <use xlink:href="#DejaVuSans-30" x="63.623047"/>
      </g>
     </g>
    </g>
    <g id="ytick_5">
     <g id="line2d_15">
      <g>
       <use xlink:href="#m4e63635c1d" x="57.6" y="125.455414" style="stroke: #000000; stroke-width: 0.8"/>
      </g>
     </g>
     <g id="text_16">
      <!-- 50 -->
      <g transform="translate(37.875 129.254633) scale(0.1 -0.1)">
       <defs>
        <path id="DejaVuSans-35" d="M 691 4666 
L 3169 4666 
L 3169 4134 
L 1269 4134 
L 1269 2991 
Q 1406 3038 1543 3061 
Q 1681 3084 1819 3084 
Q 2600 3084 3056 2656 
Q 3513 2228 3513 1497 
Q 3513 744 3044 326 
Q 2575 -91 1722 -91 
Q 1428 -91 1123 -41 
Q 819 9 494 109 
L 494 744 
Q 775 591 1075 516 
Q 1375 441 1709 441 
Q 2250 441 2565 725 
Q 2881 1009 2881 1497 
Q 2881 1984 2565 2268 
Q 2250 2553 1709 2553 
Q 1456 2553 1204 2497 
Q 953 2441 691 2322 
L 691 4666 
z
" transform="scale(0.015625)"/>
       </defs>
       <use xlink:href="#DejaVuSans-35"/>
       <use xlink:href="#DejaVuSans-30" x="63.623047"/>
      </g>
     </g>
    </g>
    <g id="ytick_6">
     <g id="line2d_16">
      <g>
       <use xlink:href="#m4e63635c1d" x="57.6" y="88.852861" style="stroke: #000000; stroke-width: 0.8"/>
      </g>
     </g>
     <g id="text_17">
      <!-- 60 -->
      <g transform="translate(37.875 92.65208) scale(0.1 -0.1)">
       <use xlink:href="#DejaVuSans-36"/>
       <use xlink:href="#DejaVuSans-30" x="63.623047"/>
      </g>
     </g>
    </g>
    <g id="ytick_7">
     <g id="line2d_17">
      <g>
       <use xlink:href="#m4e63635c1d" x="57.6" y="52.250308" style="stroke: #000000; stroke-width: 0.8"/>
      </g>
     </g>
     <g id="text_18">
      <!-- 70 -->
      <g transform="translate(37.875 56.049527) scale(0.1 -0.1)">
       <use xlink:href="#DejaVuSans-37"/>
       <use xlink:href="#DejaVuSans-30" x="63.623047"/>
      </g>
     </g>
    </g>
    <g id="text_19">
     <!-- Accuracy -->
     <g transform="translate(31.795312 197.356125) rotate(-90) scale(0.1 -0.1)">
      <defs>
       <path id="DejaVuSans-41" d="M 2188 4044 
L 1331 1722 
L 3047 1722 
L 2188 4044 
z
M 1831 4666 
L 2547 4666 
L 4325 0 
L 3669 0 
L 3244 1197 
L 1141 1197 
L 716 0 
L 50 0 
L 1831 4666 
z
" transform="scale(0.015625)"/>
       <path id="DejaVuSans-75" d="M 544 1381 
L 544 3500 
L 1119 3500 
L 1119 1403 
Q 1119 906 1312 657 
Q 1506 409 1894 409 
Q 2359 409 2629 706 
Q 2900 1003 2900 1516 
L 2900 3500 
L 3475 3500 
L 3475 0 
L 2900 0 
L 2900 538 
Q 2691 219 2414 64 
Q 2138 -91 1772 -91 
Q 1169 -91 856 284 
Q 544 659 544 1381 
z
M 1991 3584 
L 1991 3584 
z
" transform="scale(0.015625)"/>
       <path id="DejaVuSans-72" d="M 2631 2963 
Q 2534 3019 2420 3045 
Q 2306 3072 2169 3072 
Q 1681 3072 1420 2755 
Q 1159 2438 1159 1844 
L 1159 0 
L 581 0 
L 581 3500 
L 1159 3500 
L 1159 2956 
Q 1341 3275 1631 3429 
Q 1922 3584 2338 3584 
Q 2397 3584 2469 3576 
Q 2541 3569 2628 3553 
L 2631 2963 
z
" transform="scale(0.015625)"/>
       <path id="DejaVuSans-61" d="M 2194 1759 
Q 1497 1759 1228 1600 
Q 959 1441 959 1056 
Q 959 750 1161 570 
Q 1363 391 1709 391 
Q 2188 391 2477 730 
Q 2766 1069 2766 1631 
L 2766 1759 
L 2194 1759 
z
M 3341 1997 
L 3341 0 
L 2766 0 
L 2766 531 
Q 2569 213 2275 61 
Q 1981 -91 1556 -91 
Q 1019 -91 701 211 
Q 384 513 384 1019 
Q 384 1609 779 1909 
Q 1175 2209 1959 2209 
L 2766 2209 
L 2766 2266 
Q 2766 2663 2505 2880 
Q 2244 3097 1772 3097 
Q 1472 3097 1187 3025 
Q 903 2953 641 2809 
L 641 3341 
Q 956 3463 1253 3523 
Q 1550 3584 1831 3584 
Q 2591 3584 2966 3190 
Q 3341 2797 3341 1997 
z
" transform="scale(0.015625)"/>
       <path id="DejaVuSans-79" d="M 2059 -325 
Q 1816 -950 1584 -1140 
Q 1353 -1331 966 -1331 
L 506 -1331 
L 506 -850 
L 844 -850 
Q 1081 -850 1212 -737 
Q 1344 -625 1503 -206 
L 1606 56 
L 191 3500 
L 800 3500 
L 1894 763 
L 2988 3500 
L 3597 3500 
L 2059 -325 
z
" transform="scale(0.015625)"/>
      </defs>
      <use xlink:href="#DejaVuSans-41"/>
      <use xlink:href="#DejaVuSans-63" x="66.658203"/>
      <use xlink:href="#DejaVuSans-63" x="121.638672"/>
      <use xlink:href="#DejaVuSans-75" x="176.619141"/>
      <use xlink:href="#DejaVuSans-72" x="239.998047"/>
      <use xlink:href="#DejaVuSans-61" x="281.111328"/>
      <use xlink:href="#DejaVuSans-63" x="342.390625"/>
      <use xlink:href="#DejaVuSans-79" x="397.371094"/>
     </g>
    </g>
   </g>
   <g id="line2d_18">
    <path d="M 73.832727 295.488 
L 74.918528 278.271074 
L 76.00433 263.026111 
L 77.090131 250.485161 
L 79.261733 230.637426 
L 80.347534 221.958046 
L 82.519137 207.3216 
L 83.604938 200.820071 
L 84.690739 196.583326 
L 85.77654 191.394914 
L 86.862341 184.815605 
L 87.948142 180.720694 
L 89.033943 175.939486 
L 90.119745 173.898894 
L 92.291347 166.770546 
L 93.377148 165.892085 
L 94.462949 163.860643 
L 95.54875 194.561035 
L 96.634552 191.536749 
L 97.720353 189.445828 
L 98.806154 186.060092 
L 99.891955 183.37438 
L 100.977756 179.695823 
L 103.149358 173.523717 
L 104.23516 170.252364 
L 105.320961 169.364752 
L 106.406762 165.471156 
L 107.492563 163.165195 
L 108.578364 161.124603 
L 109.664165 157.917304 
L 110.749967 156.023122 
L 111.835768 153.900174 
L 112.921569 150.596793 
L 114.00737 148.734638 
L 115.093171 147.577083 
L 116.178972 144.653454 
L 117.264773 140.672926 
L 118.350575 140.6592 
L 119.436376 137.914009 
L 120.522177 136.459057 
L 122.693779 131.622945 
L 123.77958 130.12224 
L 124.865382 126.32015 
L 127.036984 123.895231 
L 128.122785 120.948725 
L 129.208586 120.065689 
L 130.294387 118.121178 
L 131.380189 117.393702 
L 133.551791 113.966788 
L 134.637592 114.007966 
L 135.723393 113.522982 
L 136.809194 112.708575 
L 137.894995 112.562165 
L 138.980797 150.217042 
L 140.066598 154.229597 
L 141.152399 153.007986 
L 142.2382 150.866737 
L 143.324001 149.924221 
L 144.409802 150.203316 
L 145.495604 148.565351 
L 146.581405 147.645712 
L 147.667206 146.378349 
L 148.753007 144.932548 
L 149.838808 144.429263 
L 152.01041 141.807605 
L 153.096212 139.565699 
L 154.182013 140.293174 
L 155.267814 138.623183 
L 156.353615 137.621188 
L 157.439416 136.431605 
L 158.525217 135.78191 
L 159.611019 134.459643 
L 160.69682 133.947207 
L 161.782621 131.77393 
L 162.868422 132.158257 
L 163.954223 130.021583 
L 165.040024 129.532024 
L 166.125825 128.310414 
L 167.211627 128.40192 
L 168.297428 126.228643 
L 169.383229 125.9587 
L 171.554831 122.902386 
L 172.640632 122.435704 
L 173.726434 121.772283 
L 174.812235 119.795745 
L 175.898036 118.697668 
L 176.983837 117.915289 
L 178.069638 117.768878 
L 179.155439 114.680538 
L 180.24124 115.591026 
L 181.327042 112.763479 
L 182.412843 111.944497 
L 183.498644 111.688279 
L 184.584445 109.354866 
L 185.670246 109.496701 
L 187.841849 107.497287 
L 188.92765 105.447544 
L 190.013451 104.907656 
L 191.099252 102.830461 
L 192.185053 103.205637 
L 193.270854 100.927129 
L 194.356656 101.01406 
L 195.442457 100.853923 
L 196.528258 98.113307 
L 197.614059 96.704109 
L 198.69986 97.001505 
L 199.785661 94.636065 
L 200.871462 95.006666 
L 201.957264 92.398734 
L 203.043065 92.06016 
L 204.128866 91.405889 
L 205.214667 89.282941 
L 206.300468 89.12738 
L 208.472071 87.379609 
L 209.557872 86.125971 
L 210.643673 86.414216 
L 211.729474 85.361893 
L 212.815275 83.980146 
L 213.901076 83.472286 
L 214.986877 82.182046 
L 217.15848 81.417968 
L 218.244281 80.484603 
L 220.415883 80.507479 
L 221.501684 81.37679 
L 222.587486 79.555813 
L 223.673287 80.37022 
L 224.759088 80.306165 
L 225.844889 127.953539 
L 226.93069 132.748473 
L 228.016491 132.35042 
L 229.102292 133.091622 
L 230.188094 132.066751 
L 231.273895 131.604643 
L 232.359696 131.69615 
L 233.445497 130.126815 
L 234.531298 130.021583 
L 235.617099 129.559476 
L 236.702901 128.594083 
L 237.788702 128.571207 
L 238.874503 127.482281 
L 239.960304 126.754805 
L 241.046105 126.832586 
L 242.131906 126.539765 
L 243.217708 124.833171 
L 244.303509 126.013603 
L 245.38931 124.819445 
L 247.560912 123.291289 
L 248.646713 124.201777 
L 249.732514 122.897811 
L 250.818316 123.24096 
L 251.904117 122.838332 
L 252.989918 121.465736 
L 254.075719 120.482043 
L 255.16152 121.484037 
L 256.247321 120.934999 
L 257.333123 119.960456 
L 258.418924 119.900977 
L 260.590526 118.359094 
L 261.676327 119.557828 
L 262.762128 118.185232 
L 263.847929 117.988494 
L 264.933731 117.137484 
L 266.019532 116.949896 
L 267.105333 116.949896 
L 268.191134 115.462917 
L 269.276935 116.478638 
L 270.362736 115.408014 
L 271.448538 115.037413 
L 272.534339 114.351115 
L 273.62014 114.794921 
L 274.705941 113.115779 
L 275.791742 113.317093 
L 276.877543 112.543864 
L 277.963344 112.900739 
L 279.049146 112.868711 
L 280.134947 112.12751 
L 281.220748 111.207871 
L 282.306549 110.741188 
L 283.39235 110.420916 
L 284.478151 110.279081 
L 285.563953 109.345716 
L 286.649754 108.824129 
L 287.735555 108.535884 
L 288.821356 108.11038 
L 290.992958 107.039755 
L 292.07876 107.039755 
L 293.164561 106.124691 
L 294.250362 105.841021 
L 295.336163 105.209627 
L 296.421964 105.671734 
L 297.507765 103.95599 
L 300.765169 103.823306 
L 301.85097 102.446134 
L 304.022572 101.88337 
L 305.108373 101.183346 
L 306.194175 101.284003 
L 307.279976 100.634308 
L 308.365777 99.074124 
L 309.451578 99.883956 
L 310.537379 98.076705 
L 311.62318 97.234846 
L 312.708981 97.706104 
L 313.794783 97.015231 
L 314.880584 95.459622 
L 315.966385 94.819077 
L 317.052186 96.168797 
L 318.137987 94.567435 
L 319.223788 94.27919 
L 320.30959 94.21056 
L 321.395391 93.185689 
L 322.481192 92.513117 
L 323.566993 92.083037 
L 324.652794 90.609784 
L 325.738595 90.69214 
L 326.824396 90.573181 
L 327.910198 89.095353 
L 330.0818 89.314969 
L 331.167601 87.978975 
L 332.253402 86.235779 
L 333.339203 86.588078 
L 334.425005 85.988711 
L 335.510806 85.027894 
L 336.596607 84.300419 
L 337.682408 85.188031 
L 338.768209 84.538335 
L 339.85401 83.179466 
L 340.939811 82.365059 
L 342.025613 80.077399 
L 343.111414 81.573529 
L 344.197215 79.862359 
L 345.283016 80.187207 
L 346.368817 79.551237 
L 347.454618 77.79889 
L 348.54042 79.176061 
L 349.626221 76.183803 
L 350.712022 77.693658 
L 352.883624 75.666791 
L 353.969425 75.154356 
L 355.055227 73.836664 
L 356.141028 73.882417 
L 357.226829 71.507826 
L 358.31263 72.633355 
L 359.398431 71.475799 
L 361.570033 71.27906 
L 363.741636 69.256769 
L 366.999039 68.858717 
L 368.08484 69.261345 
L 369.170642 69.828684 
L 370.256443 71.059445 
L 371.342244 73.315077 
L 372.428045 75.826928 
L 373.513846 74.953042 
L 374.599647 77.098866 
L 375.685448 76.687088 
L 376.77125 76.751142 
L 377.857051 77.35966 
L 378.942852 76.64591 
L 380.028653 76.234131 
L 381.114454 77.245277 
L 382.200255 76.604732 
L 383.286057 76.984483 
L 384.371858 76.975333 
L 385.457659 76.833498 
L 386.54346 75.86353 
L 387.629261 76.979908 
L 388.715062 77.460317 
L 389.800863 77.098866 
L 390.886665 78.411983 
L 391.972466 77.817191 
L 393.058267 78.622448 
L 394.144068 78.247271 
L 395.229869 76.179227 
L 396.31567 77.849219 
L 397.401472 77.080565 
L 398.487273 77.675357 
L 398.487273 77.675357 
" clip-path="url(#p92ce5efed3)" style="fill: none; stroke: #1f77b4; stroke-width: 1.5; stroke-linecap: square"/>
   </g>
   <g id="line2d_19">
    <path d="M 73.832727 279.570465 
L 77.090131 225.801314 
L 79.261733 200.545552 
L 80.347534 200.710264 
L 81.433335 188.814434 
L 82.519137 180.670366 
L 83.604938 177.833668 
L 84.690739 167.383639 
L 85.77654 159.495789 
L 86.862341 155.304797 
L 87.948142 147.47185 
L 89.033943 143.445569 
L 91.205546 138.193103 
L 92.291347 137.57086 
L 93.377148 136.308071 
L 94.462949 134.514546 
L 95.54875 170.677869 
L 96.634552 165.699922 
L 97.720353 157.50095 
L 98.806154 163.924698 
L 99.891955 156.530982 
L 100.977756 150.747779 
L 103.149358 143.903101 
L 105.320961 138.742141 
L 106.406762 132.519707 
L 107.492563 133.434771 
L 108.578364 132.373297 
L 109.664165 128.40192 
L 110.749967 129.82942 
L 111.835768 121.538941 
L 112.921569 118.738846 
L 114.00737 116.6525 
L 115.093171 117.329648 
L 116.178972 109.862727 
L 117.264773 108.233913 
L 118.350575 108.453529 
L 119.436376 107.90449 
L 120.522177 100.766992 
L 121.607978 102.633723 
L 122.693779 98.351224 
L 123.77958 99.778723 
L 124.865382 98.44273 
L 125.951183 94.983789 
L 128.122785 92.476514 
L 129.208586 90.207156 
L 130.294387 89.84113 
L 131.380189 87.956099 
L 132.46599 87.077637 
L 133.551791 87.150843 
L 134.637592 86.656708 
L 135.723393 85.430523 
L 137.894995 85.741644 
L 138.980797 127.212337 
L 140.066598 122.344197 
L 141.152399 123.423973 
L 142.2382 120.36766 
L 143.324001 122.600415 
L 144.409802 121.355929 
L 145.495604 118.208109 
L 146.581405 113.980514 
L 147.667206 115.426315 
L 148.753007 111.802662 
L 149.838808 114.730866 
L 150.924609 113.577886 
L 152.01041 108.270516 
L 153.096212 111.546444 
L 154.182013 108.307118 
L 155.267814 109.460099 
L 156.353615 107.337151 
L 157.439416 106.257375 
L 158.525217 108.691445 
L 160.69682 102.871639 
L 161.782621 102.798434 
L 162.868422 102.340902 
L 163.954223 100.858499 
L 165.040024 99.138179 
L 166.125825 97.802186 
L 167.211627 95.258308 
L 168.297428 97.472763 
L 169.383229 99.247986 
L 170.46903 96.521096 
L 171.554831 90.316963 
L 172.640632 100.30946 
L 173.726434 95.056994 
L 174.812235 93.812507 
L 175.898036 92.366706 
L 176.983837 85.522029 
L 178.069638 87.608374 
L 179.155439 87.571772 
L 180.24124 85.210907 
L 181.327042 81.550652 
L 182.412843 83.325876 
L 183.498644 84.423952 
L 184.584445 82.282703 
L 185.670246 82.593825 
L 186.756047 83.362478 
L 187.841849 80.104851 
L 188.92765 78.732255 
L 190.013451 77.853794 
L 191.099252 77.670781 
L 192.185053 76.353089 
L 193.270854 75.968763 
L 194.356656 75.255013 
L 195.442457 73.223571 
L 196.528258 72.180398 
L 197.614059 73.150366 
L 198.69986 70.643091 
L 199.785661 70.258764 
L 200.871462 68.410335 
L 201.957264 68.373733 
L 203.043065 66.61681 
L 205.214667 66.982836 
L 206.300468 65.976266 
L 207.386269 64.091234 
L 208.472071 63.231074 
L 209.557872 63.560497 
L 210.643673 63.121266 
L 211.729474 62.242805 
L 212.815275 62.31601 
L 213.901076 62.791843 
L 214.986877 61.364344 
L 217.15848 61.181331 
L 218.244281 61.199632 
L 219.330082 60.613991 
L 221.501684 59.88194 
L 222.587486 60.778703 
L 223.673287 60.064953 
L 224.759088 59.991748 
L 225.844889 103.109556 
L 226.93069 105.74494 
L 228.016491 106.403786 
L 229.102292 107.46526 
L 230.188094 102.285998 
L 231.273895 103.219363 
L 232.359696 102.3043 
L 233.445497 102.59712 
L 234.531298 101.370934 
L 235.617099 108.728048 
L 236.702901 99.211384 
L 237.788702 102.999748 
L 238.874503 99.083275 
L 239.960304 94.270039 
L 241.046105 95.349814 
L 242.131906 97.893692 
L 243.217708 95.880551 
L 244.303509 95.770744 
L 245.38931 102.725229 
L 247.560912 91.012412 
L 248.646713 93.794206 
L 249.732514 97.564269 
L 250.818316 98.204814 
L 251.904117 102.02978 
L 252.989918 95.386417 
L 254.075719 93.592892 
L 255.16152 97.491064 
L 256.247321 93.775905 
L 257.333123 92.458213 
L 258.418924 95.807346 
L 259.504725 96.173372 
L 260.590526 94.050424 
L 261.676327 96.978628 
L 262.762128 91.360136 
L 263.847929 95.514526 
L 264.933731 89.530009 
L 266.019532 90.463374 
L 267.105333 93.904014 
L 268.191134 91.799367 
L 269.276935 93.464783 
L 270.362736 89.4019 
L 271.448538 90.225457 
L 272.534339 89.603214 
L 273.62014 90.481675 
L 274.705941 88.011003 
L 275.791742 86.656708 
L 276.877543 85.631837 
L 277.963344 85.448824 
L 279.049146 83.929818 
L 280.134947 87.791387 
L 281.220748 89.328694 
L 282.306549 87.095939 
L 283.39235 87.718182 
L 284.478151 85.064497 
L 285.563953 88.816259 
L 286.649754 81.825171 
L 287.735555 88.175714 
L 288.821356 83.710203 
L 289.907157 83.746805 
L 290.992958 86.345586 
L 292.07876 86.656708 
L 293.164561 84.698471 
L 294.250362 80.324466 
L 295.336163 81.623857 
L 296.421964 86.565202 
L 297.507765 79.446005 
L 298.593566 80.8003 
L 299.679368 79.317896 
L 300.765169 79.281294 
L 301.85097 78.36623 
L 302.936771 80.763697 
L 304.022572 79.171486 
L 305.108373 78.329627 
L 306.194175 76.316487 
L 307.279976 78.146614 
L 308.365777 76.828923 
L 309.451578 80.983312 
L 310.537379 71.997386 
L 311.62318 75.657641 
L 312.708981 74.394853 
L 313.794783 74.047129 
L 314.880584 77.908698 
L 315.966385 75.749147 
L 317.052186 72.49152 
L 318.137987 72.473219 
L 319.223788 73.900718 
L 320.30959 69.819534 
L 321.395391 69.801232 
L 322.481192 78.439435 
L 323.566993 70.569886 
L 324.652794 73.132065 
L 325.738595 70.350271 
L 326.824396 69.76463 
L 327.910198 72.766039 
L 328.995999 69.929341 
L 330.0818 68.373733 
L 331.167601 63.761811 
L 333.339203 69.545014 
L 334.425005 66.488701 
L 335.510806 66.287387 
L 336.596607 68.703156 
L 337.682408 62.846747 
L 338.768209 65.482131 
L 339.85401 64.878189 
L 340.939811 65.482131 
L 342.025613 63.359183 
L 343.111414 65.134407 
L 344.197215 63.505593 
L 345.283016 62.151299 
L 346.368817 59.936844 
L 347.454618 61.748671 
L 348.54042 60.723799 
L 350.712022 62.004889 
L 351.797823 59.461011 
L 352.883624 57.923704 
L 353.969425 57.594281 
L 357.226829 56.185083 
L 358.31263 57.484473 
L 359.398431 56.697518 
L 360.484232 56.551108 
L 361.570033 54.007231 
L 362.655835 54.958897 
L 363.741636 53.568 
L 364.827437 54.098737 
L 365.913238 55.160211 
L 366.999039 54.153641 
L 368.08484 54.226846 
L 370.256443 56.935435 
L 371.342244 59.772133 
L 372.428045 60.064953 
L 373.513846 60.7421 
L 374.599647 62.297709 
L 375.685448 61.089825 
L 376.77125 59.662325 
L 377.857051 62.535626 
L 378.942852 61.748671 
L 380.028653 60.376075 
L 381.114454 63.395786 
L 382.200255 60.522485 
L 383.286057 60.339472 
L 384.371858 63.359183 
L 385.457659 61.181331 
L 387.629261 62.444119 
L 388.715062 60.193062 
L 389.800863 63.908221 
L 390.886665 64.823285 
L 391.972466 60.540786 
L 393.058267 60.412677 
L 394.144068 61.583959 
L 395.229869 60.412677 
L 396.31567 61.657164 
L 397.401472 62.206203 
L 398.487273 62.206203 
L 398.487273 62.206203 
" clip-path="url(#p92ce5efed3)" style="fill: none; stroke: #ff7f0e; stroke-width: 1.5; stroke-linecap: square"/>
   </g>
   <g id="line2d_20">
    <path d="M 73.832727 287.768806 
L 74.918528 277.040471 
L 76.00433 261.263508 
L 77.090131 253.690566 
L 78.175932 251.292468 
L 79.261733 241.82629 
L 80.347534 242.457369 
L 81.433335 237.534957 
L 82.519137 231.85525 
L 83.604938 229.835799 
L 84.690739 224.029877 
L 86.862341 215.320993 
L 87.948142 207.369404 
L 89.033943 207.116973 
L 90.119745 206.107247 
L 91.205546 203.582933 
L 92.291347 203.835365 
L 94.462949 201.437266 
L 95.54875 224.913387 
L 96.634552 224.156092 
L 97.720353 218.855033 
L 98.806154 220.622053 
L 99.891955 220.11719 
L 100.977756 215.194778 
L 102.063557 210.903444 
L 103.149358 214.437483 
L 104.23516 207.49562 
L 105.320961 203.835365 
L 106.406762 200.806188 
L 107.492563 199.922678 
L 108.578364 201.942129 
L 109.664165 202.825639 
L 110.749967 201.689698 
L 111.835768 193.611893 
L 112.921569 194.116756 
L 114.00737 191.213795 
L 115.093171 198.029442 
L 116.178972 185.786519 
L 117.264773 185.660304 
L 118.350575 185.281657 
L 119.436376 182.631127 
L 120.522177 177.330067 
L 121.607978 179.349519 
L 122.693779 176.572773 
L 123.77958 176.698989 
L 124.865382 177.077636 
L 125.951183 174.553322 
L 127.036984 174.048459 
L 128.122785 172.155224 
L 130.294387 170.388204 
L 131.380189 167.737674 
L 132.46599 167.359027 
L 133.551791 165.844439 
L 134.637592 164.834713 
L 135.723393 166.854164 
L 136.809194 165.970654 
L 137.894995 166.223086 
L 138.980797 197.903227 
L 140.066598 193.611893 
L 141.152399 195.252697 
L 142.2382 189.57299 
L 143.324001 189.57299 
L 144.409802 195.505128 
L 145.495604 188.68948 
L 146.581405 193.10703 
L 148.753007 185.155441 
L 149.838808 190.708932 
L 150.924609 185.786519 
L 152.01041 186.796245 
L 153.096212 188.815696 
L 154.182013 182.504911 
L 155.267814 185.281657 
L 156.353615 186.038951 
L 157.439416 181.36897 
L 158.525217 181.873833 
L 159.611019 185.660304 
L 160.69682 178.71844 
L 161.782621 181.621401 
L 162.868422 179.60195 
L 163.954223 178.592224 
L 165.040024 176.194126 
L 166.125825 174.300891 
L 167.211627 171.145498 
L 169.383229 180.48546 
L 170.46903 176.446558 
L 171.554831 166.223086 
L 172.640632 175.184401 
L 173.726434 173.543596 
L 174.812235 168.873615 
L 175.898036 169.378478 
L 176.983837 166.223086 
L 178.069638 168.999831 
L 179.155439 167.737674 
L 180.24124 165.339576 
L 181.327042 157.00934 
L 182.412843 163.698772 
L 183.498644 161.300673 
L 184.584445 161.553105 
L 185.670246 160.922026 
L 186.756047 167.737674 
L 187.841849 158.776359 
L 188.92765 158.145281 
L 190.013451 160.417164 
L 191.099252 158.902575 
L 192.185053 158.397712 
L 194.356656 155.747183 
L 195.442457 155.116104 
L 196.528258 153.096653 
L 198.69986 151.70828 
L 199.785661 152.844222 
L 200.871462 147.795593 
L 201.957264 146.659652 
L 204.128866 146.407221 
L 205.214667 147.795593 
L 206.300468 145.145064 
L 207.386269 145.271279 
L 208.472071 145.145064 
L 209.557872 145.523711 
L 210.643673 146.659652 
L 211.729474 145.523711 
L 212.815275 141.232377 
L 213.901076 144.38777 
L 214.986877 143.378044 
L 217.15848 142.62075 
L 218.244281 142.62075 
L 219.330082 140.601299 
L 220.415883 140.85373 
L 221.501684 140.85373 
L 222.587486 142.62075 
L 223.673287 142.494534 
L 224.759088 142.115887 
L 225.844889 180.359244 
L 226.93069 186.543814 
L 228.016491 182.378695 
L 229.102292 184.650578 
L 230.188094 176.825205 
L 231.273895 178.087362 
L 233.445497 182.504911 
L 234.531298 174.553322 
L 235.617099 186.291382 
L 236.702901 173.291165 
L 237.788702 178.339793 
L 238.874503 173.543596 
L 239.960304 173.291165 
L 241.046105 169.757125 
L 242.131906 174.679538 
L 243.217708 171.145498 
L 244.303509 171.902792 
L 245.38931 184.776794 
L 246.475111 174.553322 
L 247.560912 166.601733 
L 248.646713 172.407655 
L 249.732514 177.456283 
L 250.818316 173.038734 
L 251.904117 178.71844 
L 252.989918 172.660087 
L 254.075719 169.126047 
L 255.16152 172.912518 
L 256.247321 173.417381 
L 257.333123 170.766851 
L 258.418924 170.893067 
L 259.504725 174.174675 
L 260.590526 167.359027 
L 261.676327 176.446558 
L 262.762128 172.407655 
L 263.847929 175.184401 
L 264.933731 167.359027 
L 266.019532 166.09687 
L 267.105333 169.126047 
L 268.191134 163.193909 
L 269.276935 171.019282 
L 270.362736 165.087144 
L 271.448538 164.960929 
L 272.534339 169.252263 
L 273.62014 167.232811 
L 274.705941 164.456066 
L 275.791742 163.193909 
L 276.877543 157.387987 
L 277.963344 162.941478 
L 279.049146 161.426889 
L 280.134947 167.106596 
L 281.220748 168.368753 
L 282.306549 164.456066 
L 283.39235 164.582282 
L 284.478151 161.805536 
L 285.563953 169.252263 
L 286.649754 156.378261 
L 287.735555 167.359027 
L 288.821356 163.951203 
L 289.907157 163.951203 
L 290.992958 161.679321 
L 292.07876 161.300673 
L 293.164561 167.990106 
L 294.250362 157.387987 
L 295.336163 162.436615 
L 296.421964 164.203635 
L 297.507765 153.601516 
L 298.593566 161.553105 
L 299.679368 156.883124 
L 300.765169 157.261771 
L 301.85097 158.523928 
L 302.936771 158.397712 
L 304.022572 163.572556 
L 305.108373 156.630693 
L 306.194175 153.096653 
L 307.279976 154.485026 
L 308.365777 150.193692 
L 309.451578 161.426889 
L 310.537379 147.290731 
L 311.62318 153.601516 
L 312.708981 154.35881 
L 313.794783 154.485026 
L 314.880584 158.523928 
L 315.966385 155.24232 
L 317.052186 154.989888 
L 318.137987 147.921809 
L 319.223788 150.319907 
L 320.30959 150.950986 
L 321.395391 146.912084 
L 322.481192 159.028791 
L 323.566993 146.028574 
L 324.652794 158.145281 
L 325.738595 144.38777 
L 326.824396 147.795593 
L 327.910198 149.05775 
L 328.995999 149.310182 
L 330.0818 149.183966 
L 331.167601 142.494534 
L 332.253402 146.028574 
L 333.339203 154.35881 
L 334.425005 150.572339 
L 335.510806 145.523711 
L 336.596607 150.067476 
L 337.682408 137.950769 
L 338.768209 139.465357 
L 339.85401 142.115887 
L 340.939811 148.048025 
L 342.025613 140.727514 
L 343.111414 146.785868 
L 344.197215 142.999397 
L 345.283016 135.047808 
L 347.454618 140.601299 
L 348.54042 140.348867 
L 349.626221 144.135338 
L 350.712022 139.339142 
L 351.797823 143.125613 
L 352.883624 138.960494 
L 353.969425 137.698337 
L 356.141028 134.669161 
L 357.226829 135.174023 
L 358.31263 138.708063 
L 359.398431 134.542945 
L 360.484232 128.484591 
L 361.570033 129.620533 
L 362.655835 131.135121 
L 363.741636 133.785651 
L 364.827437 131.639984 
L 365.913238 134.164298 
L 366.999039 133.280788 
L 368.08484 132.649709 
L 369.170642 134.416729 
L 370.256443 138.455632 
L 371.342244 139.97022 
L 372.428045 135.426455 
L 373.513846 137.698337 
L 374.599647 140.475083 
L 375.685448 138.2032 
L 376.77125 133.028357 
L 377.857051 145.271279 
L 378.942852 143.251828 
L 380.028653 134.795376 
L 381.114454 140.475083 
L 382.200255 140.348867 
L 383.286057 135.931318 
L 384.371858 143.882907 
L 385.457659 134.795376 
L 386.54346 139.717789 
L 387.629261 143.756691 
L 388.715062 139.717789 
L 389.800863 141.73724 
L 390.886665 144.135338 
L 391.972466 145.776142 
L 393.058267 137.950769 
L 394.144068 136.941043 
L 396.31567 140.601299 
L 397.401472 141.106161 
L 398.487273 142.62075 
L 398.487273 142.62075 
" clip-path="url(#p92ce5efed3)" style="fill: none; stroke: #2ca02c; stroke-width: 1.5; stroke-linecap: square"/>
   </g>
   <g id="line2d_21">
    <path d="M 368.08484 54.684378 
L 369.170642 56.29489 
L 370.256443 58.289729 
L 371.342244 57.502774 
L 372.428045 61.87678 
L 373.513846 61.583959 
L 374.599647 64.640272 
L 375.685448 61.108126 
L 376.77125 65.280817 
L 377.857051 60.30287 
L 380.028653 65.061202 
L 381.114454 63.963125 
L 383.286057 67.001137 
L 384.371858 67.568477 
L 385.457659 66.818124 
L 386.54346 71.521552 
L 387.629261 64.329151 
L 388.715062 70.551585 
L 389.800863 70.62479 
L 390.886665 72.180398 
L 391.972466 76.902128 
L 393.058267 68.209021 
L 394.144068 66.031169 
L 395.229869 69.856136 
L 396.31567 72.78434 
L 397.401472 73.095462 
L 398.487273 79.482608 
L 398.487273 79.482608 
" clip-path="url(#p92ce5efed3)" style="fill: none; stroke: #d62728; stroke-width: 1.5; stroke-linecap: square"/>
   </g>
   <g id="line2d_22">
    <path d="M 368.08484 132.775925 
L 369.170642 134.290514 
L 370.256443 137.824553 
L 371.342244 133.028357 
L 372.428045 137.445906 
L 373.513846 137.067259 
L 374.599647 143.882907 
L 375.685448 142.999397 
L 376.77125 143.630475 
L 377.857051 132.649709 
L 378.942852 137.698337 
L 380.028653 138.329416 
L 381.114454 137.067259 
L 383.286057 143.125613 
L 384.371858 142.368318 
L 385.457659 143.882907 
L 386.54346 142.746965 
L 387.629261 141.232377 
L 388.715062 145.018848 
L 389.800863 144.766417 
L 390.886665 153.096653 
L 391.972466 153.096653 
L 393.058267 143.125613 
L 394.144068 139.591573 
L 395.229869 142.746965 
L 396.31567 150.572339 
L 397.401472 148.805319 
L 398.487273 154.35881 
L 398.487273 154.35881 
" clip-path="url(#p92ce5efed3)" style="fill: none; stroke: #9467bd; stroke-width: 1.5; stroke-linecap: square"/>
   </g>
   <g id="patch_3">
    <path d="M 57.6 307.584 
L 57.6 41.472 
" style="fill: none; stroke: #000000; stroke-width: 0.8; stroke-linejoin: miter; stroke-linecap: square"/>
   </g>
   <g id="patch_4">
    <path d="M 414.72 307.584 
L 414.72 41.472 
" style="fill: none; stroke: #000000; stroke-width: 0.8; stroke-linejoin: miter; stroke-linecap: square"/>
   </g>
   <g id="patch_5">
    <path d="M 57.6 307.584 
L 414.72 307.584 
" style="fill: none; stroke: #000000; stroke-width: 0.8; stroke-linejoin: miter; stroke-linecap: square"/>
   </g>
   <g id="patch_6">
    <path d="M 57.6 41.472 
L 414.72 41.472 
" style="fill: none; stroke: #000000; stroke-width: 0.8; stroke-linejoin: miter; stroke-linecap: square"/>
   </g>
   <g id="text_20">
    <!-- Learning Curves -->
    <g transform="translate(187.37625 35.472) scale(0.12 -0.12)">
     <defs>
      <path id="DejaVuSans-4c" d="M 628 4666 
L 1259 4666 
L 1259 531 
L 3531 531 
L 3531 0 
L 628 0 
L 628 4666 
z
" transform="scale(0.015625)"/>
      <path id="DejaVuSans-65" d="M 3597 1894 
L 3597 1613 
L 953 1613 
Q 991 1019 1311 708 
Q 1631 397 2203 397 
Q 2534 397 2845 478 
Q 3156 559 3463 722 
L 3463 178 
Q 3153 47 2828 -22 
Q 2503 -91 2169 -91 
Q 1331 -91 842 396 
Q 353 884 353 1716 
Q 353 2575 817 3079 
Q 1281 3584 2069 3584 
Q 2775 3584 3186 3129 
Q 3597 2675 3597 1894 
z
M 3022 2063 
Q 3016 2534 2758 2815 
Q 2500 3097 2075 3097 
Q 1594 3097 1305 2825 
Q 1016 2553 972 2059 
L 3022 2063 
z
" transform="scale(0.015625)"/>
      <path id="DejaVuSans-6e" d="M 3513 2113 
L 3513 0 
L 2938 0 
L 2938 2094 
Q 2938 2591 2744 2837 
Q 2550 3084 2163 3084 
Q 1697 3084 1428 2787 
Q 1159 2491 1159 1978 
L 1159 0 
L 581 0 
L 581 3500 
L 1159 3500 
L 1159 2956 
Q 1366 3272 1645 3428 
Q 1925 3584 2291 3584 
Q 2894 3584 3203 3211 
Q 3513 2838 3513 2113 
z
" transform="scale(0.015625)"/>
      <path id="DejaVuSans-69" d="M 603 3500 
L 1178 3500 
L 1178 0 
L 603 0 
L 603 3500 
z
M 603 4863 
L 1178 4863 
L 1178 4134 
L 603 4134 
L 603 4863 
z
" transform="scale(0.015625)"/>
      <path id="DejaVuSans-67" d="M 2906 1791 
Q 2906 2416 2648 2759 
Q 2391 3103 1925 3103 
Q 1463 3103 1205 2759 
Q 947 2416 947 1791 
Q 947 1169 1205 825 
Q 1463 481 1925 481 
Q 2391 481 2648 825 
Q 2906 1169 2906 1791 
z
M 3481 434 
Q 3481 -459 3084 -895 
Q 2688 -1331 1869 -1331 
Q 1566 -1331 1297 -1286 
Q 1028 -1241 775 -1147 
L 775 -588 
Q 1028 -725 1275 -790 
Q 1522 -856 1778 -856 
Q 2344 -856 2625 -561 
Q 2906 -266 2906 331 
L 2906 616 
Q 2728 306 2450 153 
Q 2172 0 1784 0 
Q 1141 0 747 490 
Q 353 981 353 1791 
Q 353 2603 747 3093 
Q 1141 3584 1784 3584 
Q 2172 3584 2450 3431 
Q 2728 3278 2906 2969 
L 2906 3500 
L 3481 3500 
L 3481 434 
z
" transform="scale(0.015625)"/>
      <path id="DejaVuSans-20" transform="scale(0.015625)"/>
      <path id="DejaVuSans-43" d="M 4122 4306 
L 4122 3641 
Q 3803 3938 3442 4084 
Q 3081 4231 2675 4231 
Q 1875 4231 1450 3742 
Q 1025 3253 1025 2328 
Q 1025 1406 1450 917 
Q 1875 428 2675 428 
Q 3081 428 3442 575 
Q 3803 722 4122 1019 
L 4122 359 
Q 3791 134 3420 21 
Q 3050 -91 2638 -91 
Q 1578 -91 968 557 
Q 359 1206 359 2328 
Q 359 3453 968 4101 
Q 1578 4750 2638 4750 
Q 3056 4750 3426 4639 
Q 3797 4528 4122 4306 
z
" transform="scale(0.015625)"/>
      <path id="DejaVuSans-76" d="M 191 3500 
L 800 3500 
L 1894 563 
L 2988 3500 
L 3597 3500 
L 2284 0 
L 1503 0 
L 191 3500 
z
" transform="scale(0.015625)"/>
     </defs>
     <use xlink:href="#DejaVuSans-4c"/>
     <use xlink:href="#DejaVuSans-65" x="53.962891"/>
     <use xlink:href="#DejaVuSans-61" x="115.486328"/>
     <use xlink:href="#DejaVuSans-72" x="176.765625"/>
     <use xlink:href="#DejaVuSans-6e" x="216.128906"/>
     <use xlink:href="#DejaVuSans-69" x="279.507812"/>
     <use xlink:href="#DejaVuSans-6e" x="307.291016"/>
     <use xlink:href="#DejaVuSans-67" x="370.669922"/>
     <use xlink:href="#DejaVuSans-20" x="434.146484"/>
     <use xlink:href="#DejaVuSans-43" x="465.933594"/>
     <use xlink:href="#DejaVuSans-75" x="535.757812"/>
     <use xlink:href="#DejaVuSans-72" x="599.136719"/>
     <use xlink:href="#DejaVuSans-76" x="640.25"/>
     <use xlink:href="#DejaVuSans-65" x="699.429688"/>
     <use xlink:href="#DejaVuSans-73" x="760.953125"/>
    </g>
   </g>
   <g id="legend_1">
    <g id="patch_7">
     <path d="M 214.18875 302.584 
L 407.72 302.584 
Q 409.72 302.584 409.72 300.584 
L 409.72 228.193375 
Q 409.72 226.193375 407.72 226.193375 
L 214.18875 226.193375 
Q 212.18875 226.193375 212.18875 228.193375 
L 212.18875 300.584 
Q 212.18875 302.584 214.18875 302.584 
z
" style="fill: #ffffff; opacity: 0.8; stroke: #cccccc; stroke-linejoin: miter"/>
    </g>
    <g id="line2d_23">
     <path d="M 216.18875 234.291812 
L 226.18875 234.291812 
L 236.18875 234.291812 
" style="fill: none; stroke: #1f77b4; stroke-width: 1.5; stroke-linecap: square"/>
    </g>
    <g id="text_21">
     <!-- Train Accuracy -->
     <g transform="translate(244.18875 237.791812) scale(0.1 -0.1)">
      <defs>
       <path id="DejaVuSans-54" d="M -19 4666 
L 3928 4666 
L 3928 4134 
L 2272 4134 
L 2272 0 
L 1638 0 
L 1638 4134 
L -19 4134 
L -19 4666 
z
" transform="scale(0.015625)"/>
      </defs>
      <use xlink:href="#DejaVuSans-54"/>
      <use xlink:href="#DejaVuSans-72" x="46.333984"/>
      <use xlink:href="#DejaVuSans-61" x="87.447266"/>
      <use xlink:href="#DejaVuSans-69" x="148.726562"/>
      <use xlink:href="#DejaVuSans-6e" x="176.509766"/>
      <use xlink:href="#DejaVuSans-20" x="239.888672"/>
      <use xlink:href="#DejaVuSans-41" x="271.675781"/>
      <use xlink:href="#DejaVuSans-63" x="338.333984"/>
      <use xlink:href="#DejaVuSans-63" x="393.314453"/>
      <use xlink:href="#DejaVuSans-75" x="448.294922"/>
      <use xlink:href="#DejaVuSans-72" x="511.673828"/>
      <use xlink:href="#DejaVuSans-61" x="552.787109"/>
      <use xlink:href="#DejaVuSans-63" x="614.066406"/>
      <use xlink:href="#DejaVuSans-79" x="669.046875"/>
     </g>
    </g>
    <g id="line2d_24">
     <path d="M 216.18875 248.969937 
L 226.18875 248.969937 
L 236.18875 248.969937 
" style="fill: none; stroke: #ff7f0e; stroke-width: 1.5; stroke-linecap: square"/>
    </g>
    <g id="text_22">
     <!-- Validation Accuracy -->
     <g transform="translate(244.18875 252.469937) scale(0.1 -0.1)">
      <defs>
       <path id="DejaVuSans-56" d="M 1831 0 
L 50 4666 
L 709 4666 
L 2188 738 
L 3669 4666 
L 4325 4666 
L 2547 0 
L 1831 0 
z
" transform="scale(0.015625)"/>
       <path id="DejaVuSans-6c" d="M 603 4863 
L 1178 4863 
L 1178 0 
L 603 0 
L 603 4863 
z
" transform="scale(0.015625)"/>
       <path id="DejaVuSans-64" d="M 2906 2969 
L 2906 4863 
L 3481 4863 
L 3481 0 
L 2906 0 
L 2906 525 
Q 2725 213 2448 61 
Q 2172 -91 1784 -91 
Q 1150 -91 751 415 
Q 353 922 353 1747 
Q 353 2572 751 3078 
Q 1150 3584 1784 3584 
Q 2172 3584 2448 3432 
Q 2725 3281 2906 2969 
z
M 947 1747 
Q 947 1113 1208 752 
Q 1469 391 1925 391 
Q 2381 391 2643 752 
Q 2906 1113 2906 1747 
Q 2906 2381 2643 2742 
Q 2381 3103 1925 3103 
Q 1469 3103 1208 2742 
Q 947 2381 947 1747 
z
" transform="scale(0.015625)"/>
       <path id="DejaVuSans-74" d="M 1172 4494 
L 1172 3500 
L 2356 3500 
L 2356 3053 
L 1172 3053 
L 1172 1153 
Q 1172 725 1289 603 
Q 1406 481 1766 481 
L 2356 481 
L 2356 0 
L 1766 0 
Q 1100 0 847 248 
Q 594 497 594 1153 
L 594 3053 
L 172 3053 
L 172 3500 
L 594 3500 
L 594 4494 
L 1172 4494 
z
" transform="scale(0.015625)"/>
      </defs>
      <use xlink:href="#DejaVuSans-56"/>
      <use xlink:href="#DejaVuSans-61" x="60.658203"/>
      <use xlink:href="#DejaVuSans-6c" x="121.9375"/>
      <use xlink:href="#DejaVuSans-69" x="149.720703"/>
      <use xlink:href="#DejaVuSans-64" x="177.503906"/>
      <use xlink:href="#DejaVuSans-61" x="240.980469"/>
      <use xlink:href="#DejaVuSans-74" x="302.259766"/>
      <use xlink:href="#DejaVuSans-69" x="341.46875"/>
      <use xlink:href="#DejaVuSans-6f" x="369.251953"/>
      <use xlink:href="#DejaVuSans-6e" x="430.433594"/>
      <use xlink:href="#DejaVuSans-20" x="493.8125"/>
      <use xlink:href="#DejaVuSans-41" x="525.599609"/>
      <use xlink:href="#DejaVuSans-63" x="592.257812"/>
      <use xlink:href="#DejaVuSans-63" x="647.238281"/>
      <use xlink:href="#DejaVuSans-75" x="702.21875"/>
      <use xlink:href="#DejaVuSans-72" x="765.597656"/>
      <use xlink:href="#DejaVuSans-61" x="806.710938"/>
      <use xlink:href="#DejaVuSans-63" x="867.990234"/>
      <use xlink:href="#DejaVuSans-79" x="922.970703"/>
     </g>
    </g>
    <g id="line2d_25">
     <path d="M 216.18875 263.648062 
L 226.18875 263.648062 
L 236.18875 263.648062 
" style="fill: none; stroke: #2ca02c; stroke-width: 1.5; stroke-linecap: square"/>
    </g>
    <g id="text_23">
     <!-- Robust Validation Accuracy -->
     <g transform="translate(244.18875 267.148062) scale(0.1 -0.1)">
      <defs>
       <path id="DejaVuSans-52" d="M 2841 2188 
Q 3044 2119 3236 1894 
Q 3428 1669 3622 1275 
L 4263 0 
L 3584 0 
L 2988 1197 
Q 2756 1666 2539 1819 
Q 2322 1972 1947 1972 
L 1259 1972 
L 1259 0 
L 628 0 
L 628 4666 
L 2053 4666 
Q 2853 4666 3247 4331 
Q 3641 3997 3641 3322 
Q 3641 2881 3436 2590 
Q 3231 2300 2841 2188 
z
M 1259 4147 
L 1259 2491 
L 2053 2491 
Q 2509 2491 2742 2702 
Q 2975 2913 2975 3322 
Q 2975 3731 2742 3939 
Q 2509 4147 2053 4147 
L 1259 4147 
z
" transform="scale(0.015625)"/>
       <path id="DejaVuSans-62" d="M 3116 1747 
Q 3116 2381 2855 2742 
Q 2594 3103 2138 3103 
Q 1681 3103 1420 2742 
Q 1159 2381 1159 1747 
Q 1159 1113 1420 752 
Q 1681 391 2138 391 
Q 2594 391 2855 752 
Q 3116 1113 3116 1747 
z
M 1159 2969 
Q 1341 3281 1617 3432 
Q 1894 3584 2278 3584 
Q 2916 3584 3314 3078 
Q 3713 2572 3713 1747 
Q 3713 922 3314 415 
Q 2916 -91 2278 -91 
Q 1894 -91 1617 61 
Q 1341 213 1159 525 
L 1159 0 
L 581 0 
L 581 4863 
L 1159 4863 
L 1159 2969 
z
" transform="scale(0.015625)"/>
      </defs>
      <use xlink:href="#DejaVuSans-52"/>
      <use xlink:href="#DejaVuSans-6f" x="64.982422"/>
      <use xlink:href="#DejaVuSans-62" x="126.164062"/>
      <use xlink:href="#DejaVuSans-75" x="189.640625"/>
      <use xlink:href="#DejaVuSans-73" x="253.019531"/>
      <use xlink:href="#DejaVuSans-74" x="305.119141"/>
      <use xlink:href="#DejaVuSans-20" x="344.328125"/>
      <use xlink:href="#DejaVuSans-56" x="376.115234"/>
      <use xlink:href="#DejaVuSans-61" x="436.773438"/>
      <use xlink:href="#DejaVuSans-6c" x="498.052734"/>
      <use xlink:href="#DejaVuSans-69" x="525.835938"/>
      <use xlink:href="#DejaVuSans-64" x="553.619141"/>
      <use xlink:href="#DejaVuSans-61" x="617.095703"/>
      <use xlink:href="#DejaVuSans-74" x="678.375"/>
      <use xlink:href="#DejaVuSans-69" x="717.583984"/>
      <use xlink:href="#DejaVuSans-6f" x="745.367188"/>
      <use xlink:href="#DejaVuSans-6e" x="806.548828"/>
      <use xlink:href="#DejaVuSans-20" x="869.927734"/>
      <use xlink:href="#DejaVuSans-41" x="901.714844"/>
      <use xlink:href="#DejaVuSans-63" x="968.373047"/>
      <use xlink:href="#DejaVuSans-63" x="1023.353516"/>
      <use xlink:href="#DejaVuSans-75" x="1078.333984"/>
      <use xlink:href="#DejaVuSans-72" x="1141.712891"/>
      <use xlink:href="#DejaVuSans-61" x="1182.826172"/>
      <use xlink:href="#DejaVuSans-63" x="1244.105469"/>
      <use xlink:href="#DejaVuSans-79" x="1299.085938"/>
     </g>
    </g>
    <g id="line2d_26">
     <path d="M 216.18875 278.326188 
L 226.18875 278.326188 
L 236.18875 278.326188 
" style="fill: none; stroke: #d62728; stroke-width: 1.5; stroke-linecap: square"/>
    </g>
    <g id="text_24">
     <!-- SWA Validation Accuracy -->
     <g transform="translate(244.18875 281.826188) scale(0.1 -0.1)">
      <defs>
       <path id="DejaVuSans-53" d="M 3425 4513 
L 3425 3897 
Q 3066 4069 2747 4153 
Q 2428 4238 2131 4238 
Q 1616 4238 1336 4038 
Q 1056 3838 1056 3469 
Q 1056 3159 1242 3001 
Q 1428 2844 1947 2747 
L 2328 2669 
Q 3034 2534 3370 2195 
Q 3706 1856 3706 1288 
Q 3706 609 3251 259 
Q 2797 -91 1919 -91 
Q 1588 -91 1214 -16 
Q 841 59 441 206 
L 441 856 
Q 825 641 1194 531 
Q 1563 422 1919 422 
Q 2459 422 2753 634 
Q 3047 847 3047 1241 
Q 3047 1584 2836 1778 
Q 2625 1972 2144 2069 
L 1759 2144 
Q 1053 2284 737 2584 
Q 422 2884 422 3419 
Q 422 4038 858 4394 
Q 1294 4750 2059 4750 
Q 2388 4750 2728 4690 
Q 3069 4631 3425 4513 
z
" transform="scale(0.015625)"/>
       <path id="DejaVuSans-57" d="M 213 4666 
L 850 4666 
L 1831 722 
L 2809 4666 
L 3519 4666 
L 4500 722 
L 5478 4666 
L 6119 4666 
L 4947 0 
L 4153 0 
L 3169 4050 
L 2175 0 
L 1381 0 
L 213 4666 
z
" transform="scale(0.015625)"/>
      </defs>
      <use xlink:href="#DejaVuSans-53"/>
      <use xlink:href="#DejaVuSans-57" x="63.476562"/>
      <use xlink:href="#DejaVuSans-41" x="156.853516"/>
      <use xlink:href="#DejaVuSans-20" x="225.261719"/>
      <use xlink:href="#DejaVuSans-56" x="257.048828"/>
      <use xlink:href="#DejaVuSans-61" x="317.707031"/>
      <use xlink:href="#DejaVuSans-6c" x="378.986328"/>
      <use xlink:href="#DejaVuSans-69" x="406.769531"/>
      <use xlink:href="#DejaVuSans-64" x="434.552734"/>
      <use xlink:href="#DejaVuSans-61" x="498.029297"/>
      <use xlink:href="#DejaVuSans-74" x="559.308594"/>
      <use xlink:href="#DejaVuSans-69" x="598.517578"/>
      <use xlink:href="#DejaVuSans-6f" x="626.300781"/>
      <use xlink:href="#DejaVuSans-6e" x="687.482422"/>
      <use xlink:href="#DejaVuSans-20" x="750.861328"/>
      <use xlink:href="#DejaVuSans-41" x="782.648438"/>
      <use xlink:href="#DejaVuSans-63" x="849.306641"/>
      <use xlink:href="#DejaVuSans-63" x="904.287109"/>
      <use xlink:href="#DejaVuSans-75" x="959.267578"/>
      <use xlink:href="#DejaVuSans-72" x="1022.646484"/>
      <use xlink:href="#DejaVuSans-61" x="1063.759766"/>
      <use xlink:href="#DejaVuSans-63" x="1125.039062"/>
      <use xlink:href="#DejaVuSans-79" x="1180.019531"/>
     </g>
    </g>
    <g id="line2d_27">
     <path d="M 216.18875 293.004312 
L 226.18875 293.004312 
L 236.18875 293.004312 
" style="fill: none; stroke: #9467bd; stroke-width: 1.5; stroke-linecap: square"/>
    </g>
    <g id="text_25">
     <!-- SWA Robust Validation Accuracy -->
     <g transform="translate(244.18875 296.504312) scale(0.1 -0.1)">
      <use xlink:href="#DejaVuSans-53"/>
      <use xlink:href="#DejaVuSans-57" x="63.476562"/>
      <use xlink:href="#DejaVuSans-41" x="156.853516"/>
      <use xlink:href="#DejaVuSans-20" x="225.261719"/>
      <use xlink:href="#DejaVuSans-52" x="257.048828"/>
      <use xlink:href="#DejaVuSans-6f" x="322.03125"/>
      <use xlink:href="#DejaVuSans-62" x="383.212891"/>
      <use xlink:href="#DejaVuSans-75" x="446.689453"/>
      <use xlink:href="#DejaVuSans-73" x="510.068359"/>
      <use xlink:href="#DejaVuSans-74" x="562.167969"/>
      <use xlink:href="#DejaVuSans-20" x="601.376953"/>
      <use xlink:href="#DejaVuSans-56" x="633.164062"/>
      <use xlink:href="#DejaVuSans-61" x="693.822266"/>
      <use xlink:href="#DejaVuSans-6c" x="755.101562"/>
      <use xlink:href="#DejaVuSans-69" x="782.884766"/>
      <use xlink:href="#DejaVuSans-64" x="810.667969"/>
      <use xlink:href="#DejaVuSans-61" x="874.144531"/>
      <use xlink:href="#DejaVuSans-74" x="935.423828"/>
      <use xlink:href="#DejaVuSans-69" x="974.632812"/>
      <use xlink:href="#DejaVuSans-6f" x="1002.416016"/>
      <use xlink:href="#DejaVuSans-6e" x="1063.597656"/>
      <use xlink:href="#DejaVuSans-20" x="1126.976562"/>
      <use xlink:href="#DejaVuSans-41" x="1158.763672"/>
      <use xlink:href="#DejaVuSans-63" x="1225.421875"/>
      <use xlink:href="#DejaVuSans-63" x="1280.402344"/>
      <use xlink:href="#DejaVuSans-75" x="1335.382812"/>
      <use xlink:href="#DejaVuSans-72" x="1398.761719"/>
      <use xlink:href="#DejaVuSans-61" x="1439.875"/>
      <use xlink:href="#DejaVuSans-63" x="1501.154297"/>
      <use xlink:href="#DejaVuSans-79" x="1556.134766"/>
     </g>
    </g>
   </g>
  </g>
 </g>
 <defs>
  <clipPath id="p92ce5efed3">
   <rect x="57.6" y="41.472" width="357.12" height="266.112"/>
  </clipPath>
 </defs>
</svg>
