<?xml version="1.0" encoding="utf-8" standalone="no"?>
<!DOCTYPE svg PUBLIC "-//W3C//DTD SVG 1.1//EN"
  "http://www.w3.org/Graphics/SVG/1.1/DTD/svg11.dtd">
<svg xmlns:xlink="http://www.w3.org/1999/xlink" width="460.8pt" height="345.6pt" viewBox="0 0 460.8 345.6" xmlns="http://www.w3.org/2000/svg" version="1.1">
 <metadata>
  <rdf:RDF xmlns:dc="http://purl.org/dc/elements/1.1/" xmlns:cc="http://creativecommons.org/ns#" xmlns:rdf="http://www.w3.org/1999/02/22-rdf-syntax-ns#">
   <cc:Work>
    <dc:type rdf:resource="http://purl.org/dc/dcmitype/StillImage"/>
    <dc:date>2025-03-04T08:55:31.675738</dc:date>
    <dc:format>image/svg+xml</dc:format>
    <dc:creator>
     <cc:Agent>
      <dc:title>Matplotlib v3.9.1, https://matplotlib.org/</dc:title>
     </cc:Agent>
    </dc:creator>
   </cc:Work>
  </rdf:RDF>
 </metadata>
 <defs>
  <style type="text/css">*{stroke-linejoin: round; stroke-linecap: butt}</style>
 </defs>
 <g id="figure_1">
  <g id="patch_1">
   <path d="M 0 345.6 
L 460.8 345.6 
L 460.8 0 
L 0 0 
z
" style="fill: #ffffff"/>
  </g>
  <g id="axes_1">
   <g id="patch_2">
    <path d="M 57.6 307.584 
L 414.72 307.584 
L 414.72 41.472 
L 57.6 41.472 
z
" style="fill: #ffffff"/>
   </g>
   <g id="matplotlib.axis_1">
    <g id="xtick_1">
     <g id="line2d_1">
      <defs>
       <path id="md0ba1ad8c0" d="M 0 0 
L 0 3.5 
" style="stroke: #000000; stroke-width: 0.8"/>
      </defs>
      <g>
       <use xlink:href="#md0ba1ad8c0" x="73.832727" y="307.584" style="stroke: #000000; stroke-width: 0.8"/>
      </g>
     </g>
     <g id="text_1">
      <!-- 1 -->
      <g transform="translate(70.651477 322.182437) scale(0.1 -0.1)">
       <defs>
        <path id="DejaVuSans-31" d="M 794 531 
L 1825 531 
L 1825 4091 
L 703 3866 
L 703 4441 
L 1819 4666 
L 2450 4666 
L 2450 531 
L 3481 531 
L 3481 0 
L 794 0 
L 794 531 
z
" transform="scale(0.015625)"/>
       </defs>
       <use xlink:href="#DejaVuSans-31"/>
      </g>
     </g>
    </g>
    <g id="xtick_2">
     <g id="line2d_2">
      <g>
       <use xlink:href="#md0ba1ad8c0" x="109.772345" y="307.584" style="stroke: #000000; stroke-width: 0.8"/>
      </g>
     </g>
     <g id="text_2">
      <!-- 31 -->
      <g transform="translate(103.409845 322.182437) scale(0.1 -0.1)">
       <defs>
        <path id="DejaVuSans-33" d="M 2597 2516 
Q 3050 2419 3304 2112 
Q 3559 1806 3559 1356 
Q 3559 666 3084 287 
Q 2609 -91 1734 -91 
Q 1441 -91 1130 -33 
Q 819 25 488 141 
L 488 750 
Q 750 597 1062 519 
Q 1375 441 1716 441 
Q 2309 441 2620 675 
Q 2931 909 2931 1356 
Q 2931 1769 2642 2001 
Q 2353 2234 1838 2234 
L 1294 2234 
L 1294 2753 
L 1863 2753 
Q 2328 2753 2575 2939 
Q 2822 3125 2822 3475 
Q 2822 3834 2567 4026 
Q 2313 4219 1838 4219 
Q 1578 4219 1281 4162 
Q 984 4106 628 3988 
L 628 4550 
Q 988 4650 1302 4700 
Q 1616 4750 1894 4750 
Q 2613 4750 3031 4423 
Q 3450 4097 3450 3541 
Q 3450 3153 3228 2886 
Q 3006 2619 2597 2516 
z
" transform="scale(0.015625)"/>
       </defs>
       <use xlink:href="#DejaVuSans-33"/>
       <use xlink:href="#DejaVuSans-31" x="63.623047"/>
      </g>
     </g>
    </g>
    <g id="xtick_3">
     <g id="line2d_3">
      <g>
       <use xlink:href="#md0ba1ad8c0" x="145.711962" y="307.584" style="stroke: #000000; stroke-width: 0.8"/>
      </g>
     </g>
     <g id="text_3">
      <!-- 61 -->
      <g transform="translate(139.349462 322.182437) scale(0.1 -0.1)">
       <defs>
        <path id="DejaVuSans-36" d="M 2113 2584 
Q 1688 2584 1439 2293 
Q 1191 2003 1191 1497 
Q 1191 994 1439 701 
Q 1688 409 2113 409 
Q 2538 409 2786 701 
Q 3034 994 3034 1497 
Q 3034 2003 2786 2293 
Q 2538 2584 2113 2584 
z
M 3366 4563 
L 3366 3988 
Q 3128 4100 2886 4159 
Q 2644 4219 2406 4219 
Q 1781 4219 1451 3797 
Q 1122 3375 1075 2522 
Q 1259 2794 1537 2939 
Q 1816 3084 2150 3084 
Q 2853 3084 3261 2657 
Q 3669 2231 3669 1497 
Q 3669 778 3244 343 
Q 2819 -91 2113 -91 
Q 1303 -91 875 529 
Q 447 1150 447 2328 
Q 447 3434 972 4092 
Q 1497 4750 2381 4750 
Q 2619 4750 2861 4703 
Q 3103 4656 3366 4563 
z
" transform="scale(0.015625)"/>
       </defs>
       <use xlink:href="#DejaVuSans-36"/>
       <use xlink:href="#DejaVuSans-31" x="63.623047"/>
      </g>
     </g>
    </g>
    <g id="xtick_4">
     <g id="line2d_4">
      <g>
       <use xlink:href="#md0ba1ad8c0" x="181.65158" y="307.584" style="stroke: #000000; stroke-width: 0.8"/>
      </g>
     </g>
     <g id="text_4">
      <!-- 91 -->
      <g transform="translate(175.28908 322.182437) scale(0.1 -0.1)">
       <defs>
        <path id="DejaVuSans-39" d="M 703 97 
L 703 672 
Q 941 559 1184 500 
Q 1428 441 1663 441 
Q 2288 441 2617 861 
Q 2947 1281 2994 2138 
Q 2813 1869 2534 1725 
Q 2256 1581 1919 1581 
Q 1219 1581 811 2004 
Q 403 2428 403 3163 
Q 403 3881 828 4315 
Q 1253 4750 1959 4750 
Q 2769 4750 3195 4129 
Q 3622 3509 3622 2328 
Q 3622 1225 3098 567 
Q 2575 -91 1691 -91 
Q 1453 -91 1209 -44 
Q 966 3 703 97 
z
M 1959 2075 
Q 2384 2075 2632 2365 
Q 2881 2656 2881 3163 
Q 2881 3666 2632 3958 
Q 2384 4250 1959 4250 
Q 1534 4250 1286 3958 
Q 1038 3666 1038 3163 
Q 1038 2656 1286 2365 
Q 1534 2075 1959 2075 
z
" transform="scale(0.015625)"/>
       </defs>
       <use xlink:href="#DejaVuSans-39"/>
       <use xlink:href="#DejaVuSans-31" x="63.623047"/>
      </g>
     </g>
    </g>
    <g id="xtick_5">
     <g id="line2d_5">
      <g>
       <use xlink:href="#md0ba1ad8c0" x="217.591198" y="307.584" style="stroke: #000000; stroke-width: 0.8"/>
      </g>
     </g>
     <g id="text_5">
      <!-- 121 -->
      <g transform="translate(208.047448 322.182437) scale(0.1 -0.1)">
       <defs>
        <path id="DejaVuSans-32" d="M 1228 531 
L 3431 531 
L 3431 0 
L 469 0 
L 469 531 
Q 828 903 1448 1529 
Q 2069 2156 2228 2338 
Q 2531 2678 2651 2914 
Q 2772 3150 2772 3378 
Q 2772 3750 2511 3984 
Q 2250 4219 1831 4219 
Q 1534 4219 1204 4116 
Q 875 4013 500 3803 
L 500 4441 
Q 881 4594 1212 4672 
Q 1544 4750 1819 4750 
Q 2544 4750 2975 4387 
Q 3406 4025 3406 3419 
Q 3406 3131 3298 2873 
Q 3191 2616 2906 2266 
Q 2828 2175 2409 1742 
Q 1991 1309 1228 531 
z
" transform="scale(0.015625)"/>
       </defs>
       <use xlink:href="#DejaVuSans-31"/>
       <use xlink:href="#DejaVuSans-32" x="63.623047"/>
       <use xlink:href="#DejaVuSans-31" x="127.246094"/>
      </g>
     </g>
    </g>
    <g id="xtick_6">
     <g id="line2d_6">
      <g>
       <use xlink:href="#md0ba1ad8c0" x="253.530815" y="307.584" style="stroke: #000000; stroke-width: 0.8"/>
      </g>
     </g>
     <g id="text_6">
      <!-- 151 -->
      <g transform="translate(243.987065 322.182437) scale(0.1 -0.1)">
       <defs>
        <path id="DejaVuSans-35" d="M 691 4666 
L 3169 4666 
L 3169 4134 
L 1269 4134 
L 1269 2991 
Q 1406 3038 1543 3061 
Q 1681 3084 1819 3084 
Q 2600 3084 3056 2656 
Q 3513 2228 3513 1497 
Q 3513 744 3044 326 
Q 2575 -91 1722 -91 
Q 1428 -91 1123 -41 
Q 819 9 494 109 
L 494 744 
Q 775 591 1075 516 
Q 1375 441 1709 441 
Q 2250 441 2565 725 
Q 2881 1009 2881 1497 
Q 2881 1984 2565 2268 
Q 2250 2553 1709 2553 
Q 1456 2553 1204 2497 
Q 953 2441 691 2322 
L 691 4666 
z
" transform="scale(0.015625)"/>
       </defs>
       <use xlink:href="#DejaVuSans-31"/>
       <use xlink:href="#DejaVuSans-35" x="63.623047"/>
       <use xlink:href="#DejaVuSans-31" x="127.246094"/>
      </g>
     </g>
    </g>
    <g id="xtick_7">
     <g id="line2d_7">
      <g>
       <use xlink:href="#md0ba1ad8c0" x="289.470433" y="307.584" style="stroke: #000000; stroke-width: 0.8"/>
      </g>
     </g>
     <g id="text_7">
      <!-- 181 -->
      <g transform="translate(279.926683 322.182437) scale(0.1 -0.1)">
       <defs>
        <path id="DejaVuSans-38" d="M 2034 2216 
Q 1584 2216 1326 1975 
Q 1069 1734 1069 1313 
Q 1069 891 1326 650 
Q 1584 409 2034 409 
Q 2484 409 2743 651 
Q 3003 894 3003 1313 
Q 3003 1734 2745 1975 
Q 2488 2216 2034 2216 
z
M 1403 2484 
Q 997 2584 770 2862 
Q 544 3141 544 3541 
Q 544 4100 942 4425 
Q 1341 4750 2034 4750 
Q 2731 4750 3128 4425 
Q 3525 4100 3525 3541 
Q 3525 3141 3298 2862 
Q 3072 2584 2669 2484 
Q 3125 2378 3379 2068 
Q 3634 1759 3634 1313 
Q 3634 634 3220 271 
Q 2806 -91 2034 -91 
Q 1263 -91 848 271 
Q 434 634 434 1313 
Q 434 1759 690 2068 
Q 947 2378 1403 2484 
z
M 1172 3481 
Q 1172 3119 1398 2916 
Q 1625 2713 2034 2713 
Q 2441 2713 2670 2916 
Q 2900 3119 2900 3481 
Q 2900 3844 2670 4047 
Q 2441 4250 2034 4250 
Q 1625 4250 1398 4047 
Q 1172 3844 1172 3481 
z
" transform="scale(0.015625)"/>
       </defs>
       <use xlink:href="#DejaVuSans-31"/>
       <use xlink:href="#DejaVuSans-38" x="63.623047"/>
       <use xlink:href="#DejaVuSans-31" x="127.246094"/>
      </g>
     </g>
    </g>
    <g id="xtick_8">
     <g id="line2d_8">
      <g>
       <use xlink:href="#md0ba1ad8c0" x="325.41005" y="307.584" style="stroke: #000000; stroke-width: 0.8"/>
      </g>
     </g>
     <g id="text_8">
      <!-- 211 -->
      <g transform="translate(315.8663 322.182437) scale(0.1 -0.1)">
       <use xlink:href="#DejaVuSans-32"/>
       <use xlink:href="#DejaVuSans-31" x="63.623047"/>
       <use xlink:href="#DejaVuSans-31" x="127.246094"/>
      </g>
     </g>
    </g>
    <g id="xtick_9">
     <g id="line2d_9">
      <g>
       <use xlink:href="#md0ba1ad8c0" x="361.349668" y="307.584" style="stroke: #000000; stroke-width: 0.8"/>
      </g>
     </g>
     <g id="text_9">
      <!-- 241 -->
      <g transform="translate(351.805918 322.182437) scale(0.1 -0.1)">
       <defs>
        <path id="DejaVuSans-34" d="M 2419 4116 
L 825 1625 
L 2419 1625 
L 2419 4116 
z
M 2253 4666 
L 3047 4666 
L 3047 1625 
L 3713 1625 
L 3713 1100 
L 3047 1100 
L 3047 0 
L 2419 0 
L 2419 1100 
L 313 1100 
L 313 1709 
L 2253 4666 
z
" transform="scale(0.015625)"/>
       </defs>
       <use xlink:href="#DejaVuSans-32"/>
       <use xlink:href="#DejaVuSans-34" x="63.623047"/>
       <use xlink:href="#DejaVuSans-31" x="127.246094"/>
      </g>
     </g>
    </g>
    <g id="xtick_10">
     <g id="line2d_10">
      <g>
       <use xlink:href="#md0ba1ad8c0" x="398.487273" y="307.584" style="stroke: #000000; stroke-width: 0.8"/>
      </g>
     </g>
     <g id="text_10">
      <!-- 272 -->
      <g transform="translate(388.943523 322.182437) scale(0.1 -0.1)">
       <defs>
        <path id="DejaVuSans-37" d="M 525 4666 
L 3525 4666 
L 3525 4397 
L 1831 0 
L 1172 0 
L 2766 4134 
L 525 4134 
L 525 4666 
z
" transform="scale(0.015625)"/>
       </defs>
       <use xlink:href="#DejaVuSans-32"/>
       <use xlink:href="#DejaVuSans-37" x="63.623047"/>
       <use xlink:href="#DejaVuSans-32" x="127.246094"/>
      </g>
     </g>
    </g>
    <g id="text_11">
     <!-- Epochs -->
     <g transform="translate(218.244375 335.860562) scale(0.1 -0.1)">
      <defs>
       <path id="DejaVuSans-45" d="M 628 4666 
L 3578 4666 
L 3578 4134 
L 1259 4134 
L 1259 2753 
L 3481 2753 
L 3481 2222 
L 1259 2222 
L 1259 531 
L 3634 531 
L 3634 0 
L 628 0 
L 628 4666 
z
" transform="scale(0.015625)"/>
       <path id="DejaVuSans-70" d="M 1159 525 
L 1159 -1331 
L 581 -1331 
L 581 3500 
L 1159 3500 
L 1159 2969 
Q 1341 3281 1617 3432 
Q 1894 3584 2278 3584 
Q 2916 3584 3314 3078 
Q 3713 2572 3713 1747 
Q 3713 922 3314 415 
Q 2916 -91 2278 -91 
Q 1894 -91 1617 61 
Q 1341 213 1159 525 
z
M 3116 1747 
Q 3116 2381 2855 2742 
Q 2594 3103 2138 3103 
Q 1681 3103 1420 2742 
Q 1159 2381 1159 1747 
Q 1159 1113 1420 752 
Q 1681 391 2138 391 
Q 2594 391 2855 752 
Q 3116 1113 3116 1747 
z
" transform="scale(0.015625)"/>
       <path id="DejaVuSans-6f" d="M 1959 3097 
Q 1497 3097 1228 2736 
Q 959 2375 959 1747 
Q 959 1119 1226 758 
Q 1494 397 1959 397 
Q 2419 397 2687 759 
Q 2956 1122 2956 1747 
Q 2956 2369 2687 2733 
Q 2419 3097 1959 3097 
z
M 1959 3584 
Q 2709 3584 3137 3096 
Q 3566 2609 3566 1747 
Q 3566 888 3137 398 
Q 2709 -91 1959 -91 
Q 1206 -91 779 398 
Q 353 888 353 1747 
Q 353 2609 779 3096 
Q 1206 3584 1959 3584 
z
" transform="scale(0.015625)"/>
       <path id="DejaVuSans-63" d="M 3122 3366 
L 3122 2828 
Q 2878 2963 2633 3030 
Q 2388 3097 2138 3097 
Q 1578 3097 1268 2742 
Q 959 2388 959 1747 
Q 959 1106 1268 751 
Q 1578 397 2138 397 
Q 2388 397 2633 464 
Q 2878 531 3122 666 
L 3122 134 
Q 2881 22 2623 -34 
Q 2366 -91 2075 -91 
Q 1284 -91 818 406 
Q 353 903 353 1747 
Q 353 2603 823 3093 
Q 1294 3584 2113 3584 
Q 2378 3584 2631 3529 
Q 2884 3475 3122 3366 
z
" transform="scale(0.015625)"/>
       <path id="DejaVuSans-68" d="M 3513 2113 
L 3513 0 
L 2938 0 
L 2938 2094 
Q 2938 2591 2744 2837 
Q 2550 3084 2163 3084 
Q 1697 3084 1428 2787 
Q 1159 2491 1159 1978 
L 1159 0 
L 581 0 
L 581 4863 
L 1159 4863 
L 1159 2956 
Q 1366 3272 1645 3428 
Q 1925 3584 2291 3584 
Q 2894 3584 3203 3211 
Q 3513 2838 3513 2113 
z
" transform="scale(0.015625)"/>
       <path id="DejaVuSans-73" d="M 2834 3397 
L 2834 2853 
Q 2591 2978 2328 3040 
Q 2066 3103 1784 3103 
Q 1356 3103 1142 2972 
Q 928 2841 928 2578 
Q 928 2378 1081 2264 
Q 1234 2150 1697 2047 
L 1894 2003 
Q 2506 1872 2764 1633 
Q 3022 1394 3022 966 
Q 3022 478 2636 193 
Q 2250 -91 1575 -91 
Q 1294 -91 989 -36 
Q 684 19 347 128 
L 347 722 
Q 666 556 975 473 
Q 1284 391 1588 391 
Q 1994 391 2212 530 
Q 2431 669 2431 922 
Q 2431 1156 2273 1281 
Q 2116 1406 1581 1522 
L 1381 1569 
Q 847 1681 609 1914 
Q 372 2147 372 2553 
Q 372 3047 722 3315 
Q 1072 3584 1716 3584 
Q 2034 3584 2315 3537 
Q 2597 3491 2834 3397 
z
" transform="scale(0.015625)"/>
      </defs>
      <use xlink:href="#DejaVuSans-45"/>
      <use xlink:href="#DejaVuSans-70" x="63.183594"/>
      <use xlink:href="#DejaVuSans-6f" x="126.660156"/>
      <use xlink:href="#DejaVuSans-63" x="187.841797"/>
      <use xlink:href="#DejaVuSans-68" x="242.822266"/>
      <use xlink:href="#DejaVuSans-73" x="306.201172"/>
     </g>
    </g>
   </g>
   <g id="matplotlib.axis_2">
    <g id="ytick_1">
     <g id="line2d_11">
      <defs>
       <path id="ma05be4a421" d="M 0 0 
L -3.5 0 
" style="stroke: #000000; stroke-width: 0.8"/>
      </defs>
      <g>
       <use xlink:href="#ma05be4a421" x="57.6" y="271.980542" style="stroke: #000000; stroke-width: 0.8"/>
      </g>
     </g>
     <g id="text_12">
      <!-- 10 -->
      <g transform="translate(37.875 275.779761) scale(0.1 -0.1)">
       <defs>
        <path id="DejaVuSans-30" d="M 2034 4250 
Q 1547 4250 1301 3770 
Q 1056 3291 1056 2328 
Q 1056 1369 1301 889 
Q 1547 409 2034 409 
Q 2525 409 2770 889 
Q 3016 1369 3016 2328 
Q 3016 3291 2770 3770 
Q 2525 4250 2034 4250 
z
M 2034 4750 
Q 2819 4750 3233 4129 
Q 3647 3509 3647 2328 
Q 3647 1150 3233 529 
Q 2819 -91 2034 -91 
Q 1250 -91 836 529 
Q 422 1150 422 2328 
Q 422 3509 836 4129 
Q 1250 4750 2034 4750 
z
" transform="scale(0.015625)"/>
       </defs>
       <use xlink:href="#DejaVuSans-31"/>
       <use xlink:href="#DejaVuSans-30" x="63.623047"/>
      </g>
     </g>
    </g>
    <g id="ytick_2">
     <g id="line2d_12">
      <g>
       <use xlink:href="#ma05be4a421" x="57.6" y="235.568742" style="stroke: #000000; stroke-width: 0.8"/>
      </g>
     </g>
     <g id="text_13">
      <!-- 20 -->
      <g transform="translate(37.875 239.36796) scale(0.1 -0.1)">
       <use xlink:href="#DejaVuSans-32"/>
       <use xlink:href="#DejaVuSans-30" x="63.623047"/>
      </g>
     </g>
    </g>
    <g id="ytick_3">
     <g id="line2d_13">
      <g>
       <use xlink:href="#ma05be4a421" x="57.6" y="199.156942" style="stroke: #000000; stroke-width: 0.8"/>
      </g>
     </g>
     <g id="text_14">
      <!-- 30 -->
      <g transform="translate(37.875 202.95616) scale(0.1 -0.1)">
       <use xlink:href="#DejaVuSans-33"/>
       <use xlink:href="#DejaVuSans-30" x="63.623047"/>
      </g>
     </g>
    </g>
    <g id="ytick_4">
     <g id="line2d_14">
      <g>
       <use xlink:href="#ma05be4a421" x="57.6" y="162.745141" style="stroke: #000000; stroke-width: 0.8"/>
      </g>
     </g>
     <g id="text_15">
      <!-- 40 -->
      <g transform="translate(37.875 166.54436) scale(0.1 -0.1)">
       <use xlink:href="#DejaVuSans-34"/>
       <use xlink:href="#DejaVuSans-30" x="63.623047"/>
      </g>
     </g>
    </g>
    <g id="ytick_5">
     <g id="line2d_15">
      <g>
       <use xlink:href="#ma05be4a421" x="57.6" y="126.333341" style="stroke: #000000; stroke-width: 0.8"/>
      </g>
     </g>
     <g id="text_16">
      <!-- 50 -->
      <g transform="translate(37.875 130.13256) scale(0.1 -0.1)">
       <use xlink:href="#DejaVuSans-35"/>
       <use xlink:href="#DejaVuSans-30" x="63.623047"/>
      </g>
     </g>
    </g>
    <g id="ytick_6">
     <g id="line2d_16">
      <g>
       <use xlink:href="#ma05be4a421" x="57.6" y="89.921541" style="stroke: #000000; stroke-width: 0.8"/>
      </g>
     </g>
     <g id="text_17">
      <!-- 60 -->
      <g transform="translate(37.875 93.72076) scale(0.1 -0.1)">
       <use xlink:href="#DejaVuSans-36"/>
       <use xlink:href="#DejaVuSans-30" x="63.623047"/>
      </g>
     </g>
    </g>
    <g id="ytick_7">
     <g id="line2d_17">
      <g>
       <use xlink:href="#ma05be4a421" x="57.6" y="53.509741" style="stroke: #000000; stroke-width: 0.8"/>
      </g>
     </g>
     <g id="text_18">
      <!-- 70 -->
      <g transform="translate(37.875 57.30896) scale(0.1 -0.1)">
       <use xlink:href="#DejaVuSans-37"/>
       <use xlink:href="#DejaVuSans-30" x="63.623047"/>
      </g>
     </g>
    </g>
    <g id="text_19">
     <!-- Accuracy -->
     <g transform="translate(31.795312 197.356125) rotate(-90) scale(0.1 -0.1)">
      <defs>
       <path id="DejaVuSans-41" d="M 2188 4044 
L 1331 1722 
L 3047 1722 
L 2188 4044 
z
M 1831 4666 
L 2547 4666 
L 4325 0 
L 3669 0 
L 3244 1197 
L 1141 1197 
L 716 0 
L 50 0 
L 1831 4666 
z
" transform="scale(0.015625)"/>
       <path id="DejaVuSans-75" d="M 544 1381 
L 544 3500 
L 1119 3500 
L 1119 1403 
Q 1119 906 1312 657 
Q 1506 409 1894 409 
Q 2359 409 2629 706 
Q 2900 1003 2900 1516 
L 2900 3500 
L 3475 3500 
L 3475 0 
L 2900 0 
L 2900 538 
Q 2691 219 2414 64 
Q 2138 -91 1772 -91 
Q 1169 -91 856 284 
Q 544 659 544 1381 
z
M 1991 3584 
L 1991 3584 
z
" transform="scale(0.015625)"/>
       <path id="DejaVuSans-72" d="M 2631 2963 
Q 2534 3019 2420 3045 
Q 2306 3072 2169 3072 
Q 1681 3072 1420 2755 
Q 1159 2438 1159 1844 
L 1159 0 
L 581 0 
L 581 3500 
L 1159 3500 
L 1159 2956 
Q 1341 3275 1631 3429 
Q 1922 3584 2338 3584 
Q 2397 3584 2469 3576 
Q 2541 3569 2628 3553 
L 2631 2963 
z
" transform="scale(0.015625)"/>
       <path id="DejaVuSans-61" d="M 2194 1759 
Q 1497 1759 1228 1600 
Q 959 1441 959 1056 
Q 959 750 1161 570 
Q 1363 391 1709 391 
Q 2188 391 2477 730 
Q 2766 1069 2766 1631 
L 2766 1759 
L 2194 1759 
z
M 3341 1997 
L 3341 0 
L 2766 0 
L 2766 531 
Q 2569 213 2275 61 
Q 1981 -91 1556 -91 
Q 1019 -91 701 211 
Q 384 513 384 1019 
Q 384 1609 779 1909 
Q 1175 2209 1959 2209 
L 2766 2209 
L 2766 2266 
Q 2766 2663 2505 2880 
Q 2244 3097 1772 3097 
Q 1472 3097 1187 3025 
Q 903 2953 641 2809 
L 641 3341 
Q 956 3463 1253 3523 
Q 1550 3584 1831 3584 
Q 2591 3584 2966 3190 
Q 3341 2797 3341 1997 
z
" transform="scale(0.015625)"/>
       <path id="DejaVuSans-79" d="M 2059 -325 
Q 1816 -950 1584 -1140 
Q 1353 -1331 966 -1331 
L 506 -1331 
L 506 -850 
L 844 -850 
Q 1081 -850 1212 -737 
Q 1344 -625 1503 -206 
L 1606 56 
L 191 3500 
L 800 3500 
L 1894 763 
L 2988 3500 
L 3597 3500 
L 2059 -325 
z
" transform="scale(0.015625)"/>
      </defs>
      <use xlink:href="#DejaVuSans-41"/>
      <use xlink:href="#DejaVuSans-63" x="66.658203"/>
      <use xlink:href="#DejaVuSans-63" x="121.638672"/>
      <use xlink:href="#DejaVuSans-75" x="176.619141"/>
      <use xlink:href="#DejaVuSans-72" x="239.998047"/>
      <use xlink:href="#DejaVuSans-61" x="281.111328"/>
      <use xlink:href="#DejaVuSans-63" x="342.390625"/>
      <use xlink:href="#DejaVuSans-79" x="397.371094"/>
     </g>
    </g>
   </g>
   <g id="line2d_18">
    <path d="M 73.832727 295.488 
L 76.228702 264.567099 
L 77.426689 251.768352 
L 78.624676 240.855735 
L 79.822664 231.188402 
L 82.218638 215.804417 
L 83.416625 209.232087 
L 84.614613 203.475381 
L 85.8126 197.14701 
L 89.406562 182.156272 
L 90.604549 177.739521 
L 91.802536 174.753753 
L 93.000523 169.976525 
L 94.198511 167.700787 
L 96.594485 164.65312 
L 97.792472 197.809705 
L 98.99046 196.203945 
L 102.584421 185.677293 
L 104.980396 178.307545 
L 106.178383 176.497878 
L 108.574358 171.079803 
L 109.772345 168.192347 
L 112.168319 164.06689 
L 113.366307 161.583605 
L 114.564294 157.829548 
L 115.762281 155.564734 
L 116.960268 153.562085 
L 118.158256 151.158907 
L 119.356243 147.667015 
L 121.752217 143.20657 
L 122.950205 140.162543 
L 124.148192 138.513089 
L 125.346179 135.323415 
L 127.742154 130.961281 
L 128.940141 128.405173 
L 130.138128 126.351547 
L 131.336115 123.573327 
L 132.534103 121.829202 
L 133.73209 118.810663 
L 134.930077 116.982791 
L 136.128064 115.875872 
L 137.326052 113.516388 
L 139.722026 111.229727 
L 140.920013 109.948031 
L 143.315988 108.961272 
L 144.513975 108.218471 
L 145.711962 154.99671 
L 146.90995 156.212865 
L 148.107937 155.881517 
L 149.305924 155.116869 
L 150.503911 153.383668 
L 151.701899 152.327725 
L 154.097873 150.572677 
L 155.29586 148.395251 
L 156.493848 147.284691 
L 158.889822 145.467742 
L 160.087809 143.337652 
L 161.285797 142.088727 
L 162.483784 141.862974 
L 163.681771 140.632255 
L 164.879758 139.223119 
L 166.077746 138.658736 
L 167.275733 136.841787 
L 168.47372 135.738509 
L 169.671707 135.03212 
L 170.869695 134.711697 
L 172.067682 132.108253 
L 173.265669 132.141023 
L 174.463656 130.200275 
L 175.661644 129.330033 
L 176.859631 127.498519 
L 178.057618 127.287331 
L 179.255606 125.477664 
L 180.453593 124.97154 
L 181.65158 123.857339 
L 182.849567 121.938437 
L 184.047555 121.188354 
L 185.245542 120.267135 
L 186.443529 117.831186 
L 188.839504 115.766637 
L 190.037491 114.495865 
L 191.235478 114.117182 
L 192.433465 112.467728 
L 193.631453 111.42635 
L 196.027427 107.970871 
L 197.225414 106.900364 
L 198.423402 105.65508 
L 199.621389 103.448525 
L 202.017363 100.947034 
L 203.215351 100.051304 
L 205.611325 96.770601 
L 206.809312 96.049647 
L 208.0073 94.505787 
L 210.403274 90.926507 
L 211.601261 89.666659 
L 212.799249 88.002639 
L 213.997236 86.673609 
L 215.195223 85.111542 
L 216.39321 84.91856 
L 217.591198 81.568674 
L 218.789185 81.623292 
L 219.987172 79.657055 
L 221.185159 79.959273 
L 222.383147 77.133717 
L 223.581134 76.714981 
L 224.779121 75.418721 
L 225.977108 74.978138 
L 227.175096 73.721931 
L 228.373083 73.135701 
L 229.57107 71.686512 
L 230.769057 71.686512 
L 231.967045 70.728881 
L 233.165032 69.607398 
L 234.363019 68.806338 
L 235.561006 69.010244 
L 237.956981 68.722591 
L 239.154968 68.908291 
L 240.352955 68.362114 
L 241.550943 134.620667 
L 242.74893 138.356518 
L 243.946917 137.595511 
L 245.144904 136.350228 
L 247.540879 134.573332 
L 248.738866 134.231061 
L 249.936853 133.124142 
L 251.134841 133.506466 
L 252.332828 131.72957 
L 253.530815 130.411463 
L 254.728802 129.756051 
L 255.92679 130.087398 
L 257.124777 129.686868 
L 258.322764 128.48892 
L 259.520751 127.615037 
L 260.718739 127.174454 
L 261.916726 126.311494 
L 263.114713 126.431653 
L 264.3127 125.171805 
L 265.510688 125.007952 
L 266.708675 124.392592 
L 267.906662 123.405833 
L 269.104649 123.380344 
L 270.302637 122.866938 
L 271.500624 121.836484 
L 272.698611 121.512419 
L 273.896598 121.534266 
L 275.094586 120.307188 
L 276.292573 120.733207 
L 277.49056 120.143335 
L 278.688547 118.595834 
L 279.886535 119.615364 
L 281.084522 118.628604 
L 282.282509 118.70871 
L 283.480496 117.19398 
L 284.678484 117.113874 
L 285.876471 116.371073 
L 287.074458 116.025161 
L 288.272445 115.391595 
L 289.470433 115.86859 
L 290.66842 115.409801 
L 291.866407 113.490899 
L 293.064394 113.654753 
L 294.262382 112.726252 
L 295.460369 112.354851 
L 296.658356 112.147304 
L 297.856344 110.891097 
L 299.054331 110.86925 
L 300.252318 111.135056 
L 301.450305 110.19199 
L 302.648293 110.108243 
L 303.84628 109.329031 
L 305.044267 109.205231 
L 307.440242 107.6286 
L 308.638229 106.987752 
L 309.836216 106.565375 
L 311.034203 105.709698 
L 312.232191 105.363786 
L 313.430178 104.191326 
L 314.628165 103.499502 
L 315.826152 103.991061 
L 317.02414 102.578283 
L 318.222127 102.782189 
L 319.420114 102.702083 
L 320.618101 101.048987 
L 321.816089 100.84144 
L 323.014076 99.752727 
L 324.212063 99.581592 
L 325.41005 98.937103 
L 326.608038 98.43462 
L 327.806025 98.485597 
L 329.004012 97.458784 
L 330.201999 96.61403 
L 331.399987 95.922206 
L 332.597974 95.419723 
L 333.795961 95.175764 
L 334.993948 94.159875 
L 336.191936 93.617339 
L 337.389923 91.421707 
L 338.58791 91.727567 
L 340.983885 90.493207 
L 342.181872 90.500489 
L 343.379859 88.99304 
L 344.577846 88.563381 
L 345.775834 87.314456 
L 346.973821 86.804691 
L 348.171808 86.52432 
L 350.567783 84.051959 
L 351.76577 83.997341 
L 352.963757 82.391581 
L 354.161744 82.712005 
L 355.359732 81.681551 
L 356.557719 79.85732 
L 357.755706 79.416737 
L 358.953693 79.784496 
L 360.151681 79.238319 
L 361.349668 78.422695 
L 362.547655 76.645799 
L 363.745642 76.288963 
L 364.94363 75.021833 
L 366.141617 74.548479 
L 367.339604 73.929479 
L 368.537591 72.392901 
L 370.933566 71.741129 
L 372.131553 69.793098 
L 373.32954 69.010244 
L 374.527528 69.297898 
L 375.725515 67.976149 
L 376.923502 68.169132 
L 379.319477 65.052282 
L 380.517464 65.121464 
L 381.715451 64.160193 
L 382.913438 63.734175 
L 384.111426 61.86989 
L 385.309413 61.680549 
L 386.5074 60.391571 
L 387.705387 59.787135 
L 388.903375 58.607393 
L 390.101362 58.920535 
L 391.299349 57.103586 
L 392.497336 57.307492 
L 393.695324 56.615668 
L 394.893311 55.377666 
L 396.091298 55.341255 
L 397.289285 53.568 
L 398.487273 55.705373 
L 398.487273 55.705373 
" clip-path="url(#p62669d6a59)" style="fill: none; stroke: #1f77b4; stroke-width: 1.5; stroke-linecap: square"/>
   </g>
   <g id="line2d_19">
    <path d="M 73.832727 275.221192 
L 75.030715 253.046406 
L 76.228702 241.39463 
L 78.624676 205.565418 
L 79.822664 197.008645 
L 81.020651 184.373751 
L 82.218638 175.926213 
L 83.416625 166.34991 
L 84.614613 155.499193 
L 85.8126 155.681252 
L 87.010587 147.415774 
L 89.406562 137.001999 
L 91.802536 132.195641 
L 93.000523 128.73652 
L 94.198511 127.280048 
L 95.396498 125.204576 
L 96.594485 125.022517 
L 97.792472 163.509789 
L 98.99046 156.373076 
L 100.188447 152.112896 
L 101.386434 148.908657 
L 104.980396 132.049994 
L 106.178383 130.302228 
L 107.37637 131.97717 
L 108.574358 126.551812 
L 109.772345 125.022517 
L 110.970332 119.087393 
L 112.168319 124.367104 
L 113.366307 115.300566 
L 114.564294 115.883155 
L 115.762281 117.740157 
L 116.960268 110.13009 
L 118.158256 105.797086 
L 119.356243 104.158555 
L 120.55423 107.107911 
L 121.752217 103.284672 
L 122.950205 103.685202 
L 124.148192 98.842432 
L 125.346179 99.242962 
L 126.544166 93.74478 
L 127.742154 95.055605 
L 128.940141 92.870897 
L 130.138128 89.848718 
L 131.336115 88.974834 
L 132.534103 87.26348 
L 133.73209 87.117833 
L 134.930077 84.569007 
L 136.128064 83.767947 
L 137.326052 81.947357 
L 138.524039 83.185358 
L 140.920013 81.40118 
L 142.118001 81.182709 
L 143.315988 81.80171 
L 144.513975 81.437592 
L 145.711962 117.776568 
L 146.90995 115.409801 
L 148.107937 115.045683 
L 149.305924 117.048332 
L 150.503911 113.261505 
L 151.701899 113.5528 
L 152.899886 117.958627 
L 154.097873 111.222444 
L 155.29586 111.113209 
L 156.493848 113.516388 
L 157.691835 103.758025 
L 158.889822 106.270439 
L 160.087809 105.06885 
L 161.285797 110.275738 
L 162.483784 108.527971 
L 163.681771 102.192318 
L 164.879758 107.253558 
L 166.077746 104.377026 
L 167.275733 102.993377 
L 168.47372 100.153257 
L 169.671707 100.40814 
L 170.869695 104.631908 
L 172.067682 102.665671 
L 173.265669 100.40814 
L 174.463656 96.621312 
L 175.661644 99.170138 
L 176.859631 97.094666 
L 178.057618 96.912607 
L 179.255606 98.660373 
L 180.453593 96.839783 
L 181.65158 92.506779 
L 182.849567 94.181722 
L 184.047555 93.817604 
L 185.245542 87.117833 
L 186.443529 90.831836 
L 187.641516 87.991716 
L 188.839504 88.719952 
L 190.037491 87.081421 
L 191.235478 89.775894 
L 192.433465 86.753715 
L 193.631453 85.84342 
L 194.82944 82.784828 
L 196.027427 87.700421 
L 197.225414 82.493534 
L 198.423402 84.386948 
L 200.819376 79.252884 
L 202.017363 80.090355 
L 203.215351 80.60012 
L 204.413338 78.233353 
L 205.611325 76.157881 
L 206.809312 77.286647 
L 208.0073 75.793763 
L 209.205287 75.93941 
L 210.403274 74.628585 
L 211.601261 73.062878 
L 212.799249 71.934112 
L 213.997236 74.155232 
L 215.195223 71.679229 
L 216.39321 71.679229 
L 217.591198 72.043347 
L 218.789185 71.096641 
L 219.987172 69.348874 
L 221.185159 69.494521 
L 222.383147 67.23699 
L 223.581134 68.547815 
L 224.779121 67.746755 
L 225.977108 67.091343 
L 227.175096 66.108224 
L 228.373083 65.962577 
L 230.769057 66.144636 
L 231.967045 66.508754 
L 233.165032 65.81693 
L 234.363019 65.634871 
L 235.561006 66.108224 
L 236.758994 65.052282 
L 237.956981 65.744106 
L 240.352955 65.452812 
L 241.550943 114.754389 
L 242.74893 109.292619 
L 243.946917 111.477327 
L 245.144904 104.340614 
L 246.342892 109.183384 
L 247.540879 105.615027 
L 248.738866 104.085731 
L 249.936853 108.200265 
L 251.134841 103.685202 
L 252.332828 102.556436 
L 253.530815 103.284672 
L 254.728802 100.116845 
L 255.92679 103.758025 
L 257.124777 96.402842 
L 258.322764 99.097315 
L 259.520751 103.139025 
L 260.718739 104.012908 
L 261.916726 100.553787 
L 263.114713 97.458784 
L 264.3127 98.405491 
L 265.510688 96.220783 
L 266.708675 97.968549 
L 267.906662 100.480963 
L 269.104649 99.60708 
L 270.302637 99.388609 
L 271.500624 91.669308 
L 272.698611 97.932137 
L 273.896598 97.276725 
L 275.094586 102.4472 
L 276.292573 91.050307 
L 277.49056 97.859314 
L 278.688547 96.949019 
L 279.886535 97.021842 
L 281.084522 93.307839 
L 282.282509 93.890427 
L 283.480496 93.854016 
L 284.678484 92.543191 
L 285.876471 91.560072 
L 287.074458 95.237664 
L 288.272445 91.450837 
L 289.470433 97.604431 
L 290.66842 93.963251 
L 291.866407 94.618663 
L 293.064394 94.800722 
L 294.262382 91.887778 
L 295.460369 95.274076 
L 296.658356 91.851367 
L 297.856344 91.378013 
L 299.054331 90.358483 
L 300.252318 91.560072 
L 301.450305 95.783841 
L 302.648293 94.327369 
L 303.84628 90.285659 
L 305.044267 89.047658 
L 306.242254 92.980132 
L 307.440242 88.792775 
L 308.638229 91.887778 
L 309.836216 87.809657 
L 311.034203 87.481951 
L 312.232191 91.851367 
L 313.430178 90.613365 
L 314.628165 88.501481 
L 315.826152 86.753715 
L 317.02414 92.543191 
L 318.222127 84.569007 
L 319.420114 89.011246 
L 320.618101 89.302541 
L 321.816089 89.193305 
L 323.014076 88.865599 
L 324.212063 85.224419 
L 325.41005 84.678242 
L 326.608038 86.207538 
L 327.806025 86.207538 
L 329.004012 83.804359 
L 330.201999 87.336303 
L 331.399987 84.64183 
L 332.597974 83.440241 
L 333.795961 81.219121 
L 334.993948 85.005948 
L 336.191936 80.236002 
L 337.389923 81.510415 
L 338.58791 80.855003 
L 339.785897 83.804359 
L 340.983885 80.855003 
L 342.181872 83.513064 
L 343.379859 84.132065 
L 344.577846 82.275063 
L 345.775834 81.182709 
L 346.973821 77.796412 
L 348.171808 78.77953 
L 349.369795 79.507766 
L 350.567783 78.961589 
L 351.76577 80.60012 
L 352.963757 76.33994 
L 354.161744 77.286647 
L 355.359732 76.267116 
L 356.557719 80.563709 
L 357.755706 73.062878 
L 358.953693 74.774232 
L 360.151681 77.942059 
L 361.349668 78.415412 
L 362.547655 74.810644 
L 363.745642 74.373703 
L 364.94363 76.886117 
L 366.141617 73.463408 
L 367.339604 76.849705 
L 368.537591 72.625936 
L 369.735579 72.917231 
L 370.933566 75.029115 
L 372.131553 73.026466 
L 373.32954 73.062878 
L 374.527528 75.283998 
L 375.725515 72.188995 
L 376.923502 70.514052 
L 378.121489 70.186346 
L 379.319477 71.460759 
L 381.715451 70.514052 
L 382.913438 70.331993 
L 384.111426 69.822228 
L 385.309413 65.926165 
L 386.5074 69.895051 
L 387.705387 69.45811 
L 388.903375 68.620638 
L 390.101362 70.805346 
L 391.299349 68.948344 
L 392.497336 69.785816 
L 393.695324 67.528284 
L 394.893311 68.839109 
L 396.091298 66.763636 
L 397.289285 67.309813 
L 398.487273 68.292932 
L 398.487273 68.292932 
" clip-path="url(#p62669d6a59)" style="fill: none; stroke: #ff7f0e; stroke-width: 1.5; stroke-linecap: square"/>
   </g>
   <g id="line2d_20">
    <path d="M 73.832727 292.747824 
L 75.030715 281.573168 
L 76.228702 279.966026 
L 78.624676 255.130667 
L 79.822664 260.579882 
L 81.020651 252.217723 
L 82.218638 240.892398 
L 83.416625 236.723875 
L 85.8126 229.014618 
L 87.010587 228.487274 
L 88.208574 226.101674 
L 89.406562 218.116189 
L 90.604549 219.823777 
L 91.802536 217.187061 
L 93.000523 215.203245 
L 94.198511 213.520769 
L 95.396498 212.842756 
L 96.594485 213.093872 
L 97.792472 236.64854 
L 98.99046 225.09721 
L 100.188447 226.151897 
L 101.386434 226.151897 
L 102.584421 222.008485 
L 103.782409 214.600567 
L 104.980396 214.048112 
L 106.178383 217.96552 
L 107.37637 218.76909 
L 108.574358 210.833829 
L 109.772345 214.600567 
L 110.970332 206.464413 
L 112.168319 208.071555 
L 113.366307 197.70047 
L 114.564294 201.34165 
L 115.762281 201.165869 
L 116.960268 199.056495 
L 118.158256 197.449354 
L 119.356243 196.721118 
L 120.55423 197.876251 
L 121.752217 195.214423 
L 122.950205 190.794783 
L 124.148192 188.961638 
L 125.346179 189.488981 
L 126.544166 191.975028 
L 127.742154 187.605612 
L 128.940141 186.073805 
L 130.138128 185.119565 
L 131.336115 183.93932 
L 132.534103 185.596685 
L 133.73209 183.286419 
L 134.930077 178.088321 
L 136.128064 179.544793 
L 137.326052 176.531402 
L 138.524039 177.033634 
L 139.722026 177.209415 
L 140.920013 175.978947 
L 142.118001 177.033634 
L 143.315988 176.506291 
L 144.513975 176.732295 
L 145.711962 211.260726 
L 146.90995 203.576581 
L 148.107937 205.083276 
L 149.305924 199.2825 
L 150.503911 210.507379 
L 151.701899 199.182053 
L 152.899886 209.201576 
L 154.097873 201.065422 
L 155.29586 204.731714 
L 156.493848 200.161405 
L 157.691835 194.034178 
L 160.087809 199.458281 
L 161.285797 203.852808 
L 162.483784 197.097792 
L 163.681771 200.23674 
L 164.879758 208.121778 
L 166.077746 199.433169 
L 167.275733 197.022457 
L 168.47372 198.579375 
L 169.671707 189.564316 
L 170.869695 191.422573 
L 172.067682 194.209959 
L 173.265669 200.638525 
L 174.463656 184.215548 
L 175.661644 199.60895 
L 176.859631 187.304273 
L 178.057618 187.053157 
L 179.255606 184.341106 
L 180.453593 192.351702 
L 181.65158 189.011861 
L 182.849567 183.713316 
L 184.047555 191.84947 
L 185.245542 181.202157 
L 186.443529 189.514092 
L 187.641516 186.802041 
L 188.839504 184.466664 
L 190.037491 185.04423 
L 191.235478 189.288088 
L 192.433465 185.094453 
L 193.631453 184.265771 
L 194.82944 177.159192 
L 196.027427 188.05762 
L 197.225414 173.995132 
L 198.423402 180.674814 
L 199.621389 182.583295 
L 200.819376 172.136875 
L 202.017363 173.593347 
L 203.215351 176.958299 
L 204.413338 171.483974 
L 205.611325 169.85172 
L 206.809312 175.300935 
L 208.0073 170.554845 
L 209.205287 171.43375 
L 210.403274 175.652497 
L 211.601261 169.726162 
L 212.799249 164.879626 
L 213.997236 166.536991 
L 215.195223 167.139669 
L 216.39321 164.377395 
L 217.591198 164.754068 
L 218.789185 165.607862 
L 219.987172 166.059871 
L 221.185159 167.340562 
L 223.581134 163.448266 
L 224.779121 164.477841 
L 225.977108 162.920923 
L 227.175096 162.745141 
L 228.373083 159.756863 
L 229.57107 161.841124 
L 230.769057 161.966682 
L 231.967045 162.293133 
L 233.165032 163.423154 
L 234.363019 163.071592 
L 235.561006 161.539785 
L 237.956981 162.594472 
L 239.154968 162.393579 
L 240.352955 162.694918 
L 241.550943 212.26519 
L 242.74893 198.65471 
L 243.946917 198.001809 
L 245.144904 186.048694 
L 246.342892 200.462744 
L 247.540879 206.137963 
L 248.738866 191.648577 
L 249.936853 195.741766 
L 251.134841 193.607281 
L 252.332828 193.833285 
L 253.530815 199.985624 
L 254.728802 189.890766 
L 255.92679 201.216092 
L 257.124777 186.726706 
L 258.322764 200.990087 
L 259.520751 197.198238 
L 260.718739 194.209959 
L 261.916726 194.787526 
L 263.114713 190.593891 
L 264.3127 199.583839 
L 265.510688 190.443221 
L 266.708675 189.840543 
L 267.906662 192.95438 
L 269.104649 191.799247 
L 270.302637 201.266315 
L 271.500624 189.463869 
L 272.698611 184.968895 
L 273.896598 190.694337 
L 275.094586 190.995676 
L 276.292573 186.249586 
L 277.49056 193.054826 
L 278.688547 191.924805 
L 279.886535 186.199363 
L 281.084522 187.756281 
L 282.282509 193.632393 
L 283.480496 193.381277 
L 284.678484 181.804835 
L 285.876471 189.011861 
L 287.074458 191.623466 
L 288.272445 187.856728 
L 290.66842 181.88017 
L 291.866407 197.173126 
L 293.064394 189.438758 
L 294.262382 183.964432 
L 295.460369 183.663093 
L 296.658356 187.831616 
L 297.856344 183.562647 
L 299.054331 180.850595 
L 300.252318 190.116771 
L 301.450305 187.530277 
L 302.648293 193.531946 
L 303.84628 184.617333 
L 305.044267 183.010192 
L 306.242254 194.762414 
L 307.440242 177.560977 
L 308.638229 177.083857 
L 309.836216 180.976153 
L 311.034203 185.646908 
L 312.232191 182.708853 
L 313.430178 184.190436 
L 314.628165 183.4622 
L 315.826152 177.360085 
L 317.02414 185.872912 
L 318.222127 176.004059 
L 319.420114 191.322127 
L 320.618101 185.345569 
L 321.816089 187.228938 
L 323.014076 177.711647 
L 324.212063 177.008522 
L 325.41005 180.750149 
L 326.608038 184.08999 
L 327.806025 183.336642 
L 329.004012 187.329384 
L 330.201999 177.636312 
L 331.399987 183.185973 
L 332.597974 180.624591 
L 333.795961 179.293677 
L 334.993948 179.645239 
L 336.191936 175.828278 
L 337.389923 172.413102 
L 338.58791 171.006853 
L 339.785897 178.264102 
L 340.983885 175.803166 
L 342.181872 180.499033 
L 343.379859 173.794239 
L 344.577846 181.051488 
L 345.775834 177.76187 
L 346.973821 171.760201 
L 348.171808 180.021913 
L 349.369795 175.024707 
L 350.567783 172.237321 
L 351.76577 174.020244 
L 352.963757 169.977278 
L 354.161744 177.736758 
L 355.359732 170.780849 
L 356.557719 181.55372 
L 357.755706 167.566566 
L 360.151681 175.727832 
L 361.349668 171.182634 
L 362.547655 164.954961 
L 363.745642 168.922592 
L 364.94363 171.082188 
L 366.141617 169.600605 
L 367.339604 171.986205 
L 368.537591 169.3746 
L 369.735579 172.036428 
L 370.933566 165.180965 
L 372.131553 164.402506 
L 373.32954 165.080519 
L 374.527528 168.822145 
L 375.725515 167.541454 
L 376.923502 169.52527 
L 378.121489 166.938776 
L 379.319477 167.79257 
L 380.517464 169.249042 
L 381.715451 166.235652 
L 382.913438 169.977278 
L 384.111426 162.443802 
L 385.309413 161.916459 
L 386.5074 168.646364 
L 387.705387 167.667012 
L 388.903375 163.900274 
L 390.101362 163.82494 
L 391.299349 166.762995 
L 392.497336 167.918128 
L 393.695324 162.795365 
L 394.893311 162.368468 
L 396.091298 165.155854 
L 397.289285 161.590009 
L 398.487273 168.746811 
L 398.487273 168.746811 
" clip-path="url(#p62669d6a59)" style="fill: none; stroke: #2ca02c; stroke-width: 1.5; stroke-linecap: square"/>
   </g>
   <g id="line2d_21">
    <path d="M 398.487273 68.547815 
" clip-path="url(#p62669d6a59)" style="fill: none; stroke: #d62728; stroke-width: 1.5; stroke-linecap: square"/>
   </g>
   <g id="line2d_22">
    <path d="M 398.487273 164.62851 
" clip-path="url(#p62669d6a59)" style="fill: none; stroke: #9467bd; stroke-width: 1.5; stroke-linecap: square"/>
   </g>
   <g id="patch_3">
    <path d="M 57.6 307.584 
L 57.6 41.472 
" style="fill: none; stroke: #000000; stroke-width: 0.8; stroke-linejoin: miter; stroke-linecap: square"/>
   </g>
   <g id="patch_4">
    <path d="M 414.72 307.584 
L 414.72 41.472 
" style="fill: none; stroke: #000000; stroke-width: 0.8; stroke-linejoin: miter; stroke-linecap: square"/>
   </g>
   <g id="patch_5">
    <path d="M 57.6 307.584 
L 414.72 307.584 
" style="fill: none; stroke: #000000; stroke-width: 0.8; stroke-linejoin: miter; stroke-linecap: square"/>
   </g>
   <g id="patch_6">
    <path d="M 57.6 41.472 
L 414.72 41.472 
" style="fill: none; stroke: #000000; stroke-width: 0.8; stroke-linejoin: miter; stroke-linecap: square"/>
   </g>
   <g id="text_20">
    <!-- Learning Curves -->
    <g transform="translate(187.37625 35.472) scale(0.12 -0.12)">
     <defs>
      <path id="DejaVuSans-4c" d="M 628 4666 
L 1259 4666 
L 1259 531 
L 3531 531 
L 3531 0 
L 628 0 
L 628 4666 
z
" transform="scale(0.015625)"/>
      <path id="DejaVuSans-65" d="M 3597 1894 
L 3597 1613 
L 953 1613 
Q 991 1019 1311 708 
Q 1631 397 2203 397 
Q 2534 397 2845 478 
Q 3156 559 3463 722 
L 3463 178 
Q 3153 47 2828 -22 
Q 2503 -91 2169 -91 
Q 1331 -91 842 396 
Q 353 884 353 1716 
Q 353 2575 817 3079 
Q 1281 3584 2069 3584 
Q 2775 3584 3186 3129 
Q 3597 2675 3597 1894 
z
M 3022 2063 
Q 3016 2534 2758 2815 
Q 2500 3097 2075 3097 
Q 1594 3097 1305 2825 
Q 1016 2553 972 2059 
L 3022 2063 
z
" transform="scale(0.015625)"/>
      <path id="DejaVuSans-6e" d="M 3513 2113 
L 3513 0 
L 2938 0 
L 2938 2094 
Q 2938 2591 2744 2837 
Q 2550 3084 2163 3084 
Q 1697 3084 1428 2787 
Q 1159 2491 1159 1978 
L 1159 0 
L 581 0 
L 581 3500 
L 1159 3500 
L 1159 2956 
Q 1366 3272 1645 3428 
Q 1925 3584 2291 3584 
Q 2894 3584 3203 3211 
Q 3513 2838 3513 2113 
z
" transform="scale(0.015625)"/>
      <path id="DejaVuSans-69" d="M 603 3500 
L 1178 3500 
L 1178 0 
L 603 0 
L 603 3500 
z
M 603 4863 
L 1178 4863 
L 1178 4134 
L 603 4134 
L 603 4863 
z
" transform="scale(0.015625)"/>
      <path id="DejaVuSans-67" d="M 2906 1791 
Q 2906 2416 2648 2759 
Q 2391 3103 1925 3103 
Q 1463 3103 1205 2759 
Q 947 2416 947 1791 
Q 947 1169 1205 825 
Q 1463 481 1925 481 
Q 2391 481 2648 825 
Q 2906 1169 2906 1791 
z
M 3481 434 
Q 3481 -459 3084 -895 
Q 2688 -1331 1869 -1331 
Q 1566 -1331 1297 -1286 
Q 1028 -1241 775 -1147 
L 775 -588 
Q 1028 -725 1275 -790 
Q 1522 -856 1778 -856 
Q 2344 -856 2625 -561 
Q 2906 -266 2906 331 
L 2906 616 
Q 2728 306 2450 153 
Q 2172 0 1784 0 
Q 1141 0 747 490 
Q 353 981 353 1791 
Q 353 2603 747 3093 
Q 1141 3584 1784 3584 
Q 2172 3584 2450 3431 
Q 2728 3278 2906 2969 
L 2906 3500 
L 3481 3500 
L 3481 434 
z
" transform="scale(0.015625)"/>
      <path id="DejaVuSans-20" transform="scale(0.015625)"/>
      <path id="DejaVuSans-43" d="M 4122 4306 
L 4122 3641 
Q 3803 3938 3442 4084 
Q 3081 4231 2675 4231 
Q 1875 4231 1450 3742 
Q 1025 3253 1025 2328 
Q 1025 1406 1450 917 
Q 1875 428 2675 428 
Q 3081 428 3442 575 
Q 3803 722 4122 1019 
L 4122 359 
Q 3791 134 3420 21 
Q 3050 -91 2638 -91 
Q 1578 -91 968 557 
Q 359 1206 359 2328 
Q 359 3453 968 4101 
Q 1578 4750 2638 4750 
Q 3056 4750 3426 4639 
Q 3797 4528 4122 4306 
z
" transform="scale(0.015625)"/>
      <path id="DejaVuSans-76" d="M 191 3500 
L 800 3500 
L 1894 563 
L 2988 3500 
L 3597 3500 
L 2284 0 
L 1503 0 
L 191 3500 
z
" transform="scale(0.015625)"/>
     </defs>
     <use xlink:href="#DejaVuSans-4c"/>
     <use xlink:href="#DejaVuSans-65" x="53.962891"/>
     <use xlink:href="#DejaVuSans-61" x="115.486328"/>
     <use xlink:href="#DejaVuSans-72" x="176.765625"/>
     <use xlink:href="#DejaVuSans-6e" x="216.128906"/>
     <use xlink:href="#DejaVuSans-69" x="279.507812"/>
     <use xlink:href="#DejaVuSans-6e" x="307.291016"/>
     <use xlink:href="#DejaVuSans-67" x="370.669922"/>
     <use xlink:href="#DejaVuSans-20" x="434.146484"/>
     <use xlink:href="#DejaVuSans-43" x="465.933594"/>
     <use xlink:href="#DejaVuSans-75" x="535.757812"/>
     <use xlink:href="#DejaVuSans-72" x="599.136719"/>
     <use xlink:href="#DejaVuSans-76" x="640.25"/>
     <use xlink:href="#DejaVuSans-65" x="699.429688"/>
     <use xlink:href="#DejaVuSans-73" x="760.953125"/>
    </g>
   </g>
   <g id="legend_1">
    <g id="patch_7">
     <path d="M 214.18875 302.584 
L 407.72 302.584 
Q 409.72 302.584 409.72 300.584 
L 409.72 228.193375 
Q 409.72 226.193375 407.72 226.193375 
L 214.18875 226.193375 
Q 212.18875 226.193375 212.18875 228.193375 
L 212.18875 300.584 
Q 212.18875 302.584 214.18875 302.584 
z
" style="fill: #ffffff; opacity: 0.8; stroke: #cccccc; stroke-linejoin: miter"/>
    </g>
    <g id="line2d_23">
     <path d="M 216.18875 234.291812 
L 226.18875 234.291812 
L 236.18875 234.291812 
" style="fill: none; stroke: #1f77b4; stroke-width: 1.5; stroke-linecap: square"/>
    </g>
    <g id="text_21">
     <!-- Train Accuracy -->
     <g transform="translate(244.18875 237.791812) scale(0.1 -0.1)">
      <defs>
       <path id="DejaVuSans-54" d="M -19 4666 
L 3928 4666 
L 3928 4134 
L 2272 4134 
L 2272 0 
L 1638 0 
L 1638 4134 
L -19 4134 
L -19 4666 
z
" transform="scale(0.015625)"/>
      </defs>
      <use xlink:href="#DejaVuSans-54"/>
      <use xlink:href="#DejaVuSans-72" x="46.333984"/>
      <use xlink:href="#DejaVuSans-61" x="87.447266"/>
      <use xlink:href="#DejaVuSans-69" x="148.726562"/>
      <use xlink:href="#DejaVuSans-6e" x="176.509766"/>
      <use xlink:href="#DejaVuSans-20" x="239.888672"/>
      <use xlink:href="#DejaVuSans-41" x="271.675781"/>
      <use xlink:href="#DejaVuSans-63" x="338.333984"/>
      <use xlink:href="#DejaVuSans-63" x="393.314453"/>
      <use xlink:href="#DejaVuSans-75" x="448.294922"/>
      <use xlink:href="#DejaVuSans-72" x="511.673828"/>
      <use xlink:href="#DejaVuSans-61" x="552.787109"/>
      <use xlink:href="#DejaVuSans-63" x="614.066406"/>
      <use xlink:href="#DejaVuSans-79" x="669.046875"/>
     </g>
    </g>
    <g id="line2d_24">
     <path d="M 216.18875 248.969937 
L 226.18875 248.969937 
L 236.18875 248.969937 
" style="fill: none; stroke: #ff7f0e; stroke-width: 1.5; stroke-linecap: square"/>
    </g>
    <g id="text_22">
     <!-- Validation Accuracy -->
     <g transform="translate(244.18875 252.469937) scale(0.1 -0.1)">
      <defs>
       <path id="DejaVuSans-56" d="M 1831 0 
L 50 4666 
L 709 4666 
L 2188 738 
L 3669 4666 
L 4325 4666 
L 2547 0 
L 1831 0 
z
" transform="scale(0.015625)"/>
       <path id="DejaVuSans-6c" d="M 603 4863 
L 1178 4863 
L 1178 0 
L 603 0 
L 603 4863 
z
" transform="scale(0.015625)"/>
       <path id="DejaVuSans-64" d="M 2906 2969 
L 2906 4863 
L 3481 4863 
L 3481 0 
L 2906 0 
L 2906 525 
Q 2725 213 2448 61 
Q 2172 -91 1784 -91 
Q 1150 -91 751 415 
Q 353 922 353 1747 
Q 353 2572 751 3078 
Q 1150 3584 1784 3584 
Q 2172 3584 2448 3432 
Q 2725 3281 2906 2969 
z
M 947 1747 
Q 947 1113 1208 752 
Q 1469 391 1925 391 
Q 2381 391 2643 752 
Q 2906 1113 2906 1747 
Q 2906 2381 2643 2742 
Q 2381 3103 1925 3103 
Q 1469 3103 1208 2742 
Q 947 2381 947 1747 
z
" transform="scale(0.015625)"/>
       <path id="DejaVuSans-74" d="M 1172 4494 
L 1172 3500 
L 2356 3500 
L 2356 3053 
L 1172 3053 
L 1172 1153 
Q 1172 725 1289 603 
Q 1406 481 1766 481 
L 2356 481 
L 2356 0 
L 1766 0 
Q 1100 0 847 248 
Q 594 497 594 1153 
L 594 3053 
L 172 3053 
L 172 3500 
L 594 3500 
L 594 4494 
L 1172 4494 
z
" transform="scale(0.015625)"/>
      </defs>
      <use xlink:href="#DejaVuSans-56"/>
      <use xlink:href="#DejaVuSans-61" x="60.658203"/>
      <use xlink:href="#DejaVuSans-6c" x="121.9375"/>
      <use xlink:href="#DejaVuSans-69" x="149.720703"/>
      <use xlink:href="#DejaVuSans-64" x="177.503906"/>
      <use xlink:href="#DejaVuSans-61" x="240.980469"/>
      <use xlink:href="#DejaVuSans-74" x="302.259766"/>
      <use xlink:href="#DejaVuSans-69" x="341.46875"/>
      <use xlink:href="#DejaVuSans-6f" x="369.251953"/>
      <use xlink:href="#DejaVuSans-6e" x="430.433594"/>
      <use xlink:href="#DejaVuSans-20" x="493.8125"/>
      <use xlink:href="#DejaVuSans-41" x="525.599609"/>
      <use xlink:href="#DejaVuSans-63" x="592.257812"/>
      <use xlink:href="#DejaVuSans-63" x="647.238281"/>
      <use xlink:href="#DejaVuSans-75" x="702.21875"/>
      <use xlink:href="#DejaVuSans-72" x="765.597656"/>
      <use xlink:href="#DejaVuSans-61" x="806.710938"/>
      <use xlink:href="#DejaVuSans-63" x="867.990234"/>
      <use xlink:href="#DejaVuSans-79" x="922.970703"/>
     </g>
    </g>
    <g id="line2d_25">
     <path d="M 216.18875 263.648062 
L 226.18875 263.648062 
L 236.18875 263.648062 
" style="fill: none; stroke: #2ca02c; stroke-width: 1.5; stroke-linecap: square"/>
    </g>
    <g id="text_23">
     <!-- Robust Validation Accuracy -->
     <g transform="translate(244.18875 267.148062) scale(0.1 -0.1)">
      <defs>
       <path id="DejaVuSans-52" d="M 2841 2188 
Q 3044 2119 3236 1894 
Q 3428 1669 3622 1275 
L 4263 0 
L 3584 0 
L 2988 1197 
Q 2756 1666 2539 1819 
Q 2322 1972 1947 1972 
L 1259 1972 
L 1259 0 
L 628 0 
L 628 4666 
L 2053 4666 
Q 2853 4666 3247 4331 
Q 3641 3997 3641 3322 
Q 3641 2881 3436 2590 
Q 3231 2300 2841 2188 
z
M 1259 4147 
L 1259 2491 
L 2053 2491 
Q 2509 2491 2742 2702 
Q 2975 2913 2975 3322 
Q 2975 3731 2742 3939 
Q 2509 4147 2053 4147 
L 1259 4147 
z
" transform="scale(0.015625)"/>
       <path id="DejaVuSans-62" d="M 3116 1747 
Q 3116 2381 2855 2742 
Q 2594 3103 2138 3103 
Q 1681 3103 1420 2742 
Q 1159 2381 1159 1747 
Q 1159 1113 1420 752 
Q 1681 391 2138 391 
Q 2594 391 2855 752 
Q 3116 1113 3116 1747 
z
M 1159 2969 
Q 1341 3281 1617 3432 
Q 1894 3584 2278 3584 
Q 2916 3584 3314 3078 
Q 3713 2572 3713 1747 
Q 3713 922 3314 415 
Q 2916 -91 2278 -91 
Q 1894 -91 1617 61 
Q 1341 213 1159 525 
L 1159 0 
L 581 0 
L 581 4863 
L 1159 4863 
L 1159 2969 
z
" transform="scale(0.015625)"/>
      </defs>
      <use xlink:href="#DejaVuSans-52"/>
      <use xlink:href="#DejaVuSans-6f" x="64.982422"/>
      <use xlink:href="#DejaVuSans-62" x="126.164062"/>
      <use xlink:href="#DejaVuSans-75" x="189.640625"/>
      <use xlink:href="#DejaVuSans-73" x="253.019531"/>
      <use xlink:href="#DejaVuSans-74" x="305.119141"/>
      <use xlink:href="#DejaVuSans-20" x="344.328125"/>
      <use xlink:href="#DejaVuSans-56" x="376.115234"/>
      <use xlink:href="#DejaVuSans-61" x="436.773438"/>
      <use xlink:href="#DejaVuSans-6c" x="498.052734"/>
      <use xlink:href="#DejaVuSans-69" x="525.835938"/>
      <use xlink:href="#DejaVuSans-64" x="553.619141"/>
      <use xlink:href="#DejaVuSans-61" x="617.095703"/>
      <use xlink:href="#DejaVuSans-74" x="678.375"/>
      <use xlink:href="#DejaVuSans-69" x="717.583984"/>
      <use xlink:href="#DejaVuSans-6f" x="745.367188"/>
      <use xlink:href="#DejaVuSans-6e" x="806.548828"/>
      <use xlink:href="#DejaVuSans-20" x="869.927734"/>
      <use xlink:href="#DejaVuSans-41" x="901.714844"/>
      <use xlink:href="#DejaVuSans-63" x="968.373047"/>
      <use xlink:href="#DejaVuSans-63" x="1023.353516"/>
      <use xlink:href="#DejaVuSans-75" x="1078.333984"/>
      <use xlink:href="#DejaVuSans-72" x="1141.712891"/>
      <use xlink:href="#DejaVuSans-61" x="1182.826172"/>
      <use xlink:href="#DejaVuSans-63" x="1244.105469"/>
      <use xlink:href="#DejaVuSans-79" x="1299.085938"/>
     </g>
    </g>
    <g id="line2d_26">
     <path d="M 216.18875 278.326188 
L 226.18875 278.326188 
L 236.18875 278.326188 
" style="fill: none; stroke: #d62728; stroke-width: 1.5; stroke-linecap: square"/>
    </g>
    <g id="text_24">
     <!-- SWA Validation Accuracy -->
     <g transform="translate(244.18875 281.826188) scale(0.1 -0.1)">
      <defs>
       <path id="DejaVuSans-53" d="M 3425 4513 
L 3425 3897 
Q 3066 4069 2747 4153 
Q 2428 4238 2131 4238 
Q 1616 4238 1336 4038 
Q 1056 3838 1056 3469 
Q 1056 3159 1242 3001 
Q 1428 2844 1947 2747 
L 2328 2669 
Q 3034 2534 3370 2195 
Q 3706 1856 3706 1288 
Q 3706 609 3251 259 
Q 2797 -91 1919 -91 
Q 1588 -91 1214 -16 
Q 841 59 441 206 
L 441 856 
Q 825 641 1194 531 
Q 1563 422 1919 422 
Q 2459 422 2753 634 
Q 3047 847 3047 1241 
Q 3047 1584 2836 1778 
Q 2625 1972 2144 2069 
L 1759 2144 
Q 1053 2284 737 2584 
Q 422 2884 422 3419 
Q 422 4038 858 4394 
Q 1294 4750 2059 4750 
Q 2388 4750 2728 4690 
Q 3069 4631 3425 4513 
z
" transform="scale(0.015625)"/>
       <path id="DejaVuSans-57" d="M 213 4666 
L 850 4666 
L 1831 722 
L 2809 4666 
L 3519 4666 
L 4500 722 
L 5478 4666 
L 6119 4666 
L 4947 0 
L 4153 0 
L 3169 4050 
L 2175 0 
L 1381 0 
L 213 4666 
z
" transform="scale(0.015625)"/>
      </defs>
      <use xlink:href="#DejaVuSans-53"/>
      <use xlink:href="#DejaVuSans-57" x="63.476562"/>
      <use xlink:href="#DejaVuSans-41" x="156.853516"/>
      <use xlink:href="#DejaVuSans-20" x="225.261719"/>
      <use xlink:href="#DejaVuSans-56" x="257.048828"/>
      <use xlink:href="#DejaVuSans-61" x="317.707031"/>
      <use xlink:href="#DejaVuSans-6c" x="378.986328"/>
      <use xlink:href="#DejaVuSans-69" x="406.769531"/>
      <use xlink:href="#DejaVuSans-64" x="434.552734"/>
      <use xlink:href="#DejaVuSans-61" x="498.029297"/>
      <use xlink:href="#DejaVuSans-74" x="559.308594"/>
      <use xlink:href="#DejaVuSans-69" x="598.517578"/>
      <use xlink:href="#DejaVuSans-6f" x="626.300781"/>
      <use xlink:href="#DejaVuSans-6e" x="687.482422"/>
      <use xlink:href="#DejaVuSans-20" x="750.861328"/>
      <use xlink:href="#DejaVuSans-41" x="782.648438"/>
      <use xlink:href="#DejaVuSans-63" x="849.306641"/>
      <use xlink:href="#DejaVuSans-63" x="904.287109"/>
      <use xlink:href="#DejaVuSans-75" x="959.267578"/>
      <use xlink:href="#DejaVuSans-72" x="1022.646484"/>
      <use xlink:href="#DejaVuSans-61" x="1063.759766"/>
      <use xlink:href="#DejaVuSans-63" x="1125.039062"/>
      <use xlink:href="#DejaVuSans-79" x="1180.019531"/>
     </g>
    </g>
    <g id="line2d_27">
     <path d="M 216.18875 293.004312 
L 226.18875 293.004312 
L 236.18875 293.004312 
" style="fill: none; stroke: #9467bd; stroke-width: 1.5; stroke-linecap: square"/>
    </g>
    <g id="text_25">
     <!-- SWA Robust Validation Accuracy -->
     <g transform="translate(244.18875 296.504312) scale(0.1 -0.1)">
      <use xlink:href="#DejaVuSans-53"/>
      <use xlink:href="#DejaVuSans-57" x="63.476562"/>
      <use xlink:href="#DejaVuSans-41" x="156.853516"/>
      <use xlink:href="#DejaVuSans-20" x="225.261719"/>
      <use xlink:href="#DejaVuSans-52" x="257.048828"/>
      <use xlink:href="#DejaVuSans-6f" x="322.03125"/>
      <use xlink:href="#DejaVuSans-62" x="383.212891"/>
      <use xlink:href="#DejaVuSans-75" x="446.689453"/>
      <use xlink:href="#DejaVuSans-73" x="510.068359"/>
      <use xlink:href="#DejaVuSans-74" x="562.167969"/>
      <use xlink:href="#DejaVuSans-20" x="601.376953"/>
      <use xlink:href="#DejaVuSans-56" x="633.164062"/>
      <use xlink:href="#DejaVuSans-61" x="693.822266"/>
      <use xlink:href="#DejaVuSans-6c" x="755.101562"/>
      <use xlink:href="#DejaVuSans-69" x="782.884766"/>
      <use xlink:href="#DejaVuSans-64" x="810.667969"/>
      <use xlink:href="#DejaVuSans-61" x="874.144531"/>
      <use xlink:href="#DejaVuSans-74" x="935.423828"/>
      <use xlink:href="#DejaVuSans-69" x="974.632812"/>
      <use xlink:href="#DejaVuSans-6f" x="1002.416016"/>
      <use xlink:href="#DejaVuSans-6e" x="1063.597656"/>
      <use xlink:href="#DejaVuSans-20" x="1126.976562"/>
      <use xlink:href="#DejaVuSans-41" x="1158.763672"/>
      <use xlink:href="#DejaVuSans-63" x="1225.421875"/>
      <use xlink:href="#DejaVuSans-63" x="1280.402344"/>
      <use xlink:href="#DejaVuSans-75" x="1335.382812"/>
      <use xlink:href="#DejaVuSans-72" x="1398.761719"/>
      <use xlink:href="#DejaVuSans-61" x="1439.875"/>
      <use xlink:href="#DejaVuSans-63" x="1501.154297"/>
      <use xlink:href="#DejaVuSans-79" x="1556.134766"/>
     </g>
    </g>
   </g>
  </g>
 </g>
 <defs>
  <clipPath id="p62669d6a59">
   <rect x="57.6" y="41.472" width="357.12" height="266.112"/>
  </clipPath>
 </defs>
</svg>
