<?xml version="1.0" encoding="utf-8" standalone="no"?>
<!DOCTYPE svg PUBLIC "-//W3C//DTD SVG 1.1//EN"
  "http://www.w3.org/Graphics/SVG/1.1/DTD/svg11.dtd">
<svg xmlns:xlink="http://www.w3.org/1999/xlink" width="460.8pt" height="345.6pt" viewBox="0 0 460.8 345.6" xmlns="http://www.w3.org/2000/svg" version="1.1">
 <metadata>
  <rdf:RDF xmlns:dc="http://purl.org/dc/elements/1.1/" xmlns:cc="http://creativecommons.org/ns#" xmlns:rdf="http://www.w3.org/1999/02/22-rdf-syntax-ns#">
   <cc:Work>
    <dc:type rdf:resource="http://purl.org/dc/dcmitype/StillImage"/>
    <dc:date>2025-03-13T11:19:20.031767</dc:date>
    <dc:format>image/svg+xml</dc:format>
    <dc:creator>
     <cc:Agent>
      <dc:title>Matplotlib v3.9.1, https://matplotlib.org/</dc:title>
     </cc:Agent>
    </dc:creator>
   </cc:Work>
  </rdf:RDF>
 </metadata>
 <defs>
  <style type="text/css">*{stroke-linejoin: round; stroke-linecap: butt}</style>
 </defs>
 <g id="figure_1">
  <g id="patch_1">
   <path d="M 0 345.6 
L 460.8 345.6 
L 460.8 0 
L 0 0 
z
" style="fill: #ffffff"/>
  </g>
  <g id="axes_1">
   <g id="patch_2">
    <path d="M 57.6 307.584 
L 414.72 307.584 
L 414.72 41.472 
L 57.6 41.472 
z
" style="fill: #ffffff"/>
   </g>
   <g id="matplotlib.axis_1">
    <g id="xtick_1">
     <g id="line2d_1">
      <defs>
       <path id="mb25bf5e097" d="M 0 0 
L 0 3.5 
" style="stroke: #000000; stroke-width: 0.8"/>
      </defs>
      <g>
       <use xlink:href="#mb25bf5e097" x="73.832727" y="307.584" style="stroke: #000000; stroke-width: 0.8"/>
      </g>
     </g>
     <g id="text_1">
      <!-- 1 -->
      <g transform="translate(70.651477 322.182437) scale(0.1 -0.1)">
       <defs>
        <path id="DejaVuSans-31" d="M 794 531 
L 1825 531 
L 1825 4091 
L 703 3866 
L 703 4441 
L 1819 4666 
L 2450 4666 
L 2450 531 
L 3481 531 
L 3481 0 
L 794 0 
L 794 531 
z
" transform="scale(0.015625)"/>
       </defs>
       <use xlink:href="#DejaVuSans-31"/>
      </g>
     </g>
    </g>
    <g id="xtick_2">
     <g id="line2d_2">
      <g>
       <use xlink:href="#mb25bf5e097" x="109.905455" y="307.584" style="stroke: #000000; stroke-width: 0.8"/>
      </g>
     </g>
     <g id="text_2">
      <!-- 30 -->
      <g transform="translate(103.542955 322.182437) scale(0.1 -0.1)">
       <defs>
        <path id="DejaVuSans-33" d="M 2597 2516 
Q 3050 2419 3304 2112 
Q 3559 1806 3559 1356 
Q 3559 666 3084 287 
Q 2609 -91 1734 -91 
Q 1441 -91 1130 -33 
Q 819 25 488 141 
L 488 750 
Q 750 597 1062 519 
Q 1375 441 1716 441 
Q 2309 441 2620 675 
Q 2931 909 2931 1356 
Q 2931 1769 2642 2001 
Q 2353 2234 1838 2234 
L 1294 2234 
L 1294 2753 
L 1863 2753 
Q 2328 2753 2575 2939 
Q 2822 3125 2822 3475 
Q 2822 3834 2567 4026 
Q 2313 4219 1838 4219 
Q 1578 4219 1281 4162 
Q 984 4106 628 3988 
L 628 4550 
Q 988 4650 1302 4700 
Q 1616 4750 1894 4750 
Q 2613 4750 3031 4423 
Q 3450 4097 3450 3541 
Q 3450 3153 3228 2886 
Q 3006 2619 2597 2516 
z
" transform="scale(0.015625)"/>
        <path id="DejaVuSans-30" d="M 2034 4250 
Q 1547 4250 1301 3770 
Q 1056 3291 1056 2328 
Q 1056 1369 1301 889 
Q 1547 409 2034 409 
Q 2525 409 2770 889 
Q 3016 1369 3016 2328 
Q 3016 3291 2770 3770 
Q 2525 4250 2034 4250 
z
M 2034 4750 
Q 2819 4750 3233 4129 
Q 3647 3509 3647 2328 
Q 3647 1150 3233 529 
Q 2819 -91 2034 -91 
Q 1250 -91 836 529 
Q 422 1150 422 2328 
Q 422 3509 836 4129 
Q 1250 4750 2034 4750 
z
" transform="scale(0.015625)"/>
       </defs>
       <use xlink:href="#DejaVuSans-33"/>
       <use xlink:href="#DejaVuSans-30" x="63.623047"/>
      </g>
     </g>
    </g>
    <g id="xtick_3">
     <g id="line2d_3">
      <g>
       <use xlink:href="#mb25bf5e097" x="145.978182" y="307.584" style="stroke: #000000; stroke-width: 0.8"/>
      </g>
     </g>
     <g id="text_3">
      <!-- 59 -->
      <g transform="translate(139.615682 322.182437) scale(0.1 -0.1)">
       <defs>
        <path id="DejaVuSans-35" d="M 691 4666 
L 3169 4666 
L 3169 4134 
L 1269 4134 
L 1269 2991 
Q 1406 3038 1543 3061 
Q 1681 3084 1819 3084 
Q 2600 3084 3056 2656 
Q 3513 2228 3513 1497 
Q 3513 744 3044 326 
Q 2575 -91 1722 -91 
Q 1428 -91 1123 -41 
Q 819 9 494 109 
L 494 744 
Q 775 591 1075 516 
Q 1375 441 1709 441 
Q 2250 441 2565 725 
Q 2881 1009 2881 1497 
Q 2881 1984 2565 2268 
Q 2250 2553 1709 2553 
Q 1456 2553 1204 2497 
Q 953 2441 691 2322 
L 691 4666 
z
" transform="scale(0.015625)"/>
        <path id="DejaVuSans-39" d="M 703 97 
L 703 672 
Q 941 559 1184 500 
Q 1428 441 1663 441 
Q 2288 441 2617 861 
Q 2947 1281 2994 2138 
Q 2813 1869 2534 1725 
Q 2256 1581 1919 1581 
Q 1219 1581 811 2004 
Q 403 2428 403 3163 
Q 403 3881 828 4315 
Q 1253 4750 1959 4750 
Q 2769 4750 3195 4129 
Q 3622 3509 3622 2328 
Q 3622 1225 3098 567 
Q 2575 -91 1691 -91 
Q 1453 -91 1209 -44 
Q 966 3 703 97 
z
M 1959 2075 
Q 2384 2075 2632 2365 
Q 2881 2656 2881 3163 
Q 2881 3666 2632 3958 
Q 2384 4250 1959 4250 
Q 1534 4250 1286 3958 
Q 1038 3666 1038 3163 
Q 1038 2656 1286 2365 
Q 1534 2075 1959 2075 
z
" transform="scale(0.015625)"/>
       </defs>
       <use xlink:href="#DejaVuSans-35"/>
       <use xlink:href="#DejaVuSans-39" x="63.623047"/>
      </g>
     </g>
    </g>
    <g id="xtick_4">
     <g id="line2d_4">
      <g>
       <use xlink:href="#mb25bf5e097" x="182.050909" y="307.584" style="stroke: #000000; stroke-width: 0.8"/>
      </g>
     </g>
     <g id="text_4">
      <!-- 88 -->
      <g transform="translate(175.688409 322.182437) scale(0.1 -0.1)">
       <defs>
        <path id="DejaVuSans-38" d="M 2034 2216 
Q 1584 2216 1326 1975 
Q 1069 1734 1069 1313 
Q 1069 891 1326 650 
Q 1584 409 2034 409 
Q 2484 409 2743 651 
Q 3003 894 3003 1313 
Q 3003 1734 2745 1975 
Q 2488 2216 2034 2216 
z
M 1403 2484 
Q 997 2584 770 2862 
Q 544 3141 544 3541 
Q 544 4100 942 4425 
Q 1341 4750 2034 4750 
Q 2731 4750 3128 4425 
Q 3525 4100 3525 3541 
Q 3525 3141 3298 2862 
Q 3072 2584 2669 2484 
Q 3125 2378 3379 2068 
Q 3634 1759 3634 1313 
Q 3634 634 3220 271 
Q 2806 -91 2034 -91 
Q 1263 -91 848 271 
Q 434 634 434 1313 
Q 434 1759 690 2068 
Q 947 2378 1403 2484 
z
M 1172 3481 
Q 1172 3119 1398 2916 
Q 1625 2713 2034 2713 
Q 2441 2713 2670 2916 
Q 2900 3119 2900 3481 
Q 2900 3844 2670 4047 
Q 2441 4250 2034 4250 
Q 1625 4250 1398 4047 
Q 1172 3844 1172 3481 
z
" transform="scale(0.015625)"/>
       </defs>
       <use xlink:href="#DejaVuSans-38"/>
       <use xlink:href="#DejaVuSans-38" x="63.623047"/>
      </g>
     </g>
    </g>
    <g id="xtick_5">
     <g id="line2d_5">
      <g>
       <use xlink:href="#mb25bf5e097" x="218.123636" y="307.584" style="stroke: #000000; stroke-width: 0.8"/>
      </g>
     </g>
     <g id="text_5">
      <!-- 117 -->
      <g transform="translate(208.579886 322.182437) scale(0.1 -0.1)">
       <defs>
        <path id="DejaVuSans-37" d="M 525 4666 
L 3525 4666 
L 3525 4397 
L 1831 0 
L 1172 0 
L 2766 4134 
L 525 4134 
L 525 4666 
z
" transform="scale(0.015625)"/>
       </defs>
       <use xlink:href="#DejaVuSans-31"/>
       <use xlink:href="#DejaVuSans-31" x="63.623047"/>
       <use xlink:href="#DejaVuSans-37" x="127.246094"/>
      </g>
     </g>
    </g>
    <g id="xtick_6">
     <g id="line2d_6">
      <g>
       <use xlink:href="#mb25bf5e097" x="254.196364" y="307.584" style="stroke: #000000; stroke-width: 0.8"/>
      </g>
     </g>
     <g id="text_6">
      <!-- 146 -->
      <g transform="translate(244.652614 322.182437) scale(0.1 -0.1)">
       <defs>
        <path id="DejaVuSans-34" d="M 2419 4116 
L 825 1625 
L 2419 1625 
L 2419 4116 
z
M 2253 4666 
L 3047 4666 
L 3047 1625 
L 3713 1625 
L 3713 1100 
L 3047 1100 
L 3047 0 
L 2419 0 
L 2419 1100 
L 313 1100 
L 313 1709 
L 2253 4666 
z
" transform="scale(0.015625)"/>
        <path id="DejaVuSans-36" d="M 2113 2584 
Q 1688 2584 1439 2293 
Q 1191 2003 1191 1497 
Q 1191 994 1439 701 
Q 1688 409 2113 409 
Q 2538 409 2786 701 
Q 3034 994 3034 1497 
Q 3034 2003 2786 2293 
Q 2538 2584 2113 2584 
z
M 3366 4563 
L 3366 3988 
Q 3128 4100 2886 4159 
Q 2644 4219 2406 4219 
Q 1781 4219 1451 3797 
Q 1122 3375 1075 2522 
Q 1259 2794 1537 2939 
Q 1816 3084 2150 3084 
Q 2853 3084 3261 2657 
Q 3669 2231 3669 1497 
Q 3669 778 3244 343 
Q 2819 -91 2113 -91 
Q 1303 -91 875 529 
Q 447 1150 447 2328 
Q 447 3434 972 4092 
Q 1497 4750 2381 4750 
Q 2619 4750 2861 4703 
Q 3103 4656 3366 4563 
z
" transform="scale(0.015625)"/>
       </defs>
       <use xlink:href="#DejaVuSans-31"/>
       <use xlink:href="#DejaVuSans-34" x="63.623047"/>
       <use xlink:href="#DejaVuSans-36" x="127.246094"/>
      </g>
     </g>
    </g>
    <g id="xtick_7">
     <g id="line2d_7">
      <g>
       <use xlink:href="#mb25bf5e097" x="290.269091" y="307.584" style="stroke: #000000; stroke-width: 0.8"/>
      </g>
     </g>
     <g id="text_7">
      <!-- 175 -->
      <g transform="translate(280.725341 322.182437) scale(0.1 -0.1)">
       <use xlink:href="#DejaVuSans-31"/>
       <use xlink:href="#DejaVuSans-37" x="63.623047"/>
       <use xlink:href="#DejaVuSans-35" x="127.246094"/>
      </g>
     </g>
    </g>
    <g id="xtick_8">
     <g id="line2d_8">
      <g>
       <use xlink:href="#mb25bf5e097" x="326.341818" y="307.584" style="stroke: #000000; stroke-width: 0.8"/>
      </g>
     </g>
     <g id="text_8">
      <!-- 204 -->
      <g transform="translate(316.798068 322.182437) scale(0.1 -0.1)">
       <defs>
        <path id="DejaVuSans-32" d="M 1228 531 
L 3431 531 
L 3431 0 
L 469 0 
L 469 531 
Q 828 903 1448 1529 
Q 2069 2156 2228 2338 
Q 2531 2678 2651 2914 
Q 2772 3150 2772 3378 
Q 2772 3750 2511 3984 
Q 2250 4219 1831 4219 
Q 1534 4219 1204 4116 
Q 875 4013 500 3803 
L 500 4441 
Q 881 4594 1212 4672 
Q 1544 4750 1819 4750 
Q 2544 4750 2975 4387 
Q 3406 4025 3406 3419 
Q 3406 3131 3298 2873 
Q 3191 2616 2906 2266 
Q 2828 2175 2409 1742 
Q 1991 1309 1228 531 
z
" transform="scale(0.015625)"/>
       </defs>
       <use xlink:href="#DejaVuSans-32"/>
       <use xlink:href="#DejaVuSans-30" x="63.623047"/>
       <use xlink:href="#DejaVuSans-34" x="127.246094"/>
      </g>
     </g>
    </g>
    <g id="xtick_9">
     <g id="line2d_9">
      <g>
       <use xlink:href="#mb25bf5e097" x="362.414545" y="307.584" style="stroke: #000000; stroke-width: 0.8"/>
      </g>
     </g>
     <g id="text_9">
      <!-- 233 -->
      <g transform="translate(352.870795 322.182437) scale(0.1 -0.1)">
       <use xlink:href="#DejaVuSans-32"/>
       <use xlink:href="#DejaVuSans-33" x="63.623047"/>
       <use xlink:href="#DejaVuSans-33" x="127.246094"/>
      </g>
     </g>
    </g>
    <g id="xtick_10">
     <g id="line2d_10">
      <g>
       <use xlink:href="#mb25bf5e097" x="398.487273" y="307.584" style="stroke: #000000; stroke-width: 0.8"/>
      </g>
     </g>
     <g id="text_10">
      <!-- 262 -->
      <g transform="translate(388.943523 322.182437) scale(0.1 -0.1)">
       <use xlink:href="#DejaVuSans-32"/>
       <use xlink:href="#DejaVuSans-36" x="63.623047"/>
       <use xlink:href="#DejaVuSans-32" x="127.246094"/>
      </g>
     </g>
    </g>
    <g id="text_11">
     <!-- Epochs -->
     <g transform="translate(218.244375 335.860562) scale(0.1 -0.1)">
      <defs>
       <path id="DejaVuSans-45" d="M 628 4666 
L 3578 4666 
L 3578 4134 
L 1259 4134 
L 1259 2753 
L 3481 2753 
L 3481 2222 
L 1259 2222 
L 1259 531 
L 3634 531 
L 3634 0 
L 628 0 
L 628 4666 
z
" transform="scale(0.015625)"/>
       <path id="DejaVuSans-70" d="M 1159 525 
L 1159 -1331 
L 581 -1331 
L 581 3500 
L 1159 3500 
L 1159 2969 
Q 1341 3281 1617 3432 
Q 1894 3584 2278 3584 
Q 2916 3584 3314 3078 
Q 3713 2572 3713 1747 
Q 3713 922 3314 415 
Q 2916 -91 2278 -91 
Q 1894 -91 1617 61 
Q 1341 213 1159 525 
z
M 3116 1747 
Q 3116 2381 2855 2742 
Q 2594 3103 2138 3103 
Q 1681 3103 1420 2742 
Q 1159 2381 1159 1747 
Q 1159 1113 1420 752 
Q 1681 391 2138 391 
Q 2594 391 2855 752 
Q 3116 1113 3116 1747 
z
" transform="scale(0.015625)"/>
       <path id="DejaVuSans-6f" d="M 1959 3097 
Q 1497 3097 1228 2736 
Q 959 2375 959 1747 
Q 959 1119 1226 758 
Q 1494 397 1959 397 
Q 2419 397 2687 759 
Q 2956 1122 2956 1747 
Q 2956 2369 2687 2733 
Q 2419 3097 1959 3097 
z
M 1959 3584 
Q 2709 3584 3137 3096 
Q 3566 2609 3566 1747 
Q 3566 888 3137 398 
Q 2709 -91 1959 -91 
Q 1206 -91 779 398 
Q 353 888 353 1747 
Q 353 2609 779 3096 
Q 1206 3584 1959 3584 
z
" transform="scale(0.015625)"/>
       <path id="DejaVuSans-63" d="M 3122 3366 
L 3122 2828 
Q 2878 2963 2633 3030 
Q 2388 3097 2138 3097 
Q 1578 3097 1268 2742 
Q 959 2388 959 1747 
Q 959 1106 1268 751 
Q 1578 397 2138 397 
Q 2388 397 2633 464 
Q 2878 531 3122 666 
L 3122 134 
Q 2881 22 2623 -34 
Q 2366 -91 2075 -91 
Q 1284 -91 818 406 
Q 353 903 353 1747 
Q 353 2603 823 3093 
Q 1294 3584 2113 3584 
Q 2378 3584 2631 3529 
Q 2884 3475 3122 3366 
z
" transform="scale(0.015625)"/>
       <path id="DejaVuSans-68" d="M 3513 2113 
L 3513 0 
L 2938 0 
L 2938 2094 
Q 2938 2591 2744 2837 
Q 2550 3084 2163 3084 
Q 1697 3084 1428 2787 
Q 1159 2491 1159 1978 
L 1159 0 
L 581 0 
L 581 4863 
L 1159 4863 
L 1159 2956 
Q 1366 3272 1645 3428 
Q 1925 3584 2291 3584 
Q 2894 3584 3203 3211 
Q 3513 2838 3513 2113 
z
" transform="scale(0.015625)"/>
       <path id="DejaVuSans-73" d="M 2834 3397 
L 2834 2853 
Q 2591 2978 2328 3040 
Q 2066 3103 1784 3103 
Q 1356 3103 1142 2972 
Q 928 2841 928 2578 
Q 928 2378 1081 2264 
Q 1234 2150 1697 2047 
L 1894 2003 
Q 2506 1872 2764 1633 
Q 3022 1394 3022 966 
Q 3022 478 2636 193 
Q 2250 -91 1575 -91 
Q 1294 -91 989 -36 
Q 684 19 347 128 
L 347 722 
Q 666 556 975 473 
Q 1284 391 1588 391 
Q 1994 391 2212 530 
Q 2431 669 2431 922 
Q 2431 1156 2273 1281 
Q 2116 1406 1581 1522 
L 1381 1569 
Q 847 1681 609 1914 
Q 372 2147 372 2553 
Q 372 3047 722 3315 
Q 1072 3584 1716 3584 
Q 2034 3584 2315 3537 
Q 2597 3491 2834 3397 
z
" transform="scale(0.015625)"/>
      </defs>
      <use xlink:href="#DejaVuSans-45"/>
      <use xlink:href="#DejaVuSans-70" x="63.183594"/>
      <use xlink:href="#DejaVuSans-6f" x="126.660156"/>
      <use xlink:href="#DejaVuSans-63" x="187.841797"/>
      <use xlink:href="#DejaVuSans-68" x="242.822266"/>
      <use xlink:href="#DejaVuSans-73" x="306.201172"/>
     </g>
    </g>
   </g>
   <g id="matplotlib.axis_2">
    <g id="ytick_1">
     <g id="line2d_11">
      <defs>
       <path id="m80b74fd127" d="M 0 0 
L -3.5 0 
" style="stroke: #000000; stroke-width: 0.8"/>
      </defs>
      <g>
       <use xlink:href="#m80b74fd127" x="57.6" y="252.207383" style="stroke: #000000; stroke-width: 0.8"/>
      </g>
     </g>
     <g id="text_12">
      <!-- 20 -->
      <g transform="translate(37.875 256.006602) scale(0.1 -0.1)">
       <use xlink:href="#DejaVuSans-32"/>
       <use xlink:href="#DejaVuSans-30" x="63.623047"/>
      </g>
     </g>
    </g>
    <g id="ytick_2">
     <g id="line2d_12">
      <g>
       <use xlink:href="#m80b74fd127" x="57.6" y="196.126247" style="stroke: #000000; stroke-width: 0.8"/>
      </g>
     </g>
     <g id="text_13">
      <!-- 40 -->
      <g transform="translate(37.875 199.925466) scale(0.1 -0.1)">
       <use xlink:href="#DejaVuSans-34"/>
       <use xlink:href="#DejaVuSans-30" x="63.623047"/>
      </g>
     </g>
    </g>
    <g id="ytick_3">
     <g id="line2d_13">
      <g>
       <use xlink:href="#m80b74fd127" x="57.6" y="140.045112" style="stroke: #000000; stroke-width: 0.8"/>
      </g>
     </g>
     <g id="text_14">
      <!-- 60 -->
      <g transform="translate(37.875 143.84433) scale(0.1 -0.1)">
       <use xlink:href="#DejaVuSans-36"/>
       <use xlink:href="#DejaVuSans-30" x="63.623047"/>
      </g>
     </g>
    </g>
    <g id="ytick_4">
     <g id="line2d_14">
      <g>
       <use xlink:href="#m80b74fd127" x="57.6" y="83.963976" style="stroke: #000000; stroke-width: 0.8"/>
      </g>
     </g>
     <g id="text_15">
      <!-- 80 -->
      <g transform="translate(37.875 87.763194) scale(0.1 -0.1)">
       <use xlink:href="#DejaVuSans-38"/>
       <use xlink:href="#DejaVuSans-30" x="63.623047"/>
      </g>
     </g>
    </g>
    <g id="text_16">
     <!-- Accuracy -->
     <g transform="translate(31.795312 197.356125) rotate(-90) scale(0.1 -0.1)">
      <defs>
       <path id="DejaVuSans-41" d="M 2188 4044 
L 1331 1722 
L 3047 1722 
L 2188 4044 
z
M 1831 4666 
L 2547 4666 
L 4325 0 
L 3669 0 
L 3244 1197 
L 1141 1197 
L 716 0 
L 50 0 
L 1831 4666 
z
" transform="scale(0.015625)"/>
       <path id="DejaVuSans-75" d="M 544 1381 
L 544 3500 
L 1119 3500 
L 1119 1403 
Q 1119 906 1312 657 
Q 1506 409 1894 409 
Q 2359 409 2629 706 
Q 2900 1003 2900 1516 
L 2900 3500 
L 3475 3500 
L 3475 0 
L 2900 0 
L 2900 538 
Q 2691 219 2414 64 
Q 2138 -91 1772 -91 
Q 1169 -91 856 284 
Q 544 659 544 1381 
z
M 1991 3584 
L 1991 3584 
z
" transform="scale(0.015625)"/>
       <path id="DejaVuSans-72" d="M 2631 2963 
Q 2534 3019 2420 3045 
Q 2306 3072 2169 3072 
Q 1681 3072 1420 2755 
Q 1159 2438 1159 1844 
L 1159 0 
L 581 0 
L 581 3500 
L 1159 3500 
L 1159 2956 
Q 1341 3275 1631 3429 
Q 1922 3584 2338 3584 
Q 2397 3584 2469 3576 
Q 2541 3569 2628 3553 
L 2631 2963 
z
" transform="scale(0.015625)"/>
       <path id="DejaVuSans-61" d="M 2194 1759 
Q 1497 1759 1228 1600 
Q 959 1441 959 1056 
Q 959 750 1161 570 
Q 1363 391 1709 391 
Q 2188 391 2477 730 
Q 2766 1069 2766 1631 
L 2766 1759 
L 2194 1759 
z
M 3341 1997 
L 3341 0 
L 2766 0 
L 2766 531 
Q 2569 213 2275 61 
Q 1981 -91 1556 -91 
Q 1019 -91 701 211 
Q 384 513 384 1019 
Q 384 1609 779 1909 
Q 1175 2209 1959 2209 
L 2766 2209 
L 2766 2266 
Q 2766 2663 2505 2880 
Q 2244 3097 1772 3097 
Q 1472 3097 1187 3025 
Q 903 2953 641 2809 
L 641 3341 
Q 956 3463 1253 3523 
Q 1550 3584 1831 3584 
Q 2591 3584 2966 3190 
Q 3341 2797 3341 1997 
z
" transform="scale(0.015625)"/>
       <path id="DejaVuSans-79" d="M 2059 -325 
Q 1816 -950 1584 -1140 
Q 1353 -1331 966 -1331 
L 506 -1331 
L 506 -850 
L 844 -850 
Q 1081 -850 1212 -737 
Q 1344 -625 1503 -206 
L 1606 56 
L 191 3500 
L 800 3500 
L 1894 763 
L 2988 3500 
L 3597 3500 
L 2059 -325 
z
" transform="scale(0.015625)"/>
      </defs>
      <use xlink:href="#DejaVuSans-41"/>
      <use xlink:href="#DejaVuSans-63" x="66.658203"/>
      <use xlink:href="#DejaVuSans-63" x="121.638672"/>
      <use xlink:href="#DejaVuSans-75" x="176.619141"/>
      <use xlink:href="#DejaVuSans-72" x="239.998047"/>
      <use xlink:href="#DejaVuSans-61" x="281.111328"/>
      <use xlink:href="#DejaVuSans-63" x="342.390625"/>
      <use xlink:href="#DejaVuSans-79" x="397.371094"/>
     </g>
    </g>
   </g>
   <g id="line2d_15">
    <path d="M 73.832727 295.488 
L 75.076614 277.464925 
L 76.320502 262.410785 
L 77.564389 251.03669 
L 78.808276 241.089298 
L 80.052163 232.210813 
L 81.29605 225.169266 
L 82.539937 217.209109 
L 83.783824 211.997209 
L 85.027712 205.821274 
L 86.271599 200.22017 
L 90.00326 185.667116 
L 92.491034 176.848357 
L 93.734922 173.967189 
L 94.978809 172.32317 
L 97.466583 168.555359 
L 98.71047 200.055292 
L 99.954357 199.003771 
L 101.198245 194.969574 
L 102.442132 190.037799 
L 103.686019 189.116105 
L 107.41768 180.083678 
L 111.149342 172.477393 
L 112.393229 170.342945 
L 114.881003 165.569039 
L 116.12489 162.172485 
L 117.368777 159.789036 
L 118.612665 156.785331 
L 119.856552 154.927643 
L 121.100439 151.418927 
L 122.344326 150.546304 
L 123.588213 146.270118 
L 124.8321 143.813203 
L 126.075987 140.879318 
L 127.319875 138.310242 
L 128.563762 136.718659 
L 129.807649 133.441558 
L 131.051536 129.354645 
L 132.295423 128.194607 
L 137.270972 117.826607 
L 138.514859 117.570596 
L 141.002633 111.881726 
L 142.24652 111.436722 
L 143.490408 110.753093 
L 144.734295 109.414436 
L 145.978182 109.225163 
L 147.222069 109.284609 
L 148.465956 155.495465 
L 149.709843 159.298607 
L 150.95373 158.145298 
L 152.197618 156.652138 
L 154.685392 152.673742 
L 155.929279 152.386326 
L 158.417053 149.771824 
L 159.66094 148.401201 
L 160.904828 147.374355 
L 162.148715 146.119259 
L 163.392602 144.535248 
L 164.636489 143.353899 
L 165.880376 142.621479 
L 167.124263 141.380684 
L 168.36815 138.282201 
L 169.612038 137.216659 
L 170.855925 136.900923 
L 172.099812 135.467489 
L 173.343699 134.422978 
L 174.587586 131.457688 
L 175.831473 130.658531 
L 177.075361 130.199507 
L 178.319248 129.214442 
L 179.563135 127.773998 
L 180.807022 124.983681 
L 183.294796 123.494166 
L 184.538683 121.20185 
L 185.782571 119.908338 
L 187.026458 118.261236 
L 188.270345 117.528535 
L 189.514232 115.474564 
L 190.758119 114.06889 
L 192.002006 111.576925 
L 193.245893 111.191367 
L 194.489781 109.968238 
L 195.733668 107.949036 
L 196.977555 107.339434 
L 198.221442 104.773722 
L 199.465329 103.529282 
L 200.709216 101.485966 
L 203.196991 98.702659 
L 204.440878 98.429263 
L 205.684765 96.140592 
L 206.928652 94.149712 
L 208.172539 91.766264 
L 209.416426 91.464828 
L 210.660313 88.920146 
L 211.904201 87.353239 
L 213.148088 84.735091 
L 214.391975 85.197761 
L 215.635862 82.236116 
L 216.879749 81.500051 
L 218.123636 79.312887 
L 219.367524 78.587197 
L 220.611411 76.067191 
L 221.855298 75.969049 
L 223.099185 74.661517 
L 225.586959 71.563034 
L 226.830846 71.142426 
L 228.074734 69.60356 
L 229.318621 69.754418 
L 231.806395 66.992422 
L 233.050282 67.016817 
L 234.294169 64.345953 
L 235.538056 65.246897 
L 236.781944 64.714126 
L 238.025831 64.482791 
L 239.269718 63.305087 
L 240.513605 63.575118 
L 243.001379 62.950935 
L 244.245266 62.681185 
L 245.489154 62.660154 
L 246.733041 62.905509 
L 247.976928 126.978207 
L 249.220815 133.441558 
L 250.464702 133.606156 
L 251.708589 132.905142 
L 252.952476 131.026424 
L 254.196364 129.757588 
L 255.440251 130.167822 
L 256.684138 128.194607 
L 257.928025 127.556684 
L 259.171912 127.805404 
L 260.415799 126.140635 
L 261.659687 126.37197 
L 262.903574 124.945266 
L 264.147461 123.084213 
L 266.635235 122.396939 
L 267.879122 121.524316 
L 269.123009 120.875738 
L 270.366897 120.627018 
L 272.854671 119.203959 
L 274.098558 118.061306 
L 275.342445 119.102172 
L 276.586332 116.375507 
L 277.830219 116.806491 
L 279.074107 116.26671 
L 280.317994 116.126507 
L 281.561881 115.018905 
L 282.805768 114.139272 
L 284.049655 112.232233 
L 285.293542 111.696097 
L 286.537429 112.947548 
L 287.781317 111.405036 
L 289.025204 111.244083 
L 290.269091 109.431822 
L 291.512978 109.466872 
L 292.756865 109.193477 
L 295.244639 107.784438 
L 296.488527 107.521698 
L 297.732414 106.280622 
L 298.976301 106.38942 
L 300.220188 105.91974 
L 301.464075 105.569233 
L 302.707962 104.735026 
L 303.95185 103.578353 
L 305.195737 103.087643 
L 306.439624 101.650564 
L 307.683511 101.552422 
L 308.927398 100.875803 
L 310.171285 99.684359 
L 311.415172 99.077842 
L 312.65906 99.926069 
L 313.902947 97.823026 
L 315.146834 98.538061 
L 316.390721 96.081146 
L 317.634608 97.26586 
L 318.878495 96.189663 
L 320.122382 94.079611 
L 321.36627 95.432568 
L 323.854044 93.206988 
L 325.097931 92.481298 
L 326.341818 92.435592 
L 327.585705 90.672682 
L 328.829592 92.404187 
L 330.07348 90.171597 
L 331.317367 89.477593 
L 333.805141 87.721412 
L 335.049028 86.708586 
L 337.536803 87.269258 
L 338.78069 84.997972 
L 340.024577 84.731586 
L 341.268464 84.805193 
L 342.512351 83.41368 
L 343.756238 82.362158 
L 345.000125 82.029176 
L 346.244013 80.297671 
L 347.4879 81.980105 
L 348.731787 81.387748 
L 349.975674 78.850077 
L 351.219561 78.601217 
L 352.463448 77.26929 
L 353.707335 77.819586 
L 354.951223 76.081071 
L 356.19511 75.243359 
L 357.438997 75.821696 
L 359.926771 73.445258 
L 361.170658 72.789809 
L 363.658433 72.432292 
L 364.90232 71.661176 
L 366.146207 70.427391 
L 367.390094 69.000828 
L 368.633981 68.243732 
L 369.877868 68.317339 
L 371.121755 67.532203 
L 372.365643 67.223757 
L 373.60953 66.694491 
L 376.097304 64.528357 
L 377.341191 62.095838 
L 378.585078 62.982621 
L 379.828966 62.253566 
L 381.072853 61.73131 
L 382.31674 60.539586 
L 383.560627 60.413404 
L 384.804514 59.814037 
L 386.048401 59.635278 
L 387.292288 59.113022 
L 388.536176 59.032406 
L 389.780063 57.325436 
L 391.02395 57.371002 
L 392.267837 55.762174 
L 393.511724 56.617412 
L 394.755611 54.528389 
L 395.999498 55.28198 
L 397.243386 54.903432 
L 398.487273 53.568 
L 398.487273 53.568 
" clip-path="url(#p1660fdbbb1)" style="fill: none; stroke: #1f77b4; stroke-width: 1.5; stroke-linecap: square"/>
   </g>
   <g id="line2d_16">
    <path d="M 73.832727 287.56654 
L 75.076614 262.91888 
L 76.320502 245.64589 
L 77.564389 235.369022 
L 78.808276 230.854491 
L 80.052163 219.624243 
L 81.29605 210.889606 
L 82.539937 204.566458 
L 83.783824 200.079968 
L 85.027712 196.504795 
L 86.271599 187.8683 
L 88.759373 183.129444 
L 90.00326 180.241266 
L 91.247147 177.815757 
L 92.491034 175.02572 
L 93.734922 175.123862 
L 94.978809 173.189063 
L 96.222696 171.56271 
L 97.466583 170.917777 
L 98.71047 192.424892 
L 99.954357 196.434694 
L 101.198245 188.316949 
L 102.442132 186.255968 
L 103.686019 183.648195 
L 104.929906 178.334507 
L 106.173793 182.162045 
L 107.41768 179.680454 
L 108.661567 180.171164 
L 109.905455 173.511529 
L 111.149342 174.0443 
L 112.393229 172.403927 
L 113.637116 171.969298 
L 116.12489 164.412365 
L 117.368777 164.075878 
L 118.612665 163.276722 
L 119.856552 162.337363 
L 121.100439 160.416584 
L 122.344326 159.407124 
L 123.588213 157.107797 
L 124.8321 155.916073 
L 126.075987 156.74327 
L 127.319875 153.911172 
L 128.563762 155.144957 
L 129.807649 150.952892 
L 131.051536 152.074515 
L 132.295423 150.392081 
L 133.53931 151.569785 
L 134.783197 150.742588 
L 137.270972 146.915051 
L 138.514859 148.387181 
L 139.758746 147.279578 
L 141.002633 146.802888 
L 142.24652 147.461842 
L 143.490408 146.242077 
L 144.734295 146.760828 
L 145.978182 146.129915 
L 147.222069 146.143935 
L 148.465956 167.819294 
L 149.709843 169.726053 
L 150.95373 168.996998 
L 153.441505 166.319124 
L 154.685392 167.903416 
L 155.929279 164.734832 
L 157.173166 163.402905 
L 158.417053 163.024357 
L 159.66094 165.968617 
L 160.904828 160.528746 
L 162.148715 164.14598 
L 163.392602 162.912195 
L 164.636489 162.477566 
L 165.880376 159.491245 
L 167.124263 158.397663 
L 168.36815 159.519286 
L 169.612038 157.794791 
L 170.855925 162.127059 
L 172.099812 155.551546 
L 173.343699 157.906953 
L 174.587586 156.995635 
L 175.831473 157.23398 
L 177.075361 156.056276 
L 178.319248 156.448844 
L 179.563135 154.191578 
L 180.807022 152.915732 
L 182.050909 154.345801 
L 183.294796 156.631108 
L 184.538683 155.845972 
L 185.782571 154.345801 
L 187.026458 155.859992 
L 188.270345 152.929753 
L 189.514232 150.336 
L 190.758119 152.579245 
L 192.002006 152.831611 
L 193.245893 152.523164 
L 194.489781 151.401542 
L 195.733668 153.476544 
L 196.977555 151.275359 
L 198.221442 152.284819 
L 199.465329 151.093095 
L 200.709216 152.032454 
L 201.953103 148.317079 
L 203.196991 147.37772 
L 204.440878 148.976032 
L 205.684765 151.681947 
L 206.928652 150.027554 
L 208.172539 150.392081 
L 209.416426 147.39174 
L 210.660313 148.87789 
L 211.904201 147.840389 
L 213.148088 146.284138 
L 214.391975 146.185996 
L 215.635862 145.372819 
L 216.879749 145.681266 
L 218.123636 146.228057 
L 219.367524 143.760487 
L 220.611411 146.760828 
L 221.855298 146.676706 
L 223.099185 143.536162 
L 224.343072 145.148495 
L 225.586959 142.44258 
L 226.830846 143.858629 
L 228.074734 142.905249 
L 229.318621 143.045452 
L 230.562508 143.844609 
L 231.806395 143.648325 
L 233.050282 142.793087 
L 234.294169 142.877209 
L 235.538056 141.839708 
L 236.781944 141.797647 
L 238.025831 142.232276 
L 240.513605 141.825688 
L 241.757492 141.110653 
L 243.001379 142.162174 
L 244.245266 141.475181 
L 245.489154 141.95187 
L 246.733041 141.825688 
L 247.976928 164.131959 
L 249.220815 170.048519 
L 250.464702 163.66929 
L 251.708589 161.327903 
L 254.196364 166.711692 
L 255.440251 165.029258 
L 256.684138 167.370645 
L 257.928025 162.070978 
L 259.171912 161.846653 
L 260.415799 164.244122 
L 261.659687 168.450207 
L 262.903574 162.589728 
L 264.147461 161.860673 
L 265.391348 159.379083 
L 266.635235 159.014556 
L 267.879122 166.571489 
L 269.123009 159.379083 
L 270.366897 160.612868 
L 271.610784 163.360844 
L 272.854671 154.76641 
L 274.098558 162.000876 
L 275.342445 164.272162 
L 276.586332 162.113039 
L 277.830219 160.444625 
L 279.074107 163.473006 
L 280.317994 160.69699 
L 281.561881 164.875034 
L 282.805768 162.239221 
L 284.049655 164.65071 
L 285.293542 169.347505 
L 286.537429 163.711351 
L 287.781317 161.622329 
L 289.025204 159.953915 
L 290.269091 158.986515 
L 291.512978 160.318442 
L 292.756865 157.864892 
L 294.000752 163.388884 
L 295.244639 161.496146 
L 296.488527 164.832974 
L 297.732414 158.874353 
L 298.976301 159.785671 
L 300.220188 159.995976 
L 301.464075 162.141079 
L 302.707962 157.75273 
L 303.95185 159.533306 
L 305.195737 158.874353 
L 306.439624 159.056617 
L 307.683511 156.504925 
L 308.927398 164.762872 
L 310.171285 160.809152 
L 311.415172 161.70645 
L 312.65906 158.565907 
L 313.902947 161.159659 
L 315.146834 162.617769 
L 316.390721 158.551886 
L 317.634608 157.920974 
L 318.878495 158.159318 
L 320.122382 160.977396 
L 321.36627 157.542426 
L 322.610157 158.201379 
L 323.854044 157.906953 
L 325.097931 158.453744 
L 326.341818 160.472665 
L 327.585705 157.75273 
L 328.829592 157.149858 
L 330.07348 157.093777 
L 332.561254 160.20628 
L 333.805141 160.963375 
L 335.049028 160.178239 
L 336.292915 161.398004 
L 337.536803 157.388203 
L 338.78069 161.454085 
L 340.024577 156.589047 
L 341.268464 156.392763 
L 342.512351 160.668949 
L 343.756238 154.976714 
L 345.000125 158.495805 
L 346.244013 153.252219 
L 347.4879 153.602726 
L 348.731787 156.042256 
L 349.975674 156.196479 
L 351.219561 154.864552 
L 352.463448 158.523846 
L 353.707335 156.687189 
L 354.951223 156.617087 
L 356.19511 155.944114 
L 357.438997 156.350702 
L 358.682884 156.631108 
L 359.926771 154.429923 
L 361.170658 153.588706 
L 362.414545 156.631108 
L 363.658433 154.345801 
L 364.90232 153.041915 
L 367.390094 154.626207 
L 368.633981 153.81303 
L 369.877868 153.546645 
L 371.121755 152.985834 
L 373.60953 152.943773 
L 374.853417 152.018434 
L 376.097304 152.018434 
L 377.341191 152.242759 
L 378.585078 153.350361 
L 379.828966 151.415562 
L 381.072853 153.126037 
L 382.31674 154.415903 
L 383.560627 151.513704 
L 384.804514 150.279919 
L 386.048401 149.873331 
L 387.292288 149.691067 
L 388.536176 148.807789 
L 389.780063 148.148836 
L 391.02395 149.480763 
L 392.267837 149.018093 
L 393.511724 150.504243 
L 394.755611 147.798329 
L 395.999498 150.82671 
L 397.243386 146.620625 
L 398.487273 147.209477 
L 398.487273 147.209477 
" clip-path="url(#p1660fdbbb1)" style="fill: none; stroke: #ff7f0e; stroke-width: 1.5; stroke-linecap: square"/>
   </g>
   <g id="line2d_17">
    <path d="M 73.832727 294.771003 
L 75.076614 283.864343 
L 76.320502 274.349898 
L 77.564389 272.454636 
L 78.808276 268.838244 
L 80.052163 267.465378 
L 81.29605 262.127856 
L 82.539937 259.420539 
L 83.783824 257.003162 
L 85.027712 256.73257 
L 86.271599 252.516671 
L 87.515486 251.201849 
L 88.759373 248.049528 
L 90.00326 248.262356 
L 92.491034 247.720892 
L 93.734922 245.574387 
L 94.978809 245.883674 
L 96.222696 245.438951 
L 97.466583 244.356024 
L 98.71047 254.624761 
L 99.954357 260.348682 
L 101.198245 257.428818 
L 102.442132 252.961675 
L 103.686019 250.872933 
L 104.929906 247.759588 
L 106.173793 254.721501 
L 107.41768 250.447557 
L 108.661567 249.055343 
L 109.905455 247.063341 
L 111.149342 250.254077 
L 112.393229 246.521878 
L 113.637116 244.839444 
L 114.881003 243.756517 
L 116.12489 239.115242 
L 117.368777 242.016039 
L 118.612665 237.142869 
L 119.856552 239.676054 
L 121.100439 235.672982 
L 122.344326 235.576523 
L 123.588213 240.217517 
L 124.8321 233.990548 
L 126.075987 237.954923 
L 127.319875 231.573451 
L 128.563762 236.524013 
L 129.807649 230.180956 
L 131.051536 232.05687 
L 132.295423 231.148076 
L 133.53931 230.81916 
L 134.783197 230.877204 
L 136.027085 229.813625 
L 137.270972 227.840971 
L 138.514859 229.813625 
L 139.758746 228.382434 
L 141.002633 228.672654 
L 142.24652 229.697537 
L 143.490408 227.241744 
L 144.734295 228.42113 
L 145.978182 228.344019 
L 147.222069 227.66712 
L 148.465956 241.841907 
L 149.709843 246.966601 
L 150.95373 242.422066 
L 152.197618 241.33914 
L 153.441505 243.891953 
L 154.685392 246.966601 
L 155.929279 241.126592 
L 157.173166 239.71475 
L 158.417053 237.336349 
L 159.66094 237.839116 
L 160.904828 236.07929 
L 162.148715 240.604477 
L 163.392602 243.002226 
L 164.636489 237.858464 
L 165.880376 231.302579 
L 167.124263 232.501594 
L 169.612038 240.352953 
L 170.855925 233.642565 
L 172.099812 233.294581 
L 173.343699 232.772466 
L 174.587586 232.926969 
L 175.831473 234.377508 
L 177.075361 234.977015 
L 178.319248 228.633958 
L 179.563135 229.968409 
L 180.807022 228.324671 
L 182.050909 233.449085 
L 183.294796 231.128728 
L 184.538683 231.302579 
L 185.782571 233.758652 
L 187.026458 229.368902 
L 188.270345 230.703072 
L 189.514232 227.512336 
L 190.758119 225.211046 
L 192.002006 233.178493 
L 193.245893 225.17235 
L 194.489781 221.556239 
L 195.733668 231.090032 
L 196.977555 226.332669 
L 198.221442 228.595262 
L 199.465329 225.675118 
L 200.709216 225.36583 
L 201.953103 222.832365 
L 203.196991 225.230394 
L 204.440878 224.940455 
L 205.684765 222.059006 
L 206.928652 226.719348 
L 208.172539 222.967801 
L 209.416426 225.056262 
L 210.660313 222.561773 
L 211.904201 224.979151 
L 213.148088 221.536891 
L 214.391975 223.122585 
L 215.635862 221.82683 
L 216.879749 221.420803 
L 218.123636 220.608467 
L 219.367524 216.218716 
L 220.611411 222.039658 
L 221.855298 219.719021 
L 223.099185 219.371037 
L 224.343072 220.840643 
L 225.586959 219.003425 
L 226.830846 220.279832 
L 228.074734 217.340339 
L 229.318621 218.539354 
L 230.562508 219.970264 
L 231.806395 219.486845 
L 233.050282 217.746367 
L 234.294169 217.0504 
L 235.538056 217.901151 
L 236.781944 217.127792 
L 238.025831 218.19137 
L 239.269718 217.669255 
L 240.513605 217.417731 
L 241.757492 216.431544 
L 243.001379 217.862455 
L 244.245266 217.514471 
L 245.489154 217.456427 
L 246.733041 217.553167 
L 247.976928 233.217189 
L 249.220815 237.723028 
L 250.464702 236.524013 
L 251.708589 229.09803 
L 252.952476 232.25035 
L 254.196364 237.781072 
L 255.440251 239.772794 
L 256.684138 240.681869 
L 257.928025 231.882738 
L 259.171912 236.369229 
L 260.415799 235.073755 
L 261.659687 245.574387 
L 262.903574 234.996363 
L 264.147461 233.603869 
L 265.391348 234.938319 
L 266.635235 230.993292 
L 267.879122 231.360623 
L 269.123009 234.977015 
L 270.366897 234.26142 
L 271.610784 234.493596 
L 272.854671 223.35448 
L 274.098558 234.628751 
L 275.342445 240.681869 
L 276.586332 229.678189 
L 277.830219 229.716885 
L 279.074107 229.368902 
L 280.317994 232.25035 
L 281.561881 231.302579 
L 282.805768 230.548568 
L 284.049655 228.401782 
L 285.293542 240.662521 
L 286.537429 237.568244 
L 287.781317 239.366766 
L 289.025204 234.106636 
L 290.269091 233.333277 
L 291.512978 231.689539 
L 292.756865 228.305323 
L 294.000752 231.612147 
L 295.244639 230.587264 
L 296.488527 233.236537 
L 297.732414 229.426946 
L 298.976301 232.05687 
L 300.220188 226.004033 
L 301.464075 227.145004 
L 302.707962 228.459826 
L 303.95185 229.600797 
L 305.195737 229.755581 
L 306.439624 231.534755 
L 307.683511 225.36583 
L 308.927398 234.4549 
L 310.171285 234.16468 
L 311.415172 236.098638 
L 312.65906 225.713814 
L 313.902947 237.80042 
L 315.146834 232.811162 
L 316.390721 230.277696 
L 317.634608 225.443222 
L 318.878495 232.482246 
L 320.122382 234.009896 
L 321.36627 230.161608 
L 322.610157 228.846786 
L 323.854044 229.736233 
L 325.097931 228.169887 
L 326.341818 228.131191 
L 327.585705 227.415596 
L 328.829592 226.835436 
L 330.07348 225.636422 
L 331.317367 226.023381 
L 332.561254 230.567916 
L 333.805141 228.730698 
L 335.049028 229.48499 
L 336.292915 230.548568 
L 337.536803 228.595291 
L 338.78069 230.625815 
L 340.024577 225.327115 
L 341.268464 228.38257 
L 342.512351 232.076189 
L 343.756238 223.586666 
L 345.000125 229.910297 
L 346.244013 222.755118 
L 347.4879 226.796827 
L 348.731787 222.368351 
L 349.975674 225.15307 
L 351.219561 220.453857 
L 352.463448 222.407028 
L 353.707335 224.630935 
L 354.951223 230.722507 
L 356.19511 225.694543 
L 357.438997 224.302184 
L 358.682884 224.45689 
L 359.926771 224.940348 
L 361.170658 223.489974 
L 362.414545 223.083869 
L 363.658433 226.661459 
L 364.90232 223.451297 
L 366.146207 224.708288 
L 367.390094 224.360199 
L 368.633981 224.727627 
L 369.877868 221.440112 
L 371.121755 227.647714 
L 372.365643 222.116953 
L 373.60953 223.180561 
L 374.853417 222.851809 
L 376.097304 222.058938 
L 377.341191 222.73578 
L 378.585078 221.904232 
L 379.828966 219.660986 
L 381.072853 221.69151 
L 382.31674 228.131172 
L 383.560627 222.407028 
L 384.804514 221.478789 
L 386.048401 221.594818 
L 387.292288 220.376504 
L 388.536176 218.8101 
L 389.780063 219.525618 
L 391.02395 220.376504 
L 392.267837 219.719001 
L 393.511724 218.133259 
L 394.755611 219.970399 
L 395.999498 219.777016 
L 397.243386 217.553109 
L 398.487273 219.022822 
L 398.487273 219.022822 
" clip-path="url(#p1660fdbbb1)" style="fill: none; stroke: #2ca02c; stroke-width: 1.5; stroke-linecap: square"/>
   </g>
   <g id="line2d_18">
    <path d="M 0 0 
" clip-path="url(#p1660fdbbb1)" style="fill: none; stroke: #d62728; stroke-width: 1.5; stroke-linecap: square"/>
   </g>
   <g id="line2d_19">
    <path d="M 0 0 
" clip-path="url(#p1660fdbbb1)" style="fill: none; stroke: #9467bd; stroke-width: 1.5; stroke-linecap: square"/>
   </g>
   <g id="patch_3">
    <path d="M 57.6 307.584 
L 57.6 41.472 
" style="fill: none; stroke: #000000; stroke-width: 0.8; stroke-linejoin: miter; stroke-linecap: square"/>
   </g>
   <g id="patch_4">
    <path d="M 414.72 307.584 
L 414.72 41.472 
" style="fill: none; stroke: #000000; stroke-width: 0.8; stroke-linejoin: miter; stroke-linecap: square"/>
   </g>
   <g id="patch_5">
    <path d="M 57.6 307.584 
L 414.72 307.584 
" style="fill: none; stroke: #000000; stroke-width: 0.8; stroke-linejoin: miter; stroke-linecap: square"/>
   </g>
   <g id="patch_6">
    <path d="M 57.6 41.472 
L 414.72 41.472 
" style="fill: none; stroke: #000000; stroke-width: 0.8; stroke-linejoin: miter; stroke-linecap: square"/>
   </g>
   <g id="text_17">
    <!-- Learning Curves -->
    <g transform="translate(187.37625 35.472) scale(0.12 -0.12)">
     <defs>
      <path id="DejaVuSans-4c" d="M 628 4666 
L 1259 4666 
L 1259 531 
L 3531 531 
L 3531 0 
L 628 0 
L 628 4666 
z
" transform="scale(0.015625)"/>
      <path id="DejaVuSans-65" d="M 3597 1894 
L 3597 1613 
L 953 1613 
Q 991 1019 1311 708 
Q 1631 397 2203 397 
Q 2534 397 2845 478 
Q 3156 559 3463 722 
L 3463 178 
Q 3153 47 2828 -22 
Q 2503 -91 2169 -91 
Q 1331 -91 842 396 
Q 353 884 353 1716 
Q 353 2575 817 3079 
Q 1281 3584 2069 3584 
Q 2775 3584 3186 3129 
Q 3597 2675 3597 1894 
z
M 3022 2063 
Q 3016 2534 2758 2815 
Q 2500 3097 2075 3097 
Q 1594 3097 1305 2825 
Q 1016 2553 972 2059 
L 3022 2063 
z
" transform="scale(0.015625)"/>
      <path id="DejaVuSans-6e" d="M 3513 2113 
L 3513 0 
L 2938 0 
L 2938 2094 
Q 2938 2591 2744 2837 
Q 2550 3084 2163 3084 
Q 1697 3084 1428 2787 
Q 1159 2491 1159 1978 
L 1159 0 
L 581 0 
L 581 3500 
L 1159 3500 
L 1159 2956 
Q 1366 3272 1645 3428 
Q 1925 3584 2291 3584 
Q 2894 3584 3203 3211 
Q 3513 2838 3513 2113 
z
" transform="scale(0.015625)"/>
      <path id="DejaVuSans-69" d="M 603 3500 
L 1178 3500 
L 1178 0 
L 603 0 
L 603 3500 
z
M 603 4863 
L 1178 4863 
L 1178 4134 
L 603 4134 
L 603 4863 
z
" transform="scale(0.015625)"/>
      <path id="DejaVuSans-67" d="M 2906 1791 
Q 2906 2416 2648 2759 
Q 2391 3103 1925 3103 
Q 1463 3103 1205 2759 
Q 947 2416 947 1791 
Q 947 1169 1205 825 
Q 1463 481 1925 481 
Q 2391 481 2648 825 
Q 2906 1169 2906 1791 
z
M 3481 434 
Q 3481 -459 3084 -895 
Q 2688 -1331 1869 -1331 
Q 1566 -1331 1297 -1286 
Q 1028 -1241 775 -1147 
L 775 -588 
Q 1028 -725 1275 -790 
Q 1522 -856 1778 -856 
Q 2344 -856 2625 -561 
Q 2906 -266 2906 331 
L 2906 616 
Q 2728 306 2450 153 
Q 2172 0 1784 0 
Q 1141 0 747 490 
Q 353 981 353 1791 
Q 353 2603 747 3093 
Q 1141 3584 1784 3584 
Q 2172 3584 2450 3431 
Q 2728 3278 2906 2969 
L 2906 3500 
L 3481 3500 
L 3481 434 
z
" transform="scale(0.015625)"/>
      <path id="DejaVuSans-20" transform="scale(0.015625)"/>
      <path id="DejaVuSans-43" d="M 4122 4306 
L 4122 3641 
Q 3803 3938 3442 4084 
Q 3081 4231 2675 4231 
Q 1875 4231 1450 3742 
Q 1025 3253 1025 2328 
Q 1025 1406 1450 917 
Q 1875 428 2675 428 
Q 3081 428 3442 575 
Q 3803 722 4122 1019 
L 4122 359 
Q 3791 134 3420 21 
Q 3050 -91 2638 -91 
Q 1578 -91 968 557 
Q 359 1206 359 2328 
Q 359 3453 968 4101 
Q 1578 4750 2638 4750 
Q 3056 4750 3426 4639 
Q 3797 4528 4122 4306 
z
" transform="scale(0.015625)"/>
      <path id="DejaVuSans-76" d="M 191 3500 
L 800 3500 
L 1894 563 
L 2988 3500 
L 3597 3500 
L 2284 0 
L 1503 0 
L 191 3500 
z
" transform="scale(0.015625)"/>
     </defs>
     <use xlink:href="#DejaVuSans-4c"/>
     <use xlink:href="#DejaVuSans-65" x="53.962891"/>
     <use xlink:href="#DejaVuSans-61" x="115.486328"/>
     <use xlink:href="#DejaVuSans-72" x="176.765625"/>
     <use xlink:href="#DejaVuSans-6e" x="216.128906"/>
     <use xlink:href="#DejaVuSans-69" x="279.507812"/>
     <use xlink:href="#DejaVuSans-6e" x="307.291016"/>
     <use xlink:href="#DejaVuSans-67" x="370.669922"/>
     <use xlink:href="#DejaVuSans-20" x="434.146484"/>
     <use xlink:href="#DejaVuSans-43" x="465.933594"/>
     <use xlink:href="#DejaVuSans-75" x="535.757812"/>
     <use xlink:href="#DejaVuSans-72" x="599.136719"/>
     <use xlink:href="#DejaVuSans-76" x="640.25"/>
     <use xlink:href="#DejaVuSans-65" x="699.429688"/>
     <use xlink:href="#DejaVuSans-73" x="760.953125"/>
    </g>
   </g>
   <g id="legend_1">
    <g id="patch_7">
     <path d="M 64.6 122.862625 
L 258.13125 122.862625 
Q 260.13125 122.862625 260.13125 120.862625 
L 260.13125 48.472 
Q 260.13125 46.472 258.13125 46.472 
L 64.6 46.472 
Q 62.6 46.472 62.6 48.472 
L 62.6 120.862625 
Q 62.6 122.862625 64.6 122.862625 
z
" style="fill: #ffffff; opacity: 0.8; stroke: #cccccc; stroke-linejoin: miter"/>
    </g>
    <g id="line2d_20">
     <path d="M 66.6 54.570438 
L 76.6 54.570438 
L 86.6 54.570438 
" style="fill: none; stroke: #1f77b4; stroke-width: 1.5; stroke-linecap: square"/>
    </g>
    <g id="text_18">
     <!-- Train Accuracy -->
     <g transform="translate(94.6 58.070438) scale(0.1 -0.1)">
      <defs>
       <path id="DejaVuSans-54" d="M -19 4666 
L 3928 4666 
L 3928 4134 
L 2272 4134 
L 2272 0 
L 1638 0 
L 1638 4134 
L -19 4134 
L -19 4666 
z
" transform="scale(0.015625)"/>
      </defs>
      <use xlink:href="#DejaVuSans-54"/>
      <use xlink:href="#DejaVuSans-72" x="46.333984"/>
      <use xlink:href="#DejaVuSans-61" x="87.447266"/>
      <use xlink:href="#DejaVuSans-69" x="148.726562"/>
      <use xlink:href="#DejaVuSans-6e" x="176.509766"/>
      <use xlink:href="#DejaVuSans-20" x="239.888672"/>
      <use xlink:href="#DejaVuSans-41" x="271.675781"/>
      <use xlink:href="#DejaVuSans-63" x="338.333984"/>
      <use xlink:href="#DejaVuSans-63" x="393.314453"/>
      <use xlink:href="#DejaVuSans-75" x="448.294922"/>
      <use xlink:href="#DejaVuSans-72" x="511.673828"/>
      <use xlink:href="#DejaVuSans-61" x="552.787109"/>
      <use xlink:href="#DejaVuSans-63" x="614.066406"/>
      <use xlink:href="#DejaVuSans-79" x="669.046875"/>
     </g>
    </g>
    <g id="line2d_21">
     <path d="M 66.6 69.248563 
L 76.6 69.248563 
L 86.6 69.248563 
" style="fill: none; stroke: #ff7f0e; stroke-width: 1.5; stroke-linecap: square"/>
    </g>
    <g id="text_19">
     <!-- Validation Accuracy -->
     <g transform="translate(94.6 72.748563) scale(0.1 -0.1)">
      <defs>
       <path id="DejaVuSans-56" d="M 1831 0 
L 50 4666 
L 709 4666 
L 2188 738 
L 3669 4666 
L 4325 4666 
L 2547 0 
L 1831 0 
z
" transform="scale(0.015625)"/>
       <path id="DejaVuSans-6c" d="M 603 4863 
L 1178 4863 
L 1178 0 
L 603 0 
L 603 4863 
z
" transform="scale(0.015625)"/>
       <path id="DejaVuSans-64" d="M 2906 2969 
L 2906 4863 
L 3481 4863 
L 3481 0 
L 2906 0 
L 2906 525 
Q 2725 213 2448 61 
Q 2172 -91 1784 -91 
Q 1150 -91 751 415 
Q 353 922 353 1747 
Q 353 2572 751 3078 
Q 1150 3584 1784 3584 
Q 2172 3584 2448 3432 
Q 2725 3281 2906 2969 
z
M 947 1747 
Q 947 1113 1208 752 
Q 1469 391 1925 391 
Q 2381 391 2643 752 
Q 2906 1113 2906 1747 
Q 2906 2381 2643 2742 
Q 2381 3103 1925 3103 
Q 1469 3103 1208 2742 
Q 947 2381 947 1747 
z
" transform="scale(0.015625)"/>
       <path id="DejaVuSans-74" d="M 1172 4494 
L 1172 3500 
L 2356 3500 
L 2356 3053 
L 1172 3053 
L 1172 1153 
Q 1172 725 1289 603 
Q 1406 481 1766 481 
L 2356 481 
L 2356 0 
L 1766 0 
Q 1100 0 847 248 
Q 594 497 594 1153 
L 594 3053 
L 172 3053 
L 172 3500 
L 594 3500 
L 594 4494 
L 1172 4494 
z
" transform="scale(0.015625)"/>
      </defs>
      <use xlink:href="#DejaVuSans-56"/>
      <use xlink:href="#DejaVuSans-61" x="60.658203"/>
      <use xlink:href="#DejaVuSans-6c" x="121.9375"/>
      <use xlink:href="#DejaVuSans-69" x="149.720703"/>
      <use xlink:href="#DejaVuSans-64" x="177.503906"/>
      <use xlink:href="#DejaVuSans-61" x="240.980469"/>
      <use xlink:href="#DejaVuSans-74" x="302.259766"/>
      <use xlink:href="#DejaVuSans-69" x="341.46875"/>
      <use xlink:href="#DejaVuSans-6f" x="369.251953"/>
      <use xlink:href="#DejaVuSans-6e" x="430.433594"/>
      <use xlink:href="#DejaVuSans-20" x="493.8125"/>
      <use xlink:href="#DejaVuSans-41" x="525.599609"/>
      <use xlink:href="#DejaVuSans-63" x="592.257812"/>
      <use xlink:href="#DejaVuSans-63" x="647.238281"/>
      <use xlink:href="#DejaVuSans-75" x="702.21875"/>
      <use xlink:href="#DejaVuSans-72" x="765.597656"/>
      <use xlink:href="#DejaVuSans-61" x="806.710938"/>
      <use xlink:href="#DejaVuSans-63" x="867.990234"/>
      <use xlink:href="#DejaVuSans-79" x="922.970703"/>
     </g>
    </g>
    <g id="line2d_22">
     <path d="M 66.6 83.926688 
L 76.6 83.926688 
L 86.6 83.926688 
" style="fill: none; stroke: #2ca02c; stroke-width: 1.5; stroke-linecap: square"/>
    </g>
    <g id="text_20">
     <!-- Robust Validation Accuracy -->
     <g transform="translate(94.6 87.426688) scale(0.1 -0.1)">
      <defs>
       <path id="DejaVuSans-52" d="M 2841 2188 
Q 3044 2119 3236 1894 
Q 3428 1669 3622 1275 
L 4263 0 
L 3584 0 
L 2988 1197 
Q 2756 1666 2539 1819 
Q 2322 1972 1947 1972 
L 1259 1972 
L 1259 0 
L 628 0 
L 628 4666 
L 2053 4666 
Q 2853 4666 3247 4331 
Q 3641 3997 3641 3322 
Q 3641 2881 3436 2590 
Q 3231 2300 2841 2188 
z
M 1259 4147 
L 1259 2491 
L 2053 2491 
Q 2509 2491 2742 2702 
Q 2975 2913 2975 3322 
Q 2975 3731 2742 3939 
Q 2509 4147 2053 4147 
L 1259 4147 
z
" transform="scale(0.015625)"/>
       <path id="DejaVuSans-62" d="M 3116 1747 
Q 3116 2381 2855 2742 
Q 2594 3103 2138 3103 
Q 1681 3103 1420 2742 
Q 1159 2381 1159 1747 
Q 1159 1113 1420 752 
Q 1681 391 2138 391 
Q 2594 391 2855 752 
Q 3116 1113 3116 1747 
z
M 1159 2969 
Q 1341 3281 1617 3432 
Q 1894 3584 2278 3584 
Q 2916 3584 3314 3078 
Q 3713 2572 3713 1747 
Q 3713 922 3314 415 
Q 2916 -91 2278 -91 
Q 1894 -91 1617 61 
Q 1341 213 1159 525 
L 1159 0 
L 581 0 
L 581 4863 
L 1159 4863 
L 1159 2969 
z
" transform="scale(0.015625)"/>
      </defs>
      <use xlink:href="#DejaVuSans-52"/>
      <use xlink:href="#DejaVuSans-6f" x="64.982422"/>
      <use xlink:href="#DejaVuSans-62" x="126.164062"/>
      <use xlink:href="#DejaVuSans-75" x="189.640625"/>
      <use xlink:href="#DejaVuSans-73" x="253.019531"/>
      <use xlink:href="#DejaVuSans-74" x="305.119141"/>
      <use xlink:href="#DejaVuSans-20" x="344.328125"/>
      <use xlink:href="#DejaVuSans-56" x="376.115234"/>
      <use xlink:href="#DejaVuSans-61" x="436.773438"/>
      <use xlink:href="#DejaVuSans-6c" x="498.052734"/>
      <use xlink:href="#DejaVuSans-69" x="525.835938"/>
      <use xlink:href="#DejaVuSans-64" x="553.619141"/>
      <use xlink:href="#DejaVuSans-61" x="617.095703"/>
      <use xlink:href="#DejaVuSans-74" x="678.375"/>
      <use xlink:href="#DejaVuSans-69" x="717.583984"/>
      <use xlink:href="#DejaVuSans-6f" x="745.367188"/>
      <use xlink:href="#DejaVuSans-6e" x="806.548828"/>
      <use xlink:href="#DejaVuSans-20" x="869.927734"/>
      <use xlink:href="#DejaVuSans-41" x="901.714844"/>
      <use xlink:href="#DejaVuSans-63" x="968.373047"/>
      <use xlink:href="#DejaVuSans-63" x="1023.353516"/>
      <use xlink:href="#DejaVuSans-75" x="1078.333984"/>
      <use xlink:href="#DejaVuSans-72" x="1141.712891"/>
      <use xlink:href="#DejaVuSans-61" x="1182.826172"/>
      <use xlink:href="#DejaVuSans-63" x="1244.105469"/>
      <use xlink:href="#DejaVuSans-79" x="1299.085938"/>
     </g>
    </g>
    <g id="line2d_23">
     <path d="M 66.6 98.604813 
L 76.6 98.604813 
L 86.6 98.604813 
" style="fill: none; stroke: #d62728; stroke-width: 1.5; stroke-linecap: square"/>
    </g>
    <g id="text_21">
     <!-- SWA Validation Accuracy -->
     <g transform="translate(94.6 102.104813) scale(0.1 -0.1)">
      <defs>
       <path id="DejaVuSans-53" d="M 3425 4513 
L 3425 3897 
Q 3066 4069 2747 4153 
Q 2428 4238 2131 4238 
Q 1616 4238 1336 4038 
Q 1056 3838 1056 3469 
Q 1056 3159 1242 3001 
Q 1428 2844 1947 2747 
L 2328 2669 
Q 3034 2534 3370 2195 
Q 3706 1856 3706 1288 
Q 3706 609 3251 259 
Q 2797 -91 1919 -91 
Q 1588 -91 1214 -16 
Q 841 59 441 206 
L 441 856 
Q 825 641 1194 531 
Q 1563 422 1919 422 
Q 2459 422 2753 634 
Q 3047 847 3047 1241 
Q 3047 1584 2836 1778 
Q 2625 1972 2144 2069 
L 1759 2144 
Q 1053 2284 737 2584 
Q 422 2884 422 3419 
Q 422 4038 858 4394 
Q 1294 4750 2059 4750 
Q 2388 4750 2728 4690 
Q 3069 4631 3425 4513 
z
" transform="scale(0.015625)"/>
       <path id="DejaVuSans-57" d="M 213 4666 
L 850 4666 
L 1831 722 
L 2809 4666 
L 3519 4666 
L 4500 722 
L 5478 4666 
L 6119 4666 
L 4947 0 
L 4153 0 
L 3169 4050 
L 2175 0 
L 1381 0 
L 213 4666 
z
" transform="scale(0.015625)"/>
      </defs>
      <use xlink:href="#DejaVuSans-53"/>
      <use xlink:href="#DejaVuSans-57" x="63.476562"/>
      <use xlink:href="#DejaVuSans-41" x="156.853516"/>
      <use xlink:href="#DejaVuSans-20" x="225.261719"/>
      <use xlink:href="#DejaVuSans-56" x="257.048828"/>
      <use xlink:href="#DejaVuSans-61" x="317.707031"/>
      <use xlink:href="#DejaVuSans-6c" x="378.986328"/>
      <use xlink:href="#DejaVuSans-69" x="406.769531"/>
      <use xlink:href="#DejaVuSans-64" x="434.552734"/>
      <use xlink:href="#DejaVuSans-61" x="498.029297"/>
      <use xlink:href="#DejaVuSans-74" x="559.308594"/>
      <use xlink:href="#DejaVuSans-69" x="598.517578"/>
      <use xlink:href="#DejaVuSans-6f" x="626.300781"/>
      <use xlink:href="#DejaVuSans-6e" x="687.482422"/>
      <use xlink:href="#DejaVuSans-20" x="750.861328"/>
      <use xlink:href="#DejaVuSans-41" x="782.648438"/>
      <use xlink:href="#DejaVuSans-63" x="849.306641"/>
      <use xlink:href="#DejaVuSans-63" x="904.287109"/>
      <use xlink:href="#DejaVuSans-75" x="959.267578"/>
      <use xlink:href="#DejaVuSans-72" x="1022.646484"/>
      <use xlink:href="#DejaVuSans-61" x="1063.759766"/>
      <use xlink:href="#DejaVuSans-63" x="1125.039062"/>
      <use xlink:href="#DejaVuSans-79" x="1180.019531"/>
     </g>
    </g>
    <g id="line2d_24">
     <path d="M 66.6 113.282938 
L 76.6 113.282938 
L 86.6 113.282938 
" style="fill: none; stroke: #9467bd; stroke-width: 1.5; stroke-linecap: square"/>
    </g>
    <g id="text_22">
     <!-- SWA Robust Validation Accuracy -->
     <g transform="translate(94.6 116.782938) scale(0.1 -0.1)">
      <use xlink:href="#DejaVuSans-53"/>
      <use xlink:href="#DejaVuSans-57" x="63.476562"/>
      <use xlink:href="#DejaVuSans-41" x="156.853516"/>
      <use xlink:href="#DejaVuSans-20" x="225.261719"/>
      <use xlink:href="#DejaVuSans-52" x="257.048828"/>
      <use xlink:href="#DejaVuSans-6f" x="322.03125"/>
      <use xlink:href="#DejaVuSans-62" x="383.212891"/>
      <use xlink:href="#DejaVuSans-75" x="446.689453"/>
      <use xlink:href="#DejaVuSans-73" x="510.068359"/>
      <use xlink:href="#DejaVuSans-74" x="562.167969"/>
      <use xlink:href="#DejaVuSans-20" x="601.376953"/>
      <use xlink:href="#DejaVuSans-56" x="633.164062"/>
      <use xlink:href="#DejaVuSans-61" x="693.822266"/>
      <use xlink:href="#DejaVuSans-6c" x="755.101562"/>
      <use xlink:href="#DejaVuSans-69" x="782.884766"/>
      <use xlink:href="#DejaVuSans-64" x="810.667969"/>
      <use xlink:href="#DejaVuSans-61" x="874.144531"/>
      <use xlink:href="#DejaVuSans-74" x="935.423828"/>
      <use xlink:href="#DejaVuSans-69" x="974.632812"/>
      <use xlink:href="#DejaVuSans-6f" x="1002.416016"/>
      <use xlink:href="#DejaVuSans-6e" x="1063.597656"/>
      <use xlink:href="#DejaVuSans-20" x="1126.976562"/>
      <use xlink:href="#DejaVuSans-41" x="1158.763672"/>
      <use xlink:href="#DejaVuSans-63" x="1225.421875"/>
      <use xlink:href="#DejaVuSans-63" x="1280.402344"/>
      <use xlink:href="#DejaVuSans-75" x="1335.382812"/>
      <use xlink:href="#DejaVuSans-72" x="1398.761719"/>
      <use xlink:href="#DejaVuSans-61" x="1439.875"/>
      <use xlink:href="#DejaVuSans-63" x="1501.154297"/>
      <use xlink:href="#DejaVuSans-79" x="1556.134766"/>
     </g>
    </g>
   </g>
  </g>
 </g>
 <defs>
  <clipPath id="p1660fdbbb1">
   <rect x="57.6" y="41.472" width="357.12" height="266.112"/>
  </clipPath>
 </defs>
</svg>
