<?xml version="1.0" encoding="utf-8" standalone="no"?>
<!DOCTYPE svg PUBLIC "-//W3C//DTD SVG 1.1//EN"
  "http://www.w3.org/Graphics/SVG/1.1/DTD/svg11.dtd">
<svg xmlns:xlink="http://www.w3.org/1999/xlink" width="460.8pt" height="345.6pt" viewBox="0 0 460.8 345.6" xmlns="http://www.w3.org/2000/svg" version="1.1">
 <metadata>
  <rdf:RDF xmlns:dc="http://purl.org/dc/elements/1.1/" xmlns:cc="http://creativecommons.org/ns#" xmlns:rdf="http://www.w3.org/1999/02/22-rdf-syntax-ns#">
   <cc:Work>
    <dc:type rdf:resource="http://purl.org/dc/dcmitype/StillImage"/>
    <dc:date>2025-05-03T01:13:43.812302</dc:date>
    <dc:format>image/svg+xml</dc:format>
    <dc:creator>
     <cc:Agent>
      <dc:title>Matplotlib v3.9.1, https://matplotlib.org/</dc:title>
     </cc:Agent>
    </dc:creator>
   </cc:Work>
  </rdf:RDF>
 </metadata>
 <defs>
  <style type="text/css">*{stroke-linejoin: round; stroke-linecap: butt}</style>
 </defs>
 <g id="figure_1">
  <g id="patch_1">
   <path d="M 0 345.6 
L 460.8 345.6 
L 460.8 0 
L 0 0 
z
" style="fill: #ffffff"/>
  </g>
  <g id="axes_1">
   <g id="patch_2">
    <path d="M 57.6 307.584 
L 414.72 307.584 
L 414.72 41.472 
L 57.6 41.472 
z
" style="fill: #ffffff"/>
   </g>
   <g id="matplotlib.axis_1">
    <g id="xtick_1">
     <g id="line2d_1">
      <defs>
       <path id="m8255405c5f" d="M 0 0 
L 0 3.5 
" style="stroke: #000000; stroke-width: 0.8"/>
      </defs>
      <g>
       <use xlink:href="#m8255405c5f" x="73.832727" y="307.584" style="stroke: #000000; stroke-width: 0.8"/>
      </g>
     </g>
     <g id="text_1">
      <!-- 1 -->
      <g transform="translate(70.651477 322.182437) scale(0.1 -0.1)">
       <defs>
        <path id="DejaVuSans-31" d="M 794 531 
L 1825 531 
L 1825 4091 
L 703 3866 
L 703 4441 
L 1819 4666 
L 2450 4666 
L 2450 531 
L 3481 531 
L 3481 0 
L 794 0 
L 794 531 
z
" transform="scale(0.015625)"/>
       </defs>
       <use xlink:href="#DejaVuSans-31"/>
      </g>
     </g>
    </g>
    <g id="xtick_2">
     <g id="line2d_2">
      <g>
       <use xlink:href="#m8255405c5f" x="109.664165" y="307.584" style="stroke: #000000; stroke-width: 0.8"/>
      </g>
     </g>
     <g id="text_2">
      <!-- 34 -->
      <g transform="translate(103.301665 322.182437) scale(0.1 -0.1)">
       <defs>
        <path id="DejaVuSans-33" d="M 2597 2516 
Q 3050 2419 3304 2112 
Q 3559 1806 3559 1356 
Q 3559 666 3084 287 
Q 2609 -91 1734 -91 
Q 1441 -91 1130 -33 
Q 819 25 488 141 
L 488 750 
Q 750 597 1062 519 
Q 1375 441 1716 441 
Q 2309 441 2620 675 
Q 2931 909 2931 1356 
Q 2931 1769 2642 2001 
Q 2353 2234 1838 2234 
L 1294 2234 
L 1294 2753 
L 1863 2753 
Q 2328 2753 2575 2939 
Q 2822 3125 2822 3475 
Q 2822 3834 2567 4026 
Q 2313 4219 1838 4219 
Q 1578 4219 1281 4162 
Q 984 4106 628 3988 
L 628 4550 
Q 988 4650 1302 4700 
Q 1616 4750 1894 4750 
Q 2613 4750 3031 4423 
Q 3450 4097 3450 3541 
Q 3450 3153 3228 2886 
Q 3006 2619 2597 2516 
z
" transform="scale(0.015625)"/>
        <path id="DejaVuSans-34" d="M 2419 4116 
L 825 1625 
L 2419 1625 
L 2419 4116 
z
M 2253 4666 
L 3047 4666 
L 3047 1625 
L 3713 1625 
L 3713 1100 
L 3047 1100 
L 3047 0 
L 2419 0 
L 2419 1100 
L 313 1100 
L 313 1709 
L 2253 4666 
z
" transform="scale(0.015625)"/>
       </defs>
       <use xlink:href="#DejaVuSans-33"/>
       <use xlink:href="#DejaVuSans-34" x="63.623047"/>
      </g>
     </g>
    </g>
    <g id="xtick_3">
     <g id="line2d_3">
      <g>
       <use xlink:href="#m8255405c5f" x="145.495604" y="307.584" style="stroke: #000000; stroke-width: 0.8"/>
      </g>
     </g>
     <g id="text_3">
      <!-- 67 -->
      <g transform="translate(139.133104 322.182437) scale(0.1 -0.1)">
       <defs>
        <path id="DejaVuSans-36" d="M 2113 2584 
Q 1688 2584 1439 2293 
Q 1191 2003 1191 1497 
Q 1191 994 1439 701 
Q 1688 409 2113 409 
Q 2538 409 2786 701 
Q 3034 994 3034 1497 
Q 3034 2003 2786 2293 
Q 2538 2584 2113 2584 
z
M 3366 4563 
L 3366 3988 
Q 3128 4100 2886 4159 
Q 2644 4219 2406 4219 
Q 1781 4219 1451 3797 
Q 1122 3375 1075 2522 
Q 1259 2794 1537 2939 
Q 1816 3084 2150 3084 
Q 2853 3084 3261 2657 
Q 3669 2231 3669 1497 
Q 3669 778 3244 343 
Q 2819 -91 2113 -91 
Q 1303 -91 875 529 
Q 447 1150 447 2328 
Q 447 3434 972 4092 
Q 1497 4750 2381 4750 
Q 2619 4750 2861 4703 
Q 3103 4656 3366 4563 
z
" transform="scale(0.015625)"/>
        <path id="DejaVuSans-37" d="M 525 4666 
L 3525 4666 
L 3525 4397 
L 1831 0 
L 1172 0 
L 2766 4134 
L 525 4134 
L 525 4666 
z
" transform="scale(0.015625)"/>
       </defs>
       <use xlink:href="#DejaVuSans-36"/>
       <use xlink:href="#DejaVuSans-37" x="63.623047"/>
      </g>
     </g>
    </g>
    <g id="xtick_4">
     <g id="line2d_4">
      <g>
       <use xlink:href="#m8255405c5f" x="181.327042" y="307.584" style="stroke: #000000; stroke-width: 0.8"/>
      </g>
     </g>
     <g id="text_4">
      <!-- 100 -->
      <g transform="translate(171.783292 322.182437) scale(0.1 -0.1)">
       <defs>
        <path id="DejaVuSans-30" d="M 2034 4250 
Q 1547 4250 1301 3770 
Q 1056 3291 1056 2328 
Q 1056 1369 1301 889 
Q 1547 409 2034 409 
Q 2525 409 2770 889 
Q 3016 1369 3016 2328 
Q 3016 3291 2770 3770 
Q 2525 4250 2034 4250 
z
M 2034 4750 
Q 2819 4750 3233 4129 
Q 3647 3509 3647 2328 
Q 3647 1150 3233 529 
Q 2819 -91 2034 -91 
Q 1250 -91 836 529 
Q 422 1150 422 2328 
Q 422 3509 836 4129 
Q 1250 4750 2034 4750 
z
" transform="scale(0.015625)"/>
       </defs>
       <use xlink:href="#DejaVuSans-31"/>
       <use xlink:href="#DejaVuSans-30" x="63.623047"/>
       <use xlink:href="#DejaVuSans-30" x="127.246094"/>
      </g>
     </g>
    </g>
    <g id="xtick_5">
     <g id="line2d_5">
      <g>
       <use xlink:href="#m8255405c5f" x="217.15848" y="307.584" style="stroke: #000000; stroke-width: 0.8"/>
      </g>
     </g>
     <g id="text_5">
      <!-- 133 -->
      <g transform="translate(207.61473 322.182437) scale(0.1 -0.1)">
       <use xlink:href="#DejaVuSans-31"/>
       <use xlink:href="#DejaVuSans-33" x="63.623047"/>
       <use xlink:href="#DejaVuSans-33" x="127.246094"/>
      </g>
     </g>
    </g>
    <g id="xtick_6">
     <g id="line2d_6">
      <g>
       <use xlink:href="#m8255405c5f" x="254.075719" y="307.584" style="stroke: #000000; stroke-width: 0.8"/>
      </g>
     </g>
     <g id="text_6">
      <!-- 167 -->
      <g transform="translate(244.531969 322.182437) scale(0.1 -0.1)">
       <use xlink:href="#DejaVuSans-31"/>
       <use xlink:href="#DejaVuSans-36" x="63.623047"/>
       <use xlink:href="#DejaVuSans-37" x="127.246094"/>
      </g>
     </g>
    </g>
    <g id="xtick_7">
     <g id="line2d_7">
      <g>
       <use xlink:href="#m8255405c5f" x="289.907157" y="307.584" style="stroke: #000000; stroke-width: 0.8"/>
      </g>
     </g>
     <g id="text_7">
      <!-- 200 -->
      <g transform="translate(280.363407 322.182437) scale(0.1 -0.1)">
       <defs>
        <path id="DejaVuSans-32" d="M 1228 531 
L 3431 531 
L 3431 0 
L 469 0 
L 469 531 
Q 828 903 1448 1529 
Q 2069 2156 2228 2338 
Q 2531 2678 2651 2914 
Q 2772 3150 2772 3378 
Q 2772 3750 2511 3984 
Q 2250 4219 1831 4219 
Q 1534 4219 1204 4116 
Q 875 4013 500 3803 
L 500 4441 
Q 881 4594 1212 4672 
Q 1544 4750 1819 4750 
Q 2544 4750 2975 4387 
Q 3406 4025 3406 3419 
Q 3406 3131 3298 2873 
Q 3191 2616 2906 2266 
Q 2828 2175 2409 1742 
Q 1991 1309 1228 531 
z
" transform="scale(0.015625)"/>
       </defs>
       <use xlink:href="#DejaVuSans-32"/>
       <use xlink:href="#DejaVuSans-30" x="63.623047"/>
       <use xlink:href="#DejaVuSans-30" x="127.246094"/>
      </g>
     </g>
    </g>
    <g id="xtick_8">
     <g id="line2d_8">
      <g>
       <use xlink:href="#m8255405c5f" x="325.738595" y="307.584" style="stroke: #000000; stroke-width: 0.8"/>
      </g>
     </g>
     <g id="text_8">
      <!-- 233 -->
      <g transform="translate(316.194845 322.182437) scale(0.1 -0.1)">
       <use xlink:href="#DejaVuSans-32"/>
       <use xlink:href="#DejaVuSans-33" x="63.623047"/>
       <use xlink:href="#DejaVuSans-33" x="127.246094"/>
      </g>
     </g>
    </g>
    <g id="xtick_9">
     <g id="line2d_9">
      <g>
       <use xlink:href="#m8255405c5f" x="361.570033" y="307.584" style="stroke: #000000; stroke-width: 0.8"/>
      </g>
     </g>
     <g id="text_9">
      <!-- 266 -->
      <g transform="translate(352.026283 322.182437) scale(0.1 -0.1)">
       <use xlink:href="#DejaVuSans-32"/>
       <use xlink:href="#DejaVuSans-36" x="63.623047"/>
       <use xlink:href="#DejaVuSans-36" x="127.246094"/>
      </g>
     </g>
    </g>
    <g id="xtick_10">
     <g id="line2d_10">
      <g>
       <use xlink:href="#m8255405c5f" x="398.487273" y="307.584" style="stroke: #000000; stroke-width: 0.8"/>
      </g>
     </g>
     <g id="text_10">
      <!-- 300 -->
      <g transform="translate(388.943523 322.182437) scale(0.1 -0.1)">
       <use xlink:href="#DejaVuSans-33"/>
       <use xlink:href="#DejaVuSans-30" x="63.623047"/>
       <use xlink:href="#DejaVuSans-30" x="127.246094"/>
      </g>
     </g>
    </g>
    <g id="text_11">
     <!-- Epochs -->
     <g transform="translate(218.244375 335.860562) scale(0.1 -0.1)">
      <defs>
       <path id="DejaVuSans-45" d="M 628 4666 
L 3578 4666 
L 3578 4134 
L 1259 4134 
L 1259 2753 
L 3481 2753 
L 3481 2222 
L 1259 2222 
L 1259 531 
L 3634 531 
L 3634 0 
L 628 0 
L 628 4666 
z
" transform="scale(0.015625)"/>
       <path id="DejaVuSans-70" d="M 1159 525 
L 1159 -1331 
L 581 -1331 
L 581 3500 
L 1159 3500 
L 1159 2969 
Q 1341 3281 1617 3432 
Q 1894 3584 2278 3584 
Q 2916 3584 3314 3078 
Q 3713 2572 3713 1747 
Q 3713 922 3314 415 
Q 2916 -91 2278 -91 
Q 1894 -91 1617 61 
Q 1341 213 1159 525 
z
M 3116 1747 
Q 3116 2381 2855 2742 
Q 2594 3103 2138 3103 
Q 1681 3103 1420 2742 
Q 1159 2381 1159 1747 
Q 1159 1113 1420 752 
Q 1681 391 2138 391 
Q 2594 391 2855 752 
Q 3116 1113 3116 1747 
z
" transform="scale(0.015625)"/>
       <path id="DejaVuSans-6f" d="M 1959 3097 
Q 1497 3097 1228 2736 
Q 959 2375 959 1747 
Q 959 1119 1226 758 
Q 1494 397 1959 397 
Q 2419 397 2687 759 
Q 2956 1122 2956 1747 
Q 2956 2369 2687 2733 
Q 2419 3097 1959 3097 
z
M 1959 3584 
Q 2709 3584 3137 3096 
Q 3566 2609 3566 1747 
Q 3566 888 3137 398 
Q 2709 -91 1959 -91 
Q 1206 -91 779 398 
Q 353 888 353 1747 
Q 353 2609 779 3096 
Q 1206 3584 1959 3584 
z
" transform="scale(0.015625)"/>
       <path id="DejaVuSans-63" d="M 3122 3366 
L 3122 2828 
Q 2878 2963 2633 3030 
Q 2388 3097 2138 3097 
Q 1578 3097 1268 2742 
Q 959 2388 959 1747 
Q 959 1106 1268 751 
Q 1578 397 2138 397 
Q 2388 397 2633 464 
Q 2878 531 3122 666 
L 3122 134 
Q 2881 22 2623 -34 
Q 2366 -91 2075 -91 
Q 1284 -91 818 406 
Q 353 903 353 1747 
Q 353 2603 823 3093 
Q 1294 3584 2113 3584 
Q 2378 3584 2631 3529 
Q 2884 3475 3122 3366 
z
" transform="scale(0.015625)"/>
       <path id="DejaVuSans-68" d="M 3513 2113 
L 3513 0 
L 2938 0 
L 2938 2094 
Q 2938 2591 2744 2837 
Q 2550 3084 2163 3084 
Q 1697 3084 1428 2787 
Q 1159 2491 1159 1978 
L 1159 0 
L 581 0 
L 581 4863 
L 1159 4863 
L 1159 2956 
Q 1366 3272 1645 3428 
Q 1925 3584 2291 3584 
Q 2894 3584 3203 3211 
Q 3513 2838 3513 2113 
z
" transform="scale(0.015625)"/>
       <path id="DejaVuSans-73" d="M 2834 3397 
L 2834 2853 
Q 2591 2978 2328 3040 
Q 2066 3103 1784 3103 
Q 1356 3103 1142 2972 
Q 928 2841 928 2578 
Q 928 2378 1081 2264 
Q 1234 2150 1697 2047 
L 1894 2003 
Q 2506 1872 2764 1633 
Q 3022 1394 3022 966 
Q 3022 478 2636 193 
Q 2250 -91 1575 -91 
Q 1294 -91 989 -36 
Q 684 19 347 128 
L 347 722 
Q 666 556 975 473 
Q 1284 391 1588 391 
Q 1994 391 2212 530 
Q 2431 669 2431 922 
Q 2431 1156 2273 1281 
Q 2116 1406 1581 1522 
L 1381 1569 
Q 847 1681 609 1914 
Q 372 2147 372 2553 
Q 372 3047 722 3315 
Q 1072 3584 1716 3584 
Q 2034 3584 2315 3537 
Q 2597 3491 2834 3397 
z
" transform="scale(0.015625)"/>
      </defs>
      <use xlink:href="#DejaVuSans-45"/>
      <use xlink:href="#DejaVuSans-70" x="63.183594"/>
      <use xlink:href="#DejaVuSans-6f" x="126.660156"/>
      <use xlink:href="#DejaVuSans-63" x="187.841797"/>
      <use xlink:href="#DejaVuSans-68" x="242.822266"/>
      <use xlink:href="#DejaVuSans-73" x="306.201172"/>
     </g>
    </g>
   </g>
   <g id="matplotlib.axis_2">
    <g id="ytick_1">
     <g id="line2d_11">
      <defs>
       <path id="mb9e00f91ce" d="M 0 0 
L -3.5 0 
" style="stroke: #000000; stroke-width: 0.8"/>
      </defs>
      <g>
       <use xlink:href="#mb9e00f91ce" x="57.6" y="279.560163" style="stroke: #000000; stroke-width: 0.8"/>
      </g>
     </g>
     <g id="text_12">
      <!-- 10 -->
      <g transform="translate(37.875 283.359381) scale(0.1 -0.1)">
       <use xlink:href="#DejaVuSans-31"/>
       <use xlink:href="#DejaVuSans-30" x="63.623047"/>
      </g>
     </g>
    </g>
    <g id="ytick_2">
     <g id="line2d_12">
      <g>
       <use xlink:href="#mb9e00f91ce" x="57.6" y="244.070329" style="stroke: #000000; stroke-width: 0.8"/>
      </g>
     </g>
     <g id="text_13">
      <!-- 20 -->
      <g transform="translate(37.875 247.869548) scale(0.1 -0.1)">
       <use xlink:href="#DejaVuSans-32"/>
       <use xlink:href="#DejaVuSans-30" x="63.623047"/>
      </g>
     </g>
    </g>
    <g id="ytick_3">
     <g id="line2d_13">
      <g>
       <use xlink:href="#mb9e00f91ce" x="57.6" y="208.580495" style="stroke: #000000; stroke-width: 0.8"/>
      </g>
     </g>
     <g id="text_14">
      <!-- 30 -->
      <g transform="translate(37.875 212.379714) scale(0.1 -0.1)">
       <use xlink:href="#DejaVuSans-33"/>
       <use xlink:href="#DejaVuSans-30" x="63.623047"/>
      </g>
     </g>
    </g>
    <g id="ytick_4">
     <g id="line2d_14">
      <g>
       <use xlink:href="#mb9e00f91ce" x="57.6" y="173.090662" style="stroke: #000000; stroke-width: 0.8"/>
      </g>
     </g>
     <g id="text_15">
      <!-- 40 -->
      <g transform="translate(37.875 176.88988) scale(0.1 -0.1)">
       <use xlink:href="#DejaVuSans-34"/>
       <use xlink:href="#DejaVuSans-30" x="63.623047"/>
      </g>
     </g>
    </g>
    <g id="ytick_5">
     <g id="line2d_15">
      <g>
       <use xlink:href="#mb9e00f91ce" x="57.6" y="137.600828" style="stroke: #000000; stroke-width: 0.8"/>
      </g>
     </g>
     <g id="text_16">
      <!-- 50 -->
      <g transform="translate(37.875 141.400047) scale(0.1 -0.1)">
       <defs>
        <path id="DejaVuSans-35" d="M 691 4666 
L 3169 4666 
L 3169 4134 
L 1269 4134 
L 1269 2991 
Q 1406 3038 1543 3061 
Q 1681 3084 1819 3084 
Q 2600 3084 3056 2656 
Q 3513 2228 3513 1497 
Q 3513 744 3044 326 
Q 2575 -91 1722 -91 
Q 1428 -91 1123 -41 
Q 819 9 494 109 
L 494 744 
Q 775 591 1075 516 
Q 1375 441 1709 441 
Q 2250 441 2565 725 
Q 2881 1009 2881 1497 
Q 2881 1984 2565 2268 
Q 2250 2553 1709 2553 
Q 1456 2553 1204 2497 
Q 953 2441 691 2322 
L 691 4666 
z
" transform="scale(0.015625)"/>
       </defs>
       <use xlink:href="#DejaVuSans-35"/>
       <use xlink:href="#DejaVuSans-30" x="63.623047"/>
      </g>
     </g>
    </g>
    <g id="ytick_6">
     <g id="line2d_16">
      <g>
       <use xlink:href="#mb9e00f91ce" x="57.6" y="102.110994" style="stroke: #000000; stroke-width: 0.8"/>
      </g>
     </g>
     <g id="text_17">
      <!-- 60 -->
      <g transform="translate(37.875 105.910213) scale(0.1 -0.1)">
       <use xlink:href="#DejaVuSans-36"/>
       <use xlink:href="#DejaVuSans-30" x="63.623047"/>
      </g>
     </g>
    </g>
    <g id="ytick_7">
     <g id="line2d_17">
      <g>
       <use xlink:href="#mb9e00f91ce" x="57.6" y="66.621161" style="stroke: #000000; stroke-width: 0.8"/>
      </g>
     </g>
     <g id="text_18">
      <!-- 70 -->
      <g transform="translate(37.875 70.42038) scale(0.1 -0.1)">
       <use xlink:href="#DejaVuSans-37"/>
       <use xlink:href="#DejaVuSans-30" x="63.623047"/>
      </g>
     </g>
    </g>
    <g id="text_19">
     <!-- Accuracy -->
     <g transform="translate(31.795312 197.356125) rotate(-90) scale(0.1 -0.1)">
      <defs>
       <path id="DejaVuSans-41" d="M 2188 4044 
L 1331 1722 
L 3047 1722 
L 2188 4044 
z
M 1831 4666 
L 2547 4666 
L 4325 0 
L 3669 0 
L 3244 1197 
L 1141 1197 
L 716 0 
L 50 0 
L 1831 4666 
z
" transform="scale(0.015625)"/>
       <path id="DejaVuSans-75" d="M 544 1381 
L 544 3500 
L 1119 3500 
L 1119 1403 
Q 1119 906 1312 657 
Q 1506 409 1894 409 
Q 2359 409 2629 706 
Q 2900 1003 2900 1516 
L 2900 3500 
L 3475 3500 
L 3475 0 
L 2900 0 
L 2900 538 
Q 2691 219 2414 64 
Q 2138 -91 1772 -91 
Q 1169 -91 856 284 
Q 544 659 544 1381 
z
M 1991 3584 
L 1991 3584 
z
" transform="scale(0.015625)"/>
       <path id="DejaVuSans-72" d="M 2631 2963 
Q 2534 3019 2420 3045 
Q 2306 3072 2169 3072 
Q 1681 3072 1420 2755 
Q 1159 2438 1159 1844 
L 1159 0 
L 581 0 
L 581 3500 
L 1159 3500 
L 1159 2956 
Q 1341 3275 1631 3429 
Q 1922 3584 2338 3584 
Q 2397 3584 2469 3576 
Q 2541 3569 2628 3553 
L 2631 2963 
z
" transform="scale(0.015625)"/>
       <path id="DejaVuSans-61" d="M 2194 1759 
Q 1497 1759 1228 1600 
Q 959 1441 959 1056 
Q 959 750 1161 570 
Q 1363 391 1709 391 
Q 2188 391 2477 730 
Q 2766 1069 2766 1631 
L 2766 1759 
L 2194 1759 
z
M 3341 1997 
L 3341 0 
L 2766 0 
L 2766 531 
Q 2569 213 2275 61 
Q 1981 -91 1556 -91 
Q 1019 -91 701 211 
Q 384 513 384 1019 
Q 384 1609 779 1909 
Q 1175 2209 1959 2209 
L 2766 2209 
L 2766 2266 
Q 2766 2663 2505 2880 
Q 2244 3097 1772 3097 
Q 1472 3097 1187 3025 
Q 903 2953 641 2809 
L 641 3341 
Q 956 3463 1253 3523 
Q 1550 3584 1831 3584 
Q 2591 3584 2966 3190 
Q 3341 2797 3341 1997 
z
" transform="scale(0.015625)"/>
       <path id="DejaVuSans-79" d="M 2059 -325 
Q 1816 -950 1584 -1140 
Q 1353 -1331 966 -1331 
L 506 -1331 
L 506 -850 
L 844 -850 
Q 1081 -850 1212 -737 
Q 1344 -625 1503 -206 
L 1606 56 
L 191 3500 
L 800 3500 
L 1894 763 
L 2988 3500 
L 3597 3500 
L 2059 -325 
z
" transform="scale(0.015625)"/>
      </defs>
      <use xlink:href="#DejaVuSans-41"/>
      <use xlink:href="#DejaVuSans-63" x="66.658203"/>
      <use xlink:href="#DejaVuSans-63" x="121.638672"/>
      <use xlink:href="#DejaVuSans-75" x="176.619141"/>
      <use xlink:href="#DejaVuSans-72" x="239.998047"/>
      <use xlink:href="#DejaVuSans-61" x="281.111328"/>
      <use xlink:href="#DejaVuSans-63" x="342.390625"/>
      <use xlink:href="#DejaVuSans-79" x="397.371094"/>
     </g>
    </g>
   </g>
   <g id="line2d_18">
    <path d="M 73.832727 295.488 
L 74.918528 265.332288 
L 76.00433 243.392473 
L 77.090131 225.651105 
L 78.175932 212.395652 
L 79.261733 201.752251 
L 82.519137 176.987445 
L 85.77654 159.242529 
L 89.033943 146.029664 
L 90.119745 141.966078 
L 92.291347 135.595652 
L 93.377148 133.920532 
L 94.462949 132.678388 
L 95.54875 166.120458 
L 96.634552 165.442603 
L 97.720353 161.758758 
L 98.806154 158.593065 
L 99.891955 153.762898 
L 100.977756 152.60593 
L 102.063557 150.139386 
L 103.149358 145.877057 
L 104.23516 143.346632 
L 105.320961 142.658129 
L 106.406762 139.272399 
L 107.492563 136.319645 
L 108.578364 134.275431 
L 109.664165 131.556909 
L 111.835768 127.738203 
L 112.921569 124.952251 
L 114.00737 123.518462 
L 115.093171 121.516835 
L 116.178972 119.053841 
L 117.264773 115.494211 
L 118.350575 115.263527 
L 119.436376 112.679867 
L 120.522177 110.412067 
L 121.607978 108.474322 
L 122.693779 105.745153 
L 123.77958 105.102787 
L 124.865382 101.305375 
L 125.951183 98.718166 
L 127.036984 98.089996 
L 128.122785 95.992547 
L 129.208586 94.615542 
L 130.294387 93.437279 
L 131.380189 92.489701 
L 132.46599 89.402085 
L 133.551791 90.065745 
L 134.637592 88.387076 
L 135.723393 88.124451 
L 136.809194 88.202529 
L 137.894995 87.503379 
L 138.980797 127.19166 
L 140.066598 130.861309 
L 142.2382 128.682233 
L 143.324001 128.281198 
L 144.409802 127.404599 
L 145.495604 125.23617 
L 146.581405 124.650588 
L 147.667206 122.54959 
L 148.753007 122.837057 
L 149.838808 121.499091 
L 150.924609 120.377612 
L 152.01041 120.051105 
L 154.182013 116.243046 
L 155.267814 117.744266 
L 156.353615 115.717797 
L 157.439416 115.320311 
L 158.525217 113.861678 
L 159.611019 113.286743 
L 160.69682 111.618721 
L 161.782621 110.848591 
L 163.954223 108.531105 
L 165.040024 108.669516 
L 166.125825 107.480606 
L 167.211627 107.576429 
L 168.297428 106.085856 
L 169.383229 105.081494 
L 170.46903 105.131179 
L 171.554831 103.445412 
L 172.640632 100.595579 
L 173.726434 102.103896 
L 174.812235 99.655098 
L 175.898036 99.069516 
L 176.983837 99.083712 
L 178.069638 97.568296 
L 179.155439 95.477945 
L 180.24124 96.106115 
L 181.327042 93.667963 
L 182.412843 93.67861 
L 183.498644 91.574063 
L 185.670246 89.274322 
L 187.841849 88.855542 
L 188.92765 86.470625 
L 190.013451 86.513213 
L 191.099252 84.752917 
L 192.185053 83.297834 
L 193.270854 82.488665 
L 194.356656 81.931475 
L 195.442457 81.086817 
L 196.528258 79.372658 
L 197.614059 77.101309 
L 198.69986 77.27166 
L 199.785661 75.582344 
L 200.871462 75.703009 
L 201.957264 73.335837 
L 203.043065 73.066115 
L 204.128866 71.724599 
L 205.214667 71.341309 
L 206.300468 69.385819 
L 207.386269 68.89251 
L 208.472071 68.168518 
L 209.557872 66.30885 
L 210.643673 65.946854 
L 211.729474 66.142048 
L 213.901076 63.803268 
L 214.986877 64.200754 
L 216.072679 61.705819 
L 217.15848 62.557575 
L 218.244281 62.177834 
L 219.330082 62.124599 
L 220.415883 62.862787 
L 221.501684 61.609996 
L 222.587486 61.219608 
L 223.673287 61.102492 
L 224.759088 60.609183 
L 225.844889 111.008296 
L 226.93069 115.625523 
L 228.016491 115.689405 
L 229.102292 116.065597 
L 230.188094 114.702787 
L 231.273895 113.641641 
L 232.359696 112.963786 
L 233.445497 112.090736 
L 234.531298 111.62227 
L 235.617099 110.472399 
L 236.702901 110.827298 
L 237.788702 110.12105 
L 238.874503 109.670329 
L 239.960304 108.122972 
L 241.046105 109.063453 
L 242.131906 107.370588 
L 243.217708 107.093767 
L 244.303509 105.699017 
L 245.38931 106.323638 
L 246.475111 106.188776 
L 247.560912 105.482529 
L 248.646713 106.082307 
L 249.732514 105.028259 
L 250.818316 104.861457 
L 251.904117 104.258129 
L 252.989918 102.813693 
L 254.075719 104.229738 
L 255.16152 102.306189 
L 256.247321 102.724969 
L 257.333123 101.873213 
L 258.418924 100.879497 
L 259.504725 101.993878 
L 261.676327 100.091623 
L 262.762128 100.368444 
L 264.933731 99.261161 
L 266.019532 99.839645 
L 267.105333 99.175985 
L 269.276935 98.544266 
L 270.362736 97.280828 
L 271.448538 96.464562 
L 272.534339 98.125486 
L 273.62014 97.181457 
L 274.705941 96.826558 
L 276.877543 95.428259 
L 277.963344 95.268555 
L 279.049146 95.339534 
L 281.220748 94.686521 
L 282.306549 93.884451 
L 283.39235 93.380495 
L 284.478151 93.167556 
L 285.563953 93.838314 
L 286.649754 92.180939 
L 287.735555 92.312251 
L 288.821356 91.05946 
L 289.907157 91.637945 
L 292.07876 89.512104 
L 293.164561 89.575985 
L 294.250362 89.398536 
L 295.336163 88.65325 
L 296.421964 88.202529 
L 297.507765 87.624044 
L 298.593566 87.691475 
L 300.765169 87.251401 
L 301.85097 86.630329 
L 302.936771 86.616133 
L 304.022572 85.164599 
L 307.279976 84.67129 
L 308.365777 84.096355 
L 309.451578 82.914543 
L 310.537379 83.219756 
L 311.62318 82.463823 
L 312.708981 82.279275 
L 313.794783 81.047778 
L 314.880584 81.239423 
L 315.966385 79.209405 
L 317.052186 79.734654 
L 318.137987 80.114396 
L 319.223788 78.293767 
L 321.395391 77.779165 
L 322.481192 76.384414 
L 323.566993 77.150994 
L 324.652794 76.749959 
L 325.738595 75.791734 
L 330.0818 73.470699 
L 331.167601 72.587002 
L 332.253402 71.958832 
L 333.339203 71.114174 
L 334.425005 71.23129 
L 335.510806 69.76556 
L 336.596607 69.921715 
L 337.682408 69.712325 
L 338.768209 68.7541 
L 339.85401 68.995431 
L 340.939811 67.717797 
L 342.025613 66.944118 
L 343.111414 66.756022 
L 344.197215 66.443712 
L 345.283016 66.007187 
L 346.368817 65.36837 
L 347.454618 65.286743 
L 348.54042 63.640015 
L 349.626221 62.593065 
L 350.712022 63.050884 
L 352.883624 61.091845 
L 353.969425 60.552399 
L 355.055227 59.881641 
L 356.141028 59.693545 
L 357.226829 58.866632 
L 358.31263 58.515283 
L 359.398431 58.923416 
L 361.570033 55.839349 
L 362.655835 56.272325 
L 363.741636 55.324747 
L 364.827437 55.232473 
L 365.913238 55.026632 
L 366.999039 53.568 
L 368.08484 54.47654 
L 371.342244 60.293323 
L 372.428045 63.114765 
L 373.513846 62.362381 
L 374.599647 63.579682 
L 375.685448 63.789072 
L 376.77125 63.427076 
L 377.857051 64.033952 
L 378.942852 62.781161 
L 380.028653 62.830847 
L 381.114454 63.618721 
L 383.286057 64.104932 
L 384.371858 63.640015 
L 385.457659 64.193656 
L 386.54346 62.859238 
L 387.629261 64.136872 
L 388.715062 63.58678 
L 389.800863 64.825375 
L 390.886665 63.69325 
L 391.972466 63.813915 
L 393.058267 64.399497 
L 394.144068 63.821013 
L 395.229869 64.349811 
L 396.31567 64.154617 
L 397.401472 64.104932 
L 398.487273 64.449183 
L 398.487273 64.449183 
" clip-path="url(#p952d1ad8e8)" style="fill: none; stroke: #1f77b4; stroke-width: 1.5; stroke-linecap: square"/>
   </g>
   <g id="line2d_19">
    <path d="M 73.832727 274.662566 
L 76.00433 226.964229 
L 77.090131 212.590847 
L 78.175932 194.207113 
L 79.261733 186.505819 
L 80.347534 180.543527 
L 81.433335 171.31617 
L 82.519137 160.846669 
L 83.604938 162.408222 
L 84.690739 153.180865 
L 85.77654 148.673656 
L 86.862341 145.124673 
L 87.948142 136.181235 
L 89.033943 132.170884 
L 90.119745 130.325412 
L 91.205546 129.118758 
L 92.291347 126.56349 
L 93.377148 126.208591 
L 94.462949 125.605264 
L 95.54875 159.462566 
L 96.634552 161.485486 
L 97.720353 149.347963 
L 98.806154 150.128739 
L 99.891955 144.627815 
L 100.977756 143.918018 
L 102.063557 134.903601 
L 103.149358 137.24593 
L 104.23516 134.442233 
L 105.320961 132.099904 
L 106.406762 126.918388 
L 107.492563 127.947593 
L 108.578364 122.801567 
L 110.749967 122.482159 
L 111.835768 122.23373 
L 112.921569 115.81007 
L 114.00737 114.177538 
L 115.093171 110.025227 
L 116.178972 108.960532 
L 117.264773 106.618203 
L 118.350575 106.937612 
L 119.436376 103.175689 
L 120.522177 102.359423 
L 121.607978 101.401198 
L 122.693779 96.432621 
L 123.77958 95.084007 
L 124.865382 94.51617 
L 125.951183 91.676983 
L 127.036984 92.741678 
L 128.122785 90.860717 
L 130.294387 88.305449 
L 131.380189 86.388998 
L 132.46599 86.388998 
L 133.551791 86.637427 
L 134.637592 85.075874 
L 136.809194 84.011179 
L 137.894995 84.969405 
L 138.980797 123.866262 
L 140.066598 123.759793 
L 141.152399 121.985301 
L 142.2382 117.90397 
L 143.324001 120.423749 
L 144.409802 118.365338 
L 145.495604 115.739091 
L 146.581405 115.668111 
L 147.667206 116.697316 
L 148.753007 115.561641 
L 149.838808 116.448887 
L 150.924609 113.503231 
L 152.01041 115.95203 
L 153.096212 113.432251 
L 154.182013 109.4219 
L 155.267814 106.618203 
L 156.353615 111.196392 
L 157.439416 103.743527 
L 158.525217 106.156835 
L 159.611019 109.989738 
L 160.69682 103.282159 
L 161.782621 106.405264 
L 162.868422 104.311364 
L 163.954223 103.637057 
L 165.040024 107.22153 
L 166.125825 110.273656 
L 167.211627 104.346854 
L 168.297428 104.133915 
L 170.46903 100.159054 
L 171.554831 97.603786 
L 172.640632 97.852214 
L 173.726434 96.148702 
L 174.812235 92.173841 
L 175.898036 99.768665 
L 176.983837 93.522455 
L 178.069638 92.635209 
L 179.155439 93.770884 
L 180.24124 91.393065 
L 181.327042 90.896207 
L 182.412843 90.18641 
L 183.498644 90.931697 
L 184.584445 87.169774 
L 185.670246 88.979756 
L 186.756047 86.708407 
L 187.841849 83.975689 
L 188.92765 84.862935 
L 190.013451 83.514322 
L 191.099252 81.491401 
L 192.185053 82.591586 
L 193.270854 79.291031 
L 194.356656 79.149072 
L 195.442457 79.929848 
L 196.528258 80.497686 
L 197.614059 79.291031 
L 198.69986 77.764969 
L 200.871462 76.416355 
L 203.043065 73.541678 
L 204.128866 73.577168 
L 205.214667 71.696207 
L 206.300468 71.625227 
L 207.386269 70.737982 
L 208.472071 69.424858 
L 209.557872 69.708776 
L 211.729474 68.715061 
L 212.815275 67.472917 
L 213.901076 68.573102 
L 214.986877 67.082529 
L 217.15848 67.047039 
L 218.244281 66.337242 
L 220.415883 66.69214 
L 221.501684 66.159793 
L 222.587486 65.875874 
L 223.673287 66.266262 
L 224.759088 66.337242 
L 225.844889 123.440384 
L 226.93069 116.235948 
L 229.102292 113.82264 
L 230.188094 113.538721 
L 231.273895 110.983453 
L 232.359696 104.950181 
L 233.445497 108.286226 
L 234.531298 111.231882 
L 235.617099 110.451105 
L 236.702901 105.19861 
L 237.788702 107.36349 
L 238.874503 106.653693 
L 239.960304 110.273656 
L 241.046105 106.369774 
L 242.131906 105.056651 
L 243.217708 108.357205 
L 244.303509 105.16312 
L 245.38931 108.499165 
L 246.475111 104.346854 
L 247.560912 98.916909 
L 248.646713 108.428185 
L 249.732514 106.724673 
L 250.818316 114.319497 
L 251.904117 104.595283 
L 252.989918 101.543157 
L 254.075719 101.365708 
L 255.16152 98.100643 
L 256.247321 102.99824 
L 257.333123 103.10471 
L 258.418924 109.918758 
L 259.504725 107.22153 
L 260.590526 105.021161 
L 261.676327 103.708037 
L 262.762128 101.543157 
L 263.847929 100.86885 
L 264.933731 98.349072 
L 266.019532 102.643342 
L 267.105333 101.259238 
L 268.191134 97.639275 
L 269.276935 95.225967 
L 270.362736 95.829294 
L 271.448538 98.065153 
L 272.534339 93.415985 
L 273.62014 97.426336 
L 274.705941 96.787519 
L 275.791742 102.714322 
L 276.877543 100.93983 
L 277.963344 94.942048 
L 279.049146 97.213397 
L 280.134947 99.200828 
L 281.220748 96.964969 
L 282.306549 93.096577 
L 283.39235 95.261457 
L 284.478151 95.048518 
L 285.563953 97.497316 
L 286.649754 101.117279 
L 287.735555 95.332436 
L 288.821356 92.3158 
L 289.907157 97.994174 
L 290.992958 89.157205 
L 292.07876 94.693619 
L 293.164561 91.286595 
L 295.336163 91.606004 
L 296.421964 90.789738 
L 297.507765 92.42227 
L 298.593566 89.192695 
L 299.679368 94.51617 
L 300.765169 87.666632 
L 301.85097 91.889922 
L 302.936771 90.860717 
L 304.022572 88.411919 
L 305.108373 87.276244 
L 306.194175 90.36386 
L 307.279976 82.698055 
L 308.365777 86.672917 
L 309.451578 79.823379 
L 310.537379 87.453693 
L 311.62318 82.591586 
L 312.708981 85.111364 
L 313.794783 85.359793 
L 314.880584 83.86922 
L 315.966385 83.727261 
L 317.052186 84.259608 
L 319.223788 81.171993 
L 320.30959 84.117649 
L 321.395391 86.247039 
L 322.481192 86.282529 
L 323.566993 83.265893 
L 324.652794 79.716909 
L 325.738595 76.593804 
L 326.824396 78.474765 
L 327.910198 77.729479 
L 328.995999 81.66885 
L 330.0818 86.637427 
L 331.167601 77.942418 
L 332.253402 73.683638 
L 333.339203 75.990477 
L 334.425005 77.197131 
L 335.510806 74.003046 
L 336.596607 77.268111 
L 337.682408 73.648148 
L 338.768209 72.476983 
L 339.85401 72.760902 
L 340.939811 74.251475 
L 343.111414 72.583453 
L 344.197215 73.080311 
L 345.283016 74.109516 
L 346.368817 69.992695 
L 347.454618 70.844451 
L 348.54042 70.702492 
L 349.626221 70.98641 
L 350.712022 69.566817 
L 351.797823 69.140939 
L 352.883624 69.282898 
L 353.969425 68.324673 
L 355.055227 69.069959 
L 356.141028 65.308037 
L 357.226829 67.721346 
L 358.31263 65.911364 
L 359.398431 66.230773 
L 360.484232 66.159793 
L 361.570033 65.308037 
L 362.655835 64.065893 
L 363.741636 63.852954 
L 364.827437 63.888444 
L 365.913238 63.001198 
L 366.999039 63.320606 
L 368.08484 65.308037 
L 369.170642 66.550181 
L 370.256443 67.224488 
L 371.342244 68.111734 
L 372.428045 73.506189 
L 373.513846 69.815246 
L 375.685448 74.215985 
L 376.77125 72.193065 
L 377.857051 69.673287 
L 378.942852 68.679571 
L 380.028653 74.996762 
L 381.114454 71.589738 
L 382.200255 67.295468 
L 383.286057 72.725412 
L 384.371858 76.593804 
L 385.457659 69.744266 
L 386.54346 71.341309 
L 387.629261 74.038536 
L 388.715062 72.654433 
L 389.800863 76.203416 
L 391.972466 71.838166 
L 393.058267 73.15129 
L 394.144068 71.12837 
L 397.401472 74.748333 
L 398.487273 71.838166 
L 398.487273 71.838166 
" clip-path="url(#p952d1ad8e8)" style="fill: none; stroke: #ff7f0e; stroke-width: 1.5; stroke-linecap: square"/>
   </g>
   <g id="line2d_20">
    <path d="M 73.832727 291.798122 
L 74.918528 283.843431 
L 76.00433 266.587919 
L 77.090131 261.692806 
L 79.261733 253.860555 
L 80.347534 247.839704 
L 81.433335 247.276481 
L 82.519137 246.248695 
L 83.604938 237.217242 
L 84.690739 233.105035 
L 85.77654 235.332377 
L 86.862341 225.958447 
L 87.948142 225.224163 
L 89.033943 224.000118 
L 90.119745 227.206625 
L 91.205546 223.510713 
L 92.291347 223.216858 
L 93.377148 221.993168 
L 94.462949 221.087468 
L 95.54875 243.898913 
L 96.634552 244.535246 
L 97.720353 238.22054 
L 98.806154 230.461752 
L 99.891955 235.161316 
L 100.977756 235.11234 
L 103.149358 222.238048 
L 104.23516 224.954795 
L 105.320961 218.101708 
L 106.406762 223.070285 
L 107.492563 219.618898 
L 108.578364 219.496813 
L 109.664165 219.521301 
L 110.749967 220.133146 
L 111.835768 222.800917 
L 112.921569 213.035179 
L 114.00737 219.888266 
L 115.093171 205.202928 
L 116.178972 213.696 
L 117.264773 209.167852 
L 118.350575 212.080503 
L 119.436376 213.769464 
L 120.522177 202.608266 
L 121.607978 208.042115 
L 122.693779 208.751911 
L 123.77958 203.636407 
L 124.865382 201.335601 
L 125.951183 203.464991 
L 127.036984 202.730706 
L 128.122785 199.769079 
L 129.208586 201.433553 
L 130.294387 199.989471 
L 131.380189 199.744591 
L 132.46599 198.91271 
L 133.551791 199.475579 
L 134.637592 197.56658 
L 135.723393 198.30051 
L 136.809194 197.542092 
L 137.894995 198.153937 
L 138.980797 218.787017 
L 140.066598 222.336 
L 141.152399 220.108658 
L 142.2382 216.143379 
L 143.324001 215.898854 
L 144.409802 213.647024 
L 145.495604 218.419697 
L 146.581405 215.898854 
L 147.667206 212.863763 
L 148.753007 222.384976 
L 149.838808 223.412798 
L 150.924609 214.13649 
L 152.01041 225.077149 
L 153.096212 218.591076 
L 154.182013 216.461686 
L 155.267814 212.17843 
L 156.353615 219.790388 
L 157.439416 205.007036 
L 158.525217 205.667881 
L 159.611019 208.825253 
L 160.69682 210.318273 
L 161.782621 209.804283 
L 162.868422 214.919714 
L 163.954223 205.521027 
L 165.040024 214.356772 
L 166.125825 219.496679 
L 167.211627 213.426693 
L 168.297428 216.486162 
L 170.46903 207.283281 
L 171.554831 202.926598 
L 172.640632 207.944126 
L 173.726434 204.248288 
L 174.812235 206.818242 
L 175.898036 212.790324 
L 176.983837 203.562967 
L 178.069638 198.667818 
L 179.155439 212.056052 
L 180.24124 197.517458 
L 181.327042 194.629319 
L 182.412843 201.433577 
L 183.498644 202.730792 
L 184.584445 199.451042 
L 185.670246 198.398584 
L 186.756047 192.108317 
L 187.841849 194.97198 
L 188.92765 200.062935 
L 190.013451 192.548881 
L 191.099252 190.370539 
L 192.185053 194.580368 
L 193.270854 191.031385 
L 194.356656 188.877519 
L 195.442457 195.31464 
L 196.528258 190.101306 
L 197.614059 188.559334 
L 198.69986 188.975422 
L 199.785661 194.041901 
L 200.871462 190.223685 
L 201.957264 184.276078 
L 203.043065 185.744623 
L 204.128866 187.77611 
L 205.214667 182.513824 
L 206.300468 184.545311 
L 207.386269 184.251603 
L 208.472071 182.929912 
L 209.557872 182.611727 
L 210.643673 183.248097 
L 211.729474 183.370476 
L 212.815275 180.335483 
L 213.901076 183.003339 
L 214.986877 180.898425 
L 216.072679 180.164153 
L 217.15848 180.115201 
L 218.244281 179.797017 
L 219.330082 180.922901 
L 220.415883 178.720084 
L 221.501684 179.503308 
L 222.587486 179.013793 
L 223.673287 180.23758 
L 224.759088 178.10819 
L 225.844889 231.710077 
L 226.93069 219.472203 
L 228.016491 217.636522 
L 229.102292 207.968602 
L 230.188094 220.671515 
L 231.273895 215.92322 
L 232.359696 203.342685 
L 234.531298 217.58757 
L 235.617099 215.800841 
L 236.702901 213.573548 
L 237.788702 207.038523 
L 238.874503 214.846287 
L 239.960304 216.167977 
L 241.046105 218.615552 
L 242.131906 204.174861 
L 243.217708 221.087602 
L 244.303509 204.909133 
L 245.38931 217.832328 
L 246.475111 213.230887 
L 247.560912 212.521091 
L 248.646713 206.695863 
L 249.732514 211.174925 
L 250.818316 208.458117 
L 251.904117 213.940684 
L 252.989918 209.118962 
L 254.075719 206.035018 
L 255.16152 206.328727 
L 256.247321 213.524596 
L 257.333123 210.709885 
L 258.418924 211.223876 
L 259.504725 215.898744 
L 260.590526 214.405723 
L 261.676327 219.496679 
L 262.762128 205.814736 
L 263.847929 206.402154 
L 264.933731 205.594454 
L 266.019532 197.590885 
L 267.105333 211.909197 
L 268.191134 208.188883 
L 269.276935 206.720339 
L 270.362736 211.321779 
L 271.448538 204.46857 
L 272.534339 201.115392 
L 273.62014 211.419682 
L 274.705941 212.080527 
L 275.791742 211.346255 
L 276.877543 210.122467 
L 277.963344 204.052482 
L 279.049146 206.720339 
L 280.134947 213.524596 
L 281.220748 209.926661 
L 282.306549 204.958085 
L 283.39235 207.087475 
L 284.478151 202.51051 
L 285.563953 201.482529 
L 286.649754 209.53505 
L 287.735555 208.825253 
L 288.821356 206.573484 
L 289.907157 204.028006 
L 290.992958 197.541933 
L 292.07876 210.097992 
L 293.164561 201.507004 
L 294.250362 202.632889 
L 295.336163 199.353139 
L 296.421964 209.265816 
L 297.507765 199.891605 
L 298.593566 193.478959 
L 299.679368 206.132921 
L 300.765169 198.42306 
L 301.85097 209.388195 
L 302.936771 207.846223 
L 305.108373 201.262247 
L 306.194175 201.874141 
L 307.279976 194.653795 
L 308.365777 194.237707 
L 309.451578 191.496424 
L 310.537379 194.702747 
L 311.62318 194.653795 
L 312.708981 200.993014 
L 313.794783 195.975485 
L 314.880584 198.545439 
L 315.966385 190.688724 
L 317.052186 195.583874 
L 318.137987 192.181745 
L 319.223788 191.080336 
L 320.30959 192.402026 
L 321.395391 195.14331 
L 322.481192 194.702747 
L 323.566993 201.972044 
L 324.652794 189.929976 
L 325.738595 194.16428 
L 326.824396 195.755204 
L 327.910198 192.132793 
L 328.995999 187.43345 
L 330.0818 186.772604 
L 331.167601 192.695735 
L 332.253402 184.520836 
L 333.339203 191.814608 
L 334.425005 192.573357 
L 335.510806 185.842526 
L 336.596607 186.96841 
L 337.682408 180.776046 
L 338.768209 187.408974 
L 339.85401 185.81805 
L 340.939811 189.146752 
L 342.025613 183.957894 
L 343.111414 180.947377 
L 344.197215 185.769099 
L 345.283016 180.849474 
L 346.368817 178.989317 
L 347.454618 176.566218 
L 348.54042 184.447409 
L 349.626221 183.590757 
L 350.712022 180.090725 
L 351.797823 178.622181 
L 352.883624 181.167658 
L 353.969425 179.650162 
L 355.055227 181.804028 
L 356.141028 177.863432 
L 357.226829 183.027815 
L 358.31263 180.604716 
L 359.398431 176.125654 
L 360.484232 177.667626 
L 361.570033 176.762024 
L 362.655835 181.877455 
L 363.741636 177.080209 
L 364.827437 177.765529 
L 365.913238 177.838957 
L 366.999039 172.331914 
L 368.08484 180.531289 
L 369.170642 183.639709 
L 370.256443 181.485843 
L 371.342244 175.366906 
L 372.428045 188.485907 
L 373.513846 180.702619 
L 374.599647 177.790005 
L 375.685448 188.877519 
L 376.77125 176.933354 
L 377.857051 186.992886 
L 378.942852 184.104748 
L 380.028653 184.373981 
L 381.114454 187.555828 
L 382.200255 179.160647 
L 383.286057 189.122276 
L 384.371858 190.639773 
L 385.457659 184.251603 
L 386.54346 183.468379 
L 387.629261 193.087347 
L 388.715062 186.846032 
L 389.800863 189.367034 
L 390.886665 183.615233 
L 391.972466 179.062744 
L 393.058267 184.447409 
L 394.144068 186.160711 
L 395.229869 184.545311 
L 396.31567 185.671196 
L 397.401472 182.660679 
L 398.487273 187.188692 
L 398.487273 187.188692 
" clip-path="url(#p952d1ad8e8)" style="fill: none; stroke: #2ca02c; stroke-width: 1.5; stroke-linecap: square"/>
   </g>
   <g id="line2d_21">
    <path d="M 368.08484 64.846669 
L 369.170642 66.905079 
L 370.256443 71.802677 
L 371.342244 71.305819 
L 372.428045 76.309885 
L 373.513846 78.155357 
L 374.599647 75.600089 
L 375.685448 74.357945 
L 376.77125 77.871438 
L 377.857051 76.806743 
L 378.942852 73.683638 
L 380.028653 79.61044 
L 381.114454 78.013397 
L 382.200255 74.251475 
L 383.286057 84.472547 
L 384.371858 80.781604 
L 385.457659 85.040384 
L 386.54346 80.604155 
L 387.629261 81.420421 
L 388.715062 88.269959 
L 389.800863 83.336872 
L 390.886665 92.670699 
L 391.972466 90.044451 
L 393.058267 94.871068 
L 394.144068 92.777168 
L 395.229869 99.626706 
L 396.31567 111.231882 
L 397.401472 102.607852 
L 398.487273 101.791586 
L 398.487273 101.791586 
" clip-path="url(#p952d1ad8e8)" style="fill: none; stroke: #d62728; stroke-width: 1.5; stroke-linecap: square"/>
   </g>
   <g id="line2d_22">
    <path d="M 368.08484 177.447345 
L 369.170642 178.548753 
L 370.256443 185.230632 
L 371.342244 190.370539 
L 372.428045 187.506877 
L 373.513846 195.510446 
L 374.599647 180.996328 
L 375.685448 183.933418 
L 376.77125 185.989381 
L 377.857051 191.667754 
L 378.942852 182.318018 
L 380.028653 188.388004 
L 381.114454 183.272573 
L 382.200255 187.090789 
L 383.286057 189.415985 
L 384.371858 192.84259 
L 385.457659 189.073325 
L 386.54346 193.723717 
L 387.629261 195.461495 
L 388.715062 203.024501 
L 389.800863 194.629319 
L 390.886665 211.297303 
L 391.972466 210.758837 
L 393.058267 215.311326 
L 394.144068 202.804219 
L 395.229869 209.192389 
L 396.31567 217.685473 
L 397.401472 206.818242 
L 398.487273 206.891669 
L 398.487273 206.891669 
" clip-path="url(#p952d1ad8e8)" style="fill: none; stroke: #9467bd; stroke-width: 1.5; stroke-linecap: square"/>
   </g>
   <g id="patch_3">
    <path d="M 57.6 307.584 
L 57.6 41.472 
" style="fill: none; stroke: #000000; stroke-width: 0.8; stroke-linejoin: miter; stroke-linecap: square"/>
   </g>
   <g id="patch_4">
    <path d="M 414.72 307.584 
L 414.72 41.472 
" style="fill: none; stroke: #000000; stroke-width: 0.8; stroke-linejoin: miter; stroke-linecap: square"/>
   </g>
   <g id="patch_5">
    <path d="M 57.6 307.584 
L 414.72 307.584 
" style="fill: none; stroke: #000000; stroke-width: 0.8; stroke-linejoin: miter; stroke-linecap: square"/>
   </g>
   <g id="patch_6">
    <path d="M 57.6 41.472 
L 414.72 41.472 
" style="fill: none; stroke: #000000; stroke-width: 0.8; stroke-linejoin: miter; stroke-linecap: square"/>
   </g>
   <g id="text_20">
    <!-- Learning Curves -->
    <g transform="translate(187.37625 35.472) scale(0.12 -0.12)">
     <defs>
      <path id="DejaVuSans-4c" d="M 628 4666 
L 1259 4666 
L 1259 531 
L 3531 531 
L 3531 0 
L 628 0 
L 628 4666 
z
" transform="scale(0.015625)"/>
      <path id="DejaVuSans-65" d="M 3597 1894 
L 3597 1613 
L 953 1613 
Q 991 1019 1311 708 
Q 1631 397 2203 397 
Q 2534 397 2845 478 
Q 3156 559 3463 722 
L 3463 178 
Q 3153 47 2828 -22 
Q 2503 -91 2169 -91 
Q 1331 -91 842 396 
Q 353 884 353 1716 
Q 353 2575 817 3079 
Q 1281 3584 2069 3584 
Q 2775 3584 3186 3129 
Q 3597 2675 3597 1894 
z
M 3022 2063 
Q 3016 2534 2758 2815 
Q 2500 3097 2075 3097 
Q 1594 3097 1305 2825 
Q 1016 2553 972 2059 
L 3022 2063 
z
" transform="scale(0.015625)"/>
      <path id="DejaVuSans-6e" d="M 3513 2113 
L 3513 0 
L 2938 0 
L 2938 2094 
Q 2938 2591 2744 2837 
Q 2550 3084 2163 3084 
Q 1697 3084 1428 2787 
Q 1159 2491 1159 1978 
L 1159 0 
L 581 0 
L 581 3500 
L 1159 3500 
L 1159 2956 
Q 1366 3272 1645 3428 
Q 1925 3584 2291 3584 
Q 2894 3584 3203 3211 
Q 3513 2838 3513 2113 
z
" transform="scale(0.015625)"/>
      <path id="DejaVuSans-69" d="M 603 3500 
L 1178 3500 
L 1178 0 
L 603 0 
L 603 3500 
z
M 603 4863 
L 1178 4863 
L 1178 4134 
L 603 4134 
L 603 4863 
z
" transform="scale(0.015625)"/>
      <path id="DejaVuSans-67" d="M 2906 1791 
Q 2906 2416 2648 2759 
Q 2391 3103 1925 3103 
Q 1463 3103 1205 2759 
Q 947 2416 947 1791 
Q 947 1169 1205 825 
Q 1463 481 1925 481 
Q 2391 481 2648 825 
Q 2906 1169 2906 1791 
z
M 3481 434 
Q 3481 -459 3084 -895 
Q 2688 -1331 1869 -1331 
Q 1566 -1331 1297 -1286 
Q 1028 -1241 775 -1147 
L 775 -588 
Q 1028 -725 1275 -790 
Q 1522 -856 1778 -856 
Q 2344 -856 2625 -561 
Q 2906 -266 2906 331 
L 2906 616 
Q 2728 306 2450 153 
Q 2172 0 1784 0 
Q 1141 0 747 490 
Q 353 981 353 1791 
Q 353 2603 747 3093 
Q 1141 3584 1784 3584 
Q 2172 3584 2450 3431 
Q 2728 3278 2906 2969 
L 2906 3500 
L 3481 3500 
L 3481 434 
z
" transform="scale(0.015625)"/>
      <path id="DejaVuSans-20" transform="scale(0.015625)"/>
      <path id="DejaVuSans-43" d="M 4122 4306 
L 4122 3641 
Q 3803 3938 3442 4084 
Q 3081 4231 2675 4231 
Q 1875 4231 1450 3742 
Q 1025 3253 1025 2328 
Q 1025 1406 1450 917 
Q 1875 428 2675 428 
Q 3081 428 3442 575 
Q 3803 722 4122 1019 
L 4122 359 
Q 3791 134 3420 21 
Q 3050 -91 2638 -91 
Q 1578 -91 968 557 
Q 359 1206 359 2328 
Q 359 3453 968 4101 
Q 1578 4750 2638 4750 
Q 3056 4750 3426 4639 
Q 3797 4528 4122 4306 
z
" transform="scale(0.015625)"/>
      <path id="DejaVuSans-76" d="M 191 3500 
L 800 3500 
L 1894 563 
L 2988 3500 
L 3597 3500 
L 2284 0 
L 1503 0 
L 191 3500 
z
" transform="scale(0.015625)"/>
     </defs>
     <use xlink:href="#DejaVuSans-4c"/>
     <use xlink:href="#DejaVuSans-65" x="53.962891"/>
     <use xlink:href="#DejaVuSans-61" x="115.486328"/>
     <use xlink:href="#DejaVuSans-72" x="176.765625"/>
     <use xlink:href="#DejaVuSans-6e" x="216.128906"/>
     <use xlink:href="#DejaVuSans-69" x="279.507812"/>
     <use xlink:href="#DejaVuSans-6e" x="307.291016"/>
     <use xlink:href="#DejaVuSans-67" x="370.669922"/>
     <use xlink:href="#DejaVuSans-20" x="434.146484"/>
     <use xlink:href="#DejaVuSans-43" x="465.933594"/>
     <use xlink:href="#DejaVuSans-75" x="535.757812"/>
     <use xlink:href="#DejaVuSans-72" x="599.136719"/>
     <use xlink:href="#DejaVuSans-76" x="640.25"/>
     <use xlink:href="#DejaVuSans-65" x="699.429688"/>
     <use xlink:href="#DejaVuSans-73" x="760.953125"/>
    </g>
   </g>
   <g id="legend_1">
    <g id="patch_7">
     <path d="M 214.18875 302.584 
L 407.72 302.584 
Q 409.72 302.584 409.72 300.584 
L 409.72 228.193375 
Q 409.72 226.193375 407.72 226.193375 
L 214.18875 226.193375 
Q 212.18875 226.193375 212.18875 228.193375 
L 212.18875 300.584 
Q 212.18875 302.584 214.18875 302.584 
z
" style="fill: #ffffff; opacity: 0.8; stroke: #cccccc; stroke-linejoin: miter"/>
    </g>
    <g id="line2d_23">
     <path d="M 216.18875 234.291812 
L 226.18875 234.291812 
L 236.18875 234.291812 
" style="fill: none; stroke: #1f77b4; stroke-width: 1.5; stroke-linecap: square"/>
    </g>
    <g id="text_21">
     <!-- Train Accuracy -->
     <g transform="translate(244.18875 237.791812) scale(0.1 -0.1)">
      <defs>
       <path id="DejaVuSans-54" d="M -19 4666 
L 3928 4666 
L 3928 4134 
L 2272 4134 
L 2272 0 
L 1638 0 
L 1638 4134 
L -19 4134 
L -19 4666 
z
" transform="scale(0.015625)"/>
      </defs>
      <use xlink:href="#DejaVuSans-54"/>
      <use xlink:href="#DejaVuSans-72" x="46.333984"/>
      <use xlink:href="#DejaVuSans-61" x="87.447266"/>
      <use xlink:href="#DejaVuSans-69" x="148.726562"/>
      <use xlink:href="#DejaVuSans-6e" x="176.509766"/>
      <use xlink:href="#DejaVuSans-20" x="239.888672"/>
      <use xlink:href="#DejaVuSans-41" x="271.675781"/>
      <use xlink:href="#DejaVuSans-63" x="338.333984"/>
      <use xlink:href="#DejaVuSans-63" x="393.314453"/>
      <use xlink:href="#DejaVuSans-75" x="448.294922"/>
      <use xlink:href="#DejaVuSans-72" x="511.673828"/>
      <use xlink:href="#DejaVuSans-61" x="552.787109"/>
      <use xlink:href="#DejaVuSans-63" x="614.066406"/>
      <use xlink:href="#DejaVuSans-79" x="669.046875"/>
     </g>
    </g>
    <g id="line2d_24">
     <path d="M 216.18875 248.969937 
L 226.18875 248.969937 
L 236.18875 248.969937 
" style="fill: none; stroke: #ff7f0e; stroke-width: 1.5; stroke-linecap: square"/>
    </g>
    <g id="text_22">
     <!-- Validation Accuracy -->
     <g transform="translate(244.18875 252.469937) scale(0.1 -0.1)">
      <defs>
       <path id="DejaVuSans-56" d="M 1831 0 
L 50 4666 
L 709 4666 
L 2188 738 
L 3669 4666 
L 4325 4666 
L 2547 0 
L 1831 0 
z
" transform="scale(0.015625)"/>
       <path id="DejaVuSans-6c" d="M 603 4863 
L 1178 4863 
L 1178 0 
L 603 0 
L 603 4863 
z
" transform="scale(0.015625)"/>
       <path id="DejaVuSans-64" d="M 2906 2969 
L 2906 4863 
L 3481 4863 
L 3481 0 
L 2906 0 
L 2906 525 
Q 2725 213 2448 61 
Q 2172 -91 1784 -91 
Q 1150 -91 751 415 
Q 353 922 353 1747 
Q 353 2572 751 3078 
Q 1150 3584 1784 3584 
Q 2172 3584 2448 3432 
Q 2725 3281 2906 2969 
z
M 947 1747 
Q 947 1113 1208 752 
Q 1469 391 1925 391 
Q 2381 391 2643 752 
Q 2906 1113 2906 1747 
Q 2906 2381 2643 2742 
Q 2381 3103 1925 3103 
Q 1469 3103 1208 2742 
Q 947 2381 947 1747 
z
" transform="scale(0.015625)"/>
       <path id="DejaVuSans-74" d="M 1172 4494 
L 1172 3500 
L 2356 3500 
L 2356 3053 
L 1172 3053 
L 1172 1153 
Q 1172 725 1289 603 
Q 1406 481 1766 481 
L 2356 481 
L 2356 0 
L 1766 0 
Q 1100 0 847 248 
Q 594 497 594 1153 
L 594 3053 
L 172 3053 
L 172 3500 
L 594 3500 
L 594 4494 
L 1172 4494 
z
" transform="scale(0.015625)"/>
      </defs>
      <use xlink:href="#DejaVuSans-56"/>
      <use xlink:href="#DejaVuSans-61" x="60.658203"/>
      <use xlink:href="#DejaVuSans-6c" x="121.9375"/>
      <use xlink:href="#DejaVuSans-69" x="149.720703"/>
      <use xlink:href="#DejaVuSans-64" x="177.503906"/>
      <use xlink:href="#DejaVuSans-61" x="240.980469"/>
      <use xlink:href="#DejaVuSans-74" x="302.259766"/>
      <use xlink:href="#DejaVuSans-69" x="341.46875"/>
      <use xlink:href="#DejaVuSans-6f" x="369.251953"/>
      <use xlink:href="#DejaVuSans-6e" x="430.433594"/>
      <use xlink:href="#DejaVuSans-20" x="493.8125"/>
      <use xlink:href="#DejaVuSans-41" x="525.599609"/>
      <use xlink:href="#DejaVuSans-63" x="592.257812"/>
      <use xlink:href="#DejaVuSans-63" x="647.238281"/>
      <use xlink:href="#DejaVuSans-75" x="702.21875"/>
      <use xlink:href="#DejaVuSans-72" x="765.597656"/>
      <use xlink:href="#DejaVuSans-61" x="806.710938"/>
      <use xlink:href="#DejaVuSans-63" x="867.990234"/>
      <use xlink:href="#DejaVuSans-79" x="922.970703"/>
     </g>
    </g>
    <g id="line2d_25">
     <path d="M 216.18875 263.648062 
L 226.18875 263.648062 
L 236.18875 263.648062 
" style="fill: none; stroke: #2ca02c; stroke-width: 1.5; stroke-linecap: square"/>
    </g>
    <g id="text_23">
     <!-- Robust Validation Accuracy -->
     <g transform="translate(244.18875 267.148062) scale(0.1 -0.1)">
      <defs>
       <path id="DejaVuSans-52" d="M 2841 2188 
Q 3044 2119 3236 1894 
Q 3428 1669 3622 1275 
L 4263 0 
L 3584 0 
L 2988 1197 
Q 2756 1666 2539 1819 
Q 2322 1972 1947 1972 
L 1259 1972 
L 1259 0 
L 628 0 
L 628 4666 
L 2053 4666 
Q 2853 4666 3247 4331 
Q 3641 3997 3641 3322 
Q 3641 2881 3436 2590 
Q 3231 2300 2841 2188 
z
M 1259 4147 
L 1259 2491 
L 2053 2491 
Q 2509 2491 2742 2702 
Q 2975 2913 2975 3322 
Q 2975 3731 2742 3939 
Q 2509 4147 2053 4147 
L 1259 4147 
z
" transform="scale(0.015625)"/>
       <path id="DejaVuSans-62" d="M 3116 1747 
Q 3116 2381 2855 2742 
Q 2594 3103 2138 3103 
Q 1681 3103 1420 2742 
Q 1159 2381 1159 1747 
Q 1159 1113 1420 752 
Q 1681 391 2138 391 
Q 2594 391 2855 752 
Q 3116 1113 3116 1747 
z
M 1159 2969 
Q 1341 3281 1617 3432 
Q 1894 3584 2278 3584 
Q 2916 3584 3314 3078 
Q 3713 2572 3713 1747 
Q 3713 922 3314 415 
Q 2916 -91 2278 -91 
Q 1894 -91 1617 61 
Q 1341 213 1159 525 
L 1159 0 
L 581 0 
L 581 4863 
L 1159 4863 
L 1159 2969 
z
" transform="scale(0.015625)"/>
      </defs>
      <use xlink:href="#DejaVuSans-52"/>
      <use xlink:href="#DejaVuSans-6f" x="64.982422"/>
      <use xlink:href="#DejaVuSans-62" x="126.164062"/>
      <use xlink:href="#DejaVuSans-75" x="189.640625"/>
      <use xlink:href="#DejaVuSans-73" x="253.019531"/>
      <use xlink:href="#DejaVuSans-74" x="305.119141"/>
      <use xlink:href="#DejaVuSans-20" x="344.328125"/>
      <use xlink:href="#DejaVuSans-56" x="376.115234"/>
      <use xlink:href="#DejaVuSans-61" x="436.773438"/>
      <use xlink:href="#DejaVuSans-6c" x="498.052734"/>
      <use xlink:href="#DejaVuSans-69" x="525.835938"/>
      <use xlink:href="#DejaVuSans-64" x="553.619141"/>
      <use xlink:href="#DejaVuSans-61" x="617.095703"/>
      <use xlink:href="#DejaVuSans-74" x="678.375"/>
      <use xlink:href="#DejaVuSans-69" x="717.583984"/>
      <use xlink:href="#DejaVuSans-6f" x="745.367188"/>
      <use xlink:href="#DejaVuSans-6e" x="806.548828"/>
      <use xlink:href="#DejaVuSans-20" x="869.927734"/>
      <use xlink:href="#DejaVuSans-41" x="901.714844"/>
      <use xlink:href="#DejaVuSans-63" x="968.373047"/>
      <use xlink:href="#DejaVuSans-63" x="1023.353516"/>
      <use xlink:href="#DejaVuSans-75" x="1078.333984"/>
      <use xlink:href="#DejaVuSans-72" x="1141.712891"/>
      <use xlink:href="#DejaVuSans-61" x="1182.826172"/>
      <use xlink:href="#DejaVuSans-63" x="1244.105469"/>
      <use xlink:href="#DejaVuSans-79" x="1299.085938"/>
     </g>
    </g>
    <g id="line2d_26">
     <path d="M 216.18875 278.326188 
L 226.18875 278.326188 
L 236.18875 278.326188 
" style="fill: none; stroke: #d62728; stroke-width: 1.5; stroke-linecap: square"/>
    </g>
    <g id="text_24">
     <!-- SWA Validation Accuracy -->
     <g transform="translate(244.18875 281.826188) scale(0.1 -0.1)">
      <defs>
       <path id="DejaVuSans-53" d="M 3425 4513 
L 3425 3897 
Q 3066 4069 2747 4153 
Q 2428 4238 2131 4238 
Q 1616 4238 1336 4038 
Q 1056 3838 1056 3469 
Q 1056 3159 1242 3001 
Q 1428 2844 1947 2747 
L 2328 2669 
Q 3034 2534 3370 2195 
Q 3706 1856 3706 1288 
Q 3706 609 3251 259 
Q 2797 -91 1919 -91 
Q 1588 -91 1214 -16 
Q 841 59 441 206 
L 441 856 
Q 825 641 1194 531 
Q 1563 422 1919 422 
Q 2459 422 2753 634 
Q 3047 847 3047 1241 
Q 3047 1584 2836 1778 
Q 2625 1972 2144 2069 
L 1759 2144 
Q 1053 2284 737 2584 
Q 422 2884 422 3419 
Q 422 4038 858 4394 
Q 1294 4750 2059 4750 
Q 2388 4750 2728 4690 
Q 3069 4631 3425 4513 
z
" transform="scale(0.015625)"/>
       <path id="DejaVuSans-57" d="M 213 4666 
L 850 4666 
L 1831 722 
L 2809 4666 
L 3519 4666 
L 4500 722 
L 5478 4666 
L 6119 4666 
L 4947 0 
L 4153 0 
L 3169 4050 
L 2175 0 
L 1381 0 
L 213 4666 
z
" transform="scale(0.015625)"/>
      </defs>
      <use xlink:href="#DejaVuSans-53"/>
      <use xlink:href="#DejaVuSans-57" x="63.476562"/>
      <use xlink:href="#DejaVuSans-41" x="156.853516"/>
      <use xlink:href="#DejaVuSans-20" x="225.261719"/>
      <use xlink:href="#DejaVuSans-56" x="257.048828"/>
      <use xlink:href="#DejaVuSans-61" x="317.707031"/>
      <use xlink:href="#DejaVuSans-6c" x="378.986328"/>
      <use xlink:href="#DejaVuSans-69" x="406.769531"/>
      <use xlink:href="#DejaVuSans-64" x="434.552734"/>
      <use xlink:href="#DejaVuSans-61" x="498.029297"/>
      <use xlink:href="#DejaVuSans-74" x="559.308594"/>
      <use xlink:href="#DejaVuSans-69" x="598.517578"/>
      <use xlink:href="#DejaVuSans-6f" x="626.300781"/>
      <use xlink:href="#DejaVuSans-6e" x="687.482422"/>
      <use xlink:href="#DejaVuSans-20" x="750.861328"/>
      <use xlink:href="#DejaVuSans-41" x="782.648438"/>
      <use xlink:href="#DejaVuSans-63" x="849.306641"/>
      <use xlink:href="#DejaVuSans-63" x="904.287109"/>
      <use xlink:href="#DejaVuSans-75" x="959.267578"/>
      <use xlink:href="#DejaVuSans-72" x="1022.646484"/>
      <use xlink:href="#DejaVuSans-61" x="1063.759766"/>
      <use xlink:href="#DejaVuSans-63" x="1125.039062"/>
      <use xlink:href="#DejaVuSans-79" x="1180.019531"/>
     </g>
    </g>
    <g id="line2d_27">
     <path d="M 216.18875 293.004312 
L 226.18875 293.004312 
L 236.18875 293.004312 
" style="fill: none; stroke: #9467bd; stroke-width: 1.5; stroke-linecap: square"/>
    </g>
    <g id="text_25">
     <!-- SWA Robust Validation Accuracy -->
     <g transform="translate(244.18875 296.504312) scale(0.1 -0.1)">
      <use xlink:href="#DejaVuSans-53"/>
      <use xlink:href="#DejaVuSans-57" x="63.476562"/>
      <use xlink:href="#DejaVuSans-41" x="156.853516"/>
      <use xlink:href="#DejaVuSans-20" x="225.261719"/>
      <use xlink:href="#DejaVuSans-52" x="257.048828"/>
      <use xlink:href="#DejaVuSans-6f" x="322.03125"/>
      <use xlink:href="#DejaVuSans-62" x="383.212891"/>
      <use xlink:href="#DejaVuSans-75" x="446.689453"/>
      <use xlink:href="#DejaVuSans-73" x="510.068359"/>
      <use xlink:href="#DejaVuSans-74" x="562.167969"/>
      <use xlink:href="#DejaVuSans-20" x="601.376953"/>
      <use xlink:href="#DejaVuSans-56" x="633.164062"/>
      <use xlink:href="#DejaVuSans-61" x="693.822266"/>
      <use xlink:href="#DejaVuSans-6c" x="755.101562"/>
      <use xlink:href="#DejaVuSans-69" x="782.884766"/>
      <use xlink:href="#DejaVuSans-64" x="810.667969"/>
      <use xlink:href="#DejaVuSans-61" x="874.144531"/>
      <use xlink:href="#DejaVuSans-74" x="935.423828"/>
      <use xlink:href="#DejaVuSans-69" x="974.632812"/>
      <use xlink:href="#DejaVuSans-6f" x="1002.416016"/>
      <use xlink:href="#DejaVuSans-6e" x="1063.597656"/>
      <use xlink:href="#DejaVuSans-20" x="1126.976562"/>
      <use xlink:href="#DejaVuSans-41" x="1158.763672"/>
      <use xlink:href="#DejaVuSans-63" x="1225.421875"/>
      <use xlink:href="#DejaVuSans-63" x="1280.402344"/>
      <use xlink:href="#DejaVuSans-75" x="1335.382812"/>
      <use xlink:href="#DejaVuSans-72" x="1398.761719"/>
      <use xlink:href="#DejaVuSans-61" x="1439.875"/>
      <use xlink:href="#DejaVuSans-63" x="1501.154297"/>
      <use xlink:href="#DejaVuSans-79" x="1556.134766"/>
     </g>
    </g>
   </g>
  </g>
 </g>
 <defs>
  <clipPath id="p952d1ad8e8">
   <rect x="57.6" y="41.472" width="357.12" height="266.112"/>
  </clipPath>
 </defs>
</svg>
