<?xml version="1.0" encoding="utf-8" standalone="no"?>
<!DOCTYPE svg PUBLIC "-//W3C//DTD SVG 1.1//EN"
  "http://www.w3.org/Graphics/SVG/1.1/DTD/svg11.dtd">
<svg xmlns:xlink="http://www.w3.org/1999/xlink" width="460.8pt" height="345.6pt" viewBox="0 0 460.8 345.6" xmlns="http://www.w3.org/2000/svg" version="1.1">
 <metadata>
  <rdf:RDF xmlns:dc="http://purl.org/dc/elements/1.1/" xmlns:cc="http://creativecommons.org/ns#" xmlns:rdf="http://www.w3.org/1999/02/22-rdf-syntax-ns#">
   <cc:Work>
    <dc:type rdf:resource="http://purl.org/dc/dcmitype/StillImage"/>
    <dc:date>2025-03-22T21:01:38.488630</dc:date>
    <dc:format>image/svg+xml</dc:format>
    <dc:creator>
     <cc:Agent>
      <dc:title>Matplotlib v3.9.1, https://matplotlib.org/</dc:title>
     </cc:Agent>
    </dc:creator>
   </cc:Work>
  </rdf:RDF>
 </metadata>
 <defs>
  <style type="text/css">*{stroke-linejoin: round; stroke-linecap: butt}</style>
 </defs>
 <g id="figure_1">
  <g id="patch_1">
   <path d="M 0 345.6 
L 460.8 345.6 
L 460.8 0 
L 0 0 
z
" style="fill: #ffffff"/>
  </g>
  <g id="axes_1">
   <g id="patch_2">
    <path d="M 57.6 307.584 
L 414.72 307.584 
L 414.72 41.472 
L 57.6 41.472 
z
" style="fill: #ffffff"/>
   </g>
   <g id="matplotlib.axis_1">
    <g id="xtick_1">
     <g id="line2d_1">
      <defs>
       <path id="me5dc283ed5" d="M 0 0 
L 0 3.5 
" style="stroke: #000000; stroke-width: 0.8"/>
      </defs>
      <g>
       <use xlink:href="#me5dc283ed5" x="73.832727" y="307.584" style="stroke: #000000; stroke-width: 0.8"/>
      </g>
     </g>
     <g id="text_1">
      <!-- 1 -->
      <g transform="translate(70.651477 322.182437) scale(0.1 -0.1)">
       <defs>
        <path id="DejaVuSans-31" d="M 794 531 
L 1825 531 
L 1825 4091 
L 703 3866 
L 703 4441 
L 1819 4666 
L 2450 4666 
L 2450 531 
L 3481 531 
L 3481 0 
L 794 0 
L 794 531 
z
" transform="scale(0.015625)"/>
       </defs>
       <use xlink:href="#DejaVuSans-31"/>
      </g>
     </g>
    </g>
    <g id="xtick_2">
     <g id="line2d_2">
      <g>
       <use xlink:href="#me5dc283ed5" x="109.664165" y="307.584" style="stroke: #000000; stroke-width: 0.8"/>
      </g>
     </g>
     <g id="text_2">
      <!-- 34 -->
      <g transform="translate(103.301665 322.182437) scale(0.1 -0.1)">
       <defs>
        <path id="DejaVuSans-33" d="M 2597 2516 
Q 3050 2419 3304 2112 
Q 3559 1806 3559 1356 
Q 3559 666 3084 287 
Q 2609 -91 1734 -91 
Q 1441 -91 1130 -33 
Q 819 25 488 141 
L 488 750 
Q 750 597 1062 519 
Q 1375 441 1716 441 
Q 2309 441 2620 675 
Q 2931 909 2931 1356 
Q 2931 1769 2642 2001 
Q 2353 2234 1838 2234 
L 1294 2234 
L 1294 2753 
L 1863 2753 
Q 2328 2753 2575 2939 
Q 2822 3125 2822 3475 
Q 2822 3834 2567 4026 
Q 2313 4219 1838 4219 
Q 1578 4219 1281 4162 
Q 984 4106 628 3988 
L 628 4550 
Q 988 4650 1302 4700 
Q 1616 4750 1894 4750 
Q 2613 4750 3031 4423 
Q 3450 4097 3450 3541 
Q 3450 3153 3228 2886 
Q 3006 2619 2597 2516 
z
" transform="scale(0.015625)"/>
        <path id="DejaVuSans-34" d="M 2419 4116 
L 825 1625 
L 2419 1625 
L 2419 4116 
z
M 2253 4666 
L 3047 4666 
L 3047 1625 
L 3713 1625 
L 3713 1100 
L 3047 1100 
L 3047 0 
L 2419 0 
L 2419 1100 
L 313 1100 
L 313 1709 
L 2253 4666 
z
" transform="scale(0.015625)"/>
       </defs>
       <use xlink:href="#DejaVuSans-33"/>
       <use xlink:href="#DejaVuSans-34" x="63.623047"/>
      </g>
     </g>
    </g>
    <g id="xtick_3">
     <g id="line2d_3">
      <g>
       <use xlink:href="#me5dc283ed5" x="145.495604" y="307.584" style="stroke: #000000; stroke-width: 0.8"/>
      </g>
     </g>
     <g id="text_3">
      <!-- 67 -->
      <g transform="translate(139.133104 322.182437) scale(0.1 -0.1)">
       <defs>
        <path id="DejaVuSans-36" d="M 2113 2584 
Q 1688 2584 1439 2293 
Q 1191 2003 1191 1497 
Q 1191 994 1439 701 
Q 1688 409 2113 409 
Q 2538 409 2786 701 
Q 3034 994 3034 1497 
Q 3034 2003 2786 2293 
Q 2538 2584 2113 2584 
z
M 3366 4563 
L 3366 3988 
Q 3128 4100 2886 4159 
Q 2644 4219 2406 4219 
Q 1781 4219 1451 3797 
Q 1122 3375 1075 2522 
Q 1259 2794 1537 2939 
Q 1816 3084 2150 3084 
Q 2853 3084 3261 2657 
Q 3669 2231 3669 1497 
Q 3669 778 3244 343 
Q 2819 -91 2113 -91 
Q 1303 -91 875 529 
Q 447 1150 447 2328 
Q 447 3434 972 4092 
Q 1497 4750 2381 4750 
Q 2619 4750 2861 4703 
Q 3103 4656 3366 4563 
z
" transform="scale(0.015625)"/>
        <path id="DejaVuSans-37" d="M 525 4666 
L 3525 4666 
L 3525 4397 
L 1831 0 
L 1172 0 
L 2766 4134 
L 525 4134 
L 525 4666 
z
" transform="scale(0.015625)"/>
       </defs>
       <use xlink:href="#DejaVuSans-36"/>
       <use xlink:href="#DejaVuSans-37" x="63.623047"/>
      </g>
     </g>
    </g>
    <g id="xtick_4">
     <g id="line2d_4">
      <g>
       <use xlink:href="#me5dc283ed5" x="181.327042" y="307.584" style="stroke: #000000; stroke-width: 0.8"/>
      </g>
     </g>
     <g id="text_4">
      <!-- 100 -->
      <g transform="translate(171.783292 322.182437) scale(0.1 -0.1)">
       <defs>
        <path id="DejaVuSans-30" d="M 2034 4250 
Q 1547 4250 1301 3770 
Q 1056 3291 1056 2328 
Q 1056 1369 1301 889 
Q 1547 409 2034 409 
Q 2525 409 2770 889 
Q 3016 1369 3016 2328 
Q 3016 3291 2770 3770 
Q 2525 4250 2034 4250 
z
M 2034 4750 
Q 2819 4750 3233 4129 
Q 3647 3509 3647 2328 
Q 3647 1150 3233 529 
Q 2819 -91 2034 -91 
Q 1250 -91 836 529 
Q 422 1150 422 2328 
Q 422 3509 836 4129 
Q 1250 4750 2034 4750 
z
" transform="scale(0.015625)"/>
       </defs>
       <use xlink:href="#DejaVuSans-31"/>
       <use xlink:href="#DejaVuSans-30" x="63.623047"/>
       <use xlink:href="#DejaVuSans-30" x="127.246094"/>
      </g>
     </g>
    </g>
    <g id="xtick_5">
     <g id="line2d_5">
      <g>
       <use xlink:href="#me5dc283ed5" x="217.15848" y="307.584" style="stroke: #000000; stroke-width: 0.8"/>
      </g>
     </g>
     <g id="text_5">
      <!-- 133 -->
      <g transform="translate(207.61473 322.182437) scale(0.1 -0.1)">
       <use xlink:href="#DejaVuSans-31"/>
       <use xlink:href="#DejaVuSans-33" x="63.623047"/>
       <use xlink:href="#DejaVuSans-33" x="127.246094"/>
      </g>
     </g>
    </g>
    <g id="xtick_6">
     <g id="line2d_6">
      <g>
       <use xlink:href="#me5dc283ed5" x="254.075719" y="307.584" style="stroke: #000000; stroke-width: 0.8"/>
      </g>
     </g>
     <g id="text_6">
      <!-- 167 -->
      <g transform="translate(244.531969 322.182437) scale(0.1 -0.1)">
       <use xlink:href="#DejaVuSans-31"/>
       <use xlink:href="#DejaVuSans-36" x="63.623047"/>
       <use xlink:href="#DejaVuSans-37" x="127.246094"/>
      </g>
     </g>
    </g>
    <g id="xtick_7">
     <g id="line2d_7">
      <g>
       <use xlink:href="#me5dc283ed5" x="289.907157" y="307.584" style="stroke: #000000; stroke-width: 0.8"/>
      </g>
     </g>
     <g id="text_7">
      <!-- 200 -->
      <g transform="translate(280.363407 322.182437) scale(0.1 -0.1)">
       <defs>
        <path id="DejaVuSans-32" d="M 1228 531 
L 3431 531 
L 3431 0 
L 469 0 
L 469 531 
Q 828 903 1448 1529 
Q 2069 2156 2228 2338 
Q 2531 2678 2651 2914 
Q 2772 3150 2772 3378 
Q 2772 3750 2511 3984 
Q 2250 4219 1831 4219 
Q 1534 4219 1204 4116 
Q 875 4013 500 3803 
L 500 4441 
Q 881 4594 1212 4672 
Q 1544 4750 1819 4750 
Q 2544 4750 2975 4387 
Q 3406 4025 3406 3419 
Q 3406 3131 3298 2873 
Q 3191 2616 2906 2266 
Q 2828 2175 2409 1742 
Q 1991 1309 1228 531 
z
" transform="scale(0.015625)"/>
       </defs>
       <use xlink:href="#DejaVuSans-32"/>
       <use xlink:href="#DejaVuSans-30" x="63.623047"/>
       <use xlink:href="#DejaVuSans-30" x="127.246094"/>
      </g>
     </g>
    </g>
    <g id="xtick_8">
     <g id="line2d_8">
      <g>
       <use xlink:href="#me5dc283ed5" x="325.738595" y="307.584" style="stroke: #000000; stroke-width: 0.8"/>
      </g>
     </g>
     <g id="text_8">
      <!-- 233 -->
      <g transform="translate(316.194845 322.182437) scale(0.1 -0.1)">
       <use xlink:href="#DejaVuSans-32"/>
       <use xlink:href="#DejaVuSans-33" x="63.623047"/>
       <use xlink:href="#DejaVuSans-33" x="127.246094"/>
      </g>
     </g>
    </g>
    <g id="xtick_9">
     <g id="line2d_9">
      <g>
       <use xlink:href="#me5dc283ed5" x="361.570033" y="307.584" style="stroke: #000000; stroke-width: 0.8"/>
      </g>
     </g>
     <g id="text_9">
      <!-- 266 -->
      <g transform="translate(352.026283 322.182437) scale(0.1 -0.1)">
       <use xlink:href="#DejaVuSans-32"/>
       <use xlink:href="#DejaVuSans-36" x="63.623047"/>
       <use xlink:href="#DejaVuSans-36" x="127.246094"/>
      </g>
     </g>
    </g>
    <g id="xtick_10">
     <g id="line2d_10">
      <g>
       <use xlink:href="#me5dc283ed5" x="398.487273" y="307.584" style="stroke: #000000; stroke-width: 0.8"/>
      </g>
     </g>
     <g id="text_10">
      <!-- 300 -->
      <g transform="translate(388.943523 322.182437) scale(0.1 -0.1)">
       <use xlink:href="#DejaVuSans-33"/>
       <use xlink:href="#DejaVuSans-30" x="63.623047"/>
       <use xlink:href="#DejaVuSans-30" x="127.246094"/>
      </g>
     </g>
    </g>
    <g id="text_11">
     <!-- Epochs -->
     <g transform="translate(218.244375 335.860562) scale(0.1 -0.1)">
      <defs>
       <path id="DejaVuSans-45" d="M 628 4666 
L 3578 4666 
L 3578 4134 
L 1259 4134 
L 1259 2753 
L 3481 2753 
L 3481 2222 
L 1259 2222 
L 1259 531 
L 3634 531 
L 3634 0 
L 628 0 
L 628 4666 
z
" transform="scale(0.015625)"/>
       <path id="DejaVuSans-70" d="M 1159 525 
L 1159 -1331 
L 581 -1331 
L 581 3500 
L 1159 3500 
L 1159 2969 
Q 1341 3281 1617 3432 
Q 1894 3584 2278 3584 
Q 2916 3584 3314 3078 
Q 3713 2572 3713 1747 
Q 3713 922 3314 415 
Q 2916 -91 2278 -91 
Q 1894 -91 1617 61 
Q 1341 213 1159 525 
z
M 3116 1747 
Q 3116 2381 2855 2742 
Q 2594 3103 2138 3103 
Q 1681 3103 1420 2742 
Q 1159 2381 1159 1747 
Q 1159 1113 1420 752 
Q 1681 391 2138 391 
Q 2594 391 2855 752 
Q 3116 1113 3116 1747 
z
" transform="scale(0.015625)"/>
       <path id="DejaVuSans-6f" d="M 1959 3097 
Q 1497 3097 1228 2736 
Q 959 2375 959 1747 
Q 959 1119 1226 758 
Q 1494 397 1959 397 
Q 2419 397 2687 759 
Q 2956 1122 2956 1747 
Q 2956 2369 2687 2733 
Q 2419 3097 1959 3097 
z
M 1959 3584 
Q 2709 3584 3137 3096 
Q 3566 2609 3566 1747 
Q 3566 888 3137 398 
Q 2709 -91 1959 -91 
Q 1206 -91 779 398 
Q 353 888 353 1747 
Q 353 2609 779 3096 
Q 1206 3584 1959 3584 
z
" transform="scale(0.015625)"/>
       <path id="DejaVuSans-63" d="M 3122 3366 
L 3122 2828 
Q 2878 2963 2633 3030 
Q 2388 3097 2138 3097 
Q 1578 3097 1268 2742 
Q 959 2388 959 1747 
Q 959 1106 1268 751 
Q 1578 397 2138 397 
Q 2388 397 2633 464 
Q 2878 531 3122 666 
L 3122 134 
Q 2881 22 2623 -34 
Q 2366 -91 2075 -91 
Q 1284 -91 818 406 
Q 353 903 353 1747 
Q 353 2603 823 3093 
Q 1294 3584 2113 3584 
Q 2378 3584 2631 3529 
Q 2884 3475 3122 3366 
z
" transform="scale(0.015625)"/>
       <path id="DejaVuSans-68" d="M 3513 2113 
L 3513 0 
L 2938 0 
L 2938 2094 
Q 2938 2591 2744 2837 
Q 2550 3084 2163 3084 
Q 1697 3084 1428 2787 
Q 1159 2491 1159 1978 
L 1159 0 
L 581 0 
L 581 4863 
L 1159 4863 
L 1159 2956 
Q 1366 3272 1645 3428 
Q 1925 3584 2291 3584 
Q 2894 3584 3203 3211 
Q 3513 2838 3513 2113 
z
" transform="scale(0.015625)"/>
       <path id="DejaVuSans-73" d="M 2834 3397 
L 2834 2853 
Q 2591 2978 2328 3040 
Q 2066 3103 1784 3103 
Q 1356 3103 1142 2972 
Q 928 2841 928 2578 
Q 928 2378 1081 2264 
Q 1234 2150 1697 2047 
L 1894 2003 
Q 2506 1872 2764 1633 
Q 3022 1394 3022 966 
Q 3022 478 2636 193 
Q 2250 -91 1575 -91 
Q 1294 -91 989 -36 
Q 684 19 347 128 
L 347 722 
Q 666 556 975 473 
Q 1284 391 1588 391 
Q 1994 391 2212 530 
Q 2431 669 2431 922 
Q 2431 1156 2273 1281 
Q 2116 1406 1581 1522 
L 1381 1569 
Q 847 1681 609 1914 
Q 372 2147 372 2553 
Q 372 3047 722 3315 
Q 1072 3584 1716 3584 
Q 2034 3584 2315 3537 
Q 2597 3491 2834 3397 
z
" transform="scale(0.015625)"/>
      </defs>
      <use xlink:href="#DejaVuSans-45"/>
      <use xlink:href="#DejaVuSans-70" x="63.183594"/>
      <use xlink:href="#DejaVuSans-6f" x="126.660156"/>
      <use xlink:href="#DejaVuSans-63" x="187.841797"/>
      <use xlink:href="#DejaVuSans-68" x="242.822266"/>
      <use xlink:href="#DejaVuSans-73" x="306.201172"/>
     </g>
    </g>
   </g>
   <g id="matplotlib.axis_2">
    <g id="ytick_1">
     <g id="line2d_11">
      <defs>
       <path id="m22617d77b8" d="M 0 0 
L -3.5 0 
" style="stroke: #000000; stroke-width: 0.8"/>
      </defs>
      <g>
       <use xlink:href="#m22617d77b8" x="57.6" y="306.907006" style="stroke: #000000; stroke-width: 0.8"/>
      </g>
     </g>
     <g id="text_12">
      <!-- 0 -->
      <g transform="translate(44.2375 310.706225) scale(0.1 -0.1)">
       <use xlink:href="#DejaVuSans-30"/>
      </g>
     </g>
    </g>
    <g id="ytick_2">
     <g id="line2d_12">
      <g>
       <use xlink:href="#m22617d77b8" x="57.6" y="270.497261" style="stroke: #000000; stroke-width: 0.8"/>
      </g>
     </g>
     <g id="text_13">
      <!-- 10 -->
      <g transform="translate(37.875 274.29648) scale(0.1 -0.1)">
       <use xlink:href="#DejaVuSans-31"/>
       <use xlink:href="#DejaVuSans-30" x="63.623047"/>
      </g>
     </g>
    </g>
    <g id="ytick_3">
     <g id="line2d_13">
      <g>
       <use xlink:href="#m22617d77b8" x="57.6" y="234.087516" style="stroke: #000000; stroke-width: 0.8"/>
      </g>
     </g>
     <g id="text_14">
      <!-- 20 -->
      <g transform="translate(37.875 237.886735) scale(0.1 -0.1)">
       <use xlink:href="#DejaVuSans-32"/>
       <use xlink:href="#DejaVuSans-30" x="63.623047"/>
      </g>
     </g>
    </g>
    <g id="ytick_4">
     <g id="line2d_14">
      <g>
       <use xlink:href="#m22617d77b8" x="57.6" y="197.677771" style="stroke: #000000; stroke-width: 0.8"/>
      </g>
     </g>
     <g id="text_15">
      <!-- 30 -->
      <g transform="translate(37.875 201.47699) scale(0.1 -0.1)">
       <use xlink:href="#DejaVuSans-33"/>
       <use xlink:href="#DejaVuSans-30" x="63.623047"/>
      </g>
     </g>
    </g>
    <g id="ytick_5">
     <g id="line2d_15">
      <g>
       <use xlink:href="#m22617d77b8" x="57.6" y="161.268026" style="stroke: #000000; stroke-width: 0.8"/>
      </g>
     </g>
     <g id="text_16">
      <!-- 40 -->
      <g transform="translate(37.875 165.067245) scale(0.1 -0.1)">
       <use xlink:href="#DejaVuSans-34"/>
       <use xlink:href="#DejaVuSans-30" x="63.623047"/>
      </g>
     </g>
    </g>
    <g id="ytick_6">
     <g id="line2d_16">
      <g>
       <use xlink:href="#m22617d77b8" x="57.6" y="124.858281" style="stroke: #000000; stroke-width: 0.8"/>
      </g>
     </g>
     <g id="text_17">
      <!-- 50 -->
      <g transform="translate(37.875 128.6575) scale(0.1 -0.1)">
       <defs>
        <path id="DejaVuSans-35" d="M 691 4666 
L 3169 4666 
L 3169 4134 
L 1269 4134 
L 1269 2991 
Q 1406 3038 1543 3061 
Q 1681 3084 1819 3084 
Q 2600 3084 3056 2656 
Q 3513 2228 3513 1497 
Q 3513 744 3044 326 
Q 2575 -91 1722 -91 
Q 1428 -91 1123 -41 
Q 819 9 494 109 
L 494 744 
Q 775 591 1075 516 
Q 1375 441 1709 441 
Q 2250 441 2565 725 
Q 2881 1009 2881 1497 
Q 2881 1984 2565 2268 
Q 2250 2553 1709 2553 
Q 1456 2553 1204 2497 
Q 953 2441 691 2322 
L 691 4666 
z
" transform="scale(0.015625)"/>
       </defs>
       <use xlink:href="#DejaVuSans-35"/>
       <use xlink:href="#DejaVuSans-30" x="63.623047"/>
      </g>
     </g>
    </g>
    <g id="ytick_7">
     <g id="line2d_17">
      <g>
       <use xlink:href="#m22617d77b8" x="57.6" y="88.448536" style="stroke: #000000; stroke-width: 0.8"/>
      </g>
     </g>
     <g id="text_18">
      <!-- 60 -->
      <g transform="translate(37.875 92.247755) scale(0.1 -0.1)">
       <use xlink:href="#DejaVuSans-36"/>
       <use xlink:href="#DejaVuSans-30" x="63.623047"/>
      </g>
     </g>
    </g>
    <g id="ytick_8">
     <g id="line2d_18">
      <g>
       <use xlink:href="#m22617d77b8" x="57.6" y="52.038791" style="stroke: #000000; stroke-width: 0.8"/>
      </g>
     </g>
     <g id="text_19">
      <!-- 70 -->
      <g transform="translate(37.875 55.838009) scale(0.1 -0.1)">
       <use xlink:href="#DejaVuSans-37"/>
       <use xlink:href="#DejaVuSans-30" x="63.623047"/>
      </g>
     </g>
    </g>
    <g id="text_20">
     <!-- Accuracy -->
     <g transform="translate(31.795312 197.356125) rotate(-90) scale(0.1 -0.1)">
      <defs>
       <path id="DejaVuSans-41" d="M 2188 4044 
L 1331 1722 
L 3047 1722 
L 2188 4044 
z
M 1831 4666 
L 2547 4666 
L 4325 0 
L 3669 0 
L 3244 1197 
L 1141 1197 
L 716 0 
L 50 0 
L 1831 4666 
z
" transform="scale(0.015625)"/>
       <path id="DejaVuSans-75" d="M 544 1381 
L 544 3500 
L 1119 3500 
L 1119 1403 
Q 1119 906 1312 657 
Q 1506 409 1894 409 
Q 2359 409 2629 706 
Q 2900 1003 2900 1516 
L 2900 3500 
L 3475 3500 
L 3475 0 
L 2900 0 
L 2900 538 
Q 2691 219 2414 64 
Q 2138 -91 1772 -91 
Q 1169 -91 856 284 
Q 544 659 544 1381 
z
M 1991 3584 
L 1991 3584 
z
" transform="scale(0.015625)"/>
       <path id="DejaVuSans-72" d="M 2631 2963 
Q 2534 3019 2420 3045 
Q 2306 3072 2169 3072 
Q 1681 3072 1420 2755 
Q 1159 2438 1159 1844 
L 1159 0 
L 581 0 
L 581 3500 
L 1159 3500 
L 1159 2956 
Q 1341 3275 1631 3429 
Q 1922 3584 2338 3584 
Q 2397 3584 2469 3576 
Q 2541 3569 2628 3553 
L 2631 2963 
z
" transform="scale(0.015625)"/>
       <path id="DejaVuSans-61" d="M 2194 1759 
Q 1497 1759 1228 1600 
Q 959 1441 959 1056 
Q 959 750 1161 570 
Q 1363 391 1709 391 
Q 2188 391 2477 730 
Q 2766 1069 2766 1631 
L 2766 1759 
L 2194 1759 
z
M 3341 1997 
L 3341 0 
L 2766 0 
L 2766 531 
Q 2569 213 2275 61 
Q 1981 -91 1556 -91 
Q 1019 -91 701 211 
Q 384 513 384 1019 
Q 384 1609 779 1909 
Q 1175 2209 1959 2209 
L 2766 2209 
L 2766 2266 
Q 2766 2663 2505 2880 
Q 2244 3097 1772 3097 
Q 1472 3097 1187 3025 
Q 903 2953 641 2809 
L 641 3341 
Q 956 3463 1253 3523 
Q 1550 3584 1831 3584 
Q 2591 3584 2966 3190 
Q 3341 2797 3341 1997 
z
" transform="scale(0.015625)"/>
       <path id="DejaVuSans-79" d="M 2059 -325 
Q 1816 -950 1584 -1140 
Q 1353 -1331 966 -1331 
L 506 -1331 
L 506 -850 
L 844 -850 
Q 1081 -850 1212 -737 
Q 1344 -625 1503 -206 
L 1606 56 
L 191 3500 
L 800 3500 
L 1894 763 
L 2988 3500 
L 3597 3500 
L 2059 -325 
z
" transform="scale(0.015625)"/>
      </defs>
      <use xlink:href="#DejaVuSans-41"/>
      <use xlink:href="#DejaVuSans-63" x="66.658203"/>
      <use xlink:href="#DejaVuSans-63" x="121.638672"/>
      <use xlink:href="#DejaVuSans-75" x="176.619141"/>
      <use xlink:href="#DejaVuSans-72" x="239.998047"/>
      <use xlink:href="#DejaVuSans-61" x="281.111328"/>
      <use xlink:href="#DejaVuSans-63" x="342.390625"/>
      <use xlink:href="#DejaVuSans-79" x="397.371094"/>
     </g>
    </g>
   </g>
   <g id="line2d_19">
    <path d="M 73.832727 295.488 
L 76.00433 266.118989 
L 77.090131 253.90352 
L 79.261733 233.532268 
L 80.347534 226.33224 
L 81.433335 217.994409 
L 82.519137 212.728649 
L 83.604938 205.8199 
L 87.948142 184.451931 
L 89.033943 180.506025 
L 90.119745 178.39426 
L 91.205546 174.202588 
L 92.291347 172.181847 
L 94.462949 169.65137 
L 95.54875 198.87019 
L 96.634552 195.88004 
L 97.720353 194.141475 
L 99.891955 185.967487 
L 100.977756 182.899966 
L 102.063557 180.610703 
L 103.149358 177.893626 
L 104.23516 174.675915 
L 105.320961 172.550496 
L 106.406762 170.92116 
L 107.492563 168.295107 
L 108.578364 165.373225 
L 109.664165 161.418216 
L 110.749967 161.600265 
L 112.921569 154.768886 
L 114.00737 154.486711 
L 116.178972 149.425756 
L 117.264773 147.418669 
L 119.436376 142.26669 
L 120.522177 141.770607 
L 121.607978 138.275272 
L 122.693779 136.855292 
L 123.77958 134.998395 
L 124.865382 131.412035 
L 125.951183 130.428972 
L 127.036984 128.931621 
L 128.122785 126.72428 
L 129.208586 125.832242 
L 130.294387 122.487096 
L 131.380189 123.033242 
L 132.46599 121.294677 
L 133.551791 120.780389 
L 134.637592 119.169258 
L 135.723393 120.498214 
L 136.809194 118.654971 
L 137.894995 119.43778 
L 138.980797 155.055613 
L 140.066598 159.306451 
L 141.152399 156.407325 
L 142.2382 156.616681 
L 143.324001 155.201252 
L 144.409802 154.859911 
L 145.495604 153.635633 
L 146.581405 152.001746 
L 147.667206 152.220204 
L 148.753007 149.839917 
L 149.838808 148.697561 
L 150.924609 147.828279 
L 153.096212 145.020177 
L 154.182013 145.252289 
L 155.267814 142.626236 
L 156.353615 142.480597 
L 157.439416 141.265422 
L 158.525217 140.550881 
L 159.611019 139.599676 
L 160.69682 138.825969 
L 161.782621 138.907891 
L 162.868422 137.151121 
L 163.954223 135.794858 
L 165.040024 135.362492 
L 166.125825 134.666156 
L 167.211627 133.205215 
L 169.383229 130.975118 
L 170.46903 129.97385 
L 171.554831 128.535665 
L 172.640632 128.048685 
L 173.726434 126.442105 
L 175.898036 123.907076 
L 178.069638 122.91036 
L 179.155439 121.854477 
L 180.24124 121.576853 
L 181.327042 119.182912 
L 182.412843 118.049659 
L 183.498644 117.826649 
L 184.584445 116.902752 
L 185.670246 114.499708 
L 187.841849 112.010192 
L 188.92765 111.996538 
L 190.013451 111.236485 
L 191.099252 108.969978 
L 193.270854 107.613715 
L 194.356656 107.490832 
L 195.442457 106.685267 
L 196.528258 104.30498 
L 197.614059 102.270585 
L 198.69986 102.930512 
L 199.785661 101.164639 
L 200.871462 101.952 
L 201.957264 99.708249 
L 203.043065 99.193962 
L 204.128866 96.72265 
L 205.214667 95.82606 
L 206.300468 95.352734 
L 208.472071 93.982817 
L 209.557872 92.936037 
L 210.643673 92.508222 
L 211.729474 91.807335 
L 212.815275 90.960808 
L 213.901076 90.724145 
L 214.986877 89.568135 
L 216.072679 89.190384 
L 217.15848 87.802263 
L 218.244281 87.852326 
L 219.330082 88.489497 
L 220.415883 87.738546 
L 221.501684 87.784058 
L 222.587486 87.49278 
L 223.673287 87.438165 
L 224.759088 87.08317 
L 225.844889 133.67399 
L 226.93069 136.527604 
L 229.102292 139.026223 
L 230.188094 137.915726 
L 231.273895 136.309146 
L 232.359696 136.459336 
L 233.445497 135.35339 
L 234.531298 135.271468 
L 235.617099 135.499029 
L 236.702901 133.514698 
L 238.874503 132.162986 
L 239.960304 132.545288 
L 241.046105 132.5908 
L 242.131906 133.136947 
L 243.217708 131.807991 
L 244.303509 131.348318 
L 247.560912 128.917967 
L 248.646713 129.586997 
L 249.732514 129.095465 
L 250.818316 127.261324 
L 251.904117 126.751588 
L 252.989918 127.830226 
L 254.075719 127.042866 
L 255.16152 126.76069 
L 256.247321 125.672949 
L 257.333123 127.015558 
L 258.418924 125.208725 
L 259.504725 124.111881 
L 260.590526 124.10733 
L 261.676327 124.653476 
L 262.762128 124.858281 
L 263.847929 122.737413 
L 264.933731 123.21074 
L 266.019532 122.223126 
L 267.105333 122.787477 
L 268.191134 121.909092 
L 269.276935 120.40719 
L 270.362736 120.006682 
L 271.448538 120.789492 
L 272.534339 119.719956 
L 274.705941 119.765468 
L 275.791742 118.891634 
L 276.877543 118.208951 
L 277.963344 117.143966 
L 279.049146 117.280503 
L 280.134947 116.993776 
L 281.220748 117.203132 
L 282.306549 116.324747 
L 283.39235 116.775317 
L 284.478151 114.982138 
L 285.563953 115.906035 
L 286.649754 113.726001 
L 287.735555 114.472401 
L 288.821356 113.075177 
L 289.907157 113.261777 
L 290.992958 113.088831 
L 292.07876 113.539401 
L 293.164561 111.973782 
L 294.250362 112.023846 
L 296.421964 110.986168 
L 297.507765 110.13509 
L 298.593566 110.13509 
L 300.765169 109.757339 
L 301.85097 109.757339 
L 302.936771 107.759354 
L 304.022572 108.259988 
L 305.108373 106.353028 
L 306.194175 106.161877 
L 307.279976 106.794496 
L 308.365777 105.415477 
L 309.451578 104.946702 
L 310.537379 106.148223 
L 311.62318 103.913575 
L 312.708981 103.417492 
L 313.794783 102.270585 
L 314.880584 102.953268 
L 315.966385 102.238727 
L 317.052186 101.860976 
L 318.137987 100.53202 
L 319.223788 100.836952 
L 320.30959 100.468303 
L 321.395391 98.779801 
L 322.481192 98.711533 
L 323.566993 97.596484 
L 324.652794 98.078913 
L 326.824396 96.545153 
L 327.910198 97.173221 
L 328.995999 94.943124 
L 330.0818 95.948943 
L 331.167601 93.714295 
L 332.253402 93.190905 
L 333.339203 93.336544 
L 334.425005 92.353481 
L 336.596607 90.806067 
L 338.768209 91.129203 
L 339.85401 89.103911 
L 340.939811 89.545379 
L 342.025613 88.234629 
L 343.111414 88.79898 
L 344.197215 87.183297 
L 345.283016 86.892019 
L 346.368817 86.846507 
L 347.454618 84.448015 
L 348.54042 84.557244 
L 349.626221 85.540307 
L 350.712022 83.401235 
L 351.797823 82.163304 
L 352.883624 83.678859 
L 353.969425 83.04624 
L 355.055227 81.503377 
L 357.226829 79.514495 
L 358.31263 78.868222 
L 359.398431 80.128909 
L 360.484232 79.12309 
L 361.570033 78.44951 
L 362.655835 77.430037 
L 363.741636 76.146593 
L 364.827437 76.724598 
L 365.913238 76.560754 
L 366.999039 75.664164 
L 368.08484 75.441154 
L 369.170642 78.640661 
L 370.256443 79.300587 
L 371.342244 80.820694 
L 372.428045 83.205532 
L 373.513846 83.100854 
L 374.599647 83.437645 
L 375.685448 82.977972 
L 376.77125 84.529937 
L 377.857051 84.170391 
L 378.942852 84.957751 
L 380.028653 84.184044 
L 381.114454 83.637898 
L 382.200255 83.94283 
L 383.286057 84.498078 
L 384.371858 83.555976 
L 385.457659 83.892766 
L 386.54346 83.237391 
L 387.629261 85.057878 
L 388.715062 84.306927 
L 389.800863 84.798459 
L 390.886665 85.508449 
L 391.972466 84.771152 
L 393.058267 84.716537 
L 395.229869 83.323864 
L 396.31567 84.748395 
L 397.401472 84.038405 
L 398.487273 84.98961 
L 398.487273 84.98961 
" clip-path="url(#p0b419e9fd6)" style="fill: none; stroke: #1f77b4; stroke-width: 1.5; stroke-linecap: square"/>
   </g>
   <g id="line2d_20">
    <path d="M 73.832727 282.676321 
L 74.918528 260.047664 
L 76.00433 241.151007 
L 77.090131 227.424533 
L 78.175932 215.7188 
L 79.261733 211.367835 
L 81.433335 189.886086 
L 82.519137 181.948761 
L 83.604938 180.63801 
L 84.690739 167.530502 
L 85.77654 164.27183 
L 86.862341 156.789627 
L 87.948142 155.67913 
L 90.119745 149.780751 
L 91.205546 145.648245 
L 92.291347 143.700324 
L 93.377148 141.44292 
L 94.462949 141.715993 
L 95.54875 168.458951 
L 96.634552 163.725684 
L 97.720353 160.885724 
L 98.806154 162.633391 
L 99.891955 153.603775 
L 100.977756 152.547892 
L 102.063557 152.784555 
L 104.23516 144.410314 
L 105.320961 139.422179 
L 106.406762 136.982726 
L 107.492563 130.75666 
L 108.578364 133.651234 
L 109.664165 133.614825 
L 110.749967 126.46031 
L 111.835768 120.179629 
L 112.921569 123.474711 
L 114.00737 118.741444 
L 115.093171 113.49844 
L 116.178972 114.062791 
L 118.350575 110.440022 
L 119.436376 108.674149 
L 120.522177 108.182618 
L 121.607978 100.463752 
L 122.693779 103.158073 
L 123.77958 99.844786 
L 125.951183 97.496357 
L 127.036984 94.365119 
L 128.122785 94.583578 
L 129.208586 94.601783 
L 130.294387 90.323638 
L 131.380189 89.158526 
L 132.46599 91.179267 
L 133.551791 87.993414 
L 134.637592 87.465473 
L 135.723393 87.338039 
L 136.809194 88.120848 
L 137.894995 87.647521 
L 138.980797 135.235058 
L 140.066598 119.014517 
L 141.152399 118.61401 
L 143.324001 120.179629 
L 144.409802 119.069131 
L 145.495604 117.721971 
L 146.581405 117.740176 
L 148.753007 113.826128 
L 150.924609 115.555591 
L 152.01041 115.191494 
L 153.096212 107.81852 
L 154.182013 106.853662 
L 155.267814 110.858734 
L 156.353615 113.188958 
L 157.439416 105.124199 
L 158.525217 109.784646 
L 159.611019 109.693622 
L 160.69682 109.220295 
L 161.782621 103.303712 
L 162.868422 105.087789 
L 163.954223 101.483225 
L 165.040024 101.501429 
L 166.125825 98.807108 
L 167.211627 99.134796 
L 168.297428 98.55224 
L 169.383229 94.911266 
L 170.46903 92.453608 
L 171.554831 96.076377 
L 172.640632 100.75503 
L 173.726434 93.691539 
L 175.898036 89.95954 
L 176.983837 91.743618 
L 178.069638 92.307969 
L 179.155439 91.889257 
L 180.24124 89.559033 
L 181.327042 85.681395 
L 182.412843 89.067501 
L 184.584445 83.369376 
L 185.670246 84.133981 
L 186.756047 83.442196 
L 187.841849 81.530684 
L 188.92765 81.603504 
L 190.013451 79.218665 
L 191.099252 80.711465 
L 192.185053 79.382509 
L 194.356656 73.247467 
L 195.442457 75.577691 
L 196.528258 76.142042 
L 197.614059 76.451525 
L 198.69986 74.048482 
L 199.785661 72.17338 
L 200.871462 70.625966 
L 201.957264 69.97059 
L 203.043065 70.352892 
L 204.128866 69.169576 
L 206.300468 68.113693 
L 207.386269 67.09422 
L 208.472071 67.312679 
L 209.557872 66.49346 
L 210.643673 64.782201 
L 211.729474 65.364757 
L 212.815275 64.072211 
L 213.901076 64.763997 
L 214.986877 63.817343 
L 216.072679 64.072211 
L 217.15848 63.271197 
L 218.244281 63.598885 
L 219.330082 63.61709 
L 220.415883 63.908368 
L 221.501684 63.252992 
L 222.587486 63.762729 
L 223.673287 62.634027 
L 224.759088 62.925304 
L 225.844889 109.839261 
L 226.93069 112.333329 
L 228.016491 109.165681 
L 229.102292 108.874403 
L 230.188094 108.328257 
L 231.273895 112.096665 
L 232.359696 107.964159 
L 233.445497 102.520902 
L 234.531298 101.920141 
L 235.617099 98.861723 
L 236.702901 102.575517 
L 237.788702 100.136064 
L 238.874503 102.1386 
L 239.960304 97.91507 
L 241.046105 98.643264 
L 242.131906 93.527695 
L 243.217708 97.423538 
L 244.303509 100.882464 
L 245.38931 104.97856 
L 246.475111 97.023031 
L 247.560912 97.423538 
L 248.646713 98.879928 
L 249.732514 105.415477 
L 250.818316 95.948943 
L 251.904117 99.535303 
L 252.989918 96.258426 
L 254.075719 102.939614 
L 255.16152 93.746154 
L 257.333123 96.677138 
L 258.418924 95.147929 
L 259.504725 97.041236 
L 260.590526 93.727949 
L 261.676327 91.106447 
L 262.762128 91.470545 
L 263.847929 97.751226 
L 264.933731 91.070037 
L 266.019532 88.758019 
L 267.105333 94.310505 
L 268.191134 90.596711 
L 270.362736 95.366387 
L 271.448538 92.562837 
L 272.534339 88.139053 
L 273.62014 96.258426 
L 274.705941 92.526427 
L 275.791742 87.920594 
L 276.877543 92.562837 
L 277.963344 88.557765 
L 279.049146 90.796964 
L 280.134947 88.448536 
L 281.220748 89.358779 
L 282.306549 84.133981 
L 283.39235 86.009083 
L 284.478151 86.846507 
L 285.563953 84.825766 
L 286.649754 84.498078 
L 287.735555 85.208068 
L 288.821356 83.460401 
L 289.907157 83.49681 
L 290.992958 85.77242 
L 292.07876 81.840167 
L 293.164561 84.388849 
L 294.250362 84.807561 
L 295.336163 81.530684 
L 296.421964 81.967601 
L 297.507765 80.365572 
L 298.593566 81.785552 
L 299.679368 84.006547 
L 300.765169 80.165319 
L 301.85097 78.854568 
L 302.936771 82.07683 
L 304.022572 76.542549 
L 305.108373 75.286413 
L 306.194175 81.40325 
L 307.279976 77.762276 
L 308.365777 79.036617 
L 309.451578 74.285145 
L 311.62318 81.603504 
L 312.708981 74.649242 
L 313.794783 73.047214 
L 314.880584 75.195389 
L 315.966385 72.537477 
L 317.052186 73.374901 
L 318.137987 76.269476 
L 319.223788 71.700053 
L 320.30959 74.030277 
L 321.395391 73.192853 
L 322.481192 72.628502 
L 323.566993 71.845692 
L 324.652794 72.319019 
L 325.738595 68.459586 
L 326.824396 68.805478 
L 327.910198 69.715722 
L 328.995999 69.442649 
L 330.0818 67.585752 
L 331.167601 71.627234 
L 332.253402 67.258064 
L 333.339203 69.733927 
L 334.425005 66.675508 
L 335.510806 66.293206 
L 336.596607 66.347821 
L 337.682408 65.200914 
L 338.768209 65.128094 
L 339.85401 66.49346 
L 340.939811 63.234787 
L 342.025613 63.54427 
L 343.111414 62.288134 
L 344.197215 61.869422 
L 345.283016 67.148835 
L 346.368817 62.670436 
L 347.454618 62.233519 
L 348.54042 61.505324 
L 349.626221 59.357149 
L 350.712022 59.739452 
L 351.797823 59.448174 
L 352.883624 60.413032 
L 353.969425 59.99432 
L 355.055227 58.301267 
L 356.141028 58.210242 
L 358.31263 57.045131 
L 359.398431 59.011257 
L 360.484232 56.225911 
L 361.570033 56.972311 
L 362.655835 54.805931 
L 363.741636 57.591277 
L 364.827437 55.643355 
L 365.913238 57.281794 
L 366.999039 53.568 
L 368.08484 56.590009 
L 369.170642 57.008721 
L 370.256443 57.700506 
L 371.342244 60.158164 
L 373.513846 60.758925 
L 374.599647 59.429969 
L 375.685448 59.630223 
L 376.77125 59.156896 
L 377.857051 62.342749 
L 378.942852 64.090416 
L 380.028653 60.813539 
L 381.114454 61.705578 
L 382.200255 60.576876 
L 383.286057 60.358417 
L 384.371858 61.778398 
L 385.457659 60.74072 
L 386.54346 61.396095 
L 387.629261 61.141227 
L 388.715062 62.888895 
L 389.800863 60.485852 
L 390.886665 61.723783 
L 391.972466 60.176369 
L 393.058267 61.159432 
L 394.144068 60.158164 
L 395.229869 62.306339 
L 396.31567 62.506592 
L 397.401472 58.246652 
L 398.487273 65.182709 
L 398.487273 65.182709 
" clip-path="url(#p0b419e9fd6)" style="fill: none; stroke: #ff7f0e; stroke-width: 1.5; stroke-linecap: square"/>
   </g>
   <g id="line2d_21">
    <path d="M 73.832727 287.446625 
L 74.918528 271.878321 
L 76.00433 264.34527 
L 77.090131 252.166838 
L 78.175932 248.902516 
L 79.261733 246.265948 
L 80.347534 240.992813 
L 81.433335 237.477389 
L 84.690739 220.528025 
L 85.77654 221.909084 
L 86.862341 213.999381 
L 87.948142 214.501584 
L 89.033943 212.36722 
L 90.119745 212.241669 
L 91.205546 209.354 
L 92.291347 208.600695 
L 93.377148 206.089678 
L 94.462949 206.215229 
L 95.54875 225.298957 
L 96.634552 213.622728 
L 97.720353 215.254889 
L 98.806154 216.510398 
L 99.891955 209.354 
L 100.977756 214.752686 
L 102.063557 213.622728 
L 103.149358 211.362813 
L 104.23516 207.345186 
L 105.320961 199.812135 
L 106.406762 197.928873 
L 107.492563 196.673364 
L 109.664165 198.054424 
L 110.749967 188.512559 
L 111.835768 187.005949 
L 112.921569 191.65133 
L 114.00737 190.521373 
L 116.178972 182.109466 
L 117.264773 184.11828 
L 118.350575 180.477305 
L 119.436376 180.351754 
L 120.522177 179.975102 
L 121.607978 170.80989 
L 122.693779 175.329721 
L 123.77958 171.688746 
L 124.865382 174.325314 
L 125.951183 168.047772 
L 127.036984 173.82311 
L 128.122785 170.056585 
L 129.208586 171.060992 
L 130.294387 166.541161 
L 131.380189 166.415611 
L 132.46599 165.160102 
L 133.551791 162.774636 
L 134.637592 165.160102 
L 135.723393 164.909 
L 136.809194 165.034551 
L 137.894995 165.662306 
L 138.980797 203.578661 
L 140.066598 187.005949 
L 141.152399 192.781288 
L 142.2382 187.1315 
L 143.324001 184.997136 
L 144.409802 192.153534 
L 145.495604 186.629297 
L 146.581405 192.404636 
L 147.667206 186.127093 
L 148.753007 185.248237 
L 149.838808 184.746034 
L 150.924609 187.382602 
L 152.01041 189.265864 
L 153.096212 180.351754 
L 154.182013 177.338534 
L 155.267814 179.598449 
L 156.353615 184.243831 
L 157.439416 178.719593 
L 158.525217 186.754848 
L 159.611019 185.499339 
L 160.69682 183.867178 
L 161.782621 170.684339 
L 162.868422 175.957475 
L 163.954223 176.961882 
L 165.040024 175.831924 
L 166.125825 172.190949 
L 167.211627 175.831924 
L 168.297428 172.567602 
L 169.383229 173.572009 
L 170.46903 170.558789 
L 171.554831 177.087432 
L 172.640632 177.087432 
L 173.726434 167.043365 
L 174.812235 168.424424 
L 175.898036 164.78345 
L 176.983837 169.805483 
L 178.069638 165.411204 
L 179.155439 170.433238 
L 180.24124 167.294467 
L 181.327042 158.254806 
L 182.412843 168.173322 
L 183.498644 165.913407 
L 184.584445 156.245992 
L 185.670246 160.012518 
L 186.756047 165.913407 
L 187.841849 154.362729 
L 188.92765 160.263619 
L 190.013451 154.237179 
L 192.185053 157.124848 
L 193.270854 153.734975 
L 194.356656 151.726162 
L 195.442457 152.102814 
L 196.528258 155.241585 
L 197.614059 156.873746 
L 199.785661 146.201925 
L 200.871462 147.582984 
L 201.957264 145.950823 
L 203.043065 147.206331 
L 204.128866 146.327475 
L 205.214667 146.327475 
L 206.300468 145.197518 
L 207.386269 142.184298 
L 208.472071 144.820865 
L 209.557872 145.071967 
L 210.643673 140.552137 
L 211.729474 140.301035 
L 212.815275 139.924382 
L 213.901076 142.686501 
L 214.986877 139.924382 
L 216.072679 138.794425 
L 217.15848 137.915569 
L 218.244281 139.045526 
L 219.330082 139.924382 
L 220.415883 139.171077 
L 221.501684 138.668874 
L 222.587486 138.919976 
L 223.673287 138.794425 
L 224.759088 139.673281 
L 225.844889 182.61167 
L 226.93069 180.100653 
L 228.016491 185.499339 
L 229.102292 176.585229 
L 230.188094 180.602856 
L 231.273895 180.100653 
L 232.359696 181.732814 
L 233.445497 171.312094 
L 234.531298 171.060992 
L 235.617099 167.922221 
L 236.702901 170.182136 
L 237.788702 169.428831 
L 238.874503 175.706373 
L 239.960304 167.043365 
L 241.046105 172.693153 
L 242.131906 165.285653 
L 243.217708 169.428831 
L 244.303509 169.931034 
L 245.38931 176.208577 
L 246.475111 166.541161 
L 247.560912 170.935441 
L 248.646713 174.827517 
L 249.732514 180.100653 
L 250.818316 165.411204 
L 251.904117 174.450865 
L 252.989918 167.168916 
L 254.075719 176.585229 
L 256.247321 167.168916 
L 257.333123 172.3165 
L 258.418924 173.320907 
L 259.504725 176.585229 
L 260.590526 169.931034 
L 261.676327 166.541161 
L 262.762128 166.038958 
L 263.847929 174.199763 
L 264.933731 167.420017 
L 266.019532 169.554382 
L 267.105333 172.693153 
L 268.191134 161.393577 
L 269.276935 168.675526 
L 270.362736 172.818704 
L 271.448538 170.80989 
L 272.534339 162.649085 
L 273.62014 171.939848 
L 274.705941 172.065399 
L 275.791742 161.016924 
L 276.877543 172.693153 
L 277.963344 159.259212 
L 279.049146 165.536755 
L 280.134947 166.541161 
L 281.220748 166.415611 
L 282.306549 155.241585 
L 283.39235 163.276839 
L 284.478151 161.644678 
L 285.563953 159.635865 
L 286.649754 159.635865 
L 287.735555 159.886967 
L 288.821356 157.627051 
L 289.907157 163.151289 
L 290.992958 161.519128 
L 292.07876 158.88256 
L 293.164561 163.779043 
L 294.250362 159.008111 
L 295.336163 159.133662 
L 296.421964 156.120441 
L 297.507765 148.964043 
L 298.593566 151.47506 
L 299.679368 160.514721 
L 300.765169 155.618238 
L 301.85097 151.600611 
L 302.936771 154.613831 
L 304.022572 149.591797 
L 305.108373 151.726162 
L 306.194175 156.245992 
L 307.279976 152.730568 
L 308.365777 150.721755 
L 309.451578 144.820865 
L 310.537379 156.371543 
L 311.62318 160.640272 
L 312.708981 151.098408 
L 313.794783 148.336289 
L 314.880584 148.587391 
L 315.966385 150.972857 
L 317.052186 146.829679 
L 318.137987 155.116035 
L 319.223788 146.704128 
L 320.30959 152.228365 
L 321.395391 150.721755 
L 322.481192 147.959636 
L 323.566993 149.215145 
L 324.652794 148.587391 
L 325.738595 142.812052 
L 326.824396 146.076374 
L 327.910198 148.336289 
L 328.995999 142.184298 
L 330.0818 142.184298 
L 331.167601 150.219552 
L 332.253402 144.820865 
L 333.339203 151.223958 
L 334.425005 144.318662 
L 335.510806 142.56095 
L 336.596607 143.063153 
L 337.682408 143.439806 
L 338.768209 143.314255 
L 339.85401 143.439806 
L 340.939811 142.184298 
L 342.025613 138.919976 
L 343.111414 132.767984 
L 344.197215 136.534509 
L 345.283016 143.439806 
L 346.368817 138.543323 
L 347.454618 139.54773 
L 348.54042 136.785611 
L 349.626221 134.776798 
L 350.712022 140.049933 
L 351.797823 138.04112 
L 352.883624 133.64684 
L 353.969425 140.426586 
L 355.055227 137.287815 
L 356.141028 134.902348 
L 357.226829 137.036713 
L 358.31263 131.261374 
L 359.398431 135.906755 
L 360.484232 130.884721 
L 361.570033 132.642433 
L 362.655835 127.620399 
L 363.741636 132.14023 
L 364.827437 131.010272 
L 365.913238 132.265781 
L 366.999039 129.629213 
L 368.08484 131.512476 
L 369.170642 132.14023 
L 370.256443 133.395738 
L 371.342244 135.027899 
L 372.428045 132.391332 
L 373.513846 135.15345 
L 374.599647 134.525696 
L 375.685448 131.889128 
L 376.77125 137.162264 
L 377.857051 136.911162 
L 378.942852 142.435399 
L 380.028653 139.422179 
L 381.114454 144.06756 
L 382.200255 137.413365 
L 383.286057 142.435399 
L 384.371858 138.543323 
L 385.457659 139.045526 
L 386.54346 141.430992 
L 387.629261 135.530103 
L 388.715062 136.911162 
L 389.800863 141.179891 
L 390.886665 139.045526 
L 391.972466 134.776798 
L 393.058267 139.422179 
L 394.144068 134.525696 
L 395.229869 139.422179 
L 396.31567 136.157857 
L 397.401472 134.149043 
L 398.487273 141.556543 
L 398.487273 141.556543 
" clip-path="url(#p0b419e9fd6)" style="fill: none; stroke: #2ca02c; stroke-width: 1.5; stroke-linecap: square"/>
   </g>
   <g id="line2d_22">
    <path d="M 368.08484 56.171297 
L 369.170642 56.44437 
L 370.256443 60.085344 
L 371.342244 59.448174 
L 372.428045 64.145031 
L 373.513846 58.483316 
L 374.599647 62.12429 
L 375.685448 61.723783 
L 376.77125 64.25426 
L 377.857051 69.606493 
L 378.942852 68.350357 
L 380.028653 65.455782 
L 381.114454 67.622162 
L 382.200255 64.21785 
L 383.286057 62.506592 
L 384.371858 67.84062 
L 385.457659 66.966786 
L 386.54346 69.33342 
L 387.629261 69.861361 
L 388.715062 72.683116 
L 389.800863 73.884638 
L 390.886665 74.794881 
L 391.972466 69.096756 
L 393.058267 70.698785 
L 394.144068 68.477791 
L 395.229869 76.032813 
L 396.31567 74.357964 
L 397.401472 72.155175 
L 398.487273 74.467194 
L 398.487273 74.467194 
" clip-path="url(#p0b419e9fd6)" style="fill: none; stroke: #d62728; stroke-width: 1.5; stroke-linecap: square"/>
   </g>
   <g id="line2d_23">
    <path d="M 368.08484 133.521289 
L 369.170642 131.135823 
L 370.256443 138.16667 
L 371.342244 136.408959 
L 372.428045 145.071967 
L 373.513846 135.906755 
L 374.599647 140.175484 
L 375.685448 138.292221 
L 376.77125 142.56095 
L 377.857051 148.964043 
L 378.942852 149.215145 
L 380.028653 145.323069 
L 381.114454 148.964043 
L 382.200255 140.301035 
L 383.286057 136.785611 
L 384.371858 147.206331 
L 385.457659 143.942009 
L 386.54346 143.188704 
L 387.629261 141.556543 
L 388.715062 143.816458 
L 389.800863 149.466247 
L 390.886665 151.726162 
L 391.972466 143.439806 
L 393.058267 148.964043 
L 394.144068 139.422179 
L 395.229869 142.058747 
L 396.31567 147.331882 
L 397.401472 144.444213 
L 398.487273 148.46184 
L 398.487273 148.46184 
" clip-path="url(#p0b419e9fd6)" style="fill: none; stroke: #9467bd; stroke-width: 1.5; stroke-linecap: square"/>
   </g>
   <g id="patch_3">
    <path d="M 57.6 307.584 
L 57.6 41.472 
" style="fill: none; stroke: #000000; stroke-width: 0.8; stroke-linejoin: miter; stroke-linecap: square"/>
   </g>
   <g id="patch_4">
    <path d="M 414.72 307.584 
L 414.72 41.472 
" style="fill: none; stroke: #000000; stroke-width: 0.8; stroke-linejoin: miter; stroke-linecap: square"/>
   </g>
   <g id="patch_5">
    <path d="M 57.6 307.584 
L 414.72 307.584 
" style="fill: none; stroke: #000000; stroke-width: 0.8; stroke-linejoin: miter; stroke-linecap: square"/>
   </g>
   <g id="patch_6">
    <path d="M 57.6 41.472 
L 414.72 41.472 
" style="fill: none; stroke: #000000; stroke-width: 0.8; stroke-linejoin: miter; stroke-linecap: square"/>
   </g>
   <g id="text_21">
    <!-- Learning Curves -->
    <g transform="translate(187.37625 35.472) scale(0.12 -0.12)">
     <defs>
      <path id="DejaVuSans-4c" d="M 628 4666 
L 1259 4666 
L 1259 531 
L 3531 531 
L 3531 0 
L 628 0 
L 628 4666 
z
" transform="scale(0.015625)"/>
      <path id="DejaVuSans-65" d="M 3597 1894 
L 3597 1613 
L 953 1613 
Q 991 1019 1311 708 
Q 1631 397 2203 397 
Q 2534 397 2845 478 
Q 3156 559 3463 722 
L 3463 178 
Q 3153 47 2828 -22 
Q 2503 -91 2169 -91 
Q 1331 -91 842 396 
Q 353 884 353 1716 
Q 353 2575 817 3079 
Q 1281 3584 2069 3584 
Q 2775 3584 3186 3129 
Q 3597 2675 3597 1894 
z
M 3022 2063 
Q 3016 2534 2758 2815 
Q 2500 3097 2075 3097 
Q 1594 3097 1305 2825 
Q 1016 2553 972 2059 
L 3022 2063 
z
" transform="scale(0.015625)"/>
      <path id="DejaVuSans-6e" d="M 3513 2113 
L 3513 0 
L 2938 0 
L 2938 2094 
Q 2938 2591 2744 2837 
Q 2550 3084 2163 3084 
Q 1697 3084 1428 2787 
Q 1159 2491 1159 1978 
L 1159 0 
L 581 0 
L 581 3500 
L 1159 3500 
L 1159 2956 
Q 1366 3272 1645 3428 
Q 1925 3584 2291 3584 
Q 2894 3584 3203 3211 
Q 3513 2838 3513 2113 
z
" transform="scale(0.015625)"/>
      <path id="DejaVuSans-69" d="M 603 3500 
L 1178 3500 
L 1178 0 
L 603 0 
L 603 3500 
z
M 603 4863 
L 1178 4863 
L 1178 4134 
L 603 4134 
L 603 4863 
z
" transform="scale(0.015625)"/>
      <path id="DejaVuSans-67" d="M 2906 1791 
Q 2906 2416 2648 2759 
Q 2391 3103 1925 3103 
Q 1463 3103 1205 2759 
Q 947 2416 947 1791 
Q 947 1169 1205 825 
Q 1463 481 1925 481 
Q 2391 481 2648 825 
Q 2906 1169 2906 1791 
z
M 3481 434 
Q 3481 -459 3084 -895 
Q 2688 -1331 1869 -1331 
Q 1566 -1331 1297 -1286 
Q 1028 -1241 775 -1147 
L 775 -588 
Q 1028 -725 1275 -790 
Q 1522 -856 1778 -856 
Q 2344 -856 2625 -561 
Q 2906 -266 2906 331 
L 2906 616 
Q 2728 306 2450 153 
Q 2172 0 1784 0 
Q 1141 0 747 490 
Q 353 981 353 1791 
Q 353 2603 747 3093 
Q 1141 3584 1784 3584 
Q 2172 3584 2450 3431 
Q 2728 3278 2906 2969 
L 2906 3500 
L 3481 3500 
L 3481 434 
z
" transform="scale(0.015625)"/>
      <path id="DejaVuSans-20" transform="scale(0.015625)"/>
      <path id="DejaVuSans-43" d="M 4122 4306 
L 4122 3641 
Q 3803 3938 3442 4084 
Q 3081 4231 2675 4231 
Q 1875 4231 1450 3742 
Q 1025 3253 1025 2328 
Q 1025 1406 1450 917 
Q 1875 428 2675 428 
Q 3081 428 3442 575 
Q 3803 722 4122 1019 
L 4122 359 
Q 3791 134 3420 21 
Q 3050 -91 2638 -91 
Q 1578 -91 968 557 
Q 359 1206 359 2328 
Q 359 3453 968 4101 
Q 1578 4750 2638 4750 
Q 3056 4750 3426 4639 
Q 3797 4528 4122 4306 
z
" transform="scale(0.015625)"/>
      <path id="DejaVuSans-76" d="M 191 3500 
L 800 3500 
L 1894 563 
L 2988 3500 
L 3597 3500 
L 2284 0 
L 1503 0 
L 191 3500 
z
" transform="scale(0.015625)"/>
     </defs>
     <use xlink:href="#DejaVuSans-4c"/>
     <use xlink:href="#DejaVuSans-65" x="53.962891"/>
     <use xlink:href="#DejaVuSans-61" x="115.486328"/>
     <use xlink:href="#DejaVuSans-72" x="176.765625"/>
     <use xlink:href="#DejaVuSans-6e" x="216.128906"/>
     <use xlink:href="#DejaVuSans-69" x="279.507812"/>
     <use xlink:href="#DejaVuSans-6e" x="307.291016"/>
     <use xlink:href="#DejaVuSans-67" x="370.669922"/>
     <use xlink:href="#DejaVuSans-20" x="434.146484"/>
     <use xlink:href="#DejaVuSans-43" x="465.933594"/>
     <use xlink:href="#DejaVuSans-75" x="535.757812"/>
     <use xlink:href="#DejaVuSans-72" x="599.136719"/>
     <use xlink:href="#DejaVuSans-76" x="640.25"/>
     <use xlink:href="#DejaVuSans-65" x="699.429688"/>
     <use xlink:href="#DejaVuSans-73" x="760.953125"/>
    </g>
   </g>
   <g id="legend_1">
    <g id="patch_7">
     <path d="M 214.18875 302.584 
L 407.72 302.584 
Q 409.72 302.584 409.72 300.584 
L 409.72 228.193375 
Q 409.72 226.193375 407.72 226.193375 
L 214.18875 226.193375 
Q 212.18875 226.193375 212.18875 228.193375 
L 212.18875 300.584 
Q 212.18875 302.584 214.18875 302.584 
z
" style="fill: #ffffff; opacity: 0.8; stroke: #cccccc; stroke-linejoin: miter"/>
    </g>
    <g id="line2d_24">
     <path d="M 216.18875 234.291812 
L 226.18875 234.291812 
L 236.18875 234.291812 
" style="fill: none; stroke: #1f77b4; stroke-width: 1.5; stroke-linecap: square"/>
    </g>
    <g id="text_22">
     <!-- Train Accuracy -->
     <g transform="translate(244.18875 237.791812) scale(0.1 -0.1)">
      <defs>
       <path id="DejaVuSans-54" d="M -19 4666 
L 3928 4666 
L 3928 4134 
L 2272 4134 
L 2272 0 
L 1638 0 
L 1638 4134 
L -19 4134 
L -19 4666 
z
" transform="scale(0.015625)"/>
      </defs>
      <use xlink:href="#DejaVuSans-54"/>
      <use xlink:href="#DejaVuSans-72" x="46.333984"/>
      <use xlink:href="#DejaVuSans-61" x="87.447266"/>
      <use xlink:href="#DejaVuSans-69" x="148.726562"/>
      <use xlink:href="#DejaVuSans-6e" x="176.509766"/>
      <use xlink:href="#DejaVuSans-20" x="239.888672"/>
      <use xlink:href="#DejaVuSans-41" x="271.675781"/>
      <use xlink:href="#DejaVuSans-63" x="338.333984"/>
      <use xlink:href="#DejaVuSans-63" x="393.314453"/>
      <use xlink:href="#DejaVuSans-75" x="448.294922"/>
      <use xlink:href="#DejaVuSans-72" x="511.673828"/>
      <use xlink:href="#DejaVuSans-61" x="552.787109"/>
      <use xlink:href="#DejaVuSans-63" x="614.066406"/>
      <use xlink:href="#DejaVuSans-79" x="669.046875"/>
     </g>
    </g>
    <g id="line2d_25">
     <path d="M 216.18875 248.969937 
L 226.18875 248.969937 
L 236.18875 248.969937 
" style="fill: none; stroke: #ff7f0e; stroke-width: 1.5; stroke-linecap: square"/>
    </g>
    <g id="text_23">
     <!-- Validation Accuracy -->
     <g transform="translate(244.18875 252.469937) scale(0.1 -0.1)">
      <defs>
       <path id="DejaVuSans-56" d="M 1831 0 
L 50 4666 
L 709 4666 
L 2188 738 
L 3669 4666 
L 4325 4666 
L 2547 0 
L 1831 0 
z
" transform="scale(0.015625)"/>
       <path id="DejaVuSans-6c" d="M 603 4863 
L 1178 4863 
L 1178 0 
L 603 0 
L 603 4863 
z
" transform="scale(0.015625)"/>
       <path id="DejaVuSans-64" d="M 2906 2969 
L 2906 4863 
L 3481 4863 
L 3481 0 
L 2906 0 
L 2906 525 
Q 2725 213 2448 61 
Q 2172 -91 1784 -91 
Q 1150 -91 751 415 
Q 353 922 353 1747 
Q 353 2572 751 3078 
Q 1150 3584 1784 3584 
Q 2172 3584 2448 3432 
Q 2725 3281 2906 2969 
z
M 947 1747 
Q 947 1113 1208 752 
Q 1469 391 1925 391 
Q 2381 391 2643 752 
Q 2906 1113 2906 1747 
Q 2906 2381 2643 2742 
Q 2381 3103 1925 3103 
Q 1469 3103 1208 2742 
Q 947 2381 947 1747 
z
" transform="scale(0.015625)"/>
       <path id="DejaVuSans-74" d="M 1172 4494 
L 1172 3500 
L 2356 3500 
L 2356 3053 
L 1172 3053 
L 1172 1153 
Q 1172 725 1289 603 
Q 1406 481 1766 481 
L 2356 481 
L 2356 0 
L 1766 0 
Q 1100 0 847 248 
Q 594 497 594 1153 
L 594 3053 
L 172 3053 
L 172 3500 
L 594 3500 
L 594 4494 
L 1172 4494 
z
" transform="scale(0.015625)"/>
      </defs>
      <use xlink:href="#DejaVuSans-56"/>
      <use xlink:href="#DejaVuSans-61" x="60.658203"/>
      <use xlink:href="#DejaVuSans-6c" x="121.9375"/>
      <use xlink:href="#DejaVuSans-69" x="149.720703"/>
      <use xlink:href="#DejaVuSans-64" x="177.503906"/>
      <use xlink:href="#DejaVuSans-61" x="240.980469"/>
      <use xlink:href="#DejaVuSans-74" x="302.259766"/>
      <use xlink:href="#DejaVuSans-69" x="341.46875"/>
      <use xlink:href="#DejaVuSans-6f" x="369.251953"/>
      <use xlink:href="#DejaVuSans-6e" x="430.433594"/>
      <use xlink:href="#DejaVuSans-20" x="493.8125"/>
      <use xlink:href="#DejaVuSans-41" x="525.599609"/>
      <use xlink:href="#DejaVuSans-63" x="592.257812"/>
      <use xlink:href="#DejaVuSans-63" x="647.238281"/>
      <use xlink:href="#DejaVuSans-75" x="702.21875"/>
      <use xlink:href="#DejaVuSans-72" x="765.597656"/>
      <use xlink:href="#DejaVuSans-61" x="806.710938"/>
      <use xlink:href="#DejaVuSans-63" x="867.990234"/>
      <use xlink:href="#DejaVuSans-79" x="922.970703"/>
     </g>
    </g>
    <g id="line2d_26">
     <path d="M 216.18875 263.648062 
L 226.18875 263.648062 
L 236.18875 263.648062 
" style="fill: none; stroke: #2ca02c; stroke-width: 1.5; stroke-linecap: square"/>
    </g>
    <g id="text_24">
     <!-- Robust Validation Accuracy -->
     <g transform="translate(244.18875 267.148062) scale(0.1 -0.1)">
      <defs>
       <path id="DejaVuSans-52" d="M 2841 2188 
Q 3044 2119 3236 1894 
Q 3428 1669 3622 1275 
L 4263 0 
L 3584 0 
L 2988 1197 
Q 2756 1666 2539 1819 
Q 2322 1972 1947 1972 
L 1259 1972 
L 1259 0 
L 628 0 
L 628 4666 
L 2053 4666 
Q 2853 4666 3247 4331 
Q 3641 3997 3641 3322 
Q 3641 2881 3436 2590 
Q 3231 2300 2841 2188 
z
M 1259 4147 
L 1259 2491 
L 2053 2491 
Q 2509 2491 2742 2702 
Q 2975 2913 2975 3322 
Q 2975 3731 2742 3939 
Q 2509 4147 2053 4147 
L 1259 4147 
z
" transform="scale(0.015625)"/>
       <path id="DejaVuSans-62" d="M 3116 1747 
Q 3116 2381 2855 2742 
Q 2594 3103 2138 3103 
Q 1681 3103 1420 2742 
Q 1159 2381 1159 1747 
Q 1159 1113 1420 752 
Q 1681 391 2138 391 
Q 2594 391 2855 752 
Q 3116 1113 3116 1747 
z
M 1159 2969 
Q 1341 3281 1617 3432 
Q 1894 3584 2278 3584 
Q 2916 3584 3314 3078 
Q 3713 2572 3713 1747 
Q 3713 922 3314 415 
Q 2916 -91 2278 -91 
Q 1894 -91 1617 61 
Q 1341 213 1159 525 
L 1159 0 
L 581 0 
L 581 4863 
L 1159 4863 
L 1159 2969 
z
" transform="scale(0.015625)"/>
      </defs>
      <use xlink:href="#DejaVuSans-52"/>
      <use xlink:href="#DejaVuSans-6f" x="64.982422"/>
      <use xlink:href="#DejaVuSans-62" x="126.164062"/>
      <use xlink:href="#DejaVuSans-75" x="189.640625"/>
      <use xlink:href="#DejaVuSans-73" x="253.019531"/>
      <use xlink:href="#DejaVuSans-74" x="305.119141"/>
      <use xlink:href="#DejaVuSans-20" x="344.328125"/>
      <use xlink:href="#DejaVuSans-56" x="376.115234"/>
      <use xlink:href="#DejaVuSans-61" x="436.773438"/>
      <use xlink:href="#DejaVuSans-6c" x="498.052734"/>
      <use xlink:href="#DejaVuSans-69" x="525.835938"/>
      <use xlink:href="#DejaVuSans-64" x="553.619141"/>
      <use xlink:href="#DejaVuSans-61" x="617.095703"/>
      <use xlink:href="#DejaVuSans-74" x="678.375"/>
      <use xlink:href="#DejaVuSans-69" x="717.583984"/>
      <use xlink:href="#DejaVuSans-6f" x="745.367188"/>
      <use xlink:href="#DejaVuSans-6e" x="806.548828"/>
      <use xlink:href="#DejaVuSans-20" x="869.927734"/>
      <use xlink:href="#DejaVuSans-41" x="901.714844"/>
      <use xlink:href="#DejaVuSans-63" x="968.373047"/>
      <use xlink:href="#DejaVuSans-63" x="1023.353516"/>
      <use xlink:href="#DejaVuSans-75" x="1078.333984"/>
      <use xlink:href="#DejaVuSans-72" x="1141.712891"/>
      <use xlink:href="#DejaVuSans-61" x="1182.826172"/>
      <use xlink:href="#DejaVuSans-63" x="1244.105469"/>
      <use xlink:href="#DejaVuSans-79" x="1299.085938"/>
     </g>
    </g>
    <g id="line2d_27">
     <path d="M 216.18875 278.326188 
L 226.18875 278.326188 
L 236.18875 278.326188 
" style="fill: none; stroke: #d62728; stroke-width: 1.5; stroke-linecap: square"/>
    </g>
    <g id="text_25">
     <!-- SWA Validation Accuracy -->
     <g transform="translate(244.18875 281.826188) scale(0.1 -0.1)">
      <defs>
       <path id="DejaVuSans-53" d="M 3425 4513 
L 3425 3897 
Q 3066 4069 2747 4153 
Q 2428 4238 2131 4238 
Q 1616 4238 1336 4038 
Q 1056 3838 1056 3469 
Q 1056 3159 1242 3001 
Q 1428 2844 1947 2747 
L 2328 2669 
Q 3034 2534 3370 2195 
Q 3706 1856 3706 1288 
Q 3706 609 3251 259 
Q 2797 -91 1919 -91 
Q 1588 -91 1214 -16 
Q 841 59 441 206 
L 441 856 
Q 825 641 1194 531 
Q 1563 422 1919 422 
Q 2459 422 2753 634 
Q 3047 847 3047 1241 
Q 3047 1584 2836 1778 
Q 2625 1972 2144 2069 
L 1759 2144 
Q 1053 2284 737 2584 
Q 422 2884 422 3419 
Q 422 4038 858 4394 
Q 1294 4750 2059 4750 
Q 2388 4750 2728 4690 
Q 3069 4631 3425 4513 
z
" transform="scale(0.015625)"/>
       <path id="DejaVuSans-57" d="M 213 4666 
L 850 4666 
L 1831 722 
L 2809 4666 
L 3519 4666 
L 4500 722 
L 5478 4666 
L 6119 4666 
L 4947 0 
L 4153 0 
L 3169 4050 
L 2175 0 
L 1381 0 
L 213 4666 
z
" transform="scale(0.015625)"/>
      </defs>
      <use xlink:href="#DejaVuSans-53"/>
      <use xlink:href="#DejaVuSans-57" x="63.476562"/>
      <use xlink:href="#DejaVuSans-41" x="156.853516"/>
      <use xlink:href="#DejaVuSans-20" x="225.261719"/>
      <use xlink:href="#DejaVuSans-56" x="257.048828"/>
      <use xlink:href="#DejaVuSans-61" x="317.707031"/>
      <use xlink:href="#DejaVuSans-6c" x="378.986328"/>
      <use xlink:href="#DejaVuSans-69" x="406.769531"/>
      <use xlink:href="#DejaVuSans-64" x="434.552734"/>
      <use xlink:href="#DejaVuSans-61" x="498.029297"/>
      <use xlink:href="#DejaVuSans-74" x="559.308594"/>
      <use xlink:href="#DejaVuSans-69" x="598.517578"/>
      <use xlink:href="#DejaVuSans-6f" x="626.300781"/>
      <use xlink:href="#DejaVuSans-6e" x="687.482422"/>
      <use xlink:href="#DejaVuSans-20" x="750.861328"/>
      <use xlink:href="#DejaVuSans-41" x="782.648438"/>
      <use xlink:href="#DejaVuSans-63" x="849.306641"/>
      <use xlink:href="#DejaVuSans-63" x="904.287109"/>
      <use xlink:href="#DejaVuSans-75" x="959.267578"/>
      <use xlink:href="#DejaVuSans-72" x="1022.646484"/>
      <use xlink:href="#DejaVuSans-61" x="1063.759766"/>
      <use xlink:href="#DejaVuSans-63" x="1125.039062"/>
      <use xlink:href="#DejaVuSans-79" x="1180.019531"/>
     </g>
    </g>
    <g id="line2d_28">
     <path d="M 216.18875 293.004312 
L 226.18875 293.004312 
L 236.18875 293.004312 
" style="fill: none; stroke: #9467bd; stroke-width: 1.5; stroke-linecap: square"/>
    </g>
    <g id="text_26">
     <!-- SWA Robust Validation Accuracy -->
     <g transform="translate(244.18875 296.504312) scale(0.1 -0.1)">
      <use xlink:href="#DejaVuSans-53"/>
      <use xlink:href="#DejaVuSans-57" x="63.476562"/>
      <use xlink:href="#DejaVuSans-41" x="156.853516"/>
      <use xlink:href="#DejaVuSans-20" x="225.261719"/>
      <use xlink:href="#DejaVuSans-52" x="257.048828"/>
      <use xlink:href="#DejaVuSans-6f" x="322.03125"/>
      <use xlink:href="#DejaVuSans-62" x="383.212891"/>
      <use xlink:href="#DejaVuSans-75" x="446.689453"/>
      <use xlink:href="#DejaVuSans-73" x="510.068359"/>
      <use xlink:href="#DejaVuSans-74" x="562.167969"/>
      <use xlink:href="#DejaVuSans-20" x="601.376953"/>
      <use xlink:href="#DejaVuSans-56" x="633.164062"/>
      <use xlink:href="#DejaVuSans-61" x="693.822266"/>
      <use xlink:href="#DejaVuSans-6c" x="755.101562"/>
      <use xlink:href="#DejaVuSans-69" x="782.884766"/>
      <use xlink:href="#DejaVuSans-64" x="810.667969"/>
      <use xlink:href="#DejaVuSans-61" x="874.144531"/>
      <use xlink:href="#DejaVuSans-74" x="935.423828"/>
      <use xlink:href="#DejaVuSans-69" x="974.632812"/>
      <use xlink:href="#DejaVuSans-6f" x="1002.416016"/>
      <use xlink:href="#DejaVuSans-6e" x="1063.597656"/>
      <use xlink:href="#DejaVuSans-20" x="1126.976562"/>
      <use xlink:href="#DejaVuSans-41" x="1158.763672"/>
      <use xlink:href="#DejaVuSans-63" x="1225.421875"/>
      <use xlink:href="#DejaVuSans-63" x="1280.402344"/>
      <use xlink:href="#DejaVuSans-75" x="1335.382812"/>
      <use xlink:href="#DejaVuSans-72" x="1398.761719"/>
      <use xlink:href="#DejaVuSans-61" x="1439.875"/>
      <use xlink:href="#DejaVuSans-63" x="1501.154297"/>
      <use xlink:href="#DejaVuSans-79" x="1556.134766"/>
     </g>
    </g>
   </g>
  </g>
 </g>
 <defs>
  <clipPath id="p0b419e9fd6">
   <rect x="57.6" y="41.472" width="357.12" height="266.112"/>
  </clipPath>
 </defs>
</svg>
