<?xml version="1.0" encoding="utf-8" standalone="no"?>
<!DOCTYPE svg PUBLIC "-//W3C//DTD SVG 1.1//EN"
  "http://www.w3.org/Graphics/SVG/1.1/DTD/svg11.dtd">
<svg xmlns:xlink="http://www.w3.org/1999/xlink" width="460.8pt" height="345.6pt" viewBox="0 0 460.8 345.6" xmlns="http://www.w3.org/2000/svg" version="1.1">
 <metadata>
  <rdf:RDF xmlns:dc="http://purl.org/dc/elements/1.1/" xmlns:cc="http://creativecommons.org/ns#" xmlns:rdf="http://www.w3.org/1999/02/22-rdf-syntax-ns#">
   <cc:Work>
    <dc:type rdf:resource="http://purl.org/dc/dcmitype/StillImage"/>
    <dc:date>2025-01-31T17:01:13.965437</dc:date>
    <dc:format>image/svg+xml</dc:format>
    <dc:creator>
     <cc:Agent>
      <dc:title>Matplotlib v3.9.1, https://matplotlib.org/</dc:title>
     </cc:Agent>
    </dc:creator>
   </cc:Work>
  </rdf:RDF>
 </metadata>
 <defs>
  <style type="text/css">*{stroke-linejoin: round; stroke-linecap: butt}</style>
 </defs>
 <g id="figure_1">
  <g id="patch_1">
   <path d="M 0 345.6 
L 460.8 345.6 
L 460.8 0 
L 0 0 
z
" style="fill: #ffffff"/>
  </g>
  <g id="axes_1">
   <g id="patch_2">
    <path d="M 57.6 307.584 
L 414.72 307.584 
L 414.72 41.472 
L 57.6 41.472 
z
" style="fill: #ffffff"/>
   </g>
   <g id="matplotlib.axis_1">
    <g id="xtick_1">
     <g id="line2d_1">
      <defs>
       <path id="m45f22ef0e0" d="M 0 0 
L 0 3.5 
" style="stroke: #000000; stroke-width: 0.8"/>
      </defs>
      <g>
       <use xlink:href="#m45f22ef0e0" x="73.832727" y="307.584" style="stroke: #000000; stroke-width: 0.8"/>
      </g>
     </g>
     <g id="text_1">
      <!-- 1 -->
      <g transform="translate(70.651477 322.182437) scale(0.1 -0.1)">
       <defs>
        <path id="DejaVuSans-31" d="M 794 531 
L 1825 531 
L 1825 4091 
L 703 3866 
L 703 4441 
L 1819 4666 
L 2450 4666 
L 2450 531 
L 3481 531 
L 3481 0 
L 794 0 
L 794 531 
z
" transform="scale(0.015625)"/>
       </defs>
       <use xlink:href="#DejaVuSans-31"/>
      </g>
     </g>
    </g>
    <g id="xtick_2">
     <g id="line2d_2">
      <g>
       <use xlink:href="#m45f22ef0e0" x="109.178182" y="307.584" style="stroke: #000000; stroke-width: 0.8"/>
      </g>
     </g>
     <g id="text_2">
      <!-- 28 -->
      <g transform="translate(102.815682 322.182437) scale(0.1 -0.1)">
       <defs>
        <path id="DejaVuSans-32" d="M 1228 531 
L 3431 531 
L 3431 0 
L 469 0 
L 469 531 
Q 828 903 1448 1529 
Q 2069 2156 2228 2338 
Q 2531 2678 2651 2914 
Q 2772 3150 2772 3378 
Q 2772 3750 2511 3984 
Q 2250 4219 1831 4219 
Q 1534 4219 1204 4116 
Q 875 4013 500 3803 
L 500 4441 
Q 881 4594 1212 4672 
Q 1544 4750 1819 4750 
Q 2544 4750 2975 4387 
Q 3406 4025 3406 3419 
Q 3406 3131 3298 2873 
Q 3191 2616 2906 2266 
Q 2828 2175 2409 1742 
Q 1991 1309 1228 531 
z
" transform="scale(0.015625)"/>
        <path id="DejaVuSans-38" d="M 2034 2216 
Q 1584 2216 1326 1975 
Q 1069 1734 1069 1313 
Q 1069 891 1326 650 
Q 1584 409 2034 409 
Q 2484 409 2743 651 
Q 3003 894 3003 1313 
Q 3003 1734 2745 1975 
Q 2488 2216 2034 2216 
z
M 1403 2484 
Q 997 2584 770 2862 
Q 544 3141 544 3541 
Q 544 4100 942 4425 
Q 1341 4750 2034 4750 
Q 2731 4750 3128 4425 
Q 3525 4100 3525 3541 
Q 3525 3141 3298 2862 
Q 3072 2584 2669 2484 
Q 3125 2378 3379 2068 
Q 3634 1759 3634 1313 
Q 3634 634 3220 271 
Q 2806 -91 2034 -91 
Q 1263 -91 848 271 
Q 434 634 434 1313 
Q 434 1759 690 2068 
Q 947 2378 1403 2484 
z
M 1172 3481 
Q 1172 3119 1398 2916 
Q 1625 2713 2034 2713 
Q 2441 2713 2670 2916 
Q 2900 3119 2900 3481 
Q 2900 3844 2670 4047 
Q 2441 4250 2034 4250 
Q 1625 4250 1398 4047 
Q 1172 3844 1172 3481 
z
" transform="scale(0.015625)"/>
       </defs>
       <use xlink:href="#DejaVuSans-32"/>
       <use xlink:href="#DejaVuSans-38" x="63.623047"/>
      </g>
     </g>
    </g>
    <g id="xtick_3">
     <g id="line2d_3">
      <g>
       <use xlink:href="#m45f22ef0e0" x="145.832727" y="307.584" style="stroke: #000000; stroke-width: 0.8"/>
      </g>
     </g>
     <g id="text_3">
      <!-- 56 -->
      <g transform="translate(139.470227 322.182437) scale(0.1 -0.1)">
       <defs>
        <path id="DejaVuSans-35" d="M 691 4666 
L 3169 4666 
L 3169 4134 
L 1269 4134 
L 1269 2991 
Q 1406 3038 1543 3061 
Q 1681 3084 1819 3084 
Q 2600 3084 3056 2656 
Q 3513 2228 3513 1497 
Q 3513 744 3044 326 
Q 2575 -91 1722 -91 
Q 1428 -91 1123 -41 
Q 819 9 494 109 
L 494 744 
Q 775 591 1075 516 
Q 1375 441 1709 441 
Q 2250 441 2565 725 
Q 2881 1009 2881 1497 
Q 2881 1984 2565 2268 
Q 2250 2553 1709 2553 
Q 1456 2553 1204 2497 
Q 953 2441 691 2322 
L 691 4666 
z
" transform="scale(0.015625)"/>
        <path id="DejaVuSans-36" d="M 2113 2584 
Q 1688 2584 1439 2293 
Q 1191 2003 1191 1497 
Q 1191 994 1439 701 
Q 1688 409 2113 409 
Q 2538 409 2786 701 
Q 3034 994 3034 1497 
Q 3034 2003 2786 2293 
Q 2538 2584 2113 2584 
z
M 3366 4563 
L 3366 3988 
Q 3128 4100 2886 4159 
Q 2644 4219 2406 4219 
Q 1781 4219 1451 3797 
Q 1122 3375 1075 2522 
Q 1259 2794 1537 2939 
Q 1816 3084 2150 3084 
Q 2853 3084 3261 2657 
Q 3669 2231 3669 1497 
Q 3669 778 3244 343 
Q 2819 -91 2113 -91 
Q 1303 -91 875 529 
Q 447 1150 447 2328 
Q 447 3434 972 4092 
Q 1497 4750 2381 4750 
Q 2619 4750 2861 4703 
Q 3103 4656 3366 4563 
z
" transform="scale(0.015625)"/>
       </defs>
       <use xlink:href="#DejaVuSans-35"/>
       <use xlink:href="#DejaVuSans-36" x="63.623047"/>
      </g>
     </g>
    </g>
    <g id="xtick_4">
     <g id="line2d_4">
      <g>
       <use xlink:href="#m45f22ef0e0" x="181.178182" y="307.584" style="stroke: #000000; stroke-width: 0.8"/>
      </g>
     </g>
     <g id="text_4">
      <!-- 83 -->
      <g transform="translate(174.815682 322.182437) scale(0.1 -0.1)">
       <defs>
        <path id="DejaVuSans-33" d="M 2597 2516 
Q 3050 2419 3304 2112 
Q 3559 1806 3559 1356 
Q 3559 666 3084 287 
Q 2609 -91 1734 -91 
Q 1441 -91 1130 -33 
Q 819 25 488 141 
L 488 750 
Q 750 597 1062 519 
Q 1375 441 1716 441 
Q 2309 441 2620 675 
Q 2931 909 2931 1356 
Q 2931 1769 2642 2001 
Q 2353 2234 1838 2234 
L 1294 2234 
L 1294 2753 
L 1863 2753 
Q 2328 2753 2575 2939 
Q 2822 3125 2822 3475 
Q 2822 3834 2567 4026 
Q 2313 4219 1838 4219 
Q 1578 4219 1281 4162 
Q 984 4106 628 3988 
L 628 4550 
Q 988 4650 1302 4700 
Q 1616 4750 1894 4750 
Q 2613 4750 3031 4423 
Q 3450 4097 3450 3541 
Q 3450 3153 3228 2886 
Q 3006 2619 2597 2516 
z
" transform="scale(0.015625)"/>
       </defs>
       <use xlink:href="#DejaVuSans-38"/>
       <use xlink:href="#DejaVuSans-33" x="63.623047"/>
      </g>
     </g>
    </g>
    <g id="xtick_5">
     <g id="line2d_5">
      <g>
       <use xlink:href="#m45f22ef0e0" x="217.832727" y="307.584" style="stroke: #000000; stroke-width: 0.8"/>
      </g>
     </g>
     <g id="text_5">
      <!-- 111 -->
      <g transform="translate(208.288977 322.182437) scale(0.1 -0.1)">
       <use xlink:href="#DejaVuSans-31"/>
       <use xlink:href="#DejaVuSans-31" x="63.623047"/>
       <use xlink:href="#DejaVuSans-31" x="127.246094"/>
      </g>
     </g>
    </g>
    <g id="xtick_6">
     <g id="line2d_6">
      <g>
       <use xlink:href="#m45f22ef0e0" x="253.178182" y="307.584" style="stroke: #000000; stroke-width: 0.8"/>
      </g>
     </g>
     <g id="text_6">
      <!-- 138 -->
      <g transform="translate(243.634432 322.182437) scale(0.1 -0.1)">
       <use xlink:href="#DejaVuSans-31"/>
       <use xlink:href="#DejaVuSans-33" x="63.623047"/>
       <use xlink:href="#DejaVuSans-38" x="127.246094"/>
      </g>
     </g>
    </g>
    <g id="xtick_7">
     <g id="line2d_7">
      <g>
       <use xlink:href="#m45f22ef0e0" x="289.832727" y="307.584" style="stroke: #000000; stroke-width: 0.8"/>
      </g>
     </g>
     <g id="text_7">
      <!-- 166 -->
      <g transform="translate(280.288977 322.182437) scale(0.1 -0.1)">
       <use xlink:href="#DejaVuSans-31"/>
       <use xlink:href="#DejaVuSans-36" x="63.623047"/>
       <use xlink:href="#DejaVuSans-36" x="127.246094"/>
      </g>
     </g>
    </g>
    <g id="xtick_8">
     <g id="line2d_8">
      <g>
       <use xlink:href="#m45f22ef0e0" x="325.178182" y="307.584" style="stroke: #000000; stroke-width: 0.8"/>
      </g>
     </g>
     <g id="text_8">
      <!-- 193 -->
      <g transform="translate(315.634432 322.182437) scale(0.1 -0.1)">
       <defs>
        <path id="DejaVuSans-39" d="M 703 97 
L 703 672 
Q 941 559 1184 500 
Q 1428 441 1663 441 
Q 2288 441 2617 861 
Q 2947 1281 2994 2138 
Q 2813 1869 2534 1725 
Q 2256 1581 1919 1581 
Q 1219 1581 811 2004 
Q 403 2428 403 3163 
Q 403 3881 828 4315 
Q 1253 4750 1959 4750 
Q 2769 4750 3195 4129 
Q 3622 3509 3622 2328 
Q 3622 1225 3098 567 
Q 2575 -91 1691 -91 
Q 1453 -91 1209 -44 
Q 966 3 703 97 
z
M 1959 2075 
Q 2384 2075 2632 2365 
Q 2881 2656 2881 3163 
Q 2881 3666 2632 3958 
Q 2384 4250 1959 4250 
Q 1534 4250 1286 3958 
Q 1038 3666 1038 3163 
Q 1038 2656 1286 2365 
Q 1534 2075 1959 2075 
z
" transform="scale(0.015625)"/>
       </defs>
       <use xlink:href="#DejaVuSans-31"/>
       <use xlink:href="#DejaVuSans-39" x="63.623047"/>
       <use xlink:href="#DejaVuSans-33" x="127.246094"/>
      </g>
     </g>
    </g>
    <g id="xtick_9">
     <g id="line2d_9">
      <g>
       <use xlink:href="#m45f22ef0e0" x="361.832727" y="307.584" style="stroke: #000000; stroke-width: 0.8"/>
      </g>
     </g>
     <g id="text_9">
      <!-- 221 -->
      <g transform="translate(352.288977 322.182437) scale(0.1 -0.1)">
       <use xlink:href="#DejaVuSans-32"/>
       <use xlink:href="#DejaVuSans-32" x="63.623047"/>
       <use xlink:href="#DejaVuSans-31" x="127.246094"/>
      </g>
     </g>
    </g>
    <g id="xtick_10">
     <g id="line2d_10">
      <g>
       <use xlink:href="#m45f22ef0e0" x="398.487273" y="307.584" style="stroke: #000000; stroke-width: 0.8"/>
      </g>
     </g>
     <g id="text_10">
      <!-- 249 -->
      <g transform="translate(388.943523 322.182437) scale(0.1 -0.1)">
       <defs>
        <path id="DejaVuSans-34" d="M 2419 4116 
L 825 1625 
L 2419 1625 
L 2419 4116 
z
M 2253 4666 
L 3047 4666 
L 3047 1625 
L 3713 1625 
L 3713 1100 
L 3047 1100 
L 3047 0 
L 2419 0 
L 2419 1100 
L 313 1100 
L 313 1709 
L 2253 4666 
z
" transform="scale(0.015625)"/>
       </defs>
       <use xlink:href="#DejaVuSans-32"/>
       <use xlink:href="#DejaVuSans-34" x="63.623047"/>
       <use xlink:href="#DejaVuSans-39" x="127.246094"/>
      </g>
     </g>
    </g>
    <g id="text_11">
     <!-- Epochs -->
     <g transform="translate(218.244375 335.860562) scale(0.1 -0.1)">
      <defs>
       <path id="DejaVuSans-45" d="M 628 4666 
L 3578 4666 
L 3578 4134 
L 1259 4134 
L 1259 2753 
L 3481 2753 
L 3481 2222 
L 1259 2222 
L 1259 531 
L 3634 531 
L 3634 0 
L 628 0 
L 628 4666 
z
" transform="scale(0.015625)"/>
       <path id="DejaVuSans-70" d="M 1159 525 
L 1159 -1331 
L 581 -1331 
L 581 3500 
L 1159 3500 
L 1159 2969 
Q 1341 3281 1617 3432 
Q 1894 3584 2278 3584 
Q 2916 3584 3314 3078 
Q 3713 2572 3713 1747 
Q 3713 922 3314 415 
Q 2916 -91 2278 -91 
Q 1894 -91 1617 61 
Q 1341 213 1159 525 
z
M 3116 1747 
Q 3116 2381 2855 2742 
Q 2594 3103 2138 3103 
Q 1681 3103 1420 2742 
Q 1159 2381 1159 1747 
Q 1159 1113 1420 752 
Q 1681 391 2138 391 
Q 2594 391 2855 752 
Q 3116 1113 3116 1747 
z
" transform="scale(0.015625)"/>
       <path id="DejaVuSans-6f" d="M 1959 3097 
Q 1497 3097 1228 2736 
Q 959 2375 959 1747 
Q 959 1119 1226 758 
Q 1494 397 1959 397 
Q 2419 397 2687 759 
Q 2956 1122 2956 1747 
Q 2956 2369 2687 2733 
Q 2419 3097 1959 3097 
z
M 1959 3584 
Q 2709 3584 3137 3096 
Q 3566 2609 3566 1747 
Q 3566 888 3137 398 
Q 2709 -91 1959 -91 
Q 1206 -91 779 398 
Q 353 888 353 1747 
Q 353 2609 779 3096 
Q 1206 3584 1959 3584 
z
" transform="scale(0.015625)"/>
       <path id="DejaVuSans-63" d="M 3122 3366 
L 3122 2828 
Q 2878 2963 2633 3030 
Q 2388 3097 2138 3097 
Q 1578 3097 1268 2742 
Q 959 2388 959 1747 
Q 959 1106 1268 751 
Q 1578 397 2138 397 
Q 2388 397 2633 464 
Q 2878 531 3122 666 
L 3122 134 
Q 2881 22 2623 -34 
Q 2366 -91 2075 -91 
Q 1284 -91 818 406 
Q 353 903 353 1747 
Q 353 2603 823 3093 
Q 1294 3584 2113 3584 
Q 2378 3584 2631 3529 
Q 2884 3475 3122 3366 
z
" transform="scale(0.015625)"/>
       <path id="DejaVuSans-68" d="M 3513 2113 
L 3513 0 
L 2938 0 
L 2938 2094 
Q 2938 2591 2744 2837 
Q 2550 3084 2163 3084 
Q 1697 3084 1428 2787 
Q 1159 2491 1159 1978 
L 1159 0 
L 581 0 
L 581 4863 
L 1159 4863 
L 1159 2956 
Q 1366 3272 1645 3428 
Q 1925 3584 2291 3584 
Q 2894 3584 3203 3211 
Q 3513 2838 3513 2113 
z
" transform="scale(0.015625)"/>
       <path id="DejaVuSans-73" d="M 2834 3397 
L 2834 2853 
Q 2591 2978 2328 3040 
Q 2066 3103 1784 3103 
Q 1356 3103 1142 2972 
Q 928 2841 928 2578 
Q 928 2378 1081 2264 
Q 1234 2150 1697 2047 
L 1894 2003 
Q 2506 1872 2764 1633 
Q 3022 1394 3022 966 
Q 3022 478 2636 193 
Q 2250 -91 1575 -91 
Q 1294 -91 989 -36 
Q 684 19 347 128 
L 347 722 
Q 666 556 975 473 
Q 1284 391 1588 391 
Q 1994 391 2212 530 
Q 2431 669 2431 922 
Q 2431 1156 2273 1281 
Q 2116 1406 1581 1522 
L 1381 1569 
Q 847 1681 609 1914 
Q 372 2147 372 2553 
Q 372 3047 722 3315 
Q 1072 3584 1716 3584 
Q 2034 3584 2315 3537 
Q 2597 3491 2834 3397 
z
" transform="scale(0.015625)"/>
      </defs>
      <use xlink:href="#DejaVuSans-45"/>
      <use xlink:href="#DejaVuSans-70" x="63.183594"/>
      <use xlink:href="#DejaVuSans-6f" x="126.660156"/>
      <use xlink:href="#DejaVuSans-63" x="187.841797"/>
      <use xlink:href="#DejaVuSans-68" x="242.822266"/>
      <use xlink:href="#DejaVuSans-73" x="306.201172"/>
     </g>
    </g>
   </g>
   <g id="matplotlib.axis_2">
    <g id="ytick_1">
     <g id="line2d_11">
      <defs>
       <path id="m3af976e7bd" d="M 0 0 
L -3.5 0 
" style="stroke: #000000; stroke-width: 0.8"/>
      </defs>
      <g>
       <use xlink:href="#m3af976e7bd" x="57.6" y="280.059338" style="stroke: #000000; stroke-width: 0.8"/>
      </g>
     </g>
     <g id="text_12">
      <!-- 10 -->
      <g transform="translate(37.875 283.858557) scale(0.1 -0.1)">
       <defs>
        <path id="DejaVuSans-30" d="M 2034 4250 
Q 1547 4250 1301 3770 
Q 1056 3291 1056 2328 
Q 1056 1369 1301 889 
Q 1547 409 2034 409 
Q 2525 409 2770 889 
Q 3016 1369 3016 2328 
Q 3016 3291 2770 3770 
Q 2525 4250 2034 4250 
z
M 2034 4750 
Q 2819 4750 3233 4129 
Q 3647 3509 3647 2328 
Q 3647 1150 3233 529 
Q 2819 -91 2034 -91 
Q 1250 -91 836 529 
Q 422 1150 422 2328 
Q 422 3509 836 4129 
Q 1250 4750 2034 4750 
z
" transform="scale(0.015625)"/>
       </defs>
       <use xlink:href="#DejaVuSans-31"/>
       <use xlink:href="#DejaVuSans-30" x="63.623047"/>
      </g>
     </g>
    </g>
    <g id="ytick_2">
     <g id="line2d_12">
      <g>
       <use xlink:href="#m3af976e7bd" x="57.6" y="243.879191" style="stroke: #000000; stroke-width: 0.8"/>
      </g>
     </g>
     <g id="text_13">
      <!-- 20 -->
      <g transform="translate(37.875 247.67841) scale(0.1 -0.1)">
       <use xlink:href="#DejaVuSans-32"/>
       <use xlink:href="#DejaVuSans-30" x="63.623047"/>
      </g>
     </g>
    </g>
    <g id="ytick_3">
     <g id="line2d_13">
      <g>
       <use xlink:href="#m3af976e7bd" x="57.6" y="207.699044" style="stroke: #000000; stroke-width: 0.8"/>
      </g>
     </g>
     <g id="text_14">
      <!-- 30 -->
      <g transform="translate(37.875 211.498263) scale(0.1 -0.1)">
       <use xlink:href="#DejaVuSans-33"/>
       <use xlink:href="#DejaVuSans-30" x="63.623047"/>
      </g>
     </g>
    </g>
    <g id="ytick_4">
     <g id="line2d_14">
      <g>
       <use xlink:href="#m3af976e7bd" x="57.6" y="171.518897" style="stroke: #000000; stroke-width: 0.8"/>
      </g>
     </g>
     <g id="text_15">
      <!-- 40 -->
      <g transform="translate(37.875 175.318116) scale(0.1 -0.1)">
       <use xlink:href="#DejaVuSans-34"/>
       <use xlink:href="#DejaVuSans-30" x="63.623047"/>
      </g>
     </g>
    </g>
    <g id="ytick_5">
     <g id="line2d_15">
      <g>
       <use xlink:href="#m3af976e7bd" x="57.6" y="135.33875" style="stroke: #000000; stroke-width: 0.8"/>
      </g>
     </g>
     <g id="text_16">
      <!-- 50 -->
      <g transform="translate(37.875 139.137969) scale(0.1 -0.1)">
       <use xlink:href="#DejaVuSans-35"/>
       <use xlink:href="#DejaVuSans-30" x="63.623047"/>
      </g>
     </g>
    </g>
    <g id="ytick_6">
     <g id="line2d_16">
      <g>
       <use xlink:href="#m3af976e7bd" x="57.6" y="99.158603" style="stroke: #000000; stroke-width: 0.8"/>
      </g>
     </g>
     <g id="text_17">
      <!-- 60 -->
      <g transform="translate(37.875 102.957822) scale(0.1 -0.1)">
       <use xlink:href="#DejaVuSans-36"/>
       <use xlink:href="#DejaVuSans-30" x="63.623047"/>
      </g>
     </g>
    </g>
    <g id="ytick_7">
     <g id="line2d_17">
      <g>
       <use xlink:href="#m3af976e7bd" x="57.6" y="62.978456" style="stroke: #000000; stroke-width: 0.8"/>
      </g>
     </g>
     <g id="text_18">
      <!-- 70 -->
      <g transform="translate(37.875 66.777675) scale(0.1 -0.1)">
       <defs>
        <path id="DejaVuSans-37" d="M 525 4666 
L 3525 4666 
L 3525 4397 
L 1831 0 
L 1172 0 
L 2766 4134 
L 525 4134 
L 525 4666 
z
" transform="scale(0.015625)"/>
       </defs>
       <use xlink:href="#DejaVuSans-37"/>
       <use xlink:href="#DejaVuSans-30" x="63.623047"/>
      </g>
     </g>
    </g>
    <g id="text_19">
     <!-- Accuracy -->
     <g transform="translate(31.795312 197.356125) rotate(-90) scale(0.1 -0.1)">
      <defs>
       <path id="DejaVuSans-41" d="M 2188 4044 
L 1331 1722 
L 3047 1722 
L 2188 4044 
z
M 1831 4666 
L 2547 4666 
L 4325 0 
L 3669 0 
L 3244 1197 
L 1141 1197 
L 716 0 
L 50 0 
L 1831 4666 
z
" transform="scale(0.015625)"/>
       <path id="DejaVuSans-75" d="M 544 1381 
L 544 3500 
L 1119 3500 
L 1119 1403 
Q 1119 906 1312 657 
Q 1506 409 1894 409 
Q 2359 409 2629 706 
Q 2900 1003 2900 1516 
L 2900 3500 
L 3475 3500 
L 3475 0 
L 2900 0 
L 2900 538 
Q 2691 219 2414 64 
Q 2138 -91 1772 -91 
Q 1169 -91 856 284 
Q 544 659 544 1381 
z
M 1991 3584 
L 1991 3584 
z
" transform="scale(0.015625)"/>
       <path id="DejaVuSans-72" d="M 2631 2963 
Q 2534 3019 2420 3045 
Q 2306 3072 2169 3072 
Q 1681 3072 1420 2755 
Q 1159 2438 1159 1844 
L 1159 0 
L 581 0 
L 581 3500 
L 1159 3500 
L 1159 2956 
Q 1341 3275 1631 3429 
Q 1922 3584 2338 3584 
Q 2397 3584 2469 3576 
Q 2541 3569 2628 3553 
L 2631 2963 
z
" transform="scale(0.015625)"/>
       <path id="DejaVuSans-61" d="M 2194 1759 
Q 1497 1759 1228 1600 
Q 959 1441 959 1056 
Q 959 750 1161 570 
Q 1363 391 1709 391 
Q 2188 391 2477 730 
Q 2766 1069 2766 1631 
L 2766 1759 
L 2194 1759 
z
M 3341 1997 
L 3341 0 
L 2766 0 
L 2766 531 
Q 2569 213 2275 61 
Q 1981 -91 1556 -91 
Q 1019 -91 701 211 
Q 384 513 384 1019 
Q 384 1609 779 1909 
Q 1175 2209 1959 2209 
L 2766 2209 
L 2766 2266 
Q 2766 2663 2505 2880 
Q 2244 3097 1772 3097 
Q 1472 3097 1187 3025 
Q 903 2953 641 2809 
L 641 3341 
Q 956 3463 1253 3523 
Q 1550 3584 1831 3584 
Q 2591 3584 2966 3190 
Q 3341 2797 3341 1997 
z
" transform="scale(0.015625)"/>
       <path id="DejaVuSans-79" d="M 2059 -325 
Q 1816 -950 1584 -1140 
Q 1353 -1331 966 -1331 
L 506 -1331 
L 506 -850 
L 844 -850 
Q 1081 -850 1212 -737 
Q 1344 -625 1503 -206 
L 1606 56 
L 191 3500 
L 800 3500 
L 1894 763 
L 2988 3500 
L 3597 3500 
L 2059 -325 
z
" transform="scale(0.015625)"/>
      </defs>
      <use xlink:href="#DejaVuSans-41"/>
      <use xlink:href="#DejaVuSans-63" x="66.658203"/>
      <use xlink:href="#DejaVuSans-63" x="121.638672"/>
      <use xlink:href="#DejaVuSans-75" x="176.619141"/>
      <use xlink:href="#DejaVuSans-72" x="239.998047"/>
      <use xlink:href="#DejaVuSans-61" x="281.111328"/>
      <use xlink:href="#DejaVuSans-63" x="342.390625"/>
      <use xlink:href="#DejaVuSans-79" x="397.371094"/>
     </g>
    </g>
   </g>
   <g id="line2d_18">
    <path d="M 73.832727 295.488 
L 75.141818 262.220355 
L 76.450909 237.806715 
L 77.76 219.00534 
L 79.069091 204.687409 
L 80.378182 193.188273 
L 82.996364 174.408606 
L 84.305455 167.587924 
L 85.614545 161.642802 
L 88.232727 147.661346 
L 89.541818 143.93443 
L 90.850909 138.300457 
L 92.16 133.763105 
L 94.778182 126.175043 
L 96.087273 124.315383 
L 97.396364 123.855895 
L 98.705455 122.249135 
L 100.014545 156.055864 
L 101.323636 155.259901 
L 102.632727 152.339801 
L 107.869091 138.061668 
L 109.178182 136.668371 
L 110.487273 133.820993 
L 111.796364 131.389325 
L 113.105455 128.281089 
L 114.414545 126.113536 
L 115.723636 123.446698 
L 117.032727 121.445936 
L 118.341818 119.969424 
L 119.650909 116.398081 
L 122.269091 113.217485 
L 123.578182 109.790863 
L 124.887273 108.850179 
L 126.196364 105.843247 
L 127.505455 104.533526 
L 131.432727 98.472628 
L 132.741818 95.158164 
L 134.050909 94.12305 
L 135.36 91.474664 
L 136.669091 89.766599 
L 139.287273 85.844309 
L 140.596364 85.001312 
L 143.214545 81.270777 
L 144.523636 81.524038 
L 145.832727 79.175584 
L 148.450909 78.593084 
L 149.76 79.750849 
L 151.069091 77.492846 
L 152.378182 116.560892 
L 153.687273 120.664444 
L 154.996364 119.271147 
L 156.305455 118.258103 
L 157.614545 117.784143 
L 158.923636 117.744345 
L 160.232727 115.269261 
L 161.541818 114.147676 
L 162.850909 113.307935 
L 164.16 112.685637 
L 165.469091 111.820931 
L 166.778182 111.119036 
L 168.087273 109.638906 
L 169.396364 108.618626 
L 170.705455 106.631974 
L 172.014545 106.675391 
L 173.323636 105.875809 
L 174.632727 105.741943 
L 175.941818 103.92172 
L 177.250909 103.773381 
L 178.56 102.977418 
L 179.869091 101.508504 
L 181.178182 100.647054 
L 182.487273 100.524042 
L 183.796364 98.519662 
L 185.105455 97.339827 
L 186.414545 96.985262 
L 189.032727 94.799981 
L 191.650909 93.254727 
L 192.96 92.176558 
L 195.578182 91.460192 
L 196.887273 90.207997 
L 198.196364 89.12621 
L 199.505455 88.478586 
L 200.814545 88.529238 
L 202.123636 86.159076 
L 203.432727 84.860209 
L 204.741818 84.813175 
L 206.050909 83.984288 
L 208.669091 80.948412 
L 209.978182 80.44189 
L 211.287273 79.714669 
L 212.596364 78.010584 
L 213.905455 77.547116 
L 215.214545 75.97328 
L 216.523636 74.916819 
L 217.832727 74.352047 
L 219.141818 73.447544 
L 220.450909 71.645772 
L 221.76 71.084618 
L 223.069091 68.989788 
L 224.378182 69.170688 
L 225.687273 67.346847 
L 226.996364 68.193824 
L 228.305455 66.898213 
L 229.614545 64.926395 
L 230.923636 65.002374 
L 232.232727 63.355815 
L 236.16 60.222253 
L 237.469091 60.041352 
L 240.087273 57.240647 
L 242.705455 56.835429 
L 245.323636 56.046702 
L 246.632727 55.127726 
L 247.941818 54.950443 
L 249.250909 54.00578 
L 250.56 54.809341 
L 251.869091 53.568 
L 253.178182 54.46165 
L 254.487273 53.777845 
L 255.796364 54.074522 
L 257.105455 102.054824 
L 258.414545 106.776695 
L 259.723636 106.385949 
L 262.341818 104.613122 
L 263.650909 105.159442 
L 264.96 104.558852 
L 266.269091 104.099364 
L 267.578182 102.731393 
L 268.887273 101.801563 
L 270.196364 102.239343 
L 271.505455 101.425289 
L 272.814545 99.753405 
L 274.123636 98.910407 
L 275.432727 98.356851 
L 276.741818 99.594212 
L 278.050909 97.437514 
L 279.36 97.419424 
L 280.669091 97.633248 
L 281.978182 97.093802 
L 283.287273 95.577854 
L 284.596364 95.443988 
L 285.905455 95.632124 
L 287.214545 96.438942 
L 288.523636 94.912139 
L 289.832727 94.991736 
L 291.141818 93.497134 
L 292.450909 94.329639 
L 293.76 93.366885 
L 295.069091 92.570922 
L 296.378182 92.892925 
L 297.687273 92.031838 
L 298.996364 92.234447 
L 300.305455 90.736227 
L 301.614545 91.807521 
L 302.923636 91.004322 
L 304.232727 91.774959 
L 305.541818 90.189907 
L 306.850909 90.359953 
L 308.16 89.712329 
L 309.469091 89.419269 
L 310.778182 89.567608 
L 312.087273 89.252841 
L 313.396364 89.43736 
L 314.705455 88.152964 
L 316.014545 89.245605 
L 317.323636 89.006816 
L 318.632727 87.823725 
L 319.941818 87.248099 
L 321.250909 86.821173 
L 322.56 87.172121 
L 323.869091 85.464418 
L 325.178182 85.319697 
L 326.487273 85.735769 
L 327.796364 84.805939 
L 329.105455 84.465846 
L 330.414545 84.610566 
L 331.723636 83.076166 
L 333.032727 84.147098 
L 334.341818 82.699893 
L 336.96 81.509566 
L 338.269091 82.598588 
L 339.578182 82.005234 
L 340.887273 80.275461 
L 342.196364 81.585544 
L 343.505455 80.065616 
L 347.432727 79.635072 
L 348.741818 79.642308 
L 350.050909 78.944031 
L 351.36 77.746107 
L 352.669091 77.413249 
L 353.978182 77.207023 
L 355.287273 77.217877 
L 356.596364 75.506556 
L 357.905455 75.969662 
L 359.214545 75.217115 
L 361.832727 74.250743 
L 363.141818 75.398015 
L 364.450909 73.689951 
L 365.76 73.212373 
L 367.069091 71.826673 
L 368.378182 72.394701 
L 369.687273 71.804965 
L 370.996364 71.370803 
L 372.305455 69.901527 
L 373.614545 70.635984 
L 374.923636 71.15336 
L 376.232727 69.782133 
L 377.541818 67.856987 
L 378.850909 68.05634 
L 380.16 68.50124 
L 381.469091 66.47131 
L 382.778182 66.102232 
L 384.087273 66.196311 
L 386.705455 64.365394 
L 388.014545 63.996316 
L 389.323636 63.82625 
L 390.632727 63.50783 
L 391.941818 62.639411 
L 393.250909 61.919347 
L 394.56 62.382504 
L 395.869091 61.828887 
L 397.178182 61.047309 
L 398.487273 60.515403 
L 398.487273 60.515403 
" clip-path="url(#p064a933014)" style="fill: none; stroke: #1f77b4; stroke-width: 1.5; stroke-linecap: square"/>
   </g>
   <g id="line2d_19">
    <path d="M 73.832727 275.753901 
L 75.141818 250.427798 
L 76.450909 221.158059 
L 77.76 214.247651 
L 79.069091 197.713324 
L 81.687273 180.129772 
L 82.996364 174.66657 
L 84.305455 162.32914 
L 85.614545 163.306004 
L 88.232727 147.929441 
L 89.541818 147.56764 
L 92.16 137.075397 
L 93.469091 131.214213 
L 94.778182 128.971044 
L 96.087273 126.366074 
L 97.396364 127.053497 
L 98.705455 126.366074 
L 100.014545 160.556313 
L 101.323636 158.457864 
L 102.632727 154.116246 
L 103.941818 147.748541 
L 105.250909 146.952577 
L 106.56 143.153662 
L 107.869091 141.887357 
L 109.178182 142.75568 
L 110.487273 134.506607 
L 111.796364 133.565923 
L 113.105455 128.319802 
L 114.414545 128.971044 
L 115.723636 126.293713 
L 117.032727 122.422438 
L 118.341818 121.373213 
L 119.650909 116.416533 
L 120.96 117.827559 
L 122.269091 110.193548 
L 123.578182 110.229728 
L 124.887273 106.973515 
L 126.196364 109.614666 
L 127.505455 102.812798 
L 128.814545 103.500221 
L 130.123636 101.293232 
L 131.432727 102.776618 
L 132.741818 96.408912 
L 134.050909 95.251147 
L 135.36 92.501456 
L 136.669091 92.465276 
L 137.978182 89.172883 
L 139.287273 89.896486 
L 140.596364 87.942758 
L 141.905455 86.676453 
L 143.214545 84.288563 
L 144.523636 83.52878 
L 145.832727 82.949897 
L 147.141818 81.538872 
L 148.450909 81.502691 
L 149.76 82.153934 
L 151.069091 82.407195 
L 152.378182 127.81328 
L 153.687273 123.146041 
L 154.996364 128.681603 
L 156.305455 122.350077 
L 157.614545 123.109861 
L 158.923636 123.00132 
L 160.232727 124.846508 
L 161.541818 115.837651 
L 162.850909 113.594482 
L 164.16 118.659702 
L 165.469091 116.923055 
L 166.778182 117.610478 
L 168.087273 113.12414 
L 169.396364 111.966375 
L 170.705455 109.433765 
L 172.014545 115.403489 
L 173.323636 111.604574 
L 174.632727 116.886875 
L 175.941818 105.81575 
L 177.250909 109.252864 
L 178.56 114.607526 
L 179.869091 101.510313 
L 181.178182 101.329412 
L 182.487273 103.898202 
L 183.796364 97.675217 
L 185.105455 100.93143 
L 186.414545 98.652081 
L 187.723636 106.358452 
L 189.032727 104.730346 
L 190.341818 98.037019 
L 191.650909 99.013883 
L 192.96 98.579721 
L 194.269091 93.840122 
L 195.578182 96.517452 
L 196.887273 95.432048 
L 198.196364 97.204875 
L 199.505455 90.728629 
L 200.814545 90.294467 
L 202.123636 89.679405 
L 203.432727 86.567912 
L 204.741818 85.699589 
L 206.050909 88.52164 
L 207.36 86.13375 
L 208.669091 87.219155 
L 209.978182 80.525828 
L 211.287273 81.17707 
L 212.596364 80.815269 
L 213.905455 82.696636 
L 215.214545 80.742908 
L 216.523636 78.535919 
L 219.141818 75.750048 
L 220.450909 77.233434 
L 221.76 74.158122 
L 223.069091 71.40843 
L 224.378182 73.6516 
L 225.687273 72.059673 
L 226.996364 72.204394 
L 228.305455 70.467747 
L 229.614545 68.333118 
L 230.923636 67.862776 
L 232.232727 65.004544 
L 233.541818 66.524111 
L 234.850909 66.560291 
L 236.16 65.113085 
L 237.469091 65.981408 
L 238.778182 65.583427 
L 240.087273 62.399574 
L 241.396364 62.942276 
L 242.705455 61.856872 
L 244.014545 62.001592 
L 245.323636 61.820692 
L 246.632727 60.771467 
L 247.941818 60.047864 
L 249.250909 60.482026 
L 250.56 60.156405 
L 251.869091 60.084044 
L 253.178182 60.482026 
L 254.487273 59.866964 
L 255.796364 59.866964 
L 257.105455 117.465758 
L 258.414545 120.287809 
L 259.723636 116.742155 
L 261.032727 111.061872 
L 262.341818 116.235633 
L 263.650909 108.456901 
L 264.96 113.12414 
L 266.269091 111.351313 
L 267.578182 109.252864 
L 268.887273 109.578486 
L 270.196364 110.62771 
L 271.505455 112.328177 
L 272.814545 101.655033 
L 274.123636 110.374449 
L 275.432727 103.898202 
L 276.741818 104.368544 
L 278.050909 94.346644 
L 279.36 107.371497 
L 280.669091 104.477085 
L 281.978182 103.717302 
L 283.287273 98.39882 
L 284.596364 102.523357 
L 285.905455 104.549445 
L 287.214545 103.970563 
L 288.523636 99.230964 
L 289.832727 99.954566 
L 291.141818 108.420721 
L 292.450909 101.401772 
L 293.76 99.846026 
L 295.069091 102.885158 
L 296.378182 99.194783 
L 297.687273 97.458136 
L 298.996364 94.744625 
L 300.305455 104.115283 
L 301.614545 101.437952 
L 302.923636 101.039971 
L 304.232727 92.212015 
L 305.541818 107.950379 
L 306.850909 95.106427 
L 308.16 98.579721 
L 309.469091 96.191831 
L 310.778182 93.044158 
L 312.087273 98.615901 
L 313.396364 101.257052 
L 314.705455 101.148511 
L 316.014545 95.685309 
L 317.323636 97.060155 
L 318.632727 94.889346 
L 319.941818 97.964658 
L 321.250909 98.941522 
L 322.56 94.780805 
L 323.869091 92.465276 
L 325.178182 90.475368 
L 326.487273 92.248195 
L 327.796364 91.198971 
L 329.105455 92.356736 
L 330.414545 94.563725 
L 331.723636 89.570864 
L 333.032727 96.987794 
L 334.341818 92.103475 
L 335.650909 89.100522 
L 336.96 88.919622 
L 338.269091 85.808129 
L 339.578182 91.596952 
L 340.887273 91.814033 
L 342.196364 90.800989 
L 343.505455 91.343691 
L 344.814545 84.831265 
L 346.123636 85.699589 
L 347.432727 83.311699 
L 348.741818 92.718537 
L 350.050909 84.722725 
L 351.36 88.232199 
L 352.669091 90.041206 
L 353.978182 85.084526 
L 355.287273 86.242291 
L 356.596364 83.384059 
L 357.905455 83.926761 
L 359.214545 80.923809 
L 361.832727 79.404243 
L 363.141818 80.598188 
L 364.450909 79.946945 
L 365.76 77.378155 
L 367.069091 82.443375 
L 368.378182 81.17707 
L 369.687273 78.391199 
L 370.996364 73.72396 
L 372.305455 75.388247 
L 373.614545 74.339022 
L 374.923636 77.920857 
L 376.232727 75.315886 
L 377.541818 75.134986 
L 378.850909 75.641508 
L 380.16 77.631416 
L 381.469091 72.566195 
L 382.778182 72.276754 
L 384.087273 69.816504 
L 385.396364 73.6516 
L 386.705455 73.8325 
L 388.014545 72.312934 
L 389.323636 67.826596 
L 390.632727 71.29989 
L 391.941818 71.951133 
L 393.250909 72.204394 
L 394.56 69.129081 
L 395.869091 68.94818 
L 397.178182 71.26371 
L 398.487273 67.573335 
L 398.487273 67.573335 
" clip-path="url(#p064a933014)" style="fill: none; stroke: #ff7f0e; stroke-width: 1.5; stroke-linecap: square"/>
   </g>
   <g id="line2d_20">
    <path d="M 73.832727 288.867395 
L 75.141818 283.078571 
L 76.450909 264.065181 
L 77.76 263.416471 
L 79.069091 255.157267 
L 80.378182 254.583449 
L 81.687273 248.744697 
L 82.996364 251.664073 
L 84.305455 247.846706 
L 85.614545 249.16909 
L 86.923636 244.028977 
L 88.232727 241.159529 
L 89.541818 239.312895 
L 90.850909 240.984779 
L 92.16 233.598964 
L 93.469091 233.848607 
L 96.087273 234.896384 
L 97.396364 232.92529 
L 98.705455 233.10004 
L 100.014545 247.397349 
L 101.323636 237.192015 
L 102.632727 242.731557 
L 103.941818 244.328187 
L 105.250909 242.332128 
L 106.56 243.979048 
L 107.869091 237.3418 
L 109.178182 241.683418 
L 110.487273 235.520492 
L 111.796364 240.211248 
L 113.105455 232.051901 
L 114.414545 233.299754 
L 115.723636 226.662506 
L 117.032727 228.533744 
L 118.341818 226.587613 
L 119.650909 226.637542 
L 120.96 224.616519 
L 122.269091 222.221032 
L 123.578182 228.084748 
L 124.887273 219.750651 
L 126.196364 226.487756 
L 127.505455 217.85445 
L 130.123636 214.685431 
L 131.432727 219.601227 
L 132.741818 212.7393 
L 134.050909 213.163332 
L 135.36 216.008177 
L 136.669091 211.791019 
L 137.978182 211.042452 
L 139.287273 209.645174 
L 140.596364 211.217202 
L 141.905455 207.399473 
L 143.214545 208.572433 
L 144.523636 207.000406 
L 145.832727 207.250049 
L 147.141818 204.754704 
L 148.450909 207.20012 
L 149.76 205.927302 
L 151.069091 206.625941 
L 152.378182 227.286252 
L 153.687273 225.564439 
L 154.996364 232.476294 
L 156.305455 228.558708 
L 157.614545 233.549036 
L 158.923636 234.547246 
L 160.232727 229.706704 
L 161.541818 217.405454 
L 162.850909 227.136466 
L 164.16 227.461002 
L 165.469091 229.332239 
L 166.778182 221.547357 
L 168.087273 229.082596 
L 169.396364 223.992412 
L 170.705455 214.061685 
L 172.014545 213.737511 
L 173.323636 213.712546 
L 174.632727 224.666448 
L 175.941818 218.902588 
L 177.250909 223.468523 
L 178.56 224.441769 
L 179.869091 210.219353 
L 181.178182 216.307387 
L 182.487273 221.222821 
L 183.796364 212.714336 
L 185.105455 213.512832 
L 186.414545 214.985002 
L 187.723636 227.510931 
L 190.341818 209.894817 
L 191.650909 218.777767 
L 192.96 212.165483 
L 194.269091 212.664408 
L 195.578182 214.685431 
L 196.887273 207.000406 
L 198.196364 214.111613 
L 199.505455 202.908431 
L 202.123636 213.462903 
L 203.432727 205.029311 
L 204.741818 198.516885 
L 206.050909 209.96971 
L 207.36 208.547469 
L 208.669091 200.2633 
L 209.978182 202.858502 
L 211.287273 193.301878 
L 212.596364 195.347866 
L 213.905455 203.507212 
L 215.214545 195.497651 
L 216.523636 198.591778 
L 217.832727 196.420969 
L 219.141818 188.960261 
L 220.450909 201.885256 
L 221.76 198.49192 
L 223.069091 194.275124 
L 224.378182 197.593567 
L 225.687273 193.576486 
L 226.996364 191.380712 
L 228.305455 189.559042 
L 229.614545 188.935296 
L 232.232727 186.464916 
L 233.541818 185.317282 
L 234.850909 188.236658 
L 237.469091 192.553311 
L 238.778182 187.612912 
L 240.087273 189.184939 
L 241.396364 187.837229 
L 242.705455 184.768429 
L 245.323636 191.330784 
L 246.632727 190.232716 
L 247.941818 190.557252 
L 249.250909 189.858614 
L 250.56 190.307609 
L 251.869091 190.981284 
L 253.178182 190.881426 
L 254.487273 188.835439 
L 255.796364 190.632145 
L 257.105455 229.756633 
L 258.414545 236.892805 
L 259.723636 226.587613 
L 261.032727 225.814082 
L 262.341818 225.315158 
L 263.650909 215.409033 
L 264.96 225.789118 
L 266.269091 232.775504 
L 267.578182 225.789118 
L 268.887273 221.197857 
L 270.196364 222.894706 
L 271.505455 233.349683 
L 272.814545 208.048544 
L 274.123636 226.662506 
L 275.432727 213.936863 
L 276.741818 219.551299 
L 278.050909 217.030989 
L 279.36 222.969599 
L 280.669091 224.740979 
L 281.978182 215.309176 
L 283.287273 208.272861 
L 284.596364 216.332351 
L 285.905455 209.745031 
L 287.214545 221.172893 
L 288.523636 211.791019 
L 289.832727 210.942956 
L 291.141818 223.044492 
L 292.450909 217.704664 
L 293.76 213.288153 
L 296.378182 222.171103 
L 297.687273 218.054164 
L 298.996364 217.180775 
L 300.305455 223.318737 
L 301.614545 216.482137 
L 302.923636 226.088689 
L 304.232727 211.391952 
L 305.541818 224.691412 
L 306.850909 211.516773 
L 308.16 222.121174 
L 309.469091 211.117344 
L 312.087273 208.247897 
L 313.396364 221.122964 
L 314.705455 219.451441 
L 316.014545 206.775727 
L 317.323636 209.994674 
L 318.632727 210.992523 
L 319.941818 217.405454 
L 321.250909 217.929343 
L 322.56 211.566702 
L 323.869091 201.835328 
L 325.178182 206.002195 
L 326.487273 213.687582 
L 327.796364 212.265341 
L 329.105455 211.91584 
L 330.414545 208.597397 
L 331.723636 206.02716 
L 333.032727 211.940805 
L 334.341818 213.038872 
L 335.650909 215.633712 
L 336.96 207.898759 
L 338.269091 206.326731 
L 339.578182 218.129057 
L 340.887273 215.458962 
L 342.196364 215.109824 
L 343.505455 209.420857 
L 344.814545 206.476517 
L 346.123636 205.029311 
L 347.432727 198.866023 
L 348.741818 212.215412 
L 350.050909 205.104204 
L 351.36 217.355525 
L 352.669091 216.906168 
L 353.978182 210.992523 
L 355.287273 198.092492 
L 356.596364 210.668349 
L 357.905455 209.470786 
L 360.523636 195.472687 
L 361.832727 202.533966 
L 363.141818 206.55141 
L 364.450909 199.939126 
L 365.76 194.100374 
L 367.069091 208.14804 
L 368.378182 200.787551 
L 369.687273 202.284323 
L 372.305455 193.675981 
L 373.614545 192.12928 
L 374.923636 197.244067 
L 376.232727 188.61076 
L 377.541818 193.775838 
L 378.850909 197.768317 
L 380.16 197.593555 
L 381.469091 182.747219 
L 382.778182 190.132959 
L 384.087273 189.858489 
L 385.396364 188.560994 
L 386.705455 188.78556 
L 388.014545 192.203961 
L 389.323636 185.990956 
L 390.632727 190.382477 
L 391.941818 203.232667 
L 393.250909 190.083055 
L 394.56 192.278816 
L 395.869091 193.177082 
L 397.178182 192.403575 
L 398.487273 194.299914 
L 398.487273 194.299914 
" clip-path="url(#p064a933014)" style="fill: none; stroke: #2ca02c; stroke-width: 1.5; stroke-linecap: square"/>
   </g>
   <g id="line2d_21">
    <path d="M 0 0 
" clip-path="url(#p064a933014)" style="fill: none; stroke: #d62728; stroke-width: 1.5; stroke-linecap: square"/>
   </g>
   <g id="line2d_22">
    <path d="M 0 0 
" clip-path="url(#p064a933014)" style="fill: none; stroke: #9467bd; stroke-width: 1.5; stroke-linecap: square"/>
   </g>
   <g id="patch_3">
    <path d="M 57.6 307.584 
L 57.6 41.472 
" style="fill: none; stroke: #000000; stroke-width: 0.8; stroke-linejoin: miter; stroke-linecap: square"/>
   </g>
   <g id="patch_4">
    <path d="M 414.72 307.584 
L 414.72 41.472 
" style="fill: none; stroke: #000000; stroke-width: 0.8; stroke-linejoin: miter; stroke-linecap: square"/>
   </g>
   <g id="patch_5">
    <path d="M 57.6 307.584 
L 414.72 307.584 
" style="fill: none; stroke: #000000; stroke-width: 0.8; stroke-linejoin: miter; stroke-linecap: square"/>
   </g>
   <g id="patch_6">
    <path d="M 57.6 41.472 
L 414.72 41.472 
" style="fill: none; stroke: #000000; stroke-width: 0.8; stroke-linejoin: miter; stroke-linecap: square"/>
   </g>
   <g id="text_20">
    <!-- Learning Curves -->
    <g transform="translate(187.37625 35.472) scale(0.12 -0.12)">
     <defs>
      <path id="DejaVuSans-4c" d="M 628 4666 
L 1259 4666 
L 1259 531 
L 3531 531 
L 3531 0 
L 628 0 
L 628 4666 
z
" transform="scale(0.015625)"/>
      <path id="DejaVuSans-65" d="M 3597 1894 
L 3597 1613 
L 953 1613 
Q 991 1019 1311 708 
Q 1631 397 2203 397 
Q 2534 397 2845 478 
Q 3156 559 3463 722 
L 3463 178 
Q 3153 47 2828 -22 
Q 2503 -91 2169 -91 
Q 1331 -91 842 396 
Q 353 884 353 1716 
Q 353 2575 817 3079 
Q 1281 3584 2069 3584 
Q 2775 3584 3186 3129 
Q 3597 2675 3597 1894 
z
M 3022 2063 
Q 3016 2534 2758 2815 
Q 2500 3097 2075 3097 
Q 1594 3097 1305 2825 
Q 1016 2553 972 2059 
L 3022 2063 
z
" transform="scale(0.015625)"/>
      <path id="DejaVuSans-6e" d="M 3513 2113 
L 3513 0 
L 2938 0 
L 2938 2094 
Q 2938 2591 2744 2837 
Q 2550 3084 2163 3084 
Q 1697 3084 1428 2787 
Q 1159 2491 1159 1978 
L 1159 0 
L 581 0 
L 581 3500 
L 1159 3500 
L 1159 2956 
Q 1366 3272 1645 3428 
Q 1925 3584 2291 3584 
Q 2894 3584 3203 3211 
Q 3513 2838 3513 2113 
z
" transform="scale(0.015625)"/>
      <path id="DejaVuSans-69" d="M 603 3500 
L 1178 3500 
L 1178 0 
L 603 0 
L 603 3500 
z
M 603 4863 
L 1178 4863 
L 1178 4134 
L 603 4134 
L 603 4863 
z
" transform="scale(0.015625)"/>
      <path id="DejaVuSans-67" d="M 2906 1791 
Q 2906 2416 2648 2759 
Q 2391 3103 1925 3103 
Q 1463 3103 1205 2759 
Q 947 2416 947 1791 
Q 947 1169 1205 825 
Q 1463 481 1925 481 
Q 2391 481 2648 825 
Q 2906 1169 2906 1791 
z
M 3481 434 
Q 3481 -459 3084 -895 
Q 2688 -1331 1869 -1331 
Q 1566 -1331 1297 -1286 
Q 1028 -1241 775 -1147 
L 775 -588 
Q 1028 -725 1275 -790 
Q 1522 -856 1778 -856 
Q 2344 -856 2625 -561 
Q 2906 -266 2906 331 
L 2906 616 
Q 2728 306 2450 153 
Q 2172 0 1784 0 
Q 1141 0 747 490 
Q 353 981 353 1791 
Q 353 2603 747 3093 
Q 1141 3584 1784 3584 
Q 2172 3584 2450 3431 
Q 2728 3278 2906 2969 
L 2906 3500 
L 3481 3500 
L 3481 434 
z
" transform="scale(0.015625)"/>
      <path id="DejaVuSans-20" transform="scale(0.015625)"/>
      <path id="DejaVuSans-43" d="M 4122 4306 
L 4122 3641 
Q 3803 3938 3442 4084 
Q 3081 4231 2675 4231 
Q 1875 4231 1450 3742 
Q 1025 3253 1025 2328 
Q 1025 1406 1450 917 
Q 1875 428 2675 428 
Q 3081 428 3442 575 
Q 3803 722 4122 1019 
L 4122 359 
Q 3791 134 3420 21 
Q 3050 -91 2638 -91 
Q 1578 -91 968 557 
Q 359 1206 359 2328 
Q 359 3453 968 4101 
Q 1578 4750 2638 4750 
Q 3056 4750 3426 4639 
Q 3797 4528 4122 4306 
z
" transform="scale(0.015625)"/>
      <path id="DejaVuSans-76" d="M 191 3500 
L 800 3500 
L 1894 563 
L 2988 3500 
L 3597 3500 
L 2284 0 
L 1503 0 
L 191 3500 
z
" transform="scale(0.015625)"/>
     </defs>
     <use xlink:href="#DejaVuSans-4c"/>
     <use xlink:href="#DejaVuSans-65" x="53.962891"/>
     <use xlink:href="#DejaVuSans-61" x="115.486328"/>
     <use xlink:href="#DejaVuSans-72" x="176.765625"/>
     <use xlink:href="#DejaVuSans-6e" x="216.128906"/>
     <use xlink:href="#DejaVuSans-69" x="279.507812"/>
     <use xlink:href="#DejaVuSans-6e" x="307.291016"/>
     <use xlink:href="#DejaVuSans-67" x="370.669922"/>
     <use xlink:href="#DejaVuSans-20" x="434.146484"/>
     <use xlink:href="#DejaVuSans-43" x="465.933594"/>
     <use xlink:href="#DejaVuSans-75" x="535.757812"/>
     <use xlink:href="#DejaVuSans-72" x="599.136719"/>
     <use xlink:href="#DejaVuSans-76" x="640.25"/>
     <use xlink:href="#DejaVuSans-65" x="699.429688"/>
     <use xlink:href="#DejaVuSans-73" x="760.953125"/>
    </g>
   </g>
   <g id="legend_1">
    <g id="patch_7">
     <path d="M 214.18875 302.584 
L 407.72 302.584 
Q 409.72 302.584 409.72 300.584 
L 409.72 228.193375 
Q 409.72 226.193375 407.72 226.193375 
L 214.18875 226.193375 
Q 212.18875 226.193375 212.18875 228.193375 
L 212.18875 300.584 
Q 212.18875 302.584 214.18875 302.584 
z
" style="fill: #ffffff; opacity: 0.8; stroke: #cccccc; stroke-linejoin: miter"/>
    </g>
    <g id="line2d_23">
     <path d="M 216.18875 234.291812 
L 226.18875 234.291812 
L 236.18875 234.291812 
" style="fill: none; stroke: #1f77b4; stroke-width: 1.5; stroke-linecap: square"/>
    </g>
    <g id="text_21">
     <!-- Train Accuracy -->
     <g transform="translate(244.18875 237.791812) scale(0.1 -0.1)">
      <defs>
       <path id="DejaVuSans-54" d="M -19 4666 
L 3928 4666 
L 3928 4134 
L 2272 4134 
L 2272 0 
L 1638 0 
L 1638 4134 
L -19 4134 
L -19 4666 
z
" transform="scale(0.015625)"/>
      </defs>
      <use xlink:href="#DejaVuSans-54"/>
      <use xlink:href="#DejaVuSans-72" x="46.333984"/>
      <use xlink:href="#DejaVuSans-61" x="87.447266"/>
      <use xlink:href="#DejaVuSans-69" x="148.726562"/>
      <use xlink:href="#DejaVuSans-6e" x="176.509766"/>
      <use xlink:href="#DejaVuSans-20" x="239.888672"/>
      <use xlink:href="#DejaVuSans-41" x="271.675781"/>
      <use xlink:href="#DejaVuSans-63" x="338.333984"/>
      <use xlink:href="#DejaVuSans-63" x="393.314453"/>
      <use xlink:href="#DejaVuSans-75" x="448.294922"/>
      <use xlink:href="#DejaVuSans-72" x="511.673828"/>
      <use xlink:href="#DejaVuSans-61" x="552.787109"/>
      <use xlink:href="#DejaVuSans-63" x="614.066406"/>
      <use xlink:href="#DejaVuSans-79" x="669.046875"/>
     </g>
    </g>
    <g id="line2d_24">
     <path d="M 216.18875 248.969937 
L 226.18875 248.969937 
L 236.18875 248.969937 
" style="fill: none; stroke: #ff7f0e; stroke-width: 1.5; stroke-linecap: square"/>
    </g>
    <g id="text_22">
     <!-- Validation Accuracy -->
     <g transform="translate(244.18875 252.469937) scale(0.1 -0.1)">
      <defs>
       <path id="DejaVuSans-56" d="M 1831 0 
L 50 4666 
L 709 4666 
L 2188 738 
L 3669 4666 
L 4325 4666 
L 2547 0 
L 1831 0 
z
" transform="scale(0.015625)"/>
       <path id="DejaVuSans-6c" d="M 603 4863 
L 1178 4863 
L 1178 0 
L 603 0 
L 603 4863 
z
" transform="scale(0.015625)"/>
       <path id="DejaVuSans-64" d="M 2906 2969 
L 2906 4863 
L 3481 4863 
L 3481 0 
L 2906 0 
L 2906 525 
Q 2725 213 2448 61 
Q 2172 -91 1784 -91 
Q 1150 -91 751 415 
Q 353 922 353 1747 
Q 353 2572 751 3078 
Q 1150 3584 1784 3584 
Q 2172 3584 2448 3432 
Q 2725 3281 2906 2969 
z
M 947 1747 
Q 947 1113 1208 752 
Q 1469 391 1925 391 
Q 2381 391 2643 752 
Q 2906 1113 2906 1747 
Q 2906 2381 2643 2742 
Q 2381 3103 1925 3103 
Q 1469 3103 1208 2742 
Q 947 2381 947 1747 
z
" transform="scale(0.015625)"/>
       <path id="DejaVuSans-74" d="M 1172 4494 
L 1172 3500 
L 2356 3500 
L 2356 3053 
L 1172 3053 
L 1172 1153 
Q 1172 725 1289 603 
Q 1406 481 1766 481 
L 2356 481 
L 2356 0 
L 1766 0 
Q 1100 0 847 248 
Q 594 497 594 1153 
L 594 3053 
L 172 3053 
L 172 3500 
L 594 3500 
L 594 4494 
L 1172 4494 
z
" transform="scale(0.015625)"/>
      </defs>
      <use xlink:href="#DejaVuSans-56"/>
      <use xlink:href="#DejaVuSans-61" x="60.658203"/>
      <use xlink:href="#DejaVuSans-6c" x="121.9375"/>
      <use xlink:href="#DejaVuSans-69" x="149.720703"/>
      <use xlink:href="#DejaVuSans-64" x="177.503906"/>
      <use xlink:href="#DejaVuSans-61" x="240.980469"/>
      <use xlink:href="#DejaVuSans-74" x="302.259766"/>
      <use xlink:href="#DejaVuSans-69" x="341.46875"/>
      <use xlink:href="#DejaVuSans-6f" x="369.251953"/>
      <use xlink:href="#DejaVuSans-6e" x="430.433594"/>
      <use xlink:href="#DejaVuSans-20" x="493.8125"/>
      <use xlink:href="#DejaVuSans-41" x="525.599609"/>
      <use xlink:href="#DejaVuSans-63" x="592.257812"/>
      <use xlink:href="#DejaVuSans-63" x="647.238281"/>
      <use xlink:href="#DejaVuSans-75" x="702.21875"/>
      <use xlink:href="#DejaVuSans-72" x="765.597656"/>
      <use xlink:href="#DejaVuSans-61" x="806.710938"/>
      <use xlink:href="#DejaVuSans-63" x="867.990234"/>
      <use xlink:href="#DejaVuSans-79" x="922.970703"/>
     </g>
    </g>
    <g id="line2d_25">
     <path d="M 216.18875 263.648062 
L 226.18875 263.648062 
L 236.18875 263.648062 
" style="fill: none; stroke: #2ca02c; stroke-width: 1.5; stroke-linecap: square"/>
    </g>
    <g id="text_23">
     <!-- Robust Validation Accuracy -->
     <g transform="translate(244.18875 267.148062) scale(0.1 -0.1)">
      <defs>
       <path id="DejaVuSans-52" d="M 2841 2188 
Q 3044 2119 3236 1894 
Q 3428 1669 3622 1275 
L 4263 0 
L 3584 0 
L 2988 1197 
Q 2756 1666 2539 1819 
Q 2322 1972 1947 1972 
L 1259 1972 
L 1259 0 
L 628 0 
L 628 4666 
L 2053 4666 
Q 2853 4666 3247 4331 
Q 3641 3997 3641 3322 
Q 3641 2881 3436 2590 
Q 3231 2300 2841 2188 
z
M 1259 4147 
L 1259 2491 
L 2053 2491 
Q 2509 2491 2742 2702 
Q 2975 2913 2975 3322 
Q 2975 3731 2742 3939 
Q 2509 4147 2053 4147 
L 1259 4147 
z
" transform="scale(0.015625)"/>
       <path id="DejaVuSans-62" d="M 3116 1747 
Q 3116 2381 2855 2742 
Q 2594 3103 2138 3103 
Q 1681 3103 1420 2742 
Q 1159 2381 1159 1747 
Q 1159 1113 1420 752 
Q 1681 391 2138 391 
Q 2594 391 2855 752 
Q 3116 1113 3116 1747 
z
M 1159 2969 
Q 1341 3281 1617 3432 
Q 1894 3584 2278 3584 
Q 2916 3584 3314 3078 
Q 3713 2572 3713 1747 
Q 3713 922 3314 415 
Q 2916 -91 2278 -91 
Q 1894 -91 1617 61 
Q 1341 213 1159 525 
L 1159 0 
L 581 0 
L 581 4863 
L 1159 4863 
L 1159 2969 
z
" transform="scale(0.015625)"/>
      </defs>
      <use xlink:href="#DejaVuSans-52"/>
      <use xlink:href="#DejaVuSans-6f" x="64.982422"/>
      <use xlink:href="#DejaVuSans-62" x="126.164062"/>
      <use xlink:href="#DejaVuSans-75" x="189.640625"/>
      <use xlink:href="#DejaVuSans-73" x="253.019531"/>
      <use xlink:href="#DejaVuSans-74" x="305.119141"/>
      <use xlink:href="#DejaVuSans-20" x="344.328125"/>
      <use xlink:href="#DejaVuSans-56" x="376.115234"/>
      <use xlink:href="#DejaVuSans-61" x="436.773438"/>
      <use xlink:href="#DejaVuSans-6c" x="498.052734"/>
      <use xlink:href="#DejaVuSans-69" x="525.835938"/>
      <use xlink:href="#DejaVuSans-64" x="553.619141"/>
      <use xlink:href="#DejaVuSans-61" x="617.095703"/>
      <use xlink:href="#DejaVuSans-74" x="678.375"/>
      <use xlink:href="#DejaVuSans-69" x="717.583984"/>
      <use xlink:href="#DejaVuSans-6f" x="745.367188"/>
      <use xlink:href="#DejaVuSans-6e" x="806.548828"/>
      <use xlink:href="#DejaVuSans-20" x="869.927734"/>
      <use xlink:href="#DejaVuSans-41" x="901.714844"/>
      <use xlink:href="#DejaVuSans-63" x="968.373047"/>
      <use xlink:href="#DejaVuSans-63" x="1023.353516"/>
      <use xlink:href="#DejaVuSans-75" x="1078.333984"/>
      <use xlink:href="#DejaVuSans-72" x="1141.712891"/>
      <use xlink:href="#DejaVuSans-61" x="1182.826172"/>
      <use xlink:href="#DejaVuSans-63" x="1244.105469"/>
      <use xlink:href="#DejaVuSans-79" x="1299.085938"/>
     </g>
    </g>
    <g id="line2d_26">
     <path d="M 216.18875 278.326188 
L 226.18875 278.326188 
L 236.18875 278.326188 
" style="fill: none; stroke: #d62728; stroke-width: 1.5; stroke-linecap: square"/>
    </g>
    <g id="text_24">
     <!-- SWA Validation Accuracy -->
     <g transform="translate(244.18875 281.826188) scale(0.1 -0.1)">
      <defs>
       <path id="DejaVuSans-53" d="M 3425 4513 
L 3425 3897 
Q 3066 4069 2747 4153 
Q 2428 4238 2131 4238 
Q 1616 4238 1336 4038 
Q 1056 3838 1056 3469 
Q 1056 3159 1242 3001 
Q 1428 2844 1947 2747 
L 2328 2669 
Q 3034 2534 3370 2195 
Q 3706 1856 3706 1288 
Q 3706 609 3251 259 
Q 2797 -91 1919 -91 
Q 1588 -91 1214 -16 
Q 841 59 441 206 
L 441 856 
Q 825 641 1194 531 
Q 1563 422 1919 422 
Q 2459 422 2753 634 
Q 3047 847 3047 1241 
Q 3047 1584 2836 1778 
Q 2625 1972 2144 2069 
L 1759 2144 
Q 1053 2284 737 2584 
Q 422 2884 422 3419 
Q 422 4038 858 4394 
Q 1294 4750 2059 4750 
Q 2388 4750 2728 4690 
Q 3069 4631 3425 4513 
z
" transform="scale(0.015625)"/>
       <path id="DejaVuSans-57" d="M 213 4666 
L 850 4666 
L 1831 722 
L 2809 4666 
L 3519 4666 
L 4500 722 
L 5478 4666 
L 6119 4666 
L 4947 0 
L 4153 0 
L 3169 4050 
L 2175 0 
L 1381 0 
L 213 4666 
z
" transform="scale(0.015625)"/>
      </defs>
      <use xlink:href="#DejaVuSans-53"/>
      <use xlink:href="#DejaVuSans-57" x="63.476562"/>
      <use xlink:href="#DejaVuSans-41" x="156.853516"/>
      <use xlink:href="#DejaVuSans-20" x="225.261719"/>
      <use xlink:href="#DejaVuSans-56" x="257.048828"/>
      <use xlink:href="#DejaVuSans-61" x="317.707031"/>
      <use xlink:href="#DejaVuSans-6c" x="378.986328"/>
      <use xlink:href="#DejaVuSans-69" x="406.769531"/>
      <use xlink:href="#DejaVuSans-64" x="434.552734"/>
      <use xlink:href="#DejaVuSans-61" x="498.029297"/>
      <use xlink:href="#DejaVuSans-74" x="559.308594"/>
      <use xlink:href="#DejaVuSans-69" x="598.517578"/>
      <use xlink:href="#DejaVuSans-6f" x="626.300781"/>
      <use xlink:href="#DejaVuSans-6e" x="687.482422"/>
      <use xlink:href="#DejaVuSans-20" x="750.861328"/>
      <use xlink:href="#DejaVuSans-41" x="782.648438"/>
      <use xlink:href="#DejaVuSans-63" x="849.306641"/>
      <use xlink:href="#DejaVuSans-63" x="904.287109"/>
      <use xlink:href="#DejaVuSans-75" x="959.267578"/>
      <use xlink:href="#DejaVuSans-72" x="1022.646484"/>
      <use xlink:href="#DejaVuSans-61" x="1063.759766"/>
      <use xlink:href="#DejaVuSans-63" x="1125.039062"/>
      <use xlink:href="#DejaVuSans-79" x="1180.019531"/>
     </g>
    </g>
    <g id="line2d_27">
     <path d="M 216.18875 293.004312 
L 226.18875 293.004312 
L 236.18875 293.004312 
" style="fill: none; stroke: #9467bd; stroke-width: 1.5; stroke-linecap: square"/>
    </g>
    <g id="text_25">
     <!-- SWA Robust Validation Accuracy -->
     <g transform="translate(244.18875 296.504312) scale(0.1 -0.1)">
      <use xlink:href="#DejaVuSans-53"/>
      <use xlink:href="#DejaVuSans-57" x="63.476562"/>
      <use xlink:href="#DejaVuSans-41" x="156.853516"/>
      <use xlink:href="#DejaVuSans-20" x="225.261719"/>
      <use xlink:href="#DejaVuSans-52" x="257.048828"/>
      <use xlink:href="#DejaVuSans-6f" x="322.03125"/>
      <use xlink:href="#DejaVuSans-62" x="383.212891"/>
      <use xlink:href="#DejaVuSans-75" x="446.689453"/>
      <use xlink:href="#DejaVuSans-73" x="510.068359"/>
      <use xlink:href="#DejaVuSans-74" x="562.167969"/>
      <use xlink:href="#DejaVuSans-20" x="601.376953"/>
      <use xlink:href="#DejaVuSans-56" x="633.164062"/>
      <use xlink:href="#DejaVuSans-61" x="693.822266"/>
      <use xlink:href="#DejaVuSans-6c" x="755.101562"/>
      <use xlink:href="#DejaVuSans-69" x="782.884766"/>
      <use xlink:href="#DejaVuSans-64" x="810.667969"/>
      <use xlink:href="#DejaVuSans-61" x="874.144531"/>
      <use xlink:href="#DejaVuSans-74" x="935.423828"/>
      <use xlink:href="#DejaVuSans-69" x="974.632812"/>
      <use xlink:href="#DejaVuSans-6f" x="1002.416016"/>
      <use xlink:href="#DejaVuSans-6e" x="1063.597656"/>
      <use xlink:href="#DejaVuSans-20" x="1126.976562"/>
      <use xlink:href="#DejaVuSans-41" x="1158.763672"/>
      <use xlink:href="#DejaVuSans-63" x="1225.421875"/>
      <use xlink:href="#DejaVuSans-63" x="1280.402344"/>
      <use xlink:href="#DejaVuSans-75" x="1335.382812"/>
      <use xlink:href="#DejaVuSans-72" x="1398.761719"/>
      <use xlink:href="#DejaVuSans-61" x="1439.875"/>
      <use xlink:href="#DejaVuSans-63" x="1501.154297"/>
      <use xlink:href="#DejaVuSans-79" x="1556.134766"/>
     </g>
    </g>
   </g>
  </g>
 </g>
 <defs>
  <clipPath id="p064a933014">
   <rect x="57.6" y="41.472" width="357.12" height="266.112"/>
  </clipPath>
 </defs>
</svg>
