<?xml version="1.0" encoding="utf-8" standalone="no"?>
<!DOCTYPE svg PUBLIC "-//W3C//DTD SVG 1.1//EN"
  "http://www.w3.org/Graphics/SVG/1.1/DTD/svg11.dtd">
<svg xmlns:xlink="http://www.w3.org/1999/xlink" width="460.8pt" height="345.6pt" viewBox="0 0 460.8 345.6" xmlns="http://www.w3.org/2000/svg" version="1.1">
 <metadata>
  <rdf:RDF xmlns:dc="http://purl.org/dc/elements/1.1/" xmlns:cc="http://creativecommons.org/ns#" xmlns:rdf="http://www.w3.org/1999/02/22-rdf-syntax-ns#">
   <cc:Work>
    <dc:type rdf:resource="http://purl.org/dc/dcmitype/StillImage"/>
    <dc:date>2025-03-19T16:45:03.938895</dc:date>
    <dc:format>image/svg+xml</dc:format>
    <dc:creator>
     <cc:Agent>
      <dc:title>Matplotlib v3.9.1, https://matplotlib.org/</dc:title>
     </cc:Agent>
    </dc:creator>
   </cc:Work>
  </rdf:RDF>
 </metadata>
 <defs>
  <style type="text/css">*{stroke-linejoin: round; stroke-linecap: butt}</style>
 </defs>
 <g id="figure_1">
  <g id="patch_1">
   <path d="M 0 345.6 
L 460.8 345.6 
L 460.8 0 
L 0 0 
z
" style="fill: #ffffff"/>
  </g>
  <g id="axes_1">
   <g id="patch_2">
    <path d="M 57.6 307.584 
L 414.72 307.584 
L 414.72 41.472 
L 57.6 41.472 
z
" style="fill: #ffffff"/>
   </g>
   <g id="matplotlib.axis_1">
    <g id="xtick_1">
     <g id="line2d_1">
      <defs>
       <path id="m46f8ddbcf0" d="M 0 0 
L 0 3.5 
" style="stroke: #000000; stroke-width: 0.8"/>
      </defs>
      <g>
       <use xlink:href="#m46f8ddbcf0" x="73.832727" y="307.584" style="stroke: #000000; stroke-width: 0.8"/>
      </g>
     </g>
     <g id="text_1">
      <!-- 1 -->
      <g transform="translate(70.651477 322.182437) scale(0.1 -0.1)">
       <defs>
        <path id="DejaVuSans-31" d="M 794 531 
L 1825 531 
L 1825 4091 
L 703 3866 
L 703 4441 
L 1819 4666 
L 2450 4666 
L 2450 531 
L 3481 531 
L 3481 0 
L 794 0 
L 794 531 
z
" transform="scale(0.015625)"/>
       </defs>
       <use xlink:href="#DejaVuSans-31"/>
      </g>
     </g>
    </g>
    <g id="xtick_2">
     <g id="line2d_2">
      <g>
       <use xlink:href="#m46f8ddbcf0" x="109.664165" y="307.584" style="stroke: #000000; stroke-width: 0.8"/>
      </g>
     </g>
     <g id="text_2">
      <!-- 34 -->
      <g transform="translate(103.301665 322.182437) scale(0.1 -0.1)">
       <defs>
        <path id="DejaVuSans-33" d="M 2597 2516 
Q 3050 2419 3304 2112 
Q 3559 1806 3559 1356 
Q 3559 666 3084 287 
Q 2609 -91 1734 -91 
Q 1441 -91 1130 -33 
Q 819 25 488 141 
L 488 750 
Q 750 597 1062 519 
Q 1375 441 1716 441 
Q 2309 441 2620 675 
Q 2931 909 2931 1356 
Q 2931 1769 2642 2001 
Q 2353 2234 1838 2234 
L 1294 2234 
L 1294 2753 
L 1863 2753 
Q 2328 2753 2575 2939 
Q 2822 3125 2822 3475 
Q 2822 3834 2567 4026 
Q 2313 4219 1838 4219 
Q 1578 4219 1281 4162 
Q 984 4106 628 3988 
L 628 4550 
Q 988 4650 1302 4700 
Q 1616 4750 1894 4750 
Q 2613 4750 3031 4423 
Q 3450 4097 3450 3541 
Q 3450 3153 3228 2886 
Q 3006 2619 2597 2516 
z
" transform="scale(0.015625)"/>
        <path id="DejaVuSans-34" d="M 2419 4116 
L 825 1625 
L 2419 1625 
L 2419 4116 
z
M 2253 4666 
L 3047 4666 
L 3047 1625 
L 3713 1625 
L 3713 1100 
L 3047 1100 
L 3047 0 
L 2419 0 
L 2419 1100 
L 313 1100 
L 313 1709 
L 2253 4666 
z
" transform="scale(0.015625)"/>
       </defs>
       <use xlink:href="#DejaVuSans-33"/>
       <use xlink:href="#DejaVuSans-34" x="63.623047"/>
      </g>
     </g>
    </g>
    <g id="xtick_3">
     <g id="line2d_3">
      <g>
       <use xlink:href="#m46f8ddbcf0" x="145.495604" y="307.584" style="stroke: #000000; stroke-width: 0.8"/>
      </g>
     </g>
     <g id="text_3">
      <!-- 67 -->
      <g transform="translate(139.133104 322.182437) scale(0.1 -0.1)">
       <defs>
        <path id="DejaVuSans-36" d="M 2113 2584 
Q 1688 2584 1439 2293 
Q 1191 2003 1191 1497 
Q 1191 994 1439 701 
Q 1688 409 2113 409 
Q 2538 409 2786 701 
Q 3034 994 3034 1497 
Q 3034 2003 2786 2293 
Q 2538 2584 2113 2584 
z
M 3366 4563 
L 3366 3988 
Q 3128 4100 2886 4159 
Q 2644 4219 2406 4219 
Q 1781 4219 1451 3797 
Q 1122 3375 1075 2522 
Q 1259 2794 1537 2939 
Q 1816 3084 2150 3084 
Q 2853 3084 3261 2657 
Q 3669 2231 3669 1497 
Q 3669 778 3244 343 
Q 2819 -91 2113 -91 
Q 1303 -91 875 529 
Q 447 1150 447 2328 
Q 447 3434 972 4092 
Q 1497 4750 2381 4750 
Q 2619 4750 2861 4703 
Q 3103 4656 3366 4563 
z
" transform="scale(0.015625)"/>
        <path id="DejaVuSans-37" d="M 525 4666 
L 3525 4666 
L 3525 4397 
L 1831 0 
L 1172 0 
L 2766 4134 
L 525 4134 
L 525 4666 
z
" transform="scale(0.015625)"/>
       </defs>
       <use xlink:href="#DejaVuSans-36"/>
       <use xlink:href="#DejaVuSans-37" x="63.623047"/>
      </g>
     </g>
    </g>
    <g id="xtick_4">
     <g id="line2d_4">
      <g>
       <use xlink:href="#m46f8ddbcf0" x="181.327042" y="307.584" style="stroke: #000000; stroke-width: 0.8"/>
      </g>
     </g>
     <g id="text_4">
      <!-- 100 -->
      <g transform="translate(171.783292 322.182437) scale(0.1 -0.1)">
       <defs>
        <path id="DejaVuSans-30" d="M 2034 4250 
Q 1547 4250 1301 3770 
Q 1056 3291 1056 2328 
Q 1056 1369 1301 889 
Q 1547 409 2034 409 
Q 2525 409 2770 889 
Q 3016 1369 3016 2328 
Q 3016 3291 2770 3770 
Q 2525 4250 2034 4250 
z
M 2034 4750 
Q 2819 4750 3233 4129 
Q 3647 3509 3647 2328 
Q 3647 1150 3233 529 
Q 2819 -91 2034 -91 
Q 1250 -91 836 529 
Q 422 1150 422 2328 
Q 422 3509 836 4129 
Q 1250 4750 2034 4750 
z
" transform="scale(0.015625)"/>
       </defs>
       <use xlink:href="#DejaVuSans-31"/>
       <use xlink:href="#DejaVuSans-30" x="63.623047"/>
       <use xlink:href="#DejaVuSans-30" x="127.246094"/>
      </g>
     </g>
    </g>
    <g id="xtick_5">
     <g id="line2d_5">
      <g>
       <use xlink:href="#m46f8ddbcf0" x="217.15848" y="307.584" style="stroke: #000000; stroke-width: 0.8"/>
      </g>
     </g>
     <g id="text_5">
      <!-- 133 -->
      <g transform="translate(207.61473 322.182437) scale(0.1 -0.1)">
       <use xlink:href="#DejaVuSans-31"/>
       <use xlink:href="#DejaVuSans-33" x="63.623047"/>
       <use xlink:href="#DejaVuSans-33" x="127.246094"/>
      </g>
     </g>
    </g>
    <g id="xtick_6">
     <g id="line2d_6">
      <g>
       <use xlink:href="#m46f8ddbcf0" x="254.075719" y="307.584" style="stroke: #000000; stroke-width: 0.8"/>
      </g>
     </g>
     <g id="text_6">
      <!-- 167 -->
      <g transform="translate(244.531969 322.182437) scale(0.1 -0.1)">
       <use xlink:href="#DejaVuSans-31"/>
       <use xlink:href="#DejaVuSans-36" x="63.623047"/>
       <use xlink:href="#DejaVuSans-37" x="127.246094"/>
      </g>
     </g>
    </g>
    <g id="xtick_7">
     <g id="line2d_7">
      <g>
       <use xlink:href="#m46f8ddbcf0" x="289.907157" y="307.584" style="stroke: #000000; stroke-width: 0.8"/>
      </g>
     </g>
     <g id="text_7">
      <!-- 200 -->
      <g transform="translate(280.363407 322.182437) scale(0.1 -0.1)">
       <defs>
        <path id="DejaVuSans-32" d="M 1228 531 
L 3431 531 
L 3431 0 
L 469 0 
L 469 531 
Q 828 903 1448 1529 
Q 2069 2156 2228 2338 
Q 2531 2678 2651 2914 
Q 2772 3150 2772 3378 
Q 2772 3750 2511 3984 
Q 2250 4219 1831 4219 
Q 1534 4219 1204 4116 
Q 875 4013 500 3803 
L 500 4441 
Q 881 4594 1212 4672 
Q 1544 4750 1819 4750 
Q 2544 4750 2975 4387 
Q 3406 4025 3406 3419 
Q 3406 3131 3298 2873 
Q 3191 2616 2906 2266 
Q 2828 2175 2409 1742 
Q 1991 1309 1228 531 
z
" transform="scale(0.015625)"/>
       </defs>
       <use xlink:href="#DejaVuSans-32"/>
       <use xlink:href="#DejaVuSans-30" x="63.623047"/>
       <use xlink:href="#DejaVuSans-30" x="127.246094"/>
      </g>
     </g>
    </g>
    <g id="xtick_8">
     <g id="line2d_8">
      <g>
       <use xlink:href="#m46f8ddbcf0" x="325.738595" y="307.584" style="stroke: #000000; stroke-width: 0.8"/>
      </g>
     </g>
     <g id="text_8">
      <!-- 233 -->
      <g transform="translate(316.194845 322.182437) scale(0.1 -0.1)">
       <use xlink:href="#DejaVuSans-32"/>
       <use xlink:href="#DejaVuSans-33" x="63.623047"/>
       <use xlink:href="#DejaVuSans-33" x="127.246094"/>
      </g>
     </g>
    </g>
    <g id="xtick_9">
     <g id="line2d_9">
      <g>
       <use xlink:href="#m46f8ddbcf0" x="361.570033" y="307.584" style="stroke: #000000; stroke-width: 0.8"/>
      </g>
     </g>
     <g id="text_9">
      <!-- 266 -->
      <g transform="translate(352.026283 322.182437) scale(0.1 -0.1)">
       <use xlink:href="#DejaVuSans-32"/>
       <use xlink:href="#DejaVuSans-36" x="63.623047"/>
       <use xlink:href="#DejaVuSans-36" x="127.246094"/>
      </g>
     </g>
    </g>
    <g id="xtick_10">
     <g id="line2d_10">
      <g>
       <use xlink:href="#m46f8ddbcf0" x="398.487273" y="307.584" style="stroke: #000000; stroke-width: 0.8"/>
      </g>
     </g>
     <g id="text_10">
      <!-- 300 -->
      <g transform="translate(388.943523 322.182437) scale(0.1 -0.1)">
       <use xlink:href="#DejaVuSans-33"/>
       <use xlink:href="#DejaVuSans-30" x="63.623047"/>
       <use xlink:href="#DejaVuSans-30" x="127.246094"/>
      </g>
     </g>
    </g>
    <g id="text_11">
     <!-- Epochs -->
     <g transform="translate(218.244375 335.860562) scale(0.1 -0.1)">
      <defs>
       <path id="DejaVuSans-45" d="M 628 4666 
L 3578 4666 
L 3578 4134 
L 1259 4134 
L 1259 2753 
L 3481 2753 
L 3481 2222 
L 1259 2222 
L 1259 531 
L 3634 531 
L 3634 0 
L 628 0 
L 628 4666 
z
" transform="scale(0.015625)"/>
       <path id="DejaVuSans-70" d="M 1159 525 
L 1159 -1331 
L 581 -1331 
L 581 3500 
L 1159 3500 
L 1159 2969 
Q 1341 3281 1617 3432 
Q 1894 3584 2278 3584 
Q 2916 3584 3314 3078 
Q 3713 2572 3713 1747 
Q 3713 922 3314 415 
Q 2916 -91 2278 -91 
Q 1894 -91 1617 61 
Q 1341 213 1159 525 
z
M 3116 1747 
Q 3116 2381 2855 2742 
Q 2594 3103 2138 3103 
Q 1681 3103 1420 2742 
Q 1159 2381 1159 1747 
Q 1159 1113 1420 752 
Q 1681 391 2138 391 
Q 2594 391 2855 752 
Q 3116 1113 3116 1747 
z
" transform="scale(0.015625)"/>
       <path id="DejaVuSans-6f" d="M 1959 3097 
Q 1497 3097 1228 2736 
Q 959 2375 959 1747 
Q 959 1119 1226 758 
Q 1494 397 1959 397 
Q 2419 397 2687 759 
Q 2956 1122 2956 1747 
Q 2956 2369 2687 2733 
Q 2419 3097 1959 3097 
z
M 1959 3584 
Q 2709 3584 3137 3096 
Q 3566 2609 3566 1747 
Q 3566 888 3137 398 
Q 2709 -91 1959 -91 
Q 1206 -91 779 398 
Q 353 888 353 1747 
Q 353 2609 779 3096 
Q 1206 3584 1959 3584 
z
" transform="scale(0.015625)"/>
       <path id="DejaVuSans-63" d="M 3122 3366 
L 3122 2828 
Q 2878 2963 2633 3030 
Q 2388 3097 2138 3097 
Q 1578 3097 1268 2742 
Q 959 2388 959 1747 
Q 959 1106 1268 751 
Q 1578 397 2138 397 
Q 2388 397 2633 464 
Q 2878 531 3122 666 
L 3122 134 
Q 2881 22 2623 -34 
Q 2366 -91 2075 -91 
Q 1284 -91 818 406 
Q 353 903 353 1747 
Q 353 2603 823 3093 
Q 1294 3584 2113 3584 
Q 2378 3584 2631 3529 
Q 2884 3475 3122 3366 
z
" transform="scale(0.015625)"/>
       <path id="DejaVuSans-68" d="M 3513 2113 
L 3513 0 
L 2938 0 
L 2938 2094 
Q 2938 2591 2744 2837 
Q 2550 3084 2163 3084 
Q 1697 3084 1428 2787 
Q 1159 2491 1159 1978 
L 1159 0 
L 581 0 
L 581 4863 
L 1159 4863 
L 1159 2956 
Q 1366 3272 1645 3428 
Q 1925 3584 2291 3584 
Q 2894 3584 3203 3211 
Q 3513 2838 3513 2113 
z
" transform="scale(0.015625)"/>
       <path id="DejaVuSans-73" d="M 2834 3397 
L 2834 2853 
Q 2591 2978 2328 3040 
Q 2066 3103 1784 3103 
Q 1356 3103 1142 2972 
Q 928 2841 928 2578 
Q 928 2378 1081 2264 
Q 1234 2150 1697 2047 
L 1894 2003 
Q 2506 1872 2764 1633 
Q 3022 1394 3022 966 
Q 3022 478 2636 193 
Q 2250 -91 1575 -91 
Q 1294 -91 989 -36 
Q 684 19 347 128 
L 347 722 
Q 666 556 975 473 
Q 1284 391 1588 391 
Q 1994 391 2212 530 
Q 2431 669 2431 922 
Q 2431 1156 2273 1281 
Q 2116 1406 1581 1522 
L 1381 1569 
Q 847 1681 609 1914 
Q 372 2147 372 2553 
Q 372 3047 722 3315 
Q 1072 3584 1716 3584 
Q 2034 3584 2315 3537 
Q 2597 3491 2834 3397 
z
" transform="scale(0.015625)"/>
      </defs>
      <use xlink:href="#DejaVuSans-45"/>
      <use xlink:href="#DejaVuSans-70" x="63.183594"/>
      <use xlink:href="#DejaVuSans-6f" x="126.660156"/>
      <use xlink:href="#DejaVuSans-63" x="187.841797"/>
      <use xlink:href="#DejaVuSans-68" x="242.822266"/>
      <use xlink:href="#DejaVuSans-73" x="306.201172"/>
     </g>
    </g>
   </g>
   <g id="matplotlib.axis_2">
    <g id="ytick_1">
     <g id="line2d_11">
      <defs>
       <path id="mc3e128c314" d="M 0 0 
L -3.5 0 
" style="stroke: #000000; stroke-width: 0.8"/>
      </defs>
      <g>
       <use xlink:href="#mc3e128c314" x="57.6" y="305.01155" style="stroke: #000000; stroke-width: 0.8"/>
      </g>
     </g>
     <g id="text_12">
      <!-- 0 -->
      <g transform="translate(44.2375 308.810768) scale(0.1 -0.1)">
       <use xlink:href="#DejaVuSans-30"/>
      </g>
     </g>
    </g>
    <g id="ytick_2">
     <g id="line2d_12">
      <g>
       <use xlink:href="#mc3e128c314" x="57.6" y="268.610022" style="stroke: #000000; stroke-width: 0.8"/>
      </g>
     </g>
     <g id="text_13">
      <!-- 10 -->
      <g transform="translate(37.875 272.409241) scale(0.1 -0.1)">
       <use xlink:href="#DejaVuSans-31"/>
       <use xlink:href="#DejaVuSans-30" x="63.623047"/>
      </g>
     </g>
    </g>
    <g id="ytick_3">
     <g id="line2d_13">
      <g>
       <use xlink:href="#mc3e128c314" x="57.6" y="232.208495" style="stroke: #000000; stroke-width: 0.8"/>
      </g>
     </g>
     <g id="text_14">
      <!-- 20 -->
      <g transform="translate(37.875 236.007714) scale(0.1 -0.1)">
       <use xlink:href="#DejaVuSans-32"/>
       <use xlink:href="#DejaVuSans-30" x="63.623047"/>
      </g>
     </g>
    </g>
    <g id="ytick_4">
     <g id="line2d_14">
      <g>
       <use xlink:href="#mc3e128c314" x="57.6" y="195.806968" style="stroke: #000000; stroke-width: 0.8"/>
      </g>
     </g>
     <g id="text_15">
      <!-- 30 -->
      <g transform="translate(37.875 199.606187) scale(0.1 -0.1)">
       <use xlink:href="#DejaVuSans-33"/>
       <use xlink:href="#DejaVuSans-30" x="63.623047"/>
      </g>
     </g>
    </g>
    <g id="ytick_5">
     <g id="line2d_15">
      <g>
       <use xlink:href="#mc3e128c314" x="57.6" y="159.405441" style="stroke: #000000; stroke-width: 0.8"/>
      </g>
     </g>
     <g id="text_16">
      <!-- 40 -->
      <g transform="translate(37.875 163.204659) scale(0.1 -0.1)">
       <use xlink:href="#DejaVuSans-34"/>
       <use xlink:href="#DejaVuSans-30" x="63.623047"/>
      </g>
     </g>
    </g>
    <g id="ytick_6">
     <g id="line2d_16">
      <g>
       <use xlink:href="#mc3e128c314" x="57.6" y="123.003913" style="stroke: #000000; stroke-width: 0.8"/>
      </g>
     </g>
     <g id="text_17">
      <!-- 50 -->
      <g transform="translate(37.875 126.803132) scale(0.1 -0.1)">
       <defs>
        <path id="DejaVuSans-35" d="M 691 4666 
L 3169 4666 
L 3169 4134 
L 1269 4134 
L 1269 2991 
Q 1406 3038 1543 3061 
Q 1681 3084 1819 3084 
Q 2600 3084 3056 2656 
Q 3513 2228 3513 1497 
Q 3513 744 3044 326 
Q 2575 -91 1722 -91 
Q 1428 -91 1123 -41 
Q 819 9 494 109 
L 494 744 
Q 775 591 1075 516 
Q 1375 441 1709 441 
Q 2250 441 2565 725 
Q 2881 1009 2881 1497 
Q 2881 1984 2565 2268 
Q 2250 2553 1709 2553 
Q 1456 2553 1204 2497 
Q 953 2441 691 2322 
L 691 4666 
z
" transform="scale(0.015625)"/>
       </defs>
       <use xlink:href="#DejaVuSans-35"/>
       <use xlink:href="#DejaVuSans-30" x="63.623047"/>
      </g>
     </g>
    </g>
    <g id="ytick_7">
     <g id="line2d_17">
      <g>
       <use xlink:href="#mc3e128c314" x="57.6" y="86.602386" style="stroke: #000000; stroke-width: 0.8"/>
      </g>
     </g>
     <g id="text_18">
      <!-- 60 -->
      <g transform="translate(37.875 90.401605) scale(0.1 -0.1)">
       <use xlink:href="#DejaVuSans-36"/>
       <use xlink:href="#DejaVuSans-30" x="63.623047"/>
      </g>
     </g>
    </g>
    <g id="ytick_8">
     <g id="line2d_18">
      <g>
       <use xlink:href="#mc3e128c314" x="57.6" y="50.200859" style="stroke: #000000; stroke-width: 0.8"/>
      </g>
     </g>
     <g id="text_19">
      <!-- 70 -->
      <g transform="translate(37.875 54.000077) scale(0.1 -0.1)">
       <use xlink:href="#DejaVuSans-37"/>
       <use xlink:href="#DejaVuSans-30" x="63.623047"/>
      </g>
     </g>
    </g>
    <g id="text_20">
     <!-- Accuracy -->
     <g transform="translate(31.795312 197.356125) rotate(-90) scale(0.1 -0.1)">
      <defs>
       <path id="DejaVuSans-41" d="M 2188 4044 
L 1331 1722 
L 3047 1722 
L 2188 4044 
z
M 1831 4666 
L 2547 4666 
L 4325 0 
L 3669 0 
L 3244 1197 
L 1141 1197 
L 716 0 
L 50 0 
L 1831 4666 
z
" transform="scale(0.015625)"/>
       <path id="DejaVuSans-75" d="M 544 1381 
L 544 3500 
L 1119 3500 
L 1119 1403 
Q 1119 906 1312 657 
Q 1506 409 1894 409 
Q 2359 409 2629 706 
Q 2900 1003 2900 1516 
L 2900 3500 
L 3475 3500 
L 3475 0 
L 2900 0 
L 2900 538 
Q 2691 219 2414 64 
Q 2138 -91 1772 -91 
Q 1169 -91 856 284 
Q 544 659 544 1381 
z
M 1991 3584 
L 1991 3584 
z
" transform="scale(0.015625)"/>
       <path id="DejaVuSans-72" d="M 2631 2963 
Q 2534 3019 2420 3045 
Q 2306 3072 2169 3072 
Q 1681 3072 1420 2755 
Q 1159 2438 1159 1844 
L 1159 0 
L 581 0 
L 581 3500 
L 1159 3500 
L 1159 2956 
Q 1341 3275 1631 3429 
Q 1922 3584 2338 3584 
Q 2397 3584 2469 3576 
Q 2541 3569 2628 3553 
L 2631 2963 
z
" transform="scale(0.015625)"/>
       <path id="DejaVuSans-61" d="M 2194 1759 
Q 1497 1759 1228 1600 
Q 959 1441 959 1056 
Q 959 750 1161 570 
Q 1363 391 1709 391 
Q 2188 391 2477 730 
Q 2766 1069 2766 1631 
L 2766 1759 
L 2194 1759 
z
M 3341 1997 
L 3341 0 
L 2766 0 
L 2766 531 
Q 2569 213 2275 61 
Q 1981 -91 1556 -91 
Q 1019 -91 701 211 
Q 384 513 384 1019 
Q 384 1609 779 1909 
Q 1175 2209 1959 2209 
L 2766 2209 
L 2766 2266 
Q 2766 2663 2505 2880 
Q 2244 3097 1772 3097 
Q 1472 3097 1187 3025 
Q 903 2953 641 2809 
L 641 3341 
Q 956 3463 1253 3523 
Q 1550 3584 1831 3584 
Q 2591 3584 2966 3190 
Q 3341 2797 3341 1997 
z
" transform="scale(0.015625)"/>
       <path id="DejaVuSans-79" d="M 2059 -325 
Q 1816 -950 1584 -1140 
Q 1353 -1331 966 -1331 
L 506 -1331 
L 506 -850 
L 844 -850 
Q 1081 -850 1212 -737 
Q 1344 -625 1503 -206 
L 1606 56 
L 191 3500 
L 800 3500 
L 1894 763 
L 2988 3500 
L 3597 3500 
L 2059 -325 
z
" transform="scale(0.015625)"/>
      </defs>
      <use xlink:href="#DejaVuSans-41"/>
      <use xlink:href="#DejaVuSans-63" x="66.658203"/>
      <use xlink:href="#DejaVuSans-63" x="121.638672"/>
      <use xlink:href="#DejaVuSans-75" x="176.619141"/>
      <use xlink:href="#DejaVuSans-72" x="239.998047"/>
      <use xlink:href="#DejaVuSans-61" x="281.111328"/>
      <use xlink:href="#DejaVuSans-63" x="342.390625"/>
      <use xlink:href="#DejaVuSans-79" x="397.371094"/>
     </g>
    </g>
   </g>
   <g id="line2d_19">
    <path d="M 73.832727 295.488 
L 76.00433 269.374454 
L 77.090131 257.047987 
L 78.175932 248.461777 
L 79.261733 238.505959 
L 80.347534 230.338367 
L 81.433335 224.509572 
L 82.519137 217.151913 
L 84.690739 205.503425 
L 86.862341 195.15174 
L 89.033943 187.380014 
L 90.119745 184.486093 
L 92.291347 179.512734 
L 93.377148 177.674457 
L 94.462949 176.08189 
L 95.54875 204.534234 
L 96.634552 202.177235 
L 99.891955 192.380674 
L 100.977756 189.864418 
L 102.063557 187.716728 
L 103.149358 184.458792 
L 104.23516 182.133644 
L 107.492563 174.079806 
L 108.578364 172.277931 
L 109.664165 169.338507 
L 111.835768 165.034027 
L 112.921569 161.953547 
L 114.00737 160.506587 
L 115.093171 158.527254 
L 116.178972 155.760738 
L 117.264773 153.990713 
L 118.350575 151.833923 
L 119.436376 149.085608 
L 120.522177 148.116417 
L 121.607978 146.087032 
L 123.77958 141.609644 
L 124.865382 140.003426 
L 125.951183 137.610026 
L 127.036984 135.990158 
L 128.122785 133.796966 
L 129.208586 133.323746 
L 130.294387 131.03045 
L 131.380189 131.080502 
L 132.46599 129.201273 
L 133.551791 128.741704 
L 134.637592 128.614299 
L 135.723393 127.044483 
L 136.809194 126.357404 
L 137.894995 127.613257 
L 138.980797 161.716937 
L 140.066598 165.739306 
L 141.152399 164.287795 
L 142.2382 162.558723 
L 143.324001 161.170915 
L 144.409802 160.957056 
L 146.581405 159.928712 
L 147.667206 157.380606 
L 148.753007 156.666226 
L 149.838808 154.595889 
L 150.924609 154.523086 
L 152.01041 153.253582 
L 153.096212 151.069491 
L 154.182013 152.211589 
L 155.267814 149.831839 
L 156.353615 149.172061 
L 157.439416 148.848998 
L 158.525217 146.605753 
L 159.611019 146.173485 
L 160.69682 144.944934 
L 161.782621 145.017737 
L 162.868422 143.866539 
L 165.040024 142.728991 
L 166.125825 140.726907 
L 167.211627 139.894222 
L 168.297428 138.601968 
L 169.383229 138.679321 
L 170.46903 137.050353 
L 171.554831 136.172166 
L 172.640632 135.544239 
L 174.812235 132.723121 
L 175.898036 131.999641 
L 176.983837 130.024858 
L 178.069638 130.670985 
L 179.155439 128.755355 
L 180.24124 128.932812 
L 181.327042 126.830624 
L 182.412843 126.598564 
L 183.498644 125.961537 
L 184.584445 123.700092 
L 185.670246 123.390679 
L 186.756047 121.479599 
L 187.841849 121.752611 
L 188.92765 120.969978 
L 190.013451 119.227255 
L 191.099252 118.15341 
L 192.185053 117.894049 
L 193.270854 116.02392 
L 194.356656 115.587102 
L 195.442457 114.82267 
L 196.528258 112.624928 
L 197.614059 111.391826 
L 198.69986 111.47828 
L 199.785661 109.790159 
L 200.871462 109.703705 
L 201.957264 107.756224 
L 203.043065 106.750631 
L 205.214667 105.303671 
L 206.300468 104.480086 
L 207.386269 102.641809 
L 208.472071 102.587207 
L 209.557872 101.618016 
L 211.729474 100.671576 
L 212.815275 99.820691 
L 213.901076 99.57498 
L 214.986877 98.646741 
L 216.072679 98.674042 
L 217.15848 97.41364 
L 218.244281 97.095126 
L 219.330082 95.930277 
L 220.415883 97.163379 
L 221.501684 97.086026 
L 223.673287 95.011139 
L 224.759088 96.990472 
L 225.844889 140.458446 
L 226.93069 145.181544 
L 228.016491 144.776577 
L 229.102292 146.073381 
L 230.188094 145.591061 
L 231.273895 144.112249 
L 232.359696 144.426212 
L 233.445497 143.593527 
L 234.531298 142.401377 
L 235.617099 142.010061 
L 236.702901 140.945316 
L 237.788702 141.477688 
L 238.874503 139.894222 
L 239.960304 140.299189 
L 241.046105 139.261745 
L 242.131906 140.394743 
L 243.217708 139.025135 
L 244.303509 139.311797 
L 245.38931 138.369908 
L 246.475111 136.51343 
L 248.646713 137.068553 
L 249.732514 135.257577 
L 250.818316 135.55334 
L 251.904117 134.315688 
L 252.989918 134.37029 
L 254.075719 134.13823 
L 255.16152 134.36119 
L 256.247321 132.855077 
L 259.504725 133.027984 
L 260.590526 131.822183 
L 261.676327 131.781232 
L 262.762128 132.049693 
L 263.847929 130.429825 
L 264.933731 130.539029 
L 266.019532 129.988456 
L 267.105333 129.205823 
L 268.191134 128.855459 
L 269.276935 129.173972 
L 270.362736 129.042017 
L 271.448538 128.122878 
L 272.534339 128.505094 
L 273.62014 127.358446 
L 274.705941 126.921628 
L 275.791742 128.031874 
L 276.877543 126.457508 
L 277.963344 125.583871 
L 279.049146 125.347262 
L 280.134947 124.482725 
L 281.220748 125.124302 
L 282.306549 124.773938 
L 283.39235 124.168762 
L 284.478151 122.871958 
L 285.563953 122.899259 
L 286.649754 123.449832 
L 287.735555 121.748061 
L 288.821356 121.889116 
L 289.907157 121.707109 
L 290.992958 121.702559 
L 292.07876 121.033681 
L 294.250362 120.160044 
L 295.336163 119.34556 
L 296.421964 120.196445 
L 297.507765 118.808637 
L 298.593566 116.774702 
L 299.679368 118.86324 
L 300.765169 117.320725 
L 301.85097 116.647297 
L 302.936771 116.397036 
L 304.022572 117.67564 
L 305.108373 114.786268 
L 306.194175 115.851013 
L 307.279976 114.376751 
L 308.365777 114.11284 
L 309.451578 115.077481 
L 310.537379 113.812528 
L 311.62318 112.324615 
L 312.708981 111.114264 
L 313.794783 111.046012 
L 314.880584 111.214369 
L 315.966385 111.228019 
L 317.052186 110.345282 
L 318.137987 109.275987 
L 319.223788 108.406901 
L 320.30959 107.68342 
L 321.395391 107.146498 
L 322.481192 107.014542 
L 323.566993 107.100996 
L 324.652794 106.832535 
L 325.738595 105.972549 
L 326.824396 105.344622 
L 327.910198 105.594883 
L 328.995999 104.753098 
L 330.0818 105.694987 
L 331.167601 102.118537 
L 332.253402 103.078627 
L 333.339203 101.845526 
L 334.425005 101.249451 
L 335.510806 99.961746 
L 336.596607 100.644275 
L 337.682408 99.229166 
L 338.768209 101.399607 
L 339.85401 99.08356 
L 340.939811 99.479426 
L 342.025613 97.240732 
L 343.111414 97.42729 
L 344.197215 96.23514 
L 345.283016 96.248791 
L 346.368817 95.807422 
L 347.454618 94.305859 
L 348.54042 94.160253 
L 350.712022 93.291167 
L 351.797823 92.394779 
L 352.883624 92.940802 
L 353.969425 91.284532 
L 355.055227 90.078732 
L 357.226829 89.837572 
L 358.31263 89.114091 
L 359.398431 88.154001 
L 360.484232 88.381511 
L 361.570033 87.193911 
L 362.655835 87.366818 
L 363.741636 85.797002 
L 364.827437 86.192869 
L 365.913238 86.019962 
L 366.999039 85.369284 
L 368.08484 86.438579 
L 369.170642 87.253063 
L 370.256443 89.241497 
L 371.342244 90.183386 
L 372.428045 92.067165 
L 373.513846 93.063657 
L 374.599647 93.163761 
L 375.685448 92.931702 
L 376.77125 93.632431 
L 377.857051 92.940802 
L 378.942852 93.168311 
L 380.028653 92.262823 
L 381.114454 91.821455 
L 382.200255 93.668832 
L 384.371858 93.054557 
L 385.457659 92.945352 
L 386.54346 93.086408 
L 387.629261 93.427672 
L 388.715062 94.355911 
L 389.800863 93.423122 
L 390.886665 93.950944 
L 391.972466 93.650632 
L 393.058267 93.85994 
L 395.229869 93.268416 
L 396.31567 93.764386 
L 397.401472 93.746186 
L 398.487273 93.969145 
L 398.487273 93.969145 
" clip-path="url(#p41f8feb8ca)" style="fill: none; stroke: #1f77b4; stroke-width: 1.5; stroke-linecap: square"/>
   </g>
   <g id="line2d_20">
    <path d="M 73.832727 284.99071 
L 74.918528 258.526799 
L 76.00433 241.454483 
L 77.090131 236.867891 
L 79.261733 215.6458 
L 80.347534 201.940625 
L 81.433335 185.942154 
L 82.519137 179.298875 
L 83.604938 175.258306 
L 84.690739 164.62906 
L 85.77654 164.374249 
L 86.862341 156.438716 
L 87.948142 155.674284 
L 89.033943 148.521384 
L 90.119745 148.867198 
L 91.205546 143.079356 
L 92.291347 143.588977 
L 93.377148 141.27748 
L 94.462949 140.713256 
L 95.54875 168.524023 
L 96.634552 169.015444 
L 97.720353 158.222391 
L 98.806154 158.094986 
L 99.891955 152.288942 
L 100.977756 150.851082 
L 102.063557 152.944169 
L 103.149358 150.305059 
L 104.23516 141.714298 
L 105.320961 139.566608 
L 106.406762 134.816209 
L 107.492563 131.612874 
L 108.578364 130.903045 
L 109.664165 130.357022 
L 110.749967 130.55723 
L 111.835768 124.532777 
L 112.921569 122.20308 
L 114.00737 118.508325 
L 115.093171 116.597244 
L 117.264773 111.173417 
L 118.350575 111.865046 
L 119.436376 109.007526 
L 120.522177 107.606067 
L 121.607978 104.09332 
L 122.693779 101.781823 
L 123.77958 100.653376 
L 124.865382 98.214473 
L 127.036984 94.446915 
L 128.122785 94.246707 
L 129.208586 93.555078 
L 130.294387 91.079774 
L 131.380189 89.114091 
L 132.46599 89.732917 
L 133.551791 88.313258 
L 134.637592 88.60447 
L 136.809194 87.585227 
L 137.894995 87.439621 
L 138.980797 124.532777 
L 140.066598 125.825032 
L 141.152399 121.711659 
L 142.2382 124.914993 
L 143.324001 118.653931 
L 144.409802 123.331527 
L 145.495604 119.272757 
L 146.581405 117.889499 
L 147.667206 118.835938 
L 148.753007 115.851013 
L 149.838808 119.145351 
L 150.924609 115.232187 
L 152.01041 113.284705 
L 153.096212 112.283663 
L 154.182013 110.29978 
L 155.267814 111.410027 
L 156.353615 109.262337 
L 157.439416 106.150006 
L 158.525217 104.912354 
L 159.611019 105.258169 
L 160.69682 106.47762 
L 161.782621 105.676786 
L 162.868422 101.599815 
L 163.954223 112.68408 
L 165.040024 99.979947 
L 166.125825 98.523886 
L 167.211627 97.959662 
L 168.297428 99.961746 
L 169.383229 102.65546 
L 170.46903 98.887901 
L 171.554831 96.576404 
L 172.640632 98.032466 
L 173.726434 92.790646 
L 174.812235 95.193146 
L 175.898036 94.865533 
L 178.069638 89.423504 
L 179.155439 89.296099 
L 180.24124 87.093807 
L 181.327042 87.530625 
L 182.412843 86.22017 
L 183.498644 85.51034 
L 184.584445 83.344449 
L 185.670246 87.548826 
L 186.756047 83.089639 
L 187.841849 81.160358 
L 188.92765 80.687138 
L 191.099252 78.757857 
L 192.185053 79.049069 
L 193.270854 75.681928 
L 194.356656 75.190507 
L 195.442457 72.514995 
L 196.528258 75.354314 
L 199.785661 72.514995 
L 200.871462 68.802039 
L 201.957264 71.040733 
L 203.043065 68.474425 
L 204.128866 69.457267 
L 205.214667 67.345978 
L 206.300468 67.345978 
L 207.386269 64.943477 
L 208.472071 65.271091 
L 209.557872 64.251848 
L 210.643673 64.961678 
L 211.729474 63.960636 
L 212.815275 64.215447 
L 213.901076 62.577378 
L 214.986877 62.850389 
L 216.072679 62.61378 
L 217.15848 62.049556 
L 218.244281 62.304367 
L 219.330082 62.195162 
L 220.415883 61.649139 
L 222.587486 61.812946 
L 223.673287 61.121317 
L 224.759088 61.448931 
L 225.844889 104.384532 
L 226.93069 112.247262 
L 228.016491 108.425102 
L 229.102292 108.698113 
L 230.188094 106.495821 
L 231.273895 104.912354 
L 232.359696 102.764664 
L 233.445497 105.385574 
L 234.531298 106.641427 
L 235.617099 100.598773 
L 236.702901 101.654418 
L 237.788702 103.656502 
L 238.874503 101.70902 
L 239.960304 98.542087 
L 241.046105 100.161955 
L 242.131906 96.922219 
L 243.217708 101.144796 
L 244.303509 100.125553 
L 245.38931 96.776613 
L 246.475111 103.183282 
L 247.560912 101.545213 
L 248.646713 98.633091 
L 249.732514 97.322636 
L 250.818316 98.269075 
L 251.904117 95.702768 
L 252.989918 94.847332 
L 254.075719 94.719927 
L 255.16152 107.278453 
L 256.247321 92.754244 
L 257.333123 92.226422 
L 258.418924 88.622671 
L 259.504725 90.388145 
L 260.590526 96.285192 
L 261.676327 93.755286 
L 262.762128 97.832257 
L 263.847929 92.390229 
L 264.933731 90.460948 
L 266.019532 91.043372 
L 267.105333 89.277898 
L 268.191134 88.149451 
L 269.276935 94.283108 
L 270.362736 91.880607 
L 271.448538 92.117217 
L 272.534339 92.026214 
L 273.62014 90.169736 
L 274.705941 90.169736 
L 275.791742 88.386061 
L 276.877543 91.061573 
L 277.963344 87.021004 
L 279.049146 87.949243 
L 280.134947 87.057405 
L 281.220748 92.681441 
L 282.306549 84.527499 
L 283.39235 86.347575 
L 284.478151 85.237329 
L 285.563953 91.079774 
L 286.649754 86.875397 
L 287.735555 87.366818 
L 288.821356 85.27373 
L 289.907157 84.327291 
L 290.992958 83.854071 
L 292.07876 79.904505 
L 293.164561 84.891514 
L 294.250362 87.949243 
L 295.336163 84.673105 
L 296.421964 84.582101 
L 297.507765 80.687138 
L 298.593566 84.927916 
L 299.679368 79.322081 
L 300.765169 79.140073 
L 301.85097 81.870187 
L 302.936771 77.101587 
L 305.108373 79.103671 
L 306.194175 81.942991 
L 307.279976 78.248235 
L 308.365777 78.448444 
L 309.451578 77.228993 
L 310.537379 79.30388 
L 311.62318 74.881094 
L 312.708981 77.028784 
L 313.794783 74.353272 
L 315.966385 76.464561 
L 317.052186 74.990299 
L 318.137987 73.916454 
L 319.223788 73.552438 
L 320.30959 70.203498 
L 321.395391 73.006416 
L 322.481192 72.514995 
L 323.566993 74.171264 
L 324.652794 70.986131 
L 325.738595 69.875884 
L 326.824396 70.640316 
L 327.910198 67.345978 
L 328.995999 71.240941 
L 330.0818 69.78488 
L 331.167601 65.325693 
L 332.253402 66.799955 
L 333.339203 66.599747 
L 334.425005 66.763554 
L 336.596607 66.217531 
L 337.682408 66.235731 
L 338.768209 66.67255 
L 339.85401 64.106242 
L 340.939811 66.399538 
L 342.025613 64.361053 
L 343.111414 63.924235 
L 344.197215 63.269007 
L 345.283016 61.922151 
L 346.368817 61.394328 
L 347.454618 61.157718 
L 348.54042 61.849347 
L 349.626221 58.791619 
L 350.712022 60.411487 
L 351.797823 58.919025 
L 352.883624 61.121317 
L 353.969425 59.119233 
L 355.055227 57.772376 
L 356.141028 56.680331 
L 357.226829 56.698531 
L 358.31263 58.57321 
L 359.398431 57.735975 
L 360.484232 55.388076 
L 361.570033 55.169667 
L 362.655835 54.423436 
L 363.741636 54.896656 
L 364.827437 53.768208 
L 365.913238 55.278872 
L 366.999039 54.332432 
L 368.08484 54.569042 
L 370.256443 57.189952 
L 371.342244 60.320483 
L 372.428045 60.320483 
L 373.513846 60.739101 
L 374.599647 61.66734 
L 375.685448 61.212321 
L 376.77125 58.80982 
L 377.857051 57.644971 
L 378.942852 60.229479 
L 380.028653 59.501449 
L 381.114454 61.048514 
L 383.286057 61.103116 
L 384.371858 59.792661 
L 385.457659 61.849347 
L 386.54346 60.557093 
L 387.629261 61.303325 
L 388.715062 57.735975 
L 389.800863 59.938267 
L 390.886665 61.139518 
L 391.972466 59.574252 
L 393.058267 60.393286 
L 394.144068 60.757302 
L 395.229869 60.156676 
L 396.31567 60.211279 
L 397.401472 62.067757 
L 398.487273 59.865464 
L 398.487273 59.865464 
" clip-path="url(#p41f8feb8ca)" style="fill: none; stroke: #ff7f0e; stroke-width: 1.5; stroke-linecap: square"/>
   </g>
   <g id="line2d_21">
    <path d="M 73.832727 290.199894 
L 74.918528 272.375698 
L 76.00433 262.710464 
L 78.175932 257.438519 
L 79.261733 252.417619 
L 81.433335 224.551622 
L 82.519137 225.806847 
L 83.604938 223.421919 
L 84.690739 213.505641 
L 85.77654 210.995191 
L 86.862341 210.618624 
L 87.948142 210.493101 
L 89.033943 204.342498 
L 90.119745 206.601903 
L 91.205546 205.095633 
L 92.291347 202.334138 
L 93.377148 201.832048 
L 94.462949 203.714886 
L 95.54875 217.396839 
L 96.634552 220.409379 
L 97.720353 212.752506 
L 98.806154 212.375939 
L 99.891955 209.112354 
L 100.977756 204.342498 
L 102.063557 205.095633 
L 103.149358 212.501461 
L 104.23516 199.070553 
L 105.320961 200.074733 
L 106.406762 198.44294 
L 107.492563 190.4095 
L 108.578364 195.555923 
L 110.749967 193.798608 
L 111.835768 188.40114 
L 112.921569 188.275617 
L 114.00737 186.141735 
L 115.093171 183.631285 
L 116.178972 183.88233 
L 118.350575 179.614564 
L 119.436376 176.476502 
L 120.522177 173.715006 
L 121.607978 174.091574 
L 122.693779 168.443061 
L 123.77958 169.949331 
L 124.865382 169.070674 
L 125.951183 167.438881 
L 128.122785 164.677386 
L 129.208586 164.802908 
L 130.294387 160.660666 
L 131.380189 159.405441 
L 132.46599 160.535143 
L 133.551791 159.530963 
L 134.637592 159.154396 
L 135.723393 158.526783 
L 136.809194 157.522603 
L 137.894995 158.275738 
L 138.980797 186.769347 
L 140.066598 195.681445 
L 141.152399 190.032932 
L 142.2382 190.283977 
L 143.324001 190.4095 
L 144.409802 182.250537 
L 145.495604 185.3886 
L 146.581405 188.024572 
L 147.667206 181.999492 
L 148.753007 184.133375 
L 149.838808 189.154275 
L 150.924609 185.263077 
L 152.01041 179.991132 
L 153.096212 179.614564 
L 154.182013 181.246357 
L 155.267814 174.091574 
L 156.353615 175.597844 
L 157.439416 173.087394 
L 158.525217 173.212916 
L 159.611019 171.455601 
L 160.69682 175.848889 
L 161.782621 175.472322 
L 162.868422 166.685746 
L 163.954223 182.627104 
L 165.040024 170.074854 
L 166.125825 169.070674 
L 167.211627 172.208736 
L 168.297428 172.585304 
L 169.383229 170.200376 
L 170.46903 170.325899 
L 171.554831 163.296638 
L 172.640632 170.325899 
L 173.726434 165.556043 
L 174.812235 168.066494 
L 175.898036 165.681566 
L 176.983837 161.162756 
L 178.069638 158.90335 
L 179.155439 161.162756 
L 180.24124 154.38454 
L 181.327042 157.773648 
L 182.412843 159.154396 
L 183.498644 158.40126 
L 184.584445 154.510063 
L 185.670246 162.041413 
L 186.756047 151.120955 
L 187.841849 151.623045 
L 188.92765 147.104235 
L 190.013451 149.112595 
L 191.099252 157.020513 
L 192.185053 147.606325 
L 193.270854 149.614685 
L 194.356656 142.459902 
L 195.442457 144.091695 
L 196.528258 147.104235 
L 198.69986 144.84483 
L 199.785661 140.702587 
L 200.871462 141.581244 
L 201.957264 141.706767 
L 203.043065 140.200497 
L 204.128866 138.192137 
L 205.214667 138.317659 
L 207.386269 135.556164 
L 208.472071 134.677506 
L 209.557872 132.292579 
L 210.643673 133.673326 
L 211.729474 131.037354 
L 212.815275 133.673326 
L 213.901076 131.037354 
L 214.986877 131.288399 
L 216.072679 129.907651 
L 217.15848 130.158696 
L 218.244281 129.028994 
L 219.330082 130.409741 
L 220.415883 128.275859 
L 221.501684 129.154516 
L 222.587486 129.154516 
L 223.673287 127.522724 
L 224.759088 129.531084 
L 225.844889 173.589484 
L 226.93069 177.480682 
L 228.016491 172.710826 
L 229.102292 178.861429 
L 230.188094 167.062313 
L 231.273895 173.966051 
L 232.359696 166.936791 
L 233.445497 175.597844 
L 234.531298 181.371879 
L 235.617099 170.702466 
L 236.702901 168.694106 
L 237.788702 172.459781 
L 238.874503 173.589484 
L 239.960304 160.911711 
L 241.046105 168.317539 
L 242.131906 166.058133 
L 243.217708 169.698286 
L 244.303509 170.074854 
L 246.475111 173.212916 
L 247.560912 175.095754 
L 248.646713 166.811268 
L 249.732514 165.932611 
L 250.818316 166.811268 
L 251.904117 166.183656 
L 252.989918 163.422161 
L 254.075719 162.166936 
L 255.16152 177.606204 
L 256.247321 159.530963 
L 257.333123 167.313359 
L 258.418924 159.782008 
L 259.504725 162.794548 
L 260.590526 166.183656 
L 261.676327 165.304998 
L 262.762128 171.832169 
L 263.847929 164.551863 
L 264.933731 158.652305 
L 266.019532 164.551863 
L 267.105333 159.154396 
L 268.191134 156.89499 
L 269.276935 164.175296 
L 270.362736 165.807088 
L 271.448538 160.911711 
L 272.534339 161.915891 
L 273.62014 158.40126 
L 274.705941 161.162756 
L 275.791742 156.769468 
L 276.877543 163.547683 
L 277.963344 156.141855 
L 279.049146 156.016333 
L 280.134947 156.769468 
L 281.220748 164.551863 
L 282.306549 158.652305 
L 283.39235 158.275738 
L 284.478151 149.614685 
L 285.563953 161.037233 
L 286.649754 158.275738 
L 287.735555 159.154396 
L 288.821356 157.39708 
L 289.907157 155.012153 
L 290.992958 150.995432 
L 292.07876 149.489162 
L 293.164561 150.116775 
L 294.250362 160.409621 
L 295.336163 158.150215 
L 296.421964 155.514243 
L 297.507765 151.999613 
L 298.593566 157.271558 
L 299.679368 150.618865 
L 300.765169 147.731847 
L 301.85097 154.133495 
L 302.936771 147.229757 
L 304.022572 151.623045 
L 305.108373 151.497523 
L 306.194175 153.756928 
L 307.279976 151.372 
L 308.365777 144.719307 
L 309.451578 147.606325 
L 310.537379 151.246478 
L 311.62318 143.464082 
L 312.708981 141.330199 
L 313.794783 149.614685 
L 314.880584 142.961992 
L 315.966385 149.740207 
L 317.052186 145.974532 
L 318.137987 148.233937 
L 319.223788 145.84901 
L 320.30959 142.208857 
L 321.395391 143.84065 
L 322.481192 141.079154 
L 323.566993 145.095875 
L 325.738595 138.317659 
L 326.824396 141.330199 
L 327.910198 140.451542 
L 328.995999 146.476622 
L 330.0818 141.706767 
L 331.167601 137.690047 
L 332.253402 142.083334 
L 333.339203 135.054074 
L 334.425005 139.572884 
L 335.510806 137.439002 
L 336.596607 139.949452 
L 337.682408 136.183777 
L 338.768209 138.945272 
L 339.85401 133.296759 
L 340.939811 138.819749 
L 342.025613 136.936912 
L 343.111414 133.171236 
L 344.197215 136.183777 
L 345.283016 131.288399 
L 346.368817 129.531084 
L 347.454618 130.033174 
L 348.54042 132.041534 
L 349.626221 132.041534 
L 350.712022 132.292579 
L 351.797823 129.656606 
L 352.883624 132.418101 
L 353.969425 130.786309 
L 355.055227 126.393021 
L 356.141028 127.271679 
L 357.226829 129.531084 
L 358.31263 131.288399 
L 359.398431 128.150336 
L 360.484232 125.765408 
L 361.570033 125.388841 
L 362.655835 125.514363 
L 363.741636 126.141976 
L 364.827437 121.874211 
L 365.913238 125.388841 
L 366.999039 122.878391 
L 368.08484 121.623166 
L 369.170642 126.518543 
L 370.256443 127.397201 
L 371.342244 130.786309 
L 372.428045 127.522724 
L 373.513846 133.547804 
L 374.599647 135.556164 
L 375.685448 131.037354 
L 376.77125 128.526904 
L 377.857051 127.773769 
L 378.942852 127.648246 
L 380.028653 128.652426 
L 381.114454 133.673326 
L 382.200255 136.936912 
L 383.286057 133.547804 
L 384.371858 130.786309 
L 385.457659 135.054074 
L 386.54346 133.422281 
L 387.629261 133.798849 
L 388.715062 130.284219 
L 389.800863 133.422281 
L 390.886665 135.179597 
L 391.972466 130.535264 
L 393.058267 130.284219 
L 394.144068 131.916011 
L 395.229869 129.656606 
L 397.401472 135.430642 
L 398.487273 131.539444 
L 398.487273 131.539444 
" clip-path="url(#p41f8feb8ca)" style="fill: none; stroke: #2ca02c; stroke-width: 1.5; stroke-linecap: square"/>
   </g>
   <g id="line2d_22">
    <path d="M 368.08484 53.568 
L 369.170642 57.826979 
L 370.256443 57.572168 
L 371.342244 57.990786 
L 372.428045 58.973627 
L 373.513846 60.320483 
L 374.599647 64.870674 
L 375.685448 62.63198 
L 376.77125 61.19412 
L 377.857051 65.744311 
L 378.942852 63.887833 
L 380.028653 74.517079 
L 382.200255 63.851431 
L 383.286057 63.596621 
L 384.371858 67.8738 
L 385.457659 68.274217 
L 386.54346 66.144728 
L 387.629261 62.504575 
L 388.715062 67.61899 
L 389.800863 62.941393 
L 391.972466 70.221699 
L 393.058267 69.566471 
L 394.144068 76.155148 
L 395.229869 72.788006 
L 396.31567 76.373557 
L 397.401472 70.713119 
L 398.487273 72.514995 
L 398.487273 72.514995 
" clip-path="url(#p41f8feb8ca)" style="fill: none; stroke: #d62728; stroke-width: 1.5; stroke-linecap: square"/>
   </g>
   <g id="line2d_23">
    <path d="M 368.08484 120.995553 
L 369.170642 130.284219 
L 370.256443 128.652426 
L 372.428045 127.899291 
L 373.513846 133.045714 
L 374.599647 136.058254 
L 375.685448 137.815569 
L 376.77125 134.175416 
L 377.857051 136.434822 
L 378.942852 135.305119 
L 380.028653 147.85737 
L 381.114454 142.710947 
L 382.200255 139.698407 
L 383.286057 137.187957 
L 384.371858 141.455722 
L 385.457659 142.334379 
L 386.54346 136.936912 
L 387.629261 128.024814 
L 388.715062 138.945272 
L 389.800863 131.037354 
L 390.886665 140.451542 
L 391.972466 144.593785 
L 393.058267 141.079154 
L 394.144068 148.108415 
L 395.229869 142.710947 
L 396.31567 148.610505 
L 397.401472 142.585424 
L 398.487273 142.459902 
L 398.487273 142.459902 
" clip-path="url(#p41f8feb8ca)" style="fill: none; stroke: #9467bd; stroke-width: 1.5; stroke-linecap: square"/>
   </g>
   <g id="patch_3">
    <path d="M 57.6 307.584 
L 57.6 41.472 
" style="fill: none; stroke: #000000; stroke-width: 0.8; stroke-linejoin: miter; stroke-linecap: square"/>
   </g>
   <g id="patch_4">
    <path d="M 414.72 307.584 
L 414.72 41.472 
" style="fill: none; stroke: #000000; stroke-width: 0.8; stroke-linejoin: miter; stroke-linecap: square"/>
   </g>
   <g id="patch_5">
    <path d="M 57.6 307.584 
L 414.72 307.584 
" style="fill: none; stroke: #000000; stroke-width: 0.8; stroke-linejoin: miter; stroke-linecap: square"/>
   </g>
   <g id="patch_6">
    <path d="M 57.6 41.472 
L 414.72 41.472 
" style="fill: none; stroke: #000000; stroke-width: 0.8; stroke-linejoin: miter; stroke-linecap: square"/>
   </g>
   <g id="text_21">
    <!-- Learning Curves -->
    <g transform="translate(187.37625 35.472) scale(0.12 -0.12)">
     <defs>
      <path id="DejaVuSans-4c" d="M 628 4666 
L 1259 4666 
L 1259 531 
L 3531 531 
L 3531 0 
L 628 0 
L 628 4666 
z
" transform="scale(0.015625)"/>
      <path id="DejaVuSans-65" d="M 3597 1894 
L 3597 1613 
L 953 1613 
Q 991 1019 1311 708 
Q 1631 397 2203 397 
Q 2534 397 2845 478 
Q 3156 559 3463 722 
L 3463 178 
Q 3153 47 2828 -22 
Q 2503 -91 2169 -91 
Q 1331 -91 842 396 
Q 353 884 353 1716 
Q 353 2575 817 3079 
Q 1281 3584 2069 3584 
Q 2775 3584 3186 3129 
Q 3597 2675 3597 1894 
z
M 3022 2063 
Q 3016 2534 2758 2815 
Q 2500 3097 2075 3097 
Q 1594 3097 1305 2825 
Q 1016 2553 972 2059 
L 3022 2063 
z
" transform="scale(0.015625)"/>
      <path id="DejaVuSans-6e" d="M 3513 2113 
L 3513 0 
L 2938 0 
L 2938 2094 
Q 2938 2591 2744 2837 
Q 2550 3084 2163 3084 
Q 1697 3084 1428 2787 
Q 1159 2491 1159 1978 
L 1159 0 
L 581 0 
L 581 3500 
L 1159 3500 
L 1159 2956 
Q 1366 3272 1645 3428 
Q 1925 3584 2291 3584 
Q 2894 3584 3203 3211 
Q 3513 2838 3513 2113 
z
" transform="scale(0.015625)"/>
      <path id="DejaVuSans-69" d="M 603 3500 
L 1178 3500 
L 1178 0 
L 603 0 
L 603 3500 
z
M 603 4863 
L 1178 4863 
L 1178 4134 
L 603 4134 
L 603 4863 
z
" transform="scale(0.015625)"/>
      <path id="DejaVuSans-67" d="M 2906 1791 
Q 2906 2416 2648 2759 
Q 2391 3103 1925 3103 
Q 1463 3103 1205 2759 
Q 947 2416 947 1791 
Q 947 1169 1205 825 
Q 1463 481 1925 481 
Q 2391 481 2648 825 
Q 2906 1169 2906 1791 
z
M 3481 434 
Q 3481 -459 3084 -895 
Q 2688 -1331 1869 -1331 
Q 1566 -1331 1297 -1286 
Q 1028 -1241 775 -1147 
L 775 -588 
Q 1028 -725 1275 -790 
Q 1522 -856 1778 -856 
Q 2344 -856 2625 -561 
Q 2906 -266 2906 331 
L 2906 616 
Q 2728 306 2450 153 
Q 2172 0 1784 0 
Q 1141 0 747 490 
Q 353 981 353 1791 
Q 353 2603 747 3093 
Q 1141 3584 1784 3584 
Q 2172 3584 2450 3431 
Q 2728 3278 2906 2969 
L 2906 3500 
L 3481 3500 
L 3481 434 
z
" transform="scale(0.015625)"/>
      <path id="DejaVuSans-20" transform="scale(0.015625)"/>
      <path id="DejaVuSans-43" d="M 4122 4306 
L 4122 3641 
Q 3803 3938 3442 4084 
Q 3081 4231 2675 4231 
Q 1875 4231 1450 3742 
Q 1025 3253 1025 2328 
Q 1025 1406 1450 917 
Q 1875 428 2675 428 
Q 3081 428 3442 575 
Q 3803 722 4122 1019 
L 4122 359 
Q 3791 134 3420 21 
Q 3050 -91 2638 -91 
Q 1578 -91 968 557 
Q 359 1206 359 2328 
Q 359 3453 968 4101 
Q 1578 4750 2638 4750 
Q 3056 4750 3426 4639 
Q 3797 4528 4122 4306 
z
" transform="scale(0.015625)"/>
      <path id="DejaVuSans-76" d="M 191 3500 
L 800 3500 
L 1894 563 
L 2988 3500 
L 3597 3500 
L 2284 0 
L 1503 0 
L 191 3500 
z
" transform="scale(0.015625)"/>
     </defs>
     <use xlink:href="#DejaVuSans-4c"/>
     <use xlink:href="#DejaVuSans-65" x="53.962891"/>
     <use xlink:href="#DejaVuSans-61" x="115.486328"/>
     <use xlink:href="#DejaVuSans-72" x="176.765625"/>
     <use xlink:href="#DejaVuSans-6e" x="216.128906"/>
     <use xlink:href="#DejaVuSans-69" x="279.507812"/>
     <use xlink:href="#DejaVuSans-6e" x="307.291016"/>
     <use xlink:href="#DejaVuSans-67" x="370.669922"/>
     <use xlink:href="#DejaVuSans-20" x="434.146484"/>
     <use xlink:href="#DejaVuSans-43" x="465.933594"/>
     <use xlink:href="#DejaVuSans-75" x="535.757812"/>
     <use xlink:href="#DejaVuSans-72" x="599.136719"/>
     <use xlink:href="#DejaVuSans-76" x="640.25"/>
     <use xlink:href="#DejaVuSans-65" x="699.429688"/>
     <use xlink:href="#DejaVuSans-73" x="760.953125"/>
    </g>
   </g>
   <g id="legend_1">
    <g id="patch_7">
     <path d="M 214.18875 302.584 
L 407.72 302.584 
Q 409.72 302.584 409.72 300.584 
L 409.72 228.193375 
Q 409.72 226.193375 407.72 226.193375 
L 214.18875 226.193375 
Q 212.18875 226.193375 212.18875 228.193375 
L 212.18875 300.584 
Q 212.18875 302.584 214.18875 302.584 
z
" style="fill: #ffffff; opacity: 0.8; stroke: #cccccc; stroke-linejoin: miter"/>
    </g>
    <g id="line2d_24">
     <path d="M 216.18875 234.291812 
L 226.18875 234.291812 
L 236.18875 234.291812 
" style="fill: none; stroke: #1f77b4; stroke-width: 1.5; stroke-linecap: square"/>
    </g>
    <g id="text_22">
     <!-- Train Accuracy -->
     <g transform="translate(244.18875 237.791812) scale(0.1 -0.1)">
      <defs>
       <path id="DejaVuSans-54" d="M -19 4666 
L 3928 4666 
L 3928 4134 
L 2272 4134 
L 2272 0 
L 1638 0 
L 1638 4134 
L -19 4134 
L -19 4666 
z
" transform="scale(0.015625)"/>
      </defs>
      <use xlink:href="#DejaVuSans-54"/>
      <use xlink:href="#DejaVuSans-72" x="46.333984"/>
      <use xlink:href="#DejaVuSans-61" x="87.447266"/>
      <use xlink:href="#DejaVuSans-69" x="148.726562"/>
      <use xlink:href="#DejaVuSans-6e" x="176.509766"/>
      <use xlink:href="#DejaVuSans-20" x="239.888672"/>
      <use xlink:href="#DejaVuSans-41" x="271.675781"/>
      <use xlink:href="#DejaVuSans-63" x="338.333984"/>
      <use xlink:href="#DejaVuSans-63" x="393.314453"/>
      <use xlink:href="#DejaVuSans-75" x="448.294922"/>
      <use xlink:href="#DejaVuSans-72" x="511.673828"/>
      <use xlink:href="#DejaVuSans-61" x="552.787109"/>
      <use xlink:href="#DejaVuSans-63" x="614.066406"/>
      <use xlink:href="#DejaVuSans-79" x="669.046875"/>
     </g>
    </g>
    <g id="line2d_25">
     <path d="M 216.18875 248.969937 
L 226.18875 248.969937 
L 236.18875 248.969937 
" style="fill: none; stroke: #ff7f0e; stroke-width: 1.5; stroke-linecap: square"/>
    </g>
    <g id="text_23">
     <!-- Validation Accuracy -->
     <g transform="translate(244.18875 252.469937) scale(0.1 -0.1)">
      <defs>
       <path id="DejaVuSans-56" d="M 1831 0 
L 50 4666 
L 709 4666 
L 2188 738 
L 3669 4666 
L 4325 4666 
L 2547 0 
L 1831 0 
z
" transform="scale(0.015625)"/>
       <path id="DejaVuSans-6c" d="M 603 4863 
L 1178 4863 
L 1178 0 
L 603 0 
L 603 4863 
z
" transform="scale(0.015625)"/>
       <path id="DejaVuSans-64" d="M 2906 2969 
L 2906 4863 
L 3481 4863 
L 3481 0 
L 2906 0 
L 2906 525 
Q 2725 213 2448 61 
Q 2172 -91 1784 -91 
Q 1150 -91 751 415 
Q 353 922 353 1747 
Q 353 2572 751 3078 
Q 1150 3584 1784 3584 
Q 2172 3584 2448 3432 
Q 2725 3281 2906 2969 
z
M 947 1747 
Q 947 1113 1208 752 
Q 1469 391 1925 391 
Q 2381 391 2643 752 
Q 2906 1113 2906 1747 
Q 2906 2381 2643 2742 
Q 2381 3103 1925 3103 
Q 1469 3103 1208 2742 
Q 947 2381 947 1747 
z
" transform="scale(0.015625)"/>
       <path id="DejaVuSans-74" d="M 1172 4494 
L 1172 3500 
L 2356 3500 
L 2356 3053 
L 1172 3053 
L 1172 1153 
Q 1172 725 1289 603 
Q 1406 481 1766 481 
L 2356 481 
L 2356 0 
L 1766 0 
Q 1100 0 847 248 
Q 594 497 594 1153 
L 594 3053 
L 172 3053 
L 172 3500 
L 594 3500 
L 594 4494 
L 1172 4494 
z
" transform="scale(0.015625)"/>
      </defs>
      <use xlink:href="#DejaVuSans-56"/>
      <use xlink:href="#DejaVuSans-61" x="60.658203"/>
      <use xlink:href="#DejaVuSans-6c" x="121.9375"/>
      <use xlink:href="#DejaVuSans-69" x="149.720703"/>
      <use xlink:href="#DejaVuSans-64" x="177.503906"/>
      <use xlink:href="#DejaVuSans-61" x="240.980469"/>
      <use xlink:href="#DejaVuSans-74" x="302.259766"/>
      <use xlink:href="#DejaVuSans-69" x="341.46875"/>
      <use xlink:href="#DejaVuSans-6f" x="369.251953"/>
      <use xlink:href="#DejaVuSans-6e" x="430.433594"/>
      <use xlink:href="#DejaVuSans-20" x="493.8125"/>
      <use xlink:href="#DejaVuSans-41" x="525.599609"/>
      <use xlink:href="#DejaVuSans-63" x="592.257812"/>
      <use xlink:href="#DejaVuSans-63" x="647.238281"/>
      <use xlink:href="#DejaVuSans-75" x="702.21875"/>
      <use xlink:href="#DejaVuSans-72" x="765.597656"/>
      <use xlink:href="#DejaVuSans-61" x="806.710938"/>
      <use xlink:href="#DejaVuSans-63" x="867.990234"/>
      <use xlink:href="#DejaVuSans-79" x="922.970703"/>
     </g>
    </g>
    <g id="line2d_26">
     <path d="M 216.18875 263.648062 
L 226.18875 263.648062 
L 236.18875 263.648062 
" style="fill: none; stroke: #2ca02c; stroke-width: 1.5; stroke-linecap: square"/>
    </g>
    <g id="text_24">
     <!-- Robust Validation Accuracy -->
     <g transform="translate(244.18875 267.148062) scale(0.1 -0.1)">
      <defs>
       <path id="DejaVuSans-52" d="M 2841 2188 
Q 3044 2119 3236 1894 
Q 3428 1669 3622 1275 
L 4263 0 
L 3584 0 
L 2988 1197 
Q 2756 1666 2539 1819 
Q 2322 1972 1947 1972 
L 1259 1972 
L 1259 0 
L 628 0 
L 628 4666 
L 2053 4666 
Q 2853 4666 3247 4331 
Q 3641 3997 3641 3322 
Q 3641 2881 3436 2590 
Q 3231 2300 2841 2188 
z
M 1259 4147 
L 1259 2491 
L 2053 2491 
Q 2509 2491 2742 2702 
Q 2975 2913 2975 3322 
Q 2975 3731 2742 3939 
Q 2509 4147 2053 4147 
L 1259 4147 
z
" transform="scale(0.015625)"/>
       <path id="DejaVuSans-62" d="M 3116 1747 
Q 3116 2381 2855 2742 
Q 2594 3103 2138 3103 
Q 1681 3103 1420 2742 
Q 1159 2381 1159 1747 
Q 1159 1113 1420 752 
Q 1681 391 2138 391 
Q 2594 391 2855 752 
Q 3116 1113 3116 1747 
z
M 1159 2969 
Q 1341 3281 1617 3432 
Q 1894 3584 2278 3584 
Q 2916 3584 3314 3078 
Q 3713 2572 3713 1747 
Q 3713 922 3314 415 
Q 2916 -91 2278 -91 
Q 1894 -91 1617 61 
Q 1341 213 1159 525 
L 1159 0 
L 581 0 
L 581 4863 
L 1159 4863 
L 1159 2969 
z
" transform="scale(0.015625)"/>
      </defs>
      <use xlink:href="#DejaVuSans-52"/>
      <use xlink:href="#DejaVuSans-6f" x="64.982422"/>
      <use xlink:href="#DejaVuSans-62" x="126.164062"/>
      <use xlink:href="#DejaVuSans-75" x="189.640625"/>
      <use xlink:href="#DejaVuSans-73" x="253.019531"/>
      <use xlink:href="#DejaVuSans-74" x="305.119141"/>
      <use xlink:href="#DejaVuSans-20" x="344.328125"/>
      <use xlink:href="#DejaVuSans-56" x="376.115234"/>
      <use xlink:href="#DejaVuSans-61" x="436.773438"/>
      <use xlink:href="#DejaVuSans-6c" x="498.052734"/>
      <use xlink:href="#DejaVuSans-69" x="525.835938"/>
      <use xlink:href="#DejaVuSans-64" x="553.619141"/>
      <use xlink:href="#DejaVuSans-61" x="617.095703"/>
      <use xlink:href="#DejaVuSans-74" x="678.375"/>
      <use xlink:href="#DejaVuSans-69" x="717.583984"/>
      <use xlink:href="#DejaVuSans-6f" x="745.367188"/>
      <use xlink:href="#DejaVuSans-6e" x="806.548828"/>
      <use xlink:href="#DejaVuSans-20" x="869.927734"/>
      <use xlink:href="#DejaVuSans-41" x="901.714844"/>
      <use xlink:href="#DejaVuSans-63" x="968.373047"/>
      <use xlink:href="#DejaVuSans-63" x="1023.353516"/>
      <use xlink:href="#DejaVuSans-75" x="1078.333984"/>
      <use xlink:href="#DejaVuSans-72" x="1141.712891"/>
      <use xlink:href="#DejaVuSans-61" x="1182.826172"/>
      <use xlink:href="#DejaVuSans-63" x="1244.105469"/>
      <use xlink:href="#DejaVuSans-79" x="1299.085938"/>
     </g>
    </g>
    <g id="line2d_27">
     <path d="M 216.18875 278.326188 
L 226.18875 278.326188 
L 236.18875 278.326188 
" style="fill: none; stroke: #d62728; stroke-width: 1.5; stroke-linecap: square"/>
    </g>
    <g id="text_25">
     <!-- SWA Validation Accuracy -->
     <g transform="translate(244.18875 281.826188) scale(0.1 -0.1)">
      <defs>
       <path id="DejaVuSans-53" d="M 3425 4513 
L 3425 3897 
Q 3066 4069 2747 4153 
Q 2428 4238 2131 4238 
Q 1616 4238 1336 4038 
Q 1056 3838 1056 3469 
Q 1056 3159 1242 3001 
Q 1428 2844 1947 2747 
L 2328 2669 
Q 3034 2534 3370 2195 
Q 3706 1856 3706 1288 
Q 3706 609 3251 259 
Q 2797 -91 1919 -91 
Q 1588 -91 1214 -16 
Q 841 59 441 206 
L 441 856 
Q 825 641 1194 531 
Q 1563 422 1919 422 
Q 2459 422 2753 634 
Q 3047 847 3047 1241 
Q 3047 1584 2836 1778 
Q 2625 1972 2144 2069 
L 1759 2144 
Q 1053 2284 737 2584 
Q 422 2884 422 3419 
Q 422 4038 858 4394 
Q 1294 4750 2059 4750 
Q 2388 4750 2728 4690 
Q 3069 4631 3425 4513 
z
" transform="scale(0.015625)"/>
       <path id="DejaVuSans-57" d="M 213 4666 
L 850 4666 
L 1831 722 
L 2809 4666 
L 3519 4666 
L 4500 722 
L 5478 4666 
L 6119 4666 
L 4947 0 
L 4153 0 
L 3169 4050 
L 2175 0 
L 1381 0 
L 213 4666 
z
" transform="scale(0.015625)"/>
      </defs>
      <use xlink:href="#DejaVuSans-53"/>
      <use xlink:href="#DejaVuSans-57" x="63.476562"/>
      <use xlink:href="#DejaVuSans-41" x="156.853516"/>
      <use xlink:href="#DejaVuSans-20" x="225.261719"/>
      <use xlink:href="#DejaVuSans-56" x="257.048828"/>
      <use xlink:href="#DejaVuSans-61" x="317.707031"/>
      <use xlink:href="#DejaVuSans-6c" x="378.986328"/>
      <use xlink:href="#DejaVuSans-69" x="406.769531"/>
      <use xlink:href="#DejaVuSans-64" x="434.552734"/>
      <use xlink:href="#DejaVuSans-61" x="498.029297"/>
      <use xlink:href="#DejaVuSans-74" x="559.308594"/>
      <use xlink:href="#DejaVuSans-69" x="598.517578"/>
      <use xlink:href="#DejaVuSans-6f" x="626.300781"/>
      <use xlink:href="#DejaVuSans-6e" x="687.482422"/>
      <use xlink:href="#DejaVuSans-20" x="750.861328"/>
      <use xlink:href="#DejaVuSans-41" x="782.648438"/>
      <use xlink:href="#DejaVuSans-63" x="849.306641"/>
      <use xlink:href="#DejaVuSans-63" x="904.287109"/>
      <use xlink:href="#DejaVuSans-75" x="959.267578"/>
      <use xlink:href="#DejaVuSans-72" x="1022.646484"/>
      <use xlink:href="#DejaVuSans-61" x="1063.759766"/>
      <use xlink:href="#DejaVuSans-63" x="1125.039062"/>
      <use xlink:href="#DejaVuSans-79" x="1180.019531"/>
     </g>
    </g>
    <g id="line2d_28">
     <path d="M 216.18875 293.004312 
L 226.18875 293.004312 
L 236.18875 293.004312 
" style="fill: none; stroke: #9467bd; stroke-width: 1.5; stroke-linecap: square"/>
    </g>
    <g id="text_26">
     <!-- SWA Robust Validation Accuracy -->
     <g transform="translate(244.18875 296.504312) scale(0.1 -0.1)">
      <use xlink:href="#DejaVuSans-53"/>
      <use xlink:href="#DejaVuSans-57" x="63.476562"/>
      <use xlink:href="#DejaVuSans-41" x="156.853516"/>
      <use xlink:href="#DejaVuSans-20" x="225.261719"/>
      <use xlink:href="#DejaVuSans-52" x="257.048828"/>
      <use xlink:href="#DejaVuSans-6f" x="322.03125"/>
      <use xlink:href="#DejaVuSans-62" x="383.212891"/>
      <use xlink:href="#DejaVuSans-75" x="446.689453"/>
      <use xlink:href="#DejaVuSans-73" x="510.068359"/>
      <use xlink:href="#DejaVuSans-74" x="562.167969"/>
      <use xlink:href="#DejaVuSans-20" x="601.376953"/>
      <use xlink:href="#DejaVuSans-56" x="633.164062"/>
      <use xlink:href="#DejaVuSans-61" x="693.822266"/>
      <use xlink:href="#DejaVuSans-6c" x="755.101562"/>
      <use xlink:href="#DejaVuSans-69" x="782.884766"/>
      <use xlink:href="#DejaVuSans-64" x="810.667969"/>
      <use xlink:href="#DejaVuSans-61" x="874.144531"/>
      <use xlink:href="#DejaVuSans-74" x="935.423828"/>
      <use xlink:href="#DejaVuSans-69" x="974.632812"/>
      <use xlink:href="#DejaVuSans-6f" x="1002.416016"/>
      <use xlink:href="#DejaVuSans-6e" x="1063.597656"/>
      <use xlink:href="#DejaVuSans-20" x="1126.976562"/>
      <use xlink:href="#DejaVuSans-41" x="1158.763672"/>
      <use xlink:href="#DejaVuSans-63" x="1225.421875"/>
      <use xlink:href="#DejaVuSans-63" x="1280.402344"/>
      <use xlink:href="#DejaVuSans-75" x="1335.382812"/>
      <use xlink:href="#DejaVuSans-72" x="1398.761719"/>
      <use xlink:href="#DejaVuSans-61" x="1439.875"/>
      <use xlink:href="#DejaVuSans-63" x="1501.154297"/>
      <use xlink:href="#DejaVuSans-79" x="1556.134766"/>
     </g>
    </g>
   </g>
  </g>
 </g>
 <defs>
  <clipPath id="p41f8feb8ca">
   <rect x="57.6" y="41.472" width="357.12" height="266.112"/>
  </clipPath>
 </defs>
</svg>
