<?xml version="1.0" encoding="utf-8" standalone="no"?>
<!DOCTYPE svg PUBLIC "-//W3C//DTD SVG 1.1//EN"
  "http://www.w3.org/Graphics/SVG/1.1/DTD/svg11.dtd">
<svg xmlns:xlink="http://www.w3.org/1999/xlink" width="460.8pt" height="345.6pt" viewBox="0 0 460.8 345.6" xmlns="http://www.w3.org/2000/svg" version="1.1">
 <metadata>
  <rdf:RDF xmlns:dc="http://purl.org/dc/elements/1.1/" xmlns:cc="http://creativecommons.org/ns#" xmlns:rdf="http://www.w3.org/1999/02/22-rdf-syntax-ns#">
   <cc:Work>
    <dc:type rdf:resource="http://purl.org/dc/dcmitype/StillImage"/>
    <dc:date>2025-03-30T17:23:28.964808</dc:date>
    <dc:format>image/svg+xml</dc:format>
    <dc:creator>
     <cc:Agent>
      <dc:title>Matplotlib v3.9.1, https://matplotlib.org/</dc:title>
     </cc:Agent>
    </dc:creator>
   </cc:Work>
  </rdf:RDF>
 </metadata>
 <defs>
  <style type="text/css">*{stroke-linejoin: round; stroke-linecap: butt}</style>
 </defs>
 <g id="figure_1">
  <g id="patch_1">
   <path d="M 0 345.6 
L 460.8 345.6 
L 460.8 0 
L 0 0 
z
" style="fill: #ffffff"/>
  </g>
  <g id="axes_1">
   <g id="patch_2">
    <path d="M 57.6 307.584 
L 414.72 307.584 
L 414.72 41.472 
L 57.6 41.472 
z
" style="fill: #ffffff"/>
   </g>
   <g id="matplotlib.axis_1">
    <g id="xtick_1">
     <g id="line2d_1">
      <defs>
       <path id="m513ce02e06" d="M 0 0 
L 0 3.5 
" style="stroke: #000000; stroke-width: 0.8"/>
      </defs>
      <g>
       <use xlink:href="#m513ce02e06" x="73.832727" y="307.584" style="stroke: #000000; stroke-width: 0.8"/>
      </g>
     </g>
     <g id="text_1">
      <!-- 1 -->
      <g transform="translate(70.651477 322.182437) scale(0.1 -0.1)">
       <defs>
        <path id="DejaVuSans-31" d="M 794 531 
L 1825 531 
L 1825 4091 
L 703 3866 
L 703 4441 
L 1819 4666 
L 2450 4666 
L 2450 531 
L 3481 531 
L 3481 0 
L 794 0 
L 794 531 
z
" transform="scale(0.015625)"/>
       </defs>
       <use xlink:href="#DejaVuSans-31"/>
      </g>
     </g>
    </g>
    <g id="xtick_2">
     <g id="line2d_2">
      <g>
       <use xlink:href="#m513ce02e06" x="108.993869" y="307.584" style="stroke: #000000; stroke-width: 0.8"/>
      </g>
     </g>
     <g id="text_2">
      <!-- 31 -->
      <g transform="translate(102.631369 322.182437) scale(0.1 -0.1)">
       <defs>
        <path id="DejaVuSans-33" d="M 2597 2516 
Q 3050 2419 3304 2112 
Q 3559 1806 3559 1356 
Q 3559 666 3084 287 
Q 2609 -91 1734 -91 
Q 1441 -91 1130 -33 
Q 819 25 488 141 
L 488 750 
Q 750 597 1062 519 
Q 1375 441 1716 441 
Q 2309 441 2620 675 
Q 2931 909 2931 1356 
Q 2931 1769 2642 2001 
Q 2353 2234 1838 2234 
L 1294 2234 
L 1294 2753 
L 1863 2753 
Q 2328 2753 2575 2939 
Q 2822 3125 2822 3475 
Q 2822 3834 2567 4026 
Q 2313 4219 1838 4219 
Q 1578 4219 1281 4162 
Q 984 4106 628 3988 
L 628 4550 
Q 988 4650 1302 4700 
Q 1616 4750 1894 4750 
Q 2613 4750 3031 4423 
Q 3450 4097 3450 3541 
Q 3450 3153 3228 2886 
Q 3006 2619 2597 2516 
z
" transform="scale(0.015625)"/>
       </defs>
       <use xlink:href="#DejaVuSans-33"/>
       <use xlink:href="#DejaVuSans-31" x="63.623047"/>
      </g>
     </g>
    </g>
    <g id="xtick_3">
     <g id="line2d_3">
      <g>
       <use xlink:href="#m513ce02e06" x="145.32705" y="307.584" style="stroke: #000000; stroke-width: 0.8"/>
      </g>
     </g>
     <g id="text_3">
      <!-- 62 -->
      <g transform="translate(138.96455 322.182437) scale(0.1 -0.1)">
       <defs>
        <path id="DejaVuSans-36" d="M 2113 2584 
Q 1688 2584 1439 2293 
Q 1191 2003 1191 1497 
Q 1191 994 1439 701 
Q 1688 409 2113 409 
Q 2538 409 2786 701 
Q 3034 994 3034 1497 
Q 3034 2003 2786 2293 
Q 2538 2584 2113 2584 
z
M 3366 4563 
L 3366 3988 
Q 3128 4100 2886 4159 
Q 2644 4219 2406 4219 
Q 1781 4219 1451 3797 
Q 1122 3375 1075 2522 
Q 1259 2794 1537 2939 
Q 1816 3084 2150 3084 
Q 2853 3084 3261 2657 
Q 3669 2231 3669 1497 
Q 3669 778 3244 343 
Q 2819 -91 2113 -91 
Q 1303 -91 875 529 
Q 447 1150 447 2328 
Q 447 3434 972 4092 
Q 1497 4750 2381 4750 
Q 2619 4750 2861 4703 
Q 3103 4656 3366 4563 
z
" transform="scale(0.015625)"/>
        <path id="DejaVuSans-32" d="M 1228 531 
L 3431 531 
L 3431 0 
L 469 0 
L 469 531 
Q 828 903 1448 1529 
Q 2069 2156 2228 2338 
Q 2531 2678 2651 2914 
Q 2772 3150 2772 3378 
Q 2772 3750 2511 3984 
Q 2250 4219 1831 4219 
Q 1534 4219 1204 4116 
Q 875 4013 500 3803 
L 500 4441 
Q 881 4594 1212 4672 
Q 1544 4750 1819 4750 
Q 2544 4750 2975 4387 
Q 3406 4025 3406 3419 
Q 3406 3131 3298 2873 
Q 3191 2616 2906 2266 
Q 2828 2175 2409 1742 
Q 1991 1309 1228 531 
z
" transform="scale(0.015625)"/>
       </defs>
       <use xlink:href="#DejaVuSans-36"/>
       <use xlink:href="#DejaVuSans-32" x="63.623047"/>
      </g>
     </g>
    </g>
    <g id="xtick_4">
     <g id="line2d_4">
      <g>
       <use xlink:href="#m513ce02e06" x="181.66023" y="307.584" style="stroke: #000000; stroke-width: 0.8"/>
      </g>
     </g>
     <g id="text_4">
      <!-- 93 -->
      <g transform="translate(175.29773 322.182437) scale(0.1 -0.1)">
       <defs>
        <path id="DejaVuSans-39" d="M 703 97 
L 703 672 
Q 941 559 1184 500 
Q 1428 441 1663 441 
Q 2288 441 2617 861 
Q 2947 1281 2994 2138 
Q 2813 1869 2534 1725 
Q 2256 1581 1919 1581 
Q 1219 1581 811 2004 
Q 403 2428 403 3163 
Q 403 3881 828 4315 
Q 1253 4750 1959 4750 
Q 2769 4750 3195 4129 
Q 3622 3509 3622 2328 
Q 3622 1225 3098 567 
Q 2575 -91 1691 -91 
Q 1453 -91 1209 -44 
Q 966 3 703 97 
z
M 1959 2075 
Q 2384 2075 2632 2365 
Q 2881 2656 2881 3163 
Q 2881 3666 2632 3958 
Q 2384 4250 1959 4250 
Q 1534 4250 1286 3958 
Q 1038 3666 1038 3163 
Q 1038 2656 1286 2365 
Q 1534 2075 1959 2075 
z
" transform="scale(0.015625)"/>
       </defs>
       <use xlink:href="#DejaVuSans-39"/>
       <use xlink:href="#DejaVuSans-33" x="63.623047"/>
      </g>
     </g>
    </g>
    <g id="xtick_5">
     <g id="line2d_5">
      <g>
       <use xlink:href="#m513ce02e06" x="217.99341" y="307.584" style="stroke: #000000; stroke-width: 0.8"/>
      </g>
     </g>
     <g id="text_5">
      <!-- 124 -->
      <g transform="translate(208.44966 322.182437) scale(0.1 -0.1)">
       <defs>
        <path id="DejaVuSans-34" d="M 2419 4116 
L 825 1625 
L 2419 1625 
L 2419 4116 
z
M 2253 4666 
L 3047 4666 
L 3047 1625 
L 3713 1625 
L 3713 1100 
L 3047 1100 
L 3047 0 
L 2419 0 
L 2419 1100 
L 313 1100 
L 313 1709 
L 2253 4666 
z
" transform="scale(0.015625)"/>
       </defs>
       <use xlink:href="#DejaVuSans-31"/>
       <use xlink:href="#DejaVuSans-32" x="63.623047"/>
       <use xlink:href="#DejaVuSans-34" x="127.246094"/>
      </g>
     </g>
    </g>
    <g id="xtick_6">
     <g id="line2d_6">
      <g>
       <use xlink:href="#m513ce02e06" x="253.154552" y="307.584" style="stroke: #000000; stroke-width: 0.8"/>
      </g>
     </g>
     <g id="text_6">
      <!-- 154 -->
      <g transform="translate(243.610802 322.182437) scale(0.1 -0.1)">
       <defs>
        <path id="DejaVuSans-35" d="M 691 4666 
L 3169 4666 
L 3169 4134 
L 1269 4134 
L 1269 2991 
Q 1406 3038 1543 3061 
Q 1681 3084 1819 3084 
Q 2600 3084 3056 2656 
Q 3513 2228 3513 1497 
Q 3513 744 3044 326 
Q 2575 -91 1722 -91 
Q 1428 -91 1123 -41 
Q 819 9 494 109 
L 494 744 
Q 775 591 1075 516 
Q 1375 441 1709 441 
Q 2250 441 2565 725 
Q 2881 1009 2881 1497 
Q 2881 1984 2565 2268 
Q 2250 2553 1709 2553 
Q 1456 2553 1204 2497 
Q 953 2441 691 2322 
L 691 4666 
z
" transform="scale(0.015625)"/>
       </defs>
       <use xlink:href="#DejaVuSans-31"/>
       <use xlink:href="#DejaVuSans-35" x="63.623047"/>
       <use xlink:href="#DejaVuSans-34" x="127.246094"/>
      </g>
     </g>
    </g>
    <g id="xtick_7">
     <g id="line2d_7">
      <g>
       <use xlink:href="#m513ce02e06" x="289.487732" y="307.584" style="stroke: #000000; stroke-width: 0.8"/>
      </g>
     </g>
     <g id="text_7">
      <!-- 185 -->
      <g transform="translate(279.943982 322.182437) scale(0.1 -0.1)">
       <defs>
        <path id="DejaVuSans-38" d="M 2034 2216 
Q 1584 2216 1326 1975 
Q 1069 1734 1069 1313 
Q 1069 891 1326 650 
Q 1584 409 2034 409 
Q 2484 409 2743 651 
Q 3003 894 3003 1313 
Q 3003 1734 2745 1975 
Q 2488 2216 2034 2216 
z
M 1403 2484 
Q 997 2584 770 2862 
Q 544 3141 544 3541 
Q 544 4100 942 4425 
Q 1341 4750 2034 4750 
Q 2731 4750 3128 4425 
Q 3525 4100 3525 3541 
Q 3525 3141 3298 2862 
Q 3072 2584 2669 2484 
Q 3125 2378 3379 2068 
Q 3634 1759 3634 1313 
Q 3634 634 3220 271 
Q 2806 -91 2034 -91 
Q 1263 -91 848 271 
Q 434 634 434 1313 
Q 434 1759 690 2068 
Q 947 2378 1403 2484 
z
M 1172 3481 
Q 1172 3119 1398 2916 
Q 1625 2713 2034 2713 
Q 2441 2713 2670 2916 
Q 2900 3119 2900 3481 
Q 2900 3844 2670 4047 
Q 2441 4250 2034 4250 
Q 1625 4250 1398 4047 
Q 1172 3844 1172 3481 
z
" transform="scale(0.015625)"/>
       </defs>
       <use xlink:href="#DejaVuSans-31"/>
       <use xlink:href="#DejaVuSans-38" x="63.623047"/>
       <use xlink:href="#DejaVuSans-35" x="127.246094"/>
      </g>
     </g>
    </g>
    <g id="xtick_8">
     <g id="line2d_8">
      <g>
       <use xlink:href="#m513ce02e06" x="325.820912" y="307.584" style="stroke: #000000; stroke-width: 0.8"/>
      </g>
     </g>
     <g id="text_8">
      <!-- 216 -->
      <g transform="translate(316.277162 322.182437) scale(0.1 -0.1)">
       <use xlink:href="#DejaVuSans-32"/>
       <use xlink:href="#DejaVuSans-31" x="63.623047"/>
       <use xlink:href="#DejaVuSans-36" x="127.246094"/>
      </g>
     </g>
    </g>
    <g id="xtick_9">
     <g id="line2d_9">
      <g>
       <use xlink:href="#m513ce02e06" x="362.154093" y="307.584" style="stroke: #000000; stroke-width: 0.8"/>
      </g>
     </g>
     <g id="text_9">
      <!-- 247 -->
      <g transform="translate(352.610343 322.182437) scale(0.1 -0.1)">
       <defs>
        <path id="DejaVuSans-37" d="M 525 4666 
L 3525 4666 
L 3525 4397 
L 1831 0 
L 1172 0 
L 2766 4134 
L 525 4134 
L 525 4666 
z
" transform="scale(0.015625)"/>
       </defs>
       <use xlink:href="#DejaVuSans-32"/>
       <use xlink:href="#DejaVuSans-34" x="63.623047"/>
       <use xlink:href="#DejaVuSans-37" x="127.246094"/>
      </g>
     </g>
    </g>
    <g id="xtick_10">
     <g id="line2d_10">
      <g>
       <use xlink:href="#m513ce02e06" x="398.487273" y="307.584" style="stroke: #000000; stroke-width: 0.8"/>
      </g>
     </g>
     <g id="text_10">
      <!-- 278 -->
      <g transform="translate(388.943523 322.182437) scale(0.1 -0.1)">
       <use xlink:href="#DejaVuSans-32"/>
       <use xlink:href="#DejaVuSans-37" x="63.623047"/>
       <use xlink:href="#DejaVuSans-38" x="127.246094"/>
      </g>
     </g>
    </g>
    <g id="text_11">
     <!-- Epochs -->
     <g transform="translate(218.244375 335.860562) scale(0.1 -0.1)">
      <defs>
       <path id="DejaVuSans-45" d="M 628 4666 
L 3578 4666 
L 3578 4134 
L 1259 4134 
L 1259 2753 
L 3481 2753 
L 3481 2222 
L 1259 2222 
L 1259 531 
L 3634 531 
L 3634 0 
L 628 0 
L 628 4666 
z
" transform="scale(0.015625)"/>
       <path id="DejaVuSans-70" d="M 1159 525 
L 1159 -1331 
L 581 -1331 
L 581 3500 
L 1159 3500 
L 1159 2969 
Q 1341 3281 1617 3432 
Q 1894 3584 2278 3584 
Q 2916 3584 3314 3078 
Q 3713 2572 3713 1747 
Q 3713 922 3314 415 
Q 2916 -91 2278 -91 
Q 1894 -91 1617 61 
Q 1341 213 1159 525 
z
M 3116 1747 
Q 3116 2381 2855 2742 
Q 2594 3103 2138 3103 
Q 1681 3103 1420 2742 
Q 1159 2381 1159 1747 
Q 1159 1113 1420 752 
Q 1681 391 2138 391 
Q 2594 391 2855 752 
Q 3116 1113 3116 1747 
z
" transform="scale(0.015625)"/>
       <path id="DejaVuSans-6f" d="M 1959 3097 
Q 1497 3097 1228 2736 
Q 959 2375 959 1747 
Q 959 1119 1226 758 
Q 1494 397 1959 397 
Q 2419 397 2687 759 
Q 2956 1122 2956 1747 
Q 2956 2369 2687 2733 
Q 2419 3097 1959 3097 
z
M 1959 3584 
Q 2709 3584 3137 3096 
Q 3566 2609 3566 1747 
Q 3566 888 3137 398 
Q 2709 -91 1959 -91 
Q 1206 -91 779 398 
Q 353 888 353 1747 
Q 353 2609 779 3096 
Q 1206 3584 1959 3584 
z
" transform="scale(0.015625)"/>
       <path id="DejaVuSans-63" d="M 3122 3366 
L 3122 2828 
Q 2878 2963 2633 3030 
Q 2388 3097 2138 3097 
Q 1578 3097 1268 2742 
Q 959 2388 959 1747 
Q 959 1106 1268 751 
Q 1578 397 2138 397 
Q 2388 397 2633 464 
Q 2878 531 3122 666 
L 3122 134 
Q 2881 22 2623 -34 
Q 2366 -91 2075 -91 
Q 1284 -91 818 406 
Q 353 903 353 1747 
Q 353 2603 823 3093 
Q 1294 3584 2113 3584 
Q 2378 3584 2631 3529 
Q 2884 3475 3122 3366 
z
" transform="scale(0.015625)"/>
       <path id="DejaVuSans-68" d="M 3513 2113 
L 3513 0 
L 2938 0 
L 2938 2094 
Q 2938 2591 2744 2837 
Q 2550 3084 2163 3084 
Q 1697 3084 1428 2787 
Q 1159 2491 1159 1978 
L 1159 0 
L 581 0 
L 581 4863 
L 1159 4863 
L 1159 2956 
Q 1366 3272 1645 3428 
Q 1925 3584 2291 3584 
Q 2894 3584 3203 3211 
Q 3513 2838 3513 2113 
z
" transform="scale(0.015625)"/>
       <path id="DejaVuSans-73" d="M 2834 3397 
L 2834 2853 
Q 2591 2978 2328 3040 
Q 2066 3103 1784 3103 
Q 1356 3103 1142 2972 
Q 928 2841 928 2578 
Q 928 2378 1081 2264 
Q 1234 2150 1697 2047 
L 1894 2003 
Q 2506 1872 2764 1633 
Q 3022 1394 3022 966 
Q 3022 478 2636 193 
Q 2250 -91 1575 -91 
Q 1294 -91 989 -36 
Q 684 19 347 128 
L 347 722 
Q 666 556 975 473 
Q 1284 391 1588 391 
Q 1994 391 2212 530 
Q 2431 669 2431 922 
Q 2431 1156 2273 1281 
Q 2116 1406 1581 1522 
L 1381 1569 
Q 847 1681 609 1914 
Q 372 2147 372 2553 
Q 372 3047 722 3315 
Q 1072 3584 1716 3584 
Q 2034 3584 2315 3537 
Q 2597 3491 2834 3397 
z
" transform="scale(0.015625)"/>
      </defs>
      <use xlink:href="#DejaVuSans-45"/>
      <use xlink:href="#DejaVuSans-70" x="63.183594"/>
      <use xlink:href="#DejaVuSans-6f" x="126.660156"/>
      <use xlink:href="#DejaVuSans-63" x="187.841797"/>
      <use xlink:href="#DejaVuSans-68" x="242.822266"/>
      <use xlink:href="#DejaVuSans-73" x="306.201172"/>
     </g>
    </g>
   </g>
   <g id="matplotlib.axis_2">
    <g id="ytick_1">
     <g id="line2d_11">
      <defs>
       <path id="m19c2d3789b" d="M 0 0 
L -3.5 0 
" style="stroke: #000000; stroke-width: 0.8"/>
      </defs>
      <g>
       <use xlink:href="#m19c2d3789b" x="57.6" y="272.569263" style="stroke: #000000; stroke-width: 0.8"/>
      </g>
     </g>
     <g id="text_12">
      <!-- 10 -->
      <g transform="translate(37.875 276.368482) scale(0.1 -0.1)">
       <defs>
        <path id="DejaVuSans-30" d="M 2034 4250 
Q 1547 4250 1301 3770 
Q 1056 3291 1056 2328 
Q 1056 1369 1301 889 
Q 1547 409 2034 409 
Q 2525 409 2770 889 
Q 3016 1369 3016 2328 
Q 3016 3291 2770 3770 
Q 2525 4250 2034 4250 
z
M 2034 4750 
Q 2819 4750 3233 4129 
Q 3647 3509 3647 2328 
Q 3647 1150 3233 529 
Q 2819 -91 2034 -91 
Q 1250 -91 836 529 
Q 422 1150 422 2328 
Q 422 3509 836 4129 
Q 1250 4750 2034 4750 
z
" transform="scale(0.015625)"/>
       </defs>
       <use xlink:href="#DejaVuSans-31"/>
       <use xlink:href="#DejaVuSans-30" x="63.623047"/>
      </g>
     </g>
    </g>
    <g id="ytick_2">
     <g id="line2d_12">
      <g>
       <use xlink:href="#m19c2d3789b" x="57.6" y="236.190316" style="stroke: #000000; stroke-width: 0.8"/>
      </g>
     </g>
     <g id="text_13">
      <!-- 20 -->
      <g transform="translate(37.875 239.989535) scale(0.1 -0.1)">
       <use xlink:href="#DejaVuSans-32"/>
       <use xlink:href="#DejaVuSans-30" x="63.623047"/>
      </g>
     </g>
    </g>
    <g id="ytick_3">
     <g id="line2d_13">
      <g>
       <use xlink:href="#m19c2d3789b" x="57.6" y="199.811368" style="stroke: #000000; stroke-width: 0.8"/>
      </g>
     </g>
     <g id="text_14">
      <!-- 30 -->
      <g transform="translate(37.875 203.610587) scale(0.1 -0.1)">
       <use xlink:href="#DejaVuSans-33"/>
       <use xlink:href="#DejaVuSans-30" x="63.623047"/>
      </g>
     </g>
    </g>
    <g id="ytick_4">
     <g id="line2d_14">
      <g>
       <use xlink:href="#m19c2d3789b" x="57.6" y="163.432421" style="stroke: #000000; stroke-width: 0.8"/>
      </g>
     </g>
     <g id="text_15">
      <!-- 40 -->
      <g transform="translate(37.875 167.23164) scale(0.1 -0.1)">
       <use xlink:href="#DejaVuSans-34"/>
       <use xlink:href="#DejaVuSans-30" x="63.623047"/>
      </g>
     </g>
    </g>
    <g id="ytick_5">
     <g id="line2d_15">
      <g>
       <use xlink:href="#m19c2d3789b" x="57.6" y="127.053474" style="stroke: #000000; stroke-width: 0.8"/>
      </g>
     </g>
     <g id="text_16">
      <!-- 50 -->
      <g transform="translate(37.875 130.852692) scale(0.1 -0.1)">
       <use xlink:href="#DejaVuSans-35"/>
       <use xlink:href="#DejaVuSans-30" x="63.623047"/>
      </g>
     </g>
    </g>
    <g id="ytick_6">
     <g id="line2d_16">
      <g>
       <use xlink:href="#m19c2d3789b" x="57.6" y="90.674526" style="stroke: #000000; stroke-width: 0.8"/>
      </g>
     </g>
     <g id="text_17">
      <!-- 60 -->
      <g transform="translate(37.875 94.473745) scale(0.1 -0.1)">
       <use xlink:href="#DejaVuSans-36"/>
       <use xlink:href="#DejaVuSans-30" x="63.623047"/>
      </g>
     </g>
    </g>
    <g id="ytick_7">
     <g id="line2d_17">
      <g>
       <use xlink:href="#m19c2d3789b" x="57.6" y="54.295579" style="stroke: #000000; stroke-width: 0.8"/>
      </g>
     </g>
     <g id="text_18">
      <!-- 70 -->
      <g transform="translate(37.875 58.094798) scale(0.1 -0.1)">
       <use xlink:href="#DejaVuSans-37"/>
       <use xlink:href="#DejaVuSans-30" x="63.623047"/>
      </g>
     </g>
    </g>
    <g id="text_19">
     <!-- Accuracy -->
     <g transform="translate(31.795312 197.356125) rotate(-90) scale(0.1 -0.1)">
      <defs>
       <path id="DejaVuSans-41" d="M 2188 4044 
L 1331 1722 
L 3047 1722 
L 2188 4044 
z
M 1831 4666 
L 2547 4666 
L 4325 0 
L 3669 0 
L 3244 1197 
L 1141 1197 
L 716 0 
L 50 0 
L 1831 4666 
z
" transform="scale(0.015625)"/>
       <path id="DejaVuSans-75" d="M 544 1381 
L 544 3500 
L 1119 3500 
L 1119 1403 
Q 1119 906 1312 657 
Q 1506 409 1894 409 
Q 2359 409 2629 706 
Q 2900 1003 2900 1516 
L 2900 3500 
L 3475 3500 
L 3475 0 
L 2900 0 
L 2900 538 
Q 2691 219 2414 64 
Q 2138 -91 1772 -91 
Q 1169 -91 856 284 
Q 544 659 544 1381 
z
M 1991 3584 
L 1991 3584 
z
" transform="scale(0.015625)"/>
       <path id="DejaVuSans-72" d="M 2631 2963 
Q 2534 3019 2420 3045 
Q 2306 3072 2169 3072 
Q 1681 3072 1420 2755 
Q 1159 2438 1159 1844 
L 1159 0 
L 581 0 
L 581 3500 
L 1159 3500 
L 1159 2956 
Q 1341 3275 1631 3429 
Q 1922 3584 2338 3584 
Q 2397 3584 2469 3576 
Q 2541 3569 2628 3553 
L 2631 2963 
z
" transform="scale(0.015625)"/>
       <path id="DejaVuSans-61" d="M 2194 1759 
Q 1497 1759 1228 1600 
Q 959 1441 959 1056 
Q 959 750 1161 570 
Q 1363 391 1709 391 
Q 2188 391 2477 730 
Q 2766 1069 2766 1631 
L 2766 1759 
L 2194 1759 
z
M 3341 1997 
L 3341 0 
L 2766 0 
L 2766 531 
Q 2569 213 2275 61 
Q 1981 -91 1556 -91 
Q 1019 -91 701 211 
Q 384 513 384 1019 
Q 384 1609 779 1909 
Q 1175 2209 1959 2209 
L 2766 2209 
L 2766 2266 
Q 2766 2663 2505 2880 
Q 2244 3097 1772 3097 
Q 1472 3097 1187 3025 
Q 903 2953 641 2809 
L 641 3341 
Q 956 3463 1253 3523 
Q 1550 3584 1831 3584 
Q 2591 3584 2966 3190 
Q 3341 2797 3341 1997 
z
" transform="scale(0.015625)"/>
       <path id="DejaVuSans-79" d="M 2059 -325 
Q 1816 -950 1584 -1140 
Q 1353 -1331 966 -1331 
L 506 -1331 
L 506 -850 
L 844 -850 
Q 1081 -850 1212 -737 
Q 1344 -625 1503 -206 
L 1606 56 
L 191 3500 
L 800 3500 
L 1894 763 
L 2988 3500 
L 3597 3500 
L 2059 -325 
z
" transform="scale(0.015625)"/>
      </defs>
      <use xlink:href="#DejaVuSans-41"/>
      <use xlink:href="#DejaVuSans-63" x="66.658203"/>
      <use xlink:href="#DejaVuSans-63" x="121.638672"/>
      <use xlink:href="#DejaVuSans-75" x="176.619141"/>
      <use xlink:href="#DejaVuSans-72" x="239.998047"/>
      <use xlink:href="#DejaVuSans-61" x="281.111328"/>
      <use xlink:href="#DejaVuSans-63" x="342.390625"/>
      <use xlink:href="#DejaVuSans-79" x="397.371094"/>
     </g>
    </g>
   </g>
   <g id="line2d_18">
    <path d="M 73.832727 295.488 
L 75.004765 276.902905 
L 76.176803 260.627874 
L 77.348841 247.999832 
L 78.52088 237.163453 
L 82.036994 210.806905 
L 83.209032 204.363284 
L 84.38107 195.314021 
L 85.553108 193.085811 
L 86.725146 187.2288 
L 87.897184 182.426779 
L 89.069222 176.587958 
L 91.413298 169.598653 
L 92.585336 165.1968 
L 93.757374 161.722611 
L 94.929413 161.922695 
L 96.101451 160.513011 
L 97.273489 189.225095 
L 98.445527 188.156463 
L 100.789603 180.989811 
L 103.133679 175.492042 
L 104.305717 171.581305 
L 105.477755 169.398568 
L 107.821831 163.309642 
L 108.993869 161.326989 
L 110.165907 157.757305 
L 111.337946 156.706863 
L 113.682022 150.8544 
L 114.85406 148.999074 
L 116.026098 146.661726 
L 117.198136 144.074274 
L 118.370174 143.323958 
L 119.542212 140.090779 
L 120.71425 137.489684 
L 121.886288 135.970863 
L 123.058326 132.974147 
L 124.230364 130.450358 
L 125.402402 128.194863 
L 126.57444 126.616926 
L 127.746479 122.992674 
L 128.918517 122.115032 
L 130.090555 120.132379 
L 131.262593 119.018274 
L 132.434631 115.8624 
L 133.606669 116.489937 
L 134.778707 113.074863 
L 135.950745 112.078989 
L 137.122783 111.787958 
L 138.294821 110.714779 
L 139.466859 110.469221 
L 140.638897 110.705684 
L 141.810935 108.763958 
L 142.982973 108.454737 
L 144.155011 146.425263 
L 145.32705 147.339284 
L 146.499088 148.785347 
L 148.843164 145.861389 
L 150.015202 146.184253 
L 151.18724 144.961011 
L 152.359278 142.700968 
L 153.531316 141.709642 
L 155.875392 139.254063 
L 157.04743 139.813389 
L 158.219468 137.239579 
L 159.391506 136.471074 
L 160.563544 136.4256 
L 161.735583 134.170105 
L 162.907621 133.028716 
L 164.079659 132.678568 
L 165.251697 131.814568 
L 166.423735 130.391242 
L 167.595773 128.103916 
L 168.767811 129.477221 
L 169.939849 128.058442 
L 171.111887 126.066695 
L 172.283925 126.257684 
L 173.455963 125.557389 
L 174.628001 122.246905 
L 175.800039 122.415158 
L 176.972077 121.778526 
L 178.144116 121.6512 
L 179.316154 119.300211 
L 180.488192 120.346105 
L 181.66023 117.303916 
L 182.832268 117.053811 
L 184.004306 115.189389 
L 185.176344 114.329937 
L 186.348382 112.947537 
L 187.52042 112.360926 
L 188.692458 111.092211 
L 189.864496 110.855747 
L 192.208572 107.854484 
L 194.552649 106.226526 
L 195.724687 104.698611 
L 200.412839 99.823832 
L 201.584877 100.087579 
L 202.756915 98.386863 
L 203.928953 97.263663 
L 205.100991 97.081768 
L 206.273029 95.335579 
L 207.445067 94.785347 
L 208.617105 92.002358 
L 209.789143 92.2752 
L 210.961181 90.524463 
L 212.13322 89.642274 
L 213.305258 87.527747 
L 214.477296 88.132547 
L 216.821372 84.167242 
L 217.99341 85.640589 
L 219.165448 84.799326 
L 221.509524 82.120926 
L 222.681562 82.152758 
L 223.8536 80.215579 
L 225.025638 80.920421 
L 226.197676 79.365221 
L 227.369714 78.219284 
L 228.541753 78.733137 
L 229.713791 78.269305 
L 230.885829 78.805895 
L 232.057867 77.614484 
L 233.229905 78.351158 
L 234.401943 77.150653 
L 235.573981 77.441684 
L 236.746019 76.482189 
L 237.918057 124.170442 
L 239.090095 128.2176 
L 240.262133 128.681432 
L 241.434171 129.354442 
L 243.778247 127.258105 
L 244.950286 127.917474 
L 246.122324 128.422232 
L 247.294362 126.234947 
L 248.4664 125.639242 
L 249.638438 125.848421 
L 250.810476 125.161768 
L 251.982514 123.883958 
L 253.154552 123.110905 
L 254.32659 123.065432 
L 255.498628 122.065011 
L 256.670666 122.938105 
L 257.842704 121.719411 
L 259.014742 121.578442 
L 260.18678 121.055495 
L 261.358819 120.141474 
L 262.530857 119.659453 
L 263.702895 118.631747 
L 264.874933 120.141474 
L 266.046971 119.077389 
L 267.219009 118.654484 
L 268.391047 118.413474 
L 269.563085 117.003789 
L 270.735123 116.621811 
L 271.907161 116.690021 
L 273.079199 116.289853 
L 274.251237 116.526316 
L 275.423275 115.425853 
L 276.595313 115.630484 
L 277.767351 115.1712 
L 278.93939 113.938863 
L 280.111428 112.993011 
L 281.283466 113.106695 
L 282.455504 113.9616 
L 283.627542 111.160421 
L 284.79958 112.842947 
L 285.971618 109.341474 
L 288.315694 112.183579 
L 289.487732 110.933053 
L 290.65977 110.150905 
L 291.831808 110.364632 
L 293.003846 109.505179 
L 294.175884 109.759832 
L 295.347923 109.350568 
L 296.519961 109.268716 
L 297.691999 107.818105 
L 298.864037 106.931368 
L 300.036075 107.613474 
L 301.208113 106.394779 
L 302.380151 105.944589 
L 303.552189 107.0496 
L 304.724227 104.357558 
L 305.896265 105.367074 
L 307.068303 104.148379 
L 308.240341 103.943747 
L 309.412379 103.0752 
L 310.584417 102.352168 
L 311.756456 101.783747 
L 312.928494 102.092968 
L 314.100532 101.924716 
L 315.27257 100.287663 
L 316.444608 100.246737 
L 317.616646 100.346779 
L 318.788684 99.614653 
L 319.960722 99.710147 
L 322.304798 98.787032 
L 323.476836 99.178105 
L 324.648874 97.149979 
L 325.820912 97.641095 
L 326.99295 95.662989 
L 328.164989 95.158232 
L 329.337027 95.608421 
L 330.509065 94.598905 
L 331.681103 94.276042 
L 332.853141 95.153684 
L 334.025179 91.915958 
L 335.197217 92.611705 
L 336.369255 92.288842 
L 337.541293 91.652211 
L 338.713331 91.2384 
L 339.885369 90.961011 
L 341.057407 90.951916 
L 342.229445 90.469895 
L 343.401483 88.992 
L 344.573521 88.741895 
L 345.74556 86.731958 
L 346.917598 86.6592 
L 348.089636 86.950232 
L 349.261674 87.045726 
L 350.433712 84.562863 
L 351.60575 84.217263 
L 352.777788 83.612463 
L 353.949826 84.512842 
L 355.121864 82.602947 
L 356.293902 83.380547 
L 357.46594 82.971284 
L 358.637978 80.142821 
L 359.810016 80.815832 
L 360.982054 80.529347 
L 362.154093 79.810863 
L 363.326131 77.991916 
L 364.498169 78.437558 
L 365.670207 76.354863 
L 366.842245 75.877389 
L 368.014283 76.095663 
L 369.186321 76.1184 
L 370.358359 75.459032 
L 371.530397 74.963368 
L 372.702435 74.035705 
L 373.874473 72.516884 
L 375.046511 71.821137 
L 376.218549 71.652884 
L 377.390587 72.644211 
L 378.562626 70.838905 
L 379.734664 69.856674 
L 380.906702 70.152253 
L 382.07874 68.969937 
L 384.422816 68.060463 
L 385.594854 68.374232 
L 386.766892 66.214232 
L 387.93893 66.096 
L 389.110968 65.077389 
L 390.283006 64.681768 
L 391.455044 65.241095 
L 392.627082 68.392421 
L 393.79912 68.942653 
L 396.143197 72.926147 
L 397.315235 73.139874 
L 398.487273 73.894737 
L 398.487273 73.894737 
" clip-path="url(#p3a85679df5)" style="fill: none; stroke: #1f77b4; stroke-width: 1.5; stroke-linecap: square"/>
   </g>
   <g id="line2d_19">
    <path d="M 73.832727 284.210526 
L 75.004765 259.600168 
L 76.176803 245.121347 
L 77.348841 225.131116 
L 78.52088 222.784674 
L 79.692918 208.960674 
L 80.864956 203.285558 
L 82.036994 192.1536 
L 83.209032 187.897263 
L 84.38107 167.525053 
L 85.553108 165.342316 
L 86.725146 158.357558 
L 87.897184 156.538611 
L 89.069222 151.300042 
L 90.24126 144.1152 
L 91.413298 142.423579 
L 92.585336 139.294989 
L 93.757374 135.838989 
L 94.929413 134.583916 
L 96.101451 136.075453 
L 97.273489 170.635453 
L 98.445527 170.780968 
L 99.617565 166.888421 
L 100.789603 155.338105 
L 101.961641 157.393516 
L 103.133679 150.263242 
L 104.305717 145.370274 
L 105.477755 141.495916 
L 106.649793 139.549642 
L 107.821831 140.750147 
L 108.993869 145.152 
L 110.165907 132.437558 
L 111.337946 131.982821 
L 112.509984 125.289095 
L 113.682022 124.670653 
L 114.85406 122.415158 
L 116.026098 123.997642 
L 118.370174 113.629642 
L 119.542212 112.119916 
L 120.71425 111.701558 
L 121.886288 107.281516 
L 123.058326 107.372463 
L 124.230364 105.626274 
L 125.402402 104.3712 
L 126.57444 99.496421 
L 127.746479 98.023074 
L 128.918517 95.403789 
L 130.090555 94.075958 
L 132.434631 88.728253 
L 133.606669 88.8192 
L 134.778707 88.600926 
L 135.950745 88.109811 
L 139.466859 84.653811 
L 140.638897 84.399158 
L 142.982973 83.489684 
L 144.155011 133.328842 
L 145.32705 124.106779 
L 146.499088 121.196463 
L 147.671126 118.613558 
L 148.843164 122.633432 
L 150.015202 120.450695 
L 151.18724 116.958316 
L 152.359278 118.1952 
L 153.531316 118.140632 
L 154.703354 112.574653 
L 155.875392 111.192253 
L 157.04743 116.667284 
L 158.219468 107.372463 
L 159.391506 107.154189 
L 160.563544 111.119495 
L 161.735583 112.720168 
L 162.907621 109.409684 
L 164.079659 109.427874 
L 165.251697 108.954947 
L 166.423735 108.009095 
L 167.595773 107.208758 
L 168.767811 97.604716 
L 169.939849 102.461305 
L 171.111887 102.588632 
L 172.283925 106.681263 
L 173.455963 97.659284 
L 174.628001 102.2976 
L 175.800039 99.259958 
L 176.972077 96.840758 
L 178.144116 95.603874 
L 179.316154 92.347958 
L 180.488192 97.222737 
L 181.66023 95.403789 
L 182.832268 94.021389 
L 184.004306 91.456674 
L 185.176344 90.056084 
L 186.348382 89.710484 
L 187.52042 87.618695 
L 188.692458 85.090358 
L 189.864496 83.6352 
L 191.036534 88.855579 
L 192.208572 87.818779 
L 193.38061 84.908463 
L 194.552649 82.307368 
L 195.724687 82.034526 
L 196.896725 79.706274 
L 198.068763 78.269305 
L 199.240801 77.814568 
L 200.412839 76.159326 
L 201.584877 78.160168 
L 202.756915 75.3408 
L 203.928953 76.3776 
L 205.100991 73.594611 
L 206.273029 71.120842 
L 207.445067 72.594189 
L 208.617105 70.411453 
L 209.789143 70.593347 
L 210.961181 71.048084 
L 212.13322 66.664421 
L 213.305258 68.847158 
L 214.477296 65.172884 
L 215.649334 68.537937 
L 216.821372 65.718568 
L 219.165448 63.572211 
L 220.337486 63.044716 
L 221.509524 62.189811 
L 222.681562 62.753684 
L 223.8536 61.280337 
L 225.025638 61.080253 
L 226.197676 60.352674 
L 227.369714 60.934737 
L 228.541753 60.152589 
L 229.713791 59.7888 
L 230.885829 59.897937 
L 232.057867 59.479579 
L 233.229905 59.515958 
L 234.401943 58.970274 
L 235.573981 59.570526 
L 236.746019 59.315874 
L 237.918057 105.880926 
L 239.090095 110.646568 
L 240.262133 104.225684 
L 241.434171 108.118232 
L 242.606209 103.570863 
L 243.778247 106.262905 
L 244.950286 106.081011 
L 246.122324 103.207074 
L 247.294362 100.660547 
L 248.4664 100.442274 
L 249.638438 101.970189 
L 250.810476 115.048421 
L 251.982514 101.188042 
L 253.154552 100.897011 
L 254.32659 99.460042 
L 255.498628 100.951579 
L 256.670666 99.441853 
L 257.842704 98.877979 
L 259.014742 100.224 
L 260.18678 99.132632 
L 261.358819 96.822568 
L 262.530857 99.096253 
L 263.702895 98.332295 
L 264.874933 99.696505 
L 266.046971 99.259958 
L 267.219009 101.388126 
L 268.391047 96.858947 
L 269.563085 99.114442 
L 270.735123 97.1136 
L 271.907161 99.660126 
L 273.079199 101.188042 
L 274.251237 96.604295 
L 275.423275 92.711747 
L 276.595313 110.282779 
L 277.767351 94.257853 
L 278.93939 98.477811 
L 280.111428 94.148716 
L 281.283466 89.310316 
L 282.455504 105.335242 
L 284.79958 97.586526 
L 285.971618 91.765895 
L 287.143656 90.765474 
L 288.315694 91.9296 
L 289.487732 88.364463 
L 290.65977 89.837811 
L 291.831808 91.001937 
L 293.003846 92.366147 
L 294.175884 93.075537 
L 295.347923 87.909726 
L 296.519961 87.982484 
L 297.691999 84.835705 
L 298.864037 83.744337 
L 300.036075 85.272253 
L 301.208113 85.126737 
L 302.380151 93.020968 
L 303.552189 86.418189 
L 304.724227 86.982063 
L 305.896265 95.3856 
L 307.068303 83.144084 
L 308.240341 86.181726 
L 309.412379 83.180463 
L 310.584417 83.707958 
L 311.756456 84.781137 
L 312.928494 82.671158 
L 314.100532 79.433432 
L 315.27257 89.692295 
L 316.444608 83.2896 
L 317.616646 85.781558 
L 319.960722 84.872084 
L 321.13276 82.307368 
L 322.304798 82.270989 
L 323.476836 83.180463 
L 324.648874 82.525642 
L 325.820912 78.596716 
L 326.99295 75.304421 
L 328.164989 80.197389 
L 329.337027 80.197389 
L 330.509065 79.597137 
L 331.681103 80.452042 
L 332.853141 74.940632 
L 334.025179 72.721516 
L 335.197217 73.358147 
L 336.369255 79.178779 
L 337.541293 78.378442 
L 338.713331 71.848421 
L 339.885369 74.231242 
L 341.057407 71.939368 
L 342.229445 72.030316 
L 343.401483 70.320505 
L 344.573521 70.611537 
L 345.74556 69.8112 
L 346.917598 71.993937 
L 348.089636 69.4656 
L 349.261674 73.2672 
L 350.433712 68.028632 
L 351.60575 69.338274 
L 352.777788 67.137347 
L 353.949826 66.846316 
L 355.121864 68.465179 
L 356.293902 67.701221 
L 357.46594 67.974063 
L 358.637978 65.009179 
L 359.810016 66.082358 
L 360.982054 65.500295 
L 362.154093 67.501137 
L 363.326131 63.190232 
L 364.498169 61.644126 
L 365.670207 64.136084 
L 366.842245 63.299368 
L 368.014283 61.844211 
L 369.186321 63.117474 
L 370.358359 60.898358 
L 371.530397 60.716463 
L 372.702435 61.007495 
L 373.874473 61.462232 
L 375.046511 56.951242 
L 377.390587 61.407663 
L 378.562626 58.770189 
L 379.734664 56.751158 
L 380.906702 58.933895 
L 382.07874 55.277811 
L 383.250778 56.096337 
L 384.422816 55.496084 
L 385.594854 55.441516 
L 386.766892 53.822653 
L 387.93893 55.114105 
L 389.110968 53.895411 
L 390.283006 53.568 
L 391.455044 55.623411 
L 392.627082 56.532884 
L 393.79912 59.170358 
L 394.971159 59.079411 
L 396.143197 59.188547 
L 397.315235 59.7888 
L 398.487273 60.061642 
L 398.487273 60.061642 
" clip-path="url(#p3a85679df5)" style="fill: none; stroke: #ff7f0e; stroke-width: 1.5; stroke-linecap: square"/>
   </g>
   <g id="line2d_20">
    <path d="M 73.832727 291.511405 
L 75.004765 284.611949 
L 77.348841 262.031913 
L 78.52088 259.397575 
L 79.692918 258.143129 
L 80.864956 250.741895 
L 82.036994 238.950098 
L 83.209032 242.211659 
L 84.38107 227.158301 
L 85.553108 228.036414 
L 86.725146 227.534635 
L 87.897184 221.513292 
L 89.069222 220.886069 
L 90.24126 213.610279 
L 91.413298 212.355833 
L 92.585336 210.097829 
L 93.757374 207.087158 
L 94.929413 207.463492 
L 96.101451 209.470606 
L 97.273489 229.792639 
L 98.445527 234.810425 
L 99.617565 228.538192 
L 100.789603 217.499064 
L 101.961641 223.520407 
L 103.133679 223.018628 
L 104.305717 213.735724 
L 105.477755 212.230388 
L 106.649793 208.090715 
L 107.821831 213.233946 
L 108.993869 220.133401 
L 110.165907 203.574708 
L 111.337946 202.320261 
L 112.509984 201.693038 
L 113.682022 198.682367 
L 114.85406 195.295361 
L 116.026098 197.929699 
L 117.198136 194.417249 
L 118.370174 185.761568 
L 119.542212 186.263347 
L 120.71425 190.779354 
L 121.886288 185.0089 
L 123.058326 186.765125 
L 124.230364 185.636123 
L 125.402402 187.643238 
L 126.57444 179.991114 
L 127.746479 177.482221 
L 128.918517 175.475107 
L 130.090555 171.711768 
L 131.262593 171.711768 
L 132.434631 168.575652 
L 133.606669 169.328319 
L 134.778707 169.07743 
L 135.950745 167.572094 
L 137.122783 165.188646 
L 138.294821 163.808755 
L 139.466859 164.059644 
L 140.638897 163.432421 
L 142.982973 163.9342 
L 144.155011 205.832711 
L 145.32705 201.19126 
L 146.499088 205.205488 
L 147.671126 195.044472 
L 148.843164 192.535579 
L 150.015202 193.162802 
L 151.18724 189.775797 
L 152.359278 193.91547 
L 153.531316 195.79714 
L 154.703354 186.89057 
L 155.875392 190.277575 
L 157.04743 191.030243 
L 158.219468 182.374563 
L 159.391506 183.503564 
L 160.563544 185.510679 
L 161.735583 185.385234 
L 162.907621 189.399463 
L 164.079659 189.399463 
L 165.251697 180.367448 
L 166.423735 182.500007 
L 167.595773 188.019572 
L 168.767811 173.217103 
L 169.939849 174.095216 
L 171.111887 180.116559 
L 172.283925 178.360334 
L 173.455963 175.725996 
L 174.628001 178.611223 
L 175.800039 183.629009 
L 176.972077 176.35322 
L 178.144116 176.10233 
L 179.316154 169.07743 
L 180.488192 176.10233 
L 181.66023 172.715325 
L 182.832268 169.704653 
L 184.004306 167.19576 
L 185.176344 172.84077 
L 186.348382 165.941314 
L 187.52042 167.44665 
L 188.692458 166.568537 
L 189.864496 164.435978 
L 191.036534 166.443093 
L 192.208572 166.819426 
L 193.38061 160.798083 
L 194.552649 156.532966 
L 195.724687 158.038301 
L 196.896725 156.532966 
L 198.068763 156.407521 
L 199.240801 159.418192 
L 200.412839 151.891514 
L 201.584877 157.912857 
L 202.756915 154.902185 
L 203.928953 154.149517 
L 205.100991 148.128174 
L 206.273029 149.257176 
L 207.445067 153.271405 
L 208.617105 145.870171 
L 209.789143 151.640624 
L 210.961181 148.128174 
L 212.13322 147.250062 
L 213.305258 148.629953 
L 214.477296 142.60861 
L 215.649334 144.364835 
L 216.821372 144.615724 
L 217.99341 141.479608 
L 219.165448 140.852385 
L 220.337486 141.730497 
L 221.509524 137.590824 
L 222.681562 139.597938 
L 223.8536 138.84527 
L 225.025638 138.594381 
L 226.197676 138.218047 
L 227.369714 139.723383 
L 228.541753 136.085488 
L 229.713791 136.085488 
L 230.885829 136.712711 
L 232.057867 135.960044 
L 233.229905 135.58371 
L 234.401943 135.960044 
L 235.573981 135.709154 
L 236.746019 137.089045 
L 237.918057 179.991114 
L 239.090095 189.399463 
L 240.262133 181.621895 
L 241.434171 185.134345 
L 242.606209 175.349662 
L 243.778247 180.116559 
L 244.950286 180.116559 
L 246.122324 181.621895 
L 247.294362 179.489336 
L 248.4664 180.492893 
L 249.638438 182.876341 
L 250.810476 192.786468 
L 251.982514 173.844327 
L 253.154552 183.754454 
L 254.32659 175.600552 
L 255.498628 182.374563 
L 256.670666 173.844327 
L 257.842704 177.482221 
L 259.014742 180.492893 
L 260.18678 178.987557 
L 261.358819 168.575652 
L 262.530857 174.47155 
L 263.702895 171.335434 
L 264.874933 178.862113 
L 266.046971 170.457321 
L 267.219009 181.621895 
L 268.391047 173.091659 
L 269.563085 175.851441 
L 270.735123 173.718882 
L 271.907161 166.819426 
L 273.079199 183.12723 
L 274.251237 183.252675 
L 275.423275 168.701096 
L 276.595313 189.650352 
L 277.767351 177.482221 
L 278.93939 174.095216 
L 280.111428 170.080987 
L 281.283466 172.715325 
L 282.455504 188.77224 
L 283.627542 182.374563 
L 284.79958 175.098773 
L 285.971618 165.941314 
L 287.143656 165.941314 
L 288.315694 167.572094 
L 289.487732 171.084544 
L 290.65977 166.317648 
L 291.831808 169.704653 
L 293.003846 173.593437 
L 294.175884 168.199318 
L 295.347923 169.579209 
L 296.519961 172.213546 
L 297.691999 162.930642 
L 298.864037 159.041858 
L 301.208113 161.425307 
L 302.380151 170.457321 
L 303.552189 165.063201 
L 304.724227 162.554309 
L 305.896265 179.238446 
L 307.068303 164.435978 
L 308.240341 157.285633 
L 309.412379 160.672639 
L 310.584417 160.045416 
L 311.756456 165.188646 
L 312.928494 158.665525 
L 314.100532 157.536523 
L 315.27257 168.450207 
L 316.444608 166.192203 
L 317.616646 172.213546 
L 318.788684 168.073873 
L 319.960722 166.066759 
L 321.13276 160.17086 
L 322.304798 160.798083 
L 323.476836 170.9591 
L 324.648874 160.923528 
L 325.820912 152.518737 
L 326.99295 154.902185 
L 329.337027 158.414635 
L 330.509065 163.181532 
L 331.681103 154.77674 
L 332.853141 154.525851 
L 334.025179 146.497394 
L 335.197217 155.403964 
L 336.369255 153.396849 
L 337.541293 155.780298 
L 338.713331 146.999172 
L 339.885369 150.386178 
L 341.057407 156.65841 
L 342.229445 149.131731 
L 343.401483 145.744726 
L 344.573521 151.389735 
L 345.74556 148.504508 
L 346.917598 147.124617 
L 348.089636 151.51518 
L 349.261674 150.637067 
L 350.433712 153.647739 
L 351.60575 145.995615 
L 352.777788 146.371949 
L 353.949826 148.379064 
L 355.121864 146.622838 
L 356.293902 151.138846 
L 357.46594 142.60861 
L 358.637978 140.099717 
L 359.810016 147.250062 
L 360.982054 141.855942 
L 362.154093 145.242947 
L 363.326131 146.497394 
L 364.498169 138.970715 
L 365.670207 141.605053 
L 366.842245 147.500951 
L 368.014283 141.479608 
L 370.358359 141.479608 
L 371.530397 143.486722 
L 372.702435 140.601495 
L 373.874473 142.859499 
L 375.046511 136.587267 
L 376.218549 139.221604 
L 377.390587 139.848828 
L 379.734664 133.827485 
L 380.906702 138.970715 
L 382.07874 133.451151 
L 383.250778 131.193147 
L 384.422816 135.709154 
L 385.594854 135.960044 
L 386.766892 132.698483 
L 387.93893 131.945815 
L 389.110968 128.558809 
L 390.283006 132.447593 
L 391.455044 134.329263 
L 392.627082 132.573038 
L 393.79912 140.601495 
L 394.971159 141.605053 
L 396.143197 137.339935 
L 397.315235 136.838156 
L 398.487273 138.343492 
L 398.487273 138.343492 
" clip-path="url(#p3a85679df5)" style="fill: none; stroke: #2ca02c; stroke-width: 1.5; stroke-linecap: square"/>
   </g>
   <g id="line2d_21">
    <path d="M 391.455044 55.805305 
L 392.627082 58.188126 
L 393.79912 55.368758 
L 394.971159 58.0608 
L 396.143197 61.189389 
L 397.315235 62.462653 
L 398.487273 64.845474 
L 398.487273 64.845474 
" clip-path="url(#p3a85679df5)" style="fill: none; stroke: #d62728; stroke-width: 1.5; stroke-linecap: square"/>
   </g>
   <g id="line2d_22">
    <path d="M 391.455044 133.074817 
L 392.627082 135.458265 
L 393.79912 133.325706 
L 394.971159 130.565924 
L 396.143197 142.60861 
L 397.315235 144.364835 
L 398.487273 140.852385 
L 398.487273 140.852385 
" clip-path="url(#p3a85679df5)" style="fill: none; stroke: #9467bd; stroke-width: 1.5; stroke-linecap: square"/>
   </g>
   <g id="patch_3">
    <path d="M 57.6 307.584 
L 57.6 41.472 
" style="fill: none; stroke: #000000; stroke-width: 0.8; stroke-linejoin: miter; stroke-linecap: square"/>
   </g>
   <g id="patch_4">
    <path d="M 414.72 307.584 
L 414.72 41.472 
" style="fill: none; stroke: #000000; stroke-width: 0.8; stroke-linejoin: miter; stroke-linecap: square"/>
   </g>
   <g id="patch_5">
    <path d="M 57.6 307.584 
L 414.72 307.584 
" style="fill: none; stroke: #000000; stroke-width: 0.8; stroke-linejoin: miter; stroke-linecap: square"/>
   </g>
   <g id="patch_6">
    <path d="M 57.6 41.472 
L 414.72 41.472 
" style="fill: none; stroke: #000000; stroke-width: 0.8; stroke-linejoin: miter; stroke-linecap: square"/>
   </g>
   <g id="text_20">
    <!-- Learning Curves -->
    <g transform="translate(187.37625 35.472) scale(0.12 -0.12)">
     <defs>
      <path id="DejaVuSans-4c" d="M 628 4666 
L 1259 4666 
L 1259 531 
L 3531 531 
L 3531 0 
L 628 0 
L 628 4666 
z
" transform="scale(0.015625)"/>
      <path id="DejaVuSans-65" d="M 3597 1894 
L 3597 1613 
L 953 1613 
Q 991 1019 1311 708 
Q 1631 397 2203 397 
Q 2534 397 2845 478 
Q 3156 559 3463 722 
L 3463 178 
Q 3153 47 2828 -22 
Q 2503 -91 2169 -91 
Q 1331 -91 842 396 
Q 353 884 353 1716 
Q 353 2575 817 3079 
Q 1281 3584 2069 3584 
Q 2775 3584 3186 3129 
Q 3597 2675 3597 1894 
z
M 3022 2063 
Q 3016 2534 2758 2815 
Q 2500 3097 2075 3097 
Q 1594 3097 1305 2825 
Q 1016 2553 972 2059 
L 3022 2063 
z
" transform="scale(0.015625)"/>
      <path id="DejaVuSans-6e" d="M 3513 2113 
L 3513 0 
L 2938 0 
L 2938 2094 
Q 2938 2591 2744 2837 
Q 2550 3084 2163 3084 
Q 1697 3084 1428 2787 
Q 1159 2491 1159 1978 
L 1159 0 
L 581 0 
L 581 3500 
L 1159 3500 
L 1159 2956 
Q 1366 3272 1645 3428 
Q 1925 3584 2291 3584 
Q 2894 3584 3203 3211 
Q 3513 2838 3513 2113 
z
" transform="scale(0.015625)"/>
      <path id="DejaVuSans-69" d="M 603 3500 
L 1178 3500 
L 1178 0 
L 603 0 
L 603 3500 
z
M 603 4863 
L 1178 4863 
L 1178 4134 
L 603 4134 
L 603 4863 
z
" transform="scale(0.015625)"/>
      <path id="DejaVuSans-67" d="M 2906 1791 
Q 2906 2416 2648 2759 
Q 2391 3103 1925 3103 
Q 1463 3103 1205 2759 
Q 947 2416 947 1791 
Q 947 1169 1205 825 
Q 1463 481 1925 481 
Q 2391 481 2648 825 
Q 2906 1169 2906 1791 
z
M 3481 434 
Q 3481 -459 3084 -895 
Q 2688 -1331 1869 -1331 
Q 1566 -1331 1297 -1286 
Q 1028 -1241 775 -1147 
L 775 -588 
Q 1028 -725 1275 -790 
Q 1522 -856 1778 -856 
Q 2344 -856 2625 -561 
Q 2906 -266 2906 331 
L 2906 616 
Q 2728 306 2450 153 
Q 2172 0 1784 0 
Q 1141 0 747 490 
Q 353 981 353 1791 
Q 353 2603 747 3093 
Q 1141 3584 1784 3584 
Q 2172 3584 2450 3431 
Q 2728 3278 2906 2969 
L 2906 3500 
L 3481 3500 
L 3481 434 
z
" transform="scale(0.015625)"/>
      <path id="DejaVuSans-20" transform="scale(0.015625)"/>
      <path id="DejaVuSans-43" d="M 4122 4306 
L 4122 3641 
Q 3803 3938 3442 4084 
Q 3081 4231 2675 4231 
Q 1875 4231 1450 3742 
Q 1025 3253 1025 2328 
Q 1025 1406 1450 917 
Q 1875 428 2675 428 
Q 3081 428 3442 575 
Q 3803 722 4122 1019 
L 4122 359 
Q 3791 134 3420 21 
Q 3050 -91 2638 -91 
Q 1578 -91 968 557 
Q 359 1206 359 2328 
Q 359 3453 968 4101 
Q 1578 4750 2638 4750 
Q 3056 4750 3426 4639 
Q 3797 4528 4122 4306 
z
" transform="scale(0.015625)"/>
      <path id="DejaVuSans-76" d="M 191 3500 
L 800 3500 
L 1894 563 
L 2988 3500 
L 3597 3500 
L 2284 0 
L 1503 0 
L 191 3500 
z
" transform="scale(0.015625)"/>
     </defs>
     <use xlink:href="#DejaVuSans-4c"/>
     <use xlink:href="#DejaVuSans-65" x="53.962891"/>
     <use xlink:href="#DejaVuSans-61" x="115.486328"/>
     <use xlink:href="#DejaVuSans-72" x="176.765625"/>
     <use xlink:href="#DejaVuSans-6e" x="216.128906"/>
     <use xlink:href="#DejaVuSans-69" x="279.507812"/>
     <use xlink:href="#DejaVuSans-6e" x="307.291016"/>
     <use xlink:href="#DejaVuSans-67" x="370.669922"/>
     <use xlink:href="#DejaVuSans-20" x="434.146484"/>
     <use xlink:href="#DejaVuSans-43" x="465.933594"/>
     <use xlink:href="#DejaVuSans-75" x="535.757812"/>
     <use xlink:href="#DejaVuSans-72" x="599.136719"/>
     <use xlink:href="#DejaVuSans-76" x="640.25"/>
     <use xlink:href="#DejaVuSans-65" x="699.429688"/>
     <use xlink:href="#DejaVuSans-73" x="760.953125"/>
    </g>
   </g>
   <g id="legend_1">
    <g id="patch_7">
     <path d="M 214.18875 302.584 
L 407.72 302.584 
Q 409.72 302.584 409.72 300.584 
L 409.72 228.193375 
Q 409.72 226.193375 407.72 226.193375 
L 214.18875 226.193375 
Q 212.18875 226.193375 212.18875 228.193375 
L 212.18875 300.584 
Q 212.18875 302.584 214.18875 302.584 
z
" style="fill: #ffffff; opacity: 0.8; stroke: #cccccc; stroke-linejoin: miter"/>
    </g>
    <g id="line2d_23">
     <path d="M 216.18875 234.291812 
L 226.18875 234.291812 
L 236.18875 234.291812 
" style="fill: none; stroke: #1f77b4; stroke-width: 1.5; stroke-linecap: square"/>
    </g>
    <g id="text_21">
     <!-- Train Accuracy -->
     <g transform="translate(244.18875 237.791812) scale(0.1 -0.1)">
      <defs>
       <path id="DejaVuSans-54" d="M -19 4666 
L 3928 4666 
L 3928 4134 
L 2272 4134 
L 2272 0 
L 1638 0 
L 1638 4134 
L -19 4134 
L -19 4666 
z
" transform="scale(0.015625)"/>
      </defs>
      <use xlink:href="#DejaVuSans-54"/>
      <use xlink:href="#DejaVuSans-72" x="46.333984"/>
      <use xlink:href="#DejaVuSans-61" x="87.447266"/>
      <use xlink:href="#DejaVuSans-69" x="148.726562"/>
      <use xlink:href="#DejaVuSans-6e" x="176.509766"/>
      <use xlink:href="#DejaVuSans-20" x="239.888672"/>
      <use xlink:href="#DejaVuSans-41" x="271.675781"/>
      <use xlink:href="#DejaVuSans-63" x="338.333984"/>
      <use xlink:href="#DejaVuSans-63" x="393.314453"/>
      <use xlink:href="#DejaVuSans-75" x="448.294922"/>
      <use xlink:href="#DejaVuSans-72" x="511.673828"/>
      <use xlink:href="#DejaVuSans-61" x="552.787109"/>
      <use xlink:href="#DejaVuSans-63" x="614.066406"/>
      <use xlink:href="#DejaVuSans-79" x="669.046875"/>
     </g>
    </g>
    <g id="line2d_24">
     <path d="M 216.18875 248.969937 
L 226.18875 248.969937 
L 236.18875 248.969937 
" style="fill: none; stroke: #ff7f0e; stroke-width: 1.5; stroke-linecap: square"/>
    </g>
    <g id="text_22">
     <!-- Validation Accuracy -->
     <g transform="translate(244.18875 252.469937) scale(0.1 -0.1)">
      <defs>
       <path id="DejaVuSans-56" d="M 1831 0 
L 50 4666 
L 709 4666 
L 2188 738 
L 3669 4666 
L 4325 4666 
L 2547 0 
L 1831 0 
z
" transform="scale(0.015625)"/>
       <path id="DejaVuSans-6c" d="M 603 4863 
L 1178 4863 
L 1178 0 
L 603 0 
L 603 4863 
z
" transform="scale(0.015625)"/>
       <path id="DejaVuSans-64" d="M 2906 2969 
L 2906 4863 
L 3481 4863 
L 3481 0 
L 2906 0 
L 2906 525 
Q 2725 213 2448 61 
Q 2172 -91 1784 -91 
Q 1150 -91 751 415 
Q 353 922 353 1747 
Q 353 2572 751 3078 
Q 1150 3584 1784 3584 
Q 2172 3584 2448 3432 
Q 2725 3281 2906 2969 
z
M 947 1747 
Q 947 1113 1208 752 
Q 1469 391 1925 391 
Q 2381 391 2643 752 
Q 2906 1113 2906 1747 
Q 2906 2381 2643 2742 
Q 2381 3103 1925 3103 
Q 1469 3103 1208 2742 
Q 947 2381 947 1747 
z
" transform="scale(0.015625)"/>
       <path id="DejaVuSans-74" d="M 1172 4494 
L 1172 3500 
L 2356 3500 
L 2356 3053 
L 1172 3053 
L 1172 1153 
Q 1172 725 1289 603 
Q 1406 481 1766 481 
L 2356 481 
L 2356 0 
L 1766 0 
Q 1100 0 847 248 
Q 594 497 594 1153 
L 594 3053 
L 172 3053 
L 172 3500 
L 594 3500 
L 594 4494 
L 1172 4494 
z
" transform="scale(0.015625)"/>
      </defs>
      <use xlink:href="#DejaVuSans-56"/>
      <use xlink:href="#DejaVuSans-61" x="60.658203"/>
      <use xlink:href="#DejaVuSans-6c" x="121.9375"/>
      <use xlink:href="#DejaVuSans-69" x="149.720703"/>
      <use xlink:href="#DejaVuSans-64" x="177.503906"/>
      <use xlink:href="#DejaVuSans-61" x="240.980469"/>
      <use xlink:href="#DejaVuSans-74" x="302.259766"/>
      <use xlink:href="#DejaVuSans-69" x="341.46875"/>
      <use xlink:href="#DejaVuSans-6f" x="369.251953"/>
      <use xlink:href="#DejaVuSans-6e" x="430.433594"/>
      <use xlink:href="#DejaVuSans-20" x="493.8125"/>
      <use xlink:href="#DejaVuSans-41" x="525.599609"/>
      <use xlink:href="#DejaVuSans-63" x="592.257812"/>
      <use xlink:href="#DejaVuSans-63" x="647.238281"/>
      <use xlink:href="#DejaVuSans-75" x="702.21875"/>
      <use xlink:href="#DejaVuSans-72" x="765.597656"/>
      <use xlink:href="#DejaVuSans-61" x="806.710938"/>
      <use xlink:href="#DejaVuSans-63" x="867.990234"/>
      <use xlink:href="#DejaVuSans-79" x="922.970703"/>
     </g>
    </g>
    <g id="line2d_25">
     <path d="M 216.18875 263.648062 
L 226.18875 263.648062 
L 236.18875 263.648062 
" style="fill: none; stroke: #2ca02c; stroke-width: 1.5; stroke-linecap: square"/>
    </g>
    <g id="text_23">
     <!-- Robust Validation Accuracy -->
     <g transform="translate(244.18875 267.148062) scale(0.1 -0.1)">
      <defs>
       <path id="DejaVuSans-52" d="M 2841 2188 
Q 3044 2119 3236 1894 
Q 3428 1669 3622 1275 
L 4263 0 
L 3584 0 
L 2988 1197 
Q 2756 1666 2539 1819 
Q 2322 1972 1947 1972 
L 1259 1972 
L 1259 0 
L 628 0 
L 628 4666 
L 2053 4666 
Q 2853 4666 3247 4331 
Q 3641 3997 3641 3322 
Q 3641 2881 3436 2590 
Q 3231 2300 2841 2188 
z
M 1259 4147 
L 1259 2491 
L 2053 2491 
Q 2509 2491 2742 2702 
Q 2975 2913 2975 3322 
Q 2975 3731 2742 3939 
Q 2509 4147 2053 4147 
L 1259 4147 
z
" transform="scale(0.015625)"/>
       <path id="DejaVuSans-62" d="M 3116 1747 
Q 3116 2381 2855 2742 
Q 2594 3103 2138 3103 
Q 1681 3103 1420 2742 
Q 1159 2381 1159 1747 
Q 1159 1113 1420 752 
Q 1681 391 2138 391 
Q 2594 391 2855 752 
Q 3116 1113 3116 1747 
z
M 1159 2969 
Q 1341 3281 1617 3432 
Q 1894 3584 2278 3584 
Q 2916 3584 3314 3078 
Q 3713 2572 3713 1747 
Q 3713 922 3314 415 
Q 2916 -91 2278 -91 
Q 1894 -91 1617 61 
Q 1341 213 1159 525 
L 1159 0 
L 581 0 
L 581 4863 
L 1159 4863 
L 1159 2969 
z
" transform="scale(0.015625)"/>
      </defs>
      <use xlink:href="#DejaVuSans-52"/>
      <use xlink:href="#DejaVuSans-6f" x="64.982422"/>
      <use xlink:href="#DejaVuSans-62" x="126.164062"/>
      <use xlink:href="#DejaVuSans-75" x="189.640625"/>
      <use xlink:href="#DejaVuSans-73" x="253.019531"/>
      <use xlink:href="#DejaVuSans-74" x="305.119141"/>
      <use xlink:href="#DejaVuSans-20" x="344.328125"/>
      <use xlink:href="#DejaVuSans-56" x="376.115234"/>
      <use xlink:href="#DejaVuSans-61" x="436.773438"/>
      <use xlink:href="#DejaVuSans-6c" x="498.052734"/>
      <use xlink:href="#DejaVuSans-69" x="525.835938"/>
      <use xlink:href="#DejaVuSans-64" x="553.619141"/>
      <use xlink:href="#DejaVuSans-61" x="617.095703"/>
      <use xlink:href="#DejaVuSans-74" x="678.375"/>
      <use xlink:href="#DejaVuSans-69" x="717.583984"/>
      <use xlink:href="#DejaVuSans-6f" x="745.367188"/>
      <use xlink:href="#DejaVuSans-6e" x="806.548828"/>
      <use xlink:href="#DejaVuSans-20" x="869.927734"/>
      <use xlink:href="#DejaVuSans-41" x="901.714844"/>
      <use xlink:href="#DejaVuSans-63" x="968.373047"/>
      <use xlink:href="#DejaVuSans-63" x="1023.353516"/>
      <use xlink:href="#DejaVuSans-75" x="1078.333984"/>
      <use xlink:href="#DejaVuSans-72" x="1141.712891"/>
      <use xlink:href="#DejaVuSans-61" x="1182.826172"/>
      <use xlink:href="#DejaVuSans-63" x="1244.105469"/>
      <use xlink:href="#DejaVuSans-79" x="1299.085938"/>
     </g>
    </g>
    <g id="line2d_26">
     <path d="M 216.18875 278.326188 
L 226.18875 278.326188 
L 236.18875 278.326188 
" style="fill: none; stroke: #d62728; stroke-width: 1.5; stroke-linecap: square"/>
    </g>
    <g id="text_24">
     <!-- SWA Validation Accuracy -->
     <g transform="translate(244.18875 281.826188) scale(0.1 -0.1)">
      <defs>
       <path id="DejaVuSans-53" d="M 3425 4513 
L 3425 3897 
Q 3066 4069 2747 4153 
Q 2428 4238 2131 4238 
Q 1616 4238 1336 4038 
Q 1056 3838 1056 3469 
Q 1056 3159 1242 3001 
Q 1428 2844 1947 2747 
L 2328 2669 
Q 3034 2534 3370 2195 
Q 3706 1856 3706 1288 
Q 3706 609 3251 259 
Q 2797 -91 1919 -91 
Q 1588 -91 1214 -16 
Q 841 59 441 206 
L 441 856 
Q 825 641 1194 531 
Q 1563 422 1919 422 
Q 2459 422 2753 634 
Q 3047 847 3047 1241 
Q 3047 1584 2836 1778 
Q 2625 1972 2144 2069 
L 1759 2144 
Q 1053 2284 737 2584 
Q 422 2884 422 3419 
Q 422 4038 858 4394 
Q 1294 4750 2059 4750 
Q 2388 4750 2728 4690 
Q 3069 4631 3425 4513 
z
" transform="scale(0.015625)"/>
       <path id="DejaVuSans-57" d="M 213 4666 
L 850 4666 
L 1831 722 
L 2809 4666 
L 3519 4666 
L 4500 722 
L 5478 4666 
L 6119 4666 
L 4947 0 
L 4153 0 
L 3169 4050 
L 2175 0 
L 1381 0 
L 213 4666 
z
" transform="scale(0.015625)"/>
      </defs>
      <use xlink:href="#DejaVuSans-53"/>
      <use xlink:href="#DejaVuSans-57" x="63.476562"/>
      <use xlink:href="#DejaVuSans-41" x="156.853516"/>
      <use xlink:href="#DejaVuSans-20" x="225.261719"/>
      <use xlink:href="#DejaVuSans-56" x="257.048828"/>
      <use xlink:href="#DejaVuSans-61" x="317.707031"/>
      <use xlink:href="#DejaVuSans-6c" x="378.986328"/>
      <use xlink:href="#DejaVuSans-69" x="406.769531"/>
      <use xlink:href="#DejaVuSans-64" x="434.552734"/>
      <use xlink:href="#DejaVuSans-61" x="498.029297"/>
      <use xlink:href="#DejaVuSans-74" x="559.308594"/>
      <use xlink:href="#DejaVuSans-69" x="598.517578"/>
      <use xlink:href="#DejaVuSans-6f" x="626.300781"/>
      <use xlink:href="#DejaVuSans-6e" x="687.482422"/>
      <use xlink:href="#DejaVuSans-20" x="750.861328"/>
      <use xlink:href="#DejaVuSans-41" x="782.648438"/>
      <use xlink:href="#DejaVuSans-63" x="849.306641"/>
      <use xlink:href="#DejaVuSans-63" x="904.287109"/>
      <use xlink:href="#DejaVuSans-75" x="959.267578"/>
      <use xlink:href="#DejaVuSans-72" x="1022.646484"/>
      <use xlink:href="#DejaVuSans-61" x="1063.759766"/>
      <use xlink:href="#DejaVuSans-63" x="1125.039062"/>
      <use xlink:href="#DejaVuSans-79" x="1180.019531"/>
     </g>
    </g>
    <g id="line2d_27">
     <path d="M 216.18875 293.004312 
L 226.18875 293.004312 
L 236.18875 293.004312 
" style="fill: none; stroke: #9467bd; stroke-width: 1.5; stroke-linecap: square"/>
    </g>
    <g id="text_25">
     <!-- SWA Robust Validation Accuracy -->
     <g transform="translate(244.18875 296.504312) scale(0.1 -0.1)">
      <use xlink:href="#DejaVuSans-53"/>
      <use xlink:href="#DejaVuSans-57" x="63.476562"/>
      <use xlink:href="#DejaVuSans-41" x="156.853516"/>
      <use xlink:href="#DejaVuSans-20" x="225.261719"/>
      <use xlink:href="#DejaVuSans-52" x="257.048828"/>
      <use xlink:href="#DejaVuSans-6f" x="322.03125"/>
      <use xlink:href="#DejaVuSans-62" x="383.212891"/>
      <use xlink:href="#DejaVuSans-75" x="446.689453"/>
      <use xlink:href="#DejaVuSans-73" x="510.068359"/>
      <use xlink:href="#DejaVuSans-74" x="562.167969"/>
      <use xlink:href="#DejaVuSans-20" x="601.376953"/>
      <use xlink:href="#DejaVuSans-56" x="633.164062"/>
      <use xlink:href="#DejaVuSans-61" x="693.822266"/>
      <use xlink:href="#DejaVuSans-6c" x="755.101562"/>
      <use xlink:href="#DejaVuSans-69" x="782.884766"/>
      <use xlink:href="#DejaVuSans-64" x="810.667969"/>
      <use xlink:href="#DejaVuSans-61" x="874.144531"/>
      <use xlink:href="#DejaVuSans-74" x="935.423828"/>
      <use xlink:href="#DejaVuSans-69" x="974.632812"/>
      <use xlink:href="#DejaVuSans-6f" x="1002.416016"/>
      <use xlink:href="#DejaVuSans-6e" x="1063.597656"/>
      <use xlink:href="#DejaVuSans-20" x="1126.976562"/>
      <use xlink:href="#DejaVuSans-41" x="1158.763672"/>
      <use xlink:href="#DejaVuSans-63" x="1225.421875"/>
      <use xlink:href="#DejaVuSans-63" x="1280.402344"/>
      <use xlink:href="#DejaVuSans-75" x="1335.382812"/>
      <use xlink:href="#DejaVuSans-72" x="1398.761719"/>
      <use xlink:href="#DejaVuSans-61" x="1439.875"/>
      <use xlink:href="#DejaVuSans-63" x="1501.154297"/>
      <use xlink:href="#DejaVuSans-79" x="1556.134766"/>
     </g>
    </g>
   </g>
  </g>
 </g>
 <defs>
  <clipPath id="p3a85679df5">
   <rect x="57.6" y="41.472" width="357.12" height="266.112"/>
  </clipPath>
 </defs>
</svg>
