<?xml version="1.0" encoding="utf-8" standalone="no"?>
<!DOCTYPE svg PUBLIC "-//W3C//DTD SVG 1.1//EN"
  "http://www.w3.org/Graphics/SVG/1.1/DTD/svg11.dtd">
<svg xmlns:xlink="http://www.w3.org/1999/xlink" width="460.8pt" height="345.6pt" viewBox="0 0 460.8 345.6" xmlns="http://www.w3.org/2000/svg" version="1.1">
 <metadata>
  <rdf:RDF xmlns:dc="http://purl.org/dc/elements/1.1/" xmlns:cc="http://creativecommons.org/ns#" xmlns:rdf="http://www.w3.org/1999/02/22-rdf-syntax-ns#">
   <cc:Work>
    <dc:type rdf:resource="http://purl.org/dc/dcmitype/StillImage"/>
    <dc:date>2025-01-15T17:07:42.548042</dc:date>
    <dc:format>image/svg+xml</dc:format>
    <dc:creator>
     <cc:Agent>
      <dc:title>Matplotlib v3.9.1, https://matplotlib.org/</dc:title>
     </cc:Agent>
    </dc:creator>
   </cc:Work>
  </rdf:RDF>
 </metadata>
 <defs>
  <style type="text/css">*{stroke-linejoin: round; stroke-linecap: butt}</style>
 </defs>
 <g id="figure_1">
  <g id="patch_1">
   <path d="M 0 345.6 
L 460.8 345.6 
L 460.8 0 
L 0 0 
z
" style="fill: #ffffff"/>
  </g>
  <g id="axes_1">
   <g id="patch_2">
    <path d="M 57.6 307.584 
L 414.72 307.584 
L 414.72 41.472 
L 57.6 41.472 
z
" style="fill: #ffffff"/>
   </g>
   <g id="matplotlib.axis_1">
    <g id="xtick_1">
     <g id="line2d_1">
      <defs>
       <path id="m17ff953b3b" d="M 0 0 
L 0 3.5 
" style="stroke: #000000; stroke-width: 0.8"/>
      </defs>
      <g>
       <use xlink:href="#m17ff953b3b" x="73.832727" y="307.584" style="stroke: #000000; stroke-width: 0.8"/>
      </g>
     </g>
     <g id="text_1">
      <!-- 1 -->
      <g transform="translate(70.651477 322.182437) scale(0.1 -0.1)">
       <defs>
        <path id="DejaVuSans-31" d="M 794 531 
L 1825 531 
L 1825 4091 
L 703 3866 
L 703 4441 
L 1819 4666 
L 2450 4666 
L 2450 531 
L 3481 531 
L 3481 0 
L 794 0 
L 794 531 
z
" transform="scale(0.015625)"/>
       </defs>
       <use xlink:href="#DejaVuSans-31"/>
      </g>
     </g>
    </g>
    <g id="xtick_2">
     <g id="line2d_2">
      <g>
       <use xlink:href="#m17ff953b3b" x="108.968501" y="307.584" style="stroke: #000000; stroke-width: 0.8"/>
      </g>
     </g>
     <g id="text_2">
      <!-- 26 -->
      <g transform="translate(102.606001 322.182437) scale(0.1 -0.1)">
       <defs>
        <path id="DejaVuSans-32" d="M 1228 531 
L 3431 531 
L 3431 0 
L 469 0 
L 469 531 
Q 828 903 1448 1529 
Q 2069 2156 2228 2338 
Q 2531 2678 2651 2914 
Q 2772 3150 2772 3378 
Q 2772 3750 2511 3984 
Q 2250 4219 1831 4219 
Q 1534 4219 1204 4116 
Q 875 4013 500 3803 
L 500 4441 
Q 881 4594 1212 4672 
Q 1544 4750 1819 4750 
Q 2544 4750 2975 4387 
Q 3406 4025 3406 3419 
Q 3406 3131 3298 2873 
Q 3191 2616 2906 2266 
Q 2828 2175 2409 1742 
Q 1991 1309 1228 531 
z
" transform="scale(0.015625)"/>
        <path id="DejaVuSans-36" d="M 2113 2584 
Q 1688 2584 1439 2293 
Q 1191 2003 1191 1497 
Q 1191 994 1439 701 
Q 1688 409 2113 409 
Q 2538 409 2786 701 
Q 3034 994 3034 1497 
Q 3034 2003 2786 2293 
Q 2538 2584 2113 2584 
z
M 3366 4563 
L 3366 3988 
Q 3128 4100 2886 4159 
Q 2644 4219 2406 4219 
Q 1781 4219 1451 3797 
Q 1122 3375 1075 2522 
Q 1259 2794 1537 2939 
Q 1816 3084 2150 3084 
Q 2853 3084 3261 2657 
Q 3669 2231 3669 1497 
Q 3669 778 3244 343 
Q 2819 -91 2113 -91 
Q 1303 -91 875 529 
Q 447 1150 447 2328 
Q 447 3434 972 4092 
Q 1497 4750 2381 4750 
Q 2619 4750 2861 4703 
Q 3103 4656 3366 4563 
z
" transform="scale(0.015625)"/>
       </defs>
       <use xlink:href="#DejaVuSans-32"/>
       <use xlink:href="#DejaVuSans-36" x="63.623047"/>
      </g>
     </g>
    </g>
    <g id="xtick_3">
     <g id="line2d_3">
      <g>
       <use xlink:href="#m17ff953b3b" x="145.509705" y="307.584" style="stroke: #000000; stroke-width: 0.8"/>
      </g>
     </g>
     <g id="text_3">
      <!-- 52 -->
      <g transform="translate(139.147205 322.182437) scale(0.1 -0.1)">
       <defs>
        <path id="DejaVuSans-35" d="M 691 4666 
L 3169 4666 
L 3169 4134 
L 1269 4134 
L 1269 2991 
Q 1406 3038 1543 3061 
Q 1681 3084 1819 3084 
Q 2600 3084 3056 2656 
Q 3513 2228 3513 1497 
Q 3513 744 3044 326 
Q 2575 -91 1722 -91 
Q 1428 -91 1123 -41 
Q 819 9 494 109 
L 494 744 
Q 775 591 1075 516 
Q 1375 441 1709 441 
Q 2250 441 2565 725 
Q 2881 1009 2881 1497 
Q 2881 1984 2565 2268 
Q 2250 2553 1709 2553 
Q 1456 2553 1204 2497 
Q 953 2441 691 2322 
L 691 4666 
z
" transform="scale(0.015625)"/>
       </defs>
       <use xlink:href="#DejaVuSans-35"/>
       <use xlink:href="#DejaVuSans-32" x="63.623047"/>
      </g>
     </g>
    </g>
    <g id="xtick_4">
     <g id="line2d_4">
      <g>
       <use xlink:href="#m17ff953b3b" x="182.050909" y="307.584" style="stroke: #000000; stroke-width: 0.8"/>
      </g>
     </g>
     <g id="text_4">
      <!-- 78 -->
      <g transform="translate(175.688409 322.182437) scale(0.1 -0.1)">
       <defs>
        <path id="DejaVuSans-37" d="M 525 4666 
L 3525 4666 
L 3525 4397 
L 1831 0 
L 1172 0 
L 2766 4134 
L 525 4134 
L 525 4666 
z
" transform="scale(0.015625)"/>
        <path id="DejaVuSans-38" d="M 2034 2216 
Q 1584 2216 1326 1975 
Q 1069 1734 1069 1313 
Q 1069 891 1326 650 
Q 1584 409 2034 409 
Q 2484 409 2743 651 
Q 3003 894 3003 1313 
Q 3003 1734 2745 1975 
Q 2488 2216 2034 2216 
z
M 1403 2484 
Q 997 2584 770 2862 
Q 544 3141 544 3541 
Q 544 4100 942 4425 
Q 1341 4750 2034 4750 
Q 2731 4750 3128 4425 
Q 3525 4100 3525 3541 
Q 3525 3141 3298 2862 
Q 3072 2584 2669 2484 
Q 3125 2378 3379 2068 
Q 3634 1759 3634 1313 
Q 3634 634 3220 271 
Q 2806 -91 2034 -91 
Q 1263 -91 848 271 
Q 434 634 434 1313 
Q 434 1759 690 2068 
Q 947 2378 1403 2484 
z
M 1172 3481 
Q 1172 3119 1398 2916 
Q 1625 2713 2034 2713 
Q 2441 2713 2670 2916 
Q 2900 3119 2900 3481 
Q 2900 3844 2670 4047 
Q 2441 4250 2034 4250 
Q 1625 4250 1398 4047 
Q 1172 3844 1172 3481 
z
" transform="scale(0.015625)"/>
       </defs>
       <use xlink:href="#DejaVuSans-37"/>
       <use xlink:href="#DejaVuSans-38" x="63.623047"/>
      </g>
     </g>
    </g>
    <g id="xtick_5">
     <g id="line2d_5">
      <g>
       <use xlink:href="#m17ff953b3b" x="217.186682" y="307.584" style="stroke: #000000; stroke-width: 0.8"/>
      </g>
     </g>
     <g id="text_5">
      <!-- 103 -->
      <g transform="translate(207.642932 322.182437) scale(0.1 -0.1)">
       <defs>
        <path id="DejaVuSans-30" d="M 2034 4250 
Q 1547 4250 1301 3770 
Q 1056 3291 1056 2328 
Q 1056 1369 1301 889 
Q 1547 409 2034 409 
Q 2525 409 2770 889 
Q 3016 1369 3016 2328 
Q 3016 3291 2770 3770 
Q 2525 4250 2034 4250 
z
M 2034 4750 
Q 2819 4750 3233 4129 
Q 3647 3509 3647 2328 
Q 3647 1150 3233 529 
Q 2819 -91 2034 -91 
Q 1250 -91 836 529 
Q 422 1150 422 2328 
Q 422 3509 836 4129 
Q 1250 4750 2034 4750 
z
" transform="scale(0.015625)"/>
        <path id="DejaVuSans-33" d="M 2597 2516 
Q 3050 2419 3304 2112 
Q 3559 1806 3559 1356 
Q 3559 666 3084 287 
Q 2609 -91 1734 -91 
Q 1441 -91 1130 -33 
Q 819 25 488 141 
L 488 750 
Q 750 597 1062 519 
Q 1375 441 1716 441 
Q 2309 441 2620 675 
Q 2931 909 2931 1356 
Q 2931 1769 2642 2001 
Q 2353 2234 1838 2234 
L 1294 2234 
L 1294 2753 
L 1863 2753 
Q 2328 2753 2575 2939 
Q 2822 3125 2822 3475 
Q 2822 3834 2567 4026 
Q 2313 4219 1838 4219 
Q 1578 4219 1281 4162 
Q 984 4106 628 3988 
L 628 4550 
Q 988 4650 1302 4700 
Q 1616 4750 1894 4750 
Q 2613 4750 3031 4423 
Q 3450 4097 3450 3541 
Q 3450 3153 3228 2886 
Q 3006 2619 2597 2516 
z
" transform="scale(0.015625)"/>
       </defs>
       <use xlink:href="#DejaVuSans-31"/>
       <use xlink:href="#DejaVuSans-30" x="63.623047"/>
       <use xlink:href="#DejaVuSans-33" x="127.246094"/>
      </g>
     </g>
    </g>
    <g id="xtick_6">
     <g id="line2d_6">
      <g>
       <use xlink:href="#m17ff953b3b" x="253.727887" y="307.584" style="stroke: #000000; stroke-width: 0.8"/>
      </g>
     </g>
     <g id="text_6">
      <!-- 129 -->
      <g transform="translate(244.184137 322.182437) scale(0.1 -0.1)">
       <defs>
        <path id="DejaVuSans-39" d="M 703 97 
L 703 672 
Q 941 559 1184 500 
Q 1428 441 1663 441 
Q 2288 441 2617 861 
Q 2947 1281 2994 2138 
Q 2813 1869 2534 1725 
Q 2256 1581 1919 1581 
Q 1219 1581 811 2004 
Q 403 2428 403 3163 
Q 403 3881 828 4315 
Q 1253 4750 1959 4750 
Q 2769 4750 3195 4129 
Q 3622 3509 3622 2328 
Q 3622 1225 3098 567 
Q 2575 -91 1691 -91 
Q 1453 -91 1209 -44 
Q 966 3 703 97 
z
M 1959 2075 
Q 2384 2075 2632 2365 
Q 2881 2656 2881 3163 
Q 2881 3666 2632 3958 
Q 2384 4250 1959 4250 
Q 1534 4250 1286 3958 
Q 1038 3666 1038 3163 
Q 1038 2656 1286 2365 
Q 1534 2075 1959 2075 
z
" transform="scale(0.015625)"/>
       </defs>
       <use xlink:href="#DejaVuSans-31"/>
       <use xlink:href="#DejaVuSans-32" x="63.623047"/>
       <use xlink:href="#DejaVuSans-39" x="127.246094"/>
      </g>
     </g>
    </g>
    <g id="xtick_7">
     <g id="line2d_7">
      <g>
       <use xlink:href="#m17ff953b3b" x="290.269091" y="307.584" style="stroke: #000000; stroke-width: 0.8"/>
      </g>
     </g>
     <g id="text_7">
      <!-- 155 -->
      <g transform="translate(280.725341 322.182437) scale(0.1 -0.1)">
       <use xlink:href="#DejaVuSans-31"/>
       <use xlink:href="#DejaVuSans-35" x="63.623047"/>
       <use xlink:href="#DejaVuSans-35" x="127.246094"/>
      </g>
     </g>
    </g>
    <g id="xtick_8">
     <g id="line2d_8">
      <g>
       <use xlink:href="#m17ff953b3b" x="325.404864" y="307.584" style="stroke: #000000; stroke-width: 0.8"/>
      </g>
     </g>
     <g id="text_8">
      <!-- 180 -->
      <g transform="translate(315.861114 322.182437) scale(0.1 -0.1)">
       <use xlink:href="#DejaVuSans-31"/>
       <use xlink:href="#DejaVuSans-38" x="63.623047"/>
       <use xlink:href="#DejaVuSans-30" x="127.246094"/>
      </g>
     </g>
    </g>
    <g id="xtick_9">
     <g id="line2d_9">
      <g>
       <use xlink:href="#m17ff953b3b" x="361.946068" y="307.584" style="stroke: #000000; stroke-width: 0.8"/>
      </g>
     </g>
     <g id="text_9">
      <!-- 206 -->
      <g transform="translate(352.402318 322.182437) scale(0.1 -0.1)">
       <use xlink:href="#DejaVuSans-32"/>
       <use xlink:href="#DejaVuSans-30" x="63.623047"/>
       <use xlink:href="#DejaVuSans-36" x="127.246094"/>
      </g>
     </g>
    </g>
    <g id="xtick_10">
     <g id="line2d_10">
      <g>
       <use xlink:href="#m17ff953b3b" x="398.487273" y="307.584" style="stroke: #000000; stroke-width: 0.8"/>
      </g>
     </g>
     <g id="text_10">
      <!-- 232 -->
      <g transform="translate(388.943523 322.182437) scale(0.1 -0.1)">
       <use xlink:href="#DejaVuSans-32"/>
       <use xlink:href="#DejaVuSans-33" x="63.623047"/>
       <use xlink:href="#DejaVuSans-32" x="127.246094"/>
      </g>
     </g>
    </g>
    <g id="text_11">
     <!-- Epochs -->
     <g transform="translate(218.244375 335.860562) scale(0.1 -0.1)">
      <defs>
       <path id="DejaVuSans-45" d="M 628 4666 
L 3578 4666 
L 3578 4134 
L 1259 4134 
L 1259 2753 
L 3481 2753 
L 3481 2222 
L 1259 2222 
L 1259 531 
L 3634 531 
L 3634 0 
L 628 0 
L 628 4666 
z
" transform="scale(0.015625)"/>
       <path id="DejaVuSans-70" d="M 1159 525 
L 1159 -1331 
L 581 -1331 
L 581 3500 
L 1159 3500 
L 1159 2969 
Q 1341 3281 1617 3432 
Q 1894 3584 2278 3584 
Q 2916 3584 3314 3078 
Q 3713 2572 3713 1747 
Q 3713 922 3314 415 
Q 2916 -91 2278 -91 
Q 1894 -91 1617 61 
Q 1341 213 1159 525 
z
M 3116 1747 
Q 3116 2381 2855 2742 
Q 2594 3103 2138 3103 
Q 1681 3103 1420 2742 
Q 1159 2381 1159 1747 
Q 1159 1113 1420 752 
Q 1681 391 2138 391 
Q 2594 391 2855 752 
Q 3116 1113 3116 1747 
z
" transform="scale(0.015625)"/>
       <path id="DejaVuSans-6f" d="M 1959 3097 
Q 1497 3097 1228 2736 
Q 959 2375 959 1747 
Q 959 1119 1226 758 
Q 1494 397 1959 397 
Q 2419 397 2687 759 
Q 2956 1122 2956 1747 
Q 2956 2369 2687 2733 
Q 2419 3097 1959 3097 
z
M 1959 3584 
Q 2709 3584 3137 3096 
Q 3566 2609 3566 1747 
Q 3566 888 3137 398 
Q 2709 -91 1959 -91 
Q 1206 -91 779 398 
Q 353 888 353 1747 
Q 353 2609 779 3096 
Q 1206 3584 1959 3584 
z
" transform="scale(0.015625)"/>
       <path id="DejaVuSans-63" d="M 3122 3366 
L 3122 2828 
Q 2878 2963 2633 3030 
Q 2388 3097 2138 3097 
Q 1578 3097 1268 2742 
Q 959 2388 959 1747 
Q 959 1106 1268 751 
Q 1578 397 2138 397 
Q 2388 397 2633 464 
Q 2878 531 3122 666 
L 3122 134 
Q 2881 22 2623 -34 
Q 2366 -91 2075 -91 
Q 1284 -91 818 406 
Q 353 903 353 1747 
Q 353 2603 823 3093 
Q 1294 3584 2113 3584 
Q 2378 3584 2631 3529 
Q 2884 3475 3122 3366 
z
" transform="scale(0.015625)"/>
       <path id="DejaVuSans-68" d="M 3513 2113 
L 3513 0 
L 2938 0 
L 2938 2094 
Q 2938 2591 2744 2837 
Q 2550 3084 2163 3084 
Q 1697 3084 1428 2787 
Q 1159 2491 1159 1978 
L 1159 0 
L 581 0 
L 581 4863 
L 1159 4863 
L 1159 2956 
Q 1366 3272 1645 3428 
Q 1925 3584 2291 3584 
Q 2894 3584 3203 3211 
Q 3513 2838 3513 2113 
z
" transform="scale(0.015625)"/>
       <path id="DejaVuSans-73" d="M 2834 3397 
L 2834 2853 
Q 2591 2978 2328 3040 
Q 2066 3103 1784 3103 
Q 1356 3103 1142 2972 
Q 928 2841 928 2578 
Q 928 2378 1081 2264 
Q 1234 2150 1697 2047 
L 1894 2003 
Q 2506 1872 2764 1633 
Q 3022 1394 3022 966 
Q 3022 478 2636 193 
Q 2250 -91 1575 -91 
Q 1294 -91 989 -36 
Q 684 19 347 128 
L 347 722 
Q 666 556 975 473 
Q 1284 391 1588 391 
Q 1994 391 2212 530 
Q 2431 669 2431 922 
Q 2431 1156 2273 1281 
Q 2116 1406 1581 1522 
L 1381 1569 
Q 847 1681 609 1914 
Q 372 2147 372 2553 
Q 372 3047 722 3315 
Q 1072 3584 1716 3584 
Q 2034 3584 2315 3537 
Q 2597 3491 2834 3397 
z
" transform="scale(0.015625)"/>
      </defs>
      <use xlink:href="#DejaVuSans-45"/>
      <use xlink:href="#DejaVuSans-70" x="63.183594"/>
      <use xlink:href="#DejaVuSans-6f" x="126.660156"/>
      <use xlink:href="#DejaVuSans-63" x="187.841797"/>
      <use xlink:href="#DejaVuSans-68" x="242.822266"/>
      <use xlink:href="#DejaVuSans-73" x="306.201172"/>
     </g>
    </g>
   </g>
   <g id="matplotlib.axis_2">
    <g id="ytick_1">
     <g id="line2d_11">
      <defs>
       <path id="mf3a224a493" d="M 0 0 
L -3.5 0 
" style="stroke: #000000; stroke-width: 0.8"/>
      </defs>
      <g>
       <use xlink:href="#mf3a224a493" x="57.6" y="277.376364" style="stroke: #000000; stroke-width: 0.8"/>
      </g>
     </g>
     <g id="text_12">
      <!-- 10 -->
      <g transform="translate(37.875 281.175583) scale(0.1 -0.1)">
       <use xlink:href="#DejaVuSans-31"/>
       <use xlink:href="#DejaVuSans-30" x="63.623047"/>
      </g>
     </g>
    </g>
    <g id="ytick_2">
     <g id="line2d_12">
      <g>
       <use xlink:href="#mf3a224a493" x="57.6" y="239.950216" style="stroke: #000000; stroke-width: 0.8"/>
      </g>
     </g>
     <g id="text_13">
      <!-- 20 -->
      <g transform="translate(37.875 243.749435) scale(0.1 -0.1)">
       <use xlink:href="#DejaVuSans-32"/>
       <use xlink:href="#DejaVuSans-30" x="63.623047"/>
      </g>
     </g>
    </g>
    <g id="ytick_3">
     <g id="line2d_13">
      <g>
       <use xlink:href="#mf3a224a493" x="57.6" y="202.524069" style="stroke: #000000; stroke-width: 0.8"/>
      </g>
     </g>
     <g id="text_14">
      <!-- 30 -->
      <g transform="translate(37.875 206.323287) scale(0.1 -0.1)">
       <use xlink:href="#DejaVuSans-33"/>
       <use xlink:href="#DejaVuSans-30" x="63.623047"/>
      </g>
     </g>
    </g>
    <g id="ytick_4">
     <g id="line2d_14">
      <g>
       <use xlink:href="#mf3a224a493" x="57.6" y="165.097921" style="stroke: #000000; stroke-width: 0.8"/>
      </g>
     </g>
     <g id="text_15">
      <!-- 40 -->
      <g transform="translate(37.875 168.897139) scale(0.1 -0.1)">
       <defs>
        <path id="DejaVuSans-34" d="M 2419 4116 
L 825 1625 
L 2419 1625 
L 2419 4116 
z
M 2253 4666 
L 3047 4666 
L 3047 1625 
L 3713 1625 
L 3713 1100 
L 3047 1100 
L 3047 0 
L 2419 0 
L 2419 1100 
L 313 1100 
L 313 1709 
L 2253 4666 
z
" transform="scale(0.015625)"/>
       </defs>
       <use xlink:href="#DejaVuSans-34"/>
       <use xlink:href="#DejaVuSans-30" x="63.623047"/>
      </g>
     </g>
    </g>
    <g id="ytick_5">
     <g id="line2d_15">
      <g>
       <use xlink:href="#mf3a224a493" x="57.6" y="127.671773" style="stroke: #000000; stroke-width: 0.8"/>
      </g>
     </g>
     <g id="text_16">
      <!-- 50 -->
      <g transform="translate(37.875 131.470992) scale(0.1 -0.1)">
       <use xlink:href="#DejaVuSans-35"/>
       <use xlink:href="#DejaVuSans-30" x="63.623047"/>
      </g>
     </g>
    </g>
    <g id="ytick_6">
     <g id="line2d_16">
      <g>
       <use xlink:href="#mf3a224a493" x="57.6" y="90.245625" style="stroke: #000000; stroke-width: 0.8"/>
      </g>
     </g>
     <g id="text_17">
      <!-- 60 -->
      <g transform="translate(37.875 94.044844) scale(0.1 -0.1)">
       <use xlink:href="#DejaVuSans-36"/>
       <use xlink:href="#DejaVuSans-30" x="63.623047"/>
      </g>
     </g>
    </g>
    <g id="ytick_7">
     <g id="line2d_17">
      <g>
       <use xlink:href="#mf3a224a493" x="57.6" y="52.819477" style="stroke: #000000; stroke-width: 0.8"/>
      </g>
     </g>
     <g id="text_18">
      <!-- 70 -->
      <g transform="translate(37.875 56.618696) scale(0.1 -0.1)">
       <use xlink:href="#DejaVuSans-37"/>
       <use xlink:href="#DejaVuSans-30" x="63.623047"/>
      </g>
     </g>
    </g>
    <g id="text_19">
     <!-- Accuracy -->
     <g transform="translate(31.795312 197.356125) rotate(-90) scale(0.1 -0.1)">
      <defs>
       <path id="DejaVuSans-41" d="M 2188 4044 
L 1331 1722 
L 3047 1722 
L 2188 4044 
z
M 1831 4666 
L 2547 4666 
L 4325 0 
L 3669 0 
L 3244 1197 
L 1141 1197 
L 716 0 
L 50 0 
L 1831 4666 
z
" transform="scale(0.015625)"/>
       <path id="DejaVuSans-75" d="M 544 1381 
L 544 3500 
L 1119 3500 
L 1119 1403 
Q 1119 906 1312 657 
Q 1506 409 1894 409 
Q 2359 409 2629 706 
Q 2900 1003 2900 1516 
L 2900 3500 
L 3475 3500 
L 3475 0 
L 2900 0 
L 2900 538 
Q 2691 219 2414 64 
Q 2138 -91 1772 -91 
Q 1169 -91 856 284 
Q 544 659 544 1381 
z
M 1991 3584 
L 1991 3584 
z
" transform="scale(0.015625)"/>
       <path id="DejaVuSans-72" d="M 2631 2963 
Q 2534 3019 2420 3045 
Q 2306 3072 2169 3072 
Q 1681 3072 1420 2755 
Q 1159 2438 1159 1844 
L 1159 0 
L 581 0 
L 581 3500 
L 1159 3500 
L 1159 2956 
Q 1341 3275 1631 3429 
Q 1922 3584 2338 3584 
Q 2397 3584 2469 3576 
Q 2541 3569 2628 3553 
L 2631 2963 
z
" transform="scale(0.015625)"/>
       <path id="DejaVuSans-61" d="M 2194 1759 
Q 1497 1759 1228 1600 
Q 959 1441 959 1056 
Q 959 750 1161 570 
Q 1363 391 1709 391 
Q 2188 391 2477 730 
Q 2766 1069 2766 1631 
L 2766 1759 
L 2194 1759 
z
M 3341 1997 
L 3341 0 
L 2766 0 
L 2766 531 
Q 2569 213 2275 61 
Q 1981 -91 1556 -91 
Q 1019 -91 701 211 
Q 384 513 384 1019 
Q 384 1609 779 1909 
Q 1175 2209 1959 2209 
L 2766 2209 
L 2766 2266 
Q 2766 2663 2505 2880 
Q 2244 3097 1772 3097 
Q 1472 3097 1187 3025 
Q 903 2953 641 2809 
L 641 3341 
Q 956 3463 1253 3523 
Q 1550 3584 1831 3584 
Q 2591 3584 2966 3190 
Q 3341 2797 3341 1997 
z
" transform="scale(0.015625)"/>
       <path id="DejaVuSans-79" d="M 2059 -325 
Q 1816 -950 1584 -1140 
Q 1353 -1331 966 -1331 
L 506 -1331 
L 506 -850 
L 844 -850 
Q 1081 -850 1212 -737 
Q 1344 -625 1503 -206 
L 1606 56 
L 191 3500 
L 800 3500 
L 1894 763 
L 2988 3500 
L 3597 3500 
L 2059 -325 
z
" transform="scale(0.015625)"/>
      </defs>
      <use xlink:href="#DejaVuSans-41"/>
      <use xlink:href="#DejaVuSans-63" x="66.658203"/>
      <use xlink:href="#DejaVuSans-63" x="121.638672"/>
      <use xlink:href="#DejaVuSans-75" x="176.619141"/>
      <use xlink:href="#DejaVuSans-72" x="239.998047"/>
      <use xlink:href="#DejaVuSans-61" x="281.111328"/>
      <use xlink:href="#DejaVuSans-63" x="342.390625"/>
      <use xlink:href="#DejaVuSans-79" x="397.371094"/>
     </g>
    </g>
   </g>
   <g id="line2d_18">
    <path d="M 73.832727 295.488 
L 75.238158 270.641529 
L 76.643589 253.44384 
L 78.04902 238.952435 
L 79.454451 228.105589 
L 82.265313 210.074794 
L 83.670744 202.268074 
L 85.076175 195.981229 
L 86.481606 188.744884 
L 87.887037 182.721145 
L 90.697898 172.60598 
L 92.103329 167.051191 
L 93.50876 162.648379 
L 94.914191 160.317853 
L 96.319622 155.663537 
L 97.725053 153.659367 
L 99.130484 151.103535 
L 100.535915 150.945971 
L 101.941346 184.627633 
L 103.346777 181.786614 
L 106.157639 174.872882 
L 107.56307 172.080517 
L 108.968501 167.809445 
L 110.373932 165.786188 
L 111.779362 162.603468 
L 113.184793 159.811103 
L 114.590224 156.624641 
L 117.401086 151.035794 
L 118.806517 149.583285 
L 120.211948 146.156547 
L 123.02281 142.74478 
L 124.428241 139.753682 
L 125.833672 137.385355 
L 127.239103 135.613601 
L 128.644534 131.691715 
L 130.049965 130.242949 
L 131.455396 126.999973 
L 132.860826 125.660117 
L 134.266257 122.383458 
L 135.671688 120.807069 
L 138.48255 115.983961 
L 139.887981 114.704361 
L 141.293412 112.016789 
L 144.104274 108.439972 
L 145.509705 106.019249 
L 146.915136 104.232525 
L 148.320567 102.663621 
L 149.725998 101.428932 
L 151.131429 101.038577 
L 152.53686 100.032563 
L 153.94229 98.028392 
L 155.347721 97.717007 
L 156.753152 96.977466 
L 158.158583 140.459165 
L 159.564014 143.364182 
L 160.969445 143.653112 
L 162.374876 142.928916 
L 163.780307 140.995856 
L 165.185738 140.087523 
L 166.591169 138.67244 
L 167.9966 138.390996 
L 169.402031 135.756195 
L 170.807462 134.761782 
L 172.212893 134.3602 
L 173.618323 132.716069 
L 175.023754 131.999358 
L 176.429185 130.663245 
L 177.834616 129.131767 
L 179.240047 128.625017 
L 180.645478 128.583848 
L 182.050909 126.917262 
L 183.45634 126.301976 
L 184.861771 124.849467 
L 186.267202 123.768226 
L 187.672633 122.353517 
L 189.078064 122.041757 
L 190.483495 121.53875 
L 191.888926 120.337745 
L 193.294357 118.832839 
L 194.699787 118.311119 
L 196.105218 117.008689 
L 197.510649 115.552438 
L 198.91608 114.445372 
L 200.321511 113.022804 
L 201.726942 110.654478 
L 203.132373 111.108457 
L 204.537804 109.220682 
L 205.943235 109.055633 
L 207.348666 108.612507 
L 208.754097 106.285723 
L 210.159528 105.200739 
L 211.564959 105.377391 
L 212.97039 103.219025 
L 214.375821 102.521027 
L 215.781251 100.993666 
L 218.592113 98.992864 
L 219.997544 96.936297 
L 222.808406 95.569869 
L 224.213837 93.858371 
L 225.619268 92.773761 
L 227.024699 91.021095 
L 228.43013 90.274069 
L 231.240992 87.275112 
L 232.646423 86.156818 
L 234.051854 85.409792 
L 235.457285 83.540731 
L 236.862715 83.480849 
L 238.268146 81.82549 
L 239.673577 81.078464 
L 241.079008 79.509934 
L 242.484439 78.259901 
L 243.88987 76.094424 
L 245.295301 76.492264 
L 246.700732 74.645658 
L 248.106163 73.279229 
L 249.511594 73.091724 
L 250.917025 72.337213 
L 252.322456 71.060982 
L 253.727887 70.903417 
L 255.133318 69.000672 
L 256.538749 69.420968 
L 257.944179 68.726713 
L 259.34961 68.249904 
L 260.755041 68.182536 
L 263.565903 66.185477 
L 264.971334 65.817952 
L 267.782196 65.509935 
L 269.187627 65.01853 
L 270.593058 122.706071 
L 271.998489 126.898549 
L 273.40392 126.864865 
L 274.809351 125.348358 
L 276.214782 124.511509 
L 277.620213 123.092684 
L 279.025643 122.751357 
L 280.431074 122.161895 
L 281.836505 121.088513 
L 283.241936 120.255407 
L 284.647367 120.698159 
L 286.052798 119.654718 
L 287.458229 118.75387 
L 288.86366 119.46347 
L 290.269091 118.731415 
L 291.674522 117.068945 
L 293.079953 117.184966 
L 294.485384 117.443955 
L 295.890815 115.909109 
L 297.296246 116.186811 
L 298.701677 114.677789 
L 300.107107 115.394873 
L 301.512538 114.392601 
L 302.917969 114.553908 
L 304.3234 112.501084 
L 305.728831 112.992863 
L 307.134262 112.606251 
L 308.539693 110.954635 
L 309.945124 111.652633 
L 311.350555 111.119685 
L 312.755986 111.506297 
L 314.161417 109.993906 
L 316.972279 109.798542 
L 318.37771 109.292166 
L 319.78314 108.597537 
L 321.188571 108.590051 
L 322.594002 107.295107 
L 323.999433 108.349775 
L 326.810295 107.118829 
L 329.621157 106.105329 
L 332.432019 105.223569 
L 333.83745 104.656563 
L 335.242881 104.446602 
L 336.648312 103.508329 
L 338.053743 103.710804 
L 339.459174 102.971638 
L 340.864604 102.986608 
L 342.270035 103.253083 
L 343.675466 101.672951 
L 345.080897 101.740318 
L 346.486328 100.104047 
L 347.891759 100.711847 
L 349.29719 99.95009 
L 350.702621 99.045551 
L 352.108052 99.803713 
L 353.513483 98.441274 
L 354.918914 98.681484 
L 356.324345 98.602665 
L 357.729776 99.011772 
L 359.135207 96.692248 
L 361.946068 97.112615 
L 363.351499 95.243485 
L 364.75693 94.545376 
L 366.162361 94.207581 
L 367.567792 92.77383 
L 368.973223 94.177555 
L 371.784085 92.638712 
L 373.189516 91.666614 
L 374.594947 91.201208 
L 376.000378 92.150787 
L 377.405809 90.540632 
L 378.81124 89.602314 
L 380.216671 89.489716 
L 381.622102 88.461318 
L 383.027532 88.765334 
L 384.432963 86.791111 
L 385.838394 87.440428 
L 387.243825 86.408277 
L 388.649256 85.976651 
L 390.054687 86.002924 
L 391.460118 83.668387 
L 392.865549 85.346101 
L 394.27098 82.906473 
L 395.676411 83.27054 
L 398.487273 81.36763 
L 398.487273 81.36763 
" clip-path="url(#pb204d53cfa)" style="fill: none; stroke: #1f77b4; stroke-width: 1.5; stroke-linecap: square"/>
   </g>
   <g id="line2d_19">
    <path d="M 73.832727 276.291006 
L 75.238158 256.604852 
L 76.643589 232.801822 
L 78.04902 225.690854 
L 79.454451 214.687567 
L 80.859882 204.582507 
L 82.265313 192.830696 
L 83.670744 179.469561 
L 85.076175 174.229901 
L 87.887037 155.516827 
L 89.292468 151.137967 
L 90.697898 145.374341 
L 92.103329 140.583794 
L 93.50876 132.424894 
L 96.319622 127.858904 
L 97.725053 126.43671 
L 99.130484 122.581817 
L 100.535915 123.143209 
L 101.941346 158.473492 
L 103.346777 162.103829 
L 104.752208 147.80704 
L 106.157639 152.485309 
L 107.56307 147.844466 
L 108.968501 140.583794 
L 110.373932 137.402571 
L 111.779362 137.140588 
L 113.184793 127.709199 
L 114.590224 131.040126 
L 115.995655 124.527976 
L 117.401086 122.319834 
L 118.806517 121.459032 
L 120.211948 124.565403 
L 121.617379 116.032241 
L 123.02281 109.931779 
L 124.428241 111.204268 
L 125.833672 108.17275 
L 127.239103 103.79389 
L 128.644534 100.912077 
L 130.049965 99.2279 
L 131.455396 103.719038 
L 132.860826 95.859547 
L 134.266257 93.98824 
L 135.671688 93.539126 
L 137.077119 91.55554 
L 138.48255 87.775499 
L 139.887981 89.047988 
L 141.293412 83.471492 
L 142.698843 80.365122 
L 144.104274 82.947526 
L 145.509705 77.633013 
L 146.915136 78.643519 
L 148.320567 76.697359 
L 149.725998 76.734786 
L 151.131429 76.510229 
L 152.53686 75.42487 
L 153.94229 74.152381 
L 155.347721 73.216728 
L 156.753152 73.628415 
L 158.158583 120.4111 
L 159.564014 114.984309 
L 160.969445 121.421606 
L 162.374876 118.27781 
L 163.780307 113.89895 
L 165.185738 111.503677 
L 166.591169 118.390088 
L 167.9966 114.235786 
L 169.402031 111.578529 
L 170.807462 104.504987 
L 172.212893 113.262706 
L 173.618323 99.789293 
L 175.023754 104.317857 
L 176.429185 102.745958 
L 177.834616 102.671106 
L 179.240047 102.970515 
L 180.645478 101.436043 
L 182.050909 103.756464 
L 183.45634 101.17406 
L 184.861771 109.33296 
L 186.267202 98.516804 
L 187.672633 97.768281 
L 189.078064 101.810305 
L 190.483495 96.084104 
L 193.294357 93.539126 
L 194.699787 90.732165 
L 196.105218 93.838535 
L 197.510649 91.967228 
L 198.91608 93.314569 
L 200.321511 88.486596 
L 201.726942 85.979044 
L 203.132373 90.470182 
L 204.537804 85.267947 
L 205.943235 90.769591 
L 207.348666 91.667819 
L 208.754097 86.241027 
L 210.159528 82.760395 
L 211.564959 78.34411 
L 212.97039 80.140565 
L 214.375821 77.745292 
L 215.781251 82.311282 
L 217.186682 76.023689 
L 218.592113 78.606093 
L 219.997544 75.873984 
L 221.402975 76.061115 
L 222.808406 75.125461 
L 224.213837 76.585081 
L 225.619268 71.046011 
L 227.024699 69.511539 
L 228.43013 68.875294 
L 229.835561 69.773522 
L 231.240992 69.923227 
L 232.646423 66.554873 
L 234.051854 64.309304 
L 235.457285 64.496435 
L 236.862715 63.373651 
L 238.268146 63.897617 
L 241.079008 60.155002 
L 242.484439 58.770235 
L 243.88987 60.304707 
L 245.295301 56.898927 
L 246.700732 57.797155 
L 248.106163 59.219348 
L 249.511594 57.235762 
L 253.727887 57.123484 
L 255.133318 55.401881 
L 256.538749 55.813569 
L 257.944179 54.728211 
L 259.34961 54.503654 
L 260.755041 53.904835 
L 262.160472 53.829983 
L 263.565903 53.605426 
L 264.971334 54.129392 
L 266.376765 53.904835 
L 267.782196 54.503654 
L 269.187627 53.568 
L 270.593058 114.086081 
L 271.998489 107.948193 
L 273.40392 111.428825 
L 274.809351 100.724946 
L 276.214782 104.28043 
L 277.620213 101.6606 
L 279.025643 104.76697 
L 280.431074 93.127438 
L 281.836505 99.078196 
L 283.241936 103.307351 
L 284.647367 94.47478 
L 286.052798 104.205578 
L 287.458229 94.362501 
L 288.86366 95.260729 
L 290.269091 92.453768 
L 291.674522 94.287649 
L 293.079953 106.525999 
L 294.485384 96.420939 
L 295.890815 99.153048 
L 297.296246 100.051276 
L 298.701677 91.967228 
L 300.107107 91.218705 
L 301.512538 95.036172 
L 302.917969 92.902881 
L 304.3234 95.073598 
L 305.728831 89.497102 
L 307.134262 103.082794 
L 308.539693 89.946216 
L 309.945124 99.938997 
L 311.350555 86.839845 
L 312.755986 98.479377 
L 314.161417 86.203601 
L 315.566848 98.105116 
L 316.972279 87.026976 
L 318.37771 82.535838 
L 319.78314 91.705245 
L 321.188571 97.057184 
L 322.594002 93.726257 
L 323.999433 84.481998 
L 325.404864 93.688831 
L 326.810295 88.299465 
L 328.215726 86.50301 
L 329.621157 92.004654 
L 331.026588 81.300776 
L 332.432019 87.064402 
L 333.83745 82.872674 
L 335.242881 83.88318 
L 336.648312 85.230521 
L 338.053743 81.076219 
L 339.459174 81.038793 
L 340.864604 83.434066 
L 342.270035 89.459676 
L 343.675466 81.076219 
L 345.080897 84.85626 
L 346.486328 81.113645 
L 347.891759 83.583771 
L 349.29719 81.637611 
L 350.702621 78.34411 
L 352.108052 77.37103 
L 353.513483 89.010562 
L 354.918914 84.968538 
L 356.324345 84.257441 
L 357.729776 80.77681 
L 359.135207 78.381536 
L 360.540638 81.562759 
L 363.351499 72.131369 
L 364.75693 77.894996 
L 366.162361 76.510229 
L 367.567792 72.430779 
L 368.973223 74.152381 
L 370.378654 77.483308 
L 371.784085 76.772212 
L 373.189516 78.044701 
L 374.594947 74.93833 
L 376.000378 75.088035 
L 377.405809 76.659933 
L 378.81124 72.093943 
L 380.216671 79.50432 
L 381.622102 71.794534 
L 383.027532 72.917318 
L 384.432963 73.590989 
L 385.838394 69.661244 
L 387.243825 73.441285 
L 388.649256 73.216728 
L 390.054687 72.093943 
L 391.460118 68.72559 
L 392.865549 66.405169 
L 394.27098 67.490527 
L 395.676411 69.511539 
L 397.081842 66.667152 
L 398.487273 69.661244 
L 398.487273 69.661244 
" clip-path="url(#pb204d53cfa)" style="fill: none; stroke: #ff7f0e; stroke-width: 1.5; stroke-linecap: square"/>
   </g>
   <g id="line2d_20">
    <path d="M 73.832727 291.262588 
L 75.238158 281.454692 
L 76.643589 270.201023 
L 78.04902 267.103635 
L 79.454451 265.013011 
L 80.859882 260.18616 
L 82.265313 258.40505 
L 83.670744 249.603543 
L 85.076175 248.416385 
L 87.887037 239.253342 
L 89.292468 233.600496 
L 90.697898 235.743143 
L 92.103329 228.128793 
L 93.50876 227.870553 
L 94.914191 224.102114 
L 96.319622 225.650808 
L 97.725053 223.715128 
L 99.130484 222.063138 
L 100.535915 222.321378 
L 101.941346 243.512063 
L 103.346777 235.484903 
L 106.157639 239.408286 
L 107.56307 229.754959 
L 108.968501 231.94888 
L 110.373932 224.669869 
L 111.779362 229.238479 
L 113.184793 221.237142 
L 114.590224 223.715128 
L 115.995655 222.450124 
L 117.401086 224.541123 
L 118.806517 216.797653 
L 120.211948 220.178731 
L 121.617379 216.59106 
L 123.02281 212.280691 
L 124.428241 210.267539 
L 125.833672 202.859781 
L 127.239103 211.506344 
L 128.644534 205.363216 
L 130.049965 210.293363 
L 131.455396 205.311568 
L 132.860826 199.839865 
L 134.266257 204.227707 
L 135.671688 200.485092 
L 137.077119 195.606594 
L 138.48255 194.006252 
L 139.887981 196.768301 
L 141.293412 191.786507 
L 142.698843 191.606113 
L 144.104274 195.013015 
L 145.509705 190.315285 
L 146.915136 190.728469 
L 148.320567 191.967275 
L 149.725998 189.902474 
L 151.131429 188.09554 
L 152.53686 187.734378 
L 153.94229 188.921535 
L 155.347721 186.856735 
L 156.753152 189.076479 
L 158.158583 218.552939 
L 159.564014 217.365407 
L 160.969445 218.914101 
L 162.374876 212.254867 
L 163.780307 213.13251 
L 165.185738 204.046938 
L 166.591169 218.320523 
L 167.9966 214.732852 
L 169.402031 206.163387 
L 170.807462 199.426681 
L 172.212893 206.524924 
L 173.618323 201.853018 
L 175.023754 201.775546 
L 176.429185 203.840346 
L 177.834616 208.873789 
L 179.240047 194.57438 
L 180.645478 208.150716 
L 182.050909 199.916963 
L 183.45634 205.156624 
L 184.861771 212.59058 
L 186.267202 199.478329 
L 187.672633 196.071426 
L 189.078064 198.962222 
L 190.483495 197.697218 
L 191.888926 197.981283 
L 193.294357 193.154807 
L 194.699787 203.530832 
L 196.105218 192.354636 
L 197.510649 190.625173 
L 198.91608 203.608304 
L 200.321511 198.549037 
L 201.726942 190.083243 
L 203.132373 195.451649 
L 204.537804 186.83091 
L 205.943235 198.394467 
L 207.348666 195.993954 
L 208.754097 198.652334 
L 210.159528 187.269545 
L 211.564959 187.037503 
L 212.97039 180.300796 
L 214.375821 178.493862 
L 215.781251 191.14128 
L 217.186682 178.726278 
L 218.592113 180.429916 
L 219.997544 175.035311 
L 221.402975 180.378268 
L 222.808406 188.689119 
L 224.213837 183.424008 
L 225.619268 175.396474 
L 227.024699 173.383321 
L 228.43013 177.900283 
L 229.835561 180.661959 
L 232.646423 171.292697 
L 234.051854 170.750392 
L 235.457285 179.345681 
L 236.862715 173.615738 
L 238.268146 176.506533 
L 239.673577 171.1894 
L 241.079008 167.291841 
L 242.484439 165.639851 
L 243.88987 167.033601 
L 245.295301 170.079341 
L 246.700732 166.414198 
L 248.106163 166.569143 
L 249.511594 163.368458 
L 250.917025 165.459457 
L 252.322456 164.788032 
L 253.727887 166.440022 
L 255.133318 163.962411 
L 256.538749 163.549227 
L 257.944179 161.716842 
L 259.34961 162.852352 
L 260.755041 162.362069 
L 262.160472 162.155477 
L 263.565903 161.329482 
L 264.971334 161.768116 
L 266.376765 162.800704 
L 267.782196 161.097065 
L 269.187627 161.819764 
L 270.593058 208.408956 
L 271.998489 204.356827 
L 273.40392 213.106686 
L 274.809351 205.079526 
L 276.214782 194.264492 
L 277.620213 194.419436 
L 279.025643 195.787362 
L 280.431074 196.303468 
L 281.836505 202.05961 
L 283.241936 201.336911 
L 284.647367 185.824147 
L 286.052798 205.337392 
L 287.458229 202.627365 
L 288.86366 194.290316 
L 290.269091 194.935543 
L 291.674522 189.979947 
L 293.079953 200.381796 
L 294.485384 191.347872 
L 295.890815 194.703126 
L 297.296246 204.331003 
L 298.701677 190.134891 
L 300.107107 191.218752 
L 301.512538 196.690829 
L 302.917969 191.244576 
L 304.3234 193.541793 
L 305.728831 181.901138 
L 307.134262 195.064663 
L 308.539693 190.909238 
L 309.945124 206.756966 
L 311.350555 192.560854 
L 312.755986 198.807278 
L 314.161417 186.056563 
L 315.566848 194.806423 
L 316.972279 179.758491 
L 318.37771 184.430397 
L 319.78314 193.128983 
L 321.188571 195.322903 
L 322.594002 192.122219 
L 323.999433 193.180256 
L 325.404864 198.523213 
L 326.810295 187.037503 
L 328.215726 187.243721 
L 329.621157 197.981283 
L 331.026588 180.584486 
L 332.432019 191.580289 
L 333.83745 188.018068 
L 335.242881 181.84949 
L 336.648312 188.766591 
L 338.053743 184.327101 
L 339.459174 183.888467 
L 340.864604 188.637845 
L 342.270035 187.398665 
L 343.675466 182.752583 
L 345.080897 180.791079 
L 346.486328 189.437642 
L 347.891759 190.341109 
L 349.29719 183.191527 
L 350.702621 186.88252 
L 352.108052 184.533706 
L 353.513483 200.201066 
L 354.918914 188.456999 
L 356.324345 186.908331 
L 357.729776 190.263779 
L 359.135207 186.288864 
L 360.540638 193.335304 
L 361.946068 175.241697 
L 363.351499 183.423828 
L 364.75693 177.926055 
L 366.162361 180.791092 
L 367.567792 186.417919 
L 368.973223 185.462907 
L 370.378654 177.693755 
L 371.784085 185.566152 
L 373.189516 189.205522 
L 374.594947 182.288138 
L 376.000378 182.855983 
L 377.405809 174.054385 
L 378.81124 183.656128 
L 380.216671 189.747556 
L 381.622102 174.880341 
L 383.027532 182.468815 
L 385.838394 172.841262 
L 387.243825 180.558791 
L 388.649256 177.074288 
L 390.054687 181.384748 
L 391.460118 172.402472 
L 392.865549 173.434918 
L 394.27098 171.395838 
L 395.676411 171.653949 
L 397.081842 175.215886 
L 398.487273 172.066927 
L 398.487273 172.066927 
" clip-path="url(#pb204d53cfa)" style="fill: none; stroke: #2ca02c; stroke-width: 1.5; stroke-linecap: square"/>
   </g>
   <g id="line2d_21">
    <path d="M 0 0 
" clip-path="url(#pb204d53cfa)" style="fill: none; stroke: #d62728; stroke-width: 1.5; stroke-linecap: square"/>
   </g>
   <g id="line2d_22">
    <path d="M 0 0 
" clip-path="url(#pb204d53cfa)" style="fill: none; stroke: #9467bd; stroke-width: 1.5; stroke-linecap: square"/>
   </g>
   <g id="patch_3">
    <path d="M 57.6 307.584 
L 57.6 41.472 
" style="fill: none; stroke: #000000; stroke-width: 0.8; stroke-linejoin: miter; stroke-linecap: square"/>
   </g>
   <g id="patch_4">
    <path d="M 414.72 307.584 
L 414.72 41.472 
" style="fill: none; stroke: #000000; stroke-width: 0.8; stroke-linejoin: miter; stroke-linecap: square"/>
   </g>
   <g id="patch_5">
    <path d="M 57.6 307.584 
L 414.72 307.584 
" style="fill: none; stroke: #000000; stroke-width: 0.8; stroke-linejoin: miter; stroke-linecap: square"/>
   </g>
   <g id="patch_6">
    <path d="M 57.6 41.472 
L 414.72 41.472 
" style="fill: none; stroke: #000000; stroke-width: 0.8; stroke-linejoin: miter; stroke-linecap: square"/>
   </g>
   <g id="text_20">
    <!-- Learning Curves -->
    <g transform="translate(187.37625 35.472) scale(0.12 -0.12)">
     <defs>
      <path id="DejaVuSans-4c" d="M 628 4666 
L 1259 4666 
L 1259 531 
L 3531 531 
L 3531 0 
L 628 0 
L 628 4666 
z
" transform="scale(0.015625)"/>
      <path id="DejaVuSans-65" d="M 3597 1894 
L 3597 1613 
L 953 1613 
Q 991 1019 1311 708 
Q 1631 397 2203 397 
Q 2534 397 2845 478 
Q 3156 559 3463 722 
L 3463 178 
Q 3153 47 2828 -22 
Q 2503 -91 2169 -91 
Q 1331 -91 842 396 
Q 353 884 353 1716 
Q 353 2575 817 3079 
Q 1281 3584 2069 3584 
Q 2775 3584 3186 3129 
Q 3597 2675 3597 1894 
z
M 3022 2063 
Q 3016 2534 2758 2815 
Q 2500 3097 2075 3097 
Q 1594 3097 1305 2825 
Q 1016 2553 972 2059 
L 3022 2063 
z
" transform="scale(0.015625)"/>
      <path id="DejaVuSans-6e" d="M 3513 2113 
L 3513 0 
L 2938 0 
L 2938 2094 
Q 2938 2591 2744 2837 
Q 2550 3084 2163 3084 
Q 1697 3084 1428 2787 
Q 1159 2491 1159 1978 
L 1159 0 
L 581 0 
L 581 3500 
L 1159 3500 
L 1159 2956 
Q 1366 3272 1645 3428 
Q 1925 3584 2291 3584 
Q 2894 3584 3203 3211 
Q 3513 2838 3513 2113 
z
" transform="scale(0.015625)"/>
      <path id="DejaVuSans-69" d="M 603 3500 
L 1178 3500 
L 1178 0 
L 603 0 
L 603 3500 
z
M 603 4863 
L 1178 4863 
L 1178 4134 
L 603 4134 
L 603 4863 
z
" transform="scale(0.015625)"/>
      <path id="DejaVuSans-67" d="M 2906 1791 
Q 2906 2416 2648 2759 
Q 2391 3103 1925 3103 
Q 1463 3103 1205 2759 
Q 947 2416 947 1791 
Q 947 1169 1205 825 
Q 1463 481 1925 481 
Q 2391 481 2648 825 
Q 2906 1169 2906 1791 
z
M 3481 434 
Q 3481 -459 3084 -895 
Q 2688 -1331 1869 -1331 
Q 1566 -1331 1297 -1286 
Q 1028 -1241 775 -1147 
L 775 -588 
Q 1028 -725 1275 -790 
Q 1522 -856 1778 -856 
Q 2344 -856 2625 -561 
Q 2906 -266 2906 331 
L 2906 616 
Q 2728 306 2450 153 
Q 2172 0 1784 0 
Q 1141 0 747 490 
Q 353 981 353 1791 
Q 353 2603 747 3093 
Q 1141 3584 1784 3584 
Q 2172 3584 2450 3431 
Q 2728 3278 2906 2969 
L 2906 3500 
L 3481 3500 
L 3481 434 
z
" transform="scale(0.015625)"/>
      <path id="DejaVuSans-20" transform="scale(0.015625)"/>
      <path id="DejaVuSans-43" d="M 4122 4306 
L 4122 3641 
Q 3803 3938 3442 4084 
Q 3081 4231 2675 4231 
Q 1875 4231 1450 3742 
Q 1025 3253 1025 2328 
Q 1025 1406 1450 917 
Q 1875 428 2675 428 
Q 3081 428 3442 575 
Q 3803 722 4122 1019 
L 4122 359 
Q 3791 134 3420 21 
Q 3050 -91 2638 -91 
Q 1578 -91 968 557 
Q 359 1206 359 2328 
Q 359 3453 968 4101 
Q 1578 4750 2638 4750 
Q 3056 4750 3426 4639 
Q 3797 4528 4122 4306 
z
" transform="scale(0.015625)"/>
      <path id="DejaVuSans-76" d="M 191 3500 
L 800 3500 
L 1894 563 
L 2988 3500 
L 3597 3500 
L 2284 0 
L 1503 0 
L 191 3500 
z
" transform="scale(0.015625)"/>
     </defs>
     <use xlink:href="#DejaVuSans-4c"/>
     <use xlink:href="#DejaVuSans-65" x="53.962891"/>
     <use xlink:href="#DejaVuSans-61" x="115.486328"/>
     <use xlink:href="#DejaVuSans-72" x="176.765625"/>
     <use xlink:href="#DejaVuSans-6e" x="216.128906"/>
     <use xlink:href="#DejaVuSans-69" x="279.507812"/>
     <use xlink:href="#DejaVuSans-6e" x="307.291016"/>
     <use xlink:href="#DejaVuSans-67" x="370.669922"/>
     <use xlink:href="#DejaVuSans-20" x="434.146484"/>
     <use xlink:href="#DejaVuSans-43" x="465.933594"/>
     <use xlink:href="#DejaVuSans-75" x="535.757812"/>
     <use xlink:href="#DejaVuSans-72" x="599.136719"/>
     <use xlink:href="#DejaVuSans-76" x="640.25"/>
     <use xlink:href="#DejaVuSans-65" x="699.429688"/>
     <use xlink:href="#DejaVuSans-73" x="760.953125"/>
    </g>
   </g>
   <g id="legend_1">
    <g id="patch_7">
     <path d="M 214.18875 302.584 
L 407.72 302.584 
Q 409.72 302.584 409.72 300.584 
L 409.72 228.193375 
Q 409.72 226.193375 407.72 226.193375 
L 214.18875 226.193375 
Q 212.18875 226.193375 212.18875 228.193375 
L 212.18875 300.584 
Q 212.18875 302.584 214.18875 302.584 
z
" style="fill: #ffffff; opacity: 0.8; stroke: #cccccc; stroke-linejoin: miter"/>
    </g>
    <g id="line2d_23">
     <path d="M 216.18875 234.291812 
L 226.18875 234.291812 
L 236.18875 234.291812 
" style="fill: none; stroke: #1f77b4; stroke-width: 1.5; stroke-linecap: square"/>
    </g>
    <g id="text_21">
     <!-- Train Accuracy -->
     <g transform="translate(244.18875 237.791812) scale(0.1 -0.1)">
      <defs>
       <path id="DejaVuSans-54" d="M -19 4666 
L 3928 4666 
L 3928 4134 
L 2272 4134 
L 2272 0 
L 1638 0 
L 1638 4134 
L -19 4134 
L -19 4666 
z
" transform="scale(0.015625)"/>
      </defs>
      <use xlink:href="#DejaVuSans-54"/>
      <use xlink:href="#DejaVuSans-72" x="46.333984"/>
      <use xlink:href="#DejaVuSans-61" x="87.447266"/>
      <use xlink:href="#DejaVuSans-69" x="148.726562"/>
      <use xlink:href="#DejaVuSans-6e" x="176.509766"/>
      <use xlink:href="#DejaVuSans-20" x="239.888672"/>
      <use xlink:href="#DejaVuSans-41" x="271.675781"/>
      <use xlink:href="#DejaVuSans-63" x="338.333984"/>
      <use xlink:href="#DejaVuSans-63" x="393.314453"/>
      <use xlink:href="#DejaVuSans-75" x="448.294922"/>
      <use xlink:href="#DejaVuSans-72" x="511.673828"/>
      <use xlink:href="#DejaVuSans-61" x="552.787109"/>
      <use xlink:href="#DejaVuSans-63" x="614.066406"/>
      <use xlink:href="#DejaVuSans-79" x="669.046875"/>
     </g>
    </g>
    <g id="line2d_24">
     <path d="M 216.18875 248.969937 
L 226.18875 248.969937 
L 236.18875 248.969937 
" style="fill: none; stroke: #ff7f0e; stroke-width: 1.5; stroke-linecap: square"/>
    </g>
    <g id="text_22">
     <!-- Validation Accuracy -->
     <g transform="translate(244.18875 252.469937) scale(0.1 -0.1)">
      <defs>
       <path id="DejaVuSans-56" d="M 1831 0 
L 50 4666 
L 709 4666 
L 2188 738 
L 3669 4666 
L 4325 4666 
L 2547 0 
L 1831 0 
z
" transform="scale(0.015625)"/>
       <path id="DejaVuSans-6c" d="M 603 4863 
L 1178 4863 
L 1178 0 
L 603 0 
L 603 4863 
z
" transform="scale(0.015625)"/>
       <path id="DejaVuSans-64" d="M 2906 2969 
L 2906 4863 
L 3481 4863 
L 3481 0 
L 2906 0 
L 2906 525 
Q 2725 213 2448 61 
Q 2172 -91 1784 -91 
Q 1150 -91 751 415 
Q 353 922 353 1747 
Q 353 2572 751 3078 
Q 1150 3584 1784 3584 
Q 2172 3584 2448 3432 
Q 2725 3281 2906 2969 
z
M 947 1747 
Q 947 1113 1208 752 
Q 1469 391 1925 391 
Q 2381 391 2643 752 
Q 2906 1113 2906 1747 
Q 2906 2381 2643 2742 
Q 2381 3103 1925 3103 
Q 1469 3103 1208 2742 
Q 947 2381 947 1747 
z
" transform="scale(0.015625)"/>
       <path id="DejaVuSans-74" d="M 1172 4494 
L 1172 3500 
L 2356 3500 
L 2356 3053 
L 1172 3053 
L 1172 1153 
Q 1172 725 1289 603 
Q 1406 481 1766 481 
L 2356 481 
L 2356 0 
L 1766 0 
Q 1100 0 847 248 
Q 594 497 594 1153 
L 594 3053 
L 172 3053 
L 172 3500 
L 594 3500 
L 594 4494 
L 1172 4494 
z
" transform="scale(0.015625)"/>
      </defs>
      <use xlink:href="#DejaVuSans-56"/>
      <use xlink:href="#DejaVuSans-61" x="60.658203"/>
      <use xlink:href="#DejaVuSans-6c" x="121.9375"/>
      <use xlink:href="#DejaVuSans-69" x="149.720703"/>
      <use xlink:href="#DejaVuSans-64" x="177.503906"/>
      <use xlink:href="#DejaVuSans-61" x="240.980469"/>
      <use xlink:href="#DejaVuSans-74" x="302.259766"/>
      <use xlink:href="#DejaVuSans-69" x="341.46875"/>
      <use xlink:href="#DejaVuSans-6f" x="369.251953"/>
      <use xlink:href="#DejaVuSans-6e" x="430.433594"/>
      <use xlink:href="#DejaVuSans-20" x="493.8125"/>
      <use xlink:href="#DejaVuSans-41" x="525.599609"/>
      <use xlink:href="#DejaVuSans-63" x="592.257812"/>
      <use xlink:href="#DejaVuSans-63" x="647.238281"/>
      <use xlink:href="#DejaVuSans-75" x="702.21875"/>
      <use xlink:href="#DejaVuSans-72" x="765.597656"/>
      <use xlink:href="#DejaVuSans-61" x="806.710938"/>
      <use xlink:href="#DejaVuSans-63" x="867.990234"/>
      <use xlink:href="#DejaVuSans-79" x="922.970703"/>
     </g>
    </g>
    <g id="line2d_25">
     <path d="M 216.18875 263.648062 
L 226.18875 263.648062 
L 236.18875 263.648062 
" style="fill: none; stroke: #2ca02c; stroke-width: 1.5; stroke-linecap: square"/>
    </g>
    <g id="text_23">
     <!-- Robust Validation Accuracy -->
     <g transform="translate(244.18875 267.148062) scale(0.1 -0.1)">
      <defs>
       <path id="DejaVuSans-52" d="M 2841 2188 
Q 3044 2119 3236 1894 
Q 3428 1669 3622 1275 
L 4263 0 
L 3584 0 
L 2988 1197 
Q 2756 1666 2539 1819 
Q 2322 1972 1947 1972 
L 1259 1972 
L 1259 0 
L 628 0 
L 628 4666 
L 2053 4666 
Q 2853 4666 3247 4331 
Q 3641 3997 3641 3322 
Q 3641 2881 3436 2590 
Q 3231 2300 2841 2188 
z
M 1259 4147 
L 1259 2491 
L 2053 2491 
Q 2509 2491 2742 2702 
Q 2975 2913 2975 3322 
Q 2975 3731 2742 3939 
Q 2509 4147 2053 4147 
L 1259 4147 
z
" transform="scale(0.015625)"/>
       <path id="DejaVuSans-62" d="M 3116 1747 
Q 3116 2381 2855 2742 
Q 2594 3103 2138 3103 
Q 1681 3103 1420 2742 
Q 1159 2381 1159 1747 
Q 1159 1113 1420 752 
Q 1681 391 2138 391 
Q 2594 391 2855 752 
Q 3116 1113 3116 1747 
z
M 1159 2969 
Q 1341 3281 1617 3432 
Q 1894 3584 2278 3584 
Q 2916 3584 3314 3078 
Q 3713 2572 3713 1747 
Q 3713 922 3314 415 
Q 2916 -91 2278 -91 
Q 1894 -91 1617 61 
Q 1341 213 1159 525 
L 1159 0 
L 581 0 
L 581 4863 
L 1159 4863 
L 1159 2969 
z
" transform="scale(0.015625)"/>
      </defs>
      <use xlink:href="#DejaVuSans-52"/>
      <use xlink:href="#DejaVuSans-6f" x="64.982422"/>
      <use xlink:href="#DejaVuSans-62" x="126.164062"/>
      <use xlink:href="#DejaVuSans-75" x="189.640625"/>
      <use xlink:href="#DejaVuSans-73" x="253.019531"/>
      <use xlink:href="#DejaVuSans-74" x="305.119141"/>
      <use xlink:href="#DejaVuSans-20" x="344.328125"/>
      <use xlink:href="#DejaVuSans-56" x="376.115234"/>
      <use xlink:href="#DejaVuSans-61" x="436.773438"/>
      <use xlink:href="#DejaVuSans-6c" x="498.052734"/>
      <use xlink:href="#DejaVuSans-69" x="525.835938"/>
      <use xlink:href="#DejaVuSans-64" x="553.619141"/>
      <use xlink:href="#DejaVuSans-61" x="617.095703"/>
      <use xlink:href="#DejaVuSans-74" x="678.375"/>
      <use xlink:href="#DejaVuSans-69" x="717.583984"/>
      <use xlink:href="#DejaVuSans-6f" x="745.367188"/>
      <use xlink:href="#DejaVuSans-6e" x="806.548828"/>
      <use xlink:href="#DejaVuSans-20" x="869.927734"/>
      <use xlink:href="#DejaVuSans-41" x="901.714844"/>
      <use xlink:href="#DejaVuSans-63" x="968.373047"/>
      <use xlink:href="#DejaVuSans-63" x="1023.353516"/>
      <use xlink:href="#DejaVuSans-75" x="1078.333984"/>
      <use xlink:href="#DejaVuSans-72" x="1141.712891"/>
      <use xlink:href="#DejaVuSans-61" x="1182.826172"/>
      <use xlink:href="#DejaVuSans-63" x="1244.105469"/>
      <use xlink:href="#DejaVuSans-79" x="1299.085938"/>
     </g>
    </g>
    <g id="line2d_26">
     <path d="M 216.18875 278.326188 
L 226.18875 278.326188 
L 236.18875 278.326188 
" style="fill: none; stroke: #d62728; stroke-width: 1.5; stroke-linecap: square"/>
    </g>
    <g id="text_24">
     <!-- SWA Validation Accuracy -->
     <g transform="translate(244.18875 281.826188) scale(0.1 -0.1)">
      <defs>
       <path id="DejaVuSans-53" d="M 3425 4513 
L 3425 3897 
Q 3066 4069 2747 4153 
Q 2428 4238 2131 4238 
Q 1616 4238 1336 4038 
Q 1056 3838 1056 3469 
Q 1056 3159 1242 3001 
Q 1428 2844 1947 2747 
L 2328 2669 
Q 3034 2534 3370 2195 
Q 3706 1856 3706 1288 
Q 3706 609 3251 259 
Q 2797 -91 1919 -91 
Q 1588 -91 1214 -16 
Q 841 59 441 206 
L 441 856 
Q 825 641 1194 531 
Q 1563 422 1919 422 
Q 2459 422 2753 634 
Q 3047 847 3047 1241 
Q 3047 1584 2836 1778 
Q 2625 1972 2144 2069 
L 1759 2144 
Q 1053 2284 737 2584 
Q 422 2884 422 3419 
Q 422 4038 858 4394 
Q 1294 4750 2059 4750 
Q 2388 4750 2728 4690 
Q 3069 4631 3425 4513 
z
" transform="scale(0.015625)"/>
       <path id="DejaVuSans-57" d="M 213 4666 
L 850 4666 
L 1831 722 
L 2809 4666 
L 3519 4666 
L 4500 722 
L 5478 4666 
L 6119 4666 
L 4947 0 
L 4153 0 
L 3169 4050 
L 2175 0 
L 1381 0 
L 213 4666 
z
" transform="scale(0.015625)"/>
      </defs>
      <use xlink:href="#DejaVuSans-53"/>
      <use xlink:href="#DejaVuSans-57" x="63.476562"/>
      <use xlink:href="#DejaVuSans-41" x="156.853516"/>
      <use xlink:href="#DejaVuSans-20" x="225.261719"/>
      <use xlink:href="#DejaVuSans-56" x="257.048828"/>
      <use xlink:href="#DejaVuSans-61" x="317.707031"/>
      <use xlink:href="#DejaVuSans-6c" x="378.986328"/>
      <use xlink:href="#DejaVuSans-69" x="406.769531"/>
      <use xlink:href="#DejaVuSans-64" x="434.552734"/>
      <use xlink:href="#DejaVuSans-61" x="498.029297"/>
      <use xlink:href="#DejaVuSans-74" x="559.308594"/>
      <use xlink:href="#DejaVuSans-69" x="598.517578"/>
      <use xlink:href="#DejaVuSans-6f" x="626.300781"/>
      <use xlink:href="#DejaVuSans-6e" x="687.482422"/>
      <use xlink:href="#DejaVuSans-20" x="750.861328"/>
      <use xlink:href="#DejaVuSans-41" x="782.648438"/>
      <use xlink:href="#DejaVuSans-63" x="849.306641"/>
      <use xlink:href="#DejaVuSans-63" x="904.287109"/>
      <use xlink:href="#DejaVuSans-75" x="959.267578"/>
      <use xlink:href="#DejaVuSans-72" x="1022.646484"/>
      <use xlink:href="#DejaVuSans-61" x="1063.759766"/>
      <use xlink:href="#DejaVuSans-63" x="1125.039062"/>
      <use xlink:href="#DejaVuSans-79" x="1180.019531"/>
     </g>
    </g>
    <g id="line2d_27">
     <path d="M 216.18875 293.004312 
L 226.18875 293.004312 
L 236.18875 293.004312 
" style="fill: none; stroke: #9467bd; stroke-width: 1.5; stroke-linecap: square"/>
    </g>
    <g id="text_25">
     <!-- SWA Robust Validation Accuracy -->
     <g transform="translate(244.18875 296.504312) scale(0.1 -0.1)">
      <use xlink:href="#DejaVuSans-53"/>
      <use xlink:href="#DejaVuSans-57" x="63.476562"/>
      <use xlink:href="#DejaVuSans-41" x="156.853516"/>
      <use xlink:href="#DejaVuSans-20" x="225.261719"/>
      <use xlink:href="#DejaVuSans-52" x="257.048828"/>
      <use xlink:href="#DejaVuSans-6f" x="322.03125"/>
      <use xlink:href="#DejaVuSans-62" x="383.212891"/>
      <use xlink:href="#DejaVuSans-75" x="446.689453"/>
      <use xlink:href="#DejaVuSans-73" x="510.068359"/>
      <use xlink:href="#DejaVuSans-74" x="562.167969"/>
      <use xlink:href="#DejaVuSans-20" x="601.376953"/>
      <use xlink:href="#DejaVuSans-56" x="633.164062"/>
      <use xlink:href="#DejaVuSans-61" x="693.822266"/>
      <use xlink:href="#DejaVuSans-6c" x="755.101562"/>
      <use xlink:href="#DejaVuSans-69" x="782.884766"/>
      <use xlink:href="#DejaVuSans-64" x="810.667969"/>
      <use xlink:href="#DejaVuSans-61" x="874.144531"/>
      <use xlink:href="#DejaVuSans-74" x="935.423828"/>
      <use xlink:href="#DejaVuSans-69" x="974.632812"/>
      <use xlink:href="#DejaVuSans-6f" x="1002.416016"/>
      <use xlink:href="#DejaVuSans-6e" x="1063.597656"/>
      <use xlink:href="#DejaVuSans-20" x="1126.976562"/>
      <use xlink:href="#DejaVuSans-41" x="1158.763672"/>
      <use xlink:href="#DejaVuSans-63" x="1225.421875"/>
      <use xlink:href="#DejaVuSans-63" x="1280.402344"/>
      <use xlink:href="#DejaVuSans-75" x="1335.382812"/>
      <use xlink:href="#DejaVuSans-72" x="1398.761719"/>
      <use xlink:href="#DejaVuSans-61" x="1439.875"/>
      <use xlink:href="#DejaVuSans-63" x="1501.154297"/>
      <use xlink:href="#DejaVuSans-79" x="1556.134766"/>
     </g>
    </g>
   </g>
  </g>
 </g>
 <defs>
  <clipPath id="pb204d53cfa">
   <rect x="57.6" y="41.472" width="357.12" height="266.112"/>
  </clipPath>
 </defs>
</svg>
