<?xml version="1.0" encoding="utf-8" standalone="no"?>
<!DOCTYPE svg PUBLIC "-//W3C//DTD SVG 1.1//EN"
  "http://www.w3.org/Graphics/SVG/1.1/DTD/svg11.dtd">
<svg xmlns:xlink="http://www.w3.org/1999/xlink" width="460.8pt" height="345.6pt" viewBox="0 0 460.8 345.6" xmlns="http://www.w3.org/2000/svg" version="1.1">
 <metadata>
  <rdf:RDF xmlns:dc="http://purl.org/dc/elements/1.1/" xmlns:cc="http://creativecommons.org/ns#" xmlns:rdf="http://www.w3.org/1999/02/22-rdf-syntax-ns#">
   <cc:Work>
    <dc:type rdf:resource="http://purl.org/dc/dcmitype/StillImage"/>
    <dc:date>2025-03-27T20:23:03.995951</dc:date>
    <dc:format>image/svg+xml</dc:format>
    <dc:creator>
     <cc:Agent>
      <dc:title>Matplotlib v3.9.1, https://matplotlib.org/</dc:title>
     </cc:Agent>
    </dc:creator>
   </cc:Work>
  </rdf:RDF>
 </metadata>
 <defs>
  <style type="text/css">*{stroke-linejoin: round; stroke-linecap: butt}</style>
 </defs>
 <g id="figure_1">
  <g id="patch_1">
   <path d="M 0 345.6 
L 460.8 345.6 
L 460.8 0 
L 0 0 
z
" style="fill: #ffffff"/>
  </g>
  <g id="axes_1">
   <g id="patch_2">
    <path d="M 57.6 307.584 
L 414.72 307.584 
L 414.72 41.472 
L 57.6 41.472 
z
" style="fill: #ffffff"/>
   </g>
   <g id="matplotlib.axis_1">
    <g id="xtick_1">
     <g id="line2d_1">
      <defs>
       <path id="me35d209748" d="M 0 0 
L 0 3.5 
" style="stroke: #000000; stroke-width: 0.8"/>
      </defs>
      <g>
       <use xlink:href="#me35d209748" x="73.832727" y="307.584" style="stroke: #000000; stroke-width: 0.8"/>
      </g>
     </g>
     <g id="text_1">
      <!-- 1 -->
      <g transform="translate(70.651477 322.182437) scale(0.1 -0.1)">
       <defs>
        <path id="DejaVuSans-31" d="M 794 531 
L 1825 531 
L 1825 4091 
L 703 3866 
L 703 4441 
L 1819 4666 
L 2450 4666 
L 2450 531 
L 3481 531 
L 3481 0 
L 794 0 
L 794 531 
z
" transform="scale(0.015625)"/>
       </defs>
       <use xlink:href="#DejaVuSans-31"/>
      </g>
     </g>
    </g>
    <g id="xtick_2">
     <g id="line2d_2">
      <g>
       <use xlink:href="#me35d209748" x="109.664165" y="307.584" style="stroke: #000000; stroke-width: 0.8"/>
      </g>
     </g>
     <g id="text_2">
      <!-- 34 -->
      <g transform="translate(103.301665 322.182437) scale(0.1 -0.1)">
       <defs>
        <path id="DejaVuSans-33" d="M 2597 2516 
Q 3050 2419 3304 2112 
Q 3559 1806 3559 1356 
Q 3559 666 3084 287 
Q 2609 -91 1734 -91 
Q 1441 -91 1130 -33 
Q 819 25 488 141 
L 488 750 
Q 750 597 1062 519 
Q 1375 441 1716 441 
Q 2309 441 2620 675 
Q 2931 909 2931 1356 
Q 2931 1769 2642 2001 
Q 2353 2234 1838 2234 
L 1294 2234 
L 1294 2753 
L 1863 2753 
Q 2328 2753 2575 2939 
Q 2822 3125 2822 3475 
Q 2822 3834 2567 4026 
Q 2313 4219 1838 4219 
Q 1578 4219 1281 4162 
Q 984 4106 628 3988 
L 628 4550 
Q 988 4650 1302 4700 
Q 1616 4750 1894 4750 
Q 2613 4750 3031 4423 
Q 3450 4097 3450 3541 
Q 3450 3153 3228 2886 
Q 3006 2619 2597 2516 
z
" transform="scale(0.015625)"/>
        <path id="DejaVuSans-34" d="M 2419 4116 
L 825 1625 
L 2419 1625 
L 2419 4116 
z
M 2253 4666 
L 3047 4666 
L 3047 1625 
L 3713 1625 
L 3713 1100 
L 3047 1100 
L 3047 0 
L 2419 0 
L 2419 1100 
L 313 1100 
L 313 1709 
L 2253 4666 
z
" transform="scale(0.015625)"/>
       </defs>
       <use xlink:href="#DejaVuSans-33"/>
       <use xlink:href="#DejaVuSans-34" x="63.623047"/>
      </g>
     </g>
    </g>
    <g id="xtick_3">
     <g id="line2d_3">
      <g>
       <use xlink:href="#me35d209748" x="145.495604" y="307.584" style="stroke: #000000; stroke-width: 0.8"/>
      </g>
     </g>
     <g id="text_3">
      <!-- 67 -->
      <g transform="translate(139.133104 322.182437) scale(0.1 -0.1)">
       <defs>
        <path id="DejaVuSans-36" d="M 2113 2584 
Q 1688 2584 1439 2293 
Q 1191 2003 1191 1497 
Q 1191 994 1439 701 
Q 1688 409 2113 409 
Q 2538 409 2786 701 
Q 3034 994 3034 1497 
Q 3034 2003 2786 2293 
Q 2538 2584 2113 2584 
z
M 3366 4563 
L 3366 3988 
Q 3128 4100 2886 4159 
Q 2644 4219 2406 4219 
Q 1781 4219 1451 3797 
Q 1122 3375 1075 2522 
Q 1259 2794 1537 2939 
Q 1816 3084 2150 3084 
Q 2853 3084 3261 2657 
Q 3669 2231 3669 1497 
Q 3669 778 3244 343 
Q 2819 -91 2113 -91 
Q 1303 -91 875 529 
Q 447 1150 447 2328 
Q 447 3434 972 4092 
Q 1497 4750 2381 4750 
Q 2619 4750 2861 4703 
Q 3103 4656 3366 4563 
z
" transform="scale(0.015625)"/>
        <path id="DejaVuSans-37" d="M 525 4666 
L 3525 4666 
L 3525 4397 
L 1831 0 
L 1172 0 
L 2766 4134 
L 525 4134 
L 525 4666 
z
" transform="scale(0.015625)"/>
       </defs>
       <use xlink:href="#DejaVuSans-36"/>
       <use xlink:href="#DejaVuSans-37" x="63.623047"/>
      </g>
     </g>
    </g>
    <g id="xtick_4">
     <g id="line2d_4">
      <g>
       <use xlink:href="#me35d209748" x="181.327042" y="307.584" style="stroke: #000000; stroke-width: 0.8"/>
      </g>
     </g>
     <g id="text_4">
      <!-- 100 -->
      <g transform="translate(171.783292 322.182437) scale(0.1 -0.1)">
       <defs>
        <path id="DejaVuSans-30" d="M 2034 4250 
Q 1547 4250 1301 3770 
Q 1056 3291 1056 2328 
Q 1056 1369 1301 889 
Q 1547 409 2034 409 
Q 2525 409 2770 889 
Q 3016 1369 3016 2328 
Q 3016 3291 2770 3770 
Q 2525 4250 2034 4250 
z
M 2034 4750 
Q 2819 4750 3233 4129 
Q 3647 3509 3647 2328 
Q 3647 1150 3233 529 
Q 2819 -91 2034 -91 
Q 1250 -91 836 529 
Q 422 1150 422 2328 
Q 422 3509 836 4129 
Q 1250 4750 2034 4750 
z
" transform="scale(0.015625)"/>
       </defs>
       <use xlink:href="#DejaVuSans-31"/>
       <use xlink:href="#DejaVuSans-30" x="63.623047"/>
       <use xlink:href="#DejaVuSans-30" x="127.246094"/>
      </g>
     </g>
    </g>
    <g id="xtick_5">
     <g id="line2d_5">
      <g>
       <use xlink:href="#me35d209748" x="217.15848" y="307.584" style="stroke: #000000; stroke-width: 0.8"/>
      </g>
     </g>
     <g id="text_5">
      <!-- 133 -->
      <g transform="translate(207.61473 322.182437) scale(0.1 -0.1)">
       <use xlink:href="#DejaVuSans-31"/>
       <use xlink:href="#DejaVuSans-33" x="63.623047"/>
       <use xlink:href="#DejaVuSans-33" x="127.246094"/>
      </g>
     </g>
    </g>
    <g id="xtick_6">
     <g id="line2d_6">
      <g>
       <use xlink:href="#me35d209748" x="254.075719" y="307.584" style="stroke: #000000; stroke-width: 0.8"/>
      </g>
     </g>
     <g id="text_6">
      <!-- 167 -->
      <g transform="translate(244.531969 322.182437) scale(0.1 -0.1)">
       <use xlink:href="#DejaVuSans-31"/>
       <use xlink:href="#DejaVuSans-36" x="63.623047"/>
       <use xlink:href="#DejaVuSans-37" x="127.246094"/>
      </g>
     </g>
    </g>
    <g id="xtick_7">
     <g id="line2d_7">
      <g>
       <use xlink:href="#me35d209748" x="289.907157" y="307.584" style="stroke: #000000; stroke-width: 0.8"/>
      </g>
     </g>
     <g id="text_7">
      <!-- 200 -->
      <g transform="translate(280.363407 322.182437) scale(0.1 -0.1)">
       <defs>
        <path id="DejaVuSans-32" d="M 1228 531 
L 3431 531 
L 3431 0 
L 469 0 
L 469 531 
Q 828 903 1448 1529 
Q 2069 2156 2228 2338 
Q 2531 2678 2651 2914 
Q 2772 3150 2772 3378 
Q 2772 3750 2511 3984 
Q 2250 4219 1831 4219 
Q 1534 4219 1204 4116 
Q 875 4013 500 3803 
L 500 4441 
Q 881 4594 1212 4672 
Q 1544 4750 1819 4750 
Q 2544 4750 2975 4387 
Q 3406 4025 3406 3419 
Q 3406 3131 3298 2873 
Q 3191 2616 2906 2266 
Q 2828 2175 2409 1742 
Q 1991 1309 1228 531 
z
" transform="scale(0.015625)"/>
       </defs>
       <use xlink:href="#DejaVuSans-32"/>
       <use xlink:href="#DejaVuSans-30" x="63.623047"/>
       <use xlink:href="#DejaVuSans-30" x="127.246094"/>
      </g>
     </g>
    </g>
    <g id="xtick_8">
     <g id="line2d_8">
      <g>
       <use xlink:href="#me35d209748" x="325.738595" y="307.584" style="stroke: #000000; stroke-width: 0.8"/>
      </g>
     </g>
     <g id="text_8">
      <!-- 233 -->
      <g transform="translate(316.194845 322.182437) scale(0.1 -0.1)">
       <use xlink:href="#DejaVuSans-32"/>
       <use xlink:href="#DejaVuSans-33" x="63.623047"/>
       <use xlink:href="#DejaVuSans-33" x="127.246094"/>
      </g>
     </g>
    </g>
    <g id="xtick_9">
     <g id="line2d_9">
      <g>
       <use xlink:href="#me35d209748" x="361.570033" y="307.584" style="stroke: #000000; stroke-width: 0.8"/>
      </g>
     </g>
     <g id="text_9">
      <!-- 266 -->
      <g transform="translate(352.026283 322.182437) scale(0.1 -0.1)">
       <use xlink:href="#DejaVuSans-32"/>
       <use xlink:href="#DejaVuSans-36" x="63.623047"/>
       <use xlink:href="#DejaVuSans-36" x="127.246094"/>
      </g>
     </g>
    </g>
    <g id="xtick_10">
     <g id="line2d_10">
      <g>
       <use xlink:href="#me35d209748" x="398.487273" y="307.584" style="stroke: #000000; stroke-width: 0.8"/>
      </g>
     </g>
     <g id="text_10">
      <!-- 300 -->
      <g transform="translate(388.943523 322.182437) scale(0.1 -0.1)">
       <use xlink:href="#DejaVuSans-33"/>
       <use xlink:href="#DejaVuSans-30" x="63.623047"/>
       <use xlink:href="#DejaVuSans-30" x="127.246094"/>
      </g>
     </g>
    </g>
    <g id="text_11">
     <!-- Epochs -->
     <g transform="translate(218.244375 335.860562) scale(0.1 -0.1)">
      <defs>
       <path id="DejaVuSans-45" d="M 628 4666 
L 3578 4666 
L 3578 4134 
L 1259 4134 
L 1259 2753 
L 3481 2753 
L 3481 2222 
L 1259 2222 
L 1259 531 
L 3634 531 
L 3634 0 
L 628 0 
L 628 4666 
z
" transform="scale(0.015625)"/>
       <path id="DejaVuSans-70" d="M 1159 525 
L 1159 -1331 
L 581 -1331 
L 581 3500 
L 1159 3500 
L 1159 2969 
Q 1341 3281 1617 3432 
Q 1894 3584 2278 3584 
Q 2916 3584 3314 3078 
Q 3713 2572 3713 1747 
Q 3713 922 3314 415 
Q 2916 -91 2278 -91 
Q 1894 -91 1617 61 
Q 1341 213 1159 525 
z
M 3116 1747 
Q 3116 2381 2855 2742 
Q 2594 3103 2138 3103 
Q 1681 3103 1420 2742 
Q 1159 2381 1159 1747 
Q 1159 1113 1420 752 
Q 1681 391 2138 391 
Q 2594 391 2855 752 
Q 3116 1113 3116 1747 
z
" transform="scale(0.015625)"/>
       <path id="DejaVuSans-6f" d="M 1959 3097 
Q 1497 3097 1228 2736 
Q 959 2375 959 1747 
Q 959 1119 1226 758 
Q 1494 397 1959 397 
Q 2419 397 2687 759 
Q 2956 1122 2956 1747 
Q 2956 2369 2687 2733 
Q 2419 3097 1959 3097 
z
M 1959 3584 
Q 2709 3584 3137 3096 
Q 3566 2609 3566 1747 
Q 3566 888 3137 398 
Q 2709 -91 1959 -91 
Q 1206 -91 779 398 
Q 353 888 353 1747 
Q 353 2609 779 3096 
Q 1206 3584 1959 3584 
z
" transform="scale(0.015625)"/>
       <path id="DejaVuSans-63" d="M 3122 3366 
L 3122 2828 
Q 2878 2963 2633 3030 
Q 2388 3097 2138 3097 
Q 1578 3097 1268 2742 
Q 959 2388 959 1747 
Q 959 1106 1268 751 
Q 1578 397 2138 397 
Q 2388 397 2633 464 
Q 2878 531 3122 666 
L 3122 134 
Q 2881 22 2623 -34 
Q 2366 -91 2075 -91 
Q 1284 -91 818 406 
Q 353 903 353 1747 
Q 353 2603 823 3093 
Q 1294 3584 2113 3584 
Q 2378 3584 2631 3529 
Q 2884 3475 3122 3366 
z
" transform="scale(0.015625)"/>
       <path id="DejaVuSans-68" d="M 3513 2113 
L 3513 0 
L 2938 0 
L 2938 2094 
Q 2938 2591 2744 2837 
Q 2550 3084 2163 3084 
Q 1697 3084 1428 2787 
Q 1159 2491 1159 1978 
L 1159 0 
L 581 0 
L 581 4863 
L 1159 4863 
L 1159 2956 
Q 1366 3272 1645 3428 
Q 1925 3584 2291 3584 
Q 2894 3584 3203 3211 
Q 3513 2838 3513 2113 
z
" transform="scale(0.015625)"/>
       <path id="DejaVuSans-73" d="M 2834 3397 
L 2834 2853 
Q 2591 2978 2328 3040 
Q 2066 3103 1784 3103 
Q 1356 3103 1142 2972 
Q 928 2841 928 2578 
Q 928 2378 1081 2264 
Q 1234 2150 1697 2047 
L 1894 2003 
Q 2506 1872 2764 1633 
Q 3022 1394 3022 966 
Q 3022 478 2636 193 
Q 2250 -91 1575 -91 
Q 1294 -91 989 -36 
Q 684 19 347 128 
L 347 722 
Q 666 556 975 473 
Q 1284 391 1588 391 
Q 1994 391 2212 530 
Q 2431 669 2431 922 
Q 2431 1156 2273 1281 
Q 2116 1406 1581 1522 
L 1381 1569 
Q 847 1681 609 1914 
Q 372 2147 372 2553 
Q 372 3047 722 3315 
Q 1072 3584 1716 3584 
Q 2034 3584 2315 3537 
Q 2597 3491 2834 3397 
z
" transform="scale(0.015625)"/>
      </defs>
      <use xlink:href="#DejaVuSans-45"/>
      <use xlink:href="#DejaVuSans-70" x="63.183594"/>
      <use xlink:href="#DejaVuSans-6f" x="126.660156"/>
      <use xlink:href="#DejaVuSans-63" x="187.841797"/>
      <use xlink:href="#DejaVuSans-68" x="242.822266"/>
      <use xlink:href="#DejaVuSans-73" x="306.201172"/>
     </g>
    </g>
   </g>
   <g id="matplotlib.axis_2">
    <g id="ytick_1">
     <g id="line2d_11">
      <defs>
       <path id="m27722e2028" d="M 0 0 
L -3.5 0 
" style="stroke: #000000; stroke-width: 0.8"/>
      </defs>
      <g>
       <use xlink:href="#m27722e2028" x="57.6" y="272.505816" style="stroke: #000000; stroke-width: 0.8"/>
      </g>
     </g>
     <g id="text_12">
      <!-- 10 -->
      <g transform="translate(37.875 276.305034) scale(0.1 -0.1)">
       <use xlink:href="#DejaVuSans-31"/>
       <use xlink:href="#DejaVuSans-30" x="63.623047"/>
      </g>
     </g>
    </g>
    <g id="ytick_2">
     <g id="line2d_12">
      <g>
       <use xlink:href="#m27722e2028" x="57.6" y="236.584927" style="stroke: #000000; stroke-width: 0.8"/>
      </g>
     </g>
     <g id="text_13">
      <!-- 20 -->
      <g transform="translate(37.875 240.384146) scale(0.1 -0.1)">
       <use xlink:href="#DejaVuSans-32"/>
       <use xlink:href="#DejaVuSans-30" x="63.623047"/>
      </g>
     </g>
    </g>
    <g id="ytick_3">
     <g id="line2d_13">
      <g>
       <use xlink:href="#m27722e2028" x="57.6" y="200.664038" style="stroke: #000000; stroke-width: 0.8"/>
      </g>
     </g>
     <g id="text_14">
      <!-- 30 -->
      <g transform="translate(37.875 204.463257) scale(0.1 -0.1)">
       <use xlink:href="#DejaVuSans-33"/>
       <use xlink:href="#DejaVuSans-30" x="63.623047"/>
      </g>
     </g>
    </g>
    <g id="ytick_4">
     <g id="line2d_14">
      <g>
       <use xlink:href="#m27722e2028" x="57.6" y="164.74315" style="stroke: #000000; stroke-width: 0.8"/>
      </g>
     </g>
     <g id="text_15">
      <!-- 40 -->
      <g transform="translate(37.875 168.542369) scale(0.1 -0.1)">
       <use xlink:href="#DejaVuSans-34"/>
       <use xlink:href="#DejaVuSans-30" x="63.623047"/>
      </g>
     </g>
    </g>
    <g id="ytick_5">
     <g id="line2d_15">
      <g>
       <use xlink:href="#m27722e2028" x="57.6" y="128.822261" style="stroke: #000000; stroke-width: 0.8"/>
      </g>
     </g>
     <g id="text_16">
      <!-- 50 -->
      <g transform="translate(37.875 132.62148) scale(0.1 -0.1)">
       <defs>
        <path id="DejaVuSans-35" d="M 691 4666 
L 3169 4666 
L 3169 4134 
L 1269 4134 
L 1269 2991 
Q 1406 3038 1543 3061 
Q 1681 3084 1819 3084 
Q 2600 3084 3056 2656 
Q 3513 2228 3513 1497 
Q 3513 744 3044 326 
Q 2575 -91 1722 -91 
Q 1428 -91 1123 -41 
Q 819 9 494 109 
L 494 744 
Q 775 591 1075 516 
Q 1375 441 1709 441 
Q 2250 441 2565 725 
Q 2881 1009 2881 1497 
Q 2881 1984 2565 2268 
Q 2250 2553 1709 2553 
Q 1456 2553 1204 2497 
Q 953 2441 691 2322 
L 691 4666 
z
" transform="scale(0.015625)"/>
       </defs>
       <use xlink:href="#DejaVuSans-35"/>
       <use xlink:href="#DejaVuSans-30" x="63.623047"/>
      </g>
     </g>
    </g>
    <g id="ytick_6">
     <g id="line2d_16">
      <g>
       <use xlink:href="#m27722e2028" x="57.6" y="92.901373" style="stroke: #000000; stroke-width: 0.8"/>
      </g>
     </g>
     <g id="text_17">
      <!-- 60 -->
      <g transform="translate(37.875 96.700592) scale(0.1 -0.1)">
       <use xlink:href="#DejaVuSans-36"/>
       <use xlink:href="#DejaVuSans-30" x="63.623047"/>
      </g>
     </g>
    </g>
    <g id="ytick_7">
     <g id="line2d_17">
      <g>
       <use xlink:href="#m27722e2028" x="57.6" y="56.980484" style="stroke: #000000; stroke-width: 0.8"/>
      </g>
     </g>
     <g id="text_18">
      <!-- 70 -->
      <g transform="translate(37.875 60.779703) scale(0.1 -0.1)">
       <use xlink:href="#DejaVuSans-37"/>
       <use xlink:href="#DejaVuSans-30" x="63.623047"/>
      </g>
     </g>
    </g>
    <g id="text_19">
     <!-- Accuracy -->
     <g transform="translate(31.795312 197.356125) rotate(-90) scale(0.1 -0.1)">
      <defs>
       <path id="DejaVuSans-41" d="M 2188 4044 
L 1331 1722 
L 3047 1722 
L 2188 4044 
z
M 1831 4666 
L 2547 4666 
L 4325 0 
L 3669 0 
L 3244 1197 
L 1141 1197 
L 716 0 
L 50 0 
L 1831 4666 
z
" transform="scale(0.015625)"/>
       <path id="DejaVuSans-75" d="M 544 1381 
L 544 3500 
L 1119 3500 
L 1119 1403 
Q 1119 906 1312 657 
Q 1506 409 1894 409 
Q 2359 409 2629 706 
Q 2900 1003 2900 1516 
L 2900 3500 
L 3475 3500 
L 3475 0 
L 2900 0 
L 2900 538 
Q 2691 219 2414 64 
Q 2138 -91 1772 -91 
Q 1169 -91 856 284 
Q 544 659 544 1381 
z
M 1991 3584 
L 1991 3584 
z
" transform="scale(0.015625)"/>
       <path id="DejaVuSans-72" d="M 2631 2963 
Q 2534 3019 2420 3045 
Q 2306 3072 2169 3072 
Q 1681 3072 1420 2755 
Q 1159 2438 1159 1844 
L 1159 0 
L 581 0 
L 581 3500 
L 1159 3500 
L 1159 2956 
Q 1341 3275 1631 3429 
Q 1922 3584 2338 3584 
Q 2397 3584 2469 3576 
Q 2541 3569 2628 3553 
L 2631 2963 
z
" transform="scale(0.015625)"/>
       <path id="DejaVuSans-61" d="M 2194 1759 
Q 1497 1759 1228 1600 
Q 959 1441 959 1056 
Q 959 750 1161 570 
Q 1363 391 1709 391 
Q 2188 391 2477 730 
Q 2766 1069 2766 1631 
L 2766 1759 
L 2194 1759 
z
M 3341 1997 
L 3341 0 
L 2766 0 
L 2766 531 
Q 2569 213 2275 61 
Q 1981 -91 1556 -91 
Q 1019 -91 701 211 
Q 384 513 384 1019 
Q 384 1609 779 1909 
Q 1175 2209 1959 2209 
L 2766 2209 
L 2766 2266 
Q 2766 2663 2505 2880 
Q 2244 3097 1772 3097 
Q 1472 3097 1187 3025 
Q 903 2953 641 2809 
L 641 3341 
Q 956 3463 1253 3523 
Q 1550 3584 1831 3584 
Q 2591 3584 2966 3190 
Q 3341 2797 3341 1997 
z
" transform="scale(0.015625)"/>
       <path id="DejaVuSans-79" d="M 2059 -325 
Q 1816 -950 1584 -1140 
Q 1353 -1331 966 -1331 
L 506 -1331 
L 506 -850 
L 844 -850 
Q 1081 -850 1212 -737 
Q 1344 -625 1503 -206 
L 1606 56 
L 191 3500 
L 800 3500 
L 1894 763 
L 2988 3500 
L 3597 3500 
L 2059 -325 
z
" transform="scale(0.015625)"/>
      </defs>
      <use xlink:href="#DejaVuSans-41"/>
      <use xlink:href="#DejaVuSans-63" x="66.658203"/>
      <use xlink:href="#DejaVuSans-63" x="121.638672"/>
      <use xlink:href="#DejaVuSans-75" x="176.619141"/>
      <use xlink:href="#DejaVuSans-72" x="239.998047"/>
      <use xlink:href="#DejaVuSans-61" x="281.111328"/>
      <use xlink:href="#DejaVuSans-63" x="342.390625"/>
      <use xlink:href="#DejaVuSans-79" x="397.371094"/>
     </g>
    </g>
   </g>
   <g id="line2d_18">
    <path d="M 73.832727 295.488 
L 74.918528 279.197877 
L 77.090131 252.469144 
L 79.261733 233.930373 
L 80.347534 226.810853 
L 81.433335 218.814863 
L 82.519137 213.132179 
L 83.604938 206.170711 
L 87.948142 188.346766 
L 89.033943 184.348771 
L 90.119745 180.842892 
L 91.205546 177.944076 
L 92.291347 175.88581 
L 93.377148 174.933906 
L 94.462949 174.147239 
L 95.54875 201.978743 
L 96.634552 200.157554 
L 97.720353 197.819104 
L 98.806154 194.327594 
L 99.891955 191.619159 
L 100.977756 189.348959 
L 103.149358 182.265359 
L 104.23516 181.546942 
L 105.320961 178.418232 
L 106.406762 176.033085 
L 107.492563 174.118502 
L 108.578364 172.581088 
L 109.664165 171.241239 
L 111.835768 165.70583 
L 112.921569 165.026925 
L 114.00737 161.459981 
L 115.093171 160.590695 
L 116.178972 158.166035 
L 117.264773 155.396535 
L 118.350575 154.15008 
L 120.522177 149.71385 
L 121.607978 148.776315 
L 122.693779 145.996038 
L 123.77958 144.246691 
L 124.865382 142.978684 
L 125.951183 141.161087 
L 127.036984 140.004434 
L 128.122785 137.57259 
L 129.208586 135.916637 
L 130.294387 134.609117 
L 131.380189 133.718279 
L 132.46599 132.177272 
L 133.551791 130.909265 
L 134.637592 131.713893 
L 135.723393 130.269873 
L 136.809194 130.309386 
L 137.894995 130.022019 
L 138.980797 165.831553 
L 140.066598 167.904188 
L 141.152399 166.564339 
L 142.2382 166.165617 
L 143.324001 165.447199 
L 145.495604 162.49091 
L 146.581405 162.275385 
L 147.667206 160.906799 
L 148.753007 160.263815 
L 149.838808 158.873677 
L 150.924609 159.06765 
L 152.01041 157.138698 
L 153.096212 156.664542 
L 154.182013 155.568955 
L 155.267814 156.017966 
L 157.439416 151.585329 
L 158.525217 151.775709 
L 159.611019 151.448829 
L 160.69682 150.669346 
L 161.782621 149.04213 
L 162.868422 148.496132 
L 163.954223 148.708065 
L 165.040024 146.832995 
L 166.125825 144.397559 
L 167.211627 146.075064 
L 168.297428 144.203586 
L 169.383229 144.135336 
L 170.46903 143.632444 
L 171.554831 141.883097 
L 172.640632 141.405349 
L 173.726434 140.439077 
L 174.812235 139.077675 
L 175.898036 138.420323 
L 176.983837 136.132162 
L 178.069638 137.6588 
L 179.155439 136.491371 
L 180.24124 136.412345 
L 181.327042 134.576788 
L 182.412843 133.466832 
L 183.498644 131.739038 
L 184.584445 131.02062 
L 185.670246 130.072308 
L 186.756047 129.702323 
L 187.841849 128.617512 
L 188.92765 126.929231 
L 190.013451 126.993888 
L 192.185053 124.694951 
L 193.270854 122.220002 
L 194.356656 123.096472 
L 195.442457 121.770991 
L 199.785661 118.024442 
L 200.871462 117.708339 
L 201.957264 115.44173 
L 203.043065 115.003496 
L 205.214667 113.22182 
L 206.300468 112.833874 
L 207.386269 109.963795 
L 208.472071 110.340964 
L 209.557872 108.799958 
L 211.729474 109.21664 
L 212.815275 108.914905 
L 213.901076 107.219439 
L 214.986877 107.201479 
L 217.15848 105.344369 
L 218.244281 105.13962 
L 219.330082 104.406834 
L 220.415883 104.913318 
L 221.501684 104.083546 
L 222.587486 103.893165 
L 223.673287 104.24519 
L 224.759088 103.993743 
L 225.844889 149.167853 
L 226.93069 152.03434 
L 228.016491 152.397141 
L 229.102292 153.190992 
L 230.188094 151.513487 
L 231.273895 150.094612 
L 232.359696 150.751964 
L 233.445497 148.80146 
L 234.531298 149.649193 
L 235.617099 148.323712 
L 236.702901 147.493939 
L 237.788702 147.519084 
L 238.874503 146.743193 
L 239.960304 146.628246 
L 241.046105 145.371015 
L 242.131906 146.251077 
L 243.217708 144.735215 
L 244.303509 145.004622 
L 246.475111 143.722246 
L 247.560912 145.033358 
L 248.646713 143.359445 
L 249.732514 143.668365 
L 250.818316 142.81704 
L 251.904117 142.195608 
L 252.989918 142.202792 
L 254.075719 140.898864 
L 255.16152 140.636642 
L 256.247321 141.76815 
L 257.333123 140.809062 
L 258.418924 139.487173 
L 259.504725 140.503734 
L 260.590526 139.673962 
L 261.676327 139.368634 
L 262.762128 140.036763 
L 263.847929 138.032377 
L 264.933731 137.50434 
L 266.019532 138.94836 
L 267.105333 137.6588 
L 268.191134 137.295999 
L 269.276935 137.098434 
L 270.362736 137.112803 
L 271.448538 136.146531 
L 272.534339 135.643638 
L 273.62014 134.986286 
L 274.705941 134.537275 
L 275.791742 134.763576 
L 276.877543 133.563819 
L 277.963344 133.337517 
L 279.049146 134.627077 
L 280.134947 134.433104 
L 281.220748 133.139952 
L 282.306549 133.168689 
L 283.39235 133.337517 
L 284.478151 132.094654 
L 285.563953 132.525705 
L 286.649754 132.288627 
L 287.735555 130.496175 
L 288.821356 130.729661 
L 289.907157 129.960954 
L 290.992958 129.659218 
L 292.07876 128.944392 
L 293.164561 130.449478 
L 294.250362 127.690753 
L 295.336163 128.631881 
L 296.421964 127.791332 
L 297.507765 127.988897 
L 298.593566 125.962959 
L 299.679368 126.8071 
L 300.765169 126.82506 
L 301.85097 126.458667 
L 302.936771 125.305606 
L 304.022572 125.255317 
L 305.108373 124.195651 
L 306.194175 124.942805 
L 307.279976 125.12241 
L 308.365777 123.329958 
L 309.451578 122.536106 
L 310.537379 122.374462 
L 311.62318 121.638084 
L 312.708981 121.487216 
L 313.794783 121.605755 
L 314.880584 120.194064 
L 315.966385 119.982131 
L 317.052186 121.325572 
L 318.137987 119.346331 
L 319.223788 119.518751 
L 320.30959 118.344138 
L 321.395391 117.614944 
L 322.481192 117.499997 
L 323.566993 117.801733 
L 324.652794 117.04021 
L 325.738595 116.131412 
L 326.824396 115.793755 
L 327.910198 115.326784 
L 328.995999 115.125627 
L 330.0818 114.593998 
L 331.167601 113.918685 
L 332.253402 112.578836 
L 333.339203 112.995518 
L 334.425005 113.164346 
L 335.510806 110.775607 
L 336.596607 111.515577 
L 337.682408 111.411407 
L 338.768209 109.902729 
L 339.85401 110.628331 
L 340.939811 109.238193 
L 342.025613 107.643306 
L 343.111414 108.767629 
L 344.197215 108.368908 
L 345.283016 107.625345 
L 346.368817 107.442149 
L 347.454618 106.192102 
L 348.54042 105.121659 
L 349.626221 103.749481 
L 350.712022 106.163365 
L 351.797823 104.209269 
L 352.883624 103.982967 
L 355.055227 100.509417 
L 357.226829 97.811758 
L 358.31263 101.278124 
L 359.398431 101.475689 
L 360.484232 79.617828 
L 361.570033 78.14148 
L 362.655835 78.191769 
L 363.741636 77.135695 
L 364.827437 76.28437 
L 365.913238 75.63061 
L 366.999039 76.169423 
L 368.08484 75.792254 
L 369.170642 78.033717 
L 370.256443 78.281571 
L 371.342244 79.944708 
L 372.428045 83.18118 
L 373.513846 81.94191 
L 374.599647 82.703433 
L 375.685448 82.775274 
L 376.77125 81.650951 
L 377.857051 82.419658 
L 378.942852 82.692656 
L 380.028653 81.568333 
L 381.114454 81.956278 
L 382.200255 83.863677 
L 383.286057 82.717801 
L 384.371858 82.638775 
L 385.457659 82.804011 
L 386.54346 81.884436 
L 387.629261 82.261606 
L 389.800863 83.195549 
L 390.886665 83.497284 
L 391.972466 82.355 
L 393.058267 83.073418 
L 394.144068 82.8543 
L 396.31567 83.759507 
L 397.401472 82.994392 
L 398.487273 83.978624 
L 398.487273 83.978624 
" clip-path="url(#pa42fb14d53)" style="fill: none; stroke: #1f77b4; stroke-width: 1.5; stroke-linecap: square"/>
   </g>
   <g id="line2d_19">
    <path d="M 73.832727 281.054987 
L 74.918528 260.580081 
L 76.00433 250.019339 
L 77.090131 231.196794 
L 78.175932 217.726461 
L 80.347534 196.640899 
L 81.433335 193.803149 
L 82.519137 188.163569 
L 83.604938 183.817142 
L 84.690739 172.43022 
L 86.862341 161.474349 
L 89.033943 152.422285 
L 90.119745 152.458206 
L 91.205546 146.639022 
L 92.291347 146.710864 
L 93.377148 145.238108 
L 94.462949 146.100209 
L 95.54875 170.706017 
L 96.634552 171.568119 
L 97.720353 167.221691 
L 98.806154 158.492915 
L 99.891955 155.295956 
L 100.977756 156.158058 
L 102.063557 150.123348 
L 103.149358 149.548614 
L 104.23516 143.154696 
L 105.320961 147.75257 
L 106.406762 141.394572 
L 107.492563 136.006439 
L 108.578364 139.67037 
L 109.664165 129.648442 
L 110.749967 128.283448 
L 111.835768 125.337935 
L 112.921569 124.978726 
L 114.00737 127.13398 
L 115.093171 119.842039 
L 116.178972 115.459691 
L 117.264773 114.705352 
L 118.350575 108.993931 
L 120.522177 107.090124 
L 121.607978 103.138826 
L 122.693779 103.102905 
L 123.77958 106.51539 
L 124.865382 100.839889 
L 127.036984 94.697417 
L 129.208586 93.655712 
L 130.294387 90.997566 
L 131.380189 91.895588 
L 132.46599 88.985996 
L 133.551791 88.483104 
L 135.723393 87.980211 
L 136.809194 86.615217 
L 137.894995 87.656923 
L 138.980797 124.547676 
L 140.066598 131.228961 
L 141.152399 125.302014 
L 142.2382 123.470049 
L 143.324001 126.810692 
L 144.409802 128.894103 
L 145.495604 123.362286 
L 146.581405 118.836254 
L 147.667206 123.398207 
L 148.753007 116.681001 
L 149.838808 120.237169 
L 150.924609 113.735488 
L 152.01041 118.872175 
L 153.096212 113.591805 
L 154.182013 115.639295 
L 155.267814 112.083127 
L 156.353615 116.21403 
L 157.439416 111.508393 
L 158.525217 112.514178 
L 159.611019 108.526959 
L 160.69682 107.34157 
L 161.782621 106.982361 
L 162.868422 105.832893 
L 163.954223 106.263943 
L 165.040024 104.216453 
L 166.125825 107.485254 
L 167.211627 101.953437 
L 168.297428 100.768048 
L 169.383229 105.150396 
L 170.46903 105.258159 
L 173.726434 96.493462 
L 174.812235 98.43319 
L 175.898036 93.152819 
L 176.983837 94.01492 
L 178.069638 91.895588 
L 179.155439 95.523598 
L 180.24124 92.326639 
L 181.327042 90.566515 
L 182.412843 90.063623 
L 183.498644 87.405477 
L 184.584445 87.225873 
L 185.670246 87.800607 
L 186.756047 87.549161 
L 187.841849 83.4901 
L 188.92765 85.322065 
L 190.013451 82.053265 
L 191.099252 81.909581 
L 192.185053 81.011559 
L 193.270854 79.395119 
L 194.356656 81.550372 
L 195.442457 75.515663 
L 196.528258 72.929359 
L 197.614059 76.270002 
L 198.69986 75.587505 
L 199.785661 74.150669 
L 200.871462 73.79146 
L 201.957264 71.025552 
L 203.043065 71.169235 
L 204.128866 68.978061 
L 205.214667 69.7324 
L 206.300468 67.253859 
L 207.386269 66.715045 
L 208.472071 69.624637 
L 209.557872 64.667555 
L 210.643673 66.068469 
L 211.729474 64.954922 
L 213.901076 64.631634 
L 214.986877 63.087035 
L 216.072679 63.877295 
L 217.15848 63.410323 
L 218.244281 62.009409 
L 219.330082 61.722042 
L 220.415883 62.368618 
L 221.501684 62.189013 
L 222.587486 62.763747 
L 223.673287 62.332697 
L 224.759088 62.117171 
L 225.844889 114.884957 
L 226.93069 116.932447 
L 228.016491 111.077343 
L 229.102292 117.291656 
L 230.188094 105.796972 
L 231.273895 105.078554 
L 232.359696 102.707775 
L 233.445497 112.478257 
L 234.531298 107.952225 
L 235.617099 104.89895 
L 236.702901 110.502608 
L 237.788702 102.88738 
L 238.874503 104.000927 
L 239.960304 103.138826 
L 241.046105 110.17932 
L 242.131906 106.766836 
L 243.217708 104.575662 
L 244.303509 103.066984 
L 245.38931 111.292868 
L 246.475111 95.846886 
L 247.560912 103.426193 
L 248.646713 100.696206 
L 249.732514 106.982361 
L 250.818316 108.670643 
L 251.904117 102.025279 
L 252.989918 100.803968 
L 254.075719 100.301076 
L 255.16152 103.174747 
L 256.247321 100.87581 
L 257.333123 100.983573 
L 258.418924 97.966218 
L 259.504725 102.635934 
L 260.590526 99.043845 
L 261.676327 99.834104 
L 262.762128 99.941867 
L 263.847929 101.27094 
L 264.933731 97.068196 
L 266.019532 98.648715 
L 267.105333 95.020705 
L 268.191134 99.331212 
L 269.276935 94.230446 
L 270.362736 101.342782 
L 271.448538 94.948864 
L 273.62014 95.20031 
L 274.705941 94.374129 
L 275.791742 90.386911 
L 276.877543 91.751904 
L 277.963344 95.308072 
L 279.049146 91.931509 
L 280.134947 90.207306 
L 281.220748 97.714772 
L 282.306549 92.578085 
L 283.39235 89.488889 
L 284.478151 94.589655 
L 285.563953 87.51324 
L 286.649754 88.375341 
L 287.735555 90.027702 
L 288.821356 85.537591 
L 290.992958 87.51324 
L 292.07876 84.495885 
L 293.164561 88.662708 
L 294.250362 84.855094 
L 295.336163 88.052053 
L 296.421964 89.201521 
L 297.507765 85.10654 
L 298.593566 93.152819 
L 299.679368 82.26879 
L 300.765169 84.459964 
L 301.85097 82.592078 
L 302.936771 88.303499 
L 304.022572 89.381126 
L 305.108373 83.09497 
L 306.194175 82.196948 
L 307.279976 82.089185 
L 308.365777 83.813388 
L 309.451578 83.849309 
L 310.537379 79.215514 
L 311.62318 76.62921 
L 312.708981 80.508666 
L 313.794783 76.449606 
L 314.880584 78.784464 
L 315.966385 76.126318 
L 317.052186 80.796033 
L 318.137987 83.526021 
L 319.223788 75.048691 
L 320.30959 76.701052 
L 321.395391 78.030125 
L 322.481192 75.048691 
L 323.566993 72.785675 
L 324.652794 76.772894 
L 325.738595 75.120533 
L 326.824396 77.670916 
L 327.910198 73.827381 
L 328.995999 71.77989 
L 330.0818 72.210941 
L 331.167601 71.923574 
L 332.253402 68.870299 
L 333.339203 72.210941 
L 334.425005 70.343055 
L 335.510806 68.870299 
L 336.596607 71.312919 
L 337.682408 68.762536 
L 338.768209 70.666343 
L 339.85401 66.212153 
L 340.939811 68.223723 
L 342.025613 66.319915 
L 343.111414 67.146096 
L 344.197215 66.283995 
L 345.283016 64.380187 
L 346.368817 62.979273 
L 347.454618 63.877295 
L 348.54042 61.398754 
L 349.626221 61.326912 
L 350.712022 65.134526 
L 351.797823 62.763747 
L 352.883624 63.122956 
L 353.969425 62.404539 
L 356.141028 58.848371 
L 357.226829 59.746393 
L 359.398431 58.992054 
L 360.484232 56.980484 
L 361.570033 58.740608 
L 362.655835 57.519298 
L 363.741636 57.555219 
L 364.827437 55.759174 
L 365.913238 55.759174 
L 366.999039 53.568 
L 368.08484 56.046541 
L 369.170642 57.160089 
L 370.256443 58.058111 
L 371.342244 58.704687 
L 372.428045 60.824019 
L 373.513846 61.075466 
L 374.599647 61.6502 
L 375.685448 63.446244 
L 376.77125 60.105602 
L 377.857051 60.788099 
L 378.942852 64.631634 
L 380.028653 61.398754 
L 381.114454 62.979273 
L 382.200255 61.865725 
L 383.286057 61.865725 
L 384.371858 62.799668 
L 385.457659 63.338482 
L 386.54346 62.009409 
L 387.629261 60.392969 
L 388.715062 59.961918 
L 389.800863 60.895861 
L 390.886665 59.063896 
L 391.972466 63.518086 
L 393.058267 59.854155 
L 394.144068 64.128741 
L 395.229869 61.075466 
L 396.31567 61.470595 
L 397.401472 61.686121 
L 398.487273 61.362833 
L 398.487273 61.362833 
" clip-path="url(#pa42fb14d53)" style="fill: none; stroke: #ff7f0e; stroke-width: 1.5; stroke-linecap: square"/>
   </g>
   <g id="line2d_20">
    <path d="M 73.832727 291.184678 
L 74.918528 285.065913 
L 76.00433 286.180539 
L 77.090131 270.053137 
L 78.175932 263.73609 
L 79.261733 264.231798 
L 80.347534 256.824552 
L 81.433335 257.716467 
L 82.519137 254.892367 
L 84.690739 246.989772 
L 85.77654 246.394922 
L 86.862341 243.075472 
L 87.948142 244.214883 
L 89.033943 237.996977 
L 90.119745 240.69715 
L 91.205546 236.907137 
L 92.291347 233.810398 
L 93.377148 233.909539 
L 94.462949 234.900237 
L 95.54875 243.24897 
L 96.634552 243.348112 
L 97.720353 248.005255 
L 98.806154 238.814537 
L 99.891955 236.337073 
L 100.977756 241.415568 
L 102.063557 227.49335 
L 103.149358 238.566682 
L 104.23516 230.31745 
L 105.320961 237.452057 
L 106.406762 228.707117 
L 107.492563 226.477507 
L 108.578364 234.058252 
L 109.664165 223.306411 
L 110.749967 221.349441 
L 111.835768 218.723624 
L 112.921569 225.164599 
L 114.00737 217.682996 
L 115.093171 212.777999 
L 116.178972 213.496417 
L 118.350575 207.674718 
L 119.436376 211.044098 
L 120.522177 209.18591 
L 121.607978 204.67712 
L 122.693779 205.222399 
L 123.77958 203.810349 
L 124.865382 204.107415 
L 125.951183 198.137363 
L 127.036984 195.337689 
L 128.122785 201.456812 
L 129.208586 194.767984 
L 130.294387 196.056107 
L 131.380189 194.446133 
L 132.46599 192.439233 
L 133.551791 191.894313 
L 134.637592 191.498105 
L 135.723393 191.819957 
L 136.809194 191.522891 
L 137.894995 190.903615 
L 138.980797 215.305033 
L 140.066598 222.315713 
L 141.152399 214.140478 
L 142.2382 213.595558 
L 143.324001 215.577314 
L 144.409802 214.933252 
L 145.495604 213.248563 
L 146.581405 209.45855 
L 147.667206 214.066122 
L 148.753007 215.255463 
L 149.838808 213.174566 
L 150.924609 205.098472 
L 152.01041 213.96698 
L 153.096212 208.170427 
L 154.182013 211.589018 
L 155.267814 208.665776 
L 156.353615 212.059581 
L 157.439416 207.055442 
L 158.525217 211.613803 
L 159.611019 202.72015 
L 161.782621 204.156986 
L 162.868422 197.542513 
L 163.954223 206.659235 
L 165.040024 204.107415 
L 166.125825 204.231342 
L 167.211627 201.208958 
L 168.297428 206.064385 
L 169.383229 206.262668 
L 170.46903 202.918433 
L 171.554831 196.576601 
L 172.640632 194.991053 
L 173.726434 198.434429 
L 174.812235 191.622032 
L 175.898036 189.19414 
L 176.983837 196.031321 
L 178.069638 192.464018 
L 179.155439 188.005158 
L 180.24124 191.498105 
L 181.327042 192.414447 
L 182.412843 190.655761 
L 183.498644 192.439233 
L 184.584445 186.96453 
L 185.670246 183.471583 
L 186.756047 191.894313 
L 187.841849 184.338713 
L 188.92765 186.023044 
L 190.013451 180.300487 
L 191.099252 185.948687 
L 192.185053 180.994119 
L 193.270854 182.530096 
L 194.356656 179.037149 
L 195.442457 171.952113 
L 196.528258 173.215451 
L 198.69986 178.244375 
L 199.785661 176.287405 
L 200.871462 176.386547 
L 201.957264 170.589634 
L 203.043065 169.846431 
L 204.128866 168.062599 
L 205.214667 172.769673 
L 206.300468 166.204771 
L 207.386269 166.70012 
L 208.472071 169.623362 
L 209.557872 166.47741 
L 210.643673 164.099088 
L 211.729474 166.328698 
L 212.815275 166.625764 
L 213.901076 165.83299 
L 214.986877 164.569652 
L 216.072679 164.842292 
L 217.15848 166.006488 
L 218.244281 164.099088 
L 219.330082 164.074303 
L 220.415883 164.173445 
L 221.501684 164.619223 
L 222.587486 164.619223 
L 224.759088 163.529383 
L 225.844889 216.667513 
L 226.93069 208.09607 
L 228.016491 206.287454 
L 229.102292 218.054777 
L 230.188094 199.128061 
L 231.273895 202.398299 
L 232.359696 201.976947 
L 233.445497 202.695365 
L 234.531298 199.251988 
L 235.617099 201.655096 
L 236.702901 212.976282 
L 237.788702 197.889509 
L 238.874503 202.026518 
L 239.960304 199.672981 
L 241.046105 205.965602 
L 242.131906 197.344589 
L 243.217708 209.061983 
L 244.303509 195.858183 
L 245.38931 201.877805 
L 246.475111 202.596223 
L 247.560912 196.427888 
L 248.646713 197.492942 
L 249.732514 202.72015 
L 250.818316 204.256127 
L 251.904117 194.891911 
L 252.989918 198.904993 
L 254.075719 191.622032 
L 255.16152 205.49468 
L 256.247321 197.146306 
L 257.333123 196.774525 
L 258.418924 193.034083 
L 259.504725 200.044762 
L 260.590526 195.015838 
L 261.676327 198.904993 
L 262.762128 191.250251 
L 263.847929 194.396562 
L 264.933731 192.811014 
L 266.019532 196.626171 
L 267.105333 188.450936 
L 268.191134 190.457477 
L 269.276935 190.407906 
L 270.362736 208.789703 
L 271.448538 195.486402 
L 272.534339 196.180034 
L 273.62014 197.567299 
L 274.705941 193.802071 
L 275.791742 188.748361 
L 276.877543 187.658162 
L 277.963344 201.63031 
L 279.049146 187.732519 
L 280.134947 183.793434 
L 281.220748 196.601386 
L 282.306549 189.441994 
L 283.39235 187.113243 
L 284.478151 194.198279 
L 285.563953 185.725978 
L 286.649754 183.521154 
L 287.735555 186.122185 
L 288.821356 184.239571 
L 289.907157 179.582069 
L 290.992958 184.933204 
L 292.07876 183.099802 
L 293.164561 192.811014 
L 294.250362 185.676407 
L 295.336163 187.311526 
L 296.421964 186.047829 
L 297.507765 180.127348 
L 298.593566 188.079514 
L 299.679368 177.179321 
L 300.765169 184.289142 
L 301.85097 182.579667 
L 302.936771 191.126324 
L 304.022572 182.009962 
L 305.108373 185.899476 
L 306.194175 184.660564 
L 307.279976 183.075016 
L 308.365777 189.862987 
L 309.451578 185.131487 
L 310.537379 175.024067 
L 311.62318 178.120448 
L 312.708981 182.356598 
L 313.794783 173.512876 
L 314.880584 180.919763 
L 315.966385 181.341115 
L 317.052186 178.740083 
L 318.137987 174.132152 
L 319.223788 174.256079 
L 320.30959 179.854709 
L 321.395391 178.76451 
L 322.481192 170.39135 
L 323.566993 168.657449 
L 324.652794 174.677072 
L 325.738595 177.154535 
L 326.824396 175.668129 
L 327.910198 181.465042 
L 328.995999 170.416136 
L 330.0818 171.580332 
L 331.167601 172.94317 
L 332.253402 171.134554 
L 333.339203 174.380006 
L 334.425005 173.636803 
L 335.510806 165.635066 
L 336.596607 171.803401 
L 337.682408 165.337641 
L 338.768209 174.380006 
L 339.85401 168.037814 
L 340.939811 169.846431 
L 342.025613 164.223016 
L 343.111414 170.93627 
L 344.197215 170.019928 
L 346.368817 164.594437 
L 347.454618 163.405456 
L 348.54042 164.569652 
L 349.626221 163.87602 
L 350.712022 168.657449 
L 351.797823 166.873618 
L 352.883624 163.033675 
L 353.969425 158.153463 
L 355.055227 161.200632 
L 356.141028 160.160004 
L 357.226829 158.896666 
L 358.31263 156.989267 
L 359.398431 161.274988 
L 360.484232 157.682837 
L 361.570033 159.293084 
L 362.655835 152.975962 
L 363.741636 154.51189 
L 364.827437 158.178298 
L 365.913238 156.890101 
L 366.999039 158.252617 
L 368.08484 156.097364 
L 369.170642 157.806703 
L 370.256443 166.303851 
L 371.342244 158.52512 
L 372.428045 161.572203 
L 373.513846 161.919025 
L 374.599647 165.783617 
L 375.685448 161.696068 
L 376.77125 160.432643 
L 377.857051 163.752229 
L 378.942852 169.450025 
L 380.028653 162.786081 
L 381.114454 166.749765 
L 382.200255 162.364939 
L 383.286057 166.179986 
L 384.371858 167.715913 
L 385.457659 164.396328 
L 386.54346 164.544966 
L 387.629261 163.92564 
L 388.715062 164.916561 
L 389.800863 169.995032 
L 390.886665 162.241074 
L 391.972466 167.393864 
L 393.058267 166.080893 
L 394.144068 168.211374 
L 395.229869 169.227068 
L 396.31567 164.148597 
L 397.401472 162.439258 
L 398.487273 164.817469 
L 398.487273 164.817469 
" clip-path="url(#pa42fb14d53)" style="fill: none; stroke: #2ca02c; stroke-width: 1.5; stroke-linecap: square"/>
   </g>
   <g id="line2d_21">
    <path d="M 368.08484 55.040756 
L 369.170642 57.842586 
L 370.256443 58.776529 
L 371.342244 57.59114 
L 372.428045 61.003624 
L 373.513846 63.482165 
L 374.599647 60.644415 
L 375.685448 65.781102 
L 376.77125 62.620064 
L 377.857051 62.691906 
L 378.942852 65.565577 
L 380.028653 64.416108 
L 381.114454 64.164662 
L 382.200255 67.828593 
L 383.286057 64.380187 
L 384.371858 64.020979 
L 385.457659 66.571362 
L 386.54346 65.960707 
L 387.629261 73.432251 
L 388.715062 74.653562 
L 389.800863 75.228296 
L 390.886665 75.264217 
L 391.972466 74.366194 
L 393.058267 75.228296 
L 394.144068 75.767109 
L 395.229869 69.445033 
L 396.31567 75.982634 
L 397.401472 90.853882 
L 398.487273 83.633784 
L 398.487273 83.633784 
" clip-path="url(#pa42fb14d53)" style="fill: none; stroke: #d62728; stroke-width: 1.5; stroke-linecap: square"/>
   </g>
   <g id="line2d_22">
    <path d="M 368.08484 157.831476 
L 369.170642 161.621749 
L 370.256443 164.148597 
L 371.342244 163.182449 
L 372.428045 169.57389 
L 374.599647 167.517729 
L 375.685448 172.52188 
L 376.77125 160.878558 
L 377.857051 165.610206 
L 378.942852 169.400479 
L 380.028653 168.50865 
L 381.114454 167.914097 
L 382.200255 170.440946 
L 383.286057 167.666367 
L 384.371858 161.101515 
L 385.457659 169.747301 
L 386.54346 170.490492 
L 387.629261 177.748989 
L 388.715062 178.541726 
L 389.800863 174.181673 
L 390.886665 184.660663 
L 391.972466 180.449249 
L 393.058267 184.264295 
L 394.144068 178.269222 
L 395.229869 173.09166 
L 397.401472 196.328759 
L 398.487273 194.148733 
L 398.487273 194.148733 
" clip-path="url(#pa42fb14d53)" style="fill: none; stroke: #9467bd; stroke-width: 1.5; stroke-linecap: square"/>
   </g>
   <g id="patch_3">
    <path d="M 57.6 307.584 
L 57.6 41.472 
" style="fill: none; stroke: #000000; stroke-width: 0.8; stroke-linejoin: miter; stroke-linecap: square"/>
   </g>
   <g id="patch_4">
    <path d="M 414.72 307.584 
L 414.72 41.472 
" style="fill: none; stroke: #000000; stroke-width: 0.8; stroke-linejoin: miter; stroke-linecap: square"/>
   </g>
   <g id="patch_5">
    <path d="M 57.6 307.584 
L 414.72 307.584 
" style="fill: none; stroke: #000000; stroke-width: 0.8; stroke-linejoin: miter; stroke-linecap: square"/>
   </g>
   <g id="patch_6">
    <path d="M 57.6 41.472 
L 414.72 41.472 
" style="fill: none; stroke: #000000; stroke-width: 0.8; stroke-linejoin: miter; stroke-linecap: square"/>
   </g>
   <g id="text_20">
    <!-- Learning Curves -->
    <g transform="translate(187.37625 35.472) scale(0.12 -0.12)">
     <defs>
      <path id="DejaVuSans-4c" d="M 628 4666 
L 1259 4666 
L 1259 531 
L 3531 531 
L 3531 0 
L 628 0 
L 628 4666 
z
" transform="scale(0.015625)"/>
      <path id="DejaVuSans-65" d="M 3597 1894 
L 3597 1613 
L 953 1613 
Q 991 1019 1311 708 
Q 1631 397 2203 397 
Q 2534 397 2845 478 
Q 3156 559 3463 722 
L 3463 178 
Q 3153 47 2828 -22 
Q 2503 -91 2169 -91 
Q 1331 -91 842 396 
Q 353 884 353 1716 
Q 353 2575 817 3079 
Q 1281 3584 2069 3584 
Q 2775 3584 3186 3129 
Q 3597 2675 3597 1894 
z
M 3022 2063 
Q 3016 2534 2758 2815 
Q 2500 3097 2075 3097 
Q 1594 3097 1305 2825 
Q 1016 2553 972 2059 
L 3022 2063 
z
" transform="scale(0.015625)"/>
      <path id="DejaVuSans-6e" d="M 3513 2113 
L 3513 0 
L 2938 0 
L 2938 2094 
Q 2938 2591 2744 2837 
Q 2550 3084 2163 3084 
Q 1697 3084 1428 2787 
Q 1159 2491 1159 1978 
L 1159 0 
L 581 0 
L 581 3500 
L 1159 3500 
L 1159 2956 
Q 1366 3272 1645 3428 
Q 1925 3584 2291 3584 
Q 2894 3584 3203 3211 
Q 3513 2838 3513 2113 
z
" transform="scale(0.015625)"/>
      <path id="DejaVuSans-69" d="M 603 3500 
L 1178 3500 
L 1178 0 
L 603 0 
L 603 3500 
z
M 603 4863 
L 1178 4863 
L 1178 4134 
L 603 4134 
L 603 4863 
z
" transform="scale(0.015625)"/>
      <path id="DejaVuSans-67" d="M 2906 1791 
Q 2906 2416 2648 2759 
Q 2391 3103 1925 3103 
Q 1463 3103 1205 2759 
Q 947 2416 947 1791 
Q 947 1169 1205 825 
Q 1463 481 1925 481 
Q 2391 481 2648 825 
Q 2906 1169 2906 1791 
z
M 3481 434 
Q 3481 -459 3084 -895 
Q 2688 -1331 1869 -1331 
Q 1566 -1331 1297 -1286 
Q 1028 -1241 775 -1147 
L 775 -588 
Q 1028 -725 1275 -790 
Q 1522 -856 1778 -856 
Q 2344 -856 2625 -561 
Q 2906 -266 2906 331 
L 2906 616 
Q 2728 306 2450 153 
Q 2172 0 1784 0 
Q 1141 0 747 490 
Q 353 981 353 1791 
Q 353 2603 747 3093 
Q 1141 3584 1784 3584 
Q 2172 3584 2450 3431 
Q 2728 3278 2906 2969 
L 2906 3500 
L 3481 3500 
L 3481 434 
z
" transform="scale(0.015625)"/>
      <path id="DejaVuSans-20" transform="scale(0.015625)"/>
      <path id="DejaVuSans-43" d="M 4122 4306 
L 4122 3641 
Q 3803 3938 3442 4084 
Q 3081 4231 2675 4231 
Q 1875 4231 1450 3742 
Q 1025 3253 1025 2328 
Q 1025 1406 1450 917 
Q 1875 428 2675 428 
Q 3081 428 3442 575 
Q 3803 722 4122 1019 
L 4122 359 
Q 3791 134 3420 21 
Q 3050 -91 2638 -91 
Q 1578 -91 968 557 
Q 359 1206 359 2328 
Q 359 3453 968 4101 
Q 1578 4750 2638 4750 
Q 3056 4750 3426 4639 
Q 3797 4528 4122 4306 
z
" transform="scale(0.015625)"/>
      <path id="DejaVuSans-76" d="M 191 3500 
L 800 3500 
L 1894 563 
L 2988 3500 
L 3597 3500 
L 2284 0 
L 1503 0 
L 191 3500 
z
" transform="scale(0.015625)"/>
     </defs>
     <use xlink:href="#DejaVuSans-4c"/>
     <use xlink:href="#DejaVuSans-65" x="53.962891"/>
     <use xlink:href="#DejaVuSans-61" x="115.486328"/>
     <use xlink:href="#DejaVuSans-72" x="176.765625"/>
     <use xlink:href="#DejaVuSans-6e" x="216.128906"/>
     <use xlink:href="#DejaVuSans-69" x="279.507812"/>
     <use xlink:href="#DejaVuSans-6e" x="307.291016"/>
     <use xlink:href="#DejaVuSans-67" x="370.669922"/>
     <use xlink:href="#DejaVuSans-20" x="434.146484"/>
     <use xlink:href="#DejaVuSans-43" x="465.933594"/>
     <use xlink:href="#DejaVuSans-75" x="535.757812"/>
     <use xlink:href="#DejaVuSans-72" x="599.136719"/>
     <use xlink:href="#DejaVuSans-76" x="640.25"/>
     <use xlink:href="#DejaVuSans-65" x="699.429688"/>
     <use xlink:href="#DejaVuSans-73" x="760.953125"/>
    </g>
   </g>
   <g id="legend_1">
    <g id="patch_7">
     <path d="M 214.18875 302.584 
L 407.72 302.584 
Q 409.72 302.584 409.72 300.584 
L 409.72 228.193375 
Q 409.72 226.193375 407.72 226.193375 
L 214.18875 226.193375 
Q 212.18875 226.193375 212.18875 228.193375 
L 212.18875 300.584 
Q 212.18875 302.584 214.18875 302.584 
z
" style="fill: #ffffff; opacity: 0.8; stroke: #cccccc; stroke-linejoin: miter"/>
    </g>
    <g id="line2d_23">
     <path d="M 216.18875 234.291812 
L 226.18875 234.291812 
L 236.18875 234.291812 
" style="fill: none; stroke: #1f77b4; stroke-width: 1.5; stroke-linecap: square"/>
    </g>
    <g id="text_21">
     <!-- Train Accuracy -->
     <g transform="translate(244.18875 237.791812) scale(0.1 -0.1)">
      <defs>
       <path id="DejaVuSans-54" d="M -19 4666 
L 3928 4666 
L 3928 4134 
L 2272 4134 
L 2272 0 
L 1638 0 
L 1638 4134 
L -19 4134 
L -19 4666 
z
" transform="scale(0.015625)"/>
      </defs>
      <use xlink:href="#DejaVuSans-54"/>
      <use xlink:href="#DejaVuSans-72" x="46.333984"/>
      <use xlink:href="#DejaVuSans-61" x="87.447266"/>
      <use xlink:href="#DejaVuSans-69" x="148.726562"/>
      <use xlink:href="#DejaVuSans-6e" x="176.509766"/>
      <use xlink:href="#DejaVuSans-20" x="239.888672"/>
      <use xlink:href="#DejaVuSans-41" x="271.675781"/>
      <use xlink:href="#DejaVuSans-63" x="338.333984"/>
      <use xlink:href="#DejaVuSans-63" x="393.314453"/>
      <use xlink:href="#DejaVuSans-75" x="448.294922"/>
      <use xlink:href="#DejaVuSans-72" x="511.673828"/>
      <use xlink:href="#DejaVuSans-61" x="552.787109"/>
      <use xlink:href="#DejaVuSans-63" x="614.066406"/>
      <use xlink:href="#DejaVuSans-79" x="669.046875"/>
     </g>
    </g>
    <g id="line2d_24">
     <path d="M 216.18875 248.969937 
L 226.18875 248.969937 
L 236.18875 248.969937 
" style="fill: none; stroke: #ff7f0e; stroke-width: 1.5; stroke-linecap: square"/>
    </g>
    <g id="text_22">
     <!-- Validation Accuracy -->
     <g transform="translate(244.18875 252.469937) scale(0.1 -0.1)">
      <defs>
       <path id="DejaVuSans-56" d="M 1831 0 
L 50 4666 
L 709 4666 
L 2188 738 
L 3669 4666 
L 4325 4666 
L 2547 0 
L 1831 0 
z
" transform="scale(0.015625)"/>
       <path id="DejaVuSans-6c" d="M 603 4863 
L 1178 4863 
L 1178 0 
L 603 0 
L 603 4863 
z
" transform="scale(0.015625)"/>
       <path id="DejaVuSans-64" d="M 2906 2969 
L 2906 4863 
L 3481 4863 
L 3481 0 
L 2906 0 
L 2906 525 
Q 2725 213 2448 61 
Q 2172 -91 1784 -91 
Q 1150 -91 751 415 
Q 353 922 353 1747 
Q 353 2572 751 3078 
Q 1150 3584 1784 3584 
Q 2172 3584 2448 3432 
Q 2725 3281 2906 2969 
z
M 947 1747 
Q 947 1113 1208 752 
Q 1469 391 1925 391 
Q 2381 391 2643 752 
Q 2906 1113 2906 1747 
Q 2906 2381 2643 2742 
Q 2381 3103 1925 3103 
Q 1469 3103 1208 2742 
Q 947 2381 947 1747 
z
" transform="scale(0.015625)"/>
       <path id="DejaVuSans-74" d="M 1172 4494 
L 1172 3500 
L 2356 3500 
L 2356 3053 
L 1172 3053 
L 1172 1153 
Q 1172 725 1289 603 
Q 1406 481 1766 481 
L 2356 481 
L 2356 0 
L 1766 0 
Q 1100 0 847 248 
Q 594 497 594 1153 
L 594 3053 
L 172 3053 
L 172 3500 
L 594 3500 
L 594 4494 
L 1172 4494 
z
" transform="scale(0.015625)"/>
      </defs>
      <use xlink:href="#DejaVuSans-56"/>
      <use xlink:href="#DejaVuSans-61" x="60.658203"/>
      <use xlink:href="#DejaVuSans-6c" x="121.9375"/>
      <use xlink:href="#DejaVuSans-69" x="149.720703"/>
      <use xlink:href="#DejaVuSans-64" x="177.503906"/>
      <use xlink:href="#DejaVuSans-61" x="240.980469"/>
      <use xlink:href="#DejaVuSans-74" x="302.259766"/>
      <use xlink:href="#DejaVuSans-69" x="341.46875"/>
      <use xlink:href="#DejaVuSans-6f" x="369.251953"/>
      <use xlink:href="#DejaVuSans-6e" x="430.433594"/>
      <use xlink:href="#DejaVuSans-20" x="493.8125"/>
      <use xlink:href="#DejaVuSans-41" x="525.599609"/>
      <use xlink:href="#DejaVuSans-63" x="592.257812"/>
      <use xlink:href="#DejaVuSans-63" x="647.238281"/>
      <use xlink:href="#DejaVuSans-75" x="702.21875"/>
      <use xlink:href="#DejaVuSans-72" x="765.597656"/>
      <use xlink:href="#DejaVuSans-61" x="806.710938"/>
      <use xlink:href="#DejaVuSans-63" x="867.990234"/>
      <use xlink:href="#DejaVuSans-79" x="922.970703"/>
     </g>
    </g>
    <g id="line2d_25">
     <path d="M 216.18875 263.648062 
L 226.18875 263.648062 
L 236.18875 263.648062 
" style="fill: none; stroke: #2ca02c; stroke-width: 1.5; stroke-linecap: square"/>
    </g>
    <g id="text_23">
     <!-- Robust Validation Accuracy -->
     <g transform="translate(244.18875 267.148062) scale(0.1 -0.1)">
      <defs>
       <path id="DejaVuSans-52" d="M 2841 2188 
Q 3044 2119 3236 1894 
Q 3428 1669 3622 1275 
L 4263 0 
L 3584 0 
L 2988 1197 
Q 2756 1666 2539 1819 
Q 2322 1972 1947 1972 
L 1259 1972 
L 1259 0 
L 628 0 
L 628 4666 
L 2053 4666 
Q 2853 4666 3247 4331 
Q 3641 3997 3641 3322 
Q 3641 2881 3436 2590 
Q 3231 2300 2841 2188 
z
M 1259 4147 
L 1259 2491 
L 2053 2491 
Q 2509 2491 2742 2702 
Q 2975 2913 2975 3322 
Q 2975 3731 2742 3939 
Q 2509 4147 2053 4147 
L 1259 4147 
z
" transform="scale(0.015625)"/>
       <path id="DejaVuSans-62" d="M 3116 1747 
Q 3116 2381 2855 2742 
Q 2594 3103 2138 3103 
Q 1681 3103 1420 2742 
Q 1159 2381 1159 1747 
Q 1159 1113 1420 752 
Q 1681 391 2138 391 
Q 2594 391 2855 752 
Q 3116 1113 3116 1747 
z
M 1159 2969 
Q 1341 3281 1617 3432 
Q 1894 3584 2278 3584 
Q 2916 3584 3314 3078 
Q 3713 2572 3713 1747 
Q 3713 922 3314 415 
Q 2916 -91 2278 -91 
Q 1894 -91 1617 61 
Q 1341 213 1159 525 
L 1159 0 
L 581 0 
L 581 4863 
L 1159 4863 
L 1159 2969 
z
" transform="scale(0.015625)"/>
      </defs>
      <use xlink:href="#DejaVuSans-52"/>
      <use xlink:href="#DejaVuSans-6f" x="64.982422"/>
      <use xlink:href="#DejaVuSans-62" x="126.164062"/>
      <use xlink:href="#DejaVuSans-75" x="189.640625"/>
      <use xlink:href="#DejaVuSans-73" x="253.019531"/>
      <use xlink:href="#DejaVuSans-74" x="305.119141"/>
      <use xlink:href="#DejaVuSans-20" x="344.328125"/>
      <use xlink:href="#DejaVuSans-56" x="376.115234"/>
      <use xlink:href="#DejaVuSans-61" x="436.773438"/>
      <use xlink:href="#DejaVuSans-6c" x="498.052734"/>
      <use xlink:href="#DejaVuSans-69" x="525.835938"/>
      <use xlink:href="#DejaVuSans-64" x="553.619141"/>
      <use xlink:href="#DejaVuSans-61" x="617.095703"/>
      <use xlink:href="#DejaVuSans-74" x="678.375"/>
      <use xlink:href="#DejaVuSans-69" x="717.583984"/>
      <use xlink:href="#DejaVuSans-6f" x="745.367188"/>
      <use xlink:href="#DejaVuSans-6e" x="806.548828"/>
      <use xlink:href="#DejaVuSans-20" x="869.927734"/>
      <use xlink:href="#DejaVuSans-41" x="901.714844"/>
      <use xlink:href="#DejaVuSans-63" x="968.373047"/>
      <use xlink:href="#DejaVuSans-63" x="1023.353516"/>
      <use xlink:href="#DejaVuSans-75" x="1078.333984"/>
      <use xlink:href="#DejaVuSans-72" x="1141.712891"/>
      <use xlink:href="#DejaVuSans-61" x="1182.826172"/>
      <use xlink:href="#DejaVuSans-63" x="1244.105469"/>
      <use xlink:href="#DejaVuSans-79" x="1299.085938"/>
     </g>
    </g>
    <g id="line2d_26">
     <path d="M 216.18875 278.326188 
L 226.18875 278.326188 
L 236.18875 278.326188 
" style="fill: none; stroke: #d62728; stroke-width: 1.5; stroke-linecap: square"/>
    </g>
    <g id="text_24">
     <!-- SWA Validation Accuracy -->
     <g transform="translate(244.18875 281.826188) scale(0.1 -0.1)">
      <defs>
       <path id="DejaVuSans-53" d="M 3425 4513 
L 3425 3897 
Q 3066 4069 2747 4153 
Q 2428 4238 2131 4238 
Q 1616 4238 1336 4038 
Q 1056 3838 1056 3469 
Q 1056 3159 1242 3001 
Q 1428 2844 1947 2747 
L 2328 2669 
Q 3034 2534 3370 2195 
Q 3706 1856 3706 1288 
Q 3706 609 3251 259 
Q 2797 -91 1919 -91 
Q 1588 -91 1214 -16 
Q 841 59 441 206 
L 441 856 
Q 825 641 1194 531 
Q 1563 422 1919 422 
Q 2459 422 2753 634 
Q 3047 847 3047 1241 
Q 3047 1584 2836 1778 
Q 2625 1972 2144 2069 
L 1759 2144 
Q 1053 2284 737 2584 
Q 422 2884 422 3419 
Q 422 4038 858 4394 
Q 1294 4750 2059 4750 
Q 2388 4750 2728 4690 
Q 3069 4631 3425 4513 
z
" transform="scale(0.015625)"/>
       <path id="DejaVuSans-57" d="M 213 4666 
L 850 4666 
L 1831 722 
L 2809 4666 
L 3519 4666 
L 4500 722 
L 5478 4666 
L 6119 4666 
L 4947 0 
L 4153 0 
L 3169 4050 
L 2175 0 
L 1381 0 
L 213 4666 
z
" transform="scale(0.015625)"/>
      </defs>
      <use xlink:href="#DejaVuSans-53"/>
      <use xlink:href="#DejaVuSans-57" x="63.476562"/>
      <use xlink:href="#DejaVuSans-41" x="156.853516"/>
      <use xlink:href="#DejaVuSans-20" x="225.261719"/>
      <use xlink:href="#DejaVuSans-56" x="257.048828"/>
      <use xlink:href="#DejaVuSans-61" x="317.707031"/>
      <use xlink:href="#DejaVuSans-6c" x="378.986328"/>
      <use xlink:href="#DejaVuSans-69" x="406.769531"/>
      <use xlink:href="#DejaVuSans-64" x="434.552734"/>
      <use xlink:href="#DejaVuSans-61" x="498.029297"/>
      <use xlink:href="#DejaVuSans-74" x="559.308594"/>
      <use xlink:href="#DejaVuSans-69" x="598.517578"/>
      <use xlink:href="#DejaVuSans-6f" x="626.300781"/>
      <use xlink:href="#DejaVuSans-6e" x="687.482422"/>
      <use xlink:href="#DejaVuSans-20" x="750.861328"/>
      <use xlink:href="#DejaVuSans-41" x="782.648438"/>
      <use xlink:href="#DejaVuSans-63" x="849.306641"/>
      <use xlink:href="#DejaVuSans-63" x="904.287109"/>
      <use xlink:href="#DejaVuSans-75" x="959.267578"/>
      <use xlink:href="#DejaVuSans-72" x="1022.646484"/>
      <use xlink:href="#DejaVuSans-61" x="1063.759766"/>
      <use xlink:href="#DejaVuSans-63" x="1125.039062"/>
      <use xlink:href="#DejaVuSans-79" x="1180.019531"/>
     </g>
    </g>
    <g id="line2d_27">
     <path d="M 216.18875 293.004312 
L 226.18875 293.004312 
L 236.18875 293.004312 
" style="fill: none; stroke: #9467bd; stroke-width: 1.5; stroke-linecap: square"/>
    </g>
    <g id="text_25">
     <!-- SWA Robust Validation Accuracy -->
     <g transform="translate(244.18875 296.504312) scale(0.1 -0.1)">
      <use xlink:href="#DejaVuSans-53"/>
      <use xlink:href="#DejaVuSans-57" x="63.476562"/>
      <use xlink:href="#DejaVuSans-41" x="156.853516"/>
      <use xlink:href="#DejaVuSans-20" x="225.261719"/>
      <use xlink:href="#DejaVuSans-52" x="257.048828"/>
      <use xlink:href="#DejaVuSans-6f" x="322.03125"/>
      <use xlink:href="#DejaVuSans-62" x="383.212891"/>
      <use xlink:href="#DejaVuSans-75" x="446.689453"/>
      <use xlink:href="#DejaVuSans-73" x="510.068359"/>
      <use xlink:href="#DejaVuSans-74" x="562.167969"/>
      <use xlink:href="#DejaVuSans-20" x="601.376953"/>
      <use xlink:href="#DejaVuSans-56" x="633.164062"/>
      <use xlink:href="#DejaVuSans-61" x="693.822266"/>
      <use xlink:href="#DejaVuSans-6c" x="755.101562"/>
      <use xlink:href="#DejaVuSans-69" x="782.884766"/>
      <use xlink:href="#DejaVuSans-64" x="810.667969"/>
      <use xlink:href="#DejaVuSans-61" x="874.144531"/>
      <use xlink:href="#DejaVuSans-74" x="935.423828"/>
      <use xlink:href="#DejaVuSans-69" x="974.632812"/>
      <use xlink:href="#DejaVuSans-6f" x="1002.416016"/>
      <use xlink:href="#DejaVuSans-6e" x="1063.597656"/>
      <use xlink:href="#DejaVuSans-20" x="1126.976562"/>
      <use xlink:href="#DejaVuSans-41" x="1158.763672"/>
      <use xlink:href="#DejaVuSans-63" x="1225.421875"/>
      <use xlink:href="#DejaVuSans-63" x="1280.402344"/>
      <use xlink:href="#DejaVuSans-75" x="1335.382812"/>
      <use xlink:href="#DejaVuSans-72" x="1398.761719"/>
      <use xlink:href="#DejaVuSans-61" x="1439.875"/>
      <use xlink:href="#DejaVuSans-63" x="1501.154297"/>
      <use xlink:href="#DejaVuSans-79" x="1556.134766"/>
     </g>
    </g>
   </g>
  </g>
 </g>
 <defs>
  <clipPath id="pa42fb14d53">
   <rect x="57.6" y="41.472" width="357.12" height="266.112"/>
  </clipPath>
 </defs>
</svg>
