<?xml version="1.0" encoding="utf-8" standalone="no"?>
<!DOCTYPE svg PUBLIC "-//W3C//DTD SVG 1.1//EN"
  "http://www.w3.org/Graphics/SVG/1.1/DTD/svg11.dtd">
<svg xmlns:xlink="http://www.w3.org/1999/xlink" width="460.8pt" height="345.6pt" viewBox="0 0 460.8 345.6" xmlns="http://www.w3.org/2000/svg" version="1.1">
 <metadata>
  <rdf:RDF xmlns:dc="http://purl.org/dc/elements/1.1/" xmlns:cc="http://creativecommons.org/ns#" xmlns:rdf="http://www.w3.org/1999/02/22-rdf-syntax-ns#">
   <cc:Work>
    <dc:type rdf:resource="http://purl.org/dc/dcmitype/StillImage"/>
    <dc:date>2025-01-17T16:25:57.925379</dc:date>
    <dc:format>image/svg+xml</dc:format>
    <dc:creator>
     <cc:Agent>
      <dc:title>Matplotlib v3.9.1, https://matplotlib.org/</dc:title>
     </cc:Agent>
    </dc:creator>
   </cc:Work>
  </rdf:RDF>
 </metadata>
 <defs>
  <style type="text/css">*{stroke-linejoin: round; stroke-linecap: butt}</style>
 </defs>
 <g id="figure_1">
  <g id="patch_1">
   <path d="M 0 345.6 
L 460.8 345.6 
L 460.8 0 
L 0 0 
z
" style="fill: #ffffff"/>
  </g>
  <g id="axes_1">
   <g id="patch_2">
    <path d="M 57.6 307.584 
L 414.72 307.584 
L 414.72 41.472 
L 57.6 41.472 
z
" style="fill: #ffffff"/>
   </g>
   <g id="matplotlib.axis_1">
    <g id="xtick_1">
     <g id="line2d_1">
      <defs>
       <path id="m7cea2cfda0" d="M 0 0 
L 0 3.5 
" style="stroke: #000000; stroke-width: 0.8"/>
      </defs>
      <g>
       <use xlink:href="#m7cea2cfda0" x="73.832727" y="307.584" style="stroke: #000000; stroke-width: 0.8"/>
      </g>
     </g>
     <g id="text_1">
      <!-- 1 -->
      <g transform="translate(70.651477 322.182437) scale(0.1 -0.1)">
       <defs>
        <path id="DejaVuSans-31" d="M 794 531 
L 1825 531 
L 1825 4091 
L 703 3866 
L 703 4441 
L 1819 4666 
L 2450 4666 
L 2450 531 
L 3481 531 
L 3481 0 
L 794 0 
L 794 531 
z
" transform="scale(0.015625)"/>
       </defs>
       <use xlink:href="#DejaVuSans-31"/>
      </g>
     </g>
    </g>
    <g id="xtick_2">
     <g id="line2d_2">
      <g>
       <use xlink:href="#m7cea2cfda0" x="109.664165" y="307.584" style="stroke: #000000; stroke-width: 0.8"/>
      </g>
     </g>
     <g id="text_2">
      <!-- 34 -->
      <g transform="translate(103.301665 322.182437) scale(0.1 -0.1)">
       <defs>
        <path id="DejaVuSans-33" d="M 2597 2516 
Q 3050 2419 3304 2112 
Q 3559 1806 3559 1356 
Q 3559 666 3084 287 
Q 2609 -91 1734 -91 
Q 1441 -91 1130 -33 
Q 819 25 488 141 
L 488 750 
Q 750 597 1062 519 
Q 1375 441 1716 441 
Q 2309 441 2620 675 
Q 2931 909 2931 1356 
Q 2931 1769 2642 2001 
Q 2353 2234 1838 2234 
L 1294 2234 
L 1294 2753 
L 1863 2753 
Q 2328 2753 2575 2939 
Q 2822 3125 2822 3475 
Q 2822 3834 2567 4026 
Q 2313 4219 1838 4219 
Q 1578 4219 1281 4162 
Q 984 4106 628 3988 
L 628 4550 
Q 988 4650 1302 4700 
Q 1616 4750 1894 4750 
Q 2613 4750 3031 4423 
Q 3450 4097 3450 3541 
Q 3450 3153 3228 2886 
Q 3006 2619 2597 2516 
z
" transform="scale(0.015625)"/>
        <path id="DejaVuSans-34" d="M 2419 4116 
L 825 1625 
L 2419 1625 
L 2419 4116 
z
M 2253 4666 
L 3047 4666 
L 3047 1625 
L 3713 1625 
L 3713 1100 
L 3047 1100 
L 3047 0 
L 2419 0 
L 2419 1100 
L 313 1100 
L 313 1709 
L 2253 4666 
z
" transform="scale(0.015625)"/>
       </defs>
       <use xlink:href="#DejaVuSans-33"/>
       <use xlink:href="#DejaVuSans-34" x="63.623047"/>
      </g>
     </g>
    </g>
    <g id="xtick_3">
     <g id="line2d_3">
      <g>
       <use xlink:href="#m7cea2cfda0" x="145.495604" y="307.584" style="stroke: #000000; stroke-width: 0.8"/>
      </g>
     </g>
     <g id="text_3">
      <!-- 67 -->
      <g transform="translate(139.133104 322.182437) scale(0.1 -0.1)">
       <defs>
        <path id="DejaVuSans-36" d="M 2113 2584 
Q 1688 2584 1439 2293 
Q 1191 2003 1191 1497 
Q 1191 994 1439 701 
Q 1688 409 2113 409 
Q 2538 409 2786 701 
Q 3034 994 3034 1497 
Q 3034 2003 2786 2293 
Q 2538 2584 2113 2584 
z
M 3366 4563 
L 3366 3988 
Q 3128 4100 2886 4159 
Q 2644 4219 2406 4219 
Q 1781 4219 1451 3797 
Q 1122 3375 1075 2522 
Q 1259 2794 1537 2939 
Q 1816 3084 2150 3084 
Q 2853 3084 3261 2657 
Q 3669 2231 3669 1497 
Q 3669 778 3244 343 
Q 2819 -91 2113 -91 
Q 1303 -91 875 529 
Q 447 1150 447 2328 
Q 447 3434 972 4092 
Q 1497 4750 2381 4750 
Q 2619 4750 2861 4703 
Q 3103 4656 3366 4563 
z
" transform="scale(0.015625)"/>
        <path id="DejaVuSans-37" d="M 525 4666 
L 3525 4666 
L 3525 4397 
L 1831 0 
L 1172 0 
L 2766 4134 
L 525 4134 
L 525 4666 
z
" transform="scale(0.015625)"/>
       </defs>
       <use xlink:href="#DejaVuSans-36"/>
       <use xlink:href="#DejaVuSans-37" x="63.623047"/>
      </g>
     </g>
    </g>
    <g id="xtick_4">
     <g id="line2d_4">
      <g>
       <use xlink:href="#m7cea2cfda0" x="181.327042" y="307.584" style="stroke: #000000; stroke-width: 0.8"/>
      </g>
     </g>
     <g id="text_4">
      <!-- 100 -->
      <g transform="translate(171.783292 322.182437) scale(0.1 -0.1)">
       <defs>
        <path id="DejaVuSans-30" d="M 2034 4250 
Q 1547 4250 1301 3770 
Q 1056 3291 1056 2328 
Q 1056 1369 1301 889 
Q 1547 409 2034 409 
Q 2525 409 2770 889 
Q 3016 1369 3016 2328 
Q 3016 3291 2770 3770 
Q 2525 4250 2034 4250 
z
M 2034 4750 
Q 2819 4750 3233 4129 
Q 3647 3509 3647 2328 
Q 3647 1150 3233 529 
Q 2819 -91 2034 -91 
Q 1250 -91 836 529 
Q 422 1150 422 2328 
Q 422 3509 836 4129 
Q 1250 4750 2034 4750 
z
" transform="scale(0.015625)"/>
       </defs>
       <use xlink:href="#DejaVuSans-31"/>
       <use xlink:href="#DejaVuSans-30" x="63.623047"/>
       <use xlink:href="#DejaVuSans-30" x="127.246094"/>
      </g>
     </g>
    </g>
    <g id="xtick_5">
     <g id="line2d_5">
      <g>
       <use xlink:href="#m7cea2cfda0" x="217.15848" y="307.584" style="stroke: #000000; stroke-width: 0.8"/>
      </g>
     </g>
     <g id="text_5">
      <!-- 133 -->
      <g transform="translate(207.61473 322.182437) scale(0.1 -0.1)">
       <use xlink:href="#DejaVuSans-31"/>
       <use xlink:href="#DejaVuSans-33" x="63.623047"/>
       <use xlink:href="#DejaVuSans-33" x="127.246094"/>
      </g>
     </g>
    </g>
    <g id="xtick_6">
     <g id="line2d_6">
      <g>
       <use xlink:href="#m7cea2cfda0" x="254.075719" y="307.584" style="stroke: #000000; stroke-width: 0.8"/>
      </g>
     </g>
     <g id="text_6">
      <!-- 167 -->
      <g transform="translate(244.531969 322.182437) scale(0.1 -0.1)">
       <use xlink:href="#DejaVuSans-31"/>
       <use xlink:href="#DejaVuSans-36" x="63.623047"/>
       <use xlink:href="#DejaVuSans-37" x="127.246094"/>
      </g>
     </g>
    </g>
    <g id="xtick_7">
     <g id="line2d_7">
      <g>
       <use xlink:href="#m7cea2cfda0" x="289.907157" y="307.584" style="stroke: #000000; stroke-width: 0.8"/>
      </g>
     </g>
     <g id="text_7">
      <!-- 200 -->
      <g transform="translate(280.363407 322.182437) scale(0.1 -0.1)">
       <defs>
        <path id="DejaVuSans-32" d="M 1228 531 
L 3431 531 
L 3431 0 
L 469 0 
L 469 531 
Q 828 903 1448 1529 
Q 2069 2156 2228 2338 
Q 2531 2678 2651 2914 
Q 2772 3150 2772 3378 
Q 2772 3750 2511 3984 
Q 2250 4219 1831 4219 
Q 1534 4219 1204 4116 
Q 875 4013 500 3803 
L 500 4441 
Q 881 4594 1212 4672 
Q 1544 4750 1819 4750 
Q 2544 4750 2975 4387 
Q 3406 4025 3406 3419 
Q 3406 3131 3298 2873 
Q 3191 2616 2906 2266 
Q 2828 2175 2409 1742 
Q 1991 1309 1228 531 
z
" transform="scale(0.015625)"/>
       </defs>
       <use xlink:href="#DejaVuSans-32"/>
       <use xlink:href="#DejaVuSans-30" x="63.623047"/>
       <use xlink:href="#DejaVuSans-30" x="127.246094"/>
      </g>
     </g>
    </g>
    <g id="xtick_8">
     <g id="line2d_8">
      <g>
       <use xlink:href="#m7cea2cfda0" x="325.738595" y="307.584" style="stroke: #000000; stroke-width: 0.8"/>
      </g>
     </g>
     <g id="text_8">
      <!-- 233 -->
      <g transform="translate(316.194845 322.182437) scale(0.1 -0.1)">
       <use xlink:href="#DejaVuSans-32"/>
       <use xlink:href="#DejaVuSans-33" x="63.623047"/>
       <use xlink:href="#DejaVuSans-33" x="127.246094"/>
      </g>
     </g>
    </g>
    <g id="xtick_9">
     <g id="line2d_9">
      <g>
       <use xlink:href="#m7cea2cfda0" x="361.570033" y="307.584" style="stroke: #000000; stroke-width: 0.8"/>
      </g>
     </g>
     <g id="text_9">
      <!-- 266 -->
      <g transform="translate(352.026283 322.182437) scale(0.1 -0.1)">
       <use xlink:href="#DejaVuSans-32"/>
       <use xlink:href="#DejaVuSans-36" x="63.623047"/>
       <use xlink:href="#DejaVuSans-36" x="127.246094"/>
      </g>
     </g>
    </g>
    <g id="xtick_10">
     <g id="line2d_10">
      <g>
       <use xlink:href="#m7cea2cfda0" x="398.487273" y="307.584" style="stroke: #000000; stroke-width: 0.8"/>
      </g>
     </g>
     <g id="text_10">
      <!-- 300 -->
      <g transform="translate(388.943523 322.182437) scale(0.1 -0.1)">
       <use xlink:href="#DejaVuSans-33"/>
       <use xlink:href="#DejaVuSans-30" x="63.623047"/>
       <use xlink:href="#DejaVuSans-30" x="127.246094"/>
      </g>
     </g>
    </g>
    <g id="text_11">
     <!-- Epochs -->
     <g transform="translate(218.244375 335.860562) scale(0.1 -0.1)">
      <defs>
       <path id="DejaVuSans-45" d="M 628 4666 
L 3578 4666 
L 3578 4134 
L 1259 4134 
L 1259 2753 
L 3481 2753 
L 3481 2222 
L 1259 2222 
L 1259 531 
L 3634 531 
L 3634 0 
L 628 0 
L 628 4666 
z
" transform="scale(0.015625)"/>
       <path id="DejaVuSans-70" d="M 1159 525 
L 1159 -1331 
L 581 -1331 
L 581 3500 
L 1159 3500 
L 1159 2969 
Q 1341 3281 1617 3432 
Q 1894 3584 2278 3584 
Q 2916 3584 3314 3078 
Q 3713 2572 3713 1747 
Q 3713 922 3314 415 
Q 2916 -91 2278 -91 
Q 1894 -91 1617 61 
Q 1341 213 1159 525 
z
M 3116 1747 
Q 3116 2381 2855 2742 
Q 2594 3103 2138 3103 
Q 1681 3103 1420 2742 
Q 1159 2381 1159 1747 
Q 1159 1113 1420 752 
Q 1681 391 2138 391 
Q 2594 391 2855 752 
Q 3116 1113 3116 1747 
z
" transform="scale(0.015625)"/>
       <path id="DejaVuSans-6f" d="M 1959 3097 
Q 1497 3097 1228 2736 
Q 959 2375 959 1747 
Q 959 1119 1226 758 
Q 1494 397 1959 397 
Q 2419 397 2687 759 
Q 2956 1122 2956 1747 
Q 2956 2369 2687 2733 
Q 2419 3097 1959 3097 
z
M 1959 3584 
Q 2709 3584 3137 3096 
Q 3566 2609 3566 1747 
Q 3566 888 3137 398 
Q 2709 -91 1959 -91 
Q 1206 -91 779 398 
Q 353 888 353 1747 
Q 353 2609 779 3096 
Q 1206 3584 1959 3584 
z
" transform="scale(0.015625)"/>
       <path id="DejaVuSans-63" d="M 3122 3366 
L 3122 2828 
Q 2878 2963 2633 3030 
Q 2388 3097 2138 3097 
Q 1578 3097 1268 2742 
Q 959 2388 959 1747 
Q 959 1106 1268 751 
Q 1578 397 2138 397 
Q 2388 397 2633 464 
Q 2878 531 3122 666 
L 3122 134 
Q 2881 22 2623 -34 
Q 2366 -91 2075 -91 
Q 1284 -91 818 406 
Q 353 903 353 1747 
Q 353 2603 823 3093 
Q 1294 3584 2113 3584 
Q 2378 3584 2631 3529 
Q 2884 3475 3122 3366 
z
" transform="scale(0.015625)"/>
       <path id="DejaVuSans-68" d="M 3513 2113 
L 3513 0 
L 2938 0 
L 2938 2094 
Q 2938 2591 2744 2837 
Q 2550 3084 2163 3084 
Q 1697 3084 1428 2787 
Q 1159 2491 1159 1978 
L 1159 0 
L 581 0 
L 581 4863 
L 1159 4863 
L 1159 2956 
Q 1366 3272 1645 3428 
Q 1925 3584 2291 3584 
Q 2894 3584 3203 3211 
Q 3513 2838 3513 2113 
z
" transform="scale(0.015625)"/>
       <path id="DejaVuSans-73" d="M 2834 3397 
L 2834 2853 
Q 2591 2978 2328 3040 
Q 2066 3103 1784 3103 
Q 1356 3103 1142 2972 
Q 928 2841 928 2578 
Q 928 2378 1081 2264 
Q 1234 2150 1697 2047 
L 1894 2003 
Q 2506 1872 2764 1633 
Q 3022 1394 3022 966 
Q 3022 478 2636 193 
Q 2250 -91 1575 -91 
Q 1294 -91 989 -36 
Q 684 19 347 128 
L 347 722 
Q 666 556 975 473 
Q 1284 391 1588 391 
Q 1994 391 2212 530 
Q 2431 669 2431 922 
Q 2431 1156 2273 1281 
Q 2116 1406 1581 1522 
L 1381 1569 
Q 847 1681 609 1914 
Q 372 2147 372 2553 
Q 372 3047 722 3315 
Q 1072 3584 1716 3584 
Q 2034 3584 2315 3537 
Q 2597 3491 2834 3397 
z
" transform="scale(0.015625)"/>
      </defs>
      <use xlink:href="#DejaVuSans-45"/>
      <use xlink:href="#DejaVuSans-70" x="63.183594"/>
      <use xlink:href="#DejaVuSans-6f" x="126.660156"/>
      <use xlink:href="#DejaVuSans-63" x="187.841797"/>
      <use xlink:href="#DejaVuSans-68" x="242.822266"/>
      <use xlink:href="#DejaVuSans-73" x="306.201172"/>
     </g>
    </g>
   </g>
   <g id="matplotlib.axis_2">
    <g id="ytick_1">
     <g id="line2d_11">
      <defs>
       <path id="m82954fdff2" d="M 0 0 
L -3.5 0 
" style="stroke: #000000; stroke-width: 0.8"/>
      </defs>
      <g>
       <use xlink:href="#m82954fdff2" x="57.6" y="277.82384" style="stroke: #000000; stroke-width: 0.8"/>
      </g>
     </g>
     <g id="text_12">
      <!-- 10 -->
      <g transform="translate(37.875 281.623058) scale(0.1 -0.1)">
       <use xlink:href="#DejaVuSans-31"/>
       <use xlink:href="#DejaVuSans-30" x="63.623047"/>
      </g>
     </g>
    </g>
    <g id="ytick_2">
     <g id="line2d_12">
      <g>
       <use xlink:href="#m82954fdff2" x="57.6" y="241.752448" style="stroke: #000000; stroke-width: 0.8"/>
      </g>
     </g>
     <g id="text_13">
      <!-- 20 -->
      <g transform="translate(37.875 245.551667) scale(0.1 -0.1)">
       <use xlink:href="#DejaVuSans-32"/>
       <use xlink:href="#DejaVuSans-30" x="63.623047"/>
      </g>
     </g>
    </g>
    <g id="ytick_3">
     <g id="line2d_13">
      <g>
       <use xlink:href="#m82954fdff2" x="57.6" y="205.681057" style="stroke: #000000; stroke-width: 0.8"/>
      </g>
     </g>
     <g id="text_14">
      <!-- 30 -->
      <g transform="translate(37.875 209.480276) scale(0.1 -0.1)">
       <use xlink:href="#DejaVuSans-33"/>
       <use xlink:href="#DejaVuSans-30" x="63.623047"/>
      </g>
     </g>
    </g>
    <g id="ytick_4">
     <g id="line2d_14">
      <g>
       <use xlink:href="#m82954fdff2" x="57.6" y="169.609666" style="stroke: #000000; stroke-width: 0.8"/>
      </g>
     </g>
     <g id="text_15">
      <!-- 40 -->
      <g transform="translate(37.875 173.408885) scale(0.1 -0.1)">
       <use xlink:href="#DejaVuSans-34"/>
       <use xlink:href="#DejaVuSans-30" x="63.623047"/>
      </g>
     </g>
    </g>
    <g id="ytick_5">
     <g id="line2d_15">
      <g>
       <use xlink:href="#m82954fdff2" x="57.6" y="133.538275" style="stroke: #000000; stroke-width: 0.8"/>
      </g>
     </g>
     <g id="text_16">
      <!-- 50 -->
      <g transform="translate(37.875 137.337493) scale(0.1 -0.1)">
       <defs>
        <path id="DejaVuSans-35" d="M 691 4666 
L 3169 4666 
L 3169 4134 
L 1269 4134 
L 1269 2991 
Q 1406 3038 1543 3061 
Q 1681 3084 1819 3084 
Q 2600 3084 3056 2656 
Q 3513 2228 3513 1497 
Q 3513 744 3044 326 
Q 2575 -91 1722 -91 
Q 1428 -91 1123 -41 
Q 819 9 494 109 
L 494 744 
Q 775 591 1075 516 
Q 1375 441 1709 441 
Q 2250 441 2565 725 
Q 2881 1009 2881 1497 
Q 2881 1984 2565 2268 
Q 2250 2553 1709 2553 
Q 1456 2553 1204 2497 
Q 953 2441 691 2322 
L 691 4666 
z
" transform="scale(0.015625)"/>
       </defs>
       <use xlink:href="#DejaVuSans-35"/>
       <use xlink:href="#DejaVuSans-30" x="63.623047"/>
      </g>
     </g>
    </g>
    <g id="ytick_6">
     <g id="line2d_16">
      <g>
       <use xlink:href="#m82954fdff2" x="57.6" y="97.466883" style="stroke: #000000; stroke-width: 0.8"/>
      </g>
     </g>
     <g id="text_17">
      <!-- 60 -->
      <g transform="translate(37.875 101.266102) scale(0.1 -0.1)">
       <use xlink:href="#DejaVuSans-36"/>
       <use xlink:href="#DejaVuSans-30" x="63.623047"/>
      </g>
     </g>
    </g>
    <g id="ytick_7">
     <g id="line2d_17">
      <g>
       <use xlink:href="#m82954fdff2" x="57.6" y="61.395492" style="stroke: #000000; stroke-width: 0.8"/>
      </g>
     </g>
     <g id="text_18">
      <!-- 70 -->
      <g transform="translate(37.875 65.194711) scale(0.1 -0.1)">
       <use xlink:href="#DejaVuSans-37"/>
       <use xlink:href="#DejaVuSans-30" x="63.623047"/>
      </g>
     </g>
    </g>
    <g id="text_19">
     <!-- Accuracy -->
     <g transform="translate(31.795312 197.356125) rotate(-90) scale(0.1 -0.1)">
      <defs>
       <path id="DejaVuSans-41" d="M 2188 4044 
L 1331 1722 
L 3047 1722 
L 2188 4044 
z
M 1831 4666 
L 2547 4666 
L 4325 0 
L 3669 0 
L 3244 1197 
L 1141 1197 
L 716 0 
L 50 0 
L 1831 4666 
z
" transform="scale(0.015625)"/>
       <path id="DejaVuSans-75" d="M 544 1381 
L 544 3500 
L 1119 3500 
L 1119 1403 
Q 1119 906 1312 657 
Q 1506 409 1894 409 
Q 2359 409 2629 706 
Q 2900 1003 2900 1516 
L 2900 3500 
L 3475 3500 
L 3475 0 
L 2900 0 
L 2900 538 
Q 2691 219 2414 64 
Q 2138 -91 1772 -91 
Q 1169 -91 856 284 
Q 544 659 544 1381 
z
M 1991 3584 
L 1991 3584 
z
" transform="scale(0.015625)"/>
       <path id="DejaVuSans-72" d="M 2631 2963 
Q 2534 3019 2420 3045 
Q 2306 3072 2169 3072 
Q 1681 3072 1420 2755 
Q 1159 2438 1159 1844 
L 1159 0 
L 581 0 
L 581 3500 
L 1159 3500 
L 1159 2956 
Q 1341 3275 1631 3429 
Q 1922 3584 2338 3584 
Q 2397 3584 2469 3576 
Q 2541 3569 2628 3553 
L 2631 2963 
z
" transform="scale(0.015625)"/>
       <path id="DejaVuSans-61" d="M 2194 1759 
Q 1497 1759 1228 1600 
Q 959 1441 959 1056 
Q 959 750 1161 570 
Q 1363 391 1709 391 
Q 2188 391 2477 730 
Q 2766 1069 2766 1631 
L 2766 1759 
L 2194 1759 
z
M 3341 1997 
L 3341 0 
L 2766 0 
L 2766 531 
Q 2569 213 2275 61 
Q 1981 -91 1556 -91 
Q 1019 -91 701 211 
Q 384 513 384 1019 
Q 384 1609 779 1909 
Q 1175 2209 1959 2209 
L 2766 2209 
L 2766 2266 
Q 2766 2663 2505 2880 
Q 2244 3097 1772 3097 
Q 1472 3097 1187 3025 
Q 903 2953 641 2809 
L 641 3341 
Q 956 3463 1253 3523 
Q 1550 3584 1831 3584 
Q 2591 3584 2966 3190 
Q 3341 2797 3341 1997 
z
" transform="scale(0.015625)"/>
       <path id="DejaVuSans-79" d="M 2059 -325 
Q 1816 -950 1584 -1140 
Q 1353 -1331 966 -1331 
L 506 -1331 
L 506 -850 
L 844 -850 
Q 1081 -850 1212 -737 
Q 1344 -625 1503 -206 
L 1606 56 
L 191 3500 
L 800 3500 
L 1894 763 
L 2988 3500 
L 3597 3500 
L 2059 -325 
z
" transform="scale(0.015625)"/>
      </defs>
      <use xlink:href="#DejaVuSans-41"/>
      <use xlink:href="#DejaVuSans-63" x="66.658203"/>
      <use xlink:href="#DejaVuSans-63" x="121.638672"/>
      <use xlink:href="#DejaVuSans-75" x="176.619141"/>
      <use xlink:href="#DejaVuSans-72" x="239.998047"/>
      <use xlink:href="#DejaVuSans-61" x="281.111328"/>
      <use xlink:href="#DejaVuSans-63" x="342.390625"/>
      <use xlink:href="#DejaVuSans-79" x="397.371094"/>
     </g>
    </g>
   </g>
   <g id="line2d_18">
    <path d="M 73.832727 295.488 
L 74.918528 272.701702 
L 76.00433 254.586649 
L 77.090131 240.273521 
L 78.175932 228.413248 
L 80.347534 211.686944 
L 81.433335 205.612521 
L 82.519137 197.940137 
L 84.690739 185.556828 
L 86.862341 175.810338 
L 87.948142 170.983986 
L 90.119745 164.411778 
L 91.205546 160.45114 
L 92.291347 157.973035 
L 94.462949 154.892538 
L 95.54875 186.170042 
L 96.634552 185.160043 
L 97.720353 181.881153 
L 99.891955 174.522589 
L 102.063557 169.959558 
L 103.149358 165.836598 
L 104.23516 164.2206 
L 105.320961 162.207816 
L 106.406762 158.983034 
L 107.492563 156.173073 
L 108.578364 152.966326 
L 109.664165 151.707434 
L 110.749967 150.004865 
L 111.835768 146.863046 
L 112.921569 145.658262 
L 114.00737 144.128835 
L 115.093171 141.510052 
L 116.178972 137.199521 
L 117.264773 136.918164 
L 118.350575 134.032453 
L 119.436376 132.982775 
L 120.522177 129.447779 
L 121.607978 128.275459 
L 122.693779 125.194962 
L 123.77958 123.979356 
L 124.865382 121.955751 
L 125.951183 121.223502 
L 127.036984 118.31254 
L 128.122785 116.332221 
L 129.208586 115.578329 
L 130.294387 113.276974 
L 131.380189 111.574404 
L 132.46599 110.405691 
L 133.551791 110.088263 
L 134.637592 109.085478 
L 135.723393 107.826587 
L 136.809194 107.447837 
L 137.894995 106.809374 
L 138.980797 146.863046 
L 140.066598 149.499865 
L 141.152399 148.161617 
L 142.2382 147.959617 
L 143.324001 146.02619 
L 144.409802 145.059477 
L 145.495604 144.749263 
L 146.581405 142.942086 
L 147.667206 142.141301 
L 148.753007 141.784195 
L 149.838808 140.409875 
L 150.924609 139.637947 
L 152.01041 138.458412 
L 153.096212 136.716164 
L 154.182013 135.958665 
L 155.267814 134.577131 
L 156.353615 134.948666 
L 158.525217 131.933098 
L 159.611019 132.51024 
L 160.69682 130.389242 
L 161.782621 129.400886 
L 163.954223 128.625351 
L 165.040024 125.645854 
L 166.125825 125.772104 
L 167.211627 126.121996 
L 168.297428 124.41582 
L 169.383229 123.676356 
L 170.46903 123.297607 
L 171.554831 121.548144 
L 172.640632 119.51011 
L 173.726434 120.491252 
L 174.812235 118.59029 
L 175.898036 116.923792 
L 176.983837 117.331398 
L 178.069638 116.433221 
L 179.155439 114.222044 
L 180.24124 113.951509 
L 181.327042 113.212046 
L 182.412843 112.028904 
L 183.498644 110.582441 
L 184.584445 110.957584 
L 185.670246 108.66705 
L 186.756047 107.061873 
L 187.841849 106.657874 
L 188.92765 104.854304 
L 190.013451 104.774947 
L 191.099252 104.46834 
L 192.185053 102.405057 
L 193.270854 101.084844 
L 194.356656 100.536559 
L 195.442457 99.050417 
L 196.528258 98.805132 
L 197.614059 98.116168 
L 198.69986 95.735456 
L 200.871462 93.960744 
L 201.957264 94.725457 
L 203.043065 92.456567 
L 204.128866 90.894676 
L 206.300468 89.689891 
L 207.386269 88.221786 
L 208.472071 88.225393 
L 209.557872 86.396573 
L 210.643673 85.73286 
L 211.729474 85.660717 
L 213.901076 84.192611 
L 214.986877 83.889612 
L 216.072679 82.749756 
L 217.15848 81.847971 
L 218.244281 82.298863 
L 219.330082 81.4584 
L 220.415883 80.037187 
L 221.501684 81.761399 
L 222.587486 79.759437 
L 223.673287 81.23115 
L 224.759088 80.250008 
L 225.844889 129.678636 
L 226.93069 133.080168 
L 228.016491 133.260525 
L 229.102292 131.868169 
L 230.188094 131.810455 
L 231.273895 131.052956 
L 232.359696 129.779636 
L 233.445497 129.296279 
L 234.531298 129.234958 
L 235.617099 128.441387 
L 236.702901 127.323174 
L 237.788702 127.391709 
L 238.874503 127.175281 
L 241.046105 125.974104 
L 242.131906 125.703568 
L 243.217708 124.080356 
L 244.303509 125.122819 
L 245.38931 124.524034 
L 246.475111 123.257928 
L 247.560912 124.029856 
L 249.732514 122.522072 
L 250.818316 122.882786 
L 251.904117 120.722109 
L 254.075719 121.219894 
L 255.16152 120.375824 
L 256.247321 120.062003 
L 257.333123 120.516502 
L 258.418924 118.972647 
L 259.504725 119.73736 
L 260.590526 118.684076 
L 261.676327 119.098897 
L 262.762128 118.027576 
L 263.847929 117.49372 
L 264.933731 117.605541 
L 266.019532 117.212363 
L 267.105333 116.959863 
L 268.191134 116.411578 
L 269.276935 116.617185 
L 270.362736 116.523399 
L 271.448538 115.322222 
L 272.534339 114.460116 
L 273.62014 113.897402 
L 274.705941 113.702616 
L 275.791742 114.705401 
L 276.877543 113.579974 
L 277.963344 113.536688 
L 279.049146 112.811653 
L 280.134947 111.873797 
L 281.220748 112.649332 
L 282.306549 112.018082 
L 283.39235 110.871012 
L 284.478151 111.31469 
L 285.563953 109.669835 
L 286.649754 110.582441 
L 287.735555 109.475049 
L 288.821356 110.037763 
L 289.907157 108.226979 
L 290.992958 108.475872 
L 292.07876 107.653444 
L 293.164561 107.808551 
L 294.250362 107.59573 
L 295.336163 106.517195 
L 296.421964 106.181731 
L 297.507765 106.163696 
L 298.593566 104.504412 
L 299.679368 104.31684 
L 300.765169 105.02384 
L 301.85097 104.425055 
L 302.936771 104.042698 
L 304.022572 104.006626 
L 305.108373 102.729699 
L 306.194175 102.235521 
L 307.279976 102.607056 
L 308.365777 101.355379 
L 309.451578 100.706094 
L 310.537379 100.940558 
L 311.62318 99.12256 
L 312.708981 100.897273 
L 313.794783 97.968276 
L 314.880584 98.736596 
L 315.966385 97.780704 
L 317.052186 98.134204 
L 318.137987 97.340633 
L 319.223788 95.771528 
L 320.30959 95.490171 
L 321.395391 96.016813 
L 322.481192 94.238494 
L 323.566993 95.313421 
L 324.652794 94.252922 
L 325.738595 94.350315 
L 326.824396 92.806459 
L 327.910198 92.871388 
L 328.995999 92.204067 
L 330.0818 91.35639 
L 331.167601 91.543961 
L 333.339203 90.555605 
L 334.425005 89.09832 
L 335.510806 88.535607 
L 336.596607 88.232607 
L 337.682408 86.80418 
L 338.768209 87.561679 
L 339.85401 87.103572 
L 340.939811 85.639074 
L 342.025613 86.457895 
L 343.111414 84.636289 
L 344.197215 84.571361 
L 345.283016 85.105217 
L 346.368817 83.799433 
L 347.454618 83.182612 
L 348.54042 82.241149 
L 349.626221 81.032757 
L 350.712022 80.394294 
L 352.883624 80.599901 
L 355.055227 78.064082 
L 356.141028 78.157867 
L 358.31263 77.122619 
L 359.398431 77.31019 
L 360.484232 76.790762 
L 361.570033 75.016049 
L 362.655835 75.189192 
L 363.741636 74.244121 
L 364.827437 73.630908 
L 365.913238 72.447766 
L 366.999039 73.259373 
L 368.08484 73.327908 
L 369.170642 75.521049 
L 370.256443 77.20919 
L 371.342244 79.102938 
L 372.428045 80.697293 
L 373.513846 81.649578 
L 374.599647 82.049971 
L 375.685448 81.779435 
L 376.77125 80.599901 
L 377.857051 82.111292 
L 378.942852 81.38265 
L 380.028653 82.619899 
L 381.114454 82.435934 
L 382.200255 82.775006 
L 383.286057 82.280827 
L 384.371858 82.937327 
L 385.457659 81.981435 
L 386.54346 82.915684 
L 387.629261 83.391826 
L 388.715062 82.046363 
L 390.886665 83.997826 
L 391.972466 82.114899 
L 393.058267 83.135719 
L 394.144068 83.326898 
L 395.229869 83.150148 
L 396.31567 82.544149 
L 397.401472 83.117684 
L 398.487273 83.197041 
L 398.487273 83.197041 
" clip-path="url(#p97f427c63a)" style="fill: none; stroke: #1f77b4; stroke-width: 1.5; stroke-linecap: square"/>
   </g>
   <g id="line2d_19">
    <path d="M 73.832727 279.12241 
L 76.00433 237.063168 
L 77.090131 234.393885 
L 78.175932 214.229977 
L 79.261733 202.290346 
L 80.347534 193.921784 
L 82.519137 175.345017 
L 83.604938 172.387163 
L 84.690739 158.57182 
L 85.77654 152.764326 
L 86.862341 144.720406 
L 87.948142 143.02505 
L 89.033943 140.860767 
L 90.119745 136.460057 
L 91.205546 129.53435 
L 92.291347 130.327921 
L 93.377148 128.668637 
L 94.462949 127.875066 
L 95.54875 168.41931 
L 96.634552 163.188958 
L 97.720353 155.000752 
L 98.806154 148.399688 
L 99.891955 144.32362 
L 100.977756 143.638264 
L 102.063557 141.005052 
L 103.149358 137.650413 
L 104.23516 136.351843 
L 105.320961 135.558272 
L 106.406762 124.953283 
L 107.492563 126.576496 
L 108.578364 125.963282 
L 109.664165 122.500429 
L 110.749967 122.392215 
L 111.835768 117.450434 
L 112.921569 118.352219 
L 114.00737 112.364368 
L 115.093171 111.029726 
L 116.178972 107.711158 
L 117.264773 106.845445 
L 118.350575 104.176162 
L 119.436376 104.753304 
L 120.522177 104.39259 
L 121.607978 99.162239 
L 122.693779 96.637241 
L 123.77958 93.462959 
L 124.865382 94.292601 
L 125.951183 90.757604 
L 127.036984 86.50118 
L 128.122785 86.104395 
L 129.208586 85.274753 
L 130.294387 85.094396 
L 131.380189 83.759755 
L 132.46599 83.867969 
L 133.551791 81.451185 
L 134.637592 80.910115 
L 135.723393 81.920114 
L 136.809194 81.631542 
L 137.894995 81.523328 
L 138.980797 124.628641 
L 140.066598 122.211858 
L 141.152399 117.883291 
L 142.2382 118.13579 
L 143.324001 119.001504 
L 144.409802 118.063648 
L 145.495604 116.873292 
L 146.581405 121.959358 
L 147.667206 119.362218 
L 148.753007 111.462583 
L 149.838808 111.823297 
L 150.924609 112.869367 
L 152.01041 111.89544 
L 153.096212 110.669012 
L 154.182013 110.524727 
L 155.267814 110.524727 
L 156.353615 105.402589 
L 157.439416 108.7933 
L 158.525217 109.406514 
L 159.611019 104.64509 
L 160.69682 101.759379 
L 161.782621 97.719383 
L 163.954223 104.89759 
L 165.040024 105.655089 
L 166.125825 100.064023 
L 167.211627 103.310449 
L 168.297428 94.833672 
L 169.383229 94.472958 
L 170.46903 94.292601 
L 171.554831 92.092246 
L 172.640632 94.869743 
L 173.726434 91.262604 
L 174.812235 92.164389 
L 175.898036 93.895815 
L 176.983837 88.196536 
L 178.069638 89.278677 
L 179.155439 98.621168 
L 180.24124 88.485107 
L 181.327042 87.511179 
L 182.412843 82.533327 
L 183.498644 83.615469 
L 185.670246 82.569399 
L 186.756047 80.657615 
L 187.841849 81.162614 
L 188.92765 79.864044 
L 190.013451 82.316899 
L 191.099252 76.797976 
L 192.185053 76.040477 
L 193.270854 74.741907 
L 194.356656 72.000481 
L 195.442457 73.912265 
L 196.528258 72.541552 
L 197.614059 69.583698 
L 198.69986 72.252981 
L 199.785661 69.331198 
L 201.957264 65.291202 
L 203.043065 65.832273 
L 204.128866 67.599771 
L 205.214667 65.074774 
L 206.300468 64.20906 
L 207.386269 63.66799 
L 208.472071 60.782278 
L 209.557872 62.946562 
L 210.643673 62.441562 
L 212.815275 60.854421 
L 214.986877 60.096922 
L 216.072679 59.916565 
L 217.15848 59.411565 
L 218.244281 59.483708 
L 219.330082 58.654066 
L 220.415883 58.690138 
L 222.587486 58.401566 
L 223.673287 58.401566 
L 224.759088 58.221209 
L 225.844889 112.977581 
L 226.93069 125.313997 
L 228.016491 104.176162 
L 229.102292 102.877592 
L 230.188094 103.526877 
L 231.273895 102.372592 
L 232.359696 102.192235 
L 233.445497 104.320448 
L 234.531298 103.454734 
L 235.617099 102.841521 
L 236.702901 100.929737 
L 237.788702 102.805449 
L 238.874503 99.739381 
L 239.960304 103.707234 
L 241.046105 95.951885 
L 242.131906 102.264378 
L 243.217708 98.801525 
L 244.303509 100.569023 
L 245.38931 98.94581 
L 246.475111 97.971883 
L 247.560912 100.424737 
L 248.646713 98.837596 
L 249.732514 106.19616 
L 250.818316 95.915813 
L 251.904117 95.266528 
L 252.989918 93.318673 
L 254.075719 100.352595 
L 255.16152 90.360819 
L 256.247321 94.292601 
L 257.333123 96.781527 
L 258.418924 95.374743 
L 259.504725 91.406889 
L 260.590526 97.070098 
L 261.676327 90.577247 
L 262.762128 95.0501 
L 263.847929 96.09617 
L 264.933731 90.721533 
L 266.019532 95.879742 
L 267.105333 91.911889 
L 268.191134 93.426887 
L 269.276935 89.85582 
L 270.362736 87.078323 
L 271.448538 90.072248 
L 272.534339 89.675463 
L 273.62014 95.699385 
L 274.705941 86.320823 
L 275.791742 90.324748 
L 276.877543 88.449035 
L 277.963344 86.068324 
L 279.049146 85.45511 
L 280.134947 86.573323 
L 281.220748 92.20046 
L 282.306549 93.138316 
L 283.39235 86.284752 
L 284.478151 92.849745 
L 285.563953 83.110469 
L 286.649754 89.242606 
L 287.735555 87.691536 
L 288.821356 84.084397 
L 290.992958 84.264754 
L 292.07876 88.485107 
L 293.164561 85.743681 
L 294.250362 82.35297 
L 295.336163 89.386892 
L 297.507765 80.296901 
L 298.593566 87.655465 
L 299.679368 79.972258 
L 300.765169 77.952261 
L 301.85097 82.028328 
L 302.936771 81.775828 
L 304.022572 86.609394 
L 305.108373 79.431188 
L 306.194175 84.192611 
L 307.279976 80.585472 
L 308.365777 80.26083 
L 309.451578 79.070474 
L 310.537379 75.896191 
L 311.62318 79.395116 
L 312.708981 74.489407 
L 313.794783 77.050476 
L 314.880584 76.437262 
L 315.966385 76.437262 
L 317.052186 73.767979 
L 318.137987 74.381193 
L 319.223788 75.787977 
L 320.30959 74.05655 
L 321.395391 73.876193 
L 323.566993 74.345121 
L 324.652794 70.701911 
L 325.738595 72.072624 
L 327.910198 67.635843 
L 328.995999 70.629768 
L 330.0818 68.249056 
L 331.167601 66.878343 
L 332.253402 71.351196 
L 333.339203 68.465485 
L 334.425005 68.285128 
L 335.510806 66.120844 
L 336.596607 63.559775 
L 337.682408 68.537627 
L 338.768209 66.373344 
L 339.85401 65.399416 
L 340.939811 63.884418 
L 342.025613 64.100846 
L 343.111414 63.126919 
L 344.197215 63.343347 
L 345.283016 64.353346 
L 346.368817 61.900491 
L 347.454618 62.008706 
L 349.626221 59.411565 
L 350.712022 61.034778 
L 351.797823 59.339423 
L 352.883624 61.323349 
L 353.969425 61.034778 
L 355.055227 58.942637 
L 356.141028 57.644067 
L 357.226829 59.231208 
L 358.31263 57.391567 
L 359.398431 57.139068 
L 360.484232 55.11907 
L 361.570033 57.571924 
L 362.655835 55.768355 
L 363.741636 54.938713 
L 364.827437 55.660141 
L 365.913238 54.722285 
L 366.999039 53.568 
L 368.08484 56.092997 
L 369.170642 56.525854 
L 370.256443 58.112995 
L 371.342244 59.411565 
L 372.428045 62.152991 
L 373.513846 62.982633 
L 374.599647 61.215135 
L 375.685448 62.333348 
L 376.77125 63.16299 
L 377.857051 59.664065 
L 378.942852 62.189063 
L 380.028653 61.287278 
L 381.114454 64.497632 
L 382.200255 64.317275 
L 383.286057 65.507631 
L 384.371858 64.100846 
L 385.457659 61.647992 
L 386.54346 60.962635 
L 387.629261 63.740132 
L 388.715062 63.343347 
L 389.800863 63.379418 
L 390.886665 65.868344 
L 391.972466 59.700137 
L 393.058267 63.090847 
L 394.144068 60.890492 
L 395.229869 63.16299 
L 396.31567 64.425489 
L 397.401472 62.044777 
L 398.487273 62.477634 
L 398.487273 62.477634 
" clip-path="url(#p97f427c63a)" style="fill: none; stroke: #ff7f0e; stroke-width: 1.5; stroke-linecap: square"/>
   </g>
   <g id="line2d_20">
    <path d="M 73.832727 292.302175 
L 76.00433 282.649831 
L 77.090131 275.21191 
L 79.261733 268.569724 
L 80.347534 267.624293 
L 81.433335 262.773412 
L 82.519137 253.544186 
L 83.604938 250.534029 
L 85.77654 241.05591 
L 86.862341 240.533596 
L 87.948142 241.205245 
L 89.033943 242.100898 
L 90.119745 238.816959 
L 91.205546 234.165192 
L 92.291347 234.314167 
L 93.377148 234.836841 
L 94.462949 234.090524 
L 95.54875 244.513713 
L 96.634552 258.171064 
L 97.720353 245.484034 
L 98.806154 237.79686 
L 99.891955 237.100321 
L 100.977756 238.394202 
L 102.063557 234.513281 
L 103.149358 231.727127 
L 104.23516 234.488392 
L 105.320961 233.841632 
L 106.406762 225.582365 
L 107.492563 223.094882 
L 108.578364 226.826467 
L 109.664165 221.726694 
L 110.749967 222.298786 
L 111.835768 216.850924 
L 112.921569 222.423233 
L 114.00737 218.94054 
L 115.093171 222.52279 
L 116.178972 217.795995 
L 117.264773 214.064409 
L 118.350575 208.765882 
L 119.436376 205.880171 
L 120.522177 215.03473 
L 121.607978 209.089082 
L 122.693779 210.358074 
L 123.77958 200.083859 
L 124.865382 206.253149 
L 127.036984 199.287764 
L 128.122785 200.954623 
L 129.208586 197.44668 
L 130.294387 198.44189 
L 131.380189 195.232618 
L 132.46599 195.581068 
L 133.551791 194.585858 
L 134.637592 195.780182 
L 135.723393 195.357064 
L 136.809194 193.814651 
L 137.894995 195.008975 
L 138.980797 226.776689 
L 140.066598 223.642085 
L 141.152399 221.85114 
L 142.2382 217.248792 
L 143.324001 228.66719 
L 144.409802 215.383179 
L 145.495604 218.019998 
L 146.581405 224.512848 
L 148.753007 212.870446 
L 149.838808 211.228476 
L 150.924609 211.502258 
L 152.01041 217.895552 
L 153.096212 213.790988 
L 154.182013 214.960062 
L 155.267814 223.46786 
L 156.353615 201.501826 
L 157.439416 214.711169 
L 158.525217 212.522357 
L 159.611019 206.153592 
L 160.69682 209.586867 
L 161.782621 202.3477 
L 162.868422 208.069344 
L 163.954223 206.029507 
L 165.040024 211.751151 
L 166.125825 196.949255 
L 167.211627 207.52178 
L 168.297428 201.302712 
L 169.383229 197.023923 
L 170.46903 198.989093 
L 171.554831 198.690782 
L 172.640632 200.531505 
L 173.726434 198.715671 
L 174.812235 196.675474 
L 175.898036 200.307502 
L 176.983837 197.098591 
L 178.069638 194.486662 
L 179.155439 202.894903 
L 180.24124 196.451831 
L 181.327042 193.516341 
L 182.412843 188.093007 
L 183.498644 192.620688 
L 184.584445 193.317277 
L 185.670246 187.545854 
L 187.841849 181.177388 
L 188.92765 182.072953 
L 190.013451 190.033536 
L 191.099252 184.13773 
L 192.185053 187.595608 
L 193.270854 179.958424 
L 194.356656 177.694633 
L 195.442457 183.018273 
L 196.528258 181.55054 
L 197.614059 177.893647 
L 198.69986 176.823944 
L 199.785661 181.426156 
L 200.871462 173.191928 
L 201.957264 169.858434 
L 203.043065 173.838725 
L 204.128866 173.01779 
L 205.214667 169.758927 
L 206.300468 171.972964 
L 207.386269 170.405724 
L 208.472071 167.942919 
L 209.557872 170.35597 
L 210.643673 169.833557 
L 211.729474 168.863361 
L 212.815275 166.027403 
L 213.901076 165.853266 
L 214.986877 168.390702 
L 216.072679 166.798585 
L 217.15848 166.450309 
L 218.244281 165.480113 
L 219.330082 166.226418 
L 220.415883 164.609425 
L 221.501684 165.305976 
L 222.587486 165.554744 
L 223.673287 165.281099 
L 224.759088 165.281099 
L 225.844889 218.41799 
L 226.93069 218.019961 
L 228.016491 199.412098 
L 229.102292 203.740665 
L 230.188094 205.880072 
L 231.273895 203.591404 
L 232.359696 198.392148 
L 233.445497 208.86529 
L 234.531298 198.317518 
L 235.617099 198.939438 
L 236.702901 199.884758 
L 238.874503 193.2924 
L 239.960304 198.417025 
L 241.046105 200.158403 
L 242.131906 193.516291 
L 243.217708 193.267523 
L 244.303509 203.840172 
L 245.38931 197.471706 
L 246.475111 192.172943 
L 247.560912 201.974411 
L 248.646713 202.745592 
L 249.732514 211.950016 
L 250.818316 196.227865 
L 251.904117 193.715306 
L 252.989918 193.939197 
L 254.075719 204.611354 
L 255.16152 194.262596 
L 256.247321 196.402003 
L 257.333123 193.317277 
L 258.418924 188.267282 
L 259.504725 187.96876 
L 260.590526 201.327613 
L 261.676327 194.31235 
L 262.762128 196.426879 
L 263.847929 198.168257 
L 264.933731 184.75965 
L 267.105333 190.033536 
L 268.191134 197.397076 
L 269.276935 187.943883 
L 270.362736 194.262596 
L 271.448538 195.556191 
L 272.534339 184.087976 
L 273.62014 195.705452 
L 274.705941 181.301772 
L 275.791742 194.287473 
L 277.963344 182.993396 
L 279.049146 190.257428 
L 280.134947 181.376402 
L 281.220748 202.397317 
L 283.39235 187.272209 
L 284.478151 192.247573 
L 285.563953 188.963833 
L 286.649754 186.600535 
L 287.735555 188.391666 
L 288.821356 183.018273 
L 289.907157 185.729846 
L 290.992958 185.456201 
L 292.07876 199.213083 
L 293.164561 192.371958 
L 294.250362 187.645361 
L 295.336163 200.108649 
L 296.421964 181.028127 
L 297.507765 177.221973 
L 298.593566 189.237478 
L 299.679368 180.057931 
L 300.765169 177.620002 
L 301.85097 185.804477 
L 302.936771 182.595367 
L 304.022572 185.903984 
L 305.108373 178.217046 
L 306.194175 186.973687 
L 307.279976 189.685261 
L 308.365777 183.341671 
L 309.451578 179.560394 
L 311.62318 178.714582 
L 312.708981 182.893889 
L 313.794783 177.644879 
L 314.880584 185.008418 
L 315.966385 180.679851 
L 317.052186 175.107443 
L 318.137987 172.968037 
L 319.223788 178.789213 
L 320.30959 177.346357 
L 321.395391 178.042908 
L 322.481192 179.858916 
L 323.566993 178.018031 
L 324.652794 170.132079 
L 325.738595 175.455719 
L 326.824396 170.878384 
L 327.910198 165.579621 
L 328.995999 172.769022 
L 330.0818 169.908188 
L 331.167601 173.191928 
L 332.253402 170.878384 
L 333.339203 170.928137 
L 334.425005 176.251777 
L 335.510806 166.649324 
L 336.596607 169.161883 
L 337.682408 176.873698 
L 338.768209 174.336262 
L 339.85401 168.987745 
L 340.939811 169.535035 
L 342.025613 169.510159 
L 343.111414 167.470259 
L 344.197215 167.918042 
L 345.283016 162.047112 
L 346.368817 162.246127 
L 347.454618 165.952773 
L 348.54042 163.664105 
L 349.626221 166.674201 
L 350.712022 163.216323 
L 351.797823 164.634301 
L 352.883624 165.455237 
L 353.969425 165.828389 
L 355.055227 160.902778 
L 356.141028 164.33578 
L 357.226829 160.156474 
L 358.31263 161.027162 
L 359.398431 158.265835 
L 360.484232 160.131597 
L 361.570033 158.017067 
L 362.655835 157.793176 
L 363.741636 157.071748 
L 364.827437 159.360415 
L 365.913238 158.439973 
L 366.999039 158.340466 
L 368.08484 156.524458 
L 369.170642 159.335538 
L 370.256443 156.798103 
L 371.342244 160.430119 
L 372.428045 169.410651 
L 373.513846 165.903019 
L 374.599647 166.549817 
L 375.685448 168.216564 
L 376.77125 167.868288 
L 377.857051 163.614352 
L 378.942852 172.271486 
L 380.028653 166.52494 
L 381.114454 172.868529 
L 382.200255 169.460405 
L 383.286057 168.141933 
L 384.371858 164.9577 
L 385.457659 162.246127 
L 386.54346 165.455237 
L 387.629261 166.126911 
L 388.715062 170.082325 
L 389.800863 171.152029 
L 390.886665 170.35597 
L 391.972466 160.778394 
L 393.058267 172.072471 
L 394.144068 168.788731 
L 395.229869 166.05228 
L 396.31567 167.14686 
L 397.401472 166.848339 
L 398.487273 167.868288 
L 398.487273 167.868288 
" clip-path="url(#p97f427c63a)" style="fill: none; stroke: #2ca02c; stroke-width: 1.5; stroke-linecap: square"/>
   </g>
   <g id="line2d_21">
    <path d="M 368.08484 55.407641 
L 369.170642 57.175139 
L 370.256443 58.365495 
L 371.342244 57.535853 
L 372.428045 64.786203 
L 373.513846 60.890492 
L 374.599647 61.936563 
L 375.685448 63.379418 
L 376.77125 63.054776 
L 377.857051 68.86227 
L 378.942852 63.523704 
L 380.028653 62.766205 
L 381.114454 66.301201 
L 382.200255 65.940487 
L 383.286057 62.080848 
L 384.371858 63.66799 
L 385.457659 74.05655 
L 386.54346 68.826199 
L 387.629261 66.878343 
L 388.715062 65.615845 
L 389.800863 72.433338 
L 390.886665 66.01263 
L 391.972466 70.052626 
L 393.058267 69.619769 
L 394.144068 76.220834 
L 395.229869 75.60762 
L 396.31567 69.367269 
L 397.401472 76.292977 
L 398.487273 75.86012 
L 398.487273 75.86012 
" clip-path="url(#p97f427c63a)" style="fill: none; stroke: #d62728; stroke-width: 1.5; stroke-linecap: square"/>
   </g>
   <g id="line2d_22">
    <path d="M 368.08484 158.788248 
L 369.170642 160.902778 
L 370.256443 164.509917 
L 371.342244 163.365584 
L 372.428045 169.037499 
L 373.513846 167.644397 
L 374.599647 167.14686 
L 375.685448 165.529867 
L 376.77125 164.684055 
L 377.857051 172.346116 
L 378.942852 163.116815 
L 380.028653 170.530108 
L 381.114454 179.187242 
L 382.200255 162.793417 
L 383.286057 160.131597 
L 384.371858 160.206227 
L 385.457659 177.943401 
L 386.54346 169.410651 
L 387.629261 167.768781 
L 388.715062 162.29588 
L 389.800863 169.311144 
L 390.886665 165.579621 
L 391.972466 169.485282 
L 393.058267 169.037499 
L 394.144068 177.371234 
L 395.229869 177.271727 
L 396.31567 165.50499 
L 397.401472 177.495618 
L 398.487273 176.500545 
L 398.487273 176.500545 
" clip-path="url(#p97f427c63a)" style="fill: none; stroke: #9467bd; stroke-width: 1.5; stroke-linecap: square"/>
   </g>
   <g id="patch_3">
    <path d="M 57.6 307.584 
L 57.6 41.472 
" style="fill: none; stroke: #000000; stroke-width: 0.8; stroke-linejoin: miter; stroke-linecap: square"/>
   </g>
   <g id="patch_4">
    <path d="M 414.72 307.584 
L 414.72 41.472 
" style="fill: none; stroke: #000000; stroke-width: 0.8; stroke-linejoin: miter; stroke-linecap: square"/>
   </g>
   <g id="patch_5">
    <path d="M 57.6 307.584 
L 414.72 307.584 
" style="fill: none; stroke: #000000; stroke-width: 0.8; stroke-linejoin: miter; stroke-linecap: square"/>
   </g>
   <g id="patch_6">
    <path d="M 57.6 41.472 
L 414.72 41.472 
" style="fill: none; stroke: #000000; stroke-width: 0.8; stroke-linejoin: miter; stroke-linecap: square"/>
   </g>
   <g id="text_20">
    <!-- Learning Curves -->
    <g transform="translate(187.37625 35.472) scale(0.12 -0.12)">
     <defs>
      <path id="DejaVuSans-4c" d="M 628 4666 
L 1259 4666 
L 1259 531 
L 3531 531 
L 3531 0 
L 628 0 
L 628 4666 
z
" transform="scale(0.015625)"/>
      <path id="DejaVuSans-65" d="M 3597 1894 
L 3597 1613 
L 953 1613 
Q 991 1019 1311 708 
Q 1631 397 2203 397 
Q 2534 397 2845 478 
Q 3156 559 3463 722 
L 3463 178 
Q 3153 47 2828 -22 
Q 2503 -91 2169 -91 
Q 1331 -91 842 396 
Q 353 884 353 1716 
Q 353 2575 817 3079 
Q 1281 3584 2069 3584 
Q 2775 3584 3186 3129 
Q 3597 2675 3597 1894 
z
M 3022 2063 
Q 3016 2534 2758 2815 
Q 2500 3097 2075 3097 
Q 1594 3097 1305 2825 
Q 1016 2553 972 2059 
L 3022 2063 
z
" transform="scale(0.015625)"/>
      <path id="DejaVuSans-6e" d="M 3513 2113 
L 3513 0 
L 2938 0 
L 2938 2094 
Q 2938 2591 2744 2837 
Q 2550 3084 2163 3084 
Q 1697 3084 1428 2787 
Q 1159 2491 1159 1978 
L 1159 0 
L 581 0 
L 581 3500 
L 1159 3500 
L 1159 2956 
Q 1366 3272 1645 3428 
Q 1925 3584 2291 3584 
Q 2894 3584 3203 3211 
Q 3513 2838 3513 2113 
z
" transform="scale(0.015625)"/>
      <path id="DejaVuSans-69" d="M 603 3500 
L 1178 3500 
L 1178 0 
L 603 0 
L 603 3500 
z
M 603 4863 
L 1178 4863 
L 1178 4134 
L 603 4134 
L 603 4863 
z
" transform="scale(0.015625)"/>
      <path id="DejaVuSans-67" d="M 2906 1791 
Q 2906 2416 2648 2759 
Q 2391 3103 1925 3103 
Q 1463 3103 1205 2759 
Q 947 2416 947 1791 
Q 947 1169 1205 825 
Q 1463 481 1925 481 
Q 2391 481 2648 825 
Q 2906 1169 2906 1791 
z
M 3481 434 
Q 3481 -459 3084 -895 
Q 2688 -1331 1869 -1331 
Q 1566 -1331 1297 -1286 
Q 1028 -1241 775 -1147 
L 775 -588 
Q 1028 -725 1275 -790 
Q 1522 -856 1778 -856 
Q 2344 -856 2625 -561 
Q 2906 -266 2906 331 
L 2906 616 
Q 2728 306 2450 153 
Q 2172 0 1784 0 
Q 1141 0 747 490 
Q 353 981 353 1791 
Q 353 2603 747 3093 
Q 1141 3584 1784 3584 
Q 2172 3584 2450 3431 
Q 2728 3278 2906 2969 
L 2906 3500 
L 3481 3500 
L 3481 434 
z
" transform="scale(0.015625)"/>
      <path id="DejaVuSans-20" transform="scale(0.015625)"/>
      <path id="DejaVuSans-43" d="M 4122 4306 
L 4122 3641 
Q 3803 3938 3442 4084 
Q 3081 4231 2675 4231 
Q 1875 4231 1450 3742 
Q 1025 3253 1025 2328 
Q 1025 1406 1450 917 
Q 1875 428 2675 428 
Q 3081 428 3442 575 
Q 3803 722 4122 1019 
L 4122 359 
Q 3791 134 3420 21 
Q 3050 -91 2638 -91 
Q 1578 -91 968 557 
Q 359 1206 359 2328 
Q 359 3453 968 4101 
Q 1578 4750 2638 4750 
Q 3056 4750 3426 4639 
Q 3797 4528 4122 4306 
z
" transform="scale(0.015625)"/>
      <path id="DejaVuSans-76" d="M 191 3500 
L 800 3500 
L 1894 563 
L 2988 3500 
L 3597 3500 
L 2284 0 
L 1503 0 
L 191 3500 
z
" transform="scale(0.015625)"/>
     </defs>
     <use xlink:href="#DejaVuSans-4c"/>
     <use xlink:href="#DejaVuSans-65" x="53.962891"/>
     <use xlink:href="#DejaVuSans-61" x="115.486328"/>
     <use xlink:href="#DejaVuSans-72" x="176.765625"/>
     <use xlink:href="#DejaVuSans-6e" x="216.128906"/>
     <use xlink:href="#DejaVuSans-69" x="279.507812"/>
     <use xlink:href="#DejaVuSans-6e" x="307.291016"/>
     <use xlink:href="#DejaVuSans-67" x="370.669922"/>
     <use xlink:href="#DejaVuSans-20" x="434.146484"/>
     <use xlink:href="#DejaVuSans-43" x="465.933594"/>
     <use xlink:href="#DejaVuSans-75" x="535.757812"/>
     <use xlink:href="#DejaVuSans-72" x="599.136719"/>
     <use xlink:href="#DejaVuSans-76" x="640.25"/>
     <use xlink:href="#DejaVuSans-65" x="699.429688"/>
     <use xlink:href="#DejaVuSans-73" x="760.953125"/>
    </g>
   </g>
   <g id="legend_1">
    <g id="patch_7">
     <path d="M 214.18875 302.584 
L 407.72 302.584 
Q 409.72 302.584 409.72 300.584 
L 409.72 228.193375 
Q 409.72 226.193375 407.72 226.193375 
L 214.18875 226.193375 
Q 212.18875 226.193375 212.18875 228.193375 
L 212.18875 300.584 
Q 212.18875 302.584 214.18875 302.584 
z
" style="fill: #ffffff; opacity: 0.8; stroke: #cccccc; stroke-linejoin: miter"/>
    </g>
    <g id="line2d_23">
     <path d="M 216.18875 234.291812 
L 226.18875 234.291812 
L 236.18875 234.291812 
" style="fill: none; stroke: #1f77b4; stroke-width: 1.5; stroke-linecap: square"/>
    </g>
    <g id="text_21">
     <!-- Train Accuracy -->
     <g transform="translate(244.18875 237.791812) scale(0.1 -0.1)">
      <defs>
       <path id="DejaVuSans-54" d="M -19 4666 
L 3928 4666 
L 3928 4134 
L 2272 4134 
L 2272 0 
L 1638 0 
L 1638 4134 
L -19 4134 
L -19 4666 
z
" transform="scale(0.015625)"/>
      </defs>
      <use xlink:href="#DejaVuSans-54"/>
      <use xlink:href="#DejaVuSans-72" x="46.333984"/>
      <use xlink:href="#DejaVuSans-61" x="87.447266"/>
      <use xlink:href="#DejaVuSans-69" x="148.726562"/>
      <use xlink:href="#DejaVuSans-6e" x="176.509766"/>
      <use xlink:href="#DejaVuSans-20" x="239.888672"/>
      <use xlink:href="#DejaVuSans-41" x="271.675781"/>
      <use xlink:href="#DejaVuSans-63" x="338.333984"/>
      <use xlink:href="#DejaVuSans-63" x="393.314453"/>
      <use xlink:href="#DejaVuSans-75" x="448.294922"/>
      <use xlink:href="#DejaVuSans-72" x="511.673828"/>
      <use xlink:href="#DejaVuSans-61" x="552.787109"/>
      <use xlink:href="#DejaVuSans-63" x="614.066406"/>
      <use xlink:href="#DejaVuSans-79" x="669.046875"/>
     </g>
    </g>
    <g id="line2d_24">
     <path d="M 216.18875 248.969937 
L 226.18875 248.969937 
L 236.18875 248.969937 
" style="fill: none; stroke: #ff7f0e; stroke-width: 1.5; stroke-linecap: square"/>
    </g>
    <g id="text_22">
     <!-- Validation Accuracy -->
     <g transform="translate(244.18875 252.469937) scale(0.1 -0.1)">
      <defs>
       <path id="DejaVuSans-56" d="M 1831 0 
L 50 4666 
L 709 4666 
L 2188 738 
L 3669 4666 
L 4325 4666 
L 2547 0 
L 1831 0 
z
" transform="scale(0.015625)"/>
       <path id="DejaVuSans-6c" d="M 603 4863 
L 1178 4863 
L 1178 0 
L 603 0 
L 603 4863 
z
" transform="scale(0.015625)"/>
       <path id="DejaVuSans-64" d="M 2906 2969 
L 2906 4863 
L 3481 4863 
L 3481 0 
L 2906 0 
L 2906 525 
Q 2725 213 2448 61 
Q 2172 -91 1784 -91 
Q 1150 -91 751 415 
Q 353 922 353 1747 
Q 353 2572 751 3078 
Q 1150 3584 1784 3584 
Q 2172 3584 2448 3432 
Q 2725 3281 2906 2969 
z
M 947 1747 
Q 947 1113 1208 752 
Q 1469 391 1925 391 
Q 2381 391 2643 752 
Q 2906 1113 2906 1747 
Q 2906 2381 2643 2742 
Q 2381 3103 1925 3103 
Q 1469 3103 1208 2742 
Q 947 2381 947 1747 
z
" transform="scale(0.015625)"/>
       <path id="DejaVuSans-74" d="M 1172 4494 
L 1172 3500 
L 2356 3500 
L 2356 3053 
L 1172 3053 
L 1172 1153 
Q 1172 725 1289 603 
Q 1406 481 1766 481 
L 2356 481 
L 2356 0 
L 1766 0 
Q 1100 0 847 248 
Q 594 497 594 1153 
L 594 3053 
L 172 3053 
L 172 3500 
L 594 3500 
L 594 4494 
L 1172 4494 
z
" transform="scale(0.015625)"/>
      </defs>
      <use xlink:href="#DejaVuSans-56"/>
      <use xlink:href="#DejaVuSans-61" x="60.658203"/>
      <use xlink:href="#DejaVuSans-6c" x="121.9375"/>
      <use xlink:href="#DejaVuSans-69" x="149.720703"/>
      <use xlink:href="#DejaVuSans-64" x="177.503906"/>
      <use xlink:href="#DejaVuSans-61" x="240.980469"/>
      <use xlink:href="#DejaVuSans-74" x="302.259766"/>
      <use xlink:href="#DejaVuSans-69" x="341.46875"/>
      <use xlink:href="#DejaVuSans-6f" x="369.251953"/>
      <use xlink:href="#DejaVuSans-6e" x="430.433594"/>
      <use xlink:href="#DejaVuSans-20" x="493.8125"/>
      <use xlink:href="#DejaVuSans-41" x="525.599609"/>
      <use xlink:href="#DejaVuSans-63" x="592.257812"/>
      <use xlink:href="#DejaVuSans-63" x="647.238281"/>
      <use xlink:href="#DejaVuSans-75" x="702.21875"/>
      <use xlink:href="#DejaVuSans-72" x="765.597656"/>
      <use xlink:href="#DejaVuSans-61" x="806.710938"/>
      <use xlink:href="#DejaVuSans-63" x="867.990234"/>
      <use xlink:href="#DejaVuSans-79" x="922.970703"/>
     </g>
    </g>
    <g id="line2d_25">
     <path d="M 216.18875 263.648062 
L 226.18875 263.648062 
L 236.18875 263.648062 
" style="fill: none; stroke: #2ca02c; stroke-width: 1.5; stroke-linecap: square"/>
    </g>
    <g id="text_23">
     <!-- Robust Validation Accuracy -->
     <g transform="translate(244.18875 267.148062) scale(0.1 -0.1)">
      <defs>
       <path id="DejaVuSans-52" d="M 2841 2188 
Q 3044 2119 3236 1894 
Q 3428 1669 3622 1275 
L 4263 0 
L 3584 0 
L 2988 1197 
Q 2756 1666 2539 1819 
Q 2322 1972 1947 1972 
L 1259 1972 
L 1259 0 
L 628 0 
L 628 4666 
L 2053 4666 
Q 2853 4666 3247 4331 
Q 3641 3997 3641 3322 
Q 3641 2881 3436 2590 
Q 3231 2300 2841 2188 
z
M 1259 4147 
L 1259 2491 
L 2053 2491 
Q 2509 2491 2742 2702 
Q 2975 2913 2975 3322 
Q 2975 3731 2742 3939 
Q 2509 4147 2053 4147 
L 1259 4147 
z
" transform="scale(0.015625)"/>
       <path id="DejaVuSans-62" d="M 3116 1747 
Q 3116 2381 2855 2742 
Q 2594 3103 2138 3103 
Q 1681 3103 1420 2742 
Q 1159 2381 1159 1747 
Q 1159 1113 1420 752 
Q 1681 391 2138 391 
Q 2594 391 2855 752 
Q 3116 1113 3116 1747 
z
M 1159 2969 
Q 1341 3281 1617 3432 
Q 1894 3584 2278 3584 
Q 2916 3584 3314 3078 
Q 3713 2572 3713 1747 
Q 3713 922 3314 415 
Q 2916 -91 2278 -91 
Q 1894 -91 1617 61 
Q 1341 213 1159 525 
L 1159 0 
L 581 0 
L 581 4863 
L 1159 4863 
L 1159 2969 
z
" transform="scale(0.015625)"/>
      </defs>
      <use xlink:href="#DejaVuSans-52"/>
      <use xlink:href="#DejaVuSans-6f" x="64.982422"/>
      <use xlink:href="#DejaVuSans-62" x="126.164062"/>
      <use xlink:href="#DejaVuSans-75" x="189.640625"/>
      <use xlink:href="#DejaVuSans-73" x="253.019531"/>
      <use xlink:href="#DejaVuSans-74" x="305.119141"/>
      <use xlink:href="#DejaVuSans-20" x="344.328125"/>
      <use xlink:href="#DejaVuSans-56" x="376.115234"/>
      <use xlink:href="#DejaVuSans-61" x="436.773438"/>
      <use xlink:href="#DejaVuSans-6c" x="498.052734"/>
      <use xlink:href="#DejaVuSans-69" x="525.835938"/>
      <use xlink:href="#DejaVuSans-64" x="553.619141"/>
      <use xlink:href="#DejaVuSans-61" x="617.095703"/>
      <use xlink:href="#DejaVuSans-74" x="678.375"/>
      <use xlink:href="#DejaVuSans-69" x="717.583984"/>
      <use xlink:href="#DejaVuSans-6f" x="745.367188"/>
      <use xlink:href="#DejaVuSans-6e" x="806.548828"/>
      <use xlink:href="#DejaVuSans-20" x="869.927734"/>
      <use xlink:href="#DejaVuSans-41" x="901.714844"/>
      <use xlink:href="#DejaVuSans-63" x="968.373047"/>
      <use xlink:href="#DejaVuSans-63" x="1023.353516"/>
      <use xlink:href="#DejaVuSans-75" x="1078.333984"/>
      <use xlink:href="#DejaVuSans-72" x="1141.712891"/>
      <use xlink:href="#DejaVuSans-61" x="1182.826172"/>
      <use xlink:href="#DejaVuSans-63" x="1244.105469"/>
      <use xlink:href="#DejaVuSans-79" x="1299.085938"/>
     </g>
    </g>
    <g id="line2d_26">
     <path d="M 216.18875 278.326188 
L 226.18875 278.326188 
L 236.18875 278.326188 
" style="fill: none; stroke: #d62728; stroke-width: 1.5; stroke-linecap: square"/>
    </g>
    <g id="text_24">
     <!-- SWA Validation Accuracy -->
     <g transform="translate(244.18875 281.826188) scale(0.1 -0.1)">
      <defs>
       <path id="DejaVuSans-53" d="M 3425 4513 
L 3425 3897 
Q 3066 4069 2747 4153 
Q 2428 4238 2131 4238 
Q 1616 4238 1336 4038 
Q 1056 3838 1056 3469 
Q 1056 3159 1242 3001 
Q 1428 2844 1947 2747 
L 2328 2669 
Q 3034 2534 3370 2195 
Q 3706 1856 3706 1288 
Q 3706 609 3251 259 
Q 2797 -91 1919 -91 
Q 1588 -91 1214 -16 
Q 841 59 441 206 
L 441 856 
Q 825 641 1194 531 
Q 1563 422 1919 422 
Q 2459 422 2753 634 
Q 3047 847 3047 1241 
Q 3047 1584 2836 1778 
Q 2625 1972 2144 2069 
L 1759 2144 
Q 1053 2284 737 2584 
Q 422 2884 422 3419 
Q 422 4038 858 4394 
Q 1294 4750 2059 4750 
Q 2388 4750 2728 4690 
Q 3069 4631 3425 4513 
z
" transform="scale(0.015625)"/>
       <path id="DejaVuSans-57" d="M 213 4666 
L 850 4666 
L 1831 722 
L 2809 4666 
L 3519 4666 
L 4500 722 
L 5478 4666 
L 6119 4666 
L 4947 0 
L 4153 0 
L 3169 4050 
L 2175 0 
L 1381 0 
L 213 4666 
z
" transform="scale(0.015625)"/>
      </defs>
      <use xlink:href="#DejaVuSans-53"/>
      <use xlink:href="#DejaVuSans-57" x="63.476562"/>
      <use xlink:href="#DejaVuSans-41" x="156.853516"/>
      <use xlink:href="#DejaVuSans-20" x="225.261719"/>
      <use xlink:href="#DejaVuSans-56" x="257.048828"/>
      <use xlink:href="#DejaVuSans-61" x="317.707031"/>
      <use xlink:href="#DejaVuSans-6c" x="378.986328"/>
      <use xlink:href="#DejaVuSans-69" x="406.769531"/>
      <use xlink:href="#DejaVuSans-64" x="434.552734"/>
      <use xlink:href="#DejaVuSans-61" x="498.029297"/>
      <use xlink:href="#DejaVuSans-74" x="559.308594"/>
      <use xlink:href="#DejaVuSans-69" x="598.517578"/>
      <use xlink:href="#DejaVuSans-6f" x="626.300781"/>
      <use xlink:href="#DejaVuSans-6e" x="687.482422"/>
      <use xlink:href="#DejaVuSans-20" x="750.861328"/>
      <use xlink:href="#DejaVuSans-41" x="782.648438"/>
      <use xlink:href="#DejaVuSans-63" x="849.306641"/>
      <use xlink:href="#DejaVuSans-63" x="904.287109"/>
      <use xlink:href="#DejaVuSans-75" x="959.267578"/>
      <use xlink:href="#DejaVuSans-72" x="1022.646484"/>
      <use xlink:href="#DejaVuSans-61" x="1063.759766"/>
      <use xlink:href="#DejaVuSans-63" x="1125.039062"/>
      <use xlink:href="#DejaVuSans-79" x="1180.019531"/>
     </g>
    </g>
    <g id="line2d_27">
     <path d="M 216.18875 293.004312 
L 226.18875 293.004312 
L 236.18875 293.004312 
" style="fill: none; stroke: #9467bd; stroke-width: 1.5; stroke-linecap: square"/>
    </g>
    <g id="text_25">
     <!-- SWA Robust Validation Accuracy -->
     <g transform="translate(244.18875 296.504312) scale(0.1 -0.1)">
      <use xlink:href="#DejaVuSans-53"/>
      <use xlink:href="#DejaVuSans-57" x="63.476562"/>
      <use xlink:href="#DejaVuSans-41" x="156.853516"/>
      <use xlink:href="#DejaVuSans-20" x="225.261719"/>
      <use xlink:href="#DejaVuSans-52" x="257.048828"/>
      <use xlink:href="#DejaVuSans-6f" x="322.03125"/>
      <use xlink:href="#DejaVuSans-62" x="383.212891"/>
      <use xlink:href="#DejaVuSans-75" x="446.689453"/>
      <use xlink:href="#DejaVuSans-73" x="510.068359"/>
      <use xlink:href="#DejaVuSans-74" x="562.167969"/>
      <use xlink:href="#DejaVuSans-20" x="601.376953"/>
      <use xlink:href="#DejaVuSans-56" x="633.164062"/>
      <use xlink:href="#DejaVuSans-61" x="693.822266"/>
      <use xlink:href="#DejaVuSans-6c" x="755.101562"/>
      <use xlink:href="#DejaVuSans-69" x="782.884766"/>
      <use xlink:href="#DejaVuSans-64" x="810.667969"/>
      <use xlink:href="#DejaVuSans-61" x="874.144531"/>
      <use xlink:href="#DejaVuSans-74" x="935.423828"/>
      <use xlink:href="#DejaVuSans-69" x="974.632812"/>
      <use xlink:href="#DejaVuSans-6f" x="1002.416016"/>
      <use xlink:href="#DejaVuSans-6e" x="1063.597656"/>
      <use xlink:href="#DejaVuSans-20" x="1126.976562"/>
      <use xlink:href="#DejaVuSans-41" x="1158.763672"/>
      <use xlink:href="#DejaVuSans-63" x="1225.421875"/>
      <use xlink:href="#DejaVuSans-63" x="1280.402344"/>
      <use xlink:href="#DejaVuSans-75" x="1335.382812"/>
      <use xlink:href="#DejaVuSans-72" x="1398.761719"/>
      <use xlink:href="#DejaVuSans-61" x="1439.875"/>
      <use xlink:href="#DejaVuSans-63" x="1501.154297"/>
      <use xlink:href="#DejaVuSans-79" x="1556.134766"/>
     </g>
    </g>
   </g>
  </g>
 </g>
 <defs>
  <clipPath id="p97f427c63a">
   <rect x="57.6" y="41.472" width="357.12" height="266.112"/>
  </clipPath>
 </defs>
</svg>
