<?xml version="1.0" encoding="utf-8" standalone="no"?>
<!DOCTYPE svg PUBLIC "-//W3C//DTD SVG 1.1//EN"
  "http://www.w3.org/Graphics/SVG/1.1/DTD/svg11.dtd">
<svg xmlns:xlink="http://www.w3.org/1999/xlink" width="460.8pt" height="345.6pt" viewBox="0 0 460.8 345.6" xmlns="http://www.w3.org/2000/svg" version="1.1">
 <metadata>
  <rdf:RDF xmlns:dc="http://purl.org/dc/elements/1.1/" xmlns:cc="http://creativecommons.org/ns#" xmlns:rdf="http://www.w3.org/1999/02/22-rdf-syntax-ns#">
   <cc:Work>
    <dc:type rdf:resource="http://purl.org/dc/dcmitype/StillImage"/>
    <dc:date>2025-03-22T09:52:04.983091</dc:date>
    <dc:format>image/svg+xml</dc:format>
    <dc:creator>
     <cc:Agent>
      <dc:title>Matplotlib v3.9.1, https://matplotlib.org/</dc:title>
     </cc:Agent>
    </dc:creator>
   </cc:Work>
  </rdf:RDF>
 </metadata>
 <defs>
  <style type="text/css">*{stroke-linejoin: round; stroke-linecap: butt}</style>
 </defs>
 <g id="figure_1">
  <g id="patch_1">
   <path d="M 0 345.6 
L 460.8 345.6 
L 460.8 0 
L 0 0 
z
" style="fill: #ffffff"/>
  </g>
  <g id="axes_1">
   <g id="patch_2">
    <path d="M 57.6 307.584 
L 414.72 307.584 
L 414.72 41.472 
L 57.6 41.472 
z
" style="fill: #ffffff"/>
   </g>
   <g id="matplotlib.axis_1">
    <g id="xtick_1">
     <g id="line2d_1">
      <defs>
       <path id="mf1899551d4" d="M 0 0 
L 0 3.5 
" style="stroke: #000000; stroke-width: 0.8"/>
      </defs>
      <g>
       <use xlink:href="#mf1899551d4" x="73.832727" y="307.584" style="stroke: #000000; stroke-width: 0.8"/>
      </g>
     </g>
     <g id="text_1">
      <!-- 1 -->
      <g transform="translate(70.651477 322.182437) scale(0.1 -0.1)">
       <defs>
        <path id="DejaVuSans-31" d="M 794 531 
L 1825 531 
L 1825 4091 
L 703 3866 
L 703 4441 
L 1819 4666 
L 2450 4666 
L 2450 531 
L 3481 531 
L 3481 0 
L 794 0 
L 794 531 
z
" transform="scale(0.015625)"/>
       </defs>
       <use xlink:href="#DejaVuSans-31"/>
      </g>
     </g>
    </g>
    <g id="xtick_2">
     <g id="line2d_2">
      <g>
       <use xlink:href="#mf1899551d4" x="109.664165" y="307.584" style="stroke: #000000; stroke-width: 0.8"/>
      </g>
     </g>
     <g id="text_2">
      <!-- 34 -->
      <g transform="translate(103.301665 322.182437) scale(0.1 -0.1)">
       <defs>
        <path id="DejaVuSans-33" d="M 2597 2516 
Q 3050 2419 3304 2112 
Q 3559 1806 3559 1356 
Q 3559 666 3084 287 
Q 2609 -91 1734 -91 
Q 1441 -91 1130 -33 
Q 819 25 488 141 
L 488 750 
Q 750 597 1062 519 
Q 1375 441 1716 441 
Q 2309 441 2620 675 
Q 2931 909 2931 1356 
Q 2931 1769 2642 2001 
Q 2353 2234 1838 2234 
L 1294 2234 
L 1294 2753 
L 1863 2753 
Q 2328 2753 2575 2939 
Q 2822 3125 2822 3475 
Q 2822 3834 2567 4026 
Q 2313 4219 1838 4219 
Q 1578 4219 1281 4162 
Q 984 4106 628 3988 
L 628 4550 
Q 988 4650 1302 4700 
Q 1616 4750 1894 4750 
Q 2613 4750 3031 4423 
Q 3450 4097 3450 3541 
Q 3450 3153 3228 2886 
Q 3006 2619 2597 2516 
z
" transform="scale(0.015625)"/>
        <path id="DejaVuSans-34" d="M 2419 4116 
L 825 1625 
L 2419 1625 
L 2419 4116 
z
M 2253 4666 
L 3047 4666 
L 3047 1625 
L 3713 1625 
L 3713 1100 
L 3047 1100 
L 3047 0 
L 2419 0 
L 2419 1100 
L 313 1100 
L 313 1709 
L 2253 4666 
z
" transform="scale(0.015625)"/>
       </defs>
       <use xlink:href="#DejaVuSans-33"/>
       <use xlink:href="#DejaVuSans-34" x="63.623047"/>
      </g>
     </g>
    </g>
    <g id="xtick_3">
     <g id="line2d_3">
      <g>
       <use xlink:href="#mf1899551d4" x="145.495604" y="307.584" style="stroke: #000000; stroke-width: 0.8"/>
      </g>
     </g>
     <g id="text_3">
      <!-- 67 -->
      <g transform="translate(139.133104 322.182437) scale(0.1 -0.1)">
       <defs>
        <path id="DejaVuSans-36" d="M 2113 2584 
Q 1688 2584 1439 2293 
Q 1191 2003 1191 1497 
Q 1191 994 1439 701 
Q 1688 409 2113 409 
Q 2538 409 2786 701 
Q 3034 994 3034 1497 
Q 3034 2003 2786 2293 
Q 2538 2584 2113 2584 
z
M 3366 4563 
L 3366 3988 
Q 3128 4100 2886 4159 
Q 2644 4219 2406 4219 
Q 1781 4219 1451 3797 
Q 1122 3375 1075 2522 
Q 1259 2794 1537 2939 
Q 1816 3084 2150 3084 
Q 2853 3084 3261 2657 
Q 3669 2231 3669 1497 
Q 3669 778 3244 343 
Q 2819 -91 2113 -91 
Q 1303 -91 875 529 
Q 447 1150 447 2328 
Q 447 3434 972 4092 
Q 1497 4750 2381 4750 
Q 2619 4750 2861 4703 
Q 3103 4656 3366 4563 
z
" transform="scale(0.015625)"/>
        <path id="DejaVuSans-37" d="M 525 4666 
L 3525 4666 
L 3525 4397 
L 1831 0 
L 1172 0 
L 2766 4134 
L 525 4134 
L 525 4666 
z
" transform="scale(0.015625)"/>
       </defs>
       <use xlink:href="#DejaVuSans-36"/>
       <use xlink:href="#DejaVuSans-37" x="63.623047"/>
      </g>
     </g>
    </g>
    <g id="xtick_4">
     <g id="line2d_4">
      <g>
       <use xlink:href="#mf1899551d4" x="181.327042" y="307.584" style="stroke: #000000; stroke-width: 0.8"/>
      </g>
     </g>
     <g id="text_4">
      <!-- 100 -->
      <g transform="translate(171.783292 322.182437) scale(0.1 -0.1)">
       <defs>
        <path id="DejaVuSans-30" d="M 2034 4250 
Q 1547 4250 1301 3770 
Q 1056 3291 1056 2328 
Q 1056 1369 1301 889 
Q 1547 409 2034 409 
Q 2525 409 2770 889 
Q 3016 1369 3016 2328 
Q 3016 3291 2770 3770 
Q 2525 4250 2034 4250 
z
M 2034 4750 
Q 2819 4750 3233 4129 
Q 3647 3509 3647 2328 
Q 3647 1150 3233 529 
Q 2819 -91 2034 -91 
Q 1250 -91 836 529 
Q 422 1150 422 2328 
Q 422 3509 836 4129 
Q 1250 4750 2034 4750 
z
" transform="scale(0.015625)"/>
       </defs>
       <use xlink:href="#DejaVuSans-31"/>
       <use xlink:href="#DejaVuSans-30" x="63.623047"/>
       <use xlink:href="#DejaVuSans-30" x="127.246094"/>
      </g>
     </g>
    </g>
    <g id="xtick_5">
     <g id="line2d_5">
      <g>
       <use xlink:href="#mf1899551d4" x="217.15848" y="307.584" style="stroke: #000000; stroke-width: 0.8"/>
      </g>
     </g>
     <g id="text_5">
      <!-- 133 -->
      <g transform="translate(207.61473 322.182437) scale(0.1 -0.1)">
       <use xlink:href="#DejaVuSans-31"/>
       <use xlink:href="#DejaVuSans-33" x="63.623047"/>
       <use xlink:href="#DejaVuSans-33" x="127.246094"/>
      </g>
     </g>
    </g>
    <g id="xtick_6">
     <g id="line2d_6">
      <g>
       <use xlink:href="#mf1899551d4" x="254.075719" y="307.584" style="stroke: #000000; stroke-width: 0.8"/>
      </g>
     </g>
     <g id="text_6">
      <!-- 167 -->
      <g transform="translate(244.531969 322.182437) scale(0.1 -0.1)">
       <use xlink:href="#DejaVuSans-31"/>
       <use xlink:href="#DejaVuSans-36" x="63.623047"/>
       <use xlink:href="#DejaVuSans-37" x="127.246094"/>
      </g>
     </g>
    </g>
    <g id="xtick_7">
     <g id="line2d_7">
      <g>
       <use xlink:href="#mf1899551d4" x="289.907157" y="307.584" style="stroke: #000000; stroke-width: 0.8"/>
      </g>
     </g>
     <g id="text_7">
      <!-- 200 -->
      <g transform="translate(280.363407 322.182437) scale(0.1 -0.1)">
       <defs>
        <path id="DejaVuSans-32" d="M 1228 531 
L 3431 531 
L 3431 0 
L 469 0 
L 469 531 
Q 828 903 1448 1529 
Q 2069 2156 2228 2338 
Q 2531 2678 2651 2914 
Q 2772 3150 2772 3378 
Q 2772 3750 2511 3984 
Q 2250 4219 1831 4219 
Q 1534 4219 1204 4116 
Q 875 4013 500 3803 
L 500 4441 
Q 881 4594 1212 4672 
Q 1544 4750 1819 4750 
Q 2544 4750 2975 4387 
Q 3406 4025 3406 3419 
Q 3406 3131 3298 2873 
Q 3191 2616 2906 2266 
Q 2828 2175 2409 1742 
Q 1991 1309 1228 531 
z
" transform="scale(0.015625)"/>
       </defs>
       <use xlink:href="#DejaVuSans-32"/>
       <use xlink:href="#DejaVuSans-30" x="63.623047"/>
       <use xlink:href="#DejaVuSans-30" x="127.246094"/>
      </g>
     </g>
    </g>
    <g id="xtick_8">
     <g id="line2d_8">
      <g>
       <use xlink:href="#mf1899551d4" x="325.738595" y="307.584" style="stroke: #000000; stroke-width: 0.8"/>
      </g>
     </g>
     <g id="text_8">
      <!-- 233 -->
      <g transform="translate(316.194845 322.182437) scale(0.1 -0.1)">
       <use xlink:href="#DejaVuSans-32"/>
       <use xlink:href="#DejaVuSans-33" x="63.623047"/>
       <use xlink:href="#DejaVuSans-33" x="127.246094"/>
      </g>
     </g>
    </g>
    <g id="xtick_9">
     <g id="line2d_9">
      <g>
       <use xlink:href="#mf1899551d4" x="361.570033" y="307.584" style="stroke: #000000; stroke-width: 0.8"/>
      </g>
     </g>
     <g id="text_9">
      <!-- 266 -->
      <g transform="translate(352.026283 322.182437) scale(0.1 -0.1)">
       <use xlink:href="#DejaVuSans-32"/>
       <use xlink:href="#DejaVuSans-36" x="63.623047"/>
       <use xlink:href="#DejaVuSans-36" x="127.246094"/>
      </g>
     </g>
    </g>
    <g id="xtick_10">
     <g id="line2d_10">
      <g>
       <use xlink:href="#mf1899551d4" x="398.487273" y="307.584" style="stroke: #000000; stroke-width: 0.8"/>
      </g>
     </g>
     <g id="text_10">
      <!-- 300 -->
      <g transform="translate(388.943523 322.182437) scale(0.1 -0.1)">
       <use xlink:href="#DejaVuSans-33"/>
       <use xlink:href="#DejaVuSans-30" x="63.623047"/>
       <use xlink:href="#DejaVuSans-30" x="127.246094"/>
      </g>
     </g>
    </g>
    <g id="text_11">
     <!-- Epochs -->
     <g transform="translate(218.244375 335.860562) scale(0.1 -0.1)">
      <defs>
       <path id="DejaVuSans-45" d="M 628 4666 
L 3578 4666 
L 3578 4134 
L 1259 4134 
L 1259 2753 
L 3481 2753 
L 3481 2222 
L 1259 2222 
L 1259 531 
L 3634 531 
L 3634 0 
L 628 0 
L 628 4666 
z
" transform="scale(0.015625)"/>
       <path id="DejaVuSans-70" d="M 1159 525 
L 1159 -1331 
L 581 -1331 
L 581 3500 
L 1159 3500 
L 1159 2969 
Q 1341 3281 1617 3432 
Q 1894 3584 2278 3584 
Q 2916 3584 3314 3078 
Q 3713 2572 3713 1747 
Q 3713 922 3314 415 
Q 2916 -91 2278 -91 
Q 1894 -91 1617 61 
Q 1341 213 1159 525 
z
M 3116 1747 
Q 3116 2381 2855 2742 
Q 2594 3103 2138 3103 
Q 1681 3103 1420 2742 
Q 1159 2381 1159 1747 
Q 1159 1113 1420 752 
Q 1681 391 2138 391 
Q 2594 391 2855 752 
Q 3116 1113 3116 1747 
z
" transform="scale(0.015625)"/>
       <path id="DejaVuSans-6f" d="M 1959 3097 
Q 1497 3097 1228 2736 
Q 959 2375 959 1747 
Q 959 1119 1226 758 
Q 1494 397 1959 397 
Q 2419 397 2687 759 
Q 2956 1122 2956 1747 
Q 2956 2369 2687 2733 
Q 2419 3097 1959 3097 
z
M 1959 3584 
Q 2709 3584 3137 3096 
Q 3566 2609 3566 1747 
Q 3566 888 3137 398 
Q 2709 -91 1959 -91 
Q 1206 -91 779 398 
Q 353 888 353 1747 
Q 353 2609 779 3096 
Q 1206 3584 1959 3584 
z
" transform="scale(0.015625)"/>
       <path id="DejaVuSans-63" d="M 3122 3366 
L 3122 2828 
Q 2878 2963 2633 3030 
Q 2388 3097 2138 3097 
Q 1578 3097 1268 2742 
Q 959 2388 959 1747 
Q 959 1106 1268 751 
Q 1578 397 2138 397 
Q 2388 397 2633 464 
Q 2878 531 3122 666 
L 3122 134 
Q 2881 22 2623 -34 
Q 2366 -91 2075 -91 
Q 1284 -91 818 406 
Q 353 903 353 1747 
Q 353 2603 823 3093 
Q 1294 3584 2113 3584 
Q 2378 3584 2631 3529 
Q 2884 3475 3122 3366 
z
" transform="scale(0.015625)"/>
       <path id="DejaVuSans-68" d="M 3513 2113 
L 3513 0 
L 2938 0 
L 2938 2094 
Q 2938 2591 2744 2837 
Q 2550 3084 2163 3084 
Q 1697 3084 1428 2787 
Q 1159 2491 1159 1978 
L 1159 0 
L 581 0 
L 581 4863 
L 1159 4863 
L 1159 2956 
Q 1366 3272 1645 3428 
Q 1925 3584 2291 3584 
Q 2894 3584 3203 3211 
Q 3513 2838 3513 2113 
z
" transform="scale(0.015625)"/>
       <path id="DejaVuSans-73" d="M 2834 3397 
L 2834 2853 
Q 2591 2978 2328 3040 
Q 2066 3103 1784 3103 
Q 1356 3103 1142 2972 
Q 928 2841 928 2578 
Q 928 2378 1081 2264 
Q 1234 2150 1697 2047 
L 1894 2003 
Q 2506 1872 2764 1633 
Q 3022 1394 3022 966 
Q 3022 478 2636 193 
Q 2250 -91 1575 -91 
Q 1294 -91 989 -36 
Q 684 19 347 128 
L 347 722 
Q 666 556 975 473 
Q 1284 391 1588 391 
Q 1994 391 2212 530 
Q 2431 669 2431 922 
Q 2431 1156 2273 1281 
Q 2116 1406 1581 1522 
L 1381 1569 
Q 847 1681 609 1914 
Q 372 2147 372 2553 
Q 372 3047 722 3315 
Q 1072 3584 1716 3584 
Q 2034 3584 2315 3537 
Q 2597 3491 2834 3397 
z
" transform="scale(0.015625)"/>
      </defs>
      <use xlink:href="#DejaVuSans-45"/>
      <use xlink:href="#DejaVuSans-70" x="63.183594"/>
      <use xlink:href="#DejaVuSans-6f" x="126.660156"/>
      <use xlink:href="#DejaVuSans-63" x="187.841797"/>
      <use xlink:href="#DejaVuSans-68" x="242.822266"/>
      <use xlink:href="#DejaVuSans-73" x="306.201172"/>
     </g>
    </g>
   </g>
   <g id="matplotlib.axis_2">
    <g id="ytick_1">
     <g id="line2d_11">
      <defs>
       <path id="ma1bb0c3141" d="M 0 0 
L -3.5 0 
" style="stroke: #000000; stroke-width: 0.8"/>
      </defs>
      <g>
       <use xlink:href="#ma1bb0c3141" x="57.6" y="307.403313" style="stroke: #000000; stroke-width: 0.8"/>
      </g>
     </g>
     <g id="text_12">
      <!-- 0 -->
      <g transform="translate(44.2375 311.202532) scale(0.1 -0.1)">
       <use xlink:href="#DejaVuSans-30"/>
      </g>
     </g>
    </g>
    <g id="ytick_2">
     <g id="line2d_12">
      <g>
       <use xlink:href="#ma1bb0c3141" x="57.6" y="270.992883" style="stroke: #000000; stroke-width: 0.8"/>
      </g>
     </g>
     <g id="text_13">
      <!-- 10 -->
      <g transform="translate(37.875 274.792102) scale(0.1 -0.1)">
       <use xlink:href="#DejaVuSans-31"/>
       <use xlink:href="#DejaVuSans-30" x="63.623047"/>
      </g>
     </g>
    </g>
    <g id="ytick_3">
     <g id="line2d_13">
      <g>
       <use xlink:href="#ma1bb0c3141" x="57.6" y="234.582453" style="stroke: #000000; stroke-width: 0.8"/>
      </g>
     </g>
     <g id="text_14">
      <!-- 20 -->
      <g transform="translate(37.875 238.381672) scale(0.1 -0.1)">
       <use xlink:href="#DejaVuSans-32"/>
       <use xlink:href="#DejaVuSans-30" x="63.623047"/>
      </g>
     </g>
    </g>
    <g id="ytick_4">
     <g id="line2d_14">
      <g>
       <use xlink:href="#ma1bb0c3141" x="57.6" y="198.172023" style="stroke: #000000; stroke-width: 0.8"/>
      </g>
     </g>
     <g id="text_15">
      <!-- 30 -->
      <g transform="translate(37.875 201.971242) scale(0.1 -0.1)">
       <use xlink:href="#DejaVuSans-33"/>
       <use xlink:href="#DejaVuSans-30" x="63.623047"/>
      </g>
     </g>
    </g>
    <g id="ytick_5">
     <g id="line2d_15">
      <g>
       <use xlink:href="#ma1bb0c3141" x="57.6" y="161.761593" style="stroke: #000000; stroke-width: 0.8"/>
      </g>
     </g>
     <g id="text_16">
      <!-- 40 -->
      <g transform="translate(37.875 165.560812) scale(0.1 -0.1)">
       <use xlink:href="#DejaVuSans-34"/>
       <use xlink:href="#DejaVuSans-30" x="63.623047"/>
      </g>
     </g>
    </g>
    <g id="ytick_6">
     <g id="line2d_16">
      <g>
       <use xlink:href="#ma1bb0c3141" x="57.6" y="125.351163" style="stroke: #000000; stroke-width: 0.8"/>
      </g>
     </g>
     <g id="text_17">
      <!-- 50 -->
      <g transform="translate(37.875 129.150382) scale(0.1 -0.1)">
       <defs>
        <path id="DejaVuSans-35" d="M 691 4666 
L 3169 4666 
L 3169 4134 
L 1269 4134 
L 1269 2991 
Q 1406 3038 1543 3061 
Q 1681 3084 1819 3084 
Q 2600 3084 3056 2656 
Q 3513 2228 3513 1497 
Q 3513 744 3044 326 
Q 2575 -91 1722 -91 
Q 1428 -91 1123 -41 
Q 819 9 494 109 
L 494 744 
Q 775 591 1075 516 
Q 1375 441 1709 441 
Q 2250 441 2565 725 
Q 2881 1009 2881 1497 
Q 2881 1984 2565 2268 
Q 2250 2553 1709 2553 
Q 1456 2553 1204 2497 
Q 953 2441 691 2322 
L 691 4666 
z
" transform="scale(0.015625)"/>
       </defs>
       <use xlink:href="#DejaVuSans-35"/>
       <use xlink:href="#DejaVuSans-30" x="63.623047"/>
      </g>
     </g>
    </g>
    <g id="ytick_7">
     <g id="line2d_17">
      <g>
       <use xlink:href="#ma1bb0c3141" x="57.6" y="88.940733" style="stroke: #000000; stroke-width: 0.8"/>
      </g>
     </g>
     <g id="text_18">
      <!-- 60 -->
      <g transform="translate(37.875 92.739952) scale(0.1 -0.1)">
       <use xlink:href="#DejaVuSans-36"/>
       <use xlink:href="#DejaVuSans-30" x="63.623047"/>
      </g>
     </g>
    </g>
    <g id="ytick_8">
     <g id="line2d_18">
      <g>
       <use xlink:href="#ma1bb0c3141" x="57.6" y="52.530303" style="stroke: #000000; stroke-width: 0.8"/>
      </g>
     </g>
     <g id="text_19">
      <!-- 70 -->
      <g transform="translate(37.875 56.329521) scale(0.1 -0.1)">
       <use xlink:href="#DejaVuSans-37"/>
       <use xlink:href="#DejaVuSans-30" x="63.623047"/>
      </g>
     </g>
    </g>
    <g id="text_20">
     <!-- Accuracy -->
     <g transform="translate(31.795312 197.356125) rotate(-90) scale(0.1 -0.1)">
      <defs>
       <path id="DejaVuSans-41" d="M 2188 4044 
L 1331 1722 
L 3047 1722 
L 2188 4044 
z
M 1831 4666 
L 2547 4666 
L 4325 0 
L 3669 0 
L 3244 1197 
L 1141 1197 
L 716 0 
L 50 0 
L 1831 4666 
z
" transform="scale(0.015625)"/>
       <path id="DejaVuSans-75" d="M 544 1381 
L 544 3500 
L 1119 3500 
L 1119 1403 
Q 1119 906 1312 657 
Q 1506 409 1894 409 
Q 2359 409 2629 706 
Q 2900 1003 2900 1516 
L 2900 3500 
L 3475 3500 
L 3475 0 
L 2900 0 
L 2900 538 
Q 2691 219 2414 64 
Q 2138 -91 1772 -91 
Q 1169 -91 856 284 
Q 544 659 544 1381 
z
M 1991 3584 
L 1991 3584 
z
" transform="scale(0.015625)"/>
       <path id="DejaVuSans-72" d="M 2631 2963 
Q 2534 3019 2420 3045 
Q 2306 3072 2169 3072 
Q 1681 3072 1420 2755 
Q 1159 2438 1159 1844 
L 1159 0 
L 581 0 
L 581 3500 
L 1159 3500 
L 1159 2956 
Q 1341 3275 1631 3429 
Q 1922 3584 2338 3584 
Q 2397 3584 2469 3576 
Q 2541 3569 2628 3553 
L 2631 2963 
z
" transform="scale(0.015625)"/>
       <path id="DejaVuSans-61" d="M 2194 1759 
Q 1497 1759 1228 1600 
Q 959 1441 959 1056 
Q 959 750 1161 570 
Q 1363 391 1709 391 
Q 2188 391 2477 730 
Q 2766 1069 2766 1631 
L 2766 1759 
L 2194 1759 
z
M 3341 1997 
L 3341 0 
L 2766 0 
L 2766 531 
Q 2569 213 2275 61 
Q 1981 -91 1556 -91 
Q 1019 -91 701 211 
Q 384 513 384 1019 
Q 384 1609 779 1909 
Q 1175 2209 1959 2209 
L 2766 2209 
L 2766 2266 
Q 2766 2663 2505 2880 
Q 2244 3097 1772 3097 
Q 1472 3097 1187 3025 
Q 903 2953 641 2809 
L 641 3341 
Q 956 3463 1253 3523 
Q 1550 3584 1831 3584 
Q 2591 3584 2966 3190 
Q 3341 2797 3341 1997 
z
" transform="scale(0.015625)"/>
       <path id="DejaVuSans-79" d="M 2059 -325 
Q 1816 -950 1584 -1140 
Q 1353 -1331 966 -1331 
L 506 -1331 
L 506 -850 
L 844 -850 
Q 1081 -850 1212 -737 
Q 1344 -625 1503 -206 
L 1606 56 
L 191 3500 
L 800 3500 
L 1894 763 
L 2988 3500 
L 3597 3500 
L 2059 -325 
z
" transform="scale(0.015625)"/>
      </defs>
      <use xlink:href="#DejaVuSans-41"/>
      <use xlink:href="#DejaVuSans-63" x="66.658203"/>
      <use xlink:href="#DejaVuSans-63" x="121.638672"/>
      <use xlink:href="#DejaVuSans-75" x="176.619141"/>
      <use xlink:href="#DejaVuSans-72" x="239.998047"/>
      <use xlink:href="#DejaVuSans-61" x="281.111328"/>
      <use xlink:href="#DejaVuSans-63" x="342.390625"/>
      <use xlink:href="#DejaVuSans-79" x="397.371094"/>
     </g>
    </g>
   </g>
   <g id="line2d_19">
    <path d="M 73.832727 295.488 
L 76.00433 264.498173 
L 77.090131 251.790933 
L 78.175932 241.51864 
L 79.261733 232.320455 
L 82.519137 209.659514 
L 84.690739 197.771508 
L 85.77654 192.774177 
L 87.948142 183.981058 
L 89.033943 178.023401 
L 90.119745 176.949294 
L 91.205546 172.739338 
L 93.377148 169.339514 
L 94.462949 167.173093 
L 95.54875 197.066056 
L 96.634552 194.312517 
L 97.720353 193.179243 
L 98.806154 188.404925 
L 99.891955 185.20991 
L 100.977756 180.886171 
L 102.063557 179.056547 
L 103.149358 176.749036 
L 105.320961 170.950675 
L 106.406762 169.284898 
L 107.492563 165.930587 
L 108.578364 164.12372 
L 109.664165 160.60101 
L 110.749967 159.590621 
L 111.835768 155.453486 
L 112.921569 153.505528 
L 114.00737 152.458728 
L 115.093171 150.16032 
L 116.178972 148.353452 
L 117.264773 144.958179 
L 119.436376 140.397773 
L 120.522177 139.710526 
L 121.607978 136.424485 
L 122.693779 133.880306 
L 123.77958 133.734664 
L 124.865382 131.081254 
L 125.951183 127.899893 
L 127.036984 127.840726 
L 128.122785 125.728921 
L 129.208586 124.108657 
L 130.294387 120.504024 
L 131.380189 121.64185 
L 132.46599 119.202352 
L 133.551791 119.006645 
L 134.637592 117.937089 
L 135.723393 117.509267 
L 136.809194 116.617211 
L 137.894995 117.532023 
L 138.980797 153.519182 
L 140.066598 156.93266 
L 141.152399 155.740218 
L 142.2382 155.448935 
L 143.324001 153.460015 
L 144.409802 153.664824 
L 147.667206 149.063455 
L 148.753007 148.271529 
L 149.838808 146.305365 
L 150.924609 145.841132 
L 152.01041 145.235809 
L 153.096212 143.447147 
L 154.182013 143.183171 
L 155.267814 141.380855 
L 156.353615 141.517394 
L 157.439416 139.30546 
L 158.525217 139.182575 
L 159.611019 138.43161 
L 160.69682 136.706666 
L 161.782621 135.928393 
L 162.868422 134.813323 
L 163.954223 134.544796 
L 165.040024 133.54351 
L 166.125825 131.727539 
L 167.211627 130.972023 
L 168.297428 129.479195 
L 169.383229 128.773743 
L 170.46903 129.242528 
L 171.554831 126.575464 
L 172.640632 125.323855 
L 173.726434 125.592382 
L 174.812235 123.758207 
L 175.898036 124.481864 
L 176.983837 122.379162 
L 178.069638 121.32781 
L 179.155439 120.763449 
L 181.327042 117.946192 
L 182.412843 117.846063 
L 183.498644 116.357787 
L 184.584445 115.738809 
L 185.670246 113.877326 
L 186.756047 112.871488 
L 187.841849 111.665392 
L 188.92765 110.764234 
L 190.013451 110.71417 
L 191.099252 108.042555 
L 192.185053 107.874156 
L 194.356656 105.593953 
L 196.528258 102.444451 
L 197.614059 101.247458 
L 198.69986 101.779961 
L 199.785661 99.131102 
L 200.871462 100.068671 
L 201.957264 97.7293 
L 203.043065 97.497184 
L 204.128866 95.658457 
L 205.214667 94.575247 
L 207.386269 93.100624 
L 208.472071 92.763828 
L 209.557872 91.252795 
L 210.643673 91.557732 
L 211.729474 90.078559 
L 212.815275 89.896507 
L 213.901076 88.522013 
L 214.986877 87.84842 
L 216.072679 87.338674 
L 217.15848 86.305528 
L 218.244281 85.804885 
L 219.330082 86.737902 
L 220.415883 86.082514 
L 221.501684 87.479764 
L 222.587486 85.936872 
L 223.673287 85.568217 
L 224.759088 85.386165 
L 225.844889 132.592287 
L 226.93069 136.069483 
L 228.016491 136.124099 
L 229.102292 137.762568 
L 230.188094 135.823713 
L 231.273895 135.218389 
L 232.359696 135.277556 
L 233.445497 133.680049 
L 234.531298 133.179405 
L 235.617099 133.029212 
L 236.702901 132.264593 
L 237.788702 132.341965 
L 238.874503 130.566957 
L 239.960304 131.395294 
L 241.046105 130.084519 
L 242.131906 131.691129 
L 243.217708 129.128745 
L 244.303509 129.779581 
L 245.38931 129.665799 
L 246.475111 128.432396 
L 247.560912 127.590404 
L 248.646713 127.654123 
L 249.732514 126.985081 
L 250.818316 125.801742 
L 251.904117 126.061166 
L 252.989918 125.078085 
L 254.075719 125.437638 
L 255.16152 125.433086 
L 256.247321 124.304363 
L 257.333123 124.627506 
L 258.418924 123.717245 
L 259.504725 122.451982 
L 260.590526 122.288135 
L 261.676327 122.670445 
L 262.762128 121.942236 
L 263.847929 121.50076 
L 264.933731 120.672423 
L 266.019532 121.468901 
L 267.105333 120.790757 
L 268.191134 121.027424 
L 269.276935 120.235497 
L 270.362736 118.597028 
L 271.448538 119.243313 
L 272.534339 117.996256 
L 273.62014 119.047607 
L 274.705941 117.896127 
L 275.791742 118.264783 
L 276.877543 117.022277 
L 277.963344 116.244004 
L 280.134947 115.738809 
L 282.306549 115.133486 
L 283.39235 114.860408 
L 284.478151 114.437136 
L 285.563953 113.444952 
L 286.649754 112.967065 
L 287.735555 112.716744 
L 288.821356 111.487892 
L 289.907157 112.448217 
L 290.992958 111.897509 
L 292.07876 112.115972 
L 293.164561 110.54122 
L 294.250362 110.509361 
L 295.336163 110.231732 
L 296.421964 109.280509 
L 297.507765 109.275958 
L 298.593566 108.593262 
L 299.679368 109.234996 
L 300.765169 107.53736 
L 301.85097 107.127743 
L 302.936771 106.540624 
L 304.022572 108.106273 
L 305.108373 104.683693 
L 306.194175 105.502927 
L 307.279976 105.380042 
L 308.365777 104.164844 
L 309.451578 104.42882 
L 310.537379 103.705162 
L 311.62318 102.007526 
L 312.708981 102.503618 
L 313.794783 101.07906 
L 314.880584 101.493229 
L 315.966385 101.388549 
L 317.052186 100.17335 
L 318.137987 99.677258 
L 319.223788 97.911353 
L 320.30959 99.859311 
L 321.395391 98.175328 
L 322.481192 97.847634 
L 323.566993 96.491346 
L 325.738595 95.212429 
L 326.824396 94.984864 
L 327.910198 95.794996 
L 328.995999 94.538836 
L 330.0818 94.024539 
L 331.167601 92.822995 
L 332.253402 93.105176 
L 333.339203 92.73652 
L 334.425005 91.252795 
L 335.510806 90.834075 
L 336.596607 88.658552 
L 337.682408 90.133174 
L 338.768209 89.564261 
L 339.85401 88.499256 
L 340.939811 87.784702 
L 342.025613 86.783415 
L 343.111414 86.997326 
L 345.283016 85.381613 
L 346.368817 85.527255 
L 347.454618 83.829619 
L 348.54042 84.284749 
L 349.626221 82.983076 
L 350.712022 82.395958 
L 351.797823 81.644993 
L 352.883624 81.32185 
L 353.969425 81.403774 
L 355.055227 80.161268 
L 356.141028 78.513696 
L 357.226829 78.295233 
L 358.31263 78.595619 
L 359.398431 78.413567 
L 360.484232 77.011766 
L 361.570033 76.952599 
L 362.655835 75.76926 
L 363.741636 75.468874 
L 364.827437 74.86355 
L 366.999039 74.672396 
L 369.170642 76.470161 
L 370.256443 78.445426 
L 371.342244 79.273764 
L 372.428045 82.127431 
L 373.513846 81.644993 
L 374.599647 82.746408 
L 376.77125 82.273073 
L 378.942852 82.992179 
L 380.028653 83.014935 
L 381.114454 82.587113 
L 382.200255 82.846537 
L 383.286057 82.100123 
L 384.371858 82.291278 
L 385.457659 82.700895 
L 386.54346 82.709998 
L 387.629261 83.55654 
L 388.715062 82.769165 
L 390.886665 83.993466 
L 391.972466 84.084492 
L 393.058267 83.265257 
L 394.144068 82.814678 
L 395.229869 81.549416 
L 396.31567 83.087756 
L 397.401472 82.678139 
L 398.487273 83.342629 
L 398.487273 83.342629 
" clip-path="url(#p6e0c1e61c2)" style="fill: none; stroke: #1f77b4; stroke-width: 1.5; stroke-linecap: square"/>
   </g>
   <g id="line2d_20">
    <path d="M 73.832727 280.659852 
L 74.918528 258.959236 
L 76.00433 239.625298 
L 77.090131 228.592937 
L 78.175932 215.703645 
L 79.261733 213.755687 
L 80.347534 194.003029 
L 81.433335 192.801485 
L 82.519137 178.874495 
L 83.604938 173.321905 
L 84.690739 162.726469 
L 85.77654 159.41312 
L 86.862341 167.132131 
L 87.948142 154.952843 
L 89.033943 150.037434 
L 90.119745 143.465352 
L 91.205546 144.594075 
L 92.291347 140.73457 
L 93.377148 140.261234 
L 94.462949 139.951745 
L 95.54875 173.940882 
L 96.634552 169.917529 
L 97.720353 152.822832 
L 98.806154 154.661559 
L 99.891955 157.173879 
L 100.977756 150.365128 
L 102.063557 148.999737 
L 104.23516 138.076608 
L 105.320961 138.25866 
L 106.406762 137.548657 
L 107.492563 131.267858 
L 108.578364 131.631962 
L 109.664165 126.243218 
L 110.749967 126.607323 
L 111.835768 125.442189 
L 112.921569 125.897319 
L 114.00737 116.102914 
L 115.093171 114.883164 
L 116.178972 115.210858 
L 117.264773 109.694678 
L 118.350575 107.582873 
L 119.436376 110.386476 
L 120.522177 102.885928 
L 121.607978 100.755917 
L 122.693779 100.391813 
L 124.865382 95.385379 
L 125.951183 97.806673 
L 127.036984 92.763828 
L 128.122785 90.124072 
L 129.208586 91.161769 
L 130.294387 88.849707 
L 131.380189 88.813296 
L 132.46599 87.484316 
L 133.551791 87.502521 
L 134.637592 85.845846 
L 135.723393 86.118924 
L 136.809194 85.590973 
L 137.894995 86.118924 
L 138.980797 123.439615 
L 140.066598 124.131413 
L 141.152399 125.369368 
L 142.2382 120.781654 
L 143.324001 120.963706 
L 144.409802 117.595741 
L 145.495604 117.213432 
L 146.581405 118.760875 
L 147.667206 119.762162 
L 148.753007 112.935206 
L 150.924609 110.058782 
L 152.01041 110.222629 
L 153.096212 107.637489 
L 154.182013 110.022372 
L 155.267814 109.785704 
L 156.353615 112.352639 
L 157.439416 106.891075 
L 158.525217 107.400821 
L 159.611019 108.529544 
L 160.69682 101.575152 
L 161.782621 99.335911 
L 162.868422 108.729802 
L 163.954223 97.952314 
L 165.040024 99.809246 
L 166.125825 97.442568 
L 167.211627 98.061546 
L 168.297428 98.188982 
L 169.383229 97.988725 
L 170.46903 93.437421 
L 171.554831 92.217672 
L 172.640632 94.62076 
L 173.726434 92.709212 
L 174.812235 91.835362 
L 176.983837 90.615613 
L 178.069638 85.918667 
L 179.155439 88.522013 
L 180.24124 85.71841 
L 181.327042 87.84842 
L 182.412843 87.775599 
L 183.498644 85.882257 
L 184.584445 87.174827 
L 185.670246 84.07994 
L 186.756047 80.311461 
L 187.841849 81.440184 
L 188.92765 79.692484 
L 190.013451 79.237353 
L 191.099252 79.419405 
L 192.185053 78.964275 
L 193.270854 75.523489 
L 196.528258 75.614515 
L 197.614059 73.994251 
L 198.69986 71.645779 
L 199.785661 71.318085 
L 200.871462 70.444234 
L 201.957264 69.333716 
L 203.043065 67.931915 
L 204.128866 68.004736 
L 205.214667 68.259609 
L 207.386269 66.912423 
L 208.472071 65.965751 
L 209.557872 64.837028 
L 210.643673 64.909849 
L 212.815275 63.471637 
L 214.986877 63.544458 
L 217.15848 62.288298 
L 218.244281 62.088041 
L 219.330082 61.195985 
L 221.501684 62.088041 
L 223.673287 61.104959 
L 224.759088 61.104959 
L 225.844889 110.513913 
L 226.93069 111.1693 
L 228.016491 108.984675 
L 229.102292 102.867722 
L 230.188094 103.268237 
L 231.273895 104.742859 
L 232.359696 101.866435 
L 233.445497 111.842893 
L 234.531298 101.884641 
L 235.617099 102.995159 
L 236.702901 101.484126 
L 237.788702 102.631055 
L 238.874503 99.372321 
L 239.960304 98.516676 
L 241.046105 95.476405 
L 242.131906 104.051061 
L 243.217708 102.285155 
L 244.303509 99.700015 
L 245.38931 98.589497 
L 246.475111 99.663604 
L 247.560912 99.317705 
L 248.646713 96.841796 
L 249.732514 96.113588 
L 250.818316 96.29564 
L 251.904117 97.861288 
L 252.989918 92.52716 
L 254.075719 99.536168 
L 255.16152 92.545365 
L 257.333123 93.710499 
L 258.418924 90.542792 
L 259.504725 101.229253 
L 260.590526 95.476405 
L 261.676327 94.384092 
L 262.762128 92.563571 
L 263.847929 94.821017 
L 264.933731 90.615613 
L 266.019532 90.124072 
L 267.105333 92.417929 
L 268.191134 90.488176 
L 269.276935 91.780746 
L 270.362736 93.255369 
L 271.448538 91.544079 
L 272.534339 87.193032 
L 273.62014 90.160482 
L 274.705941 88.066882 
L 275.791742 90.542792 
L 276.877543 89.14099 
L 277.963344 86.446618 
L 279.049146 85.390716 
L 280.134947 85.554563 
L 281.220748 89.541505 
L 282.306549 83.297116 
L 283.39235 84.553276 
L 284.478151 86.810723 
L 285.563953 87.39329 
L 286.649754 86.355592 
L 287.735555 92.763828 
L 288.821356 85.135843 
L 289.907157 81.130696 
L 290.992958 84.207377 
L 292.07876 82.022751 
L 293.164561 84.589686 
L 294.250362 82.277624 
L 295.336163 84.735328 
L 296.421964 81.640442 
L 297.507765 84.516866 
L 298.593566 78.800428 
L 299.679368 81.367363 
L 300.765169 81.403774 
L 301.85097 80.20223 
L 302.936771 81.021464 
L 304.022572 80.293256 
L 305.108373 77.999399 
L 306.194175 75.377848 
L 307.279976 77.853757 
L 308.365777 75.159385 
L 309.451578 75.996825 
L 310.537379 78.654786 
L 311.62318 77.762731 
L 312.708981 77.598884 
L 313.794783 72.701681 
L 314.880584 74.813486 
L 315.966385 74.449382 
L 317.052186 76.88888 
L 318.137987 72.920144 
L 319.223788 72.082704 
L 320.30959 75.232206 
L 321.395391 71.572958 
L 322.481192 70.753723 
L 323.566993 73.247837 
L 324.652794 71.827831 
L 325.738595 74.158098 
L 326.824396 71.481932 
L 327.910198 73.666557 
L 328.995999 67.840889 
L 330.0818 67.458579 
L 331.167601 68.041146 
L 332.253402 69.424742 
L 333.339203 64.928054 
L 334.425005 67.130885 
L 335.510806 65.383185 
L 336.596607 66.293445 
L 337.682408 63.835741 
L 338.768209 66.985243 
L 339.85401 67.021654 
L 342.025613 62.506761 
L 343.111414 64.254461 
L 344.197215 63.052917 
L 345.283016 64.327282 
L 346.368817 63.071122 
L 347.454618 61.997015 
L 348.54042 61.942399 
L 349.626221 62.670608 
L 350.712022 62.05163 
L 351.797823 59.448284 
L 352.883624 58.66546 
L 353.969425 59.867004 
L 355.055227 60.75906 
L 356.141028 58.938538 
L 357.226829 58.683665 
L 359.398431 56.08032 
L 360.484232 57.154427 
L 361.570033 54.40544 
L 362.655835 55.443137 
L 365.913238 55.024417 
L 366.999039 53.568 
L 368.08484 56.298782 
L 369.170642 56.517245 
L 370.256443 57.573147 
L 371.342244 58.264945 
L 372.428045 60.103672 
L 373.513846 57.118017 
L 374.599647 60.431366 
L 375.685448 59.193411 
L 376.77125 60.30393 
L 377.857051 60.504187 
L 378.942852 64.199846 
L 380.028653 63.198559 
L 381.114454 60.813676 
L 382.200255 59.430079 
L 383.286057 61.195985 
L 384.371858 61.104959 
L 385.457659 63.198559 
L 386.54346 62.306503 
L 387.629261 62.634197 
L 388.715062 61.924194 
L 389.800863 60.212903 
L 390.886665 60.176493 
L 391.972466 63.30779 
L 393.058267 62.088041 
L 394.144068 61.123164 
L 397.401472 61.887783 
L 398.487273 63.599073 
L 398.487273 63.599073 
" clip-path="url(#p6e0c1e61c2)" style="fill: none; stroke: #ff7f0e; stroke-width: 1.5; stroke-linecap: square"/>
   </g>
   <g id="line2d_21">
    <path d="M 73.832727 287.565907 
L 74.918528 275.010586 
L 76.00433 264.464116 
L 77.090131 255.800945 
L 78.175932 251.532136 
L 79.261733 249.523285 
L 80.347534 238.474603 
L 81.433335 241.613433 
L 82.519137 230.815857 
L 83.604938 228.430346 
L 84.690739 215.121706 
L 85.77654 217.130557 
L 86.862341 226.798154 
L 87.948142 215.623919 
L 89.033943 212.987301 
L 90.119745 209.346258 
L 91.205546 207.83962 
L 92.291347 205.705215 
L 93.377148 205.203003 
L 94.462949 206.207428 
L 95.54875 226.923707 
L 96.634552 227.174814 
L 97.720353 209.095152 
L 98.806154 214.11728 
L 99.891955 211.731769 
L 100.977756 212.736195 
L 102.063557 213.489514 
L 103.149358 204.32413 
L 104.23516 201.813066 
L 105.320961 202.440832 
L 106.406762 199.553108 
L 107.492563 193.024342 
L 108.578364 203.947471 
L 109.664165 192.898788 
L 110.749967 195.660959 
L 111.835768 195.786512 
L 112.921569 193.777661 
L 115.093171 182.226766 
L 116.178972 183.984511 
L 117.264773 177.330191 
L 119.436376 182.477872 
L 120.522177 171.680296 
L 121.607978 172.308062 
L 122.693779 171.42919 
L 123.77958 170.048105 
L 124.865382 168.039253 
L 125.951183 175.949105 
L 127.036984 164.39821 
L 128.122785 164.649317 
L 129.208586 164.39821 
L 130.294387 163.895997 
L 131.380189 162.389359 
L 132.46599 163.017125 
L 133.551791 161.887146 
L 134.637592 161.25938 
L 135.723393 160.003848 
L 136.809194 158.371656 
L 137.894995 160.631614 
L 138.980797 192.396575 
L 140.066598 193.024342 
L 141.152399 198.172023 
L 142.2382 188.25332 
L 143.324001 190.011065 
L 144.409802 183.733404 
L 145.495604 187.248894 
L 146.581405 193.024342 
L 147.667206 187.248894 
L 148.753007 183.356745 
L 149.838808 181.724553 
L 150.924609 176.074659 
L 152.01041 177.957957 
L 153.096212 180.217914 
L 154.182013 180.343468 
L 155.267814 179.841255 
L 156.353615 188.881086 
L 157.439416 179.841255 
L 158.525217 177.581297 
L 159.611019 182.854532 
L 160.69682 176.827978 
L 161.782621 167.411487 
L 162.868422 187.751107 
L 163.954223 170.801424 
L 165.040024 169.671445 
L 166.125825 170.299211 
L 167.211627 172.684722 
L 168.297428 165.904849 
L 169.383229 164.523764 
L 170.46903 167.411487 
L 171.554831 169.169232 
L 172.640632 167.411487 
L 173.726434 171.42919 
L 174.812235 167.160381 
L 175.898036 161.761593 
L 176.983837 163.770444 
L 178.069638 163.519338 
L 179.155439 158.622763 
L 180.24124 156.865018 
L 181.327042 157.618337 
L 182.412843 161.510487 
L 183.498644 158.622763 
L 184.584445 158.873869 
L 185.670246 156.362805 
L 186.756047 162.012699 
L 187.841849 163.268231 
L 188.92765 152.345102 
L 190.013451 156.362805 
L 191.099252 154.479507 
L 192.185053 155.358379 
L 193.270854 154.102847 
L 194.356656 153.223975 
L 195.442457 151.08957 
L 196.528258 151.591783 
L 197.614059 146.318548 
L 198.69986 144.937463 
L 199.785661 143.933038 
L 200.871462 142.551952 
L 201.957264 144.184144 
L 203.043065 139.413122 
L 204.128866 138.283143 
L 205.214667 143.933038 
L 206.300468 141.29642 
L 207.386269 141.045314 
L 208.472071 141.170867 
L 209.557872 137.655377 
L 210.643673 140.166441 
L 211.729474 138.659803 
L 212.815275 138.659803 
L 213.901076 138.910909 
L 214.986877 137.153164 
L 216.072679 137.78093 
L 217.15848 139.162016 
L 218.244281 137.153164 
L 219.330082 138.283143 
L 220.415883 137.78093 
L 221.501684 135.772079 
L 222.587486 136.525398 
L 224.759088 134.893207 
L 225.844889 179.213489 
L 226.93069 182.352319 
L 228.016491 181.347893 
L 229.102292 172.810275 
L 230.188094 173.563594 
L 231.273895 177.832403 
L 232.359696 173.814701 
L 233.445497 184.612277 
L 234.531298 172.308062 
L 235.617099 172.308062 
L 237.788702 176.827978 
L 238.874503 171.554743 
L 239.960304 170.424764 
L 241.046105 168.164807 
L 242.131906 176.200212 
L 243.217708 171.80585 
L 244.303509 166.281508 
L 246.475111 174.19136 
L 247.560912 173.940254 
L 248.646713 168.541466 
L 249.732514 171.42919 
L 250.818316 169.796998 
L 251.904117 174.693573 
L 252.989918 163.770444 
L 254.075719 173.186935 
L 255.16152 161.384933 
L 256.247321 166.532615 
L 257.333123 167.285934 
L 258.418924 162.766019 
L 259.504725 171.303637 
L 260.590526 164.649317 
L 261.676327 159.627188 
L 262.762128 166.407062 
L 263.847929 165.653742 
L 264.933731 164.649317 
L 266.019532 165.904849 
L 267.105333 161.25938 
L 268.191134 161.133827 
L 270.362736 168.541466 
L 271.448538 166.407062 
L 272.534339 160.254954 
L 273.62014 163.895997 
L 274.705941 166.532615 
L 275.791742 163.519338 
L 276.877543 161.887146 
L 277.963344 157.116124 
L 279.049146 158.748316 
L 280.134947 162.640465 
L 281.220748 168.164807 
L 282.306549 156.362805 
L 284.478151 158.748316 
L 285.563953 167.53704 
L 286.649754 159.752742 
L 287.735555 166.281508 
L 288.821356 163.393785 
L 289.907157 159.752742 
L 290.992958 158.371656 
L 292.07876 150.336251 
L 293.164561 156.990571 
L 294.250362 152.847315 
L 295.336163 160.003848 
L 296.421964 163.268231 
L 297.507765 159.752742 
L 298.593566 150.964017 
L 299.679368 154.353954 
L 300.765169 154.60506 
L 301.85097 154.228401 
L 302.936771 152.721762 
L 304.022572 158.246103 
L 305.108373 150.085145 
L 306.194175 147.95074 
L 307.279976 153.223975 
L 308.365777 144.81191 
L 309.451578 146.820761 
L 310.537379 151.84289 
L 311.62318 150.964017 
L 312.708981 152.219549 
L 313.794783 149.708485 
L 314.880584 145.063016 
L 315.966385 146.820761 
L 317.052186 149.457379 
L 318.137987 138.785356 
L 319.223788 146.444102 
L 320.30959 150.712911 
L 321.395391 142.175293 
L 322.481192 139.789782 
L 323.566993 146.569655 
L 325.738595 151.08957 
L 326.824396 145.941889 
L 327.910198 146.569655 
L 328.995999 141.924186 
L 330.0818 141.29642 
L 331.167601 135.897632 
L 332.253402 142.677505 
L 333.339203 139.538675 
L 334.425005 139.538675 
L 335.510806 140.794207 
L 336.596607 142.551952 
L 337.682408 132.382142 
L 338.768209 140.794207 
L 339.85401 138.659803 
L 340.939811 136.274292 
L 342.025613 136.399845 
L 343.111414 137.153164 
L 344.197215 135.772079 
L 345.283016 136.776505 
L 346.368817 136.525398 
L 347.454618 134.014334 
L 348.54042 134.516547 
L 349.626221 134.014334 
L 350.712022 137.278718 
L 351.797823 131.377717 
L 352.883624 127.98778 
L 353.969425 132.507696 
L 355.055227 134.893207 
L 356.141028 128.113333 
L 357.226829 134.014334 
L 358.31263 126.732248 
L 359.398431 128.866653 
L 360.484232 129.871078 
L 361.570033 130.498844 
L 362.655835 128.992206 
L 363.741636 129.619972 
L 364.827437 126.857801 
L 365.913238 127.108908 
L 366.999039 125.978929 
L 368.08484 132.507696 
L 369.170642 133.261015 
L 370.256443 130.247738 
L 371.342244 131.001057 
L 372.428045 131.001057 
L 373.513846 132.507696 
L 374.599647 133.512121 
L 375.685448 130.247738 
L 376.77125 131.001057 
L 377.857051 133.637675 
L 378.942852 138.408696 
L 380.028653 138.408696 
L 381.114454 133.261015 
L 382.200255 131.252164 
L 383.286057 136.525398 
L 384.371858 134.390994 
L 385.457659 135.01876 
L 386.54346 135.897632 
L 387.629261 135.144313 
L 388.715062 138.283143 
L 389.800863 132.633249 
L 390.886665 135.269866 
L 391.972466 139.287569 
L 393.058267 139.789782 
L 394.144068 132.884355 
L 395.229869 131.628823 
L 397.401472 138.408696 
L 398.487273 137.529824 
L 398.487273 137.529824 
" clip-path="url(#p6e0c1e61c2)" style="fill: none; stroke: #2ca02c; stroke-width: 1.5; stroke-linecap: square"/>
   </g>
   <g id="line2d_22">
    <path d="M 368.08484 56.389808 
L 369.170642 55.261085 
L 370.256443 59.411874 
L 371.342244 57.991867 
L 372.428045 58.920333 
L 373.513846 62.215477 
L 374.599647 63.289585 
L 375.685448 65.710878 
L 376.77125 63.908562 
L 377.857051 65.838315 
L 378.942852 61.614705 
L 380.028653 64.18164 
L 381.114454 65.255748 
L 382.200255 67.276527 
L 384.371858 69.442948 
L 385.457659 65.492416 
L 386.54346 68.951407 
L 387.629261 67.968325 
L 388.715062 69.934488 
L 389.800863 74.595023 
L 390.886665 74.030662 
L 391.972466 68.40525 
L 394.144068 74.540408 
L 395.229869 77.890167 
L 396.31567 73.065785 
L 397.401472 70.680902 
L 398.487273 72.938349 
L 398.487273 72.938349 
" clip-path="url(#p6e0c1e61c2)" style="fill: none; stroke: #d62728; stroke-width: 1.5; stroke-linecap: square"/>
   </g>
   <g id="line2d_23">
    <path d="M 368.08484 131.12661 
L 369.170642 127.360014 
L 370.256443 135.144313 
L 371.342244 133.763228 
L 372.428045 129.117759 
L 373.513846 136.902058 
L 374.599647 139.413122 
L 375.685448 138.15759 
L 376.77125 139.664228 
L 377.857051 140.417548 
L 378.942852 131.12661 
L 380.028653 136.525398 
L 381.114454 140.417548 
L 382.200255 139.789782 
L 383.286057 143.807484 
L 384.371858 139.538675 
L 385.457659 136.148739 
L 386.54346 143.681931 
L 387.629261 138.032037 
L 388.715062 139.915335 
L 389.800863 149.457379 
L 390.886665 146.820761 
L 391.972466 138.910909 
L 393.058267 140.543101 
L 394.144068 145.816336 
L 395.229869 146.444102 
L 396.31567 144.184144 
L 397.401472 140.794207 
L 398.487273 143.054165 
L 398.487273 143.054165 
" clip-path="url(#p6e0c1e61c2)" style="fill: none; stroke: #9467bd; stroke-width: 1.5; stroke-linecap: square"/>
   </g>
   <g id="patch_3">
    <path d="M 57.6 307.584 
L 57.6 41.472 
" style="fill: none; stroke: #000000; stroke-width: 0.8; stroke-linejoin: miter; stroke-linecap: square"/>
   </g>
   <g id="patch_4">
    <path d="M 414.72 307.584 
L 414.72 41.472 
" style="fill: none; stroke: #000000; stroke-width: 0.8; stroke-linejoin: miter; stroke-linecap: square"/>
   </g>
   <g id="patch_5">
    <path d="M 57.6 307.584 
L 414.72 307.584 
" style="fill: none; stroke: #000000; stroke-width: 0.8; stroke-linejoin: miter; stroke-linecap: square"/>
   </g>
   <g id="patch_6">
    <path d="M 57.6 41.472 
L 414.72 41.472 
" style="fill: none; stroke: #000000; stroke-width: 0.8; stroke-linejoin: miter; stroke-linecap: square"/>
   </g>
   <g id="text_21">
    <!-- Learning Curves -->
    <g transform="translate(187.37625 35.472) scale(0.12 -0.12)">
     <defs>
      <path id="DejaVuSans-4c" d="M 628 4666 
L 1259 4666 
L 1259 531 
L 3531 531 
L 3531 0 
L 628 0 
L 628 4666 
z
" transform="scale(0.015625)"/>
      <path id="DejaVuSans-65" d="M 3597 1894 
L 3597 1613 
L 953 1613 
Q 991 1019 1311 708 
Q 1631 397 2203 397 
Q 2534 397 2845 478 
Q 3156 559 3463 722 
L 3463 178 
Q 3153 47 2828 -22 
Q 2503 -91 2169 -91 
Q 1331 -91 842 396 
Q 353 884 353 1716 
Q 353 2575 817 3079 
Q 1281 3584 2069 3584 
Q 2775 3584 3186 3129 
Q 3597 2675 3597 1894 
z
M 3022 2063 
Q 3016 2534 2758 2815 
Q 2500 3097 2075 3097 
Q 1594 3097 1305 2825 
Q 1016 2553 972 2059 
L 3022 2063 
z
" transform="scale(0.015625)"/>
      <path id="DejaVuSans-6e" d="M 3513 2113 
L 3513 0 
L 2938 0 
L 2938 2094 
Q 2938 2591 2744 2837 
Q 2550 3084 2163 3084 
Q 1697 3084 1428 2787 
Q 1159 2491 1159 1978 
L 1159 0 
L 581 0 
L 581 3500 
L 1159 3500 
L 1159 2956 
Q 1366 3272 1645 3428 
Q 1925 3584 2291 3584 
Q 2894 3584 3203 3211 
Q 3513 2838 3513 2113 
z
" transform="scale(0.015625)"/>
      <path id="DejaVuSans-69" d="M 603 3500 
L 1178 3500 
L 1178 0 
L 603 0 
L 603 3500 
z
M 603 4863 
L 1178 4863 
L 1178 4134 
L 603 4134 
L 603 4863 
z
" transform="scale(0.015625)"/>
      <path id="DejaVuSans-67" d="M 2906 1791 
Q 2906 2416 2648 2759 
Q 2391 3103 1925 3103 
Q 1463 3103 1205 2759 
Q 947 2416 947 1791 
Q 947 1169 1205 825 
Q 1463 481 1925 481 
Q 2391 481 2648 825 
Q 2906 1169 2906 1791 
z
M 3481 434 
Q 3481 -459 3084 -895 
Q 2688 -1331 1869 -1331 
Q 1566 -1331 1297 -1286 
Q 1028 -1241 775 -1147 
L 775 -588 
Q 1028 -725 1275 -790 
Q 1522 -856 1778 -856 
Q 2344 -856 2625 -561 
Q 2906 -266 2906 331 
L 2906 616 
Q 2728 306 2450 153 
Q 2172 0 1784 0 
Q 1141 0 747 490 
Q 353 981 353 1791 
Q 353 2603 747 3093 
Q 1141 3584 1784 3584 
Q 2172 3584 2450 3431 
Q 2728 3278 2906 2969 
L 2906 3500 
L 3481 3500 
L 3481 434 
z
" transform="scale(0.015625)"/>
      <path id="DejaVuSans-20" transform="scale(0.015625)"/>
      <path id="DejaVuSans-43" d="M 4122 4306 
L 4122 3641 
Q 3803 3938 3442 4084 
Q 3081 4231 2675 4231 
Q 1875 4231 1450 3742 
Q 1025 3253 1025 2328 
Q 1025 1406 1450 917 
Q 1875 428 2675 428 
Q 3081 428 3442 575 
Q 3803 722 4122 1019 
L 4122 359 
Q 3791 134 3420 21 
Q 3050 -91 2638 -91 
Q 1578 -91 968 557 
Q 359 1206 359 2328 
Q 359 3453 968 4101 
Q 1578 4750 2638 4750 
Q 3056 4750 3426 4639 
Q 3797 4528 4122 4306 
z
" transform="scale(0.015625)"/>
      <path id="DejaVuSans-76" d="M 191 3500 
L 800 3500 
L 1894 563 
L 2988 3500 
L 3597 3500 
L 2284 0 
L 1503 0 
L 191 3500 
z
" transform="scale(0.015625)"/>
     </defs>
     <use xlink:href="#DejaVuSans-4c"/>
     <use xlink:href="#DejaVuSans-65" x="53.962891"/>
     <use xlink:href="#DejaVuSans-61" x="115.486328"/>
     <use xlink:href="#DejaVuSans-72" x="176.765625"/>
     <use xlink:href="#DejaVuSans-6e" x="216.128906"/>
     <use xlink:href="#DejaVuSans-69" x="279.507812"/>
     <use xlink:href="#DejaVuSans-6e" x="307.291016"/>
     <use xlink:href="#DejaVuSans-67" x="370.669922"/>
     <use xlink:href="#DejaVuSans-20" x="434.146484"/>
     <use xlink:href="#DejaVuSans-43" x="465.933594"/>
     <use xlink:href="#DejaVuSans-75" x="535.757812"/>
     <use xlink:href="#DejaVuSans-72" x="599.136719"/>
     <use xlink:href="#DejaVuSans-76" x="640.25"/>
     <use xlink:href="#DejaVuSans-65" x="699.429688"/>
     <use xlink:href="#DejaVuSans-73" x="760.953125"/>
    </g>
   </g>
   <g id="legend_1">
    <g id="patch_7">
     <path d="M 214.18875 302.584 
L 407.72 302.584 
Q 409.72 302.584 409.72 300.584 
L 409.72 228.193375 
Q 409.72 226.193375 407.72 226.193375 
L 214.18875 226.193375 
Q 212.18875 226.193375 212.18875 228.193375 
L 212.18875 300.584 
Q 212.18875 302.584 214.18875 302.584 
z
" style="fill: #ffffff; opacity: 0.8; stroke: #cccccc; stroke-linejoin: miter"/>
    </g>
    <g id="line2d_24">
     <path d="M 216.18875 234.291812 
L 226.18875 234.291812 
L 236.18875 234.291812 
" style="fill: none; stroke: #1f77b4; stroke-width: 1.5; stroke-linecap: square"/>
    </g>
    <g id="text_22">
     <!-- Train Accuracy -->
     <g transform="translate(244.18875 237.791812) scale(0.1 -0.1)">
      <defs>
       <path id="DejaVuSans-54" d="M -19 4666 
L 3928 4666 
L 3928 4134 
L 2272 4134 
L 2272 0 
L 1638 0 
L 1638 4134 
L -19 4134 
L -19 4666 
z
" transform="scale(0.015625)"/>
      </defs>
      <use xlink:href="#DejaVuSans-54"/>
      <use xlink:href="#DejaVuSans-72" x="46.333984"/>
      <use xlink:href="#DejaVuSans-61" x="87.447266"/>
      <use xlink:href="#DejaVuSans-69" x="148.726562"/>
      <use xlink:href="#DejaVuSans-6e" x="176.509766"/>
      <use xlink:href="#DejaVuSans-20" x="239.888672"/>
      <use xlink:href="#DejaVuSans-41" x="271.675781"/>
      <use xlink:href="#DejaVuSans-63" x="338.333984"/>
      <use xlink:href="#DejaVuSans-63" x="393.314453"/>
      <use xlink:href="#DejaVuSans-75" x="448.294922"/>
      <use xlink:href="#DejaVuSans-72" x="511.673828"/>
      <use xlink:href="#DejaVuSans-61" x="552.787109"/>
      <use xlink:href="#DejaVuSans-63" x="614.066406"/>
      <use xlink:href="#DejaVuSans-79" x="669.046875"/>
     </g>
    </g>
    <g id="line2d_25">
     <path d="M 216.18875 248.969937 
L 226.18875 248.969937 
L 236.18875 248.969937 
" style="fill: none; stroke: #ff7f0e; stroke-width: 1.5; stroke-linecap: square"/>
    </g>
    <g id="text_23">
     <!-- Validation Accuracy -->
     <g transform="translate(244.18875 252.469937) scale(0.1 -0.1)">
      <defs>
       <path id="DejaVuSans-56" d="M 1831 0 
L 50 4666 
L 709 4666 
L 2188 738 
L 3669 4666 
L 4325 4666 
L 2547 0 
L 1831 0 
z
" transform="scale(0.015625)"/>
       <path id="DejaVuSans-6c" d="M 603 4863 
L 1178 4863 
L 1178 0 
L 603 0 
L 603 4863 
z
" transform="scale(0.015625)"/>
       <path id="DejaVuSans-64" d="M 2906 2969 
L 2906 4863 
L 3481 4863 
L 3481 0 
L 2906 0 
L 2906 525 
Q 2725 213 2448 61 
Q 2172 -91 1784 -91 
Q 1150 -91 751 415 
Q 353 922 353 1747 
Q 353 2572 751 3078 
Q 1150 3584 1784 3584 
Q 2172 3584 2448 3432 
Q 2725 3281 2906 2969 
z
M 947 1747 
Q 947 1113 1208 752 
Q 1469 391 1925 391 
Q 2381 391 2643 752 
Q 2906 1113 2906 1747 
Q 2906 2381 2643 2742 
Q 2381 3103 1925 3103 
Q 1469 3103 1208 2742 
Q 947 2381 947 1747 
z
" transform="scale(0.015625)"/>
       <path id="DejaVuSans-74" d="M 1172 4494 
L 1172 3500 
L 2356 3500 
L 2356 3053 
L 1172 3053 
L 1172 1153 
Q 1172 725 1289 603 
Q 1406 481 1766 481 
L 2356 481 
L 2356 0 
L 1766 0 
Q 1100 0 847 248 
Q 594 497 594 1153 
L 594 3053 
L 172 3053 
L 172 3500 
L 594 3500 
L 594 4494 
L 1172 4494 
z
" transform="scale(0.015625)"/>
      </defs>
      <use xlink:href="#DejaVuSans-56"/>
      <use xlink:href="#DejaVuSans-61" x="60.658203"/>
      <use xlink:href="#DejaVuSans-6c" x="121.9375"/>
      <use xlink:href="#DejaVuSans-69" x="149.720703"/>
      <use xlink:href="#DejaVuSans-64" x="177.503906"/>
      <use xlink:href="#DejaVuSans-61" x="240.980469"/>
      <use xlink:href="#DejaVuSans-74" x="302.259766"/>
      <use xlink:href="#DejaVuSans-69" x="341.46875"/>
      <use xlink:href="#DejaVuSans-6f" x="369.251953"/>
      <use xlink:href="#DejaVuSans-6e" x="430.433594"/>
      <use xlink:href="#DejaVuSans-20" x="493.8125"/>
      <use xlink:href="#DejaVuSans-41" x="525.599609"/>
      <use xlink:href="#DejaVuSans-63" x="592.257812"/>
      <use xlink:href="#DejaVuSans-63" x="647.238281"/>
      <use xlink:href="#DejaVuSans-75" x="702.21875"/>
      <use xlink:href="#DejaVuSans-72" x="765.597656"/>
      <use xlink:href="#DejaVuSans-61" x="806.710938"/>
      <use xlink:href="#DejaVuSans-63" x="867.990234"/>
      <use xlink:href="#DejaVuSans-79" x="922.970703"/>
     </g>
    </g>
    <g id="line2d_26">
     <path d="M 216.18875 263.648062 
L 226.18875 263.648062 
L 236.18875 263.648062 
" style="fill: none; stroke: #2ca02c; stroke-width: 1.5; stroke-linecap: square"/>
    </g>
    <g id="text_24">
     <!-- Robust Validation Accuracy -->
     <g transform="translate(244.18875 267.148062) scale(0.1 -0.1)">
      <defs>
       <path id="DejaVuSans-52" d="M 2841 2188 
Q 3044 2119 3236 1894 
Q 3428 1669 3622 1275 
L 4263 0 
L 3584 0 
L 2988 1197 
Q 2756 1666 2539 1819 
Q 2322 1972 1947 1972 
L 1259 1972 
L 1259 0 
L 628 0 
L 628 4666 
L 2053 4666 
Q 2853 4666 3247 4331 
Q 3641 3997 3641 3322 
Q 3641 2881 3436 2590 
Q 3231 2300 2841 2188 
z
M 1259 4147 
L 1259 2491 
L 2053 2491 
Q 2509 2491 2742 2702 
Q 2975 2913 2975 3322 
Q 2975 3731 2742 3939 
Q 2509 4147 2053 4147 
L 1259 4147 
z
" transform="scale(0.015625)"/>
       <path id="DejaVuSans-62" d="M 3116 1747 
Q 3116 2381 2855 2742 
Q 2594 3103 2138 3103 
Q 1681 3103 1420 2742 
Q 1159 2381 1159 1747 
Q 1159 1113 1420 752 
Q 1681 391 2138 391 
Q 2594 391 2855 752 
Q 3116 1113 3116 1747 
z
M 1159 2969 
Q 1341 3281 1617 3432 
Q 1894 3584 2278 3584 
Q 2916 3584 3314 3078 
Q 3713 2572 3713 1747 
Q 3713 922 3314 415 
Q 2916 -91 2278 -91 
Q 1894 -91 1617 61 
Q 1341 213 1159 525 
L 1159 0 
L 581 0 
L 581 4863 
L 1159 4863 
L 1159 2969 
z
" transform="scale(0.015625)"/>
      </defs>
      <use xlink:href="#DejaVuSans-52"/>
      <use xlink:href="#DejaVuSans-6f" x="64.982422"/>
      <use xlink:href="#DejaVuSans-62" x="126.164062"/>
      <use xlink:href="#DejaVuSans-75" x="189.640625"/>
      <use xlink:href="#DejaVuSans-73" x="253.019531"/>
      <use xlink:href="#DejaVuSans-74" x="305.119141"/>
      <use xlink:href="#DejaVuSans-20" x="344.328125"/>
      <use xlink:href="#DejaVuSans-56" x="376.115234"/>
      <use xlink:href="#DejaVuSans-61" x="436.773438"/>
      <use xlink:href="#DejaVuSans-6c" x="498.052734"/>
      <use xlink:href="#DejaVuSans-69" x="525.835938"/>
      <use xlink:href="#DejaVuSans-64" x="553.619141"/>
      <use xlink:href="#DejaVuSans-61" x="617.095703"/>
      <use xlink:href="#DejaVuSans-74" x="678.375"/>
      <use xlink:href="#DejaVuSans-69" x="717.583984"/>
      <use xlink:href="#DejaVuSans-6f" x="745.367188"/>
      <use xlink:href="#DejaVuSans-6e" x="806.548828"/>
      <use xlink:href="#DejaVuSans-20" x="869.927734"/>
      <use xlink:href="#DejaVuSans-41" x="901.714844"/>
      <use xlink:href="#DejaVuSans-63" x="968.373047"/>
      <use xlink:href="#DejaVuSans-63" x="1023.353516"/>
      <use xlink:href="#DejaVuSans-75" x="1078.333984"/>
      <use xlink:href="#DejaVuSans-72" x="1141.712891"/>
      <use xlink:href="#DejaVuSans-61" x="1182.826172"/>
      <use xlink:href="#DejaVuSans-63" x="1244.105469"/>
      <use xlink:href="#DejaVuSans-79" x="1299.085938"/>
     </g>
    </g>
    <g id="line2d_27">
     <path d="M 216.18875 278.326188 
L 226.18875 278.326188 
L 236.18875 278.326188 
" style="fill: none; stroke: #d62728; stroke-width: 1.5; stroke-linecap: square"/>
    </g>
    <g id="text_25">
     <!-- SWA Validation Accuracy -->
     <g transform="translate(244.18875 281.826188) scale(0.1 -0.1)">
      <defs>
       <path id="DejaVuSans-53" d="M 3425 4513 
L 3425 3897 
Q 3066 4069 2747 4153 
Q 2428 4238 2131 4238 
Q 1616 4238 1336 4038 
Q 1056 3838 1056 3469 
Q 1056 3159 1242 3001 
Q 1428 2844 1947 2747 
L 2328 2669 
Q 3034 2534 3370 2195 
Q 3706 1856 3706 1288 
Q 3706 609 3251 259 
Q 2797 -91 1919 -91 
Q 1588 -91 1214 -16 
Q 841 59 441 206 
L 441 856 
Q 825 641 1194 531 
Q 1563 422 1919 422 
Q 2459 422 2753 634 
Q 3047 847 3047 1241 
Q 3047 1584 2836 1778 
Q 2625 1972 2144 2069 
L 1759 2144 
Q 1053 2284 737 2584 
Q 422 2884 422 3419 
Q 422 4038 858 4394 
Q 1294 4750 2059 4750 
Q 2388 4750 2728 4690 
Q 3069 4631 3425 4513 
z
" transform="scale(0.015625)"/>
       <path id="DejaVuSans-57" d="M 213 4666 
L 850 4666 
L 1831 722 
L 2809 4666 
L 3519 4666 
L 4500 722 
L 5478 4666 
L 6119 4666 
L 4947 0 
L 4153 0 
L 3169 4050 
L 2175 0 
L 1381 0 
L 213 4666 
z
" transform="scale(0.015625)"/>
      </defs>
      <use xlink:href="#DejaVuSans-53"/>
      <use xlink:href="#DejaVuSans-57" x="63.476562"/>
      <use xlink:href="#DejaVuSans-41" x="156.853516"/>
      <use xlink:href="#DejaVuSans-20" x="225.261719"/>
      <use xlink:href="#DejaVuSans-56" x="257.048828"/>
      <use xlink:href="#DejaVuSans-61" x="317.707031"/>
      <use xlink:href="#DejaVuSans-6c" x="378.986328"/>
      <use xlink:href="#DejaVuSans-69" x="406.769531"/>
      <use xlink:href="#DejaVuSans-64" x="434.552734"/>
      <use xlink:href="#DejaVuSans-61" x="498.029297"/>
      <use xlink:href="#DejaVuSans-74" x="559.308594"/>
      <use xlink:href="#DejaVuSans-69" x="598.517578"/>
      <use xlink:href="#DejaVuSans-6f" x="626.300781"/>
      <use xlink:href="#DejaVuSans-6e" x="687.482422"/>
      <use xlink:href="#DejaVuSans-20" x="750.861328"/>
      <use xlink:href="#DejaVuSans-41" x="782.648438"/>
      <use xlink:href="#DejaVuSans-63" x="849.306641"/>
      <use xlink:href="#DejaVuSans-63" x="904.287109"/>
      <use xlink:href="#DejaVuSans-75" x="959.267578"/>
      <use xlink:href="#DejaVuSans-72" x="1022.646484"/>
      <use xlink:href="#DejaVuSans-61" x="1063.759766"/>
      <use xlink:href="#DejaVuSans-63" x="1125.039062"/>
      <use xlink:href="#DejaVuSans-79" x="1180.019531"/>
     </g>
    </g>
    <g id="line2d_28">
     <path d="M 216.18875 293.004312 
L 226.18875 293.004312 
L 236.18875 293.004312 
" style="fill: none; stroke: #9467bd; stroke-width: 1.5; stroke-linecap: square"/>
    </g>
    <g id="text_26">
     <!-- SWA Robust Validation Accuracy -->
     <g transform="translate(244.18875 296.504312) scale(0.1 -0.1)">
      <use xlink:href="#DejaVuSans-53"/>
      <use xlink:href="#DejaVuSans-57" x="63.476562"/>
      <use xlink:href="#DejaVuSans-41" x="156.853516"/>
      <use xlink:href="#DejaVuSans-20" x="225.261719"/>
      <use xlink:href="#DejaVuSans-52" x="257.048828"/>
      <use xlink:href="#DejaVuSans-6f" x="322.03125"/>
      <use xlink:href="#DejaVuSans-62" x="383.212891"/>
      <use xlink:href="#DejaVuSans-75" x="446.689453"/>
      <use xlink:href="#DejaVuSans-73" x="510.068359"/>
      <use xlink:href="#DejaVuSans-74" x="562.167969"/>
      <use xlink:href="#DejaVuSans-20" x="601.376953"/>
      <use xlink:href="#DejaVuSans-56" x="633.164062"/>
      <use xlink:href="#DejaVuSans-61" x="693.822266"/>
      <use xlink:href="#DejaVuSans-6c" x="755.101562"/>
      <use xlink:href="#DejaVuSans-69" x="782.884766"/>
      <use xlink:href="#DejaVuSans-64" x="810.667969"/>
      <use xlink:href="#DejaVuSans-61" x="874.144531"/>
      <use xlink:href="#DejaVuSans-74" x="935.423828"/>
      <use xlink:href="#DejaVuSans-69" x="974.632812"/>
      <use xlink:href="#DejaVuSans-6f" x="1002.416016"/>
      <use xlink:href="#DejaVuSans-6e" x="1063.597656"/>
      <use xlink:href="#DejaVuSans-20" x="1126.976562"/>
      <use xlink:href="#DejaVuSans-41" x="1158.763672"/>
      <use xlink:href="#DejaVuSans-63" x="1225.421875"/>
      <use xlink:href="#DejaVuSans-63" x="1280.402344"/>
      <use xlink:href="#DejaVuSans-75" x="1335.382812"/>
      <use xlink:href="#DejaVuSans-72" x="1398.761719"/>
      <use xlink:href="#DejaVuSans-61" x="1439.875"/>
      <use xlink:href="#DejaVuSans-63" x="1501.154297"/>
      <use xlink:href="#DejaVuSans-79" x="1556.134766"/>
     </g>
    </g>
   </g>
  </g>
 </g>
 <defs>
  <clipPath id="p6e0c1e61c2">
   <rect x="57.6" y="41.472" width="357.12" height="266.112"/>
  </clipPath>
 </defs>
</svg>
