<?xml version="1.0" encoding="utf-8" standalone="no"?>
<!DOCTYPE svg PUBLIC "-//W3C//DTD SVG 1.1//EN"
  "http://www.w3.org/Graphics/SVG/1.1/DTD/svg11.dtd">
<svg xmlns:xlink="http://www.w3.org/1999/xlink" width="460.8pt" height="345.6pt" viewBox="0 0 460.8 345.6" xmlns="http://www.w3.org/2000/svg" version="1.1">
 <metadata>
  <rdf:RDF xmlns:dc="http://purl.org/dc/elements/1.1/" xmlns:cc="http://creativecommons.org/ns#" xmlns:rdf="http://www.w3.org/1999/02/22-rdf-syntax-ns#">
   <cc:Work>
    <dc:type rdf:resource="http://purl.org/dc/dcmitype/StillImage"/>
    <dc:date>2025-01-16T15:42:30.505041</dc:date>
    <dc:format>image/svg+xml</dc:format>
    <dc:creator>
     <cc:Agent>
      <dc:title>Matplotlib v3.9.1, https://matplotlib.org/</dc:title>
     </cc:Agent>
    </dc:creator>
   </cc:Work>
  </rdf:RDF>
 </metadata>
 <defs>
  <style type="text/css">*{stroke-linejoin: round; stroke-linecap: butt}</style>
 </defs>
 <g id="figure_1">
  <g id="patch_1">
   <path d="M 0 345.6 
L 460.8 345.6 
L 460.8 0 
L 0 0 
z
" style="fill: #ffffff"/>
  </g>
  <g id="axes_1">
   <g id="patch_2">
    <path d="M 57.6 307.584 
L 414.72 307.584 
L 414.72 41.472 
L 57.6 41.472 
z
" style="fill: #ffffff"/>
   </g>
   <g id="matplotlib.axis_1">
    <g id="xtick_1">
     <g id="line2d_1">
      <defs>
       <path id="mbf0715b927" d="M 0 0 
L 0 3.5 
" style="stroke: #000000; stroke-width: 0.8"/>
      </defs>
      <g>
       <use xlink:href="#mbf0715b927" x="73.832727" y="307.584" style="stroke: #000000; stroke-width: 0.8"/>
      </g>
     </g>
     <g id="text_1">
      <!-- 1 -->
      <g transform="translate(70.651477 322.182437) scale(0.1 -0.1)">
       <defs>
        <path id="DejaVuSans-31" d="M 794 531 
L 1825 531 
L 1825 4091 
L 703 3866 
L 703 4441 
L 1819 4666 
L 2450 4666 
L 2450 531 
L 3481 531 
L 3481 0 
L 794 0 
L 794 531 
z
" transform="scale(0.015625)"/>
       </defs>
       <use xlink:href="#DejaVuSans-31"/>
      </g>
     </g>
    </g>
    <g id="xtick_2">
     <g id="line2d_2">
      <g>
       <use xlink:href="#mbf0715b927" x="108.773127" y="307.584" style="stroke: #000000; stroke-width: 0.8"/>
      </g>
     </g>
     <g id="text_2">
      <!-- 25 -->
      <g transform="translate(102.410627 322.182437) scale(0.1 -0.1)">
       <defs>
        <path id="DejaVuSans-32" d="M 1228 531 
L 3431 531 
L 3431 0 
L 469 0 
L 469 531 
Q 828 903 1448 1529 
Q 2069 2156 2228 2338 
Q 2531 2678 2651 2914 
Q 2772 3150 2772 3378 
Q 2772 3750 2511 3984 
Q 2250 4219 1831 4219 
Q 1534 4219 1204 4116 
Q 875 4013 500 3803 
L 500 4441 
Q 881 4594 1212 4672 
Q 1544 4750 1819 4750 
Q 2544 4750 2975 4387 
Q 3406 4025 3406 3419 
Q 3406 3131 3298 2873 
Q 3191 2616 2906 2266 
Q 2828 2175 2409 1742 
Q 1991 1309 1228 531 
z
" transform="scale(0.015625)"/>
        <path id="DejaVuSans-35" d="M 691 4666 
L 3169 4666 
L 3169 4134 
L 1269 4134 
L 1269 2991 
Q 1406 3038 1543 3061 
Q 1681 3084 1819 3084 
Q 2600 3084 3056 2656 
Q 3513 2228 3513 1497 
Q 3513 744 3044 326 
Q 2575 -91 1722 -91 
Q 1428 -91 1123 -41 
Q 819 9 494 109 
L 494 744 
Q 775 591 1075 516 
Q 1375 441 1709 441 
Q 2250 441 2565 725 
Q 2881 1009 2881 1497 
Q 2881 1984 2565 2268 
Q 2250 2553 1709 2553 
Q 1456 2553 1204 2497 
Q 953 2441 691 2322 
L 691 4666 
z
" transform="scale(0.015625)"/>
       </defs>
       <use xlink:href="#DejaVuSans-32"/>
       <use xlink:href="#DejaVuSans-35" x="63.623047"/>
      </g>
     </g>
    </g>
    <g id="xtick_3">
     <g id="line2d_3">
      <g>
       <use xlink:href="#mbf0715b927" x="145.169376" y="307.584" style="stroke: #000000; stroke-width: 0.8"/>
      </g>
     </g>
     <g id="text_3">
      <!-- 50 -->
      <g transform="translate(138.806876 322.182437) scale(0.1 -0.1)">
       <defs>
        <path id="DejaVuSans-30" d="M 2034 4250 
Q 1547 4250 1301 3770 
Q 1056 3291 1056 2328 
Q 1056 1369 1301 889 
Q 1547 409 2034 409 
Q 2525 409 2770 889 
Q 3016 1369 3016 2328 
Q 3016 3291 2770 3770 
Q 2525 4250 2034 4250 
z
M 2034 4750 
Q 2819 4750 3233 4129 
Q 3647 3509 3647 2328 
Q 3647 1150 3233 529 
Q 2819 -91 2034 -91 
Q 1250 -91 836 529 
Q 422 1150 422 2328 
Q 422 3509 836 4129 
Q 1250 4750 2034 4750 
z
" transform="scale(0.015625)"/>
       </defs>
       <use xlink:href="#DejaVuSans-35"/>
       <use xlink:href="#DejaVuSans-30" x="63.623047"/>
      </g>
     </g>
    </g>
    <g id="xtick_4">
     <g id="line2d_4">
      <g>
       <use xlink:href="#mbf0715b927" x="181.565626" y="307.584" style="stroke: #000000; stroke-width: 0.8"/>
      </g>
     </g>
     <g id="text_4">
      <!-- 75 -->
      <g transform="translate(175.203126 322.182437) scale(0.1 -0.1)">
       <defs>
        <path id="DejaVuSans-37" d="M 525 4666 
L 3525 4666 
L 3525 4397 
L 1831 0 
L 1172 0 
L 2766 4134 
L 525 4134 
L 525 4666 
z
" transform="scale(0.015625)"/>
       </defs>
       <use xlink:href="#DejaVuSans-37"/>
       <use xlink:href="#DejaVuSans-35" x="63.623047"/>
      </g>
     </g>
    </g>
    <g id="xtick_5">
     <g id="line2d_5">
      <g>
       <use xlink:href="#mbf0715b927" x="217.961875" y="307.584" style="stroke: #000000; stroke-width: 0.8"/>
      </g>
     </g>
     <g id="text_5">
      <!-- 100 -->
      <g transform="translate(208.418125 322.182437) scale(0.1 -0.1)">
       <use xlink:href="#DejaVuSans-31"/>
       <use xlink:href="#DejaVuSans-30" x="63.623047"/>
       <use xlink:href="#DejaVuSans-30" x="127.246094"/>
      </g>
     </g>
    </g>
    <g id="xtick_6">
     <g id="line2d_6">
      <g>
       <use xlink:href="#mbf0715b927" x="252.902275" y="307.584" style="stroke: #000000; stroke-width: 0.8"/>
      </g>
     </g>
     <g id="text_6">
      <!-- 124 -->
      <g transform="translate(243.358525 322.182437) scale(0.1 -0.1)">
       <defs>
        <path id="DejaVuSans-34" d="M 2419 4116 
L 825 1625 
L 2419 1625 
L 2419 4116 
z
M 2253 4666 
L 3047 4666 
L 3047 1625 
L 3713 1625 
L 3713 1100 
L 3047 1100 
L 3047 0 
L 2419 0 
L 2419 1100 
L 313 1100 
L 313 1709 
L 2253 4666 
z
" transform="scale(0.015625)"/>
       </defs>
       <use xlink:href="#DejaVuSans-31"/>
       <use xlink:href="#DejaVuSans-32" x="63.623047"/>
       <use xlink:href="#DejaVuSans-34" x="127.246094"/>
      </g>
     </g>
    </g>
    <g id="xtick_7">
     <g id="line2d_7">
      <g>
       <use xlink:href="#mbf0715b927" x="289.298524" y="307.584" style="stroke: #000000; stroke-width: 0.8"/>
      </g>
     </g>
     <g id="text_7">
      <!-- 149 -->
      <g transform="translate(279.754774 322.182437) scale(0.1 -0.1)">
       <defs>
        <path id="DejaVuSans-39" d="M 703 97 
L 703 672 
Q 941 559 1184 500 
Q 1428 441 1663 441 
Q 2288 441 2617 861 
Q 2947 1281 2994 2138 
Q 2813 1869 2534 1725 
Q 2256 1581 1919 1581 
Q 1219 1581 811 2004 
Q 403 2428 403 3163 
Q 403 3881 828 4315 
Q 1253 4750 1959 4750 
Q 2769 4750 3195 4129 
Q 3622 3509 3622 2328 
Q 3622 1225 3098 567 
Q 2575 -91 1691 -91 
Q 1453 -91 1209 -44 
Q 966 3 703 97 
z
M 1959 2075 
Q 2384 2075 2632 2365 
Q 2881 2656 2881 3163 
Q 2881 3666 2632 3958 
Q 2384 4250 1959 4250 
Q 1534 4250 1286 3958 
Q 1038 3666 1038 3163 
Q 1038 2656 1286 2365 
Q 1534 2075 1959 2075 
z
" transform="scale(0.015625)"/>
       </defs>
       <use xlink:href="#DejaVuSans-31"/>
       <use xlink:href="#DejaVuSans-34" x="63.623047"/>
       <use xlink:href="#DejaVuSans-39" x="127.246094"/>
      </g>
     </g>
    </g>
    <g id="xtick_8">
     <g id="line2d_8">
      <g>
       <use xlink:href="#mbf0715b927" x="325.694774" y="307.584" style="stroke: #000000; stroke-width: 0.8"/>
      </g>
     </g>
     <g id="text_8">
      <!-- 174 -->
      <g transform="translate(316.151024 322.182437) scale(0.1 -0.1)">
       <use xlink:href="#DejaVuSans-31"/>
       <use xlink:href="#DejaVuSans-37" x="63.623047"/>
       <use xlink:href="#DejaVuSans-34" x="127.246094"/>
      </g>
     </g>
    </g>
    <g id="xtick_9">
     <g id="line2d_9">
      <g>
       <use xlink:href="#mbf0715b927" x="362.091023" y="307.584" style="stroke: #000000; stroke-width: 0.8"/>
      </g>
     </g>
     <g id="text_9">
      <!-- 199 -->
      <g transform="translate(352.547273 322.182437) scale(0.1 -0.1)">
       <use xlink:href="#DejaVuSans-31"/>
       <use xlink:href="#DejaVuSans-39" x="63.623047"/>
       <use xlink:href="#DejaVuSans-39" x="127.246094"/>
      </g>
     </g>
    </g>
    <g id="xtick_10">
     <g id="line2d_10">
      <g>
       <use xlink:href="#mbf0715b927" x="398.487273" y="307.584" style="stroke: #000000; stroke-width: 0.8"/>
      </g>
     </g>
     <g id="text_10">
      <!-- 224 -->
      <g transform="translate(388.943523 322.182437) scale(0.1 -0.1)">
       <use xlink:href="#DejaVuSans-32"/>
       <use xlink:href="#DejaVuSans-32" x="63.623047"/>
       <use xlink:href="#DejaVuSans-34" x="127.246094"/>
      </g>
     </g>
    </g>
    <g id="text_11">
     <!-- Epochs -->
     <g transform="translate(218.244375 335.860562) scale(0.1 -0.1)">
      <defs>
       <path id="DejaVuSans-45" d="M 628 4666 
L 3578 4666 
L 3578 4134 
L 1259 4134 
L 1259 2753 
L 3481 2753 
L 3481 2222 
L 1259 2222 
L 1259 531 
L 3634 531 
L 3634 0 
L 628 0 
L 628 4666 
z
" transform="scale(0.015625)"/>
       <path id="DejaVuSans-70" d="M 1159 525 
L 1159 -1331 
L 581 -1331 
L 581 3500 
L 1159 3500 
L 1159 2969 
Q 1341 3281 1617 3432 
Q 1894 3584 2278 3584 
Q 2916 3584 3314 3078 
Q 3713 2572 3713 1747 
Q 3713 922 3314 415 
Q 2916 -91 2278 -91 
Q 1894 -91 1617 61 
Q 1341 213 1159 525 
z
M 3116 1747 
Q 3116 2381 2855 2742 
Q 2594 3103 2138 3103 
Q 1681 3103 1420 2742 
Q 1159 2381 1159 1747 
Q 1159 1113 1420 752 
Q 1681 391 2138 391 
Q 2594 391 2855 752 
Q 3116 1113 3116 1747 
z
" transform="scale(0.015625)"/>
       <path id="DejaVuSans-6f" d="M 1959 3097 
Q 1497 3097 1228 2736 
Q 959 2375 959 1747 
Q 959 1119 1226 758 
Q 1494 397 1959 397 
Q 2419 397 2687 759 
Q 2956 1122 2956 1747 
Q 2956 2369 2687 2733 
Q 2419 3097 1959 3097 
z
M 1959 3584 
Q 2709 3584 3137 3096 
Q 3566 2609 3566 1747 
Q 3566 888 3137 398 
Q 2709 -91 1959 -91 
Q 1206 -91 779 398 
Q 353 888 353 1747 
Q 353 2609 779 3096 
Q 1206 3584 1959 3584 
z
" transform="scale(0.015625)"/>
       <path id="DejaVuSans-63" d="M 3122 3366 
L 3122 2828 
Q 2878 2963 2633 3030 
Q 2388 3097 2138 3097 
Q 1578 3097 1268 2742 
Q 959 2388 959 1747 
Q 959 1106 1268 751 
Q 1578 397 2138 397 
Q 2388 397 2633 464 
Q 2878 531 3122 666 
L 3122 134 
Q 2881 22 2623 -34 
Q 2366 -91 2075 -91 
Q 1284 -91 818 406 
Q 353 903 353 1747 
Q 353 2603 823 3093 
Q 1294 3584 2113 3584 
Q 2378 3584 2631 3529 
Q 2884 3475 3122 3366 
z
" transform="scale(0.015625)"/>
       <path id="DejaVuSans-68" d="M 3513 2113 
L 3513 0 
L 2938 0 
L 2938 2094 
Q 2938 2591 2744 2837 
Q 2550 3084 2163 3084 
Q 1697 3084 1428 2787 
Q 1159 2491 1159 1978 
L 1159 0 
L 581 0 
L 581 4863 
L 1159 4863 
L 1159 2956 
Q 1366 3272 1645 3428 
Q 1925 3584 2291 3584 
Q 2894 3584 3203 3211 
Q 3513 2838 3513 2113 
z
" transform="scale(0.015625)"/>
       <path id="DejaVuSans-73" d="M 2834 3397 
L 2834 2853 
Q 2591 2978 2328 3040 
Q 2066 3103 1784 3103 
Q 1356 3103 1142 2972 
Q 928 2841 928 2578 
Q 928 2378 1081 2264 
Q 1234 2150 1697 2047 
L 1894 2003 
Q 2506 1872 2764 1633 
Q 3022 1394 3022 966 
Q 3022 478 2636 193 
Q 2250 -91 1575 -91 
Q 1294 -91 989 -36 
Q 684 19 347 128 
L 347 722 
Q 666 556 975 473 
Q 1284 391 1588 391 
Q 1994 391 2212 530 
Q 2431 669 2431 922 
Q 2431 1156 2273 1281 
Q 2116 1406 1581 1522 
L 1381 1569 
Q 847 1681 609 1914 
Q 372 2147 372 2553 
Q 372 3047 722 3315 
Q 1072 3584 1716 3584 
Q 2034 3584 2315 3537 
Q 2597 3491 2834 3397 
z
" transform="scale(0.015625)"/>
      </defs>
      <use xlink:href="#DejaVuSans-45"/>
      <use xlink:href="#DejaVuSans-70" x="63.183594"/>
      <use xlink:href="#DejaVuSans-6f" x="126.660156"/>
      <use xlink:href="#DejaVuSans-63" x="187.841797"/>
      <use xlink:href="#DejaVuSans-68" x="242.822266"/>
      <use xlink:href="#DejaVuSans-73" x="306.201172"/>
     </g>
    </g>
   </g>
   <g id="matplotlib.axis_2">
    <g id="ytick_1">
     <g id="line2d_11">
      <defs>
       <path id="mc297e74139" d="M 0 0 
L -3.5 0 
" style="stroke: #000000; stroke-width: 0.8"/>
      </defs>
      <g>
       <use xlink:href="#mc297e74139" x="57.6" y="277.766754" style="stroke: #000000; stroke-width: 0.8"/>
      </g>
     </g>
     <g id="text_12">
      <!-- 10 -->
      <g transform="translate(37.875 281.565973) scale(0.1 -0.1)">
       <use xlink:href="#DejaVuSans-31"/>
       <use xlink:href="#DejaVuSans-30" x="63.623047"/>
      </g>
     </g>
    </g>
    <g id="ytick_2">
     <g id="line2d_12">
      <g>
       <use xlink:href="#mc297e74139" x="57.6" y="240.629309" style="stroke: #000000; stroke-width: 0.8"/>
      </g>
     </g>
     <g id="text_13">
      <!-- 20 -->
      <g transform="translate(37.875 244.428528) scale(0.1 -0.1)">
       <use xlink:href="#DejaVuSans-32"/>
       <use xlink:href="#DejaVuSans-30" x="63.623047"/>
      </g>
     </g>
    </g>
    <g id="ytick_3">
     <g id="line2d_13">
      <g>
       <use xlink:href="#mc297e74139" x="57.6" y="203.491865" style="stroke: #000000; stroke-width: 0.8"/>
      </g>
     </g>
     <g id="text_14">
      <!-- 30 -->
      <g transform="translate(37.875 207.291083) scale(0.1 -0.1)">
       <defs>
        <path id="DejaVuSans-33" d="M 2597 2516 
Q 3050 2419 3304 2112 
Q 3559 1806 3559 1356 
Q 3559 666 3084 287 
Q 2609 -91 1734 -91 
Q 1441 -91 1130 -33 
Q 819 25 488 141 
L 488 750 
Q 750 597 1062 519 
Q 1375 441 1716 441 
Q 2309 441 2620 675 
Q 2931 909 2931 1356 
Q 2931 1769 2642 2001 
Q 2353 2234 1838 2234 
L 1294 2234 
L 1294 2753 
L 1863 2753 
Q 2328 2753 2575 2939 
Q 2822 3125 2822 3475 
Q 2822 3834 2567 4026 
Q 2313 4219 1838 4219 
Q 1578 4219 1281 4162 
Q 984 4106 628 3988 
L 628 4550 
Q 988 4650 1302 4700 
Q 1616 4750 1894 4750 
Q 2613 4750 3031 4423 
Q 3450 4097 3450 3541 
Q 3450 3153 3228 2886 
Q 3006 2619 2597 2516 
z
" transform="scale(0.015625)"/>
       </defs>
       <use xlink:href="#DejaVuSans-33"/>
       <use xlink:href="#DejaVuSans-30" x="63.623047"/>
      </g>
     </g>
    </g>
    <g id="ytick_4">
     <g id="line2d_14">
      <g>
       <use xlink:href="#mc297e74139" x="57.6" y="166.35442" style="stroke: #000000; stroke-width: 0.8"/>
      </g>
     </g>
     <g id="text_15">
      <!-- 40 -->
      <g transform="translate(37.875 170.153639) scale(0.1 -0.1)">
       <use xlink:href="#DejaVuSans-34"/>
       <use xlink:href="#DejaVuSans-30" x="63.623047"/>
      </g>
     </g>
    </g>
    <g id="ytick_5">
     <g id="line2d_15">
      <g>
       <use xlink:href="#mc297e74139" x="57.6" y="129.216975" style="stroke: #000000; stroke-width: 0.8"/>
      </g>
     </g>
     <g id="text_16">
      <!-- 50 -->
      <g transform="translate(37.875 133.016194) scale(0.1 -0.1)">
       <use xlink:href="#DejaVuSans-35"/>
       <use xlink:href="#DejaVuSans-30" x="63.623047"/>
      </g>
     </g>
    </g>
    <g id="ytick_6">
     <g id="line2d_16">
      <g>
       <use xlink:href="#mc297e74139" x="57.6" y="92.07953" style="stroke: #000000; stroke-width: 0.8"/>
      </g>
     </g>
     <g id="text_17">
      <!-- 60 -->
      <g transform="translate(37.875 95.878749) scale(0.1 -0.1)">
       <defs>
        <path id="DejaVuSans-36" d="M 2113 2584 
Q 1688 2584 1439 2293 
Q 1191 2003 1191 1497 
Q 1191 994 1439 701 
Q 1688 409 2113 409 
Q 2538 409 2786 701 
Q 3034 994 3034 1497 
Q 3034 2003 2786 2293 
Q 2538 2584 2113 2584 
z
M 3366 4563 
L 3366 3988 
Q 3128 4100 2886 4159 
Q 2644 4219 2406 4219 
Q 1781 4219 1451 3797 
Q 1122 3375 1075 2522 
Q 1259 2794 1537 2939 
Q 1816 3084 2150 3084 
Q 2853 3084 3261 2657 
Q 3669 2231 3669 1497 
Q 3669 778 3244 343 
Q 2819 -91 2113 -91 
Q 1303 -91 875 529 
Q 447 1150 447 2328 
Q 447 3434 972 4092 
Q 1497 4750 2381 4750 
Q 2619 4750 2861 4703 
Q 3103 4656 3366 4563 
z
" transform="scale(0.015625)"/>
       </defs>
       <use xlink:href="#DejaVuSans-36"/>
       <use xlink:href="#DejaVuSans-30" x="63.623047"/>
      </g>
     </g>
    </g>
    <g id="ytick_7">
     <g id="line2d_17">
      <g>
       <use xlink:href="#mc297e74139" x="57.6" y="54.942085" style="stroke: #000000; stroke-width: 0.8"/>
      </g>
     </g>
     <g id="text_18">
      <!-- 70 -->
      <g transform="translate(37.875 58.741304) scale(0.1 -0.1)">
       <use xlink:href="#DejaVuSans-37"/>
       <use xlink:href="#DejaVuSans-30" x="63.623047"/>
      </g>
     </g>
    </g>
    <g id="text_19">
     <!-- Accuracy -->
     <g transform="translate(31.795312 197.356125) rotate(-90) scale(0.1 -0.1)">
      <defs>
       <path id="DejaVuSans-41" d="M 2188 4044 
L 1331 1722 
L 3047 1722 
L 2188 4044 
z
M 1831 4666 
L 2547 4666 
L 4325 0 
L 3669 0 
L 3244 1197 
L 1141 1197 
L 716 0 
L 50 0 
L 1831 4666 
z
" transform="scale(0.015625)"/>
       <path id="DejaVuSans-75" d="M 544 1381 
L 544 3500 
L 1119 3500 
L 1119 1403 
Q 1119 906 1312 657 
Q 1506 409 1894 409 
Q 2359 409 2629 706 
Q 2900 1003 2900 1516 
L 2900 3500 
L 3475 3500 
L 3475 0 
L 2900 0 
L 2900 538 
Q 2691 219 2414 64 
Q 2138 -91 1772 -91 
Q 1169 -91 856 284 
Q 544 659 544 1381 
z
M 1991 3584 
L 1991 3584 
z
" transform="scale(0.015625)"/>
       <path id="DejaVuSans-72" d="M 2631 2963 
Q 2534 3019 2420 3045 
Q 2306 3072 2169 3072 
Q 1681 3072 1420 2755 
Q 1159 2438 1159 1844 
L 1159 0 
L 581 0 
L 581 3500 
L 1159 3500 
L 1159 2956 
Q 1341 3275 1631 3429 
Q 1922 3584 2338 3584 
Q 2397 3584 2469 3576 
Q 2541 3569 2628 3553 
L 2631 2963 
z
" transform="scale(0.015625)"/>
       <path id="DejaVuSans-61" d="M 2194 1759 
Q 1497 1759 1228 1600 
Q 959 1441 959 1056 
Q 959 750 1161 570 
Q 1363 391 1709 391 
Q 2188 391 2477 730 
Q 2766 1069 2766 1631 
L 2766 1759 
L 2194 1759 
z
M 3341 1997 
L 3341 0 
L 2766 0 
L 2766 531 
Q 2569 213 2275 61 
Q 1981 -91 1556 -91 
Q 1019 -91 701 211 
Q 384 513 384 1019 
Q 384 1609 779 1909 
Q 1175 2209 1959 2209 
L 2766 2209 
L 2766 2266 
Q 2766 2663 2505 2880 
Q 2244 3097 1772 3097 
Q 1472 3097 1187 3025 
Q 903 2953 641 2809 
L 641 3341 
Q 956 3463 1253 3523 
Q 1550 3584 1831 3584 
Q 2591 3584 2966 3190 
Q 3341 2797 3341 1997 
z
" transform="scale(0.015625)"/>
       <path id="DejaVuSans-79" d="M 2059 -325 
Q 1816 -950 1584 -1140 
Q 1353 -1331 966 -1331 
L 506 -1331 
L 506 -850 
L 844 -850 
Q 1081 -850 1212 -737 
Q 1344 -625 1503 -206 
L 1606 56 
L 191 3500 
L 800 3500 
L 1894 763 
L 2988 3500 
L 3597 3500 
L 2059 -325 
z
" transform="scale(0.015625)"/>
      </defs>
      <use xlink:href="#DejaVuSans-41"/>
      <use xlink:href="#DejaVuSans-63" x="66.658203"/>
      <use xlink:href="#DejaVuSans-63" x="121.638672"/>
      <use xlink:href="#DejaVuSans-75" x="176.619141"/>
      <use xlink:href="#DejaVuSans-72" x="239.998047"/>
      <use xlink:href="#DejaVuSans-61" x="281.111328"/>
      <use xlink:href="#DejaVuSans-63" x="342.390625"/>
      <use xlink:href="#DejaVuSans-79" x="397.371094"/>
     </g>
    </g>
   </g>
   <g id="line2d_18">
    <path d="M 73.832727 295.488 
L 75.288577 272.097352 
L 76.744427 253.729914 
L 78.200277 239.62697 
L 79.656127 228.364668 
L 81.111977 218.909475 
L 85.479527 195.872004 
L 86.935377 188.844485 
L 88.391227 183.702434 
L 89.847077 177.612179 
L 91.302927 172.912461 
L 92.758777 168.882006 
L 94.214627 163.643158 
L 95.670477 160.99213 
L 97.126327 156.582426 
L 98.582177 155.035683 
L 100.038027 152.964683 
L 101.493877 151.41794 
L 102.949727 183.962749 
L 104.405577 183.107578 
L 105.861427 179.991784 
L 107.317277 175.370146 
L 110.228977 169.235228 
L 111.684827 166.881651 
L 113.140677 163.08172 
L 114.596527 160.605444 
L 116.052377 158.757533 
L 117.508227 156.162277 
L 120.419927 150.462381 
L 121.875777 148.603315 
L 123.331627 146.034085 
L 124.787477 144.294 
L 126.243327 141.033198 
L 127.699177 139.583127 
L 130.610876 134.132345 
L 132.066726 132.507522 
L 133.522576 129.153767 
L 134.978426 129.094277 
L 136.434276 125.045231 
L 137.890126 123.520797 
L 139.345976 120.706171 
L 140.801826 118.847105 
L 142.257676 117.798592 
L 143.713526 115.987862 
L 145.169376 113.009638 
L 148.081076 109.68191 
L 149.536926 106.101349 
L 152.448626 104.889238 
L 153.904476 103.974578 
L 155.360326 103.29416 
L 156.816176 102.033713 
L 158.272026 102.249365 
L 159.727876 100.992636 
L 161.183726 142.810465 
L 162.639576 145.803561 
L 164.095426 144.65094 
L 165.551276 144.598887 
L 167.007126 143.427675 
L 168.462976 140.482915 
L 169.918826 139.586845 
L 171.374676 140.57215 
L 172.830526 137.642262 
L 174.286376 137.393147 
L 175.742226 136.028593 
L 178.653926 133.890667 
L 180.109776 132.087373 
L 181.565626 131.71556 
L 183.021476 130.916161 
L 184.477326 130.384468 
L 185.933176 128.912088 
L 187.389026 127.703695 
L 188.844876 128.194489 
L 190.300726 126.272215 
L 191.756576 124.684572 
L 193.212426 123.572851 
L 194.668276 123.290273 
L 196.124126 122.572673 
L 197.579976 120.944132 
L 199.035826 120.107552 
L 200.491675 118.371184 
L 201.947525 118.382339 
L 203.403375 117.891545 
L 204.859225 117.054966 
L 206.315075 114.002379 
L 207.770925 114.734851 
L 209.226775 113.273626 
L 210.682625 112.589489 
L 212.138475 111.581876 
L 213.594325 109.317533 
L 215.050175 108.834176 
L 216.506025 108.78584 
L 217.961875 107.012291 
L 219.417725 106.729713 
L 220.873575 104.112149 
L 222.329425 104.521143 
L 223.785275 101.78088 
L 225.241125 100.959173 
L 226.696975 100.992636 
L 228.152825 99.832579 
L 229.608675 98.077621 
L 231.064525 98.542387 
L 232.520375 94.868873 
L 233.976225 96.025212 
L 235.432075 92.857363 
L 236.887925 92.783001 
L 238.343775 91.243694 
L 239.799625 90.678538 
L 241.255475 88.462532 
L 242.711325 87.618516 
L 244.167175 86.610902 
L 245.623025 86.499358 
L 247.078875 84.610547 
L 248.534725 83.301765 
L 249.990575 82.279278 
L 251.446425 81.491034 
L 252.902275 80.249178 
L 254.358125 80.037245 
L 255.813975 78.345495 
L 257.269825 77.099921 
L 258.725675 77.073894 
L 260.181525 76.687208 
L 261.637375 74.89135 
L 263.093225 74.504664 
L 264.549075 74.794679 
L 266.004925 74.218368 
L 267.460775 73.251654 
L 268.916625 73.523078 
L 270.372475 72.705089 
L 271.828325 72.857532 
L 273.284174 71.753247 
L 274.740024 72.348148 
L 276.195874 72.292376 
L 277.651724 125.9822 
L 279.107574 128.525402 
L 280.563424 128.354368 
L 282.019274 127.837548 
L 286.386824 125.275755 
L 289.298524 124.357377 
L 290.754374 123.840556 
L 292.210224 122.896151 
L 293.666074 121.367999 
L 295.121924 122.323559 
L 296.577774 121.446079 
L 298.033624 121.230428 
L 299.489474 120.802843 
L 300.945324 118.713252 
L 302.401174 119.081348 
L 303.857024 119.166865 
L 305.312874 118.880568 
L 306.768724 118.951213 
L 308.224574 117.798592 
L 309.680424 117.913854 
L 311.136274 117.434215 
L 312.592124 115.861445 
L 314.047974 116.363393 
L 315.503824 115.623485 
L 316.959674 114.363038 
L 318.415524 114.671643 
L 321.327224 113.675184 
L 322.783074 114.065588 
L 324.238924 113.8016 
L 325.694774 114.210595 
L 327.150624 113.247599 
L 328.606474 112.741933 
L 330.062324 112.812577 
L 331.518174 111.957407 
L 332.974024 111.957407 
L 334.429874 111.53354 
L 335.885724 110.763887 
L 337.341574 110.823377 
L 338.797424 109.377023 
L 340.253274 108.242993 
L 341.709124 108.629679 
L 343.164974 108.611088 
L 344.620823 108.313638 
L 346.076673 108.562752 
L 347.532523 107.358078 
L 348.988373 106.897029 
L 350.444223 106.956519 
L 351.900073 106.707405 
L 353.355923 105.272206 
L 354.811773 105.153226 
L 356.267623 104.082404 
L 357.723473 104.937574 
L 359.179323 103.959705 
L 360.635173 102.829393 
L 362.091023 103.037608 
L 363.546873 102.989273 
L 365.002723 102.379499 
L 367.914423 101.989095 
L 369.370273 100.9443 
L 370.826123 101.029817 
L 372.281973 101.234315 
L 373.737823 98.490333 
L 375.193673 100.044512 
L 376.649523 99.059207 
L 378.105373 97.869405 
L 379.561223 98.724576 
L 381.017073 97.319122 
L 382.472923 97.702089 
L 383.928773 96.638704 
L 385.384623 96.047521 
L 386.840473 95.98803 
L 388.296323 94.61604 
L 389.752173 94.352052 
L 391.208023 93.757151 
L 392.663873 92.26618 
L 394.119723 93.307257 
L 395.575573 91.466782 
L 397.031423 91.961294 
L 398.487273 89.990684 
L 398.487273 89.990684 
" clip-path="url(#pfc40b859ab)" style="fill: none; stroke: #1f77b4; stroke-width: 1.5; stroke-linecap: square"/>
   </g>
   <g id="line2d_19">
    <path d="M 73.832727 279.437939 
L 75.288577 253.738827 
L 76.744427 242.523319 
L 78.200277 236.618465 
L 79.656127 213.927487 
L 81.111977 194.356053 
L 82.567827 199.518158 
L 84.023677 177.384241 
L 85.479527 171.219425 
L 86.935377 173.447672 
L 88.391227 154.321888 
L 89.847077 152.316466 
L 91.302927 148.342759 
L 92.758777 147.45146 
L 94.214627 135.67889 
L 95.670477 132.225108 
L 97.126327 128.399951 
L 98.582177 127.211553 
L 101.493877 125.317543 
L 102.949727 162.789225 
L 104.405577 157.218608 
L 105.861427 156.958646 
L 107.317277 154.061926 
L 108.773127 145.037526 
L 110.228977 139.689734 
L 111.684827 134.973279 
L 113.140677 145.037526 
L 114.596527 140.655308 
L 116.052377 132.707895 
L 117.508227 128.697051 
L 118.964077 124.314832 
L 120.419927 121.603799 
L 121.875777 116.07032 
L 123.331627 116.850206 
L 124.787477 112.950774 
L 126.243327 116.107457 
L 127.699177 106.563134 
L 129.155026 107.565845 
L 130.610876 103.740688 
L 132.066726 103.889238 
L 133.522576 101.215342 
L 134.978426 99.655569 
L 136.434276 96.573161 
L 137.890126 95.533313 
L 139.345976 93.156516 
L 140.801826 86.9917 
L 142.257676 89.554184 
L 143.713526 84.726316 
L 145.169376 83.240818 
L 146.625226 82.906581 
L 148.081076 79.787036 
L 149.536926 78.004439 
L 150.992776 78.895737 
L 153.904476 75.256268 
L 155.360326 74.364969 
L 156.816176 73.733633 
L 158.272026 74.810618 
L 159.727876 73.733633 
L 161.183726 117.110168 
L 162.639576 117.258718 
L 164.095426 113.804935 
L 165.551276 118.038604 
L 167.007126 117.22158 
L 168.462976 111.539551 
L 169.918826 110.83394 
L 171.374676 119.338415 
L 172.830526 109.571267 
L 174.286376 107.454432 
L 175.742226 109.719816 
L 177.198076 105.931797 
L 178.653926 107.751532 
L 180.109776 102.478015 
L 181.565626 100.918242 
L 183.021476 103.777825 
L 184.477326 100.175493 
L 185.933176 101.623854 
L 187.389026 101.029654 
L 188.844876 96.164649 
L 190.300726 95.124801 
L 191.756576 95.310488 
L 193.212426 93.713578 
L 194.668276 96.573161 
L 196.124126 92.005255 
L 197.579976 96.833123 
L 199.035826 91.076819 
L 200.491675 88.328648 
L 201.947525 92.710867 
L 203.403375 93.750715 
L 204.859225 85.39479 
L 206.315075 88.774298 
L 207.770925 92.636592 
L 209.226775 85.023416 
L 210.682625 89.591321 
L 212.138475 85.877577 
L 213.594325 81.198259 
L 215.050175 80.45551 
L 217.961875 76.630353 
L 219.417725 79.898448 
L 220.873575 77.670202 
L 222.329425 79.675624 
L 223.785275 74.773481 
L 225.241125 75.144855 
L 226.696975 73.659358 
L 228.152825 75.070581 
L 229.608675 72.136722 
L 231.064525 72.768059 
L 232.520375 69.759926 
L 233.976225 70.539812 
L 235.432075 68.38584 
L 236.887925 65.563395 
L 238.343775 65.080608 
L 239.799625 67.680229 
L 241.255475 63.038048 
L 242.711325 63.669385 
L 244.167175 65.600532 
L 245.623025 62.2953 
L 247.078875 59.547129 
L 248.534725 60.995489 
L 249.990575 60.661252 
L 251.446425 59.881366 
L 252.902275 57.541707 
L 254.358125 57.764531 
L 255.813975 56.798958 
L 257.269825 57.356019 
L 258.725675 55.796247 
L 260.181525 56.279033 
L 261.637375 55.350597 
L 263.093225 55.796247 
L 264.549075 54.756398 
L 266.004925 53.568 
L 267.460775 55.387735 
L 268.916625 53.642275 
L 270.372475 53.642275 
L 271.828325 54.199337 
L 273.284174 53.902237 
L 274.740024 54.125062 
L 276.195874 53.642275 
L 277.651724 105.003361 
L 279.107574 111.948063 
L 280.563424 107.04592 
L 282.019274 104.29775 
L 283.475124 98.838545 
L 284.930974 95.793275 
L 286.386824 103.555001 
L 287.842674 99.878394 
L 289.298524 99.692706 
L 290.754374 101.958091 
L 292.210224 99.321332 
L 293.666074 98.689995 
L 295.121924 100.026943 
L 296.577774 93.230791 
L 298.033624 94.010677 
L 299.489474 90.965407 
L 300.945324 94.456327 
L 302.401174 100.175493 
L 303.857024 95.86755 
L 305.312874 90.77972 
L 306.768724 91.671018 
L 308.224574 94.827701 
L 309.680424 107.565845 
L 311.136274 90.371208 
L 312.592124 93.156516 
L 314.047974 90.891132 
L 315.503824 99.432744 
L 316.959674 95.236213 
L 319.871374 90.705445 
L 321.327224 90.48262 
L 322.783074 91.336781 
L 324.238924 97.501597 
L 325.694774 87.845862 
L 327.150624 91.448194 
L 328.606474 85.357653 
L 330.062324 86.768876 
L 331.518174 89.219947 
L 332.974024 87.771587 
L 334.429874 90.445483 
L 335.885724 90.48262 
L 337.341574 82.312382 
L 338.797424 84.949141 
L 340.253274 91.225369 
L 341.709124 88.402923 
L 343.164974 87.882999 
L 344.620823 88.254373 
L 346.076673 82.163832 
L 347.532523 83.426506 
L 348.988373 96.164649 
L 350.444223 83.240818 
L 351.900073 80.975434 
L 353.355923 84.466354 
L 354.811773 80.15841 
L 356.267623 81.829595 
L 357.723473 78.412951 
L 359.179323 81.718183 
L 360.635173 79.378524 
L 362.091023 76.81604 
L 363.546873 77.224552 
L 365.002723 81.90387 
L 366.458573 78.115851 
L 367.914423 81.421084 
L 369.370273 83.240818 
L 370.826123 78.301538 
L 372.281973 79.267112 
L 373.737823 75.181993 
L 375.193673 74.699206 
L 376.649523 77.558789 
L 378.105373 70.762637 
L 379.561223 74.327832 
L 381.017073 76.333254 
L 382.472923 75.887604 
L 383.928773 74.996306 
L 385.384623 77.11314 
L 386.840473 78.227263 
L 388.296323 74.327832 
L 389.752173 78.375813 
L 391.208023 68.868627 
L 392.663873 73.028021 
L 394.119723 71.393973 
L 395.575573 70.985462 
L 397.031423 71.468248 
L 398.487273 72.396685 
L 398.487273 72.396685 
" clip-path="url(#pfc40b859ab)" style="fill: none; stroke: #ff7f0e; stroke-width: 1.5; stroke-linecap: square"/>
   </g>
   <g id="line2d_20">
    <path d="M 73.832727 294.132855 
L 75.288577 282.812247 
L 76.744427 281.8645 
L 78.200277 275.87163 
L 79.656127 267.85477 
L 81.111977 261.298154 
L 82.567827 264.16665 
L 84.023677 246.161674 
L 85.479527 252.71829 
L 86.935377 247.519048 
L 88.391227 241.551432 
L 89.847077 240.654921 
L 91.302927 242.114807 
L 92.758777 239.015751 
L 94.214627 229.206344 
L 95.670477 229.897868 
L 97.126327 227.51595 
L 98.582177 226.64514 
L 100.038027 227.51595 
L 101.493877 226.158512 
L 102.949727 245.290699 
L 104.405577 241.884299 
L 105.861427 241.039102 
L 107.317277 235.148335 
L 108.773127 232.792028 
L 111.684827 231.895607 
L 113.140677 239.604828 
L 114.596527 229.001447 
L 116.052377 225.492599 
L 117.508227 227.669622 
L 118.964077 220.267745 
L 120.419927 219.83234 
L 121.875777 218.218782 
L 123.331627 217.860214 
L 124.787477 214.351366 
L 126.243327 215.631967 
L 127.699177 205.156647 
L 129.155026 209.664364 
L 130.610876 209.894872 
L 132.066726 213.198824 
L 134.978426 202.185651 
L 136.434276 202.416159 
L 137.890126 203.005236 
L 139.345976 207.692238 
L 140.801826 192.811648 
L 142.257676 198.113338 
L 143.713526 196.448556 
L 145.169376 193.836129 
L 146.625226 196.704676 
L 148.081076 191.32615 
L 149.536926 193.22144 
L 150.992776 190.199221 
L 152.448626 190.404117 
L 153.904476 191.992063 
L 155.360326 189.712592 
L 156.816176 191.351762 
L 158.272026 190.711461 
L 159.727876 189.891876 
L 161.183726 220.472641 
L 162.639576 222.752112 
L 164.095426 214.812382 
L 165.551276 218.398067 
L 167.007126 220.114073 
L 168.462976 211.662102 
L 169.918826 219.3201 
L 171.374676 219.524996 
L 172.830526 209.382632 
L 174.286376 214.223305 
L 175.742226 211.12425 
L 177.198076 207.615402 
L 178.653926 204.43951 
L 180.109776 210.176605 
L 181.565626 206.693368 
L 183.021476 209.382632 
L 184.477326 208.050806 
L 185.933176 196.986409 
L 187.389026 203.210132 
L 188.844876 194.502042 
L 190.300726 203.619925 
L 191.756576 190.378505 
L 193.212426 193.451948 
L 194.668276 202.057591 
L 196.124126 195.808255 
L 197.579976 196.064376 
L 199.035826 197.216917 
L 200.491675 196.49978 
L 201.947525 203.799209 
L 203.403375 200.290361 
L 204.859225 188.04781 
L 206.315075 192.7092 
L 207.770925 198.548743 
L 209.226775 190.788297 
L 210.682625 199.547612 
L 212.138475 195.98754 
L 213.594325 188.739335 
L 215.050175 190.224833 
L 216.506025 187.484345 
L 217.961875 183.821825 
L 219.417725 185.230487 
L 220.873575 184.257229 
L 222.329425 189.379636 
L 223.785275 181.644802 
L 225.241125 182.028983 
L 226.696975 183.335196 
L 228.152825 184.846306 
L 229.608675 178.801867 
L 231.064525 178.673807 
L 232.520375 178.187178 
L 233.976225 184.38529 
L 235.432075 184.077945 
L 236.887925 174.703942 
L 238.343775 180.159304 
L 239.799625 176.44556 
L 241.255475 169.863268 
L 242.711325 172.578143 
L 244.167175 178.161566 
L 245.623025 170.529181 
L 247.078875 170.657241 
L 248.534725 168.710727 
L 249.990575 175.369855 
L 251.446425 170.042552 
L 252.902275 169.299803 
L 254.358125 170.631629 
L 255.813975 168.300934 
L 257.269825 170.221836 
L 258.725675 170.708465 
L 260.181525 167.916754 
L 261.637375 165.944627 
L 263.093225 165.739731 
L 264.549075 164.792086 
L 266.004925 166.508092 
L 267.460775 166.712988 
L 268.916625 164.407905 
L 270.372475 164.766474 
L 271.828325 165.457999 
L 273.284174 164.868922 
L 274.740024 163.998113 
L 276.195874 164.023725 
L 277.651724 209.894872 
L 279.107574 213.736677 
L 280.563424 202.569831 
L 282.019274 208.767943 
L 283.475124 201.186782 
L 284.930974 202.288099 
L 286.386824 210.740069 
L 287.842674 196.192436 
L 289.298524 199.060983 
L 290.754374 209.818036 
L 292.210224 196.448556 
L 293.666074 197.729158 
L 295.121924 204.337062 
L 296.577774 198.984147 
L 298.033624 198.343846 
L 299.489474 190.045548 
L 300.945324 207.641014 
L 302.401174 205.515215 
L 303.857024 201.775858 
L 305.312874 195.219179 
L 306.768724 182.131431 
L 308.224574 193.580009 
L 309.680424 197.908442 
L 311.136274 194.041025 
L 312.592124 202.979624 
L 314.047974 192.350631 
L 315.503824 199.112207 
L 316.959674 196.909573 
L 318.415524 197.498649 
L 319.871374 192.632363 
L 321.327224 200.059852 
L 322.783074 196.346108 
L 324.238924 201.263618 
L 325.694774 192.606751 
L 327.150624 196.858349 
L 328.606474 192.939708 
L 330.062324 190.890745 
L 331.518174 199.752508 
L 332.974024 194.73255 
L 334.429874 194.47643 
L 335.885724 201.186782 
L 337.341574 182.976628 
L 338.797424 201.007498 
L 340.253274 198.471907 
L 341.709124 192.504303 
L 343.164974 190.404117 
L 344.620823 190.250445 
L 347.532523 189.763816 
L 348.988373 200.239137 
L 350.444223 192.427467 
L 351.900073 180.722769 
L 353.355923 189.302799 
L 354.811773 185.947623 
L 357.723473 185.742727 
L 359.179323 187.714854 
L 360.635173 181.721638 
L 362.091023 187.074553 
L 363.546873 185.896399 
L 365.002723 187.305061 
L 366.458573 183.898661 
L 367.914423 192.7092 
L 369.370273 187.279449 
L 370.826123 187.79169 
L 372.281973 183.770601 
L 373.737823 189.456472 
L 375.193673 182.87418 
L 376.649523 183.873049 
L 378.105373 178.007894 
L 379.561223 181.132562 
L 381.017073 180.236141 
L 382.472923 188.406378 
L 383.928773 184.206005 
L 385.384623 181.670414 
L 386.840473 184.026721 
L 388.296323 188.252706 
L 389.752173 189.55892 
L 391.208023 177.111473 
L 392.663873 184.231617 
L 394.119723 181.030113 
L 395.575573 182.003371 
L 398.487273 187.125777 
L 398.487273 187.125777 
" clip-path="url(#pfc40b859ab)" style="fill: none; stroke: #2ca02c; stroke-width: 1.5; stroke-linecap: square"/>
   </g>
   <g id="line2d_21">
    <path d="M 0 0 
" clip-path="url(#pfc40b859ab)" style="fill: none; stroke: #d62728; stroke-width: 1.5; stroke-linecap: square"/>
   </g>
   <g id="line2d_22">
    <path d="M 0 0 
" clip-path="url(#pfc40b859ab)" style="fill: none; stroke: #9467bd; stroke-width: 1.5; stroke-linecap: square"/>
   </g>
   <g id="patch_3">
    <path d="M 57.6 307.584 
L 57.6 41.472 
" style="fill: none; stroke: #000000; stroke-width: 0.8; stroke-linejoin: miter; stroke-linecap: square"/>
   </g>
   <g id="patch_4">
    <path d="M 414.72 307.584 
L 414.72 41.472 
" style="fill: none; stroke: #000000; stroke-width: 0.8; stroke-linejoin: miter; stroke-linecap: square"/>
   </g>
   <g id="patch_5">
    <path d="M 57.6 307.584 
L 414.72 307.584 
" style="fill: none; stroke: #000000; stroke-width: 0.8; stroke-linejoin: miter; stroke-linecap: square"/>
   </g>
   <g id="patch_6">
    <path d="M 57.6 41.472 
L 414.72 41.472 
" style="fill: none; stroke: #000000; stroke-width: 0.8; stroke-linejoin: miter; stroke-linecap: square"/>
   </g>
   <g id="text_20">
    <!-- Learning Curves -->
    <g transform="translate(187.37625 35.472) scale(0.12 -0.12)">
     <defs>
      <path id="DejaVuSans-4c" d="M 628 4666 
L 1259 4666 
L 1259 531 
L 3531 531 
L 3531 0 
L 628 0 
L 628 4666 
z
" transform="scale(0.015625)"/>
      <path id="DejaVuSans-65" d="M 3597 1894 
L 3597 1613 
L 953 1613 
Q 991 1019 1311 708 
Q 1631 397 2203 397 
Q 2534 397 2845 478 
Q 3156 559 3463 722 
L 3463 178 
Q 3153 47 2828 -22 
Q 2503 -91 2169 -91 
Q 1331 -91 842 396 
Q 353 884 353 1716 
Q 353 2575 817 3079 
Q 1281 3584 2069 3584 
Q 2775 3584 3186 3129 
Q 3597 2675 3597 1894 
z
M 3022 2063 
Q 3016 2534 2758 2815 
Q 2500 3097 2075 3097 
Q 1594 3097 1305 2825 
Q 1016 2553 972 2059 
L 3022 2063 
z
" transform="scale(0.015625)"/>
      <path id="DejaVuSans-6e" d="M 3513 2113 
L 3513 0 
L 2938 0 
L 2938 2094 
Q 2938 2591 2744 2837 
Q 2550 3084 2163 3084 
Q 1697 3084 1428 2787 
Q 1159 2491 1159 1978 
L 1159 0 
L 581 0 
L 581 3500 
L 1159 3500 
L 1159 2956 
Q 1366 3272 1645 3428 
Q 1925 3584 2291 3584 
Q 2894 3584 3203 3211 
Q 3513 2838 3513 2113 
z
" transform="scale(0.015625)"/>
      <path id="DejaVuSans-69" d="M 603 3500 
L 1178 3500 
L 1178 0 
L 603 0 
L 603 3500 
z
M 603 4863 
L 1178 4863 
L 1178 4134 
L 603 4134 
L 603 4863 
z
" transform="scale(0.015625)"/>
      <path id="DejaVuSans-67" d="M 2906 1791 
Q 2906 2416 2648 2759 
Q 2391 3103 1925 3103 
Q 1463 3103 1205 2759 
Q 947 2416 947 1791 
Q 947 1169 1205 825 
Q 1463 481 1925 481 
Q 2391 481 2648 825 
Q 2906 1169 2906 1791 
z
M 3481 434 
Q 3481 -459 3084 -895 
Q 2688 -1331 1869 -1331 
Q 1566 -1331 1297 -1286 
Q 1028 -1241 775 -1147 
L 775 -588 
Q 1028 -725 1275 -790 
Q 1522 -856 1778 -856 
Q 2344 -856 2625 -561 
Q 2906 -266 2906 331 
L 2906 616 
Q 2728 306 2450 153 
Q 2172 0 1784 0 
Q 1141 0 747 490 
Q 353 981 353 1791 
Q 353 2603 747 3093 
Q 1141 3584 1784 3584 
Q 2172 3584 2450 3431 
Q 2728 3278 2906 2969 
L 2906 3500 
L 3481 3500 
L 3481 434 
z
" transform="scale(0.015625)"/>
      <path id="DejaVuSans-20" transform="scale(0.015625)"/>
      <path id="DejaVuSans-43" d="M 4122 4306 
L 4122 3641 
Q 3803 3938 3442 4084 
Q 3081 4231 2675 4231 
Q 1875 4231 1450 3742 
Q 1025 3253 1025 2328 
Q 1025 1406 1450 917 
Q 1875 428 2675 428 
Q 3081 428 3442 575 
Q 3803 722 4122 1019 
L 4122 359 
Q 3791 134 3420 21 
Q 3050 -91 2638 -91 
Q 1578 -91 968 557 
Q 359 1206 359 2328 
Q 359 3453 968 4101 
Q 1578 4750 2638 4750 
Q 3056 4750 3426 4639 
Q 3797 4528 4122 4306 
z
" transform="scale(0.015625)"/>
      <path id="DejaVuSans-76" d="M 191 3500 
L 800 3500 
L 1894 563 
L 2988 3500 
L 3597 3500 
L 2284 0 
L 1503 0 
L 191 3500 
z
" transform="scale(0.015625)"/>
     </defs>
     <use xlink:href="#DejaVuSans-4c"/>
     <use xlink:href="#DejaVuSans-65" x="53.962891"/>
     <use xlink:href="#DejaVuSans-61" x="115.486328"/>
     <use xlink:href="#DejaVuSans-72" x="176.765625"/>
     <use xlink:href="#DejaVuSans-6e" x="216.128906"/>
     <use xlink:href="#DejaVuSans-69" x="279.507812"/>
     <use xlink:href="#DejaVuSans-6e" x="307.291016"/>
     <use xlink:href="#DejaVuSans-67" x="370.669922"/>
     <use xlink:href="#DejaVuSans-20" x="434.146484"/>
     <use xlink:href="#DejaVuSans-43" x="465.933594"/>
     <use xlink:href="#DejaVuSans-75" x="535.757812"/>
     <use xlink:href="#DejaVuSans-72" x="599.136719"/>
     <use xlink:href="#DejaVuSans-76" x="640.25"/>
     <use xlink:href="#DejaVuSans-65" x="699.429688"/>
     <use xlink:href="#DejaVuSans-73" x="760.953125"/>
    </g>
   </g>
   <g id="legend_1">
    <g id="patch_7">
     <path d="M 214.18875 302.584 
L 407.72 302.584 
Q 409.72 302.584 409.72 300.584 
L 409.72 228.193375 
Q 409.72 226.193375 407.72 226.193375 
L 214.18875 226.193375 
Q 212.18875 226.193375 212.18875 228.193375 
L 212.18875 300.584 
Q 212.18875 302.584 214.18875 302.584 
z
" style="fill: #ffffff; opacity: 0.8; stroke: #cccccc; stroke-linejoin: miter"/>
    </g>
    <g id="line2d_23">
     <path d="M 216.18875 234.291812 
L 226.18875 234.291812 
L 236.18875 234.291812 
" style="fill: none; stroke: #1f77b4; stroke-width: 1.5; stroke-linecap: square"/>
    </g>
    <g id="text_21">
     <!-- Train Accuracy -->
     <g transform="translate(244.18875 237.791812) scale(0.1 -0.1)">
      <defs>
       <path id="DejaVuSans-54" d="M -19 4666 
L 3928 4666 
L 3928 4134 
L 2272 4134 
L 2272 0 
L 1638 0 
L 1638 4134 
L -19 4134 
L -19 4666 
z
" transform="scale(0.015625)"/>
      </defs>
      <use xlink:href="#DejaVuSans-54"/>
      <use xlink:href="#DejaVuSans-72" x="46.333984"/>
      <use xlink:href="#DejaVuSans-61" x="87.447266"/>
      <use xlink:href="#DejaVuSans-69" x="148.726562"/>
      <use xlink:href="#DejaVuSans-6e" x="176.509766"/>
      <use xlink:href="#DejaVuSans-20" x="239.888672"/>
      <use xlink:href="#DejaVuSans-41" x="271.675781"/>
      <use xlink:href="#DejaVuSans-63" x="338.333984"/>
      <use xlink:href="#DejaVuSans-63" x="393.314453"/>
      <use xlink:href="#DejaVuSans-75" x="448.294922"/>
      <use xlink:href="#DejaVuSans-72" x="511.673828"/>
      <use xlink:href="#DejaVuSans-61" x="552.787109"/>
      <use xlink:href="#DejaVuSans-63" x="614.066406"/>
      <use xlink:href="#DejaVuSans-79" x="669.046875"/>
     </g>
    </g>
    <g id="line2d_24">
     <path d="M 216.18875 248.969937 
L 226.18875 248.969937 
L 236.18875 248.969937 
" style="fill: none; stroke: #ff7f0e; stroke-width: 1.5; stroke-linecap: square"/>
    </g>
    <g id="text_22">
     <!-- Validation Accuracy -->
     <g transform="translate(244.18875 252.469937) scale(0.1 -0.1)">
      <defs>
       <path id="DejaVuSans-56" d="M 1831 0 
L 50 4666 
L 709 4666 
L 2188 738 
L 3669 4666 
L 4325 4666 
L 2547 0 
L 1831 0 
z
" transform="scale(0.015625)"/>
       <path id="DejaVuSans-6c" d="M 603 4863 
L 1178 4863 
L 1178 0 
L 603 0 
L 603 4863 
z
" transform="scale(0.015625)"/>
       <path id="DejaVuSans-64" d="M 2906 2969 
L 2906 4863 
L 3481 4863 
L 3481 0 
L 2906 0 
L 2906 525 
Q 2725 213 2448 61 
Q 2172 -91 1784 -91 
Q 1150 -91 751 415 
Q 353 922 353 1747 
Q 353 2572 751 3078 
Q 1150 3584 1784 3584 
Q 2172 3584 2448 3432 
Q 2725 3281 2906 2969 
z
M 947 1747 
Q 947 1113 1208 752 
Q 1469 391 1925 391 
Q 2381 391 2643 752 
Q 2906 1113 2906 1747 
Q 2906 2381 2643 2742 
Q 2381 3103 1925 3103 
Q 1469 3103 1208 2742 
Q 947 2381 947 1747 
z
" transform="scale(0.015625)"/>
       <path id="DejaVuSans-74" d="M 1172 4494 
L 1172 3500 
L 2356 3500 
L 2356 3053 
L 1172 3053 
L 1172 1153 
Q 1172 725 1289 603 
Q 1406 481 1766 481 
L 2356 481 
L 2356 0 
L 1766 0 
Q 1100 0 847 248 
Q 594 497 594 1153 
L 594 3053 
L 172 3053 
L 172 3500 
L 594 3500 
L 594 4494 
L 1172 4494 
z
" transform="scale(0.015625)"/>
      </defs>
      <use xlink:href="#DejaVuSans-56"/>
      <use xlink:href="#DejaVuSans-61" x="60.658203"/>
      <use xlink:href="#DejaVuSans-6c" x="121.9375"/>
      <use xlink:href="#DejaVuSans-69" x="149.720703"/>
      <use xlink:href="#DejaVuSans-64" x="177.503906"/>
      <use xlink:href="#DejaVuSans-61" x="240.980469"/>
      <use xlink:href="#DejaVuSans-74" x="302.259766"/>
      <use xlink:href="#DejaVuSans-69" x="341.46875"/>
      <use xlink:href="#DejaVuSans-6f" x="369.251953"/>
      <use xlink:href="#DejaVuSans-6e" x="430.433594"/>
      <use xlink:href="#DejaVuSans-20" x="493.8125"/>
      <use xlink:href="#DejaVuSans-41" x="525.599609"/>
      <use xlink:href="#DejaVuSans-63" x="592.257812"/>
      <use xlink:href="#DejaVuSans-63" x="647.238281"/>
      <use xlink:href="#DejaVuSans-75" x="702.21875"/>
      <use xlink:href="#DejaVuSans-72" x="765.597656"/>
      <use xlink:href="#DejaVuSans-61" x="806.710938"/>
      <use xlink:href="#DejaVuSans-63" x="867.990234"/>
      <use xlink:href="#DejaVuSans-79" x="922.970703"/>
     </g>
    </g>
    <g id="line2d_25">
     <path d="M 216.18875 263.648062 
L 226.18875 263.648062 
L 236.18875 263.648062 
" style="fill: none; stroke: #2ca02c; stroke-width: 1.5; stroke-linecap: square"/>
    </g>
    <g id="text_23">
     <!-- Robust Validation Accuracy -->
     <g transform="translate(244.18875 267.148062) scale(0.1 -0.1)">
      <defs>
       <path id="DejaVuSans-52" d="M 2841 2188 
Q 3044 2119 3236 1894 
Q 3428 1669 3622 1275 
L 4263 0 
L 3584 0 
L 2988 1197 
Q 2756 1666 2539 1819 
Q 2322 1972 1947 1972 
L 1259 1972 
L 1259 0 
L 628 0 
L 628 4666 
L 2053 4666 
Q 2853 4666 3247 4331 
Q 3641 3997 3641 3322 
Q 3641 2881 3436 2590 
Q 3231 2300 2841 2188 
z
M 1259 4147 
L 1259 2491 
L 2053 2491 
Q 2509 2491 2742 2702 
Q 2975 2913 2975 3322 
Q 2975 3731 2742 3939 
Q 2509 4147 2053 4147 
L 1259 4147 
z
" transform="scale(0.015625)"/>
       <path id="DejaVuSans-62" d="M 3116 1747 
Q 3116 2381 2855 2742 
Q 2594 3103 2138 3103 
Q 1681 3103 1420 2742 
Q 1159 2381 1159 1747 
Q 1159 1113 1420 752 
Q 1681 391 2138 391 
Q 2594 391 2855 752 
Q 3116 1113 3116 1747 
z
M 1159 2969 
Q 1341 3281 1617 3432 
Q 1894 3584 2278 3584 
Q 2916 3584 3314 3078 
Q 3713 2572 3713 1747 
Q 3713 922 3314 415 
Q 2916 -91 2278 -91 
Q 1894 -91 1617 61 
Q 1341 213 1159 525 
L 1159 0 
L 581 0 
L 581 4863 
L 1159 4863 
L 1159 2969 
z
" transform="scale(0.015625)"/>
      </defs>
      <use xlink:href="#DejaVuSans-52"/>
      <use xlink:href="#DejaVuSans-6f" x="64.982422"/>
      <use xlink:href="#DejaVuSans-62" x="126.164062"/>
      <use xlink:href="#DejaVuSans-75" x="189.640625"/>
      <use xlink:href="#DejaVuSans-73" x="253.019531"/>
      <use xlink:href="#DejaVuSans-74" x="305.119141"/>
      <use xlink:href="#DejaVuSans-20" x="344.328125"/>
      <use xlink:href="#DejaVuSans-56" x="376.115234"/>
      <use xlink:href="#DejaVuSans-61" x="436.773438"/>
      <use xlink:href="#DejaVuSans-6c" x="498.052734"/>
      <use xlink:href="#DejaVuSans-69" x="525.835938"/>
      <use xlink:href="#DejaVuSans-64" x="553.619141"/>
      <use xlink:href="#DejaVuSans-61" x="617.095703"/>
      <use xlink:href="#DejaVuSans-74" x="678.375"/>
      <use xlink:href="#DejaVuSans-69" x="717.583984"/>
      <use xlink:href="#DejaVuSans-6f" x="745.367188"/>
      <use xlink:href="#DejaVuSans-6e" x="806.548828"/>
      <use xlink:href="#DejaVuSans-20" x="869.927734"/>
      <use xlink:href="#DejaVuSans-41" x="901.714844"/>
      <use xlink:href="#DejaVuSans-63" x="968.373047"/>
      <use xlink:href="#DejaVuSans-63" x="1023.353516"/>
      <use xlink:href="#DejaVuSans-75" x="1078.333984"/>
      <use xlink:href="#DejaVuSans-72" x="1141.712891"/>
      <use xlink:href="#DejaVuSans-61" x="1182.826172"/>
      <use xlink:href="#DejaVuSans-63" x="1244.105469"/>
      <use xlink:href="#DejaVuSans-79" x="1299.085938"/>
     </g>
    </g>
    <g id="line2d_26">
     <path d="M 216.18875 278.326188 
L 226.18875 278.326188 
L 236.18875 278.326188 
" style="fill: none; stroke: #d62728; stroke-width: 1.5; stroke-linecap: square"/>
    </g>
    <g id="text_24">
     <!-- SWA Validation Accuracy -->
     <g transform="translate(244.18875 281.826188) scale(0.1 -0.1)">
      <defs>
       <path id="DejaVuSans-53" d="M 3425 4513 
L 3425 3897 
Q 3066 4069 2747 4153 
Q 2428 4238 2131 4238 
Q 1616 4238 1336 4038 
Q 1056 3838 1056 3469 
Q 1056 3159 1242 3001 
Q 1428 2844 1947 2747 
L 2328 2669 
Q 3034 2534 3370 2195 
Q 3706 1856 3706 1288 
Q 3706 609 3251 259 
Q 2797 -91 1919 -91 
Q 1588 -91 1214 -16 
Q 841 59 441 206 
L 441 856 
Q 825 641 1194 531 
Q 1563 422 1919 422 
Q 2459 422 2753 634 
Q 3047 847 3047 1241 
Q 3047 1584 2836 1778 
Q 2625 1972 2144 2069 
L 1759 2144 
Q 1053 2284 737 2584 
Q 422 2884 422 3419 
Q 422 4038 858 4394 
Q 1294 4750 2059 4750 
Q 2388 4750 2728 4690 
Q 3069 4631 3425 4513 
z
" transform="scale(0.015625)"/>
       <path id="DejaVuSans-57" d="M 213 4666 
L 850 4666 
L 1831 722 
L 2809 4666 
L 3519 4666 
L 4500 722 
L 5478 4666 
L 6119 4666 
L 4947 0 
L 4153 0 
L 3169 4050 
L 2175 0 
L 1381 0 
L 213 4666 
z
" transform="scale(0.015625)"/>
      </defs>
      <use xlink:href="#DejaVuSans-53"/>
      <use xlink:href="#DejaVuSans-57" x="63.476562"/>
      <use xlink:href="#DejaVuSans-41" x="156.853516"/>
      <use xlink:href="#DejaVuSans-20" x="225.261719"/>
      <use xlink:href="#DejaVuSans-56" x="257.048828"/>
      <use xlink:href="#DejaVuSans-61" x="317.707031"/>
      <use xlink:href="#DejaVuSans-6c" x="378.986328"/>
      <use xlink:href="#DejaVuSans-69" x="406.769531"/>
      <use xlink:href="#DejaVuSans-64" x="434.552734"/>
      <use xlink:href="#DejaVuSans-61" x="498.029297"/>
      <use xlink:href="#DejaVuSans-74" x="559.308594"/>
      <use xlink:href="#DejaVuSans-69" x="598.517578"/>
      <use xlink:href="#DejaVuSans-6f" x="626.300781"/>
      <use xlink:href="#DejaVuSans-6e" x="687.482422"/>
      <use xlink:href="#DejaVuSans-20" x="750.861328"/>
      <use xlink:href="#DejaVuSans-41" x="782.648438"/>
      <use xlink:href="#DejaVuSans-63" x="849.306641"/>
      <use xlink:href="#DejaVuSans-63" x="904.287109"/>
      <use xlink:href="#DejaVuSans-75" x="959.267578"/>
      <use xlink:href="#DejaVuSans-72" x="1022.646484"/>
      <use xlink:href="#DejaVuSans-61" x="1063.759766"/>
      <use xlink:href="#DejaVuSans-63" x="1125.039062"/>
      <use xlink:href="#DejaVuSans-79" x="1180.019531"/>
     </g>
    </g>
    <g id="line2d_27">
     <path d="M 216.18875 293.004312 
L 226.18875 293.004312 
L 236.18875 293.004312 
" style="fill: none; stroke: #9467bd; stroke-width: 1.5; stroke-linecap: square"/>
    </g>
    <g id="text_25">
     <!-- SWA Robust Validation Accuracy -->
     <g transform="translate(244.18875 296.504312) scale(0.1 -0.1)">
      <use xlink:href="#DejaVuSans-53"/>
      <use xlink:href="#DejaVuSans-57" x="63.476562"/>
      <use xlink:href="#DejaVuSans-41" x="156.853516"/>
      <use xlink:href="#DejaVuSans-20" x="225.261719"/>
      <use xlink:href="#DejaVuSans-52" x="257.048828"/>
      <use xlink:href="#DejaVuSans-6f" x="322.03125"/>
      <use xlink:href="#DejaVuSans-62" x="383.212891"/>
      <use xlink:href="#DejaVuSans-75" x="446.689453"/>
      <use xlink:href="#DejaVuSans-73" x="510.068359"/>
      <use xlink:href="#DejaVuSans-74" x="562.167969"/>
      <use xlink:href="#DejaVuSans-20" x="601.376953"/>
      <use xlink:href="#DejaVuSans-56" x="633.164062"/>
      <use xlink:href="#DejaVuSans-61" x="693.822266"/>
      <use xlink:href="#DejaVuSans-6c" x="755.101562"/>
      <use xlink:href="#DejaVuSans-69" x="782.884766"/>
      <use xlink:href="#DejaVuSans-64" x="810.667969"/>
      <use xlink:href="#DejaVuSans-61" x="874.144531"/>
      <use xlink:href="#DejaVuSans-74" x="935.423828"/>
      <use xlink:href="#DejaVuSans-69" x="974.632812"/>
      <use xlink:href="#DejaVuSans-6f" x="1002.416016"/>
      <use xlink:href="#DejaVuSans-6e" x="1063.597656"/>
      <use xlink:href="#DejaVuSans-20" x="1126.976562"/>
      <use xlink:href="#DejaVuSans-41" x="1158.763672"/>
      <use xlink:href="#DejaVuSans-63" x="1225.421875"/>
      <use xlink:href="#DejaVuSans-63" x="1280.402344"/>
      <use xlink:href="#DejaVuSans-75" x="1335.382812"/>
      <use xlink:href="#DejaVuSans-72" x="1398.761719"/>
      <use xlink:href="#DejaVuSans-61" x="1439.875"/>
      <use xlink:href="#DejaVuSans-63" x="1501.154297"/>
      <use xlink:href="#DejaVuSans-79" x="1556.134766"/>
     </g>
    </g>
   </g>
  </g>
 </g>
 <defs>
  <clipPath id="pfc40b859ab">
   <rect x="57.6" y="41.472" width="357.12" height="266.112"/>
  </clipPath>
 </defs>
</svg>
