<?xml version="1.0" encoding="utf-8" standalone="no"?>
<!DOCTYPE svg PUBLIC "-//W3C//DTD SVG 1.1//EN"
  "http://www.w3.org/Graphics/SVG/1.1/DTD/svg11.dtd">
<svg xmlns:xlink="http://www.w3.org/1999/xlink" width="460.8pt" height="345.6pt" viewBox="0 0 460.8 345.6" xmlns="http://www.w3.org/2000/svg" version="1.1">
 <metadata>
  <rdf:RDF xmlns:dc="http://purl.org/dc/elements/1.1/" xmlns:cc="http://creativecommons.org/ns#" xmlns:rdf="http://www.w3.org/1999/02/22-rdf-syntax-ns#">
   <cc:Work>
    <dc:type rdf:resource="http://purl.org/dc/dcmitype/StillImage"/>
    <dc:date>2025-01-31T17:00:48.284569</dc:date>
    <dc:format>image/svg+xml</dc:format>
    <dc:creator>
     <cc:Agent>
      <dc:title>Matplotlib v3.9.1, https://matplotlib.org/</dc:title>
     </cc:Agent>
    </dc:creator>
   </cc:Work>
  </rdf:RDF>
 </metadata>
 <defs>
  <style type="text/css">*{stroke-linejoin: round; stroke-linecap: butt}</style>
 </defs>
 <g id="figure_1">
  <g id="patch_1">
   <path d="M 0 345.6 
L 460.8 345.6 
L 460.8 0 
L 0 0 
z
" style="fill: #ffffff"/>
  </g>
  <g id="axes_1">
   <g id="patch_2">
    <path d="M 57.6 307.584 
L 414.72 307.584 
L 414.72 41.472 
L 57.6 41.472 
z
" style="fill: #ffffff"/>
   </g>
   <g id="matplotlib.axis_1">
    <g id="xtick_1">
     <g id="line2d_1">
      <defs>
       <path id="m994310d4fa" d="M 0 0 
L 0 3.5 
" style="stroke: #000000; stroke-width: 0.8"/>
      </defs>
      <g>
       <use xlink:href="#m994310d4fa" x="73.832727" y="307.584" style="stroke: #000000; stroke-width: 0.8"/>
      </g>
     </g>
     <g id="text_1">
      <!-- 1 -->
      <g transform="translate(70.651477 322.182437) scale(0.1 -0.1)">
       <defs>
        <path id="DejaVuSans-31" d="M 794 531 
L 1825 531 
L 1825 4091 
L 703 3866 
L 703 4441 
L 1819 4666 
L 2450 4666 
L 2450 531 
L 3481 531 
L 3481 0 
L 794 0 
L 794 531 
z
" transform="scale(0.015625)"/>
       </defs>
       <use xlink:href="#DejaVuSans-31"/>
      </g>
     </g>
    </g>
    <g id="xtick_2">
     <g id="line2d_2">
      <g>
       <use xlink:href="#m994310d4fa" x="108.755726" y="307.584" style="stroke: #000000; stroke-width: 0.8"/>
      </g>
     </g>
     <g id="text_2">
      <!-- 28 -->
      <g transform="translate(102.393226 322.182437) scale(0.1 -0.1)">
       <defs>
        <path id="DejaVuSans-32" d="M 1228 531 
L 3431 531 
L 3431 0 
L 469 0 
L 469 531 
Q 828 903 1448 1529 
Q 2069 2156 2228 2338 
Q 2531 2678 2651 2914 
Q 2772 3150 2772 3378 
Q 2772 3750 2511 3984 
Q 2250 4219 1831 4219 
Q 1534 4219 1204 4116 
Q 875 4013 500 3803 
L 500 4441 
Q 881 4594 1212 4672 
Q 1544 4750 1819 4750 
Q 2544 4750 2975 4387 
Q 3406 4025 3406 3419 
Q 3406 3131 3298 2873 
Q 3191 2616 2906 2266 
Q 2828 2175 2409 1742 
Q 1991 1309 1228 531 
z
" transform="scale(0.015625)"/>
        <path id="DejaVuSans-38" d="M 2034 2216 
Q 1584 2216 1326 1975 
Q 1069 1734 1069 1313 
Q 1069 891 1326 650 
Q 1584 409 2034 409 
Q 2484 409 2743 651 
Q 3003 894 3003 1313 
Q 3003 1734 2745 1975 
Q 2488 2216 2034 2216 
z
M 1403 2484 
Q 997 2584 770 2862 
Q 544 3141 544 3541 
Q 544 4100 942 4425 
Q 1341 4750 2034 4750 
Q 2731 4750 3128 4425 
Q 3525 4100 3525 3541 
Q 3525 3141 3298 2862 
Q 3072 2584 2669 2484 
Q 3125 2378 3379 2068 
Q 3634 1759 3634 1313 
Q 3634 634 3220 271 
Q 2806 -91 2034 -91 
Q 1263 -91 848 271 
Q 434 634 434 1313 
Q 434 1759 690 2068 
Q 947 2378 1403 2484 
z
M 1172 3481 
Q 1172 3119 1398 2916 
Q 1625 2713 2034 2713 
Q 2441 2713 2670 2916 
Q 2900 3119 2900 3481 
Q 2900 3844 2670 4047 
Q 2441 4250 2034 4250 
Q 1625 4250 1398 4047 
Q 1172 3844 1172 3481 
z
" transform="scale(0.015625)"/>
       </defs>
       <use xlink:href="#DejaVuSans-32"/>
       <use xlink:href="#DejaVuSans-38" x="63.623047"/>
      </g>
     </g>
    </g>
    <g id="xtick_3">
     <g id="line2d_3">
      <g>
       <use xlink:href="#m994310d4fa" x="144.97217" y="307.584" style="stroke: #000000; stroke-width: 0.8"/>
      </g>
     </g>
     <g id="text_3">
      <!-- 56 -->
      <g transform="translate(138.60967 322.182437) scale(0.1 -0.1)">
       <defs>
        <path id="DejaVuSans-35" d="M 691 4666 
L 3169 4666 
L 3169 4134 
L 1269 4134 
L 1269 2991 
Q 1406 3038 1543 3061 
Q 1681 3084 1819 3084 
Q 2600 3084 3056 2656 
Q 3513 2228 3513 1497 
Q 3513 744 3044 326 
Q 2575 -91 1722 -91 
Q 1428 -91 1123 -41 
Q 819 9 494 109 
L 494 744 
Q 775 591 1075 516 
Q 1375 441 1709 441 
Q 2250 441 2565 725 
Q 2881 1009 2881 1497 
Q 2881 1984 2565 2268 
Q 2250 2553 1709 2553 
Q 1456 2553 1204 2497 
Q 953 2441 691 2322 
L 691 4666 
z
" transform="scale(0.015625)"/>
        <path id="DejaVuSans-36" d="M 2113 2584 
Q 1688 2584 1439 2293 
Q 1191 2003 1191 1497 
Q 1191 994 1439 701 
Q 1688 409 2113 409 
Q 2538 409 2786 701 
Q 3034 994 3034 1497 
Q 3034 2003 2786 2293 
Q 2538 2584 2113 2584 
z
M 3366 4563 
L 3366 3988 
Q 3128 4100 2886 4159 
Q 2644 4219 2406 4219 
Q 1781 4219 1451 3797 
Q 1122 3375 1075 2522 
Q 1259 2794 1537 2939 
Q 1816 3084 2150 3084 
Q 2853 3084 3261 2657 
Q 3669 2231 3669 1497 
Q 3669 778 3244 343 
Q 2819 -91 2113 -91 
Q 1303 -91 875 529 
Q 447 1150 447 2328 
Q 447 3434 972 4092 
Q 1497 4750 2381 4750 
Q 2619 4750 2861 4703 
Q 3103 4656 3366 4563 
z
" transform="scale(0.015625)"/>
       </defs>
       <use xlink:href="#DejaVuSans-35"/>
       <use xlink:href="#DejaVuSans-36" x="63.623047"/>
      </g>
     </g>
    </g>
    <g id="xtick_4">
     <g id="line2d_4">
      <g>
       <use xlink:href="#m994310d4fa" x="181.188613" y="307.584" style="stroke: #000000; stroke-width: 0.8"/>
      </g>
     </g>
     <g id="text_4">
      <!-- 84 -->
      <g transform="translate(174.826113 322.182437) scale(0.1 -0.1)">
       <defs>
        <path id="DejaVuSans-34" d="M 2419 4116 
L 825 1625 
L 2419 1625 
L 2419 4116 
z
M 2253 4666 
L 3047 4666 
L 3047 1625 
L 3713 1625 
L 3713 1100 
L 3047 1100 
L 3047 0 
L 2419 0 
L 2419 1100 
L 313 1100 
L 313 1709 
L 2253 4666 
z
" transform="scale(0.015625)"/>
       </defs>
       <use xlink:href="#DejaVuSans-38"/>
       <use xlink:href="#DejaVuSans-34" x="63.623047"/>
      </g>
     </g>
    </g>
    <g id="xtick_5">
     <g id="line2d_5">
      <g>
       <use xlink:href="#m994310d4fa" x="217.405056" y="307.584" style="stroke: #000000; stroke-width: 0.8"/>
      </g>
     </g>
     <g id="text_5">
      <!-- 112 -->
      <g transform="translate(207.861306 322.182437) scale(0.1 -0.1)">
       <use xlink:href="#DejaVuSans-31"/>
       <use xlink:href="#DejaVuSans-31" x="63.623047"/>
       <use xlink:href="#DejaVuSans-32" x="127.246094"/>
      </g>
     </g>
    </g>
    <g id="xtick_6">
     <g id="line2d_6">
      <g>
       <use xlink:href="#m994310d4fa" x="253.621499" y="307.584" style="stroke: #000000; stroke-width: 0.8"/>
      </g>
     </g>
     <g id="text_6">
      <!-- 140 -->
      <g transform="translate(244.077749 322.182437) scale(0.1 -0.1)">
       <defs>
        <path id="DejaVuSans-30" d="M 2034 4250 
Q 1547 4250 1301 3770 
Q 1056 3291 1056 2328 
Q 1056 1369 1301 889 
Q 1547 409 2034 409 
Q 2525 409 2770 889 
Q 3016 1369 3016 2328 
Q 3016 3291 2770 3770 
Q 2525 4250 2034 4250 
z
M 2034 4750 
Q 2819 4750 3233 4129 
Q 3647 3509 3647 2328 
Q 3647 1150 3233 529 
Q 2819 -91 2034 -91 
Q 1250 -91 836 529 
Q 422 1150 422 2328 
Q 422 3509 836 4129 
Q 1250 4750 2034 4750 
z
" transform="scale(0.015625)"/>
       </defs>
       <use xlink:href="#DejaVuSans-31"/>
       <use xlink:href="#DejaVuSans-34" x="63.623047"/>
       <use xlink:href="#DejaVuSans-30" x="127.246094"/>
      </g>
     </g>
    </g>
    <g id="xtick_7">
     <g id="line2d_7">
      <g>
       <use xlink:href="#m994310d4fa" x="289.837943" y="307.584" style="stroke: #000000; stroke-width: 0.8"/>
      </g>
     </g>
     <g id="text_7">
      <!-- 168 -->
      <g transform="translate(280.294193 322.182437) scale(0.1 -0.1)">
       <use xlink:href="#DejaVuSans-31"/>
       <use xlink:href="#DejaVuSans-36" x="63.623047"/>
       <use xlink:href="#DejaVuSans-38" x="127.246094"/>
      </g>
     </g>
    </g>
    <g id="xtick_8">
     <g id="line2d_8">
      <g>
       <use xlink:href="#m994310d4fa" x="326.054386" y="307.584" style="stroke: #000000; stroke-width: 0.8"/>
      </g>
     </g>
     <g id="text_8">
      <!-- 196 -->
      <g transform="translate(316.510636 322.182437) scale(0.1 -0.1)">
       <defs>
        <path id="DejaVuSans-39" d="M 703 97 
L 703 672 
Q 941 559 1184 500 
Q 1428 441 1663 441 
Q 2288 441 2617 861 
Q 2947 1281 2994 2138 
Q 2813 1869 2534 1725 
Q 2256 1581 1919 1581 
Q 1219 1581 811 2004 
Q 403 2428 403 3163 
Q 403 3881 828 4315 
Q 1253 4750 1959 4750 
Q 2769 4750 3195 4129 
Q 3622 3509 3622 2328 
Q 3622 1225 3098 567 
Q 2575 -91 1691 -91 
Q 1453 -91 1209 -44 
Q 966 3 703 97 
z
M 1959 2075 
Q 2384 2075 2632 2365 
Q 2881 2656 2881 3163 
Q 2881 3666 2632 3958 
Q 2384 4250 1959 4250 
Q 1534 4250 1286 3958 
Q 1038 3666 1038 3163 
Q 1038 2656 1286 2365 
Q 1534 2075 1959 2075 
z
" transform="scale(0.015625)"/>
       </defs>
       <use xlink:href="#DejaVuSans-31"/>
       <use xlink:href="#DejaVuSans-39" x="63.623047"/>
       <use xlink:href="#DejaVuSans-36" x="127.246094"/>
      </g>
     </g>
    </g>
    <g id="xtick_9">
     <g id="line2d_9">
      <g>
       <use xlink:href="#m994310d4fa" x="362.270829" y="307.584" style="stroke: #000000; stroke-width: 0.8"/>
      </g>
     </g>
     <g id="text_9">
      <!-- 224 -->
      <g transform="translate(352.727079 322.182437) scale(0.1 -0.1)">
       <use xlink:href="#DejaVuSans-32"/>
       <use xlink:href="#DejaVuSans-32" x="63.623047"/>
       <use xlink:href="#DejaVuSans-34" x="127.246094"/>
      </g>
     </g>
    </g>
    <g id="xtick_10">
     <g id="line2d_10">
      <g>
       <use xlink:href="#m994310d4fa" x="398.487273" y="307.584" style="stroke: #000000; stroke-width: 0.8"/>
      </g>
     </g>
     <g id="text_10">
      <!-- 252 -->
      <g transform="translate(388.943523 322.182437) scale(0.1 -0.1)">
       <use xlink:href="#DejaVuSans-32"/>
       <use xlink:href="#DejaVuSans-35" x="63.623047"/>
       <use xlink:href="#DejaVuSans-32" x="127.246094"/>
      </g>
     </g>
    </g>
    <g id="text_11">
     <!-- Epochs -->
     <g transform="translate(218.244375 335.860562) scale(0.1 -0.1)">
      <defs>
       <path id="DejaVuSans-45" d="M 628 4666 
L 3578 4666 
L 3578 4134 
L 1259 4134 
L 1259 2753 
L 3481 2753 
L 3481 2222 
L 1259 2222 
L 1259 531 
L 3634 531 
L 3634 0 
L 628 0 
L 628 4666 
z
" transform="scale(0.015625)"/>
       <path id="DejaVuSans-70" d="M 1159 525 
L 1159 -1331 
L 581 -1331 
L 581 3500 
L 1159 3500 
L 1159 2969 
Q 1341 3281 1617 3432 
Q 1894 3584 2278 3584 
Q 2916 3584 3314 3078 
Q 3713 2572 3713 1747 
Q 3713 922 3314 415 
Q 2916 -91 2278 -91 
Q 1894 -91 1617 61 
Q 1341 213 1159 525 
z
M 3116 1747 
Q 3116 2381 2855 2742 
Q 2594 3103 2138 3103 
Q 1681 3103 1420 2742 
Q 1159 2381 1159 1747 
Q 1159 1113 1420 752 
Q 1681 391 2138 391 
Q 2594 391 2855 752 
Q 3116 1113 3116 1747 
z
" transform="scale(0.015625)"/>
       <path id="DejaVuSans-6f" d="M 1959 3097 
Q 1497 3097 1228 2736 
Q 959 2375 959 1747 
Q 959 1119 1226 758 
Q 1494 397 1959 397 
Q 2419 397 2687 759 
Q 2956 1122 2956 1747 
Q 2956 2369 2687 2733 
Q 2419 3097 1959 3097 
z
M 1959 3584 
Q 2709 3584 3137 3096 
Q 3566 2609 3566 1747 
Q 3566 888 3137 398 
Q 2709 -91 1959 -91 
Q 1206 -91 779 398 
Q 353 888 353 1747 
Q 353 2609 779 3096 
Q 1206 3584 1959 3584 
z
" transform="scale(0.015625)"/>
       <path id="DejaVuSans-63" d="M 3122 3366 
L 3122 2828 
Q 2878 2963 2633 3030 
Q 2388 3097 2138 3097 
Q 1578 3097 1268 2742 
Q 959 2388 959 1747 
Q 959 1106 1268 751 
Q 1578 397 2138 397 
Q 2388 397 2633 464 
Q 2878 531 3122 666 
L 3122 134 
Q 2881 22 2623 -34 
Q 2366 -91 2075 -91 
Q 1284 -91 818 406 
Q 353 903 353 1747 
Q 353 2603 823 3093 
Q 1294 3584 2113 3584 
Q 2378 3584 2631 3529 
Q 2884 3475 3122 3366 
z
" transform="scale(0.015625)"/>
       <path id="DejaVuSans-68" d="M 3513 2113 
L 3513 0 
L 2938 0 
L 2938 2094 
Q 2938 2591 2744 2837 
Q 2550 3084 2163 3084 
Q 1697 3084 1428 2787 
Q 1159 2491 1159 1978 
L 1159 0 
L 581 0 
L 581 4863 
L 1159 4863 
L 1159 2956 
Q 1366 3272 1645 3428 
Q 1925 3584 2291 3584 
Q 2894 3584 3203 3211 
Q 3513 2838 3513 2113 
z
" transform="scale(0.015625)"/>
       <path id="DejaVuSans-73" d="M 2834 3397 
L 2834 2853 
Q 2591 2978 2328 3040 
Q 2066 3103 1784 3103 
Q 1356 3103 1142 2972 
Q 928 2841 928 2578 
Q 928 2378 1081 2264 
Q 1234 2150 1697 2047 
L 1894 2003 
Q 2506 1872 2764 1633 
Q 3022 1394 3022 966 
Q 3022 478 2636 193 
Q 2250 -91 1575 -91 
Q 1294 -91 989 -36 
Q 684 19 347 128 
L 347 722 
Q 666 556 975 473 
Q 1284 391 1588 391 
Q 1994 391 2212 530 
Q 2431 669 2431 922 
Q 2431 1156 2273 1281 
Q 2116 1406 1581 1522 
L 1381 1569 
Q 847 1681 609 1914 
Q 372 2147 372 2553 
Q 372 3047 722 3315 
Q 1072 3584 1716 3584 
Q 2034 3584 2315 3537 
Q 2597 3491 2834 3397 
z
" transform="scale(0.015625)"/>
      </defs>
      <use xlink:href="#DejaVuSans-45"/>
      <use xlink:href="#DejaVuSans-70" x="63.183594"/>
      <use xlink:href="#DejaVuSans-6f" x="126.660156"/>
      <use xlink:href="#DejaVuSans-63" x="187.841797"/>
      <use xlink:href="#DejaVuSans-68" x="242.822266"/>
      <use xlink:href="#DejaVuSans-73" x="306.201172"/>
     </g>
    </g>
   </g>
   <g id="matplotlib.axis_2">
    <g id="ytick_1">
     <g id="line2d_11">
      <defs>
       <path id="ma9e97aaff9" d="M 0 0 
L -3.5 0 
" style="stroke: #000000; stroke-width: 0.8"/>
      </defs>
      <g>
       <use xlink:href="#ma9e97aaff9" x="57.6" y="278.175751" style="stroke: #000000; stroke-width: 0.8"/>
      </g>
     </g>
     <g id="text_12">
      <!-- 10 -->
      <g transform="translate(37.875 281.97497) scale(0.1 -0.1)">
       <use xlink:href="#DejaVuSans-31"/>
       <use xlink:href="#DejaVuSans-30" x="63.623047"/>
      </g>
     </g>
    </g>
    <g id="ytick_2">
     <g id="line2d_12">
      <g>
       <use xlink:href="#ma9e97aaff9" x="57.6" y="241.28938" style="stroke: #000000; stroke-width: 0.8"/>
      </g>
     </g>
     <g id="text_13">
      <!-- 20 -->
      <g transform="translate(37.875 245.088599) scale(0.1 -0.1)">
       <use xlink:href="#DejaVuSans-32"/>
       <use xlink:href="#DejaVuSans-30" x="63.623047"/>
      </g>
     </g>
    </g>
    <g id="ytick_3">
     <g id="line2d_13">
      <g>
       <use xlink:href="#ma9e97aaff9" x="57.6" y="204.403009" style="stroke: #000000; stroke-width: 0.8"/>
      </g>
     </g>
     <g id="text_14">
      <!-- 30 -->
      <g transform="translate(37.875 208.202228) scale(0.1 -0.1)">
       <defs>
        <path id="DejaVuSans-33" d="M 2597 2516 
Q 3050 2419 3304 2112 
Q 3559 1806 3559 1356 
Q 3559 666 3084 287 
Q 2609 -91 1734 -91 
Q 1441 -91 1130 -33 
Q 819 25 488 141 
L 488 750 
Q 750 597 1062 519 
Q 1375 441 1716 441 
Q 2309 441 2620 675 
Q 2931 909 2931 1356 
Q 2931 1769 2642 2001 
Q 2353 2234 1838 2234 
L 1294 2234 
L 1294 2753 
L 1863 2753 
Q 2328 2753 2575 2939 
Q 2822 3125 2822 3475 
Q 2822 3834 2567 4026 
Q 2313 4219 1838 4219 
Q 1578 4219 1281 4162 
Q 984 4106 628 3988 
L 628 4550 
Q 988 4650 1302 4700 
Q 1616 4750 1894 4750 
Q 2613 4750 3031 4423 
Q 3450 4097 3450 3541 
Q 3450 3153 3228 2886 
Q 3006 2619 2597 2516 
z
" transform="scale(0.015625)"/>
       </defs>
       <use xlink:href="#DejaVuSans-33"/>
       <use xlink:href="#DejaVuSans-30" x="63.623047"/>
      </g>
     </g>
    </g>
    <g id="ytick_4">
     <g id="line2d_14">
      <g>
       <use xlink:href="#ma9e97aaff9" x="57.6" y="167.516639" style="stroke: #000000; stroke-width: 0.8"/>
      </g>
     </g>
     <g id="text_15">
      <!-- 40 -->
      <g transform="translate(37.875 171.315857) scale(0.1 -0.1)">
       <use xlink:href="#DejaVuSans-34"/>
       <use xlink:href="#DejaVuSans-30" x="63.623047"/>
      </g>
     </g>
    </g>
    <g id="ytick_5">
     <g id="line2d_15">
      <g>
       <use xlink:href="#ma9e97aaff9" x="57.6" y="130.630268" style="stroke: #000000; stroke-width: 0.8"/>
      </g>
     </g>
     <g id="text_16">
      <!-- 50 -->
      <g transform="translate(37.875 134.429487) scale(0.1 -0.1)">
       <use xlink:href="#DejaVuSans-35"/>
       <use xlink:href="#DejaVuSans-30" x="63.623047"/>
      </g>
     </g>
    </g>
    <g id="ytick_6">
     <g id="line2d_16">
      <g>
       <use xlink:href="#ma9e97aaff9" x="57.6" y="93.743897" style="stroke: #000000; stroke-width: 0.8"/>
      </g>
     </g>
     <g id="text_17">
      <!-- 60 -->
      <g transform="translate(37.875 97.543116) scale(0.1 -0.1)">
       <use xlink:href="#DejaVuSans-36"/>
       <use xlink:href="#DejaVuSans-30" x="63.623047"/>
      </g>
     </g>
    </g>
    <g id="ytick_7">
     <g id="line2d_17">
      <g>
       <use xlink:href="#ma9e97aaff9" x="57.6" y="56.857527" style="stroke: #000000; stroke-width: 0.8"/>
      </g>
     </g>
     <g id="text_18">
      <!-- 70 -->
      <g transform="translate(37.875 60.656745) scale(0.1 -0.1)">
       <defs>
        <path id="DejaVuSans-37" d="M 525 4666 
L 3525 4666 
L 3525 4397 
L 1831 0 
L 1172 0 
L 2766 4134 
L 525 4134 
L 525 4666 
z
" transform="scale(0.015625)"/>
       </defs>
       <use xlink:href="#DejaVuSans-37"/>
       <use xlink:href="#DejaVuSans-30" x="63.623047"/>
      </g>
     </g>
    </g>
    <g id="text_19">
     <!-- Accuracy -->
     <g transform="translate(31.795312 197.356125) rotate(-90) scale(0.1 -0.1)">
      <defs>
       <path id="DejaVuSans-41" d="M 2188 4044 
L 1331 1722 
L 3047 1722 
L 2188 4044 
z
M 1831 4666 
L 2547 4666 
L 4325 0 
L 3669 0 
L 3244 1197 
L 1141 1197 
L 716 0 
L 50 0 
L 1831 4666 
z
" transform="scale(0.015625)"/>
       <path id="DejaVuSans-75" d="M 544 1381 
L 544 3500 
L 1119 3500 
L 1119 1403 
Q 1119 906 1312 657 
Q 1506 409 1894 409 
Q 2359 409 2629 706 
Q 2900 1003 2900 1516 
L 2900 3500 
L 3475 3500 
L 3475 0 
L 2900 0 
L 2900 538 
Q 2691 219 2414 64 
Q 2138 -91 1772 -91 
Q 1169 -91 856 284 
Q 544 659 544 1381 
z
M 1991 3584 
L 1991 3584 
z
" transform="scale(0.015625)"/>
       <path id="DejaVuSans-72" d="M 2631 2963 
Q 2534 3019 2420 3045 
Q 2306 3072 2169 3072 
Q 1681 3072 1420 2755 
Q 1159 2438 1159 1844 
L 1159 0 
L 581 0 
L 581 3500 
L 1159 3500 
L 1159 2956 
Q 1341 3275 1631 3429 
Q 1922 3584 2338 3584 
Q 2397 3584 2469 3576 
Q 2541 3569 2628 3553 
L 2631 2963 
z
" transform="scale(0.015625)"/>
       <path id="DejaVuSans-61" d="M 2194 1759 
Q 1497 1759 1228 1600 
Q 959 1441 959 1056 
Q 959 750 1161 570 
Q 1363 391 1709 391 
Q 2188 391 2477 730 
Q 2766 1069 2766 1631 
L 2766 1759 
L 2194 1759 
z
M 3341 1997 
L 3341 0 
L 2766 0 
L 2766 531 
Q 2569 213 2275 61 
Q 1981 -91 1556 -91 
Q 1019 -91 701 211 
Q 384 513 384 1019 
Q 384 1609 779 1909 
Q 1175 2209 1959 2209 
L 2766 2209 
L 2766 2266 
Q 2766 2663 2505 2880 
Q 2244 3097 1772 3097 
Q 1472 3097 1187 3025 
Q 903 2953 641 2809 
L 641 3341 
Q 956 3463 1253 3523 
Q 1550 3584 1831 3584 
Q 2591 3584 2966 3190 
Q 3341 2797 3341 1997 
z
" transform="scale(0.015625)"/>
       <path id="DejaVuSans-79" d="M 2059 -325 
Q 1816 -950 1584 -1140 
Q 1353 -1331 966 -1331 
L 506 -1331 
L 506 -850 
L 844 -850 
Q 1081 -850 1212 -737 
Q 1344 -625 1503 -206 
L 1606 56 
L 191 3500 
L 800 3500 
L 1894 763 
L 2988 3500 
L 3597 3500 
L 2059 -325 
z
" transform="scale(0.015625)"/>
      </defs>
      <use xlink:href="#DejaVuSans-41"/>
      <use xlink:href="#DejaVuSans-63" x="66.658203"/>
      <use xlink:href="#DejaVuSans-63" x="121.638672"/>
      <use xlink:href="#DejaVuSans-75" x="176.619141"/>
      <use xlink:href="#DejaVuSans-72" x="239.998047"/>
      <use xlink:href="#DejaVuSans-61" x="281.111328"/>
      <use xlink:href="#DejaVuSans-63" x="342.390625"/>
      <use xlink:href="#DejaVuSans-79" x="397.371094"/>
     </g>
    </g>
   </g>
   <g id="line2d_18">
    <path d="M 73.832727 295.488 
L 75.126172 264.669806 
L 76.419616 241.535781 
L 77.71306 223.042799 
L 79.006505 209.732721 
L 80.299949 198.307537 
L 81.593394 188.774992 
L 82.886838 180.120712 
L 84.180283 172.495192 
L 85.473727 167.109413 
L 86.767171 159.203926 
L 89.35406 147.959485 
L 91.940949 138.696211 
L 93.234393 135.088355 
L 94.527838 131.100569 
L 95.821282 129.171412 
L 97.114727 127.806247 
L 98.408171 126.138983 
L 99.701615 160.963406 
L 100.99506 159.259256 
L 103.581949 153.02841 
L 104.875393 149.302518 
L 106.168837 146.233203 
L 107.462282 142.167587 
L 108.755726 140.625737 
L 110.049171 137.135917 
L 111.342615 135.612141 
L 113.929504 129.805858 
L 115.222948 126.869334 
L 117.809837 123.246723 
L 119.103281 119.192542 
L 120.396726 117.694587 
L 121.69017 115.868711 
L 124.277059 111.198159 
L 125.570503 109.08457 
L 126.863948 107.538662 
L 128.157392 105.129613 
L 129.450837 101.938573 
L 130.744281 100.48525 
L 132.037725 97.781111 
L 133.33117 96.420003 
L 134.624614 93.402329 
L 135.918059 92.177702 
L 137.211503 89.359214 
L 138.504947 87.673138 
L 139.798392 86.798931 
L 141.091836 84.434146 
L 143.678725 82.600894 
L 144.97217 80.874243 
L 146.265614 81.383274 
L 147.559058 80.416852 
L 148.852503 80.88162 
L 150.145947 79.494692 
L 151.439392 119.76797 
L 152.732836 123.316807 
L 154.02628 121.807786 
L 155.319725 121.154897 
L 157.906614 119.376974 
L 159.200058 118.3069 
L 161.786947 115.326113 
L 163.080391 115.746986 
L 164.373836 113.787951 
L 165.66728 113.275231 
L 166.960724 111.906377 
L 168.254169 111.0875 
L 169.547613 109.106702 
L 170.841058 109.929268 
L 172.134502 107.509153 
L 173.427946 107.605058 
L 174.721391 105.712787 
L 176.014835 105.576307 
L 177.30828 103.668913 
L 178.601724 104.115238 
L 179.895168 102.669292 
L 181.188613 102.178704 
L 182.482057 101.071744 
L 183.775502 99.478252 
L 185.068946 99.526205 
L 186.36239 97.928656 
L 187.655835 97.246258 
L 188.949279 95.925726 
L 190.242724 94.818766 
L 191.536168 94.711796 
L 192.829612 94.02202 
L 196.709946 90.569087 
L 198.00339 89.617419 
L 199.296834 89.200603 
L 200.590279 87.319029 
L 201.883723 85.950545 
L 203.177168 85.821443 
L 205.764057 83.891916 
L 207.057501 83.054596 
L 208.350945 80.948015 
L 209.64439 79.793472 
L 210.937834 79.723388 
L 213.524723 77.506148 
L 214.818167 76.152418 
L 217.405056 73.706483 
L 218.698501 72.87654 
L 219.991945 71.448668 
L 221.285389 69.751895 
L 222.578834 69.855177 
L 223.872278 68.235496 
L 225.165723 67.073576 
L 226.459167 67.258008 
L 227.752611 65.018636 
L 229.046056 65.107163 
L 231.632945 62.595202 
L 232.926389 62.591513 
L 234.219833 60.739448 
L 235.513278 59.714007 
L 236.806722 59.286125 
L 238.100167 58.175477 
L 239.393611 57.234874 
L 240.687055 57.116838 
L 241.9805 57.349222 
L 243.273944 55.72991 
L 244.567389 55.737287 
L 245.860833 54.549177 
L 247.154277 54.5418 
L 248.447722 54.796316 
L 249.741166 53.568 
L 251.034611 53.936864 
L 252.328055 53.896289 
L 253.621499 54.563932 
L 254.914944 103.772195 
L 256.208388 108.663696 
L 257.501833 107.767358 
L 258.795277 107.262014 
L 260.088721 106.933726 
L 261.382166 106.43576 
L 262.67561 105.790248 
L 263.969055 105.661146 
L 265.262499 103.945561 
L 266.555943 103.185702 
L 267.849388 103.126683 
L 269.142832 102.045544 
L 270.436277 102.70249 
L 271.729721 100.942641 
L 273.023166 100.260243 
L 274.31661 100.610664 
L 275.610054 99.319641 
L 276.903499 99.943021 
L 278.196943 99.260623 
L 279.490388 97.541349 
L 282.077276 96.589681 
L 283.370721 97.434379 
L 284.664165 97.013874 
L 285.95761 96.810999 
L 287.251054 95.667521 
L 288.544498 94.291291 
L 289.837943 95.660144 
L 291.131387 94.737616 
L 292.424832 93.966691 
L 293.718276 92.786327 
L 295.01172 92.863788 
L 296.305165 93.612582 
L 297.598609 91.974458 
L 298.892054 93.070352 
L 300.185498 92.137127 
L 301.478942 92.572386 
L 302.772387 91.299437 
L 304.065831 91.952326 
L 305.359276 90.77934 
L 306.65272 91.387965 
L 307.946164 90.410476 
L 310.533053 90.226044 
L 311.826498 89.322328 
L 313.119942 90.273996 
L 314.413386 89.860869 
L 315.706831 88.632184 
L 317.000275 88.2375 
L 318.29372 88.233811 
L 319.587164 87.684204 
L 320.880608 88.001427 
L 322.174053 86.913279 
L 323.467497 87.414934 
L 324.760942 85.555861 
L 326.054386 85.297287 
L 327.34783 84.917358 
L 328.641275 84.024707 
L 329.934719 84.736614 
L 331.228164 83.379196 
L 332.521608 83.471412 
L 333.815053 82.453348 
L 335.108497 82.423839 
L 336.401941 82.674666 
L 337.695386 81.062363 
L 338.98883 81.493934 
L 340.282275 81.128758 
L 341.575719 79.513135 
L 342.869163 80.479558 
L 344.162608 79.631172 
L 345.456052 79.941017 
L 346.749497 79.572154 
L 348.042941 77.867634 
L 349.336385 77.502459 
L 350.62983 77.502459 
L 351.923274 77.823371 
L 355.803607 75.30772 
L 357.097052 75.218824 
L 358.390496 74.831517 
L 359.683941 75.337229 
L 360.977385 74.193383 
L 362.270829 73.492542 
L 363.564274 72.378574 
L 364.857718 72.138812 
L 366.151163 72.142501 
L 367.444607 71.57777 
L 368.738051 70.356832 
L 370.031496 71.271614 
L 372.618385 70.032232 
L 373.911829 68.383042 
L 375.205273 68.534276 
L 376.498718 67.593674 
L 377.792162 66.346914 
L 379.085607 66.313717 
L 381.672495 65.885721 
L 382.96594 65.04093 
L 384.259384 65.022485 
L 386.846273 64.044889 
L 388.139717 63.07467 
L 389.433162 62.403265 
L 390.726606 62.628296 
L 392.020051 61.469937 
L 393.313495 60.99405 
L 394.60694 61.075209 
L 395.900384 59.075748 
L 397.193828 58.304738 
L 398.487273 58.101841 
L 398.487273 58.101841 
" clip-path="url(#pb5e6c6c8a2)" style="fill: none; stroke: #1f77b4; stroke-width: 1.5; stroke-linecap: square"/>
   </g>
   <g id="line2d_19">
    <path d="M 73.832727 275.778137 
L 75.126172 246.305926 
L 76.419616 225.243809 
L 77.71306 218.161626 
L 79.006505 200.603713 
L 80.299949 189.611575 
L 81.593394 183.635983 
L 82.886838 167.479752 
L 84.180283 164.639502 
L 85.473727 160.803319 
L 86.767171 152.577659 
L 88.060616 143.392952 
L 89.35406 139.888747 
L 90.647505 137.159156 
L 91.940949 128.749063 
L 93.234393 126.904745 
L 94.527838 125.613722 
L 97.114727 119.306152 
L 98.408171 119.453698 
L 99.701615 158.073728 
L 100.99506 159.88116 
L 102.288504 147.524226 
L 103.581949 142.692111 
L 104.875393 148.667703 
L 106.168837 140.073179 
L 107.462282 133.544291 
L 108.755726 138.523951 
L 110.049171 128.933495 
L 111.342615 125.244858 
L 112.636059 123.400539 
L 113.929504 129.892541 
L 115.222948 119.158607 
L 116.516393 115.543742 
L 117.809837 123.474312 
L 119.103281 113.551878 
L 120.396726 112.187083 
L 121.69017 107.170536 
L 122.983615 105.621309 
L 124.277059 106.32215 
L 125.570503 101.932672 
L 126.863948 99.719489 
L 128.157392 99.903921 
L 129.450837 96.36283 
L 130.744281 96.399716 
L 132.037725 95.551329 
L 133.33117 88.985555 
L 135.918059 89.870828 
L 137.211503 83.009963 
L 138.504947 84.079668 
L 139.798392 82.973077 
L 141.091836 82.087804 
L 142.385281 79.911508 
L 143.678725 81.054986 
L 144.97217 78.952463 
L 147.559058 78.214735 
L 148.852503 77.587667 
L 150.145947 77.772099 
L 151.439392 119.047948 
L 152.732836 117.129856 
L 154.02628 126.462108 
L 155.319725 115.322424 
L 156.613169 118.015129 
L 157.906614 114.178947 
L 159.200058 121.408675 
L 160.493502 111.670673 
L 161.786947 107.465627 
L 163.080391 107.871377 
L 164.373836 114.068288 
L 165.66728 107.170536 
L 166.960724 104.772922 
L 168.254169 109.752582 
L 169.547613 103.703217 
L 170.841058 107.096763 
L 172.134502 104.477831 
L 173.427946 105.547536 
L 174.721391 98.280921 
L 176.014835 103.186808 
L 177.30828 106.32215 
L 178.601724 96.399716 
L 179.895168 97.358762 
L 181.188613 101.158058 
L 183.775502 94.444738 
L 185.068946 92.60042 
L 186.36239 96.141511 
L 187.655835 95.071807 
L 188.949279 92.415988 
L 190.242724 94.518511 
L 191.536168 91.825806 
L 192.829612 91.456942 
L 194.123057 85.260032 
L 195.416501 91.715147 
L 196.709946 87.473214 
L 198.00339 87.915851 
L 199.296834 86.514169 
L 200.590279 86.6986 
L 201.883723 82.161577 
L 203.177168 83.747691 
L 204.470612 81.8296 
L 205.764057 82.346009 
L 207.057501 80.280372 
L 208.350945 77.845871 
L 209.64439 75.743348 
L 210.937834 79.542645 
L 212.231279 76.591735 
L 213.524723 72.349802 
L 214.818167 72.755552 
L 216.111612 69.362006 
L 217.405056 72.312916 
L 218.698501 76.259758 
L 219.991945 68.661165 
L 221.285389 68.808711 
L 222.578834 69.472665 
L 223.872278 67.739006 
L 225.165723 68.439847 
L 226.459167 66.005346 
L 227.752611 64.161028 
L 229.046056 63.349528 
L 230.3395 62.759346 
L 231.632945 61.431437 
L 232.926389 62.427369 
L 234.219833 59.955982 
L 235.513278 59.882209 
L 236.806722 60.324845 
L 238.100167 57.263277 
L 239.393611 58.074777 
L 240.687055 56.525549 
L 241.9805 56.341117 
L 243.273944 56.00914 
L 244.567389 56.894413 
L 245.860833 56.00914 
L 247.154277 55.750935 
L 248.447722 56.894413 
L 249.741166 55.787822 
L 251.034611 55.787822 
L 252.328055 55.566504 
L 253.621499 55.492731 
L 254.914944 104.920468 
L 256.208388 103.592558 
L 257.501833 113.404333 
L 258.795277 105.068013 
L 260.088721 104.330286 
L 261.382166 104.920468 
L 262.67561 103.813876 
L 263.969055 97.100557 
L 265.262499 106.174604 
L 266.555943 104.58849 
L 267.849388 105.104899 
L 269.142832 99.424398 
L 270.436277 101.858899 
L 271.729721 108.387786 
L 273.023166 99.166194 
L 274.31661 105.953286 
L 275.610054 99.60883 
L 276.903499 100.715421 
L 278.196943 104.256513 
L 279.490388 100.346558 
L 280.783832 95.84642 
L 282.077276 98.280921 
L 283.370721 101.895785 
L 284.664165 95.108693 
L 285.95761 94.887375 
L 287.251054 104.551604 
L 288.544498 97.690739 
L 289.837943 98.981762 
L 291.131387 92.60042 
L 292.424832 93.596352 
L 293.718276 90.46101 
L 295.01172 100.162126 
L 296.305165 90.534783 
L 297.598609 94.850488 
L 298.892054 94.998034 
L 300.185498 92.969283 
L 301.478942 92.563533 
L 302.772387 92.747965 
L 304.065831 89.133101 
L 305.359276 88.874896 
L 306.65272 89.686396 
L 307.946164 88.395373 
L 309.239609 95.293125 
L 310.533053 90.092147 
L 311.826498 91.67826 
L 313.119942 92.563533 
L 314.413386 93.190602 
L 315.706831 96.953011 
L 317.000275 89.612624 
L 318.29372 91.420056 
L 319.587164 89.465078 
L 320.880608 91.752033 
L 322.174053 86.80926 
L 323.467497 91.567601 
L 324.760942 85.592009 
L 326.054386 86.6986 
L 327.34783 87.251896 
L 328.641275 82.014031 
L 329.934719 87.583873 
L 331.228164 81.239418 
L 332.521608 83.04685 
L 333.815053 83.932123 
L 335.108497 79.763963 
L 336.401941 79.985281 
L 337.695386 83.600145 
L 338.98883 84.522305 
L 340.282275 78.251622 
L 341.575719 81.31319 
L 342.869163 77.25569 
L 344.162608 79.431985 
L 345.456052 79.874622 
L 346.749497 77.108144 
L 348.042941 79.985281 
L 349.336385 77.735212 
L 350.62983 84.116554 
L 351.923274 78.694258 
L 353.216719 80.612349 
L 354.510163 77.403235 
L 355.803607 77.66144 
L 357.097052 71.75962 
L 358.390496 74.599871 
L 359.683941 78.030303 
L 360.977385 79.727076 
L 362.270829 72.460461 
L 363.564274 72.903098 
L 364.857718 75.226939 
L 366.151163 76.075326 
L 367.444607 71.095666 
L 368.738051 74.452325 
L 370.031496 70.505484 
L 371.32494 69.398893 
L 372.618385 69.362006 
L 373.911829 67.665233 
L 375.205273 67.923438 
L 376.498718 69.73087 
L 377.792162 70.025961 
L 379.085607 66.37421 
L 380.379051 66.669301 
L 381.672495 69.030029 
L 382.96594 67.038165 
L 384.259384 66.447983 
L 385.552829 64.898755 
L 386.846273 62.870005 
L 388.139717 63.718391 
L 389.433162 63.53396 
L 390.726606 61.615868 
L 392.020051 61.689641 
L 393.313495 65.15696 
L 394.60694 59.845323 
L 395.900384 61.320777 
L 397.193828 61.874073 
L 398.487273 59.955982 
L 398.487273 59.955982 
" clip-path="url(#pb5e6c6c8a2)" style="fill: none; stroke: #ff7f0e; stroke-width: 1.5; stroke-linecap: square"/>
   </g>
   <g id="line2d_20">
    <path d="M 73.832727 291.734812 
L 75.126172 276.038923 
L 76.419616 266.423015 
L 77.71306 264.108027 
L 79.006505 252.813051 
L 80.299949 250.396625 
L 81.593394 249.53164 
L 82.886838 245.003469 
L 84.180283 245.48668 
L 85.473727 244.189387 
L 86.767171 241.492993 
L 88.060616 236.532145 
L 89.35406 230.274372 
L 90.647505 236.125288 
L 91.940949 225.364796 
L 93.234393 227.247108 
L 94.527838 231.520763 
L 95.821282 228.010287 
L 97.114727 225.364796 
L 98.408171 225.695298 
L 99.701615 240.271685 
L 100.99506 238.363922 
L 102.288504 240.83162 
L 103.581949 238.414825 
L 104.875393 236.303449 
L 106.168837 235.896224 
L 107.462282 231.520763 
L 108.755726 237.295324 
L 110.049171 231.012099 
L 111.342615 231.495311 
L 112.636059 226.840251 
L 113.929504 232.233038 
L 115.222948 229.714806 
L 116.516393 220.073446 
L 117.809837 224.881216 
L 119.103281 233.530701 
L 120.396726 216.715311 
L 121.69017 222.133919 
L 122.983615 223.533019 
L 124.277059 214.146175 
L 125.570503 219.004848 
L 126.863948 217.17344 
L 128.157392 216.918924 
L 129.450837 217.682103 
L 130.744281 206.997597 
L 132.037725 205.293446 
L 133.33117 209.643456 
L 134.624614 210.559345 
L 135.918059 208.676664 
L 137.211503 204.377558 
L 138.504947 204.555719 
L 139.798392 206.870708 
L 141.091836 203.410766 
L 142.385281 203.996153 
L 143.678725 203.79254 
L 144.97217 203.003909 
L 146.265614 200.612566 
L 147.559058 202.342537 
L 148.852503 200.536211 
L 150.145947 202.367988 
L 151.439392 225.390248 
L 152.732836 218.953945 
L 154.02628 236.201643 
L 155.319725 228.188448 
L 156.613169 225.364796 
L 157.906614 222.871646 
L 159.200058 222.31208 
L 160.493502 222.92255 
L 161.786947 219.412074 
L 163.080391 214.909354 
L 164.373836 219.412074 
L 165.66728 216.918924 
L 166.960724 228.84982 
L 168.254169 221.752145 
L 169.547613 211.72938 
L 170.841058 209.058438 
L 172.134502 208.702116 
L 173.427946 218.292572 
L 174.721391 210.838943 
L 176.014835 209.109341 
L 177.30828 218.41983 
L 178.601724 209.109341 
L 179.895168 210.228474 
L 181.188613 217.911167 
L 182.482057 213.789853 
L 183.775502 199.620323 
L 185.068946 203.63983 
L 186.36239 212.238043 
L 187.655835 207.760776 
L 188.949279 198.755706 
L 190.242724 208.422517 
L 191.536168 203.029361 
L 192.829612 205.6494 
L 194.123057 201.808422 
L 195.416501 197.305703 
L 196.709946 202.215279 
L 198.00339 198.602996 
L 199.296834 198.221222 
L 200.590279 200.078451 
L 201.883723 197.916172 
L 203.177168 202.088021 
L 204.470612 200.154806 
L 205.764057 200.383502 
L 207.057501 199.823935 
L 208.350945 190.666156 
L 209.64439 193.36255 
L 210.937834 201.884408 
L 212.231279 198.094333 
L 213.524723 191.937998 
L 214.818167 188.249361 
L 216.111612 192.955693 
L 217.405056 193.973019 
L 218.698501 194.787101 
L 219.991945 191.149368 
L 221.285389 179.167568 
L 222.578834 190.793045 
L 223.872278 184.280756 
L 225.165723 186.595745 
L 226.459167 182.449348 
L 227.752611 182.500251 
L 229.046056 184.81524 
L 230.3395 176.928934 
L 231.632945 179.651148 
L 232.926389 176.0894 
L 234.219833 181.686169 
L 235.513278 178.735259 
L 236.806722 176.979837 
L 238.100167 180.515765 
L 239.393611 175.606189 
L 240.687055 176.445722 
L 241.9805 175.478931 
L 243.273944 177.081643 
L 244.567389 176.24211 
L 245.860833 177.895726 
L 247.154277 174.919364 
L 248.447722 176.496626 
L 249.741166 177.463417 
L 251.034611 177.539403 
L 252.328055 176.445722 
L 253.621499 177.946629 
L 254.914944 213.230287 
L 256.208388 220.454851 
L 257.501833 217.860264 
L 258.795277 218.292572 
L 260.088721 210.304829 
L 261.382166 209.719811 
L 262.67561 210.228474 
L 263.969055 203.894346 
L 265.262499 217.47849 
L 266.555943 208.244356 
L 267.849388 207.68479 
L 269.142832 213.230287 
L 271.729721 207.83713 
L 273.023166 206.616192 
L 274.31661 205.802109 
L 275.610054 216.868021 
L 276.903499 209.439843 
L 278.196943 213.510254 
L 279.490388 206.285321 
L 280.783832 200.892533 
L 282.077276 206.667095 
L 283.370721 202.953006 
L 284.664165 206.082077 
L 285.95761 203.665282 
L 287.251054 221.090772 
L 288.544498 206.488934 
L 289.837943 198.628448 
L 291.131387 201.655712 
L 292.424832 195.652087 
L 293.718276 210.253925 
L 295.01172 207.328467 
L 296.305165 202.215279 
L 297.598609 203.003909 
L 298.892054 200.129354 
L 300.185498 211.831187 
L 301.478942 201.324842 
L 302.772387 202.953006 
L 304.065831 190.894852 
L 305.359276 203.18207 
L 306.65272 201.553906 
L 307.946164 200.663469 
L 309.239609 203.843443 
L 310.533053 193.515259 
L 311.826498 201.553906 
L 313.119942 205.522142 
L 314.413386 199.722129 
L 315.706831 208.269808 
L 317.000275 206.13298 
L 318.29372 204.581171 
L 319.587164 206.005722 
L 320.880608 205.674851 
L 322.174053 193.413453 
L 323.467497 215.188953 
L 324.760942 200.867082 
L 326.054386 196.974832 
L 327.34783 203.105716 
L 328.641275 198.119785 
L 329.934719 202.215279 
L 331.228164 199.798484 
L 332.521608 201.223035 
L 333.815053 187.816684 
L 335.108497 198.170319 
L 336.401941 196.491621 
L 337.695386 192.930241 
L 338.98883 194.888908 
L 340.282275 197.229348 
L 341.575719 193.20984 
L 342.869163 196.338911 
L 344.162608 192.446661 
L 345.456052 194.125729 
L 346.749497 190.437092 
L 348.042941 196.186201 
L 349.336385 194.049374 
L 350.62983 198.552093 
L 351.923274 181.940316 
L 353.216719 192.014353 
L 354.510163 187.893039 
L 355.803607 188.147555 
L 357.097052 191.785289 
L 358.390496 191.581676 
L 359.683941 187.257118 
L 360.977385 192.192514 
L 362.270829 193.006227 
L 363.564274 191.759837 
L 364.857718 194.888908 
L 366.151163 192.75208 
L 367.444607 190.386188 
L 368.738051 185.807114 
L 370.031496 191.149368 
L 371.32494 183.975706 
L 372.618385 179.905295 
L 373.911829 184.382563 
L 375.205273 190.538898 
L 376.498718 193.133485 
L 377.792162 186.799358 
L 379.085607 172.655279 
L 380.379051 182.728947 
L 381.672495 180.719415 
L 382.96594 177.564995 
L 384.259384 181.991359 
L 385.552829 170.391232 
L 386.846273 182.449259 
L 388.139717 185.807191 
L 389.433162 179.752738 
L 390.726606 184.408053 
L 392.020051 182.322065 
L 393.313495 180.897488 
L 394.60694 177.4378 
L 395.900384 184.179103 
L 397.193828 185.629119 
L 398.487273 172.935119 
L 398.487273 172.935119 
" clip-path="url(#pb5e6c6c8a2)" style="fill: none; stroke: #2ca02c; stroke-width: 1.5; stroke-linecap: square"/>
   </g>
   <g id="line2d_21">
    <path d="M 0 0 
" clip-path="url(#pb5e6c6c8a2)" style="fill: none; stroke: #d62728; stroke-width: 1.5; stroke-linecap: square"/>
   </g>
   <g id="line2d_22">
    <path d="M 0 0 
" clip-path="url(#pb5e6c6c8a2)" style="fill: none; stroke: #9467bd; stroke-width: 1.5; stroke-linecap: square"/>
   </g>
   <g id="patch_3">
    <path d="M 57.6 307.584 
L 57.6 41.472 
" style="fill: none; stroke: #000000; stroke-width: 0.8; stroke-linejoin: miter; stroke-linecap: square"/>
   </g>
   <g id="patch_4">
    <path d="M 414.72 307.584 
L 414.72 41.472 
" style="fill: none; stroke: #000000; stroke-width: 0.8; stroke-linejoin: miter; stroke-linecap: square"/>
   </g>
   <g id="patch_5">
    <path d="M 57.6 307.584 
L 414.72 307.584 
" style="fill: none; stroke: #000000; stroke-width: 0.8; stroke-linejoin: miter; stroke-linecap: square"/>
   </g>
   <g id="patch_6">
    <path d="M 57.6 41.472 
L 414.72 41.472 
" style="fill: none; stroke: #000000; stroke-width: 0.8; stroke-linejoin: miter; stroke-linecap: square"/>
   </g>
   <g id="text_20">
    <!-- Learning Curves -->
    <g transform="translate(187.37625 35.472) scale(0.12 -0.12)">
     <defs>
      <path id="DejaVuSans-4c" d="M 628 4666 
L 1259 4666 
L 1259 531 
L 3531 531 
L 3531 0 
L 628 0 
L 628 4666 
z
" transform="scale(0.015625)"/>
      <path id="DejaVuSans-65" d="M 3597 1894 
L 3597 1613 
L 953 1613 
Q 991 1019 1311 708 
Q 1631 397 2203 397 
Q 2534 397 2845 478 
Q 3156 559 3463 722 
L 3463 178 
Q 3153 47 2828 -22 
Q 2503 -91 2169 -91 
Q 1331 -91 842 396 
Q 353 884 353 1716 
Q 353 2575 817 3079 
Q 1281 3584 2069 3584 
Q 2775 3584 3186 3129 
Q 3597 2675 3597 1894 
z
M 3022 2063 
Q 3016 2534 2758 2815 
Q 2500 3097 2075 3097 
Q 1594 3097 1305 2825 
Q 1016 2553 972 2059 
L 3022 2063 
z
" transform="scale(0.015625)"/>
      <path id="DejaVuSans-6e" d="M 3513 2113 
L 3513 0 
L 2938 0 
L 2938 2094 
Q 2938 2591 2744 2837 
Q 2550 3084 2163 3084 
Q 1697 3084 1428 2787 
Q 1159 2491 1159 1978 
L 1159 0 
L 581 0 
L 581 3500 
L 1159 3500 
L 1159 2956 
Q 1366 3272 1645 3428 
Q 1925 3584 2291 3584 
Q 2894 3584 3203 3211 
Q 3513 2838 3513 2113 
z
" transform="scale(0.015625)"/>
      <path id="DejaVuSans-69" d="M 603 3500 
L 1178 3500 
L 1178 0 
L 603 0 
L 603 3500 
z
M 603 4863 
L 1178 4863 
L 1178 4134 
L 603 4134 
L 603 4863 
z
" transform="scale(0.015625)"/>
      <path id="DejaVuSans-67" d="M 2906 1791 
Q 2906 2416 2648 2759 
Q 2391 3103 1925 3103 
Q 1463 3103 1205 2759 
Q 947 2416 947 1791 
Q 947 1169 1205 825 
Q 1463 481 1925 481 
Q 2391 481 2648 825 
Q 2906 1169 2906 1791 
z
M 3481 434 
Q 3481 -459 3084 -895 
Q 2688 -1331 1869 -1331 
Q 1566 -1331 1297 -1286 
Q 1028 -1241 775 -1147 
L 775 -588 
Q 1028 -725 1275 -790 
Q 1522 -856 1778 -856 
Q 2344 -856 2625 -561 
Q 2906 -266 2906 331 
L 2906 616 
Q 2728 306 2450 153 
Q 2172 0 1784 0 
Q 1141 0 747 490 
Q 353 981 353 1791 
Q 353 2603 747 3093 
Q 1141 3584 1784 3584 
Q 2172 3584 2450 3431 
Q 2728 3278 2906 2969 
L 2906 3500 
L 3481 3500 
L 3481 434 
z
" transform="scale(0.015625)"/>
      <path id="DejaVuSans-20" transform="scale(0.015625)"/>
      <path id="DejaVuSans-43" d="M 4122 4306 
L 4122 3641 
Q 3803 3938 3442 4084 
Q 3081 4231 2675 4231 
Q 1875 4231 1450 3742 
Q 1025 3253 1025 2328 
Q 1025 1406 1450 917 
Q 1875 428 2675 428 
Q 3081 428 3442 575 
Q 3803 722 4122 1019 
L 4122 359 
Q 3791 134 3420 21 
Q 3050 -91 2638 -91 
Q 1578 -91 968 557 
Q 359 1206 359 2328 
Q 359 3453 968 4101 
Q 1578 4750 2638 4750 
Q 3056 4750 3426 4639 
Q 3797 4528 4122 4306 
z
" transform="scale(0.015625)"/>
      <path id="DejaVuSans-76" d="M 191 3500 
L 800 3500 
L 1894 563 
L 2988 3500 
L 3597 3500 
L 2284 0 
L 1503 0 
L 191 3500 
z
" transform="scale(0.015625)"/>
     </defs>
     <use xlink:href="#DejaVuSans-4c"/>
     <use xlink:href="#DejaVuSans-65" x="53.962891"/>
     <use xlink:href="#DejaVuSans-61" x="115.486328"/>
     <use xlink:href="#DejaVuSans-72" x="176.765625"/>
     <use xlink:href="#DejaVuSans-6e" x="216.128906"/>
     <use xlink:href="#DejaVuSans-69" x="279.507812"/>
     <use xlink:href="#DejaVuSans-6e" x="307.291016"/>
     <use xlink:href="#DejaVuSans-67" x="370.669922"/>
     <use xlink:href="#DejaVuSans-20" x="434.146484"/>
     <use xlink:href="#DejaVuSans-43" x="465.933594"/>
     <use xlink:href="#DejaVuSans-75" x="535.757812"/>
     <use xlink:href="#DejaVuSans-72" x="599.136719"/>
     <use xlink:href="#DejaVuSans-76" x="640.25"/>
     <use xlink:href="#DejaVuSans-65" x="699.429688"/>
     <use xlink:href="#DejaVuSans-73" x="760.953125"/>
    </g>
   </g>
   <g id="legend_1">
    <g id="patch_7">
     <path d="M 214.18875 302.584 
L 407.72 302.584 
Q 409.72 302.584 409.72 300.584 
L 409.72 228.193375 
Q 409.72 226.193375 407.72 226.193375 
L 214.18875 226.193375 
Q 212.18875 226.193375 212.18875 228.193375 
L 212.18875 300.584 
Q 212.18875 302.584 214.18875 302.584 
z
" style="fill: #ffffff; opacity: 0.8; stroke: #cccccc; stroke-linejoin: miter"/>
    </g>
    <g id="line2d_23">
     <path d="M 216.18875 234.291812 
L 226.18875 234.291812 
L 236.18875 234.291812 
" style="fill: none; stroke: #1f77b4; stroke-width: 1.5; stroke-linecap: square"/>
    </g>
    <g id="text_21">
     <!-- Train Accuracy -->
     <g transform="translate(244.18875 237.791812) scale(0.1 -0.1)">
      <defs>
       <path id="DejaVuSans-54" d="M -19 4666 
L 3928 4666 
L 3928 4134 
L 2272 4134 
L 2272 0 
L 1638 0 
L 1638 4134 
L -19 4134 
L -19 4666 
z
" transform="scale(0.015625)"/>
      </defs>
      <use xlink:href="#DejaVuSans-54"/>
      <use xlink:href="#DejaVuSans-72" x="46.333984"/>
      <use xlink:href="#DejaVuSans-61" x="87.447266"/>
      <use xlink:href="#DejaVuSans-69" x="148.726562"/>
      <use xlink:href="#DejaVuSans-6e" x="176.509766"/>
      <use xlink:href="#DejaVuSans-20" x="239.888672"/>
      <use xlink:href="#DejaVuSans-41" x="271.675781"/>
      <use xlink:href="#DejaVuSans-63" x="338.333984"/>
      <use xlink:href="#DejaVuSans-63" x="393.314453"/>
      <use xlink:href="#DejaVuSans-75" x="448.294922"/>
      <use xlink:href="#DejaVuSans-72" x="511.673828"/>
      <use xlink:href="#DejaVuSans-61" x="552.787109"/>
      <use xlink:href="#DejaVuSans-63" x="614.066406"/>
      <use xlink:href="#DejaVuSans-79" x="669.046875"/>
     </g>
    </g>
    <g id="line2d_24">
     <path d="M 216.18875 248.969937 
L 226.18875 248.969937 
L 236.18875 248.969937 
" style="fill: none; stroke: #ff7f0e; stroke-width: 1.5; stroke-linecap: square"/>
    </g>
    <g id="text_22">
     <!-- Validation Accuracy -->
     <g transform="translate(244.18875 252.469937) scale(0.1 -0.1)">
      <defs>
       <path id="DejaVuSans-56" d="M 1831 0 
L 50 4666 
L 709 4666 
L 2188 738 
L 3669 4666 
L 4325 4666 
L 2547 0 
L 1831 0 
z
" transform="scale(0.015625)"/>
       <path id="DejaVuSans-6c" d="M 603 4863 
L 1178 4863 
L 1178 0 
L 603 0 
L 603 4863 
z
" transform="scale(0.015625)"/>
       <path id="DejaVuSans-64" d="M 2906 2969 
L 2906 4863 
L 3481 4863 
L 3481 0 
L 2906 0 
L 2906 525 
Q 2725 213 2448 61 
Q 2172 -91 1784 -91 
Q 1150 -91 751 415 
Q 353 922 353 1747 
Q 353 2572 751 3078 
Q 1150 3584 1784 3584 
Q 2172 3584 2448 3432 
Q 2725 3281 2906 2969 
z
M 947 1747 
Q 947 1113 1208 752 
Q 1469 391 1925 391 
Q 2381 391 2643 752 
Q 2906 1113 2906 1747 
Q 2906 2381 2643 2742 
Q 2381 3103 1925 3103 
Q 1469 3103 1208 2742 
Q 947 2381 947 1747 
z
" transform="scale(0.015625)"/>
       <path id="DejaVuSans-74" d="M 1172 4494 
L 1172 3500 
L 2356 3500 
L 2356 3053 
L 1172 3053 
L 1172 1153 
Q 1172 725 1289 603 
Q 1406 481 1766 481 
L 2356 481 
L 2356 0 
L 1766 0 
Q 1100 0 847 248 
Q 594 497 594 1153 
L 594 3053 
L 172 3053 
L 172 3500 
L 594 3500 
L 594 4494 
L 1172 4494 
z
" transform="scale(0.015625)"/>
      </defs>
      <use xlink:href="#DejaVuSans-56"/>
      <use xlink:href="#DejaVuSans-61" x="60.658203"/>
      <use xlink:href="#DejaVuSans-6c" x="121.9375"/>
      <use xlink:href="#DejaVuSans-69" x="149.720703"/>
      <use xlink:href="#DejaVuSans-64" x="177.503906"/>
      <use xlink:href="#DejaVuSans-61" x="240.980469"/>
      <use xlink:href="#DejaVuSans-74" x="302.259766"/>
      <use xlink:href="#DejaVuSans-69" x="341.46875"/>
      <use xlink:href="#DejaVuSans-6f" x="369.251953"/>
      <use xlink:href="#DejaVuSans-6e" x="430.433594"/>
      <use xlink:href="#DejaVuSans-20" x="493.8125"/>
      <use xlink:href="#DejaVuSans-41" x="525.599609"/>
      <use xlink:href="#DejaVuSans-63" x="592.257812"/>
      <use xlink:href="#DejaVuSans-63" x="647.238281"/>
      <use xlink:href="#DejaVuSans-75" x="702.21875"/>
      <use xlink:href="#DejaVuSans-72" x="765.597656"/>
      <use xlink:href="#DejaVuSans-61" x="806.710938"/>
      <use xlink:href="#DejaVuSans-63" x="867.990234"/>
      <use xlink:href="#DejaVuSans-79" x="922.970703"/>
     </g>
    </g>
    <g id="line2d_25">
     <path d="M 216.18875 263.648062 
L 226.18875 263.648062 
L 236.18875 263.648062 
" style="fill: none; stroke: #2ca02c; stroke-width: 1.5; stroke-linecap: square"/>
    </g>
    <g id="text_23">
     <!-- Robust Validation Accuracy -->
     <g transform="translate(244.18875 267.148062) scale(0.1 -0.1)">
      <defs>
       <path id="DejaVuSans-52" d="M 2841 2188 
Q 3044 2119 3236 1894 
Q 3428 1669 3622 1275 
L 4263 0 
L 3584 0 
L 2988 1197 
Q 2756 1666 2539 1819 
Q 2322 1972 1947 1972 
L 1259 1972 
L 1259 0 
L 628 0 
L 628 4666 
L 2053 4666 
Q 2853 4666 3247 4331 
Q 3641 3997 3641 3322 
Q 3641 2881 3436 2590 
Q 3231 2300 2841 2188 
z
M 1259 4147 
L 1259 2491 
L 2053 2491 
Q 2509 2491 2742 2702 
Q 2975 2913 2975 3322 
Q 2975 3731 2742 3939 
Q 2509 4147 2053 4147 
L 1259 4147 
z
" transform="scale(0.015625)"/>
       <path id="DejaVuSans-62" d="M 3116 1747 
Q 3116 2381 2855 2742 
Q 2594 3103 2138 3103 
Q 1681 3103 1420 2742 
Q 1159 2381 1159 1747 
Q 1159 1113 1420 752 
Q 1681 391 2138 391 
Q 2594 391 2855 752 
Q 3116 1113 3116 1747 
z
M 1159 2969 
Q 1341 3281 1617 3432 
Q 1894 3584 2278 3584 
Q 2916 3584 3314 3078 
Q 3713 2572 3713 1747 
Q 3713 922 3314 415 
Q 2916 -91 2278 -91 
Q 1894 -91 1617 61 
Q 1341 213 1159 525 
L 1159 0 
L 581 0 
L 581 4863 
L 1159 4863 
L 1159 2969 
z
" transform="scale(0.015625)"/>
      </defs>
      <use xlink:href="#DejaVuSans-52"/>
      <use xlink:href="#DejaVuSans-6f" x="64.982422"/>
      <use xlink:href="#DejaVuSans-62" x="126.164062"/>
      <use xlink:href="#DejaVuSans-75" x="189.640625"/>
      <use xlink:href="#DejaVuSans-73" x="253.019531"/>
      <use xlink:href="#DejaVuSans-74" x="305.119141"/>
      <use xlink:href="#DejaVuSans-20" x="344.328125"/>
      <use xlink:href="#DejaVuSans-56" x="376.115234"/>
      <use xlink:href="#DejaVuSans-61" x="436.773438"/>
      <use xlink:href="#DejaVuSans-6c" x="498.052734"/>
      <use xlink:href="#DejaVuSans-69" x="525.835938"/>
      <use xlink:href="#DejaVuSans-64" x="553.619141"/>
      <use xlink:href="#DejaVuSans-61" x="617.095703"/>
      <use xlink:href="#DejaVuSans-74" x="678.375"/>
      <use xlink:href="#DejaVuSans-69" x="717.583984"/>
      <use xlink:href="#DejaVuSans-6f" x="745.367188"/>
      <use xlink:href="#DejaVuSans-6e" x="806.548828"/>
      <use xlink:href="#DejaVuSans-20" x="869.927734"/>
      <use xlink:href="#DejaVuSans-41" x="901.714844"/>
      <use xlink:href="#DejaVuSans-63" x="968.373047"/>
      <use xlink:href="#DejaVuSans-63" x="1023.353516"/>
      <use xlink:href="#DejaVuSans-75" x="1078.333984"/>
      <use xlink:href="#DejaVuSans-72" x="1141.712891"/>
      <use xlink:href="#DejaVuSans-61" x="1182.826172"/>
      <use xlink:href="#DejaVuSans-63" x="1244.105469"/>
      <use xlink:href="#DejaVuSans-79" x="1299.085938"/>
     </g>
    </g>
    <g id="line2d_26">
     <path d="M 216.18875 278.326188 
L 226.18875 278.326188 
L 236.18875 278.326188 
" style="fill: none; stroke: #d62728; stroke-width: 1.5; stroke-linecap: square"/>
    </g>
    <g id="text_24">
     <!-- SWA Validation Accuracy -->
     <g transform="translate(244.18875 281.826188) scale(0.1 -0.1)">
      <defs>
       <path id="DejaVuSans-53" d="M 3425 4513 
L 3425 3897 
Q 3066 4069 2747 4153 
Q 2428 4238 2131 4238 
Q 1616 4238 1336 4038 
Q 1056 3838 1056 3469 
Q 1056 3159 1242 3001 
Q 1428 2844 1947 2747 
L 2328 2669 
Q 3034 2534 3370 2195 
Q 3706 1856 3706 1288 
Q 3706 609 3251 259 
Q 2797 -91 1919 -91 
Q 1588 -91 1214 -16 
Q 841 59 441 206 
L 441 856 
Q 825 641 1194 531 
Q 1563 422 1919 422 
Q 2459 422 2753 634 
Q 3047 847 3047 1241 
Q 3047 1584 2836 1778 
Q 2625 1972 2144 2069 
L 1759 2144 
Q 1053 2284 737 2584 
Q 422 2884 422 3419 
Q 422 4038 858 4394 
Q 1294 4750 2059 4750 
Q 2388 4750 2728 4690 
Q 3069 4631 3425 4513 
z
" transform="scale(0.015625)"/>
       <path id="DejaVuSans-57" d="M 213 4666 
L 850 4666 
L 1831 722 
L 2809 4666 
L 3519 4666 
L 4500 722 
L 5478 4666 
L 6119 4666 
L 4947 0 
L 4153 0 
L 3169 4050 
L 2175 0 
L 1381 0 
L 213 4666 
z
" transform="scale(0.015625)"/>
      </defs>
      <use xlink:href="#DejaVuSans-53"/>
      <use xlink:href="#DejaVuSans-57" x="63.476562"/>
      <use xlink:href="#DejaVuSans-41" x="156.853516"/>
      <use xlink:href="#DejaVuSans-20" x="225.261719"/>
      <use xlink:href="#DejaVuSans-56" x="257.048828"/>
      <use xlink:href="#DejaVuSans-61" x="317.707031"/>
      <use xlink:href="#DejaVuSans-6c" x="378.986328"/>
      <use xlink:href="#DejaVuSans-69" x="406.769531"/>
      <use xlink:href="#DejaVuSans-64" x="434.552734"/>
      <use xlink:href="#DejaVuSans-61" x="498.029297"/>
      <use xlink:href="#DejaVuSans-74" x="559.308594"/>
      <use xlink:href="#DejaVuSans-69" x="598.517578"/>
      <use xlink:href="#DejaVuSans-6f" x="626.300781"/>
      <use xlink:href="#DejaVuSans-6e" x="687.482422"/>
      <use xlink:href="#DejaVuSans-20" x="750.861328"/>
      <use xlink:href="#DejaVuSans-41" x="782.648438"/>
      <use xlink:href="#DejaVuSans-63" x="849.306641"/>
      <use xlink:href="#DejaVuSans-63" x="904.287109"/>
      <use xlink:href="#DejaVuSans-75" x="959.267578"/>
      <use xlink:href="#DejaVuSans-72" x="1022.646484"/>
      <use xlink:href="#DejaVuSans-61" x="1063.759766"/>
      <use xlink:href="#DejaVuSans-63" x="1125.039062"/>
      <use xlink:href="#DejaVuSans-79" x="1180.019531"/>
     </g>
    </g>
    <g id="line2d_27">
     <path d="M 216.18875 293.004312 
L 226.18875 293.004312 
L 236.18875 293.004312 
" style="fill: none; stroke: #9467bd; stroke-width: 1.5; stroke-linecap: square"/>
    </g>
    <g id="text_25">
     <!-- SWA Robust Validation Accuracy -->
     <g transform="translate(244.18875 296.504312) scale(0.1 -0.1)">
      <use xlink:href="#DejaVuSans-53"/>
      <use xlink:href="#DejaVuSans-57" x="63.476562"/>
      <use xlink:href="#DejaVuSans-41" x="156.853516"/>
      <use xlink:href="#DejaVuSans-20" x="225.261719"/>
      <use xlink:href="#DejaVuSans-52" x="257.048828"/>
      <use xlink:href="#DejaVuSans-6f" x="322.03125"/>
      <use xlink:href="#DejaVuSans-62" x="383.212891"/>
      <use xlink:href="#DejaVuSans-75" x="446.689453"/>
      <use xlink:href="#DejaVuSans-73" x="510.068359"/>
      <use xlink:href="#DejaVuSans-74" x="562.167969"/>
      <use xlink:href="#DejaVuSans-20" x="601.376953"/>
      <use xlink:href="#DejaVuSans-56" x="633.164062"/>
      <use xlink:href="#DejaVuSans-61" x="693.822266"/>
      <use xlink:href="#DejaVuSans-6c" x="755.101562"/>
      <use xlink:href="#DejaVuSans-69" x="782.884766"/>
      <use xlink:href="#DejaVuSans-64" x="810.667969"/>
      <use xlink:href="#DejaVuSans-61" x="874.144531"/>
      <use xlink:href="#DejaVuSans-74" x="935.423828"/>
      <use xlink:href="#DejaVuSans-69" x="974.632812"/>
      <use xlink:href="#DejaVuSans-6f" x="1002.416016"/>
      <use xlink:href="#DejaVuSans-6e" x="1063.597656"/>
      <use xlink:href="#DejaVuSans-20" x="1126.976562"/>
      <use xlink:href="#DejaVuSans-41" x="1158.763672"/>
      <use xlink:href="#DejaVuSans-63" x="1225.421875"/>
      <use xlink:href="#DejaVuSans-63" x="1280.402344"/>
      <use xlink:href="#DejaVuSans-75" x="1335.382812"/>
      <use xlink:href="#DejaVuSans-72" x="1398.761719"/>
      <use xlink:href="#DejaVuSans-61" x="1439.875"/>
      <use xlink:href="#DejaVuSans-63" x="1501.154297"/>
      <use xlink:href="#DejaVuSans-79" x="1556.134766"/>
     </g>
    </g>
   </g>
  </g>
 </g>
 <defs>
  <clipPath id="pb5e6c6c8a2">
   <rect x="57.6" y="41.472" width="357.12" height="266.112"/>
  </clipPath>
 </defs>
</svg>
