<?xml version="1.0" encoding="utf-8" standalone="no"?>
<!DOCTYPE svg PUBLIC "-//W3C//DTD SVG 1.1//EN"
  "http://www.w3.org/Graphics/SVG/1.1/DTD/svg11.dtd">
<svg xmlns:xlink="http://www.w3.org/1999/xlink" width="460.8pt" height="345.6pt" viewBox="0 0 460.8 345.6" xmlns="http://www.w3.org/2000/svg" version="1.1">
 <metadata>
  <rdf:RDF xmlns:dc="http://purl.org/dc/elements/1.1/" xmlns:cc="http://creativecommons.org/ns#" xmlns:rdf="http://www.w3.org/1999/02/22-rdf-syntax-ns#">
   <cc:Work>
    <dc:type rdf:resource="http://purl.org/dc/dcmitype/StillImage"/>
    <dc:date>2025-05-04T23:53:44.348433</dc:date>
    <dc:format>image/svg+xml</dc:format>
    <dc:creator>
     <cc:Agent>
      <dc:title>Matplotlib v3.9.1, https://matplotlib.org/</dc:title>
     </cc:Agent>
    </dc:creator>
   </cc:Work>
  </rdf:RDF>
 </metadata>
 <defs>
  <style type="text/css">*{stroke-linejoin: round; stroke-linecap: butt}</style>
 </defs>
 <g id="figure_1">
  <g id="patch_1">
   <path d="M 0 345.6 
L 460.8 345.6 
L 460.8 0 
L 0 0 
z
" style="fill: #ffffff"/>
  </g>
  <g id="axes_1">
   <g id="patch_2">
    <path d="M 57.6 307.584 
L 414.72 307.584 
L 414.72 41.472 
L 57.6 41.472 
z
" style="fill: #ffffff"/>
   </g>
   <g id="matplotlib.axis_1">
    <g id="xtick_1">
     <g id="line2d_1">
      <defs>
       <path id="m8a82c280f1" d="M 0 0 
L 0 3.5 
" style="stroke: #000000; stroke-width: 0.8"/>
      </defs>
      <g>
       <use xlink:href="#m8a82c280f1" x="73.832727" y="307.584" style="stroke: #000000; stroke-width: 0.8"/>
      </g>
     </g>
     <g id="text_1">
      <!-- 1 -->
      <g transform="translate(70.651477 322.182437) scale(0.1 -0.1)">
       <defs>
        <path id="DejaVuSans-31" d="M 794 531 
L 1825 531 
L 1825 4091 
L 703 3866 
L 703 4441 
L 1819 4666 
L 2450 4666 
L 2450 531 
L 3481 531 
L 3481 0 
L 794 0 
L 794 531 
z
" transform="scale(0.015625)"/>
       </defs>
       <use xlink:href="#DejaVuSans-31"/>
      </g>
     </g>
    </g>
    <g id="xtick_2">
     <g id="line2d_2">
      <g>
       <use xlink:href="#m8a82c280f1" x="109.664165" y="307.584" style="stroke: #000000; stroke-width: 0.8"/>
      </g>
     </g>
     <g id="text_2">
      <!-- 34 -->
      <g transform="translate(103.301665 322.182437) scale(0.1 -0.1)">
       <defs>
        <path id="DejaVuSans-33" d="M 2597 2516 
Q 3050 2419 3304 2112 
Q 3559 1806 3559 1356 
Q 3559 666 3084 287 
Q 2609 -91 1734 -91 
Q 1441 -91 1130 -33 
Q 819 25 488 141 
L 488 750 
Q 750 597 1062 519 
Q 1375 441 1716 441 
Q 2309 441 2620 675 
Q 2931 909 2931 1356 
Q 2931 1769 2642 2001 
Q 2353 2234 1838 2234 
L 1294 2234 
L 1294 2753 
L 1863 2753 
Q 2328 2753 2575 2939 
Q 2822 3125 2822 3475 
Q 2822 3834 2567 4026 
Q 2313 4219 1838 4219 
Q 1578 4219 1281 4162 
Q 984 4106 628 3988 
L 628 4550 
Q 988 4650 1302 4700 
Q 1616 4750 1894 4750 
Q 2613 4750 3031 4423 
Q 3450 4097 3450 3541 
Q 3450 3153 3228 2886 
Q 3006 2619 2597 2516 
z
" transform="scale(0.015625)"/>
        <path id="DejaVuSans-34" d="M 2419 4116 
L 825 1625 
L 2419 1625 
L 2419 4116 
z
M 2253 4666 
L 3047 4666 
L 3047 1625 
L 3713 1625 
L 3713 1100 
L 3047 1100 
L 3047 0 
L 2419 0 
L 2419 1100 
L 313 1100 
L 313 1709 
L 2253 4666 
z
" transform="scale(0.015625)"/>
       </defs>
       <use xlink:href="#DejaVuSans-33"/>
       <use xlink:href="#DejaVuSans-34" x="63.623047"/>
      </g>
     </g>
    </g>
    <g id="xtick_3">
     <g id="line2d_3">
      <g>
       <use xlink:href="#m8a82c280f1" x="145.495604" y="307.584" style="stroke: #000000; stroke-width: 0.8"/>
      </g>
     </g>
     <g id="text_3">
      <!-- 67 -->
      <g transform="translate(139.133104 322.182437) scale(0.1 -0.1)">
       <defs>
        <path id="DejaVuSans-36" d="M 2113 2584 
Q 1688 2584 1439 2293 
Q 1191 2003 1191 1497 
Q 1191 994 1439 701 
Q 1688 409 2113 409 
Q 2538 409 2786 701 
Q 3034 994 3034 1497 
Q 3034 2003 2786 2293 
Q 2538 2584 2113 2584 
z
M 3366 4563 
L 3366 3988 
Q 3128 4100 2886 4159 
Q 2644 4219 2406 4219 
Q 1781 4219 1451 3797 
Q 1122 3375 1075 2522 
Q 1259 2794 1537 2939 
Q 1816 3084 2150 3084 
Q 2853 3084 3261 2657 
Q 3669 2231 3669 1497 
Q 3669 778 3244 343 
Q 2819 -91 2113 -91 
Q 1303 -91 875 529 
Q 447 1150 447 2328 
Q 447 3434 972 4092 
Q 1497 4750 2381 4750 
Q 2619 4750 2861 4703 
Q 3103 4656 3366 4563 
z
" transform="scale(0.015625)"/>
        <path id="DejaVuSans-37" d="M 525 4666 
L 3525 4666 
L 3525 4397 
L 1831 0 
L 1172 0 
L 2766 4134 
L 525 4134 
L 525 4666 
z
" transform="scale(0.015625)"/>
       </defs>
       <use xlink:href="#DejaVuSans-36"/>
       <use xlink:href="#DejaVuSans-37" x="63.623047"/>
      </g>
     </g>
    </g>
    <g id="xtick_4">
     <g id="line2d_4">
      <g>
       <use xlink:href="#m8a82c280f1" x="181.327042" y="307.584" style="stroke: #000000; stroke-width: 0.8"/>
      </g>
     </g>
     <g id="text_4">
      <!-- 100 -->
      <g transform="translate(171.783292 322.182437) scale(0.1 -0.1)">
       <defs>
        <path id="DejaVuSans-30" d="M 2034 4250 
Q 1547 4250 1301 3770 
Q 1056 3291 1056 2328 
Q 1056 1369 1301 889 
Q 1547 409 2034 409 
Q 2525 409 2770 889 
Q 3016 1369 3016 2328 
Q 3016 3291 2770 3770 
Q 2525 4250 2034 4250 
z
M 2034 4750 
Q 2819 4750 3233 4129 
Q 3647 3509 3647 2328 
Q 3647 1150 3233 529 
Q 2819 -91 2034 -91 
Q 1250 -91 836 529 
Q 422 1150 422 2328 
Q 422 3509 836 4129 
Q 1250 4750 2034 4750 
z
" transform="scale(0.015625)"/>
       </defs>
       <use xlink:href="#DejaVuSans-31"/>
       <use xlink:href="#DejaVuSans-30" x="63.623047"/>
       <use xlink:href="#DejaVuSans-30" x="127.246094"/>
      </g>
     </g>
    </g>
    <g id="xtick_5">
     <g id="line2d_5">
      <g>
       <use xlink:href="#m8a82c280f1" x="217.15848" y="307.584" style="stroke: #000000; stroke-width: 0.8"/>
      </g>
     </g>
     <g id="text_5">
      <!-- 133 -->
      <g transform="translate(207.61473 322.182437) scale(0.1 -0.1)">
       <use xlink:href="#DejaVuSans-31"/>
       <use xlink:href="#DejaVuSans-33" x="63.623047"/>
       <use xlink:href="#DejaVuSans-33" x="127.246094"/>
      </g>
     </g>
    </g>
    <g id="xtick_6">
     <g id="line2d_6">
      <g>
       <use xlink:href="#m8a82c280f1" x="254.075719" y="307.584" style="stroke: #000000; stroke-width: 0.8"/>
      </g>
     </g>
     <g id="text_6">
      <!-- 167 -->
      <g transform="translate(244.531969 322.182437) scale(0.1 -0.1)">
       <use xlink:href="#DejaVuSans-31"/>
       <use xlink:href="#DejaVuSans-36" x="63.623047"/>
       <use xlink:href="#DejaVuSans-37" x="127.246094"/>
      </g>
     </g>
    </g>
    <g id="xtick_7">
     <g id="line2d_7">
      <g>
       <use xlink:href="#m8a82c280f1" x="289.907157" y="307.584" style="stroke: #000000; stroke-width: 0.8"/>
      </g>
     </g>
     <g id="text_7">
      <!-- 200 -->
      <g transform="translate(280.363407 322.182437) scale(0.1 -0.1)">
       <defs>
        <path id="DejaVuSans-32" d="M 1228 531 
L 3431 531 
L 3431 0 
L 469 0 
L 469 531 
Q 828 903 1448 1529 
Q 2069 2156 2228 2338 
Q 2531 2678 2651 2914 
Q 2772 3150 2772 3378 
Q 2772 3750 2511 3984 
Q 2250 4219 1831 4219 
Q 1534 4219 1204 4116 
Q 875 4013 500 3803 
L 500 4441 
Q 881 4594 1212 4672 
Q 1544 4750 1819 4750 
Q 2544 4750 2975 4387 
Q 3406 4025 3406 3419 
Q 3406 3131 3298 2873 
Q 3191 2616 2906 2266 
Q 2828 2175 2409 1742 
Q 1991 1309 1228 531 
z
" transform="scale(0.015625)"/>
       </defs>
       <use xlink:href="#DejaVuSans-32"/>
       <use xlink:href="#DejaVuSans-30" x="63.623047"/>
       <use xlink:href="#DejaVuSans-30" x="127.246094"/>
      </g>
     </g>
    </g>
    <g id="xtick_8">
     <g id="line2d_8">
      <g>
       <use xlink:href="#m8a82c280f1" x="325.738595" y="307.584" style="stroke: #000000; stroke-width: 0.8"/>
      </g>
     </g>
     <g id="text_8">
      <!-- 233 -->
      <g transform="translate(316.194845 322.182437) scale(0.1 -0.1)">
       <use xlink:href="#DejaVuSans-32"/>
       <use xlink:href="#DejaVuSans-33" x="63.623047"/>
       <use xlink:href="#DejaVuSans-33" x="127.246094"/>
      </g>
     </g>
    </g>
    <g id="xtick_9">
     <g id="line2d_9">
      <g>
       <use xlink:href="#m8a82c280f1" x="361.570033" y="307.584" style="stroke: #000000; stroke-width: 0.8"/>
      </g>
     </g>
     <g id="text_9">
      <!-- 266 -->
      <g transform="translate(352.026283 322.182437) scale(0.1 -0.1)">
       <use xlink:href="#DejaVuSans-32"/>
       <use xlink:href="#DejaVuSans-36" x="63.623047"/>
       <use xlink:href="#DejaVuSans-36" x="127.246094"/>
      </g>
     </g>
    </g>
    <g id="xtick_10">
     <g id="line2d_10">
      <g>
       <use xlink:href="#m8a82c280f1" x="398.487273" y="307.584" style="stroke: #000000; stroke-width: 0.8"/>
      </g>
     </g>
     <g id="text_10">
      <!-- 300 -->
      <g transform="translate(388.943523 322.182437) scale(0.1 -0.1)">
       <use xlink:href="#DejaVuSans-33"/>
       <use xlink:href="#DejaVuSans-30" x="63.623047"/>
       <use xlink:href="#DejaVuSans-30" x="127.246094"/>
      </g>
     </g>
    </g>
    <g id="text_11">
     <!-- Epochs -->
     <g transform="translate(218.244375 335.860562) scale(0.1 -0.1)">
      <defs>
       <path id="DejaVuSans-45" d="M 628 4666 
L 3578 4666 
L 3578 4134 
L 1259 4134 
L 1259 2753 
L 3481 2753 
L 3481 2222 
L 1259 2222 
L 1259 531 
L 3634 531 
L 3634 0 
L 628 0 
L 628 4666 
z
" transform="scale(0.015625)"/>
       <path id="DejaVuSans-70" d="M 1159 525 
L 1159 -1331 
L 581 -1331 
L 581 3500 
L 1159 3500 
L 1159 2969 
Q 1341 3281 1617 3432 
Q 1894 3584 2278 3584 
Q 2916 3584 3314 3078 
Q 3713 2572 3713 1747 
Q 3713 922 3314 415 
Q 2916 -91 2278 -91 
Q 1894 -91 1617 61 
Q 1341 213 1159 525 
z
M 3116 1747 
Q 3116 2381 2855 2742 
Q 2594 3103 2138 3103 
Q 1681 3103 1420 2742 
Q 1159 2381 1159 1747 
Q 1159 1113 1420 752 
Q 1681 391 2138 391 
Q 2594 391 2855 752 
Q 3116 1113 3116 1747 
z
" transform="scale(0.015625)"/>
       <path id="DejaVuSans-6f" d="M 1959 3097 
Q 1497 3097 1228 2736 
Q 959 2375 959 1747 
Q 959 1119 1226 758 
Q 1494 397 1959 397 
Q 2419 397 2687 759 
Q 2956 1122 2956 1747 
Q 2956 2369 2687 2733 
Q 2419 3097 1959 3097 
z
M 1959 3584 
Q 2709 3584 3137 3096 
Q 3566 2609 3566 1747 
Q 3566 888 3137 398 
Q 2709 -91 1959 -91 
Q 1206 -91 779 398 
Q 353 888 353 1747 
Q 353 2609 779 3096 
Q 1206 3584 1959 3584 
z
" transform="scale(0.015625)"/>
       <path id="DejaVuSans-63" d="M 3122 3366 
L 3122 2828 
Q 2878 2963 2633 3030 
Q 2388 3097 2138 3097 
Q 1578 3097 1268 2742 
Q 959 2388 959 1747 
Q 959 1106 1268 751 
Q 1578 397 2138 397 
Q 2388 397 2633 464 
Q 2878 531 3122 666 
L 3122 134 
Q 2881 22 2623 -34 
Q 2366 -91 2075 -91 
Q 1284 -91 818 406 
Q 353 903 353 1747 
Q 353 2603 823 3093 
Q 1294 3584 2113 3584 
Q 2378 3584 2631 3529 
Q 2884 3475 3122 3366 
z
" transform="scale(0.015625)"/>
       <path id="DejaVuSans-68" d="M 3513 2113 
L 3513 0 
L 2938 0 
L 2938 2094 
Q 2938 2591 2744 2837 
Q 2550 3084 2163 3084 
Q 1697 3084 1428 2787 
Q 1159 2491 1159 1978 
L 1159 0 
L 581 0 
L 581 4863 
L 1159 4863 
L 1159 2956 
Q 1366 3272 1645 3428 
Q 1925 3584 2291 3584 
Q 2894 3584 3203 3211 
Q 3513 2838 3513 2113 
z
" transform="scale(0.015625)"/>
       <path id="DejaVuSans-73" d="M 2834 3397 
L 2834 2853 
Q 2591 2978 2328 3040 
Q 2066 3103 1784 3103 
Q 1356 3103 1142 2972 
Q 928 2841 928 2578 
Q 928 2378 1081 2264 
Q 1234 2150 1697 2047 
L 1894 2003 
Q 2506 1872 2764 1633 
Q 3022 1394 3022 966 
Q 3022 478 2636 193 
Q 2250 -91 1575 -91 
Q 1294 -91 989 -36 
Q 684 19 347 128 
L 347 722 
Q 666 556 975 473 
Q 1284 391 1588 391 
Q 1994 391 2212 530 
Q 2431 669 2431 922 
Q 2431 1156 2273 1281 
Q 2116 1406 1581 1522 
L 1381 1569 
Q 847 1681 609 1914 
Q 372 2147 372 2553 
Q 372 3047 722 3315 
Q 1072 3584 1716 3584 
Q 2034 3584 2315 3537 
Q 2597 3491 2834 3397 
z
" transform="scale(0.015625)"/>
      </defs>
      <use xlink:href="#DejaVuSans-45"/>
      <use xlink:href="#DejaVuSans-70" x="63.183594"/>
      <use xlink:href="#DejaVuSans-6f" x="126.660156"/>
      <use xlink:href="#DejaVuSans-63" x="187.841797"/>
      <use xlink:href="#DejaVuSans-68" x="242.822266"/>
      <use xlink:href="#DejaVuSans-73" x="306.201172"/>
     </g>
    </g>
   </g>
   <g id="matplotlib.axis_2">
    <g id="ytick_1">
     <g id="line2d_11">
      <defs>
       <path id="m1d8d7b53ac" d="M 0 0 
L -3.5 0 
" style="stroke: #000000; stroke-width: 0.8"/>
      </defs>
      <g>
       <use xlink:href="#m1d8d7b53ac" x="57.6" y="286.022988" style="stroke: #000000; stroke-width: 0.8"/>
      </g>
     </g>
     <g id="text_12">
      <!-- 10 -->
      <g transform="translate(37.875 289.822207) scale(0.1 -0.1)">
       <use xlink:href="#DejaVuSans-31"/>
       <use xlink:href="#DejaVuSans-30" x="63.623047"/>
      </g>
     </g>
    </g>
    <g id="ytick_2">
     <g id="line2d_12">
      <g>
       <use xlink:href="#m1d8d7b53ac" x="57.6" y="248.704801" style="stroke: #000000; stroke-width: 0.8"/>
      </g>
     </g>
     <g id="text_13">
      <!-- 20 -->
      <g transform="translate(37.875 252.50402) scale(0.1 -0.1)">
       <use xlink:href="#DejaVuSans-32"/>
       <use xlink:href="#DejaVuSans-30" x="63.623047"/>
      </g>
     </g>
    </g>
    <g id="ytick_3">
     <g id="line2d_13">
      <g>
       <use xlink:href="#m1d8d7b53ac" x="57.6" y="211.386614" style="stroke: #000000; stroke-width: 0.8"/>
      </g>
     </g>
     <g id="text_14">
      <!-- 30 -->
      <g transform="translate(37.875 215.185832) scale(0.1 -0.1)">
       <use xlink:href="#DejaVuSans-33"/>
       <use xlink:href="#DejaVuSans-30" x="63.623047"/>
      </g>
     </g>
    </g>
    <g id="ytick_4">
     <g id="line2d_14">
      <g>
       <use xlink:href="#m1d8d7b53ac" x="57.6" y="174.068427" style="stroke: #000000; stroke-width: 0.8"/>
      </g>
     </g>
     <g id="text_15">
      <!-- 40 -->
      <g transform="translate(37.875 177.867645) scale(0.1 -0.1)">
       <use xlink:href="#DejaVuSans-34"/>
       <use xlink:href="#DejaVuSans-30" x="63.623047"/>
      </g>
     </g>
    </g>
    <g id="ytick_5">
     <g id="line2d_15">
      <g>
       <use xlink:href="#m1d8d7b53ac" x="57.6" y="136.750239" style="stroke: #000000; stroke-width: 0.8"/>
      </g>
     </g>
     <g id="text_16">
      <!-- 50 -->
      <g transform="translate(37.875 140.549458) scale(0.1 -0.1)">
       <defs>
        <path id="DejaVuSans-35" d="M 691 4666 
L 3169 4666 
L 3169 4134 
L 1269 4134 
L 1269 2991 
Q 1406 3038 1543 3061 
Q 1681 3084 1819 3084 
Q 2600 3084 3056 2656 
Q 3513 2228 3513 1497 
Q 3513 744 3044 326 
Q 2575 -91 1722 -91 
Q 1428 -91 1123 -41 
Q 819 9 494 109 
L 494 744 
Q 775 591 1075 516 
Q 1375 441 1709 441 
Q 2250 441 2565 725 
Q 2881 1009 2881 1497 
Q 2881 1984 2565 2268 
Q 2250 2553 1709 2553 
Q 1456 2553 1204 2497 
Q 953 2441 691 2322 
L 691 4666 
z
" transform="scale(0.015625)"/>
       </defs>
       <use xlink:href="#DejaVuSans-35"/>
       <use xlink:href="#DejaVuSans-30" x="63.623047"/>
      </g>
     </g>
    </g>
    <g id="ytick_6">
     <g id="line2d_16">
      <g>
       <use xlink:href="#m1d8d7b53ac" x="57.6" y="99.432052" style="stroke: #000000; stroke-width: 0.8"/>
      </g>
     </g>
     <g id="text_17">
      <!-- 60 -->
      <g transform="translate(37.875 103.231271) scale(0.1 -0.1)">
       <use xlink:href="#DejaVuSans-36"/>
       <use xlink:href="#DejaVuSans-30" x="63.623047"/>
      </g>
     </g>
    </g>
    <g id="ytick_7">
     <g id="line2d_17">
      <g>
       <use xlink:href="#m1d8d7b53ac" x="57.6" y="62.113865" style="stroke: #000000; stroke-width: 0.8"/>
      </g>
     </g>
     <g id="text_18">
      <!-- 70 -->
      <g transform="translate(37.875 65.913084) scale(0.1 -0.1)">
       <use xlink:href="#DejaVuSans-37"/>
       <use xlink:href="#DejaVuSans-30" x="63.623047"/>
      </g>
     </g>
    </g>
    <g id="text_19">
     <!-- Accuracy -->
     <g transform="translate(31.795312 197.356125) rotate(-90) scale(0.1 -0.1)">
      <defs>
       <path id="DejaVuSans-41" d="M 2188 4044 
L 1331 1722 
L 3047 1722 
L 2188 4044 
z
M 1831 4666 
L 2547 4666 
L 4325 0 
L 3669 0 
L 3244 1197 
L 1141 1197 
L 716 0 
L 50 0 
L 1831 4666 
z
" transform="scale(0.015625)"/>
       <path id="DejaVuSans-75" d="M 544 1381 
L 544 3500 
L 1119 3500 
L 1119 1403 
Q 1119 906 1312 657 
Q 1506 409 1894 409 
Q 2359 409 2629 706 
Q 2900 1003 2900 1516 
L 2900 3500 
L 3475 3500 
L 3475 0 
L 2900 0 
L 2900 538 
Q 2691 219 2414 64 
Q 2138 -91 1772 -91 
Q 1169 -91 856 284 
Q 544 659 544 1381 
z
M 1991 3584 
L 1991 3584 
z
" transform="scale(0.015625)"/>
       <path id="DejaVuSans-72" d="M 2631 2963 
Q 2534 3019 2420 3045 
Q 2306 3072 2169 3072 
Q 1681 3072 1420 2755 
Q 1159 2438 1159 1844 
L 1159 0 
L 581 0 
L 581 3500 
L 1159 3500 
L 1159 2956 
Q 1341 3275 1631 3429 
Q 1922 3584 2338 3584 
Q 2397 3584 2469 3576 
Q 2541 3569 2628 3553 
L 2631 2963 
z
" transform="scale(0.015625)"/>
       <path id="DejaVuSans-61" d="M 2194 1759 
Q 1497 1759 1228 1600 
Q 959 1441 959 1056 
Q 959 750 1161 570 
Q 1363 391 1709 391 
Q 2188 391 2477 730 
Q 2766 1069 2766 1631 
L 2766 1759 
L 2194 1759 
z
M 3341 1997 
L 3341 0 
L 2766 0 
L 2766 531 
Q 2569 213 2275 61 
Q 1981 -91 1556 -91 
Q 1019 -91 701 211 
Q 384 513 384 1019 
Q 384 1609 779 1909 
Q 1175 2209 1959 2209 
L 2766 2209 
L 2766 2266 
Q 2766 2663 2505 2880 
Q 2244 3097 1772 3097 
Q 1472 3097 1187 3025 
Q 903 2953 641 2809 
L 641 3341 
Q 956 3463 1253 3523 
Q 1550 3584 1831 3584 
Q 2591 3584 2966 3190 
Q 3341 2797 3341 1997 
z
" transform="scale(0.015625)"/>
       <path id="DejaVuSans-79" d="M 2059 -325 
Q 1816 -950 1584 -1140 
Q 1353 -1331 966 -1331 
L 506 -1331 
L 506 -850 
L 844 -850 
Q 1081 -850 1212 -737 
Q 1344 -625 1503 -206 
L 1606 56 
L 191 3500 
L 800 3500 
L 1894 763 
L 2988 3500 
L 3597 3500 
L 2059 -325 
z
" transform="scale(0.015625)"/>
      </defs>
      <use xlink:href="#DejaVuSans-41"/>
      <use xlink:href="#DejaVuSans-63" x="66.658203"/>
      <use xlink:href="#DejaVuSans-63" x="121.638672"/>
      <use xlink:href="#DejaVuSans-75" x="176.619141"/>
      <use xlink:href="#DejaVuSans-72" x="239.998047"/>
      <use xlink:href="#DejaVuSans-61" x="281.111328"/>
      <use xlink:href="#DejaVuSans-63" x="342.390625"/>
      <use xlink:href="#DejaVuSans-79" x="397.371094"/>
     </g>
    </g>
   </g>
   <g id="line2d_18">
    <path d="M 73.832727 295.488 
L 74.918528 260.833212 
L 76.00433 240.598171 
L 77.090131 224.900649 
L 78.175932 213.034958 
L 80.347534 196.320142 
L 81.433335 189.175948 
L 82.519137 182.984861 
L 84.690739 172.623093 
L 85.77654 167.606036 
L 86.862341 163.961542 
L 87.948142 158.988147 
L 89.033943 156.359827 
L 90.119745 151.85179 
L 92.291347 145.933126 
L 93.377148 144.459057 
L 94.462949 143.369366 
L 95.54875 175.730205 
L 96.634552 174.433025 
L 99.891955 165.292308 
L 100.977756 163.392813 
L 102.063557 161.021988 
L 103.149358 157.300245 
L 104.23516 155.235057 
L 105.320961 154.555866 
L 106.406762 151.100202 
L 107.492563 149.153685 
L 109.664165 144.718792 
L 111.835768 140.865316 
L 112.921569 138.366117 
L 114.00737 137.111106 
L 116.178972 133.056858 
L 117.264773 130.559152 
L 118.350575 129.073888 
L 119.436376 127.149389 
L 120.522177 124.345674 
L 121.607978 123.666483 
L 122.693779 121.270655 
L 123.77958 119.647314 
L 125.951183 115.531118 
L 127.036984 114.565697 
L 128.122785 112.188528 
L 129.208586 111.377604 
L 130.294387 109.831511 
L 131.380189 109.25905 
L 132.46599 106.859491 
L 133.551791 106.308674 
L 134.637592 106.699023 
L 135.723393 105.45782 
L 136.809194 105.474986 
L 137.894995 104.598009 
L 138.980797 142.553217 
L 140.066598 144.063484 
L 141.152399 143.534686 
L 143.324001 142.150181 
L 145.495604 139.307655 
L 146.581405 139.261753 
L 147.667206 137.67573 
L 149.838808 136.495356 
L 150.924609 135.25378 
L 152.01041 134.797379 
L 154.182013 131.876484 
L 155.267814 131.976124 
L 156.353615 130.972264 
L 157.439416 130.428538 
L 158.525217 128.715634 
L 159.611019 128.727949 
L 160.69682 127.374791 
L 161.782621 126.552298 
L 162.868422 125.419318 
L 165.040024 124.962544 
L 166.125825 123.828071 
L 167.211627 124.469943 
L 168.297428 122.44991 
L 170.46903 121.597936 
L 171.554831 120.430996 
L 172.640632 118.755409 
L 173.726434 118.978199 
L 174.812235 117.039892 
L 175.898036 116.325995 
L 176.983837 116.317412 
L 178.069638 114.873198 
L 179.155439 113.17746 
L 180.24124 113.737233 
L 181.327042 111.994473 
L 182.412843 111.355213 
L 183.498644 110.123713 
L 184.584445 109.273978 
L 185.670246 107.883502 
L 186.756047 107.373362 
L 187.841849 107.107284 
L 188.92765 105.458939 
L 190.013451 104.564422 
L 191.099252 103.994947 
L 192.185053 102.36041 
L 193.270854 101.679727 
L 194.356656 101.397601 
L 195.442457 100.607575 
L 197.614059 98.394606 
L 198.69986 98.03884 
L 199.785661 96.340862 
L 200.871462 96.442865 
L 201.957264 94.946406 
L 203.043065 93.721126 
L 204.128866 92.786927 
L 205.214667 92.657557 
L 206.300468 91.173537 
L 207.386269 90.766769 
L 208.472071 89.857449 
L 209.557872 88.567484 
L 210.643673 88.495335 
L 211.729474 88.282622 
L 212.815275 87.242688 
L 213.901076 85.936552 
L 214.986877 86.269927 
L 216.072679 84.395311 
L 217.15848 84.875471 
L 218.244281 84.406506 
L 219.330082 84.124132 
L 220.415883 84.486118 
L 221.501684 83.349157 
L 223.673287 83.484747 
L 224.759088 83.946248 
L 225.844889 129.445826 
L 226.93069 132.799487 
L 228.016491 132.443721 
L 229.102292 131.886436 
L 230.188094 130.729572 
L 231.273895 129.981964 
L 232.359696 129.480656 
L 233.445497 128.607411 
L 234.531298 128.624826 
L 235.617099 127.374667 
L 236.702901 126.717867 
L 237.788702 126.510129 
L 238.874503 127.229126 
L 239.960304 125.715251 
L 241.046105 125.2948 
L 242.131906 124.600681 
L 243.217708 124.305868 
L 244.303509 122.958681 
L 245.38931 123.329375 
L 246.475111 123.478648 
L 247.560912 122.602915 
L 248.646713 122.839263 
L 249.732514 121.861527 
L 250.818316 122.578036 
L 251.904117 121.820477 
L 252.989918 120.661125 
L 254.075719 121.080332 
L 255.16152 120.124987 
L 256.247321 120.419801 
L 258.418924 119.154714 
L 259.504725 119.243034 
L 260.590526 118.767849 
L 262.762128 118.130952 
L 263.847929 117.72294 
L 264.933731 117.495299 
L 266.019532 117.712988 
L 267.105333 117.082311 
L 268.191134 116.946721 
L 269.276935 116.623297 
L 270.362736 115.497532 
L 271.448538 115.69905 
L 272.534339 115.355723 
L 273.62014 115.185303 
L 274.705941 115.278598 
L 275.791742 114.595675 
L 276.877543 114.149101 
L 277.963344 114.13293 
L 279.049146 113.157681 
L 280.134947 113.203707 
L 281.220748 112.912625 
L 282.306549 111.75203 
L 283.39235 112.581737 
L 284.478151 111.783128 
L 285.563953 112.225971 
L 286.649754 111.571658 
L 287.735555 111.260673 
L 288.821356 110.18591 
L 289.907157 110.893711 
L 290.992958 110.041613 
L 292.07876 108.86609 
L 293.164561 109.050193 
L 295.336163 108.180679 
L 296.421964 107.420632 
L 297.507765 107.282555 
L 298.593566 106.865835 
L 299.679368 107.042474 
L 300.765169 106.680488 
L 301.85097 106.614559 
L 302.936771 106.31477 
L 304.022572 104.851897 
L 305.108373 104.514789 
L 306.194175 104.544644 
L 307.279976 104.278441 
L 308.365777 104.140363 
L 309.451578 103.690057 
L 310.537379 103.398975 
L 311.62318 102.856618 
L 312.708981 102.783225 
L 313.794783 101.372598 
L 314.880584 101.513163 
L 315.966385 100.081389 
L 317.052186 100.525475 
L 318.137987 100.67226 
L 319.223788 100.073925 
L 320.30959 99.111116 
L 321.395391 99.055138 
L 322.481192 97.549972 
L 323.566993 97.817419 
L 324.652794 97.554947 
L 325.738595 96.900635 
L 326.824396 96.913074 
L 327.910198 95.543497 
L 328.995999 95.349442 
L 330.0818 94.622982 
L 331.167601 94.620494 
L 332.253402 93.768395 
L 333.339203 93.349188 
L 334.425005 93.102888 
L 335.510806 92.141322 
L 336.596607 92.5257 
L 337.682408 92.514504 
L 338.768209 91.138707 
L 339.85401 91.080242 
L 343.111414 89.563879 
L 344.197215 88.797613 
L 345.283016 89.25787 
L 346.368817 88.072396 
L 347.454618 87.98532 
L 348.54042 86.500056 
L 349.626221 85.865647 
L 350.712022 86.13185 
L 351.797823 85.177749 
L 352.883624 85.320802 
L 355.055227 83.411354 
L 356.141028 83.718607 
L 357.226829 82.854069 
L 358.31263 82.541841 
L 359.398431 83.090418 
L 361.570033 80.623686 
L 362.655835 80.389825 
L 363.741636 80.439583 
L 364.827437 80.175867 
L 365.913238 79.731781 
L 366.999039 79.032687 
L 368.08484 79.244157 
L 369.170642 81.223265 
L 370.256443 82.502034 
L 371.342244 84.100497 
L 372.428045 85.991285 
L 373.513846 86.006212 
L 374.599647 86.955338 
L 376.77125 86.95285 
L 377.857051 87.589747 
L 378.942852 86.208974 
L 380.028653 86.544838 
L 381.114454 87.357131 
L 382.200255 87.400669 
L 383.286057 86.620718 
L 384.371858 87.546209 
L 385.457659 87.302397 
L 386.54346 86.837164 
L 387.629261 88.232864 
L 388.715062 87.409376 
L 389.800863 88.435626 
L 390.886665 87.94427 
L 391.972466 87.587259 
L 393.058267 87.854706 
L 394.144068 87.669359 
L 396.31567 88.107226 
L 397.401472 88.211717 
L 398.487273 88.074884 
L 398.487273 88.074884 
" clip-path="url(#p756f793a65)" style="fill: none; stroke: #1f77b4; stroke-width: 1.5; stroke-linecap: square"/>
   </g>
   <g id="line2d_19">
    <path d="M 73.832727 262.92303 
L 74.918528 223.40307 
L 76.00433 200.191158 
L 77.090131 183.286019 
L 78.175932 175.561154 
L 79.261733 164.216425 
L 80.347534 160.484606 
L 81.433335 148.953287 
L 82.519137 142.646513 
L 83.604938 135.518739 
L 84.690739 131.264466 
L 85.77654 125.853329 
L 86.862341 119.807782 
L 87.948142 115.814736 
L 89.033943 111.075327 
L 90.119745 108.313781 
L 91.205546 105.925417 
L 93.377148 103.760962 
L 94.462949 102.268234 
L 95.54875 136.041194 
L 96.634552 135.369466 
L 97.720353 125.218919 
L 98.806154 132.794511 
L 99.891955 123.091783 
L 100.977756 121.151237 
L 102.063557 116.934282 
L 103.149358 118.538964 
L 105.320961 109.35869 
L 106.406762 108.239144 
L 107.492563 108.089872 
L 108.578364 107.044962 
L 109.664165 103.835598 
L 110.749967 98.461779 
L 111.835768 98.797643 
L 112.921569 96.707824 
L 114.00737 95.476324 
L 115.093171 90.513005 
L 116.178972 96.745143 
L 117.264773 89.132232 
L 118.350575 87.900732 
L 120.522177 86.818505 
L 121.607978 85.773596 
L 122.693779 83.310595 
L 123.77958 82.452277 
L 124.865382 78.720458 
L 125.951183 75.511094 
L 127.036984 75.921594 
L 128.122785 75.100594 
L 129.208586 73.981048 
L 130.294387 71.704639 
L 131.380189 70.585093 
L 132.46599 70.062639 
L 133.551791 70.286548 
L 134.637592 69.20432 
L 135.723393 70.137275 
L 137.894995 69.652139 
L 138.980797 104.61928 
L 140.066598 106.186644 
L 141.152399 104.61928 
L 142.2382 100.588916 
L 143.324001 100.402325 
L 144.409802 99.805234 
L 145.495604 99.357416 
L 146.581405 97.939325 
L 147.667206 101.783098 
L 148.753007 97.715415 
L 149.838808 101.74578 
L 150.924609 95.36437 
L 152.01041 99.655961 
L 153.096212 98.013961 
L 154.182013 94.468733 
L 155.267814 103.051916 
L 156.353615 94.729961 
L 157.439416 95.177779 
L 158.525217 89.281505 
L 159.611019 94.13287 
L 160.69682 91.371324 
L 161.782621 97.342234 
L 162.868422 88.98296 
L 163.954223 98.275188 
L 166.125825 87.452914 
L 167.211627 89.281505 
L 168.297428 90.62496 
L 169.383229 85.624323 
L 170.46903 89.580051 
L 171.554831 82.340322 
L 172.640632 86.893141 
L 173.726434 83.646459 
L 174.812235 86.333368 
L 175.898036 83.161322 
L 176.983837 81.332731 
L 178.069638 82.937413 
L 179.155439 82.862777 
L 180.24124 81.14614 
L 181.327042 76.779912 
L 182.412843 77.750185 
L 183.498644 79.392186 
L 184.584445 74.690094 
L 185.670246 74.76473 
L 186.756047 76.742594 
L 187.841849 78.459231 
L 188.92765 73.048094 
L 190.013451 72.339048 
L 191.099252 67.338411 
L 192.185053 71.368775 
L 193.270854 69.42823 
L 194.356656 68.868457 
L 195.442457 67.039866 
L 196.528258 68.308684 
L 197.614059 63.531956 
L 198.69986 67.525002 
L 199.785661 64.875411 
L 200.871462 64.987365 
L 201.957264 62.00191 
L 203.043065 62.599001 
L 204.128866 59.986728 
L 205.214667 62.300456 
L 206.300468 59.12841 
L 207.386269 58.531319 
L 208.472071 59.501592 
L 209.557872 58.979137 
L 210.643673 58.643273 
L 211.729474 58.158137 
L 212.815275 55.508546 
L 214.986877 56.740046 
L 216.072679 56.329546 
L 219.330082 56.366864 
L 220.415883 54.575591 
L 221.501684 55.098046 
L 222.587486 54.389 
L 223.673287 55.21 
L 224.759088 54.538273 
L 225.844889 99.842552 
L 226.93069 106.186644 
L 228.016491 99.133507 
L 229.102292 96.745143 
L 230.188094 105.02978 
L 231.273895 98.499097 
L 232.359696 97.00637 
L 233.445497 97.043688 
L 234.531298 95.439006 
L 235.617099 98.424461 
L 236.702901 100.253052 
L 237.788702 97.752734 
L 238.874503 97.00637 
L 239.960304 90.886187 
L 241.046105 89.020278 
L 242.131906 93.759688 
L 243.217708 94.207506 
L 244.303509 89.580051 
L 245.38931 90.363733 
L 246.475111 87.452914 
L 247.560912 91.072778 
L 248.646713 93.49846 
L 249.732514 86.109459 
L 250.818316 91.03546 
L 251.904117 85.288459 
L 252.989918 86.631914 
L 254.075719 108.985508 
L 255.16152 85.88555 
L 256.247321 92.043051 
L 257.333123 94.95387 
L 258.418924 87.415596 
L 259.504725 86.333368 
L 260.590526 87.340959 
L 261.676327 85.06455 
L 262.762128 86.519959 
L 263.847929 88.684414 
L 264.933731 85.027232 
L 266.019532 87.229005 
L 267.105333 90.139823 
L 268.191134 87.639505 
L 269.276935 82.414959 
L 270.362736 87.863414 
L 271.448538 85.213823 
L 272.534339 91.595233 
L 273.62014 92.640142 
L 274.705941 85.437732 
L 275.791742 92.714778 
L 276.877543 85.213823 
L 277.963344 91.744506 
L 279.049146 79.951958 
L 280.134947 84.877959 
L 281.220748 80.549049 
L 282.306549 80.623686 
L 283.39235 80.250504 
L 284.478151 81.295413 
L 285.563953 79.205595 
L 286.649754 85.213823 
L 287.735555 84.504777 
L 288.821356 86.967778 
L 289.907157 79.205595 
L 290.992958 79.168276 
L 292.07876 77.787504 
L 293.164561 78.608504 
L 294.250362 77.078458 
L 295.336163 80.026595 
L 296.421964 77.563594 
L 297.507765 80.884913 
L 298.593566 78.757776 
L 299.679368 74.316912 
L 300.765169 79.205595 
L 301.85097 77.377003 
L 302.936771 77.302367 
L 304.022572 77.936776 
L 305.108373 74.876685 
L 306.194175 78.944367 
L 307.279976 74.466185 
L 308.365777 75.772321 
L 309.451578 74.242276 
L 310.537379 77.638231 
L 311.62318 72.264412 
L 312.708981 76.929185 
L 313.794783 76.742594 
L 314.880584 69.540184 
L 315.966385 72.488321 
L 317.052186 78.309958 
L 318.137987 75.100594 
L 319.223788 71.256821 
L 320.30959 70.099957 
L 321.395391 73.645185 
L 322.481192 73.495912 
L 323.566993 71.294139 
L 324.652794 66.778638 
L 325.738595 71.443412 
L 326.824396 68.569911 
L 327.910198 70.174593 
L 328.995999 68.607229 
L 330.0818 67.301093 
L 331.167601 67.97282 
L 332.253402 67.860866 
L 333.339203 69.577502 
L 334.425005 66.144229 
L 335.510806 65.285911 
L 337.682408 62.263138 
L 338.768209 65.062002 
L 339.85401 65.09932 
L 340.939811 62.599001 
L 342.025613 62.561683 
L 343.111414 61.292865 
L 344.197215 61.815319 
L 345.283016 61.218228 
L 346.368817 59.94941 
L 347.454618 61.068956 
L 348.54042 63.569274 
L 349.626221 60.583819 
L 350.712022 59.725501 
L 351.797823 61.292865 
L 352.883624 58.158137 
L 353.969425 59.464274 
L 355.055227 55.695137 
L 356.141028 57.038591 
L 357.226829 56.142955 
L 358.31263 58.568637 
L 359.398431 54.762182 
L 360.484232 56.926637 
L 361.570033 55.172682 
L 363.741636 54.239727 
L 364.827437 53.568 
L 365.913238 56.180273 
L 366.999039 54.239727 
L 368.08484 55.508546 
L 369.170642 57.523728 
L 370.256443 58.755228 
L 371.342244 58.867183 
L 372.428045 62.972183 
L 373.513846 65.771047 
L 374.599647 62.41241 
L 375.685448 61.442138 
L 376.77125 62.897547 
L 377.857051 61.143592 
L 378.942852 62.487047 
L 380.028653 60.509183 
L 381.114454 65.285911 
L 382.200255 61.143592 
L 383.286057 62.151183 
L 384.371858 60.919683 
L 385.457659 62.487047 
L 386.54346 63.494638 
L 387.629261 60.957001 
L 388.715062 66.293502 
L 389.800863 63.793183 
L 390.886665 61.666047 
L 391.972466 60.957001 
L 393.058267 65.173956 
L 394.144068 63.643911 
L 395.229869 61.068956 
L 396.31567 61.927274 
L 398.487273 63.308047 
L 398.487273 63.308047 
" clip-path="url(#p756f793a65)" style="fill: none; stroke: #ff7f0e; stroke-width: 1.5; stroke-linecap: square"/>
   </g>
   <g id="line2d_20">
    <path d="M 73.832727 290.52692 
L 74.918528 273.257556 
L 76.00433 260.003255 
L 77.090131 253.646102 
L 78.175932 251.947751 
L 79.261733 244.947233 
L 80.347534 239.51669 
L 81.433335 233.494281 
L 82.519137 232.1818 
L 83.604938 225.722022 
L 84.690739 220.831847 
L 85.77654 219.184995 
L 86.862341 214.500816 
L 87.948142 215.169932 
L 89.033943 213.31671 
L 90.119745 208.555656 
L 91.205546 206.393813 
L 92.291347 205.827323 
L 93.377148 204.540592 
L 94.462949 202.893368 
L 95.54875 228.578729 
L 96.634552 228.16711 
L 97.720353 216.379414 
L 98.806154 217.228776 
L 99.891955 221.758458 
L 100.977756 217.897891 
L 102.063557 216.096542 
L 103.149358 215.015434 
L 104.23516 209.559142 
L 105.320961 208.298161 
L 106.406762 206.702435 
L 107.492563 209.224771 
L 108.578364 203.794229 
L 109.664165 205.518702 
L 110.749967 200.06241 
L 111.835768 202.558997 
L 112.921569 202.867618 
L 114.00737 198.466684 
L 115.093171 199.290297 
L 116.178972 201.632386 
L 117.264773 195.42973 
L 118.350575 193.834378 
L 119.436376 198.080814 
L 120.522177 194.812114 
L 121.607978 190.925798 
L 122.693779 192.367026 
L 123.77958 185.675502 
L 124.865382 183.51366 
L 125.951183 184.234274 
L 127.036984 181.068945 
L 128.122785 182.613172 
L 129.208586 183.51366 
L 130.294387 181.351817 
L 131.380189 177.568499 
L 132.46599 177.439752 
L 133.551791 179.704592 
L 134.637592 177.851744 
L 135.723393 178.572359 
L 137.894995 178.623858 
L 138.980797 206.110568 
L 140.066598 209.456517 
L 141.152399 204.128973 
L 142.2382 201.143518 
L 143.324001 197.540447 
L 144.409802 201.658136 
L 145.495604 198.106564 
L 146.581405 202.661995 
L 147.667206 204.720839 
L 148.753007 197.926317 
L 149.838808 206.496812 
L 150.924609 203.871477 
L 152.01041 204.000225 
L 153.096212 203.176613 
L 154.182013 189.407321 
L 155.267814 199.779538 
L 156.353615 200.216907 
L 157.439416 193.525383 
L 158.525217 192.985016 
L 159.611019 196.304842 
L 160.69682 192.470025 
L 161.782621 202.790742 
L 162.868422 194.657617 
L 163.954223 198.080814 
L 165.040024 192.72752 
L 166.125825 187.991842 
L 167.211627 188.300837 
L 168.297428 196.896708 
L 169.383229 193.602632 
L 170.46903 190.797423 
L 171.554831 189.870813 
L 172.640632 195.42973 
L 173.726434 189.433071 
L 174.812235 195.42973 
L 175.898036 187.348477 
L 176.983837 189.845063 
L 178.069638 188.275087 
L 179.155439 189.742065 
L 180.24124 189.613317 
L 181.327042 183.822654 
L 182.412843 179.395971 
L 183.498644 176.050022 
L 184.584445 179.42172 
L 185.670246 174.917788 
L 186.756047 180.065086 
L 187.841849 183.642407 
L 188.92765 183.565159 
L 191.099252 170.491105 
L 192.185053 173.759432 
L 193.270854 174.763291 
L 194.356656 174.377421 
L 195.442457 179.807591 
L 196.528258 178.031991 
L 197.614059 169.281404 
L 198.69986 178.237769 
L 199.785661 170.259398 
L 200.871462 171.700652 
L 201.957264 170.156451 
L 203.043065 165.909899 
L 204.128866 166.347422 
L 205.214667 168.792407 
L 206.300468 165.215008 
L 207.386269 164.339961 
L 208.472071 165.781215 
L 210.643673 164.339961 
L 211.729474 166.347422 
L 212.815275 161.86924 
L 213.901076 161.817766 
L 214.986877 164.056858 
L 217.15848 161.920713 
L 218.244281 162.847234 
L 219.330082 163.233284 
L 220.415883 160.736826 
L 221.501684 161.071403 
L 222.587486 160.891246 
L 223.673287 161.740556 
L 224.759088 160.376512 
L 225.844889 195.610028 
L 226.93069 212.879341 
L 228.016491 203.922976 
L 229.102292 199.31611 
L 230.188094 211.283667 
L 231.273895 202.455985 
L 232.359696 204.798023 
L 233.445497 199.31611 
L 234.531298 197.282913 
L 235.617099 196.768179 
L 236.702901 210.279936 
L 237.788702 201.683885 
L 238.874503 202.147145 
L 239.960304 192.856204 
L 241.046105 191.312003 
L 242.131906 203.82003 
L 243.217708 193.885671 
L 244.303509 200.294104 
L 245.38931 196.768179 
L 246.475111 190.231062 
L 247.560912 200.860311 
L 248.646713 195.301188 
L 249.732514 193.988617 
L 250.818316 196.021815 
L 251.904117 193.756987 
L 252.989918 192.49589 
L 254.075719 202.172882 
L 255.16152 189.536172 
L 256.247321 206.779748 
L 257.333123 204.103133 
L 258.418924 190.411219 
L 259.504725 186.576453 
L 260.590526 198.132223 
L 261.676327 189.742065 
L 262.762128 191.286266 
L 263.847929 194.477614 
L 264.933731 188.455231 
L 266.019532 198.029276 
L 267.105333 192.392943 
L 268.191134 190.694322 
L 269.276935 184.208679 
L 270.362736 199.702161 
L 271.448538 186.37056 
L 272.534339 195.455608 
L 273.62014 202.764826 
L 274.705941 188.352284 
L 275.791742 194.323194 
L 276.877543 187.400027 
L 277.963344 200.577208 
L 279.049146 194.271721 
L 280.134947 196.845389 
L 281.220748 186.98824 
L 282.306549 195.429872 
L 283.39235 185.958773 
L 284.478151 190.179589 
L 285.563953 191.440686 
L 286.649754 191.87821 
L 287.735555 187.271344 
L 288.821356 194.760718 
L 289.907157 181.24896 
L 290.992958 181.274697 
L 292.07876 185.186673 
L 293.164561 183.462315 
L 294.250362 175.741311 
L 295.336163 191.183319 
L 296.421964 188.789808 
L 297.507765 198.646957 
L 298.593566 182.587268 
L 299.679368 181.789431 
L 300.765169 181.480591 
L 301.85097 189.793539 
L 302.936771 189.124385 
L 305.108373 181.866641 
L 306.194175 189.356015 
L 307.279976 178.237769 
L 308.365777 180.24523 
L 309.451578 185.804353 
L 310.537379 179.061343 
L 312.708981 185.83009 
L 313.794783 182.304164 
L 314.880584 179.93639 
L 315.966385 179.498866 
L 317.052186 184.517519 
L 318.137987 177.723035 
L 319.223788 182.947581 
L 320.30959 176.384728 
L 321.395391 180.579807 
L 322.481192 178.623819 
L 323.566993 180.991594 
L 324.652794 167.84015 
L 325.738595 187.683131 
L 326.824396 183.539525 
L 327.910198 174.58316 
L 328.995999 173.193379 
L 330.0818 175.149367 
L 331.167601 178.881186 
L 332.253402 167.505573 
L 333.339203 177.517142 
L 335.510806 170.696921 
L 336.596607 169.281404 
L 337.682408 168.45783 
L 338.768209 170.079241 
L 339.85401 168.818144 
L 340.939811 173.88827 
L 342.025613 170.413818 
L 343.111414 167.351153 
L 344.197215 167.557046 
L 345.283016 167.53131 
L 346.368817 164.803221 
L 347.454618 166.784946 
L 348.54042 175.895731 
L 349.626221 164.391435 
L 350.712022 167.814413 
L 351.797823 170.079241 
L 352.883624 163.490651 
L 353.969425 161.86924 
L 355.055227 158.858048 
L 356.141028 166.810683 
L 357.226829 161.174349 
L 358.31263 163.361967 
L 359.398431 159.887515 
L 360.484232 161.534663 
L 361.570033 163.670807 
L 362.655835 161.94645 
L 363.741636 162.692814 
L 364.827437 160.170619 
L 365.913238 163.953911 
L 366.999039 156.618957 
L 368.08484 161.508926 
L 369.170642 167.222469 
L 370.256443 168.251937 
L 371.342244 161.766293 
L 373.513846 178.623819 
L 374.599647 169.410087 
L 375.685448 176.745041 
L 376.77125 171.469022 
L 377.857051 169.410087 
L 378.942852 179.344446 
L 380.028653 170.722658 
L 381.114454 175.741311 
L 382.200255 169.461561 
L 383.286057 166.810683 
L 384.371858 172.961749 
L 385.457659 163.413441 
L 386.54346 170.619711 
L 388.715062 172.189649 
L 389.800863 173.322063 
L 390.886665 171.417548 
L 391.972466 164.751748 
L 393.058267 174.094163 
L 394.144068 170.851341 
L 395.229869 171.597705 
L 396.31567 168.046043 
L 398.487273 173.42501 
L 398.487273 173.42501 
" clip-path="url(#p756f793a65)" style="fill: none; stroke: #2ca02c; stroke-width: 1.5; stroke-linecap: square"/>
   </g>
   <g id="line2d_21">
    <path d="M 368.08484 54.202409 
L 369.170642 54.650227 
L 370.256443 57.262501 
L 371.342244 58.382046 
L 372.428045 61.516774 
L 373.513846 60.695774 
L 374.599647 60.695774 
L 375.685448 59.240364 
L 376.77125 63.979774 
L 377.857051 62.785592 
L 378.942852 57.337137 
L 380.028653 56.66541 
L 381.114454 64.241002 
L 382.200255 59.53891 
L 383.286057 59.464274 
L 384.371858 61.442138 
L 385.457659 60.994319 
L 386.54346 68.980411 
L 387.629261 65.024683 
L 388.715062 62.561683 
L 389.800863 60.845047 
L 390.886665 72.824185 
L 391.972466 75.025958 
L 393.058267 69.42823 
L 394.144068 77.339685 
L 395.229869 72.600275 
L 396.31567 72.264412 
L 398.487273 67.860866 
L 398.487273 67.860866 
" clip-path="url(#p756f793a65)" style="fill: none; stroke: #d62728; stroke-width: 1.5; stroke-linecap: square"/>
   </g>
   <g id="line2d_22">
    <path d="M 368.08484 157.236637 
L 369.170642 159.449992 
L 370.256443 167.60852 
L 371.342244 164.468645 
L 372.428045 165.832689 
L 373.513846 166.347422 
L 374.599647 168.792407 
L 375.685448 162.10087 
L 376.77125 171.082972 
L 378.942852 161.766293 
L 380.028653 159.758832 
L 381.114454 168.251937 
L 382.200255 162.383973 
L 384.371858 171.674915 
L 385.457659 172.704382 
L 386.54346 180.70849 
L 387.629261 170.722658 
L 388.715062 166.347422 
L 389.800863 165.806952 
L 390.886665 178.881186 
L 391.972466 185.933036 
L 393.058267 172.086702 
L 394.144068 181.789431 
L 395.229869 176.204571 
L 396.31567 175.792784 
L 397.401472 177.774509 
L 398.487273 173.785323 
L 398.487273 173.785323 
" clip-path="url(#p756f793a65)" style="fill: none; stroke: #9467bd; stroke-width: 1.5; stroke-linecap: square"/>
   </g>
   <g id="patch_3">
    <path d="M 57.6 307.584 
L 57.6 41.472 
" style="fill: none; stroke: #000000; stroke-width: 0.8; stroke-linejoin: miter; stroke-linecap: square"/>
   </g>
   <g id="patch_4">
    <path d="M 414.72 307.584 
L 414.72 41.472 
" style="fill: none; stroke: #000000; stroke-width: 0.8; stroke-linejoin: miter; stroke-linecap: square"/>
   </g>
   <g id="patch_5">
    <path d="M 57.6 307.584 
L 414.72 307.584 
" style="fill: none; stroke: #000000; stroke-width: 0.8; stroke-linejoin: miter; stroke-linecap: square"/>
   </g>
   <g id="patch_6">
    <path d="M 57.6 41.472 
L 414.72 41.472 
" style="fill: none; stroke: #000000; stroke-width: 0.8; stroke-linejoin: miter; stroke-linecap: square"/>
   </g>
   <g id="text_20">
    <!-- Learning Curves -->
    <g transform="translate(187.37625 35.472) scale(0.12 -0.12)">
     <defs>
      <path id="DejaVuSans-4c" d="M 628 4666 
L 1259 4666 
L 1259 531 
L 3531 531 
L 3531 0 
L 628 0 
L 628 4666 
z
" transform="scale(0.015625)"/>
      <path id="DejaVuSans-65" d="M 3597 1894 
L 3597 1613 
L 953 1613 
Q 991 1019 1311 708 
Q 1631 397 2203 397 
Q 2534 397 2845 478 
Q 3156 559 3463 722 
L 3463 178 
Q 3153 47 2828 -22 
Q 2503 -91 2169 -91 
Q 1331 -91 842 396 
Q 353 884 353 1716 
Q 353 2575 817 3079 
Q 1281 3584 2069 3584 
Q 2775 3584 3186 3129 
Q 3597 2675 3597 1894 
z
M 3022 2063 
Q 3016 2534 2758 2815 
Q 2500 3097 2075 3097 
Q 1594 3097 1305 2825 
Q 1016 2553 972 2059 
L 3022 2063 
z
" transform="scale(0.015625)"/>
      <path id="DejaVuSans-6e" d="M 3513 2113 
L 3513 0 
L 2938 0 
L 2938 2094 
Q 2938 2591 2744 2837 
Q 2550 3084 2163 3084 
Q 1697 3084 1428 2787 
Q 1159 2491 1159 1978 
L 1159 0 
L 581 0 
L 581 3500 
L 1159 3500 
L 1159 2956 
Q 1366 3272 1645 3428 
Q 1925 3584 2291 3584 
Q 2894 3584 3203 3211 
Q 3513 2838 3513 2113 
z
" transform="scale(0.015625)"/>
      <path id="DejaVuSans-69" d="M 603 3500 
L 1178 3500 
L 1178 0 
L 603 0 
L 603 3500 
z
M 603 4863 
L 1178 4863 
L 1178 4134 
L 603 4134 
L 603 4863 
z
" transform="scale(0.015625)"/>
      <path id="DejaVuSans-67" d="M 2906 1791 
Q 2906 2416 2648 2759 
Q 2391 3103 1925 3103 
Q 1463 3103 1205 2759 
Q 947 2416 947 1791 
Q 947 1169 1205 825 
Q 1463 481 1925 481 
Q 2391 481 2648 825 
Q 2906 1169 2906 1791 
z
M 3481 434 
Q 3481 -459 3084 -895 
Q 2688 -1331 1869 -1331 
Q 1566 -1331 1297 -1286 
Q 1028 -1241 775 -1147 
L 775 -588 
Q 1028 -725 1275 -790 
Q 1522 -856 1778 -856 
Q 2344 -856 2625 -561 
Q 2906 -266 2906 331 
L 2906 616 
Q 2728 306 2450 153 
Q 2172 0 1784 0 
Q 1141 0 747 490 
Q 353 981 353 1791 
Q 353 2603 747 3093 
Q 1141 3584 1784 3584 
Q 2172 3584 2450 3431 
Q 2728 3278 2906 2969 
L 2906 3500 
L 3481 3500 
L 3481 434 
z
" transform="scale(0.015625)"/>
      <path id="DejaVuSans-20" transform="scale(0.015625)"/>
      <path id="DejaVuSans-43" d="M 4122 4306 
L 4122 3641 
Q 3803 3938 3442 4084 
Q 3081 4231 2675 4231 
Q 1875 4231 1450 3742 
Q 1025 3253 1025 2328 
Q 1025 1406 1450 917 
Q 1875 428 2675 428 
Q 3081 428 3442 575 
Q 3803 722 4122 1019 
L 4122 359 
Q 3791 134 3420 21 
Q 3050 -91 2638 -91 
Q 1578 -91 968 557 
Q 359 1206 359 2328 
Q 359 3453 968 4101 
Q 1578 4750 2638 4750 
Q 3056 4750 3426 4639 
Q 3797 4528 4122 4306 
z
" transform="scale(0.015625)"/>
      <path id="DejaVuSans-76" d="M 191 3500 
L 800 3500 
L 1894 563 
L 2988 3500 
L 3597 3500 
L 2284 0 
L 1503 0 
L 191 3500 
z
" transform="scale(0.015625)"/>
     </defs>
     <use xlink:href="#DejaVuSans-4c"/>
     <use xlink:href="#DejaVuSans-65" x="53.962891"/>
     <use xlink:href="#DejaVuSans-61" x="115.486328"/>
     <use xlink:href="#DejaVuSans-72" x="176.765625"/>
     <use xlink:href="#DejaVuSans-6e" x="216.128906"/>
     <use xlink:href="#DejaVuSans-69" x="279.507812"/>
     <use xlink:href="#DejaVuSans-6e" x="307.291016"/>
     <use xlink:href="#DejaVuSans-67" x="370.669922"/>
     <use xlink:href="#DejaVuSans-20" x="434.146484"/>
     <use xlink:href="#DejaVuSans-43" x="465.933594"/>
     <use xlink:href="#DejaVuSans-75" x="535.757812"/>
     <use xlink:href="#DejaVuSans-72" x="599.136719"/>
     <use xlink:href="#DejaVuSans-76" x="640.25"/>
     <use xlink:href="#DejaVuSans-65" x="699.429688"/>
     <use xlink:href="#DejaVuSans-73" x="760.953125"/>
    </g>
   </g>
   <g id="legend_1">
    <g id="patch_7">
     <path d="M 214.18875 302.584 
L 407.72 302.584 
Q 409.72 302.584 409.72 300.584 
L 409.72 228.193375 
Q 409.72 226.193375 407.72 226.193375 
L 214.18875 226.193375 
Q 212.18875 226.193375 212.18875 228.193375 
L 212.18875 300.584 
Q 212.18875 302.584 214.18875 302.584 
z
" style="fill: #ffffff; opacity: 0.8; stroke: #cccccc; stroke-linejoin: miter"/>
    </g>
    <g id="line2d_23">
     <path d="M 216.18875 234.291812 
L 226.18875 234.291812 
L 236.18875 234.291812 
" style="fill: none; stroke: #1f77b4; stroke-width: 1.5; stroke-linecap: square"/>
    </g>
    <g id="text_21">
     <!-- Train Accuracy -->
     <g transform="translate(244.18875 237.791812) scale(0.1 -0.1)">
      <defs>
       <path id="DejaVuSans-54" d="M -19 4666 
L 3928 4666 
L 3928 4134 
L 2272 4134 
L 2272 0 
L 1638 0 
L 1638 4134 
L -19 4134 
L -19 4666 
z
" transform="scale(0.015625)"/>
      </defs>
      <use xlink:href="#DejaVuSans-54"/>
      <use xlink:href="#DejaVuSans-72" x="46.333984"/>
      <use xlink:href="#DejaVuSans-61" x="87.447266"/>
      <use xlink:href="#DejaVuSans-69" x="148.726562"/>
      <use xlink:href="#DejaVuSans-6e" x="176.509766"/>
      <use xlink:href="#DejaVuSans-20" x="239.888672"/>
      <use xlink:href="#DejaVuSans-41" x="271.675781"/>
      <use xlink:href="#DejaVuSans-63" x="338.333984"/>
      <use xlink:href="#DejaVuSans-63" x="393.314453"/>
      <use xlink:href="#DejaVuSans-75" x="448.294922"/>
      <use xlink:href="#DejaVuSans-72" x="511.673828"/>
      <use xlink:href="#DejaVuSans-61" x="552.787109"/>
      <use xlink:href="#DejaVuSans-63" x="614.066406"/>
      <use xlink:href="#DejaVuSans-79" x="669.046875"/>
     </g>
    </g>
    <g id="line2d_24">
     <path d="M 216.18875 248.969937 
L 226.18875 248.969937 
L 236.18875 248.969937 
" style="fill: none; stroke: #ff7f0e; stroke-width: 1.5; stroke-linecap: square"/>
    </g>
    <g id="text_22">
     <!-- Validation Accuracy -->
     <g transform="translate(244.18875 252.469937) scale(0.1 -0.1)">
      <defs>
       <path id="DejaVuSans-56" d="M 1831 0 
L 50 4666 
L 709 4666 
L 2188 738 
L 3669 4666 
L 4325 4666 
L 2547 0 
L 1831 0 
z
" transform="scale(0.015625)"/>
       <path id="DejaVuSans-6c" d="M 603 4863 
L 1178 4863 
L 1178 0 
L 603 0 
L 603 4863 
z
" transform="scale(0.015625)"/>
       <path id="DejaVuSans-64" d="M 2906 2969 
L 2906 4863 
L 3481 4863 
L 3481 0 
L 2906 0 
L 2906 525 
Q 2725 213 2448 61 
Q 2172 -91 1784 -91 
Q 1150 -91 751 415 
Q 353 922 353 1747 
Q 353 2572 751 3078 
Q 1150 3584 1784 3584 
Q 2172 3584 2448 3432 
Q 2725 3281 2906 2969 
z
M 947 1747 
Q 947 1113 1208 752 
Q 1469 391 1925 391 
Q 2381 391 2643 752 
Q 2906 1113 2906 1747 
Q 2906 2381 2643 2742 
Q 2381 3103 1925 3103 
Q 1469 3103 1208 2742 
Q 947 2381 947 1747 
z
" transform="scale(0.015625)"/>
       <path id="DejaVuSans-74" d="M 1172 4494 
L 1172 3500 
L 2356 3500 
L 2356 3053 
L 1172 3053 
L 1172 1153 
Q 1172 725 1289 603 
Q 1406 481 1766 481 
L 2356 481 
L 2356 0 
L 1766 0 
Q 1100 0 847 248 
Q 594 497 594 1153 
L 594 3053 
L 172 3053 
L 172 3500 
L 594 3500 
L 594 4494 
L 1172 4494 
z
" transform="scale(0.015625)"/>
      </defs>
      <use xlink:href="#DejaVuSans-56"/>
      <use xlink:href="#DejaVuSans-61" x="60.658203"/>
      <use xlink:href="#DejaVuSans-6c" x="121.9375"/>
      <use xlink:href="#DejaVuSans-69" x="149.720703"/>
      <use xlink:href="#DejaVuSans-64" x="177.503906"/>
      <use xlink:href="#DejaVuSans-61" x="240.980469"/>
      <use xlink:href="#DejaVuSans-74" x="302.259766"/>
      <use xlink:href="#DejaVuSans-69" x="341.46875"/>
      <use xlink:href="#DejaVuSans-6f" x="369.251953"/>
      <use xlink:href="#DejaVuSans-6e" x="430.433594"/>
      <use xlink:href="#DejaVuSans-20" x="493.8125"/>
      <use xlink:href="#DejaVuSans-41" x="525.599609"/>
      <use xlink:href="#DejaVuSans-63" x="592.257812"/>
      <use xlink:href="#DejaVuSans-63" x="647.238281"/>
      <use xlink:href="#DejaVuSans-75" x="702.21875"/>
      <use xlink:href="#DejaVuSans-72" x="765.597656"/>
      <use xlink:href="#DejaVuSans-61" x="806.710938"/>
      <use xlink:href="#DejaVuSans-63" x="867.990234"/>
      <use xlink:href="#DejaVuSans-79" x="922.970703"/>
     </g>
    </g>
    <g id="line2d_25">
     <path d="M 216.18875 263.648062 
L 226.18875 263.648062 
L 236.18875 263.648062 
" style="fill: none; stroke: #2ca02c; stroke-width: 1.5; stroke-linecap: square"/>
    </g>
    <g id="text_23">
     <!-- Robust Validation Accuracy -->
     <g transform="translate(244.18875 267.148062) scale(0.1 -0.1)">
      <defs>
       <path id="DejaVuSans-52" d="M 2841 2188 
Q 3044 2119 3236 1894 
Q 3428 1669 3622 1275 
L 4263 0 
L 3584 0 
L 2988 1197 
Q 2756 1666 2539 1819 
Q 2322 1972 1947 1972 
L 1259 1972 
L 1259 0 
L 628 0 
L 628 4666 
L 2053 4666 
Q 2853 4666 3247 4331 
Q 3641 3997 3641 3322 
Q 3641 2881 3436 2590 
Q 3231 2300 2841 2188 
z
M 1259 4147 
L 1259 2491 
L 2053 2491 
Q 2509 2491 2742 2702 
Q 2975 2913 2975 3322 
Q 2975 3731 2742 3939 
Q 2509 4147 2053 4147 
L 1259 4147 
z
" transform="scale(0.015625)"/>
       <path id="DejaVuSans-62" d="M 3116 1747 
Q 3116 2381 2855 2742 
Q 2594 3103 2138 3103 
Q 1681 3103 1420 2742 
Q 1159 2381 1159 1747 
Q 1159 1113 1420 752 
Q 1681 391 2138 391 
Q 2594 391 2855 752 
Q 3116 1113 3116 1747 
z
M 1159 2969 
Q 1341 3281 1617 3432 
Q 1894 3584 2278 3584 
Q 2916 3584 3314 3078 
Q 3713 2572 3713 1747 
Q 3713 922 3314 415 
Q 2916 -91 2278 -91 
Q 1894 -91 1617 61 
Q 1341 213 1159 525 
L 1159 0 
L 581 0 
L 581 4863 
L 1159 4863 
L 1159 2969 
z
" transform="scale(0.015625)"/>
      </defs>
      <use xlink:href="#DejaVuSans-52"/>
      <use xlink:href="#DejaVuSans-6f" x="64.982422"/>
      <use xlink:href="#DejaVuSans-62" x="126.164062"/>
      <use xlink:href="#DejaVuSans-75" x="189.640625"/>
      <use xlink:href="#DejaVuSans-73" x="253.019531"/>
      <use xlink:href="#DejaVuSans-74" x="305.119141"/>
      <use xlink:href="#DejaVuSans-20" x="344.328125"/>
      <use xlink:href="#DejaVuSans-56" x="376.115234"/>
      <use xlink:href="#DejaVuSans-61" x="436.773438"/>
      <use xlink:href="#DejaVuSans-6c" x="498.052734"/>
      <use xlink:href="#DejaVuSans-69" x="525.835938"/>
      <use xlink:href="#DejaVuSans-64" x="553.619141"/>
      <use xlink:href="#DejaVuSans-61" x="617.095703"/>
      <use xlink:href="#DejaVuSans-74" x="678.375"/>
      <use xlink:href="#DejaVuSans-69" x="717.583984"/>
      <use xlink:href="#DejaVuSans-6f" x="745.367188"/>
      <use xlink:href="#DejaVuSans-6e" x="806.548828"/>
      <use xlink:href="#DejaVuSans-20" x="869.927734"/>
      <use xlink:href="#DejaVuSans-41" x="901.714844"/>
      <use xlink:href="#DejaVuSans-63" x="968.373047"/>
      <use xlink:href="#DejaVuSans-63" x="1023.353516"/>
      <use xlink:href="#DejaVuSans-75" x="1078.333984"/>
      <use xlink:href="#DejaVuSans-72" x="1141.712891"/>
      <use xlink:href="#DejaVuSans-61" x="1182.826172"/>
      <use xlink:href="#DejaVuSans-63" x="1244.105469"/>
      <use xlink:href="#DejaVuSans-79" x="1299.085938"/>
     </g>
    </g>
    <g id="line2d_26">
     <path d="M 216.18875 278.326188 
L 226.18875 278.326188 
L 236.18875 278.326188 
" style="fill: none; stroke: #d62728; stroke-width: 1.5; stroke-linecap: square"/>
    </g>
    <g id="text_24">
     <!-- SWA Validation Accuracy -->
     <g transform="translate(244.18875 281.826188) scale(0.1 -0.1)">
      <defs>
       <path id="DejaVuSans-53" d="M 3425 4513 
L 3425 3897 
Q 3066 4069 2747 4153 
Q 2428 4238 2131 4238 
Q 1616 4238 1336 4038 
Q 1056 3838 1056 3469 
Q 1056 3159 1242 3001 
Q 1428 2844 1947 2747 
L 2328 2669 
Q 3034 2534 3370 2195 
Q 3706 1856 3706 1288 
Q 3706 609 3251 259 
Q 2797 -91 1919 -91 
Q 1588 -91 1214 -16 
Q 841 59 441 206 
L 441 856 
Q 825 641 1194 531 
Q 1563 422 1919 422 
Q 2459 422 2753 634 
Q 3047 847 3047 1241 
Q 3047 1584 2836 1778 
Q 2625 1972 2144 2069 
L 1759 2144 
Q 1053 2284 737 2584 
Q 422 2884 422 3419 
Q 422 4038 858 4394 
Q 1294 4750 2059 4750 
Q 2388 4750 2728 4690 
Q 3069 4631 3425 4513 
z
" transform="scale(0.015625)"/>
       <path id="DejaVuSans-57" d="M 213 4666 
L 850 4666 
L 1831 722 
L 2809 4666 
L 3519 4666 
L 4500 722 
L 5478 4666 
L 6119 4666 
L 4947 0 
L 4153 0 
L 3169 4050 
L 2175 0 
L 1381 0 
L 213 4666 
z
" transform="scale(0.015625)"/>
      </defs>
      <use xlink:href="#DejaVuSans-53"/>
      <use xlink:href="#DejaVuSans-57" x="63.476562"/>
      <use xlink:href="#DejaVuSans-41" x="156.853516"/>
      <use xlink:href="#DejaVuSans-20" x="225.261719"/>
      <use xlink:href="#DejaVuSans-56" x="257.048828"/>
      <use xlink:href="#DejaVuSans-61" x="317.707031"/>
      <use xlink:href="#DejaVuSans-6c" x="378.986328"/>
      <use xlink:href="#DejaVuSans-69" x="406.769531"/>
      <use xlink:href="#DejaVuSans-64" x="434.552734"/>
      <use xlink:href="#DejaVuSans-61" x="498.029297"/>
      <use xlink:href="#DejaVuSans-74" x="559.308594"/>
      <use xlink:href="#DejaVuSans-69" x="598.517578"/>
      <use xlink:href="#DejaVuSans-6f" x="626.300781"/>
      <use xlink:href="#DejaVuSans-6e" x="687.482422"/>
      <use xlink:href="#DejaVuSans-20" x="750.861328"/>
      <use xlink:href="#DejaVuSans-41" x="782.648438"/>
      <use xlink:href="#DejaVuSans-63" x="849.306641"/>
      <use xlink:href="#DejaVuSans-63" x="904.287109"/>
      <use xlink:href="#DejaVuSans-75" x="959.267578"/>
      <use xlink:href="#DejaVuSans-72" x="1022.646484"/>
      <use xlink:href="#DejaVuSans-61" x="1063.759766"/>
      <use xlink:href="#DejaVuSans-63" x="1125.039062"/>
      <use xlink:href="#DejaVuSans-79" x="1180.019531"/>
     </g>
    </g>
    <g id="line2d_27">
     <path d="M 216.18875 293.004312 
L 226.18875 293.004312 
L 236.18875 293.004312 
" style="fill: none; stroke: #9467bd; stroke-width: 1.5; stroke-linecap: square"/>
    </g>
    <g id="text_25">
     <!-- SWA Robust Validation Accuracy -->
     <g transform="translate(244.18875 296.504312) scale(0.1 -0.1)">
      <use xlink:href="#DejaVuSans-53"/>
      <use xlink:href="#DejaVuSans-57" x="63.476562"/>
      <use xlink:href="#DejaVuSans-41" x="156.853516"/>
      <use xlink:href="#DejaVuSans-20" x="225.261719"/>
      <use xlink:href="#DejaVuSans-52" x="257.048828"/>
      <use xlink:href="#DejaVuSans-6f" x="322.03125"/>
      <use xlink:href="#DejaVuSans-62" x="383.212891"/>
      <use xlink:href="#DejaVuSans-75" x="446.689453"/>
      <use xlink:href="#DejaVuSans-73" x="510.068359"/>
      <use xlink:href="#DejaVuSans-74" x="562.167969"/>
      <use xlink:href="#DejaVuSans-20" x="601.376953"/>
      <use xlink:href="#DejaVuSans-56" x="633.164062"/>
      <use xlink:href="#DejaVuSans-61" x="693.822266"/>
      <use xlink:href="#DejaVuSans-6c" x="755.101562"/>
      <use xlink:href="#DejaVuSans-69" x="782.884766"/>
      <use xlink:href="#DejaVuSans-64" x="810.667969"/>
      <use xlink:href="#DejaVuSans-61" x="874.144531"/>
      <use xlink:href="#DejaVuSans-74" x="935.423828"/>
      <use xlink:href="#DejaVuSans-69" x="974.632812"/>
      <use xlink:href="#DejaVuSans-6f" x="1002.416016"/>
      <use xlink:href="#DejaVuSans-6e" x="1063.597656"/>
      <use xlink:href="#DejaVuSans-20" x="1126.976562"/>
      <use xlink:href="#DejaVuSans-41" x="1158.763672"/>
      <use xlink:href="#DejaVuSans-63" x="1225.421875"/>
      <use xlink:href="#DejaVuSans-63" x="1280.402344"/>
      <use xlink:href="#DejaVuSans-75" x="1335.382812"/>
      <use xlink:href="#DejaVuSans-72" x="1398.761719"/>
      <use xlink:href="#DejaVuSans-61" x="1439.875"/>
      <use xlink:href="#DejaVuSans-63" x="1501.154297"/>
      <use xlink:href="#DejaVuSans-79" x="1556.134766"/>
     </g>
    </g>
   </g>
  </g>
 </g>
 <defs>
  <clipPath id="p756f793a65">
   <rect x="57.6" y="41.472" width="357.12" height="266.112"/>
  </clipPath>
 </defs>
</svg>
