<?xml version="1.0" encoding="utf-8" standalone="no"?>
<!DOCTYPE svg PUBLIC "-//W3C//DTD SVG 1.1//EN"
  "http://www.w3.org/Graphics/SVG/1.1/DTD/svg11.dtd">
<svg xmlns:xlink="http://www.w3.org/1999/xlink" width="460.8pt" height="345.6pt" viewBox="0 0 460.8 345.6" xmlns="http://www.w3.org/2000/svg" version="1.1">
 <metadata>
  <rdf:RDF xmlns:dc="http://purl.org/dc/elements/1.1/" xmlns:cc="http://creativecommons.org/ns#" xmlns:rdf="http://www.w3.org/1999/02/22-rdf-syntax-ns#">
   <cc:Work>
    <dc:type rdf:resource="http://purl.org/dc/dcmitype/StillImage"/>
    <dc:date>2025-01-26T08:58:18.159238</dc:date>
    <dc:format>image/svg+xml</dc:format>
    <dc:creator>
     <cc:Agent>
      <dc:title>Matplotlib v3.9.1, https://matplotlib.org/</dc:title>
     </cc:Agent>
    </dc:creator>
   </cc:Work>
  </rdf:RDF>
 </metadata>
 <defs>
  <style type="text/css">*{stroke-linejoin: round; stroke-linecap: butt}</style>
 </defs>
 <g id="figure_1">
  <g id="patch_1">
   <path d="M 0 345.6 
L 460.8 345.6 
L 460.8 0 
L 0 0 
z
" style="fill: #ffffff"/>
  </g>
  <g id="axes_1">
   <g id="patch_2">
    <path d="M 57.6 307.584 
L 414.72 307.584 
L 414.72 41.472 
L 57.6 41.472 
z
" style="fill: #ffffff"/>
   </g>
   <g id="matplotlib.axis_1">
    <g id="xtick_1">
     <g id="line2d_1">
      <defs>
       <path id="m248ecedf2f" d="M 0 0 
L 0 3.5 
" style="stroke: #000000; stroke-width: 0.8"/>
      </defs>
      <g>
       <use xlink:href="#m248ecedf2f" x="73.832727" y="307.584" style="stroke: #000000; stroke-width: 0.8"/>
      </g>
     </g>
     <g id="text_1">
      <!-- 1 -->
      <g transform="translate(70.651477 322.182437) scale(0.1 -0.1)">
       <defs>
        <path id="DejaVuSans-31" d="M 794 531 
L 1825 531 
L 1825 4091 
L 703 3866 
L 703 4441 
L 1819 4666 
L 2450 4666 
L 2450 531 
L 3481 531 
L 3481 0 
L 794 0 
L 794 531 
z
" transform="scale(0.015625)"/>
       </defs>
       <use xlink:href="#DejaVuSans-31"/>
      </g>
     </g>
    </g>
    <g id="xtick_2">
     <g id="line2d_2">
      <g>
       <use xlink:href="#m248ecedf2f" x="109.664165" y="307.584" style="stroke: #000000; stroke-width: 0.8"/>
      </g>
     </g>
     <g id="text_2">
      <!-- 34 -->
      <g transform="translate(103.301665 322.182437) scale(0.1 -0.1)">
       <defs>
        <path id="DejaVuSans-33" d="M 2597 2516 
Q 3050 2419 3304 2112 
Q 3559 1806 3559 1356 
Q 3559 666 3084 287 
Q 2609 -91 1734 -91 
Q 1441 -91 1130 -33 
Q 819 25 488 141 
L 488 750 
Q 750 597 1062 519 
Q 1375 441 1716 441 
Q 2309 441 2620 675 
Q 2931 909 2931 1356 
Q 2931 1769 2642 2001 
Q 2353 2234 1838 2234 
L 1294 2234 
L 1294 2753 
L 1863 2753 
Q 2328 2753 2575 2939 
Q 2822 3125 2822 3475 
Q 2822 3834 2567 4026 
Q 2313 4219 1838 4219 
Q 1578 4219 1281 4162 
Q 984 4106 628 3988 
L 628 4550 
Q 988 4650 1302 4700 
Q 1616 4750 1894 4750 
Q 2613 4750 3031 4423 
Q 3450 4097 3450 3541 
Q 3450 3153 3228 2886 
Q 3006 2619 2597 2516 
z
" transform="scale(0.015625)"/>
        <path id="DejaVuSans-34" d="M 2419 4116 
L 825 1625 
L 2419 1625 
L 2419 4116 
z
M 2253 4666 
L 3047 4666 
L 3047 1625 
L 3713 1625 
L 3713 1100 
L 3047 1100 
L 3047 0 
L 2419 0 
L 2419 1100 
L 313 1100 
L 313 1709 
L 2253 4666 
z
" transform="scale(0.015625)"/>
       </defs>
       <use xlink:href="#DejaVuSans-33"/>
       <use xlink:href="#DejaVuSans-34" x="63.623047"/>
      </g>
     </g>
    </g>
    <g id="xtick_3">
     <g id="line2d_3">
      <g>
       <use xlink:href="#m248ecedf2f" x="145.495604" y="307.584" style="stroke: #000000; stroke-width: 0.8"/>
      </g>
     </g>
     <g id="text_3">
      <!-- 67 -->
      <g transform="translate(139.133104 322.182437) scale(0.1 -0.1)">
       <defs>
        <path id="DejaVuSans-36" d="M 2113 2584 
Q 1688 2584 1439 2293 
Q 1191 2003 1191 1497 
Q 1191 994 1439 701 
Q 1688 409 2113 409 
Q 2538 409 2786 701 
Q 3034 994 3034 1497 
Q 3034 2003 2786 2293 
Q 2538 2584 2113 2584 
z
M 3366 4563 
L 3366 3988 
Q 3128 4100 2886 4159 
Q 2644 4219 2406 4219 
Q 1781 4219 1451 3797 
Q 1122 3375 1075 2522 
Q 1259 2794 1537 2939 
Q 1816 3084 2150 3084 
Q 2853 3084 3261 2657 
Q 3669 2231 3669 1497 
Q 3669 778 3244 343 
Q 2819 -91 2113 -91 
Q 1303 -91 875 529 
Q 447 1150 447 2328 
Q 447 3434 972 4092 
Q 1497 4750 2381 4750 
Q 2619 4750 2861 4703 
Q 3103 4656 3366 4563 
z
" transform="scale(0.015625)"/>
        <path id="DejaVuSans-37" d="M 525 4666 
L 3525 4666 
L 3525 4397 
L 1831 0 
L 1172 0 
L 2766 4134 
L 525 4134 
L 525 4666 
z
" transform="scale(0.015625)"/>
       </defs>
       <use xlink:href="#DejaVuSans-36"/>
       <use xlink:href="#DejaVuSans-37" x="63.623047"/>
      </g>
     </g>
    </g>
    <g id="xtick_4">
     <g id="line2d_4">
      <g>
       <use xlink:href="#m248ecedf2f" x="181.327042" y="307.584" style="stroke: #000000; stroke-width: 0.8"/>
      </g>
     </g>
     <g id="text_4">
      <!-- 100 -->
      <g transform="translate(171.783292 322.182437) scale(0.1 -0.1)">
       <defs>
        <path id="DejaVuSans-30" d="M 2034 4250 
Q 1547 4250 1301 3770 
Q 1056 3291 1056 2328 
Q 1056 1369 1301 889 
Q 1547 409 2034 409 
Q 2525 409 2770 889 
Q 3016 1369 3016 2328 
Q 3016 3291 2770 3770 
Q 2525 4250 2034 4250 
z
M 2034 4750 
Q 2819 4750 3233 4129 
Q 3647 3509 3647 2328 
Q 3647 1150 3233 529 
Q 2819 -91 2034 -91 
Q 1250 -91 836 529 
Q 422 1150 422 2328 
Q 422 3509 836 4129 
Q 1250 4750 2034 4750 
z
" transform="scale(0.015625)"/>
       </defs>
       <use xlink:href="#DejaVuSans-31"/>
       <use xlink:href="#DejaVuSans-30" x="63.623047"/>
       <use xlink:href="#DejaVuSans-30" x="127.246094"/>
      </g>
     </g>
    </g>
    <g id="xtick_5">
     <g id="line2d_5">
      <g>
       <use xlink:href="#m248ecedf2f" x="217.15848" y="307.584" style="stroke: #000000; stroke-width: 0.8"/>
      </g>
     </g>
     <g id="text_5">
      <!-- 133 -->
      <g transform="translate(207.61473 322.182437) scale(0.1 -0.1)">
       <use xlink:href="#DejaVuSans-31"/>
       <use xlink:href="#DejaVuSans-33" x="63.623047"/>
       <use xlink:href="#DejaVuSans-33" x="127.246094"/>
      </g>
     </g>
    </g>
    <g id="xtick_6">
     <g id="line2d_6">
      <g>
       <use xlink:href="#m248ecedf2f" x="254.075719" y="307.584" style="stroke: #000000; stroke-width: 0.8"/>
      </g>
     </g>
     <g id="text_6">
      <!-- 167 -->
      <g transform="translate(244.531969 322.182437) scale(0.1 -0.1)">
       <use xlink:href="#DejaVuSans-31"/>
       <use xlink:href="#DejaVuSans-36" x="63.623047"/>
       <use xlink:href="#DejaVuSans-37" x="127.246094"/>
      </g>
     </g>
    </g>
    <g id="xtick_7">
     <g id="line2d_7">
      <g>
       <use xlink:href="#m248ecedf2f" x="289.907157" y="307.584" style="stroke: #000000; stroke-width: 0.8"/>
      </g>
     </g>
     <g id="text_7">
      <!-- 200 -->
      <g transform="translate(280.363407 322.182437) scale(0.1 -0.1)">
       <defs>
        <path id="DejaVuSans-32" d="M 1228 531 
L 3431 531 
L 3431 0 
L 469 0 
L 469 531 
Q 828 903 1448 1529 
Q 2069 2156 2228 2338 
Q 2531 2678 2651 2914 
Q 2772 3150 2772 3378 
Q 2772 3750 2511 3984 
Q 2250 4219 1831 4219 
Q 1534 4219 1204 4116 
Q 875 4013 500 3803 
L 500 4441 
Q 881 4594 1212 4672 
Q 1544 4750 1819 4750 
Q 2544 4750 2975 4387 
Q 3406 4025 3406 3419 
Q 3406 3131 3298 2873 
Q 3191 2616 2906 2266 
Q 2828 2175 2409 1742 
Q 1991 1309 1228 531 
z
" transform="scale(0.015625)"/>
       </defs>
       <use xlink:href="#DejaVuSans-32"/>
       <use xlink:href="#DejaVuSans-30" x="63.623047"/>
       <use xlink:href="#DejaVuSans-30" x="127.246094"/>
      </g>
     </g>
    </g>
    <g id="xtick_8">
     <g id="line2d_8">
      <g>
       <use xlink:href="#m248ecedf2f" x="325.738595" y="307.584" style="stroke: #000000; stroke-width: 0.8"/>
      </g>
     </g>
     <g id="text_8">
      <!-- 233 -->
      <g transform="translate(316.194845 322.182437) scale(0.1 -0.1)">
       <use xlink:href="#DejaVuSans-32"/>
       <use xlink:href="#DejaVuSans-33" x="63.623047"/>
       <use xlink:href="#DejaVuSans-33" x="127.246094"/>
      </g>
     </g>
    </g>
    <g id="xtick_9">
     <g id="line2d_9">
      <g>
       <use xlink:href="#m248ecedf2f" x="361.570033" y="307.584" style="stroke: #000000; stroke-width: 0.8"/>
      </g>
     </g>
     <g id="text_9">
      <!-- 266 -->
      <g transform="translate(352.026283 322.182437) scale(0.1 -0.1)">
       <use xlink:href="#DejaVuSans-32"/>
       <use xlink:href="#DejaVuSans-36" x="63.623047"/>
       <use xlink:href="#DejaVuSans-36" x="127.246094"/>
      </g>
     </g>
    </g>
    <g id="xtick_10">
     <g id="line2d_10">
      <g>
       <use xlink:href="#m248ecedf2f" x="398.487273" y="307.584" style="stroke: #000000; stroke-width: 0.8"/>
      </g>
     </g>
     <g id="text_10">
      <!-- 300 -->
      <g transform="translate(388.943523 322.182437) scale(0.1 -0.1)">
       <use xlink:href="#DejaVuSans-33"/>
       <use xlink:href="#DejaVuSans-30" x="63.623047"/>
       <use xlink:href="#DejaVuSans-30" x="127.246094"/>
      </g>
     </g>
    </g>
    <g id="text_11">
     <!-- Epochs -->
     <g transform="translate(218.244375 335.860562) scale(0.1 -0.1)">
      <defs>
       <path id="DejaVuSans-45" d="M 628 4666 
L 3578 4666 
L 3578 4134 
L 1259 4134 
L 1259 2753 
L 3481 2753 
L 3481 2222 
L 1259 2222 
L 1259 531 
L 3634 531 
L 3634 0 
L 628 0 
L 628 4666 
z
" transform="scale(0.015625)"/>
       <path id="DejaVuSans-70" d="M 1159 525 
L 1159 -1331 
L 581 -1331 
L 581 3500 
L 1159 3500 
L 1159 2969 
Q 1341 3281 1617 3432 
Q 1894 3584 2278 3584 
Q 2916 3584 3314 3078 
Q 3713 2572 3713 1747 
Q 3713 922 3314 415 
Q 2916 -91 2278 -91 
Q 1894 -91 1617 61 
Q 1341 213 1159 525 
z
M 3116 1747 
Q 3116 2381 2855 2742 
Q 2594 3103 2138 3103 
Q 1681 3103 1420 2742 
Q 1159 2381 1159 1747 
Q 1159 1113 1420 752 
Q 1681 391 2138 391 
Q 2594 391 2855 752 
Q 3116 1113 3116 1747 
z
" transform="scale(0.015625)"/>
       <path id="DejaVuSans-6f" d="M 1959 3097 
Q 1497 3097 1228 2736 
Q 959 2375 959 1747 
Q 959 1119 1226 758 
Q 1494 397 1959 397 
Q 2419 397 2687 759 
Q 2956 1122 2956 1747 
Q 2956 2369 2687 2733 
Q 2419 3097 1959 3097 
z
M 1959 3584 
Q 2709 3584 3137 3096 
Q 3566 2609 3566 1747 
Q 3566 888 3137 398 
Q 2709 -91 1959 -91 
Q 1206 -91 779 398 
Q 353 888 353 1747 
Q 353 2609 779 3096 
Q 1206 3584 1959 3584 
z
" transform="scale(0.015625)"/>
       <path id="DejaVuSans-63" d="M 3122 3366 
L 3122 2828 
Q 2878 2963 2633 3030 
Q 2388 3097 2138 3097 
Q 1578 3097 1268 2742 
Q 959 2388 959 1747 
Q 959 1106 1268 751 
Q 1578 397 2138 397 
Q 2388 397 2633 464 
Q 2878 531 3122 666 
L 3122 134 
Q 2881 22 2623 -34 
Q 2366 -91 2075 -91 
Q 1284 -91 818 406 
Q 353 903 353 1747 
Q 353 2603 823 3093 
Q 1294 3584 2113 3584 
Q 2378 3584 2631 3529 
Q 2884 3475 3122 3366 
z
" transform="scale(0.015625)"/>
       <path id="DejaVuSans-68" d="M 3513 2113 
L 3513 0 
L 2938 0 
L 2938 2094 
Q 2938 2591 2744 2837 
Q 2550 3084 2163 3084 
Q 1697 3084 1428 2787 
Q 1159 2491 1159 1978 
L 1159 0 
L 581 0 
L 581 4863 
L 1159 4863 
L 1159 2956 
Q 1366 3272 1645 3428 
Q 1925 3584 2291 3584 
Q 2894 3584 3203 3211 
Q 3513 2838 3513 2113 
z
" transform="scale(0.015625)"/>
       <path id="DejaVuSans-73" d="M 2834 3397 
L 2834 2853 
Q 2591 2978 2328 3040 
Q 2066 3103 1784 3103 
Q 1356 3103 1142 2972 
Q 928 2841 928 2578 
Q 928 2378 1081 2264 
Q 1234 2150 1697 2047 
L 1894 2003 
Q 2506 1872 2764 1633 
Q 3022 1394 3022 966 
Q 3022 478 2636 193 
Q 2250 -91 1575 -91 
Q 1294 -91 989 -36 
Q 684 19 347 128 
L 347 722 
Q 666 556 975 473 
Q 1284 391 1588 391 
Q 1994 391 2212 530 
Q 2431 669 2431 922 
Q 2431 1156 2273 1281 
Q 2116 1406 1581 1522 
L 1381 1569 
Q 847 1681 609 1914 
Q 372 2147 372 2553 
Q 372 3047 722 3315 
Q 1072 3584 1716 3584 
Q 2034 3584 2315 3537 
Q 2597 3491 2834 3397 
z
" transform="scale(0.015625)"/>
      </defs>
      <use xlink:href="#DejaVuSans-45"/>
      <use xlink:href="#DejaVuSans-70" x="63.183594"/>
      <use xlink:href="#DejaVuSans-6f" x="126.660156"/>
      <use xlink:href="#DejaVuSans-63" x="187.841797"/>
      <use xlink:href="#DejaVuSans-68" x="242.822266"/>
      <use xlink:href="#DejaVuSans-73" x="306.201172"/>
     </g>
    </g>
   </g>
   <g id="matplotlib.axis_2">
    <g id="ytick_1">
     <g id="line2d_11">
      <defs>
       <path id="mc745ebe192" d="M 0 0 
L -3.5 0 
" style="stroke: #000000; stroke-width: 0.8"/>
      </defs>
      <g>
       <use xlink:href="#mc745ebe192" x="57.6" y="277.781178" style="stroke: #000000; stroke-width: 0.8"/>
      </g>
     </g>
     <g id="text_12">
      <!-- 10 -->
      <g transform="translate(37.875 281.580397) scale(0.1 -0.1)">
       <use xlink:href="#DejaVuSans-31"/>
       <use xlink:href="#DejaVuSans-30" x="63.623047"/>
      </g>
     </g>
    </g>
    <g id="ytick_2">
     <g id="line2d_12">
      <g>
       <use xlink:href="#mc745ebe192" x="57.6" y="242.269572" style="stroke: #000000; stroke-width: 0.8"/>
      </g>
     </g>
     <g id="text_13">
      <!-- 20 -->
      <g transform="translate(37.875 246.068791) scale(0.1 -0.1)">
       <use xlink:href="#DejaVuSans-32"/>
       <use xlink:href="#DejaVuSans-30" x="63.623047"/>
      </g>
     </g>
    </g>
    <g id="ytick_3">
     <g id="line2d_13">
      <g>
       <use xlink:href="#mc745ebe192" x="57.6" y="206.757966" style="stroke: #000000; stroke-width: 0.8"/>
      </g>
     </g>
     <g id="text_14">
      <!-- 30 -->
      <g transform="translate(37.875 210.557185) scale(0.1 -0.1)">
       <use xlink:href="#DejaVuSans-33"/>
       <use xlink:href="#DejaVuSans-30" x="63.623047"/>
      </g>
     </g>
    </g>
    <g id="ytick_4">
     <g id="line2d_14">
      <g>
       <use xlink:href="#mc745ebe192" x="57.6" y="171.24636" style="stroke: #000000; stroke-width: 0.8"/>
      </g>
     </g>
     <g id="text_15">
      <!-- 40 -->
      <g transform="translate(37.875 175.045579) scale(0.1 -0.1)">
       <use xlink:href="#DejaVuSans-34"/>
       <use xlink:href="#DejaVuSans-30" x="63.623047"/>
      </g>
     </g>
    </g>
    <g id="ytick_5">
     <g id="line2d_15">
      <g>
       <use xlink:href="#mc745ebe192" x="57.6" y="135.734754" style="stroke: #000000; stroke-width: 0.8"/>
      </g>
     </g>
     <g id="text_16">
      <!-- 50 -->
      <g transform="translate(37.875 139.533973) scale(0.1 -0.1)">
       <defs>
        <path id="DejaVuSans-35" d="M 691 4666 
L 3169 4666 
L 3169 4134 
L 1269 4134 
L 1269 2991 
Q 1406 3038 1543 3061 
Q 1681 3084 1819 3084 
Q 2600 3084 3056 2656 
Q 3513 2228 3513 1497 
Q 3513 744 3044 326 
Q 2575 -91 1722 -91 
Q 1428 -91 1123 -41 
Q 819 9 494 109 
L 494 744 
Q 775 591 1075 516 
Q 1375 441 1709 441 
Q 2250 441 2565 725 
Q 2881 1009 2881 1497 
Q 2881 1984 2565 2268 
Q 2250 2553 1709 2553 
Q 1456 2553 1204 2497 
Q 953 2441 691 2322 
L 691 4666 
z
" transform="scale(0.015625)"/>
       </defs>
       <use xlink:href="#DejaVuSans-35"/>
       <use xlink:href="#DejaVuSans-30" x="63.623047"/>
      </g>
     </g>
    </g>
    <g id="ytick_6">
     <g id="line2d_16">
      <g>
       <use xlink:href="#mc745ebe192" x="57.6" y="100.223148" style="stroke: #000000; stroke-width: 0.8"/>
      </g>
     </g>
     <g id="text_17">
      <!-- 60 -->
      <g transform="translate(37.875 104.022367) scale(0.1 -0.1)">
       <use xlink:href="#DejaVuSans-36"/>
       <use xlink:href="#DejaVuSans-30" x="63.623047"/>
      </g>
     </g>
    </g>
    <g id="ytick_7">
     <g id="line2d_17">
      <g>
       <use xlink:href="#mc745ebe192" x="57.6" y="64.711542" style="stroke: #000000; stroke-width: 0.8"/>
      </g>
     </g>
     <g id="text_18">
      <!-- 70 -->
      <g transform="translate(37.875 68.510761) scale(0.1 -0.1)">
       <use xlink:href="#DejaVuSans-37"/>
       <use xlink:href="#DejaVuSans-30" x="63.623047"/>
      </g>
     </g>
    </g>
    <g id="text_19">
     <!-- Accuracy -->
     <g transform="translate(31.795312 197.356125) rotate(-90) scale(0.1 -0.1)">
      <defs>
       <path id="DejaVuSans-41" d="M 2188 4044 
L 1331 1722 
L 3047 1722 
L 2188 4044 
z
M 1831 4666 
L 2547 4666 
L 4325 0 
L 3669 0 
L 3244 1197 
L 1141 1197 
L 716 0 
L 50 0 
L 1831 4666 
z
" transform="scale(0.015625)"/>
       <path id="DejaVuSans-75" d="M 544 1381 
L 544 3500 
L 1119 3500 
L 1119 1403 
Q 1119 906 1312 657 
Q 1506 409 1894 409 
Q 2359 409 2629 706 
Q 2900 1003 2900 1516 
L 2900 3500 
L 3475 3500 
L 3475 0 
L 2900 0 
L 2900 538 
Q 2691 219 2414 64 
Q 2138 -91 1772 -91 
Q 1169 -91 856 284 
Q 544 659 544 1381 
z
M 1991 3584 
L 1991 3584 
z
" transform="scale(0.015625)"/>
       <path id="DejaVuSans-72" d="M 2631 2963 
Q 2534 3019 2420 3045 
Q 2306 3072 2169 3072 
Q 1681 3072 1420 2755 
Q 1159 2438 1159 1844 
L 1159 0 
L 581 0 
L 581 3500 
L 1159 3500 
L 1159 2956 
Q 1341 3275 1631 3429 
Q 1922 3584 2338 3584 
Q 2397 3584 2469 3576 
Q 2541 3569 2628 3553 
L 2631 2963 
z
" transform="scale(0.015625)"/>
       <path id="DejaVuSans-61" d="M 2194 1759 
Q 1497 1759 1228 1600 
Q 959 1441 959 1056 
Q 959 750 1161 570 
Q 1363 391 1709 391 
Q 2188 391 2477 730 
Q 2766 1069 2766 1631 
L 2766 1759 
L 2194 1759 
z
M 3341 1997 
L 3341 0 
L 2766 0 
L 2766 531 
Q 2569 213 2275 61 
Q 1981 -91 1556 -91 
Q 1019 -91 701 211 
Q 384 513 384 1019 
Q 384 1609 779 1909 
Q 1175 2209 1959 2209 
L 2766 2209 
L 2766 2266 
Q 2766 2663 2505 2880 
Q 2244 3097 1772 3097 
Q 1472 3097 1187 3025 
Q 903 2953 641 2809 
L 641 3341 
Q 956 3463 1253 3523 
Q 1550 3584 1831 3584 
Q 2591 3584 2966 3190 
Q 3341 2797 3341 1997 
z
" transform="scale(0.015625)"/>
       <path id="DejaVuSans-79" d="M 2059 -325 
Q 1816 -950 1584 -1140 
Q 1353 -1331 966 -1331 
L 506 -1331 
L 506 -850 
L 844 -850 
Q 1081 -850 1212 -737 
Q 1344 -625 1503 -206 
L 1606 56 
L 191 3500 
L 800 3500 
L 1894 763 
L 2988 3500 
L 3597 3500 
L 2059 -325 
z
" transform="scale(0.015625)"/>
      </defs>
      <use xlink:href="#DejaVuSans-41"/>
      <use xlink:href="#DejaVuSans-63" x="66.658203"/>
      <use xlink:href="#DejaVuSans-63" x="121.638672"/>
      <use xlink:href="#DejaVuSans-75" x="176.619141"/>
      <use xlink:href="#DejaVuSans-72" x="239.998047"/>
      <use xlink:href="#DejaVuSans-61" x="281.111328"/>
      <use xlink:href="#DejaVuSans-63" x="342.390625"/>
      <use xlink:href="#DejaVuSans-79" x="397.371094"/>
     </g>
    </g>
   </g>
   <g id="line2d_18">
    <path d="M 73.832727 291.67687 
L 74.918528 263.104232 
L 76.00433 242.649547 
L 77.090131 227.624586 
L 78.175932 214.794243 
L 80.347534 196.374373 
L 82.519137 180.035483 
L 84.690739 167.691648 
L 85.77654 162.858519 
L 86.862341 156.871262 
L 89.033943 148.217084 
L 90.119745 144.680128 
L 91.205546 140.056517 
L 92.291347 138.888185 
L 93.377148 137.52809 
L 94.462949 135.535889 
L 95.54875 169.207994 
L 96.634552 167.013377 
L 97.720353 164.296739 
L 98.806154 160.514753 
L 99.891955 157.428794 
L 100.977756 154.005475 
L 102.063557 150.955029 
L 105.320961 143.454977 
L 106.406762 140.226972 
L 107.492563 138.540171 
L 108.578364 134.630343 
L 110.749967 130.685004 
L 111.835768 127.456999 
L 112.921569 126.313525 
L 114.00737 123.547171 
L 115.093171 122.119604 
L 116.178972 119.527257 
L 117.264773 117.630937 
L 118.350575 115.127369 
L 119.436376 112.098229 
L 120.522177 110.517963 
L 121.607978 109.221789 
L 122.693779 106.007989 
L 123.77958 104.449029 
L 124.865382 102.183389 
L 125.951183 100.184085 
L 127.036984 97.439038 
L 128.122785 97.051962 
L 129.208586 95.521411 
L 130.294387 92.971678 
L 131.380189 91.888574 
L 132.46599 89.821799 
L 133.551791 88.749348 
L 134.637592 88.948213 
L 135.723393 88.127895 
L 136.809194 88.145651 
L 137.894995 87.3786 
L 138.980797 128.433568 
L 140.066598 130.510997 
L 141.152399 130.972648 
L 143.324001 127.659415 
L 144.409802 127.702029 
L 145.495604 125.37957 
L 146.581405 124.807833 
L 147.667206 123.632399 
L 148.753007 122.716199 
L 150.924609 120.166466 
L 152.01041 119.442029 
L 154.182013 117.094712 
L 155.267814 118.085486 
L 156.353615 115.450525 
L 157.439416 115.628083 
L 158.525217 113.426363 
L 159.611019 112.616699 
L 161.782621 111.359588 
L 162.868422 109.679889 
L 163.954223 109.782872 
L 165.040024 108.405022 
L 166.125825 107.364532 
L 167.211627 107.60246 
L 168.297428 105.393638 
L 169.383229 104.676303 
L 170.46903 103.706837 
L 171.554831 103.096037 
L 172.640632 101.032813 
L 173.726434 100.571162 
L 174.812235 100.553406 
L 175.898036 98.532796 
L 176.983837 98.934077 
L 178.069638 97.882933 
L 179.155439 97.339606 
L 180.24124 96.185478 
L 181.327042 93.919838 
L 182.412843 93.117276 
L 183.498644 91.9667 
L 184.584445 91.132177 
L 185.670246 89.821799 
L 187.841849 88.518523 
L 188.92765 87.0732 
L 190.013451 86.437543 
L 191.099252 85.631429 
L 192.185053 83.525591 
L 193.270854 82.637801 
L 194.356656 82.247173 
L 195.442457 80.017044 
L 196.528258 78.621438 
L 197.614059 78.149134 
L 198.69986 76.710914 
L 199.785661 75.709486 
L 200.871462 75.794714 
L 201.957264 74.093708 
L 203.043065 72.158326 
L 204.128866 72.801086 
L 206.300468 70.176778 
L 207.386269 69.374216 
L 208.472071 67.882728 
L 210.643673 65.762686 
L 211.729474 65.027595 
L 212.815275 63.791791 
L 213.901076 63.894775 
L 214.986877 63.198748 
L 216.072679 63.003434 
L 217.15848 63.024741 
L 218.244281 62.381981 
L 219.330082 61.490639 
L 220.415883 61.661095 
L 221.501684 60.695179 
L 222.587486 62.204423 
L 223.673287 61.600725 
L 224.759088 60.744896 
L 225.844889 112.492408 
L 226.93069 115.056346 
L 228.016491 115.940585 
L 229.102292 114.910748 
L 230.188094 114.754497 
L 231.273895 112.847524 
L 232.359696 112.126638 
L 233.445497 111.863853 
L 234.531298 111.327627 
L 235.617099 110.919244 
L 236.702901 109.875203 
L 237.788702 110.084721 
L 238.874503 108.934145 
L 239.960304 108.94835 
L 241.046105 108.302038 
L 242.131906 108.202606 
L 243.217708 106.83896 
L 244.303509 105.958272 
L 245.38931 105.571196 
L 246.475111 105.304859 
L 247.560912 105.439803 
L 248.646713 104.275022 
L 249.732514 104.445478 
L 250.818316 104.484541 
L 251.904117 103.390783 
L 252.989918 103.891497 
L 254.075719 101.856682 
L 255.16152 103.678427 
L 256.247321 101.426992 
L 257.333123 102.087507 
L 258.418924 101.380826 
L 259.504725 100.155676 
L 260.590526 100.78068 
L 261.676327 100.248006 
L 262.762128 100.450422 
L 263.847929 99.363767 
L 264.933731 99.296295 
L 266.019532 98.436914 
L 267.105333 99.562632 
L 268.191134 97.492306 
L 269.276935 97.676966 
L 270.362736 97.307645 
L 271.448538 98.316175 
L 272.534339 96.675539 
L 273.62014 96.206785 
L 274.705941 96.537043 
L 275.791742 97.435487 
L 277.963344 95.443286 
L 279.049146 95.063312 
L 280.134947 94.832486 
L 281.220748 93.216708 
L 282.306549 93.305487 
L 283.39235 93.042701 
L 284.478151 93.760036 
L 285.563953 91.774937 
L 286.649754 92.467413 
L 287.735555 91.277774 
L 288.821356 91.782039 
L 289.907157 90.453905 
L 290.992958 90.855186 
L 292.07876 90.961721 
L 293.164561 88.621506 
L 294.250362 89.264266 
L 295.336163 88.163407 
L 296.421964 89.534155 
L 297.507765 87.86866 
L 298.593566 87.186837 
L 299.679368 87.389254 
L 300.765169 87.130019 
L 301.85097 86.199615 
L 302.936771 85.471627 
L 304.022572 85.404155 
L 305.108373 84.708127 
L 306.194175 85.258557 
L 307.279976 85.180432 
L 308.365777 84.367216 
L 309.451578 82.403424 
L 310.537379 81.849443 
L 311.62318 82.151292 
L 312.708981 81.504981 
L 313.794783 82.147741 
L 314.880584 80.816055 
L 315.966385 80.975858 
L 317.052186 79.583803 
L 318.137987 79.23934 
L 319.223788 78.50425 
L 320.30959 78.071008 
L 321.395391 77.80112 
L 322.481192 76.70026 
L 323.566993 77.09799 
L 324.652794 76.590174 
L 325.738595 75.496417 
L 326.824396 75.713038 
L 327.910198 74.594422 
L 328.995999 73.316004 
L 331.167601 72.744267 
L 332.253402 72.32523 
L 333.339203 71.398377 
L 334.425005 71.43744 
L 335.510806 70.812436 
L 336.596607 69.452341 
L 337.682408 68.674637 
L 338.768209 69.228618 
L 339.85401 68.156168 
L 340.939811 68.003468 
L 342.025613 65.752032 
L 343.111414 66.54039 
L 344.197215 65.418223 
L 345.283016 65.43953 
L 346.368817 64.558842 
L 347.454618 64.79677 
L 348.54042 63.337243 
L 349.626221 63.386959 
L 350.712022 62.598601 
L 351.797823 61.43027 
L 352.883624 61.15683 
L 353.969425 61.355695 
L 356.141028 58.976418 
L 357.226829 59.324431 
L 359.398431 57.396151 
L 360.484232 56.178103 
L 361.570033 57.271861 
L 362.655835 56.082222 
L 363.741636 55.428808 
L 364.827437 55.052385 
L 365.913238 54.079367 
L 366.999039 53.568 
L 368.08484 54.487751 
L 369.170642 56.44444 
L 370.256443 58.653262 
L 371.342244 60.08438 
L 372.428045 62.943064 
L 373.513846 63.301731 
L 374.599647 62.630562 
L 375.685448 62.985678 
L 376.77125 62.630562 
L 377.857051 64.079435 
L 378.942852 63.546761 
L 380.028653 63.660398 
L 381.114454 63.102866 
L 382.200255 63.578722 
L 383.286057 63.379857 
L 384.371858 63.980003 
L 385.457659 63.894775 
L 386.54346 64.597905 
L 387.629261 63.820201 
L 388.715062 63.88057 
L 389.800863 63.685257 
L 390.886665 65.077312 
L 391.972466 64.64407 
L 393.058267 64.391938 
L 394.144068 63.862815 
L 395.229869 64.267647 
L 396.31567 63.887673 
L 398.487273 64.239238 
L 398.487273 64.239238 
" clip-path="url(#pe9ea921c92)" style="fill: none; stroke: #1f77b4; stroke-width: 1.5; stroke-linecap: square"/>
   </g>
   <g id="line2d_19">
    <path d="M 73.832727 282.610757 
L 74.918528 250.685823 
L 76.00433 232.787974 
L 77.090131 222.525119 
L 78.175932 209.882988 
L 79.261733 212.58187 
L 80.347534 194.151346 
L 81.433335 191.665534 
L 82.519137 172.737848 
L 83.604938 167.908269 
L 84.690739 162.297436 
L 85.77654 165.528992 
L 86.862341 144.896749 
L 87.948142 153.028906 
L 89.033943 142.375424 
L 90.119745 137.758916 
L 91.205546 136.480498 
L 92.291347 132.964849 
L 93.377148 130.905176 
L 94.462949 131.260292 
L 95.54875 165.884108 
L 96.634552 159.314461 
L 97.720353 163.078691 
L 98.806154 156.970695 
L 99.891955 144.896749 
L 100.977756 147.631142 
L 102.063557 148.838537 
L 103.149358 141.132518 
L 104.23516 134.491848 
L 105.320961 134.172243 
L 106.406762 133.568546 
L 107.492563 130.230455 
L 108.578364 127.282992 
L 109.664165 126.501737 
L 110.749967 121.530112 
L 111.835768 117.765881 
L 112.921569 117.162184 
L 114.00737 108.923492 
L 115.093171 115.066999 
L 116.178972 107.929167 
L 117.264773 109.953328 
L 118.350575 103.277146 
L 119.436376 108.923492 
L 120.522177 103.064077 
L 121.607978 99.868032 
L 122.693779 99.690474 
L 123.77958 92.694688 
L 124.865382 93.014292 
L 125.951183 93.085315 
L 127.036984 90.208875 
L 128.122785 88.32676 
L 129.208586 88.788411 
L 130.294387 85.947482 
L 131.380189 86.018506 
L 132.46599 86.302598 
L 133.551791 84.171902 
L 134.637592 83.816786 
L 135.723393 84.527018 
L 136.809194 83.426158 
L 137.894995 84.633553 
L 138.980797 127.886689 
L 140.066598 130.301478 
L 141.152399 123.305692 
L 142.2382 117.907928 
L 143.324001 113.54 
L 144.409802 112.510164 
L 145.495604 114.179209 
L 146.581405 113.255908 
L 147.667206 117.836905 
L 148.753007 106.082563 
L 149.838808 109.349631 
L 150.924609 107.396493 
L 152.01041 119.612485 
L 153.096212 109.669235 
L 154.182013 107.574051 
L 155.267814 113.220396 
L 156.353615 109.491677 
L 157.439416 104.839657 
L 158.525217 106.721772 
L 159.611019 106.047051 
L 160.69682 112.084025 
L 161.782621 100.294171 
L 162.868422 97.666312 
L 163.954223 102.673449 
L 165.040024 98.873707 
L 166.125825 97.453243 
L 167.211627 98.589614 
L 168.297428 95.926244 
L 169.383229 97.595289 
L 170.46903 94.399245 
L 171.554831 94.221687 
L 172.640632 91.41627 
L 173.726434 92.375083 
L 174.812235 89.995806 
L 175.898036 93.795547 
L 176.983837 88.823923 
L 178.069638 89.640689 
L 179.155439 87.616528 
L 180.24124 88.859434 
L 181.327042 90.599503 
L 182.412843 87.296923 
L 183.498644 82.076717 
L 184.584445 83.958832 
L 185.670246 84.065367 
L 186.756047 83.923321 
L 187.841849 81.401997 
L 188.92765 81.437508 
L 190.013451 78.38351 
L 191.099252 77.602255 
L 192.185053 78.276976 
L 193.270854 74.40621 
L 194.356656 76.252814 
L 195.442457 73.269839 
L 196.528258 73.198816 
L 197.614059 70.606469 
L 198.69986 70.038283 
L 199.785661 70.961585 
L 200.871462 67.339401 
L 201.957264 69.07947 
L 203.043065 68.440261 
L 204.128866 66.451611 
L 205.214667 68.369237 
L 206.300468 68.65333 
L 207.386269 65.457286 
L 208.472071 65.421774 
L 209.557872 65.812402 
L 210.643673 63.504147 
L 211.729474 62.864938 
L 212.815275 63.149031 
L 213.901076 62.68738 
L 214.986877 62.935962 
L 216.072679 61.764079 
L 218.244281 60.663219 
L 219.330082 60.734242 
L 220.415883 60.485661 
L 222.587486 61.337939 
L 223.673287 60.414638 
L 224.759088 61.195893 
L 225.844889 118.369579 
L 228.016491 103.561239 
L 229.102292 109.243096 
L 230.188094 113.717558 
L 231.273895 103.206123 
L 232.359696 114.747395 
L 234.531298 103.028565 
L 235.617099 103.738797 
L 236.702901 100.613776 
L 237.788702 106.615237 
L 238.874503 109.314119 
L 239.960304 104.342494 
L 241.046105 103.348169 
L 242.131906 104.946192 
L 243.217708 107.822632 
L 244.303509 97.027104 
L 245.38931 101.004403 
L 246.475111 99.939055 
L 247.560912 97.346708 
L 248.646713 103.667774 
L 249.732514 100.294171 
L 250.818316 95.287035 
L 251.904117 103.774309 
L 252.989918 98.980242 
L 254.075719 98.376545 
L 255.16152 96.174825 
L 256.247321 98.447568 
L 257.333123 97.701824 
L 258.418924 99.974567 
L 259.504725 94.825384 
L 260.590526 95.002942 
L 261.676327 93.049804 
L 262.762128 99.477404 
L 263.847929 100.187636 
L 264.933731 93.440431 
L 266.019532 91.984455 
L 267.105333 92.446106 
L 268.191134 95.429081 
L 269.276935 101.004403 
L 270.362736 99.583939 
L 271.448538 90.031317 
L 272.534339 95.287035 
L 273.62014 91.025642 
L 274.705941 91.558316 
L 275.791742 99.548428 
L 276.877543 92.162013 
L 277.963344 94.363733 
L 279.049146 87.509993 
L 280.134947 86.018506 
L 281.220748 88.362272 
L 282.306549 86.657715 
L 283.39235 90.883596 
L 285.563953 95.748686 
L 286.649754 91.806897 
L 287.735555 90.848084 
L 288.821356 91.948944 
L 289.907157 88.717388 
L 290.992958 82.467345 
L 293.164561 85.095204 
L 294.250362 81.25995 
L 295.336163 87.865109 
L 296.421964 85.272762 
L 297.507765 88.397783 
L 298.593566 84.811111 
L 299.679368 86.515668 
L 300.765169 84.775599 
L 301.85097 82.325299 
L 302.936771 86.373622 
L 304.022572 81.401997 
L 305.108373 88.078179 
L 306.194175 80.940346 
L 307.279976 80.975858 
L 308.365777 75.862186 
L 309.451578 78.80965 
L 310.537379 84.775599 
L 311.62318 79.235789 
L 312.708981 79.661928 
L 313.794783 76.501395 
L 314.880584 79.590905 
L 315.966385 82.325299 
L 317.052186 77.566743 
L 318.137987 77.815325 
L 320.30959 74.086606 
L 321.395391 74.583768 
L 322.481192 75.294001 
L 323.566993 76.963046 
L 324.652794 72.985746 
L 325.738595 70.109306 
L 326.824396 76.785488 
L 327.910198 76.39486 
L 328.995999 75.613605 
L 330.0818 77.034069 
L 331.167601 74.441722 
L 332.253402 71.068119 
L 333.339203 73.127793 
L 334.425005 73.873536 
L 335.510806 72.346537 
L 336.596607 66.629169 
L 337.682408 69.576632 
L 339.85401 67.694517 
L 340.939811 64.249891 
L 342.025613 69.718678 
L 344.197215 65.421774 
L 345.283016 64.427449 
L 346.368817 63.717217 
L 347.454618 63.752729 
L 348.54042 63.433124 
L 351.797823 61.764079 
L 352.883624 62.154706 
L 353.969425 61.302428 
L 355.055227 59.775429 
L 356.141028 58.603546 
L 357.226829 63.291078 
L 358.31263 58.958662 
L 359.398431 59.739917 
L 360.484232 58.639057 
L 361.570033 56.898989 
L 362.655835 58.070872 
L 363.741636 56.721431 
L 364.827437 56.579384 
L 365.913238 55.869152 
L 366.999039 56.792454 
L 369.170642 58.92315 
L 370.256443 61.337939 
L 371.342244 64.178868 
L 372.428045 62.083683 
L 373.513846 63.717217 
L 374.599647 65.741379 
L 375.685448 65.563821 
L 376.77125 65.634844 
L 377.857051 64.747054 
L 378.942852 64.072333 
L 380.028653 61.977148 
L 381.114454 63.965798 
L 382.200255 67.587982 
L 383.286057 66.806727 
L 384.371858 66.522634 
L 385.457659 62.580846 
L 386.54346 66.274053 
L 387.629261 63.468636 
L 388.715062 63.930287 
L 389.800863 66.842238 
L 390.886665 68.085145 
L 391.972466 69.96726 
L 393.058267 67.09082 
L 394.144068 65.741379 
L 395.229869 64.747054 
L 396.31567 67.730029 
L 397.401472 66.558146 
L 398.487273 67.303889 
L 398.487273 67.303889 
" clip-path="url(#pe9ea921c92)" style="fill: none; stroke: #ff7f0e; stroke-width: 1.5; stroke-linecap: square"/>
   </g>
   <g id="line2d_20">
    <path d="M 73.832727 295.488 
L 74.918528 282.875257 
L 76.00433 275.674973 
L 77.090131 272.736081 
L 78.175932 263.845934 
L 79.261733 265.143945 
L 80.347534 258.727365 
L 81.433335 254.563935 
L 82.519137 251.18421 
L 83.604938 248.245319 
L 84.690739 246.35953 
L 85.77654 247.045271 
L 86.862341 236.293826 
L 87.948142 245.08601 
L 89.033943 234.652945 
L 90.119745 234.995816 
L 91.205546 234.995816 
L 93.377148 230.073173 
L 94.462949 230.293589 
L 95.54875 248.000411 
L 96.634552 239.600079 
L 97.720353 248.759625 
L 98.806154 246.433002 
L 99.891955 241.706285 
L 100.977756 235.852993 
L 102.063557 241.485868 
L 103.149358 236.710169 
L 104.23516 230.440534 
L 105.320961 225.689326 
L 106.406762 225.321965 
L 107.492563 230.048682 
L 108.578364 223.754556 
L 109.664165 224.293352 
L 110.749967 221.672841 
L 111.835768 216.799179 
L 114.00737 211.533665 
L 115.093171 217.876773 
L 116.178972 214.350103 
L 117.264773 216.50529 
L 118.350575 211.7051 
L 119.436376 216.064456 
L 122.693779 208.227412 
L 123.77958 200.46384 
L 124.865382 201.076109 
L 125.951183 202.276157 
L 127.036984 201.1006 
L 128.122785 200.096479 
L 129.208586 198.259672 
L 130.294387 196.986152 
L 131.380189 195.467725 
L 132.46599 196.618791 
L 133.551791 195.614669 
L 134.637592 195.541197 
L 135.723393 193.851334 
L 136.809194 193.851334 
L 137.894995 195.443234 
L 138.980797 228.603727 
L 140.066598 225.591363 
L 141.152399 217.607374 
L 142.2382 219.174783 
L 143.324001 211.36223 
L 144.409802 216.235892 
L 145.495604 211.7051 
L 146.581405 208.276394 
L 147.667206 217.044087 
L 148.753007 217.14205 
L 149.838808 203.01088 
L 150.924609 209.941765 
L 152.01041 219.836034 
L 153.096212 217.8033 
L 154.182013 209.819312 
L 155.267814 212.464314 
L 156.353615 209.231533 
L 157.439416 211.117322 
L 158.525217 204.798705 
L 159.611019 206.464077 
L 160.69682 215.354224 
L 161.782621 208.202921 
L 162.868422 194.953419 
L 163.954223 203.574167 
L 165.040024 203.378241 
L 166.125825 196.324901 
L 167.211627 194.390131 
L 168.297428 190.569572 
L 169.383229 199.778099 
L 170.46903 196.398374 
L 171.554831 198.700505 
L 172.640632 195.859577 
L 173.726434 202.790463 
L 174.812235 192.210453 
L 175.898036 196.618791 
L 176.983837 187.189847 
L 178.069638 196.569809 
L 179.155439 186.063272 
L 180.24124 192.969667 
L 181.327042 198.798468 
L 182.412843 190.936934 
L 183.498644 191.034897 
L 184.584445 184.569335 
L 185.670246 188.634802 
L 186.756047 194.145223 
L 187.841849 184.642807 
L 188.92765 179.695673 
L 190.013451 181.654934 
L 191.099252 182.046787 
L 192.185053 181.801879 
L 193.270854 179.27933 
L 194.356656 181.214101 
L 195.442457 175.042428 
L 196.528258 176.193494 
L 197.614059 176.756782 
L 198.69986 176.36493 
L 199.785661 171.88312 
L 200.871462 172.250482 
L 201.957264 173.695437 
L 203.043065 180.528359 
L 204.128866 172.323954 
L 205.214667 175.238355 
L 206.300468 169.164645 
L 208.472071 169.409553 
L 209.557872 169.483025 
L 210.643673 167.6952 
L 211.729474 167.180894 
L 212.815275 166.446171 
L 213.901076 165.956355 
L 214.986877 165.637976 
L 216.072679 167.033949 
L 217.15848 167.646218 
L 218.244281 165.393068 
L 219.330082 165.662466 
L 220.415883 165.637976 
L 221.501684 164.5114 
L 223.673287 164.80529 
L 224.759088 165.025706 
L 225.844889 215.990984 
L 226.93069 205.337502 
L 228.016491 199.631154 
L 230.188094 211.778573 
L 231.273895 200.855692 
L 232.359696 209.990747 
L 233.445497 207.443708 
L 234.531298 197.426986 
L 235.617099 200.169951 
L 236.702901 203.892547 
L 237.788702 205.26403 
L 238.874503 206.121206 
L 239.960304 198.52907 
L 241.046105 202.178194 
L 242.131906 204.798705 
L 243.217708 210.358108 
L 244.303509 203.451713 
L 245.38931 197.745366 
L 246.475111 193.826844 
L 247.560912 195.663651 
L 248.646713 200.708748 
L 249.732514 204.921159 
L 250.818316 196.5943 
L 251.904117 210.896905 
L 252.989918 196.324901 
L 254.075719 200.169951 
L 255.16152 202.643518 
L 256.247321 192.798232 
L 257.333123 198.553561 
L 258.418924 197.182078 
L 259.504725 196.104484 
L 260.590526 192.014527 
L 261.676327 195.124854 
L 262.762128 196.91268 
L 263.847929 198.431107 
L 264.933731 189.075636 
L 266.019532 193.410501 
L 267.105333 196.545318 
L 268.191134 196.5943 
L 269.276935 201.272035 
L 270.362736 202.202684 
L 271.448538 190.324664 
L 272.534339 202.937407 
L 273.62014 194.34115 
L 274.705941 195.100363 
L 275.791742 198.773978 
L 276.877543 193.728881 
L 277.963344 196.569809 
L 279.049146 185.304058 
L 281.220748 194.757493 
L 282.306549 183.344797 
L 283.39235 190.006285 
L 284.478151 193.728881 
L 285.563953 198.039255 
L 286.649754 192.651287 
L 287.735555 197.524949 
L 288.821356 195.467725 
L 289.907157 188.120496 
L 290.992958 181.752897 
L 292.07876 187.483736 
L 293.164561 184.593826 
L 294.250362 181.042665 
L 295.336163 198.382125 
L 296.421964 196.5943 
L 297.507765 195.149345 
L 298.593566 198.333144 
L 299.679368 184.936697 
L 300.765169 186.626559 
L 301.85097 180.944702 
L 302.936771 185.793873 
L 305.108373 192.11249 
L 306.194175 187.655171 
L 308.365777 180.185489 
L 309.451578 181.654934 
L 310.537379 194.659529 
L 311.62318 184.128501 
L 312.708981 186.96943 
L 313.794783 184.569335 
L 314.880584 185.304058 
L 315.966385 191.647166 
L 317.052186 178.789515 
L 318.137987 183.589705 
L 319.223788 177.858866 
L 320.30959 179.181367 
L 321.395391 181.165119 
L 322.481192 181.875351 
L 323.566993 181.752897 
L 324.652794 175.875114 
L 325.738595 176.242476 
L 326.824396 180.332433 
L 328.995999 176.585347 
L 330.0818 184.07952 
L 331.167601 182.291694 
L 332.253402 177.001689 
L 333.339203 178.005811 
L 334.425005 177.148634 
L 335.510806 171.197379 
L 336.596607 167.131912 
L 337.682408 177.98132 
L 338.768209 171.099416 
L 339.85401 173.034186 
L 340.939811 162.013343 
L 342.025613 171.295342 
L 343.111414 170.26673 
L 344.197215 166.838023 
L 345.283016 166.74006 
L 346.368817 166.789041 
L 347.454618 170.021822 
L 348.54042 166.862514 
L 349.626221 164.290984 
L 350.712022 170.144276 
L 351.797823 165.833902 
L 352.883624 163.605242 
L 353.969425 164.80529 
L 355.055227 162.25825 
L 356.141028 162.23376 
L 357.226829 167.05844 
L 358.31263 162.723575 
L 359.398431 164.878762 
L 360.484232 163.825659 
L 361.570033 161.327601 
L 362.655835 163.21339 
L 363.741636 157.653987 
L 364.827437 162.723575 
L 365.913238 159.000979 
L 366.999039 160.0051 
L 368.08484 162.57663 
L 369.170642 163.262372 
L 370.256443 165.050197 
L 371.342244 166.42168 
L 372.428045 163.948113 
L 373.513846 175.507753 
L 374.599647 167.180894 
L 375.685448 170.781036 
L 376.77125 173.891363 
L 377.857051 168.919738 
L 378.942852 170.315711 
L 380.028653 163.53177 
L 381.114454 169.262608 
L 382.200255 175.752661 
L 383.286057 174.968956 
L 384.371858 166.666588 
L 385.457659 168.968719 
L 386.54346 167.523764 
L 387.629261 171.270851 
L 388.715062 168.552376 
L 389.800863 173.450529 
L 390.886665 173.279094 
L 391.972466 170.732054 
L 393.058267 172.666824 
L 394.144068 167.915616 
L 395.229869 165.858392 
L 396.31567 168.111543 
L 397.401472 168.233996 
L 398.487273 169.776914 
L 398.487273 169.776914 
" clip-path="url(#pe9ea921c92)" style="fill: none; stroke: #2ca02c; stroke-width: 1.5; stroke-linecap: square"/>
   </g>
   <g id="line2d_21">
    <path d="M 368.08484 58.603546 
L 369.170642 58.639057 
L 370.256443 60.02401 
L 371.342244 64.107845 
L 372.428045 64.711542 
L 373.513846 64.391938 
L 374.599647 62.829427 
L 375.685448 66.451611 
L 376.77125 67.694517 
L 377.857051 66.274053 
L 378.942852 66.700192 
L 380.028653 68.937423 
L 381.114454 68.085145 
L 382.200255 66.735704 
L 383.286057 64.391938 
L 384.371858 66.380587 
L 385.457659 71.387724 
L 386.54346 71.813863 
L 387.629261 75.400535 
L 389.800863 72.524095 
L 390.886665 72.701653 
L 391.972466 74.228652 
L 393.058267 73.909048 
L 394.144068 82.928996 
L 395.229869 73.695978 
L 396.31567 72.133468 
L 397.401472 74.548257 
L 398.487273 82.928996 
L 398.487273 82.928996 
" clip-path="url(#pe9ea921c92)" style="fill: none; stroke: #d62728; stroke-width: 1.5; stroke-linecap: square"/>
   </g>
   <g id="line2d_22">
    <path d="M 368.08484 161.107184 
L 369.170642 168.748302 
L 370.256443 165.760429 
L 371.342244 163.678715 
L 372.428045 168.185015 
L 373.513846 171.956592 
L 374.599647 163.090936 
L 375.685448 164.756308 
L 376.77125 170.364693 
L 377.857051 166.078809 
L 378.942852 169.727933 
L 380.028653 168.919738 
L 381.114454 169.483025 
L 382.200255 166.960477 
L 383.286057 159.637739 
L 384.371858 165.442049 
L 385.457659 169.556498 
L 386.54346 168.233996 
L 387.629261 178.544608 
L 388.715062 174.185252 
L 389.800863 171.221869 
L 390.886665 172.568861 
L 391.972466 170.389184 
L 393.058267 167.37682 
L 394.144068 187.116375 
L 395.229869 169.678951 
L 396.31567 171.393305 
L 397.401472 172.299463 
L 398.487273 179.842618 
L 398.487273 179.842618 
" clip-path="url(#pe9ea921c92)" style="fill: none; stroke: #9467bd; stroke-width: 1.5; stroke-linecap: square"/>
   </g>
   <g id="patch_3">
    <path d="M 57.6 307.584 
L 57.6 41.472 
" style="fill: none; stroke: #000000; stroke-width: 0.8; stroke-linejoin: miter; stroke-linecap: square"/>
   </g>
   <g id="patch_4">
    <path d="M 414.72 307.584 
L 414.72 41.472 
" style="fill: none; stroke: #000000; stroke-width: 0.8; stroke-linejoin: miter; stroke-linecap: square"/>
   </g>
   <g id="patch_5">
    <path d="M 57.6 307.584 
L 414.72 307.584 
" style="fill: none; stroke: #000000; stroke-width: 0.8; stroke-linejoin: miter; stroke-linecap: square"/>
   </g>
   <g id="patch_6">
    <path d="M 57.6 41.472 
L 414.72 41.472 
" style="fill: none; stroke: #000000; stroke-width: 0.8; stroke-linejoin: miter; stroke-linecap: square"/>
   </g>
   <g id="text_20">
    <!-- Learning Curves -->
    <g transform="translate(187.37625 35.472) scale(0.12 -0.12)">
     <defs>
      <path id="DejaVuSans-4c" d="M 628 4666 
L 1259 4666 
L 1259 531 
L 3531 531 
L 3531 0 
L 628 0 
L 628 4666 
z
" transform="scale(0.015625)"/>
      <path id="DejaVuSans-65" d="M 3597 1894 
L 3597 1613 
L 953 1613 
Q 991 1019 1311 708 
Q 1631 397 2203 397 
Q 2534 397 2845 478 
Q 3156 559 3463 722 
L 3463 178 
Q 3153 47 2828 -22 
Q 2503 -91 2169 -91 
Q 1331 -91 842 396 
Q 353 884 353 1716 
Q 353 2575 817 3079 
Q 1281 3584 2069 3584 
Q 2775 3584 3186 3129 
Q 3597 2675 3597 1894 
z
M 3022 2063 
Q 3016 2534 2758 2815 
Q 2500 3097 2075 3097 
Q 1594 3097 1305 2825 
Q 1016 2553 972 2059 
L 3022 2063 
z
" transform="scale(0.015625)"/>
      <path id="DejaVuSans-6e" d="M 3513 2113 
L 3513 0 
L 2938 0 
L 2938 2094 
Q 2938 2591 2744 2837 
Q 2550 3084 2163 3084 
Q 1697 3084 1428 2787 
Q 1159 2491 1159 1978 
L 1159 0 
L 581 0 
L 581 3500 
L 1159 3500 
L 1159 2956 
Q 1366 3272 1645 3428 
Q 1925 3584 2291 3584 
Q 2894 3584 3203 3211 
Q 3513 2838 3513 2113 
z
" transform="scale(0.015625)"/>
      <path id="DejaVuSans-69" d="M 603 3500 
L 1178 3500 
L 1178 0 
L 603 0 
L 603 3500 
z
M 603 4863 
L 1178 4863 
L 1178 4134 
L 603 4134 
L 603 4863 
z
" transform="scale(0.015625)"/>
      <path id="DejaVuSans-67" d="M 2906 1791 
Q 2906 2416 2648 2759 
Q 2391 3103 1925 3103 
Q 1463 3103 1205 2759 
Q 947 2416 947 1791 
Q 947 1169 1205 825 
Q 1463 481 1925 481 
Q 2391 481 2648 825 
Q 2906 1169 2906 1791 
z
M 3481 434 
Q 3481 -459 3084 -895 
Q 2688 -1331 1869 -1331 
Q 1566 -1331 1297 -1286 
Q 1028 -1241 775 -1147 
L 775 -588 
Q 1028 -725 1275 -790 
Q 1522 -856 1778 -856 
Q 2344 -856 2625 -561 
Q 2906 -266 2906 331 
L 2906 616 
Q 2728 306 2450 153 
Q 2172 0 1784 0 
Q 1141 0 747 490 
Q 353 981 353 1791 
Q 353 2603 747 3093 
Q 1141 3584 1784 3584 
Q 2172 3584 2450 3431 
Q 2728 3278 2906 2969 
L 2906 3500 
L 3481 3500 
L 3481 434 
z
" transform="scale(0.015625)"/>
      <path id="DejaVuSans-20" transform="scale(0.015625)"/>
      <path id="DejaVuSans-43" d="M 4122 4306 
L 4122 3641 
Q 3803 3938 3442 4084 
Q 3081 4231 2675 4231 
Q 1875 4231 1450 3742 
Q 1025 3253 1025 2328 
Q 1025 1406 1450 917 
Q 1875 428 2675 428 
Q 3081 428 3442 575 
Q 3803 722 4122 1019 
L 4122 359 
Q 3791 134 3420 21 
Q 3050 -91 2638 -91 
Q 1578 -91 968 557 
Q 359 1206 359 2328 
Q 359 3453 968 4101 
Q 1578 4750 2638 4750 
Q 3056 4750 3426 4639 
Q 3797 4528 4122 4306 
z
" transform="scale(0.015625)"/>
      <path id="DejaVuSans-76" d="M 191 3500 
L 800 3500 
L 1894 563 
L 2988 3500 
L 3597 3500 
L 2284 0 
L 1503 0 
L 191 3500 
z
" transform="scale(0.015625)"/>
     </defs>
     <use xlink:href="#DejaVuSans-4c"/>
     <use xlink:href="#DejaVuSans-65" x="53.962891"/>
     <use xlink:href="#DejaVuSans-61" x="115.486328"/>
     <use xlink:href="#DejaVuSans-72" x="176.765625"/>
     <use xlink:href="#DejaVuSans-6e" x="216.128906"/>
     <use xlink:href="#DejaVuSans-69" x="279.507812"/>
     <use xlink:href="#DejaVuSans-6e" x="307.291016"/>
     <use xlink:href="#DejaVuSans-67" x="370.669922"/>
     <use xlink:href="#DejaVuSans-20" x="434.146484"/>
     <use xlink:href="#DejaVuSans-43" x="465.933594"/>
     <use xlink:href="#DejaVuSans-75" x="535.757812"/>
     <use xlink:href="#DejaVuSans-72" x="599.136719"/>
     <use xlink:href="#DejaVuSans-76" x="640.25"/>
     <use xlink:href="#DejaVuSans-65" x="699.429688"/>
     <use xlink:href="#DejaVuSans-73" x="760.953125"/>
    </g>
   </g>
   <g id="legend_1">
    <g id="patch_7">
     <path d="M 214.18875 302.584 
L 407.72 302.584 
Q 409.72 302.584 409.72 300.584 
L 409.72 228.193375 
Q 409.72 226.193375 407.72 226.193375 
L 214.18875 226.193375 
Q 212.18875 226.193375 212.18875 228.193375 
L 212.18875 300.584 
Q 212.18875 302.584 214.18875 302.584 
z
" style="fill: #ffffff; opacity: 0.8; stroke: #cccccc; stroke-linejoin: miter"/>
    </g>
    <g id="line2d_23">
     <path d="M 216.18875 234.291812 
L 226.18875 234.291812 
L 236.18875 234.291812 
" style="fill: none; stroke: #1f77b4; stroke-width: 1.5; stroke-linecap: square"/>
    </g>
    <g id="text_21">
     <!-- Train Accuracy -->
     <g transform="translate(244.18875 237.791812) scale(0.1 -0.1)">
      <defs>
       <path id="DejaVuSans-54" d="M -19 4666 
L 3928 4666 
L 3928 4134 
L 2272 4134 
L 2272 0 
L 1638 0 
L 1638 4134 
L -19 4134 
L -19 4666 
z
" transform="scale(0.015625)"/>
      </defs>
      <use xlink:href="#DejaVuSans-54"/>
      <use xlink:href="#DejaVuSans-72" x="46.333984"/>
      <use xlink:href="#DejaVuSans-61" x="87.447266"/>
      <use xlink:href="#DejaVuSans-69" x="148.726562"/>
      <use xlink:href="#DejaVuSans-6e" x="176.509766"/>
      <use xlink:href="#DejaVuSans-20" x="239.888672"/>
      <use xlink:href="#DejaVuSans-41" x="271.675781"/>
      <use xlink:href="#DejaVuSans-63" x="338.333984"/>
      <use xlink:href="#DejaVuSans-63" x="393.314453"/>
      <use xlink:href="#DejaVuSans-75" x="448.294922"/>
      <use xlink:href="#DejaVuSans-72" x="511.673828"/>
      <use xlink:href="#DejaVuSans-61" x="552.787109"/>
      <use xlink:href="#DejaVuSans-63" x="614.066406"/>
      <use xlink:href="#DejaVuSans-79" x="669.046875"/>
     </g>
    </g>
    <g id="line2d_24">
     <path d="M 216.18875 248.969937 
L 226.18875 248.969937 
L 236.18875 248.969937 
" style="fill: none; stroke: #ff7f0e; stroke-width: 1.5; stroke-linecap: square"/>
    </g>
    <g id="text_22">
     <!-- Validation Accuracy -->
     <g transform="translate(244.18875 252.469937) scale(0.1 -0.1)">
      <defs>
       <path id="DejaVuSans-56" d="M 1831 0 
L 50 4666 
L 709 4666 
L 2188 738 
L 3669 4666 
L 4325 4666 
L 2547 0 
L 1831 0 
z
" transform="scale(0.015625)"/>
       <path id="DejaVuSans-6c" d="M 603 4863 
L 1178 4863 
L 1178 0 
L 603 0 
L 603 4863 
z
" transform="scale(0.015625)"/>
       <path id="DejaVuSans-64" d="M 2906 2969 
L 2906 4863 
L 3481 4863 
L 3481 0 
L 2906 0 
L 2906 525 
Q 2725 213 2448 61 
Q 2172 -91 1784 -91 
Q 1150 -91 751 415 
Q 353 922 353 1747 
Q 353 2572 751 3078 
Q 1150 3584 1784 3584 
Q 2172 3584 2448 3432 
Q 2725 3281 2906 2969 
z
M 947 1747 
Q 947 1113 1208 752 
Q 1469 391 1925 391 
Q 2381 391 2643 752 
Q 2906 1113 2906 1747 
Q 2906 2381 2643 2742 
Q 2381 3103 1925 3103 
Q 1469 3103 1208 2742 
Q 947 2381 947 1747 
z
" transform="scale(0.015625)"/>
       <path id="DejaVuSans-74" d="M 1172 4494 
L 1172 3500 
L 2356 3500 
L 2356 3053 
L 1172 3053 
L 1172 1153 
Q 1172 725 1289 603 
Q 1406 481 1766 481 
L 2356 481 
L 2356 0 
L 1766 0 
Q 1100 0 847 248 
Q 594 497 594 1153 
L 594 3053 
L 172 3053 
L 172 3500 
L 594 3500 
L 594 4494 
L 1172 4494 
z
" transform="scale(0.015625)"/>
      </defs>
      <use xlink:href="#DejaVuSans-56"/>
      <use xlink:href="#DejaVuSans-61" x="60.658203"/>
      <use xlink:href="#DejaVuSans-6c" x="121.9375"/>
      <use xlink:href="#DejaVuSans-69" x="149.720703"/>
      <use xlink:href="#DejaVuSans-64" x="177.503906"/>
      <use xlink:href="#DejaVuSans-61" x="240.980469"/>
      <use xlink:href="#DejaVuSans-74" x="302.259766"/>
      <use xlink:href="#DejaVuSans-69" x="341.46875"/>
      <use xlink:href="#DejaVuSans-6f" x="369.251953"/>
      <use xlink:href="#DejaVuSans-6e" x="430.433594"/>
      <use xlink:href="#DejaVuSans-20" x="493.8125"/>
      <use xlink:href="#DejaVuSans-41" x="525.599609"/>
      <use xlink:href="#DejaVuSans-63" x="592.257812"/>
      <use xlink:href="#DejaVuSans-63" x="647.238281"/>
      <use xlink:href="#DejaVuSans-75" x="702.21875"/>
      <use xlink:href="#DejaVuSans-72" x="765.597656"/>
      <use xlink:href="#DejaVuSans-61" x="806.710938"/>
      <use xlink:href="#DejaVuSans-63" x="867.990234"/>
      <use xlink:href="#DejaVuSans-79" x="922.970703"/>
     </g>
    </g>
    <g id="line2d_25">
     <path d="M 216.18875 263.648062 
L 226.18875 263.648062 
L 236.18875 263.648062 
" style="fill: none; stroke: #2ca02c; stroke-width: 1.5; stroke-linecap: square"/>
    </g>
    <g id="text_23">
     <!-- Robust Validation Accuracy -->
     <g transform="translate(244.18875 267.148062) scale(0.1 -0.1)">
      <defs>
       <path id="DejaVuSans-52" d="M 2841 2188 
Q 3044 2119 3236 1894 
Q 3428 1669 3622 1275 
L 4263 0 
L 3584 0 
L 2988 1197 
Q 2756 1666 2539 1819 
Q 2322 1972 1947 1972 
L 1259 1972 
L 1259 0 
L 628 0 
L 628 4666 
L 2053 4666 
Q 2853 4666 3247 4331 
Q 3641 3997 3641 3322 
Q 3641 2881 3436 2590 
Q 3231 2300 2841 2188 
z
M 1259 4147 
L 1259 2491 
L 2053 2491 
Q 2509 2491 2742 2702 
Q 2975 2913 2975 3322 
Q 2975 3731 2742 3939 
Q 2509 4147 2053 4147 
L 1259 4147 
z
" transform="scale(0.015625)"/>
       <path id="DejaVuSans-62" d="M 3116 1747 
Q 3116 2381 2855 2742 
Q 2594 3103 2138 3103 
Q 1681 3103 1420 2742 
Q 1159 2381 1159 1747 
Q 1159 1113 1420 752 
Q 1681 391 2138 391 
Q 2594 391 2855 752 
Q 3116 1113 3116 1747 
z
M 1159 2969 
Q 1341 3281 1617 3432 
Q 1894 3584 2278 3584 
Q 2916 3584 3314 3078 
Q 3713 2572 3713 1747 
Q 3713 922 3314 415 
Q 2916 -91 2278 -91 
Q 1894 -91 1617 61 
Q 1341 213 1159 525 
L 1159 0 
L 581 0 
L 581 4863 
L 1159 4863 
L 1159 2969 
z
" transform="scale(0.015625)"/>
      </defs>
      <use xlink:href="#DejaVuSans-52"/>
      <use xlink:href="#DejaVuSans-6f" x="64.982422"/>
      <use xlink:href="#DejaVuSans-62" x="126.164062"/>
      <use xlink:href="#DejaVuSans-75" x="189.640625"/>
      <use xlink:href="#DejaVuSans-73" x="253.019531"/>
      <use xlink:href="#DejaVuSans-74" x="305.119141"/>
      <use xlink:href="#DejaVuSans-20" x="344.328125"/>
      <use xlink:href="#DejaVuSans-56" x="376.115234"/>
      <use xlink:href="#DejaVuSans-61" x="436.773438"/>
      <use xlink:href="#DejaVuSans-6c" x="498.052734"/>
      <use xlink:href="#DejaVuSans-69" x="525.835938"/>
      <use xlink:href="#DejaVuSans-64" x="553.619141"/>
      <use xlink:href="#DejaVuSans-61" x="617.095703"/>
      <use xlink:href="#DejaVuSans-74" x="678.375"/>
      <use xlink:href="#DejaVuSans-69" x="717.583984"/>
      <use xlink:href="#DejaVuSans-6f" x="745.367188"/>
      <use xlink:href="#DejaVuSans-6e" x="806.548828"/>
      <use xlink:href="#DejaVuSans-20" x="869.927734"/>
      <use xlink:href="#DejaVuSans-41" x="901.714844"/>
      <use xlink:href="#DejaVuSans-63" x="968.373047"/>
      <use xlink:href="#DejaVuSans-63" x="1023.353516"/>
      <use xlink:href="#DejaVuSans-75" x="1078.333984"/>
      <use xlink:href="#DejaVuSans-72" x="1141.712891"/>
      <use xlink:href="#DejaVuSans-61" x="1182.826172"/>
      <use xlink:href="#DejaVuSans-63" x="1244.105469"/>
      <use xlink:href="#DejaVuSans-79" x="1299.085938"/>
     </g>
    </g>
    <g id="line2d_26">
     <path d="M 216.18875 278.326188 
L 226.18875 278.326188 
L 236.18875 278.326188 
" style="fill: none; stroke: #d62728; stroke-width: 1.5; stroke-linecap: square"/>
    </g>
    <g id="text_24">
     <!-- SWA Validation Accuracy -->
     <g transform="translate(244.18875 281.826188) scale(0.1 -0.1)">
      <defs>
       <path id="DejaVuSans-53" d="M 3425 4513 
L 3425 3897 
Q 3066 4069 2747 4153 
Q 2428 4238 2131 4238 
Q 1616 4238 1336 4038 
Q 1056 3838 1056 3469 
Q 1056 3159 1242 3001 
Q 1428 2844 1947 2747 
L 2328 2669 
Q 3034 2534 3370 2195 
Q 3706 1856 3706 1288 
Q 3706 609 3251 259 
Q 2797 -91 1919 -91 
Q 1588 -91 1214 -16 
Q 841 59 441 206 
L 441 856 
Q 825 641 1194 531 
Q 1563 422 1919 422 
Q 2459 422 2753 634 
Q 3047 847 3047 1241 
Q 3047 1584 2836 1778 
Q 2625 1972 2144 2069 
L 1759 2144 
Q 1053 2284 737 2584 
Q 422 2884 422 3419 
Q 422 4038 858 4394 
Q 1294 4750 2059 4750 
Q 2388 4750 2728 4690 
Q 3069 4631 3425 4513 
z
" transform="scale(0.015625)"/>
       <path id="DejaVuSans-57" d="M 213 4666 
L 850 4666 
L 1831 722 
L 2809 4666 
L 3519 4666 
L 4500 722 
L 5478 4666 
L 6119 4666 
L 4947 0 
L 4153 0 
L 3169 4050 
L 2175 0 
L 1381 0 
L 213 4666 
z
" transform="scale(0.015625)"/>
      </defs>
      <use xlink:href="#DejaVuSans-53"/>
      <use xlink:href="#DejaVuSans-57" x="63.476562"/>
      <use xlink:href="#DejaVuSans-41" x="156.853516"/>
      <use xlink:href="#DejaVuSans-20" x="225.261719"/>
      <use xlink:href="#DejaVuSans-56" x="257.048828"/>
      <use xlink:href="#DejaVuSans-61" x="317.707031"/>
      <use xlink:href="#DejaVuSans-6c" x="378.986328"/>
      <use xlink:href="#DejaVuSans-69" x="406.769531"/>
      <use xlink:href="#DejaVuSans-64" x="434.552734"/>
      <use xlink:href="#DejaVuSans-61" x="498.029297"/>
      <use xlink:href="#DejaVuSans-74" x="559.308594"/>
      <use xlink:href="#DejaVuSans-69" x="598.517578"/>
      <use xlink:href="#DejaVuSans-6f" x="626.300781"/>
      <use xlink:href="#DejaVuSans-6e" x="687.482422"/>
      <use xlink:href="#DejaVuSans-20" x="750.861328"/>
      <use xlink:href="#DejaVuSans-41" x="782.648438"/>
      <use xlink:href="#DejaVuSans-63" x="849.306641"/>
      <use xlink:href="#DejaVuSans-63" x="904.287109"/>
      <use xlink:href="#DejaVuSans-75" x="959.267578"/>
      <use xlink:href="#DejaVuSans-72" x="1022.646484"/>
      <use xlink:href="#DejaVuSans-61" x="1063.759766"/>
      <use xlink:href="#DejaVuSans-63" x="1125.039062"/>
      <use xlink:href="#DejaVuSans-79" x="1180.019531"/>
     </g>
    </g>
    <g id="line2d_27">
     <path d="M 216.18875 293.004312 
L 226.18875 293.004312 
L 236.18875 293.004312 
" style="fill: none; stroke: #9467bd; stroke-width: 1.5; stroke-linecap: square"/>
    </g>
    <g id="text_25">
     <!-- SWA Robust Validation Accuracy -->
     <g transform="translate(244.18875 296.504312) scale(0.1 -0.1)">
      <use xlink:href="#DejaVuSans-53"/>
      <use xlink:href="#DejaVuSans-57" x="63.476562"/>
      <use xlink:href="#DejaVuSans-41" x="156.853516"/>
      <use xlink:href="#DejaVuSans-20" x="225.261719"/>
      <use xlink:href="#DejaVuSans-52" x="257.048828"/>
      <use xlink:href="#DejaVuSans-6f" x="322.03125"/>
      <use xlink:href="#DejaVuSans-62" x="383.212891"/>
      <use xlink:href="#DejaVuSans-75" x="446.689453"/>
      <use xlink:href="#DejaVuSans-73" x="510.068359"/>
      <use xlink:href="#DejaVuSans-74" x="562.167969"/>
      <use xlink:href="#DejaVuSans-20" x="601.376953"/>
      <use xlink:href="#DejaVuSans-56" x="633.164062"/>
      <use xlink:href="#DejaVuSans-61" x="693.822266"/>
      <use xlink:href="#DejaVuSans-6c" x="755.101562"/>
      <use xlink:href="#DejaVuSans-69" x="782.884766"/>
      <use xlink:href="#DejaVuSans-64" x="810.667969"/>
      <use xlink:href="#DejaVuSans-61" x="874.144531"/>
      <use xlink:href="#DejaVuSans-74" x="935.423828"/>
      <use xlink:href="#DejaVuSans-69" x="974.632812"/>
      <use xlink:href="#DejaVuSans-6f" x="1002.416016"/>
      <use xlink:href="#DejaVuSans-6e" x="1063.597656"/>
      <use xlink:href="#DejaVuSans-20" x="1126.976562"/>
      <use xlink:href="#DejaVuSans-41" x="1158.763672"/>
      <use xlink:href="#DejaVuSans-63" x="1225.421875"/>
      <use xlink:href="#DejaVuSans-63" x="1280.402344"/>
      <use xlink:href="#DejaVuSans-75" x="1335.382812"/>
      <use xlink:href="#DejaVuSans-72" x="1398.761719"/>
      <use xlink:href="#DejaVuSans-61" x="1439.875"/>
      <use xlink:href="#DejaVuSans-63" x="1501.154297"/>
      <use xlink:href="#DejaVuSans-79" x="1556.134766"/>
     </g>
    </g>
   </g>
  </g>
 </g>
 <defs>
  <clipPath id="pe9ea921c92">
   <rect x="57.6" y="41.472" width="357.12" height="266.112"/>
  </clipPath>
 </defs>
</svg>
