<?xml version="1.0" encoding="utf-8" standalone="no"?>
<!DOCTYPE svg PUBLIC "-//W3C//DTD SVG 1.1//EN"
  "http://www.w3.org/Graphics/SVG/1.1/DTD/svg11.dtd">
<svg xmlns:xlink="http://www.w3.org/1999/xlink" width="460.8pt" height="345.6pt" viewBox="0 0 460.8 345.6" xmlns="http://www.w3.org/2000/svg" version="1.1">
 <metadata>
  <rdf:RDF xmlns:dc="http://purl.org/dc/elements/1.1/" xmlns:cc="http://creativecommons.org/ns#" xmlns:rdf="http://www.w3.org/1999/02/22-rdf-syntax-ns#">
   <cc:Work>
    <dc:type rdf:resource="http://purl.org/dc/dcmitype/StillImage"/>
    <dc:date>2025-03-24T20:12:59.489482</dc:date>
    <dc:format>image/svg+xml</dc:format>
    <dc:creator>
     <cc:Agent>
      <dc:title>Matplotlib v3.9.1, https://matplotlib.org/</dc:title>
     </cc:Agent>
    </dc:creator>
   </cc:Work>
  </rdf:RDF>
 </metadata>
 <defs>
  <style type="text/css">*{stroke-linejoin: round; stroke-linecap: butt}</style>
 </defs>
 <g id="figure_1">
  <g id="patch_1">
   <path d="M 0 345.6 
L 460.8 345.6 
L 460.8 0 
L 0 0 
z
" style="fill: #ffffff"/>
  </g>
  <g id="axes_1">
   <g id="patch_2">
    <path d="M 57.6 307.584 
L 414.72 307.584 
L 414.72 41.472 
L 57.6 41.472 
z
" style="fill: #ffffff"/>
   </g>
   <g id="matplotlib.axis_1">
    <g id="xtick_1">
     <g id="line2d_1">
      <defs>
       <path id="meaaacc0307" d="M 0 0 
L 0 3.5 
" style="stroke: #000000; stroke-width: 0.8"/>
      </defs>
      <g>
       <use xlink:href="#meaaacc0307" x="73.832727" y="307.584" style="stroke: #000000; stroke-width: 0.8"/>
      </g>
     </g>
     <g id="text_1">
      <!-- 1 -->
      <g transform="translate(70.651477 322.182437) scale(0.1 -0.1)">
       <defs>
        <path id="DejaVuSans-31" d="M 794 531 
L 1825 531 
L 1825 4091 
L 703 3866 
L 703 4441 
L 1819 4666 
L 2450 4666 
L 2450 531 
L 3481 531 
L 3481 0 
L 794 0 
L 794 531 
z
" transform="scale(0.015625)"/>
       </defs>
       <use xlink:href="#DejaVuSans-31"/>
      </g>
     </g>
    </g>
    <g id="xtick_2">
     <g id="line2d_2">
      <g>
       <use xlink:href="#meaaacc0307" x="109.664165" y="307.584" style="stroke: #000000; stroke-width: 0.8"/>
      </g>
     </g>
     <g id="text_2">
      <!-- 34 -->
      <g transform="translate(103.301665 322.182437) scale(0.1 -0.1)">
       <defs>
        <path id="DejaVuSans-33" d="M 2597 2516 
Q 3050 2419 3304 2112 
Q 3559 1806 3559 1356 
Q 3559 666 3084 287 
Q 2609 -91 1734 -91 
Q 1441 -91 1130 -33 
Q 819 25 488 141 
L 488 750 
Q 750 597 1062 519 
Q 1375 441 1716 441 
Q 2309 441 2620 675 
Q 2931 909 2931 1356 
Q 2931 1769 2642 2001 
Q 2353 2234 1838 2234 
L 1294 2234 
L 1294 2753 
L 1863 2753 
Q 2328 2753 2575 2939 
Q 2822 3125 2822 3475 
Q 2822 3834 2567 4026 
Q 2313 4219 1838 4219 
Q 1578 4219 1281 4162 
Q 984 4106 628 3988 
L 628 4550 
Q 988 4650 1302 4700 
Q 1616 4750 1894 4750 
Q 2613 4750 3031 4423 
Q 3450 4097 3450 3541 
Q 3450 3153 3228 2886 
Q 3006 2619 2597 2516 
z
" transform="scale(0.015625)"/>
        <path id="DejaVuSans-34" d="M 2419 4116 
L 825 1625 
L 2419 1625 
L 2419 4116 
z
M 2253 4666 
L 3047 4666 
L 3047 1625 
L 3713 1625 
L 3713 1100 
L 3047 1100 
L 3047 0 
L 2419 0 
L 2419 1100 
L 313 1100 
L 313 1709 
L 2253 4666 
z
" transform="scale(0.015625)"/>
       </defs>
       <use xlink:href="#DejaVuSans-33"/>
       <use xlink:href="#DejaVuSans-34" x="63.623047"/>
      </g>
     </g>
    </g>
    <g id="xtick_3">
     <g id="line2d_3">
      <g>
       <use xlink:href="#meaaacc0307" x="145.495604" y="307.584" style="stroke: #000000; stroke-width: 0.8"/>
      </g>
     </g>
     <g id="text_3">
      <!-- 67 -->
      <g transform="translate(139.133104 322.182437) scale(0.1 -0.1)">
       <defs>
        <path id="DejaVuSans-36" d="M 2113 2584 
Q 1688 2584 1439 2293 
Q 1191 2003 1191 1497 
Q 1191 994 1439 701 
Q 1688 409 2113 409 
Q 2538 409 2786 701 
Q 3034 994 3034 1497 
Q 3034 2003 2786 2293 
Q 2538 2584 2113 2584 
z
M 3366 4563 
L 3366 3988 
Q 3128 4100 2886 4159 
Q 2644 4219 2406 4219 
Q 1781 4219 1451 3797 
Q 1122 3375 1075 2522 
Q 1259 2794 1537 2939 
Q 1816 3084 2150 3084 
Q 2853 3084 3261 2657 
Q 3669 2231 3669 1497 
Q 3669 778 3244 343 
Q 2819 -91 2113 -91 
Q 1303 -91 875 529 
Q 447 1150 447 2328 
Q 447 3434 972 4092 
Q 1497 4750 2381 4750 
Q 2619 4750 2861 4703 
Q 3103 4656 3366 4563 
z
" transform="scale(0.015625)"/>
        <path id="DejaVuSans-37" d="M 525 4666 
L 3525 4666 
L 3525 4397 
L 1831 0 
L 1172 0 
L 2766 4134 
L 525 4134 
L 525 4666 
z
" transform="scale(0.015625)"/>
       </defs>
       <use xlink:href="#DejaVuSans-36"/>
       <use xlink:href="#DejaVuSans-37" x="63.623047"/>
      </g>
     </g>
    </g>
    <g id="xtick_4">
     <g id="line2d_4">
      <g>
       <use xlink:href="#meaaacc0307" x="181.327042" y="307.584" style="stroke: #000000; stroke-width: 0.8"/>
      </g>
     </g>
     <g id="text_4">
      <!-- 100 -->
      <g transform="translate(171.783292 322.182437) scale(0.1 -0.1)">
       <defs>
        <path id="DejaVuSans-30" d="M 2034 4250 
Q 1547 4250 1301 3770 
Q 1056 3291 1056 2328 
Q 1056 1369 1301 889 
Q 1547 409 2034 409 
Q 2525 409 2770 889 
Q 3016 1369 3016 2328 
Q 3016 3291 2770 3770 
Q 2525 4250 2034 4250 
z
M 2034 4750 
Q 2819 4750 3233 4129 
Q 3647 3509 3647 2328 
Q 3647 1150 3233 529 
Q 2819 -91 2034 -91 
Q 1250 -91 836 529 
Q 422 1150 422 2328 
Q 422 3509 836 4129 
Q 1250 4750 2034 4750 
z
" transform="scale(0.015625)"/>
       </defs>
       <use xlink:href="#DejaVuSans-31"/>
       <use xlink:href="#DejaVuSans-30" x="63.623047"/>
       <use xlink:href="#DejaVuSans-30" x="127.246094"/>
      </g>
     </g>
    </g>
    <g id="xtick_5">
     <g id="line2d_5">
      <g>
       <use xlink:href="#meaaacc0307" x="217.15848" y="307.584" style="stroke: #000000; stroke-width: 0.8"/>
      </g>
     </g>
     <g id="text_5">
      <!-- 133 -->
      <g transform="translate(207.61473 322.182437) scale(0.1 -0.1)">
       <use xlink:href="#DejaVuSans-31"/>
       <use xlink:href="#DejaVuSans-33" x="63.623047"/>
       <use xlink:href="#DejaVuSans-33" x="127.246094"/>
      </g>
     </g>
    </g>
    <g id="xtick_6">
     <g id="line2d_6">
      <g>
       <use xlink:href="#meaaacc0307" x="254.075719" y="307.584" style="stroke: #000000; stroke-width: 0.8"/>
      </g>
     </g>
     <g id="text_6">
      <!-- 167 -->
      <g transform="translate(244.531969 322.182437) scale(0.1 -0.1)">
       <use xlink:href="#DejaVuSans-31"/>
       <use xlink:href="#DejaVuSans-36" x="63.623047"/>
       <use xlink:href="#DejaVuSans-37" x="127.246094"/>
      </g>
     </g>
    </g>
    <g id="xtick_7">
     <g id="line2d_7">
      <g>
       <use xlink:href="#meaaacc0307" x="289.907157" y="307.584" style="stroke: #000000; stroke-width: 0.8"/>
      </g>
     </g>
     <g id="text_7">
      <!-- 200 -->
      <g transform="translate(280.363407 322.182437) scale(0.1 -0.1)">
       <defs>
        <path id="DejaVuSans-32" d="M 1228 531 
L 3431 531 
L 3431 0 
L 469 0 
L 469 531 
Q 828 903 1448 1529 
Q 2069 2156 2228 2338 
Q 2531 2678 2651 2914 
Q 2772 3150 2772 3378 
Q 2772 3750 2511 3984 
Q 2250 4219 1831 4219 
Q 1534 4219 1204 4116 
Q 875 4013 500 3803 
L 500 4441 
Q 881 4594 1212 4672 
Q 1544 4750 1819 4750 
Q 2544 4750 2975 4387 
Q 3406 4025 3406 3419 
Q 3406 3131 3298 2873 
Q 3191 2616 2906 2266 
Q 2828 2175 2409 1742 
Q 1991 1309 1228 531 
z
" transform="scale(0.015625)"/>
       </defs>
       <use xlink:href="#DejaVuSans-32"/>
       <use xlink:href="#DejaVuSans-30" x="63.623047"/>
       <use xlink:href="#DejaVuSans-30" x="127.246094"/>
      </g>
     </g>
    </g>
    <g id="xtick_8">
     <g id="line2d_8">
      <g>
       <use xlink:href="#meaaacc0307" x="325.738595" y="307.584" style="stroke: #000000; stroke-width: 0.8"/>
      </g>
     </g>
     <g id="text_8">
      <!-- 233 -->
      <g transform="translate(316.194845 322.182437) scale(0.1 -0.1)">
       <use xlink:href="#DejaVuSans-32"/>
       <use xlink:href="#DejaVuSans-33" x="63.623047"/>
       <use xlink:href="#DejaVuSans-33" x="127.246094"/>
      </g>
     </g>
    </g>
    <g id="xtick_9">
     <g id="line2d_9">
      <g>
       <use xlink:href="#meaaacc0307" x="361.570033" y="307.584" style="stroke: #000000; stroke-width: 0.8"/>
      </g>
     </g>
     <g id="text_9">
      <!-- 266 -->
      <g transform="translate(352.026283 322.182437) scale(0.1 -0.1)">
       <use xlink:href="#DejaVuSans-32"/>
       <use xlink:href="#DejaVuSans-36" x="63.623047"/>
       <use xlink:href="#DejaVuSans-36" x="127.246094"/>
      </g>
     </g>
    </g>
    <g id="xtick_10">
     <g id="line2d_10">
      <g>
       <use xlink:href="#meaaacc0307" x="398.487273" y="307.584" style="stroke: #000000; stroke-width: 0.8"/>
      </g>
     </g>
     <g id="text_10">
      <!-- 300 -->
      <g transform="translate(388.943523 322.182437) scale(0.1 -0.1)">
       <use xlink:href="#DejaVuSans-33"/>
       <use xlink:href="#DejaVuSans-30" x="63.623047"/>
       <use xlink:href="#DejaVuSans-30" x="127.246094"/>
      </g>
     </g>
    </g>
    <g id="text_11">
     <!-- Epochs -->
     <g transform="translate(218.244375 335.860562) scale(0.1 -0.1)">
      <defs>
       <path id="DejaVuSans-45" d="M 628 4666 
L 3578 4666 
L 3578 4134 
L 1259 4134 
L 1259 2753 
L 3481 2753 
L 3481 2222 
L 1259 2222 
L 1259 531 
L 3634 531 
L 3634 0 
L 628 0 
L 628 4666 
z
" transform="scale(0.015625)"/>
       <path id="DejaVuSans-70" d="M 1159 525 
L 1159 -1331 
L 581 -1331 
L 581 3500 
L 1159 3500 
L 1159 2969 
Q 1341 3281 1617 3432 
Q 1894 3584 2278 3584 
Q 2916 3584 3314 3078 
Q 3713 2572 3713 1747 
Q 3713 922 3314 415 
Q 2916 -91 2278 -91 
Q 1894 -91 1617 61 
Q 1341 213 1159 525 
z
M 3116 1747 
Q 3116 2381 2855 2742 
Q 2594 3103 2138 3103 
Q 1681 3103 1420 2742 
Q 1159 2381 1159 1747 
Q 1159 1113 1420 752 
Q 1681 391 2138 391 
Q 2594 391 2855 752 
Q 3116 1113 3116 1747 
z
" transform="scale(0.015625)"/>
       <path id="DejaVuSans-6f" d="M 1959 3097 
Q 1497 3097 1228 2736 
Q 959 2375 959 1747 
Q 959 1119 1226 758 
Q 1494 397 1959 397 
Q 2419 397 2687 759 
Q 2956 1122 2956 1747 
Q 2956 2369 2687 2733 
Q 2419 3097 1959 3097 
z
M 1959 3584 
Q 2709 3584 3137 3096 
Q 3566 2609 3566 1747 
Q 3566 888 3137 398 
Q 2709 -91 1959 -91 
Q 1206 -91 779 398 
Q 353 888 353 1747 
Q 353 2609 779 3096 
Q 1206 3584 1959 3584 
z
" transform="scale(0.015625)"/>
       <path id="DejaVuSans-63" d="M 3122 3366 
L 3122 2828 
Q 2878 2963 2633 3030 
Q 2388 3097 2138 3097 
Q 1578 3097 1268 2742 
Q 959 2388 959 1747 
Q 959 1106 1268 751 
Q 1578 397 2138 397 
Q 2388 397 2633 464 
Q 2878 531 3122 666 
L 3122 134 
Q 2881 22 2623 -34 
Q 2366 -91 2075 -91 
Q 1284 -91 818 406 
Q 353 903 353 1747 
Q 353 2603 823 3093 
Q 1294 3584 2113 3584 
Q 2378 3584 2631 3529 
Q 2884 3475 3122 3366 
z
" transform="scale(0.015625)"/>
       <path id="DejaVuSans-68" d="M 3513 2113 
L 3513 0 
L 2938 0 
L 2938 2094 
Q 2938 2591 2744 2837 
Q 2550 3084 2163 3084 
Q 1697 3084 1428 2787 
Q 1159 2491 1159 1978 
L 1159 0 
L 581 0 
L 581 4863 
L 1159 4863 
L 1159 2956 
Q 1366 3272 1645 3428 
Q 1925 3584 2291 3584 
Q 2894 3584 3203 3211 
Q 3513 2838 3513 2113 
z
" transform="scale(0.015625)"/>
       <path id="DejaVuSans-73" d="M 2834 3397 
L 2834 2853 
Q 2591 2978 2328 3040 
Q 2066 3103 1784 3103 
Q 1356 3103 1142 2972 
Q 928 2841 928 2578 
Q 928 2378 1081 2264 
Q 1234 2150 1697 2047 
L 1894 2003 
Q 2506 1872 2764 1633 
Q 3022 1394 3022 966 
Q 3022 478 2636 193 
Q 2250 -91 1575 -91 
Q 1294 -91 989 -36 
Q 684 19 347 128 
L 347 722 
Q 666 556 975 473 
Q 1284 391 1588 391 
Q 1994 391 2212 530 
Q 2431 669 2431 922 
Q 2431 1156 2273 1281 
Q 2116 1406 1581 1522 
L 1381 1569 
Q 847 1681 609 1914 
Q 372 2147 372 2553 
Q 372 3047 722 3315 
Q 1072 3584 1716 3584 
Q 2034 3584 2315 3537 
Q 2597 3491 2834 3397 
z
" transform="scale(0.015625)"/>
      </defs>
      <use xlink:href="#DejaVuSans-45"/>
      <use xlink:href="#DejaVuSans-70" x="63.183594"/>
      <use xlink:href="#DejaVuSans-6f" x="126.660156"/>
      <use xlink:href="#DejaVuSans-63" x="187.841797"/>
      <use xlink:href="#DejaVuSans-68" x="242.822266"/>
      <use xlink:href="#DejaVuSans-73" x="306.201172"/>
     </g>
    </g>
   </g>
   <g id="matplotlib.axis_2">
    <g id="ytick_1">
     <g id="line2d_11">
      <defs>
       <path id="ma6ab8e2bb2" d="M 0 0 
L -3.5 0 
" style="stroke: #000000; stroke-width: 0.8"/>
      </defs>
      <g>
       <use xlink:href="#ma6ab8e2bb2" x="57.6" y="305.998368" style="stroke: #000000; stroke-width: 0.8"/>
      </g>
     </g>
     <g id="text_12">
      <!-- 0 -->
      <g transform="translate(44.2375 309.797587) scale(0.1 -0.1)">
       <use xlink:href="#DejaVuSans-30"/>
      </g>
     </g>
    </g>
    <g id="ytick_2">
     <g id="line2d_12">
      <g>
       <use xlink:href="#ma6ab8e2bb2" x="57.6" y="269.693123" style="stroke: #000000; stroke-width: 0.8"/>
      </g>
     </g>
     <g id="text_13">
      <!-- 10 -->
      <g transform="translate(37.875 273.492342) scale(0.1 -0.1)">
       <use xlink:href="#DejaVuSans-31"/>
       <use xlink:href="#DejaVuSans-30" x="63.623047"/>
      </g>
     </g>
    </g>
    <g id="ytick_3">
     <g id="line2d_13">
      <g>
       <use xlink:href="#ma6ab8e2bb2" x="57.6" y="233.387878" style="stroke: #000000; stroke-width: 0.8"/>
      </g>
     </g>
     <g id="text_14">
      <!-- 20 -->
      <g transform="translate(37.875 237.187097) scale(0.1 -0.1)">
       <use xlink:href="#DejaVuSans-32"/>
       <use xlink:href="#DejaVuSans-30" x="63.623047"/>
      </g>
     </g>
    </g>
    <g id="ytick_4">
     <g id="line2d_14">
      <g>
       <use xlink:href="#ma6ab8e2bb2" x="57.6" y="197.082633" style="stroke: #000000; stroke-width: 0.8"/>
      </g>
     </g>
     <g id="text_15">
      <!-- 30 -->
      <g transform="translate(37.875 200.881852) scale(0.1 -0.1)">
       <use xlink:href="#DejaVuSans-33"/>
       <use xlink:href="#DejaVuSans-30" x="63.623047"/>
      </g>
     </g>
    </g>
    <g id="ytick_5">
     <g id="line2d_15">
      <g>
       <use xlink:href="#ma6ab8e2bb2" x="57.6" y="160.777388" style="stroke: #000000; stroke-width: 0.8"/>
      </g>
     </g>
     <g id="text_16">
      <!-- 40 -->
      <g transform="translate(37.875 164.576607) scale(0.1 -0.1)">
       <use xlink:href="#DejaVuSans-34"/>
       <use xlink:href="#DejaVuSans-30" x="63.623047"/>
      </g>
     </g>
    </g>
    <g id="ytick_6">
     <g id="line2d_16">
      <g>
       <use xlink:href="#ma6ab8e2bb2" x="57.6" y="124.472143" style="stroke: #000000; stroke-width: 0.8"/>
      </g>
     </g>
     <g id="text_17">
      <!-- 50 -->
      <g transform="translate(37.875 128.271362) scale(0.1 -0.1)">
       <defs>
        <path id="DejaVuSans-35" d="M 691 4666 
L 3169 4666 
L 3169 4134 
L 1269 4134 
L 1269 2991 
Q 1406 3038 1543 3061 
Q 1681 3084 1819 3084 
Q 2600 3084 3056 2656 
Q 3513 2228 3513 1497 
Q 3513 744 3044 326 
Q 2575 -91 1722 -91 
Q 1428 -91 1123 -41 
Q 819 9 494 109 
L 494 744 
Q 775 591 1075 516 
Q 1375 441 1709 441 
Q 2250 441 2565 725 
Q 2881 1009 2881 1497 
Q 2881 1984 2565 2268 
Q 2250 2553 1709 2553 
Q 1456 2553 1204 2497 
Q 953 2441 691 2322 
L 691 4666 
z
" transform="scale(0.015625)"/>
       </defs>
       <use xlink:href="#DejaVuSans-35"/>
       <use xlink:href="#DejaVuSans-30" x="63.623047"/>
      </g>
     </g>
    </g>
    <g id="ytick_7">
     <g id="line2d_17">
      <g>
       <use xlink:href="#ma6ab8e2bb2" x="57.6" y="88.166898" style="stroke: #000000; stroke-width: 0.8"/>
      </g>
     </g>
     <g id="text_18">
      <!-- 60 -->
      <g transform="translate(37.875 91.966117) scale(0.1 -0.1)">
       <use xlink:href="#DejaVuSans-36"/>
       <use xlink:href="#DejaVuSans-30" x="63.623047"/>
      </g>
     </g>
    </g>
    <g id="ytick_8">
     <g id="line2d_18">
      <g>
       <use xlink:href="#ma6ab8e2bb2" x="57.6" y="51.861653" style="stroke: #000000; stroke-width: 0.8"/>
      </g>
     </g>
     <g id="text_19">
      <!-- 70 -->
      <g transform="translate(37.875 55.660872) scale(0.1 -0.1)">
       <use xlink:href="#DejaVuSans-37"/>
       <use xlink:href="#DejaVuSans-30" x="63.623047"/>
      </g>
     </g>
    </g>
    <g id="text_20">
     <!-- Accuracy -->
     <g transform="translate(31.795312 197.356125) rotate(-90) scale(0.1 -0.1)">
      <defs>
       <path id="DejaVuSans-41" d="M 2188 4044 
L 1331 1722 
L 3047 1722 
L 2188 4044 
z
M 1831 4666 
L 2547 4666 
L 4325 0 
L 3669 0 
L 3244 1197 
L 1141 1197 
L 716 0 
L 50 0 
L 1831 4666 
z
" transform="scale(0.015625)"/>
       <path id="DejaVuSans-75" d="M 544 1381 
L 544 3500 
L 1119 3500 
L 1119 1403 
Q 1119 906 1312 657 
Q 1506 409 1894 409 
Q 2359 409 2629 706 
Q 2900 1003 2900 1516 
L 2900 3500 
L 3475 3500 
L 3475 0 
L 2900 0 
L 2900 538 
Q 2691 219 2414 64 
Q 2138 -91 1772 -91 
Q 1169 -91 856 284 
Q 544 659 544 1381 
z
M 1991 3584 
L 1991 3584 
z
" transform="scale(0.015625)"/>
       <path id="DejaVuSans-72" d="M 2631 2963 
Q 2534 3019 2420 3045 
Q 2306 3072 2169 3072 
Q 1681 3072 1420 2755 
Q 1159 2438 1159 1844 
L 1159 0 
L 581 0 
L 581 3500 
L 1159 3500 
L 1159 2956 
Q 1341 3275 1631 3429 
Q 1922 3584 2338 3584 
Q 2397 3584 2469 3576 
Q 2541 3569 2628 3553 
L 2631 2963 
z
" transform="scale(0.015625)"/>
       <path id="DejaVuSans-61" d="M 2194 1759 
Q 1497 1759 1228 1600 
Q 959 1441 959 1056 
Q 959 750 1161 570 
Q 1363 391 1709 391 
Q 2188 391 2477 730 
Q 2766 1069 2766 1631 
L 2766 1759 
L 2194 1759 
z
M 3341 1997 
L 3341 0 
L 2766 0 
L 2766 531 
Q 2569 213 2275 61 
Q 1981 -91 1556 -91 
Q 1019 -91 701 211 
Q 384 513 384 1019 
Q 384 1609 779 1909 
Q 1175 2209 1959 2209 
L 2766 2209 
L 2766 2266 
Q 2766 2663 2505 2880 
Q 2244 3097 1772 3097 
Q 1472 3097 1187 3025 
Q 903 2953 641 2809 
L 641 3341 
Q 956 3463 1253 3523 
Q 1550 3584 1831 3584 
Q 2591 3584 2966 3190 
Q 3341 2797 3341 1997 
z
" transform="scale(0.015625)"/>
       <path id="DejaVuSans-79" d="M 2059 -325 
Q 1816 -950 1584 -1140 
Q 1353 -1331 966 -1331 
L 506 -1331 
L 506 -850 
L 844 -850 
Q 1081 -850 1212 -737 
Q 1344 -625 1503 -206 
L 1606 56 
L 191 3500 
L 800 3500 
L 1894 763 
L 2988 3500 
L 3597 3500 
L 2059 -325 
z
" transform="scale(0.015625)"/>
      </defs>
      <use xlink:href="#DejaVuSans-41"/>
      <use xlink:href="#DejaVuSans-63" x="66.658203"/>
      <use xlink:href="#DejaVuSans-63" x="121.638672"/>
      <use xlink:href="#DejaVuSans-75" x="176.619141"/>
      <use xlink:href="#DejaVuSans-72" x="239.998047"/>
      <use xlink:href="#DejaVuSans-61" x="281.111328"/>
      <use xlink:href="#DejaVuSans-63" x="342.390625"/>
      <use xlink:href="#DejaVuSans-79" x="397.371094"/>
     </g>
    </g>
   </g>
   <g id="line2d_19">
    <path d="M 73.832727 295.488 
L 76.00433 267.705411 
L 77.090131 255.488696 
L 78.175932 246.544173 
L 79.261733 236.292298 
L 81.433335 221.325461 
L 82.519137 214.11887 
L 83.604938 208.187319 
L 84.690739 203.653883 
L 85.77654 197.767713 
L 89.033943 185.110979 
L 90.119745 181.938627 
L 92.291347 177.209868 
L 93.377148 176.011795 
L 94.462949 174.215049 
L 95.54875 202.088401 
L 96.634552 200.318157 
L 97.720353 197.781509 
L 98.806154 192.921326 
L 99.891955 190.856284 
L 100.977756 188.410037 
L 102.063557 184.484713 
L 103.149358 182.610637 
L 105.320961 176.81523 
L 108.578364 170.09876 
L 109.664165 165.901148 
L 110.749967 164.675483 
L 111.835768 162.978575 
L 114.00737 157.596323 
L 115.093171 155.667425 
L 116.178972 154.242444 
L 117.264773 151.469813 
L 118.350575 150.893286 
L 119.436376 147.28999 
L 120.522177 146.128222 
L 121.607978 143.563983 
L 122.693779 142.248281 
L 123.77958 140.22862 
L 124.865382 137.59649 
L 125.951183 135.318335 
L 127.036984 134.310865 
L 128.122785 131.855541 
L 129.208586 131.302249 
L 130.294387 129.577387 
L 131.380189 129.114858 
L 132.46599 126.08337 
L 133.551791 126.668611 
L 134.637592 125.23891 
L 135.723393 124.99857 
L 136.809194 124.113448 
L 137.894995 123.605174 
L 138.980797 159.098271 
L 140.066598 163.450181 
L 141.152399 161.76235 
L 142.2382 160.664116 
L 143.324001 160.682269 
L 144.409802 159.774638 
L 145.495604 157.587247 
L 146.581405 157.823231 
L 147.667206 156.12596 
L 148.753007 153.547925 
L 149.838808 152.327343 
L 150.924609 153.207745 
L 152.01041 152.073206 
L 153.096212 150.203486 
L 154.182013 149.885815 
L 155.267814 149.15971 
L 156.353615 148.079629 
L 157.439416 146.01495 
L 158.525217 146.418664 
L 159.611019 146.318825 
L 160.69682 144.911996 
L 162.868422 141.694263 
L 163.954223 141.172556 
L 165.040024 140.863962 
L 166.125825 139.225506 
L 167.211627 139.448057 
L 168.297428 136.135203 
L 169.383229 136.357392 
L 170.46903 134.86924 
L 173.726434 132.422992 
L 174.812235 131.19769 
L 175.898036 130.312931 
L 176.983837 129.976745 
L 179.155439 126.968129 
L 180.24124 126.08337 
L 181.327042 124.699051 
L 182.412843 124.530958 
L 183.498644 123.500978 
L 185.670246 120.705474 
L 186.756047 120.337702 
L 187.841849 118.985695 
L 188.92765 118.862983 
L 191.099252 115.114467 
L 192.185053 115.468443 
L 193.270854 113.412477 
L 194.356656 112.977177 
L 195.442457 112.13308 
L 196.528258 109.628018 
L 197.614059 108.9836 
L 198.69986 109.355366 
L 199.785661 107.218076 
L 200.871462 107.662815 
L 201.957264 105.307331 
L 203.043065 103.914298 
L 204.128866 103.387872 
L 205.214667 104.082029 
L 206.300468 101.985401 
L 209.557872 99.158311 
L 210.643673 98.055721 
L 211.729474 98.282629 
L 212.815275 97.49299 
L 213.901076 97.261362 
L 214.986877 96.326502 
L 216.072679 96.998149 
L 217.15848 95.908992 
L 218.244281 93.99389 
L 219.330082 94.306842 
L 221.501684 94.179773 
L 222.587486 93.090979 
L 223.673287 92.686901 
L 224.759088 93.199532 
L 225.844889 138.563298 
L 226.93069 142.565951 
L 228.016491 142.901775 
L 229.102292 144.65786 
L 230.188094 143.881654 
L 231.273895 141.594786 
L 232.359696 140.528138 
L 233.445497 140.859605 
L 234.531298 139.983559 
L 235.617099 141.122455 
L 236.702901 139.075928 
L 237.788702 137.782372 
L 238.874503 138.35418 
L 239.960304 139.062132 
L 241.046105 138.35418 
L 242.131906 138.000567 
L 243.217708 136.548357 
L 244.303509 136.593376 
L 246.475111 134.769037 
L 247.560912 135.168395 
L 248.646713 133.108072 
L 249.732514 134.120262 
L 252.989918 132.427349 
L 254.075719 131.252148 
L 255.16152 132.631747 
L 256.247321 131.846465 
L 257.333123 130.417127 
L 258.418924 131.016164 
L 259.504725 130.203652 
L 260.590526 129.768353 
L 261.676327 129.128291 
L 262.762128 129.305098 
L 263.847929 128.724577 
L 264.933731 129.228131 
L 266.019532 128.011905 
L 267.105333 127.412868 
L 268.191134 128.057286 
L 269.276935 127.648852 
L 270.362736 125.996964 
L 271.448538 125.733751 
L 272.534339 125.824514 
L 274.705941 125.765699 
L 275.791742 125.098409 
L 276.877543 124.299694 
L 277.963344 123.96387 
L 279.049146 123.478469 
L 280.134947 122.620576 
L 281.220748 122.43905 
L 282.306549 122.371159 
L 283.39235 121.808065 
L 284.478151 121.018426 
L 286.649754 120.800957 
L 287.735555 120.356218 
L 288.821356 119.62975 
L 289.907157 119.516478 
L 290.992958 118.908365 
L 293.164561 117.015772 
L 294.250362 118.962823 
L 295.336163 117.370111 
L 296.421964 116.761636 
L 297.507765 115.050932 
L 298.593566 115.20523 
L 299.679368 116.607701 
L 300.765169 114.215912 
L 301.85097 114.106996 
L 302.936771 113.271975 
L 304.022572 114.460972 
L 305.108373 111.974063 
L 306.194175 112.700168 
L 307.279976 111.016694 
L 308.365777 112.323682 
L 309.451578 111.769664 
L 310.537379 110.780346 
L 311.62318 110.322174 
L 312.708981 109.328137 
L 313.794783 108.534141 
L 315.966385 107.617433 
L 317.052186 108.016791 
L 318.137987 107.154542 
L 319.223788 106.550785 
L 320.30959 106.914201 
L 321.395391 105.607212 
L 322.481192 104.921769 
L 323.566993 104.617531 
L 324.652794 104.976227 
L 325.738595 103.501508 
L 326.824396 103.487712 
L 328.995999 100.98265 
L 330.0818 101.382008 
L 331.167601 99.417168 
L 333.339203 99.466906 
L 334.425005 99.312609 
L 335.510806 97.374998 
L 337.682408 97.379354 
L 338.768209 97.606262 
L 339.85401 96.049856 
L 340.939811 96.186001 
L 342.025613 95.704956 
L 343.111414 95.087404 
L 344.197215 93.92128 
L 345.283016 93.290658 
L 346.368817 92.364511 
L 347.454618 91.806499 
L 348.54042 92.055916 
L 349.626221 90.898868 
L 350.712022 90.708266 
L 351.797823 89.968546 
L 352.883624 89.777944 
L 353.969425 87.880995 
L 355.055227 87.109508 
L 356.141028 86.850833 
L 357.226829 85.389547 
L 358.31263 86.142881 
L 359.398431 85.938664 
L 360.484232 84.763282 
L 361.570033 84.903965 
L 362.655835 83.683201 
L 363.741636 84.913041 
L 364.827437 82.839104 
L 365.913238 83.311072 
L 366.999039 82.5532 
L 368.08484 82.820951 
L 369.170642 85.203483 
L 370.256443 85.4077 
L 371.342244 87.068665 
L 372.428045 89.800635 
L 373.513846 88.834007 
L 374.599647 90.386057 
L 376.77125 90.54943 
L 377.857051 91.230154 
L 378.942852 91.493367 
L 380.028653 90.013928 
L 381.114454 90.358828 
L 382.200255 90.454129 
L 383.286057 90.867101 
L 384.371858 90.458667 
L 385.457659 90.880716 
L 386.54346 90.980555 
L 387.629261 91.588668 
L 388.715062 90.862563 
L 389.800863 91.053165 
L 390.886665 90.780876 
L 391.972466 91.343607 
L 393.058267 90.67196 
L 394.144068 90.96694 
L 395.229869 89.855092 
L 397.401472 90.440514 
L 398.487273 91.084933 
L 398.487273 91.084933 
" clip-path="url(#p60b50904f2)" style="fill: none; stroke: #1f77b4; stroke-width: 1.5; stroke-linecap: square"/>
   </g>
   <g id="line2d_20">
    <path d="M 73.832727 278.787587 
L 74.918528 256.24203 
L 76.00433 247.528771 
L 77.090131 233.151894 
L 78.175932 212.476057 
L 79.261733 212.730194 
L 80.347534 192.762309 
L 81.433335 184.466561 
L 82.519137 182.070415 
L 83.604938 179.184148 
L 84.690739 167.965827 
L 85.77654 165.206628 
L 86.862341 155.712807 
L 87.948142 153.843087 
L 89.033943 146.563885 
L 90.119745 148.687742 
L 92.291347 142.878903 
L 93.377148 140.827656 
L 94.462949 141.535609 
L 95.54875 172.467677 
L 96.634552 170.325668 
L 97.720353 160.65032 
L 98.806154 157.764053 
L 99.891955 156.021401 
L 100.977756 150.866057 
L 102.063557 149.867662 
L 103.149358 146.854327 
L 104.23516 144.966454 
L 105.320961 136.743316 
L 106.406762 130.462509 
L 107.492563 131.769498 
L 108.578364 130.299135 
L 109.664165 136.235043 
L 110.749967 132.205161 
L 111.835768 126.069574 
L 114.00737 119.53463 
L 115.093171 117.66491 
L 116.178972 114.470048 
L 117.264773 115.014627 
L 118.350575 113.271975 
L 121.607978 104.322732 
L 122.693779 102.380402 
L 123.77958 104.613174 
L 124.865382 97.951162 
L 125.951183 97.043531 
L 127.036984 96.716784 
L 128.122785 94.284332 
L 129.208586 94.193569 
L 130.294387 91.888186 
L 131.380189 90.490434 
L 132.46599 90.907944 
L 133.551791 89.90955 
L 134.637592 89.237903 
L 135.723393 88.784088 
L 137.894995 88.80224 
L 138.980797 122.257524 
L 140.066598 122.16676 
L 141.152399 123.764191 
L 142.2382 121.74925 
L 143.324001 121.440656 
L 144.409802 125.034875 
L 145.495604 114.778643 
L 146.581405 120.169972 
L 147.667206 118.209489 
L 148.753007 111.511171 
L 149.838808 114.234064 
L 150.924609 114.324827 
L 152.01041 112.219123 
L 153.096212 111.238882 
L 154.182013 115.668122 
L 155.267814 108.062173 
L 156.353615 112.908923 
L 157.439416 111.002898 
L 158.525217 110.512777 
L 159.611019 105.121448 
L 160.69682 107.62651 
L 161.782621 101.944739 
L 162.868422 102.053655 
L 163.954223 103.233575 
L 165.040024 104.068596 
L 166.125825 99.748272 
L 167.211627 99.040319 
L 168.297428 99.87534 
L 170.46903 98.804335 
L 171.554831 94.447706 
L 172.640632 96.698631 
L 173.726434 93.866822 
L 174.812235 92.087865 
L 175.898036 92.269391 
L 176.983837 91.615897 
L 178.069638 90.59935 
L 179.155439 89.056377 
L 180.24124 89.419429 
L 181.327042 87.422641 
L 182.412843 86.85991 
L 183.498644 87.513404 
L 184.584445 83.410911 
L 185.670246 81.722717 
L 186.756047 83.937337 
L 187.841849 81.795328 
L 188.92765 82.212838 
L 190.013451 80.379423 
L 191.099252 78.963519 
L 192.185053 78.927214 
L 193.270854 77.819904 
L 194.356656 77.329783 
L 195.442457 75.696047 
L 196.528258 75.060705 
L 197.614059 73.862632 
L 198.69986 73.027611 
L 199.785661 74.661347 
L 200.871462 71.593554 
L 201.957264 70.577007 
L 204.128866 71.212349 
L 205.214667 68.217166 
L 206.300468 68.307929 
L 207.386269 66.111462 
L 208.472071 67.61813 
L 209.557872 65.330899 
L 210.643673 66.238531 
L 211.729474 66.09331 
L 212.815275 64.604794 
L 213.901076 64.223589 
L 214.986877 64.332505 
L 216.072679 63.987605 
L 217.15848 63.243348 
L 218.244281 63.116279 
L 219.330082 63.461179 
L 220.415883 63.007364 
L 221.501684 62.735074 
L 222.587486 62.226801 
L 223.673287 62.662464 
L 224.759088 62.880295 
L 225.844889 104.014138 
L 226.93069 105.103295 
L 228.016491 106.446589 
L 229.102292 106.10169 
L 230.188094 102.924981 
L 231.273895 103.288033 
L 232.359696 102.471165 
L 233.445497 101.218634 
L 234.531298 102.688996 
L 235.617099 107.190847 
L 236.702901 106.464742 
L 237.788702 101.073413 
L 238.874503 99.802729 
L 241.046105 103.760001 
L 242.131906 106.755184 
L 243.217708 100.056866 
L 244.303509 100.038714 
L 245.38931 101.254939 
L 246.475111 101.32755 
L 247.560912 102.580081 
L 248.646713 104.195664 
L 249.732514 108.606751 
L 250.818316 96.825699 
L 251.904117 99.131082 
L 252.989918 99.494135 
L 254.075719 97.279515 
L 255.16152 96.789394 
L 256.247321 91.035013 
L 257.333123 91.561439 
L 258.418924 99.040319 
L 259.504725 96.335579 
L 260.590526 94.175417 
L 261.676327 99.367067 
L 263.847929 92.342002 
L 264.933731 89.746177 
L 266.019532 95.210116 
L 267.105333 88.620714 
L 268.191134 90.308908 
L 269.276935 88.330272 
L 270.362736 94.030196 
L 271.448538 89.56465 
L 272.534339 93.15887 
L 273.62014 99.11293 
L 274.705941 92.05156 
L 275.791742 92.54168 
L 276.877543 92.850275 
L 277.963344 89.56465 
L 279.049146 89.020072 
L 280.134947 85.589226 
L 281.220748 86.115652 
L 282.306549 86.133805 
L 283.39235 88.185051 
L 284.478151 84.99019 
L 285.563953 84.500069 
L 286.649754 89.964008 
L 287.735555 85.316937 
L 288.821356 87.132199 
L 289.907157 84.608984 
L 290.992958 87.313725 
L 292.07876 85.661837 
L 293.164561 82.122075 
L 294.250362 83.792116 
L 295.336163 81.976854 
L 296.421964 79.725929 
L 297.507765 84.736053 
L 298.593566 85.044647 
L 300.765169 78.146651 
L 301.85097 83.102317 
L 302.936771 77.021188 
L 304.022572 79.780387 
L 305.108373 79.508098 
L 306.194175 78.636772 
L 307.279976 79.199503 
L 308.365777 78.291872 
L 309.451578 77.783598 
L 310.537379 76.658136 
L 311.62318 74.824721 
L 312.708981 75.260384 
L 313.794783 76.712594 
L 314.880584 75.242231 
L 315.966385 74.715805 
L 317.052186 76.040947 
L 318.137987 71.847691 
L 319.223788 74.298295 
L 320.30959 72.301506 
L 321.395391 73.318053 
L 322.481192 72.591948 
L 323.566993 75.568978 
L 324.652794 70.359176 
L 326.824396 72.156285 
L 327.910198 71.28496 
L 328.995999 69.923513 
L 330.0818 69.342629 
L 331.167601 69.596766 
L 332.253402 66.837567 
L 333.339203 65.766562 
L 334.425005 65.312747 
L 335.510806 65.167526 
L 336.596607 66.601583 
L 337.682408 65.385357 
L 338.768209 70.958212 
L 339.85401 66.09331 
L 340.939811 64.314353 
L 342.025613 63.297806 
L 343.111414 62.117885 
L 344.197215 61.31917 
L 345.283016 62.045275 
L 346.368817 61.645917 
L 347.454618 60.937965 
L 348.54042 61.809291 
L 349.626221 60.97427 
L 350.712022 61.936359 
L 351.797823 60.175555 
L 352.883624 58.75965 
L 353.969425 58.396598 
L 355.055227 57.888324 
L 356.141028 58.487361 
L 357.226829 58.41475 
L 358.31263 55.546636 
L 359.398431 55.746315 
L 360.484232 56.54503 
L 361.570033 55.310652 
L 362.655835 55.328804 
L 363.741636 55.637399 
L 364.827437 54.584547 
L 365.913238 54.838684 
L 366.999039 53.568 
L 368.08484 55.328804 
L 369.170642 56.799167 
L 370.256443 55.710009 
L 371.342244 58.668887 
L 372.428045 60.956117 
L 373.513846 62.535396 
L 374.599647 60.847202 
L 375.685448 61.355475 
L 376.77125 59.975876 
L 377.857051 61.537001 
L 378.942852 61.31917 
L 380.028653 59.79435 
L 381.114454 64.441421 
L 382.200255 60.683828 
L 383.286057 60.121097 
L 384.371858 61.791138 
L 385.457659 61.845596 
L 386.54346 60.320776 
L 387.629261 61.954512 
L 388.715062 62.862143 
L 389.800863 61.228407 
L 390.886665 61.881901 
L 391.972466 60.193707 
L 393.058267 63.279653 
L 394.144068 61.754833 
L 395.229869 62.735074 
L 396.31567 61.591459 
L 397.401472 61.028728 
L 398.487273 63.860537 
L 398.487273 63.860537 
" clip-path="url(#p60b50904f2)" style="fill: none; stroke: #ff7f0e; stroke-width: 1.5; stroke-linecap: square"/>
   </g>
   <g id="line2d_21">
    <path d="M 73.832727 284.715871 
L 74.918528 271.94659 
L 76.00433 266.688501 
L 77.090131 259.052056 
L 78.175932 243.403043 
L 79.261733 253.543461 
L 80.347534 234.639683 
L 81.433335 231.885567 
L 82.519137 230.383256 
L 83.604938 226.502226 
L 84.690739 216.988073 
L 85.77654 215.110003 
L 86.862341 215.735905 
L 89.033943 205.72074 
L 90.119745 207.848954 
L 91.205546 207.598811 
L 92.291347 204.343682 
L 93.377148 204.468936 
L 94.462949 204.218429 
L 95.54875 222.245799 
L 96.634552 220.618598 
L 97.720353 215.235256 
L 98.806154 208.349603 
L 99.891955 209.476518 
L 100.977756 206.471896 
L 102.063557 210.227674 
L 103.149358 204.093176 
L 104.23516 204.343682 
L 106.406762 193.452109 
L 107.492563 196.95738 
L 108.578364 193.952758 
L 109.664165 201.71482 
L 110.749967 191.574402 
L 111.835768 193.827505 
L 112.921569 190.823246 
L 114.00737 182.935932 
L 115.093171 184.313353 
L 116.178972 182.560535 
L 117.264773 184.438243 
L 118.350575 182.685789 
L 119.436376 174.798837 
L 120.522177 173.671922 
L 121.607978 176.175895 
L 122.693779 173.671922 
L 123.77958 173.922429 
L 124.865382 171.168313 
L 125.951183 167.663041 
L 127.036984 168.288944 
L 128.122785 162.780349 
L 129.208586 165.910224 
L 131.380189 161.027895 
L 132.46599 161.152785 
L 133.551791 160.151486 
L 134.637592 159.525584 
L 135.723393 161.027895 
L 136.809194 159.775727 
L 137.894995 159.400331 
L 138.980797 186.316313 
L 141.152399 192.826207 
L 142.2382 185.940554 
L 143.324001 187.317612 
L 144.409802 186.816962 
L 145.495604 184.438243 
L 146.581405 183.436944 
L 147.667206 183.562197 
L 148.753007 181.558874 
L 149.838808 181.183478 
L 150.924609 182.310029 
L 152.01041 177.177194 
L 153.096212 178.930011 
L 154.182013 181.308731 
L 155.267814 170.54241 
L 156.353615 175.42474 
L 157.439416 179.43066 
L 158.525217 173.296526 
L 159.611019 169.040099 
L 160.69682 174.172935 
L 161.782621 163.907264 
L 162.868422 168.288944 
L 163.954223 171.543709 
L 165.040024 170.6673 
L 166.125825 174.172935 
L 167.211627 164.783309 
L 168.297428 169.290242 
L 169.383229 166.28562 
L 170.46903 168.288944 
L 171.554831 163.156108 
L 172.640632 164.28266 
L 173.726434 165.033815 
L 174.812235 160.026233 
L 176.983837 161.77905 
L 178.069638 156.646215 
L 179.155439 156.270455 
L 180.24124 159.650837 
L 181.327042 153.516339 
L 182.412843 151.513379 
L 183.498644 156.395708 
L 184.584445 153.516339 
L 185.670246 154.267495 
L 186.756047 153.516339 
L 187.841849 150.011068 
L 188.92765 152.139282 
L 190.013451 148.508757 
L 191.099252 149.760562 
L 192.185053 150.511717 
L 193.270854 150.136321 
L 194.356656 147.507095 
L 195.442457 141.748357 
L 196.528258 143.501175 
L 197.614059 145.629388 
L 198.69986 142.750019 
L 199.785661 147.632348 
L 200.871462 144.127077 
L 201.957264 140.120793 
L 203.043065 140.997202 
L 204.128866 142.624766 
L 205.214667 136.490269 
L 206.300468 139.87065 
L 207.386269 135.238464 
L 208.472071 139.494891 
L 209.557872 131.607939 
L 210.643673 136.365379 
L 211.729474 136.615522 
L 212.815275 131.733192 
L 213.901076 133.11025 
L 214.986877 132.734854 
L 216.072679 134.863068 
L 217.15848 130.481388 
L 218.244281 130.982037 
L 219.330082 134.988321 
L 220.415883 131.232543 
L 221.501684 131.482686 
L 222.587486 131.357796 
L 223.673287 131.10729 
L 224.759088 130.731531 
L 225.844889 174.172935 
L 226.93069 172.920767 
L 228.016491 167.412535 
L 229.102292 173.296526 
L 230.188094 171.919468 
L 231.273895 171.293566 
L 232.359696 168.914846 
L 233.445497 171.794215 
L 234.531298 168.539087 
L 235.617099 179.681166 
L 236.702901 176.426038 
L 237.788702 164.28266 
L 238.874503 168.66434 
L 239.960304 165.033815 
L 241.046105 171.293566 
L 242.131906 169.164989 
L 243.217708 164.908562 
L 244.303509 173.546669 
L 245.38931 173.922429 
L 247.560912 165.409575 
L 248.646713 173.797175 
L 249.732514 178.429362 
L 250.818316 162.655096 
L 251.904117 164.407913 
L 252.989918 165.284322 
L 254.075719 164.28266 
L 255.16152 168.163691 
L 256.247321 157.647513 
L 257.333123 162.780349 
L 258.418924 167.287282 
L 259.504725 170.041398 
L 260.590526 165.409575 
L 261.676327 169.540748 
L 262.762128 162.154446 
L 263.847929 160.276739 
L 264.933731 156.395708 
L 266.019532 159.275077 
L 267.105333 156.270455 
L 268.191134 158.398669 
L 269.276935 154.267495 
L 270.362736 160.526882 
L 271.448538 159.90098 
L 272.534339 158.774428 
L 273.62014 169.040099 
L 274.705941 158.273416 
L 275.791742 163.531504 
L 276.877543 167.162029 
L 277.963344 160.026233 
L 279.049146 158.649175 
L 280.134947 153.516339 
L 281.220748 157.272117 
L 282.306549 154.518001 
L 283.39235 154.016989 
L 284.478151 160.276739 
L 285.563953 152.765184 
L 286.649754 158.774428 
L 287.735555 155.644553 
L 288.821356 158.398669 
L 289.907157 150.887477 
L 290.992958 161.528544 
L 292.07876 155.394047 
L 294.250362 151.888775 
L 295.336163 150.762224 
L 296.421964 151.13762 
L 297.507765 161.653797 
L 298.593566 155.769806 
L 299.679368 156.771468 
L 300.765169 147.381842 
L 301.85097 154.392748 
L 304.022572 150.261211 
L 305.108373 149.885815 
L 306.194175 154.016989 
L 307.279976 149.009406 
L 308.365777 147.507095 
L 309.451578 145.253629 
L 310.537379 146.130037 
L 311.62318 146.75594 
L 312.708981 144.25233 
L 313.794783 142.750019 
L 314.880584 145.504135 
L 315.966385 149.385166 
L 317.052186 144.627726 
L 318.137987 142.750019 
L 319.223788 144.752979 
L 320.30959 142.499513 
L 321.395391 143.375921 
L 322.481192 146.25529 
L 323.566993 142.499513 
L 324.652794 140.747059 
L 325.738595 138.493592 
L 326.824396 141.87361 
L 327.910198 142.24937 
L 330.0818 136.615522 
L 331.167601 140.621806 
L 333.339203 136.365379 
L 334.425005 132.484348 
L 335.510806 133.986659 
L 336.596607 135.739113 
L 337.682408 130.982037 
L 338.768209 143.876571 
L 339.85401 135.989619 
L 340.939811 131.10729 
L 342.025613 135.614223 
L 343.111414 134.487308 
L 344.197215 132.108589 
L 345.283016 130.731531 
L 346.368817 128.603317 
L 347.454618 128.853823 
L 348.54042 124.472143 
L 349.626221 126.976116 
L 350.712022 127.727096 
L 351.797823 133.110288 
L 352.883624 129.354573 
L 353.969425 128.227858 
L 355.055227 127.977477 
L 356.141028 127.101144 
L 357.226829 125.348477 
L 358.31263 125.598858 
L 359.398431 126.600382 
L 360.484232 128.60343 
L 361.570033 125.098096 
L 362.655835 123.470619 
L 363.741636 123.470619 
L 365.913238 124.847715 
L 366.999039 123.470619 
L 368.08484 122.469095 
L 369.170642 128.227858 
L 370.256443 127.601906 
L 371.342244 129.104192 
L 372.428045 130.982049 
L 373.513846 130.606478 
L 374.599647 131.10724 
L 376.77125 126.09962 
L 377.857051 129.604954 
L 378.942852 128.853811 
L 380.028653 129.855335 
L 381.114454 136.24005 
L 382.200255 133.110288 
L 383.286057 128.979001 
L 384.371858 129.354573 
L 385.457659 133.73624 
L 386.54346 130.982049 
L 387.629261 132.859907 
L 388.715062 132.359145 
L 389.800863 133.73624 
L 390.886665 132.359145 
L 391.972466 128.979001 
L 393.058267 129.604954 
L 394.144068 132.359145 
L 395.229869 134.362193 
L 396.31567 132.484335 
L 397.401472 132.734716 
L 398.487273 133.73624 
L 398.487273 133.73624 
" clip-path="url(#p60b50904f2)" style="fill: none; stroke: #2ca02c; stroke-width: 1.5; stroke-linecap: square"/>
   </g>
   <g id="line2d_22">
    <path d="M 368.08484 54.584547 
L 369.170642 57.761256 
L 370.256443 56.926235 
L 371.342244 60.683828 
L 372.428045 61.192101 
L 373.513846 62.698769 
L 374.599647 61.355475 
L 375.685448 61.954512 
L 376.77125 60.55676 
L 377.857051 64.386963 
L 378.942852 63.098127 
L 380.028653 64.096521 
L 381.114454 61.573307 
L 382.200255 63.751621 
L 383.286057 64.132826 
L 384.371858 62.063427 
L 385.457659 68.253472 
L 386.54346 66.656041 
L 387.629261 66.256683 
L 388.715062 68.199014 
L 389.800863 66.692346 
L 390.886665 70.540702 
L 391.972466 69.433392 
L 393.058267 68.979576 
L 394.144068 69.56046 
L 395.229869 69.669376 
L 396.31567 73.953395 
L 397.401472 74.516126 
L 398.487273 73.971548 
L 398.487273 73.971548 
" clip-path="url(#p60b50904f2)" style="fill: none; stroke: #d62728; stroke-width: 1.5; stroke-linecap: square"/>
   </g>
   <g id="line2d_23">
    <path d="M 368.08484 121.592762 
L 369.170642 128.353049 
L 370.256443 124.722524 
L 371.342244 128.227858 
L 372.428045 129.479763 
L 373.513846 128.60343 
L 374.599647 130.356097 
L 375.685448 129.354573 
L 376.77125 129.980525 
L 377.857051 134.988145 
L 378.942852 130.356097 
L 380.028653 133.485859 
L 381.114454 129.229382 
L 382.200255 128.102668 
L 383.286057 126.475191 
L 384.371858 128.353049 
L 385.457659 136.365241 
L 386.54346 132.484335 
L 387.629261 132.484335 
L 388.715062 138.74386 
L 389.800863 134.612574 
L 390.886665 137.867527 
L 391.972466 134.487383 
L 393.058267 137.241574 
L 394.144068 136.11486 
L 395.229869 137.867527 
L 396.31567 143.501099 
L 397.401472 141.998813 
L 398.487273 143.375909 
L 398.487273 143.375909 
" clip-path="url(#p60b50904f2)" style="fill: none; stroke: #9467bd; stroke-width: 1.5; stroke-linecap: square"/>
   </g>
   <g id="patch_3">
    <path d="M 57.6 307.584 
L 57.6 41.472 
" style="fill: none; stroke: #000000; stroke-width: 0.8; stroke-linejoin: miter; stroke-linecap: square"/>
   </g>
   <g id="patch_4">
    <path d="M 414.72 307.584 
L 414.72 41.472 
" style="fill: none; stroke: #000000; stroke-width: 0.8; stroke-linejoin: miter; stroke-linecap: square"/>
   </g>
   <g id="patch_5">
    <path d="M 57.6 307.584 
L 414.72 307.584 
" style="fill: none; stroke: #000000; stroke-width: 0.8; stroke-linejoin: miter; stroke-linecap: square"/>
   </g>
   <g id="patch_6">
    <path d="M 57.6 41.472 
L 414.72 41.472 
" style="fill: none; stroke: #000000; stroke-width: 0.8; stroke-linejoin: miter; stroke-linecap: square"/>
   </g>
   <g id="text_21">
    <!-- Learning Curves -->
    <g transform="translate(187.37625 35.472) scale(0.12 -0.12)">
     <defs>
      <path id="DejaVuSans-4c" d="M 628 4666 
L 1259 4666 
L 1259 531 
L 3531 531 
L 3531 0 
L 628 0 
L 628 4666 
z
" transform="scale(0.015625)"/>
      <path id="DejaVuSans-65" d="M 3597 1894 
L 3597 1613 
L 953 1613 
Q 991 1019 1311 708 
Q 1631 397 2203 397 
Q 2534 397 2845 478 
Q 3156 559 3463 722 
L 3463 178 
Q 3153 47 2828 -22 
Q 2503 -91 2169 -91 
Q 1331 -91 842 396 
Q 353 884 353 1716 
Q 353 2575 817 3079 
Q 1281 3584 2069 3584 
Q 2775 3584 3186 3129 
Q 3597 2675 3597 1894 
z
M 3022 2063 
Q 3016 2534 2758 2815 
Q 2500 3097 2075 3097 
Q 1594 3097 1305 2825 
Q 1016 2553 972 2059 
L 3022 2063 
z
" transform="scale(0.015625)"/>
      <path id="DejaVuSans-6e" d="M 3513 2113 
L 3513 0 
L 2938 0 
L 2938 2094 
Q 2938 2591 2744 2837 
Q 2550 3084 2163 3084 
Q 1697 3084 1428 2787 
Q 1159 2491 1159 1978 
L 1159 0 
L 581 0 
L 581 3500 
L 1159 3500 
L 1159 2956 
Q 1366 3272 1645 3428 
Q 1925 3584 2291 3584 
Q 2894 3584 3203 3211 
Q 3513 2838 3513 2113 
z
" transform="scale(0.015625)"/>
      <path id="DejaVuSans-69" d="M 603 3500 
L 1178 3500 
L 1178 0 
L 603 0 
L 603 3500 
z
M 603 4863 
L 1178 4863 
L 1178 4134 
L 603 4134 
L 603 4863 
z
" transform="scale(0.015625)"/>
      <path id="DejaVuSans-67" d="M 2906 1791 
Q 2906 2416 2648 2759 
Q 2391 3103 1925 3103 
Q 1463 3103 1205 2759 
Q 947 2416 947 1791 
Q 947 1169 1205 825 
Q 1463 481 1925 481 
Q 2391 481 2648 825 
Q 2906 1169 2906 1791 
z
M 3481 434 
Q 3481 -459 3084 -895 
Q 2688 -1331 1869 -1331 
Q 1566 -1331 1297 -1286 
Q 1028 -1241 775 -1147 
L 775 -588 
Q 1028 -725 1275 -790 
Q 1522 -856 1778 -856 
Q 2344 -856 2625 -561 
Q 2906 -266 2906 331 
L 2906 616 
Q 2728 306 2450 153 
Q 2172 0 1784 0 
Q 1141 0 747 490 
Q 353 981 353 1791 
Q 353 2603 747 3093 
Q 1141 3584 1784 3584 
Q 2172 3584 2450 3431 
Q 2728 3278 2906 2969 
L 2906 3500 
L 3481 3500 
L 3481 434 
z
" transform="scale(0.015625)"/>
      <path id="DejaVuSans-20" transform="scale(0.015625)"/>
      <path id="DejaVuSans-43" d="M 4122 4306 
L 4122 3641 
Q 3803 3938 3442 4084 
Q 3081 4231 2675 4231 
Q 1875 4231 1450 3742 
Q 1025 3253 1025 2328 
Q 1025 1406 1450 917 
Q 1875 428 2675 428 
Q 3081 428 3442 575 
Q 3803 722 4122 1019 
L 4122 359 
Q 3791 134 3420 21 
Q 3050 -91 2638 -91 
Q 1578 -91 968 557 
Q 359 1206 359 2328 
Q 359 3453 968 4101 
Q 1578 4750 2638 4750 
Q 3056 4750 3426 4639 
Q 3797 4528 4122 4306 
z
" transform="scale(0.015625)"/>
      <path id="DejaVuSans-76" d="M 191 3500 
L 800 3500 
L 1894 563 
L 2988 3500 
L 3597 3500 
L 2284 0 
L 1503 0 
L 191 3500 
z
" transform="scale(0.015625)"/>
     </defs>
     <use xlink:href="#DejaVuSans-4c"/>
     <use xlink:href="#DejaVuSans-65" x="53.962891"/>
     <use xlink:href="#DejaVuSans-61" x="115.486328"/>
     <use xlink:href="#DejaVuSans-72" x="176.765625"/>
     <use xlink:href="#DejaVuSans-6e" x="216.128906"/>
     <use xlink:href="#DejaVuSans-69" x="279.507812"/>
     <use xlink:href="#DejaVuSans-6e" x="307.291016"/>
     <use xlink:href="#DejaVuSans-67" x="370.669922"/>
     <use xlink:href="#DejaVuSans-20" x="434.146484"/>
     <use xlink:href="#DejaVuSans-43" x="465.933594"/>
     <use xlink:href="#DejaVuSans-75" x="535.757812"/>
     <use xlink:href="#DejaVuSans-72" x="599.136719"/>
     <use xlink:href="#DejaVuSans-76" x="640.25"/>
     <use xlink:href="#DejaVuSans-65" x="699.429688"/>
     <use xlink:href="#DejaVuSans-73" x="760.953125"/>
    </g>
   </g>
   <g id="legend_1">
    <g id="patch_7">
     <path d="M 214.18875 302.584 
L 407.72 302.584 
Q 409.72 302.584 409.72 300.584 
L 409.72 228.193375 
Q 409.72 226.193375 407.72 226.193375 
L 214.18875 226.193375 
Q 212.18875 226.193375 212.18875 228.193375 
L 212.18875 300.584 
Q 212.18875 302.584 214.18875 302.584 
z
" style="fill: #ffffff; opacity: 0.8; stroke: #cccccc; stroke-linejoin: miter"/>
    </g>
    <g id="line2d_24">
     <path d="M 216.18875 234.291812 
L 226.18875 234.291812 
L 236.18875 234.291812 
" style="fill: none; stroke: #1f77b4; stroke-width: 1.5; stroke-linecap: square"/>
    </g>
    <g id="text_22">
     <!-- Train Accuracy -->
     <g transform="translate(244.18875 237.791812) scale(0.1 -0.1)">
      <defs>
       <path id="DejaVuSans-54" d="M -19 4666 
L 3928 4666 
L 3928 4134 
L 2272 4134 
L 2272 0 
L 1638 0 
L 1638 4134 
L -19 4134 
L -19 4666 
z
" transform="scale(0.015625)"/>
      </defs>
      <use xlink:href="#DejaVuSans-54"/>
      <use xlink:href="#DejaVuSans-72" x="46.333984"/>
      <use xlink:href="#DejaVuSans-61" x="87.447266"/>
      <use xlink:href="#DejaVuSans-69" x="148.726562"/>
      <use xlink:href="#DejaVuSans-6e" x="176.509766"/>
      <use xlink:href="#DejaVuSans-20" x="239.888672"/>
      <use xlink:href="#DejaVuSans-41" x="271.675781"/>
      <use xlink:href="#DejaVuSans-63" x="338.333984"/>
      <use xlink:href="#DejaVuSans-63" x="393.314453"/>
      <use xlink:href="#DejaVuSans-75" x="448.294922"/>
      <use xlink:href="#DejaVuSans-72" x="511.673828"/>
      <use xlink:href="#DejaVuSans-61" x="552.787109"/>
      <use xlink:href="#DejaVuSans-63" x="614.066406"/>
      <use xlink:href="#DejaVuSans-79" x="669.046875"/>
     </g>
    </g>
    <g id="line2d_25">
     <path d="M 216.18875 248.969937 
L 226.18875 248.969937 
L 236.18875 248.969937 
" style="fill: none; stroke: #ff7f0e; stroke-width: 1.5; stroke-linecap: square"/>
    </g>
    <g id="text_23">
     <!-- Validation Accuracy -->
     <g transform="translate(244.18875 252.469937) scale(0.1 -0.1)">
      <defs>
       <path id="DejaVuSans-56" d="M 1831 0 
L 50 4666 
L 709 4666 
L 2188 738 
L 3669 4666 
L 4325 4666 
L 2547 0 
L 1831 0 
z
" transform="scale(0.015625)"/>
       <path id="DejaVuSans-6c" d="M 603 4863 
L 1178 4863 
L 1178 0 
L 603 0 
L 603 4863 
z
" transform="scale(0.015625)"/>
       <path id="DejaVuSans-64" d="M 2906 2969 
L 2906 4863 
L 3481 4863 
L 3481 0 
L 2906 0 
L 2906 525 
Q 2725 213 2448 61 
Q 2172 -91 1784 -91 
Q 1150 -91 751 415 
Q 353 922 353 1747 
Q 353 2572 751 3078 
Q 1150 3584 1784 3584 
Q 2172 3584 2448 3432 
Q 2725 3281 2906 2969 
z
M 947 1747 
Q 947 1113 1208 752 
Q 1469 391 1925 391 
Q 2381 391 2643 752 
Q 2906 1113 2906 1747 
Q 2906 2381 2643 2742 
Q 2381 3103 1925 3103 
Q 1469 3103 1208 2742 
Q 947 2381 947 1747 
z
" transform="scale(0.015625)"/>
       <path id="DejaVuSans-74" d="M 1172 4494 
L 1172 3500 
L 2356 3500 
L 2356 3053 
L 1172 3053 
L 1172 1153 
Q 1172 725 1289 603 
Q 1406 481 1766 481 
L 2356 481 
L 2356 0 
L 1766 0 
Q 1100 0 847 248 
Q 594 497 594 1153 
L 594 3053 
L 172 3053 
L 172 3500 
L 594 3500 
L 594 4494 
L 1172 4494 
z
" transform="scale(0.015625)"/>
      </defs>
      <use xlink:href="#DejaVuSans-56"/>
      <use xlink:href="#DejaVuSans-61" x="60.658203"/>
      <use xlink:href="#DejaVuSans-6c" x="121.9375"/>
      <use xlink:href="#DejaVuSans-69" x="149.720703"/>
      <use xlink:href="#DejaVuSans-64" x="177.503906"/>
      <use xlink:href="#DejaVuSans-61" x="240.980469"/>
      <use xlink:href="#DejaVuSans-74" x="302.259766"/>
      <use xlink:href="#DejaVuSans-69" x="341.46875"/>
      <use xlink:href="#DejaVuSans-6f" x="369.251953"/>
      <use xlink:href="#DejaVuSans-6e" x="430.433594"/>
      <use xlink:href="#DejaVuSans-20" x="493.8125"/>
      <use xlink:href="#DejaVuSans-41" x="525.599609"/>
      <use xlink:href="#DejaVuSans-63" x="592.257812"/>
      <use xlink:href="#DejaVuSans-63" x="647.238281"/>
      <use xlink:href="#DejaVuSans-75" x="702.21875"/>
      <use xlink:href="#DejaVuSans-72" x="765.597656"/>
      <use xlink:href="#DejaVuSans-61" x="806.710938"/>
      <use xlink:href="#DejaVuSans-63" x="867.990234"/>
      <use xlink:href="#DejaVuSans-79" x="922.970703"/>
     </g>
    </g>
    <g id="line2d_26">
     <path d="M 216.18875 263.648062 
L 226.18875 263.648062 
L 236.18875 263.648062 
" style="fill: none; stroke: #2ca02c; stroke-width: 1.5; stroke-linecap: square"/>
    </g>
    <g id="text_24">
     <!-- Robust Validation Accuracy -->
     <g transform="translate(244.18875 267.148062) scale(0.1 -0.1)">
      <defs>
       <path id="DejaVuSans-52" d="M 2841 2188 
Q 3044 2119 3236 1894 
Q 3428 1669 3622 1275 
L 4263 0 
L 3584 0 
L 2988 1197 
Q 2756 1666 2539 1819 
Q 2322 1972 1947 1972 
L 1259 1972 
L 1259 0 
L 628 0 
L 628 4666 
L 2053 4666 
Q 2853 4666 3247 4331 
Q 3641 3997 3641 3322 
Q 3641 2881 3436 2590 
Q 3231 2300 2841 2188 
z
M 1259 4147 
L 1259 2491 
L 2053 2491 
Q 2509 2491 2742 2702 
Q 2975 2913 2975 3322 
Q 2975 3731 2742 3939 
Q 2509 4147 2053 4147 
L 1259 4147 
z
" transform="scale(0.015625)"/>
       <path id="DejaVuSans-62" d="M 3116 1747 
Q 3116 2381 2855 2742 
Q 2594 3103 2138 3103 
Q 1681 3103 1420 2742 
Q 1159 2381 1159 1747 
Q 1159 1113 1420 752 
Q 1681 391 2138 391 
Q 2594 391 2855 752 
Q 3116 1113 3116 1747 
z
M 1159 2969 
Q 1341 3281 1617 3432 
Q 1894 3584 2278 3584 
Q 2916 3584 3314 3078 
Q 3713 2572 3713 1747 
Q 3713 922 3314 415 
Q 2916 -91 2278 -91 
Q 1894 -91 1617 61 
Q 1341 213 1159 525 
L 1159 0 
L 581 0 
L 581 4863 
L 1159 4863 
L 1159 2969 
z
" transform="scale(0.015625)"/>
      </defs>
      <use xlink:href="#DejaVuSans-52"/>
      <use xlink:href="#DejaVuSans-6f" x="64.982422"/>
      <use xlink:href="#DejaVuSans-62" x="126.164062"/>
      <use xlink:href="#DejaVuSans-75" x="189.640625"/>
      <use xlink:href="#DejaVuSans-73" x="253.019531"/>
      <use xlink:href="#DejaVuSans-74" x="305.119141"/>
      <use xlink:href="#DejaVuSans-20" x="344.328125"/>
      <use xlink:href="#DejaVuSans-56" x="376.115234"/>
      <use xlink:href="#DejaVuSans-61" x="436.773438"/>
      <use xlink:href="#DejaVuSans-6c" x="498.052734"/>
      <use xlink:href="#DejaVuSans-69" x="525.835938"/>
      <use xlink:href="#DejaVuSans-64" x="553.619141"/>
      <use xlink:href="#DejaVuSans-61" x="617.095703"/>
      <use xlink:href="#DejaVuSans-74" x="678.375"/>
      <use xlink:href="#DejaVuSans-69" x="717.583984"/>
      <use xlink:href="#DejaVuSans-6f" x="745.367188"/>
      <use xlink:href="#DejaVuSans-6e" x="806.548828"/>
      <use xlink:href="#DejaVuSans-20" x="869.927734"/>
      <use xlink:href="#DejaVuSans-41" x="901.714844"/>
      <use xlink:href="#DejaVuSans-63" x="968.373047"/>
      <use xlink:href="#DejaVuSans-63" x="1023.353516"/>
      <use xlink:href="#DejaVuSans-75" x="1078.333984"/>
      <use xlink:href="#DejaVuSans-72" x="1141.712891"/>
      <use xlink:href="#DejaVuSans-61" x="1182.826172"/>
      <use xlink:href="#DejaVuSans-63" x="1244.105469"/>
      <use xlink:href="#DejaVuSans-79" x="1299.085938"/>
     </g>
    </g>
    <g id="line2d_27">
     <path d="M 216.18875 278.326188 
L 226.18875 278.326188 
L 236.18875 278.326188 
" style="fill: none; stroke: #d62728; stroke-width: 1.5; stroke-linecap: square"/>
    </g>
    <g id="text_25">
     <!-- SWA Validation Accuracy -->
     <g transform="translate(244.18875 281.826188) scale(0.1 -0.1)">
      <defs>
       <path id="DejaVuSans-53" d="M 3425 4513 
L 3425 3897 
Q 3066 4069 2747 4153 
Q 2428 4238 2131 4238 
Q 1616 4238 1336 4038 
Q 1056 3838 1056 3469 
Q 1056 3159 1242 3001 
Q 1428 2844 1947 2747 
L 2328 2669 
Q 3034 2534 3370 2195 
Q 3706 1856 3706 1288 
Q 3706 609 3251 259 
Q 2797 -91 1919 -91 
Q 1588 -91 1214 -16 
Q 841 59 441 206 
L 441 856 
Q 825 641 1194 531 
Q 1563 422 1919 422 
Q 2459 422 2753 634 
Q 3047 847 3047 1241 
Q 3047 1584 2836 1778 
Q 2625 1972 2144 2069 
L 1759 2144 
Q 1053 2284 737 2584 
Q 422 2884 422 3419 
Q 422 4038 858 4394 
Q 1294 4750 2059 4750 
Q 2388 4750 2728 4690 
Q 3069 4631 3425 4513 
z
" transform="scale(0.015625)"/>
       <path id="DejaVuSans-57" d="M 213 4666 
L 850 4666 
L 1831 722 
L 2809 4666 
L 3519 4666 
L 4500 722 
L 5478 4666 
L 6119 4666 
L 4947 0 
L 4153 0 
L 3169 4050 
L 2175 0 
L 1381 0 
L 213 4666 
z
" transform="scale(0.015625)"/>
      </defs>
      <use xlink:href="#DejaVuSans-53"/>
      <use xlink:href="#DejaVuSans-57" x="63.476562"/>
      <use xlink:href="#DejaVuSans-41" x="156.853516"/>
      <use xlink:href="#DejaVuSans-20" x="225.261719"/>
      <use xlink:href="#DejaVuSans-56" x="257.048828"/>
      <use xlink:href="#DejaVuSans-61" x="317.707031"/>
      <use xlink:href="#DejaVuSans-6c" x="378.986328"/>
      <use xlink:href="#DejaVuSans-69" x="406.769531"/>
      <use xlink:href="#DejaVuSans-64" x="434.552734"/>
      <use xlink:href="#DejaVuSans-61" x="498.029297"/>
      <use xlink:href="#DejaVuSans-74" x="559.308594"/>
      <use xlink:href="#DejaVuSans-69" x="598.517578"/>
      <use xlink:href="#DejaVuSans-6f" x="626.300781"/>
      <use xlink:href="#DejaVuSans-6e" x="687.482422"/>
      <use xlink:href="#DejaVuSans-20" x="750.861328"/>
      <use xlink:href="#DejaVuSans-41" x="782.648438"/>
      <use xlink:href="#DejaVuSans-63" x="849.306641"/>
      <use xlink:href="#DejaVuSans-63" x="904.287109"/>
      <use xlink:href="#DejaVuSans-75" x="959.267578"/>
      <use xlink:href="#DejaVuSans-72" x="1022.646484"/>
      <use xlink:href="#DejaVuSans-61" x="1063.759766"/>
      <use xlink:href="#DejaVuSans-63" x="1125.039062"/>
      <use xlink:href="#DejaVuSans-79" x="1180.019531"/>
     </g>
    </g>
    <g id="line2d_28">
     <path d="M 216.18875 293.004312 
L 226.18875 293.004312 
L 236.18875 293.004312 
" style="fill: none; stroke: #9467bd; stroke-width: 1.5; stroke-linecap: square"/>
    </g>
    <g id="text_26">
     <!-- SWA Robust Validation Accuracy -->
     <g transform="translate(244.18875 296.504312) scale(0.1 -0.1)">
      <use xlink:href="#DejaVuSans-53"/>
      <use xlink:href="#DejaVuSans-57" x="63.476562"/>
      <use xlink:href="#DejaVuSans-41" x="156.853516"/>
      <use xlink:href="#DejaVuSans-20" x="225.261719"/>
      <use xlink:href="#DejaVuSans-52" x="257.048828"/>
      <use xlink:href="#DejaVuSans-6f" x="322.03125"/>
      <use xlink:href="#DejaVuSans-62" x="383.212891"/>
      <use xlink:href="#DejaVuSans-75" x="446.689453"/>
      <use xlink:href="#DejaVuSans-73" x="510.068359"/>
      <use xlink:href="#DejaVuSans-74" x="562.167969"/>
      <use xlink:href="#DejaVuSans-20" x="601.376953"/>
      <use xlink:href="#DejaVuSans-56" x="633.164062"/>
      <use xlink:href="#DejaVuSans-61" x="693.822266"/>
      <use xlink:href="#DejaVuSans-6c" x="755.101562"/>
      <use xlink:href="#DejaVuSans-69" x="782.884766"/>
      <use xlink:href="#DejaVuSans-64" x="810.667969"/>
      <use xlink:href="#DejaVuSans-61" x="874.144531"/>
      <use xlink:href="#DejaVuSans-74" x="935.423828"/>
      <use xlink:href="#DejaVuSans-69" x="974.632812"/>
      <use xlink:href="#DejaVuSans-6f" x="1002.416016"/>
      <use xlink:href="#DejaVuSans-6e" x="1063.597656"/>
      <use xlink:href="#DejaVuSans-20" x="1126.976562"/>
      <use xlink:href="#DejaVuSans-41" x="1158.763672"/>
      <use xlink:href="#DejaVuSans-63" x="1225.421875"/>
      <use xlink:href="#DejaVuSans-63" x="1280.402344"/>
      <use xlink:href="#DejaVuSans-75" x="1335.382812"/>
      <use xlink:href="#DejaVuSans-72" x="1398.761719"/>
      <use xlink:href="#DejaVuSans-61" x="1439.875"/>
      <use xlink:href="#DejaVuSans-63" x="1501.154297"/>
      <use xlink:href="#DejaVuSans-79" x="1556.134766"/>
     </g>
    </g>
   </g>
  </g>
 </g>
 <defs>
  <clipPath id="p60b50904f2">
   <rect x="57.6" y="41.472" width="357.12" height="266.112"/>
  </clipPath>
 </defs>
</svg>
